<?xml version="1.0" encoding="utf-8" standalone="no"?>
<!DOCTYPE svg PUBLIC "-//W3C//DTD SVG 1.1//EN"
  "http://www.w3.org/Graphics/SVG/1.1/DTD/svg11.dtd">
<!-- Created with matplotlib (https://matplotlib.org/) -->
<svg height="358.22505pt" version="1.1" viewBox="0 0 454.229375 358.22505" width="454.229375pt" xmlns="http://www.w3.org/2000/svg" xmlns:xlink="http://www.w3.org/1999/xlink">
 <defs>
  <style type="text/css">
*{stroke-linecap:butt;stroke-linejoin:round;}
  </style>
 </defs>
 <g id="figure_1">
  <g id="patch_1">
   <path d="M 0 358.22505 
L 454.229375 358.22505 
L 454.229375 0 
L 0 0 
z
" style="fill:#ffffff;"/>
  </g>
  <g id="axes_1">
   <g id="patch_2">
    <path d="M 46.965625 288.430125 
L 404.085625 288.430125 
L 404.085625 22.318125 
L 46.965625 22.318125 
z
" style="fill:#ffffff;"/>
   </g>
   <g id="matplotlib.axis_1">
    <g id="xtick_1">
     <g id="line2d_1">
      <defs>
       <path d="M 0 0 
L 0 3.5 
" id="mc51996694c" style="stroke:#000000;stroke-width:0.8;"/>
      </defs>
      <g>
       <use style="stroke:#000000;stroke-width:0.8;" x="63.198352" xlink:href="#mc51996694c" y="288.430125"/>
      </g>
     </g>
     <g id="text_1">
      <!-- 0 -->
      <defs>
       <path d="M 31.78125 66.40625 
Q 24.171875 66.40625 20.328125 58.90625 
Q 16.5 51.421875 16.5 36.375 
Q 16.5 21.390625 20.328125 13.890625 
Q 24.171875 6.390625 31.78125 6.390625 
Q 39.453125 6.390625 43.28125 13.890625 
Q 47.125 21.390625 47.125 36.375 
Q 47.125 51.421875 43.28125 58.90625 
Q 39.453125 66.40625 31.78125 66.40625 
z
M 31.78125 74.21875 
Q 44.046875 74.21875 50.515625 64.515625 
Q 56.984375 54.828125 56.984375 36.375 
Q 56.984375 17.96875 50.515625 8.265625 
Q 44.046875 -1.421875 31.78125 -1.421875 
Q 19.53125 -1.421875 13.0625 8.265625 
Q 6.59375 17.96875 6.59375 36.375 
Q 6.59375 54.828125 13.0625 64.515625 
Q 19.53125 74.21875 31.78125 74.21875 
z
" id="DejaVuSans-48"/>
      </defs>
      <g transform="translate(60.017102 303.028562)scale(0.1 -0.1)">
       <use xlink:href="#DejaVuSans-48"/>
      </g>
     </g>
    </g>
    <g id="xtick_2">
     <g id="line2d_2">
      <g>
       <use style="stroke:#000000;stroke-width:0.8;" x="107.070588" xlink:href="#mc51996694c" y="288.430125"/>
      </g>
     </g>
     <g id="text_2">
      <!-- 25 -->
      <defs>
       <path d="M 19.1875 8.296875 
L 53.609375 8.296875 
L 53.609375 0 
L 7.328125 0 
L 7.328125 8.296875 
Q 12.9375 14.109375 22.625 23.890625 
Q 32.328125 33.6875 34.8125 36.53125 
Q 39.546875 41.84375 41.421875 45.53125 
Q 43.3125 49.21875 43.3125 52.78125 
Q 43.3125 58.59375 39.234375 62.25 
Q 35.15625 65.921875 28.609375 65.921875 
Q 23.96875 65.921875 18.8125 64.3125 
Q 13.671875 62.703125 7.8125 59.421875 
L 7.8125 69.390625 
Q 13.765625 71.78125 18.9375 73 
Q 24.125 74.21875 28.421875 74.21875 
Q 39.75 74.21875 46.484375 68.546875 
Q 53.21875 62.890625 53.21875 53.421875 
Q 53.21875 48.921875 51.53125 44.890625 
Q 49.859375 40.875 45.40625 35.40625 
Q 44.1875 33.984375 37.640625 27.21875 
Q 31.109375 20.453125 19.1875 8.296875 
z
" id="DejaVuSans-50"/>
       <path d="M 10.796875 72.90625 
L 49.515625 72.90625 
L 49.515625 64.59375 
L 19.828125 64.59375 
L 19.828125 46.734375 
Q 21.96875 47.46875 24.109375 47.828125 
Q 26.265625 48.1875 28.421875 48.1875 
Q 40.625 48.1875 47.75 41.5 
Q 54.890625 34.8125 54.890625 23.390625 
Q 54.890625 11.625 47.5625 5.09375 
Q 40.234375 -1.421875 26.90625 -1.421875 
Q 22.3125 -1.421875 17.546875 -0.640625 
Q 12.796875 0.140625 7.71875 1.703125 
L 7.71875 11.625 
Q 12.109375 9.234375 16.796875 8.0625 
Q 21.484375 6.890625 26.703125 6.890625 
Q 35.15625 6.890625 40.078125 11.328125 
Q 45.015625 15.765625 45.015625 23.390625 
Q 45.015625 31 40.078125 35.4375 
Q 35.15625 39.890625 26.703125 39.890625 
Q 22.75 39.890625 18.8125 39.015625 
Q 14.890625 38.140625 10.796875 36.28125 
z
" id="DejaVuSans-53"/>
      </defs>
      <g transform="translate(100.708088 303.028562)scale(0.1 -0.1)">
       <use xlink:href="#DejaVuSans-50"/>
       <use x="63.623047" xlink:href="#DejaVuSans-53"/>
      </g>
     </g>
    </g>
    <g id="xtick_3">
     <g id="line2d_3">
      <g>
       <use style="stroke:#000000;stroke-width:0.8;" x="150.942824" xlink:href="#mc51996694c" y="288.430125"/>
      </g>
     </g>
     <g id="text_3">
      <!-- 50 -->
      <g transform="translate(144.580324 303.028562)scale(0.1 -0.1)">
       <use xlink:href="#DejaVuSans-53"/>
       <use x="63.623047" xlink:href="#DejaVuSans-48"/>
      </g>
     </g>
    </g>
    <g id="xtick_4">
     <g id="line2d_4">
      <g>
       <use style="stroke:#000000;stroke-width:0.8;" x="194.81506" xlink:href="#mc51996694c" y="288.430125"/>
      </g>
     </g>
     <g id="text_4">
      <!-- 75 -->
      <defs>
       <path d="M 8.203125 72.90625 
L 55.078125 72.90625 
L 55.078125 68.703125 
L 28.609375 0 
L 18.3125 0 
L 43.21875 64.59375 
L 8.203125 64.59375 
z
" id="DejaVuSans-55"/>
      </defs>
      <g transform="translate(188.45256 303.028562)scale(0.1 -0.1)">
       <use xlink:href="#DejaVuSans-55"/>
       <use x="63.623047" xlink:href="#DejaVuSans-53"/>
      </g>
     </g>
    </g>
    <g id="xtick_5">
     <g id="line2d_5">
      <g>
       <use style="stroke:#000000;stroke-width:0.8;" x="238.687296" xlink:href="#mc51996694c" y="288.430125"/>
      </g>
     </g>
     <g id="text_5">
      <!-- 100 -->
      <defs>
       <path d="M 12.40625 8.296875 
L 28.515625 8.296875 
L 28.515625 63.921875 
L 10.984375 60.40625 
L 10.984375 69.390625 
L 28.421875 72.90625 
L 38.28125 72.90625 
L 38.28125 8.296875 
L 54.390625 8.296875 
L 54.390625 0 
L 12.40625 0 
z
" id="DejaVuSans-49"/>
      </defs>
      <g transform="translate(229.143546 303.028562)scale(0.1 -0.1)">
       <use xlink:href="#DejaVuSans-49"/>
       <use x="63.623047" xlink:href="#DejaVuSans-48"/>
       <use x="127.246094" xlink:href="#DejaVuSans-48"/>
      </g>
     </g>
    </g>
    <g id="xtick_6">
     <g id="line2d_6">
      <g>
       <use style="stroke:#000000;stroke-width:0.8;" x="282.559532" xlink:href="#mc51996694c" y="288.430125"/>
      </g>
     </g>
     <g id="text_6">
      <!-- 125 -->
      <g transform="translate(273.015782 303.028562)scale(0.1 -0.1)">
       <use xlink:href="#DejaVuSans-49"/>
       <use x="63.623047" xlink:href="#DejaVuSans-50"/>
       <use x="127.246094" xlink:href="#DejaVuSans-53"/>
      </g>
     </g>
    </g>
    <g id="xtick_7">
     <g id="line2d_7">
      <g>
       <use style="stroke:#000000;stroke-width:0.8;" x="326.431768" xlink:href="#mc51996694c" y="288.430125"/>
      </g>
     </g>
     <g id="text_7">
      <!-- 150 -->
      <g transform="translate(316.888018 303.028562)scale(0.1 -0.1)">
       <use xlink:href="#DejaVuSans-49"/>
       <use x="63.623047" xlink:href="#DejaVuSans-53"/>
       <use x="127.246094" xlink:href="#DejaVuSans-48"/>
      </g>
     </g>
    </g>
    <g id="xtick_8">
     <g id="line2d_8">
      <g>
       <use style="stroke:#000000;stroke-width:0.8;" x="370.304003" xlink:href="#mc51996694c" y="288.430125"/>
      </g>
     </g>
     <g id="text_8">
      <!-- 175 -->
      <g transform="translate(360.760253 303.028562)scale(0.1 -0.1)">
       <use xlink:href="#DejaVuSans-49"/>
       <use x="63.623047" xlink:href="#DejaVuSans-55"/>
       <use x="127.246094" xlink:href="#DejaVuSans-53"/>
      </g>
     </g>
    </g>
    <g id="text_9">
     <!-- Iteration (Cycle) -->
     <defs>
      <path d="M 9.8125 72.90625 
L 19.671875 72.90625 
L 19.671875 0 
L 9.8125 0 
z
" id="DejaVuSans-73"/>
      <path d="M 18.3125 70.21875 
L 18.3125 54.6875 
L 36.8125 54.6875 
L 36.8125 47.703125 
L 18.3125 47.703125 
L 18.3125 18.015625 
Q 18.3125 11.328125 20.140625 9.421875 
Q 21.96875 7.515625 27.59375 7.515625 
L 36.8125 7.515625 
L 36.8125 0 
L 27.59375 0 
Q 17.1875 0 13.234375 3.875 
Q 9.28125 7.765625 9.28125 18.015625 
L 9.28125 47.703125 
L 2.6875 47.703125 
L 2.6875 54.6875 
L 9.28125 54.6875 
L 9.28125 70.21875 
z
" id="DejaVuSans-116"/>
      <path d="M 56.203125 29.59375 
L 56.203125 25.203125 
L 14.890625 25.203125 
Q 15.484375 15.921875 20.484375 11.0625 
Q 25.484375 6.203125 34.421875 6.203125 
Q 39.59375 6.203125 44.453125 7.46875 
Q 49.3125 8.734375 54.109375 11.28125 
L 54.109375 2.78125 
Q 49.265625 0.734375 44.1875 -0.34375 
Q 39.109375 -1.421875 33.890625 -1.421875 
Q 20.796875 -1.421875 13.15625 6.1875 
Q 5.515625 13.8125 5.515625 26.8125 
Q 5.515625 40.234375 12.765625 48.109375 
Q 20.015625 56 32.328125 56 
Q 43.359375 56 49.78125 48.890625 
Q 56.203125 41.796875 56.203125 29.59375 
z
M 47.21875 32.234375 
Q 47.125 39.59375 43.09375 43.984375 
Q 39.0625 48.390625 32.421875 48.390625 
Q 24.90625 48.390625 20.390625 44.140625 
Q 15.875 39.890625 15.1875 32.171875 
z
" id="DejaVuSans-101"/>
      <path d="M 41.109375 46.296875 
Q 39.59375 47.171875 37.8125 47.578125 
Q 36.03125 48 33.890625 48 
Q 26.265625 48 22.1875 43.046875 
Q 18.109375 38.09375 18.109375 28.8125 
L 18.109375 0 
L 9.078125 0 
L 9.078125 54.6875 
L 18.109375 54.6875 
L 18.109375 46.1875 
Q 20.953125 51.171875 25.484375 53.578125 
Q 30.03125 56 36.53125 56 
Q 37.453125 56 38.578125 55.875 
Q 39.703125 55.765625 41.0625 55.515625 
z
" id="DejaVuSans-114"/>
      <path d="M 34.28125 27.484375 
Q 23.390625 27.484375 19.1875 25 
Q 14.984375 22.515625 14.984375 16.5 
Q 14.984375 11.71875 18.140625 8.90625 
Q 21.296875 6.109375 26.703125 6.109375 
Q 34.1875 6.109375 38.703125 11.40625 
Q 43.21875 16.703125 43.21875 25.484375 
L 43.21875 27.484375 
z
M 52.203125 31.203125 
L 52.203125 0 
L 43.21875 0 
L 43.21875 8.296875 
Q 40.140625 3.328125 35.546875 0.953125 
Q 30.953125 -1.421875 24.3125 -1.421875 
Q 15.921875 -1.421875 10.953125 3.296875 
Q 6 8.015625 6 15.921875 
Q 6 25.140625 12.171875 29.828125 
Q 18.359375 34.515625 30.609375 34.515625 
L 43.21875 34.515625 
L 43.21875 35.40625 
Q 43.21875 41.609375 39.140625 45 
Q 35.0625 48.390625 27.6875 48.390625 
Q 23 48.390625 18.546875 47.265625 
Q 14.109375 46.140625 10.015625 43.890625 
L 10.015625 52.203125 
Q 14.9375 54.109375 19.578125 55.046875 
Q 24.21875 56 28.609375 56 
Q 40.484375 56 46.34375 49.84375 
Q 52.203125 43.703125 52.203125 31.203125 
z
" id="DejaVuSans-97"/>
      <path d="M 9.421875 54.6875 
L 18.40625 54.6875 
L 18.40625 0 
L 9.421875 0 
z
M 9.421875 75.984375 
L 18.40625 75.984375 
L 18.40625 64.59375 
L 9.421875 64.59375 
z
" id="DejaVuSans-105"/>
      <path d="M 30.609375 48.390625 
Q 23.390625 48.390625 19.1875 42.75 
Q 14.984375 37.109375 14.984375 27.296875 
Q 14.984375 17.484375 19.15625 11.84375 
Q 23.34375 6.203125 30.609375 6.203125 
Q 37.796875 6.203125 41.984375 11.859375 
Q 46.1875 17.53125 46.1875 27.296875 
Q 46.1875 37.015625 41.984375 42.703125 
Q 37.796875 48.390625 30.609375 48.390625 
z
M 30.609375 56 
Q 42.328125 56 49.015625 48.375 
Q 55.71875 40.765625 55.71875 27.296875 
Q 55.71875 13.875 49.015625 6.21875 
Q 42.328125 -1.421875 30.609375 -1.421875 
Q 18.84375 -1.421875 12.171875 6.21875 
Q 5.515625 13.875 5.515625 27.296875 
Q 5.515625 40.765625 12.171875 48.375 
Q 18.84375 56 30.609375 56 
z
" id="DejaVuSans-111"/>
      <path d="M 54.890625 33.015625 
L 54.890625 0 
L 45.90625 0 
L 45.90625 32.71875 
Q 45.90625 40.484375 42.875 44.328125 
Q 39.84375 48.1875 33.796875 48.1875 
Q 26.515625 48.1875 22.3125 43.546875 
Q 18.109375 38.921875 18.109375 30.90625 
L 18.109375 0 
L 9.078125 0 
L 9.078125 54.6875 
L 18.109375 54.6875 
L 18.109375 46.1875 
Q 21.34375 51.125 25.703125 53.5625 
Q 30.078125 56 35.796875 56 
Q 45.21875 56 50.046875 50.171875 
Q 54.890625 44.34375 54.890625 33.015625 
z
" id="DejaVuSans-110"/>
      <path id="DejaVuSans-32"/>
      <path d="M 31 75.875 
Q 24.46875 64.65625 21.28125 53.65625 
Q 18.109375 42.671875 18.109375 31.390625 
Q 18.109375 20.125 21.3125 9.0625 
Q 24.515625 -2 31 -13.1875 
L 23.1875 -13.1875 
Q 15.875 -1.703125 12.234375 9.375 
Q 8.59375 20.453125 8.59375 31.390625 
Q 8.59375 42.28125 12.203125 53.3125 
Q 15.828125 64.359375 23.1875 75.875 
z
" id="DejaVuSans-40"/>
      <path d="M 64.40625 67.28125 
L 64.40625 56.890625 
Q 59.421875 61.53125 53.78125 63.8125 
Q 48.140625 66.109375 41.796875 66.109375 
Q 29.296875 66.109375 22.65625 58.46875 
Q 16.015625 50.828125 16.015625 36.375 
Q 16.015625 21.96875 22.65625 14.328125 
Q 29.296875 6.6875 41.796875 6.6875 
Q 48.140625 6.6875 53.78125 8.984375 
Q 59.421875 11.28125 64.40625 15.921875 
L 64.40625 5.609375 
Q 59.234375 2.09375 53.4375 0.328125 
Q 47.65625 -1.421875 41.21875 -1.421875 
Q 24.65625 -1.421875 15.125 8.703125 
Q 5.609375 18.84375 5.609375 36.375 
Q 5.609375 53.953125 15.125 64.078125 
Q 24.65625 74.21875 41.21875 74.21875 
Q 47.75 74.21875 53.53125 72.484375 
Q 59.328125 70.75 64.40625 67.28125 
z
" id="DejaVuSans-67"/>
      <path d="M 32.171875 -5.078125 
Q 28.375 -14.84375 24.75 -17.8125 
Q 21.140625 -20.796875 15.09375 -20.796875 
L 7.90625 -20.796875 
L 7.90625 -13.28125 
L 13.1875 -13.28125 
Q 16.890625 -13.28125 18.9375 -11.515625 
Q 21 -9.765625 23.484375 -3.21875 
L 25.09375 0.875 
L 2.984375 54.6875 
L 12.5 54.6875 
L 29.59375 11.921875 
L 46.6875 54.6875 
L 56.203125 54.6875 
z
" id="DejaVuSans-121"/>
      <path d="M 48.78125 52.59375 
L 48.78125 44.1875 
Q 44.96875 46.296875 41.140625 47.34375 
Q 37.3125 48.390625 33.40625 48.390625 
Q 24.65625 48.390625 19.8125 42.84375 
Q 14.984375 37.3125 14.984375 27.296875 
Q 14.984375 17.28125 19.8125 11.734375 
Q 24.65625 6.203125 33.40625 6.203125 
Q 37.3125 6.203125 41.140625 7.25 
Q 44.96875 8.296875 48.78125 10.40625 
L 48.78125 2.09375 
Q 45.015625 0.34375 40.984375 -0.53125 
Q 36.96875 -1.421875 32.421875 -1.421875 
Q 20.0625 -1.421875 12.78125 6.34375 
Q 5.515625 14.109375 5.515625 27.296875 
Q 5.515625 40.671875 12.859375 48.328125 
Q 20.21875 56 33.015625 56 
Q 37.15625 56 41.109375 55.140625 
Q 45.0625 54.296875 48.78125 52.59375 
z
" id="DejaVuSans-99"/>
      <path d="M 9.421875 75.984375 
L 18.40625 75.984375 
L 18.40625 0 
L 9.421875 0 
z
" id="DejaVuSans-108"/>
      <path d="M 8.015625 75.875 
L 15.828125 75.875 
Q 23.140625 64.359375 26.78125 53.3125 
Q 30.421875 42.28125 30.421875 31.390625 
Q 30.421875 20.453125 26.78125 9.375 
Q 23.140625 -1.703125 15.828125 -13.1875 
L 8.015625 -13.1875 
Q 14.5 -2 17.703125 9.0625 
Q 20.90625 20.125 20.90625 31.390625 
Q 20.90625 42.671875 17.703125 53.65625 
Q 14.5 64.65625 8.015625 75.875 
z
" id="DejaVuSans-41"/>
     </defs>
     <g transform="translate(185.160781 316.706687)scale(0.1 -0.1)">
      <use xlink:href="#DejaVuSans-73"/>
      <use x="29.492188" xlink:href="#DejaVuSans-116"/>
      <use x="68.701172" xlink:href="#DejaVuSans-101"/>
      <use x="130.224609" xlink:href="#DejaVuSans-114"/>
      <use x="171.337891" xlink:href="#DejaVuSans-97"/>
      <use x="232.617188" xlink:href="#DejaVuSans-116"/>
      <use x="271.826172" xlink:href="#DejaVuSans-105"/>
      <use x="299.609375" xlink:href="#DejaVuSans-111"/>
      <use x="360.791016" xlink:href="#DejaVuSans-110"/>
      <use x="424.169922" xlink:href="#DejaVuSans-32"/>
      <use x="455.957031" xlink:href="#DejaVuSans-40"/>
      <use x="494.970703" xlink:href="#DejaVuSans-67"/>
      <use x="564.794922" xlink:href="#DejaVuSans-121"/>
      <use x="623.974609" xlink:href="#DejaVuSans-99"/>
      <use x="678.955078" xlink:href="#DejaVuSans-108"/>
      <use x="706.738281" xlink:href="#DejaVuSans-101"/>
      <use x="768.261719" xlink:href="#DejaVuSans-41"/>
     </g>
    </g>
   </g>
   <g id="matplotlib.axis_2">
    <g id="ytick_1">
     <g id="line2d_9">
      <defs>
       <path d="M 0 0 
L -3.5 0 
" id="m12dff3000c" style="stroke:#000000;stroke-width:0.8;"/>
      </defs>
      <g>
       <use style="stroke:#000000;stroke-width:0.8;" x="46.965625" xlink:href="#m12dff3000c" y="285.934276"/>
      </g>
     </g>
     <g id="text_10">
      <!-- 0 -->
      <g transform="translate(33.603125 289.733495)scale(0.1 -0.1)">
       <use xlink:href="#DejaVuSans-48"/>
      </g>
     </g>
    </g>
    <g id="ytick_2">
     <g id="line2d_10">
      <g>
       <use style="stroke:#000000;stroke-width:0.8;" x="46.965625" xlink:href="#m12dff3000c" y="232.982665"/>
      </g>
     </g>
     <g id="text_11">
      <!-- 100 -->
      <g transform="translate(20.878125 236.781884)scale(0.1 -0.1)">
       <use xlink:href="#DejaVuSans-49"/>
       <use x="63.623047" xlink:href="#DejaVuSans-48"/>
       <use x="127.246094" xlink:href="#DejaVuSans-48"/>
      </g>
     </g>
    </g>
    <g id="ytick_3">
     <g id="line2d_11">
      <g>
       <use style="stroke:#000000;stroke-width:0.8;" x="46.965625" xlink:href="#m12dff3000c" y="180.031054"/>
      </g>
     </g>
     <g id="text_12">
      <!-- 200 -->
      <g transform="translate(20.878125 183.830273)scale(0.1 -0.1)">
       <use xlink:href="#DejaVuSans-50"/>
       <use x="63.623047" xlink:href="#DejaVuSans-48"/>
       <use x="127.246094" xlink:href="#DejaVuSans-48"/>
      </g>
     </g>
    </g>
    <g id="ytick_4">
     <g id="line2d_12">
      <g>
       <use style="stroke:#000000;stroke-width:0.8;" x="46.965625" xlink:href="#m12dff3000c" y="127.079444"/>
      </g>
     </g>
     <g id="text_13">
      <!-- 300 -->
      <defs>
       <path d="M 40.578125 39.3125 
Q 47.65625 37.796875 51.625 33 
Q 55.609375 28.21875 55.609375 21.1875 
Q 55.609375 10.40625 48.1875 4.484375 
Q 40.765625 -1.421875 27.09375 -1.421875 
Q 22.515625 -1.421875 17.65625 -0.515625 
Q 12.796875 0.390625 7.625 2.203125 
L 7.625 11.71875 
Q 11.71875 9.328125 16.59375 8.109375 
Q 21.484375 6.890625 26.8125 6.890625 
Q 36.078125 6.890625 40.9375 10.546875 
Q 45.796875 14.203125 45.796875 21.1875 
Q 45.796875 27.640625 41.28125 31.265625 
Q 36.765625 34.90625 28.71875 34.90625 
L 20.21875 34.90625 
L 20.21875 43.015625 
L 29.109375 43.015625 
Q 36.375 43.015625 40.234375 45.921875 
Q 44.09375 48.828125 44.09375 54.296875 
Q 44.09375 59.90625 40.109375 62.90625 
Q 36.140625 65.921875 28.71875 65.921875 
Q 24.65625 65.921875 20.015625 65.03125 
Q 15.375 64.15625 9.8125 62.3125 
L 9.8125 71.09375 
Q 15.4375 72.65625 20.34375 73.4375 
Q 25.25 74.21875 29.59375 74.21875 
Q 40.828125 74.21875 47.359375 69.109375 
Q 53.90625 64.015625 53.90625 55.328125 
Q 53.90625 49.265625 50.4375 45.09375 
Q 46.96875 40.921875 40.578125 39.3125 
z
" id="DejaVuSans-51"/>
      </defs>
      <g transform="translate(20.878125 130.878662)scale(0.1 -0.1)">
       <use xlink:href="#DejaVuSans-51"/>
       <use x="63.623047" xlink:href="#DejaVuSans-48"/>
       <use x="127.246094" xlink:href="#DejaVuSans-48"/>
      </g>
     </g>
    </g>
    <g id="ytick_5">
     <g id="line2d_13">
      <g>
       <use style="stroke:#000000;stroke-width:0.8;" x="46.965625" xlink:href="#m12dff3000c" y="74.127833"/>
      </g>
     </g>
     <g id="text_14">
      <!-- 400 -->
      <defs>
       <path d="M 37.796875 64.3125 
L 12.890625 25.390625 
L 37.796875 25.390625 
z
M 35.203125 72.90625 
L 47.609375 72.90625 
L 47.609375 25.390625 
L 58.015625 25.390625 
L 58.015625 17.1875 
L 47.609375 17.1875 
L 47.609375 0 
L 37.796875 0 
L 37.796875 17.1875 
L 4.890625 17.1875 
L 4.890625 26.703125 
z
" id="DejaVuSans-52"/>
      </defs>
      <g transform="translate(20.878125 77.927052)scale(0.1 -0.1)">
       <use xlink:href="#DejaVuSans-52"/>
       <use x="63.623047" xlink:href="#DejaVuSans-48"/>
       <use x="127.246094" xlink:href="#DejaVuSans-48"/>
      </g>
     </g>
    </g>
    <g id="text_15">
     <!-- Mean Episode Reward -->
     <defs>
      <path d="M 9.8125 72.90625 
L 24.515625 72.90625 
L 43.109375 23.296875 
L 61.8125 72.90625 
L 76.515625 72.90625 
L 76.515625 0 
L 66.890625 0 
L 66.890625 64.015625 
L 48.09375 14.015625 
L 38.1875 14.015625 
L 19.390625 64.015625 
L 19.390625 0 
L 9.8125 0 
z
" id="DejaVuSans-77"/>
      <path d="M 9.8125 72.90625 
L 55.90625 72.90625 
L 55.90625 64.59375 
L 19.671875 64.59375 
L 19.671875 43.015625 
L 54.390625 43.015625 
L 54.390625 34.71875 
L 19.671875 34.71875 
L 19.671875 8.296875 
L 56.78125 8.296875 
L 56.78125 0 
L 9.8125 0 
z
" id="DejaVuSans-69"/>
      <path d="M 18.109375 8.203125 
L 18.109375 -20.796875 
L 9.078125 -20.796875 
L 9.078125 54.6875 
L 18.109375 54.6875 
L 18.109375 46.390625 
Q 20.953125 51.265625 25.265625 53.625 
Q 29.59375 56 35.59375 56 
Q 45.5625 56 51.78125 48.09375 
Q 58.015625 40.1875 58.015625 27.296875 
Q 58.015625 14.40625 51.78125 6.484375 
Q 45.5625 -1.421875 35.59375 -1.421875 
Q 29.59375 -1.421875 25.265625 0.953125 
Q 20.953125 3.328125 18.109375 8.203125 
z
M 48.6875 27.296875 
Q 48.6875 37.203125 44.609375 42.84375 
Q 40.53125 48.484375 33.40625 48.484375 
Q 26.265625 48.484375 22.1875 42.84375 
Q 18.109375 37.203125 18.109375 27.296875 
Q 18.109375 17.390625 22.1875 11.75 
Q 26.265625 6.109375 33.40625 6.109375 
Q 40.53125 6.109375 44.609375 11.75 
Q 48.6875 17.390625 48.6875 27.296875 
z
" id="DejaVuSans-112"/>
      <path d="M 44.28125 53.078125 
L 44.28125 44.578125 
Q 40.484375 46.53125 36.375 47.5 
Q 32.28125 48.484375 27.875 48.484375 
Q 21.1875 48.484375 17.84375 46.4375 
Q 14.5 44.390625 14.5 40.28125 
Q 14.5 37.15625 16.890625 35.375 
Q 19.28125 33.59375 26.515625 31.984375 
L 29.59375 31.296875 
Q 39.15625 29.25 43.1875 25.515625 
Q 47.21875 21.78125 47.21875 15.09375 
Q 47.21875 7.46875 41.1875 3.015625 
Q 35.15625 -1.421875 24.609375 -1.421875 
Q 20.21875 -1.421875 15.453125 -0.5625 
Q 10.6875 0.296875 5.421875 2 
L 5.421875 11.28125 
Q 10.40625 8.6875 15.234375 7.390625 
Q 20.0625 6.109375 24.8125 6.109375 
Q 31.15625 6.109375 34.5625 8.28125 
Q 37.984375 10.453125 37.984375 14.40625 
Q 37.984375 18.0625 35.515625 20.015625 
Q 33.0625 21.96875 24.703125 23.78125 
L 21.578125 24.515625 
Q 13.234375 26.265625 9.515625 29.90625 
Q 5.8125 33.546875 5.8125 39.890625 
Q 5.8125 47.609375 11.28125 51.796875 
Q 16.75 56 26.8125 56 
Q 31.78125 56 36.171875 55.265625 
Q 40.578125 54.546875 44.28125 53.078125 
z
" id="DejaVuSans-115"/>
      <path d="M 45.40625 46.390625 
L 45.40625 75.984375 
L 54.390625 75.984375 
L 54.390625 0 
L 45.40625 0 
L 45.40625 8.203125 
Q 42.578125 3.328125 38.25 0.953125 
Q 33.9375 -1.421875 27.875 -1.421875 
Q 17.96875 -1.421875 11.734375 6.484375 
Q 5.515625 14.40625 5.515625 27.296875 
Q 5.515625 40.1875 11.734375 48.09375 
Q 17.96875 56 27.875 56 
Q 33.9375 56 38.25 53.625 
Q 42.578125 51.265625 45.40625 46.390625 
z
M 14.796875 27.296875 
Q 14.796875 17.390625 18.875 11.75 
Q 22.953125 6.109375 30.078125 6.109375 
Q 37.203125 6.109375 41.296875 11.75 
Q 45.40625 17.390625 45.40625 27.296875 
Q 45.40625 37.203125 41.296875 42.84375 
Q 37.203125 48.484375 30.078125 48.484375 
Q 22.953125 48.484375 18.875 42.84375 
Q 14.796875 37.203125 14.796875 27.296875 
z
" id="DejaVuSans-100"/>
      <path d="M 44.390625 34.1875 
Q 47.5625 33.109375 50.5625 29.59375 
Q 53.5625 26.078125 56.59375 19.921875 
L 66.609375 0 
L 56 0 
L 46.6875 18.703125 
Q 43.0625 26.03125 39.671875 28.421875 
Q 36.28125 30.8125 30.421875 30.8125 
L 19.671875 30.8125 
L 19.671875 0 
L 9.8125 0 
L 9.8125 72.90625 
L 32.078125 72.90625 
Q 44.578125 72.90625 50.734375 67.671875 
Q 56.890625 62.453125 56.890625 51.90625 
Q 56.890625 45.015625 53.6875 40.46875 
Q 50.484375 35.9375 44.390625 34.1875 
z
M 19.671875 64.796875 
L 19.671875 38.921875 
L 32.078125 38.921875 
Q 39.203125 38.921875 42.84375 42.21875 
Q 46.484375 45.515625 46.484375 51.90625 
Q 46.484375 58.296875 42.84375 61.546875 
Q 39.203125 64.796875 32.078125 64.796875 
z
" id="DejaVuSans-82"/>
      <path d="M 4.203125 54.6875 
L 13.1875 54.6875 
L 24.421875 12.015625 
L 35.59375 54.6875 
L 46.1875 54.6875 
L 57.421875 12.015625 
L 68.609375 54.6875 
L 77.59375 54.6875 
L 63.28125 0 
L 52.6875 0 
L 40.921875 44.828125 
L 29.109375 0 
L 18.5 0 
z
" id="DejaVuSans-119"/>
     </defs>
     <g transform="translate(14.798438 210.742875)rotate(-90)scale(0.1 -0.1)">
      <use xlink:href="#DejaVuSans-77"/>
      <use x="86.279297" xlink:href="#DejaVuSans-101"/>
      <use x="147.802734" xlink:href="#DejaVuSans-97"/>
      <use x="209.082031" xlink:href="#DejaVuSans-110"/>
      <use x="272.460938" xlink:href="#DejaVuSans-32"/>
      <use x="304.248047" xlink:href="#DejaVuSans-69"/>
      <use x="367.431641" xlink:href="#DejaVuSans-112"/>
      <use x="430.908203" xlink:href="#DejaVuSans-105"/>
      <use x="458.691406" xlink:href="#DejaVuSans-115"/>
      <use x="510.791016" xlink:href="#DejaVuSans-111"/>
      <use x="571.972656" xlink:href="#DejaVuSans-100"/>
      <use x="635.449219" xlink:href="#DejaVuSans-101"/>
      <use x="696.972656" xlink:href="#DejaVuSans-32"/>
      <use x="728.759766" xlink:href="#DejaVuSans-82"/>
      <use x="798.179688" xlink:href="#DejaVuSans-101"/>
      <use x="859.703125" xlink:href="#DejaVuSans-119"/>
      <use x="941.490234" xlink:href="#DejaVuSans-97"/>
      <use x="1002.769531" xlink:href="#DejaVuSans-114"/>
      <use x="1043.867188" xlink:href="#DejaVuSans-100"/>
     </g>
    </g>
   </g>
   <g id="line2d_14">
    <path clip-path="url(#pb86de320fe)" d="M 63.198352 275.516175 
L 64.953242 275.3374 
L 66.708131 275.642362 
L 68.463021 275.710932 
L 70.21791 276.02354 
L 71.972799 275.641648 
L 73.727689 275.51746 
L 75.482578 275.511034 
L 77.237468 276.303256 
L 80.747247 275.65506 
L 84.257025 275.703268 
L 86.011915 275.29808 
L 87.766804 275.912876 
L 89.521694 275.8597 
L 91.276583 275.540594 
L 93.031473 275.887047 
L 94.786362 275.554222 
L 96.541252 275.856027 
L 98.296141 275.532883 
L 100.05103 275.602997 
L 101.80592 275.347866 
L 103.560809 275.592762 
L 105.315699 275.2939 
L 107.070588 276.032815 
L 108.825478 275.599802 
L 110.580367 275.633713 
L 112.335256 275.553714 
L 114.090146 275.641806 
L 115.845035 275.372717 
L 119.354814 275.943661 
L 121.109704 275.723082 
L 122.864593 275.867284 
L 124.619482 275.664718 
L 126.374372 275.214546 
L 128.129261 276.040556 
L 129.884151 275.438928 
L 131.63904 275.776852 
L 133.39393 275.639261 
L 135.148819 275.706653 
L 136.903709 275.442108 
L 138.658598 275.832354 
L 143.923266 275.901925 
L 145.678156 276.115811 
L 149.187935 275.66065 
L 150.942824 275.900688 
L 152.697713 275.974683 
L 154.452603 275.694868 
L 156.207492 275.883414 
L 157.962382 275.687697 
L 159.717271 276.051192 
L 161.472161 275.530766 
L 163.22705 275.555504 
L 164.981939 275.874707 
L 166.736829 275.65633 
L 168.491718 275.166566 
L 170.246608 275.707521 
L 172.001497 275.844814 
L 173.756387 275.809928 
L 175.511276 275.644729 
L 177.266166 275.951231 
L 179.021055 275.99415 
L 180.775944 275.847367 
L 182.530834 275.964596 
L 184.285723 275.375255 
L 186.040613 275.589433 
L 187.795502 276.063019 
L 189.550392 275.320361 
L 191.305281 275.834937 
L 193.06017 275.511912 
L 194.81506 275.561388 
L 196.569949 275.882191 
L 198.324839 275.255481 
L 200.079728 275.857158 
L 201.834618 275.926669 
L 203.589507 275.535807 
L 205.344396 275.305849 
L 207.099286 275.859797 
L 208.854175 275.646898 
L 212.363954 275.693182 
L 214.118844 275.895896 
L 215.873733 275.485072 
L 217.628623 275.713354 
L 221.138401 276.02232 
L 222.893291 275.726661 
L 224.64818 275.770821 
L 226.40307 275.97098 
L 228.157959 275.431991 
L 233.422627 276.067911 
L 235.177517 275.922727 
L 236.932406 275.51704 
L 238.687296 275.634743 
L 240.442185 275.981836 
L 242.197075 275.737272 
L 243.951964 276.071123 
L 245.706854 275.835826 
L 247.461743 275.954744 
L 249.216632 275.394445 
L 250.971522 275.507081 
L 252.726411 275.96997 
L 254.481301 275.740457 
L 256.23619 275.852388 
L 257.99108 275.720919 
L 259.745969 275.822024 
L 261.500858 275.666213 
L 268.520416 275.748952 
L 270.275306 276.006766 
L 272.030195 275.83618 
L 273.785084 275.814773 
L 275.539974 275.620113 
L 277.294863 276.103694 
L 279.049753 275.920373 
L 280.804642 275.879656 
L 282.559532 275.601694 
L 286.069311 276.334125 
L 287.8242 275.989378 
L 289.579089 275.905562 
L 293.088868 276.044676 
L 294.843758 275.567244 
L 296.598647 276.201093 
L 298.353537 275.889553 
L 300.108426 276.123081 
L 301.863315 275.660403 
L 303.618205 275.543165 
L 307.127984 276.007679 
L 308.882873 275.825901 
L 310.637763 275.439525 
L 312.392652 275.839751 
L 314.147541 275.497269 
L 315.902431 275.51746 
L 317.65732 275.215546 
L 319.41221 275.875956 
L 321.167099 276.246048 
L 322.921989 275.340041 
L 324.676878 275.392091 
L 328.186657 275.953327 
L 329.941546 275.72757 
L 331.696436 275.920593 
L 335.206215 275.848726 
L 336.961104 275.1537 
L 338.715994 276.23886 
L 340.470883 275.768318 
L 342.225772 275.520886 
L 343.980662 276.222496 
L 345.735551 275.554222 
L 347.490441 276.26282 
L 351.00022 275.866029 
L 352.755109 276.095014 
L 354.509998 275.588839 
L 356.264888 275.682185 
L 358.019777 275.654316 
L 361.529556 276.144892 
L 363.284446 275.398597 
L 365.039335 275.756498 
L 366.794225 275.909348 
L 368.549114 275.648711 
L 370.304003 276.20967 
L 372.058893 275.396123 
L 373.813782 276.23923 
L 375.568672 275.337416 
L 377.323561 275.682642 
L 379.078451 275.659111 
L 380.83334 276.060931 
L 382.588229 276.003397 
L 384.343119 275.730425 
L 386.098008 275.825106 
L 387.852898 275.67301 
L 387.852898 275.67301 
" style="fill:none;stroke:#ff0000;stroke-linecap:square;stroke-opacity:0.3;stroke-width:1.5;"/>
   </g>
   <g id="line2d_15">
    <path clip-path="url(#pb86de320fe)" d="M 63.198352 275.461584 
L 77.237468 275.843564 
L 80.747247 275.781234 
L 84.257025 275.710202 
L 87.766804 275.653679 
L 93.031473 275.753331 
L 96.541252 275.650435 
L 100.05103 275.56214 
L 105.315699 275.555635 
L 108.825478 275.625632 
L 115.845035 275.594009 
L 117.599925 275.711924 
L 121.109704 275.724526 
L 133.39393 275.642696 
L 145.678156 275.967321 
L 150.942824 275.829874 
L 157.962382 275.802275 
L 161.472161 275.710836 
L 168.491718 275.574839 
L 177.266166 275.929654 
L 179.021055 275.82033 
L 182.530834 275.783017 
L 205.344396 275.615806 
L 207.099286 275.697559 
L 210.609065 275.641742 
L 221.138401 275.817163 
L 229.912849 275.77355 
L 256.23619 275.755805 
L 259.745969 275.771507 
L 263.255748 275.725012 
L 296.598647 275.932921 
L 301.863315 275.855794 
L 319.41221 275.613043 
L 324.676878 275.712346 
L 328.186657 275.779888 
L 329.941546 275.710847 
L 333.451325 275.85725 
L 335.206215 275.753034 
L 343.980662 275.887495 
L 345.735551 276.014263 
L 349.24533 275.998935 
L 361.529556 275.719989 
L 363.284446 275.841195 
L 365.039335 275.781576 
L 368.549114 275.798798 
L 379.078451 275.763442 
L 384.343119 275.920441 
L 386.098008 275.835216 
L 387.852898 275.626641 
L 387.852898 275.626641 
" style="fill:none;stroke:#ff0000;stroke-linecap:square;stroke-width:1.5;"/>
   </g>
   <g id="line2d_16">
    <path clip-path="url(#pb86de320fe)" d="M 46.965625 34.414125 
L 404.085625 34.414125 
" style="fill:none;stroke:#008000;stroke-dasharray:3.7,1.6;stroke-dashoffset:0;"/>
   </g>
   <g id="patch_3">
    <path d="M 46.965625 288.430125 
L 46.965625 22.318125 
" style="fill:none;stroke:#000000;stroke-linecap:square;stroke-linejoin:miter;stroke-width:0.8;"/>
   </g>
   <g id="patch_4">
    <path d="M 404.085625 288.430125 
L 404.085625 22.318125 
" style="fill:none;stroke:#000000;stroke-linecap:square;stroke-linejoin:miter;stroke-width:0.8;"/>
   </g>
   <g id="patch_5">
    <path d="M 46.965625 288.430125 
L 404.085625 288.430125 
" style="fill:none;stroke:#000000;stroke-linecap:square;stroke-linejoin:miter;stroke-width:0.8;"/>
   </g>
   <g id="patch_6">
    <path d="M 46.965625 22.318125 
L 404.085625 22.318125 
" style="fill:none;stroke:#000000;stroke-linecap:square;stroke-linejoin:miter;stroke-width:0.8;"/>
   </g>
   <g id="text_16">
    <!-- Mean Rewards and Episode Lengths. -->
    <defs>
     <path d="M 9.1875 72.90625 
L 33.109375 72.90625 
L 49.703125 33.890625 
L 66.40625 72.90625 
L 90.28125 72.90625 
L 90.28125 0 
L 72.515625 0 
L 72.515625 53.328125 
L 55.71875 14.015625 
L 43.796875 14.015625 
L 27 53.328125 
L 27 0 
L 9.1875 0 
z
" id="DejaVuSans-Bold-77"/>
     <path d="M 62.984375 27.484375 
L 62.984375 22.515625 
L 22.125 22.515625 
Q 22.75 16.359375 26.5625 13.28125 
Q 30.375 10.203125 37.203125 10.203125 
Q 42.71875 10.203125 48.5 11.84375 
Q 54.296875 13.484375 60.40625 16.796875 
L 60.40625 3.328125 
Q 54.203125 0.984375 48 -0.21875 
Q 41.796875 -1.421875 35.59375 -1.421875 
Q 20.75 -1.421875 12.515625 6.125 
Q 4.296875 13.671875 4.296875 27.296875 
Q 4.296875 40.671875 12.375 48.328125 
Q 20.453125 56 34.625 56 
Q 47.515625 56 55.25 48.234375 
Q 62.984375 40.484375 62.984375 27.484375 
z
M 45.015625 33.296875 
Q 45.015625 38.28125 42.109375 41.328125 
Q 39.203125 44.390625 34.515625 44.390625 
Q 29.4375 44.390625 26.265625 41.53125 
Q 23.09375 38.671875 22.3125 33.296875 
z
" id="DejaVuSans-Bold-101"/>
     <path d="M 32.90625 24.609375 
Q 27.4375 24.609375 24.671875 22.75 
Q 21.921875 20.90625 21.921875 17.28125 
Q 21.921875 13.96875 24.140625 12.078125 
Q 26.375 10.203125 30.328125 10.203125 
Q 35.25 10.203125 38.625 13.734375 
Q 42 17.28125 42 22.609375 
L 42 24.609375 
z
M 59.625 31.203125 
L 59.625 0 
L 42 0 
L 42 8.109375 
Q 38.484375 3.125 34.078125 0.84375 
Q 29.6875 -1.421875 23.390625 -1.421875 
Q 14.890625 -1.421875 9.59375 3.53125 
Q 4.296875 8.5 4.296875 16.40625 
Q 4.296875 26.03125 10.90625 30.515625 
Q 17.53125 35.015625 31.6875 35.015625 
L 42 35.015625 
L 42 36.375 
Q 42 40.53125 38.71875 42.453125 
Q 35.453125 44.390625 28.515625 44.390625 
Q 22.90625 44.390625 18.0625 43.265625 
Q 13.234375 42.140625 9.078125 39.890625 
L 9.078125 53.21875 
Q 14.703125 54.59375 20.359375 55.296875 
Q 26.03125 56 31.6875 56 
Q 46.484375 56 53.046875 50.171875 
Q 59.625 44.34375 59.625 31.203125 
z
" id="DejaVuSans-Bold-97"/>
     <path d="M 63.375 33.296875 
L 63.375 0 
L 45.796875 0 
L 45.796875 5.421875 
L 45.796875 25.484375 
Q 45.796875 32.5625 45.484375 35.25 
Q 45.171875 37.9375 44.390625 39.203125 
Q 43.359375 40.921875 41.59375 41.875 
Q 39.84375 42.828125 37.59375 42.828125 
Q 32.125 42.828125 29 38.59375 
Q 25.875 34.375 25.875 26.90625 
L 25.875 0 
L 8.40625 0 
L 8.40625 54.6875 
L 25.875 54.6875 
L 25.875 46.6875 
Q 29.828125 51.46875 34.265625 53.734375 
Q 38.71875 56 44.09375 56 
Q 53.5625 56 58.46875 50.1875 
Q 63.375 44.390625 63.375 33.296875 
z
" id="DejaVuSans-Bold-110"/>
     <path id="DejaVuSans-Bold-32"/>
     <path d="M 35.890625 40.578125 
Q 41.796875 40.578125 44.359375 42.765625 
Q 46.921875 44.96875 46.921875 50 
Q 46.921875 54.984375 44.359375 57.125 
Q 41.796875 59.28125 35.890625 59.28125 
L 27.984375 59.28125 
L 27.984375 40.578125 
z
M 27.984375 27.59375 
L 27.984375 0 
L 9.1875 0 
L 9.1875 72.90625 
L 37.890625 72.90625 
Q 52.296875 72.90625 59 68.0625 
Q 65.71875 63.234375 65.71875 52.78125 
Q 65.71875 45.5625 62.21875 40.921875 
Q 58.734375 36.28125 51.703125 34.078125 
Q 55.5625 33.203125 58.609375 30.09375 
Q 61.671875 27 64.796875 20.703125 
L 75 0 
L 54.984375 0 
L 46.09375 18.109375 
Q 43.40625 23.578125 40.640625 25.578125 
Q 37.890625 27.59375 33.296875 27.59375 
z
" id="DejaVuSans-Bold-82"/>
     <path d="M 3.515625 54.6875 
L 20.515625 54.6875 
L 29.6875 17 
L 38.921875 54.6875 
L 53.515625 54.6875 
L 62.703125 17.390625 
L 71.921875 54.6875 
L 88.921875 54.6875 
L 74.515625 0 
L 55.421875 0 
L 46.1875 37.59375 
L 37.015625 0 
L 17.921875 0 
z
" id="DejaVuSans-Bold-119"/>
     <path d="M 49.03125 39.796875 
Q 46.734375 40.875 44.453125 41.375 
Q 42.1875 41.890625 39.890625 41.890625 
Q 33.15625 41.890625 29.515625 37.5625 
Q 25.875 33.25 25.875 25.203125 
L 25.875 0 
L 8.40625 0 
L 8.40625 54.6875 
L 25.875 54.6875 
L 25.875 45.703125 
Q 29.25 51.078125 33.609375 53.53125 
Q 37.984375 56 44.09375 56 
Q 44.96875 56 45.984375 55.921875 
Q 47.015625 55.859375 48.96875 55.609375 
z
" id="DejaVuSans-Bold-114"/>
     <path d="M 45.609375 46.6875 
L 45.609375 75.984375 
L 63.1875 75.984375 
L 63.1875 0 
L 45.609375 0 
L 45.609375 7.90625 
Q 42 3.078125 37.640625 0.828125 
Q 33.296875 -1.421875 27.59375 -1.421875 
Q 17.484375 -1.421875 10.984375 6.609375 
Q 4.5 14.65625 4.5 27.296875 
Q 4.5 39.9375 10.984375 47.96875 
Q 17.484375 56 27.59375 56 
Q 33.25 56 37.625 53.734375 
Q 42 51.46875 45.609375 46.6875 
z
M 34.078125 11.28125 
Q 39.703125 11.28125 42.65625 15.375 
Q 45.609375 19.484375 45.609375 27.296875 
Q 45.609375 35.109375 42.65625 39.203125 
Q 39.703125 43.3125 34.078125 43.3125 
Q 28.515625 43.3125 25.5625 39.203125 
Q 22.609375 35.109375 22.609375 27.296875 
Q 22.609375 19.484375 25.5625 15.375 
Q 28.515625 11.28125 34.078125 11.28125 
z
" id="DejaVuSans-Bold-100"/>
     <path d="M 51.125 52.984375 
L 51.125 39.703125 
Q 45.515625 42.046875 40.28125 43.21875 
Q 35.0625 44.390625 30.421875 44.390625 
Q 25.4375 44.390625 23.015625 43.140625 
Q 20.609375 41.890625 20.609375 39.3125 
Q 20.609375 37.203125 22.4375 36.078125 
Q 24.265625 34.96875 29 34.421875 
L 32.078125 33.984375 
Q 45.515625 32.28125 50.140625 28.375 
Q 54.78125 24.46875 54.78125 16.109375 
Q 54.78125 7.375 48.328125 2.96875 
Q 41.890625 -1.421875 29.109375 -1.421875 
Q 23.6875 -1.421875 17.890625 -0.5625 
Q 12.109375 0.296875 6 2 
L 6 15.28125 
Q 11.234375 12.75 16.71875 11.46875 
Q 22.21875 10.203125 27.875 10.203125 
Q 33.015625 10.203125 35.59375 11.609375 
Q 38.1875 13.03125 38.1875 15.828125 
Q 38.1875 18.171875 36.40625 19.3125 
Q 34.625 20.453125 29.296875 21.09375 
L 26.21875 21.484375 
Q 14.546875 22.953125 9.859375 26.90625 
Q 5.171875 30.859375 5.171875 38.921875 
Q 5.171875 47.609375 11.125 51.796875 
Q 17.09375 56 29.390625 56 
Q 34.234375 56 39.546875 55.265625 
Q 44.875 54.546875 51.125 52.984375 
z
" id="DejaVuSans-Bold-115"/>
     <path d="M 9.1875 72.90625 
L 59.90625 72.90625 
L 59.90625 58.6875 
L 27.984375 58.6875 
L 27.984375 45.125 
L 58.015625 45.125 
L 58.015625 30.90625 
L 27.984375 30.90625 
L 27.984375 14.203125 
L 60.984375 14.203125 
L 60.984375 0 
L 9.1875 0 
z
" id="DejaVuSans-Bold-69"/>
     <path d="M 25.875 7.90625 
L 25.875 -20.796875 
L 8.40625 -20.796875 
L 8.40625 54.6875 
L 25.875 54.6875 
L 25.875 46.6875 
Q 29.5 51.46875 33.890625 53.734375 
Q 38.28125 56 44 56 
Q 54.109375 56 60.59375 47.96875 
Q 67.09375 39.9375 67.09375 27.296875 
Q 67.09375 14.65625 60.59375 6.609375 
Q 54.109375 -1.421875 44 -1.421875 
Q 38.28125 -1.421875 33.890625 0.84375 
Q 29.5 3.125 25.875 7.90625 
z
M 37.5 43.3125 
Q 31.890625 43.3125 28.875 39.1875 
Q 25.875 35.0625 25.875 27.296875 
Q 25.875 19.53125 28.875 15.40625 
Q 31.890625 11.28125 37.5 11.28125 
Q 43.109375 11.28125 46.0625 15.375 
Q 49.03125 19.484375 49.03125 27.296875 
Q 49.03125 35.109375 46.0625 39.203125 
Q 43.109375 43.3125 37.5 43.3125 
z
" id="DejaVuSans-Bold-112"/>
     <path d="M 8.40625 54.6875 
L 25.875 54.6875 
L 25.875 0 
L 8.40625 0 
z
M 8.40625 75.984375 
L 25.875 75.984375 
L 25.875 61.71875 
L 8.40625 61.71875 
z
" id="DejaVuSans-Bold-105"/>
     <path d="M 34.421875 43.5 
Q 28.609375 43.5 25.5625 39.328125 
Q 22.515625 35.15625 22.515625 27.296875 
Q 22.515625 19.4375 25.5625 15.25 
Q 28.609375 11.078125 34.421875 11.078125 
Q 40.140625 11.078125 43.15625 15.25 
Q 46.1875 19.4375 46.1875 27.296875 
Q 46.1875 35.15625 43.15625 39.328125 
Q 40.140625 43.5 34.421875 43.5 
z
M 34.421875 56 
Q 48.53125 56 56.46875 48.375 
Q 64.40625 40.765625 64.40625 27.296875 
Q 64.40625 13.8125 56.46875 6.1875 
Q 48.53125 -1.421875 34.421875 -1.421875 
Q 20.265625 -1.421875 12.28125 6.1875 
Q 4.296875 13.8125 4.296875 27.296875 
Q 4.296875 40.765625 12.28125 48.375 
Q 20.265625 56 34.421875 56 
z
" id="DejaVuSans-Bold-111"/>
     <path d="M 9.1875 72.90625 
L 27.984375 72.90625 
L 27.984375 14.203125 
L 60.984375 14.203125 
L 60.984375 0 
L 9.1875 0 
z
" id="DejaVuSans-Bold-76"/>
     <path d="M 45.609375 9.28125 
Q 42 4.5 37.640625 2.25 
Q 33.296875 0 27.59375 0 
Q 17.578125 0 11.03125 7.875 
Q 4.5 15.765625 4.5 27.984375 
Q 4.5 40.234375 11.03125 48.0625 
Q 17.578125 55.90625 27.59375 55.90625 
Q 33.296875 55.90625 37.640625 53.65625 
Q 42 51.421875 45.609375 46.578125 
L 45.609375 54.6875 
L 63.1875 54.6875 
L 63.1875 5.515625 
Q 63.1875 -7.671875 54.859375 -14.625 
Q 46.53125 -21.578125 30.71875 -21.578125 
Q 25.59375 -21.578125 20.796875 -20.796875 
Q 16.015625 -20.015625 11.1875 -18.40625 
L 11.1875 -4.78125 
Q 15.765625 -7.421875 20.15625 -8.71875 
Q 24.5625 -10.015625 29 -10.015625 
Q 37.59375 -10.015625 41.59375 -6.25 
Q 45.609375 -2.484375 45.609375 5.515625 
z
M 34.078125 43.3125 
Q 28.65625 43.3125 25.625 39.296875 
Q 22.609375 35.296875 22.609375 27.984375 
Q 22.609375 20.453125 25.53125 16.578125 
Q 28.46875 12.703125 34.078125 12.703125 
Q 39.546875 12.703125 42.578125 16.703125 
Q 45.609375 20.703125 45.609375 27.984375 
Q 45.609375 35.296875 42.578125 39.296875 
Q 39.546875 43.3125 34.078125 43.3125 
z
" id="DejaVuSans-Bold-103"/>
     <path d="M 27.484375 70.21875 
L 27.484375 54.6875 
L 45.515625 54.6875 
L 45.515625 42.1875 
L 27.484375 42.1875 
L 27.484375 19 
Q 27.484375 15.1875 29 13.84375 
Q 30.515625 12.5 35.015625 12.5 
L 44 12.5 
L 44 0 
L 29 0 
Q 18.65625 0 14.328125 4.3125 
Q 10.015625 8.640625 10.015625 19 
L 10.015625 42.1875 
L 1.3125 42.1875 
L 1.3125 54.6875 
L 10.015625 54.6875 
L 10.015625 70.21875 
z
" id="DejaVuSans-Bold-116"/>
     <path d="M 63.375 33.296875 
L 63.375 0 
L 45.796875 0 
L 45.796875 5.421875 
L 45.796875 25.390625 
Q 45.796875 32.5625 45.484375 35.25 
Q 45.171875 37.9375 44.390625 39.203125 
Q 43.359375 40.921875 41.59375 41.875 
Q 39.84375 42.828125 37.59375 42.828125 
Q 32.125 42.828125 29 38.59375 
Q 25.875 34.375 25.875 26.90625 
L 25.875 0 
L 8.40625 0 
L 8.40625 75.984375 
L 25.875 75.984375 
L 25.875 46.6875 
Q 29.828125 51.46875 34.265625 53.734375 
Q 38.71875 56 44.09375 56 
Q 53.5625 56 58.46875 50.1875 
Q 63.375 44.390625 63.375 33.296875 
z
" id="DejaVuSans-Bold-104"/>
     <path d="M 10.203125 18.890625 
L 27.78125 18.890625 
L 27.78125 0 
L 10.203125 0 
z
" id="DejaVuSans-Bold-46"/>
    </defs>
    <g transform="translate(101.1325 16.318125)scale(0.12 -0.12)">
     <use xlink:href="#DejaVuSans-Bold-77"/>
     <use x="99.511719" xlink:href="#DejaVuSans-Bold-101"/>
     <use x="167.333984" xlink:href="#DejaVuSans-Bold-97"/>
     <use x="234.814453" xlink:href="#DejaVuSans-Bold-110"/>
     <use x="306.005859" xlink:href="#DejaVuSans-Bold-32"/>
     <use x="340.820312" xlink:href="#DejaVuSans-Bold-82"/>
     <use x="417.822266" xlink:href="#DejaVuSans-Bold-101"/>
     <use x="485.644531" xlink:href="#DejaVuSans-Bold-119"/>
     <use x="578.027344" xlink:href="#DejaVuSans-Bold-97"/>
     <use x="645.507812" xlink:href="#DejaVuSans-Bold-114"/>
     <use x="694.824219" xlink:href="#DejaVuSans-Bold-100"/>
     <use x="766.40625" xlink:href="#DejaVuSans-Bold-115"/>
     <use x="825.927734" xlink:href="#DejaVuSans-Bold-32"/>
     <use x="860.742188" xlink:href="#DejaVuSans-Bold-97"/>
     <use x="928.222656" xlink:href="#DejaVuSans-Bold-110"/>
     <use x="999.414062" xlink:href="#DejaVuSans-Bold-100"/>
     <use x="1070.996094" xlink:href="#DejaVuSans-Bold-32"/>
     <use x="1105.810547" xlink:href="#DejaVuSans-Bold-69"/>
     <use x="1174.121094" xlink:href="#DejaVuSans-Bold-112"/>
     <use x="1245.703125" xlink:href="#DejaVuSans-Bold-105"/>
     <use x="1279.980469" xlink:href="#DejaVuSans-Bold-115"/>
     <use x="1339.501953" xlink:href="#DejaVuSans-Bold-111"/>
     <use x="1408.203125" xlink:href="#DejaVuSans-Bold-100"/>
     <use x="1479.785156" xlink:href="#DejaVuSans-Bold-101"/>
     <use x="1547.607422" xlink:href="#DejaVuSans-Bold-32"/>
     <use x="1582.421875" xlink:href="#DejaVuSans-Bold-76"/>
     <use x="1646.142578" xlink:href="#DejaVuSans-Bold-101"/>
     <use x="1713.964844" xlink:href="#DejaVuSans-Bold-110"/>
     <use x="1785.15625" xlink:href="#DejaVuSans-Bold-103"/>
     <use x="1856.738281" xlink:href="#DejaVuSans-Bold-116"/>
     <use x="1904.541016" xlink:href="#DejaVuSans-Bold-104"/>
     <use x="1975.732422" xlink:href="#DejaVuSans-Bold-115"/>
     <use x="2035.253906" xlink:href="#DejaVuSans-Bold-46"/>
    </g>
   </g>
   <g id="legend_1">
    <g id="patch_7">
     <path d="M 107.624063 353.02505 
L 347.427188 353.02505 
Q 349.427188 353.02505 349.427188 351.02505 
L 349.427188 337.346925 
Q 349.427188 335.346925 347.427188 335.346925 
L 107.624063 335.346925 
Q 105.624063 335.346925 105.624063 337.346925 
L 105.624063 351.02505 
Q 105.624063 353.02505 107.624063 353.02505 
z
" style="fill:#4c4c4c;opacity:0.5;stroke:#4c4c4c;stroke-linejoin:miter;"/>
    </g>
    <g id="patch_8">
     <path d="M 105.624063 351.02505 
L 345.427188 351.02505 
Q 347.427188 351.02505 347.427188 349.02505 
L 347.427188 335.346925 
Q 347.427188 333.346925 345.427188 333.346925 
L 105.624063 333.346925 
Q 103.624063 333.346925 103.624063 335.346925 
L 103.624063 349.02505 
Q 103.624063 351.02505 105.624063 351.02505 
z
" style="fill:#ffffff;stroke:#cccccc;stroke-linejoin:miter;"/>
    </g>
    <g id="line2d_17">
     <path d="M 107.624063 341.445362 
L 127.624063 341.445362 
" style="fill:none;stroke:#ff0000;stroke-linecap:square;stroke-opacity:0.3;stroke-width:1.5;"/>
    </g>
    <g id="line2d_18"/>
    <g id="text_17">
     <!-- Average Reward -->
     <defs>
      <path d="M 34.1875 63.1875 
L 20.796875 26.90625 
L 47.609375 26.90625 
z
M 28.609375 72.90625 
L 39.796875 72.90625 
L 67.578125 0 
L 57.328125 0 
L 50.6875 18.703125 
L 17.828125 18.703125 
L 11.1875 0 
L 0.78125 0 
z
" id="DejaVuSans-65"/>
      <path d="M 2.984375 54.6875 
L 12.5 54.6875 
L 29.59375 8.796875 
L 46.6875 54.6875 
L 56.203125 54.6875 
L 35.6875 0 
L 23.484375 0 
z
" id="DejaVuSans-118"/>
      <path d="M 45.40625 27.984375 
Q 45.40625 37.75 41.375 43.109375 
Q 37.359375 48.484375 30.078125 48.484375 
Q 22.859375 48.484375 18.828125 43.109375 
Q 14.796875 37.75 14.796875 27.984375 
Q 14.796875 18.265625 18.828125 12.890625 
Q 22.859375 7.515625 30.078125 7.515625 
Q 37.359375 7.515625 41.375 12.890625 
Q 45.40625 18.265625 45.40625 27.984375 
z
M 54.390625 6.78125 
Q 54.390625 -7.171875 48.1875 -13.984375 
Q 42 -20.796875 29.203125 -20.796875 
Q 24.46875 -20.796875 20.265625 -20.09375 
Q 16.0625 -19.390625 12.109375 -17.921875 
L 12.109375 -9.1875 
Q 16.0625 -11.328125 19.921875 -12.34375 
Q 23.78125 -13.375 27.78125 -13.375 
Q 36.625 -13.375 41.015625 -8.765625 
Q 45.40625 -4.15625 45.40625 5.171875 
L 45.40625 9.625 
Q 42.625 4.78125 38.28125 2.390625 
Q 33.9375 0 27.875 0 
Q 17.828125 0 11.671875 7.65625 
Q 5.515625 15.328125 5.515625 27.984375 
Q 5.515625 40.671875 11.671875 48.328125 
Q 17.828125 56 27.875 56 
Q 33.9375 56 38.28125 53.609375 
Q 42.625 51.21875 45.40625 46.390625 
L 45.40625 54.6875 
L 54.390625 54.6875 
z
" id="DejaVuSans-103"/>
     </defs>
     <g transform="translate(135.624063 344.945362)scale(0.1 -0.1)">
      <use xlink:href="#DejaVuSans-65"/>
      <use x="68.330078" xlink:href="#DejaVuSans-118"/>
      <use x="127.509766" xlink:href="#DejaVuSans-101"/>
      <use x="189.033203" xlink:href="#DejaVuSans-114"/>
      <use x="230.146484" xlink:href="#DejaVuSans-97"/>
      <use x="291.425781" xlink:href="#DejaVuSans-103"/>
      <use x="354.902344" xlink:href="#DejaVuSans-101"/>
      <use x="416.425781" xlink:href="#DejaVuSans-32"/>
      <use x="448.212891" xlink:href="#DejaVuSans-82"/>
      <use x="517.632812" xlink:href="#DejaVuSans-101"/>
      <use x="579.15625" xlink:href="#DejaVuSans-119"/>
      <use x="660.943359" xlink:href="#DejaVuSans-97"/>
      <use x="722.222656" xlink:href="#DejaVuSans-114"/>
      <use x="763.320312" xlink:href="#DejaVuSans-100"/>
     </g>
    </g>
    <g id="line2d_19">
     <path d="M 238.306875 341.445362 
L 258.306875 341.445362 
" style="fill:none;stroke:#ffa500;stroke-dasharray:5.55,2.4;stroke-dashoffset:0;stroke-opacity:0.3;stroke-width:1.5;"/>
    </g>
    <g id="line2d_20"/>
    <g id="text_18">
     <!-- Episode Length -->
     <defs>
      <path d="M 9.8125 72.90625 
L 19.671875 72.90625 
L 19.671875 8.296875 
L 55.171875 8.296875 
L 55.171875 0 
L 9.8125 0 
z
" id="DejaVuSans-76"/>
      <path d="M 54.890625 33.015625 
L 54.890625 0 
L 45.90625 0 
L 45.90625 32.71875 
Q 45.90625 40.484375 42.875 44.328125 
Q 39.84375 48.1875 33.796875 48.1875 
Q 26.515625 48.1875 22.3125 43.546875 
Q 18.109375 38.921875 18.109375 30.90625 
L 18.109375 0 
L 9.078125 0 
L 9.078125 75.984375 
L 18.109375 75.984375 
L 18.109375 46.1875 
Q 21.34375 51.125 25.703125 53.5625 
Q 30.078125 56 35.796875 56 
Q 45.21875 56 50.046875 50.171875 
Q 54.890625 44.34375 54.890625 33.015625 
z
" id="DejaVuSans-104"/>
     </defs>
     <g transform="translate(266.306875 344.945362)scale(0.1 -0.1)">
      <use xlink:href="#DejaVuSans-69"/>
      <use x="63.183594" xlink:href="#DejaVuSans-112"/>
      <use x="126.660156" xlink:href="#DejaVuSans-105"/>
      <use x="154.443359" xlink:href="#DejaVuSans-115"/>
      <use x="206.542969" xlink:href="#DejaVuSans-111"/>
      <use x="267.724609" xlink:href="#DejaVuSans-100"/>
      <use x="331.201172" xlink:href="#DejaVuSans-101"/>
      <use x="392.724609" xlink:href="#DejaVuSans-32"/>
      <use x="424.511719" xlink:href="#DejaVuSans-76"/>
      <use x="480.208984" xlink:href="#DejaVuSans-101"/>
      <use x="541.732422" xlink:href="#DejaVuSans-110"/>
      <use x="605.111328" xlink:href="#DejaVuSans-103"/>
      <use x="668.587891" xlink:href="#DejaVuSans-116"/>
      <use x="707.796875" xlink:href="#DejaVuSans-104"/>
     </g>
    </g>
   </g>
  </g>
  <g id="axes_2">
   <g id="matplotlib.axis_3">
    <g id="ytick_6">
     <g id="line2d_21">
      <defs>
       <path d="M 0 0 
L 3.5 0 
" id="m48d69e54a1" style="stroke:#000000;stroke-width:0.8;"/>
      </defs>
      <g>
       <use style="stroke:#000000;stroke-width:0.8;" x="404.085625" xlink:href="#m48d69e54a1" y="236.186324"/>
      </g>
     </g>
     <g id="text_19">
      <!-- 18.5 -->
      <defs>
       <path d="M 31.78125 34.625 
Q 24.75 34.625 20.71875 30.859375 
Q 16.703125 27.09375 16.703125 20.515625 
Q 16.703125 13.921875 20.71875 10.15625 
Q 24.75 6.390625 31.78125 6.390625 
Q 38.8125 6.390625 42.859375 10.171875 
Q 46.921875 13.96875 46.921875 20.515625 
Q 46.921875 27.09375 42.890625 30.859375 
Q 38.875 34.625 31.78125 34.625 
z
M 21.921875 38.8125 
Q 15.578125 40.375 12.03125 44.71875 
Q 8.5 49.078125 8.5 55.328125 
Q 8.5 64.0625 14.71875 69.140625 
Q 20.953125 74.21875 31.78125 74.21875 
Q 42.671875 74.21875 48.875 69.140625 
Q 55.078125 64.0625 55.078125 55.328125 
Q 55.078125 49.078125 51.53125 44.71875 
Q 48 40.375 41.703125 38.8125 
Q 48.828125 37.15625 52.796875 32.3125 
Q 56.78125 27.484375 56.78125 20.515625 
Q 56.78125 9.90625 50.3125 4.234375 
Q 43.84375 -1.421875 31.78125 -1.421875 
Q 19.734375 -1.421875 13.25 4.234375 
Q 6.78125 9.90625 6.78125 20.515625 
Q 6.78125 27.484375 10.78125 32.3125 
Q 14.796875 37.15625 21.921875 38.8125 
z
M 18.3125 54.390625 
Q 18.3125 48.734375 21.84375 45.5625 
Q 25.390625 42.390625 31.78125 42.390625 
Q 38.140625 42.390625 41.71875 45.5625 
Q 45.3125 48.734375 45.3125 54.390625 
Q 45.3125 60.0625 41.71875 63.234375 
Q 38.140625 66.40625 31.78125 66.40625 
Q 25.390625 66.40625 21.84375 63.234375 
Q 18.3125 60.0625 18.3125 54.390625 
z
" id="DejaVuSans-56"/>
       <path d="M 10.6875 12.40625 
L 21 12.40625 
L 21 0 
L 10.6875 0 
z
" id="DejaVuSans-46"/>
      </defs>
      <g transform="translate(411.085625 239.985543)scale(0.1 -0.1)">
       <use xlink:href="#DejaVuSans-49"/>
       <use x="63.623047" xlink:href="#DejaVuSans-56"/>
       <use x="127.246094" xlink:href="#DejaVuSans-46"/>
       <use x="159.033203" xlink:href="#DejaVuSans-53"/>
      </g>
     </g>
    </g>
    <g id="ytick_7">
     <g id="line2d_22">
      <g>
       <use style="stroke:#000000;stroke-width:0.8;" x="404.085625" xlink:href="#m48d69e54a1" y="181.925962"/>
      </g>
     </g>
     <g id="text_20">
      <!-- 19.0 -->
      <defs>
       <path d="M 10.984375 1.515625 
L 10.984375 10.5 
Q 14.703125 8.734375 18.5 7.8125 
Q 22.3125 6.890625 25.984375 6.890625 
Q 35.75 6.890625 40.890625 13.453125 
Q 46.046875 20.015625 46.78125 33.40625 
Q 43.953125 29.203125 39.59375 26.953125 
Q 35.25 24.703125 29.984375 24.703125 
Q 19.046875 24.703125 12.671875 31.3125 
Q 6.296875 37.9375 6.296875 49.421875 
Q 6.296875 60.640625 12.9375 67.421875 
Q 19.578125 74.21875 30.609375 74.21875 
Q 43.265625 74.21875 49.921875 64.515625 
Q 56.59375 54.828125 56.59375 36.375 
Q 56.59375 19.140625 48.40625 8.859375 
Q 40.234375 -1.421875 26.421875 -1.421875 
Q 22.703125 -1.421875 18.890625 -0.6875 
Q 15.09375 0.046875 10.984375 1.515625 
z
M 30.609375 32.421875 
Q 37.25 32.421875 41.125 36.953125 
Q 45.015625 41.5 45.015625 49.421875 
Q 45.015625 57.28125 41.125 61.84375 
Q 37.25 66.40625 30.609375 66.40625 
Q 23.96875 66.40625 20.09375 61.84375 
Q 16.21875 57.28125 16.21875 49.421875 
Q 16.21875 41.5 20.09375 36.953125 
Q 23.96875 32.421875 30.609375 32.421875 
z
" id="DejaVuSans-57"/>
      </defs>
      <g transform="translate(411.085625 185.725181)scale(0.1 -0.1)">
       <use xlink:href="#DejaVuSans-49"/>
       <use x="63.623047" xlink:href="#DejaVuSans-57"/>
       <use x="127.246094" xlink:href="#DejaVuSans-46"/>
       <use x="159.033203" xlink:href="#DejaVuSans-48"/>
      </g>
     </g>
    </g>
    <g id="ytick_8">
     <g id="line2d_23">
      <g>
       <use style="stroke:#000000;stroke-width:0.8;" x="404.085625" xlink:href="#m48d69e54a1" y="127.665601"/>
      </g>
     </g>
     <g id="text_21">
      <!-- 19.5 -->
      <g transform="translate(411.085625 131.464819)scale(0.1 -0.1)">
       <use xlink:href="#DejaVuSans-49"/>
       <use x="63.623047" xlink:href="#DejaVuSans-57"/>
       <use x="127.246094" xlink:href="#DejaVuSans-46"/>
       <use x="159.033203" xlink:href="#DejaVuSans-53"/>
      </g>
     </g>
    </g>
    <g id="ytick_9">
     <g id="line2d_24">
      <g>
       <use style="stroke:#000000;stroke-width:0.8;" x="404.085625" xlink:href="#m48d69e54a1" y="73.405239"/>
      </g>
     </g>
     <g id="text_22">
      <!-- 20.0 -->
      <g transform="translate(411.085625 77.204458)scale(0.1 -0.1)">
       <use xlink:href="#DejaVuSans-50"/>
       <use x="63.623047" xlink:href="#DejaVuSans-48"/>
       <use x="127.246094" xlink:href="#DejaVuSans-46"/>
       <use x="159.033203" xlink:href="#DejaVuSans-48"/>
      </g>
     </g>
    </g>
    <g id="text_23">
     <!-- Episode Steps -->
     <defs>
      <path d="M 53.515625 70.515625 
L 53.515625 60.890625 
Q 47.90625 63.578125 42.921875 64.890625 
Q 37.9375 66.21875 33.296875 66.21875 
Q 25.25 66.21875 20.875 63.09375 
Q 16.5 59.96875 16.5 54.203125 
Q 16.5 49.359375 19.40625 46.890625 
Q 22.3125 44.4375 30.421875 42.921875 
L 36.375 41.703125 
Q 47.40625 39.59375 52.65625 34.296875 
Q 57.90625 29 57.90625 20.125 
Q 57.90625 9.515625 50.796875 4.046875 
Q 43.703125 -1.421875 29.984375 -1.421875 
Q 24.8125 -1.421875 18.96875 -0.25 
Q 13.140625 0.921875 6.890625 3.21875 
L 6.890625 13.375 
Q 12.890625 10.015625 18.65625 8.296875 
Q 24.421875 6.59375 29.984375 6.59375 
Q 38.421875 6.59375 43.015625 9.90625 
Q 47.609375 13.234375 47.609375 19.390625 
Q 47.609375 24.75 44.3125 27.78125 
Q 41.015625 30.8125 33.5 32.328125 
L 27.484375 33.5 
Q 16.453125 35.6875 11.515625 40.375 
Q 6.59375 45.0625 6.59375 53.421875 
Q 6.59375 63.09375 13.40625 68.65625 
Q 20.21875 74.21875 32.171875 74.21875 
Q 37.3125 74.21875 42.625 73.28125 
Q 47.953125 72.359375 53.515625 70.515625 
z
" id="DejaVuSans-83"/>
     </defs>
     <g transform="translate(444.949688 190.590531)rotate(-90)scale(0.1 -0.1)">
      <use xlink:href="#DejaVuSans-69"/>
      <use x="63.183594" xlink:href="#DejaVuSans-112"/>
      <use x="126.660156" xlink:href="#DejaVuSans-105"/>
      <use x="154.443359" xlink:href="#DejaVuSans-115"/>
      <use x="206.542969" xlink:href="#DejaVuSans-111"/>
      <use x="267.724609" xlink:href="#DejaVuSans-100"/>
      <use x="331.201172" xlink:href="#DejaVuSans-101"/>
      <use x="392.724609" xlink:href="#DejaVuSans-32"/>
      <use x="424.511719" xlink:href="#DejaVuSans-83"/>
      <use x="487.988281" xlink:href="#DejaVuSans-116"/>
      <use x="527.197266" xlink:href="#DejaVuSans-101"/>
      <use x="588.720703" xlink:href="#DejaVuSans-112"/>
      <use x="652.197266" xlink:href="#DejaVuSans-115"/>
     </g>
    </g>
   </g>
   <g id="line2d_25">
    <path clip-path="url(#pb86de320fe)" d="M 63.198352 108.700814 
L 64.953242 72.062161 
L 66.708131 134.562002 
L 68.463021 148.615045 
L 70.21791 212.681835 
L 71.972799 134.415694 
L 73.727689 108.964214 
L 75.482578 107.647215 
L 77.237468 270.007805 
L 80.747247 137.164417 
L 82.502136 153.31361 
L 84.257025 147.044301 
L 86.011915 64.003691 
L 87.766804 190.001923 
L 89.521694 179.10391 
L 91.276583 113.705411 
L 93.031473 184.708545 
L 94.786362 116.498214 
L 96.541252 178.351162 
L 98.296141 112.125012 
L 100.05103 126.494514 
L 101.80592 74.207116 
L 103.560809 124.396904 
L 105.315699 63.147061 
L 107.070588 214.582661 
L 108.825478 125.839531 
L 110.580367 132.78946 
L 112.335256 116.394125 
L 114.090146 134.448146 
L 115.845035 79.300192 
L 117.599925 131.335384 
L 119.354814 196.311267 
L 121.109704 151.105041 
L 122.864593 180.658197 
L 124.619482 139.143754 
L 126.374372 46.883965 
L 128.129261 216.16916 
L 129.884151 92.869644 
L 131.63904 162.124788 
L 133.39393 133.926412 
L 135.148819 147.738049 
L 136.903709 93.521276 
L 138.658598 173.499647 
L 140.413487 181.670619 
L 142.168377 201.268776 
L 143.923266 187.757683 
L 145.678156 231.592197 
L 149.187935 138.309978 
L 150.942824 187.50413 
L 152.697713 202.668851 
L 154.452603 145.322773 
L 156.207492 183.96391 
L 157.962382 143.853059 
L 159.717271 218.34901 
L 161.472161 111.691139 
L 163.22705 116.760976 
L 164.981939 182.179515 
L 166.736829 137.424659 
L 168.491718 37.050797 
L 170.246608 147.915879 
L 172.001497 176.053076 
L 173.756387 168.903475 
L 175.511276 135.047082 
L 177.266166 197.862572 
L 179.021055 206.658592 
L 180.775944 176.576349 
L 182.530834 200.601622 
L 184.285723 79.820257 
L 186.040613 123.714603 
L 187.795502 220.772872 
L 189.550392 68.570157 
L 191.305281 174.028914 
L 193.06017 107.827067 
L 194.81506 117.966889 
L 196.569949 183.713362 
L 198.324839 55.273348 
L 200.079728 178.582907 
L 201.834618 192.828745 
L 203.589507 112.724342 
L 205.344396 65.596056 
L 207.099286 179.123784 
L 208.854175 135.491614 
L 210.609065 137.578551 
L 212.363954 144.97724 
L 214.118844 186.522134 
L 215.873733 102.32641 
L 217.628623 149.111363 
L 219.383512 171.226736 
L 221.138401 212.431788 
L 222.893291 151.838463 
L 224.64818 160.888848 
L 226.40307 201.909965 
L 228.157959 91.447804 
L 229.912849 139.088835 
L 231.667738 172.946706 
L 233.422627 221.775373 
L 235.177517 192.020913 
L 236.932406 108.878115 
L 238.687296 133.000552 
L 240.442185 204.134854 
L 242.197075 154.01318 
L 243.951964 222.433698 
L 245.706854 174.211219 
L 247.461743 198.582631 
L 249.216632 83.753181 
L 250.971522 106.837051 
L 252.726411 201.703103 
L 254.481301 154.665972 
L 256.23619 177.605465 
L 257.99108 150.661659 
L 259.745969 171.38248 
L 261.500858 139.450071 
L 263.255748 147.915879 
L 265.010637 146.358165 
L 266.765527 157.180144 
L 268.520416 156.406837 
L 270.275306 209.244112 
L 272.030195 174.283658 
L 273.785084 169.896542 
L 275.539974 130.002171 
L 277.294863 229.108885 
L 279.049753 191.53852 
L 280.804642 183.193728 
L 282.559532 126.227374 
L 284.314421 192.273287 
L 286.069311 276.334125 
L 287.8242 205.680498 
L 289.579089 188.502976 
L 291.333979 195.585913 
L 293.088868 217.013494 
L 294.843758 119.16699 
L 296.598647 249.070063 
L 298.353537 185.222152 
L 300.108426 233.082184 
L 301.863315 138.25929 
L 303.618205 114.23221 
L 305.373094 153.571379 
L 307.127984 209.431215 
L 308.882873 172.177056 
L 310.637763 92.991906 
L 312.392652 175.015445 
L 314.147541 104.826081 
L 315.902431 108.964214 
L 317.65732 47.088964 
L 319.41221 182.435449 
L 321.167099 258.283304 
L 322.921989 72.603362 
L 324.676878 83.270759 
L 326.431768 151.998185 
L 328.186657 198.292197 
L 329.941546 152.024765 
L 331.696436 191.583544 
L 333.451325 190.077754 
L 335.206215 176.8549 
L 336.961104 34.414125 
L 338.715994 256.810172 
L 340.470883 160.375748 
L 342.225772 109.666401 
L 343.980662 253.456552 
L 345.735551 116.498214 
L 347.490441 261.720612 
L 349.24533 225.383918 
L 351.00022 180.401081 
L 352.755109 227.330035 
L 354.509998 123.592789 
L 356.264888 142.7235 
L 358.019777 137.011883 
L 359.774667 193.108426 
L 361.529556 237.552145 
L 363.284446 84.603938 
L 365.039335 157.953451 
L 366.794225 189.279002 
L 368.549114 135.863209 
L 370.304003 250.828009 
L 372.058893 84.096936 
L 373.813782 256.886101 
L 375.568672 72.065477 
L 377.323561 142.817062 
L 379.078451 137.994682 
L 380.83334 220.344793 
L 382.588229 208.553732 
L 384.343119 152.609938 
L 386.098008 172.014233 
L 387.852898 140.843117 
L 387.852898 140.843117 
" style="fill:none;stroke:#ffa500;stroke-dasharray:5.55,2.4;stroke-dashoffset:0;stroke-opacity:0.3;stroke-width:1.5;"/>
   </g>
   <g id="line2d_26">
    <path clip-path="url(#pb86de320fe)" d="M 63.198352 97.51284 
L 66.708131 122.9948 
L 70.21791 147.961877 
L 71.972799 158.731634 
L 73.727689 170.569028 
L 75.482578 169.516499 
L 77.237468 175.796914 
L 78.992357 160.603243 
L 80.747247 163.022822 
L 82.502136 165.036497 
L 84.257025 148.4653 
L 86.011915 134.185269 
L 87.766804 136.881414 
L 89.521694 149.695204 
L 91.276583 150.936089 
L 93.031473 157.304389 
L 94.786362 152.656052 
L 96.541252 136.216575 
L 98.296141 116.000993 
L 100.05103 118.121031 
L 101.80592 111.452879 
L 103.560809 118.951006 
L 105.315699 116.787838 
L 107.070588 131.846669 
L 108.825478 131.13331 
L 110.580367 128.390729 
L 112.335256 127.27069 
L 114.090146 128.945587 
L 115.845035 124.65243 
L 117.599925 148.818268 
L 119.354814 140.04397 
L 121.109704 151.400949 
L 122.864593 147.792662 
L 124.619482 150.415383 
L 126.374372 138.927708 
L 128.129261 134.879317 
L 129.884151 130.355832 
L 131.63904 127.126704 
L 133.39393 134.630466 
L 135.148819 146.391589 
L 136.903709 138.645942 
L 138.658598 164.034442 
L 140.413487 176.674429 
L 142.168377 186.73265 
L 143.923266 190.986976 
L 145.678156 201.160075 
L 147.433045 189.24177 
L 149.187935 186.201158 
L 150.942824 172.991296 
L 152.697713 176.981202 
L 154.452603 172.698505 
L 156.207492 167.815919 
L 157.962382 167.335165 
L 159.717271 165.584514 
L 161.472161 148.595354 
L 164.981939 126.154658 
L 166.736829 128.238827 
L 168.491718 120.723631 
L 170.246608 134.104596 
L 172.001497 144.168626 
L 173.756387 151.031788 
L 175.511276 181.422742 
L 177.266166 193.440632 
L 179.021055 171.035438 
L 180.775944 175.224786 
L 182.530834 163.388248 
L 184.285723 159.620702 
L 186.040613 143.870437 
L 187.795502 129.33487 
L 189.550392 137.662819 
L 191.305281 127.67136 
L 193.06017 131.895493 
L 194.81506 132.623899 
L 196.569949 135.498982 
L 198.324839 139.256452 
L 200.079728 132.180057 
L 201.834618 138.421713 
L 203.589507 135.760392 
L 205.344396 129.119529 
L 207.099286 145.874355 
L 208.854175 133.374254 
L 210.609065 134.434862 
L 212.363954 143.135213 
L 214.118844 154.656283 
L 215.873733 151.198856 
L 217.628623 157.055564 
L 219.383512 170.884148 
L 221.138401 170.386181 
L 222.893291 164.185201 
L 224.64818 162.905387 
L 226.40307 157.233473 
L 228.157959 162.733603 
L 231.667738 160.300309 
L 233.422627 162.467752 
L 235.177517 158.53085 
L 236.932406 173.557049 
L 238.687296 169.044146 
L 240.442185 176.675782 
L 242.197075 174.631086 
L 243.951964 168.903243 
L 245.706854 173.621349 
L 247.461743 162.614109 
L 249.216632 153.500358 
L 250.971522 151.479085 
L 252.726411 147.787536 
L 254.481301 154.000676 
L 256.23619 157.811419 
L 257.99108 167.846793 
L 259.745969 161.029441 
L 261.500858 145.600486 
L 263.255748 151.500465 
L 265.010637 154.382459 
L 266.765527 165.121748 
L 268.520416 160.40853 
L 270.275306 169.245938 
L 272.030195 175.382573 
L 273.785084 185.284475 
L 275.539974 180.790277 
L 277.294863 170.211666 
L 279.049753 173.459051 
L 280.804642 187.110999 
L 282.559532 195.563144 
L 284.314421 200.026399 
L 286.069311 204.064313 
L 287.8242 200.643593 
L 289.579089 205.925889 
L 291.333979 203.881365 
L 293.088868 200.072902 
L 294.843758 194.912481 
L 296.598647 194.110171 
L 298.353537 182.143518 
L 300.108426 176.185632 
L 301.863315 178.303491 
L 303.618205 171.159493 
L 305.373094 156.468125 
L 307.127984 155.093856 
L 308.882873 151.928219 
L 310.637763 141.218296 
L 312.392652 122.359496 
L 314.147541 127.085041 
L 315.902431 126.444411 
L 317.65732 127.119627 
L 319.41221 128.55325 
L 321.167099 130.168432 
L 322.921989 141.499036 
L 324.676878 148.904728 
L 326.431768 157.95629 
L 328.186657 162.747106 
L 329.941546 148.5975 
L 331.696436 173.772305 
L 333.451325 178.601782 
L 335.206215 157.243473 
L 336.961104 161.407668 
L 338.715994 154.736215 
L 340.470883 155.905464 
L 342.225772 171.54625 
L 343.980662 184.8003 
L 345.735551 210.780625 
L 347.490441 198.013422 
L 349.24533 207.639313 
L 351.00022 197.413451 
L 352.755109 172.07843 
L 354.509998 185.671772 
L 356.264888 162.412597 
L 358.019777 156.562611 
L 359.774667 161.04341 
L 361.529556 150.471124 
L 363.284446 175.3114 
L 365.039335 163.093055 
L 366.794225 175.63394 
L 368.549114 166.622597 
L 370.304003 163.714856 
L 372.058893 164.982046 
L 373.813782 153.109833 
L 375.568672 155.796197 
L 377.323561 160.160108 
L 379.078451 159.376489 
L 380.83334 177.487047 
L 382.588229 190.449174 
L 384.343119 191.552387 
L 386.098008 174.086205 
L 387.852898 131.340146 
L 387.852898 131.340146 
" style="fill:none;stroke:#ffa500;stroke-linecap:square;stroke-width:1.5;"/>
   </g>
   <g id="patch_9">
    <path d="M 46.965625 288.430125 
L 46.965625 22.318125 
" style="fill:none;stroke:#000000;stroke-linecap:square;stroke-linejoin:miter;stroke-width:0.8;"/>
   </g>
   <g id="patch_10">
    <path d="M 404.085625 288.430125 
L 404.085625 22.318125 
" style="fill:none;stroke:#000000;stroke-linecap:square;stroke-linejoin:miter;stroke-width:0.8;"/>
   </g>
   <g id="patch_11">
    <path d="M 46.965625 288.430125 
L 404.085625 288.430125 
" style="fill:none;stroke:#000000;stroke-linecap:square;stroke-linejoin:miter;stroke-width:0.8;"/>
   </g>
   <g id="patch_12">
    <path d="M 46.965625 22.318125 
L 404.085625 22.318125 
" style="fill:none;stroke:#000000;stroke-linecap:square;stroke-linejoin:miter;stroke-width:0.8;"/>
   </g>
  </g>
 </g>
 <defs>
  <clipPath id="pb86de320fe">
   <rect height="266.112" width="357.12" x="46.965625" y="22.318125"/>
  </clipPath>
 </defs>
</svg>
