<?xml version="1.0" encoding="utf-8" standalone="no"?>
<!DOCTYPE svg PUBLIC "-//W3C//DTD SVG 1.1//EN"
  "http://www.w3.org/Graphics/SVG/1.1/DTD/svg11.dtd">
<!-- Created with matplotlib (https://matplotlib.org/) -->
<svg height="358.22505pt" version="1.1" viewBox="0 0 465.793437 358.22505" width="465.793437pt" xmlns="http://www.w3.org/2000/svg" xmlns:xlink="http://www.w3.org/1999/xlink">
 <defs>
  <style type="text/css">
*{stroke-linecap:butt;stroke-linejoin:round;}
  </style>
 </defs>
 <g id="figure_1">
  <g id="patch_1">
   <path d="M 0 358.22505 
L 465.793437 358.22505 
L 465.793437 0 
L 0 0 
z
" style="fill:#ffffff;"/>
  </g>
  <g id="axes_1">
   <g id="patch_2">
    <path d="M 55.345313 288.430125 
L 412.465312 288.430125 
L 412.465312 22.318125 
L 55.345313 22.318125 
z
" style="fill:#ffffff;"/>
   </g>
   <g id="matplotlib.axis_1">
    <g id="xtick_1">
     <g id="line2d_1">
      <defs>
       <path d="M 0 0 
L 0 3.5 
" id="mf4aa4391c2" style="stroke:#000000;stroke-width:0.8;"/>
      </defs>
      <g>
       <use style="stroke:#000000;stroke-width:0.8;" x="71.57804" xlink:href="#mf4aa4391c2" y="288.430125"/>
      </g>
     </g>
     <g id="text_1">
      <!-- 0 -->
      <defs>
       <path d="M 31.78125 66.40625 
Q 24.171875 66.40625 20.328125 58.90625 
Q 16.5 51.421875 16.5 36.375 
Q 16.5 21.390625 20.328125 13.890625 
Q 24.171875 6.390625 31.78125 6.390625 
Q 39.453125 6.390625 43.28125 13.890625 
Q 47.125 21.390625 47.125 36.375 
Q 47.125 51.421875 43.28125 58.90625 
Q 39.453125 66.40625 31.78125 66.40625 
z
M 31.78125 74.21875 
Q 44.046875 74.21875 50.515625 64.515625 
Q 56.984375 54.828125 56.984375 36.375 
Q 56.984375 17.96875 50.515625 8.265625 
Q 44.046875 -1.421875 31.78125 -1.421875 
Q 19.53125 -1.421875 13.0625 8.265625 
Q 6.59375 17.96875 6.59375 36.375 
Q 6.59375 54.828125 13.0625 64.515625 
Q 19.53125 74.21875 31.78125 74.21875 
z
" id="DejaVuSans-48"/>
      </defs>
      <g transform="translate(68.39679 303.028562)scale(0.1 -0.1)">
       <use xlink:href="#DejaVuSans-48"/>
      </g>
     </g>
    </g>
    <g id="xtick_2">
     <g id="line2d_2">
      <g>
       <use style="stroke:#000000;stroke-width:0.8;" x="116.79455" xlink:href="#mf4aa4391c2" y="288.430125"/>
      </g>
     </g>
     <g id="text_2">
      <!-- 50 -->
      <defs>
       <path d="M 10.796875 72.90625 
L 49.515625 72.90625 
L 49.515625 64.59375 
L 19.828125 64.59375 
L 19.828125 46.734375 
Q 21.96875 47.46875 24.109375 47.828125 
Q 26.265625 48.1875 28.421875 48.1875 
Q 40.625 48.1875 47.75 41.5 
Q 54.890625 34.8125 54.890625 23.390625 
Q 54.890625 11.625 47.5625 5.09375 
Q 40.234375 -1.421875 26.90625 -1.421875 
Q 22.3125 -1.421875 17.546875 -0.640625 
Q 12.796875 0.140625 7.71875 1.703125 
L 7.71875 11.625 
Q 12.109375 9.234375 16.796875 8.0625 
Q 21.484375 6.890625 26.703125 6.890625 
Q 35.15625 6.890625 40.078125 11.328125 
Q 45.015625 15.765625 45.015625 23.390625 
Q 45.015625 31 40.078125 35.4375 
Q 35.15625 39.890625 26.703125 39.890625 
Q 22.75 39.890625 18.8125 39.015625 
Q 14.890625 38.140625 10.796875 36.28125 
z
" id="DejaVuSans-53"/>
      </defs>
      <g transform="translate(110.43205 303.028562)scale(0.1 -0.1)">
       <use xlink:href="#DejaVuSans-53"/>
       <use x="63.623047" xlink:href="#DejaVuSans-48"/>
      </g>
     </g>
    </g>
    <g id="xtick_3">
     <g id="line2d_3">
      <g>
       <use style="stroke:#000000;stroke-width:0.8;" x="162.011061" xlink:href="#mf4aa4391c2" y="288.430125"/>
      </g>
     </g>
     <g id="text_3">
      <!-- 100 -->
      <defs>
       <path d="M 12.40625 8.296875 
L 28.515625 8.296875 
L 28.515625 63.921875 
L 10.984375 60.40625 
L 10.984375 69.390625 
L 28.421875 72.90625 
L 38.28125 72.90625 
L 38.28125 8.296875 
L 54.390625 8.296875 
L 54.390625 0 
L 12.40625 0 
z
" id="DejaVuSans-49"/>
      </defs>
      <g transform="translate(152.467311 303.028562)scale(0.1 -0.1)">
       <use xlink:href="#DejaVuSans-49"/>
       <use x="63.623047" xlink:href="#DejaVuSans-48"/>
       <use x="127.246094" xlink:href="#DejaVuSans-48"/>
      </g>
     </g>
    </g>
    <g id="xtick_4">
     <g id="line2d_4">
      <g>
       <use style="stroke:#000000;stroke-width:0.8;" x="207.227571" xlink:href="#mf4aa4391c2" y="288.430125"/>
      </g>
     </g>
     <g id="text_4">
      <!-- 150 -->
      <g transform="translate(197.683821 303.028562)scale(0.1 -0.1)">
       <use xlink:href="#DejaVuSans-49"/>
       <use x="63.623047" xlink:href="#DejaVuSans-53"/>
       <use x="127.246094" xlink:href="#DejaVuSans-48"/>
      </g>
     </g>
    </g>
    <g id="xtick_5">
     <g id="line2d_5">
      <g>
       <use style="stroke:#000000;stroke-width:0.8;" x="252.444082" xlink:href="#mf4aa4391c2" y="288.430125"/>
      </g>
     </g>
     <g id="text_5">
      <!-- 200 -->
      <defs>
       <path d="M 19.1875 8.296875 
L 53.609375 8.296875 
L 53.609375 0 
L 7.328125 0 
L 7.328125 8.296875 
Q 12.9375 14.109375 22.625 23.890625 
Q 32.328125 33.6875 34.8125 36.53125 
Q 39.546875 41.84375 41.421875 45.53125 
Q 43.3125 49.21875 43.3125 52.78125 
Q 43.3125 58.59375 39.234375 62.25 
Q 35.15625 65.921875 28.609375 65.921875 
Q 23.96875 65.921875 18.8125 64.3125 
Q 13.671875 62.703125 7.8125 59.421875 
L 7.8125 69.390625 
Q 13.765625 71.78125 18.9375 73 
Q 24.125 74.21875 28.421875 74.21875 
Q 39.75 74.21875 46.484375 68.546875 
Q 53.21875 62.890625 53.21875 53.421875 
Q 53.21875 48.921875 51.53125 44.890625 
Q 49.859375 40.875 45.40625 35.40625 
Q 44.1875 33.984375 37.640625 27.21875 
Q 31.109375 20.453125 19.1875 8.296875 
z
" id="DejaVuSans-50"/>
      </defs>
      <g transform="translate(242.900332 303.028562)scale(0.1 -0.1)">
       <use xlink:href="#DejaVuSans-50"/>
       <use x="63.623047" xlink:href="#DejaVuSans-48"/>
       <use x="127.246094" xlink:href="#DejaVuSans-48"/>
      </g>
     </g>
    </g>
    <g id="xtick_6">
     <g id="line2d_6">
      <g>
       <use style="stroke:#000000;stroke-width:0.8;" x="297.660592" xlink:href="#mf4aa4391c2" y="288.430125"/>
      </g>
     </g>
     <g id="text_6">
      <!-- 250 -->
      <g transform="translate(288.116842 303.028562)scale(0.1 -0.1)">
       <use xlink:href="#DejaVuSans-50"/>
       <use x="63.623047" xlink:href="#DejaVuSans-53"/>
       <use x="127.246094" xlink:href="#DejaVuSans-48"/>
      </g>
     </g>
    </g>
    <g id="xtick_7">
     <g id="line2d_7">
      <g>
       <use style="stroke:#000000;stroke-width:0.8;" x="342.877103" xlink:href="#mf4aa4391c2" y="288.430125"/>
      </g>
     </g>
     <g id="text_7">
      <!-- 300 -->
      <defs>
       <path d="M 40.578125 39.3125 
Q 47.65625 37.796875 51.625 33 
Q 55.609375 28.21875 55.609375 21.1875 
Q 55.609375 10.40625 48.1875 4.484375 
Q 40.765625 -1.421875 27.09375 -1.421875 
Q 22.515625 -1.421875 17.65625 -0.515625 
Q 12.796875 0.390625 7.625 2.203125 
L 7.625 11.71875 
Q 11.71875 9.328125 16.59375 8.109375 
Q 21.484375 6.890625 26.8125 6.890625 
Q 36.078125 6.890625 40.9375 10.546875 
Q 45.796875 14.203125 45.796875 21.1875 
Q 45.796875 27.640625 41.28125 31.265625 
Q 36.765625 34.90625 28.71875 34.90625 
L 20.21875 34.90625 
L 20.21875 43.015625 
L 29.109375 43.015625 
Q 36.375 43.015625 40.234375 45.921875 
Q 44.09375 48.828125 44.09375 54.296875 
Q 44.09375 59.90625 40.109375 62.90625 
Q 36.140625 65.921875 28.71875 65.921875 
Q 24.65625 65.921875 20.015625 65.03125 
Q 15.375 64.15625 9.8125 62.3125 
L 9.8125 71.09375 
Q 15.4375 72.65625 20.34375 73.4375 
Q 25.25 74.21875 29.59375 74.21875 
Q 40.828125 74.21875 47.359375 69.109375 
Q 53.90625 64.015625 53.90625 55.328125 
Q 53.90625 49.265625 50.4375 45.09375 
Q 46.96875 40.921875 40.578125 39.3125 
z
" id="DejaVuSans-51"/>
      </defs>
      <g transform="translate(333.333353 303.028562)scale(0.1 -0.1)">
       <use xlink:href="#DejaVuSans-51"/>
       <use x="63.623047" xlink:href="#DejaVuSans-48"/>
       <use x="127.246094" xlink:href="#DejaVuSans-48"/>
      </g>
     </g>
    </g>
    <g id="xtick_8">
     <g id="line2d_8">
      <g>
       <use style="stroke:#000000;stroke-width:0.8;" x="388.093613" xlink:href="#mf4aa4391c2" y="288.430125"/>
      </g>
     </g>
     <g id="text_8">
      <!-- 350 -->
      <g transform="translate(378.549863 303.028562)scale(0.1 -0.1)">
       <use xlink:href="#DejaVuSans-51"/>
       <use x="63.623047" xlink:href="#DejaVuSans-53"/>
       <use x="127.246094" xlink:href="#DejaVuSans-48"/>
      </g>
     </g>
    </g>
    <g id="text_9">
     <!-- Iteration (Cycle) -->
     <defs>
      <path d="M 9.8125 72.90625 
L 19.671875 72.90625 
L 19.671875 0 
L 9.8125 0 
z
" id="DejaVuSans-73"/>
      <path d="M 18.3125 70.21875 
L 18.3125 54.6875 
L 36.8125 54.6875 
L 36.8125 47.703125 
L 18.3125 47.703125 
L 18.3125 18.015625 
Q 18.3125 11.328125 20.140625 9.421875 
Q 21.96875 7.515625 27.59375 7.515625 
L 36.8125 7.515625 
L 36.8125 0 
L 27.59375 0 
Q 17.1875 0 13.234375 3.875 
Q 9.28125 7.765625 9.28125 18.015625 
L 9.28125 47.703125 
L 2.6875 47.703125 
L 2.6875 54.6875 
L 9.28125 54.6875 
L 9.28125 70.21875 
z
" id="DejaVuSans-116"/>
      <path d="M 56.203125 29.59375 
L 56.203125 25.203125 
L 14.890625 25.203125 
Q 15.484375 15.921875 20.484375 11.0625 
Q 25.484375 6.203125 34.421875 6.203125 
Q 39.59375 6.203125 44.453125 7.46875 
Q 49.3125 8.734375 54.109375 11.28125 
L 54.109375 2.78125 
Q 49.265625 0.734375 44.1875 -0.34375 
Q 39.109375 -1.421875 33.890625 -1.421875 
Q 20.796875 -1.421875 13.15625 6.1875 
Q 5.515625 13.8125 5.515625 26.8125 
Q 5.515625 40.234375 12.765625 48.109375 
Q 20.015625 56 32.328125 56 
Q 43.359375 56 49.78125 48.890625 
Q 56.203125 41.796875 56.203125 29.59375 
z
M 47.21875 32.234375 
Q 47.125 39.59375 43.09375 43.984375 
Q 39.0625 48.390625 32.421875 48.390625 
Q 24.90625 48.390625 20.390625 44.140625 
Q 15.875 39.890625 15.1875 32.171875 
z
" id="DejaVuSans-101"/>
      <path d="M 41.109375 46.296875 
Q 39.59375 47.171875 37.8125 47.578125 
Q 36.03125 48 33.890625 48 
Q 26.265625 48 22.1875 43.046875 
Q 18.109375 38.09375 18.109375 28.8125 
L 18.109375 0 
L 9.078125 0 
L 9.078125 54.6875 
L 18.109375 54.6875 
L 18.109375 46.1875 
Q 20.953125 51.171875 25.484375 53.578125 
Q 30.03125 56 36.53125 56 
Q 37.453125 56 38.578125 55.875 
Q 39.703125 55.765625 41.0625 55.515625 
z
" id="DejaVuSans-114"/>
      <path d="M 34.28125 27.484375 
Q 23.390625 27.484375 19.1875 25 
Q 14.984375 22.515625 14.984375 16.5 
Q 14.984375 11.71875 18.140625 8.90625 
Q 21.296875 6.109375 26.703125 6.109375 
Q 34.1875 6.109375 38.703125 11.40625 
Q 43.21875 16.703125 43.21875 25.484375 
L 43.21875 27.484375 
z
M 52.203125 31.203125 
L 52.203125 0 
L 43.21875 0 
L 43.21875 8.296875 
Q 40.140625 3.328125 35.546875 0.953125 
Q 30.953125 -1.421875 24.3125 -1.421875 
Q 15.921875 -1.421875 10.953125 3.296875 
Q 6 8.015625 6 15.921875 
Q 6 25.140625 12.171875 29.828125 
Q 18.359375 34.515625 30.609375 34.515625 
L 43.21875 34.515625 
L 43.21875 35.40625 
Q 43.21875 41.609375 39.140625 45 
Q 35.0625 48.390625 27.6875 48.390625 
Q 23 48.390625 18.546875 47.265625 
Q 14.109375 46.140625 10.015625 43.890625 
L 10.015625 52.203125 
Q 14.9375 54.109375 19.578125 55.046875 
Q 24.21875 56 28.609375 56 
Q 40.484375 56 46.34375 49.84375 
Q 52.203125 43.703125 52.203125 31.203125 
z
" id="DejaVuSans-97"/>
      <path d="M 9.421875 54.6875 
L 18.40625 54.6875 
L 18.40625 0 
L 9.421875 0 
z
M 9.421875 75.984375 
L 18.40625 75.984375 
L 18.40625 64.59375 
L 9.421875 64.59375 
z
" id="DejaVuSans-105"/>
      <path d="M 30.609375 48.390625 
Q 23.390625 48.390625 19.1875 42.75 
Q 14.984375 37.109375 14.984375 27.296875 
Q 14.984375 17.484375 19.15625 11.84375 
Q 23.34375 6.203125 30.609375 6.203125 
Q 37.796875 6.203125 41.984375 11.859375 
Q 46.1875 17.53125 46.1875 27.296875 
Q 46.1875 37.015625 41.984375 42.703125 
Q 37.796875 48.390625 30.609375 48.390625 
z
M 30.609375 56 
Q 42.328125 56 49.015625 48.375 
Q 55.71875 40.765625 55.71875 27.296875 
Q 55.71875 13.875 49.015625 6.21875 
Q 42.328125 -1.421875 30.609375 -1.421875 
Q 18.84375 -1.421875 12.171875 6.21875 
Q 5.515625 13.875 5.515625 27.296875 
Q 5.515625 40.765625 12.171875 48.375 
Q 18.84375 56 30.609375 56 
z
" id="DejaVuSans-111"/>
      <path d="M 54.890625 33.015625 
L 54.890625 0 
L 45.90625 0 
L 45.90625 32.71875 
Q 45.90625 40.484375 42.875 44.328125 
Q 39.84375 48.1875 33.796875 48.1875 
Q 26.515625 48.1875 22.3125 43.546875 
Q 18.109375 38.921875 18.109375 30.90625 
L 18.109375 0 
L 9.078125 0 
L 9.078125 54.6875 
L 18.109375 54.6875 
L 18.109375 46.1875 
Q 21.34375 51.125 25.703125 53.5625 
Q 30.078125 56 35.796875 56 
Q 45.21875 56 50.046875 50.171875 
Q 54.890625 44.34375 54.890625 33.015625 
z
" id="DejaVuSans-110"/>
      <path id="DejaVuSans-32"/>
      <path d="M 31 75.875 
Q 24.46875 64.65625 21.28125 53.65625 
Q 18.109375 42.671875 18.109375 31.390625 
Q 18.109375 20.125 21.3125 9.0625 
Q 24.515625 -2 31 -13.1875 
L 23.1875 -13.1875 
Q 15.875 -1.703125 12.234375 9.375 
Q 8.59375 20.453125 8.59375 31.390625 
Q 8.59375 42.28125 12.203125 53.3125 
Q 15.828125 64.359375 23.1875 75.875 
z
" id="DejaVuSans-40"/>
      <path d="M 64.40625 67.28125 
L 64.40625 56.890625 
Q 59.421875 61.53125 53.78125 63.8125 
Q 48.140625 66.109375 41.796875 66.109375 
Q 29.296875 66.109375 22.65625 58.46875 
Q 16.015625 50.828125 16.015625 36.375 
Q 16.015625 21.96875 22.65625 14.328125 
Q 29.296875 6.6875 41.796875 6.6875 
Q 48.140625 6.6875 53.78125 8.984375 
Q 59.421875 11.28125 64.40625 15.921875 
L 64.40625 5.609375 
Q 59.234375 2.09375 53.4375 0.328125 
Q 47.65625 -1.421875 41.21875 -1.421875 
Q 24.65625 -1.421875 15.125 8.703125 
Q 5.609375 18.84375 5.609375 36.375 
Q 5.609375 53.953125 15.125 64.078125 
Q 24.65625 74.21875 41.21875 74.21875 
Q 47.75 74.21875 53.53125 72.484375 
Q 59.328125 70.75 64.40625 67.28125 
z
" id="DejaVuSans-67"/>
      <path d="M 32.171875 -5.078125 
Q 28.375 -14.84375 24.75 -17.8125 
Q 21.140625 -20.796875 15.09375 -20.796875 
L 7.90625 -20.796875 
L 7.90625 -13.28125 
L 13.1875 -13.28125 
Q 16.890625 -13.28125 18.9375 -11.515625 
Q 21 -9.765625 23.484375 -3.21875 
L 25.09375 0.875 
L 2.984375 54.6875 
L 12.5 54.6875 
L 29.59375 11.921875 
L 46.6875 54.6875 
L 56.203125 54.6875 
z
" id="DejaVuSans-121"/>
      <path d="M 48.78125 52.59375 
L 48.78125 44.1875 
Q 44.96875 46.296875 41.140625 47.34375 
Q 37.3125 48.390625 33.40625 48.390625 
Q 24.65625 48.390625 19.8125 42.84375 
Q 14.984375 37.3125 14.984375 27.296875 
Q 14.984375 17.28125 19.8125 11.734375 
Q 24.65625 6.203125 33.40625 6.203125 
Q 37.3125 6.203125 41.140625 7.25 
Q 44.96875 8.296875 48.78125 10.40625 
L 48.78125 2.09375 
Q 45.015625 0.34375 40.984375 -0.53125 
Q 36.96875 -1.421875 32.421875 -1.421875 
Q 20.0625 -1.421875 12.78125 6.34375 
Q 5.515625 14.109375 5.515625 27.296875 
Q 5.515625 40.671875 12.859375 48.328125 
Q 20.21875 56 33.015625 56 
Q 37.15625 56 41.109375 55.140625 
Q 45.0625 54.296875 48.78125 52.59375 
z
" id="DejaVuSans-99"/>
      <path d="M 9.421875 75.984375 
L 18.40625 75.984375 
L 18.40625 0 
L 9.421875 0 
z
" id="DejaVuSans-108"/>
      <path d="M 8.015625 75.875 
L 15.828125 75.875 
Q 23.140625 64.359375 26.78125 53.3125 
Q 30.421875 42.28125 30.421875 31.390625 
Q 30.421875 20.453125 26.78125 9.375 
Q 23.140625 -1.703125 15.828125 -13.1875 
L 8.015625 -13.1875 
Q 14.5 -2 17.703125 9.0625 
Q 20.90625 20.125 20.90625 31.390625 
Q 20.90625 42.671875 17.703125 53.65625 
Q 14.5 64.65625 8.015625 75.875 
z
" id="DejaVuSans-41"/>
     </defs>
     <g transform="translate(193.540469 316.706687)scale(0.1 -0.1)">
      <use xlink:href="#DejaVuSans-73"/>
      <use x="29.492188" xlink:href="#DejaVuSans-116"/>
      <use x="68.701172" xlink:href="#DejaVuSans-101"/>
      <use x="130.224609" xlink:href="#DejaVuSans-114"/>
      <use x="171.337891" xlink:href="#DejaVuSans-97"/>
      <use x="232.617188" xlink:href="#DejaVuSans-116"/>
      <use x="271.826172" xlink:href="#DejaVuSans-105"/>
      <use x="299.609375" xlink:href="#DejaVuSans-111"/>
      <use x="360.791016" xlink:href="#DejaVuSans-110"/>
      <use x="424.169922" xlink:href="#DejaVuSans-32"/>
      <use x="455.957031" xlink:href="#DejaVuSans-40"/>
      <use x="494.970703" xlink:href="#DejaVuSans-67"/>
      <use x="564.794922" xlink:href="#DejaVuSans-121"/>
      <use x="623.974609" xlink:href="#DejaVuSans-99"/>
      <use x="678.955078" xlink:href="#DejaVuSans-108"/>
      <use x="706.738281" xlink:href="#DejaVuSans-101"/>
      <use x="768.261719" xlink:href="#DejaVuSans-41"/>
     </g>
    </g>
   </g>
   <g id="matplotlib.axis_2">
    <g id="ytick_1">
     <g id="line2d_9">
      <defs>
       <path d="M 0 0 
L -3.5 0 
" id="m051c4290be" style="stroke:#000000;stroke-width:0.8;"/>
      </defs>
      <g>
       <use style="stroke:#000000;stroke-width:0.8;" x="55.345313" xlink:href="#m051c4290be" y="252.086752"/>
      </g>
     </g>
     <g id="text_10">
      <!-- −100 -->
      <defs>
       <path d="M 10.59375 35.5 
L 73.1875 35.5 
L 73.1875 27.203125 
L 10.59375 27.203125 
z
" id="DejaVuSans-8722"/>
      </defs>
      <g transform="translate(20.878125 255.885971)scale(0.1 -0.1)">
       <use xlink:href="#DejaVuSans-8722"/>
       <use x="83.789062" xlink:href="#DejaVuSans-49"/>
       <use x="147.412109" xlink:href="#DejaVuSans-48"/>
       <use x="211.035156" xlink:href="#DejaVuSans-48"/>
      </g>
     </g>
    </g>
    <g id="ytick_2">
     <g id="line2d_10">
      <g>
       <use style="stroke:#000000;stroke-width:0.8;" x="55.345313" xlink:href="#m051c4290be" y="197.668595"/>
      </g>
     </g>
     <g id="text_11">
      <!-- 0 -->
      <g transform="translate(41.982813 201.467814)scale(0.1 -0.1)">
       <use xlink:href="#DejaVuSans-48"/>
      </g>
     </g>
    </g>
    <g id="ytick_3">
     <g id="line2d_11">
      <g>
       <use style="stroke:#000000;stroke-width:0.8;" x="55.345313" xlink:href="#m051c4290be" y="143.250439"/>
      </g>
     </g>
     <g id="text_12">
      <!-- 100 -->
      <g transform="translate(29.257813 147.049657)scale(0.1 -0.1)">
       <use xlink:href="#DejaVuSans-49"/>
       <use x="63.623047" xlink:href="#DejaVuSans-48"/>
       <use x="127.246094" xlink:href="#DejaVuSans-48"/>
      </g>
     </g>
    </g>
    <g id="ytick_4">
     <g id="line2d_12">
      <g>
       <use style="stroke:#000000;stroke-width:0.8;" x="55.345313" xlink:href="#m051c4290be" y="88.832282"/>
      </g>
     </g>
     <g id="text_13">
      <!-- 200 -->
      <g transform="translate(29.257813 92.631501)scale(0.1 -0.1)">
       <use xlink:href="#DejaVuSans-50"/>
       <use x="63.623047" xlink:href="#DejaVuSans-48"/>
       <use x="127.246094" xlink:href="#DejaVuSans-48"/>
      </g>
     </g>
    </g>
    <g id="ytick_5">
     <g id="line2d_13">
      <g>
       <use style="stroke:#000000;stroke-width:0.8;" x="55.345313" xlink:href="#m051c4290be" y="34.414125"/>
      </g>
     </g>
     <g id="text_14">
      <!-- 300 -->
      <g transform="translate(29.257813 38.213344)scale(0.1 -0.1)">
       <use xlink:href="#DejaVuSans-51"/>
       <use x="63.623047" xlink:href="#DejaVuSans-48"/>
       <use x="127.246094" xlink:href="#DejaVuSans-48"/>
      </g>
     </g>
    </g>
    <g id="text_15">
     <!-- Mean Episode Reward -->
     <defs>
      <path d="M 9.8125 72.90625 
L 24.515625 72.90625 
L 43.109375 23.296875 
L 61.8125 72.90625 
L 76.515625 72.90625 
L 76.515625 0 
L 66.890625 0 
L 66.890625 64.015625 
L 48.09375 14.015625 
L 38.1875 14.015625 
L 19.390625 64.015625 
L 19.390625 0 
L 9.8125 0 
z
" id="DejaVuSans-77"/>
      <path d="M 9.8125 72.90625 
L 55.90625 72.90625 
L 55.90625 64.59375 
L 19.671875 64.59375 
L 19.671875 43.015625 
L 54.390625 43.015625 
L 54.390625 34.71875 
L 19.671875 34.71875 
L 19.671875 8.296875 
L 56.78125 8.296875 
L 56.78125 0 
L 9.8125 0 
z
" id="DejaVuSans-69"/>
      <path d="M 18.109375 8.203125 
L 18.109375 -20.796875 
L 9.078125 -20.796875 
L 9.078125 54.6875 
L 18.109375 54.6875 
L 18.109375 46.390625 
Q 20.953125 51.265625 25.265625 53.625 
Q 29.59375 56 35.59375 56 
Q 45.5625 56 51.78125 48.09375 
Q 58.015625 40.1875 58.015625 27.296875 
Q 58.015625 14.40625 51.78125 6.484375 
Q 45.5625 -1.421875 35.59375 -1.421875 
Q 29.59375 -1.421875 25.265625 0.953125 
Q 20.953125 3.328125 18.109375 8.203125 
z
M 48.6875 27.296875 
Q 48.6875 37.203125 44.609375 42.84375 
Q 40.53125 48.484375 33.40625 48.484375 
Q 26.265625 48.484375 22.1875 42.84375 
Q 18.109375 37.203125 18.109375 27.296875 
Q 18.109375 17.390625 22.1875 11.75 
Q 26.265625 6.109375 33.40625 6.109375 
Q 40.53125 6.109375 44.609375 11.75 
Q 48.6875 17.390625 48.6875 27.296875 
z
" id="DejaVuSans-112"/>
      <path d="M 44.28125 53.078125 
L 44.28125 44.578125 
Q 40.484375 46.53125 36.375 47.5 
Q 32.28125 48.484375 27.875 48.484375 
Q 21.1875 48.484375 17.84375 46.4375 
Q 14.5 44.390625 14.5 40.28125 
Q 14.5 37.15625 16.890625 35.375 
Q 19.28125 33.59375 26.515625 31.984375 
L 29.59375 31.296875 
Q 39.15625 29.25 43.1875 25.515625 
Q 47.21875 21.78125 47.21875 15.09375 
Q 47.21875 7.46875 41.1875 3.015625 
Q 35.15625 -1.421875 24.609375 -1.421875 
Q 20.21875 -1.421875 15.453125 -0.5625 
Q 10.6875 0.296875 5.421875 2 
L 5.421875 11.28125 
Q 10.40625 8.6875 15.234375 7.390625 
Q 20.0625 6.109375 24.8125 6.109375 
Q 31.15625 6.109375 34.5625 8.28125 
Q 37.984375 10.453125 37.984375 14.40625 
Q 37.984375 18.0625 35.515625 20.015625 
Q 33.0625 21.96875 24.703125 23.78125 
L 21.578125 24.515625 
Q 13.234375 26.265625 9.515625 29.90625 
Q 5.8125 33.546875 5.8125 39.890625 
Q 5.8125 47.609375 11.28125 51.796875 
Q 16.75 56 26.8125 56 
Q 31.78125 56 36.171875 55.265625 
Q 40.578125 54.546875 44.28125 53.078125 
z
" id="DejaVuSans-115"/>
      <path d="M 45.40625 46.390625 
L 45.40625 75.984375 
L 54.390625 75.984375 
L 54.390625 0 
L 45.40625 0 
L 45.40625 8.203125 
Q 42.578125 3.328125 38.25 0.953125 
Q 33.9375 -1.421875 27.875 -1.421875 
Q 17.96875 -1.421875 11.734375 6.484375 
Q 5.515625 14.40625 5.515625 27.296875 
Q 5.515625 40.1875 11.734375 48.09375 
Q 17.96875 56 27.875 56 
Q 33.9375 56 38.25 53.625 
Q 42.578125 51.265625 45.40625 46.390625 
z
M 14.796875 27.296875 
Q 14.796875 17.390625 18.875 11.75 
Q 22.953125 6.109375 30.078125 6.109375 
Q 37.203125 6.109375 41.296875 11.75 
Q 45.40625 17.390625 45.40625 27.296875 
Q 45.40625 37.203125 41.296875 42.84375 
Q 37.203125 48.484375 30.078125 48.484375 
Q 22.953125 48.484375 18.875 42.84375 
Q 14.796875 37.203125 14.796875 27.296875 
z
" id="DejaVuSans-100"/>
      <path d="M 44.390625 34.1875 
Q 47.5625 33.109375 50.5625 29.59375 
Q 53.5625 26.078125 56.59375 19.921875 
L 66.609375 0 
L 56 0 
L 46.6875 18.703125 
Q 43.0625 26.03125 39.671875 28.421875 
Q 36.28125 30.8125 30.421875 30.8125 
L 19.671875 30.8125 
L 19.671875 0 
L 9.8125 0 
L 9.8125 72.90625 
L 32.078125 72.90625 
Q 44.578125 72.90625 50.734375 67.671875 
Q 56.890625 62.453125 56.890625 51.90625 
Q 56.890625 45.015625 53.6875 40.46875 
Q 50.484375 35.9375 44.390625 34.1875 
z
M 19.671875 64.796875 
L 19.671875 38.921875 
L 32.078125 38.921875 
Q 39.203125 38.921875 42.84375 42.21875 
Q 46.484375 45.515625 46.484375 51.90625 
Q 46.484375 58.296875 42.84375 61.546875 
Q 39.203125 64.796875 32.078125 64.796875 
z
" id="DejaVuSans-82"/>
      <path d="M 4.203125 54.6875 
L 13.1875 54.6875 
L 24.421875 12.015625 
L 35.59375 54.6875 
L 46.1875 54.6875 
L 57.421875 12.015625 
L 68.609375 54.6875 
L 77.59375 54.6875 
L 63.28125 0 
L 52.6875 0 
L 40.921875 44.828125 
L 29.109375 0 
L 18.5 0 
z
" id="DejaVuSans-119"/>
     </defs>
     <g transform="translate(14.798438 210.742875)rotate(-90)scale(0.1 -0.1)">
      <use xlink:href="#DejaVuSans-77"/>
      <use x="86.279297" xlink:href="#DejaVuSans-101"/>
      <use x="147.802734" xlink:href="#DejaVuSans-97"/>
      <use x="209.082031" xlink:href="#DejaVuSans-110"/>
      <use x="272.460938" xlink:href="#DejaVuSans-32"/>
      <use x="304.248047" xlink:href="#DejaVuSans-69"/>
      <use x="367.431641" xlink:href="#DejaVuSans-112"/>
      <use x="430.908203" xlink:href="#DejaVuSans-105"/>
      <use x="458.691406" xlink:href="#DejaVuSans-115"/>
      <use x="510.791016" xlink:href="#DejaVuSans-111"/>
      <use x="571.972656" xlink:href="#DejaVuSans-100"/>
      <use x="635.449219" xlink:href="#DejaVuSans-101"/>
      <use x="696.972656" xlink:href="#DejaVuSans-32"/>
      <use x="728.759766" xlink:href="#DejaVuSans-82"/>
      <use x="798.179688" xlink:href="#DejaVuSans-101"/>
      <use x="859.703125" xlink:href="#DejaVuSans-119"/>
      <use x="941.490234" xlink:href="#DejaVuSans-97"/>
      <use x="1002.769531" xlink:href="#DejaVuSans-114"/>
      <use x="1043.867188" xlink:href="#DejaVuSans-100"/>
     </g>
    </g>
   </g>
   <g id="line2d_14">
    <path clip-path="url(#p9b9e7e732f)" d="M 71.57804 257.68342 
L 72.48237 257.891344 
L 73.3867 258.449975 
L 74.29103 259.284134 
L 76.099691 261.478313 
L 77.908351 263.773752 
L 78.812681 264.642102 
L 79.717012 265.154662 
L 80.621342 266.499738 
L 81.525672 269.913677 
L 82.430002 270.962624 
L 83.334333 269.251133 
L 84.238663 265.962305 
L 86.047323 257.239002 
L 87.855984 247.947325 
L 88.760314 244.709225 
L 89.664644 243.413948 
L 90.568974 246.467867 
L 91.473304 246.62492 
L 92.377635 246.647684 
L 93.281965 245.611845 
L 94.186295 245.086134 
L 95.090625 245.858593 
L 95.994955 247.336445 
L 96.899286 247.015718 
L 97.803616 245.582385 
L 98.707946 245.595042 
L 99.612276 248.753625 
L 100.516606 250.78498 
L 101.420937 251.507746 
L 102.325267 250.109691 
L 103.229597 250.342645 
L 105.038258 251.109192 
L 105.942588 249.56946 
L 106.846918 247.154167 
L 107.751248 247.686491 
L 108.655578 248.918684 
L 109.559909 250.785002 
L 111.368569 253.832564 
L 112.272899 253.67637 
L 113.177229 253.984814 
L 114.08156 254.416473 
L 114.98589 251.906305 
L 117.69888 237.819957 
L 118.603211 236.299152 
L 119.507541 234.377644 
L 121.316201 231.1797 
L 122.220532 230.586645 
L 123.124862 230.926363 
L 124.029192 227.647348 
L 124.933522 225.91446 
L 125.837852 221.949173 
L 126.742183 219.19923 
L 127.646513 218.512638 
L 128.550843 216.961201 
L 129.455173 218.168042 
L 130.359503 218.838465 
L 131.263834 216.993482 
L 132.168164 215.827508 
L 133.072494 211.474817 
L 133.976824 208.450225 
L 135.785485 198.630995 
L 136.689815 194.901497 
L 137.594145 192.431742 
L 138.498475 191.673269 
L 140.307136 188.338018 
L 141.211466 186.956254 
L 142.115796 185.341721 
L 143.020126 184.564546 
L 143.924457 184.012296 
L 144.828787 182.957632 
L 145.733117 179.996846 
L 146.637447 178.804251 
L 147.541777 180.43721 
L 149.350438 182.261077 
L 150.254768 180.45726 
L 151.159098 181.488879 
L 152.063428 179.914527 
L 152.967759 180.583398 
L 153.872089 176.46924 
L 154.776419 175.442911 
L 155.680749 175.858789 
L 156.58508 176.454441 
L 157.48941 174.530385 
L 158.39374 167.958826 
L 159.29807 168.405635 
L 160.2024 170.591632 
L 161.106731 168.007855 
L 162.011061 168.996063 
L 162.915391 169.292375 
L 163.819721 171.291903 
L 164.724051 171.194365 
L 165.628382 172.112642 
L 166.532712 170.062885 
L 167.437042 163.995037 
L 168.341372 167.504063 
L 169.245702 163.864649 
L 170.150033 161.248428 
L 171.054363 159.803156 
L 171.958693 159.181891 
L 172.863023 155.06731 
L 173.767354 153.873881 
L 175.576014 148.64484 
L 176.480344 149.000115 
L 177.384674 151.042522 
L 178.289005 150.298768 
L 179.193335 151.149375 
L 180.097665 147.813514 
L 181.001995 148.806815 
L 181.906325 147.97405 
L 182.810656 145.244729 
L 183.714986 140.741781 
L 184.619316 139.828689 
L 185.523646 141.071216 
L 186.427976 139.878429 
L 187.332307 135.360862 
L 188.236637 135.076915 
L 189.140967 133.33629 
L 190.045297 135.917936 
L 190.949628 135.989133 
L 191.853958 135.251115 
L 192.758288 134.68285 
L 193.662618 133.355588 
L 194.566948 128.023254 
L 195.471279 130.245548 
L 196.375609 131.135217 
L 197.279939 136.254048 
L 198.184269 138.244533 
L 199.088599 136.94525 
L 199.99293 139.221704 
L 200.89726 137.179593 
L 201.80159 138.986851 
L 202.70592 138.250458 
L 203.61025 135.214882 
L 204.514581 139.558134 
L 205.418911 138.78567 
L 206.323241 136.41442 
L 207.227571 133.52805 
L 208.131902 128.202727 
L 209.036232 127.854735 
L 209.940562 124.007654 
L 210.844892 125.576589 
L 211.749222 125.29662 
L 212.653553 124.875087 
L 213.557883 125.08635 
L 215.366543 124.121538 
L 216.270873 123.719725 
L 217.175204 122.763329 
L 218.079534 122.798779 
L 218.983864 121.643528 
L 219.888194 121.159972 
L 220.792524 120.406846 
L 221.696855 120.302947 
L 222.601185 120.636172 
L 223.505515 120.189449 
L 224.409845 120.235003 
L 226.218506 119.148424 
L 227.122836 118.168047 
L 228.931496 117.168869 
L 229.835827 115.745981 
L 231.644487 115.067588 
L 233.453147 114.137134 
L 234.357478 113.135694 
L 235.261808 111.866466 
L 236.166138 111.187426 
L 237.070468 111.885516 
L 238.879129 111.323106 
L 239.783459 111.358602 
L 240.687789 111.055832 
L 241.592119 110.984082 
L 242.496449 110.093793 
L 243.40078 109.534968 
L 244.30511 108.347471 
L 246.11377 108.900873 
L 247.018101 108.489597 
L 247.922431 108.39949 
L 248.826761 107.993313 
L 250.635421 107.704477 
L 251.539752 107.031678 
L 252.444082 106.881773 
L 253.348412 105.614936 
L 254.252742 105.053319 
L 255.157072 104.702139 
L 256.061403 104.754715 
L 256.965733 104.3823 
L 257.870063 104.644672 
L 258.774393 105.572557 
L 259.678723 105.816023 
L 261.487384 105.871457 
L 262.391714 105.509635 
L 263.296044 105.546119 
L 265.104705 106.597166 
L 266.009035 106.16471 
L 267.817695 106.940016 
L 268.722026 107.127981 
L 269.626356 107.515586 
L 270.530686 108.285573 
L 272.339346 108.794893 
L 273.243677 108.911848 
L 274.148007 108.391982 
L 275.052337 107.585408 
L 275.956667 107.129645 
L 276.860997 106.468803 
L 277.765328 106.516767 
L 278.669658 106.402603 
L 279.573988 106.884917 
L 280.478318 106.252098 
L 281.382649 106.217837 
L 282.286979 106.420143 
L 283.191309 106.346956 
L 284.095639 106.050962 
L 285.9043 106.427075 
L 286.80863 107.003467 
L 287.71296 106.757428 
L 288.61729 107.036526 
L 289.52162 106.72735 
L 290.425951 106.704442 
L 291.330281 107.16697 
L 293.138941 106.335103 
L 294.043271 105.810191 
L 294.947602 105.003657 
L 295.851932 104.741331 
L 296.756262 99.751159 
L 297.660592 104.934024 
L 298.564923 109.208339 
L 299.469253 112.041928 
L 300.373583 113.853681 
L 301.277913 113.941384 
L 302.182243 113.346387 
L 303.086574 111.174997 
L 304.895234 104.291824 
L 305.799564 98.945487 
L 306.703894 103.873959 
L 307.608225 102.270047 
L 309.416885 107.882804 
L 310.321215 110.081264 
L 311.225545 111.393835 
L 312.129876 111.703755 
L 313.034206 111.54226 
L 313.938536 110.807659 
L 314.842866 108.709497 
L 315.747197 106.152536 
L 316.651527 102.60696 
L 317.555857 103.970443 
L 318.460187 103.513226 
L 319.364517 103.260223 
L 320.268848 102.369746 
L 321.173178 102.255262 
L 322.077508 102.76307 
L 322.981838 102.870235 
L 323.886168 102.273559 
L 324.790499 101.852314 
L 325.694829 101.719151 
L 326.599159 101.11761 
L 327.503489 100.684838 
L 329.31215 100.42137 
L 330.21648 100.949553 
L 331.12081 101.656237 
L 332.929471 101.770103 
L 333.833801 102.265408 
L 334.738131 102.581085 
L 335.642461 102.533258 
L 336.546791 102.046593 
L 337.451122 102.125576 
L 338.355452 99.599892 
L 339.259782 101.835085 
L 340.164112 103.649101 
L 341.972773 106.601862 
L 342.877103 107.025511 
L 343.781433 107.072554 
L 344.685763 105.90688 
L 345.590093 104.211241 
L 346.494424 102.252272 
L 347.398754 99.105426 
L 348.303084 101.11683 
L 349.207414 100.731713 
L 351.016075 100.951983 
L 351.920405 100.396224 
L 352.824735 99.653197 
L 353.729065 97.923102 
L 354.633396 98.415192 
L 355.537726 98.165122 
L 356.442056 98.265307 
L 358.250716 97.375967 
L 359.155047 97.23829 
L 360.059377 96.829857 
L 360.963707 96.051934 
L 361.868037 94.806445 
L 362.772367 94.231903 
L 363.676698 94.857954 
L 364.581028 94.422692 
L 366.389688 94.585135 
L 367.294019 94.847012 
L 368.198349 95.263898 
L 370.007009 94.977891 
L 370.911339 95.181985 
L 371.81567 95.702763 
L 372.72 96.015171 
L 373.62433 95.994378 
L 374.52866 96.127818 
L 375.43299 96.438755 
L 376.337321 95.997867 
L 377.241651 95.123057 
L 378.145981 96.415615 
L 379.050311 97.337952 
L 380.858972 98.442962 
L 381.763302 98.145561 
L 382.667632 97.337267 
L 384.476292 96.55423 
L 385.380623 95.74035 
L 386.284953 95.290893 
L 387.189283 97.256762 
L 388.093613 96.928115 
L 389.902274 95.925556 
L 390.806604 94.935994 
L 391.710934 94.227452 
L 392.615264 94.052932 
L 393.519595 93.687554 
L 394.423925 92.91445 
L 395.328255 91.51675 
L 396.232585 89.277585 
L 396.232585 89.277585 
" style="fill:none;stroke:#ff0000;stroke-linecap:square;stroke-width:1.5;"/>
   </g>
   <g id="line2d_15">
    <path clip-path="url(#p9b9e7e732f)" d="M 55.345313 34.414125 
L 412.465312 34.414125 
" style="fill:none;stroke:#008000;stroke-dasharray:3.7,1.6;stroke-dashoffset:0;"/>
   </g>
   <g id="patch_3">
    <path d="M 55.345313 288.430125 
L 55.345313 22.318125 
" style="fill:none;stroke:#000000;stroke-linecap:square;stroke-linejoin:miter;stroke-width:0.8;"/>
   </g>
   <g id="patch_4">
    <path d="M 412.465312 288.430125 
L 412.465312 22.318125 
" style="fill:none;stroke:#000000;stroke-linecap:square;stroke-linejoin:miter;stroke-width:0.8;"/>
   </g>
   <g id="patch_5">
    <path d="M 55.345313 288.430125 
L 412.465313 288.430125 
" style="fill:none;stroke:#000000;stroke-linecap:square;stroke-linejoin:miter;stroke-width:0.8;"/>
   </g>
   <g id="patch_6">
    <path d="M 55.345313 22.318125 
L 412.465313 22.318125 
" style="fill:none;stroke:#000000;stroke-linecap:square;stroke-linejoin:miter;stroke-width:0.8;"/>
   </g>
   <g id="text_16">
    <!-- Mean Rewards and Episode Lengths. -->
    <defs>
     <path d="M 9.1875 72.90625 
L 33.109375 72.90625 
L 49.703125 33.890625 
L 66.40625 72.90625 
L 90.28125 72.90625 
L 90.28125 0 
L 72.515625 0 
L 72.515625 53.328125 
L 55.71875 14.015625 
L 43.796875 14.015625 
L 27 53.328125 
L 27 0 
L 9.1875 0 
z
" id="DejaVuSans-Bold-77"/>
     <path d="M 62.984375 27.484375 
L 62.984375 22.515625 
L 22.125 22.515625 
Q 22.75 16.359375 26.5625 13.28125 
Q 30.375 10.203125 37.203125 10.203125 
Q 42.71875 10.203125 48.5 11.84375 
Q 54.296875 13.484375 60.40625 16.796875 
L 60.40625 3.328125 
Q 54.203125 0.984375 48 -0.21875 
Q 41.796875 -1.421875 35.59375 -1.421875 
Q 20.75 -1.421875 12.515625 6.125 
Q 4.296875 13.671875 4.296875 27.296875 
Q 4.296875 40.671875 12.375 48.328125 
Q 20.453125 56 34.625 56 
Q 47.515625 56 55.25 48.234375 
Q 62.984375 40.484375 62.984375 27.484375 
z
M 45.015625 33.296875 
Q 45.015625 38.28125 42.109375 41.328125 
Q 39.203125 44.390625 34.515625 44.390625 
Q 29.4375 44.390625 26.265625 41.53125 
Q 23.09375 38.671875 22.3125 33.296875 
z
" id="DejaVuSans-Bold-101"/>
     <path d="M 32.90625 24.609375 
Q 27.4375 24.609375 24.671875 22.75 
Q 21.921875 20.90625 21.921875 17.28125 
Q 21.921875 13.96875 24.140625 12.078125 
Q 26.375 10.203125 30.328125 10.203125 
Q 35.25 10.203125 38.625 13.734375 
Q 42 17.28125 42 22.609375 
L 42 24.609375 
z
M 59.625 31.203125 
L 59.625 0 
L 42 0 
L 42 8.109375 
Q 38.484375 3.125 34.078125 0.84375 
Q 29.6875 -1.421875 23.390625 -1.421875 
Q 14.890625 -1.421875 9.59375 3.53125 
Q 4.296875 8.5 4.296875 16.40625 
Q 4.296875 26.03125 10.90625 30.515625 
Q 17.53125 35.015625 31.6875 35.015625 
L 42 35.015625 
L 42 36.375 
Q 42 40.53125 38.71875 42.453125 
Q 35.453125 44.390625 28.515625 44.390625 
Q 22.90625 44.390625 18.0625 43.265625 
Q 13.234375 42.140625 9.078125 39.890625 
L 9.078125 53.21875 
Q 14.703125 54.59375 20.359375 55.296875 
Q 26.03125 56 31.6875 56 
Q 46.484375 56 53.046875 50.171875 
Q 59.625 44.34375 59.625 31.203125 
z
" id="DejaVuSans-Bold-97"/>
     <path d="M 63.375 33.296875 
L 63.375 0 
L 45.796875 0 
L 45.796875 5.421875 
L 45.796875 25.484375 
Q 45.796875 32.5625 45.484375 35.25 
Q 45.171875 37.9375 44.390625 39.203125 
Q 43.359375 40.921875 41.59375 41.875 
Q 39.84375 42.828125 37.59375 42.828125 
Q 32.125 42.828125 29 38.59375 
Q 25.875 34.375 25.875 26.90625 
L 25.875 0 
L 8.40625 0 
L 8.40625 54.6875 
L 25.875 54.6875 
L 25.875 46.6875 
Q 29.828125 51.46875 34.265625 53.734375 
Q 38.71875 56 44.09375 56 
Q 53.5625 56 58.46875 50.1875 
Q 63.375 44.390625 63.375 33.296875 
z
" id="DejaVuSans-Bold-110"/>
     <path id="DejaVuSans-Bold-32"/>
     <path d="M 35.890625 40.578125 
Q 41.796875 40.578125 44.359375 42.765625 
Q 46.921875 44.96875 46.921875 50 
Q 46.921875 54.984375 44.359375 57.125 
Q 41.796875 59.28125 35.890625 59.28125 
L 27.984375 59.28125 
L 27.984375 40.578125 
z
M 27.984375 27.59375 
L 27.984375 0 
L 9.1875 0 
L 9.1875 72.90625 
L 37.890625 72.90625 
Q 52.296875 72.90625 59 68.0625 
Q 65.71875 63.234375 65.71875 52.78125 
Q 65.71875 45.5625 62.21875 40.921875 
Q 58.734375 36.28125 51.703125 34.078125 
Q 55.5625 33.203125 58.609375 30.09375 
Q 61.671875 27 64.796875 20.703125 
L 75 0 
L 54.984375 0 
L 46.09375 18.109375 
Q 43.40625 23.578125 40.640625 25.578125 
Q 37.890625 27.59375 33.296875 27.59375 
z
" id="DejaVuSans-Bold-82"/>
     <path d="M 3.515625 54.6875 
L 20.515625 54.6875 
L 29.6875 17 
L 38.921875 54.6875 
L 53.515625 54.6875 
L 62.703125 17.390625 
L 71.921875 54.6875 
L 88.921875 54.6875 
L 74.515625 0 
L 55.421875 0 
L 46.1875 37.59375 
L 37.015625 0 
L 17.921875 0 
z
" id="DejaVuSans-Bold-119"/>
     <path d="M 49.03125 39.796875 
Q 46.734375 40.875 44.453125 41.375 
Q 42.1875 41.890625 39.890625 41.890625 
Q 33.15625 41.890625 29.515625 37.5625 
Q 25.875 33.25 25.875 25.203125 
L 25.875 0 
L 8.40625 0 
L 8.40625 54.6875 
L 25.875 54.6875 
L 25.875 45.703125 
Q 29.25 51.078125 33.609375 53.53125 
Q 37.984375 56 44.09375 56 
Q 44.96875 56 45.984375 55.921875 
Q 47.015625 55.859375 48.96875 55.609375 
z
" id="DejaVuSans-Bold-114"/>
     <path d="M 45.609375 46.6875 
L 45.609375 75.984375 
L 63.1875 75.984375 
L 63.1875 0 
L 45.609375 0 
L 45.609375 7.90625 
Q 42 3.078125 37.640625 0.828125 
Q 33.296875 -1.421875 27.59375 -1.421875 
Q 17.484375 -1.421875 10.984375 6.609375 
Q 4.5 14.65625 4.5 27.296875 
Q 4.5 39.9375 10.984375 47.96875 
Q 17.484375 56 27.59375 56 
Q 33.25 56 37.625 53.734375 
Q 42 51.46875 45.609375 46.6875 
z
M 34.078125 11.28125 
Q 39.703125 11.28125 42.65625 15.375 
Q 45.609375 19.484375 45.609375 27.296875 
Q 45.609375 35.109375 42.65625 39.203125 
Q 39.703125 43.3125 34.078125 43.3125 
Q 28.515625 43.3125 25.5625 39.203125 
Q 22.609375 35.109375 22.609375 27.296875 
Q 22.609375 19.484375 25.5625 15.375 
Q 28.515625 11.28125 34.078125 11.28125 
z
" id="DejaVuSans-Bold-100"/>
     <path d="M 51.125 52.984375 
L 51.125 39.703125 
Q 45.515625 42.046875 40.28125 43.21875 
Q 35.0625 44.390625 30.421875 44.390625 
Q 25.4375 44.390625 23.015625 43.140625 
Q 20.609375 41.890625 20.609375 39.3125 
Q 20.609375 37.203125 22.4375 36.078125 
Q 24.265625 34.96875 29 34.421875 
L 32.078125 33.984375 
Q 45.515625 32.28125 50.140625 28.375 
Q 54.78125 24.46875 54.78125 16.109375 
Q 54.78125 7.375 48.328125 2.96875 
Q 41.890625 -1.421875 29.109375 -1.421875 
Q 23.6875 -1.421875 17.890625 -0.5625 
Q 12.109375 0.296875 6 2 
L 6 15.28125 
Q 11.234375 12.75 16.71875 11.46875 
Q 22.21875 10.203125 27.875 10.203125 
Q 33.015625 10.203125 35.59375 11.609375 
Q 38.1875 13.03125 38.1875 15.828125 
Q 38.1875 18.171875 36.40625 19.3125 
Q 34.625 20.453125 29.296875 21.09375 
L 26.21875 21.484375 
Q 14.546875 22.953125 9.859375 26.90625 
Q 5.171875 30.859375 5.171875 38.921875 
Q 5.171875 47.609375 11.125 51.796875 
Q 17.09375 56 29.390625 56 
Q 34.234375 56 39.546875 55.265625 
Q 44.875 54.546875 51.125 52.984375 
z
" id="DejaVuSans-Bold-115"/>
     <path d="M 9.1875 72.90625 
L 59.90625 72.90625 
L 59.90625 58.6875 
L 27.984375 58.6875 
L 27.984375 45.125 
L 58.015625 45.125 
L 58.015625 30.90625 
L 27.984375 30.90625 
L 27.984375 14.203125 
L 60.984375 14.203125 
L 60.984375 0 
L 9.1875 0 
z
" id="DejaVuSans-Bold-69"/>
     <path d="M 25.875 7.90625 
L 25.875 -20.796875 
L 8.40625 -20.796875 
L 8.40625 54.6875 
L 25.875 54.6875 
L 25.875 46.6875 
Q 29.5 51.46875 33.890625 53.734375 
Q 38.28125 56 44 56 
Q 54.109375 56 60.59375 47.96875 
Q 67.09375 39.9375 67.09375 27.296875 
Q 67.09375 14.65625 60.59375 6.609375 
Q 54.109375 -1.421875 44 -1.421875 
Q 38.28125 -1.421875 33.890625 0.84375 
Q 29.5 3.125 25.875 7.90625 
z
M 37.5 43.3125 
Q 31.890625 43.3125 28.875 39.1875 
Q 25.875 35.0625 25.875 27.296875 
Q 25.875 19.53125 28.875 15.40625 
Q 31.890625 11.28125 37.5 11.28125 
Q 43.109375 11.28125 46.0625 15.375 
Q 49.03125 19.484375 49.03125 27.296875 
Q 49.03125 35.109375 46.0625 39.203125 
Q 43.109375 43.3125 37.5 43.3125 
z
" id="DejaVuSans-Bold-112"/>
     <path d="M 8.40625 54.6875 
L 25.875 54.6875 
L 25.875 0 
L 8.40625 0 
z
M 8.40625 75.984375 
L 25.875 75.984375 
L 25.875 61.71875 
L 8.40625 61.71875 
z
" id="DejaVuSans-Bold-105"/>
     <path d="M 34.421875 43.5 
Q 28.609375 43.5 25.5625 39.328125 
Q 22.515625 35.15625 22.515625 27.296875 
Q 22.515625 19.4375 25.5625 15.25 
Q 28.609375 11.078125 34.421875 11.078125 
Q 40.140625 11.078125 43.15625 15.25 
Q 46.1875 19.4375 46.1875 27.296875 
Q 46.1875 35.15625 43.15625 39.328125 
Q 40.140625 43.5 34.421875 43.5 
z
M 34.421875 56 
Q 48.53125 56 56.46875 48.375 
Q 64.40625 40.765625 64.40625 27.296875 
Q 64.40625 13.8125 56.46875 6.1875 
Q 48.53125 -1.421875 34.421875 -1.421875 
Q 20.265625 -1.421875 12.28125 6.1875 
Q 4.296875 13.8125 4.296875 27.296875 
Q 4.296875 40.765625 12.28125 48.375 
Q 20.265625 56 34.421875 56 
z
" id="DejaVuSans-Bold-111"/>
     <path d="M 9.1875 72.90625 
L 27.984375 72.90625 
L 27.984375 14.203125 
L 60.984375 14.203125 
L 60.984375 0 
L 9.1875 0 
z
" id="DejaVuSans-Bold-76"/>
     <path d="M 45.609375 9.28125 
Q 42 4.5 37.640625 2.25 
Q 33.296875 0 27.59375 0 
Q 17.578125 0 11.03125 7.875 
Q 4.5 15.765625 4.5 27.984375 
Q 4.5 40.234375 11.03125 48.0625 
Q 17.578125 55.90625 27.59375 55.90625 
Q 33.296875 55.90625 37.640625 53.65625 
Q 42 51.421875 45.609375 46.578125 
L 45.609375 54.6875 
L 63.1875 54.6875 
L 63.1875 5.515625 
Q 63.1875 -7.671875 54.859375 -14.625 
Q 46.53125 -21.578125 30.71875 -21.578125 
Q 25.59375 -21.578125 20.796875 -20.796875 
Q 16.015625 -20.015625 11.1875 -18.40625 
L 11.1875 -4.78125 
Q 15.765625 -7.421875 20.15625 -8.71875 
Q 24.5625 -10.015625 29 -10.015625 
Q 37.59375 -10.015625 41.59375 -6.25 
Q 45.609375 -2.484375 45.609375 5.515625 
z
M 34.078125 43.3125 
Q 28.65625 43.3125 25.625 39.296875 
Q 22.609375 35.296875 22.609375 27.984375 
Q 22.609375 20.453125 25.53125 16.578125 
Q 28.46875 12.703125 34.078125 12.703125 
Q 39.546875 12.703125 42.578125 16.703125 
Q 45.609375 20.703125 45.609375 27.984375 
Q 45.609375 35.296875 42.578125 39.296875 
Q 39.546875 43.3125 34.078125 43.3125 
z
" id="DejaVuSans-Bold-103"/>
     <path d="M 27.484375 70.21875 
L 27.484375 54.6875 
L 45.515625 54.6875 
L 45.515625 42.1875 
L 27.484375 42.1875 
L 27.484375 19 
Q 27.484375 15.1875 29 13.84375 
Q 30.515625 12.5 35.015625 12.5 
L 44 12.5 
L 44 0 
L 29 0 
Q 18.65625 0 14.328125 4.3125 
Q 10.015625 8.640625 10.015625 19 
L 10.015625 42.1875 
L 1.3125 42.1875 
L 1.3125 54.6875 
L 10.015625 54.6875 
L 10.015625 70.21875 
z
" id="DejaVuSans-Bold-116"/>
     <path d="M 63.375 33.296875 
L 63.375 0 
L 45.796875 0 
L 45.796875 5.421875 
L 45.796875 25.390625 
Q 45.796875 32.5625 45.484375 35.25 
Q 45.171875 37.9375 44.390625 39.203125 
Q 43.359375 40.921875 41.59375 41.875 
Q 39.84375 42.828125 37.59375 42.828125 
Q 32.125 42.828125 29 38.59375 
Q 25.875 34.375 25.875 26.90625 
L 25.875 0 
L 8.40625 0 
L 8.40625 75.984375 
L 25.875 75.984375 
L 25.875 46.6875 
Q 29.828125 51.46875 34.265625 53.734375 
Q 38.71875 56 44.09375 56 
Q 53.5625 56 58.46875 50.1875 
Q 63.375 44.390625 63.375 33.296875 
z
" id="DejaVuSans-Bold-104"/>
     <path d="M 10.203125 18.890625 
L 27.78125 18.890625 
L 27.78125 0 
L 10.203125 0 
z
" id="DejaVuSans-Bold-46"/>
    </defs>
    <g transform="translate(109.512188 16.318125)scale(0.12 -0.12)">
     <use xlink:href="#DejaVuSans-Bold-77"/>
     <use x="99.511719" xlink:href="#DejaVuSans-Bold-101"/>
     <use x="167.333984" xlink:href="#DejaVuSans-Bold-97"/>
     <use x="234.814453" xlink:href="#DejaVuSans-Bold-110"/>
     <use x="306.005859" xlink:href="#DejaVuSans-Bold-32"/>
     <use x="340.820312" xlink:href="#DejaVuSans-Bold-82"/>
     <use x="417.822266" xlink:href="#DejaVuSans-Bold-101"/>
     <use x="485.644531" xlink:href="#DejaVuSans-Bold-119"/>
     <use x="578.027344" xlink:href="#DejaVuSans-Bold-97"/>
     <use x="645.507812" xlink:href="#DejaVuSans-Bold-114"/>
     <use x="694.824219" xlink:href="#DejaVuSans-Bold-100"/>
     <use x="766.40625" xlink:href="#DejaVuSans-Bold-115"/>
     <use x="825.927734" xlink:href="#DejaVuSans-Bold-32"/>
     <use x="860.742188" xlink:href="#DejaVuSans-Bold-97"/>
     <use x="928.222656" xlink:href="#DejaVuSans-Bold-110"/>
     <use x="999.414062" xlink:href="#DejaVuSans-Bold-100"/>
     <use x="1070.996094" xlink:href="#DejaVuSans-Bold-32"/>
     <use x="1105.810547" xlink:href="#DejaVuSans-Bold-69"/>
     <use x="1174.121094" xlink:href="#DejaVuSans-Bold-112"/>
     <use x="1245.703125" xlink:href="#DejaVuSans-Bold-105"/>
     <use x="1279.980469" xlink:href="#DejaVuSans-Bold-115"/>
     <use x="1339.501953" xlink:href="#DejaVuSans-Bold-111"/>
     <use x="1408.203125" xlink:href="#DejaVuSans-Bold-100"/>
     <use x="1479.785156" xlink:href="#DejaVuSans-Bold-101"/>
     <use x="1547.607422" xlink:href="#DejaVuSans-Bold-32"/>
     <use x="1582.421875" xlink:href="#DejaVuSans-Bold-76"/>
     <use x="1646.142578" xlink:href="#DejaVuSans-Bold-101"/>
     <use x="1713.964844" xlink:href="#DejaVuSans-Bold-110"/>
     <use x="1785.15625" xlink:href="#DejaVuSans-Bold-103"/>
     <use x="1856.738281" xlink:href="#DejaVuSans-Bold-116"/>
     <use x="1904.541016" xlink:href="#DejaVuSans-Bold-104"/>
     <use x="1975.732422" xlink:href="#DejaVuSans-Bold-115"/>
     <use x="2035.253906" xlink:href="#DejaVuSans-Bold-46"/>
    </g>
   </g>
   <g id="legend_1">
    <g id="patch_7">
     <path d="M 116.00375 353.02505 
L 355.806875 353.02505 
Q 357.806875 353.02505 357.806875 351.02505 
L 357.806875 337.346925 
Q 357.806875 335.346925 355.806875 335.346925 
L 116.00375 335.346925 
Q 114.00375 335.346925 114.00375 337.346925 
L 114.00375 351.02505 
Q 114.00375 353.02505 116.00375 353.02505 
z
" style="fill:#4c4c4c;opacity:0.5;stroke:#4c4c4c;stroke-linejoin:miter;"/>
    </g>
    <g id="patch_8">
     <path d="M 114.00375 351.02505 
L 353.806875 351.02505 
Q 355.806875 351.02505 355.806875 349.02505 
L 355.806875 335.346925 
Q 355.806875 333.346925 353.806875 333.346925 
L 114.00375 333.346925 
Q 112.00375 333.346925 112.00375 335.346925 
L 112.00375 349.02505 
Q 112.00375 351.02505 114.00375 351.02505 
z
" style="fill:#ffffff;stroke:#cccccc;stroke-linejoin:miter;"/>
    </g>
    <g id="line2d_16">
     <path d="M 116.00375 341.445362 
L 136.00375 341.445362 
" style="fill:none;stroke:#ffa500;stroke-linecap:square;stroke-width:1.5;"/>
    </g>
    <g id="line2d_17"/>
    <g id="text_17">
     <!-- Episode Length -->
     <defs>
      <path d="M 9.8125 72.90625 
L 19.671875 72.90625 
L 19.671875 8.296875 
L 55.171875 8.296875 
L 55.171875 0 
L 9.8125 0 
z
" id="DejaVuSans-76"/>
      <path d="M 45.40625 27.984375 
Q 45.40625 37.75 41.375 43.109375 
Q 37.359375 48.484375 30.078125 48.484375 
Q 22.859375 48.484375 18.828125 43.109375 
Q 14.796875 37.75 14.796875 27.984375 
Q 14.796875 18.265625 18.828125 12.890625 
Q 22.859375 7.515625 30.078125 7.515625 
Q 37.359375 7.515625 41.375 12.890625 
Q 45.40625 18.265625 45.40625 27.984375 
z
M 54.390625 6.78125 
Q 54.390625 -7.171875 48.1875 -13.984375 
Q 42 -20.796875 29.203125 -20.796875 
Q 24.46875 -20.796875 20.265625 -20.09375 
Q 16.0625 -19.390625 12.109375 -17.921875 
L 12.109375 -9.1875 
Q 16.0625 -11.328125 19.921875 -12.34375 
Q 23.78125 -13.375 27.78125 -13.375 
Q 36.625 -13.375 41.015625 -8.765625 
Q 45.40625 -4.15625 45.40625 5.171875 
L 45.40625 9.625 
Q 42.625 4.78125 38.28125 2.390625 
Q 33.9375 0 27.875 0 
Q 17.828125 0 11.671875 7.65625 
Q 5.515625 15.328125 5.515625 27.984375 
Q 5.515625 40.671875 11.671875 48.328125 
Q 17.828125 56 27.875 56 
Q 33.9375 56 38.28125 53.609375 
Q 42.625 51.21875 45.40625 46.390625 
L 45.40625 54.6875 
L 54.390625 54.6875 
z
" id="DejaVuSans-103"/>
      <path d="M 54.890625 33.015625 
L 54.890625 0 
L 45.90625 0 
L 45.90625 32.71875 
Q 45.90625 40.484375 42.875 44.328125 
Q 39.84375 48.1875 33.796875 48.1875 
Q 26.515625 48.1875 22.3125 43.546875 
Q 18.109375 38.921875 18.109375 30.90625 
L 18.109375 0 
L 9.078125 0 
L 9.078125 75.984375 
L 18.109375 75.984375 
L 18.109375 46.1875 
Q 21.34375 51.125 25.703125 53.5625 
Q 30.078125 56 35.796875 56 
Q 45.21875 56 50.046875 50.171875 
Q 54.890625 44.34375 54.890625 33.015625 
z
" id="DejaVuSans-104"/>
     </defs>
     <g transform="translate(144.00375 344.945362)scale(0.1 -0.1)">
      <use xlink:href="#DejaVuSans-69"/>
      <use x="63.183594" xlink:href="#DejaVuSans-112"/>
      <use x="126.660156" xlink:href="#DejaVuSans-105"/>
      <use x="154.443359" xlink:href="#DejaVuSans-115"/>
      <use x="206.542969" xlink:href="#DejaVuSans-111"/>
      <use x="267.724609" xlink:href="#DejaVuSans-100"/>
      <use x="331.201172" xlink:href="#DejaVuSans-101"/>
      <use x="392.724609" xlink:href="#DejaVuSans-32"/>
      <use x="424.511719" xlink:href="#DejaVuSans-76"/>
      <use x="480.208984" xlink:href="#DejaVuSans-101"/>
      <use x="541.732422" xlink:href="#DejaVuSans-110"/>
      <use x="605.111328" xlink:href="#DejaVuSans-103"/>
      <use x="668.587891" xlink:href="#DejaVuSans-116"/>
      <use x="707.796875" xlink:href="#DejaVuSans-104"/>
     </g>
    </g>
    <g id="line2d_18">
     <path d="M 241.124063 341.445362 
L 261.124063 341.445362 
" style="fill:none;stroke:#ff0000;stroke-linecap:square;stroke-width:1.5;"/>
    </g>
    <g id="line2d_19"/>
    <g id="text_18">
     <!-- Average Reward -->
     <defs>
      <path d="M 34.1875 63.1875 
L 20.796875 26.90625 
L 47.609375 26.90625 
z
M 28.609375 72.90625 
L 39.796875 72.90625 
L 67.578125 0 
L 57.328125 0 
L 50.6875 18.703125 
L 17.828125 18.703125 
L 11.1875 0 
L 0.78125 0 
z
" id="DejaVuSans-65"/>
      <path d="M 2.984375 54.6875 
L 12.5 54.6875 
L 29.59375 8.796875 
L 46.6875 54.6875 
L 56.203125 54.6875 
L 35.6875 0 
L 23.484375 0 
z
" id="DejaVuSans-118"/>
     </defs>
     <g transform="translate(269.124063 344.945362)scale(0.1 -0.1)">
      <use xlink:href="#DejaVuSans-65"/>
      <use x="68.330078" xlink:href="#DejaVuSans-118"/>
      <use x="127.509766" xlink:href="#DejaVuSans-101"/>
      <use x="189.033203" xlink:href="#DejaVuSans-114"/>
      <use x="230.146484" xlink:href="#DejaVuSans-97"/>
      <use x="291.425781" xlink:href="#DejaVuSans-103"/>
      <use x="354.902344" xlink:href="#DejaVuSans-101"/>
      <use x="416.425781" xlink:href="#DejaVuSans-32"/>
      <use x="448.212891" xlink:href="#DejaVuSans-82"/>
      <use x="517.632812" xlink:href="#DejaVuSans-101"/>
      <use x="579.15625" xlink:href="#DejaVuSans-119"/>
      <use x="660.943359" xlink:href="#DejaVuSans-97"/>
      <use x="722.222656" xlink:href="#DejaVuSans-114"/>
      <use x="763.320312" xlink:href="#DejaVuSans-100"/>
     </g>
    </g>
   </g>
   <g id="line2d_20">
    <path clip-path="url(#p9b9e7e732f)" d="M 71.57804 257.472779 
L 72.48237 257.510013 
L 73.3867 260.153666 
L 74.29103 259.043016 
L 75.195361 258.815144 
L 77.004021 263.548747 
L 77.908351 264.635681 
L 78.812681 264.416764 
L 79.717012 265.727115 
L 80.621342 266.589053 
L 81.525672 266.809749 
L 82.430002 266.073711 
L 84.238663 276.334125 
L 85.142993 271.245292 
L 86.047323 246.19629 
L 86.951653 243.763667 
L 87.855984 248.120347 
L 88.760314 247.981724 
L 89.664644 247.618328 
L 90.568974 246.105994 
L 91.473304 244.18625 
L 92.377635 243.978609 
L 93.281965 244.416381 
L 94.186295 255.480966 
L 95.090625 242.425487 
L 95.994955 245.549059 
L 96.899286 239.60371 
L 97.803616 250.190805 
L 98.707946 252.976395 
L 99.612276 248.459515 
L 100.516606 240.412672 
L 101.420937 248.152179 
L 102.325267 259.834618 
L 103.229597 255.785111 
L 104.133927 249.664317 
L 105.038258 242.663888 
L 105.942588 248.014506 
L 106.846918 252.381863 
L 107.751248 247.869922 
L 108.655578 251.340465 
L 109.559909 247.760069 
L 110.464239 246.391596 
L 111.368569 256.268264 
L 112.272899 255.211393 
L 113.177229 258.69105 
L 114.08156 256.040597 
L 114.98589 247.192338 
L 115.89022 241.335108 
L 116.79455 252.770112 
L 118.603211 229.467329 
L 119.507541 231.205782 
L 120.411871 229.480282 
L 121.316201 234.943291 
L 122.220532 238.570547 
L 123.124862 224.292744 
L 124.029192 230.821736 
L 124.933522 225.764912 
L 125.837852 217.514519 
L 126.742183 225.35736 
L 127.646513 211.902172 
L 128.550843 223.872153 
L 129.455173 209.742359 
L 130.359503 218.914743 
L 131.263834 219.484524 
L 132.168164 218.819377 
L 133.072494 217.800444 
L 133.976824 204.634324 
L 134.881154 198.577834 
L 135.785485 198.604952 
L 136.689815 193.934744 
L 137.594145 195.069991 
L 138.498475 192.526329 
L 139.402806 187.55103 
L 140.307136 189.557419 
L 141.211466 187.422541 
L 142.115796 185.587547 
L 143.020126 182.888847 
L 143.924457 184.750507 
L 144.828787 181.939327 
L 145.733117 182.236554 
L 146.637447 181.861641 
L 148.446108 176.142483 
L 149.350438 171.965758 
L 150.254768 192.511696 
L 151.159098 192.438192 
L 152.063428 175.755318 
L 152.967759 173.712618 
L 153.872089 169.550319 
L 154.776419 187.006317 
L 155.680749 167.014556 
L 156.58508 184.306643 
L 157.48941 162.832423 
L 158.39374 192.230248 
L 159.29807 160.632989 
L 160.2024 159.63275 
L 161.106731 160.549661 
L 162.011061 161.797071 
L 162.915391 205.70314 
L 163.819721 160.304705 
L 164.724051 159.313203 
L 165.628382 174.073812 
L 166.532712 173.720824 
L 167.437042 155.006152 
L 168.341372 177.117226 
L 169.245702 173.225172 
L 170.150033 151.862822 
L 171.054363 150.81405 
L 171.958693 165.616766 
L 172.863023 149.704418 
L 173.767354 165.683511 
L 174.671684 150.094517 
L 175.576014 149.792011 
L 176.480344 144.253811 
L 177.384674 142.934298 
L 178.289005 141.119655 
L 179.193335 166.75325 
L 180.097665 165.028462 
L 181.001995 141.609376 
L 181.906325 138.294248 
L 182.810656 135.785059 
L 183.714986 137.411625 
L 184.619316 162.880098 
L 185.523646 137.053624 
L 186.427976 134.961425 
L 187.332307 135.296799 
L 188.236637 133.533682 
L 189.140967 133.879959 
L 190.045297 130.984584 
L 190.949628 130.357522 
L 191.853958 157.536601 
L 192.758288 127.795718 
L 193.662618 129.266784 
L 194.566948 129.13404 
L 195.471279 128.8436 
L 196.375609 130.654784 
L 197.279939 127.703296 
L 198.184269 128.627327 
L 199.088599 173.64679 
L 199.99293 130.981408 
L 200.89726 130.350416 
L 201.80159 131.809154 
L 202.70592 127.962591 
L 203.61025 153.575981 
L 204.514581 127.94786 
L 205.418911 156.967493 
L 206.323241 130.044649 
L 207.227571 129.070761 
L 208.131902 128.603127 
L 209.036232 124.973304 
L 209.940562 125.343589 
L 210.844892 127.005937 
L 211.749222 123.541677 
L 212.653553 128.824993 
L 213.557883 122.154632 
L 214.462213 124.636682 
L 215.366543 124.575484 
L 216.270873 122.91762 
L 217.175204 124.821877 
L 218.079534 121.379713 
L 218.983864 122.545036 
L 219.888194 120.183124 
L 220.792524 120.79927 
L 221.696855 120.470215 
L 222.601185 118.882629 
L 223.505515 121.495541 
L 224.409845 119.034332 
L 225.314176 122.949168 
L 226.218506 118.21824 
L 227.122836 116.563858 
L 228.027166 118.57399 
L 228.931496 115.661686 
L 229.835827 116.69433 
L 230.740157 114.972247 
L 231.644487 118.202331 
L 232.548817 112.330028 
L 233.453147 111.159922 
L 234.357478 115.309729 
L 235.261808 114.12153 
L 236.166138 112.001386 
L 237.070468 109.398828 
L 237.974798 109.398506 
L 238.879129 110.073741 
L 239.783459 115.286919 
L 240.687789 113.245708 
L 241.592119 109.074889 
L 242.496449 110.55622 
L 243.40078 107.591792 
L 244.30511 107.421641 
L 245.20944 110.3523 
L 246.11377 107.852312 
L 247.018101 110.734127 
L 247.922431 106.545344 
L 248.826761 109.898349 
L 249.731091 106.577309 
L 250.635421 105.900981 
L 251.539752 107.704525 
L 252.444082 107.941714 
L 253.348412 107.886523 
L 254.252742 103.87745 
L 255.157072 103.734118 
L 256.061403 103.947925 
L 256.965733 102.266076 
L 257.870063 106.438083 
L 258.774393 107.964248 
L 259.678723 106.50762 
L 260.583054 102.152653 
L 261.487384 107.296657 
L 262.391714 106.579858 
L 263.296044 104.403375 
L 264.200375 105.877097 
L 266.009035 107.245116 
L 266.913365 106.563832 
L 267.817695 107.095347 
L 268.722026 106.102245 
L 269.626356 107.004528 
L 270.530686 108.73557 
L 271.435016 108.324784 
L 272.339346 109.474316 
L 273.243677 109.514368 
L 274.148007 109.224425 
L 275.052337 105.486037 
L 275.956667 108.220466 
L 276.860997 106.416399 
L 277.765328 105.400278 
L 278.669658 106.262756 
L 279.573988 107.500009 
L 280.478318 106.366196 
L 281.382649 108.01325 
L 282.286979 104.689261 
L 283.191309 106.946483 
L 284.095639 103.552523 
L 284.999969 107.785705 
L 285.9043 108.076369 
L 286.80863 105.870158 
L 287.71296 105.782656 
L 288.61729 108.023701 
L 291.330281 105.47169 
L 292.234611 108.088766 
L 293.138941 106.731068 
L 294.043271 105.790707 
L 294.947602 106.464822 
L 295.851932 102.6639 
L 296.756262 104.589344 
L 297.660592 102.396201 
L 298.564923 103.776831 
L 299.469253 106.519823 
L 300.373583 102.592964 
L 301.277913 155.036412 
L 302.182243 103.796377 
L 303.086574 101.471809 
L 304.895234 103.27301 
L 305.799564 104.505129 
L 306.703894 103.366781 
L 307.608225 104.009512 
L 308.512555 105.347071 
L 309.416885 104.328132 
L 310.321215 106.770679 
L 311.225545 105.010123 
L 312.129876 132.774885 
L 313.034206 108.109211 
L 313.938536 106.379466 
L 314.842866 104.203108 
L 315.747197 105.73963 
L 316.651527 106.562508 
L 318.460187 102.08412 
L 319.364517 103.180444 
L 320.268848 102.681923 
L 321.173178 101.978344 
L 322.077508 102.7051 
L 322.981838 102.977075 
L 323.886168 101.253207 
L 324.790499 104.578125 
L 325.694829 102.095142 
L 326.599159 99.206197 
L 327.503489 99.310145 
L 328.407819 101.599576 
L 329.31215 101.917785 
L 330.21648 99.374007 
L 331.12081 101.597281 
L 332.02514 102.271051 
L 332.929471 102.044413 
L 333.833801 101.993076 
L 334.738131 102.61767 
L 335.642461 101.31147 
L 336.546791 103.727092 
L 337.451122 102.638248 
L 338.355452 100.768752 
L 339.259782 101.703944 
L 340.164112 99.570189 
L 341.068442 103.183463 
L 341.972773 99.386167 
L 342.877103 127.121737 
L 343.781433 102.589303 
L 344.685763 103.794117 
L 345.590093 101.824809 
L 346.494424 99.391437 
L 347.398754 102.523503 
L 348.303084 98.544674 
L 349.207414 103.301978 
L 350.111745 100.418516 
L 351.016075 100.984015 
L 351.920405 100.829965 
L 352.824735 98.321475 
L 353.729065 100.260225 
L 355.537726 96.467255 
L 356.442056 95.200528 
L 357.346386 98.433105 
L 358.250716 104.08183 
L 359.155047 94.583113 
L 360.059377 96.273408 
L 360.963707 92.992494 
L 361.868037 97.296226 
L 362.772367 94.480612 
L 363.676698 94.17754 
L 365.485358 94.646562 
L 366.389688 95.496598 
L 367.294019 93.433718 
L 368.198349 94.342487 
L 369.102679 96.640035 
L 370.007009 96.732458 
L 370.911339 93.34927 
L 371.81567 96.365549 
L 372.72 93.246418 
L 373.62433 96.915474 
L 374.52866 97.77744 
L 376.337321 96.377152 
L 377.241651 94.484747 
L 379.050311 96.044855 
L 379.954641 95.860969 
L 380.858972 98.068264 
L 381.763302 109.556327 
L 382.667632 93.032021 
L 383.571962 93.955097 
L 384.476292 95.20853 
L 385.380623 93.344145 
L 386.284953 97.414076 
L 387.189283 99.725834 
L 388.093613 97.279114 
L 388.997944 95.590497 
L 389.902274 96.357101 
L 391.710934 92.111503 
L 392.615264 94.625445 
L 393.519595 94.588911 
L 394.423925 93.070018 
L 396.232585 89.299978 
L 396.232585 89.299978 
" style="fill:none;stroke:#ff0000;stroke-linecap:square;stroke-opacity:0.3;stroke-width:1.5;"/>
   </g>
  </g>
  <g id="axes_2">
   <g id="matplotlib.axis_3">
    <g id="ytick_6">
     <g id="line2d_21">
      <defs>
       <path d="M 0 0 
L 3.5 0 
" id="ma314f39dc4" style="stroke:#000000;stroke-width:0.8;"/>
      </defs>
      <g>
       <use style="stroke:#000000;stroke-width:0.8;" x="412.465312" xlink:href="#ma314f39dc4" y="287.445136"/>
      </g>
     </g>
     <g id="text_19">
      <!-- 0 -->
      <g transform="translate(419.465312 291.244355)scale(0.1 -0.1)">
       <use xlink:href="#DejaVuSans-48"/>
      </g>
     </g>
    </g>
    <g id="ytick_7">
     <g id="line2d_22">
      <g>
       <use style="stroke:#000000;stroke-width:0.8;" x="412.465312" xlink:href="#ma314f39dc4" y="256.591643"/>
      </g>
     </g>
     <g id="text_20">
      <!-- 200 -->
      <g transform="translate(419.465312 260.390862)scale(0.1 -0.1)">
       <use xlink:href="#DejaVuSans-50"/>
       <use x="63.623047" xlink:href="#DejaVuSans-48"/>
       <use x="127.246094" xlink:href="#DejaVuSans-48"/>
      </g>
     </g>
    </g>
    <g id="ytick_8">
     <g id="line2d_23">
      <g>
       <use style="stroke:#000000;stroke-width:0.8;" x="412.465312" xlink:href="#ma314f39dc4" y="225.738149"/>
      </g>
     </g>
     <g id="text_21">
      <!-- 400 -->
      <defs>
       <path d="M 37.796875 64.3125 
L 12.890625 25.390625 
L 37.796875 25.390625 
z
M 35.203125 72.90625 
L 47.609375 72.90625 
L 47.609375 25.390625 
L 58.015625 25.390625 
L 58.015625 17.1875 
L 47.609375 17.1875 
L 47.609375 0 
L 37.796875 0 
L 37.796875 17.1875 
L 4.890625 17.1875 
L 4.890625 26.703125 
z
" id="DejaVuSans-52"/>
      </defs>
      <g transform="translate(419.465312 229.537368)scale(0.1 -0.1)">
       <use xlink:href="#DejaVuSans-52"/>
       <use x="63.623047" xlink:href="#DejaVuSans-48"/>
       <use x="127.246094" xlink:href="#DejaVuSans-48"/>
      </g>
     </g>
    </g>
    <g id="ytick_9">
     <g id="line2d_24">
      <g>
       <use style="stroke:#000000;stroke-width:0.8;" x="412.465312" xlink:href="#ma314f39dc4" y="194.884656"/>
      </g>
     </g>
     <g id="text_22">
      <!-- 600 -->
      <defs>
       <path d="M 33.015625 40.375 
Q 26.375 40.375 22.484375 35.828125 
Q 18.609375 31.296875 18.609375 23.390625 
Q 18.609375 15.53125 22.484375 10.953125 
Q 26.375 6.390625 33.015625 6.390625 
Q 39.65625 6.390625 43.53125 10.953125 
Q 47.40625 15.53125 47.40625 23.390625 
Q 47.40625 31.296875 43.53125 35.828125 
Q 39.65625 40.375 33.015625 40.375 
z
M 52.59375 71.296875 
L 52.59375 62.3125 
Q 48.875 64.0625 45.09375 64.984375 
Q 41.3125 65.921875 37.59375 65.921875 
Q 27.828125 65.921875 22.671875 59.328125 
Q 17.53125 52.734375 16.796875 39.40625 
Q 19.671875 43.65625 24.015625 45.921875 
Q 28.375 48.1875 33.59375 48.1875 
Q 44.578125 48.1875 50.953125 41.515625 
Q 57.328125 34.859375 57.328125 23.390625 
Q 57.328125 12.15625 50.6875 5.359375 
Q 44.046875 -1.421875 33.015625 -1.421875 
Q 20.359375 -1.421875 13.671875 8.265625 
Q 6.984375 17.96875 6.984375 36.375 
Q 6.984375 53.65625 15.1875 63.9375 
Q 23.390625 74.21875 37.203125 74.21875 
Q 40.921875 74.21875 44.703125 73.484375 
Q 48.484375 72.75 52.59375 71.296875 
z
" id="DejaVuSans-54"/>
      </defs>
      <g transform="translate(419.465312 198.683874)scale(0.1 -0.1)">
       <use xlink:href="#DejaVuSans-54"/>
       <use x="63.623047" xlink:href="#DejaVuSans-48"/>
       <use x="127.246094" xlink:href="#DejaVuSans-48"/>
      </g>
     </g>
    </g>
    <g id="ytick_10">
     <g id="line2d_25">
      <g>
       <use style="stroke:#000000;stroke-width:0.8;" x="412.465312" xlink:href="#ma314f39dc4" y="164.031162"/>
      </g>
     </g>
     <g id="text_23">
      <!-- 800 -->
      <defs>
       <path d="M 31.78125 34.625 
Q 24.75 34.625 20.71875 30.859375 
Q 16.703125 27.09375 16.703125 20.515625 
Q 16.703125 13.921875 20.71875 10.15625 
Q 24.75 6.390625 31.78125 6.390625 
Q 38.8125 6.390625 42.859375 10.171875 
Q 46.921875 13.96875 46.921875 20.515625 
Q 46.921875 27.09375 42.890625 30.859375 
Q 38.875 34.625 31.78125 34.625 
z
M 21.921875 38.8125 
Q 15.578125 40.375 12.03125 44.71875 
Q 8.5 49.078125 8.5 55.328125 
Q 8.5 64.0625 14.71875 69.140625 
Q 20.953125 74.21875 31.78125 74.21875 
Q 42.671875 74.21875 48.875 69.140625 
Q 55.078125 64.0625 55.078125 55.328125 
Q 55.078125 49.078125 51.53125 44.71875 
Q 48 40.375 41.703125 38.8125 
Q 48.828125 37.15625 52.796875 32.3125 
Q 56.78125 27.484375 56.78125 20.515625 
Q 56.78125 9.90625 50.3125 4.234375 
Q 43.84375 -1.421875 31.78125 -1.421875 
Q 19.734375 -1.421875 13.25 4.234375 
Q 6.78125 9.90625 6.78125 20.515625 
Q 6.78125 27.484375 10.78125 32.3125 
Q 14.796875 37.15625 21.921875 38.8125 
z
M 18.3125 54.390625 
Q 18.3125 48.734375 21.84375 45.5625 
Q 25.390625 42.390625 31.78125 42.390625 
Q 38.140625 42.390625 41.71875 45.5625 
Q 45.3125 48.734375 45.3125 54.390625 
Q 45.3125 60.0625 41.71875 63.234375 
Q 38.140625 66.40625 31.78125 66.40625 
Q 25.390625 66.40625 21.84375 63.234375 
Q 18.3125 60.0625 18.3125 54.390625 
z
" id="DejaVuSans-56"/>
      </defs>
      <g transform="translate(419.465312 167.830381)scale(0.1 -0.1)">
       <use xlink:href="#DejaVuSans-56"/>
       <use x="63.623047" xlink:href="#DejaVuSans-48"/>
       <use x="127.246094" xlink:href="#DejaVuSans-48"/>
      </g>
     </g>
    </g>
    <g id="ytick_11">
     <g id="line2d_26">
      <g>
       <use style="stroke:#000000;stroke-width:0.8;" x="412.465312" xlink:href="#ma314f39dc4" y="133.177668"/>
      </g>
     </g>
     <g id="text_24">
      <!-- 1000 -->
      <g transform="translate(419.465312 136.976887)scale(0.1 -0.1)">
       <use xlink:href="#DejaVuSans-49"/>
       <use x="63.623047" xlink:href="#DejaVuSans-48"/>
       <use x="127.246094" xlink:href="#DejaVuSans-48"/>
       <use x="190.869141" xlink:href="#DejaVuSans-48"/>
      </g>
     </g>
    </g>
    <g id="ytick_12">
     <g id="line2d_27">
      <g>
       <use style="stroke:#000000;stroke-width:0.8;" x="412.465312" xlink:href="#ma314f39dc4" y="102.324175"/>
      </g>
     </g>
     <g id="text_25">
      <!-- 1200 -->
      <g transform="translate(419.465312 106.123394)scale(0.1 -0.1)">
       <use xlink:href="#DejaVuSans-49"/>
       <use x="63.623047" xlink:href="#DejaVuSans-50"/>
       <use x="127.246094" xlink:href="#DejaVuSans-48"/>
       <use x="190.869141" xlink:href="#DejaVuSans-48"/>
      </g>
     </g>
    </g>
    <g id="ytick_13">
     <g id="line2d_28">
      <g>
       <use style="stroke:#000000;stroke-width:0.8;" x="412.465312" xlink:href="#ma314f39dc4" y="71.470681"/>
      </g>
     </g>
     <g id="text_26">
      <!-- 1400 -->
      <g transform="translate(419.465312 75.2699)scale(0.1 -0.1)">
       <use xlink:href="#DejaVuSans-49"/>
       <use x="63.623047" xlink:href="#DejaVuSans-52"/>
       <use x="127.246094" xlink:href="#DejaVuSans-48"/>
       <use x="190.869141" xlink:href="#DejaVuSans-48"/>
      </g>
     </g>
    </g>
    <g id="ytick_14">
     <g id="line2d_29">
      <g>
       <use style="stroke:#000000;stroke-width:0.8;" x="412.465312" xlink:href="#ma314f39dc4" y="40.617188"/>
      </g>
     </g>
     <g id="text_27">
      <!-- 1600 -->
      <g transform="translate(419.465312 44.416406)scale(0.1 -0.1)">
       <use xlink:href="#DejaVuSans-49"/>
       <use x="63.623047" xlink:href="#DejaVuSans-54"/>
       <use x="127.246094" xlink:href="#DejaVuSans-48"/>
       <use x="190.869141" xlink:href="#DejaVuSans-48"/>
      </g>
     </g>
    </g>
    <g id="text_28">
     <!-- Episode Steps -->
     <defs>
      <path d="M 53.515625 70.515625 
L 53.515625 60.890625 
Q 47.90625 63.578125 42.921875 64.890625 
Q 37.9375 66.21875 33.296875 66.21875 
Q 25.25 66.21875 20.875 63.09375 
Q 16.5 59.96875 16.5 54.203125 
Q 16.5 49.359375 19.40625 46.890625 
Q 22.3125 44.4375 30.421875 42.921875 
L 36.375 41.703125 
Q 47.40625 39.59375 52.65625 34.296875 
Q 57.90625 29 57.90625 20.125 
Q 57.90625 9.515625 50.796875 4.046875 
Q 43.703125 -1.421875 29.984375 -1.421875 
Q 24.8125 -1.421875 18.96875 -0.25 
Q 13.140625 0.921875 6.890625 3.21875 
L 6.890625 13.375 
Q 12.890625 10.015625 18.65625 8.296875 
Q 24.421875 6.59375 29.984375 6.59375 
Q 38.421875 6.59375 43.015625 9.90625 
Q 47.609375 13.234375 47.609375 19.390625 
Q 47.609375 24.75 44.3125 27.78125 
Q 41.015625 30.8125 33.5 32.328125 
L 27.484375 33.5 
Q 16.453125 35.6875 11.515625 40.375 
Q 6.59375 45.0625 6.59375 53.421875 
Q 6.59375 63.09375 13.40625 68.65625 
Q 20.21875 74.21875 32.171875 74.21875 
Q 37.3125 74.21875 42.625 73.28125 
Q 47.953125 72.359375 53.515625 70.515625 
z
" id="DejaVuSans-83"/>
     </defs>
     <g transform="translate(456.51375 190.590531)rotate(-90)scale(0.1 -0.1)">
      <use xlink:href="#DejaVuSans-69"/>
      <use x="63.183594" xlink:href="#DejaVuSans-112"/>
      <use x="126.660156" xlink:href="#DejaVuSans-105"/>
      <use x="154.443359" xlink:href="#DejaVuSans-115"/>
      <use x="206.542969" xlink:href="#DejaVuSans-111"/>
      <use x="267.724609" xlink:href="#DejaVuSans-100"/>
      <use x="331.201172" xlink:href="#DejaVuSans-101"/>
      <use x="392.724609" xlink:href="#DejaVuSans-32"/>
      <use x="424.511719" xlink:href="#DejaVuSans-83"/>
      <use x="487.988281" xlink:href="#DejaVuSans-116"/>
      <use x="527.197266" xlink:href="#DejaVuSans-101"/>
      <use x="588.720703" xlink:href="#DejaVuSans-112"/>
      <use x="652.197266" xlink:href="#DejaVuSans-115"/>
     </g>
    </g>
   </g>
   <g id="line2d_30">
    <path clip-path="url(#p9b9e7e732f)" d="M 71.57804 274.395733 
L 72.48237 273.778441 
L 73.3867 272.899918 
L 74.29103 273.669052 
L 75.195361 273.578398 
L 76.099691 273.350055 
L 77.908351 270.823331 
L 78.812681 265.321529 
L 79.717012 268.376231 
L 80.621342 265.376624 
L 82.430002 256.520763 
L 83.334333 241.132757 
L 84.238663 210.999673 
L 85.142993 71.97205 
L 86.047323 40.617188 
L 87.855984 40.617188 
L 88.760314 88.131568 
L 89.664644 40.617188 
L 93.281965 40.617188 
L 94.186295 47.559224 
L 95.090625 40.617188 
L 95.994955 79.461736 
L 96.899286 40.617188 
L 97.803616 51.068808 
L 98.707946 138.334609 
L 99.612276 104.021117 
L 100.516606 86.002677 
L 101.420937 96.863106 
L 102.325267 103.24978 
L 103.229597 127.469772 
L 104.133927 81.035264 
L 105.038258 80.20222 
L 105.942588 161.700009 
L 106.846918 120.424891 
L 107.751248 166.15234 
L 108.655578 88.378396 
L 109.559909 118.162301 
L 111.368569 200.177216 
L 112.272899 213.771401 
L 113.177229 194.948934 
L 114.08156 199.065304 
L 114.98589 77.888208 
L 115.89022 86.866574 
L 116.79455 173.775724 
L 117.69888 104.57648 
L 118.603211 85.478167 
L 119.507541 87.452791 
L 120.411871 74.980266 
L 121.316201 98.621756 
L 122.220532 95.729241 
L 123.124862 88.995466 
L 124.029192 106.767078 
L 124.933522 77.988482 
L 125.837852 40.617188 
L 126.742183 87.545351 
L 127.646513 40.617188 
L 128.550843 88.440103 
L 129.455173 40.617188 
L 130.359503 88.285835 
L 131.263834 87.452791 
L 132.168164 87.88474 
L 133.072494 86.74316 
L 133.976824 40.617188 
L 149.350438 40.617188 
L 150.254768 87.144256 
L 151.159098 87.730472 
L 152.063428 40.617188 
L 153.872089 40.617188 
L 154.776419 76.715775 
L 155.680749 40.617188 
L 156.58508 86.403772 
L 157.48941 40.617188 
L 158.39374 90.137045 
L 159.29807 40.617188 
L 162.011061 40.617188 
L 162.915391 126.80128 
L 163.819721 40.617188 
L 164.724051 40.617188 
L 165.628382 74.748865 
L 166.532712 76.993457 
L 167.437042 40.617188 
L 168.341372 87.792179 
L 169.245702 77.255711 
L 170.150033 40.617188 
L 171.054363 40.617188 
L 171.958693 40.732888 
L 172.863023 40.617188 
L 173.767354 46.325084 
L 174.671684 40.617188 
L 178.289005 40.617188 
L 179.193335 87.761326 
L 180.097665 88.008154 
L 181.001995 40.617188 
L 183.714986 40.617188 
L 184.619316 87.853886 
L 185.523646 40.617188 
L 190.949628 40.617188 
L 191.853958 87.915593 
L 192.758288 40.617188 
L 198.184269 40.617188 
L 199.088599 119.16504 
L 199.99293 40.617188 
L 202.70592 40.617188 
L 203.61025 87.236816 
L 204.514581 40.617188 
L 205.418911 86.403772 
L 206.323241 40.617188 
L 300.373583 40.617188 
L 301.277913 114.537016 
L 302.182243 40.617188 
L 311.225545 40.617188 
L 312.129876 71.316414 
L 313.034206 40.617188 
L 341.972773 40.617188 
L 342.877103 54.771228 
L 343.781433 40.617188 
L 380.858972 40.617188 
L 381.763302 41.69706 
L 382.667632 40.617188 
L 396.232585 40.617188 
L 396.232585 40.617188 
" style="fill:none;stroke:#ffa500;stroke-dasharray:5.55,2.4;stroke-dashoffset:0;stroke-opacity:0.3;stroke-width:1.5;"/>
   </g>
   <g id="line2d_31">
    <path clip-path="url(#p9b9e7e732f)" d="M 71.57804 273.778764 
L 72.48237 274.076338 
L 73.3867 274.069684 
L 74.29103 273.776653 
L 75.195361 273.215097 
L 77.004021 271.66665 
L 77.908351 270.606944 
L 78.812681 269.802035 
L 79.717012 269.493815 
L 80.621342 276.334125 
L 81.525672 268.122053 
L 82.430002 243.376445 
L 83.334333 207.339001 
L 84.238663 160.325082 
L 86.047323 85.623425 
L 86.951653 56.866415 
L 87.855984 39.884562 
L 88.760314 36.834447 
L 89.664644 46.706977 
L 90.568974 48.404998 
L 91.473304 42.942779 
L 92.377635 43.545465 
L 93.281965 41.096244 
L 94.186295 40.324303 
L 95.090625 47.38376 
L 96.899286 69.433549 
L 97.803616 79.089175 
L 98.707946 85.846519 
L 99.612276 98.187775 
L 100.516606 103.497676 
L 101.420937 102.660114 
L 102.325267 103.009733 
L 103.229597 95.57031 
L 104.133927 111.519361 
L 105.038258 118.42289 
L 105.942588 117.922292 
L 106.846918 117.264751 
L 107.751248 122.136837 
L 108.655578 139.027042 
L 109.559909 150.142159 
L 110.464239 167.492678 
L 111.368569 182.032192 
L 112.272899 174.522194 
L 113.177229 181.124686 
L 114.08156 169.864259 
L 116.79455 108.646949 
L 117.69888 98.027161 
L 118.603211 93.836911 
L 119.507541 98.078955 
L 121.316201 87.8219 
L 122.220532 89.319823 
L 123.124862 91.46441 
L 124.029192 83.534757 
L 124.933522 81.640701 
L 125.837852 69.918171 
L 126.742183 64.299959 
L 127.646513 62.235993 
L 128.550843 62.910904 
L 129.455173 74.340559 
L 130.359503 80.686742 
L 131.263834 77.30832 
L 132.168164 77.295806 
L 133.072494 67.85061 
L 133.976824 63.055013 
L 134.881154 49.866403 
L 135.785485 42.409423 
L 136.689815 37.618357 
L 137.594145 36.746477 
L 138.498475 40.617188 
L 144.828787 40.617188 
L 145.733117 36.712818 
L 146.637447 37.639718 
L 147.541777 46.377585 
L 148.446108 52.932694 
L 149.350438 57.305044 
L 150.254768 56.465383 
L 151.159098 60.25878 
L 152.063428 57.185729 
L 152.967759 59.73348 
L 153.872089 54.034214 
L 154.776419 53.593347 
L 155.680749 57.776045 
L 156.58508 63.886835 
L 157.48941 62.981008 
L 158.39374 51.779895 
L 159.29807 53.788249 
L 160.2024 58.381872 
L 161.106731 52.851497 
L 162.011061 56.194768 
L 162.915391 58.605182 
L 163.819721 62.754264 
L 164.724051 64.927943 
L 165.628382 69.267239 
L 166.532712 68.000346 
L 167.437042 61.117554 
L 168.341372 66.931891 
L 169.245702 61.435079 
L 170.150033 53.416047 
L 171.054363 48.904084 
L 171.958693 46.306726 
L 172.863023 38.567372 
L 173.767354 38.745391 
L 174.671684 37.790533 
L 175.576014 38.549842 
L 176.480344 47.022416 
L 177.384674 53.180169 
L 178.289005 56.991547 
L 179.193335 59.677023 
L 180.097665 55.715981 
L 181.001995 58.470141 
L 181.906325 57.919597 
L 182.810656 54.064348 
L 183.714986 46.904396 
L 184.619316 46.440011 
L 185.523646 49.866331 
L 186.427976 48.214699 
L 187.332307 41.49288 
L 188.236637 42.600441 
L 189.140967 41.504387 
L 190.045297 48.224623 
L 190.949628 49.878414 
L 191.853958 50.429677 
L 192.758288 49.878414 
L 193.662618 48.224623 
L 194.566948 38.876878 
L 195.471279 43.257319 
L 196.375609 44.704281 
L 197.279939 53.250758 
L 198.184269 55.997187 
L 199.088599 53.000526 
L 199.99293 56.975221 
L 200.89726 54.190028 
L 201.80159 57.132197 
L 202.70592 56.089423 
L 203.61025 51.061706 
L 204.514581 58.710712 
L 205.418911 57.614298 
L 206.323241 54.363893 
L 207.227571 48.959498 
L 208.131902 41.401111 
L 209.036232 41.577745 
L 209.940562 36.774957 
L 210.844892 40.617188 
L 295.851932 40.617188 
L 296.756262 34.414125 
L 297.660592 42.167953 
L 298.564923 48.198708 
L 299.469253 52.506391 
L 300.373583 55.091 
L 301.277913 55.952537 
L 302.182243 55.091 
L 303.086574 52.506391 
L 303.990904 48.198708 
L 304.895234 42.167953 
L 305.799564 34.414125 
L 306.703894 40.617188 
L 307.608225 38.041029 
L 308.512555 41.261227 
L 309.416885 43.765826 
L 310.321215 45.554825 
L 311.225545 46.628225 
L 312.129876 46.986025 
L 313.034206 46.628225 
L 313.938536 45.554825 
L 314.842866 43.765826 
L 315.747197 41.261227 
L 316.651527 38.041029 
L 317.555857 40.617188 
L 337.451122 40.617188 
L 338.355452 39.429436 
L 339.259782 40.914125 
L 340.164112 42.068884 
L 341.068442 42.893711 
L 341.972773 43.388608 
L 342.877103 43.553573 
L 343.781433 43.388608 
L 344.685763 42.893711 
L 345.590093 42.068884 
L 346.494424 40.914125 
L 347.398754 39.429436 
L 348.303084 40.617188 
L 379.050311 40.727944 
L 381.763302 40.841217 
L 384.476292 40.727944 
L 386.284953 40.526569 
L 388.093613 40.617188 
L 396.232585 40.617188 
L 396.232585 40.617188 
" style="fill:none;stroke:#ffa500;stroke-linecap:square;stroke-width:1.5;"/>
   </g>
   <g id="patch_9">
    <path d="M 55.345313 288.430125 
L 55.345313 22.318125 
" style="fill:none;stroke:#000000;stroke-linecap:square;stroke-linejoin:miter;stroke-width:0.8;"/>
   </g>
   <g id="patch_10">
    <path d="M 412.465312 288.430125 
L 412.465312 22.318125 
" style="fill:none;stroke:#000000;stroke-linecap:square;stroke-linejoin:miter;stroke-width:0.8;"/>
   </g>
   <g id="patch_11">
    <path d="M 55.345313 288.430125 
L 412.465313 288.430125 
" style="fill:none;stroke:#000000;stroke-linecap:square;stroke-linejoin:miter;stroke-width:0.8;"/>
   </g>
   <g id="patch_12">
    <path d="M 55.345313 22.318125 
L 412.465313 22.318125 
" style="fill:none;stroke:#000000;stroke-linecap:square;stroke-linejoin:miter;stroke-width:0.8;"/>
   </g>
  </g>
 </g>
 <defs>
  <clipPath id="p9b9e7e732f">
   <rect height="266.112" width="357.12" x="55.345313" y="22.318125"/>
  </clipPath>
 </defs>
</svg>
