<?xml version="1.0" encoding="utf-8" standalone="no"?>
<!DOCTYPE svg PUBLIC "-//W3C//DTD SVG 1.1//EN"
  "http://www.w3.org/Graphics/SVG/1.1/DTD/svg11.dtd">
<!-- Created with matplotlib (https://matplotlib.org/) -->
<svg height="358.22505pt" version="1.1" viewBox="0 0 465.793437 358.22505" width="465.793437pt" xmlns="http://www.w3.org/2000/svg" xmlns:xlink="http://www.w3.org/1999/xlink">
 <defs>
  <style type="text/css">
*{stroke-linecap:butt;stroke-linejoin:round;}
  </style>
 </defs>
 <g id="figure_1">
  <g id="patch_1">
   <path d="M 0 358.22505 
L 465.793437 358.22505 
L 465.793437 0 
L 0 0 
z
" style="fill:#ffffff;"/>
  </g>
  <g id="axes_1">
   <g id="patch_2">
    <path d="M 55.345313 288.430125 
L 412.465312 288.430125 
L 412.465312 22.318125 
L 55.345313 22.318125 
z
" style="fill:#ffffff;"/>
   </g>
   <g id="matplotlib.axis_1">
    <g id="xtick_1">
     <g id="line2d_1">
      <defs>
       <path d="M 0 0 
L 0 3.5 
" id="m69f07fa208" style="stroke:#000000;stroke-width:0.8;"/>
      </defs>
      <g>
       <use style="stroke:#000000;stroke-width:0.8;" x="71.57804" xlink:href="#m69f07fa208" y="288.430125"/>
      </g>
     </g>
     <g id="text_1">
      <!-- 0 -->
      <defs>
       <path d="M 31.78125 66.40625 
Q 24.171875 66.40625 20.328125 58.90625 
Q 16.5 51.421875 16.5 36.375 
Q 16.5 21.390625 20.328125 13.890625 
Q 24.171875 6.390625 31.78125 6.390625 
Q 39.453125 6.390625 43.28125 13.890625 
Q 47.125 21.390625 47.125 36.375 
Q 47.125 51.421875 43.28125 58.90625 
Q 39.453125 66.40625 31.78125 66.40625 
z
M 31.78125 74.21875 
Q 44.046875 74.21875 50.515625 64.515625 
Q 56.984375 54.828125 56.984375 36.375 
Q 56.984375 17.96875 50.515625 8.265625 
Q 44.046875 -1.421875 31.78125 -1.421875 
Q 19.53125 -1.421875 13.0625 8.265625 
Q 6.59375 17.96875 6.59375 36.375 
Q 6.59375 54.828125 13.0625 64.515625 
Q 19.53125 74.21875 31.78125 74.21875 
z
" id="DejaVuSans-48"/>
      </defs>
      <g transform="translate(68.39679 303.028562)scale(0.1 -0.1)">
       <use xlink:href="#DejaVuSans-48"/>
      </g>
     </g>
    </g>
    <g id="xtick_2">
     <g id="line2d_2">
      <g>
       <use style="stroke:#000000;stroke-width:0.8;" x="115.929754" xlink:href="#m69f07fa208" y="288.430125"/>
      </g>
     </g>
     <g id="text_2">
      <!-- 50 -->
      <defs>
       <path d="M 10.796875 72.90625 
L 49.515625 72.90625 
L 49.515625 64.59375 
L 19.828125 64.59375 
L 19.828125 46.734375 
Q 21.96875 47.46875 24.109375 47.828125 
Q 26.265625 48.1875 28.421875 48.1875 
Q 40.625 48.1875 47.75 41.5 
Q 54.890625 34.8125 54.890625 23.390625 
Q 54.890625 11.625 47.5625 5.09375 
Q 40.234375 -1.421875 26.90625 -1.421875 
Q 22.3125 -1.421875 17.546875 -0.640625 
Q 12.796875 0.140625 7.71875 1.703125 
L 7.71875 11.625 
Q 12.109375 9.234375 16.796875 8.0625 
Q 21.484375 6.890625 26.703125 6.890625 
Q 35.15625 6.890625 40.078125 11.328125 
Q 45.015625 15.765625 45.015625 23.390625 
Q 45.015625 31 40.078125 35.4375 
Q 35.15625 39.890625 26.703125 39.890625 
Q 22.75 39.890625 18.8125 39.015625 
Q 14.890625 38.140625 10.796875 36.28125 
z
" id="DejaVuSans-53"/>
      </defs>
      <g transform="translate(109.567254 303.028562)scale(0.1 -0.1)">
       <use xlink:href="#DejaVuSans-53"/>
       <use x="63.623047" xlink:href="#DejaVuSans-48"/>
      </g>
     </g>
    </g>
    <g id="xtick_3">
     <g id="line2d_3">
      <g>
       <use style="stroke:#000000;stroke-width:0.8;" x="160.281467" xlink:href="#m69f07fa208" y="288.430125"/>
      </g>
     </g>
     <g id="text_3">
      <!-- 100 -->
      <defs>
       <path d="M 12.40625 8.296875 
L 28.515625 8.296875 
L 28.515625 63.921875 
L 10.984375 60.40625 
L 10.984375 69.390625 
L 28.421875 72.90625 
L 38.28125 72.90625 
L 38.28125 8.296875 
L 54.390625 8.296875 
L 54.390625 0 
L 12.40625 0 
z
" id="DejaVuSans-49"/>
      </defs>
      <g transform="translate(150.737717 303.028562)scale(0.1 -0.1)">
       <use xlink:href="#DejaVuSans-49"/>
       <use x="63.623047" xlink:href="#DejaVuSans-48"/>
       <use x="127.246094" xlink:href="#DejaVuSans-48"/>
      </g>
     </g>
    </g>
    <g id="xtick_4">
     <g id="line2d_4">
      <g>
       <use style="stroke:#000000;stroke-width:0.8;" x="204.633181" xlink:href="#m69f07fa208" y="288.430125"/>
      </g>
     </g>
     <g id="text_4">
      <!-- 150 -->
      <g transform="translate(195.089431 303.028562)scale(0.1 -0.1)">
       <use xlink:href="#DejaVuSans-49"/>
       <use x="63.623047" xlink:href="#DejaVuSans-53"/>
       <use x="127.246094" xlink:href="#DejaVuSans-48"/>
      </g>
     </g>
    </g>
    <g id="xtick_5">
     <g id="line2d_5">
      <g>
       <use style="stroke:#000000;stroke-width:0.8;" x="248.984895" xlink:href="#m69f07fa208" y="288.430125"/>
      </g>
     </g>
     <g id="text_5">
      <!-- 200 -->
      <defs>
       <path d="M 19.1875 8.296875 
L 53.609375 8.296875 
L 53.609375 0 
L 7.328125 0 
L 7.328125 8.296875 
Q 12.9375 14.109375 22.625 23.890625 
Q 32.328125 33.6875 34.8125 36.53125 
Q 39.546875 41.84375 41.421875 45.53125 
Q 43.3125 49.21875 43.3125 52.78125 
Q 43.3125 58.59375 39.234375 62.25 
Q 35.15625 65.921875 28.609375 65.921875 
Q 23.96875 65.921875 18.8125 64.3125 
Q 13.671875 62.703125 7.8125 59.421875 
L 7.8125 69.390625 
Q 13.765625 71.78125 18.9375 73 
Q 24.125 74.21875 28.421875 74.21875 
Q 39.75 74.21875 46.484375 68.546875 
Q 53.21875 62.890625 53.21875 53.421875 
Q 53.21875 48.921875 51.53125 44.890625 
Q 49.859375 40.875 45.40625 35.40625 
Q 44.1875 33.984375 37.640625 27.21875 
Q 31.109375 20.453125 19.1875 8.296875 
z
" id="DejaVuSans-50"/>
      </defs>
      <g transform="translate(239.441145 303.028562)scale(0.1 -0.1)">
       <use xlink:href="#DejaVuSans-50"/>
       <use x="63.623047" xlink:href="#DejaVuSans-48"/>
       <use x="127.246094" xlink:href="#DejaVuSans-48"/>
      </g>
     </g>
    </g>
    <g id="xtick_6">
     <g id="line2d_6">
      <g>
       <use style="stroke:#000000;stroke-width:0.8;" x="293.336609" xlink:href="#m69f07fa208" y="288.430125"/>
      </g>
     </g>
     <g id="text_6">
      <!-- 250 -->
      <g transform="translate(283.792859 303.028562)scale(0.1 -0.1)">
       <use xlink:href="#DejaVuSans-50"/>
       <use x="63.623047" xlink:href="#DejaVuSans-53"/>
       <use x="127.246094" xlink:href="#DejaVuSans-48"/>
      </g>
     </g>
    </g>
    <g id="xtick_7">
     <g id="line2d_7">
      <g>
       <use style="stroke:#000000;stroke-width:0.8;" x="337.688323" xlink:href="#m69f07fa208" y="288.430125"/>
      </g>
     </g>
     <g id="text_7">
      <!-- 300 -->
      <defs>
       <path d="M 40.578125 39.3125 
Q 47.65625 37.796875 51.625 33 
Q 55.609375 28.21875 55.609375 21.1875 
Q 55.609375 10.40625 48.1875 4.484375 
Q 40.765625 -1.421875 27.09375 -1.421875 
Q 22.515625 -1.421875 17.65625 -0.515625 
Q 12.796875 0.390625 7.625 2.203125 
L 7.625 11.71875 
Q 11.71875 9.328125 16.59375 8.109375 
Q 21.484375 6.890625 26.8125 6.890625 
Q 36.078125 6.890625 40.9375 10.546875 
Q 45.796875 14.203125 45.796875 21.1875 
Q 45.796875 27.640625 41.28125 31.265625 
Q 36.765625 34.90625 28.71875 34.90625 
L 20.21875 34.90625 
L 20.21875 43.015625 
L 29.109375 43.015625 
Q 36.375 43.015625 40.234375 45.921875 
Q 44.09375 48.828125 44.09375 54.296875 
Q 44.09375 59.90625 40.109375 62.90625 
Q 36.140625 65.921875 28.71875 65.921875 
Q 24.65625 65.921875 20.015625 65.03125 
Q 15.375 64.15625 9.8125 62.3125 
L 9.8125 71.09375 
Q 15.4375 72.65625 20.34375 73.4375 
Q 25.25 74.21875 29.59375 74.21875 
Q 40.828125 74.21875 47.359375 69.109375 
Q 53.90625 64.015625 53.90625 55.328125 
Q 53.90625 49.265625 50.4375 45.09375 
Q 46.96875 40.921875 40.578125 39.3125 
z
" id="DejaVuSans-51"/>
      </defs>
      <g transform="translate(328.144573 303.028562)scale(0.1 -0.1)">
       <use xlink:href="#DejaVuSans-51"/>
       <use x="63.623047" xlink:href="#DejaVuSans-48"/>
       <use x="127.246094" xlink:href="#DejaVuSans-48"/>
      </g>
     </g>
    </g>
    <g id="xtick_8">
     <g id="line2d_8">
      <g>
       <use style="stroke:#000000;stroke-width:0.8;" x="382.040037" xlink:href="#m69f07fa208" y="288.430125"/>
      </g>
     </g>
     <g id="text_8">
      <!-- 350 -->
      <g transform="translate(372.496287 303.028562)scale(0.1 -0.1)">
       <use xlink:href="#DejaVuSans-51"/>
       <use x="63.623047" xlink:href="#DejaVuSans-53"/>
       <use x="127.246094" xlink:href="#DejaVuSans-48"/>
      </g>
     </g>
    </g>
    <g id="text_9">
     <!-- Iteration -->
     <defs>
      <path d="M 9.8125 72.90625 
L 19.671875 72.90625 
L 19.671875 0 
L 9.8125 0 
z
" id="DejaVuSans-73"/>
      <path d="M 18.3125 70.21875 
L 18.3125 54.6875 
L 36.8125 54.6875 
L 36.8125 47.703125 
L 18.3125 47.703125 
L 18.3125 18.015625 
Q 18.3125 11.328125 20.140625 9.421875 
Q 21.96875 7.515625 27.59375 7.515625 
L 36.8125 7.515625 
L 36.8125 0 
L 27.59375 0 
Q 17.1875 0 13.234375 3.875 
Q 9.28125 7.765625 9.28125 18.015625 
L 9.28125 47.703125 
L 2.6875 47.703125 
L 2.6875 54.6875 
L 9.28125 54.6875 
L 9.28125 70.21875 
z
" id="DejaVuSans-116"/>
      <path d="M 56.203125 29.59375 
L 56.203125 25.203125 
L 14.890625 25.203125 
Q 15.484375 15.921875 20.484375 11.0625 
Q 25.484375 6.203125 34.421875 6.203125 
Q 39.59375 6.203125 44.453125 7.46875 
Q 49.3125 8.734375 54.109375 11.28125 
L 54.109375 2.78125 
Q 49.265625 0.734375 44.1875 -0.34375 
Q 39.109375 -1.421875 33.890625 -1.421875 
Q 20.796875 -1.421875 13.15625 6.1875 
Q 5.515625 13.8125 5.515625 26.8125 
Q 5.515625 40.234375 12.765625 48.109375 
Q 20.015625 56 32.328125 56 
Q 43.359375 56 49.78125 48.890625 
Q 56.203125 41.796875 56.203125 29.59375 
z
M 47.21875 32.234375 
Q 47.125 39.59375 43.09375 43.984375 
Q 39.0625 48.390625 32.421875 48.390625 
Q 24.90625 48.390625 20.390625 44.140625 
Q 15.875 39.890625 15.1875 32.171875 
z
" id="DejaVuSans-101"/>
      <path d="M 41.109375 46.296875 
Q 39.59375 47.171875 37.8125 47.578125 
Q 36.03125 48 33.890625 48 
Q 26.265625 48 22.1875 43.046875 
Q 18.109375 38.09375 18.109375 28.8125 
L 18.109375 0 
L 9.078125 0 
L 9.078125 54.6875 
L 18.109375 54.6875 
L 18.109375 46.1875 
Q 20.953125 51.171875 25.484375 53.578125 
Q 30.03125 56 36.53125 56 
Q 37.453125 56 38.578125 55.875 
Q 39.703125 55.765625 41.0625 55.515625 
z
" id="DejaVuSans-114"/>
      <path d="M 34.28125 27.484375 
Q 23.390625 27.484375 19.1875 25 
Q 14.984375 22.515625 14.984375 16.5 
Q 14.984375 11.71875 18.140625 8.90625 
Q 21.296875 6.109375 26.703125 6.109375 
Q 34.1875 6.109375 38.703125 11.40625 
Q 43.21875 16.703125 43.21875 25.484375 
L 43.21875 27.484375 
z
M 52.203125 31.203125 
L 52.203125 0 
L 43.21875 0 
L 43.21875 8.296875 
Q 40.140625 3.328125 35.546875 0.953125 
Q 30.953125 -1.421875 24.3125 -1.421875 
Q 15.921875 -1.421875 10.953125 3.296875 
Q 6 8.015625 6 15.921875 
Q 6 25.140625 12.171875 29.828125 
Q 18.359375 34.515625 30.609375 34.515625 
L 43.21875 34.515625 
L 43.21875 35.40625 
Q 43.21875 41.609375 39.140625 45 
Q 35.0625 48.390625 27.6875 48.390625 
Q 23 48.390625 18.546875 47.265625 
Q 14.109375 46.140625 10.015625 43.890625 
L 10.015625 52.203125 
Q 14.9375 54.109375 19.578125 55.046875 
Q 24.21875 56 28.609375 56 
Q 40.484375 56 46.34375 49.84375 
Q 52.203125 43.703125 52.203125 31.203125 
z
" id="DejaVuSans-97"/>
      <path d="M 9.421875 54.6875 
L 18.40625 54.6875 
L 18.40625 0 
L 9.421875 0 
z
M 9.421875 75.984375 
L 18.40625 75.984375 
L 18.40625 64.59375 
L 9.421875 64.59375 
z
" id="DejaVuSans-105"/>
      <path d="M 30.609375 48.390625 
Q 23.390625 48.390625 19.1875 42.75 
Q 14.984375 37.109375 14.984375 27.296875 
Q 14.984375 17.484375 19.15625 11.84375 
Q 23.34375 6.203125 30.609375 6.203125 
Q 37.796875 6.203125 41.984375 11.859375 
Q 46.1875 17.53125 46.1875 27.296875 
Q 46.1875 37.015625 41.984375 42.703125 
Q 37.796875 48.390625 30.609375 48.390625 
z
M 30.609375 56 
Q 42.328125 56 49.015625 48.375 
Q 55.71875 40.765625 55.71875 27.296875 
Q 55.71875 13.875 49.015625 6.21875 
Q 42.328125 -1.421875 30.609375 -1.421875 
Q 18.84375 -1.421875 12.171875 6.21875 
Q 5.515625 13.875 5.515625 27.296875 
Q 5.515625 40.765625 12.171875 48.375 
Q 18.84375 56 30.609375 56 
z
" id="DejaVuSans-111"/>
      <path d="M 54.890625 33.015625 
L 54.890625 0 
L 45.90625 0 
L 45.90625 32.71875 
Q 45.90625 40.484375 42.875 44.328125 
Q 39.84375 48.1875 33.796875 48.1875 
Q 26.515625 48.1875 22.3125 43.546875 
Q 18.109375 38.921875 18.109375 30.90625 
L 18.109375 0 
L 9.078125 0 
L 9.078125 54.6875 
L 18.109375 54.6875 
L 18.109375 46.1875 
Q 21.34375 51.125 25.703125 53.5625 
Q 30.078125 56 35.796875 56 
Q 45.21875 56 50.046875 50.171875 
Q 54.890625 44.34375 54.890625 33.015625 
z
" id="DejaVuSans-110"/>
     </defs>
     <g transform="translate(212.696719 316.706687)scale(0.1 -0.1)">
      <use xlink:href="#DejaVuSans-73"/>
      <use x="29.492188" xlink:href="#DejaVuSans-116"/>
      <use x="68.701172" xlink:href="#DejaVuSans-101"/>
      <use x="130.224609" xlink:href="#DejaVuSans-114"/>
      <use x="171.337891" xlink:href="#DejaVuSans-97"/>
      <use x="232.617188" xlink:href="#DejaVuSans-116"/>
      <use x="271.826172" xlink:href="#DejaVuSans-105"/>
      <use x="299.609375" xlink:href="#DejaVuSans-111"/>
      <use x="360.791016" xlink:href="#DejaVuSans-110"/>
     </g>
    </g>
   </g>
   <g id="matplotlib.axis_2">
    <g id="ytick_1">
     <g id="line2d_9">
      <defs>
       <path d="M 0 0 
L -3.5 0 
" id="mfd06c4d45d" style="stroke:#000000;stroke-width:0.8;"/>
      </defs>
      <g>
       <use style="stroke:#000000;stroke-width:0.8;" x="55.345313" xlink:href="#mfd06c4d45d" y="255.352342"/>
      </g>
     </g>
     <g id="text_10">
      <!-- −200 -->
      <defs>
       <path d="M 10.59375 35.5 
L 73.1875 35.5 
L 73.1875 27.203125 
L 10.59375 27.203125 
z
" id="DejaVuSans-8722"/>
      </defs>
      <g transform="translate(20.878125 259.151561)scale(0.1 -0.1)">
       <use xlink:href="#DejaVuSans-8722"/>
       <use x="83.789062" xlink:href="#DejaVuSans-50"/>
       <use x="147.412109" xlink:href="#DejaVuSans-48"/>
       <use x="211.035156" xlink:href="#DejaVuSans-48"/>
      </g>
     </g>
    </g>
    <g id="ytick_2">
     <g id="line2d_10">
      <g>
       <use style="stroke:#000000;stroke-width:0.8;" x="55.345313" xlink:href="#mfd06c4d45d" y="203.889191"/>
      </g>
     </g>
     <g id="text_11">
      <!-- −100 -->
      <g transform="translate(20.878125 207.68841)scale(0.1 -0.1)">
       <use xlink:href="#DejaVuSans-8722"/>
       <use x="83.789062" xlink:href="#DejaVuSans-49"/>
       <use x="147.412109" xlink:href="#DejaVuSans-48"/>
       <use x="211.035156" xlink:href="#DejaVuSans-48"/>
      </g>
     </g>
    </g>
    <g id="ytick_3">
     <g id="line2d_11">
      <g>
       <use style="stroke:#000000;stroke-width:0.8;" x="55.345313" xlink:href="#mfd06c4d45d" y="152.426041"/>
      </g>
     </g>
     <g id="text_12">
      <!-- 0 -->
      <g transform="translate(41.982813 156.22526)scale(0.1 -0.1)">
       <use xlink:href="#DejaVuSans-48"/>
      </g>
     </g>
    </g>
    <g id="ytick_4">
     <g id="line2d_12">
      <g>
       <use style="stroke:#000000;stroke-width:0.8;" x="55.345313" xlink:href="#mfd06c4d45d" y="100.96289"/>
      </g>
     </g>
     <g id="text_13">
      <!-- 100 -->
      <g transform="translate(29.257813 104.762109)scale(0.1 -0.1)">
       <use xlink:href="#DejaVuSans-49"/>
       <use x="63.623047" xlink:href="#DejaVuSans-48"/>
       <use x="127.246094" xlink:href="#DejaVuSans-48"/>
      </g>
     </g>
    </g>
    <g id="ytick_5">
     <g id="line2d_13">
      <g>
       <use style="stroke:#000000;stroke-width:0.8;" x="55.345313" xlink:href="#mfd06c4d45d" y="49.49974"/>
      </g>
     </g>
     <g id="text_14">
      <!-- 200 -->
      <g transform="translate(29.257813 53.298959)scale(0.1 -0.1)">
       <use xlink:href="#DejaVuSans-50"/>
       <use x="63.623047" xlink:href="#DejaVuSans-48"/>
       <use x="127.246094" xlink:href="#DejaVuSans-48"/>
      </g>
     </g>
    </g>
    <g id="text_15">
     <!-- Accumulative Reward -->
     <defs>
      <path d="M 34.1875 63.1875 
L 20.796875 26.90625 
L 47.609375 26.90625 
z
M 28.609375 72.90625 
L 39.796875 72.90625 
L 67.578125 0 
L 57.328125 0 
L 50.6875 18.703125 
L 17.828125 18.703125 
L 11.1875 0 
L 0.78125 0 
z
" id="DejaVuSans-65"/>
      <path d="M 48.78125 52.59375 
L 48.78125 44.1875 
Q 44.96875 46.296875 41.140625 47.34375 
Q 37.3125 48.390625 33.40625 48.390625 
Q 24.65625 48.390625 19.8125 42.84375 
Q 14.984375 37.3125 14.984375 27.296875 
Q 14.984375 17.28125 19.8125 11.734375 
Q 24.65625 6.203125 33.40625 6.203125 
Q 37.3125 6.203125 41.140625 7.25 
Q 44.96875 8.296875 48.78125 10.40625 
L 48.78125 2.09375 
Q 45.015625 0.34375 40.984375 -0.53125 
Q 36.96875 -1.421875 32.421875 -1.421875 
Q 20.0625 -1.421875 12.78125 6.34375 
Q 5.515625 14.109375 5.515625 27.296875 
Q 5.515625 40.671875 12.859375 48.328125 
Q 20.21875 56 33.015625 56 
Q 37.15625 56 41.109375 55.140625 
Q 45.0625 54.296875 48.78125 52.59375 
z
" id="DejaVuSans-99"/>
      <path d="M 8.5 21.578125 
L 8.5 54.6875 
L 17.484375 54.6875 
L 17.484375 21.921875 
Q 17.484375 14.15625 20.5 10.265625 
Q 23.53125 6.390625 29.59375 6.390625 
Q 36.859375 6.390625 41.078125 11.03125 
Q 45.3125 15.671875 45.3125 23.6875 
L 45.3125 54.6875 
L 54.296875 54.6875 
L 54.296875 0 
L 45.3125 0 
L 45.3125 8.40625 
Q 42.046875 3.421875 37.71875 1 
Q 33.40625 -1.421875 27.6875 -1.421875 
Q 18.265625 -1.421875 13.375 4.4375 
Q 8.5 10.296875 8.5 21.578125 
z
M 31.109375 56 
z
" id="DejaVuSans-117"/>
      <path d="M 52 44.1875 
Q 55.375 50.25 60.0625 53.125 
Q 64.75 56 71.09375 56 
Q 79.640625 56 84.28125 50.015625 
Q 88.921875 44.046875 88.921875 33.015625 
L 88.921875 0 
L 79.890625 0 
L 79.890625 32.71875 
Q 79.890625 40.578125 77.09375 44.375 
Q 74.3125 48.1875 68.609375 48.1875 
Q 61.625 48.1875 57.5625 43.546875 
Q 53.515625 38.921875 53.515625 30.90625 
L 53.515625 0 
L 44.484375 0 
L 44.484375 32.71875 
Q 44.484375 40.625 41.703125 44.40625 
Q 38.921875 48.1875 33.109375 48.1875 
Q 26.21875 48.1875 22.15625 43.53125 
Q 18.109375 38.875 18.109375 30.90625 
L 18.109375 0 
L 9.078125 0 
L 9.078125 54.6875 
L 18.109375 54.6875 
L 18.109375 46.1875 
Q 21.1875 51.21875 25.484375 53.609375 
Q 29.78125 56 35.6875 56 
Q 41.65625 56 45.828125 52.96875 
Q 50 49.953125 52 44.1875 
z
" id="DejaVuSans-109"/>
      <path d="M 9.421875 75.984375 
L 18.40625 75.984375 
L 18.40625 0 
L 9.421875 0 
z
" id="DejaVuSans-108"/>
      <path d="M 2.984375 54.6875 
L 12.5 54.6875 
L 29.59375 8.796875 
L 46.6875 54.6875 
L 56.203125 54.6875 
L 35.6875 0 
L 23.484375 0 
z
" id="DejaVuSans-118"/>
      <path id="DejaVuSans-32"/>
      <path d="M 44.390625 34.1875 
Q 47.5625 33.109375 50.5625 29.59375 
Q 53.5625 26.078125 56.59375 19.921875 
L 66.609375 0 
L 56 0 
L 46.6875 18.703125 
Q 43.0625 26.03125 39.671875 28.421875 
Q 36.28125 30.8125 30.421875 30.8125 
L 19.671875 30.8125 
L 19.671875 0 
L 9.8125 0 
L 9.8125 72.90625 
L 32.078125 72.90625 
Q 44.578125 72.90625 50.734375 67.671875 
Q 56.890625 62.453125 56.890625 51.90625 
Q 56.890625 45.015625 53.6875 40.46875 
Q 50.484375 35.9375 44.390625 34.1875 
z
M 19.671875 64.796875 
L 19.671875 38.921875 
L 32.078125 38.921875 
Q 39.203125 38.921875 42.84375 42.21875 
Q 46.484375 45.515625 46.484375 51.90625 
Q 46.484375 58.296875 42.84375 61.546875 
Q 39.203125 64.796875 32.078125 64.796875 
z
" id="DejaVuSans-82"/>
      <path d="M 4.203125 54.6875 
L 13.1875 54.6875 
L 24.421875 12.015625 
L 35.59375 54.6875 
L 46.1875 54.6875 
L 57.421875 12.015625 
L 68.609375 54.6875 
L 77.59375 54.6875 
L 63.28125 0 
L 52.6875 0 
L 40.921875 44.828125 
L 29.109375 0 
L 18.5 0 
z
" id="DejaVuSans-119"/>
      <path d="M 45.40625 46.390625 
L 45.40625 75.984375 
L 54.390625 75.984375 
L 54.390625 0 
L 45.40625 0 
L 45.40625 8.203125 
Q 42.578125 3.328125 38.25 0.953125 
Q 33.9375 -1.421875 27.875 -1.421875 
Q 17.96875 -1.421875 11.734375 6.484375 
Q 5.515625 14.40625 5.515625 27.296875 
Q 5.515625 40.1875 11.734375 48.09375 
Q 17.96875 56 27.875 56 
Q 33.9375 56 38.25 53.625 
Q 42.578125 51.265625 45.40625 46.390625 
z
M 14.796875 27.296875 
Q 14.796875 17.390625 18.875 11.75 
Q 22.953125 6.109375 30.078125 6.109375 
Q 37.203125 6.109375 41.296875 11.75 
Q 45.40625 17.390625 45.40625 27.296875 
Q 45.40625 37.203125 41.296875 42.84375 
Q 37.203125 48.484375 30.078125 48.484375 
Q 22.953125 48.484375 18.875 42.84375 
Q 14.796875 37.203125 14.796875 27.296875 
z
" id="DejaVuSans-100"/>
     </defs>
     <g transform="translate(14.798438 209.856937)rotate(-90)scale(0.1 -0.1)">
      <use xlink:href="#DejaVuSans-65"/>
      <use x="68.392578" xlink:href="#DejaVuSans-99"/>
      <use x="123.373047" xlink:href="#DejaVuSans-99"/>
      <use x="178.353516" xlink:href="#DejaVuSans-117"/>
      <use x="241.732422" xlink:href="#DejaVuSans-109"/>
      <use x="339.144531" xlink:href="#DejaVuSans-117"/>
      <use x="402.523438" xlink:href="#DejaVuSans-108"/>
      <use x="430.306641" xlink:href="#DejaVuSans-97"/>
      <use x="491.585938" xlink:href="#DejaVuSans-116"/>
      <use x="530.794922" xlink:href="#DejaVuSans-105"/>
      <use x="558.578125" xlink:href="#DejaVuSans-118"/>
      <use x="617.757812" xlink:href="#DejaVuSans-101"/>
      <use x="679.28125" xlink:href="#DejaVuSans-32"/>
      <use x="711.068359" xlink:href="#DejaVuSans-82"/>
      <use x="780.488281" xlink:href="#DejaVuSans-101"/>
      <use x="842.011719" xlink:href="#DejaVuSans-119"/>
      <use x="923.798828" xlink:href="#DejaVuSans-97"/>
      <use x="985.078125" xlink:href="#DejaVuSans-114"/>
      <use x="1026.175781" xlink:href="#DejaVuSans-100"/>
     </g>
    </g>
   </g>
   <g id="line2d_14">
    <path clip-path="url(#p86b23ff32e)" d="M 71.57804 226.878575 
L 73.352108 208.397178 
L 74.239143 210.245224 
L 75.126177 198.521494 
L 76.013211 206.194108 
L 76.900245 205.394121 
L 77.78728 202.289051 
L 78.674314 200.656242 
L 79.561348 198.738106 
L 80.448383 194.231689 
L 81.335417 212.475906 
L 82.222451 223.854587 
L 83.109485 257.803895 
L 83.99652 273.544845 
L 84.883554 243.940017 
L 85.770588 276.334125 
L 86.657622 243.308754 
L 87.544657 215.999268 
L 88.431691 209.716217 
L 89.318725 196.061163 
L 90.20576 190.040421 
L 91.092794 219.93166 
L 91.979828 237.669534 
L 92.866862 171.348576 
L 93.753897 165.790324 
L 94.640931 175.118008 
L 95.527965 180.764388 
L 96.415 153.534425 
L 97.302034 155.571378 
L 98.189068 135.312273 
L 99.076102 144.785432 
L 99.963137 129.663554 
L 100.850171 126.731934 
L 101.737205 130.349446 
L 102.624239 106.381307 
L 103.511274 118.915519 
L 104.398308 129.608239 
L 105.285342 103.786868 
L 106.172377 109.076521 
L 107.059411 118.149857 
L 107.946445 97.350782 
L 109.720514 132.201236 
L 110.607548 139.044219 
L 111.494582 148.669389 
L 112.381617 130.128421 
L 113.268651 126.845265 
L 114.155685 94.177495 
L 115.042719 121.605857 
L 115.929754 153.479746 
L 116.816788 158.47302 
L 117.703822 122.515512 
L 118.590856 141.035794 
L 119.477891 136.544225 
L 120.364925 143.770242 
L 121.251959 106.723142 
L 122.138994 127.150852 
L 123.026028 103.159503 
L 123.913062 120.841406 
L 124.800096 113.443095 
L 125.687131 117.88452 
L 126.574165 123.650011 
L 127.461199 139.093065 
L 128.348234 151.34306 
L 129.235268 115.354749 
L 130.122302 133.98022 
L 131.009336 149.926705 
L 132.783405 123.486885 
L 133.670439 146.519723 
L 134.557473 129.345655 
L 136.331542 156.738735 
L 137.218576 124.224216 
L 138.105611 117.916309 
L 138.992645 117.020235 
L 139.879679 155.669355 
L 140.766713 124.593743 
L 141.653748 124.818667 
L 142.540782 124.25564 
L 143.427816 137.678659 
L 144.314851 126.464962 
L 145.201885 103.303753 
L 146.088919 124.35319 
L 146.975953 93.980956 
L 147.862988 135.034018 
L 148.750022 139.425417 
L 149.637056 84.28405 
L 150.52409 98.739924 
L 151.411125 94.371561 
L 152.298159 100.391927 
L 153.185193 121.104058 
L 154.072228 119.334677 
L 154.959262 93.846791 
L 155.846296 111.825444 
L 156.73333 114.770779 
L 157.620365 123.665449 
L 159.394433 97.14034 
L 160.281467 95.935198 
L 161.168502 109.329423 
L 162.055536 103.194652 
L 162.94257 98.248922 
L 163.829605 111.498704 
L 164.716639 106.096997 
L 165.603673 117.244091 
L 166.490707 90.119568 
L 167.377742 97.931692 
L 168.264776 84.593965 
L 169.15181 105.773655 
L 170.038845 115.185847 
L 170.925879 126.034706 
L 171.812913 127.374671 
L 172.699947 97.031361 
L 173.586982 101.869234 
L 174.474016 65.928411 
L 175.36105 86.828849 
L 176.248084 96.288627 
L 177.135119 116.852385 
L 178.022153 110.818469 
L 178.909187 141.974829 
L 179.796222 116.895421 
L 180.683256 82.815461 
L 181.57029 78.032083 
L 183.344359 104.214142 
L 184.231393 81.440159 
L 185.118427 95.194486 
L 186.005462 111.806258 
L 186.892496 116.594481 
L 187.77953 79.106844 
L 188.666564 95.860628 
L 190.440633 68.235395 
L 191.327667 96.543344 
L 192.214701 68.260036 
L 193.101736 73.251565 
L 193.98877 82.903938 
L 194.875804 89.541808 
L 195.762839 78.868199 
L 196.649873 98.639354 
L 197.536907 64.744371 
L 198.423941 62.386614 
L 199.310976 121.853813 
L 200.19801 73.378338 
L 201.085044 85.089777 
L 201.972079 55.005619 
L 202.859113 100.820615 
L 203.746147 93.203605 
L 204.633181 66.660847 
L 205.520216 95.594081 
L 206.40725 59.44754 
L 207.294284 88.897025 
L 208.181318 64.054106 
L 209.068353 93.230313 
L 209.955387 75.053356 
L 210.842421 102.910076 
L 211.729456 85.261709 
L 212.61649 81.463053 
L 213.503524 71.90374 
L 214.390558 64.359569 
L 215.277593 95.912088 
L 216.164627 57.906882 
L 217.051661 72.494143 
L 217.938696 83.161878 
L 218.82573 90.71098 
L 219.712764 70.817276 
L 220.599798 57.154879 
L 221.486833 67.318528 
L 222.373867 67.964716 
L 223.260901 86.393994 
L 224.147935 89.042112 
L 225.922004 73.261153 
L 227.696073 60.896624 
L 228.583107 63.952693 
L 229.470141 64.636507 
L 230.357175 39.652826 
L 231.24421 43.848942 
L 232.131244 68.630626 
L 233.018278 54.87825 
L 233.905312 64.333716 
L 234.792347 69.929948 
L 235.679381 68.090946 
L 236.566415 70.881498 
L 237.45345 59.401954 
L 238.340484 76.087261 
L 239.227518 76.421203 
L 240.114552 81.644193 
L 241.001587 76.631399 
L 241.888621 102.934886 
L 242.775655 63.667009 
L 243.66269 73.664292 
L 244.549724 61.597276 
L 245.436758 72.60574 
L 246.323792 70.040072 
L 247.210827 51.102255 
L 248.097861 80.117477 
L 248.984895 65.302549 
L 249.871929 106.393989 
L 250.758964 77.602719 
L 251.645998 83.603221 
L 252.533032 92.199903 
L 253.420067 93.134369 
L 254.307101 80.351733 
L 255.194135 74.198204 
L 256.081169 65.991898 
L 256.968204 72.875735 
L 257.855238 74.815833 
L 258.742272 55.23707 
L 259.629307 51.595199 
L 260.516341 38.4154 
L 261.403375 52.63482 
L 262.290409 72.093512 
L 263.177444 72.226287 
L 264.064478 67.571849 
L 264.951512 42.818882 
L 265.838546 60.312294 
L 266.725581 58.233659 
L 267.612615 50.702976 
L 268.499649 65.953218 
L 269.386684 53.167565 
L 270.273718 72.91206 
L 271.160752 52.808484 
L 272.047786 61.868495 
L 272.934821 90.735579 
L 273.821855 61.280154 
L 274.708889 68.204094 
L 275.595924 80.195019 
L 276.482958 65.141193 
L 277.369992 58.528558 
L 278.257026 63.845837 
L 279.144061 78.588412 
L 280.031095 90.244769 
L 280.918129 80.149718 
L 281.805163 57.413534 
L 282.692198 56.471162 
L 283.579232 45.30066 
L 284.466266 56.120677 
L 285.353301 34.414125 
L 286.240335 53.598475 
L 287.127369 59.865824 
L 288.014403 78.528638 
L 288.901438 53.691895 
L 289.788472 70.311346 
L 290.675506 62.551273 
L 291.562541 100.482125 
L 292.449575 80.650262 
L 293.336609 72.801167 
L 294.223643 74.62826 
L 295.110678 70.090224 
L 295.997712 71.245929 
L 296.884746 70.412408 
L 297.77178 56.025194 
L 298.658815 61.806548 
L 299.545849 85.197499 
L 300.432883 87.08728 
L 301.319918 64.805946 
L 302.206952 101.610138 
L 303.093986 64.146987 
L 303.98102 60.269411 
L 304.868055 68.140661 
L 305.755089 79.827957 
L 306.642123 71.431607 
L 307.529158 72.165449 
L 308.416192 88.064902 
L 309.303226 94.04744 
L 310.19026 99.255509 
L 311.964329 77.386702 
L 312.851363 89.070326 
L 314.625432 64.789256 
L 315.512466 86.02083 
L 316.3995 57.99127 
L 317.286535 49.964741 
L 318.173569 58.242807 
L 319.060603 84.790374 
L 319.947637 68.896364 
L 320.834672 64.671681 
L 321.721706 64.470213 
L 322.60874 92.126671 
L 323.495774 68.857391 
L 324.382809 74.795692 
L 325.269843 77.284799 
L 326.156877 81.4763 
L 327.043912 70.296339 
L 327.930946 87.293478 
L 328.81798 107.984221 
L 329.705014 85.789272 
L 330.592049 98.883088 
L 331.479083 94.808191 
L 333.253152 57.952434 
L 334.140186 87.037083 
L 335.02722 83.208499 
L 335.914254 86.79386 
L 336.801289 91.789228 
L 337.688323 78.870643 
L 338.575357 77.10852 
L 339.462391 68.62694 
L 341.23646 80.714532 
L 342.123494 111.638758 
L 343.010529 75.466451 
L 343.897563 83.317883 
L 344.784597 76.888572 
L 345.671631 59.818447 
L 346.558666 69.241847 
L 347.4457 83.406554 
L 348.332734 81.850085 
L 349.219769 74.6662 
L 350.106803 76.705171 
L 350.993837 83.693161 
L 351.880871 62.356218 
L 352.767906 98.761412 
L 353.65494 79.13591 
L 354.541974 74.96986 
L 355.429008 64.591817 
L 356.316043 68.879115 
L 357.203077 93.841717 
L 358.090111 64.547768 
L 358.977146 78.18304 
L 359.86418 86.964225 
L 360.751214 80.929034 
L 361.638248 99.008742 
L 362.525283 83.243584 
L 363.412317 57.945434 
L 364.299351 68.344277 
L 365.186386 86.288047 
L 366.07342 90.962527 
L 366.960454 96.272022 
L 367.847488 96.815073 
L 368.734523 90.644817 
L 369.621557 68.743349 
L 370.508591 75.431407 
L 371.395625 70.646371 
L 372.28266 98.506927 
L 373.169694 63.35748 
L 374.056728 104.515692 
L 374.943763 74.191715 
L 375.830797 79.94225 
L 376.717831 80.041045 
L 377.604865 71.926541 
L 378.4919 98.399477 
L 379.378934 90.07204 
L 380.265968 73.554912 
L 381.153003 80.912401 
L 382.040037 58.050431 
L 382.927071 101.367651 
L 383.814105 81.349352 
L 384.70114 76.98182 
L 385.588174 81.403968 
L 386.475208 50.741374 
L 387.362242 68.14714 
L 388.249277 102.426742 
L 389.136311 85.423711 
L 390.023345 87.553949 
L 390.91038 87.320023 
L 391.797414 78.645108 
L 392.684448 78.536659 
L 393.571482 76.175808 
L 394.458517 98.827854 
L 395.345551 84.865277 
L 396.232585 92.459981 
L 396.232585 92.459981 
" style="fill:none;stroke:#ff0000;stroke-linecap:square;stroke-width:1.5;"/>
   </g>
   <g id="patch_3">
    <path d="M 55.345313 288.430125 
L 55.345313 22.318125 
" style="fill:none;stroke:#000000;stroke-linecap:square;stroke-linejoin:miter;stroke-width:0.8;"/>
   </g>
   <g id="patch_4">
    <path d="M 412.465312 288.430125 
L 412.465312 22.318125 
" style="fill:none;stroke:#000000;stroke-linecap:square;stroke-linejoin:miter;stroke-width:0.8;"/>
   </g>
   <g id="patch_5">
    <path d="M 55.345313 288.430125 
L 412.465312 288.430125 
" style="fill:none;stroke:#000000;stroke-linecap:square;stroke-linejoin:miter;stroke-width:0.8;"/>
   </g>
   <g id="patch_6">
    <path d="M 55.345313 22.318125 
L 412.465312 22.318125 
" style="fill:none;stroke:#000000;stroke-linecap:square;stroke-linejoin:miter;stroke-width:0.8;"/>
   </g>
   <g id="text_16">
    <!-- Mean Rewards and Episode Lengths for Each Training Cycle. -->
    <defs>
     <path d="M 9.8125 72.90625 
L 24.515625 72.90625 
L 43.109375 23.296875 
L 61.8125 72.90625 
L 76.515625 72.90625 
L 76.515625 0 
L 66.890625 0 
L 66.890625 64.015625 
L 48.09375 14.015625 
L 38.1875 14.015625 
L 19.390625 64.015625 
L 19.390625 0 
L 9.8125 0 
z
" id="DejaVuSans-77"/>
     <path d="M 44.28125 53.078125 
L 44.28125 44.578125 
Q 40.484375 46.53125 36.375 47.5 
Q 32.28125 48.484375 27.875 48.484375 
Q 21.1875 48.484375 17.84375 46.4375 
Q 14.5 44.390625 14.5 40.28125 
Q 14.5 37.15625 16.890625 35.375 
Q 19.28125 33.59375 26.515625 31.984375 
L 29.59375 31.296875 
Q 39.15625 29.25 43.1875 25.515625 
Q 47.21875 21.78125 47.21875 15.09375 
Q 47.21875 7.46875 41.1875 3.015625 
Q 35.15625 -1.421875 24.609375 -1.421875 
Q 20.21875 -1.421875 15.453125 -0.5625 
Q 10.6875 0.296875 5.421875 2 
L 5.421875 11.28125 
Q 10.40625 8.6875 15.234375 7.390625 
Q 20.0625 6.109375 24.8125 6.109375 
Q 31.15625 6.109375 34.5625 8.28125 
Q 37.984375 10.453125 37.984375 14.40625 
Q 37.984375 18.0625 35.515625 20.015625 
Q 33.0625 21.96875 24.703125 23.78125 
L 21.578125 24.515625 
Q 13.234375 26.265625 9.515625 29.90625 
Q 5.8125 33.546875 5.8125 39.890625 
Q 5.8125 47.609375 11.28125 51.796875 
Q 16.75 56 26.8125 56 
Q 31.78125 56 36.171875 55.265625 
Q 40.578125 54.546875 44.28125 53.078125 
z
" id="DejaVuSans-115"/>
     <path d="M 9.8125 72.90625 
L 55.90625 72.90625 
L 55.90625 64.59375 
L 19.671875 64.59375 
L 19.671875 43.015625 
L 54.390625 43.015625 
L 54.390625 34.71875 
L 19.671875 34.71875 
L 19.671875 8.296875 
L 56.78125 8.296875 
L 56.78125 0 
L 9.8125 0 
z
" id="DejaVuSans-69"/>
     <path d="M 18.109375 8.203125 
L 18.109375 -20.796875 
L 9.078125 -20.796875 
L 9.078125 54.6875 
L 18.109375 54.6875 
L 18.109375 46.390625 
Q 20.953125 51.265625 25.265625 53.625 
Q 29.59375 56 35.59375 56 
Q 45.5625 56 51.78125 48.09375 
Q 58.015625 40.1875 58.015625 27.296875 
Q 58.015625 14.40625 51.78125 6.484375 
Q 45.5625 -1.421875 35.59375 -1.421875 
Q 29.59375 -1.421875 25.265625 0.953125 
Q 20.953125 3.328125 18.109375 8.203125 
z
M 48.6875 27.296875 
Q 48.6875 37.203125 44.609375 42.84375 
Q 40.53125 48.484375 33.40625 48.484375 
Q 26.265625 48.484375 22.1875 42.84375 
Q 18.109375 37.203125 18.109375 27.296875 
Q 18.109375 17.390625 22.1875 11.75 
Q 26.265625 6.109375 33.40625 6.109375 
Q 40.53125 6.109375 44.609375 11.75 
Q 48.6875 17.390625 48.6875 27.296875 
z
" id="DejaVuSans-112"/>
     <path d="M 9.8125 72.90625 
L 19.671875 72.90625 
L 19.671875 8.296875 
L 55.171875 8.296875 
L 55.171875 0 
L 9.8125 0 
z
" id="DejaVuSans-76"/>
     <path d="M 45.40625 27.984375 
Q 45.40625 37.75 41.375 43.109375 
Q 37.359375 48.484375 30.078125 48.484375 
Q 22.859375 48.484375 18.828125 43.109375 
Q 14.796875 37.75 14.796875 27.984375 
Q 14.796875 18.265625 18.828125 12.890625 
Q 22.859375 7.515625 30.078125 7.515625 
Q 37.359375 7.515625 41.375 12.890625 
Q 45.40625 18.265625 45.40625 27.984375 
z
M 54.390625 6.78125 
Q 54.390625 -7.171875 48.1875 -13.984375 
Q 42 -20.796875 29.203125 -20.796875 
Q 24.46875 -20.796875 20.265625 -20.09375 
Q 16.0625 -19.390625 12.109375 -17.921875 
L 12.109375 -9.1875 
Q 16.0625 -11.328125 19.921875 -12.34375 
Q 23.78125 -13.375 27.78125 -13.375 
Q 36.625 -13.375 41.015625 -8.765625 
Q 45.40625 -4.15625 45.40625 5.171875 
L 45.40625 9.625 
Q 42.625 4.78125 38.28125 2.390625 
Q 33.9375 0 27.875 0 
Q 17.828125 0 11.671875 7.65625 
Q 5.515625 15.328125 5.515625 27.984375 
Q 5.515625 40.671875 11.671875 48.328125 
Q 17.828125 56 27.875 56 
Q 33.9375 56 38.28125 53.609375 
Q 42.625 51.21875 45.40625 46.390625 
L 45.40625 54.6875 
L 54.390625 54.6875 
z
" id="DejaVuSans-103"/>
     <path d="M 54.890625 33.015625 
L 54.890625 0 
L 45.90625 0 
L 45.90625 32.71875 
Q 45.90625 40.484375 42.875 44.328125 
Q 39.84375 48.1875 33.796875 48.1875 
Q 26.515625 48.1875 22.3125 43.546875 
Q 18.109375 38.921875 18.109375 30.90625 
L 18.109375 0 
L 9.078125 0 
L 9.078125 75.984375 
L 18.109375 75.984375 
L 18.109375 46.1875 
Q 21.34375 51.125 25.703125 53.5625 
Q 30.078125 56 35.796875 56 
Q 45.21875 56 50.046875 50.171875 
Q 54.890625 44.34375 54.890625 33.015625 
z
" id="DejaVuSans-104"/>
     <path d="M 37.109375 75.984375 
L 37.109375 68.5 
L 28.515625 68.5 
Q 23.6875 68.5 21.796875 66.546875 
Q 19.921875 64.59375 19.921875 59.515625 
L 19.921875 54.6875 
L 34.71875 54.6875 
L 34.71875 47.703125 
L 19.921875 47.703125 
L 19.921875 0 
L 10.890625 0 
L 10.890625 47.703125 
L 2.296875 47.703125 
L 2.296875 54.6875 
L 10.890625 54.6875 
L 10.890625 58.5 
Q 10.890625 67.625 15.140625 71.796875 
Q 19.390625 75.984375 28.609375 75.984375 
z
" id="DejaVuSans-102"/>
     <path d="M -0.296875 72.90625 
L 61.375 72.90625 
L 61.375 64.59375 
L 35.5 64.59375 
L 35.5 0 
L 25.59375 0 
L 25.59375 64.59375 
L -0.296875 64.59375 
z
" id="DejaVuSans-84"/>
     <path d="M 64.40625 67.28125 
L 64.40625 56.890625 
Q 59.421875 61.53125 53.78125 63.8125 
Q 48.140625 66.109375 41.796875 66.109375 
Q 29.296875 66.109375 22.65625 58.46875 
Q 16.015625 50.828125 16.015625 36.375 
Q 16.015625 21.96875 22.65625 14.328125 
Q 29.296875 6.6875 41.796875 6.6875 
Q 48.140625 6.6875 53.78125 8.984375 
Q 59.421875 11.28125 64.40625 15.921875 
L 64.40625 5.609375 
Q 59.234375 2.09375 53.4375 0.328125 
Q 47.65625 -1.421875 41.21875 -1.421875 
Q 24.65625 -1.421875 15.125 8.703125 
Q 5.609375 18.84375 5.609375 36.375 
Q 5.609375 53.953125 15.125 64.078125 
Q 24.65625 74.21875 41.21875 74.21875 
Q 47.75 74.21875 53.53125 72.484375 
Q 59.328125 70.75 64.40625 67.28125 
z
" id="DejaVuSans-67"/>
     <path d="M 32.171875 -5.078125 
Q 28.375 -14.84375 24.75 -17.8125 
Q 21.140625 -20.796875 15.09375 -20.796875 
L 7.90625 -20.796875 
L 7.90625 -13.28125 
L 13.1875 -13.28125 
Q 16.890625 -13.28125 18.9375 -11.515625 
Q 21 -9.765625 23.484375 -3.21875 
L 25.09375 0.875 
L 2.984375 54.6875 
L 12.5 54.6875 
L 29.59375 11.921875 
L 46.6875 54.6875 
L 56.203125 54.6875 
z
" id="DejaVuSans-121"/>
     <path d="M 10.6875 12.40625 
L 21 12.40625 
L 21 0 
L 10.6875 0 
z
" id="DejaVuSans-46"/>
    </defs>
    <g transform="translate(52.013438 16.318125)scale(0.12 -0.12)">
     <use xlink:href="#DejaVuSans-77"/>
     <use x="86.279297" xlink:href="#DejaVuSans-101"/>
     <use x="147.802734" xlink:href="#DejaVuSans-97"/>
     <use x="209.082031" xlink:href="#DejaVuSans-110"/>
     <use x="272.460938" xlink:href="#DejaVuSans-32"/>
     <use x="304.248047" xlink:href="#DejaVuSans-82"/>
     <use x="373.667969" xlink:href="#DejaVuSans-101"/>
     <use x="435.191406" xlink:href="#DejaVuSans-119"/>
     <use x="516.978516" xlink:href="#DejaVuSans-97"/>
     <use x="578.257812" xlink:href="#DejaVuSans-114"/>
     <use x="619.355469" xlink:href="#DejaVuSans-100"/>
     <use x="682.832031" xlink:href="#DejaVuSans-115"/>
     <use x="734.931641" xlink:href="#DejaVuSans-32"/>
     <use x="766.71875" xlink:href="#DejaVuSans-97"/>
     <use x="827.998047" xlink:href="#DejaVuSans-110"/>
     <use x="891.376953" xlink:href="#DejaVuSans-100"/>
     <use x="954.853516" xlink:href="#DejaVuSans-32"/>
     <use x="986.640625" xlink:href="#DejaVuSans-69"/>
     <use x="1049.824219" xlink:href="#DejaVuSans-112"/>
     <use x="1113.300781" xlink:href="#DejaVuSans-105"/>
     <use x="1141.083984" xlink:href="#DejaVuSans-115"/>
     <use x="1193.183594" xlink:href="#DejaVuSans-111"/>
     <use x="1254.365234" xlink:href="#DejaVuSans-100"/>
     <use x="1317.841797" xlink:href="#DejaVuSans-101"/>
     <use x="1379.365234" xlink:href="#DejaVuSans-32"/>
     <use x="1411.152344" xlink:href="#DejaVuSans-76"/>
     <use x="1466.849609" xlink:href="#DejaVuSans-101"/>
     <use x="1528.373047" xlink:href="#DejaVuSans-110"/>
     <use x="1591.751953" xlink:href="#DejaVuSans-103"/>
     <use x="1655.228516" xlink:href="#DejaVuSans-116"/>
     <use x="1694.4375" xlink:href="#DejaVuSans-104"/>
     <use x="1757.816406" xlink:href="#DejaVuSans-115"/>
     <use x="1809.916016" xlink:href="#DejaVuSans-32"/>
     <use x="1841.703125" xlink:href="#DejaVuSans-102"/>
     <use x="1876.908203" xlink:href="#DejaVuSans-111"/>
     <use x="1938.089844" xlink:href="#DejaVuSans-114"/>
     <use x="1979.203125" xlink:href="#DejaVuSans-32"/>
     <use x="2010.990234" xlink:href="#DejaVuSans-69"/>
     <use x="2074.173828" xlink:href="#DejaVuSans-97"/>
     <use x="2135.453125" xlink:href="#DejaVuSans-99"/>
     <use x="2190.433594" xlink:href="#DejaVuSans-104"/>
     <use x="2253.8125" xlink:href="#DejaVuSans-32"/>
     <use x="2285.599609" xlink:href="#DejaVuSans-84"/>
     <use x="2346.464844" xlink:href="#DejaVuSans-114"/>
     <use x="2387.578125" xlink:href="#DejaVuSans-97"/>
     <use x="2448.857422" xlink:href="#DejaVuSans-105"/>
     <use x="2476.640625" xlink:href="#DejaVuSans-110"/>
     <use x="2540.019531" xlink:href="#DejaVuSans-105"/>
     <use x="2567.802734" xlink:href="#DejaVuSans-110"/>
     <use x="2631.181641" xlink:href="#DejaVuSans-103"/>
     <use x="2694.658203" xlink:href="#DejaVuSans-32"/>
     <use x="2726.445312" xlink:href="#DejaVuSans-67"/>
     <use x="2796.269531" xlink:href="#DejaVuSans-121"/>
     <use x="2855.449219" xlink:href="#DejaVuSans-99"/>
     <use x="2910.429688" xlink:href="#DejaVuSans-108"/>
     <use x="2938.212891" xlink:href="#DejaVuSans-101"/>
     <use x="2999.736328" xlink:href="#DejaVuSans-46"/>
    </g>
   </g>
   <g id="legend_1">
    <g id="patch_7">
     <path d="M 116.00375 353.02505 
L 355.806875 353.02505 
Q 357.806875 353.02505 357.806875 351.02505 
L 357.806875 337.346925 
Q 357.806875 335.346925 355.806875 335.346925 
L 116.00375 335.346925 
Q 114.00375 335.346925 114.00375 337.346925 
L 114.00375 351.02505 
Q 114.00375 353.02505 116.00375 353.02505 
z
" style="fill:#4c4c4c;opacity:0.5;stroke:#4c4c4c;stroke-linejoin:miter;"/>
    </g>
    <g id="patch_8">
     <path d="M 114.00375 351.02505 
L 353.806875 351.02505 
Q 355.806875 351.02505 355.806875 349.02505 
L 355.806875 335.346925 
Q 355.806875 333.346925 353.806875 333.346925 
L 114.00375 333.346925 
Q 112.00375 333.346925 112.00375 335.346925 
L 112.00375 349.02505 
Q 112.00375 351.02505 114.00375 351.02505 
z
" style="fill:#ffffff;stroke:#cccccc;stroke-linejoin:miter;"/>
    </g>
    <g id="line2d_15">
     <path d="M 116.00375 341.445362 
L 136.00375 341.445362 
" style="fill:none;stroke:#ff0000;stroke-linecap:square;stroke-width:1.5;"/>
    </g>
    <g id="line2d_16"/>
    <g id="text_17">
     <!-- Average Reward -->
     <g transform="translate(144.00375 344.945362)scale(0.1 -0.1)">
      <use xlink:href="#DejaVuSans-65"/>
      <use x="68.330078" xlink:href="#DejaVuSans-118"/>
      <use x="127.509766" xlink:href="#DejaVuSans-101"/>
      <use x="189.033203" xlink:href="#DejaVuSans-114"/>
      <use x="230.146484" xlink:href="#DejaVuSans-97"/>
      <use x="291.425781" xlink:href="#DejaVuSans-103"/>
      <use x="354.902344" xlink:href="#DejaVuSans-101"/>
      <use x="416.425781" xlink:href="#DejaVuSans-32"/>
      <use x="448.212891" xlink:href="#DejaVuSans-82"/>
      <use x="517.632812" xlink:href="#DejaVuSans-101"/>
      <use x="579.15625" xlink:href="#DejaVuSans-119"/>
      <use x="660.943359" xlink:href="#DejaVuSans-97"/>
      <use x="722.222656" xlink:href="#DejaVuSans-114"/>
      <use x="763.320312" xlink:href="#DejaVuSans-100"/>
     </g>
    </g>
    <g id="line2d_17">
     <path d="M 246.686563 341.445362 
L 266.686563 341.445362 
" style="fill:none;stroke:#ffa500;stroke-dasharray:5.55,2.4;stroke-dashoffset:0;stroke-width:1.5;"/>
    </g>
    <g id="line2d_18"/>
    <g id="text_18">
     <!-- Episode Length -->
     <g transform="translate(274.686563 344.945362)scale(0.1 -0.1)">
      <use xlink:href="#DejaVuSans-69"/>
      <use x="63.183594" xlink:href="#DejaVuSans-112"/>
      <use x="126.660156" xlink:href="#DejaVuSans-105"/>
      <use x="154.443359" xlink:href="#DejaVuSans-115"/>
      <use x="206.542969" xlink:href="#DejaVuSans-111"/>
      <use x="267.724609" xlink:href="#DejaVuSans-100"/>
      <use x="331.201172" xlink:href="#DejaVuSans-101"/>
      <use x="392.724609" xlink:href="#DejaVuSans-32"/>
      <use x="424.511719" xlink:href="#DejaVuSans-76"/>
      <use x="480.208984" xlink:href="#DejaVuSans-101"/>
      <use x="541.732422" xlink:href="#DejaVuSans-110"/>
      <use x="605.111328" xlink:href="#DejaVuSans-103"/>
      <use x="668.587891" xlink:href="#DejaVuSans-116"/>
      <use x="707.796875" xlink:href="#DejaVuSans-104"/>
     </g>
    </g>
   </g>
  </g>
  <g id="axes_2">
   <g id="matplotlib.axis_3">
    <g id="ytick_6">
     <g id="line2d_19">
      <defs>
       <path d="M 0 0 
L 3.5 0 
" id="m97e739dd1e" style="stroke:#000000;stroke-width:0.8;"/>
      </defs>
      <g>
       <use style="stroke:#000000;stroke-width:0.8;" x="412.465312" xlink:href="#m97e739dd1e" y="245.959367"/>
      </g>
     </g>
     <g id="text_19">
      <!-- 200 -->
      <g transform="translate(419.465312 249.758585)scale(0.1 -0.1)">
       <use xlink:href="#DejaVuSans-50"/>
       <use x="63.623047" xlink:href="#DejaVuSans-48"/>
       <use x="127.246094" xlink:href="#DejaVuSans-48"/>
      </g>
     </g>
    </g>
    <g id="ytick_7">
     <g id="line2d_20">
      <g>
       <use style="stroke:#000000;stroke-width:0.8;" x="412.465312" xlink:href="#m97e739dd1e" y="193.073056"/>
      </g>
     </g>
     <g id="text_20">
      <!-- 400 -->
      <defs>
       <path d="M 37.796875 64.3125 
L 12.890625 25.390625 
L 37.796875 25.390625 
z
M 35.203125 72.90625 
L 47.609375 72.90625 
L 47.609375 25.390625 
L 58.015625 25.390625 
L 58.015625 17.1875 
L 47.609375 17.1875 
L 47.609375 0 
L 37.796875 0 
L 37.796875 17.1875 
L 4.890625 17.1875 
L 4.890625 26.703125 
z
" id="DejaVuSans-52"/>
      </defs>
      <g transform="translate(419.465312 196.872275)scale(0.1 -0.1)">
       <use xlink:href="#DejaVuSans-52"/>
       <use x="63.623047" xlink:href="#DejaVuSans-48"/>
       <use x="127.246094" xlink:href="#DejaVuSans-48"/>
      </g>
     </g>
    </g>
    <g id="ytick_8">
     <g id="line2d_21">
      <g>
       <use style="stroke:#000000;stroke-width:0.8;" x="412.465312" xlink:href="#m97e739dd1e" y="140.186746"/>
      </g>
     </g>
     <g id="text_21">
      <!-- 600 -->
      <defs>
       <path d="M 33.015625 40.375 
Q 26.375 40.375 22.484375 35.828125 
Q 18.609375 31.296875 18.609375 23.390625 
Q 18.609375 15.53125 22.484375 10.953125 
Q 26.375 6.390625 33.015625 6.390625 
Q 39.65625 6.390625 43.53125 10.953125 
Q 47.40625 15.53125 47.40625 23.390625 
Q 47.40625 31.296875 43.53125 35.828125 
Q 39.65625 40.375 33.015625 40.375 
z
M 52.59375 71.296875 
L 52.59375 62.3125 
Q 48.875 64.0625 45.09375 64.984375 
Q 41.3125 65.921875 37.59375 65.921875 
Q 27.828125 65.921875 22.671875 59.328125 
Q 17.53125 52.734375 16.796875 39.40625 
Q 19.671875 43.65625 24.015625 45.921875 
Q 28.375 48.1875 33.59375 48.1875 
Q 44.578125 48.1875 50.953125 41.515625 
Q 57.328125 34.859375 57.328125 23.390625 
Q 57.328125 12.15625 50.6875 5.359375 
Q 44.046875 -1.421875 33.015625 -1.421875 
Q 20.359375 -1.421875 13.671875 8.265625 
Q 6.984375 17.96875 6.984375 36.375 
Q 6.984375 53.65625 15.1875 63.9375 
Q 23.390625 74.21875 37.203125 74.21875 
Q 40.921875 74.21875 44.703125 73.484375 
Q 48.484375 72.75 52.59375 71.296875 
z
" id="DejaVuSans-54"/>
      </defs>
      <g transform="translate(419.465312 143.985965)scale(0.1 -0.1)">
       <use xlink:href="#DejaVuSans-54"/>
       <use x="63.623047" xlink:href="#DejaVuSans-48"/>
       <use x="127.246094" xlink:href="#DejaVuSans-48"/>
      </g>
     </g>
    </g>
    <g id="ytick_9">
     <g id="line2d_22">
      <g>
       <use style="stroke:#000000;stroke-width:0.8;" x="412.465312" xlink:href="#m97e739dd1e" y="87.300435"/>
      </g>
     </g>
     <g id="text_22">
      <!-- 800 -->
      <defs>
       <path d="M 31.78125 34.625 
Q 24.75 34.625 20.71875 30.859375 
Q 16.703125 27.09375 16.703125 20.515625 
Q 16.703125 13.921875 20.71875 10.15625 
Q 24.75 6.390625 31.78125 6.390625 
Q 38.8125 6.390625 42.859375 10.171875 
Q 46.921875 13.96875 46.921875 20.515625 
Q 46.921875 27.09375 42.890625 30.859375 
Q 38.875 34.625 31.78125 34.625 
z
M 21.921875 38.8125 
Q 15.578125 40.375 12.03125 44.71875 
Q 8.5 49.078125 8.5 55.328125 
Q 8.5 64.0625 14.71875 69.140625 
Q 20.953125 74.21875 31.78125 74.21875 
Q 42.671875 74.21875 48.875 69.140625 
Q 55.078125 64.0625 55.078125 55.328125 
Q 55.078125 49.078125 51.53125 44.71875 
Q 48 40.375 41.703125 38.8125 
Q 48.828125 37.15625 52.796875 32.3125 
Q 56.78125 27.484375 56.78125 20.515625 
Q 56.78125 9.90625 50.3125 4.234375 
Q 43.84375 -1.421875 31.78125 -1.421875 
Q 19.734375 -1.421875 13.25 4.234375 
Q 6.78125 9.90625 6.78125 20.515625 
Q 6.78125 27.484375 10.78125 32.3125 
Q 14.796875 37.15625 21.921875 38.8125 
z
M 18.3125 54.390625 
Q 18.3125 48.734375 21.84375 45.5625 
Q 25.390625 42.390625 31.78125 42.390625 
Q 38.140625 42.390625 41.71875 45.5625 
Q 45.3125 48.734375 45.3125 54.390625 
Q 45.3125 60.0625 41.71875 63.234375 
Q 38.140625 66.40625 31.78125 66.40625 
Q 25.390625 66.40625 21.84375 63.234375 
Q 18.3125 60.0625 18.3125 54.390625 
z
" id="DejaVuSans-56"/>
      </defs>
      <g transform="translate(419.465312 91.099654)scale(0.1 -0.1)">
       <use xlink:href="#DejaVuSans-56"/>
       <use x="63.623047" xlink:href="#DejaVuSans-48"/>
       <use x="127.246094" xlink:href="#DejaVuSans-48"/>
      </g>
     </g>
    </g>
    <g id="ytick_10">
     <g id="line2d_23">
      <g>
       <use style="stroke:#000000;stroke-width:0.8;" x="412.465312" xlink:href="#m97e739dd1e" y="34.414125"/>
      </g>
     </g>
     <g id="text_23">
      <!-- 1000 -->
      <g transform="translate(419.465312 38.213344)scale(0.1 -0.1)">
       <use xlink:href="#DejaVuSans-49"/>
       <use x="63.623047" xlink:href="#DejaVuSans-48"/>
       <use x="127.246094" xlink:href="#DejaVuSans-48"/>
       <use x="190.869141" xlink:href="#DejaVuSans-48"/>
      </g>
     </g>
    </g>
    <g id="text_24">
     <!-- Episode Steps -->
     <defs>
      <path d="M 53.515625 70.515625 
L 53.515625 60.890625 
Q 47.90625 63.578125 42.921875 64.890625 
Q 37.9375 66.21875 33.296875 66.21875 
Q 25.25 66.21875 20.875 63.09375 
Q 16.5 59.96875 16.5 54.203125 
Q 16.5 49.359375 19.40625 46.890625 
Q 22.3125 44.4375 30.421875 42.921875 
L 36.375 41.703125 
Q 47.40625 39.59375 52.65625 34.296875 
Q 57.90625 29 57.90625 20.125 
Q 57.90625 9.515625 50.796875 4.046875 
Q 43.703125 -1.421875 29.984375 -1.421875 
Q 24.8125 -1.421875 18.96875 -0.25 
Q 13.140625 0.921875 6.890625 3.21875 
L 6.890625 13.375 
Q 12.890625 10.015625 18.65625 8.296875 
Q 24.421875 6.59375 29.984375 6.59375 
Q 38.421875 6.59375 43.015625 9.90625 
Q 47.609375 13.234375 47.609375 19.390625 
Q 47.609375 24.75 44.3125 27.78125 
Q 41.015625 30.8125 33.5 32.328125 
L 27.484375 33.5 
Q 16.453125 35.6875 11.515625 40.375 
Q 6.59375 45.0625 6.59375 53.421875 
Q 6.59375 63.09375 13.40625 68.65625 
Q 20.21875 74.21875 32.171875 74.21875 
Q 37.3125 74.21875 42.625 73.28125 
Q 47.953125 72.359375 53.515625 70.515625 
z
" id="DejaVuSans-83"/>
     </defs>
     <g transform="translate(456.51375 190.590531)rotate(-90)scale(0.1 -0.1)">
      <use xlink:href="#DejaVuSans-69"/>
      <use x="63.183594" xlink:href="#DejaVuSans-112"/>
      <use x="126.660156" xlink:href="#DejaVuSans-105"/>
      <use x="154.443359" xlink:href="#DejaVuSans-115"/>
      <use x="206.542969" xlink:href="#DejaVuSans-111"/>
      <use x="267.724609" xlink:href="#DejaVuSans-100"/>
      <use x="331.201172" xlink:href="#DejaVuSans-101"/>
      <use x="392.724609" xlink:href="#DejaVuSans-32"/>
      <use x="424.511719" xlink:href="#DejaVuSans-83"/>
      <use x="487.988281" xlink:href="#DejaVuSans-116"/>
      <use x="527.197266" xlink:href="#DejaVuSans-101"/>
      <use x="588.720703" xlink:href="#DejaVuSans-112"/>
      <use x="652.197266" xlink:href="#DejaVuSans-115"/>
     </g>
    </g>
   </g>
   <g id="line2d_24">
    <path clip-path="url(#p86b23ff32e)" d="M 71.57804 276.334125 
L 72.465074 275.913585 
L 73.352108 275.064867 
L 74.239143 273.460248 
L 75.126177 273.36673 
L 76.013211 272.104189 
L 76.900245 271.39063 
L 77.78728 267.578649 
L 78.674314 267.477484 
L 79.561348 267.535189 
L 80.448383 260.638016 
L 81.335417 258.846357 
L 82.222451 253.66394 
L 83.109485 243.647723 
L 83.99652 244.252581 
L 84.883554 230.598297 
L 85.770588 236.241507 
L 86.657622 228.276944 
L 87.544657 228.263607 
L 88.431691 240.943697 
L 89.318725 169.80308 
L 90.20576 231.887009 
L 91.092794 222.424958 
L 91.979828 224.624548 
L 92.866862 158.229114 
L 93.753897 157.557865 
L 94.640931 193.15442 
L 95.527965 190.286354 
L 96.415 135.374092 
L 97.302034 116.152856 
L 98.189068 186.991131 
L 99.076102 173.747517 
L 99.963137 122.78715 
L 100.850171 148.146136 
L 101.737205 65.617048 
L 102.624239 51.932715 
L 103.511274 63.295927 
L 104.398308 45.916898 
L 105.285342 34.414125 
L 106.172377 50.445288 
L 107.059411 71.401488 
L 107.946445 34.414125 
L 108.833479 111.661192 
L 109.720514 154.562207 
L 110.607548 146.665319 
L 111.494582 150.076486 
L 112.381617 115.118635 
L 113.268651 121.78231 
L 114.155685 57.41967 
L 115.042719 71.269273 
L 115.929754 152.9035 
L 116.816788 107.926096 
L 117.703822 111.510613 
L 118.590856 105.428687 
L 119.477891 98.009913 
L 120.364925 108.161147 
L 121.251959 60.956442 
L 122.138994 130.244119 
L 123.026028 123.47948 
L 123.913062 152.350597 
L 124.800096 107.250327 
L 125.687131 94.109548 
L 126.574165 134.951001 
L 127.461199 125.554867 
L 128.348234 191.927186 
L 129.235268 86.956674 
L 130.122302 154.634324 
L 131.009336 175.20189 
L 131.896371 145.181564 
L 132.783405 98.340453 
L 133.670439 161.848097 
L 134.557473 132.902859 
L 135.444508 180.726137 
L 136.331542 161.018076 
L 137.218576 106.339507 
L 138.105611 110.491083 
L 138.992645 120.82448 
L 139.879679 166.850261 
L 140.766713 125.672392 
L 141.653748 102.604411 
L 142.540782 109.894642 
L 143.427816 127.590188 
L 144.314851 120.830356 
L 145.201885 98.90237 
L 146.088919 93.705555 
L 146.975953 73.66752 
L 147.862988 95.729191 
L 148.750022 130.784735 
L 149.637056 52.296309 
L 150.52409 50.21391 
L 151.411125 54.114276 
L 152.298159 34.414125 
L 153.185193 110.276599 
L 154.072228 102.802735 
L 154.959262 87.212292 
L 155.846296 76.822335 
L 158.507399 146.585989 
L 159.394433 102.901897 
L 160.281467 135.859684 
L 161.168502 99.543616 
L 162.055536 101.778063 
L 162.94257 56.593321 
L 163.829605 87.855742 
L 164.716639 109.424542 
L 165.603673 116.505431 
L 166.490707 75.632393 
L 167.377742 85.80199 
L 168.264776 113.90886 
L 169.15181 110.805462 
L 170.038845 164.250017 
L 170.925879 189.569338 
L 171.812913 204.941366 
L 172.699947 153.694791 
L 173.586982 184.649022 
L 174.474016 162.785473 
L 175.36105 105.2524 
L 176.248084 168.985746 
L 177.135119 204.599161 
L 178.022153 171.975196 
L 178.909187 180.44645 
L 179.796222 218.925129 
L 180.683256 197.171745 
L 181.57029 193.726358 
L 182.457324 208.875989 
L 183.344359 199.433331 
L 184.231393 216.7517 
L 185.118427 224.344961 
L 186.005462 208.340499 
L 186.892496 224.112284 
L 187.77953 196.560247 
L 188.666564 203.139084 
L 189.553599 176.590156 
L 190.440633 200.242089 
L 191.327667 214.013517 
L 192.214701 215.59149 
L 193.101736 214.991494 
L 193.98877 209.614719 
L 194.875804 219.201412 
L 195.762839 201.425982 
L 196.649873 224.892986 
L 197.536907 209.018279 
L 199.310976 231.100347 
L 200.19801 223.566822 
L 201.085044 214.187916 
L 201.972079 211.133731 
L 202.859113 205.607112 
L 203.746147 219.304666 
L 204.633181 222.292743 
L 205.520216 228.807375 
L 206.40725 219.432074 
L 207.294284 230.093473 
L 208.181318 213.056526 
L 209.068353 231.859876 
L 209.955387 228.115134 
L 210.842421 231.496995 
L 211.729456 227.618394 
L 212.61649 210.573617 
L 213.503524 224.133593 
L 214.390558 224.430231 
L 215.277593 225.598137 
L 216.164627 221.631664 
L 217.051661 219.083505 
L 217.938696 225.782089 
L 218.82573 227.662737 
L 219.712764 226.503307 
L 220.599798 223.716605 
L 221.486833 228.154309 
L 222.373867 227.296601 
L 223.260901 229.231623 
L 225.922004 222.942804 
L 226.809038 221.792622 
L 227.696073 221.609628 
L 228.583107 223.295379 
L 229.470141 221.006644 
L 230.357175 219.900839 
L 231.24421 210.865522 
L 232.131244 230.294441 
L 233.018278 225.259665 
L 233.905312 223.281717 
L 234.792347 220.827351 
L 235.679381 224.29632 
L 236.566415 229.534099 
L 237.45345 226.635522 
L 238.340484 234.014355 
L 239.227518 226.788079 
L 240.114552 230.386237 
L 241.001587 233.37998 
L 241.888621 234.898833 
L 242.775655 230.269761 
L 243.66269 233.813144 
L 244.549724 232.981066 
L 245.436758 235.168853 
L 246.323792 236.090403 
L 247.210827 229.523929 
L 248.097861 237.127353 
L 248.984895 232.790675 
L 249.871929 242.068445 
L 250.758964 231.597998 
L 252.533032 237.554221 
L 253.420067 237.071054 
L 254.307101 231.831167 
L 255.194135 233.099179 
L 256.081169 230.971764 
L 256.968204 233.686095 
L 257.855238 232.303366 
L 258.742272 225.455751 
L 259.629307 228.750975 
L 260.516341 225.543047 
L 261.403375 229.205739 
L 262.290409 226.401226 
L 263.177444 220.463758 
L 264.064478 230.652848 
L 264.951512 225.291397 
L 265.838546 225.760864 
L 266.725581 229.231623 
L 267.612615 213.31409 
L 268.499649 222.171104 
L 269.386684 226.370277 
L 270.273718 229.134909 
L 271.160752 231.249137 
L 272.047786 230.386237 
L 272.934821 233.162768 
L 273.821855 230.328524 
L 274.708889 235.602464 
L 275.595924 232.322254 
L 276.482958 222.521115 
L 277.369992 228.161089 
L 278.257026 205.27866 
L 279.144061 232.30046 
L 280.031095 236.200989 
L 281.805163 225.00581 
L 282.692198 223.240289 
L 283.579232 222.03406 
L 284.466266 225.03622 
L 285.353301 223.334603 
L 286.240335 230.061742 
L 287.127369 221.863041 
L 288.014403 233.115548 
L 288.901438 227.283888 
L 289.788472 217.841478 
L 290.675506 215.645895 
L 291.562541 224.672627 
L 292.449575 229.841634 
L 293.336609 217.907586 
L 294.223643 222.172024 
L 295.110678 227.60341 
L 295.997712 224.265402 
L 296.884746 209.392261 
L 297.77178 220.772261 
L 298.658815 223.218253 
L 299.545849 216.956033 
L 300.432883 227.01549 
L 301.319918 217.97561 
L 302.206952 233.110397 
L 303.093986 222.281725 
L 303.98102 224.639573 
L 304.868055 224.959094 
L 305.755089 220.658075 
L 306.642123 224.683645 
L 307.529158 230.03001 
L 308.416192 229.848629 
L 309.303226 223.059594 
L 310.19026 229.002693 
L 311.077295 223.990393 
L 311.964329 232.859834 
L 312.851363 234.782048 
L 313.738397 230.716776 
L 314.625432 229.615463 
L 315.512466 229.204983 
L 316.3995 224.984656 
L 317.286535 223.824242 
L 318.173569 225.1464 
L 319.060603 229.321333 
L 321.721706 227.547096 
L 322.60874 233.734493 
L 323.495774 227.449158 
L 324.382809 228.262794 
L 325.269843 228.073216 
L 326.156877 212.439519 
L 327.043912 219.483157 
L 327.930946 231.991714 
L 328.81798 234.377265 
L 329.705014 233.257838 
L 330.592049 234.351733 
L 331.479083 226.5745 
L 332.366117 233.636856 
L 333.253152 226.908798 
L 334.140186 226.898259 
L 335.02722 230.6041 
L 335.914254 228.863867 
L 336.801289 231.670619 
L 337.688323 230.63213 
L 338.575357 220.25662 
L 339.462391 230.387286 
L 340.349426 229.535229 
L 341.23646 230.261748 
L 342.123494 238.340433 
L 343.010529 235.548598 
L 343.897563 232.14037 
L 344.784597 231.094536 
L 345.671631 226.952027 
L 346.558666 226.18209 
L 347.4457 231.321191 
L 348.332734 211.583265 
L 349.219769 226.890914 
L 350.106803 220.982605 
L 350.993837 216.931994 
L 351.880871 226.812563 
L 352.767906 226.887241 
L 353.65494 232.864716 
L 354.541974 220.401482 
L 355.429008 215.393483 
L 356.316043 215.296325 
L 357.203077 222.244664 
L 358.090111 220.742212 
L 358.977146 219.729791 
L 359.86418 223.919572 
L 360.751214 219.460542 
L 361.638248 234.71473 
L 362.525283 232.341142 
L 363.412317 225.346298 
L 364.299351 212.328481 
L 365.186386 224.090877 
L 366.07342 222.496152 
L 366.960454 235.65598 
L 367.847488 231.297093 
L 368.734523 232.208926 
L 369.621557 216.184374 
L 370.508591 232.029112 
L 371.395625 228.718429 
L 372.28266 218.446466 
L 373.169694 215.064947 
L 374.056728 223.647954 
L 374.943763 229.615463 
L 375.830797 203.474031 
L 376.717831 226.848177 
L 377.604865 218.218093 
L 378.4919 218.685141 
L 379.378934 216.440455 
L 380.265968 212.835835 
L 381.153003 207.780487 
L 382.040037 215.354894 
L 382.927071 199.889514 
L 383.814105 212.839315 
L 384.70114 211.686099 
L 385.588174 225.988488 
L 386.475208 190.678482 
L 387.362242 212.503027 
L 388.249277 219.818419 
L 389.136311 208.1301 
L 390.023345 206.235871 
L 390.91038 208.301203 
L 391.797414 202.592592 
L 392.684448 181.740275 
L 393.571482 189.036068 
L 394.458517 222.562923 
L 395.345551 216.81901 
L 396.232585 215.73484 
L 396.232585 215.73484 
" style="fill:none;stroke:#ffa500;stroke-dasharray:5.55,2.4;stroke-dashoffset:0;stroke-width:1.5;"/>
   </g>
   <g id="patch_9">
    <path d="M 55.345313 288.430125 
L 55.345313 22.318125 
" style="fill:none;stroke:#000000;stroke-linecap:square;stroke-linejoin:miter;stroke-width:0.8;"/>
   </g>
   <g id="patch_10">
    <path d="M 412.465312 288.430125 
L 412.465312 22.318125 
" style="fill:none;stroke:#000000;stroke-linecap:square;stroke-linejoin:miter;stroke-width:0.8;"/>
   </g>
   <g id="patch_11">
    <path d="M 55.345313 288.430125 
L 412.465312 288.430125 
" style="fill:none;stroke:#000000;stroke-linecap:square;stroke-linejoin:miter;stroke-width:0.8;"/>
   </g>
   <g id="patch_12">
    <path d="M 55.345313 22.318125 
L 412.465312 22.318125 
" style="fill:none;stroke:#000000;stroke-linecap:square;stroke-linejoin:miter;stroke-width:0.8;"/>
   </g>
  </g>
 </g>
 <defs>
  <clipPath id="p86b23ff32e">
   <rect height="266.112" width="357.12" x="55.345313" y="22.318125"/>
  </clipPath>
 </defs>
</svg>
