<?xml version="1.0" encoding="utf-8" standalone="no"?>
<!DOCTYPE svg PUBLIC "-//W3C//DTD SVG 1.1//EN"
  "http://www.w3.org/Graphics/SVG/1.1/DTD/svg11.dtd">
<!-- Created with matplotlib (https://matplotlib.org/) -->
<svg height="358.22505pt" version="1.1" viewBox="0 0 444.6825 358.22505" width="444.6825pt" xmlns="http://www.w3.org/2000/svg" xmlns:xlink="http://www.w3.org/1999/xlink">
 <defs>
  <style type="text/css">
*{stroke-linecap:butt;stroke-linejoin:round;}
  </style>
 </defs>
 <g id="figure_1">
  <g id="patch_1">
   <path d="M 0 358.22505 
L 444.6825 358.22505 
L 444.6825 0 
L 0 0 
z
" style="fill:#ffffff;"/>
  </g>
  <g id="axes_1">
   <g id="patch_2">
    <path d="M 43.78125 288.430125 
L 400.90125 288.430125 
L 400.90125 22.318125 
L 43.78125 22.318125 
z
" style="fill:#ffffff;"/>
   </g>
   <g id="matplotlib.axis_1">
    <g id="xtick_1">
     <g id="line2d_1">
      <defs>
       <path d="M 0 0 
L 0 3.5 
" id="mcc1a8e521c" style="stroke:#000000;stroke-width:0.8;"/>
      </defs>
      <g>
       <use style="stroke:#000000;stroke-width:0.8;" x="60.013977" xlink:href="#mcc1a8e521c" y="288.430125"/>
      </g>
     </g>
     <g id="text_1">
      <!-- 0 -->
      <defs>
       <path d="M 31.78125 66.40625 
Q 24.171875 66.40625 20.328125 58.90625 
Q 16.5 51.421875 16.5 36.375 
Q 16.5 21.390625 20.328125 13.890625 
Q 24.171875 6.390625 31.78125 6.390625 
Q 39.453125 6.390625 43.28125 13.890625 
Q 47.125 21.390625 47.125 36.375 
Q 47.125 51.421875 43.28125 58.90625 
Q 39.453125 66.40625 31.78125 66.40625 
z
M 31.78125 74.21875 
Q 44.046875 74.21875 50.515625 64.515625 
Q 56.984375 54.828125 56.984375 36.375 
Q 56.984375 17.96875 50.515625 8.265625 
Q 44.046875 -1.421875 31.78125 -1.421875 
Q 19.53125 -1.421875 13.0625 8.265625 
Q 6.59375 17.96875 6.59375 36.375 
Q 6.59375 54.828125 13.0625 64.515625 
Q 19.53125 74.21875 31.78125 74.21875 
z
" id="DejaVuSans-48"/>
      </defs>
      <g transform="translate(56.832727 303.028562)scale(0.1 -0.1)">
       <use xlink:href="#DejaVuSans-48"/>
      </g>
     </g>
    </g>
    <g id="xtick_2">
     <g id="line2d_2">
      <g>
       <use style="stroke:#000000;stroke-width:0.8;" x="100.697504" xlink:href="#mcc1a8e521c" y="288.430125"/>
      </g>
     </g>
     <g id="text_2">
      <!-- 50 -->
      <defs>
       <path d="M 10.796875 72.90625 
L 49.515625 72.90625 
L 49.515625 64.59375 
L 19.828125 64.59375 
L 19.828125 46.734375 
Q 21.96875 47.46875 24.109375 47.828125 
Q 26.265625 48.1875 28.421875 48.1875 
Q 40.625 48.1875 47.75 41.5 
Q 54.890625 34.8125 54.890625 23.390625 
Q 54.890625 11.625 47.5625 5.09375 
Q 40.234375 -1.421875 26.90625 -1.421875 
Q 22.3125 -1.421875 17.546875 -0.640625 
Q 12.796875 0.140625 7.71875 1.703125 
L 7.71875 11.625 
Q 12.109375 9.234375 16.796875 8.0625 
Q 21.484375 6.890625 26.703125 6.890625 
Q 35.15625 6.890625 40.078125 11.328125 
Q 45.015625 15.765625 45.015625 23.390625 
Q 45.015625 31 40.078125 35.4375 
Q 35.15625 39.890625 26.703125 39.890625 
Q 22.75 39.890625 18.8125 39.015625 
Q 14.890625 38.140625 10.796875 36.28125 
z
" id="DejaVuSans-53"/>
      </defs>
      <g transform="translate(94.335004 303.028562)scale(0.1 -0.1)">
       <use xlink:href="#DejaVuSans-53"/>
       <use x="63.623047" xlink:href="#DejaVuSans-48"/>
      </g>
     </g>
    </g>
    <g id="xtick_3">
     <g id="line2d_3">
      <g>
       <use style="stroke:#000000;stroke-width:0.8;" x="141.381031" xlink:href="#mcc1a8e521c" y="288.430125"/>
      </g>
     </g>
     <g id="text_3">
      <!-- 100 -->
      <defs>
       <path d="M 12.40625 8.296875 
L 28.515625 8.296875 
L 28.515625 63.921875 
L 10.984375 60.40625 
L 10.984375 69.390625 
L 28.421875 72.90625 
L 38.28125 72.90625 
L 38.28125 8.296875 
L 54.390625 8.296875 
L 54.390625 0 
L 12.40625 0 
z
" id="DejaVuSans-49"/>
      </defs>
      <g transform="translate(131.837281 303.028562)scale(0.1 -0.1)">
       <use xlink:href="#DejaVuSans-49"/>
       <use x="63.623047" xlink:href="#DejaVuSans-48"/>
       <use x="127.246094" xlink:href="#DejaVuSans-48"/>
      </g>
     </g>
    </g>
    <g id="xtick_4">
     <g id="line2d_4">
      <g>
       <use style="stroke:#000000;stroke-width:0.8;" x="182.064558" xlink:href="#mcc1a8e521c" y="288.430125"/>
      </g>
     </g>
     <g id="text_4">
      <!-- 150 -->
      <g transform="translate(172.520808 303.028562)scale(0.1 -0.1)">
       <use xlink:href="#DejaVuSans-49"/>
       <use x="63.623047" xlink:href="#DejaVuSans-53"/>
       <use x="127.246094" xlink:href="#DejaVuSans-48"/>
      </g>
     </g>
    </g>
    <g id="xtick_5">
     <g id="line2d_5">
      <g>
       <use style="stroke:#000000;stroke-width:0.8;" x="222.748085" xlink:href="#mcc1a8e521c" y="288.430125"/>
      </g>
     </g>
     <g id="text_5">
      <!-- 200 -->
      <defs>
       <path d="M 19.1875 8.296875 
L 53.609375 8.296875 
L 53.609375 0 
L 7.328125 0 
L 7.328125 8.296875 
Q 12.9375 14.109375 22.625 23.890625 
Q 32.328125 33.6875 34.8125 36.53125 
Q 39.546875 41.84375 41.421875 45.53125 
Q 43.3125 49.21875 43.3125 52.78125 
Q 43.3125 58.59375 39.234375 62.25 
Q 35.15625 65.921875 28.609375 65.921875 
Q 23.96875 65.921875 18.8125 64.3125 
Q 13.671875 62.703125 7.8125 59.421875 
L 7.8125 69.390625 
Q 13.765625 71.78125 18.9375 73 
Q 24.125 74.21875 28.421875 74.21875 
Q 39.75 74.21875 46.484375 68.546875 
Q 53.21875 62.890625 53.21875 53.421875 
Q 53.21875 48.921875 51.53125 44.890625 
Q 49.859375 40.875 45.40625 35.40625 
Q 44.1875 33.984375 37.640625 27.21875 
Q 31.109375 20.453125 19.1875 8.296875 
z
" id="DejaVuSans-50"/>
      </defs>
      <g transform="translate(213.204335 303.028562)scale(0.1 -0.1)">
       <use xlink:href="#DejaVuSans-50"/>
       <use x="63.623047" xlink:href="#DejaVuSans-48"/>
       <use x="127.246094" xlink:href="#DejaVuSans-48"/>
      </g>
     </g>
    </g>
    <g id="xtick_6">
     <g id="line2d_6">
      <g>
       <use style="stroke:#000000;stroke-width:0.8;" x="263.431612" xlink:href="#mcc1a8e521c" y="288.430125"/>
      </g>
     </g>
     <g id="text_6">
      <!-- 250 -->
      <g transform="translate(253.887862 303.028562)scale(0.1 -0.1)">
       <use xlink:href="#DejaVuSans-50"/>
       <use x="63.623047" xlink:href="#DejaVuSans-53"/>
       <use x="127.246094" xlink:href="#DejaVuSans-48"/>
      </g>
     </g>
    </g>
    <g id="xtick_7">
     <g id="line2d_7">
      <g>
       <use style="stroke:#000000;stroke-width:0.8;" x="304.115139" xlink:href="#mcc1a8e521c" y="288.430125"/>
      </g>
     </g>
     <g id="text_7">
      <!-- 300 -->
      <defs>
       <path d="M 40.578125 39.3125 
Q 47.65625 37.796875 51.625 33 
Q 55.609375 28.21875 55.609375 21.1875 
Q 55.609375 10.40625 48.1875 4.484375 
Q 40.765625 -1.421875 27.09375 -1.421875 
Q 22.515625 -1.421875 17.65625 -0.515625 
Q 12.796875 0.390625 7.625 2.203125 
L 7.625 11.71875 
Q 11.71875 9.328125 16.59375 8.109375 
Q 21.484375 6.890625 26.8125 6.890625 
Q 36.078125 6.890625 40.9375 10.546875 
Q 45.796875 14.203125 45.796875 21.1875 
Q 45.796875 27.640625 41.28125 31.265625 
Q 36.765625 34.90625 28.71875 34.90625 
L 20.21875 34.90625 
L 20.21875 43.015625 
L 29.109375 43.015625 
Q 36.375 43.015625 40.234375 45.921875 
Q 44.09375 48.828125 44.09375 54.296875 
Q 44.09375 59.90625 40.109375 62.90625 
Q 36.140625 65.921875 28.71875 65.921875 
Q 24.65625 65.921875 20.015625 65.03125 
Q 15.375 64.15625 9.8125 62.3125 
L 9.8125 71.09375 
Q 15.4375 72.65625 20.34375 73.4375 
Q 25.25 74.21875 29.59375 74.21875 
Q 40.828125 74.21875 47.359375 69.109375 
Q 53.90625 64.015625 53.90625 55.328125 
Q 53.90625 49.265625 50.4375 45.09375 
Q 46.96875 40.921875 40.578125 39.3125 
z
" id="DejaVuSans-51"/>
      </defs>
      <g transform="translate(294.571389 303.028562)scale(0.1 -0.1)">
       <use xlink:href="#DejaVuSans-51"/>
       <use x="63.623047" xlink:href="#DejaVuSans-48"/>
       <use x="127.246094" xlink:href="#DejaVuSans-48"/>
      </g>
     </g>
    </g>
    <g id="xtick_8">
     <g id="line2d_8">
      <g>
       <use style="stroke:#000000;stroke-width:0.8;" x="344.798666" xlink:href="#mcc1a8e521c" y="288.430125"/>
      </g>
     </g>
     <g id="text_8">
      <!-- 350 -->
      <g transform="translate(335.254916 303.028562)scale(0.1 -0.1)">
       <use xlink:href="#DejaVuSans-51"/>
       <use x="63.623047" xlink:href="#DejaVuSans-53"/>
       <use x="127.246094" xlink:href="#DejaVuSans-48"/>
      </g>
     </g>
    </g>
    <g id="xtick_9">
     <g id="line2d_9">
      <g>
       <use style="stroke:#000000;stroke-width:0.8;" x="385.482193" xlink:href="#mcc1a8e521c" y="288.430125"/>
      </g>
     </g>
     <g id="text_9">
      <!-- 400 -->
      <defs>
       <path d="M 37.796875 64.3125 
L 12.890625 25.390625 
L 37.796875 25.390625 
z
M 35.203125 72.90625 
L 47.609375 72.90625 
L 47.609375 25.390625 
L 58.015625 25.390625 
L 58.015625 17.1875 
L 47.609375 17.1875 
L 47.609375 0 
L 37.796875 0 
L 37.796875 17.1875 
L 4.890625 17.1875 
L 4.890625 26.703125 
z
" id="DejaVuSans-52"/>
      </defs>
      <g transform="translate(375.938443 303.028562)scale(0.1 -0.1)">
       <use xlink:href="#DejaVuSans-52"/>
       <use x="63.623047" xlink:href="#DejaVuSans-48"/>
       <use x="127.246094" xlink:href="#DejaVuSans-48"/>
      </g>
     </g>
    </g>
    <g id="text_10">
     <!-- Epoch -->
     <defs>
      <path d="M 9.8125 72.90625 
L 55.90625 72.90625 
L 55.90625 64.59375 
L 19.671875 64.59375 
L 19.671875 43.015625 
L 54.390625 43.015625 
L 54.390625 34.71875 
L 19.671875 34.71875 
L 19.671875 8.296875 
L 56.78125 8.296875 
L 56.78125 0 
L 9.8125 0 
z
" id="DejaVuSans-69"/>
      <path d="M 18.109375 8.203125 
L 18.109375 -20.796875 
L 9.078125 -20.796875 
L 9.078125 54.6875 
L 18.109375 54.6875 
L 18.109375 46.390625 
Q 20.953125 51.265625 25.265625 53.625 
Q 29.59375 56 35.59375 56 
Q 45.5625 56 51.78125 48.09375 
Q 58.015625 40.1875 58.015625 27.296875 
Q 58.015625 14.40625 51.78125 6.484375 
Q 45.5625 -1.421875 35.59375 -1.421875 
Q 29.59375 -1.421875 25.265625 0.953125 
Q 20.953125 3.328125 18.109375 8.203125 
z
M 48.6875 27.296875 
Q 48.6875 37.203125 44.609375 42.84375 
Q 40.53125 48.484375 33.40625 48.484375 
Q 26.265625 48.484375 22.1875 42.84375 
Q 18.109375 37.203125 18.109375 27.296875 
Q 18.109375 17.390625 22.1875 11.75 
Q 26.265625 6.109375 33.40625 6.109375 
Q 40.53125 6.109375 44.609375 11.75 
Q 48.6875 17.390625 48.6875 27.296875 
z
" id="DejaVuSans-112"/>
      <path d="M 30.609375 48.390625 
Q 23.390625 48.390625 19.1875 42.75 
Q 14.984375 37.109375 14.984375 27.296875 
Q 14.984375 17.484375 19.15625 11.84375 
Q 23.34375 6.203125 30.609375 6.203125 
Q 37.796875 6.203125 41.984375 11.859375 
Q 46.1875 17.53125 46.1875 27.296875 
Q 46.1875 37.015625 41.984375 42.703125 
Q 37.796875 48.390625 30.609375 48.390625 
z
M 30.609375 56 
Q 42.328125 56 49.015625 48.375 
Q 55.71875 40.765625 55.71875 27.296875 
Q 55.71875 13.875 49.015625 6.21875 
Q 42.328125 -1.421875 30.609375 -1.421875 
Q 18.84375 -1.421875 12.171875 6.21875 
Q 5.515625 13.875 5.515625 27.296875 
Q 5.515625 40.765625 12.171875 48.375 
Q 18.84375 56 30.609375 56 
z
" id="DejaVuSans-111"/>
      <path d="M 48.78125 52.59375 
L 48.78125 44.1875 
Q 44.96875 46.296875 41.140625 47.34375 
Q 37.3125 48.390625 33.40625 48.390625 
Q 24.65625 48.390625 19.8125 42.84375 
Q 14.984375 37.3125 14.984375 27.296875 
Q 14.984375 17.28125 19.8125 11.734375 
Q 24.65625 6.203125 33.40625 6.203125 
Q 37.3125 6.203125 41.140625 7.25 
Q 44.96875 8.296875 48.78125 10.40625 
L 48.78125 2.09375 
Q 45.015625 0.34375 40.984375 -0.53125 
Q 36.96875 -1.421875 32.421875 -1.421875 
Q 20.0625 -1.421875 12.78125 6.34375 
Q 5.515625 14.109375 5.515625 27.296875 
Q 5.515625 40.671875 12.859375 48.328125 
Q 20.21875 56 33.015625 56 
Q 37.15625 56 41.109375 55.140625 
Q 45.0625 54.296875 48.78125 52.59375 
z
" id="DejaVuSans-99"/>
      <path d="M 54.890625 33.015625 
L 54.890625 0 
L 45.90625 0 
L 45.90625 32.71875 
Q 45.90625 40.484375 42.875 44.328125 
Q 39.84375 48.1875 33.796875 48.1875 
Q 26.515625 48.1875 22.3125 43.546875 
Q 18.109375 38.921875 18.109375 30.90625 
L 18.109375 0 
L 9.078125 0 
L 9.078125 75.984375 
L 18.109375 75.984375 
L 18.109375 46.1875 
Q 21.34375 51.125 25.703125 53.5625 
Q 30.078125 56 35.796875 56 
Q 45.21875 56 50.046875 50.171875 
Q 54.890625 44.34375 54.890625 33.015625 
z
" id="DejaVuSans-104"/>
     </defs>
     <g transform="translate(207.030313 316.706687)scale(0.1 -0.1)">
      <use xlink:href="#DejaVuSans-69"/>
      <use x="63.183594" xlink:href="#DejaVuSans-112"/>
      <use x="126.660156" xlink:href="#DejaVuSans-111"/>
      <use x="187.841797" xlink:href="#DejaVuSans-99"/>
      <use x="242.822266" xlink:href="#DejaVuSans-104"/>
     </g>
    </g>
   </g>
   <g id="matplotlib.axis_2">
    <g id="ytick_1">
     <g id="line2d_10">
      <defs>
       <path d="M 0 0 
L -3.5 0 
" id="m4512273096" style="stroke:#000000;stroke-width:0.8;"/>
      </defs>
      <g>
       <use style="stroke:#000000;stroke-width:0.8;" x="43.78125" xlink:href="#m4512273096" y="276.125657"/>
      </g>
     </g>
     <g id="text_11">
      <!-- 0.0 -->
      <defs>
       <path d="M 10.6875 12.40625 
L 21 12.40625 
L 21 0 
L 10.6875 0 
z
" id="DejaVuSans-46"/>
      </defs>
      <g transform="translate(20.878125 279.924876)scale(0.1 -0.1)">
       <use xlink:href="#DejaVuSans-48"/>
       <use x="63.623047" xlink:href="#DejaVuSans-46"/>
       <use x="95.410156" xlink:href="#DejaVuSans-48"/>
      </g>
     </g>
    </g>
    <g id="ytick_2">
     <g id="line2d_11">
      <g>
       <use style="stroke:#000000;stroke-width:0.8;" x="43.78125" xlink:href="#m4512273096" y="228.085068"/>
      </g>
     </g>
     <g id="text_12">
      <!-- 0.2 -->
      <g transform="translate(20.878125 231.884287)scale(0.1 -0.1)">
       <use xlink:href="#DejaVuSans-48"/>
       <use x="63.623047" xlink:href="#DejaVuSans-46"/>
       <use x="95.410156" xlink:href="#DejaVuSans-50"/>
      </g>
     </g>
    </g>
    <g id="ytick_3">
     <g id="line2d_12">
      <g>
       <use style="stroke:#000000;stroke-width:0.8;" x="43.78125" xlink:href="#m4512273096" y="180.044479"/>
      </g>
     </g>
     <g id="text_13">
      <!-- 0.4 -->
      <g transform="translate(20.878125 183.843698)scale(0.1 -0.1)">
       <use xlink:href="#DejaVuSans-48"/>
       <use x="63.623047" xlink:href="#DejaVuSans-46"/>
       <use x="95.410156" xlink:href="#DejaVuSans-52"/>
      </g>
     </g>
    </g>
    <g id="ytick_4">
     <g id="line2d_13">
      <g>
       <use style="stroke:#000000;stroke-width:0.8;" x="43.78125" xlink:href="#m4512273096" y="132.00389"/>
      </g>
     </g>
     <g id="text_14">
      <!-- 0.6 -->
      <defs>
       <path d="M 33.015625 40.375 
Q 26.375 40.375 22.484375 35.828125 
Q 18.609375 31.296875 18.609375 23.390625 
Q 18.609375 15.53125 22.484375 10.953125 
Q 26.375 6.390625 33.015625 6.390625 
Q 39.65625 6.390625 43.53125 10.953125 
Q 47.40625 15.53125 47.40625 23.390625 
Q 47.40625 31.296875 43.53125 35.828125 
Q 39.65625 40.375 33.015625 40.375 
z
M 52.59375 71.296875 
L 52.59375 62.3125 
Q 48.875 64.0625 45.09375 64.984375 
Q 41.3125 65.921875 37.59375 65.921875 
Q 27.828125 65.921875 22.671875 59.328125 
Q 17.53125 52.734375 16.796875 39.40625 
Q 19.671875 43.65625 24.015625 45.921875 
Q 28.375 48.1875 33.59375 48.1875 
Q 44.578125 48.1875 50.953125 41.515625 
Q 57.328125 34.859375 57.328125 23.390625 
Q 57.328125 12.15625 50.6875 5.359375 
Q 44.046875 -1.421875 33.015625 -1.421875 
Q 20.359375 -1.421875 13.671875 8.265625 
Q 6.984375 17.96875 6.984375 36.375 
Q 6.984375 53.65625 15.1875 63.9375 
Q 23.390625 74.21875 37.203125 74.21875 
Q 40.921875 74.21875 44.703125 73.484375 
Q 48.484375 72.75 52.59375 71.296875 
z
" id="DejaVuSans-54"/>
      </defs>
      <g transform="translate(20.878125 135.803109)scale(0.1 -0.1)">
       <use xlink:href="#DejaVuSans-48"/>
       <use x="63.623047" xlink:href="#DejaVuSans-46"/>
       <use x="95.410156" xlink:href="#DejaVuSans-54"/>
      </g>
     </g>
    </g>
    <g id="ytick_5">
     <g id="line2d_14">
      <g>
       <use style="stroke:#000000;stroke-width:0.8;" x="43.78125" xlink:href="#m4512273096" y="83.963301"/>
      </g>
     </g>
     <g id="text_15">
      <!-- 0.8 -->
      <defs>
       <path d="M 31.78125 34.625 
Q 24.75 34.625 20.71875 30.859375 
Q 16.703125 27.09375 16.703125 20.515625 
Q 16.703125 13.921875 20.71875 10.15625 
Q 24.75 6.390625 31.78125 6.390625 
Q 38.8125 6.390625 42.859375 10.171875 
Q 46.921875 13.96875 46.921875 20.515625 
Q 46.921875 27.09375 42.890625 30.859375 
Q 38.875 34.625 31.78125 34.625 
z
M 21.921875 38.8125 
Q 15.578125 40.375 12.03125 44.71875 
Q 8.5 49.078125 8.5 55.328125 
Q 8.5 64.0625 14.71875 69.140625 
Q 20.953125 74.21875 31.78125 74.21875 
Q 42.671875 74.21875 48.875 69.140625 
Q 55.078125 64.0625 55.078125 55.328125 
Q 55.078125 49.078125 51.53125 44.71875 
Q 48 40.375 41.703125 38.8125 
Q 48.828125 37.15625 52.796875 32.3125 
Q 56.78125 27.484375 56.78125 20.515625 
Q 56.78125 9.90625 50.3125 4.234375 
Q 43.84375 -1.421875 31.78125 -1.421875 
Q 19.734375 -1.421875 13.25 4.234375 
Q 6.78125 9.90625 6.78125 20.515625 
Q 6.78125 27.484375 10.78125 32.3125 
Q 14.796875 37.15625 21.921875 38.8125 
z
M 18.3125 54.390625 
Q 18.3125 48.734375 21.84375 45.5625 
Q 25.390625 42.390625 31.78125 42.390625 
Q 38.140625 42.390625 41.71875 45.5625 
Q 45.3125 48.734375 45.3125 54.390625 
Q 45.3125 60.0625 41.71875 63.234375 
Q 38.140625 66.40625 31.78125 66.40625 
Q 25.390625 66.40625 21.84375 63.234375 
Q 18.3125 60.0625 18.3125 54.390625 
z
" id="DejaVuSans-56"/>
      </defs>
      <g transform="translate(20.878125 87.76252)scale(0.1 -0.1)">
       <use xlink:href="#DejaVuSans-48"/>
       <use x="63.623047" xlink:href="#DejaVuSans-46"/>
       <use x="95.410156" xlink:href="#DejaVuSans-56"/>
      </g>
     </g>
    </g>
    <g id="ytick_6">
     <g id="line2d_15">
      <g>
       <use style="stroke:#000000;stroke-width:0.8;" x="43.78125" xlink:href="#m4512273096" y="35.922712"/>
      </g>
     </g>
     <g id="text_16">
      <!-- 1.0 -->
      <g transform="translate(20.878125 39.721931)scale(0.1 -0.1)">
       <use xlink:href="#DejaVuSans-49"/>
       <use x="63.623047" xlink:href="#DejaVuSans-46"/>
       <use x="95.410156" xlink:href="#DejaVuSans-48"/>
      </g>
     </g>
    </g>
    <g id="text_17">
     <!-- Loss -->
     <defs>
      <path d="M 9.8125 72.90625 
L 19.671875 72.90625 
L 19.671875 8.296875 
L 55.171875 8.296875 
L 55.171875 0 
L 9.8125 0 
z
" id="DejaVuSans-76"/>
      <path d="M 44.28125 53.078125 
L 44.28125 44.578125 
Q 40.484375 46.53125 36.375 47.5 
Q 32.28125 48.484375 27.875 48.484375 
Q 21.1875 48.484375 17.84375 46.4375 
Q 14.5 44.390625 14.5 40.28125 
Q 14.5 37.15625 16.890625 35.375 
Q 19.28125 33.59375 26.515625 31.984375 
L 29.59375 31.296875 
Q 39.15625 29.25 43.1875 25.515625 
Q 47.21875 21.78125 47.21875 15.09375 
Q 47.21875 7.46875 41.1875 3.015625 
Q 35.15625 -1.421875 24.609375 -1.421875 
Q 20.21875 -1.421875 15.453125 -0.5625 
Q 10.6875 0.296875 5.421875 2 
L 5.421875 11.28125 
Q 10.40625 8.6875 15.234375 7.390625 
Q 20.0625 6.109375 24.8125 6.109375 
Q 31.15625 6.109375 34.5625 8.28125 
Q 37.984375 10.453125 37.984375 14.40625 
Q 37.984375 18.0625 35.515625 20.015625 
Q 33.0625 21.96875 24.703125 23.78125 
L 21.578125 24.515625 
Q 13.234375 26.265625 9.515625 29.90625 
Q 5.8125 33.546875 5.8125 39.890625 
Q 5.8125 47.609375 11.28125 51.796875 
Q 16.75 56 26.8125 56 
Q 31.78125 56 36.171875 55.265625 
Q 40.578125 54.546875 44.28125 53.078125 
z
" id="DejaVuSans-115"/>
     </defs>
     <g transform="translate(14.798438 166.428031)rotate(-90)scale(0.1 -0.1)">
      <use xlink:href="#DejaVuSans-76"/>
      <use x="55.697266" xlink:href="#DejaVuSans-111"/>
      <use x="116.878906" xlink:href="#DejaVuSans-115"/>
      <use x="168.978516" xlink:href="#DejaVuSans-115"/>
     </g>
    </g>
   </g>
   <g id="line2d_16">
    <path clip-path="url(#p72e7cfc67a)" d="M 60.013977 35.922712 
L 60.827648 82.450871 
L 61.641318 101.099765 
L 63.268659 149.705967 
L 64.08233 165.157763 
L 64.896001 173.856404 
L 65.709671 189.97789 
L 66.523342 201.316266 
L 67.337012 204.702049 
L 68.150683 66.60134 
L 68.964353 95.751955 
L 69.778024 131.033199 
L 70.591694 144.651117 
L 71.405365 164.588168 
L 72.219035 175.41015 
L 73.032706 178.894607 
L 73.846376 200.095234 
L 74.660047 206.47101 
L 75.473718 214.203631 
L 76.287388 92.823039 
L 77.101059 134.751345 
L 78.7284 183.219227 
L 79.54207 186.821756 
L 80.355741 196.412143 
L 81.169411 213.06256 
L 82.796752 228.972994 
L 83.610423 241.306971 
L 84.424093 41.46081 
L 85.237764 85.842364 
L 86.865105 126.529507 
L 88.492446 154.078951 
L 89.306117 175.148386 
L 90.119787 174.211744 
L 90.933458 185.192879 
L 91.747128 193.087019 
L 92.560799 92.012313 
L 93.374469 134.441086 
L 94.18814 160.202014 
L 95.00181 171.98432 
L 95.815481 187.848588 
L 98.256493 221.938708 
L 99.070163 224.756567 
L 99.883834 229.58656 
L 100.697504 69.549451 
L 101.511175 113.615513 
L 103.952186 158.824832 
L 106.393198 191.374335 
L 107.206869 200.610694 
L 108.020539 204.474624 
L 108.83421 87.19697 
L 109.64788 129.111812 
L 110.461551 162.086206 
L 111.275221 176.735798 
L 112.088892 193.769202 
L 112.902562 198.907644 
L 113.716233 211.713432 
L 115.343574 221.211741 
L 116.157245 231.466025 
L 116.970915 85.975717 
L 117.784586 125.20632 
L 119.411927 150.704692 
L 120.225597 156.397365 
L 121.852938 182.461773 
L 122.666609 191.268376 
L 123.480279 202.469398 
L 124.29395 204.863095 
L 125.10762 73.881312 
L 125.921291 116.586334 
L 126.734962 135.870506 
L 127.548632 150.87945 
L 129.175973 172.309403 
L 129.989644 195.155743 
L 130.803314 203.951904 
L 131.616985 218.247674 
L 132.430655 221.465939 
L 133.244326 62.342901 
L 134.057996 88.725893 
L 136.499008 143.096777 
L 137.312679 147.481906 
L 138.126349 152.504914 
L 138.94002 170.870701 
L 139.75369 183.260257 
L 140.567361 190.853271 
L 141.381031 60.183384 
L 142.194702 117.615983 
L 143.008372 128.46109 
L 143.822043 162.760696 
L 144.635713 172.055214 
L 145.449384 174.866424 
L 146.263055 185.943534 
L 147.076725 192.642256 
L 147.890396 197.601105 
L 148.704066 196.001765 
L 149.517737 92.519458 
L 150.331407 125.470605 
L 151.145078 153.403648 
L 151.958748 166.43649 
L 152.772419 181.988523 
L 153.586089 176.893337 
L 154.39976 200.244947 
L 155.21343 200.131613 
L 156.027101 210.439035 
L 156.840772 219.003384 
L 157.654442 81.275485 
L 158.468113 157.095655 
L 159.281783 178.929157 
L 160.095454 185.895885 
L 160.909124 199.821137 
L 161.722795 221.791441 
L 162.536465 227.610025 
L 163.350136 230.20627 
L 164.163806 248.93282 
L 164.977477 253.003087 
L 165.791147 95.513115 
L 166.604818 165.458547 
L 168.232159 201.519185 
L 169.04583 213.169794 
L 169.8595 220.050423 
L 170.673171 236.436526 
L 171.486841 230.066022 
L 172.300512 266.179908 
L 173.114182 245.995542 
L 173.927853 73.648071 
L 174.741523 111.313331 
L 176.368864 140.453883 
L 177.182535 137.028289 
L 177.996206 160.104062 
L 178.809876 169.505817 
L 179.623547 168.242145 
L 180.437217 196.618731 
L 181.250888 199.719511 
L 182.064558 108.892412 
L 182.878229 151.506521 
L 184.50557 197.989471 
L 185.31924 212.042333 
L 186.132911 204.344405 
L 186.946582 223.765926 
L 187.760252 218.84722 
L 188.573923 219.719664 
L 189.387593 225.129627 
L 190.201264 87.740162 
L 191.828605 181.267794 
L 192.642275 178.005924 
L 194.269616 204.631901 
L 195.083287 216.141391 
L 195.896957 208.343604 
L 196.710628 212.775805 
L 197.524299 218.130825 
L 198.337969 106.768922 
L 199.96531 188.676797 
L 200.778981 198.610914 
L 201.592651 248.674395 
L 202.406322 238.251678 
L 203.219992 267.467357 
L 204.033663 270.136562 
L 204.847333 276.125657 
L 205.661004 258.625854 
L 206.474674 113.408102 
L 207.288345 153.308917 
L 208.102016 165.557926 
L 208.915686 192.477728 
L 209.729357 181.212235 
L 210.543027 199.815282 
L 211.356698 188.20187 
L 212.170368 199.07312 
L 212.984039 215.923364 
L 213.797709 222.074633 
L 214.61138 102.739771 
L 215.42505 153.363858 
L 216.238721 186.977897 
L 217.052391 211.380429 
L 218.679733 238.928594 
L 219.493403 245.486451 
L 220.307074 240.654022 
L 221.120744 242.765124 
L 221.934415 255.454347 
L 222.748085 105.653066 
L 225.189097 174.063798 
L 226.002767 175.624947 
L 226.816438 212.915234 
L 227.630109 205.413653 
L 228.443779 229.616391 
L 229.25745 229.516297 
L 230.07112 222.722132 
L 230.884791 111.579452 
L 231.698461 163.59511 
L 232.512132 196.982465 
L 233.325802 212.011645 
L 234.139473 223.880762 
L 234.953143 224.993828 
L 235.766814 240.327605 
L 236.580484 229.617104 
L 238.207826 254.813694 
L 239.021496 129.94535 
L 239.835167 178.432885 
L 240.648837 193.1114 
L 241.462508 194.271677 
L 242.276178 212.43778 
L 243.089849 226.952511 
L 243.903519 237.931559 
L 244.71719 236.449795 
L 245.53086 243.329784 
L 246.344531 260.542159 
L 247.158201 109.069258 
L 247.971872 186.197333 
L 248.785543 190.471386 
L 249.599213 211.933875 
L 250.412884 201.643077 
L 251.226554 252.091462 
L 252.040225 209.440681 
L 252.853895 237.327978 
L 253.667566 256.929948 
L 254.481236 263.928963 
L 255.294907 99.153443 
L 256.108577 141.691246 
L 256.922248 149.362531 
L 257.735918 168.433259 
L 258.549589 170.927224 
L 259.36326 190.282583 
L 260.17693 190.246118 
L 260.990601 207.610652 
L 261.804271 214.818367 
L 262.617942 219.172183 
L 263.431612 97.438853 
L 264.245283 148.215282 
L 265.058953 178.403665 
L 265.872624 193.483882 
L 266.686294 161.515266 
L 267.499965 205.465756 
L 268.313636 225.042551 
L 269.127306 230.77248 
L 269.940977 194.915758 
L 270.754647 240.82904 
L 271.568318 101.845493 
L 272.381988 145.352149 
L 273.195659 163.605033 
L 274.009329 175.30911 
L 274.823 182.412275 
L 275.63667 197.0257 
L 277.264011 203.314072 
L 278.077682 213.385226 
L 278.891353 221.232068 
L 279.705023 118.109542 
L 281.332364 169.112847 
L 282.146035 183.117958 
L 282.959705 181.697762 
L 283.773376 192.395794 
L 284.587046 199.202511 
L 285.400717 207.453322 
L 286.214387 206.962002 
L 287.028058 219.032715 
L 287.841728 122.289973 
L 288.655399 156.319134 
L 289.46907 173.859514 
L 290.28274 200.865581 
L 291.096411 206.230032 
L 292.723752 223.959509 
L 293.537422 225.366667 
L 294.351093 240.889213 
L 295.164763 243.58562 
L 295.978434 124.772104 
L 296.792104 163.127661 
L 298.419445 189.680042 
L 299.233116 214.889233 
L 300.046787 219.562272 
L 300.860457 226.62283 
L 301.674128 226.402411 
L 302.487798 245.95664 
L 303.301469 236.373359 
L 304.115139 138.598828 
L 304.92881 165.288834 
L 305.74248 176.587986 
L 306.556151 189.94517 
L 307.369821 197.964546 
L 308.183492 193.050597 
L 308.997163 201.889048 
L 309.810833 209.011064 
L 310.624504 214.054766 
L 311.438174 221.09168 
L 312.251845 131.198208 
L 313.065515 174.524649 
L 313.879186 191.133044 
L 314.692856 195.973692 
L 315.506527 208.196236 
L 316.320197 216.995679 
L 317.947538 230.15797 
L 318.761209 232.183335 
L 319.57488 236.138072 
L 320.38855 132.421951 
L 321.202221 168.888137 
L 322.015891 177.354819 
L 322.829562 192.731854 
L 323.643232 203.04336 
L 324.456903 208.172086 
L 325.270573 214.668409 
L 326.084244 233.561114 
L 326.897914 225.549937 
L 327.711585 236.388082 
L 328.525255 123.593384 
L 330.152597 156.790589 
L 331.779938 178.386853 
L 333.407279 193.559008 
L 334.220949 198.222774 
L 335.03462 210.364496 
L 335.84829 212.370478 
L 336.661961 128.411613 
L 337.475631 162.01947 
L 338.289302 186.919231 
L 339.102972 189.754013 
L 339.916643 209.46873 
L 341.543984 221.684808 
L 342.357655 236.422333 
L 343.171325 239.126607 
L 343.984996 236.642916 
L 344.798666 127.182334 
L 345.612337 165.11363 
L 346.426007 187.832522 
L 347.239678 206.344989 
L 348.053348 217.298076 
L 348.867019 229.757111 
L 349.68069 234.663973 
L 351.308031 249.848528 
L 352.121701 253.36856 
L 352.935372 121.801763 
L 354.562713 185.251265 
L 355.376383 196.303204 
L 356.190054 209.518186 
L 357.003724 220.299726 
L 357.817395 226.572692 
L 358.631065 228.049737 
L 359.444736 239.493128 
L 360.258407 242.966719 
L 361.072077 86.659094 
L 361.885748 113.453633 
L 362.699418 134.578708 
L 363.513089 141.452966 
L 364.326759 163.295243 
L 365.14043 170.251314 
L 365.9541 179.427207 
L 366.767771 176.825315 
L 367.581441 198.225625 
L 368.395112 198.630297 
L 369.208782 93.878331 
L 370.022453 131.24869 
L 370.836124 152.456198 
L 371.649794 139.851425 
L 372.463465 170.812994 
L 373.277135 173.195283 
L 374.090806 193.448851 
L 374.904476 181.282748 
L 375.718147 192.443487 
L 376.531817 209.852277 
L 377.345488 105.742691 
L 378.159158 157.303894 
L 379.786499 200.124357 
L 380.60017 215.336779 
L 382.227511 230.99237 
L 383.041182 237.077439 
L 383.854852 246.199621 
L 384.668523 239.074041 
L 384.668523 239.074041 
" style="fill:none;stroke:#1f77b4;stroke-linecap:square;stroke-opacity:0.3;stroke-width:1.5;"/>
   </g>
   <g id="line2d_17">
    <path clip-path="url(#p72e7cfc67a)" d="M 60.013977 51.970238 
L 60.827648 66.189536 
L 61.641318 90.266373 
L 64.08233 176.645773 
L 64.896001 184.397614 
L 65.709671 179.688539 
L 66.523342 167.778595 
L 67.337012 152.279147 
L 68.150683 138.944059 
L 68.964353 130.344627 
L 69.778024 125.66921 
L 70.591694 130.958007 
L 71.405365 147.582366 
L 72.219035 186.834645 
L 73.032706 192.478676 
L 73.846376 187.548833 
L 76.287388 162.166823 
L 77.101059 156.968751 
L 77.914729 155.818667 
L 78.7284 162.971111 
L 79.54207 177.969555 
L 80.355741 220.493798 
L 81.169411 222.058256 
L 81.983082 209.500073 
L 83.610423 164.636953 
L 85.237764 119.241423 
L 86.051435 108.877129 
L 86.865105 109.41024 
L 87.678776 124.350789 
L 88.492446 166.643954 
L 89.306117 171.342623 
L 90.119787 169.302287 
L 90.933458 164.140325 
L 92.560799 152.207675 
L 93.374469 149.737305 
L 94.18814 153.591312 
L 95.00181 162.904499 
L 95.815481 179.099007 
L 96.629152 216.347272 
L 97.442822 217.781307 
L 98.256493 208.439788 
L 99.070163 192.422985 
L 100.697504 152.670769 
L 101.511175 136.956202 
L 102.324845 128.599994 
L 103.138516 130.659275 
L 103.952186 144.903108 
L 104.765857 183.253449 
L 105.579528 186.282415 
L 106.393198 181.502587 
L 107.206869 173.104571 
L 108.020539 163.3605 
L 108.83421 156.427729 
L 109.64788 152.458083 
L 110.461551 154.473605 
L 111.275221 163.19944 
L 112.088892 179.238695 
L 112.902562 216.300801 
L 113.716233 217.792988 
L 114.529903 208.831958 
L 115.343574 194.263476 
L 116.970915 159.957758 
L 117.784586 144.989791 
L 118.598256 136.870295 
L 119.411927 137.007276 
L 120.225597 148.420213 
L 121.039268 184.793945 
L 121.852938 186.712043 
L 122.666609 181.431981 
L 123.480279 170.90202 
L 125.921291 135.713853 
L 126.734962 132.230505 
L 127.548632 136.800988 
L 128.362303 153.195745 
L 129.175973 194.575419 
L 129.989644 200.309946 
L 130.803314 194.146124 
L 131.616985 179.319835 
L 134.057996 122.454993 
L 134.871667 111.131721 
L 135.685337 109.331546 
L 136.499008 121.821998 
L 137.312679 161.300603 
L 138.126349 164.966053 
L 138.94002 161.751898 
L 140.567361 142.540802 
L 141.381031 136.99952 
L 142.194702 133.507442 
L 143.008372 133.65309 
L 143.822043 140.979936 
L 144.635713 157.137885 
L 145.449384 190.745465 
L 146.263055 191.023883 
L 147.076725 184.244877 
L 148.704066 160.889276 
L 150.331407 146.754413 
L 151.145078 146.765294 
L 151.958748 152.928418 
L 152.772419 166.786423 
L 153.586089 200.459309 
L 154.39976 199.227223 
L 156.027101 183.266044 
L 156.840772 174.469973 
L 157.654442 167.658264 
L 158.468113 163.689345 
L 159.281783 167.778325 
L 160.095454 176.222449 
L 160.909124 193.710831 
L 161.722795 234.282356 
L 162.536465 231.605377 
L 163.350136 224.574888 
L 164.163806 213.504547 
L 165.791147 187.956503 
L 166.604818 180.210951 
L 167.418489 179.912259 
L 168.232159 182.683768 
L 169.04583 200.795679 
L 169.8595 243.789583 
L 170.673171 242.378449 
L 171.486841 230.968421 
L 173.114182 187.873166 
L 174.741523 139.899058 
L 175.555194 126.776894 
L 176.368864 119.170921 
L 177.182535 131.814976 
L 177.996206 167.225779 
L 178.809876 170.892083 
L 179.623547 170.650763 
L 180.437217 167.688518 
L 181.250888 166.075073 
L 182.064558 165.864594 
L 182.878229 167.407593 
L 183.691899 173.810469 
L 184.50557 181.749487 
L 185.31924 195.881105 
L 186.132911 226.493976 
L 186.946582 223.492589 
L 190.201264 168.472167 
L 191.014934 159.846366 
L 191.828605 161.356169 
L 192.642275 168.661924 
L 193.455946 182.993769 
L 194.269616 215.944064 
L 195.083287 213.794878 
L 195.896957 201.547356 
L 196.710628 191.877483 
L 197.524299 177.782683 
L 198.337969 172.262305 
L 199.15164 171.19616 
L 199.96531 180.438734 
L 200.778981 196.175104 
L 201.592651 221.158722 
L 202.406322 263.558827 
L 203.219992 267.59283 
L 204.033663 257.191084 
L 204.847333 238.110021 
L 206.474674 195.325743 
L 207.288345 177.51079 
L 208.102016 166.825981 
L 208.915686 163.872135 
L 209.729357 174.01749 
L 210.543027 205.626244 
L 211.356698 203.435226 
L 212.170368 195.080663 
L 212.984039 184.110172 
L 213.797709 178.173155 
L 214.61138 173.577306 
L 215.42505 176.277405 
L 216.238721 182.98089 
L 217.052391 194.543458 
L 217.866062 211.991648 
L 218.679733 249.557192 
L 219.493403 250.382131 
L 220.307074 237.521757 
L 222.748085 174.407789 
L 223.561756 161.204572 
L 224.375426 154.42954 
L 225.189097 158.019566 
L 226.002767 173.636506 
L 226.816438 212.147535 
L 227.630109 216.124848 
L 228.443779 209.99023 
L 230.07112 192.898536 
L 230.884791 184.942171 
L 231.698461 182.913925 
L 232.512132 185.605718 
L 233.325802 194.85738 
L 234.139473 210.036577 
L 234.953143 242.195122 
L 235.766814 239.933956 
L 236.580484 231.108477 
L 237.394155 220.764134 
L 239.021496 196.914275 
L 239.835167 188.61678 
L 240.648837 188.490463 
L 241.462508 192.175386 
L 242.276178 203.014596 
L 243.089849 238.45977 
L 243.903519 235.791168 
L 244.71719 230.463094 
L 246.344531 209.429416 
L 247.158201 194.883525 
L 247.971872 191.617948 
L 248.785543 189.764428 
L 249.599213 192.371969 
L 250.412884 204.117578 
L 251.226554 242.906811 
L 252.040225 240.404643 
L 252.853895 233.301595 
L 254.481236 199.796135 
L 255.294907 177.814161 
L 256.108577 166.909888 
L 256.922248 153.779468 
L 257.735918 151.038675 
L 258.549589 162.193564 
L 259.36326 199.102909 
L 260.17693 200.024706 
L 260.990601 194.903274 
L 261.804271 186.078608 
L 262.617942 181.805313 
L 263.431612 170.703955 
L 264.245283 163.545864 
L 265.058953 161.560641 
L 266.686294 182.916145 
L 267.499965 216.280221 
L 268.313636 215.221732 
L 269.127306 207.306933 
L 270.754647 187.553392 
L 271.568318 170.830756 
L 272.381988 161.055496 
L 273.195659 159.217746 
L 274.009329 165.219156 
L 274.823 172.856048 
L 275.63667 204.581246 
L 276.450341 205.831057 
L 277.264011 200.038675 
L 279.705023 172.604267 
L 280.518694 166.564461 
L 281.332364 164.065155 
L 282.146035 167.131992 
L 282.959705 176.434967 
L 283.773376 203.340513 
L 284.587046 204.24524 
L 285.400717 198.259023 
L 286.214387 189.154992 
L 287.841728 176.307447 
L 288.655399 173.686122 
L 289.46907 176.089893 
L 290.28274 183.08375 
L 291.096411 196.158095 
L 291.910081 227.603245 
L 292.723752 229.660787 
L 293.537422 223.667002 
L 295.978434 188.075271 
L 296.792104 180.933572 
L 297.605775 179.882103 
L 298.419445 182.729484 
L 299.233116 197.1224 
L 300.046787 228.607526 
L 300.860457 231.223197 
L 301.674128 226.844693 
L 302.487798 216.209408 
L 303.301469 202.635644 
L 304.92881 182.945359 
L 305.74248 177.224336 
L 306.556151 176.043052 
L 307.369821 184.33506 
L 308.183492 208.042419 
L 308.997163 206.976804 
L 309.810833 201.963904 
L 311.438174 189.544933 
L 312.251845 185.582289 
L 313.065515 182.97692 
L 313.879186 184.036544 
L 314.692856 190.184119 
L 315.506527 201.449481 
L 316.320197 227.929634 
L 317.133868 226.972159 
L 317.947538 221.45723 
L 318.761209 211.711664 
L 320.38855 189.284145 
L 321.202221 181.764966 
L 322.015891 177.587856 
L 322.829562 182.155264 
L 323.643232 192.808777 
L 324.456903 221.883595 
L 325.270573 224.287777 
L 326.084244 218.615151 
L 326.897914 206.286028 
L 328.525255 177.406423 
L 329.338926 165.186413 
L 330.152597 157.496514 
L 330.966267 158.152869 
L 331.779938 166.818633 
L 332.593608 194.243297 
L 333.407279 197.478455 
L 334.220949 193.815996 
L 335.03462 189.130398 
L 335.84829 182.689249 
L 336.661961 178.395757 
L 337.475631 176.930833 
L 338.289302 178.496428 
L 339.102972 185.336186 
L 339.916643 199.462845 
L 340.730314 228.329141 
L 341.543984 229.541063 
L 342.357655 222.557078 
L 343.171325 212.502675 
L 343.984996 200.444612 
L 344.798666 190.962733 
L 345.612337 185.48315 
L 346.426007 184.717904 
L 347.239678 191.770394 
L 348.053348 206.991021 
L 348.867019 241.081274 
L 349.68069 243.193235 
L 350.49436 233.829801 
L 352.935372 191.317667 
L 353.749042 182.271481 
L 354.562713 179.203351 
L 355.376383 182.807848 
L 356.190054 196.273242 
L 357.003724 233.718562 
L 357.817395 235.421659 
L 358.631065 223.11672 
L 359.444736 205.398745 
L 361.072077 161.235475 
L 361.885748 144.283703 
L 362.699418 135.228166 
L 363.513089 132.66764 
L 364.326759 144.106266 
L 365.14043 179.149307 
L 365.9541 182.468278 
L 366.767771 177.971603 
L 367.581441 172.539019 
L 368.395112 160.461149 
L 369.208782 151.477653 
L 370.022453 143.806105 
L 370.836124 143.58559 
L 371.649794 145.933679 
L 372.463465 156.150665 
L 373.277135 184.684781 
L 374.090806 185.036502 
L 374.904476 181.651344 
L 375.718147 177.315925 
L 376.531817 169.8975 
L 377.345488 167.798045 
L 378.159158 168.817844 
L 378.972829 176.770292 
L 379.786499 186.88339 
L 380.60017 203.565244 
L 381.413841 224.061454 
L 382.227511 240.819096 
L 383.041182 250.027221 
L 383.854852 247.874878 
L 384.668523 230.551118 
L 384.668523 230.551118 
" style="fill:none;stroke:#1f77b4;stroke-linecap:square;stroke-width:1.5;"/>
   </g>
   <g id="line2d_18">
    <path clip-path="url(#p72e7cfc67a)" d="M 60.013977 35.922712 
L 60.827648 83.651784 
L 61.641318 105.820277 
L 62.454989 117.932656 
L 63.268659 126.100558 
L 64.08233 132.123863 
L 64.896001 136.707697 
L 65.709671 140.233129 
L 66.523342 142.951036 
L 67.337012 145.043767 
L 68.150683 143.737155 
L 68.964353 156.172691 
L 69.778024 165.602243 
L 70.591694 172.828211 
L 71.405365 178.39982 
L 72.219035 182.700363 
L 73.032706 186.011756 
L 73.846376 188.549361 
L 74.660047 190.48148 
L 75.473718 191.941433 
L 76.287388 186.014382 
L 77.101059 193.829236 
L 77.914729 199.555777 
L 78.7284 203.757658 
L 79.54207 206.846593 
L 80.355741 209.112768 
L 81.169411 210.767276 
L 81.983082 211.967152 
L 82.796752 212.830394 
L 83.610423 213.445921 
L 84.424093 220.298674 
L 85.237764 223.056784 
L 86.051435 224.979471 
L 86.865105 226.314274 
L 87.678776 227.236028 
L 88.492446 227.868238 
L 89.306117 228.298606 
L 90.933458 228.784292 
L 91.747128 228.91418 
L 92.560799 233.136606 
L 93.374469 234.144914 
L 94.18814 234.783915 
L 95.00181 235.1887 
L 96.629152 235.748343 
L 97.442822 236.871899 
L 98.256493 238.806327 
L 99.070163 241.797202 
L 99.883834 243.871346 
L 100.697504 245.256455 
L 101.511175 247.778481 
L 103.138516 250.513673 
L 106.393198 255.207039 
L 108.020539 257.269511 
L 108.83421 253.767737 
L 109.64788 254.778896 
L 110.461551 256.147215 
L 113.716233 259.587069 
L 116.157245 261.616853 
L 116.970915 257.837533 
L 117.784586 258.861511 
L 119.411927 260.440309 
L 121.039268 261.676318 
L 122.666609 262.665796 
L 124.29395 263.45744 
L 125.10762 258.777915 
L 125.921291 259.697866 
L 126.734962 260.230708 
L 128.362303 260.933349 
L 130.803314 261.649714 
L 132.430655 262.001792 
L 133.244326 260.343892 
L 134.057996 260.811557 
L 135.685337 261.369722 
L 138.126349 261.877283 
L 141.381031 262.4454 
L 143.008372 262.817762 
L 146.263055 263.200745 
L 148.704066 263.391945 
L 149.517737 263.307542 
L 151.145078 263.65383 
L 154.39976 263.954237 
L 156.840772 264.107989 
L 158.468113 265.85543 
L 160.095454 266.425392 
L 162.536465 266.885617 
L 164.977477 267.165104 
L 165.791147 265.215642 
L 166.604818 265.560885 
L 168.232159 265.95265 
L 171.486841 266.409125 
L 173.114182 266.580801 
L 173.927853 267.369902 
L 176.368864 267.706533 
L 181.250888 268.054901 
L 182.064558 271.469972 
L 183.691899 271.685012 
L 189.387593 271.997069 
L 190.201264 274.806594 
L 191.014934 275.09449 
L 193.455946 275.335991 
L 197.524299 275.528457 
L 198.337969 274.34453 
L 199.15164 274.597543 
L 201.592651 274.785048 
L 205.661004 274.920601 
L 206.474674 274.17602 
L 208.102016 274.509098 
L 211.356698 274.831889 
L 218.679733 275.281293 
L 222.748085 275.4465 
L 223.561756 275.647256 
L 230.07112 275.703245 
L 230.884791 276.076888 
L 238.207826 276.096759 
L 239.021496 275.453019 
L 240.648837 275.605477 
L 257.735918 276.118636 
L 262.617942 276.118752 
L 263.431612 275.199033 
L 264.245283 275.485315 
L 267.499965 275.764193 
L 270.754647 275.873549 
L 271.568318 276.121813 
L 323.643232 276.123419 
L 343.984996 276.125197 
L 344.798666 273.634447 
L 346.426007 274.075779 
L 348.867019 274.832039 
L 351.308031 275.238519 
L 352.121701 275.317826 
L 352.935372 276.089312 
L 369.208782 276.107 
L 384.668523 276.116668 
L 384.668523 276.116668 
" style="fill:none;stroke:#ff7f0e;stroke-linecap:square;stroke-opacity:0.3;stroke-width:1.5;"/>
   </g>
   <g id="line2d_19">
    <path clip-path="url(#p72e7cfc67a)" d="M 60.013977 41.391916 
L 60.827648 76.551194 
L 61.641318 101.937056 
L 62.454989 119.166978 
L 63.268659 129.858435 
L 64.08233 135.628902 
L 64.896001 137.046226 
L 65.709671 139.079826 
L 66.523342 141.91044 
L 67.337012 145.750344 
L 68.150683 150.72718 
L 69.778024 163.513669 
L 71.405365 177.267182 
L 72.219035 183.532897 
L 73.032706 186.030717 
L 75.473718 190.365468 
L 76.287388 192.458154 
L 77.101059 195.149841 
L 78.7284 201.980353 
L 79.54207 205.719003 
L 80.355741 208.761797 
L 81.983082 212.019308 
L 82.796752 214.077993 
L 84.424093 219.060108 
L 86.051435 224.191578 
L 86.865105 226.247943 
L 87.678776 227.600785 
L 88.492446 227.606539 
L 89.306117 228.019229 
L 90.119787 228.686357 
L 90.933458 229.612534 
L 94.18814 234.176802 
L 95.815481 235.7149 
L 96.629152 236.390631 
L 97.442822 237.584565 
L 98.256493 239.227584 
L 99.883834 243.398507 
L 101.511175 247.479732 
L 102.324845 249.110592 
L 104.765857 253.418609 
L 105.579528 254.373418 
L 106.393198 254.970538 
L 107.206869 255.327252 
L 110.461551 256.163012 
L 111.275221 256.707561 
L 112.088892 257.565674 
L 112.902562 259.187897 
L 113.716233 259.846565 
L 114.529903 260.077738 
L 115.343574 260.089118 
L 117.784586 259.717942 
L 118.598256 259.785262 
L 119.411927 260.086432 
L 120.225597 260.697478 
L 121.039268 262.110526 
L 121.852938 262.466944 
L 122.666609 262.408151 
L 123.480279 262.075838 
L 125.921291 260.586216 
L 126.734962 260.273833 
L 127.548632 260.21764 
L 128.362303 260.511925 
L 129.175973 261.400461 
L 129.989644 261.540927 
L 131.616985 261.466222 
L 134.057996 261.140409 
L 135.685337 261.200893 
L 136.499008 261.401795 
L 137.312679 261.739357 
L 141.381031 262.461713 
L 144.635713 263.043327 
L 147.076725 263.249026 
L 151.145078 263.619231 
L 153.586089 263.832529 
L 154.39976 263.836446 
L 155.21343 263.969695 
L 156.840772 264.595574 
L 160.909124 266.681425 
L 161.722795 266.979644 
L 162.536465 266.999058 
L 164.163806 266.673179 
L 166.604818 265.937772 
L 167.418489 265.800833 
L 168.232159 265.780376 
L 169.04583 265.910339 
L 169.8595 266.163237 
L 171.486841 266.43344 
L 177.182535 267.837398 
L 177.996206 267.56615 
L 178.809876 267.684245 
L 179.623547 268.082978 
L 181.250888 269.410033 
L 182.878229 270.914315 
L 183.691899 271.530729 
L 184.50557 271.94751 
L 185.31924 272.082251 
L 186.132911 271.619065 
L 186.946582 271.692806 
L 187.760252 272.015519 
L 189.387593 273.147266 
L 191.828605 275.032495 
L 192.642275 275.423944 
L 193.455946 275.573586 
L 196.710628 275.261389 
L 199.96531 274.680293 
L 201.592651 274.688053 
L 202.406322 274.901658 
L 204.033663 274.825784 
L 208.102016 274.500892 
L 209.729357 274.622853 
L 211.356698 274.830937 
L 218.679733 275.283664 
L 221.120744 275.366475 
L 226.002767 275.686575 
L 228.443779 275.703877 
L 234.953143 276.151317 
L 236.580484 276.060628 
L 241.462508 275.579537 
L 246.344531 275.780909 
L 251.226554 276.039013 
L 258.549589 276.124535 
L 259.36326 276.196043 
L 260.990601 276.056264 
L 264.245283 275.604462 
L 265.872624 275.567957 
L 273.195659 276.116512 
L 276.450341 276.123747 
L 339.916643 276.124983 
L 340.730314 276.334125 
L 341.543984 276.265316 
L 342.357655 275.993566 
L 345.612337 274.3862 
L 346.426007 274.185647 
L 347.239678 274.165246 
L 348.053348 274.360468 
L 348.867019 274.742218 
L 354.562713 276.079279 
L 356.190054 276.164439 
L 357.817395 276.099571 
L 384.668523 276.117017 
L 384.668523 276.117017 
" style="fill:none;stroke:#ff7f0e;stroke-linecap:square;stroke-width:1.5;"/>
   </g>
   <g id="line2d_20">
    <path clip-path="url(#p72e7cfc67a)" d="M 60.013977 35.218686 
L 60.827648 39.80625 
L 61.641318 40.795658 
L 62.454989 39.410828 
L 64.08233 34.414125 
L 64.896001 35.135264 
L 65.709671 38.937026 
L 66.523342 44.638581 
L 69.778024 73.539252 
L 70.591694 77.754132 
L 71.405365 78.764802 
L 72.219035 77.475068 
L 73.032706 77.075205 
L 73.846376 75.39814 
L 75.473718 70.979537 
L 77.101059 65.807112 
L 77.914729 63.354656 
L 78.7284 61.78866 
L 79.54207 60.883368 
L 80.355741 63.298752 
L 81.169411 62.32778 
L 81.983082 60.026816 
L 83.610423 52.961478 
L 85.237764 45.620597 
L 86.051435 41.989669 
L 86.865105 39.589364 
L 88.492446 37.870738 
L 89.306117 37.694605 
L 90.119787 39.775764 
L 90.933458 43.56526 
L 91.747128 48.831896 
L 93.374469 60.752616 
L 94.18814 65.243762 
L 95.00181 68.520879 
L 95.815481 69.713082 
L 96.629152 66.885334 
L 97.442822 66.774692 
L 98.256493 67.970976 
L 99.070163 70.043201 
L 102.324845 80.14231 
L 103.138516 81.76672 
L 103.952186 82.799551 
L 104.765857 81.605288 
L 105.579528 81.889902 
L 106.393198 83.225931 
L 107.206869 84.963286 
L 109.64788 91.103907 
L 110.461551 92.716239 
L 111.275221 94.010634 
L 112.088892 94.796339 
L 112.902562 92.704967 
L 113.716233 92.699667 
L 114.529903 94.203358 
L 115.343574 96.093353 
L 116.157245 98.577565 
L 117.784586 103.942 
L 119.411927 107.998704 
L 120.225597 109.180161 
L 121.039268 105.575385 
L 121.852938 106.11032 
L 122.666609 109.770445 
L 123.480279 115.917069 
L 125.10762 132.658887 
L 126.734962 147.831429 
L 127.548632 152.773873 
L 128.362303 154.987104 
L 129.175973 148.173561 
L 129.989644 148.820833 
L 130.803314 153.862954 
L 131.616985 161.226955 
L 134.871667 195.281964 
L 135.685337 199.631877 
L 136.499008 200.14225 
L 137.312679 199.480265 
L 138.126349 199.082692 
L 138.94002 195.859473 
L 139.75369 190.591579 
L 142.194702 169.546146 
L 143.008372 164.166657 
L 143.822043 160.082935 
L 144.635713 158.573747 
L 145.449384 160.428827 
L 146.263055 159.526059 
L 147.076725 159.802701 
L 148.704066 161.715411 
L 149.517737 163.140334 
L 150.331407 164.276133 
L 151.145078 165.676303 
L 151.958748 166.001829 
L 152.772419 165.798336 
L 153.586089 162.860703 
L 154.39976 163.846246 
L 155.21343 167.884173 
L 156.027101 174.583057 
L 158.468113 198.149583 
L 159.281783 204.584254 
L 160.095454 209.479699 
L 160.909124 211.343965 
L 161.722795 210.478955 
L 162.536465 212.138601 
L 163.350136 212.843142 
L 164.163806 211.951698 
L 164.977477 209.387854 
L 168.232159 194.252663 
L 169.04583 192.395144 
L 169.8595 192.054443 
L 170.673171 192.85246 
L 171.486841 192.657051 
L 173.927853 190.915536 
L 176.368864 188.637234 
L 177.182535 189.435509 
L 177.996206 186.006799 
L 178.809876 188.868006 
L 179.623547 194.239123 
L 180.437217 202.100968 
L 182.878229 229.317848 
L 183.691899 236.247055 
L 184.50557 240.829971 
L 185.31924 242.051848 
L 186.132911 239.135536 
L 186.946582 240.151504 
L 187.760252 237.867611 
L 188.573923 234.543852 
L 189.387593 230.439188 
L 190.201264 224.337951 
L 191.828605 214.641583 
L 192.642275 210.993725 
L 193.455946 208.906846 
L 194.269616 207.615602 
L 195.083287 208.6322 
L 195.896957 207.37021 
L 196.710628 207.220106 
L 197.524299 205.949568 
L 198.337969 204.001221 
L 199.15164 204.236172 
L 200.778981 200.930941 
L 201.592651 199.894218 
L 202.406322 198.558728 
L 203.219992 198.877801 
L 204.847333 194.706411 
L 206.474674 187.699556 
L 208.102016 179.925204 
L 208.915686 176.6186 
L 209.729357 175.345048 
L 210.543027 174.725476 
L 211.356698 175.192665 
L 212.170368 176.883809 
L 212.984039 177.785175 
L 213.797709 177.674709 
L 214.61138 177.357522 
L 215.42505 176.415985 
L 216.238721 176.76816 
L 217.052391 176.107618 
L 217.866062 175.145587 
L 218.679733 174.703235 
L 219.493403 175.885363 
L 220.307074 177.325312 
L 221.120744 176.465356 
L 221.934415 174.475617 
L 223.561756 171.820816 
L 224.375426 171.324287 
L 225.189097 170.245728 
L 226.002767 168.747148 
L 226.816438 168.707486 
L 227.630109 169.694202 
L 228.443779 170.204637 
L 229.25745 169.439783 
L 230.884791 170.427837 
L 231.698461 172.119425 
L 232.512132 172.379429 
L 233.325802 172.180875 
L 234.139473 171.804517 
L 234.953143 171.793345 
L 235.766814 170.658839 
L 236.580484 169.131392 
L 237.394155 166.917772 
L 240.648837 159.78013 
L 241.462508 159.059054 
L 242.276178 158.656823 
L 243.089849 157.152975 
L 243.903519 158.96914 
L 245.53086 164.73272 
L 247.158201 172.249625 
L 247.971872 175.151139 
L 248.785543 176.34671 
L 249.599213 175.975415 
L 250.412884 172.813769 
L 251.226554 165.993906 
L 252.040225 164.77195 
L 252.853895 165.268042 
L 253.667566 168.516928 
L 254.481236 173.018505 
L 256.108577 183.742357 
L 256.922248 187.022351 
L 257.735918 188.830199 
L 258.549589 188.211504 
L 259.36326 185.246298 
L 260.990601 183.287412 
L 262.617942 179.697482 
L 263.431612 177.655618 
L 265.058953 174.199599 
L 265.872624 173.422731 
L 266.686294 172.811665 
L 267.499965 172.566935 
L 268.313636 174.397285 
L 269.127306 177.283774 
L 269.940977 179.750595 
L 270.754647 182.615549 
L 271.568318 184.059062 
L 272.381988 186.230025 
L 273.195659 186.910635 
L 274.009329 186.921765 
L 274.823 185.399168 
L 275.63667 181.560419 
L 276.450341 181.98333 
L 277.264011 184.587833 
L 278.077682 188.001898 
L 280.518694 200.940501 
L 281.332364 204.250729 
L 282.146035 205.632756 
L 282.959705 205.030129 
L 283.773376 202.542533 
L 284.587046 200.808446 
L 285.400717 198.738724 
L 287.028058 195.601169 
L 287.841728 193.539775 
L 289.46907 190.415269 
L 291.910081 186.938148 
L 292.723752 186.020768 
L 293.537422 186.398842 
L 295.978434 192.179385 
L 296.792104 194.698123 
L 297.605775 196.412375 
L 298.419445 197.468309 
L 299.233116 197.232223 
L 300.046787 193.046134 
L 300.860457 192.968179 
L 301.674128 195.852258 
L 302.487798 200.541737 
L 303.301469 206.460735 
L 304.92881 220.429183 
L 305.74248 226.231461 
L 306.556151 230.199411 
L 307.369821 231.635755 
L 308.183492 229.34889 
L 308.997163 229.732585 
L 309.810833 229.612304 
L 310.624504 228.170768 
L 312.251845 224.952341 
L 313.879186 222.120665 
L 314.692856 221.150802 
L 315.506527 221.208089 
L 316.320197 220.340133 
L 317.947538 222.727456 
L 319.57488 224.945282 
L 320.38855 226.483303 
L 321.202221 227.10932 
L 322.015891 227.445514 
L 322.829562 227.409418 
L 323.643232 226.91948 
L 324.456903 225.433494 
L 325.270573 226.053779 
L 326.084244 226.453999 
L 326.897914 227.163173 
L 328.525255 227.724859 
L 330.152597 226.875447 
L 331.779938 225.293846 
L 332.593608 223.190133 
L 333.407279 223.300165 
L 334.220949 225.421529 
L 335.84829 231.156022 
L 336.661961 234.25421 
L 338.289302 238.620684 
L 339.102972 239.266315 
L 339.916643 238.860127 
L 340.730314 238.155106 
L 341.543984 236.967196 
L 342.357655 234.914212 
L 343.984996 227.326936 
L 345.612337 219.320516 
L 346.426007 216.259082 
L 347.239678 214.128544 
L 348.053348 213.896283 
L 348.867019 212.16278 
L 349.68069 212.434596 
L 350.49436 216.181726 
L 351.308031 221.663086 
L 353.749042 241.124367 
L 354.562713 245.95239 
L 355.376383 249.076563 
L 356.190054 249.423846 
L 357.003724 245.146002 
L 357.817395 245.100207 
L 358.631065 245.934945 
L 359.444736 247.262139 
L 360.258407 248.169631 
L 361.885748 251.143603 
L 362.699418 252.492753 
L 363.513089 253.261068 
L 364.326759 253.251711 
L 365.14043 252.817757 
L 366.767771 252.942784 
L 367.581441 253.348151 
L 368.395112 252.952719 
L 369.208782 252.983496 
L 370.022453 252.347728 
L 370.836124 252.149419 
L 371.649794 251.030655 
L 372.463465 250.472121 
L 373.277135 247.849267 
L 374.090806 247.958509 
L 374.904476 250.283091 
L 375.718147 254.367787 
L 378.159158 269.04484 
L 378.972829 272.799741 
L 379.786499 274.800709 
L 380.60017 275.06901 
L 382.227511 270.989205 
L 383.041182 270.082283 
L 383.854852 271.184995 
L 384.668523 275.238078 
L 384.668523 275.238078 
" style="fill:none;stroke:#008000;stroke-linecap:square;stroke-width:1.5;"/>
   </g>
   <g id="patch_3">
    <path d="M 43.78125 288.430125 
L 43.78125 22.318125 
" style="fill:none;stroke:#000000;stroke-linecap:square;stroke-linejoin:miter;stroke-width:0.8;"/>
   </g>
   <g id="patch_4">
    <path d="M 400.90125 288.430125 
L 400.90125 22.318125 
" style="fill:none;stroke:#000000;stroke-linecap:square;stroke-linejoin:miter;stroke-width:0.8;"/>
   </g>
   <g id="patch_5">
    <path d="M 43.78125 288.430125 
L 400.90125 288.430125 
" style="fill:none;stroke:#000000;stroke-linecap:square;stroke-linejoin:miter;stroke-width:0.8;"/>
   </g>
   <g id="patch_6">
    <path d="M 43.78125 22.318125 
L 400.90125 22.318125 
" style="fill:none;stroke:#000000;stroke-linecap:square;stroke-linejoin:miter;stroke-width:0.8;"/>
   </g>
   <g id="text_18">
    <!-- Entropy and Loss. -->
    <defs>
     <path d="M 9.1875 72.90625 
L 59.90625 72.90625 
L 59.90625 58.6875 
L 27.984375 58.6875 
L 27.984375 45.125 
L 58.015625 45.125 
L 58.015625 30.90625 
L 27.984375 30.90625 
L 27.984375 14.203125 
L 60.984375 14.203125 
L 60.984375 0 
L 9.1875 0 
z
" id="DejaVuSans-Bold-69"/>
     <path d="M 63.375 33.296875 
L 63.375 0 
L 45.796875 0 
L 45.796875 5.421875 
L 45.796875 25.484375 
Q 45.796875 32.5625 45.484375 35.25 
Q 45.171875 37.9375 44.390625 39.203125 
Q 43.359375 40.921875 41.59375 41.875 
Q 39.84375 42.828125 37.59375 42.828125 
Q 32.125 42.828125 29 38.59375 
Q 25.875 34.375 25.875 26.90625 
L 25.875 0 
L 8.40625 0 
L 8.40625 54.6875 
L 25.875 54.6875 
L 25.875 46.6875 
Q 29.828125 51.46875 34.265625 53.734375 
Q 38.71875 56 44.09375 56 
Q 53.5625 56 58.46875 50.1875 
Q 63.375 44.390625 63.375 33.296875 
z
" id="DejaVuSans-Bold-110"/>
     <path d="M 27.484375 70.21875 
L 27.484375 54.6875 
L 45.515625 54.6875 
L 45.515625 42.1875 
L 27.484375 42.1875 
L 27.484375 19 
Q 27.484375 15.1875 29 13.84375 
Q 30.515625 12.5 35.015625 12.5 
L 44 12.5 
L 44 0 
L 29 0 
Q 18.65625 0 14.328125 4.3125 
Q 10.015625 8.640625 10.015625 19 
L 10.015625 42.1875 
L 1.3125 42.1875 
L 1.3125 54.6875 
L 10.015625 54.6875 
L 10.015625 70.21875 
z
" id="DejaVuSans-Bold-116"/>
     <path d="M 49.03125 39.796875 
Q 46.734375 40.875 44.453125 41.375 
Q 42.1875 41.890625 39.890625 41.890625 
Q 33.15625 41.890625 29.515625 37.5625 
Q 25.875 33.25 25.875 25.203125 
L 25.875 0 
L 8.40625 0 
L 8.40625 54.6875 
L 25.875 54.6875 
L 25.875 45.703125 
Q 29.25 51.078125 33.609375 53.53125 
Q 37.984375 56 44.09375 56 
Q 44.96875 56 45.984375 55.921875 
Q 47.015625 55.859375 48.96875 55.609375 
z
" id="DejaVuSans-Bold-114"/>
     <path d="M 34.421875 43.5 
Q 28.609375 43.5 25.5625 39.328125 
Q 22.515625 35.15625 22.515625 27.296875 
Q 22.515625 19.4375 25.5625 15.25 
Q 28.609375 11.078125 34.421875 11.078125 
Q 40.140625 11.078125 43.15625 15.25 
Q 46.1875 19.4375 46.1875 27.296875 
Q 46.1875 35.15625 43.15625 39.328125 
Q 40.140625 43.5 34.421875 43.5 
z
M 34.421875 56 
Q 48.53125 56 56.46875 48.375 
Q 64.40625 40.765625 64.40625 27.296875 
Q 64.40625 13.8125 56.46875 6.1875 
Q 48.53125 -1.421875 34.421875 -1.421875 
Q 20.265625 -1.421875 12.28125 6.1875 
Q 4.296875 13.8125 4.296875 27.296875 
Q 4.296875 40.765625 12.28125 48.375 
Q 20.265625 56 34.421875 56 
z
" id="DejaVuSans-Bold-111"/>
     <path d="M 25.875 7.90625 
L 25.875 -20.796875 
L 8.40625 -20.796875 
L 8.40625 54.6875 
L 25.875 54.6875 
L 25.875 46.6875 
Q 29.5 51.46875 33.890625 53.734375 
Q 38.28125 56 44 56 
Q 54.109375 56 60.59375 47.96875 
Q 67.09375 39.9375 67.09375 27.296875 
Q 67.09375 14.65625 60.59375 6.609375 
Q 54.109375 -1.421875 44 -1.421875 
Q 38.28125 -1.421875 33.890625 0.84375 
Q 29.5 3.125 25.875 7.90625 
z
M 37.5 43.3125 
Q 31.890625 43.3125 28.875 39.1875 
Q 25.875 35.0625 25.875 27.296875 
Q 25.875 19.53125 28.875 15.40625 
Q 31.890625 11.28125 37.5 11.28125 
Q 43.109375 11.28125 46.0625 15.375 
Q 49.03125 19.484375 49.03125 27.296875 
Q 49.03125 35.109375 46.0625 39.203125 
Q 43.109375 43.3125 37.5 43.3125 
z
" id="DejaVuSans-Bold-112"/>
     <path d="M 1.21875 54.6875 
L 18.703125 54.6875 
L 33.40625 17.578125 
L 45.90625 54.6875 
L 63.375 54.6875 
L 40.375 -5.171875 
Q 36.921875 -14.3125 32.296875 -17.9375 
Q 27.6875 -21.578125 20.125 -21.578125 
L 10.015625 -21.578125 
L 10.015625 -10.109375 
L 15.484375 -10.109375 
Q 19.921875 -10.109375 21.9375 -8.6875 
Q 23.96875 -7.28125 25.09375 -3.609375 
L 25.59375 -2.09375 
z
" id="DejaVuSans-Bold-121"/>
     <path id="DejaVuSans-Bold-32"/>
     <path d="M 32.90625 24.609375 
Q 27.4375 24.609375 24.671875 22.75 
Q 21.921875 20.90625 21.921875 17.28125 
Q 21.921875 13.96875 24.140625 12.078125 
Q 26.375 10.203125 30.328125 10.203125 
Q 35.25 10.203125 38.625 13.734375 
Q 42 17.28125 42 22.609375 
L 42 24.609375 
z
M 59.625 31.203125 
L 59.625 0 
L 42 0 
L 42 8.109375 
Q 38.484375 3.125 34.078125 0.84375 
Q 29.6875 -1.421875 23.390625 -1.421875 
Q 14.890625 -1.421875 9.59375 3.53125 
Q 4.296875 8.5 4.296875 16.40625 
Q 4.296875 26.03125 10.90625 30.515625 
Q 17.53125 35.015625 31.6875 35.015625 
L 42 35.015625 
L 42 36.375 
Q 42 40.53125 38.71875 42.453125 
Q 35.453125 44.390625 28.515625 44.390625 
Q 22.90625 44.390625 18.0625 43.265625 
Q 13.234375 42.140625 9.078125 39.890625 
L 9.078125 53.21875 
Q 14.703125 54.59375 20.359375 55.296875 
Q 26.03125 56 31.6875 56 
Q 46.484375 56 53.046875 50.171875 
Q 59.625 44.34375 59.625 31.203125 
z
" id="DejaVuSans-Bold-97"/>
     <path d="M 45.609375 46.6875 
L 45.609375 75.984375 
L 63.1875 75.984375 
L 63.1875 0 
L 45.609375 0 
L 45.609375 7.90625 
Q 42 3.078125 37.640625 0.828125 
Q 33.296875 -1.421875 27.59375 -1.421875 
Q 17.484375 -1.421875 10.984375 6.609375 
Q 4.5 14.65625 4.5 27.296875 
Q 4.5 39.9375 10.984375 47.96875 
Q 17.484375 56 27.59375 56 
Q 33.25 56 37.625 53.734375 
Q 42 51.46875 45.609375 46.6875 
z
M 34.078125 11.28125 
Q 39.703125 11.28125 42.65625 15.375 
Q 45.609375 19.484375 45.609375 27.296875 
Q 45.609375 35.109375 42.65625 39.203125 
Q 39.703125 43.3125 34.078125 43.3125 
Q 28.515625 43.3125 25.5625 39.203125 
Q 22.609375 35.109375 22.609375 27.296875 
Q 22.609375 19.484375 25.5625 15.375 
Q 28.515625 11.28125 34.078125 11.28125 
z
" id="DejaVuSans-Bold-100"/>
     <path d="M 9.1875 72.90625 
L 27.984375 72.90625 
L 27.984375 14.203125 
L 60.984375 14.203125 
L 60.984375 0 
L 9.1875 0 
z
" id="DejaVuSans-Bold-76"/>
     <path d="M 51.125 52.984375 
L 51.125 39.703125 
Q 45.515625 42.046875 40.28125 43.21875 
Q 35.0625 44.390625 30.421875 44.390625 
Q 25.4375 44.390625 23.015625 43.140625 
Q 20.609375 41.890625 20.609375 39.3125 
Q 20.609375 37.203125 22.4375 36.078125 
Q 24.265625 34.96875 29 34.421875 
L 32.078125 33.984375 
Q 45.515625 32.28125 50.140625 28.375 
Q 54.78125 24.46875 54.78125 16.109375 
Q 54.78125 7.375 48.328125 2.96875 
Q 41.890625 -1.421875 29.109375 -1.421875 
Q 23.6875 -1.421875 17.890625 -0.5625 
Q 12.109375 0.296875 6 2 
L 6 15.28125 
Q 11.234375 12.75 16.71875 11.46875 
Q 22.21875 10.203125 27.875 10.203125 
Q 33.015625 10.203125 35.59375 11.609375 
Q 38.1875 13.03125 38.1875 15.828125 
Q 38.1875 18.171875 36.40625 19.3125 
Q 34.625 20.453125 29.296875 21.09375 
L 26.21875 21.484375 
Q 14.546875 22.953125 9.859375 26.90625 
Q 5.171875 30.859375 5.171875 38.921875 
Q 5.171875 47.609375 11.125 51.796875 
Q 17.09375 56 29.390625 56 
Q 34.234375 56 39.546875 55.265625 
Q 44.875 54.546875 51.125 52.984375 
z
" id="DejaVuSans-Bold-115"/>
     <path d="M 10.203125 18.890625 
L 27.78125 18.890625 
L 27.78125 0 
L 10.203125 0 
z
" id="DejaVuSans-Bold-46"/>
    </defs>
    <g transform="translate(161.657813 16.318125)scale(0.12 -0.12)">
     <use xlink:href="#DejaVuSans-Bold-69"/>
     <use x="68.310547" xlink:href="#DejaVuSans-Bold-110"/>
     <use x="139.501953" xlink:href="#DejaVuSans-Bold-116"/>
     <use x="187.304688" xlink:href="#DejaVuSans-Bold-114"/>
     <use x="236.621094" xlink:href="#DejaVuSans-Bold-111"/>
     <use x="305.322266" xlink:href="#DejaVuSans-Bold-112"/>
     <use x="376.904297" xlink:href="#DejaVuSans-Bold-121"/>
     <use x="442.089844" xlink:href="#DejaVuSans-Bold-32"/>
     <use x="476.904297" xlink:href="#DejaVuSans-Bold-97"/>
     <use x="544.384766" xlink:href="#DejaVuSans-Bold-110"/>
     <use x="615.576172" xlink:href="#DejaVuSans-Bold-100"/>
     <use x="687.158203" xlink:href="#DejaVuSans-Bold-32"/>
     <use x="721.972656" xlink:href="#DejaVuSans-Bold-76"/>
     <use x="785.693359" xlink:href="#DejaVuSans-Bold-111"/>
     <use x="854.394531" xlink:href="#DejaVuSans-Bold-115"/>
     <use x="913.916016" xlink:href="#DejaVuSans-Bold-115"/>
     <use x="973.4375" xlink:href="#DejaVuSans-Bold-46"/>
    </g>
   </g>
   <g id="legend_1">
    <g id="patch_7">
     <path d="M 18.982656 353.02505 
L 429.699844 353.02505 
Q 431.699844 353.02505 431.699844 351.02505 
L 431.699844 337.346925 
Q 431.699844 335.346925 429.699844 335.346925 
L 18.982656 335.346925 
Q 16.982656 335.346925 16.982656 337.346925 
L 16.982656 351.02505 
Q 16.982656 353.02505 18.982656 353.02505 
z
" style="fill:#4c4c4c;opacity:0.5;stroke:#4c4c4c;stroke-linejoin:miter;"/>
    </g>
    <g id="patch_8">
     <path d="M 16.982656 351.02505 
L 427.699844 351.02505 
Q 429.699844 351.02505 429.699844 349.02505 
L 429.699844 335.346925 
Q 429.699844 333.346925 427.699844 333.346925 
L 16.982656 333.346925 
Q 14.982656 333.346925 14.982656 335.346925 
L 14.982656 349.02505 
Q 14.982656 351.02505 16.982656 351.02505 
z
" style="fill:#ffffff;stroke:#cccccc;stroke-linejoin:miter;"/>
    </g>
    <g id="line2d_21">
     <path d="M 18.982656 341.445362 
L 38.982656 341.445362 
" style="fill:none;stroke:#1f77b4;stroke-linecap:square;stroke-width:1.5;"/>
    </g>
    <g id="line2d_22"/>
    <g id="text_19">
     <!-- Policy Loss (Normalized) -->
     <defs>
      <path d="M 19.671875 64.796875 
L 19.671875 37.40625 
L 32.078125 37.40625 
Q 38.96875 37.40625 42.71875 40.96875 
Q 46.484375 44.53125 46.484375 51.125 
Q 46.484375 57.671875 42.71875 61.234375 
Q 38.96875 64.796875 32.078125 64.796875 
z
M 9.8125 72.90625 
L 32.078125 72.90625 
Q 44.34375 72.90625 50.609375 67.359375 
Q 56.890625 61.8125 56.890625 51.125 
Q 56.890625 40.328125 50.609375 34.8125 
Q 44.34375 29.296875 32.078125 29.296875 
L 19.671875 29.296875 
L 19.671875 0 
L 9.8125 0 
z
" id="DejaVuSans-80"/>
      <path d="M 9.421875 75.984375 
L 18.40625 75.984375 
L 18.40625 0 
L 9.421875 0 
z
" id="DejaVuSans-108"/>
      <path d="M 9.421875 54.6875 
L 18.40625 54.6875 
L 18.40625 0 
L 9.421875 0 
z
M 9.421875 75.984375 
L 18.40625 75.984375 
L 18.40625 64.59375 
L 9.421875 64.59375 
z
" id="DejaVuSans-105"/>
      <path d="M 32.171875 -5.078125 
Q 28.375 -14.84375 24.75 -17.8125 
Q 21.140625 -20.796875 15.09375 -20.796875 
L 7.90625 -20.796875 
L 7.90625 -13.28125 
L 13.1875 -13.28125 
Q 16.890625 -13.28125 18.9375 -11.515625 
Q 21 -9.765625 23.484375 -3.21875 
L 25.09375 0.875 
L 2.984375 54.6875 
L 12.5 54.6875 
L 29.59375 11.921875 
L 46.6875 54.6875 
L 56.203125 54.6875 
z
" id="DejaVuSans-121"/>
      <path id="DejaVuSans-32"/>
      <path d="M 31 75.875 
Q 24.46875 64.65625 21.28125 53.65625 
Q 18.109375 42.671875 18.109375 31.390625 
Q 18.109375 20.125 21.3125 9.0625 
Q 24.515625 -2 31 -13.1875 
L 23.1875 -13.1875 
Q 15.875 -1.703125 12.234375 9.375 
Q 8.59375 20.453125 8.59375 31.390625 
Q 8.59375 42.28125 12.203125 53.3125 
Q 15.828125 64.359375 23.1875 75.875 
z
" id="DejaVuSans-40"/>
      <path d="M 9.8125 72.90625 
L 23.09375 72.90625 
L 55.421875 11.921875 
L 55.421875 72.90625 
L 64.984375 72.90625 
L 64.984375 0 
L 51.703125 0 
L 19.390625 60.984375 
L 19.390625 0 
L 9.8125 0 
z
" id="DejaVuSans-78"/>
      <path d="M 41.109375 46.296875 
Q 39.59375 47.171875 37.8125 47.578125 
Q 36.03125 48 33.890625 48 
Q 26.265625 48 22.1875 43.046875 
Q 18.109375 38.09375 18.109375 28.8125 
L 18.109375 0 
L 9.078125 0 
L 9.078125 54.6875 
L 18.109375 54.6875 
L 18.109375 46.1875 
Q 20.953125 51.171875 25.484375 53.578125 
Q 30.03125 56 36.53125 56 
Q 37.453125 56 38.578125 55.875 
Q 39.703125 55.765625 41.0625 55.515625 
z
" id="DejaVuSans-114"/>
      <path d="M 52 44.1875 
Q 55.375 50.25 60.0625 53.125 
Q 64.75 56 71.09375 56 
Q 79.640625 56 84.28125 50.015625 
Q 88.921875 44.046875 88.921875 33.015625 
L 88.921875 0 
L 79.890625 0 
L 79.890625 32.71875 
Q 79.890625 40.578125 77.09375 44.375 
Q 74.3125 48.1875 68.609375 48.1875 
Q 61.625 48.1875 57.5625 43.546875 
Q 53.515625 38.921875 53.515625 30.90625 
L 53.515625 0 
L 44.484375 0 
L 44.484375 32.71875 
Q 44.484375 40.625 41.703125 44.40625 
Q 38.921875 48.1875 33.109375 48.1875 
Q 26.21875 48.1875 22.15625 43.53125 
Q 18.109375 38.875 18.109375 30.90625 
L 18.109375 0 
L 9.078125 0 
L 9.078125 54.6875 
L 18.109375 54.6875 
L 18.109375 46.1875 
Q 21.1875 51.21875 25.484375 53.609375 
Q 29.78125 56 35.6875 56 
Q 41.65625 56 45.828125 52.96875 
Q 50 49.953125 52 44.1875 
z
" id="DejaVuSans-109"/>
      <path d="M 34.28125 27.484375 
Q 23.390625 27.484375 19.1875 25 
Q 14.984375 22.515625 14.984375 16.5 
Q 14.984375 11.71875 18.140625 8.90625 
Q 21.296875 6.109375 26.703125 6.109375 
Q 34.1875 6.109375 38.703125 11.40625 
Q 43.21875 16.703125 43.21875 25.484375 
L 43.21875 27.484375 
z
M 52.203125 31.203125 
L 52.203125 0 
L 43.21875 0 
L 43.21875 8.296875 
Q 40.140625 3.328125 35.546875 0.953125 
Q 30.953125 -1.421875 24.3125 -1.421875 
Q 15.921875 -1.421875 10.953125 3.296875 
Q 6 8.015625 6 15.921875 
Q 6 25.140625 12.171875 29.828125 
Q 18.359375 34.515625 30.609375 34.515625 
L 43.21875 34.515625 
L 43.21875 35.40625 
Q 43.21875 41.609375 39.140625 45 
Q 35.0625 48.390625 27.6875 48.390625 
Q 23 48.390625 18.546875 47.265625 
Q 14.109375 46.140625 10.015625 43.890625 
L 10.015625 52.203125 
Q 14.9375 54.109375 19.578125 55.046875 
Q 24.21875 56 28.609375 56 
Q 40.484375 56 46.34375 49.84375 
Q 52.203125 43.703125 52.203125 31.203125 
z
" id="DejaVuSans-97"/>
      <path d="M 5.515625 54.6875 
L 48.1875 54.6875 
L 48.1875 46.484375 
L 14.40625 7.171875 
L 48.1875 7.171875 
L 48.1875 0 
L 4.296875 0 
L 4.296875 8.203125 
L 38.09375 47.515625 
L 5.515625 47.515625 
z
" id="DejaVuSans-122"/>
      <path d="M 56.203125 29.59375 
L 56.203125 25.203125 
L 14.890625 25.203125 
Q 15.484375 15.921875 20.484375 11.0625 
Q 25.484375 6.203125 34.421875 6.203125 
Q 39.59375 6.203125 44.453125 7.46875 
Q 49.3125 8.734375 54.109375 11.28125 
L 54.109375 2.78125 
Q 49.265625 0.734375 44.1875 -0.34375 
Q 39.109375 -1.421875 33.890625 -1.421875 
Q 20.796875 -1.421875 13.15625 6.1875 
Q 5.515625 13.8125 5.515625 26.8125 
Q 5.515625 40.234375 12.765625 48.109375 
Q 20.015625 56 32.328125 56 
Q 43.359375 56 49.78125 48.890625 
Q 56.203125 41.796875 56.203125 29.59375 
z
M 47.21875 32.234375 
Q 47.125 39.59375 43.09375 43.984375 
Q 39.0625 48.390625 32.421875 48.390625 
Q 24.90625 48.390625 20.390625 44.140625 
Q 15.875 39.890625 15.1875 32.171875 
z
" id="DejaVuSans-101"/>
      <path d="M 45.40625 46.390625 
L 45.40625 75.984375 
L 54.390625 75.984375 
L 54.390625 0 
L 45.40625 0 
L 45.40625 8.203125 
Q 42.578125 3.328125 38.25 0.953125 
Q 33.9375 -1.421875 27.875 -1.421875 
Q 17.96875 -1.421875 11.734375 6.484375 
Q 5.515625 14.40625 5.515625 27.296875 
Q 5.515625 40.1875 11.734375 48.09375 
Q 17.96875 56 27.875 56 
Q 33.9375 56 38.25 53.625 
Q 42.578125 51.265625 45.40625 46.390625 
z
M 14.796875 27.296875 
Q 14.796875 17.390625 18.875 11.75 
Q 22.953125 6.109375 30.078125 6.109375 
Q 37.203125 6.109375 41.296875 11.75 
Q 45.40625 17.390625 45.40625 27.296875 
Q 45.40625 37.203125 41.296875 42.84375 
Q 37.203125 48.484375 30.078125 48.484375 
Q 22.953125 48.484375 18.875 42.84375 
Q 14.796875 37.203125 14.796875 27.296875 
z
" id="DejaVuSans-100"/>
      <path d="M 8.015625 75.875 
L 15.828125 75.875 
Q 23.140625 64.359375 26.78125 53.3125 
Q 30.421875 42.28125 30.421875 31.390625 
Q 30.421875 20.453125 26.78125 9.375 
Q 23.140625 -1.703125 15.828125 -13.1875 
L 8.015625 -13.1875 
Q 14.5 -2 17.703125 9.0625 
Q 20.90625 20.125 20.90625 31.390625 
Q 20.90625 42.671875 17.703125 53.65625 
Q 14.5 64.65625 8.015625 75.875 
z
" id="DejaVuSans-41"/>
     </defs>
     <g transform="translate(46.982656 344.945362)scale(0.1 -0.1)">
      <use xlink:href="#DejaVuSans-80"/>
      <use x="60.255859" xlink:href="#DejaVuSans-111"/>
      <use x="121.4375" xlink:href="#DejaVuSans-108"/>
      <use x="149.220703" xlink:href="#DejaVuSans-105"/>
      <use x="177.003906" xlink:href="#DejaVuSans-99"/>
      <use x="231.984375" xlink:href="#DejaVuSans-121"/>
      <use x="291.164062" xlink:href="#DejaVuSans-32"/>
      <use x="322.951172" xlink:href="#DejaVuSans-76"/>
      <use x="378.648438" xlink:href="#DejaVuSans-111"/>
      <use x="439.830078" xlink:href="#DejaVuSans-115"/>
      <use x="491.929688" xlink:href="#DejaVuSans-115"/>
      <use x="544.029297" xlink:href="#DejaVuSans-32"/>
      <use x="575.816406" xlink:href="#DejaVuSans-40"/>
      <use x="614.830078" xlink:href="#DejaVuSans-78"/>
      <use x="689.634766" xlink:href="#DejaVuSans-111"/>
      <use x="750.816406" xlink:href="#DejaVuSans-114"/>
      <use x="791.914062" xlink:href="#DejaVuSans-109"/>
      <use x="889.326172" xlink:href="#DejaVuSans-97"/>
      <use x="950.605469" xlink:href="#DejaVuSans-108"/>
      <use x="978.388672" xlink:href="#DejaVuSans-105"/>
      <use x="1006.171875" xlink:href="#DejaVuSans-122"/>
      <use x="1058.662109" xlink:href="#DejaVuSans-101"/>
      <use x="1120.185547" xlink:href="#DejaVuSans-100"/>
      <use x="1183.662109" xlink:href="#DejaVuSans-41"/>
     </g>
    </g>
    <g id="line2d_23">
     <path d="M 189.251406 341.445362 
L 209.251406 341.445362 
" style="fill:none;stroke:#ff7f0e;stroke-linecap:square;stroke-width:1.5;"/>
    </g>
    <g id="line2d_24"/>
    <g id="text_20">
     <!-- Value Loss (Normalized) -->
     <defs>
      <path d="M 28.609375 0 
L 0.78125 72.90625 
L 11.078125 72.90625 
L 34.1875 11.53125 
L 57.328125 72.90625 
L 67.578125 72.90625 
L 39.796875 0 
z
" id="DejaVuSans-86"/>
      <path d="M 8.5 21.578125 
L 8.5 54.6875 
L 17.484375 54.6875 
L 17.484375 21.921875 
Q 17.484375 14.15625 20.5 10.265625 
Q 23.53125 6.390625 29.59375 6.390625 
Q 36.859375 6.390625 41.078125 11.03125 
Q 45.3125 15.671875 45.3125 23.6875 
L 45.3125 54.6875 
L 54.296875 54.6875 
L 54.296875 0 
L 45.3125 0 
L 45.3125 8.40625 
Q 42.046875 3.421875 37.71875 1 
Q 33.40625 -1.421875 27.6875 -1.421875 
Q 18.265625 -1.421875 13.375 4.4375 
Q 8.5 10.296875 8.5 21.578125 
z
M 31.109375 56 
z
" id="DejaVuSans-117"/>
     </defs>
     <g transform="translate(217.251406 344.945362)scale(0.1 -0.1)">
      <use xlink:href="#DejaVuSans-86"/>
      <use x="68.298828" xlink:href="#DejaVuSans-97"/>
      <use x="129.578125" xlink:href="#DejaVuSans-108"/>
      <use x="157.361328" xlink:href="#DejaVuSans-117"/>
      <use x="220.740234" xlink:href="#DejaVuSans-101"/>
      <use x="282.263672" xlink:href="#DejaVuSans-32"/>
      <use x="314.050781" xlink:href="#DejaVuSans-76"/>
      <use x="369.748047" xlink:href="#DejaVuSans-111"/>
      <use x="430.929688" xlink:href="#DejaVuSans-115"/>
      <use x="483.029297" xlink:href="#DejaVuSans-115"/>
      <use x="535.128906" xlink:href="#DejaVuSans-32"/>
      <use x="566.916016" xlink:href="#DejaVuSans-40"/>
      <use x="605.929688" xlink:href="#DejaVuSans-78"/>
      <use x="680.734375" xlink:href="#DejaVuSans-111"/>
      <use x="741.916016" xlink:href="#DejaVuSans-114"/>
      <use x="783.013672" xlink:href="#DejaVuSans-109"/>
      <use x="880.425781" xlink:href="#DejaVuSans-97"/>
      <use x="941.705078" xlink:href="#DejaVuSans-108"/>
      <use x="969.488281" xlink:href="#DejaVuSans-105"/>
      <use x="997.271484" xlink:href="#DejaVuSans-122"/>
      <use x="1049.761719" xlink:href="#DejaVuSans-101"/>
      <use x="1111.285156" xlink:href="#DejaVuSans-100"/>
      <use x="1174.761719" xlink:href="#DejaVuSans-41"/>
     </g>
    </g>
    <g id="line2d_25">
     <path d="M 358.629531 341.445362 
L 378.629531 341.445362 
" style="fill:none;stroke:#008000;stroke-linecap:square;stroke-width:1.5;"/>
    </g>
    <g id="line2d_26"/>
    <g id="text_21">
     <!-- Entropy -->
     <defs>
      <path d="M 54.890625 33.015625 
L 54.890625 0 
L 45.90625 0 
L 45.90625 32.71875 
Q 45.90625 40.484375 42.875 44.328125 
Q 39.84375 48.1875 33.796875 48.1875 
Q 26.515625 48.1875 22.3125 43.546875 
Q 18.109375 38.921875 18.109375 30.90625 
L 18.109375 0 
L 9.078125 0 
L 9.078125 54.6875 
L 18.109375 54.6875 
L 18.109375 46.1875 
Q 21.34375 51.125 25.703125 53.5625 
Q 30.078125 56 35.796875 56 
Q 45.21875 56 50.046875 50.171875 
Q 54.890625 44.34375 54.890625 33.015625 
z
" id="DejaVuSans-110"/>
      <path d="M 18.3125 70.21875 
L 18.3125 54.6875 
L 36.8125 54.6875 
L 36.8125 47.703125 
L 18.3125 47.703125 
L 18.3125 18.015625 
Q 18.3125 11.328125 20.140625 9.421875 
Q 21.96875 7.515625 27.59375 7.515625 
L 36.8125 7.515625 
L 36.8125 0 
L 27.59375 0 
Q 17.1875 0 13.234375 3.875 
Q 9.28125 7.765625 9.28125 18.015625 
L 9.28125 47.703125 
L 2.6875 47.703125 
L 2.6875 54.6875 
L 9.28125 54.6875 
L 9.28125 70.21875 
z
" id="DejaVuSans-116"/>
     </defs>
     <g transform="translate(386.629531 344.945362)scale(0.1 -0.1)">
      <use xlink:href="#DejaVuSans-69"/>
      <use x="63.183594" xlink:href="#DejaVuSans-110"/>
      <use x="126.5625" xlink:href="#DejaVuSans-116"/>
      <use x="165.771484" xlink:href="#DejaVuSans-114"/>
      <use x="206.853516" xlink:href="#DejaVuSans-111"/>
      <use x="268.035156" xlink:href="#DejaVuSans-112"/>
      <use x="331.511719" xlink:href="#DejaVuSans-121"/>
     </g>
    </g>
   </g>
  </g>
  <g id="axes_2">
   <g id="matplotlib.axis_3">
    <g id="ytick_7">
     <g id="line2d_27">
      <defs>
       <path d="M 0 0 
L 3.5 0 
" id="m1c0814ab50" style="stroke:#000000;stroke-width:0.8;"/>
      </defs>
      <g>
       <use style="stroke:#000000;stroke-width:0.8;" x="400.90125" xlink:href="#m1c0814ab50" y="276.897403"/>
      </g>
     </g>
     <g id="text_22">
      <!-- 3.8 -->
      <g transform="translate(407.90125 280.696622)scale(0.1 -0.1)">
       <use xlink:href="#DejaVuSans-51"/>
       <use x="63.623047" xlink:href="#DejaVuSans-46"/>
       <use x="95.410156" xlink:href="#DejaVuSans-56"/>
      </g>
     </g>
    </g>
    <g id="ytick_8">
     <g id="line2d_28">
      <g>
       <use style="stroke:#000000;stroke-width:0.8;" x="400.90125" xlink:href="#m1c0814ab50" y="241.786237"/>
      </g>
     </g>
     <g id="text_23">
      <!-- 3.9 -->
      <defs>
       <path d="M 10.984375 1.515625 
L 10.984375 10.5 
Q 14.703125 8.734375 18.5 7.8125 
Q 22.3125 6.890625 25.984375 6.890625 
Q 35.75 6.890625 40.890625 13.453125 
Q 46.046875 20.015625 46.78125 33.40625 
Q 43.953125 29.203125 39.59375 26.953125 
Q 35.25 24.703125 29.984375 24.703125 
Q 19.046875 24.703125 12.671875 31.3125 
Q 6.296875 37.9375 6.296875 49.421875 
Q 6.296875 60.640625 12.9375 67.421875 
Q 19.578125 74.21875 30.609375 74.21875 
Q 43.265625 74.21875 49.921875 64.515625 
Q 56.59375 54.828125 56.59375 36.375 
Q 56.59375 19.140625 48.40625 8.859375 
Q 40.234375 -1.421875 26.421875 -1.421875 
Q 22.703125 -1.421875 18.890625 -0.6875 
Q 15.09375 0.046875 10.984375 1.515625 
z
M 30.609375 32.421875 
Q 37.25 32.421875 41.125 36.953125 
Q 45.015625 41.5 45.015625 49.421875 
Q 45.015625 57.28125 41.125 61.84375 
Q 37.25 66.40625 30.609375 66.40625 
Q 23.96875 66.40625 20.09375 61.84375 
Q 16.21875 57.28125 16.21875 49.421875 
Q 16.21875 41.5 20.09375 36.953125 
Q 23.96875 32.421875 30.609375 32.421875 
z
" id="DejaVuSans-57"/>
      </defs>
      <g transform="translate(407.90125 245.585456)scale(0.1 -0.1)">
       <use xlink:href="#DejaVuSans-51"/>
       <use x="63.623047" xlink:href="#DejaVuSans-46"/>
       <use x="95.410156" xlink:href="#DejaVuSans-57"/>
      </g>
     </g>
    </g>
    <g id="ytick_9">
     <g id="line2d_29">
      <g>
       <use style="stroke:#000000;stroke-width:0.8;" x="400.90125" xlink:href="#m1c0814ab50" y="206.67507"/>
      </g>
     </g>
     <g id="text_24">
      <!-- 4.0 -->
      <g transform="translate(407.90125 210.474289)scale(0.1 -0.1)">
       <use xlink:href="#DejaVuSans-52"/>
       <use x="63.623047" xlink:href="#DejaVuSans-46"/>
       <use x="95.410156" xlink:href="#DejaVuSans-48"/>
      </g>
     </g>
    </g>
    <g id="ytick_10">
     <g id="line2d_30">
      <g>
       <use style="stroke:#000000;stroke-width:0.8;" x="400.90125" xlink:href="#m1c0814ab50" y="171.563904"/>
      </g>
     </g>
     <g id="text_25">
      <!-- 4.1 -->
      <g transform="translate(407.90125 175.363123)scale(0.1 -0.1)">
       <use xlink:href="#DejaVuSans-52"/>
       <use x="63.623047" xlink:href="#DejaVuSans-46"/>
       <use x="95.410156" xlink:href="#DejaVuSans-49"/>
      </g>
     </g>
    </g>
    <g id="ytick_11">
     <g id="line2d_31">
      <g>
       <use style="stroke:#000000;stroke-width:0.8;" x="400.90125" xlink:href="#m1c0814ab50" y="136.452738"/>
      </g>
     </g>
     <g id="text_26">
      <!-- 4.2 -->
      <g transform="translate(407.90125 140.251956)scale(0.1 -0.1)">
       <use xlink:href="#DejaVuSans-52"/>
       <use x="63.623047" xlink:href="#DejaVuSans-46"/>
       <use x="95.410156" xlink:href="#DejaVuSans-50"/>
      </g>
     </g>
    </g>
    <g id="ytick_12">
     <g id="line2d_32">
      <g>
       <use style="stroke:#000000;stroke-width:0.8;" x="400.90125" xlink:href="#m1c0814ab50" y="101.341571"/>
      </g>
     </g>
     <g id="text_27">
      <!-- 4.3 -->
      <g transform="translate(407.90125 105.14079)scale(0.1 -0.1)">
       <use xlink:href="#DejaVuSans-52"/>
       <use x="63.623047" xlink:href="#DejaVuSans-46"/>
       <use x="95.410156" xlink:href="#DejaVuSans-51"/>
      </g>
     </g>
    </g>
    <g id="ytick_13">
     <g id="line2d_33">
      <g>
       <use style="stroke:#000000;stroke-width:0.8;" x="400.90125" xlink:href="#m1c0814ab50" y="66.230405"/>
      </g>
     </g>
     <g id="text_28">
      <!-- 4.4 -->
      <g transform="translate(407.90125 70.029624)scale(0.1 -0.1)">
       <use xlink:href="#DejaVuSans-52"/>
       <use x="63.623047" xlink:href="#DejaVuSans-46"/>
       <use x="95.410156" xlink:href="#DejaVuSans-52"/>
      </g>
     </g>
    </g>
    <g id="ytick_14">
     <g id="line2d_34">
      <g>
       <use style="stroke:#000000;stroke-width:0.8;" x="400.90125" xlink:href="#m1c0814ab50" y="31.119239"/>
      </g>
     </g>
     <g id="text_29">
      <!-- 4.5 -->
      <g transform="translate(407.90125 34.918457)scale(0.1 -0.1)">
       <use xlink:href="#DejaVuSans-52"/>
       <use x="63.623047" xlink:href="#DejaVuSans-46"/>
       <use x="95.410156" xlink:href="#DejaVuSans-53"/>
      </g>
     </g>
    </g>
    <g id="text_30">
     <!-- Entropy -->
     <g transform="translate(435.402812 174.909281)rotate(-90)scale(0.1 -0.1)">
      <use xlink:href="#DejaVuSans-69"/>
      <use x="63.183594" xlink:href="#DejaVuSans-110"/>
      <use x="126.5625" xlink:href="#DejaVuSans-116"/>
      <use x="165.771484" xlink:href="#DejaVuSans-114"/>
      <use x="206.853516" xlink:href="#DejaVuSans-111"/>
      <use x="268.035156" xlink:href="#DejaVuSans-112"/>
      <use x="331.511719" xlink:href="#DejaVuSans-121"/>
     </g>
    </g>
   </g>
   <g id="line2d_35">
    <path clip-path="url(#p72e7cfc67a)" d="M 60.013977 36.143271 
L 60.827648 37.63116 
L 61.641318 35.412469 
L 62.454989 35.776279 
L 63.268659 35.564322 
L 64.08233 36.538724 
L 64.896001 36.315047 
L 65.709671 34.414125 
L 66.523342 37.31021 
L 67.337012 36.700957 
L 68.150683 71.909195 
L 68.964353 72.14342 
L 69.778024 73.892657 
L 70.591694 75.317594 
L 71.405365 74.055559 
L 72.219035 75.683246 
L 73.032706 74.722908 
L 73.846376 75.903408 
L 74.660047 72.650545 
L 75.473718 76.362649 
L 76.287388 59.614648 
L 77.101059 62.233145 
L 77.914729 62.932639 
L 78.7284 62.382989 
L 79.54207 60.024165 
L 80.355741 59.901779 
L 81.169411 58.343572 
L 81.983082 59.716944 
L 82.796752 60.215362 
L 83.610423 59.139501 
L 84.424093 40.884693 
L 85.237764 39.045048 
L 86.051435 38.79542 
L 86.865105 40.147026 
L 87.678776 40.515022 
L 88.492446 38.891353 
L 89.306117 35.676663 
L 90.119787 37.86371 
L 90.933458 37.190335 
L 91.747128 37.624295 
L 92.560799 61.121791 
L 93.374469 65.851493 
L 94.18814 65.867063 
L 95.00181 66.252974 
L 95.815481 66.042355 
L 96.629152 65.532552 
L 97.442822 66.444171 
L 98.256493 66.930033 
L 99.070163 66.922331 
L 99.883834 65.394093 
L 100.697504 78.691002 
L 101.511175 79.000568 
L 102.324845 80.199652 
L 103.138516 79.727351 
L 103.952186 80.197643 
L 104.765857 80.458488 
L 105.579528 82.487656 
L 106.393198 81.04112 
L 107.206869 83.361939 
L 108.020539 81.865846 
L 108.83421 89.706939 
L 109.64788 93.435284 
L 110.461551 91.379998 
L 111.275221 93.269702 
L 112.088892 92.271861 
L 112.902562 92.447488 
L 113.716233 92.375328 
L 114.529903 94.563046 
L 115.343574 91.405781 
L 116.157245 90.148266 
L 116.970915 107.406908 
L 117.784586 105.687808 
L 118.598256 105.412564 
L 119.411927 105.940449 
L 120.225597 107.566965 
L 121.039268 105.653486 
L 121.852938 108.107909 
L 122.666609 109.061048 
L 123.480279 110.587947 
L 124.29395 106.390817 
L 125.10762 140.07718 
L 125.921291 149.115348 
L 126.734962 150.948128 
L 127.548632 151.697514 
L 129.175973 150.515674 
L 129.989644 150.749899 
L 130.803314 150.348084 
L 131.616985 150.777357 
L 132.430655 150.375039 
L 133.244326 201.752162 
L 134.057996 196.600051 
L 134.871667 193.833217 
L 135.685337 194.891834 
L 136.499008 198.275119 
L 137.312679 195.942916 
L 138.126349 196.664509 
L 138.94002 196.481014 
L 139.75369 197.085076 
L 140.567361 199.308455 
L 141.381031 157.990446 
L 142.194702 164.460678 
L 143.008372 163.860634 
L 143.822043 160.2232 
L 145.449384 160.356804 
L 146.263055 162.155095 
L 147.076725 156.350704 
L 147.890396 157.846462 
L 148.704066 158.722084 
L 149.517737 167.129737 
L 150.331407 164.131524 
L 151.145078 165.265816 
L 151.958748 164.941015 
L 152.772419 166.319075 
L 153.586089 163.308473 
L 154.39976 165.095212 
L 156.027101 167.185322 
L 156.840772 169.924028 
L 157.654442 200.675129 
L 158.468113 207.230413 
L 159.281783 207.126276 
L 160.095454 205.483353 
L 160.909124 206.402171 
L 161.722795 209.694797 
L 163.350136 213.533892 
L 164.163806 211.625353 
L 164.977477 213.758825 
L 165.791147 208.441468 
L 166.604818 196.237413 
L 167.418489 194.203725 
L 168.232159 193.554793 
L 169.04583 192.552598 
L 169.8595 193.172733 
L 170.673171 192.425524 
L 171.486841 189.420447 
L 172.300512 196.07518 
L 173.114182 190.105877 
L 173.927853 191.064542 
L 174.741523 188.755108 
L 175.555194 188.443701 
L 176.368864 189.586531 
L 177.182535 188.317129 
L 177.996206 188.298712 
L 178.809876 190.705252 
L 179.623547 192.485462 
L 180.437217 193.716691 
L 181.250888 193.50691 
L 182.064558 242.403827 
L 182.878229 233.647432 
L 183.691899 238.255334 
L 184.50557 237.905504 
L 185.31924 239.107183 
L 186.132911 236.12588 
L 186.946582 240.293459 
L 187.760252 238.965627 
L 188.573923 237.396705 
L 189.387593 234.466382 
L 190.201264 223.305541 
L 191.014934 213.765773 
L 191.828605 213.374338 
L 192.642275 211.296283 
L 193.455946 204.931861 
L 194.269616 215.981032 
L 195.083287 203.941386 
L 195.896957 206.965382 
L 196.710628 205.974572 
L 197.524299 204.321772 
L 198.337969 212.678611 
L 199.15164 196.423922 
L 199.96531 204.894861 
L 200.778981 196.63002 
L 201.592651 202.320061 
L 202.406322 199.874512 
L 203.219992 195.053229 
L 204.033663 195.881806 
L 204.847333 197.762637 
L 205.661004 191.634617 
L 206.474674 188.09094 
L 207.288345 182.975328 
L 208.102016 176.534729 
L 208.915686 177.689111 
L 209.729357 171.998568 
L 210.543027 173.266128 
L 211.356698 178.322975 
L 212.170368 173.886263 
L 212.984039 178.071506 
L 213.797709 176.900549 
L 214.61138 178.915988 
L 215.42505 179.519715 
L 216.238721 172.392682 
L 217.052391 170.320486 
L 217.866062 178.832276 
L 218.679733 174.829023 
L 219.493403 177.830416 
L 220.307074 172.644151 
L 221.120744 172.52143 
L 221.934415 179.070352 
L 222.748085 178.346414 
L 223.561756 169.120732 
L 224.375426 164.434225 
L 225.189097 168.856371 
L 226.002767 168.862231 
L 226.816438 172.665582 
L 227.630109 169.39832 
L 228.443779 168.178475 
L 229.25745 167.318256 
L 230.07112 169.554861 
L 230.884791 170.158756 
L 231.698461 170.973102 
L 232.512132 170.517878 
L 233.325802 175.947911 
L 234.139473 171.375252 
L 234.953143 171.469344 
L 235.766814 164.567327 
L 236.580484 169.412718 
L 237.394155 170.162439 
L 238.207826 167.182308 
L 239.021496 159.68393 
L 239.835167 160.626522 
L 240.648837 158.34555 
L 241.462508 157.641703 
L 242.276178 159.484864 
L 243.089849 157.665143 
L 243.903519 160.839317 
L 244.71719 159.584983 
L 245.53086 156.702962 
L 246.344531 161.914843 
L 247.158201 186.145651 
L 247.971872 173.086316 
L 248.785543 175.464728 
L 249.599213 176.912603 
L 250.412884 171.277644 
L 251.226554 168.879476 
L 252.040225 162.126131 
L 252.853895 164.490145 
L 253.667566 161.437687 
L 254.481236 161.86043 
L 255.294907 187.968889 
L 256.108577 191.675636 
L 256.922248 188.832959 
L 257.735918 183.925789 
L 258.549589 188.45676 
L 259.36326 181.310473 
L 260.17693 183.587762 
L 260.990601 182.343138 
L 261.804271 183.401587 
L 262.617942 182.198485 
L 263.431612 176.550969 
L 264.245283 172.826475 
L 265.058953 171.551548 
L 265.872624 174.86301 
L 266.686294 170.046917 
L 267.499965 177.716234 
L 268.313636 171.856091 
L 269.127306 176.388401 
L 269.940977 172.956395 
L 270.754647 180.250685 
L 271.568318 193.057881 
L 272.381988 188.834466 
L 273.195659 183.208548 
L 274.009329 184.317726 
L 274.823 183.405773 
L 275.63667 185.080338 
L 277.264011 182.193462 
L 278.077682 183.360066 
L 278.891353 181.537331 
L 279.705023 205.807149 
L 280.518694 206.190381 
L 282.959705 202.401931 
L 283.773376 201.848933 
L 284.587046 200.453294 
L 285.400717 198.167969 
L 286.214387 198.034365 
L 287.028058 198.278468 
L 287.841728 187.78104 
L 288.655399 191.016324 
L 289.46907 193.073619 
L 290.28274 188.873978 
L 291.096411 186.078347 
L 291.910081 188.251666 
L 292.723752 186.209272 
L 293.537422 186.315753 
L 294.351093 183.237178 
L 295.164763 186.56153 
L 295.978434 197.167113 
L 296.792104 196.049397 
L 297.605775 196.5222 
L 298.419445 194.467918 
L 299.233116 198.401021 
L 300.860457 193.684378 
L 301.674128 194.323767 
L 302.487798 194.243237 
L 303.301469 191.554757 
L 304.115139 225.830951 
L 304.92881 228.337023 
L 305.74248 226.337908 
L 306.556151 229.065732 
L 307.369821 228.167256 
L 308.183492 229.07494 
L 308.997163 229.673729 
L 309.810833 228.593431 
L 310.624504 229.259775 
L 311.438174 228.765375 
L 312.251845 225.512261 
L 313.065515 220.450475 
L 313.879186 219.3089 
L 314.692856 221.180523 
L 315.506527 223.785375 
L 316.320197 220.649792 
L 317.133868 221.150638 
L 317.947538 222.27907 
L 318.761209 222.377263 
L 319.57488 218.850412 
L 320.38855 234.343075 
L 321.202221 227.333908 
L 322.015891 227.447169 
L 322.829562 226.15098 
L 323.643232 225.96447 
L 324.456903 224.637056 
L 325.270573 226.3066 
L 326.084244 225.8898 
L 326.897914 226.861105 
L 327.711585 228.142143 
L 328.525255 227.273133 
L 329.338926 228.192118 
L 330.152597 226.933766 
L 330.966267 224.810339 
L 331.779938 225.655324 
L 332.593608 223.549811 
L 333.407279 224.985464 
L 334.220949 223.401139 
L 335.03462 224.530241 
L 335.84829 224.072506 
L 336.661961 243.15698 
L 337.475631 240.942475 
L 338.289302 237.169009 
L 339.102972 237.995577 
L 339.916643 236.542847 
L 340.730314 236.41142 
L 341.543984 237.410685 
L 342.357655 235.326518 
L 343.171325 235.712596 
L 343.984996 233.372356 
L 344.798666 213.677206 
L 345.612337 217.68791 
L 346.426007 214.80547 
L 347.239678 215.723284 
L 348.053348 215.694989 
L 348.867019 213.779334 
L 350.49436 214.477405 
L 351.308031 214.987627 
L 352.121701 213.376766 
L 352.935372 250.0081 
L 354.562713 247.052748 
L 355.376383 244.95569 
L 356.190054 247.034917 
L 357.003724 246.544786 
L 357.817395 245.454778 
L 358.631065 246.634943 
L 359.444736 244.440445 
L 360.258407 244.36477 
L 361.072077 253.613305 
L 361.885748 253.718949 
L 363.513089 251.349075 
L 364.326759 253.996788 
L 365.14043 252.071339 
L 365.9541 253.844684 
L 366.767771 251.286041 
L 367.581441 254.056139 
L 368.395112 254.631907 
L 369.208782 251.022014 
L 370.022453 253.068008 
L 370.836124 253.505987 
L 371.649794 249.529354 
L 372.463465 251.3361 
L 373.277135 249.141434 
L 374.090806 250.542766 
L 374.904476 247.667609 
L 375.718147 250.172175 
L 376.531817 248.602416 
L 377.345488 276.334125 
L 378.159158 273.138688 
L 379.786499 274.567477 
L 380.60017 272.290104 
L 381.413841 272.67953 
L 382.227511 271.995356 
L 383.041182 273.58847 
L 383.854852 272.866793 
L 384.668523 272.9937 
L 384.668523 272.9937 
" style="fill:none;stroke:#008000;stroke-linecap:square;stroke-opacity:0.3;stroke-width:1.5;"/>
   </g>
   <g id="patch_9">
    <path d="M 43.78125 288.430125 
L 43.78125 22.318125 
" style="fill:none;stroke:#000000;stroke-linecap:square;stroke-linejoin:miter;stroke-width:0.8;"/>
   </g>
   <g id="patch_10">
    <path d="M 400.90125 288.430125 
L 400.90125 22.318125 
" style="fill:none;stroke:#000000;stroke-linecap:square;stroke-linejoin:miter;stroke-width:0.8;"/>
   </g>
   <g id="patch_11">
    <path d="M 43.78125 288.430125 
L 400.90125 288.430125 
" style="fill:none;stroke:#000000;stroke-linecap:square;stroke-linejoin:miter;stroke-width:0.8;"/>
   </g>
   <g id="patch_12">
    <path d="M 43.78125 22.318125 
L 400.90125 22.318125 
" style="fill:none;stroke:#000000;stroke-linecap:square;stroke-linejoin:miter;stroke-width:0.8;"/>
   </g>
  </g>
 </g>
 <defs>
  <clipPath id="p72e7cfc67a">
   <rect height="266.112" width="357.12" x="43.78125" y="22.318125"/>
  </clipPath>
 </defs>
</svg>
