<?xml version="1.0" encoding="utf-8" standalone="no"?>
<!DOCTYPE svg PUBLIC "-//W3C//DTD SVG 1.1//EN"
  "http://www.w3.org/Graphics/SVG/1.1/DTD/svg11.dtd">
<!-- Created with matplotlib (https://matplotlib.org/) -->
<svg height="358.22505pt" version="1.1" viewBox="0 0 444.6825 358.22505" width="444.6825pt" xmlns="http://www.w3.org/2000/svg" xmlns:xlink="http://www.w3.org/1999/xlink">
 <defs>
  <style type="text/css">
*{stroke-linecap:butt;stroke-linejoin:round;}
  </style>
 </defs>
 <g id="figure_1">
  <g id="patch_1">
   <path d="M 0 358.22505 
L 444.6825 358.22505 
L 444.6825 0 
L 0 0 
z
" style="fill:#ffffff;"/>
  </g>
  <g id="axes_1">
   <g id="patch_2">
    <path d="M 43.78125 288.430125 
L 400.90125 288.430125 
L 400.90125 22.318125 
L 43.78125 22.318125 
z
" style="fill:#ffffff;"/>
   </g>
   <g id="matplotlib.axis_1">
    <g id="xtick_1">
     <g id="line2d_1">
      <defs>
       <path d="M 0 0 
L 0 3.5 
" id="m8931c7ff77" style="stroke:#000000;stroke-width:0.8;"/>
      </defs>
      <g>
       <use style="stroke:#000000;stroke-width:0.8;" x="60.013977" xlink:href="#m8931c7ff77" y="288.430125"/>
      </g>
     </g>
     <g id="text_1">
      <!-- 0 -->
      <defs>
       <path d="M 31.78125 66.40625 
Q 24.171875 66.40625 20.328125 58.90625 
Q 16.5 51.421875 16.5 36.375 
Q 16.5 21.390625 20.328125 13.890625 
Q 24.171875 6.390625 31.78125 6.390625 
Q 39.453125 6.390625 43.28125 13.890625 
Q 47.125 21.390625 47.125 36.375 
Q 47.125 51.421875 43.28125 58.90625 
Q 39.453125 66.40625 31.78125 66.40625 
z
M 31.78125 74.21875 
Q 44.046875 74.21875 50.515625 64.515625 
Q 56.984375 54.828125 56.984375 36.375 
Q 56.984375 17.96875 50.515625 8.265625 
Q 44.046875 -1.421875 31.78125 -1.421875 
Q 19.53125 -1.421875 13.0625 8.265625 
Q 6.59375 17.96875 6.59375 36.375 
Q 6.59375 54.828125 13.0625 64.515625 
Q 19.53125 74.21875 31.78125 74.21875 
z
" id="DejaVuSans-48"/>
      </defs>
      <g transform="translate(56.832727 303.028562)scale(0.1 -0.1)">
       <use xlink:href="#DejaVuSans-48"/>
      </g>
     </g>
    </g>
    <g id="xtick_2">
     <g id="line2d_2">
      <g>
       <use style="stroke:#000000;stroke-width:0.8;" x="106.794171" xlink:href="#m8931c7ff77" y="288.430125"/>
      </g>
     </g>
     <g id="text_2">
      <!-- 50 -->
      <defs>
       <path d="M 10.796875 72.90625 
L 49.515625 72.90625 
L 49.515625 64.59375 
L 19.828125 64.59375 
L 19.828125 46.734375 
Q 21.96875 47.46875 24.109375 47.828125 
Q 26.265625 48.1875 28.421875 48.1875 
Q 40.625 48.1875 47.75 41.5 
Q 54.890625 34.8125 54.890625 23.390625 
Q 54.890625 11.625 47.5625 5.09375 
Q 40.234375 -1.421875 26.90625 -1.421875 
Q 22.3125 -1.421875 17.546875 -0.640625 
Q 12.796875 0.140625 7.71875 1.703125 
L 7.71875 11.625 
Q 12.109375 9.234375 16.796875 8.0625 
Q 21.484375 6.890625 26.703125 6.890625 
Q 35.15625 6.890625 40.078125 11.328125 
Q 45.015625 15.765625 45.015625 23.390625 
Q 45.015625 31 40.078125 35.4375 
Q 35.15625 39.890625 26.703125 39.890625 
Q 22.75 39.890625 18.8125 39.015625 
Q 14.890625 38.140625 10.796875 36.28125 
z
" id="DejaVuSans-53"/>
      </defs>
      <g transform="translate(100.431671 303.028562)scale(0.1 -0.1)">
       <use xlink:href="#DejaVuSans-53"/>
       <use x="63.623047" xlink:href="#DejaVuSans-48"/>
      </g>
     </g>
    </g>
    <g id="xtick_3">
     <g id="line2d_3">
      <g>
       <use style="stroke:#000000;stroke-width:0.8;" x="153.574365" xlink:href="#m8931c7ff77" y="288.430125"/>
      </g>
     </g>
     <g id="text_3">
      <!-- 100 -->
      <defs>
       <path d="M 12.40625 8.296875 
L 28.515625 8.296875 
L 28.515625 63.921875 
L 10.984375 60.40625 
L 10.984375 69.390625 
L 28.421875 72.90625 
L 38.28125 72.90625 
L 38.28125 8.296875 
L 54.390625 8.296875 
L 54.390625 0 
L 12.40625 0 
z
" id="DejaVuSans-49"/>
      </defs>
      <g transform="translate(144.030615 303.028562)scale(0.1 -0.1)">
       <use xlink:href="#DejaVuSans-49"/>
       <use x="63.623047" xlink:href="#DejaVuSans-48"/>
       <use x="127.246094" xlink:href="#DejaVuSans-48"/>
      </g>
     </g>
    </g>
    <g id="xtick_4">
     <g id="line2d_4">
      <g>
       <use style="stroke:#000000;stroke-width:0.8;" x="200.354559" xlink:href="#m8931c7ff77" y="288.430125"/>
      </g>
     </g>
     <g id="text_4">
      <!-- 150 -->
      <g transform="translate(190.810809 303.028562)scale(0.1 -0.1)">
       <use xlink:href="#DejaVuSans-49"/>
       <use x="63.623047" xlink:href="#DejaVuSans-53"/>
       <use x="127.246094" xlink:href="#DejaVuSans-48"/>
      </g>
     </g>
    </g>
    <g id="xtick_5">
     <g id="line2d_5">
      <g>
       <use style="stroke:#000000;stroke-width:0.8;" x="247.134753" xlink:href="#m8931c7ff77" y="288.430125"/>
      </g>
     </g>
     <g id="text_5">
      <!-- 200 -->
      <defs>
       <path d="M 19.1875 8.296875 
L 53.609375 8.296875 
L 53.609375 0 
L 7.328125 0 
L 7.328125 8.296875 
Q 12.9375 14.109375 22.625 23.890625 
Q 32.328125 33.6875 34.8125 36.53125 
Q 39.546875 41.84375 41.421875 45.53125 
Q 43.3125 49.21875 43.3125 52.78125 
Q 43.3125 58.59375 39.234375 62.25 
Q 35.15625 65.921875 28.609375 65.921875 
Q 23.96875 65.921875 18.8125 64.3125 
Q 13.671875 62.703125 7.8125 59.421875 
L 7.8125 69.390625 
Q 13.765625 71.78125 18.9375 73 
Q 24.125 74.21875 28.421875 74.21875 
Q 39.75 74.21875 46.484375 68.546875 
Q 53.21875 62.890625 53.21875 53.421875 
Q 53.21875 48.921875 51.53125 44.890625 
Q 49.859375 40.875 45.40625 35.40625 
Q 44.1875 33.984375 37.640625 27.21875 
Q 31.109375 20.453125 19.1875 8.296875 
z
" id="DejaVuSans-50"/>
      </defs>
      <g transform="translate(237.591003 303.028562)scale(0.1 -0.1)">
       <use xlink:href="#DejaVuSans-50"/>
       <use x="63.623047" xlink:href="#DejaVuSans-48"/>
       <use x="127.246094" xlink:href="#DejaVuSans-48"/>
      </g>
     </g>
    </g>
    <g id="xtick_6">
     <g id="line2d_6">
      <g>
       <use style="stroke:#000000;stroke-width:0.8;" x="293.914947" xlink:href="#m8931c7ff77" y="288.430125"/>
      </g>
     </g>
     <g id="text_6">
      <!-- 250 -->
      <g transform="translate(284.371197 303.028562)scale(0.1 -0.1)">
       <use xlink:href="#DejaVuSans-50"/>
       <use x="63.623047" xlink:href="#DejaVuSans-53"/>
       <use x="127.246094" xlink:href="#DejaVuSans-48"/>
      </g>
     </g>
    </g>
    <g id="xtick_7">
     <g id="line2d_7">
      <g>
       <use style="stroke:#000000;stroke-width:0.8;" x="340.69514" xlink:href="#m8931c7ff77" y="288.430125"/>
      </g>
     </g>
     <g id="text_7">
      <!-- 300 -->
      <defs>
       <path d="M 40.578125 39.3125 
Q 47.65625 37.796875 51.625 33 
Q 55.609375 28.21875 55.609375 21.1875 
Q 55.609375 10.40625 48.1875 4.484375 
Q 40.765625 -1.421875 27.09375 -1.421875 
Q 22.515625 -1.421875 17.65625 -0.515625 
Q 12.796875 0.390625 7.625 2.203125 
L 7.625 11.71875 
Q 11.71875 9.328125 16.59375 8.109375 
Q 21.484375 6.890625 26.8125 6.890625 
Q 36.078125 6.890625 40.9375 10.546875 
Q 45.796875 14.203125 45.796875 21.1875 
Q 45.796875 27.640625 41.28125 31.265625 
Q 36.765625 34.90625 28.71875 34.90625 
L 20.21875 34.90625 
L 20.21875 43.015625 
L 29.109375 43.015625 
Q 36.375 43.015625 40.234375 45.921875 
Q 44.09375 48.828125 44.09375 54.296875 
Q 44.09375 59.90625 40.109375 62.90625 
Q 36.140625 65.921875 28.71875 65.921875 
Q 24.65625 65.921875 20.015625 65.03125 
Q 15.375 64.15625 9.8125 62.3125 
L 9.8125 71.09375 
Q 15.4375 72.65625 20.34375 73.4375 
Q 25.25 74.21875 29.59375 74.21875 
Q 40.828125 74.21875 47.359375 69.109375 
Q 53.90625 64.015625 53.90625 55.328125 
Q 53.90625 49.265625 50.4375 45.09375 
Q 46.96875 40.921875 40.578125 39.3125 
z
" id="DejaVuSans-51"/>
      </defs>
      <g transform="translate(331.15139 303.028562)scale(0.1 -0.1)">
       <use xlink:href="#DejaVuSans-51"/>
       <use x="63.623047" xlink:href="#DejaVuSans-48"/>
       <use x="127.246094" xlink:href="#DejaVuSans-48"/>
      </g>
     </g>
    </g>
    <g id="xtick_8">
     <g id="line2d_8">
      <g>
       <use style="stroke:#000000;stroke-width:0.8;" x="387.475334" xlink:href="#m8931c7ff77" y="288.430125"/>
      </g>
     </g>
     <g id="text_8">
      <!-- 350 -->
      <g transform="translate(377.931584 303.028562)scale(0.1 -0.1)">
       <use xlink:href="#DejaVuSans-51"/>
       <use x="63.623047" xlink:href="#DejaVuSans-53"/>
       <use x="127.246094" xlink:href="#DejaVuSans-48"/>
      </g>
     </g>
    </g>
    <g id="text_9">
     <!-- Epoch -->
     <defs>
      <path d="M 9.8125 72.90625 
L 55.90625 72.90625 
L 55.90625 64.59375 
L 19.671875 64.59375 
L 19.671875 43.015625 
L 54.390625 43.015625 
L 54.390625 34.71875 
L 19.671875 34.71875 
L 19.671875 8.296875 
L 56.78125 8.296875 
L 56.78125 0 
L 9.8125 0 
z
" id="DejaVuSans-69"/>
      <path d="M 18.109375 8.203125 
L 18.109375 -20.796875 
L 9.078125 -20.796875 
L 9.078125 54.6875 
L 18.109375 54.6875 
L 18.109375 46.390625 
Q 20.953125 51.265625 25.265625 53.625 
Q 29.59375 56 35.59375 56 
Q 45.5625 56 51.78125 48.09375 
Q 58.015625 40.1875 58.015625 27.296875 
Q 58.015625 14.40625 51.78125 6.484375 
Q 45.5625 -1.421875 35.59375 -1.421875 
Q 29.59375 -1.421875 25.265625 0.953125 
Q 20.953125 3.328125 18.109375 8.203125 
z
M 48.6875 27.296875 
Q 48.6875 37.203125 44.609375 42.84375 
Q 40.53125 48.484375 33.40625 48.484375 
Q 26.265625 48.484375 22.1875 42.84375 
Q 18.109375 37.203125 18.109375 27.296875 
Q 18.109375 17.390625 22.1875 11.75 
Q 26.265625 6.109375 33.40625 6.109375 
Q 40.53125 6.109375 44.609375 11.75 
Q 48.6875 17.390625 48.6875 27.296875 
z
" id="DejaVuSans-112"/>
      <path d="M 30.609375 48.390625 
Q 23.390625 48.390625 19.1875 42.75 
Q 14.984375 37.109375 14.984375 27.296875 
Q 14.984375 17.484375 19.15625 11.84375 
Q 23.34375 6.203125 30.609375 6.203125 
Q 37.796875 6.203125 41.984375 11.859375 
Q 46.1875 17.53125 46.1875 27.296875 
Q 46.1875 37.015625 41.984375 42.703125 
Q 37.796875 48.390625 30.609375 48.390625 
z
M 30.609375 56 
Q 42.328125 56 49.015625 48.375 
Q 55.71875 40.765625 55.71875 27.296875 
Q 55.71875 13.875 49.015625 6.21875 
Q 42.328125 -1.421875 30.609375 -1.421875 
Q 18.84375 -1.421875 12.171875 6.21875 
Q 5.515625 13.875 5.515625 27.296875 
Q 5.515625 40.765625 12.171875 48.375 
Q 18.84375 56 30.609375 56 
z
" id="DejaVuSans-111"/>
      <path d="M 48.78125 52.59375 
L 48.78125 44.1875 
Q 44.96875 46.296875 41.140625 47.34375 
Q 37.3125 48.390625 33.40625 48.390625 
Q 24.65625 48.390625 19.8125 42.84375 
Q 14.984375 37.3125 14.984375 27.296875 
Q 14.984375 17.28125 19.8125 11.734375 
Q 24.65625 6.203125 33.40625 6.203125 
Q 37.3125 6.203125 41.140625 7.25 
Q 44.96875 8.296875 48.78125 10.40625 
L 48.78125 2.09375 
Q 45.015625 0.34375 40.984375 -0.53125 
Q 36.96875 -1.421875 32.421875 -1.421875 
Q 20.0625 -1.421875 12.78125 6.34375 
Q 5.515625 14.109375 5.515625 27.296875 
Q 5.515625 40.671875 12.859375 48.328125 
Q 20.21875 56 33.015625 56 
Q 37.15625 56 41.109375 55.140625 
Q 45.0625 54.296875 48.78125 52.59375 
z
" id="DejaVuSans-99"/>
      <path d="M 54.890625 33.015625 
L 54.890625 0 
L 45.90625 0 
L 45.90625 32.71875 
Q 45.90625 40.484375 42.875 44.328125 
Q 39.84375 48.1875 33.796875 48.1875 
Q 26.515625 48.1875 22.3125 43.546875 
Q 18.109375 38.921875 18.109375 30.90625 
L 18.109375 0 
L 9.078125 0 
L 9.078125 75.984375 
L 18.109375 75.984375 
L 18.109375 46.1875 
Q 21.34375 51.125 25.703125 53.5625 
Q 30.078125 56 35.796875 56 
Q 45.21875 56 50.046875 50.171875 
Q 54.890625 44.34375 54.890625 33.015625 
z
" id="DejaVuSans-104"/>
     </defs>
     <g transform="translate(207.030313 316.706687)scale(0.1 -0.1)">
      <use xlink:href="#DejaVuSans-69"/>
      <use x="63.183594" xlink:href="#DejaVuSans-112"/>
      <use x="126.660156" xlink:href="#DejaVuSans-111"/>
      <use x="187.841797" xlink:href="#DejaVuSans-99"/>
      <use x="242.822266" xlink:href="#DejaVuSans-104"/>
     </g>
    </g>
   </g>
   <g id="matplotlib.axis_2">
    <g id="ytick_1">
     <g id="line2d_9">
      <defs>
       <path d="M 0 0 
L -3.5 0 
" id="m5d5d575bf4" style="stroke:#000000;stroke-width:0.8;"/>
      </defs>
      <g>
       <use style="stroke:#000000;stroke-width:0.8;" x="43.78125" xlink:href="#m5d5d575bf4" y="276.334125"/>
      </g>
     </g>
     <g id="text_10">
      <!-- 0.0 -->
      <defs>
       <path d="M 10.6875 12.40625 
L 21 12.40625 
L 21 0 
L 10.6875 0 
z
" id="DejaVuSans-46"/>
      </defs>
      <g transform="translate(20.878125 280.133344)scale(0.1 -0.1)">
       <use xlink:href="#DejaVuSans-48"/>
       <use x="63.623047" xlink:href="#DejaVuSans-46"/>
       <use x="95.410156" xlink:href="#DejaVuSans-48"/>
      </g>
     </g>
    </g>
    <g id="ytick_2">
     <g id="line2d_10">
      <g>
       <use style="stroke:#000000;stroke-width:0.8;" x="43.78125" xlink:href="#m5d5d575bf4" y="227.950125"/>
      </g>
     </g>
     <g id="text_11">
      <!-- 0.2 -->
      <g transform="translate(20.878125 231.749344)scale(0.1 -0.1)">
       <use xlink:href="#DejaVuSans-48"/>
       <use x="63.623047" xlink:href="#DejaVuSans-46"/>
       <use x="95.410156" xlink:href="#DejaVuSans-50"/>
      </g>
     </g>
    </g>
    <g id="ytick_3">
     <g id="line2d_11">
      <g>
       <use style="stroke:#000000;stroke-width:0.8;" x="43.78125" xlink:href="#m5d5d575bf4" y="179.566125"/>
      </g>
     </g>
     <g id="text_12">
      <!-- 0.4 -->
      <defs>
       <path d="M 37.796875 64.3125 
L 12.890625 25.390625 
L 37.796875 25.390625 
z
M 35.203125 72.90625 
L 47.609375 72.90625 
L 47.609375 25.390625 
L 58.015625 25.390625 
L 58.015625 17.1875 
L 47.609375 17.1875 
L 47.609375 0 
L 37.796875 0 
L 37.796875 17.1875 
L 4.890625 17.1875 
L 4.890625 26.703125 
z
" id="DejaVuSans-52"/>
      </defs>
      <g transform="translate(20.878125 183.365344)scale(0.1 -0.1)">
       <use xlink:href="#DejaVuSans-48"/>
       <use x="63.623047" xlink:href="#DejaVuSans-46"/>
       <use x="95.410156" xlink:href="#DejaVuSans-52"/>
      </g>
     </g>
    </g>
    <g id="ytick_4">
     <g id="line2d_12">
      <g>
       <use style="stroke:#000000;stroke-width:0.8;" x="43.78125" xlink:href="#m5d5d575bf4" y="131.182125"/>
      </g>
     </g>
     <g id="text_13">
      <!-- 0.6 -->
      <defs>
       <path d="M 33.015625 40.375 
Q 26.375 40.375 22.484375 35.828125 
Q 18.609375 31.296875 18.609375 23.390625 
Q 18.609375 15.53125 22.484375 10.953125 
Q 26.375 6.390625 33.015625 6.390625 
Q 39.65625 6.390625 43.53125 10.953125 
Q 47.40625 15.53125 47.40625 23.390625 
Q 47.40625 31.296875 43.53125 35.828125 
Q 39.65625 40.375 33.015625 40.375 
z
M 52.59375 71.296875 
L 52.59375 62.3125 
Q 48.875 64.0625 45.09375 64.984375 
Q 41.3125 65.921875 37.59375 65.921875 
Q 27.828125 65.921875 22.671875 59.328125 
Q 17.53125 52.734375 16.796875 39.40625 
Q 19.671875 43.65625 24.015625 45.921875 
Q 28.375 48.1875 33.59375 48.1875 
Q 44.578125 48.1875 50.953125 41.515625 
Q 57.328125 34.859375 57.328125 23.390625 
Q 57.328125 12.15625 50.6875 5.359375 
Q 44.046875 -1.421875 33.015625 -1.421875 
Q 20.359375 -1.421875 13.671875 8.265625 
Q 6.984375 17.96875 6.984375 36.375 
Q 6.984375 53.65625 15.1875 63.9375 
Q 23.390625 74.21875 37.203125 74.21875 
Q 40.921875 74.21875 44.703125 73.484375 
Q 48.484375 72.75 52.59375 71.296875 
z
" id="DejaVuSans-54"/>
      </defs>
      <g transform="translate(20.878125 134.981344)scale(0.1 -0.1)">
       <use xlink:href="#DejaVuSans-48"/>
       <use x="63.623047" xlink:href="#DejaVuSans-46"/>
       <use x="95.410156" xlink:href="#DejaVuSans-54"/>
      </g>
     </g>
    </g>
    <g id="ytick_5">
     <g id="line2d_13">
      <g>
       <use style="stroke:#000000;stroke-width:0.8;" x="43.78125" xlink:href="#m5d5d575bf4" y="82.798125"/>
      </g>
     </g>
     <g id="text_14">
      <!-- 0.8 -->
      <defs>
       <path d="M 31.78125 34.625 
Q 24.75 34.625 20.71875 30.859375 
Q 16.703125 27.09375 16.703125 20.515625 
Q 16.703125 13.921875 20.71875 10.15625 
Q 24.75 6.390625 31.78125 6.390625 
Q 38.8125 6.390625 42.859375 10.171875 
Q 46.921875 13.96875 46.921875 20.515625 
Q 46.921875 27.09375 42.890625 30.859375 
Q 38.875 34.625 31.78125 34.625 
z
M 21.921875 38.8125 
Q 15.578125 40.375 12.03125 44.71875 
Q 8.5 49.078125 8.5 55.328125 
Q 8.5 64.0625 14.71875 69.140625 
Q 20.953125 74.21875 31.78125 74.21875 
Q 42.671875 74.21875 48.875 69.140625 
Q 55.078125 64.0625 55.078125 55.328125 
Q 55.078125 49.078125 51.53125 44.71875 
Q 48 40.375 41.703125 38.8125 
Q 48.828125 37.15625 52.796875 32.3125 
Q 56.78125 27.484375 56.78125 20.515625 
Q 56.78125 9.90625 50.3125 4.234375 
Q 43.84375 -1.421875 31.78125 -1.421875 
Q 19.734375 -1.421875 13.25 4.234375 
Q 6.78125 9.90625 6.78125 20.515625 
Q 6.78125 27.484375 10.78125 32.3125 
Q 14.796875 37.15625 21.921875 38.8125 
z
M 18.3125 54.390625 
Q 18.3125 48.734375 21.84375 45.5625 
Q 25.390625 42.390625 31.78125 42.390625 
Q 38.140625 42.390625 41.71875 45.5625 
Q 45.3125 48.734375 45.3125 54.390625 
Q 45.3125 60.0625 41.71875 63.234375 
Q 38.140625 66.40625 31.78125 66.40625 
Q 25.390625 66.40625 21.84375 63.234375 
Q 18.3125 60.0625 18.3125 54.390625 
z
" id="DejaVuSans-56"/>
      </defs>
      <g transform="translate(20.878125 86.597344)scale(0.1 -0.1)">
       <use xlink:href="#DejaVuSans-48"/>
       <use x="63.623047" xlink:href="#DejaVuSans-46"/>
       <use x="95.410156" xlink:href="#DejaVuSans-56"/>
      </g>
     </g>
    </g>
    <g id="ytick_6">
     <g id="line2d_14">
      <g>
       <use style="stroke:#000000;stroke-width:0.8;" x="43.78125" xlink:href="#m5d5d575bf4" y="34.414125"/>
      </g>
     </g>
     <g id="text_15">
      <!-- 1.0 -->
      <g transform="translate(20.878125 38.213344)scale(0.1 -0.1)">
       <use xlink:href="#DejaVuSans-49"/>
       <use x="63.623047" xlink:href="#DejaVuSans-46"/>
       <use x="95.410156" xlink:href="#DejaVuSans-48"/>
      </g>
     </g>
    </g>
    <g id="text_16">
     <!-- Loss -->
     <defs>
      <path d="M 9.8125 72.90625 
L 19.671875 72.90625 
L 19.671875 8.296875 
L 55.171875 8.296875 
L 55.171875 0 
L 9.8125 0 
z
" id="DejaVuSans-76"/>
      <path d="M 44.28125 53.078125 
L 44.28125 44.578125 
Q 40.484375 46.53125 36.375 47.5 
Q 32.28125 48.484375 27.875 48.484375 
Q 21.1875 48.484375 17.84375 46.4375 
Q 14.5 44.390625 14.5 40.28125 
Q 14.5 37.15625 16.890625 35.375 
Q 19.28125 33.59375 26.515625 31.984375 
L 29.59375 31.296875 
Q 39.15625 29.25 43.1875 25.515625 
Q 47.21875 21.78125 47.21875 15.09375 
Q 47.21875 7.46875 41.1875 3.015625 
Q 35.15625 -1.421875 24.609375 -1.421875 
Q 20.21875 -1.421875 15.453125 -0.5625 
Q 10.6875 0.296875 5.421875 2 
L 5.421875 11.28125 
Q 10.40625 8.6875 15.234375 7.390625 
Q 20.0625 6.109375 24.8125 6.109375 
Q 31.15625 6.109375 34.5625 8.28125 
Q 37.984375 10.453125 37.984375 14.40625 
Q 37.984375 18.0625 35.515625 20.015625 
Q 33.0625 21.96875 24.703125 23.78125 
L 21.578125 24.515625 
Q 13.234375 26.265625 9.515625 29.90625 
Q 5.8125 33.546875 5.8125 39.890625 
Q 5.8125 47.609375 11.28125 51.796875 
Q 16.75 56 26.8125 56 
Q 31.78125 56 36.171875 55.265625 
Q 40.578125 54.546875 44.28125 53.078125 
z
" id="DejaVuSans-115"/>
     </defs>
     <g transform="translate(14.798438 166.428031)rotate(-90)scale(0.1 -0.1)">
      <use xlink:href="#DejaVuSans-76"/>
      <use x="55.697266" xlink:href="#DejaVuSans-111"/>
      <use x="116.878906" xlink:href="#DejaVuSans-115"/>
      <use x="168.978516" xlink:href="#DejaVuSans-115"/>
     </g>
    </g>
   </g>
   <g id="line2d_15">
    <path clip-path="url(#pa703cd82a4)" d="M 60.013977 226.554476 
L 60.949581 197.057573 
L 61.885185 200.419085 
L 62.820789 230.258633 
L 63.756393 244.411241 
L 64.691997 208.45057 
L 65.627601 209.734778 
L 66.563204 249.315832 
L 67.498808 253.714319 
L 68.434412 197.448444 
L 69.370016 185.053883 
L 70.30562 198.115458 
L 71.241224 219.39007 
L 72.176828 220.389151 
L 73.112432 173.077142 
L 74.048035 211.111592 
L 74.983639 204.58664 
L 75.919243 167.983786 
L 76.854847 232.355827 
L 77.790451 113.349826 
L 78.726055 170.345483 
L 79.661659 219.655587 
L 80.597263 238.692855 
L 81.532866 193.590605 
L 82.46847 221.19612 
L 83.404074 127.552139 
L 84.339678 182.834788 
L 85.275282 225.136794 
L 86.210886 224.470651 
L 87.14649 209.889383 
L 88.082094 224.269283 
L 89.017697 249.651671 
L 89.953301 233.23511 
L 90.888905 230.468017 
L 91.824509 128.910499 
L 92.760113 205.301984 
L 93.695717 250.822753 
L 94.631321 261.839668 
L 95.566925 276.334125 
L 96.502528 209.027858 
L 97.438132 184.762659 
L 98.373736 241.211339 
L 99.30934 205.214218 
L 100.244944 217.395579 
L 101.180548 232.565374 
L 102.116152 214.912511 
L 103.051756 227.966247 
L 103.98736 234.388212 
L 104.922963 210.967578 
L 105.858567 223.457371 
L 106.794171 230.431438 
L 107.729775 211.761936 
L 108.665379 223.747915 
L 109.600983 237.322596 
L 110.536587 205.633259 
L 111.472191 212.511374 
L 112.407794 223.052021 
L 113.343398 221.884416 
L 114.279002 227.319216 
L 115.214606 228.923161 
L 116.15021 208.173155 
L 117.085814 219.108747 
L 118.021418 227.661385 
L 118.957022 230.819791 
L 119.892625 247.640146 
L 120.828229 254.861467 
L 121.763833 195.443938 
L 122.699437 203.164429 
L 123.635041 206.281438 
L 124.570645 214.164968 
L 125.506249 216.298254 
L 126.441853 227.87865 
L 127.377456 208.252502 
L 128.31306 206.694773 
L 129.248664 207.106941 
L 130.184268 225.934728 
L 131.119872 239.995737 
L 132.055476 241.284707 
L 132.99108 211.154329 
L 133.926684 213.819982 
L 134.862287 210.19917 
L 135.797891 213.140536 
L 136.733495 212.44966 
L 137.669099 217.708279 
L 138.604703 198.915255 
L 139.540307 199.81896 
L 140.475911 206.685874 
L 141.411515 209.993682 
L 142.347118 216.225023 
L 143.282722 220.717196 
L 144.218326 202.756923 
L 145.15393 206.095132 
L 146.089534 215.373692 
L 147.025138 199.573408 
L 147.960742 213.425838 
L 148.896346 185.526596 
L 149.83195 197.372195 
L 150.767553 210.629102 
L 151.703157 209.736095 
L 152.638761 159.974 
L 153.574365 203.209208 
L 154.509969 192.299667 
L 155.445573 212.672246 
L 156.381177 198.954251 
L 157.316781 190.857797 
L 158.252384 201.593746 
L 159.187988 173.963975 
L 160.123592 201.125055 
L 161.059196 235.253992 
L 161.9948 229.70275 
L 162.930404 243.280675 
L 164.801612 171.612208 
L 165.737215 159.634167 
L 166.672819 204.84576 
L 167.608423 184.527428 
L 168.544027 139.064023 
L 169.479631 199.983781 
L 170.415235 209.57324 
L 171.350839 211.257481 
L 172.286443 207.300605 
L 173.222046 167.762684 
L 174.15765 210.663947 
L 175.093254 212.985728 
L 176.028858 207.616617 
L 176.964462 210.771634 
L 177.900066 202.009278 
L 178.83567 198.495627 
L 179.771274 34.414125 
L 180.706877 210.688112 
L 181.642481 216.03485 
L 182.578085 222.599298 
L 183.513689 197.055998 
L 184.449293 215.916179 
L 185.384897 216.896438 
L 186.320501 212.729344 
L 187.256105 218.126549 
L 188.191708 221.596069 
L 189.127312 203.542333 
L 190.062916 210.288377 
L 190.99852 196.944235 
L 191.934124 208.435844 
L 192.869728 213.033103 
L 194.740936 208.161494 
L 195.676539 215.495185 
L 196.612143 178.735678 
L 197.547747 204.852877 
L 198.483351 213.79043 
L 199.418955 207.977823 
L 200.354559 206.073763 
L 201.290163 200.981266 
L 202.225767 183.673552 
L 203.161371 200.275026 
L 204.096974 202.130345 
L 205.032578 197.667528 
L 205.968182 211.626996 
L 206.903786 217.815072 
L 207.83939 209.110126 
L 208.774994 201.755476 
L 209.710598 200.953356 
L 210.646202 207.576201 
L 211.581805 197.077134 
L 212.517409 159.244634 
L 213.453013 134.303767 
L 214.388617 204.23918 
L 215.324221 208.186604 
L 216.259825 208.422192 
L 218.131033 206.719199 
L 219.066636 208.900802 
L 220.00224 185.950521 
L 220.937844 206.693004 
L 221.873448 149.578895 
L 222.809052 204.08113 
L 223.744656 207.154476 
L 224.68026 204.532334 
L 225.615864 209.642648 
L 226.551467 196.450252 
L 227.487071 209.607221 
L 228.422675 211.071776 
L 229.358279 192.901746 
L 230.293883 183.177315 
L 231.229487 204.306031 
L 232.165091 210.941702 
L 233.100695 214.864457 
L 234.036298 204.992422 
L 235.907506 217.092037 
L 236.84311 133.823958 
L 237.778714 188.590064 
L 238.714318 197.294694 
L 239.649922 210.891474 
L 240.585526 209.754663 
L 241.521129 203.819269 
L 242.456733 207.402242 
L 243.392337 211.786526 
L 244.327941 212.043042 
L 245.263545 193.22486 
L 246.199149 210.135415 
L 247.134753 210.468848 
L 248.070357 204.569843 
L 249.005961 209.229711 
L 249.941564 184.927419 
L 250.877168 206.429666 
L 251.812772 209.908418 
L 252.748376 203.784338 
L 254.619584 211.029474 
L 255.555188 210.378948 
L 256.490792 213.556778 
L 257.426395 219.732386 
L 258.361999 219.163855 
L 259.297603 209.914496 
L 260.233207 221.032719 
L 261.168811 217.630178 
L 262.104415 177.194823 
L 263.040019 174.271474 
L 263.975623 193.709533 
L 264.911226 208.722038 
L 265.84683 207.992109 
L 266.782434 194.826072 
L 267.718038 205.829501 
L 268.653642 164.260932 
L 269.589246 211.544884 
L 270.52485 201.506694 
L 271.460454 202.489926 
L 272.396057 186.896552 
L 273.331661 207.649105 
L 274.267265 205.683106 
L 275.202869 205.455571 
L 276.138473 188.669353 
L 277.074077 194.822373 
L 278.009681 174.890222 
L 278.945285 198.938457 
L 279.880888 204.760865 
L 280.816492 204.438989 
L 281.752096 206.095604 
L 282.6877 209.656672 
L 283.623304 210.55698 
L 284.558908 207.869185 
L 285.494512 203.782281 
L 286.430116 205.021894 
L 287.365719 204.184409 
L 288.301323 207.465601 
L 289.236927 212.683121 
L 290.172531 207.837743 
L 291.108135 208.392626 
L 292.043739 148.499424 
L 292.979343 207.010978 
L 293.914947 198.682558 
L 294.85055 212.645501 
L 295.786154 208.192003 
L 296.721758 207.249465 
L 297.657362 215.911065 
L 298.592966 206.691691 
L 299.52857 210.560146 
L 300.464174 208.774705 
L 301.399778 207.97377 
L 302.335382 203.361439 
L 303.270985 172.146856 
L 304.206589 201.450696 
L 305.142193 179.646467 
L 306.077797 180.880538 
L 307.013401 205.594927 
L 307.949005 211.830379 
L 308.884609 213.301957 
L 309.820213 207.620372 
L 310.755816 212.194531 
L 311.69142 205.653854 
L 312.627024 209.574779 
L 313.562628 217.416956 
L 314.498232 195.532591 
L 315.433836 209.646696 
L 316.36944 215.240549 
L 317.305044 217.675025 
L 318.240647 208.295637 
L 319.176251 209.64367 
L 320.111855 218.075189 
L 321.047459 213.227229 
L 321.983063 185.094039 
L 322.918667 215.114162 
L 323.854271 205.772639 
L 324.789875 209.657132 
L 325.725478 206.446618 
L 326.661082 194.332196 
L 327.596686 213.418974 
L 328.53229 212.156885 
L 329.467894 208.682259 
L 330.403498 214.819363 
L 331.339102 223.379074 
L 332.274706 208.22838 
L 333.210309 197.36519 
L 334.145913 188.127652 
L 335.081517 195.870359 
L 336.017121 216.866727 
L 336.952725 198.103486 
L 337.888329 208.562713 
L 338.823933 211.42635 
L 340.69514 215.621791 
L 341.630744 212.463738 
L 342.566348 215.037351 
L 343.501952 199.345414 
L 344.437556 214.144997 
L 345.37316 207.517614 
L 346.308764 205.755045 
L 347.244368 207.966659 
L 348.179972 201.485865 
L 349.115575 209.457629 
L 350.051179 205.958847 
L 350.986783 208.462748 
L 351.922387 201.774375 
L 352.857991 206.41482 
L 353.793595 180.176308 
L 354.729199 210.766875 
L 355.664803 207.378298 
L 356.600406 207.14921 
L 357.53601 205.823301 
L 358.471614 210.609851 
L 359.407218 210.907307 
L 360.342822 212.271581 
L 361.278426 219.329868 
L 362.21403 223.947961 
L 363.149634 195.920576 
L 364.085237 198.332241 
L 365.020841 203.231336 
L 365.956445 203.322676 
L 366.892049 196.792509 
L 367.827653 201.101569 
L 368.763257 207.527015 
L 369.698861 160.318912 
L 370.634465 179.709105 
L 371.570068 190.363439 
L 372.505672 167.714955 
L 373.441276 154.578088 
L 374.37688 209.351501 
L 376.248088 207.317454 
L 377.183692 206.736301 
L 378.119296 211.684655 
L 379.054899 182.650148 
L 379.990503 206.490973 
L 380.926107 205.6006 
L 381.861711 208.651217 
L 382.797315 200.722956 
L 383.732919 179.572903 
L 384.668523 187.670648 
L 384.668523 187.670648 
" style="fill:none;stroke:#1f77b4;stroke-linecap:square;stroke-width:1.5;"/>
   </g>
   <g id="line2d_16">
    <path clip-path="url(#pa703cd82a4)" d="M 60.013977 62.135158 
L 60.949581 89.103426 
L 61.885185 110.033247 
L 62.820789 123.073427 
L 63.756393 134.297445 
L 66.563204 161.33564 
L 67.498808 168.275577 
L 68.434412 220.979573 
L 69.370016 223.734612 
L 70.30562 225.986461 
L 71.241224 238.798726 
L 73.112432 241.338907 
L 74.048035 233.933332 
L 74.983639 234.733881 
L 75.919243 235.355871 
L 76.854847 165.048622 
L 78.726055 174.330441 
L 79.661659 34.414125 
L 81.532866 56.652758 
L 82.46847 140.136644 
L 84.339678 152.873887 
L 85.275282 149.575428 
L 87.14649 155.803849 
L 88.082094 183.403733 
L 89.953301 187.20616 
L 90.888905 173.788315 
L 92.760113 181.293562 
L 93.695717 196.917806 
L 94.631321 198.33702 
L 95.566925 199.51065 
L 96.502528 211.21521 
L 97.438132 213.026011 
L 98.373736 214.51946 
L 99.30934 248.389469 
L 100.244944 248.958805 
L 101.180548 249.36301 
L 102.116152 250.177672 
L 103.051756 254.658058 
L 103.98736 257.247183 
L 104.922963 264.288093 
L 105.858567 266.209087 
L 106.794171 266.423643 
L 107.729775 261.140916 
L 108.665379 262.461424 
L 109.600983 262.640501 
L 110.536587 262.329616 
L 111.472191 263.143153 
L 112.407794 263.527737 
L 113.343398 262.634533 
L 114.279002 262.677965 
L 115.214606 262.927824 
L 116.15021 261.135817 
L 118.021418 261.635421 
L 118.957022 265.496808 
L 120.828229 265.888867 
L 121.763833 269.396772 
L 122.699437 269.738011 
L 123.635041 269.817285 
L 124.570645 263.552271 
L 126.441853 264.007266 
L 127.377456 265.479917 
L 128.31306 266.100314 
L 129.248664 266.250514 
L 130.184268 262.281536 
L 132.055476 263.979771 
L 132.99108 267.484503 
L 133.926684 268.048611 
L 134.862287 268.129881 
L 135.797891 270.729773 
L 136.733495 270.91115 
L 137.669099 270.915662 
L 138.604703 270.796401 
L 140.475911 270.857319 
L 141.411515 268.588617 
L 142.347118 268.779198 
L 143.282722 268.8431 
L 144.218326 271.897795 
L 146.089534 271.822905 
L 147.025138 268.798167 
L 147.960742 269.146075 
L 148.896346 269.181895 
L 149.83195 270.662321 
L 150.767553 270.647798 
L 151.703157 270.753781 
L 152.638761 273.170704 
L 155.445573 273.122801 
L 157.316781 273.307351 
L 158.252384 273.760803 
L 160.123592 273.824319 
L 161.059196 276.276384 
L 162.930404 276.334125 
L 163.866008 270.289975 
L 165.737215 270.475514 
L 166.672819 274.900997 
L 168.544027 274.975588 
L 169.479631 274.710396 
L 171.350839 274.801025 
L 172.286443 274.429872 
L 174.15765 274.510442 
L 175.093254 272.159196 
L 176.964462 272.419014 
L 177.900066 271.669258 
L 179.771274 272.00165 
L 180.706877 271.300132 
L 182.578085 271.392212 
L 183.513689 269.575681 
L 185.384897 269.727002 
L 186.320501 274.959308 
L 188.191708 274.995715 
L 189.127312 270.035338 
L 190.99852 270.308624 
L 192.869728 270.449873 
L 193.805332 270.567498 
L 194.740936 271.792536 
L 196.612143 271.932635 
L 197.547747 269.8677 
L 198.483351 270.105926 
L 199.418955 270.132189 
L 200.354559 270.730382 
L 202.225767 271.155557 
L 203.161371 267.788915 
L 205.032578 268.387781 
L 205.968182 264.766953 
L 206.903786 265.026251 
L 207.83939 265.473065 
L 208.774994 267.482361 
L 209.710598 267.977547 
L 210.646202 268.199576 
L 211.581805 275.540514 
L 213.453013 275.610996 
L 214.388617 268.386157 
L 216.259825 268.872966 
L 217.195429 266.29572 
L 218.131033 266.353908 
L 219.066636 266.566849 
L 220.00224 271.047942 
L 220.937844 271.072813 
L 221.873448 271.261877 
L 222.809052 265.269172 
L 224.68026 265.79966 
L 225.615864 269.110781 
L 227.487071 269.576919 
L 228.422675 270.114947 
L 229.358279 270.050924 
L 230.293883 270.191759 
L 231.229487 269.978839 
L 232.165091 270.218156 
L 233.100695 270.29047 
L 234.036298 269.567476 
L 235.907506 269.594701 
L 236.84311 270.127333 
L 238.714318 270.499087 
L 239.649922 269.339855 
L 240.585526 269.504987 
L 241.521129 269.518877 
L 242.456733 270.351668 
L 243.392337 270.145408 
L 244.327941 270.301213 
L 245.263545 270.75098 
L 247.134753 270.928318 
L 248.070357 272.800023 
L 249.941564 273.116247 
L 250.877168 270.852927 
L 252.748376 271.099841 
L 253.68398 272.763567 
L 255.555188 272.789977 
L 256.490792 267.800503 
L 258.361999 268.303815 
L 259.297603 270.911593 
L 261.168811 271.120413 
L 262.104415 273.319541 
L 263.040019 273.368374 
L 263.975623 273.268187 
L 264.911226 271.61148 
L 266.782434 271.756689 
L 267.718038 268.814251 
L 268.653642 268.828018 
L 269.589246 269.135424 
L 270.52485 274.162072 
L 272.396057 274.158935 
L 273.331661 273.617196 
L 274.267265 273.622791 
L 275.202869 273.740338 
L 276.138473 272.314138 
L 278.009681 272.435156 
L 278.945285 269.294402 
L 280.816492 269.573928 
L 282.6877 270.126215 
L 283.623304 270.178379 
L 284.558908 265.4439 
L 285.494512 265.879912 
L 286.430116 266.103487 
L 287.365719 268.128948 
L 288.301323 268.234288 
L 289.236927 268.47139 
L 291.108135 268.562538 
L 292.043739 268.6079 
L 292.979343 267.026426 
L 293.914947 267.314074 
L 294.85055 267.376373 
L 295.786154 271.606346 
L 297.657362 271.518071 
L 298.592966 268.055543 
L 299.52857 267.88184 
L 300.464174 267.91111 
L 301.399778 275.385057 
L 302.335382 275.541468 
L 303.270985 275.550247 
L 304.206589 274.498771 
L 306.077797 274.693369 
L 307.013401 273.769918 
L 308.884609 273.902789 
L 309.820213 272.643295 
L 311.69142 272.744145 
L 312.627024 272.296479 
L 313.562628 272.177966 
L 314.498232 272.471353 
L 315.433836 269.635294 
L 317.305044 269.685208 
L 318.240647 274.722357 
L 320.111855 274.943841 
L 321.047459 272.268422 
L 321.983063 272.556889 
L 322.918667 272.692076 
L 323.854271 271.606273 
L 324.789875 271.510258 
L 325.725478 271.641223 
L 326.661082 273.889279 
L 327.596686 274.063526 
L 328.53229 274.08019 
L 329.467894 273.529708 
L 330.403498 273.575789 
L 331.339102 273.832407 
L 332.274706 273.634512 
L 334.145913 273.744026 
L 335.081517 271.621665 
L 336.017121 271.80139 
L 336.952725 271.852273 
L 337.888329 269.757007 
L 339.759537 269.954467 
L 340.69514 271.897893 
L 342.566348 272.046485 
L 343.501952 269.405078 
L 345.37316 269.84478 
L 346.308764 270.937561 
L 348.179972 271.236412 
L 349.115575 269.916641 
L 350.986783 270.238442 
L 351.922387 270.135135 
L 353.793595 270.262584 
L 354.729199 266.964841 
L 355.664803 267.399626 
L 356.600406 267.62879 
L 357.53601 274.258098 
L 358.471614 274.102816 
L 359.407218 274.244313 
L 360.342822 268.800597 
L 362.21403 269.062214 
L 363.149634 272.979602 
L 364.085237 273.185012 
L 365.020841 273.053339 
L 365.956445 270.148499 
L 366.892049 270.36135 
L 367.827653 270.455096 
L 368.763257 269.145982 
L 369.698861 269.362119 
L 370.634465 269.391567 
L 371.570068 267.71451 
L 373.441276 267.894593 
L 374.37688 271.727034 
L 376.248088 272.043251 
L 377.183692 265.680222 
L 379.054899 266.005315 
L 379.990503 269.273749 
L 380.926107 269.529388 
L 381.861711 269.588374 
L 382.797315 269.436797 
L 384.668523 269.604131 
L 384.668523 269.604131 
" style="fill:none;stroke:#ff7f0e;stroke-linecap:square;stroke-width:1.5;"/>
   </g>
   <g id="patch_3">
    <path d="M 43.78125 288.430125 
L 43.78125 22.318125 
" style="fill:none;stroke:#000000;stroke-linecap:square;stroke-linejoin:miter;stroke-width:0.8;"/>
   </g>
   <g id="patch_4">
    <path d="M 400.90125 288.430125 
L 400.90125 22.318125 
" style="fill:none;stroke:#000000;stroke-linecap:square;stroke-linejoin:miter;stroke-width:0.8;"/>
   </g>
   <g id="patch_5">
    <path d="M 43.78125 288.430125 
L 400.90125 288.430125 
" style="fill:none;stroke:#000000;stroke-linecap:square;stroke-linejoin:miter;stroke-width:0.8;"/>
   </g>
   <g id="patch_6">
    <path d="M 43.78125 22.318125 
L 400.90125 22.318125 
" style="fill:none;stroke:#000000;stroke-linecap:square;stroke-linejoin:miter;stroke-width:0.8;"/>
   </g>
   <g id="text_17">
    <!-- Entropy and Loss. -->
    <defs>
     <path d="M 9.1875 72.90625 
L 59.90625 72.90625 
L 59.90625 58.6875 
L 27.984375 58.6875 
L 27.984375 45.125 
L 58.015625 45.125 
L 58.015625 30.90625 
L 27.984375 30.90625 
L 27.984375 14.203125 
L 60.984375 14.203125 
L 60.984375 0 
L 9.1875 0 
z
" id="DejaVuSans-Bold-69"/>
     <path d="M 63.375 33.296875 
L 63.375 0 
L 45.796875 0 
L 45.796875 5.421875 
L 45.796875 25.484375 
Q 45.796875 32.5625 45.484375 35.25 
Q 45.171875 37.9375 44.390625 39.203125 
Q 43.359375 40.921875 41.59375 41.875 
Q 39.84375 42.828125 37.59375 42.828125 
Q 32.125 42.828125 29 38.59375 
Q 25.875 34.375 25.875 26.90625 
L 25.875 0 
L 8.40625 0 
L 8.40625 54.6875 
L 25.875 54.6875 
L 25.875 46.6875 
Q 29.828125 51.46875 34.265625 53.734375 
Q 38.71875 56 44.09375 56 
Q 53.5625 56 58.46875 50.1875 
Q 63.375 44.390625 63.375 33.296875 
z
" id="DejaVuSans-Bold-110"/>
     <path d="M 27.484375 70.21875 
L 27.484375 54.6875 
L 45.515625 54.6875 
L 45.515625 42.1875 
L 27.484375 42.1875 
L 27.484375 19 
Q 27.484375 15.1875 29 13.84375 
Q 30.515625 12.5 35.015625 12.5 
L 44 12.5 
L 44 0 
L 29 0 
Q 18.65625 0 14.328125 4.3125 
Q 10.015625 8.640625 10.015625 19 
L 10.015625 42.1875 
L 1.3125 42.1875 
L 1.3125 54.6875 
L 10.015625 54.6875 
L 10.015625 70.21875 
z
" id="DejaVuSans-Bold-116"/>
     <path d="M 49.03125 39.796875 
Q 46.734375 40.875 44.453125 41.375 
Q 42.1875 41.890625 39.890625 41.890625 
Q 33.15625 41.890625 29.515625 37.5625 
Q 25.875 33.25 25.875 25.203125 
L 25.875 0 
L 8.40625 0 
L 8.40625 54.6875 
L 25.875 54.6875 
L 25.875 45.703125 
Q 29.25 51.078125 33.609375 53.53125 
Q 37.984375 56 44.09375 56 
Q 44.96875 56 45.984375 55.921875 
Q 47.015625 55.859375 48.96875 55.609375 
z
" id="DejaVuSans-Bold-114"/>
     <path d="M 34.421875 43.5 
Q 28.609375 43.5 25.5625 39.328125 
Q 22.515625 35.15625 22.515625 27.296875 
Q 22.515625 19.4375 25.5625 15.25 
Q 28.609375 11.078125 34.421875 11.078125 
Q 40.140625 11.078125 43.15625 15.25 
Q 46.1875 19.4375 46.1875 27.296875 
Q 46.1875 35.15625 43.15625 39.328125 
Q 40.140625 43.5 34.421875 43.5 
z
M 34.421875 56 
Q 48.53125 56 56.46875 48.375 
Q 64.40625 40.765625 64.40625 27.296875 
Q 64.40625 13.8125 56.46875 6.1875 
Q 48.53125 -1.421875 34.421875 -1.421875 
Q 20.265625 -1.421875 12.28125 6.1875 
Q 4.296875 13.8125 4.296875 27.296875 
Q 4.296875 40.765625 12.28125 48.375 
Q 20.265625 56 34.421875 56 
z
" id="DejaVuSans-Bold-111"/>
     <path d="M 25.875 7.90625 
L 25.875 -20.796875 
L 8.40625 -20.796875 
L 8.40625 54.6875 
L 25.875 54.6875 
L 25.875 46.6875 
Q 29.5 51.46875 33.890625 53.734375 
Q 38.28125 56 44 56 
Q 54.109375 56 60.59375 47.96875 
Q 67.09375 39.9375 67.09375 27.296875 
Q 67.09375 14.65625 60.59375 6.609375 
Q 54.109375 -1.421875 44 -1.421875 
Q 38.28125 -1.421875 33.890625 0.84375 
Q 29.5 3.125 25.875 7.90625 
z
M 37.5 43.3125 
Q 31.890625 43.3125 28.875 39.1875 
Q 25.875 35.0625 25.875 27.296875 
Q 25.875 19.53125 28.875 15.40625 
Q 31.890625 11.28125 37.5 11.28125 
Q 43.109375 11.28125 46.0625 15.375 
Q 49.03125 19.484375 49.03125 27.296875 
Q 49.03125 35.109375 46.0625 39.203125 
Q 43.109375 43.3125 37.5 43.3125 
z
" id="DejaVuSans-Bold-112"/>
     <path d="M 1.21875 54.6875 
L 18.703125 54.6875 
L 33.40625 17.578125 
L 45.90625 54.6875 
L 63.375 54.6875 
L 40.375 -5.171875 
Q 36.921875 -14.3125 32.296875 -17.9375 
Q 27.6875 -21.578125 20.125 -21.578125 
L 10.015625 -21.578125 
L 10.015625 -10.109375 
L 15.484375 -10.109375 
Q 19.921875 -10.109375 21.9375 -8.6875 
Q 23.96875 -7.28125 25.09375 -3.609375 
L 25.59375 -2.09375 
z
" id="DejaVuSans-Bold-121"/>
     <path id="DejaVuSans-Bold-32"/>
     <path d="M 32.90625 24.609375 
Q 27.4375 24.609375 24.671875 22.75 
Q 21.921875 20.90625 21.921875 17.28125 
Q 21.921875 13.96875 24.140625 12.078125 
Q 26.375 10.203125 30.328125 10.203125 
Q 35.25 10.203125 38.625 13.734375 
Q 42 17.28125 42 22.609375 
L 42 24.609375 
z
M 59.625 31.203125 
L 59.625 0 
L 42 0 
L 42 8.109375 
Q 38.484375 3.125 34.078125 0.84375 
Q 29.6875 -1.421875 23.390625 -1.421875 
Q 14.890625 -1.421875 9.59375 3.53125 
Q 4.296875 8.5 4.296875 16.40625 
Q 4.296875 26.03125 10.90625 30.515625 
Q 17.53125 35.015625 31.6875 35.015625 
L 42 35.015625 
L 42 36.375 
Q 42 40.53125 38.71875 42.453125 
Q 35.453125 44.390625 28.515625 44.390625 
Q 22.90625 44.390625 18.0625 43.265625 
Q 13.234375 42.140625 9.078125 39.890625 
L 9.078125 53.21875 
Q 14.703125 54.59375 20.359375 55.296875 
Q 26.03125 56 31.6875 56 
Q 46.484375 56 53.046875 50.171875 
Q 59.625 44.34375 59.625 31.203125 
z
" id="DejaVuSans-Bold-97"/>
     <path d="M 45.609375 46.6875 
L 45.609375 75.984375 
L 63.1875 75.984375 
L 63.1875 0 
L 45.609375 0 
L 45.609375 7.90625 
Q 42 3.078125 37.640625 0.828125 
Q 33.296875 -1.421875 27.59375 -1.421875 
Q 17.484375 -1.421875 10.984375 6.609375 
Q 4.5 14.65625 4.5 27.296875 
Q 4.5 39.9375 10.984375 47.96875 
Q 17.484375 56 27.59375 56 
Q 33.25 56 37.625 53.734375 
Q 42 51.46875 45.609375 46.6875 
z
M 34.078125 11.28125 
Q 39.703125 11.28125 42.65625 15.375 
Q 45.609375 19.484375 45.609375 27.296875 
Q 45.609375 35.109375 42.65625 39.203125 
Q 39.703125 43.3125 34.078125 43.3125 
Q 28.515625 43.3125 25.5625 39.203125 
Q 22.609375 35.109375 22.609375 27.296875 
Q 22.609375 19.484375 25.5625 15.375 
Q 28.515625 11.28125 34.078125 11.28125 
z
" id="DejaVuSans-Bold-100"/>
     <path d="M 9.1875 72.90625 
L 27.984375 72.90625 
L 27.984375 14.203125 
L 60.984375 14.203125 
L 60.984375 0 
L 9.1875 0 
z
" id="DejaVuSans-Bold-76"/>
     <path d="M 51.125 52.984375 
L 51.125 39.703125 
Q 45.515625 42.046875 40.28125 43.21875 
Q 35.0625 44.390625 30.421875 44.390625 
Q 25.4375 44.390625 23.015625 43.140625 
Q 20.609375 41.890625 20.609375 39.3125 
Q 20.609375 37.203125 22.4375 36.078125 
Q 24.265625 34.96875 29 34.421875 
L 32.078125 33.984375 
Q 45.515625 32.28125 50.140625 28.375 
Q 54.78125 24.46875 54.78125 16.109375 
Q 54.78125 7.375 48.328125 2.96875 
Q 41.890625 -1.421875 29.109375 -1.421875 
Q 23.6875 -1.421875 17.890625 -0.5625 
Q 12.109375 0.296875 6 2 
L 6 15.28125 
Q 11.234375 12.75 16.71875 11.46875 
Q 22.21875 10.203125 27.875 10.203125 
Q 33.015625 10.203125 35.59375 11.609375 
Q 38.1875 13.03125 38.1875 15.828125 
Q 38.1875 18.171875 36.40625 19.3125 
Q 34.625 20.453125 29.296875 21.09375 
L 26.21875 21.484375 
Q 14.546875 22.953125 9.859375 26.90625 
Q 5.171875 30.859375 5.171875 38.921875 
Q 5.171875 47.609375 11.125 51.796875 
Q 17.09375 56 29.390625 56 
Q 34.234375 56 39.546875 55.265625 
Q 44.875 54.546875 51.125 52.984375 
z
" id="DejaVuSans-Bold-115"/>
     <path d="M 10.203125 18.890625 
L 27.78125 18.890625 
L 27.78125 0 
L 10.203125 0 
z
" id="DejaVuSans-Bold-46"/>
    </defs>
    <g transform="translate(161.657813 16.318125)scale(0.12 -0.12)">
     <use xlink:href="#DejaVuSans-Bold-69"/>
     <use x="68.310547" xlink:href="#DejaVuSans-Bold-110"/>
     <use x="139.501953" xlink:href="#DejaVuSans-Bold-116"/>
     <use x="187.304688" xlink:href="#DejaVuSans-Bold-114"/>
     <use x="236.621094" xlink:href="#DejaVuSans-Bold-111"/>
     <use x="305.322266" xlink:href="#DejaVuSans-Bold-112"/>
     <use x="376.904297" xlink:href="#DejaVuSans-Bold-121"/>
     <use x="442.089844" xlink:href="#DejaVuSans-Bold-32"/>
     <use x="476.904297" xlink:href="#DejaVuSans-Bold-97"/>
     <use x="544.384766" xlink:href="#DejaVuSans-Bold-110"/>
     <use x="615.576172" xlink:href="#DejaVuSans-Bold-100"/>
     <use x="687.158203" xlink:href="#DejaVuSans-Bold-32"/>
     <use x="721.972656" xlink:href="#DejaVuSans-Bold-76"/>
     <use x="785.693359" xlink:href="#DejaVuSans-Bold-111"/>
     <use x="854.394531" xlink:href="#DejaVuSans-Bold-115"/>
     <use x="913.916016" xlink:href="#DejaVuSans-Bold-115"/>
     <use x="973.4375" xlink:href="#DejaVuSans-Bold-46"/>
    </g>
   </g>
   <g id="legend_1">
    <g id="patch_7">
     <path d="M 20.061562 353.02505 
L 428.620938 353.02505 
Q 430.620938 353.02505 430.620938 351.02505 
L 430.620938 337.346925 
Q 430.620938 335.346925 428.620938 335.346925 
L 20.061562 335.346925 
Q 18.061562 335.346925 18.061562 337.346925 
L 18.061562 351.02505 
Q 18.061562 353.02505 20.061562 353.02505 
z
" style="fill:#4c4c4c;opacity:0.5;stroke:#4c4c4c;stroke-linejoin:miter;"/>
    </g>
    <g id="patch_8">
     <path d="M 18.061562 351.02505 
L 426.620938 351.02505 
Q 428.620938 351.02505 428.620938 349.02505 
L 428.620938 335.346925 
Q 428.620938 333.346925 426.620938 333.346925 
L 18.061562 333.346925 
Q 16.061562 333.346925 16.061562 335.346925 
L 16.061562 349.02505 
Q 16.061562 351.02505 18.061562 351.02505 
z
" style="fill:#ffffff;stroke:#cccccc;stroke-linejoin:miter;"/>
    </g>
    <g id="line2d_17">
     <path d="M 20.061562 341.445362 
L 40.061562 341.445362 
" style="fill:none;stroke:#1f77b4;stroke-linecap:square;stroke-width:1.5;"/>
    </g>
    <g id="line2d_18"/>
    <g id="text_18">
     <!-- Policy Loss (Normalized) -->
     <defs>
      <path d="M 19.671875 64.796875 
L 19.671875 37.40625 
L 32.078125 37.40625 
Q 38.96875 37.40625 42.71875 40.96875 
Q 46.484375 44.53125 46.484375 51.125 
Q 46.484375 57.671875 42.71875 61.234375 
Q 38.96875 64.796875 32.078125 64.796875 
z
M 9.8125 72.90625 
L 32.078125 72.90625 
Q 44.34375 72.90625 50.609375 67.359375 
Q 56.890625 61.8125 56.890625 51.125 
Q 56.890625 40.328125 50.609375 34.8125 
Q 44.34375 29.296875 32.078125 29.296875 
L 19.671875 29.296875 
L 19.671875 0 
L 9.8125 0 
z
" id="DejaVuSans-80"/>
      <path d="M 9.421875 75.984375 
L 18.40625 75.984375 
L 18.40625 0 
L 9.421875 0 
z
" id="DejaVuSans-108"/>
      <path d="M 9.421875 54.6875 
L 18.40625 54.6875 
L 18.40625 0 
L 9.421875 0 
z
M 9.421875 75.984375 
L 18.40625 75.984375 
L 18.40625 64.59375 
L 9.421875 64.59375 
z
" id="DejaVuSans-105"/>
      <path d="M 32.171875 -5.078125 
Q 28.375 -14.84375 24.75 -17.8125 
Q 21.140625 -20.796875 15.09375 -20.796875 
L 7.90625 -20.796875 
L 7.90625 -13.28125 
L 13.1875 -13.28125 
Q 16.890625 -13.28125 18.9375 -11.515625 
Q 21 -9.765625 23.484375 -3.21875 
L 25.09375 0.875 
L 2.984375 54.6875 
L 12.5 54.6875 
L 29.59375 11.921875 
L 46.6875 54.6875 
L 56.203125 54.6875 
z
" id="DejaVuSans-121"/>
      <path id="DejaVuSans-32"/>
      <path d="M 31 75.875 
Q 24.46875 64.65625 21.28125 53.65625 
Q 18.109375 42.671875 18.109375 31.390625 
Q 18.109375 20.125 21.3125 9.0625 
Q 24.515625 -2 31 -13.1875 
L 23.1875 -13.1875 
Q 15.875 -1.703125 12.234375 9.375 
Q 8.59375 20.453125 8.59375 31.390625 
Q 8.59375 42.28125 12.203125 53.3125 
Q 15.828125 64.359375 23.1875 75.875 
z
" id="DejaVuSans-40"/>
      <path d="M 9.8125 72.90625 
L 23.09375 72.90625 
L 55.421875 11.921875 
L 55.421875 72.90625 
L 64.984375 72.90625 
L 64.984375 0 
L 51.703125 0 
L 19.390625 60.984375 
L 19.390625 0 
L 9.8125 0 
z
" id="DejaVuSans-78"/>
      <path d="M 41.109375 46.296875 
Q 39.59375 47.171875 37.8125 47.578125 
Q 36.03125 48 33.890625 48 
Q 26.265625 48 22.1875 43.046875 
Q 18.109375 38.09375 18.109375 28.8125 
L 18.109375 0 
L 9.078125 0 
L 9.078125 54.6875 
L 18.109375 54.6875 
L 18.109375 46.1875 
Q 20.953125 51.171875 25.484375 53.578125 
Q 30.03125 56 36.53125 56 
Q 37.453125 56 38.578125 55.875 
Q 39.703125 55.765625 41.0625 55.515625 
z
" id="DejaVuSans-114"/>
      <path d="M 52 44.1875 
Q 55.375 50.25 60.0625 53.125 
Q 64.75 56 71.09375 56 
Q 79.640625 56 84.28125 50.015625 
Q 88.921875 44.046875 88.921875 33.015625 
L 88.921875 0 
L 79.890625 0 
L 79.890625 32.71875 
Q 79.890625 40.578125 77.09375 44.375 
Q 74.3125 48.1875 68.609375 48.1875 
Q 61.625 48.1875 57.5625 43.546875 
Q 53.515625 38.921875 53.515625 30.90625 
L 53.515625 0 
L 44.484375 0 
L 44.484375 32.71875 
Q 44.484375 40.625 41.703125 44.40625 
Q 38.921875 48.1875 33.109375 48.1875 
Q 26.21875 48.1875 22.15625 43.53125 
Q 18.109375 38.875 18.109375 30.90625 
L 18.109375 0 
L 9.078125 0 
L 9.078125 54.6875 
L 18.109375 54.6875 
L 18.109375 46.1875 
Q 21.1875 51.21875 25.484375 53.609375 
Q 29.78125 56 35.6875 56 
Q 41.65625 56 45.828125 52.96875 
Q 50 49.953125 52 44.1875 
z
" id="DejaVuSans-109"/>
      <path d="M 34.28125 27.484375 
Q 23.390625 27.484375 19.1875 25 
Q 14.984375 22.515625 14.984375 16.5 
Q 14.984375 11.71875 18.140625 8.90625 
Q 21.296875 6.109375 26.703125 6.109375 
Q 34.1875 6.109375 38.703125 11.40625 
Q 43.21875 16.703125 43.21875 25.484375 
L 43.21875 27.484375 
z
M 52.203125 31.203125 
L 52.203125 0 
L 43.21875 0 
L 43.21875 8.296875 
Q 40.140625 3.328125 35.546875 0.953125 
Q 30.953125 -1.421875 24.3125 -1.421875 
Q 15.921875 -1.421875 10.953125 3.296875 
Q 6 8.015625 6 15.921875 
Q 6 25.140625 12.171875 29.828125 
Q 18.359375 34.515625 30.609375 34.515625 
L 43.21875 34.515625 
L 43.21875 35.40625 
Q 43.21875 41.609375 39.140625 45 
Q 35.0625 48.390625 27.6875 48.390625 
Q 23 48.390625 18.546875 47.265625 
Q 14.109375 46.140625 10.015625 43.890625 
L 10.015625 52.203125 
Q 14.9375 54.109375 19.578125 55.046875 
Q 24.21875 56 28.609375 56 
Q 40.484375 56 46.34375 49.84375 
Q 52.203125 43.703125 52.203125 31.203125 
z
" id="DejaVuSans-97"/>
      <path d="M 5.515625 54.6875 
L 48.1875 54.6875 
L 48.1875 46.484375 
L 14.40625 7.171875 
L 48.1875 7.171875 
L 48.1875 0 
L 4.296875 0 
L 4.296875 8.203125 
L 38.09375 47.515625 
L 5.515625 47.515625 
z
" id="DejaVuSans-122"/>
      <path d="M 56.203125 29.59375 
L 56.203125 25.203125 
L 14.890625 25.203125 
Q 15.484375 15.921875 20.484375 11.0625 
Q 25.484375 6.203125 34.421875 6.203125 
Q 39.59375 6.203125 44.453125 7.46875 
Q 49.3125 8.734375 54.109375 11.28125 
L 54.109375 2.78125 
Q 49.265625 0.734375 44.1875 -0.34375 
Q 39.109375 -1.421875 33.890625 -1.421875 
Q 20.796875 -1.421875 13.15625 6.1875 
Q 5.515625 13.8125 5.515625 26.8125 
Q 5.515625 40.234375 12.765625 48.109375 
Q 20.015625 56 32.328125 56 
Q 43.359375 56 49.78125 48.890625 
Q 56.203125 41.796875 56.203125 29.59375 
z
M 47.21875 32.234375 
Q 47.125 39.59375 43.09375 43.984375 
Q 39.0625 48.390625 32.421875 48.390625 
Q 24.90625 48.390625 20.390625 44.140625 
Q 15.875 39.890625 15.1875 32.171875 
z
" id="DejaVuSans-101"/>
      <path d="M 45.40625 46.390625 
L 45.40625 75.984375 
L 54.390625 75.984375 
L 54.390625 0 
L 45.40625 0 
L 45.40625 8.203125 
Q 42.578125 3.328125 38.25 0.953125 
Q 33.9375 -1.421875 27.875 -1.421875 
Q 17.96875 -1.421875 11.734375 6.484375 
Q 5.515625 14.40625 5.515625 27.296875 
Q 5.515625 40.1875 11.734375 48.09375 
Q 17.96875 56 27.875 56 
Q 33.9375 56 38.25 53.625 
Q 42.578125 51.265625 45.40625 46.390625 
z
M 14.796875 27.296875 
Q 14.796875 17.390625 18.875 11.75 
Q 22.953125 6.109375 30.078125 6.109375 
Q 37.203125 6.109375 41.296875 11.75 
Q 45.40625 17.390625 45.40625 27.296875 
Q 45.40625 37.203125 41.296875 42.84375 
Q 37.203125 48.484375 30.078125 48.484375 
Q 22.953125 48.484375 18.875 42.84375 
Q 14.796875 37.203125 14.796875 27.296875 
z
" id="DejaVuSans-100"/>
      <path d="M 8.015625 75.875 
L 15.828125 75.875 
Q 23.140625 64.359375 26.78125 53.3125 
Q 30.421875 42.28125 30.421875 31.390625 
Q 30.421875 20.453125 26.78125 9.375 
Q 23.140625 -1.703125 15.828125 -13.1875 
L 8.015625 -13.1875 
Q 14.5 -2 17.703125 9.0625 
Q 20.90625 20.125 20.90625 31.390625 
Q 20.90625 42.671875 17.703125 53.65625 
Q 14.5 64.65625 8.015625 75.875 
z
" id="DejaVuSans-41"/>
     </defs>
     <g transform="translate(48.061562 344.945362)scale(0.1 -0.1)">
      <use xlink:href="#DejaVuSans-80"/>
      <use x="60.255859" xlink:href="#DejaVuSans-111"/>
      <use x="121.4375" xlink:href="#DejaVuSans-108"/>
      <use x="149.220703" xlink:href="#DejaVuSans-105"/>
      <use x="177.003906" xlink:href="#DejaVuSans-99"/>
      <use x="231.984375" xlink:href="#DejaVuSans-121"/>
      <use x="291.164062" xlink:href="#DejaVuSans-32"/>
      <use x="322.951172" xlink:href="#DejaVuSans-76"/>
      <use x="378.648438" xlink:href="#DejaVuSans-111"/>
      <use x="439.830078" xlink:href="#DejaVuSans-115"/>
      <use x="491.929688" xlink:href="#DejaVuSans-115"/>
      <use x="544.029297" xlink:href="#DejaVuSans-32"/>
      <use x="575.816406" xlink:href="#DejaVuSans-40"/>
      <use x="614.830078" xlink:href="#DejaVuSans-78"/>
      <use x="689.634766" xlink:href="#DejaVuSans-111"/>
      <use x="750.816406" xlink:href="#DejaVuSans-114"/>
      <use x="791.914062" xlink:href="#DejaVuSans-109"/>
      <use x="889.326172" xlink:href="#DejaVuSans-97"/>
      <use x="950.605469" xlink:href="#DejaVuSans-108"/>
      <use x="978.388672" xlink:href="#DejaVuSans-105"/>
      <use x="1006.171875" xlink:href="#DejaVuSans-122"/>
      <use x="1058.662109" xlink:href="#DejaVuSans-101"/>
      <use x="1120.185547" xlink:href="#DejaVuSans-100"/>
      <use x="1183.662109" xlink:href="#DejaVuSans-41"/>
     </g>
    </g>
    <g id="line2d_19">
     <path d="M 190.330312 341.445362 
L 210.330312 341.445362 
" style="fill:none;stroke:#ff7f0e;stroke-linecap:square;stroke-width:1.5;"/>
    </g>
    <g id="line2d_20"/>
    <g id="text_19">
     <!-- Critic Loss (Normalized) -->
     <defs>
      <path d="M 64.40625 67.28125 
L 64.40625 56.890625 
Q 59.421875 61.53125 53.78125 63.8125 
Q 48.140625 66.109375 41.796875 66.109375 
Q 29.296875 66.109375 22.65625 58.46875 
Q 16.015625 50.828125 16.015625 36.375 
Q 16.015625 21.96875 22.65625 14.328125 
Q 29.296875 6.6875 41.796875 6.6875 
Q 48.140625 6.6875 53.78125 8.984375 
Q 59.421875 11.28125 64.40625 15.921875 
L 64.40625 5.609375 
Q 59.234375 2.09375 53.4375 0.328125 
Q 47.65625 -1.421875 41.21875 -1.421875 
Q 24.65625 -1.421875 15.125 8.703125 
Q 5.609375 18.84375 5.609375 36.375 
Q 5.609375 53.953125 15.125 64.078125 
Q 24.65625 74.21875 41.21875 74.21875 
Q 47.75 74.21875 53.53125 72.484375 
Q 59.328125 70.75 64.40625 67.28125 
z
" id="DejaVuSans-67"/>
      <path d="M 18.3125 70.21875 
L 18.3125 54.6875 
L 36.8125 54.6875 
L 36.8125 47.703125 
L 18.3125 47.703125 
L 18.3125 18.015625 
Q 18.3125 11.328125 20.140625 9.421875 
Q 21.96875 7.515625 27.59375 7.515625 
L 36.8125 7.515625 
L 36.8125 0 
L 27.59375 0 
Q 17.1875 0 13.234375 3.875 
Q 9.28125 7.765625 9.28125 18.015625 
L 9.28125 47.703125 
L 2.6875 47.703125 
L 2.6875 54.6875 
L 9.28125 54.6875 
L 9.28125 70.21875 
z
" id="DejaVuSans-116"/>
     </defs>
     <g transform="translate(218.330312 344.945362)scale(0.1 -0.1)">
      <use xlink:href="#DejaVuSans-67"/>
      <use x="69.824219" xlink:href="#DejaVuSans-114"/>
      <use x="110.9375" xlink:href="#DejaVuSans-105"/>
      <use x="138.720703" xlink:href="#DejaVuSans-116"/>
      <use x="177.929688" xlink:href="#DejaVuSans-105"/>
      <use x="205.712891" xlink:href="#DejaVuSans-99"/>
      <use x="260.693359" xlink:href="#DejaVuSans-32"/>
      <use x="292.480469" xlink:href="#DejaVuSans-76"/>
      <use x="348.177734" xlink:href="#DejaVuSans-111"/>
      <use x="409.359375" xlink:href="#DejaVuSans-115"/>
      <use x="461.458984" xlink:href="#DejaVuSans-115"/>
      <use x="513.558594" xlink:href="#DejaVuSans-32"/>
      <use x="545.345703" xlink:href="#DejaVuSans-40"/>
      <use x="584.359375" xlink:href="#DejaVuSans-78"/>
      <use x="659.164062" xlink:href="#DejaVuSans-111"/>
      <use x="720.345703" xlink:href="#DejaVuSans-114"/>
      <use x="761.443359" xlink:href="#DejaVuSans-109"/>
      <use x="858.855469" xlink:href="#DejaVuSans-97"/>
      <use x="920.134766" xlink:href="#DejaVuSans-108"/>
      <use x="947.917969" xlink:href="#DejaVuSans-105"/>
      <use x="975.701172" xlink:href="#DejaVuSans-122"/>
      <use x="1028.191406" xlink:href="#DejaVuSans-101"/>
      <use x="1089.714844" xlink:href="#DejaVuSans-100"/>
      <use x="1153.191406" xlink:href="#DejaVuSans-41"/>
     </g>
    </g>
    <g id="line2d_21">
     <path d="M 357.550625 341.445362 
L 377.550625 341.445362 
" style="fill:none;stroke:#008000;stroke-linecap:square;stroke-width:1.5;"/>
    </g>
    <g id="line2d_22"/>
    <g id="text_20">
     <!-- Entropy -->
     <defs>
      <path d="M 54.890625 33.015625 
L 54.890625 0 
L 45.90625 0 
L 45.90625 32.71875 
Q 45.90625 40.484375 42.875 44.328125 
Q 39.84375 48.1875 33.796875 48.1875 
Q 26.515625 48.1875 22.3125 43.546875 
Q 18.109375 38.921875 18.109375 30.90625 
L 18.109375 0 
L 9.078125 0 
L 9.078125 54.6875 
L 18.109375 54.6875 
L 18.109375 46.1875 
Q 21.34375 51.125 25.703125 53.5625 
Q 30.078125 56 35.796875 56 
Q 45.21875 56 50.046875 50.171875 
Q 54.890625 44.34375 54.890625 33.015625 
z
" id="DejaVuSans-110"/>
     </defs>
     <g transform="translate(385.550625 344.945362)scale(0.1 -0.1)">
      <use xlink:href="#DejaVuSans-69"/>
      <use x="63.183594" xlink:href="#DejaVuSans-110"/>
      <use x="126.5625" xlink:href="#DejaVuSans-116"/>
      <use x="165.771484" xlink:href="#DejaVuSans-114"/>
      <use x="206.853516" xlink:href="#DejaVuSans-111"/>
      <use x="268.035156" xlink:href="#DejaVuSans-112"/>
      <use x="331.511719" xlink:href="#DejaVuSans-121"/>
     </g>
    </g>
   </g>
  </g>
  <g id="axes_2">
   <g id="matplotlib.axis_3">
    <g id="ytick_7">
     <g id="line2d_23">
      <defs>
       <path d="M 0 0 
L 3.5 0 
" id="mf4c86f2e6b" style="stroke:#000000;stroke-width:0.8;"/>
      </defs>
      <g>
       <use style="stroke:#000000;stroke-width:0.8;" x="400.90125" xlink:href="#mf4c86f2e6b" y="265.832739"/>
      </g>
     </g>
     <g id="text_21">
      <!-- 0.8 -->
      <g transform="translate(407.90125 269.631958)scale(0.1 -0.1)">
       <use xlink:href="#DejaVuSans-48"/>
       <use x="63.623047" xlink:href="#DejaVuSans-46"/>
       <use x="95.410156" xlink:href="#DejaVuSans-56"/>
      </g>
     </g>
    </g>
    <g id="ytick_8">
     <g id="line2d_24">
      <g>
       <use style="stroke:#000000;stroke-width:0.8;" x="400.90125" xlink:href="#mf4c86f2e6b" y="222.89661"/>
      </g>
     </g>
     <g id="text_22">
      <!-- 0.9 -->
      <defs>
       <path d="M 10.984375 1.515625 
L 10.984375 10.5 
Q 14.703125 8.734375 18.5 7.8125 
Q 22.3125 6.890625 25.984375 6.890625 
Q 35.75 6.890625 40.890625 13.453125 
Q 46.046875 20.015625 46.78125 33.40625 
Q 43.953125 29.203125 39.59375 26.953125 
Q 35.25 24.703125 29.984375 24.703125 
Q 19.046875 24.703125 12.671875 31.3125 
Q 6.296875 37.9375 6.296875 49.421875 
Q 6.296875 60.640625 12.9375 67.421875 
Q 19.578125 74.21875 30.609375 74.21875 
Q 43.265625 74.21875 49.921875 64.515625 
Q 56.59375 54.828125 56.59375 36.375 
Q 56.59375 19.140625 48.40625 8.859375 
Q 40.234375 -1.421875 26.421875 -1.421875 
Q 22.703125 -1.421875 18.890625 -0.6875 
Q 15.09375 0.046875 10.984375 1.515625 
z
M 30.609375 32.421875 
Q 37.25 32.421875 41.125 36.953125 
Q 45.015625 41.5 45.015625 49.421875 
Q 45.015625 57.28125 41.125 61.84375 
Q 37.25 66.40625 30.609375 66.40625 
Q 23.96875 66.40625 20.09375 61.84375 
Q 16.21875 57.28125 16.21875 49.421875 
Q 16.21875 41.5 20.09375 36.953125 
Q 23.96875 32.421875 30.609375 32.421875 
z
" id="DejaVuSans-57"/>
      </defs>
      <g transform="translate(407.90125 226.695829)scale(0.1 -0.1)">
       <use xlink:href="#DejaVuSans-48"/>
       <use x="63.623047" xlink:href="#DejaVuSans-46"/>
       <use x="95.410156" xlink:href="#DejaVuSans-57"/>
      </g>
     </g>
    </g>
    <g id="ytick_9">
     <g id="line2d_25">
      <g>
       <use style="stroke:#000000;stroke-width:0.8;" x="400.90125" xlink:href="#mf4c86f2e6b" y="179.960481"/>
      </g>
     </g>
     <g id="text_23">
      <!-- 1.0 -->
      <g transform="translate(407.90125 183.7597)scale(0.1 -0.1)">
       <use xlink:href="#DejaVuSans-49"/>
       <use x="63.623047" xlink:href="#DejaVuSans-46"/>
       <use x="95.410156" xlink:href="#DejaVuSans-48"/>
      </g>
     </g>
    </g>
    <g id="ytick_10">
     <g id="line2d_26">
      <g>
       <use style="stroke:#000000;stroke-width:0.8;" x="400.90125" xlink:href="#mf4c86f2e6b" y="137.024352"/>
      </g>
     </g>
     <g id="text_24">
      <!-- 1.1 -->
      <g transform="translate(407.90125 140.823571)scale(0.1 -0.1)">
       <use xlink:href="#DejaVuSans-49"/>
       <use x="63.623047" xlink:href="#DejaVuSans-46"/>
       <use x="95.410156" xlink:href="#DejaVuSans-49"/>
      </g>
     </g>
    </g>
    <g id="ytick_11">
     <g id="line2d_27">
      <g>
       <use style="stroke:#000000;stroke-width:0.8;" x="400.90125" xlink:href="#mf4c86f2e6b" y="94.088224"/>
      </g>
     </g>
     <g id="text_25">
      <!-- 1.2 -->
      <g transform="translate(407.90125 97.887442)scale(0.1 -0.1)">
       <use xlink:href="#DejaVuSans-49"/>
       <use x="63.623047" xlink:href="#DejaVuSans-46"/>
       <use x="95.410156" xlink:href="#DejaVuSans-50"/>
      </g>
     </g>
    </g>
    <g id="ytick_12">
     <g id="line2d_28">
      <g>
       <use style="stroke:#000000;stroke-width:0.8;" x="400.90125" xlink:href="#mf4c86f2e6b" y="51.152095"/>
      </g>
     </g>
     <g id="text_26">
      <!-- 1.3 -->
      <g transform="translate(407.90125 54.951314)scale(0.1 -0.1)">
       <use xlink:href="#DejaVuSans-49"/>
       <use x="63.623047" xlink:href="#DejaVuSans-46"/>
       <use x="95.410156" xlink:href="#DejaVuSans-51"/>
      </g>
     </g>
    </g>
    <g id="text_27">
     <!-- Entropy -->
     <g transform="translate(435.402812 174.909281)rotate(-90)scale(0.1 -0.1)">
      <use xlink:href="#DejaVuSans-69"/>
      <use x="63.183594" xlink:href="#DejaVuSans-110"/>
      <use x="126.5625" xlink:href="#DejaVuSans-116"/>
      <use x="165.771484" xlink:href="#DejaVuSans-114"/>
      <use x="206.853516" xlink:href="#DejaVuSans-111"/>
      <use x="268.035156" xlink:href="#DejaVuSans-112"/>
      <use x="331.511719" xlink:href="#DejaVuSans-121"/>
     </g>
    </g>
   </g>
   <g id="line2d_29">
    <path clip-path="url(#pa703cd82a4)" d="M 60.013977 34.414125 
L 60.949581 39.784437 
L 61.885185 38.727491 
L 62.820789 41.337151 
L 63.756393 42.967664 
L 65.627601 75.338022 
L 66.563204 76.721214 
L 67.498808 79.19145 
L 68.434412 86.267617 
L 70.30562 97.811931 
L 71.241224 76.201084 
L 72.176828 83.782181 
L 73.112432 103.160746 
L 74.048035 99.510467 
L 74.983639 97.842539 
L 75.919243 112.165112 
L 76.854847 146.855635 
L 77.790451 146.796875 
L 78.726055 183.054161 
L 79.661659 204.407886 
L 80.597263 193.17866 
L 81.532866 192.67862 
L 82.46847 194.170706 
L 83.404074 228.876711 
L 84.339678 212.261793 
L 85.275282 176.832738 
L 86.210886 182.843642 
L 87.14649 176.956194 
L 89.017697 162.168462 
L 89.953301 165.584165 
L 90.888905 155.302199 
L 91.824509 155.386703 
L 92.760113 187.857177 
L 93.695717 160.244921 
L 94.631321 160.664475 
L 95.566925 164.537967 
L 96.502528 172.829035 
L 97.438132 161.176007 
L 98.373736 152.224258 
L 99.30934 165.97782 
L 100.244944 159.554809 
L 101.180548 142.15537 
L 103.051756 124.568905 
L 103.98736 124.866027 
L 104.922963 133.77038 
L 105.858567 131.377688 
L 106.794171 134.195155 
L 107.729775 129.760278 
L 108.665379 130.145591 
L 109.600983 130.386564 
L 110.536587 131.303472 
L 111.472191 143.087326 
L 112.407794 151.991269 
L 113.343398 133.912057 
L 114.279002 141.822163 
L 115.214606 148.196293 
L 116.15021 152.94032 
L 118.021418 157.395311 
L 118.957022 143.981866 
L 119.892625 142.172875 
L 120.828229 143.321952 
L 121.763833 124.720563 
L 122.699437 129.378549 
L 123.635041 132.499382 
L 124.570645 154.614953 
L 125.506249 172.050631 
L 126.441853 172.131143 
L 127.377456 152.546102 
L 128.31306 160.148133 
L 129.248664 160.860151 
L 130.184268 175.401945 
L 131.119872 177.176131 
L 132.055476 175.742983 
L 132.99108 153.653362 
L 133.926684 152.635367 
L 134.862287 158.187791 
L 135.797891 166.976622 
L 136.733495 180.367879 
L 137.669099 177.687867 
L 138.604703 154.620788 
L 139.540307 167.143276 
L 140.475911 173.479889 
L 141.411515 183.985144 
L 142.347118 180.214507 
L 143.282722 178.218439 
L 144.218326 165.138661 
L 145.15393 179.772995 
L 146.089534 184.084953 
L 147.025138 217.286972 
L 147.960742 223.802216 
L 148.896346 235.798023 
L 149.83195 212.155279 
L 150.767553 222.617208 
L 151.703157 220.406705 
L 152.638761 180.101621 
L 153.574365 192.449086 
L 154.509969 182.294209 
L 156.381177 183.532705 
L 157.316781 185.969415 
L 158.252384 201.055574 
L 159.187988 212.59523 
L 160.123592 213.143307 
L 161.059196 164.691723 
L 161.9948 170.134717 
L 162.930404 165.204842 
L 163.866008 212.087665 
L 164.801612 221.284099 
L 165.737215 222.850964 
L 166.672819 192.831634 
L 167.608423 201.110929 
L 169.479631 207.079427 
L 170.415235 207.123573 
L 171.350839 201.160987 
L 172.286443 225.647599 
L 173.222046 215.153732 
L 174.15765 227.920853 
L 175.093254 189.955024 
L 176.028858 199.161592 
L 176.964462 190.52703 
L 177.900066 251.357249 
L 178.83567 258.729055 
L 179.771274 271.581013 
L 180.706877 199.299789 
L 181.642481 202.944156 
L 182.578085 200.304835 
L 183.513689 193.423831 
L 184.449293 166.026752 
L 185.384897 169.373459 
L 186.320501 186.600307 
L 187.256105 179.232442 
L 188.191708 188.262605 
L 189.127312 179.597229 
L 190.062916 192.294203 
L 190.99852 186.652565 
L 191.934124 192.822344 
L 192.869728 193.691855 
L 193.805332 198.433553 
L 194.740936 193.205046 
L 195.676539 191.937861 
L 196.612143 196.452328 
L 197.547747 223.065041 
L 198.483351 212.487411 
L 199.418955 219.067761 
L 200.354559 199.493238 
L 201.290163 201.641041 
L 202.225767 199.061681 
L 204.096974 186.951735 
L 205.032578 187.467361 
L 205.968182 203.663775 
L 206.903786 199.336743 
L 207.83939 207.1139 
L 208.774994 208.874599 
L 209.710598 208.32729 
L 210.646202 197.684119 
L 211.581805 173.711598 
L 212.517409 169.092358 
L 213.453013 179.230599 
L 214.388617 195.498159 
L 216.259825 193.891421 
L 217.195429 196.96839 
L 218.131033 190.449077 
L 219.066636 191.303028 
L 220.00224 210.768964 
L 220.937844 206.96823 
L 221.873448 202.674954 
L 222.809052 203.957775 
L 223.744656 200.428086 
L 224.68026 205.077115 
L 225.615864 209.145566 
L 226.551467 214.015889 
L 227.487071 214.531566 
L 228.422675 223.264095 
L 229.358279 220.535458 
L 230.293883 227.517191 
L 231.229487 214.675981 
L 232.165091 227.522028 
L 233.100695 224.591522 
L 234.036298 237.896765 
L 234.971902 218.884267 
L 235.907506 220.615996 
L 236.84311 201.611942 
L 237.778714 205.109335 
L 238.714318 218.814196 
L 239.649922 225.40596 
L 240.585526 223.588549 
L 241.521129 223.354716 
L 242.456733 215.272862 
L 243.392337 208.737042 
L 244.327941 210.192429 
L 245.263545 206.631415 
L 246.199149 199.15545 
L 247.134753 190.396588 
L 248.070357 215.795705 
L 249.005961 199.439086 
L 249.941564 202.634391 
L 250.877168 189.910981 
L 251.812772 183.83515 
L 252.748376 191.297551 
L 253.68398 200.703173 
L 254.619584 206.859337 
L 255.555188 206.987629 
L 256.490792 195.677738 
L 257.426395 192.039461 
L 258.361999 196.488592 
L 259.297603 197.447752 
L 260.233207 201.842449 
L 261.168811 217.832234 
L 262.104415 199.560698 
L 263.040019 194.487329 
L 263.975623 196.303332 
L 264.911226 177.348979 
L 265.84683 186.513294 
L 266.782434 188.130397 
L 267.718038 217.511618 
L 268.653642 207.737652 
L 269.589246 225.603939 
L 270.52485 197.284143 
L 271.460454 197.313804 
L 272.396057 200.991006 
L 273.331661 198.930727 
L 274.267265 203.312296 
L 275.202869 203.43442 
L 276.138473 186.288879 
L 277.074077 183.234149 
L 278.009681 191.043731 
L 278.945285 197.206702 
L 279.880888 201.421692 
L 280.816492 204.22951 
L 281.752096 216.013774 
L 282.6877 216.113429 
L 284.558908 202.723861 
L 285.494512 200.570735 
L 286.430116 205.124665 
L 287.365719 203.212871 
L 288.301323 207.978881 
L 289.236927 208.771796 
L 291.108135 229.036968 
L 292.043739 224.224585 
L 293.914947 222.762007 
L 294.85055 232.095894 
L 295.786154 208.441404 
L 296.721758 215.078414 
L 297.657362 214.010489 
L 298.592966 232.329318 
L 299.52857 231.581548 
L 300.464174 235.54346 
L 301.399778 187.41152 
L 302.335382 198.786645 
L 304.206589 181.959006 
L 305.142193 184.91733 
L 306.077797 173.402499 
L 307.013401 177.860561 
L 307.949005 174.460469 
L 308.884609 175.681357 
L 309.820213 199.144087 
L 310.755816 200.891146 
L 311.69142 198.322023 
L 312.627024 185.688876 
L 313.562628 187.273093 
L 314.498232 198.079873 
L 315.433836 199.822683 
L 316.36944 197.146382 
L 317.305044 192.135405 
L 318.240647 226.882486 
L 319.176251 234.567486 
L 320.111855 236.588736 
L 321.047459 187.643715 
L 321.983063 184.339746 
L 322.918667 186.377043 
L 323.854271 203.50705 
L 324.789875 199.807277 
L 325.725478 201.079963 
L 326.661082 185.668812 
L 327.596686 182.710129 
L 328.53229 183.463862 
L 329.467894 210.43156 
L 331.339102 214.713039 
L 332.274706 215.739735 
L 333.210309 218.720197 
L 334.145913 226.641077 
L 335.081517 199.753738 
L 336.017121 208.679716 
L 336.952725 220.047983 
L 337.888329 225.449748 
L 338.823933 228.856596 
L 339.759537 225.068607 
L 340.69514 201.174321 
L 341.630744 203.725426 
L 342.566348 201.424482 
L 343.501952 207.094757 
L 344.437556 206.133857 
L 345.37316 211.588878 
L 346.308764 221.086119 
L 347.244368 216.031304 
L 348.179972 217.524465 
L 349.115575 226.358287 
L 350.051179 228.520651 
L 350.986783 227.541299 
L 351.922387 244.622836 
L 352.857991 242.564886 
L 353.793595 231.215737 
L 355.664803 203.284912 
L 356.600406 205.810554 
L 357.53601 259.615687 
L 358.471614 261.580353 
L 359.407218 264.732281 
L 360.342822 229.878277 
L 361.278426 235.679737 
L 362.21403 242.419063 
L 363.149634 265.627589 
L 364.085237 268.216391 
L 365.020841 263.555078 
L 365.956445 243.4237 
L 366.892049 260.327219 
L 367.827653 268.993183 
L 368.763257 248.820884 
L 369.698861 261.994687 
L 370.634465 266.957013 
L 371.570068 242.791426 
L 372.505672 245.84119 
L 373.441276 261.799779 
L 374.37688 245.440881 
L 375.312484 238.152633 
L 376.248088 247.08959 
L 377.183692 231.123324 
L 378.119296 235.754158 
L 379.054899 251.27126 
L 380.926107 269.338521 
L 381.861711 270.878464 
L 382.797315 271.736945 
L 383.732919 273.584196 
L 384.668523 276.334125 
L 384.668523 276.334125 
" style="fill:none;stroke:#008000;stroke-linecap:square;stroke-width:1.5;"/>
   </g>
   <g id="patch_9">
    <path d="M 43.78125 288.430125 
L 43.78125 22.318125 
" style="fill:none;stroke:#000000;stroke-linecap:square;stroke-linejoin:miter;stroke-width:0.8;"/>
   </g>
   <g id="patch_10">
    <path d="M 400.90125 288.430125 
L 400.90125 22.318125 
" style="fill:none;stroke:#000000;stroke-linecap:square;stroke-linejoin:miter;stroke-width:0.8;"/>
   </g>
   <g id="patch_11">
    <path d="M 43.78125 288.430125 
L 400.90125 288.430125 
" style="fill:none;stroke:#000000;stroke-linecap:square;stroke-linejoin:miter;stroke-width:0.8;"/>
   </g>
   <g id="patch_12">
    <path d="M 43.78125 22.318125 
L 400.90125 22.318125 
" style="fill:none;stroke:#000000;stroke-linecap:square;stroke-linejoin:miter;stroke-width:0.8;"/>
   </g>
  </g>
 </g>
 <defs>
  <clipPath id="pa703cd82a4">
   <rect height="266.112" width="357.12" x="43.78125" y="22.318125"/>
  </clipPath>
 </defs>
</svg>
