<?xml version="1.0" encoding="utf-8" standalone="no"?>
<!DOCTYPE svg PUBLIC "-//W3C//DTD SVG 1.1//EN"
  "http://www.w3.org/Graphics/SVG/1.1/DTD/svg11.dtd">
<!-- Created with matplotlib (https://matplotlib.org/) -->
<svg height="358.22505pt" version="1.1" viewBox="0 0 451.045 358.22505" width="451.045pt" xmlns="http://www.w3.org/2000/svg" xmlns:xlink="http://www.w3.org/1999/xlink">
 <defs>
  <style type="text/css">
*{stroke-linecap:butt;stroke-linejoin:round;}
  </style>
 </defs>
 <g id="figure_1">
  <g id="patch_1">
   <path d="M 0 358.22505 
L 451.045 358.22505 
L 451.045 0 
L 0 0 
z
" style="fill:#ffffff;"/>
  </g>
  <g id="axes_1">
   <g id="patch_2">
    <path d="M 43.78125 288.430125 
L 400.90125 288.430125 
L 400.90125 22.318125 
L 43.78125 22.318125 
z
" style="fill:#ffffff;"/>
   </g>
   <g id="matplotlib.axis_1">
    <g id="xtick_1">
     <g id="line2d_1">
      <defs>
       <path d="M 0 0 
L 0 3.5 
" id="me6e62006ae" style="stroke:#000000;stroke-width:0.8;"/>
      </defs>
      <g>
       <use style="stroke:#000000;stroke-width:0.8;" x="60.013977" xlink:href="#me6e62006ae" y="288.430125"/>
      </g>
     </g>
     <g id="text_1">
      <!-- 0 -->
      <defs>
       <path d="M 31.78125 66.40625 
Q 24.171875 66.40625 20.328125 58.90625 
Q 16.5 51.421875 16.5 36.375 
Q 16.5 21.390625 20.328125 13.890625 
Q 24.171875 6.390625 31.78125 6.390625 
Q 39.453125 6.390625 43.28125 13.890625 
Q 47.125 21.390625 47.125 36.375 
Q 47.125 51.421875 43.28125 58.90625 
Q 39.453125 66.40625 31.78125 66.40625 
z
M 31.78125 74.21875 
Q 44.046875 74.21875 50.515625 64.515625 
Q 56.984375 54.828125 56.984375 36.375 
Q 56.984375 17.96875 50.515625 8.265625 
Q 44.046875 -1.421875 31.78125 -1.421875 
Q 19.53125 -1.421875 13.0625 8.265625 
Q 6.59375 17.96875 6.59375 36.375 
Q 6.59375 54.828125 13.0625 64.515625 
Q 19.53125 74.21875 31.78125 74.21875 
z
" id="DejaVuSans-48"/>
      </defs>
      <g transform="translate(56.832727 303.028562)scale(0.1 -0.1)">
       <use xlink:href="#DejaVuSans-48"/>
      </g>
     </g>
    </g>
    <g id="xtick_2">
     <g id="line2d_2">
      <g>
       <use style="stroke:#000000;stroke-width:0.8;" x="102.731681" xlink:href="#me6e62006ae" y="288.430125"/>
      </g>
     </g>
     <g id="text_2">
      <!-- 50 -->
      <defs>
       <path d="M 10.796875 72.90625 
L 49.515625 72.90625 
L 49.515625 64.59375 
L 19.828125 64.59375 
L 19.828125 46.734375 
Q 21.96875 47.46875 24.109375 47.828125 
Q 26.265625 48.1875 28.421875 48.1875 
Q 40.625 48.1875 47.75 41.5 
Q 54.890625 34.8125 54.890625 23.390625 
Q 54.890625 11.625 47.5625 5.09375 
Q 40.234375 -1.421875 26.90625 -1.421875 
Q 22.3125 -1.421875 17.546875 -0.640625 
Q 12.796875 0.140625 7.71875 1.703125 
L 7.71875 11.625 
Q 12.109375 9.234375 16.796875 8.0625 
Q 21.484375 6.890625 26.703125 6.890625 
Q 35.15625 6.890625 40.078125 11.328125 
Q 45.015625 15.765625 45.015625 23.390625 
Q 45.015625 31 40.078125 35.4375 
Q 35.15625 39.890625 26.703125 39.890625 
Q 22.75 39.890625 18.8125 39.015625 
Q 14.890625 38.140625 10.796875 36.28125 
z
" id="DejaVuSans-53"/>
      </defs>
      <g transform="translate(96.369181 303.028562)scale(0.1 -0.1)">
       <use xlink:href="#DejaVuSans-53"/>
       <use x="63.623047" xlink:href="#DejaVuSans-48"/>
      </g>
     </g>
    </g>
    <g id="xtick_3">
     <g id="line2d_3">
      <g>
       <use style="stroke:#000000;stroke-width:0.8;" x="145.449384" xlink:href="#me6e62006ae" y="288.430125"/>
      </g>
     </g>
     <g id="text_3">
      <!-- 100 -->
      <defs>
       <path d="M 12.40625 8.296875 
L 28.515625 8.296875 
L 28.515625 63.921875 
L 10.984375 60.40625 
L 10.984375 69.390625 
L 28.421875 72.90625 
L 38.28125 72.90625 
L 38.28125 8.296875 
L 54.390625 8.296875 
L 54.390625 0 
L 12.40625 0 
z
" id="DejaVuSans-49"/>
      </defs>
      <g transform="translate(135.905634 303.028562)scale(0.1 -0.1)">
       <use xlink:href="#DejaVuSans-49"/>
       <use x="63.623047" xlink:href="#DejaVuSans-48"/>
       <use x="127.246094" xlink:href="#DejaVuSans-48"/>
      </g>
     </g>
    </g>
    <g id="xtick_4">
     <g id="line2d_4">
      <g>
       <use style="stroke:#000000;stroke-width:0.8;" x="188.167087" xlink:href="#me6e62006ae" y="288.430125"/>
      </g>
     </g>
     <g id="text_4">
      <!-- 150 -->
      <g transform="translate(178.623337 303.028562)scale(0.1 -0.1)">
       <use xlink:href="#DejaVuSans-49"/>
       <use x="63.623047" xlink:href="#DejaVuSans-53"/>
       <use x="127.246094" xlink:href="#DejaVuSans-48"/>
      </g>
     </g>
    </g>
    <g id="xtick_5">
     <g id="line2d_5">
      <g>
       <use style="stroke:#000000;stroke-width:0.8;" x="230.884791" xlink:href="#me6e62006ae" y="288.430125"/>
      </g>
     </g>
     <g id="text_5">
      <!-- 200 -->
      <defs>
       <path d="M 19.1875 8.296875 
L 53.609375 8.296875 
L 53.609375 0 
L 7.328125 0 
L 7.328125 8.296875 
Q 12.9375 14.109375 22.625 23.890625 
Q 32.328125 33.6875 34.8125 36.53125 
Q 39.546875 41.84375 41.421875 45.53125 
Q 43.3125 49.21875 43.3125 52.78125 
Q 43.3125 58.59375 39.234375 62.25 
Q 35.15625 65.921875 28.609375 65.921875 
Q 23.96875 65.921875 18.8125 64.3125 
Q 13.671875 62.703125 7.8125 59.421875 
L 7.8125 69.390625 
Q 13.765625 71.78125 18.9375 73 
Q 24.125 74.21875 28.421875 74.21875 
Q 39.75 74.21875 46.484375 68.546875 
Q 53.21875 62.890625 53.21875 53.421875 
Q 53.21875 48.921875 51.53125 44.890625 
Q 49.859375 40.875 45.40625 35.40625 
Q 44.1875 33.984375 37.640625 27.21875 
Q 31.109375 20.453125 19.1875 8.296875 
z
" id="DejaVuSans-50"/>
      </defs>
      <g transform="translate(221.341041 303.028562)scale(0.1 -0.1)">
       <use xlink:href="#DejaVuSans-50"/>
       <use x="63.623047" xlink:href="#DejaVuSans-48"/>
       <use x="127.246094" xlink:href="#DejaVuSans-48"/>
      </g>
     </g>
    </g>
    <g id="xtick_6">
     <g id="line2d_6">
      <g>
       <use style="stroke:#000000;stroke-width:0.8;" x="273.602494" xlink:href="#me6e62006ae" y="288.430125"/>
      </g>
     </g>
     <g id="text_6">
      <!-- 250 -->
      <g transform="translate(264.058744 303.028562)scale(0.1 -0.1)">
       <use xlink:href="#DejaVuSans-50"/>
       <use x="63.623047" xlink:href="#DejaVuSans-53"/>
       <use x="127.246094" xlink:href="#DejaVuSans-48"/>
      </g>
     </g>
    </g>
    <g id="xtick_7">
     <g id="line2d_7">
      <g>
       <use style="stroke:#000000;stroke-width:0.8;" x="316.320197" xlink:href="#me6e62006ae" y="288.430125"/>
      </g>
     </g>
     <g id="text_7">
      <!-- 300 -->
      <defs>
       <path d="M 40.578125 39.3125 
Q 47.65625 37.796875 51.625 33 
Q 55.609375 28.21875 55.609375 21.1875 
Q 55.609375 10.40625 48.1875 4.484375 
Q 40.765625 -1.421875 27.09375 -1.421875 
Q 22.515625 -1.421875 17.65625 -0.515625 
Q 12.796875 0.390625 7.625 2.203125 
L 7.625 11.71875 
Q 11.71875 9.328125 16.59375 8.109375 
Q 21.484375 6.890625 26.8125 6.890625 
Q 36.078125 6.890625 40.9375 10.546875 
Q 45.796875 14.203125 45.796875 21.1875 
Q 45.796875 27.640625 41.28125 31.265625 
Q 36.765625 34.90625 28.71875 34.90625 
L 20.21875 34.90625 
L 20.21875 43.015625 
L 29.109375 43.015625 
Q 36.375 43.015625 40.234375 45.921875 
Q 44.09375 48.828125 44.09375 54.296875 
Q 44.09375 59.90625 40.109375 62.90625 
Q 36.140625 65.921875 28.71875 65.921875 
Q 24.65625 65.921875 20.015625 65.03125 
Q 15.375 64.15625 9.8125 62.3125 
L 9.8125 71.09375 
Q 15.4375 72.65625 20.34375 73.4375 
Q 25.25 74.21875 29.59375 74.21875 
Q 40.828125 74.21875 47.359375 69.109375 
Q 53.90625 64.015625 53.90625 55.328125 
Q 53.90625 49.265625 50.4375 45.09375 
Q 46.96875 40.921875 40.578125 39.3125 
z
" id="DejaVuSans-51"/>
      </defs>
      <g transform="translate(306.776447 303.028562)scale(0.1 -0.1)">
       <use xlink:href="#DejaVuSans-51"/>
       <use x="63.623047" xlink:href="#DejaVuSans-48"/>
       <use x="127.246094" xlink:href="#DejaVuSans-48"/>
      </g>
     </g>
    </g>
    <g id="xtick_8">
     <g id="line2d_8">
      <g>
       <use style="stroke:#000000;stroke-width:0.8;" x="359.037901" xlink:href="#me6e62006ae" y="288.430125"/>
      </g>
     </g>
     <g id="text_8">
      <!-- 350 -->
      <g transform="translate(349.494151 303.028562)scale(0.1 -0.1)">
       <use xlink:href="#DejaVuSans-51"/>
       <use x="63.623047" xlink:href="#DejaVuSans-53"/>
       <use x="127.246094" xlink:href="#DejaVuSans-48"/>
      </g>
     </g>
    </g>
    <g id="text_9">
     <!-- Epoch -->
     <defs>
      <path d="M 9.8125 72.90625 
L 55.90625 72.90625 
L 55.90625 64.59375 
L 19.671875 64.59375 
L 19.671875 43.015625 
L 54.390625 43.015625 
L 54.390625 34.71875 
L 19.671875 34.71875 
L 19.671875 8.296875 
L 56.78125 8.296875 
L 56.78125 0 
L 9.8125 0 
z
" id="DejaVuSans-69"/>
      <path d="M 18.109375 8.203125 
L 18.109375 -20.796875 
L 9.078125 -20.796875 
L 9.078125 54.6875 
L 18.109375 54.6875 
L 18.109375 46.390625 
Q 20.953125 51.265625 25.265625 53.625 
Q 29.59375 56 35.59375 56 
Q 45.5625 56 51.78125 48.09375 
Q 58.015625 40.1875 58.015625 27.296875 
Q 58.015625 14.40625 51.78125 6.484375 
Q 45.5625 -1.421875 35.59375 -1.421875 
Q 29.59375 -1.421875 25.265625 0.953125 
Q 20.953125 3.328125 18.109375 8.203125 
z
M 48.6875 27.296875 
Q 48.6875 37.203125 44.609375 42.84375 
Q 40.53125 48.484375 33.40625 48.484375 
Q 26.265625 48.484375 22.1875 42.84375 
Q 18.109375 37.203125 18.109375 27.296875 
Q 18.109375 17.390625 22.1875 11.75 
Q 26.265625 6.109375 33.40625 6.109375 
Q 40.53125 6.109375 44.609375 11.75 
Q 48.6875 17.390625 48.6875 27.296875 
z
" id="DejaVuSans-112"/>
      <path d="M 30.609375 48.390625 
Q 23.390625 48.390625 19.1875 42.75 
Q 14.984375 37.109375 14.984375 27.296875 
Q 14.984375 17.484375 19.15625 11.84375 
Q 23.34375 6.203125 30.609375 6.203125 
Q 37.796875 6.203125 41.984375 11.859375 
Q 46.1875 17.53125 46.1875 27.296875 
Q 46.1875 37.015625 41.984375 42.703125 
Q 37.796875 48.390625 30.609375 48.390625 
z
M 30.609375 56 
Q 42.328125 56 49.015625 48.375 
Q 55.71875 40.765625 55.71875 27.296875 
Q 55.71875 13.875 49.015625 6.21875 
Q 42.328125 -1.421875 30.609375 -1.421875 
Q 18.84375 -1.421875 12.171875 6.21875 
Q 5.515625 13.875 5.515625 27.296875 
Q 5.515625 40.765625 12.171875 48.375 
Q 18.84375 56 30.609375 56 
z
" id="DejaVuSans-111"/>
      <path d="M 48.78125 52.59375 
L 48.78125 44.1875 
Q 44.96875 46.296875 41.140625 47.34375 
Q 37.3125 48.390625 33.40625 48.390625 
Q 24.65625 48.390625 19.8125 42.84375 
Q 14.984375 37.3125 14.984375 27.296875 
Q 14.984375 17.28125 19.8125 11.734375 
Q 24.65625 6.203125 33.40625 6.203125 
Q 37.3125 6.203125 41.140625 7.25 
Q 44.96875 8.296875 48.78125 10.40625 
L 48.78125 2.09375 
Q 45.015625 0.34375 40.984375 -0.53125 
Q 36.96875 -1.421875 32.421875 -1.421875 
Q 20.0625 -1.421875 12.78125 6.34375 
Q 5.515625 14.109375 5.515625 27.296875 
Q 5.515625 40.671875 12.859375 48.328125 
Q 20.21875 56 33.015625 56 
Q 37.15625 56 41.109375 55.140625 
Q 45.0625 54.296875 48.78125 52.59375 
z
" id="DejaVuSans-99"/>
      <path d="M 54.890625 33.015625 
L 54.890625 0 
L 45.90625 0 
L 45.90625 32.71875 
Q 45.90625 40.484375 42.875 44.328125 
Q 39.84375 48.1875 33.796875 48.1875 
Q 26.515625 48.1875 22.3125 43.546875 
Q 18.109375 38.921875 18.109375 30.90625 
L 18.109375 0 
L 9.078125 0 
L 9.078125 75.984375 
L 18.109375 75.984375 
L 18.109375 46.1875 
Q 21.34375 51.125 25.703125 53.5625 
Q 30.078125 56 35.796875 56 
Q 45.21875 56 50.046875 50.171875 
Q 54.890625 44.34375 54.890625 33.015625 
z
" id="DejaVuSans-104"/>
     </defs>
     <g transform="translate(207.030313 316.706687)scale(0.1 -0.1)">
      <use xlink:href="#DejaVuSans-69"/>
      <use x="63.183594" xlink:href="#DejaVuSans-112"/>
      <use x="126.660156" xlink:href="#DejaVuSans-111"/>
      <use x="187.841797" xlink:href="#DejaVuSans-99"/>
      <use x="242.822266" xlink:href="#DejaVuSans-104"/>
     </g>
    </g>
   </g>
   <g id="matplotlib.axis_2">
    <g id="ytick_1">
     <g id="line2d_9">
      <defs>
       <path d="M 0 0 
L -3.5 0 
" id="mdfcb7c83de" style="stroke:#000000;stroke-width:0.8;"/>
      </defs>
      <g>
       <use style="stroke:#000000;stroke-width:0.8;" x="43.78125" xlink:href="#mdfcb7c83de" y="275.735517"/>
      </g>
     </g>
     <g id="text_10">
      <!-- 0.0 -->
      <defs>
       <path d="M 10.6875 12.40625 
L 21 12.40625 
L 21 0 
L 10.6875 0 
z
" id="DejaVuSans-46"/>
      </defs>
      <g transform="translate(20.878125 279.534735)scale(0.1 -0.1)">
       <use xlink:href="#DejaVuSans-48"/>
       <use x="63.623047" xlink:href="#DejaVuSans-46"/>
       <use x="95.410156" xlink:href="#DejaVuSans-48"/>
      </g>
     </g>
    </g>
    <g id="ytick_2">
     <g id="line2d_10">
      <g>
       <use style="stroke:#000000;stroke-width:0.8;" x="43.78125" xlink:href="#mdfcb7c83de" y="227.471238"/>
      </g>
     </g>
     <g id="text_11">
      <!-- 0.2 -->
      <g transform="translate(20.878125 231.270457)scale(0.1 -0.1)">
       <use xlink:href="#DejaVuSans-48"/>
       <use x="63.623047" xlink:href="#DejaVuSans-46"/>
       <use x="95.410156" xlink:href="#DejaVuSans-50"/>
      </g>
     </g>
    </g>
    <g id="ytick_3">
     <g id="line2d_11">
      <g>
       <use style="stroke:#000000;stroke-width:0.8;" x="43.78125" xlink:href="#mdfcb7c83de" y="179.20696"/>
      </g>
     </g>
     <g id="text_12">
      <!-- 0.4 -->
      <defs>
       <path d="M 37.796875 64.3125 
L 12.890625 25.390625 
L 37.796875 25.390625 
z
M 35.203125 72.90625 
L 47.609375 72.90625 
L 47.609375 25.390625 
L 58.015625 25.390625 
L 58.015625 17.1875 
L 47.609375 17.1875 
L 47.609375 0 
L 37.796875 0 
L 37.796875 17.1875 
L 4.890625 17.1875 
L 4.890625 26.703125 
z
" id="DejaVuSans-52"/>
      </defs>
      <g transform="translate(20.878125 183.006179)scale(0.1 -0.1)">
       <use xlink:href="#DejaVuSans-48"/>
       <use x="63.623047" xlink:href="#DejaVuSans-46"/>
       <use x="95.410156" xlink:href="#DejaVuSans-52"/>
      </g>
     </g>
    </g>
    <g id="ytick_4">
     <g id="line2d_12">
      <g>
       <use style="stroke:#000000;stroke-width:0.8;" x="43.78125" xlink:href="#mdfcb7c83de" y="130.942682"/>
      </g>
     </g>
     <g id="text_13">
      <!-- 0.6 -->
      <defs>
       <path d="M 33.015625 40.375 
Q 26.375 40.375 22.484375 35.828125 
Q 18.609375 31.296875 18.609375 23.390625 
Q 18.609375 15.53125 22.484375 10.953125 
Q 26.375 6.390625 33.015625 6.390625 
Q 39.65625 6.390625 43.53125 10.953125 
Q 47.40625 15.53125 47.40625 23.390625 
Q 47.40625 31.296875 43.53125 35.828125 
Q 39.65625 40.375 33.015625 40.375 
z
M 52.59375 71.296875 
L 52.59375 62.3125 
Q 48.875 64.0625 45.09375 64.984375 
Q 41.3125 65.921875 37.59375 65.921875 
Q 27.828125 65.921875 22.671875 59.328125 
Q 17.53125 52.734375 16.796875 39.40625 
Q 19.671875 43.65625 24.015625 45.921875 
Q 28.375 48.1875 33.59375 48.1875 
Q 44.578125 48.1875 50.953125 41.515625 
Q 57.328125 34.859375 57.328125 23.390625 
Q 57.328125 12.15625 50.6875 5.359375 
Q 44.046875 -1.421875 33.015625 -1.421875 
Q 20.359375 -1.421875 13.671875 8.265625 
Q 6.984375 17.96875 6.984375 36.375 
Q 6.984375 53.65625 15.1875 63.9375 
Q 23.390625 74.21875 37.203125 74.21875 
Q 40.921875 74.21875 44.703125 73.484375 
Q 48.484375 72.75 52.59375 71.296875 
z
" id="DejaVuSans-54"/>
      </defs>
      <g transform="translate(20.878125 134.7419)scale(0.1 -0.1)">
       <use xlink:href="#DejaVuSans-48"/>
       <use x="63.623047" xlink:href="#DejaVuSans-46"/>
       <use x="95.410156" xlink:href="#DejaVuSans-54"/>
      </g>
     </g>
    </g>
    <g id="ytick_5">
     <g id="line2d_13">
      <g>
       <use style="stroke:#000000;stroke-width:0.8;" x="43.78125" xlink:href="#mdfcb7c83de" y="82.678403"/>
      </g>
     </g>
     <g id="text_14">
      <!-- 0.8 -->
      <defs>
       <path d="M 31.78125 34.625 
Q 24.75 34.625 20.71875 30.859375 
Q 16.703125 27.09375 16.703125 20.515625 
Q 16.703125 13.921875 20.71875 10.15625 
Q 24.75 6.390625 31.78125 6.390625 
Q 38.8125 6.390625 42.859375 10.171875 
Q 46.921875 13.96875 46.921875 20.515625 
Q 46.921875 27.09375 42.890625 30.859375 
Q 38.875 34.625 31.78125 34.625 
z
M 21.921875 38.8125 
Q 15.578125 40.375 12.03125 44.71875 
Q 8.5 49.078125 8.5 55.328125 
Q 8.5 64.0625 14.71875 69.140625 
Q 20.953125 74.21875 31.78125 74.21875 
Q 42.671875 74.21875 48.875 69.140625 
Q 55.078125 64.0625 55.078125 55.328125 
Q 55.078125 49.078125 51.53125 44.71875 
Q 48 40.375 41.703125 38.8125 
Q 48.828125 37.15625 52.796875 32.3125 
Q 56.78125 27.484375 56.78125 20.515625 
Q 56.78125 9.90625 50.3125 4.234375 
Q 43.84375 -1.421875 31.78125 -1.421875 
Q 19.734375 -1.421875 13.25 4.234375 
Q 6.78125 9.90625 6.78125 20.515625 
Q 6.78125 27.484375 10.78125 32.3125 
Q 14.796875 37.15625 21.921875 38.8125 
z
M 18.3125 54.390625 
Q 18.3125 48.734375 21.84375 45.5625 
Q 25.390625 42.390625 31.78125 42.390625 
Q 38.140625 42.390625 41.71875 45.5625 
Q 45.3125 48.734375 45.3125 54.390625 
Q 45.3125 60.0625 41.71875 63.234375 
Q 38.140625 66.40625 31.78125 66.40625 
Q 25.390625 66.40625 21.84375 63.234375 
Q 18.3125 60.0625 18.3125 54.390625 
z
" id="DejaVuSans-56"/>
      </defs>
      <g transform="translate(20.878125 86.477622)scale(0.1 -0.1)">
       <use xlink:href="#DejaVuSans-48"/>
       <use x="63.623047" xlink:href="#DejaVuSans-46"/>
       <use x="95.410156" xlink:href="#DejaVuSans-56"/>
      </g>
     </g>
    </g>
    <g id="ytick_6">
     <g id="line2d_14">
      <g>
       <use style="stroke:#000000;stroke-width:0.8;" x="43.78125" xlink:href="#mdfcb7c83de" y="34.414125"/>
      </g>
     </g>
     <g id="text_15">
      <!-- 1.0 -->
      <g transform="translate(20.878125 38.213344)scale(0.1 -0.1)">
       <use xlink:href="#DejaVuSans-49"/>
       <use x="63.623047" xlink:href="#DejaVuSans-46"/>
       <use x="95.410156" xlink:href="#DejaVuSans-48"/>
      </g>
     </g>
    </g>
    <g id="text_16">
     <!-- Loss -->
     <defs>
      <path d="M 9.8125 72.90625 
L 19.671875 72.90625 
L 19.671875 8.296875 
L 55.171875 8.296875 
L 55.171875 0 
L 9.8125 0 
z
" id="DejaVuSans-76"/>
      <path d="M 44.28125 53.078125 
L 44.28125 44.578125 
Q 40.484375 46.53125 36.375 47.5 
Q 32.28125 48.484375 27.875 48.484375 
Q 21.1875 48.484375 17.84375 46.4375 
Q 14.5 44.390625 14.5 40.28125 
Q 14.5 37.15625 16.890625 35.375 
Q 19.28125 33.59375 26.515625 31.984375 
L 29.59375 31.296875 
Q 39.15625 29.25 43.1875 25.515625 
Q 47.21875 21.78125 47.21875 15.09375 
Q 47.21875 7.46875 41.1875 3.015625 
Q 35.15625 -1.421875 24.609375 -1.421875 
Q 20.21875 -1.421875 15.453125 -0.5625 
Q 10.6875 0.296875 5.421875 2 
L 5.421875 11.28125 
Q 10.40625 8.6875 15.234375 7.390625 
Q 20.0625 6.109375 24.8125 6.109375 
Q 31.15625 6.109375 34.5625 8.28125 
Q 37.984375 10.453125 37.984375 14.40625 
Q 37.984375 18.0625 35.515625 20.015625 
Q 33.0625 21.96875 24.703125 23.78125 
L 21.578125 24.515625 
Q 13.234375 26.265625 9.515625 29.90625 
Q 5.8125 33.546875 5.8125 39.890625 
Q 5.8125 47.609375 11.28125 51.796875 
Q 16.75 56 26.8125 56 
Q 31.78125 56 36.171875 55.265625 
Q 40.578125 54.546875 44.28125 53.078125 
z
" id="DejaVuSans-115"/>
     </defs>
     <g transform="translate(14.798438 166.428031)rotate(-90)scale(0.1 -0.1)">
      <use xlink:href="#DejaVuSans-76"/>
      <use x="55.697266" xlink:href="#DejaVuSans-111"/>
      <use x="116.878906" xlink:href="#DejaVuSans-115"/>
      <use x="168.978516" xlink:href="#DejaVuSans-115"/>
     </g>
    </g>
   </g>
   <g id="line2d_15">
    <path clip-path="url(#pb1bb6be0d5)" d="M 60.013977 134.189985 
L 61.722685 134.299905 
L 62.577039 252.606923 
L 64.285748 253.342148 
L 65.140102 102.543755 
L 65.994456 103.146149 
L 66.84881 103.41514 
L 67.703164 161.055534 
L 69.411872 161.667114 
L 70.266226 145.247672 
L 71.974934 146.629445 
L 72.829288 213.654028 
L 74.537996 215.186309 
L 75.39235 163.820822 
L 77.101059 165.428896 
L 77.955413 188.977284 
L 79.664121 191.872384 
L 80.518475 145.394883 
L 81.372829 146.179662 
L 82.227183 147.594387 
L 83.081537 128.960989 
L 84.790245 129.524033 
L 85.644599 61.413833 
L 86.498953 61.750017 
L 87.353307 62.43146 
L 88.207661 181.896092 
L 89.062016 181.506113 
L 89.91637 180.880593 
L 90.770724 151.031932 
L 92.479432 151.095224 
L 93.333786 200.719829 
L 94.18814 201.812001 
L 95.042494 201.952749 
L 95.896848 202.658516 
L 97.605556 203.076453 
L 98.45991 34.414125 
L 99.314264 42.046679 
L 100.168618 37.968846 
L 101.022972 163.21562 
L 101.877327 166.419468 
L 102.731681 168.123424 
L 103.586035 151.963276 
L 104.440389 152.192778 
L 105.294743 152.579374 
L 106.149097 138.515382 
L 107.003451 138.514665 
L 107.857805 138.205173 
L 108.712159 221.358001 
L 110.420867 221.819757 
L 111.275221 208.9729 
L 112.129575 209.046541 
L 112.983929 209.28511 
L 113.838283 197.752413 
L 115.546992 198.160711 
L 116.401346 188.086143 
L 117.2557 191.079809 
L 118.110054 192.432845 
L 118.964408 136.092724 
L 119.818762 141.207311 
L 120.673116 143.631759 
L 121.52747 234.817911 
L 123.236178 234.750723 
L 124.090532 174.793475 
L 124.944886 175.079353 
L 125.79924 175.502094 
L 126.653594 231.974325 
L 128.362303 232.616856 
L 129.216657 261.925923 
L 130.925365 261.930582 
L 131.779719 230.884845 
L 133.488427 229.726964 
L 134.342781 174.633218 
L 135.197135 175.164263 
L 136.051489 175.486163 
L 136.905843 221.656633 
L 138.614551 218.300834 
L 139.468906 153.896478 
L 141.177614 152.061697 
L 142.031968 63.329628 
L 142.886322 67.002152 
L 143.740676 66.160513 
L 144.59503 265.339522 
L 145.449384 265.188317 
L 146.303738 265.177237 
L 147.158092 98.453029 
L 148.012446 98.904317 
L 148.8668 99.620258 
L 149.721154 252.597891 
L 151.429862 252.54559 
L 152.284217 216.713053 
L 153.138571 218.085881 
L 153.992925 217.998908 
L 154.847279 46.398769 
L 155.701633 51.294986 
L 156.555987 51.36004 
L 157.410341 261.146194 
L 159.119049 261.347805 
L 159.973403 230.955092 
L 161.682111 231.065673 
L 162.536465 129.447066 
L 163.390819 132.152591 
L 164.245173 130.422877 
L 165.099528 205.639122 
L 165.953882 208.116591 
L 166.808236 208.314485 
L 167.66259 213.341621 
L 169.371298 213.624831 
L 170.225652 256.516787 
L 171.93436 256.703539 
L 172.788714 233.616307 
L 174.497422 233.695239 
L 175.351776 249.045006 
L 177.060484 249.010264 
L 177.914839 241.025529 
L 178.769193 241.064313 
L 179.623547 240.929436 
L 180.477901 174.250573 
L 181.332255 173.766553 
L 182.186609 173.524524 
L 183.040963 101.450589 
L 183.895317 101.820327 
L 184.749671 102.571652 
L 185.604025 122.304881 
L 186.458379 123.305353 
L 187.312733 123.13519 
L 188.167087 275.735517 
L 189.021441 274.404575 
L 189.875795 275.489437 
L 190.73015 222.390283 
L 191.584504 221.979102 
L 192.438858 221.783679 
L 193.293212 165.513859 
L 195.00192 166.012607 
L 195.856274 236.178534 
L 197.564982 236.372844 
L 198.419336 207.491328 
L 200.128044 207.618969 
L 200.982398 207.11424 
L 201.836752 207.595723 
L 202.691106 208.328192 
L 203.545461 189.497183 
L 204.399815 189.316095 
L 205.254169 188.903772 
L 206.108523 245.111736 
L 207.817231 244.812131 
L 208.671585 232.148852 
L 210.380293 232.269111 
L 211.234647 236.933853 
L 212.943355 237.221749 
L 213.797709 136.695095 
L 214.652063 137.573728 
L 215.506417 138.851695 
L 216.360772 265.199105 
L 218.06948 265.231999 
L 218.923834 264.740527 
L 220.632542 264.816124 
L 221.486896 213.210802 
L 223.195604 213.67861 
L 224.049958 249.584026 
L 225.758666 249.625451 
L 226.61302 273.810905 
L 228.321728 273.921302 
L 229.176083 216.051146 
L 230.884791 216.426837 
L 231.739145 264.884985 
L 233.447853 264.782408 
L 234.302207 257.210148 
L 236.010915 257.185436 
L 236.865269 235.610049 
L 238.573977 235.139547 
L 239.428331 257.704011 
L 241.137039 257.593263 
L 241.991394 164.853892 
L 242.845748 166.85417 
L 243.700102 166.17754 
L 244.554456 265.959124 
L 246.263164 266.014643 
L 247.117518 260.402479 
L 248.826226 260.311931 
L 249.68058 227.730181 
L 251.389288 227.104471 
L 252.243642 224.160477 
L 253.097996 224.013225 
L 253.95235 224.029935 
L 254.806705 262.458703 
L 255.661059 262.471672 
L 256.515413 262.750063 
L 257.369767 253.883278 
L 259.078475 254.142222 
L 259.932829 255.739256 
L 261.641537 255.591708 
L 262.495891 246.597667 
L 263.350245 246.748196 
L 264.204599 246.354632 
L 265.058953 194.255442 
L 265.913307 193.322384 
L 266.767661 193.75641 
L 267.622016 211.5362 
L 268.47637 213.090599 
L 269.330724 213.088695 
L 270.185078 225.141364 
L 271.893786 224.636664 
L 272.74814 172.513301 
L 273.602494 171.750523 
L 274.456848 171.67772 
L 275.311202 215.759847 
L 276.165556 215.870895 
L 277.01991 216.159342 
L 277.874264 229.434957 
L 279.582972 229.498069 
L 280.437327 243.04876 
L 281.291681 243.04662 
L 282.146035 243.256464 
L 283.000389 256.188031 
L 283.854743 256.555734 
L 284.709097 256.733943 
L 285.563451 254.247004 
L 286.417805 254.999204 
L 287.272159 255.28658 
L 288.126513 262.165921 
L 289.835221 262.178505 
L 290.689575 260.063747 
L 292.398283 260.148294 
L 293.252638 271.337267 
L 294.961346 271.282733 
L 295.8157 256.342082 
L 296.670054 256.449441 
L 297.524408 256.277296 
L 300.08747 256.347849 
L 300.941824 256.933355 
L 302.650532 256.888735 
L 303.504886 267.956084 
L 304.35924 267.887345 
L 305.213594 268.024561 
L 306.067949 255.917845 
L 307.776657 255.891972 
L 308.631011 259.81464 
L 309.485365 260.060545 
L 310.339719 260.033482 
L 312.048427 260.2524 
L 312.902781 260.328387 
L 313.757135 242.794062 
L 315.465843 242.881746 
L 316.320197 257.73575 
L 318.028906 257.666078 
L 318.88326 268.649755 
L 320.591968 268.741743 
L 321.446322 205.344427 
L 323.15503 205.575755 
L 324.009384 252.069397 
L 325.718092 252.236072 
L 326.572446 264.381851 
L 328.281154 263.491865 
L 329.135508 267.87693 
L 330.844217 268.225407 
L 331.698571 274.087225 
L 333.407279 275.380462 
L 334.261633 270.037598 
L 335.970341 269.75593 
L 336.824695 270.826138 
L 337.679049 271.636055 
L 338.533403 273.061032 
L 339.387757 255.192335 
L 340.242111 256.047981 
L 341.096465 256.093209 
L 341.950819 272.901442 
L 343.659528 272.864419 
L 344.513882 263.617704 
L 345.368236 263.872198 
L 346.22259 263.916481 
L 347.076944 274.695614 
L 348.785652 275.062238 
L 349.640006 224.55095 
L 350.49436 225.142804 
L 351.348714 225.474776 
L 352.203068 268.5916 
L 353.911776 268.444961 
L 354.76613 260.84158 
L 356.474839 260.886399 
L 357.329193 229.188976 
L 358.183547 228.780222 
L 359.037901 229.302354 
L 359.892255 263.815495 
L 361.600963 264.051142 
L 362.455317 265.550252 
L 363.309671 265.606431 
L 364.164025 265.777561 
L 365.018379 273.772972 
L 366.727087 274.069539 
L 367.581441 271.808148 
L 369.29015 271.757258 
L 370.144504 219.946757 
L 370.998858 222.400458 
L 371.853212 222.085581 
L 372.707566 262.742768 
L 374.416274 262.483982 
L 375.270628 271.13 
L 376.124982 270.387848 
L 376.979336 270.29074 
L 377.83369 264.85682 
L 378.688044 264.492972 
L 379.542398 264.648242 
L 380.396752 255.431289 
L 382.105461 255.41846 
L 382.959815 262.96898 
L 384.668523 262.79508 
L 384.668523 262.79508 
" style="fill:none;stroke:#1f77b4;stroke-linecap:square;stroke-opacity:0.3;stroke-width:1.5;"/>
   </g>
   <g id="line2d_16">
    <path clip-path="url(#pb1bb6be0d5)" d="M 60.013977 95.29797 
L 60.868331 170.228592 
L 61.722685 208.662216 
L 62.577039 218.616425 
L 63.431394 208.108801 
L 64.285748 185.156925 
L 65.140102 172.19048 
L 65.994456 156.110413 
L 66.84881 133.112571 
L 67.703164 128.120222 
L 68.557518 128.263414 
L 69.411872 148.658954 
L 70.266226 158.305594 
L 71.12058 171.822708 
L 71.974934 176.840286 
L 72.829288 184.235569 
L 74.537996 190.40867 
L 75.39235 189.47203 
L 76.246705 189.164834 
L 77.101059 179.651552 
L 77.955413 175.153489 
L 78.809767 173.622327 
L 79.664121 173.164102 
L 80.518475 164.846605 
L 81.372829 159.73514 
L 83.081537 130.596808 
L 83.935891 105.350755 
L 84.790245 95.85642 
L 85.644599 92.353965 
L 86.498953 100.454992 
L 89.062016 141.593798 
L 89.91637 161.507852 
L 90.770724 172.481132 
L 91.625078 176.995155 
L 92.479432 172.016237 
L 93.333786 179.573642 
L 94.18814 203.269772 
L 95.042494 210.016032 
L 95.896848 198.730824 
L 97.605556 129.399795 
L 98.45991 108.07711 
L 99.314264 97.762032 
L 100.168618 96.107569 
L 101.022972 104.427767 
L 101.877327 125.131236 
L 102.731681 156.769367 
L 103.586035 165.076135 
L 104.440389 156.361165 
L 105.294743 142.561427 
L 106.149097 146.325942 
L 107.003451 157.592905 
L 109.566513 202.124223 
L 110.420867 214.000861 
L 111.275221 218.800127 
L 112.129575 217.19708 
L 112.983929 205.582373 
L 113.838283 200.909425 
L 114.692638 201.930604 
L 115.546992 198.298379 
L 116.401346 190.025723 
L 117.2557 172.59171 
L 118.110054 164.785263 
L 118.964408 163.541689 
L 120.673116 184.090742 
L 121.52747 192.113311 
L 122.381824 195.229215 
L 123.236178 204.472712 
L 124.090532 206.892216 
L 124.944886 203.658445 
L 125.79924 198.260653 
L 126.653594 207.076655 
L 128.362303 243.856732 
L 129.216657 252.677129 
L 130.071011 259.205687 
L 130.925365 251.787374 
L 131.779719 242.45918 
L 133.488427 206.821985 
L 134.342781 196.995506 
L 136.051489 199.369171 
L 136.905843 196.331795 
L 137.760197 200.660081 
L 138.614551 197.052215 
L 139.468906 178.509818 
L 140.32326 135.404436 
L 141.177614 107.920581 
L 142.031968 103.702874 
L 143.740676 158.491347 
L 144.59503 174.019794 
L 145.449384 171.846599 
L 146.303738 182.003176 
L 147.158092 183.381546 
L 148.012446 182.806868 
L 148.8668 168.586622 
L 149.721154 179.798648 
L 150.575508 215.181623 
L 151.429862 243.034973 
L 152.284217 234.012621 
L 153.992925 138.942761 
L 154.847279 122.360544 
L 155.701633 125.470087 
L 156.555987 142.332228 
L 157.410341 165.854111 
L 159.119049 247.534373 
L 159.973403 252.170173 
L 160.827757 228.246791 
L 161.682111 187.516449 
L 162.536465 171.328701 
L 163.390819 162.959316 
L 164.245173 164.583721 
L 165.099528 170.88131 
L 165.953882 181.250752 
L 166.808236 204.19802 
L 168.516944 229.463375 
L 169.371298 232.023 
L 170.225652 238.944855 
L 171.080006 242.510046 
L 171.93436 244.856642 
L 172.788714 246.081315 
L 173.643068 245.627093 
L 174.497422 241.175065 
L 175.351776 241.190976 
L 176.20613 248.016895 
L 177.060484 249.492237 
L 177.914839 242.559386 
L 178.769193 236.560521 
L 179.623547 219.264443 
L 180.477901 197.012787 
L 182.186609 146.571733 
L 183.040963 126.901578 
L 183.895317 102.004205 
L 184.749671 103.521015 
L 185.604025 116.165661 
L 186.458379 147.757016 
L 187.312733 185.921986 
L 189.021441 240.569687 
L 189.875795 251.743508 
L 190.73015 250.387994 
L 191.584504 228.211208 
L 192.438858 197.336496 
L 193.293212 187.526484 
L 194.147566 189.052336 
L 195.00192 197.685342 
L 195.856274 203.65797 
L 196.710628 211.742794 
L 197.564982 222.131899 
L 198.419336 223.277048 
L 199.27369 220.684918 
L 200.128044 209.862384 
L 200.982398 205.122906 
L 201.836752 196.899474 
L 202.691106 196.931259 
L 203.545461 198.863273 
L 204.399815 205.291522 
L 206.962877 229.180702 
L 207.817231 237.313744 
L 208.671585 240.894482 
L 209.525939 248.817632 
L 210.380293 240.839958 
L 211.234647 230.194601 
L 212.089001 204.276834 
L 212.943355 189.399928 
L 213.797709 182.407948 
L 214.652063 183.645595 
L 215.506417 192.268443 
L 216.360772 208.504118 
L 218.06948 263.408905 
L 218.923834 270.92854 
L 219.778188 262.110373 
L 220.632542 242.156198 
L 222.34125 228.910305 
L 223.195604 228.289164 
L 224.049958 233.010667 
L 225.758666 261.447814 
L 226.61302 264.21244 
L 227.467374 256.353501 
L 228.321728 246.991404 
L 229.176083 242.527136 
L 230.030437 240.215719 
L 230.884791 238.280187 
L 231.739145 241.669694 
L 232.593499 250.560945 
L 233.447853 261.297786 
L 234.302207 262.466984 
L 235.156561 256.5693 
L 236.010915 247.461805 
L 236.865269 244.441359 
L 237.719623 251.372079 
L 238.573977 250.732309 
L 239.428331 243.685683 
L 240.282685 224.469851 
L 241.137039 214.043892 
L 241.991394 207.627236 
L 242.845748 206.750388 
L 243.700102 209.612891 
L 244.554456 220.430964 
L 246.263164 262.009793 
L 247.117518 267.572075 
L 247.971872 263.582716 
L 248.826226 247.782394 
L 249.68058 240.012892 
L 250.534934 229.660391 
L 251.389288 224.96444 
L 252.243642 224.793218 
L 253.097996 230.359587 
L 253.95235 239.912787 
L 255.661059 252.701867 
L 256.515413 257.525314 
L 257.369767 259.912619 
L 258.224121 260.083188 
L 259.078475 255.60602 
L 259.932829 254.166665 
L 260.787183 257.206942 
L 261.641537 255.401895 
L 262.495891 248.231347 
L 264.204599 224.761607 
L 265.058953 214.724522 
L 265.913307 206.193121 
L 266.767661 202.447872 
L 267.622016 202.257752 
L 269.330724 220.07417 
L 270.185078 219.287562 
L 271.893786 200.835562 
L 272.74814 195.377861 
L 273.602494 191.182424 
L 274.456848 190.547687 
L 275.311202 195.662866 
L 276.165556 204.212378 
L 277.01991 218.628976 
L 277.874264 227.425906 
L 278.728618 232.125676 
L 279.582972 233.520817 
L 281.291681 244.337149 
L 283.000389 251.885446 
L 283.854743 253.952858 
L 284.709097 254.832922 
L 285.563451 256.641176 
L 286.417805 257.971758 
L 287.272159 258.021355 
L 288.126513 259.125484 
L 288.980867 259.256708 
L 290.689575 261.828553 
L 291.543929 264.601326 
L 292.398283 265.56143 
L 293.252638 266.154116 
L 294.106992 265.905436 
L 294.961346 264.946738 
L 295.8157 262.977744 
L 296.670054 260.222475 
L 297.524408 256.888639 
L 298.378762 255.418974 
L 299.233116 254.266991 
L 300.08747 255.866262 
L 300.941824 257.101204 
L 301.796178 260.021089 
L 302.650532 262.026045 
L 303.504886 263.136441 
L 304.35924 263.043152 
L 305.213594 262.473533 
L 306.067949 261.518832 
L 306.922303 260.03525 
L 307.776657 257.969162 
L 308.631011 257.599801 
L 309.485365 259.649186 
L 310.339719 261.014741 
L 311.194073 259.707297 
L 312.902781 252.427436 
L 314.611489 248.421058 
L 315.465843 248.744527 
L 316.320197 251.145386 
L 317.174551 260.765851 
L 318.028906 265.437705 
L 318.88326 262.732247 
L 320.591968 240.236407 
L 321.446322 233.039068 
L 322.300676 227.390742 
L 323.15503 225.744767 
L 324.009384 230.238621 
L 324.863738 239.601057 
L 325.718092 254.786284 
L 326.572446 262.375886 
L 327.4268 265.797042 
L 328.281154 264.647099 
L 329.989862 269.796353 
L 330.844217 270.714892 
L 331.698571 272.161467 
L 332.552925 272.782667 
L 334.261633 272.179715 
L 335.115987 273.137254 
L 335.970341 271.844751 
L 336.824695 269.992267 
L 337.679049 266.252885 
L 338.533403 264.306456 
L 339.387757 263.027436 
L 341.096465 263.987755 
L 341.950819 264.797463 
L 342.805173 265.31707 
L 343.659528 267.983864 
L 344.513882 268.858652 
L 345.368236 273.44493 
L 346.22259 271.650503 
L 347.076944 267.8561 
L 347.931298 258.20703 
L 348.785652 251.952892 
L 349.640006 247.218909 
L 350.49436 245.350891 
L 351.348714 244.792027 
L 352.203068 247.901626 
L 353.911776 265.868339 
L 354.76613 265.350216 
L 355.620484 256.704224 
L 356.474839 246.360006 
L 357.329193 242.556707 
L 358.183547 241.657854 
L 359.037901 244.04411 
L 359.892255 248.170173 
L 360.746609 253.931099 
L 361.600963 262.710355 
L 362.455317 267.496791 
L 363.309671 270.039858 
L 364.164025 269.004663 
L 365.018379 270.672977 
L 365.872733 276.334125 
L 366.727087 275.830156 
L 367.581441 270.98769 
L 368.435795 259.227422 
L 369.29015 249.278252 
L 370.144504 242.893766 
L 370.998858 238.931958 
L 371.853212 239.374701 
L 372.707566 243.66594 
L 373.56192 252.459329 
L 374.416274 264.792835 
L 375.270628 269.757023 
L 376.124982 271.984503 
L 376.979336 268.476246 
L 377.83369 267.110844 
L 379.542398 260.688235 
L 380.396752 259.0292 
L 381.251106 257.842072 
L 382.105461 257.61576 
L 382.959815 258.578405 
L 383.814169 260.958144 
L 384.668523 264.983117 
L 384.668523 264.983117 
" style="fill:none;stroke:#1f77b4;stroke-linecap:square;stroke-width:1.5;"/>
   </g>
   <g id="line2d_17">
    <path clip-path="url(#pb1bb6be0d5)" d="M 60.013977 251.872343 
L 60.868331 253.119073 
L 61.722685 254.630345 
L 62.577039 187.705894 
L 63.431394 191.080587 
L 64.285748 195.423806 
L 65.140102 265.334832 
L 66.84881 275.735517 
L 67.703164 205.197974 
L 69.411872 225.491996 
L 70.266226 215.328114 
L 71.12058 223.89274 
L 71.974934 230.744327 
L 72.829288 144.715286 
L 74.537996 158.253065 
L 75.39235 211.087893 
L 77.101059 219.902278 
L 77.955413 135.675149 
L 79.664121 144.19194 
L 80.518475 159.893016 
L 82.227183 167.118362 
L 83.081537 164.226111 
L 84.790245 170.36895 
L 85.644599 205.680227 
L 87.353307 210.184361 
L 88.207661 106.89944 
L 89.91637 112.12029 
L 90.770724 147.184017 
L 92.479432 151.806477 
L 93.333786 82.594929 
L 95.042494 87.715795 
L 95.896848 104.133901 
L 97.605556 109.481556 
L 98.45991 185.074981 
L 100.168618 188.177374 
L 101.022972 70.011814 
L 102.731681 74.55659 
L 103.586035 101.950461 
L 105.294743 106.221797 
L 106.149097 138.32519 
L 107.857805 142.386928 
L 108.712159 89.325176 
L 110.420867 94.030929 
L 111.275221 79.543385 
L 112.983929 84.289844 
L 113.838283 72.846263 
L 115.546992 77.291789 
L 116.401346 80.055151 
L 118.110054 84.325629 
L 118.964408 98.315268 
L 120.673116 102.044811 
L 121.52747 58.672446 
L 123.236178 63.483501 
L 124.090532 103.607519 
L 125.79924 107.729456 
L 126.653594 58.890691 
L 128.362303 63.56778 
L 129.216657 34.414125 
L 130.925365 39.320787 
L 131.779719 73.176511 
L 133.488427 77.626811 
L 134.342781 117.167096 
L 136.051489 120.809617 
L 136.905843 73.138905 
L 138.614551 77.213855 
L 139.468906 156.483712 
L 141.177614 159.613713 
L 142.031968 164.434044 
L 143.740676 166.983129 
L 144.59503 60.557507 
L 146.303738 65.102995 
L 147.158092 133.922819 
L 148.8668 136.760158 
L 149.721154 87.048704 
L 151.429862 91.307498 
L 152.284217 85.187765 
L 153.992925 89.202013 
L 154.847279 210.830293 
L 156.555987 213.043424 
L 157.410341 76.053529 
L 159.119049 80.398967 
L 159.973403 105.761498 
L 161.682111 109.774804 
L 162.536465 177.943734 
L 164.245173 180.844654 
L 165.099528 101.871019 
L 166.808236 105.367052 
L 167.66259 119.986092 
L 169.371298 123.874561 
L 170.225652 84.861768 
L 171.93436 89.085279 
L 172.788714 93.98991 
L 174.497422 98.075079 
L 175.351776 92.086548 
L 177.060484 96.226242 
L 177.914839 95.28703 
L 179.623547 99.369141 
L 180.477901 173.855226 
L 182.186609 177.086194 
L 183.040963 199.016472 
L 184.749671 201.468808 
L 185.604025 195.677888 
L 187.312733 198.213331 
L 188.167087 100.398767 
L 189.875795 104.321701 
L 190.73015 130.474527 
L 192.438858 134.065287 
L 193.293212 159.749669 
L 195.00192 162.938257 
L 195.856274 113.88422 
L 197.564982 117.756084 
L 198.419336 145.41278 
L 200.128044 148.971022 
L 200.982398 115.790157 
L 202.691106 119.278506 
L 203.545461 122.675121 
L 205.254169 126.073014 
L 206.108523 118.858201 
L 207.817231 122.684502 
L 208.671585 127.514319 
L 210.380293 131.243003 
L 211.234647 117.223777 
L 212.943355 121.028931 
L 213.797709 113.790477 
L 215.506417 116.698861 
L 216.360772 91.6684 
L 218.06948 95.731415 
L 218.923834 100.276735 
L 220.632542 104.259366 
L 221.486896 128.625501 
L 223.195604 132.084347 
L 224.049958 120.424677 
L 225.758666 124.228867 
L 226.61302 94.277212 
L 228.321728 98.301951 
L 229.176083 137.819413 
L 230.884791 141.373467 
L 231.739145 97.879301 
L 233.447853 101.866873 
L 234.302207 96.295968 
L 236.010915 100.293696 
L 236.865269 99.688982 
L 238.573977 103.309434 
L 239.428331 101.397487 
L 241.137039 105.344627 
L 241.991394 121.359555 
L 243.700102 124.588785 
L 244.554456 98.734275 
L 246.263164 102.697056 
L 247.117518 100.922196 
L 248.826226 104.863515 
L 249.68058 129.312672 
L 251.389288 132.924665 
L 252.243642 133.124128 
L 253.95235 136.684674 
L 254.806705 125.046215 
L 256.515413 128.766106 
L 257.369767 126.957597 
L 259.078475 130.642163 
L 259.932829 137.816272 
L 261.641537 141.407179 
L 262.495891 153.655167 
L 264.204599 157.079715 
L 265.058953 153.183583 
L 266.767661 156.091339 
L 267.622016 176.155149 
L 269.330724 178.964032 
L 270.185078 174.207061 
L 271.893786 177.384405 
L 272.74814 228.686248 
L 274.456848 231.081275 
L 275.311202 197.898934 
L 277.01991 200.8078 
L 277.874264 186.558603 
L 279.582972 189.597216 
L 280.437327 167.730897 
L 282.146035 171.02107 
L 283.000389 156.89918 
L 284.709097 160.268764 
L 285.563451 158.40081 
L 287.272159 161.769514 
L 288.126513 138.964349 
L 289.835221 142.526234 
L 290.689575 140.649088 
L 292.398283 144.19081 
L 293.252638 129.386126 
L 294.961346 133.031076 
L 295.8157 136.914959 
L 297.524408 140.484069 
L 298.378762 129.053491 
L 300.08747 132.696389 
L 300.941824 130.519043 
L 302.650532 134.146656 
L 303.504886 132.213288 
L 305.213594 135.823585 
L 306.067949 133.137529 
L 307.776657 136.737293 
L 308.631011 134.461178 
L 310.339719 138.046871 
L 311.194073 136.376454 
L 312.902781 139.942925 
L 313.757135 152.067835 
L 315.465843 155.470188 
L 316.320197 142.387745 
L 318.028906 145.894813 
L 318.88326 142.538211 
L 320.591968 146.04285 
L 321.446322 162.495463 
L 323.15503 165.425028 
L 324.009384 158.113738 
L 325.718092 161.441946 
L 326.572446 145.351848 
L 328.281154 148.824408 
L 329.135508 150.216548 
L 330.844217 153.641578 
L 331.698571 151.736897 
L 333.407279 155.147018 
L 334.261633 153.029556 
L 335.970341 156.425418 
L 336.824695 150.727037 
L 338.533403 154.142498 
L 339.387757 172.123416 
L 341.096465 175.285433 
L 341.950819 166.729381 
L 343.659528 169.987549 
L 344.513882 176.705798 
L 346.22259 179.863271 
L 347.076944 163.225329 
L 348.785652 166.516339 
L 349.640006 190.311179 
L 351.348714 192.964633 
L 352.203068 164.656164 
L 353.911776 167.928863 
L 354.76613 181.489392 
L 356.474839 184.593042 
L 357.329193 184.874984 
L 359.037901 187.629489 
L 359.892255 169.974976 
L 361.600963 173.188449 
L 362.455317 165.682764 
L 364.164025 168.938901 
L 365.018379 165.469345 
L 366.727087 168.725837 
L 367.581441 167.608666 
L 369.29015 170.843016 
L 370.144504 191.845211 
L 371.853212 194.369807 
L 372.707566 198.440968 
L 374.416274 201.355079 
L 375.270628 177.363299 
L 379.542398 185.320405 
L 380.396752 199.544403 
L 382.105461 202.427901 
L 382.959815 190.349874 
L 384.668523 193.347845 
L 384.668523 193.347845 
" style="fill:none;stroke:#ff7f0e;stroke-linecap:square;stroke-opacity:0.3;stroke-width:1.5;"/>
   </g>
   <g id="line2d_18">
    <path clip-path="url(#pb1bb6be0d5)" d="M 60.013977 273.247645 
L 60.868331 232.892121 
L 61.722685 213.129304 
L 62.577039 209.055582 
L 63.431394 215.767339 
L 64.285748 228.360961 
L 65.140102 231.301964 
L 65.994456 237.367561 
L 66.84881 244.779926 
L 67.703164 241.174418 
L 68.557518 240.552281 
L 69.411872 225.778321 
L 70.266226 213.331479 
L 71.12058 197.787178 
L 71.974934 192.101467 
L 72.829288 182.874088 
L 73.683642 185.814856 
L 74.537996 185.818937 
L 75.39235 182.46764 
L 76.246705 179.643234 
L 77.101059 182.589851 
L 77.955413 174.546069 
L 78.809767 164.723849 
L 79.664121 152.693098 
L 80.518475 149.339208 
L 81.372829 149.823646 
L 82.227183 162.180627 
L 83.081537 168.777904 
L 83.935891 185.011234 
L 84.790245 190.02378 
L 85.644599 187.959163 
L 87.353307 165.211187 
L 88.207661 152.39038 
L 89.062016 146.036061 
L 89.91637 133.591767 
L 90.770724 124.622062 
L 91.625078 118.564177 
L 92.479432 121.362805 
L 93.333786 113.686714 
L 94.18814 98.925607 
L 95.042494 91.541115 
L 95.896848 97.223434 
L 97.605556 145.193509 
L 98.45991 151.640843 
L 99.314264 146.880913 
L 100.168618 136.471471 
L 101.022972 123.578868 
L 102.731681 87.293079 
L 103.586035 85.495145 
L 104.440389 99.578221 
L 105.294743 120.550375 
L 106.149097 125.772325 
L 107.003451 126.797877 
L 107.857805 120.471121 
L 108.712159 112.54925 
L 109.566513 103.062323 
L 110.420867 90.394096 
L 111.275221 82.190176 
L 112.129575 77.849895 
L 112.983929 79.442333 
L 113.838283 77.221936 
L 114.692638 75.53705 
L 115.546992 77.341155 
L 116.401346 79.462811 
L 117.2557 87.132357 
L 118.110054 91.79033 
L 118.964408 91.662531 
L 119.818762 85.542826 
L 120.673116 81.385696 
L 121.52747 79.196518 
L 122.381824 83.087084 
L 124.090532 83.510043 
L 124.944886 86.64598 
L 125.79924 88.102244 
L 126.653594 80.358565 
L 128.362303 51.131263 
L 129.216657 44.985487 
L 130.071011 42.087879 
L 131.779719 60.162081 
L 133.488427 94.254835 
L 134.342781 102.201253 
L 135.197135 97.701476 
L 136.051489 94.962867 
L 136.905843 98.396313 
L 137.760197 103.545656 
L 138.614551 109.533927 
L 139.468906 122.67426 
L 140.32326 148.074815 
L 141.177614 164.563198 
L 142.031968 163.519369 
L 142.886322 144.270379 
L 143.740676 120.185035 
L 144.59503 106.736197 
L 146.303738 98.714726 
L 147.158092 98.080223 
L 148.012446 103.168358 
L 148.8668 114.550724 
L 149.721154 111.664492 
L 150.575508 93.47394 
L 151.429862 82.525764 
L 152.284217 89.948588 
L 153.138571 120.154319 
L 153.992925 145.463963 
L 154.847279 156.8587 
L 155.701633 157.449335 
L 156.555987 152.331839 
L 157.410341 139.904888 
L 159.119049 90.815242 
L 159.973403 90.347918 
L 160.827757 111.499989 
L 161.682111 140.07822 
L 162.536465 149.70808 
L 163.390819 150.806904 
L 164.245173 145.615629 
L 165.953882 131.366209 
L 166.808236 116.206072 
L 167.66259 108.230349 
L 168.516944 104.133942 
L 169.371298 106.960641 
L 171.93436 92.295312 
L 172.788714 89.926259 
L 173.643068 90.656892 
L 174.497422 94.985171 
L 175.351776 95.35478 
L 176.20613 89.331732 
L 177.060484 90.824224 
L 177.914839 98.890625 
L 178.769193 110.118106 
L 180.477901 145.617518 
L 182.186609 182.714426 
L 183.040963 195.114855 
L 183.895317 209.154234 
L 184.749671 204.107745 
L 185.604025 195.787675 
L 186.458379 178.128356 
L 187.312733 157.780936 
L 189.021441 124.559913 
L 189.875795 116.259369 
L 190.73015 115.446799 
L 191.584504 128.094813 
L 192.438858 145.732651 
L 193.293212 149.675856 
L 194.147566 146.233923 
L 195.00192 140.370325 
L 195.856274 136.69851 
L 196.710628 136.135438 
L 197.564982 132.108872 
L 198.419336 130.52701 
L 199.27369 130.600991 
L 200.128044 134.012927 
L 200.982398 131.341949 
L 201.836752 127.796926 
L 202.691106 121.862566 
L 203.545461 119.419651 
L 204.399815 119.055057 
L 205.254169 122.321965 
L 206.108523 122.730028 
L 206.962877 124.645377 
L 207.817231 125.163775 
L 208.671585 125.108483 
L 209.525939 125.604167 
L 210.380293 125.456313 
L 211.234647 123.432357 
L 212.089001 123.002865 
L 212.943355 119.609879 
L 215.506417 106.514396 
L 216.360772 102.043454 
L 217.215126 96.966073 
L 218.06948 96.326472 
L 218.923834 98.435746 
L 219.778188 105.128438 
L 220.632542 113.835773 
L 221.486896 119.240501 
L 222.34125 126.031939 
L 223.195604 127.933195 
L 224.049958 125.984558 
L 225.758666 109.78915 
L 226.61302 107.607895 
L 227.467374 112.891984 
L 228.321728 117.224965 
L 230.884791 122.470042 
L 231.739145 118.020853 
L 232.593499 110.838987 
L 233.447853 100.821414 
L 234.302207 96.340904 
L 235.156561 95.807093 
L 236.010915 99.765473 
L 236.865269 99.981337 
L 237.719623 99.428185 
L 238.573977 101.1208 
L 239.428331 103.426715 
L 240.282685 109.090045 
L 241.137039 112.70466 
L 241.991394 114.220324 
L 242.845748 114.57089 
L 243.700102 113.458448 
L 244.554456 110.58946 
L 245.40881 104.828569 
L 246.263164 100.857144 
L 247.117518 101.538984 
L 247.971872 105.969439 
L 248.826226 114.010285 
L 249.68058 120.031068 
L 250.534934 127.091375 
L 251.389288 132.25167 
L 252.243642 134.644894 
L 253.097996 134.73527 
L 253.95235 131.674712 
L 254.806705 130.163825 
L 255.661059 128.291794 
L 256.515413 127.503604 
L 257.369767 127.765855 
L 258.224121 128.599426 
L 259.932829 135.879898 
L 261.641537 145.711111 
L 262.495891 149.631822 
L 263.350245 151.059168 
L 264.204599 153.262045 
L 265.058953 156.695584 
L 265.913307 160.876554 
L 266.767661 164.084827 
L 267.622016 168.171401 
L 268.47637 167.950495 
L 269.330724 172.712727 
L 270.185078 179.946042 
L 271.039432 191.508468 
L 272.74814 206.9813 
L 273.602494 213.749053 
L 274.456848 216.537687 
L 275.311202 214.204152 
L 276.165556 209.283101 
L 277.01991 197.388314 
L 277.874264 189.667793 
L 278.728618 184.948769 
L 279.582972 181.947495 
L 280.437327 175.432253 
L 281.291681 169.887391 
L 283.000389 161.536832 
L 283.854743 161.120087 
L 284.709097 161.015849 
L 286.417805 154.859927 
L 287.272159 152.447197 
L 288.126513 148.350327 
L 288.980867 146.025975 
L 290.689575 139.875079 
L 291.543929 137.589539 
L 292.398283 137.647939 
L 293.252638 135.839523 
L 294.106992 135.75812 
L 294.961346 135.325571 
L 295.8157 134.500857 
L 296.670054 134.571597 
L 297.524408 135.426668 
L 300.08747 131.868591 
L 300.941824 131.116782 
L 301.796178 131.650062 
L 302.650532 133.10457 
L 303.504886 133.26742 
L 305.213594 134.45113 
L 306.067949 134.520855 
L 307.776657 135.519973 
L 308.631011 135.656433 
L 309.485365 135.134671 
L 310.339719 136.193092 
L 311.194073 137.911721 
L 312.048427 141.835865 
L 312.902781 145.098915 
L 314.611489 148.859694 
L 315.465843 149.538681 
L 316.320197 148.733503 
L 317.174551 145.728335 
L 318.028906 143.550061 
L 318.88326 144.250461 
L 319.737614 147.785776 
L 320.591968 152.580829 
L 321.446322 155.832194 
L 322.300676 160.268726 
L 323.15503 162.526799 
L 324.009384 161.943503 
L 324.863738 159.277181 
L 325.718092 154.764461 
L 326.572446 151.832068 
L 327.4268 150.139587 
L 329.135508 149.072259 
L 329.989862 150.09806 
L 330.844217 152.46607 
L 331.698571 152.999252 
L 332.552925 153.996349 
L 333.407279 154.241634 
L 334.261633 154.020927 
L 335.115987 152.342536 
L 335.970341 152.635273 
L 336.824695 154.087898 
L 339.387757 164.738285 
L 340.242111 167.346211 
L 341.096465 170.326748 
L 341.950819 172.022986 
L 342.805173 174.327253 
L 343.659528 173.53818 
L 344.513882 173.288922 
L 345.368236 170.88894 
L 346.22259 171.088436 
L 347.076944 171.730153 
L 347.931298 175.923084 
L 348.785652 177.818804 
L 349.640006 179.003042 
L 350.49436 178.660674 
L 351.348714 179.664207 
L 352.203068 178.478199 
L 353.057422 176.655339 
L 353.911776 173.883069 
L 354.76613 174.788689 
L 356.474839 184.789826 
L 357.329193 185.268956 
L 358.183547 184.424776 
L 359.892255 177.211723 
L 361.600963 170.631025 
L 362.455317 167.871834 
L 363.309671 166.733354 
L 364.164025 167.452595 
L 365.018379 166.806843 
L 365.872733 165.178808 
L 366.727087 166.649784 
L 367.581441 169.19178 
L 368.435795 173.037425 
L 370.144504 183.902507 
L 370.998858 191.638343 
L 371.853212 196.364527 
L 372.707566 197.671934 
L 373.56192 195.883244 
L 374.416274 191.140985 
L 375.270628 187.661888 
L 376.124982 183.236662 
L 376.979336 180.771895 
L 377.83369 181.057267 
L 378.688044 185.286655 
L 379.542398 191.180211 
L 381.251106 196.820717 
L 382.105461 198.359545 
L 382.959815 198.019255 
L 383.814169 195.260937 
L 384.668523 189.545682 
L 384.668523 189.545682 
" style="fill:none;stroke:#ff7f0e;stroke-linecap:square;stroke-width:1.5;"/>
   </g>
   <g id="line2d_19">
    <path clip-path="url(#pb1bb6be0d5)" d="M 60.013977 38.324052 
L 60.868331 38.362307 
L 61.722685 41.319254 
L 62.577039 46.516718 
L 65.140102 67.141852 
L 65.994456 76.897667 
L 66.84881 83.701233 
L 67.703164 85.944831 
L 68.557518 83.222918 
L 69.411872 81.380732 
L 70.266226 81.80324 
L 71.974934 94.268028 
L 73.683642 102.210793 
L 74.537996 107.173802 
L 75.39235 106.485346 
L 76.246705 103.200927 
L 77.101059 98.329848 
L 77.955413 97.779242 
L 78.809767 101.288484 
L 79.664121 107.517639 
L 80.518475 109.978166 
L 81.372829 113.854855 
L 82.227183 114.010801 
L 83.081537 110.836138 
L 83.935891 101.26313 
L 84.790245 95.85642 
L 85.644599 95.008907 
L 88.207661 113.664264 
L 89.062016 114.296602 
L 90.770724 126.798471 
L 91.625078 144.938747 
L 92.479432 150.689917 
L 93.333786 154.895963 
L 95.042494 151.551433 
L 95.896848 143.18648 
L 96.751202 138.343637 
L 97.605556 129.39507 
L 98.45991 129.194924 
L 99.314264 137.991074 
L 100.168618 157.018896 
L 101.022972 162.474409 
L 101.877327 164.66747 
L 103.586035 157.204754 
L 104.440389 157.222111 
L 105.294743 158.063573 
L 106.149097 152.203559 
L 108.712159 126.606045 
L 109.566513 114.576564 
L 110.420867 109.979373 
L 111.275221 110.564996 
L 112.129575 117.173732 
L 112.983929 129.955243 
L 114.692638 152.444518 
L 116.401346 178.569818 
L 117.2557 193.693616 
L 118.964408 204.346236 
L 119.818762 204.552942 
L 120.673116 201.667521 
L 121.52747 196.334382 
L 123.236178 183.231557 
L 124.090532 179.535099 
L 124.944886 180.335192 
L 125.79924 182.204704 
L 127.507949 171.138393 
L 129.216657 151.014972 
L 130.071011 134.204828 
L 130.925365 127.389641 
L 131.779719 129.767617 
L 133.488427 160.178817 
L 134.342781 169.504451 
L 135.197135 182.36153 
L 136.051489 188.375602 
L 136.905843 182.803098 
L 137.760197 164.781973 
L 138.614551 143.176616 
L 139.468906 134.433847 
L 140.32326 135.427311 
L 141.177614 144.339546 
L 142.031968 148.397859 
L 142.886322 154.49386 
L 143.740676 165.812704 
L 144.59503 170.354168 
L 145.449384 173.765766 
L 146.303738 169.041551 
L 147.158092 165.69788 
L 148.012446 160.25491 
L 148.8668 157.493583 
L 149.721154 154.351687 
L 150.575508 156.932116 
L 151.429862 153.22638 
L 152.284217 150.938855 
L 153.138571 151.769561 
L 153.992925 153.588421 
L 154.847279 150.403695 
L 155.701633 142.88064 
L 156.555987 136.551986 
L 157.410341 134.396293 
L 158.264695 137.111284 
L 159.119049 143.420768 
L 160.827757 140.914499 
L 161.682111 141.900318 
L 162.536465 142.670941 
L 163.390819 148.345462 
L 164.245173 151.083968 
L 165.099528 156.223404 
L 165.953882 159.991214 
L 168.516944 183.517325 
L 169.371298 184.901247 
L 170.225652 184.817592 
L 171.080006 179.713645 
L 171.93436 181.701829 
L 172.788714 182.50236 
L 173.643068 190.762593 
L 174.497422 191.017254 
L 175.351776 190.718077 
L 176.20613 182.821502 
L 177.060484 180.896705 
L 177.914839 179.900405 
L 178.769193 187.67269 
L 179.623547 189.725679 
L 180.477901 196.603306 
L 182.186609 212.95631 
L 183.040963 207.344977 
L 183.895317 196.531168 
L 184.749671 177.907647 
L 185.604025 168.211296 
L 186.458379 163.386252 
L 187.312733 167.582555 
L 188.167087 168.150463 
L 189.021441 174.58855 
L 189.875795 177.702355 
L 190.73015 176.633383 
L 191.584504 170.648707 
L 192.438858 166.48191 
L 193.293212 161.461284 
L 195.00192 154.621906 
L 195.856274 153.240676 
L 196.710628 145.664804 
L 197.564982 154.021965 
L 198.419336 166.812682 
L 199.27369 195.646878 
L 200.128044 210.68921 
L 200.982398 219.20687 
L 202.691106 208.704418 
L 203.545461 200.933059 
L 204.399815 194.800657 
L 205.254169 179.26937 
L 206.108523 177.951106 
L 206.962877 180.523404 
L 207.817231 196.04751 
L 208.671585 196.763631 
L 209.525939 192.236736 
L 210.380293 184.178581 
L 211.234647 185.348534 
L 212.089001 196.714246 
L 212.943355 206.369134 
L 213.797709 204.979826 
L 214.652063 194.458791 
L 215.506417 181.59642 
L 216.360772 173.508316 
L 217.215126 170.00533 
L 218.06948 165.086928 
L 218.923834 162.346658 
L 219.778188 160.980126 
L 220.632542 166.236355 
L 221.486896 165.120698 
L 222.34125 163.382129 
L 223.195604 158.506951 
L 224.049958 157.562627 
L 224.904312 156.021075 
L 225.758666 159.510827 
L 226.61302 160.956797 
L 227.467374 163.191325 
L 228.321728 162.469971 
L 229.176083 162.469212 
L 230.030437 160.945049 
L 230.884791 160.372096 
L 231.739145 158.670545 
L 232.593499 153.695726 
L 233.447853 151.790456 
L 234.302207 156.908657 
L 235.156561 169.471052 
L 236.010915 179.592653 
L 236.865269 184.081892 
L 237.719623 183.510459 
L 239.428331 173.881768 
L 240.282685 166.556296 
L 241.137039 161.397228 
L 241.991394 164.710029 
L 243.700102 189.563023 
L 244.554456 193.556354 
L 245.40881 189.134261 
L 247.117518 178.564066 
L 247.971872 177.914746 
L 248.826226 173.778149 
L 249.68058 174.014519 
L 251.389288 186.094206 
L 252.243642 183.913119 
L 253.097996 173.394482 
L 253.95235 160.954716 
L 254.806705 154.92517 
L 256.515413 160.120105 
L 258.224121 153.711904 
L 259.078475 152.46255 
L 260.787183 143.691808 
L 261.641537 141.078882 
L 262.495891 146.21931 
L 263.350245 163.039094 
L 264.204599 177.081273 
L 265.058953 179.12837 
L 265.913307 169.60459 
L 266.767661 157.99711 
L 267.622016 149.169886 
L 268.47637 148.575299 
L 269.330724 147.334797 
L 270.185078 150.478703 
L 271.039432 155.859804 
L 271.893786 167.271755 
L 272.74814 169.328489 
L 273.602494 168.46515 
L 274.456848 161.24489 
L 275.311202 158.457603 
L 276.165556 152.422785 
L 277.01991 159.065701 
L 277.874264 166.769311 
L 279.582972 195.764596 
L 280.437327 208.74948 
L 281.291681 217.454399 
L 282.146035 224.86381 
L 283.000389 226.010015 
L 283.854743 222.759382 
L 284.709097 209.440306 
L 285.563451 202.79778 
L 286.417805 194.121886 
L 287.272159 193.89885 
L 288.126513 194.523163 
L 288.980867 195.416177 
L 289.835221 200.060105 
L 290.689575 210.856614 
L 291.543929 229.645685 
L 292.398283 242.286155 
L 293.252638 244.014366 
L 294.106992 232.508804 
L 294.961346 218.618734 
L 295.8157 211.180653 
L 296.670054 211.015213 
L 297.524408 205.353086 
L 298.378762 200.823125 
L 299.233116 192.157279 
L 300.08747 193.26681 
L 300.941824 191.184045 
L 301.796178 194.431289 
L 302.650532 191.448468 
L 303.504886 194.123262 
L 304.35924 202.000454 
L 305.213594 207.351836 
L 306.067949 199.88267 
L 306.922303 185.831431 
L 307.776657 169.101118 
L 308.631011 162.86744 
L 309.485365 160.451064 
L 311.194073 176.730377 
L 312.048427 183.285194 
L 312.902781 198.136414 
L 313.757135 210.947366 
L 314.611489 233.653493 
L 315.465843 245.185197 
L 316.320197 248.920624 
L 318.028906 223.300648 
L 318.88326 214.354785 
L 319.737614 210.987702 
L 320.591968 202.047582 
L 321.446322 199.41101 
L 322.300676 195.222008 
L 323.15503 202.758926 
L 324.009384 201.56316 
L 324.863738 203.1534 
L 325.718092 199.474547 
L 326.572446 205.03534 
L 327.4268 213.316882 
L 328.281154 225.209604 
L 329.135508 227.575714 
L 329.989862 223.533383 
L 330.844217 211.582574 
L 332.552925 197.658042 
L 333.407279 198.037238 
L 334.261633 198.572103 
L 335.115987 203.898987 
L 335.970341 205.808855 
L 336.824695 205.732403 
L 338.533403 196.988268 
L 339.387757 193.679155 
L 340.242111 193.166522 
L 341.096465 189.5448 
L 341.950819 187.77336 
L 342.805173 178.682935 
L 343.659528 182.129451 
L 344.513882 188.71638 
L 346.22259 216.29269 
L 347.931298 242.112357 
L 348.785652 250.805919 
L 349.640006 249.622846 
L 350.49436 245.595929 
L 351.348714 226.220929 
L 352.203068 213.34623 
L 353.057422 195.704029 
L 354.76613 179.405375 
L 355.620484 179.094417 
L 356.474839 179.323067 
L 357.329193 181.148343 
L 358.183547 179.639376 
L 359.037901 188.911985 
L 359.892255 194.287664 
L 360.746609 200.692954 
L 361.600963 202.100037 
L 362.455317 209.429971 
L 363.309671 218.950508 
L 364.164025 226.161086 
L 365.018379 223.802259 
L 365.872733 217.505515 
L 366.727087 201.409294 
L 367.581441 190.119664 
L 368.435795 176.768177 
L 369.29015 172.517001 
L 370.144504 172.695623 
L 370.998858 186.216476 
L 371.853212 196.279731 
L 373.56192 202.911228 
L 374.416274 200.627193 
L 375.270628 189.548322 
L 376.979336 152.738069 
L 377.83369 142.550725 
L 378.688044 140.234382 
L 379.542398 146.478352 
L 380.396752 145.849614 
L 381.251106 149.237043 
L 382.105461 151.661514 
L 382.959815 151.721038 
L 383.814169 148.013623 
L 384.668523 139.137281 
L 384.668523 139.137281 
" style="fill:none;stroke:#008000;stroke-linecap:square;stroke-width:1.5;"/>
   </g>
   <g id="patch_3">
    <path d="M 43.78125 288.430125 
L 43.78125 22.318125 
" style="fill:none;stroke:#000000;stroke-linecap:square;stroke-linejoin:miter;stroke-width:0.8;"/>
   </g>
   <g id="patch_4">
    <path d="M 400.90125 288.430125 
L 400.90125 22.318125 
" style="fill:none;stroke:#000000;stroke-linecap:square;stroke-linejoin:miter;stroke-width:0.8;"/>
   </g>
   <g id="patch_5">
    <path d="M 43.78125 288.430125 
L 400.90125 288.430125 
" style="fill:none;stroke:#000000;stroke-linecap:square;stroke-linejoin:miter;stroke-width:0.8;"/>
   </g>
   <g id="patch_6">
    <path d="M 43.78125 22.318125 
L 400.90125 22.318125 
" style="fill:none;stroke:#000000;stroke-linecap:square;stroke-linejoin:miter;stroke-width:0.8;"/>
   </g>
   <g id="text_17">
    <!-- Entropy and Loss. -->
    <defs>
     <path d="M 9.1875 72.90625 
L 59.90625 72.90625 
L 59.90625 58.6875 
L 27.984375 58.6875 
L 27.984375 45.125 
L 58.015625 45.125 
L 58.015625 30.90625 
L 27.984375 30.90625 
L 27.984375 14.203125 
L 60.984375 14.203125 
L 60.984375 0 
L 9.1875 0 
z
" id="DejaVuSans-Bold-69"/>
     <path d="M 63.375 33.296875 
L 63.375 0 
L 45.796875 0 
L 45.796875 5.421875 
L 45.796875 25.484375 
Q 45.796875 32.5625 45.484375 35.25 
Q 45.171875 37.9375 44.390625 39.203125 
Q 43.359375 40.921875 41.59375 41.875 
Q 39.84375 42.828125 37.59375 42.828125 
Q 32.125 42.828125 29 38.59375 
Q 25.875 34.375 25.875 26.90625 
L 25.875 0 
L 8.40625 0 
L 8.40625 54.6875 
L 25.875 54.6875 
L 25.875 46.6875 
Q 29.828125 51.46875 34.265625 53.734375 
Q 38.71875 56 44.09375 56 
Q 53.5625 56 58.46875 50.1875 
Q 63.375 44.390625 63.375 33.296875 
z
" id="DejaVuSans-Bold-110"/>
     <path d="M 27.484375 70.21875 
L 27.484375 54.6875 
L 45.515625 54.6875 
L 45.515625 42.1875 
L 27.484375 42.1875 
L 27.484375 19 
Q 27.484375 15.1875 29 13.84375 
Q 30.515625 12.5 35.015625 12.5 
L 44 12.5 
L 44 0 
L 29 0 
Q 18.65625 0 14.328125 4.3125 
Q 10.015625 8.640625 10.015625 19 
L 10.015625 42.1875 
L 1.3125 42.1875 
L 1.3125 54.6875 
L 10.015625 54.6875 
L 10.015625 70.21875 
z
" id="DejaVuSans-Bold-116"/>
     <path d="M 49.03125 39.796875 
Q 46.734375 40.875 44.453125 41.375 
Q 42.1875 41.890625 39.890625 41.890625 
Q 33.15625 41.890625 29.515625 37.5625 
Q 25.875 33.25 25.875 25.203125 
L 25.875 0 
L 8.40625 0 
L 8.40625 54.6875 
L 25.875 54.6875 
L 25.875 45.703125 
Q 29.25 51.078125 33.609375 53.53125 
Q 37.984375 56 44.09375 56 
Q 44.96875 56 45.984375 55.921875 
Q 47.015625 55.859375 48.96875 55.609375 
z
" id="DejaVuSans-Bold-114"/>
     <path d="M 34.421875 43.5 
Q 28.609375 43.5 25.5625 39.328125 
Q 22.515625 35.15625 22.515625 27.296875 
Q 22.515625 19.4375 25.5625 15.25 
Q 28.609375 11.078125 34.421875 11.078125 
Q 40.140625 11.078125 43.15625 15.25 
Q 46.1875 19.4375 46.1875 27.296875 
Q 46.1875 35.15625 43.15625 39.328125 
Q 40.140625 43.5 34.421875 43.5 
z
M 34.421875 56 
Q 48.53125 56 56.46875 48.375 
Q 64.40625 40.765625 64.40625 27.296875 
Q 64.40625 13.8125 56.46875 6.1875 
Q 48.53125 -1.421875 34.421875 -1.421875 
Q 20.265625 -1.421875 12.28125 6.1875 
Q 4.296875 13.8125 4.296875 27.296875 
Q 4.296875 40.765625 12.28125 48.375 
Q 20.265625 56 34.421875 56 
z
" id="DejaVuSans-Bold-111"/>
     <path d="M 25.875 7.90625 
L 25.875 -20.796875 
L 8.40625 -20.796875 
L 8.40625 54.6875 
L 25.875 54.6875 
L 25.875 46.6875 
Q 29.5 51.46875 33.890625 53.734375 
Q 38.28125 56 44 56 
Q 54.109375 56 60.59375 47.96875 
Q 67.09375 39.9375 67.09375 27.296875 
Q 67.09375 14.65625 60.59375 6.609375 
Q 54.109375 -1.421875 44 -1.421875 
Q 38.28125 -1.421875 33.890625 0.84375 
Q 29.5 3.125 25.875 7.90625 
z
M 37.5 43.3125 
Q 31.890625 43.3125 28.875 39.1875 
Q 25.875 35.0625 25.875 27.296875 
Q 25.875 19.53125 28.875 15.40625 
Q 31.890625 11.28125 37.5 11.28125 
Q 43.109375 11.28125 46.0625 15.375 
Q 49.03125 19.484375 49.03125 27.296875 
Q 49.03125 35.109375 46.0625 39.203125 
Q 43.109375 43.3125 37.5 43.3125 
z
" id="DejaVuSans-Bold-112"/>
     <path d="M 1.21875 54.6875 
L 18.703125 54.6875 
L 33.40625 17.578125 
L 45.90625 54.6875 
L 63.375 54.6875 
L 40.375 -5.171875 
Q 36.921875 -14.3125 32.296875 -17.9375 
Q 27.6875 -21.578125 20.125 -21.578125 
L 10.015625 -21.578125 
L 10.015625 -10.109375 
L 15.484375 -10.109375 
Q 19.921875 -10.109375 21.9375 -8.6875 
Q 23.96875 -7.28125 25.09375 -3.609375 
L 25.59375 -2.09375 
z
" id="DejaVuSans-Bold-121"/>
     <path id="DejaVuSans-Bold-32"/>
     <path d="M 32.90625 24.609375 
Q 27.4375 24.609375 24.671875 22.75 
Q 21.921875 20.90625 21.921875 17.28125 
Q 21.921875 13.96875 24.140625 12.078125 
Q 26.375 10.203125 30.328125 10.203125 
Q 35.25 10.203125 38.625 13.734375 
Q 42 17.28125 42 22.609375 
L 42 24.609375 
z
M 59.625 31.203125 
L 59.625 0 
L 42 0 
L 42 8.109375 
Q 38.484375 3.125 34.078125 0.84375 
Q 29.6875 -1.421875 23.390625 -1.421875 
Q 14.890625 -1.421875 9.59375 3.53125 
Q 4.296875 8.5 4.296875 16.40625 
Q 4.296875 26.03125 10.90625 30.515625 
Q 17.53125 35.015625 31.6875 35.015625 
L 42 35.015625 
L 42 36.375 
Q 42 40.53125 38.71875 42.453125 
Q 35.453125 44.390625 28.515625 44.390625 
Q 22.90625 44.390625 18.0625 43.265625 
Q 13.234375 42.140625 9.078125 39.890625 
L 9.078125 53.21875 
Q 14.703125 54.59375 20.359375 55.296875 
Q 26.03125 56 31.6875 56 
Q 46.484375 56 53.046875 50.171875 
Q 59.625 44.34375 59.625 31.203125 
z
" id="DejaVuSans-Bold-97"/>
     <path d="M 45.609375 46.6875 
L 45.609375 75.984375 
L 63.1875 75.984375 
L 63.1875 0 
L 45.609375 0 
L 45.609375 7.90625 
Q 42 3.078125 37.640625 0.828125 
Q 33.296875 -1.421875 27.59375 -1.421875 
Q 17.484375 -1.421875 10.984375 6.609375 
Q 4.5 14.65625 4.5 27.296875 
Q 4.5 39.9375 10.984375 47.96875 
Q 17.484375 56 27.59375 56 
Q 33.25 56 37.625 53.734375 
Q 42 51.46875 45.609375 46.6875 
z
M 34.078125 11.28125 
Q 39.703125 11.28125 42.65625 15.375 
Q 45.609375 19.484375 45.609375 27.296875 
Q 45.609375 35.109375 42.65625 39.203125 
Q 39.703125 43.3125 34.078125 43.3125 
Q 28.515625 43.3125 25.5625 39.203125 
Q 22.609375 35.109375 22.609375 27.296875 
Q 22.609375 19.484375 25.5625 15.375 
Q 28.515625 11.28125 34.078125 11.28125 
z
" id="DejaVuSans-Bold-100"/>
     <path d="M 9.1875 72.90625 
L 27.984375 72.90625 
L 27.984375 14.203125 
L 60.984375 14.203125 
L 60.984375 0 
L 9.1875 0 
z
" id="DejaVuSans-Bold-76"/>
     <path d="M 51.125 52.984375 
L 51.125 39.703125 
Q 45.515625 42.046875 40.28125 43.21875 
Q 35.0625 44.390625 30.421875 44.390625 
Q 25.4375 44.390625 23.015625 43.140625 
Q 20.609375 41.890625 20.609375 39.3125 
Q 20.609375 37.203125 22.4375 36.078125 
Q 24.265625 34.96875 29 34.421875 
L 32.078125 33.984375 
Q 45.515625 32.28125 50.140625 28.375 
Q 54.78125 24.46875 54.78125 16.109375 
Q 54.78125 7.375 48.328125 2.96875 
Q 41.890625 -1.421875 29.109375 -1.421875 
Q 23.6875 -1.421875 17.890625 -0.5625 
Q 12.109375 0.296875 6 2 
L 6 15.28125 
Q 11.234375 12.75 16.71875 11.46875 
Q 22.21875 10.203125 27.875 10.203125 
Q 33.015625 10.203125 35.59375 11.609375 
Q 38.1875 13.03125 38.1875 15.828125 
Q 38.1875 18.171875 36.40625 19.3125 
Q 34.625 20.453125 29.296875 21.09375 
L 26.21875 21.484375 
Q 14.546875 22.953125 9.859375 26.90625 
Q 5.171875 30.859375 5.171875 38.921875 
Q 5.171875 47.609375 11.125 51.796875 
Q 17.09375 56 29.390625 56 
Q 34.234375 56 39.546875 55.265625 
Q 44.875 54.546875 51.125 52.984375 
z
" id="DejaVuSans-Bold-115"/>
     <path d="M 10.203125 18.890625 
L 27.78125 18.890625 
L 27.78125 0 
L 10.203125 0 
z
" id="DejaVuSans-Bold-46"/>
    </defs>
    <g transform="translate(161.657813 16.318125)scale(0.12 -0.12)">
     <use xlink:href="#DejaVuSans-Bold-69"/>
     <use x="68.310547" xlink:href="#DejaVuSans-Bold-110"/>
     <use x="139.501953" xlink:href="#DejaVuSans-Bold-116"/>
     <use x="187.304688" xlink:href="#DejaVuSans-Bold-114"/>
     <use x="236.621094" xlink:href="#DejaVuSans-Bold-111"/>
     <use x="305.322266" xlink:href="#DejaVuSans-Bold-112"/>
     <use x="376.904297" xlink:href="#DejaVuSans-Bold-121"/>
     <use x="442.089844" xlink:href="#DejaVuSans-Bold-32"/>
     <use x="476.904297" xlink:href="#DejaVuSans-Bold-97"/>
     <use x="544.384766" xlink:href="#DejaVuSans-Bold-110"/>
     <use x="615.576172" xlink:href="#DejaVuSans-Bold-100"/>
     <use x="687.158203" xlink:href="#DejaVuSans-Bold-32"/>
     <use x="721.972656" xlink:href="#DejaVuSans-Bold-76"/>
     <use x="785.693359" xlink:href="#DejaVuSans-Bold-111"/>
     <use x="854.394531" xlink:href="#DejaVuSans-Bold-115"/>
     <use x="913.916016" xlink:href="#DejaVuSans-Bold-115"/>
     <use x="973.4375" xlink:href="#DejaVuSans-Bold-46"/>
    </g>
   </g>
   <g id="legend_1">
    <g id="patch_7">
     <path d="M 18.982656 353.02505 
L 429.699844 353.02505 
Q 431.699844 353.02505 431.699844 351.02505 
L 431.699844 337.346925 
Q 431.699844 335.346925 429.699844 335.346925 
L 18.982656 335.346925 
Q 16.982656 335.346925 16.982656 337.346925 
L 16.982656 351.02505 
Q 16.982656 353.02505 18.982656 353.02505 
z
" style="fill:#4c4c4c;opacity:0.5;stroke:#4c4c4c;stroke-linejoin:miter;"/>
    </g>
    <g id="patch_8">
     <path d="M 16.982656 351.02505 
L 427.699844 351.02505 
Q 429.699844 351.02505 429.699844 349.02505 
L 429.699844 335.346925 
Q 429.699844 333.346925 427.699844 333.346925 
L 16.982656 333.346925 
Q 14.982656 333.346925 14.982656 335.346925 
L 14.982656 349.02505 
Q 14.982656 351.02505 16.982656 351.02505 
z
" style="fill:#ffffff;stroke:#cccccc;stroke-linejoin:miter;"/>
    </g>
    <g id="line2d_20">
     <path d="M 18.982656 341.445362 
L 38.982656 341.445362 
" style="fill:none;stroke:#1f77b4;stroke-linecap:square;stroke-width:1.5;"/>
    </g>
    <g id="line2d_21"/>
    <g id="text_18">
     <!-- Policy Loss (Normalized) -->
     <defs>
      <path d="M 19.671875 64.796875 
L 19.671875 37.40625 
L 32.078125 37.40625 
Q 38.96875 37.40625 42.71875 40.96875 
Q 46.484375 44.53125 46.484375 51.125 
Q 46.484375 57.671875 42.71875 61.234375 
Q 38.96875 64.796875 32.078125 64.796875 
z
M 9.8125 72.90625 
L 32.078125 72.90625 
Q 44.34375 72.90625 50.609375 67.359375 
Q 56.890625 61.8125 56.890625 51.125 
Q 56.890625 40.328125 50.609375 34.8125 
Q 44.34375 29.296875 32.078125 29.296875 
L 19.671875 29.296875 
L 19.671875 0 
L 9.8125 0 
z
" id="DejaVuSans-80"/>
      <path d="M 9.421875 75.984375 
L 18.40625 75.984375 
L 18.40625 0 
L 9.421875 0 
z
" id="DejaVuSans-108"/>
      <path d="M 9.421875 54.6875 
L 18.40625 54.6875 
L 18.40625 0 
L 9.421875 0 
z
M 9.421875 75.984375 
L 18.40625 75.984375 
L 18.40625 64.59375 
L 9.421875 64.59375 
z
" id="DejaVuSans-105"/>
      <path d="M 32.171875 -5.078125 
Q 28.375 -14.84375 24.75 -17.8125 
Q 21.140625 -20.796875 15.09375 -20.796875 
L 7.90625 -20.796875 
L 7.90625 -13.28125 
L 13.1875 -13.28125 
Q 16.890625 -13.28125 18.9375 -11.515625 
Q 21 -9.765625 23.484375 -3.21875 
L 25.09375 0.875 
L 2.984375 54.6875 
L 12.5 54.6875 
L 29.59375 11.921875 
L 46.6875 54.6875 
L 56.203125 54.6875 
z
" id="DejaVuSans-121"/>
      <path id="DejaVuSans-32"/>
      <path d="M 31 75.875 
Q 24.46875 64.65625 21.28125 53.65625 
Q 18.109375 42.671875 18.109375 31.390625 
Q 18.109375 20.125 21.3125 9.0625 
Q 24.515625 -2 31 -13.1875 
L 23.1875 -13.1875 
Q 15.875 -1.703125 12.234375 9.375 
Q 8.59375 20.453125 8.59375 31.390625 
Q 8.59375 42.28125 12.203125 53.3125 
Q 15.828125 64.359375 23.1875 75.875 
z
" id="DejaVuSans-40"/>
      <path d="M 9.8125 72.90625 
L 23.09375 72.90625 
L 55.421875 11.921875 
L 55.421875 72.90625 
L 64.984375 72.90625 
L 64.984375 0 
L 51.703125 0 
L 19.390625 60.984375 
L 19.390625 0 
L 9.8125 0 
z
" id="DejaVuSans-78"/>
      <path d="M 41.109375 46.296875 
Q 39.59375 47.171875 37.8125 47.578125 
Q 36.03125 48 33.890625 48 
Q 26.265625 48 22.1875 43.046875 
Q 18.109375 38.09375 18.109375 28.8125 
L 18.109375 0 
L 9.078125 0 
L 9.078125 54.6875 
L 18.109375 54.6875 
L 18.109375 46.1875 
Q 20.953125 51.171875 25.484375 53.578125 
Q 30.03125 56 36.53125 56 
Q 37.453125 56 38.578125 55.875 
Q 39.703125 55.765625 41.0625 55.515625 
z
" id="DejaVuSans-114"/>
      <path d="M 52 44.1875 
Q 55.375 50.25 60.0625 53.125 
Q 64.75 56 71.09375 56 
Q 79.640625 56 84.28125 50.015625 
Q 88.921875 44.046875 88.921875 33.015625 
L 88.921875 0 
L 79.890625 0 
L 79.890625 32.71875 
Q 79.890625 40.578125 77.09375 44.375 
Q 74.3125 48.1875 68.609375 48.1875 
Q 61.625 48.1875 57.5625 43.546875 
Q 53.515625 38.921875 53.515625 30.90625 
L 53.515625 0 
L 44.484375 0 
L 44.484375 32.71875 
Q 44.484375 40.625 41.703125 44.40625 
Q 38.921875 48.1875 33.109375 48.1875 
Q 26.21875 48.1875 22.15625 43.53125 
Q 18.109375 38.875 18.109375 30.90625 
L 18.109375 0 
L 9.078125 0 
L 9.078125 54.6875 
L 18.109375 54.6875 
L 18.109375 46.1875 
Q 21.1875 51.21875 25.484375 53.609375 
Q 29.78125 56 35.6875 56 
Q 41.65625 56 45.828125 52.96875 
Q 50 49.953125 52 44.1875 
z
" id="DejaVuSans-109"/>
      <path d="M 34.28125 27.484375 
Q 23.390625 27.484375 19.1875 25 
Q 14.984375 22.515625 14.984375 16.5 
Q 14.984375 11.71875 18.140625 8.90625 
Q 21.296875 6.109375 26.703125 6.109375 
Q 34.1875 6.109375 38.703125 11.40625 
Q 43.21875 16.703125 43.21875 25.484375 
L 43.21875 27.484375 
z
M 52.203125 31.203125 
L 52.203125 0 
L 43.21875 0 
L 43.21875 8.296875 
Q 40.140625 3.328125 35.546875 0.953125 
Q 30.953125 -1.421875 24.3125 -1.421875 
Q 15.921875 -1.421875 10.953125 3.296875 
Q 6 8.015625 6 15.921875 
Q 6 25.140625 12.171875 29.828125 
Q 18.359375 34.515625 30.609375 34.515625 
L 43.21875 34.515625 
L 43.21875 35.40625 
Q 43.21875 41.609375 39.140625 45 
Q 35.0625 48.390625 27.6875 48.390625 
Q 23 48.390625 18.546875 47.265625 
Q 14.109375 46.140625 10.015625 43.890625 
L 10.015625 52.203125 
Q 14.9375 54.109375 19.578125 55.046875 
Q 24.21875 56 28.609375 56 
Q 40.484375 56 46.34375 49.84375 
Q 52.203125 43.703125 52.203125 31.203125 
z
" id="DejaVuSans-97"/>
      <path d="M 5.515625 54.6875 
L 48.1875 54.6875 
L 48.1875 46.484375 
L 14.40625 7.171875 
L 48.1875 7.171875 
L 48.1875 0 
L 4.296875 0 
L 4.296875 8.203125 
L 38.09375 47.515625 
L 5.515625 47.515625 
z
" id="DejaVuSans-122"/>
      <path d="M 56.203125 29.59375 
L 56.203125 25.203125 
L 14.890625 25.203125 
Q 15.484375 15.921875 20.484375 11.0625 
Q 25.484375 6.203125 34.421875 6.203125 
Q 39.59375 6.203125 44.453125 7.46875 
Q 49.3125 8.734375 54.109375 11.28125 
L 54.109375 2.78125 
Q 49.265625 0.734375 44.1875 -0.34375 
Q 39.109375 -1.421875 33.890625 -1.421875 
Q 20.796875 -1.421875 13.15625 6.1875 
Q 5.515625 13.8125 5.515625 26.8125 
Q 5.515625 40.234375 12.765625 48.109375 
Q 20.015625 56 32.328125 56 
Q 43.359375 56 49.78125 48.890625 
Q 56.203125 41.796875 56.203125 29.59375 
z
M 47.21875 32.234375 
Q 47.125 39.59375 43.09375 43.984375 
Q 39.0625 48.390625 32.421875 48.390625 
Q 24.90625 48.390625 20.390625 44.140625 
Q 15.875 39.890625 15.1875 32.171875 
z
" id="DejaVuSans-101"/>
      <path d="M 45.40625 46.390625 
L 45.40625 75.984375 
L 54.390625 75.984375 
L 54.390625 0 
L 45.40625 0 
L 45.40625 8.203125 
Q 42.578125 3.328125 38.25 0.953125 
Q 33.9375 -1.421875 27.875 -1.421875 
Q 17.96875 -1.421875 11.734375 6.484375 
Q 5.515625 14.40625 5.515625 27.296875 
Q 5.515625 40.1875 11.734375 48.09375 
Q 17.96875 56 27.875 56 
Q 33.9375 56 38.25 53.625 
Q 42.578125 51.265625 45.40625 46.390625 
z
M 14.796875 27.296875 
Q 14.796875 17.390625 18.875 11.75 
Q 22.953125 6.109375 30.078125 6.109375 
Q 37.203125 6.109375 41.296875 11.75 
Q 45.40625 17.390625 45.40625 27.296875 
Q 45.40625 37.203125 41.296875 42.84375 
Q 37.203125 48.484375 30.078125 48.484375 
Q 22.953125 48.484375 18.875 42.84375 
Q 14.796875 37.203125 14.796875 27.296875 
z
" id="DejaVuSans-100"/>
      <path d="M 8.015625 75.875 
L 15.828125 75.875 
Q 23.140625 64.359375 26.78125 53.3125 
Q 30.421875 42.28125 30.421875 31.390625 
Q 30.421875 20.453125 26.78125 9.375 
Q 23.140625 -1.703125 15.828125 -13.1875 
L 8.015625 -13.1875 
Q 14.5 -2 17.703125 9.0625 
Q 20.90625 20.125 20.90625 31.390625 
Q 20.90625 42.671875 17.703125 53.65625 
Q 14.5 64.65625 8.015625 75.875 
z
" id="DejaVuSans-41"/>
     </defs>
     <g transform="translate(46.982656 344.945362)scale(0.1 -0.1)">
      <use xlink:href="#DejaVuSans-80"/>
      <use x="60.255859" xlink:href="#DejaVuSans-111"/>
      <use x="121.4375" xlink:href="#DejaVuSans-108"/>
      <use x="149.220703" xlink:href="#DejaVuSans-105"/>
      <use x="177.003906" xlink:href="#DejaVuSans-99"/>
      <use x="231.984375" xlink:href="#DejaVuSans-121"/>
      <use x="291.164062" xlink:href="#DejaVuSans-32"/>
      <use x="322.951172" xlink:href="#DejaVuSans-76"/>
      <use x="378.648438" xlink:href="#DejaVuSans-111"/>
      <use x="439.830078" xlink:href="#DejaVuSans-115"/>
      <use x="491.929688" xlink:href="#DejaVuSans-115"/>
      <use x="544.029297" xlink:href="#DejaVuSans-32"/>
      <use x="575.816406" xlink:href="#DejaVuSans-40"/>
      <use x="614.830078" xlink:href="#DejaVuSans-78"/>
      <use x="689.634766" xlink:href="#DejaVuSans-111"/>
      <use x="750.816406" xlink:href="#DejaVuSans-114"/>
      <use x="791.914062" xlink:href="#DejaVuSans-109"/>
      <use x="889.326172" xlink:href="#DejaVuSans-97"/>
      <use x="950.605469" xlink:href="#DejaVuSans-108"/>
      <use x="978.388672" xlink:href="#DejaVuSans-105"/>
      <use x="1006.171875" xlink:href="#DejaVuSans-122"/>
      <use x="1058.662109" xlink:href="#DejaVuSans-101"/>
      <use x="1120.185547" xlink:href="#DejaVuSans-100"/>
      <use x="1183.662109" xlink:href="#DejaVuSans-41"/>
     </g>
    </g>
    <g id="line2d_22">
     <path d="M 189.251406 341.445362 
L 209.251406 341.445362 
" style="fill:none;stroke:#ff7f0e;stroke-linecap:square;stroke-width:1.5;"/>
    </g>
    <g id="line2d_23"/>
    <g id="text_19">
     <!-- Value Loss (Normalized) -->
     <defs>
      <path d="M 28.609375 0 
L 0.78125 72.90625 
L 11.078125 72.90625 
L 34.1875 11.53125 
L 57.328125 72.90625 
L 67.578125 72.90625 
L 39.796875 0 
z
" id="DejaVuSans-86"/>
      <path d="M 8.5 21.578125 
L 8.5 54.6875 
L 17.484375 54.6875 
L 17.484375 21.921875 
Q 17.484375 14.15625 20.5 10.265625 
Q 23.53125 6.390625 29.59375 6.390625 
Q 36.859375 6.390625 41.078125 11.03125 
Q 45.3125 15.671875 45.3125 23.6875 
L 45.3125 54.6875 
L 54.296875 54.6875 
L 54.296875 0 
L 45.3125 0 
L 45.3125 8.40625 
Q 42.046875 3.421875 37.71875 1 
Q 33.40625 -1.421875 27.6875 -1.421875 
Q 18.265625 -1.421875 13.375 4.4375 
Q 8.5 10.296875 8.5 21.578125 
z
M 31.109375 56 
z
" id="DejaVuSans-117"/>
     </defs>
     <g transform="translate(217.251406 344.945362)scale(0.1 -0.1)">
      <use xlink:href="#DejaVuSans-86"/>
      <use x="68.298828" xlink:href="#DejaVuSans-97"/>
      <use x="129.578125" xlink:href="#DejaVuSans-108"/>
      <use x="157.361328" xlink:href="#DejaVuSans-117"/>
      <use x="220.740234" xlink:href="#DejaVuSans-101"/>
      <use x="282.263672" xlink:href="#DejaVuSans-32"/>
      <use x="314.050781" xlink:href="#DejaVuSans-76"/>
      <use x="369.748047" xlink:href="#DejaVuSans-111"/>
      <use x="430.929688" xlink:href="#DejaVuSans-115"/>
      <use x="483.029297" xlink:href="#DejaVuSans-115"/>
      <use x="535.128906" xlink:href="#DejaVuSans-32"/>
      <use x="566.916016" xlink:href="#DejaVuSans-40"/>
      <use x="605.929688" xlink:href="#DejaVuSans-78"/>
      <use x="680.734375" xlink:href="#DejaVuSans-111"/>
      <use x="741.916016" xlink:href="#DejaVuSans-114"/>
      <use x="783.013672" xlink:href="#DejaVuSans-109"/>
      <use x="880.425781" xlink:href="#DejaVuSans-97"/>
      <use x="941.705078" xlink:href="#DejaVuSans-108"/>
      <use x="969.488281" xlink:href="#DejaVuSans-105"/>
      <use x="997.271484" xlink:href="#DejaVuSans-122"/>
      <use x="1049.761719" xlink:href="#DejaVuSans-101"/>
      <use x="1111.285156" xlink:href="#DejaVuSans-100"/>
      <use x="1174.761719" xlink:href="#DejaVuSans-41"/>
     </g>
    </g>
    <g id="line2d_24">
     <path d="M 358.629531 341.445362 
L 378.629531 341.445362 
" style="fill:none;stroke:#008000;stroke-linecap:square;stroke-width:1.5;"/>
    </g>
    <g id="line2d_25"/>
    <g id="text_20">
     <!-- Entropy -->
     <defs>
      <path d="M 54.890625 33.015625 
L 54.890625 0 
L 45.90625 0 
L 45.90625 32.71875 
Q 45.90625 40.484375 42.875 44.328125 
Q 39.84375 48.1875 33.796875 48.1875 
Q 26.515625 48.1875 22.3125 43.546875 
Q 18.109375 38.921875 18.109375 30.90625 
L 18.109375 0 
L 9.078125 0 
L 9.078125 54.6875 
L 18.109375 54.6875 
L 18.109375 46.1875 
Q 21.34375 51.125 25.703125 53.5625 
Q 30.078125 56 35.796875 56 
Q 45.21875 56 50.046875 50.171875 
Q 54.890625 44.34375 54.890625 33.015625 
z
" id="DejaVuSans-110"/>
      <path d="M 18.3125 70.21875 
L 18.3125 54.6875 
L 36.8125 54.6875 
L 36.8125 47.703125 
L 18.3125 47.703125 
L 18.3125 18.015625 
Q 18.3125 11.328125 20.140625 9.421875 
Q 21.96875 7.515625 27.59375 7.515625 
L 36.8125 7.515625 
L 36.8125 0 
L 27.59375 0 
Q 17.1875 0 13.234375 3.875 
Q 9.28125 7.765625 9.28125 18.015625 
L 9.28125 47.703125 
L 2.6875 47.703125 
L 2.6875 54.6875 
L 9.28125 54.6875 
L 9.28125 70.21875 
z
" id="DejaVuSans-116"/>
     </defs>
     <g transform="translate(386.629531 344.945362)scale(0.1 -0.1)">
      <use xlink:href="#DejaVuSans-69"/>
      <use x="63.183594" xlink:href="#DejaVuSans-110"/>
      <use x="126.5625" xlink:href="#DejaVuSans-116"/>
      <use x="165.771484" xlink:href="#DejaVuSans-114"/>
      <use x="206.853516" xlink:href="#DejaVuSans-111"/>
      <use x="268.035156" xlink:href="#DejaVuSans-112"/>
      <use x="331.511719" xlink:href="#DejaVuSans-121"/>
     </g>
    </g>
   </g>
  </g>
  <g id="axes_2">
   <g id="matplotlib.axis_3">
    <g id="ytick_7">
     <g id="line2d_26">
      <defs>
       <path d="M 0 0 
L 3.5 0 
" id="m462e17f6d4" style="stroke:#000000;stroke-width:0.8;"/>
      </defs>
      <g>
       <use style="stroke:#000000;stroke-width:0.8;" x="400.90125" xlink:href="#m462e17f6d4" y="233.654137"/>
      </g>
     </g>
     <g id="text_21">
      <!-- 0.50 -->
      <g transform="translate(407.90125 237.453356)scale(0.1 -0.1)">
       <use xlink:href="#DejaVuSans-48"/>
       <use x="63.623047" xlink:href="#DejaVuSans-46"/>
       <use x="95.410156" xlink:href="#DejaVuSans-53"/>
       <use x="159.033203" xlink:href="#DejaVuSans-48"/>
      </g>
     </g>
    </g>
    <g id="ytick_8">
     <g id="line2d_27">
      <g>
       <use style="stroke:#000000;stroke-width:0.8;" x="400.90125" xlink:href="#m462e17f6d4" y="177.729051"/>
      </g>
     </g>
     <g id="text_22">
      <!-- 0.55 -->
      <g transform="translate(407.90125 181.52827)scale(0.1 -0.1)">
       <use xlink:href="#DejaVuSans-48"/>
       <use x="63.623047" xlink:href="#DejaVuSans-46"/>
       <use x="95.410156" xlink:href="#DejaVuSans-53"/>
       <use x="159.033203" xlink:href="#DejaVuSans-53"/>
      </g>
     </g>
    </g>
    <g id="ytick_9">
     <g id="line2d_28">
      <g>
       <use style="stroke:#000000;stroke-width:0.8;" x="400.90125" xlink:href="#m462e17f6d4" y="121.803965"/>
      </g>
     </g>
     <g id="text_23">
      <!-- 0.60 -->
      <g transform="translate(407.90125 125.603184)scale(0.1 -0.1)">
       <use xlink:href="#DejaVuSans-48"/>
       <use x="63.623047" xlink:href="#DejaVuSans-46"/>
       <use x="95.410156" xlink:href="#DejaVuSans-54"/>
       <use x="159.033203" xlink:href="#DejaVuSans-48"/>
      </g>
     </g>
    </g>
    <g id="ytick_10">
     <g id="line2d_29">
      <g>
       <use style="stroke:#000000;stroke-width:0.8;" x="400.90125" xlink:href="#m462e17f6d4" y="65.878879"/>
      </g>
     </g>
     <g id="text_24">
      <!-- 0.65 -->
      <g transform="translate(407.90125 69.678098)scale(0.1 -0.1)">
       <use xlink:href="#DejaVuSans-48"/>
       <use x="63.623047" xlink:href="#DejaVuSans-46"/>
       <use x="95.410156" xlink:href="#DejaVuSans-54"/>
       <use x="159.033203" xlink:href="#DejaVuSans-53"/>
      </g>
     </g>
    </g>
    <g id="text_25">
     <!-- Entropy -->
     <g transform="translate(441.765312 174.909281)rotate(-90)scale(0.1 -0.1)">
      <use xlink:href="#DejaVuSans-69"/>
      <use x="63.183594" xlink:href="#DejaVuSans-110"/>
      <use x="126.5625" xlink:href="#DejaVuSans-116"/>
      <use x="165.771484" xlink:href="#DejaVuSans-114"/>
      <use x="206.853516" xlink:href="#DejaVuSans-111"/>
      <use x="268.035156" xlink:href="#DejaVuSans-112"/>
      <use x="331.511719" xlink:href="#DejaVuSans-121"/>
     </g>
    </g>
   </g>
   <g id="line2d_30">
    <path clip-path="url(#pb1bb6be0d5)" d="M 60.013977 34.414125 
L 60.868331 42.139268 
L 61.722685 48.229847 
L 62.577039 42.859548 
L 64.285748 56.693603 
L 65.140102 69.042031 
L 66.84881 89.060134 
L 67.703164 81.406326 
L 69.411872 97.053215 
L 70.266226 68.308551 
L 71.974934 79.278487 
L 72.829288 112.291763 
L 74.537996 123.268099 
L 75.39235 91.624981 
L 77.101059 97.650226 
L 77.955413 98.559109 
L 78.809767 101.728501 
L 79.664121 106.19605 
L 80.518475 112.435099 
L 81.372829 114.614139 
L 82.227183 117.451991 
L 83.081537 107.526608 
L 83.935891 109.212706 
L 84.790245 109.560712 
L 85.644599 82.468079 
L 86.498953 83.731969 
L 87.353307 85.294598 
L 88.207661 136.67968 
L 89.062016 138.777052 
L 89.91637 141.638171 
L 90.770724 108.811232 
L 92.479432 115.899296 
L 93.333786 179.796076 
L 95.042494 209.069616 
L 95.896848 96.489604 
L 96.751202 101.677167 
L 97.605556 109.022236 
L 98.45991 139.607001 
L 99.314264 155.63843 
L 100.168618 182.34619 
L 101.022972 150.465134 
L 101.877327 155.918568 
L 102.731681 162.973965 
L 103.586035 156.527846 
L 104.440389 157.201392 
L 105.294743 158.823955 
L 106.149097 148.139491 
L 107.003451 151.332084 
L 107.857805 153.059982 
L 108.712159 112.628436 
L 110.420867 108.8677 
L 111.275221 112.988376 
L 112.129575 112.360564 
L 112.983929 111.286144 
L 113.838283 161.414937 
L 114.692638 163.012966 
L 115.546992 164.131053 
L 116.401346 171.231451 
L 117.2557 183.039336 
L 118.964408 213.874505 
L 120.673116 221.392377 
L 121.52747 174.925786 
L 122.381824 176.865288 
L 123.236178 178.408117 
L 124.090532 188.547571 
L 124.944886 185.462714 
L 125.79924 180.871296 
L 126.653594 177.677237 
L 128.362303 169.100878 
L 129.216657 142.047779 
L 130.071011 141.574437 
L 130.925365 141.285498 
L 131.779719 116.394105 
L 133.488427 124.978464 
L 134.342781 209.865098 
L 136.051489 212.570414 
L 136.905843 145.805315 
L 137.760197 157.893538 
L 138.614551 171.808728 
L 139.468906 120.686851 
L 141.177614 121.277062 
L 142.031968 166.566365 
L 142.886322 169.271615 
L 143.740676 177.5167 
L 144.59503 163.432574 
L 145.449384 164.615996 
L 146.303738 163.475775 
L 147.158092 170.677774 
L 148.012446 170.367368 
L 148.8668 170.200565 
L 149.721154 140.327281 
L 150.575508 143.713543 
L 151.429862 146.503328 
L 152.284217 162.248285 
L 153.138571 165.02127 
L 153.992925 168.236929 
L 154.847279 119.19989 
L 155.701633 147.251208 
L 156.555987 149.972592 
L 157.410341 134.307636 
L 158.264695 130.061824 
L 159.119049 126.711496 
L 159.973403 152.510439 
L 160.827757 152.851312 
L 161.682111 153.377055 
L 162.536465 140.09961 
L 163.390819 134.061031 
L 164.245173 134.058565 
L 165.099528 160.564387 
L 165.953882 174.908119 
L 166.808236 191.584827 
L 167.66259 161.60814 
L 168.516944 166.505164 
L 169.371298 172.637944 
L 170.225652 202.679765 
L 171.93436 193.830868 
L 172.788714 166.723368 
L 173.643068 166.331294 
L 174.497422 166.517831 
L 175.351776 217.529106 
L 176.20613 217.748643 
L 177.060484 217.496905 
L 177.914839 140.387948 
L 179.623547 155.149021 
L 180.477901 229.534261 
L 182.186609 248.283607 
L 183.040963 180.314619 
L 183.895317 178.558986 
L 184.749671 173.574761 
L 185.604025 165.627281 
L 186.458379 172.340472 
L 187.312733 174.239707 
L 188.167087 162.862163 
L 189.021441 171.302186 
L 189.875795 169.172813 
L 190.73015 179.788809 
L 191.584504 185.904389 
L 192.438858 189.202783 
L 193.293212 145.130503 
L 194.147566 142.006978 
L 195.00192 138.030771 
L 195.856274 169.318149 
L 196.710628 166.891971 
L 197.564982 164.057852 
L 198.419336 157.997207 
L 199.27369 157.529665 
L 200.128044 158.340346 
L 200.982398 271.496136 
L 202.691106 271.75424 
L 203.545461 134.368971 
L 204.399815 138.703517 
L 205.254169 145.721647 
L 206.108523 215.848208 
L 206.962877 220.156821 
L 207.817231 223.217944 
L 208.671585 171.321386 
L 209.525939 170.684708 
L 210.380293 168.795139 
L 211.234647 203.051839 
L 212.943355 198.44642 
L 213.797709 209.237486 
L 214.652063 209.878831 
L 215.506417 211.498528 
L 216.360772 146.005852 
L 217.215126 146.720399 
L 218.06948 147.030404 
L 218.923834 182.001917 
L 219.778188 181.999183 
L 220.632542 181.80278 
L 221.486896 149.056642 
L 222.34125 149.236312 
L 223.195604 149.878457 
L 224.049958 168.429866 
L 224.904312 167.584184 
L 225.758666 165.711283 
L 226.61302 154.123602 
L 228.321728 151.753958 
L 229.176083 176.439081 
L 230.030437 172.648611 
L 230.884791 167.551983 
L 231.739145 148.895772 
L 232.593499 148.007089 
L 233.447853 148.612167 
L 234.302207 161.76481 
L 235.156561 163.177369 
L 236.010915 164.879534 
L 236.865269 200.24512 
L 237.719623 199.127233 
L 238.573977 199.426705 
L 239.428331 154.505609 
L 240.282685 154.990418 
L 241.137039 155.770299 
L 242.845748 175.857337 
L 243.700102 181.873581 
L 244.554456 206.685372 
L 246.263164 205.44695 
L 247.117518 157.912339 
L 248.826226 153.864197 
L 249.68058 193.467662 
L 250.534934 195.5671 
L 251.389288 198.857295 
L 252.243642 163.509909 
L 253.097996 177.976842 
L 253.95235 178.430651 
L 254.806705 146.527928 
L 255.661059 143.128999 
L 256.515413 138.183908 
L 257.369767 172.466074 
L 259.078475 177.240429 
L 259.932829 128.761534 
L 260.787183 129.801686 
L 261.641537 130.611034 
L 262.495891 148.745703 
L 263.350245 160.276782 
L 264.204599 173.34289 
L 265.058953 193.057121 
L 265.913307 190.459006 
L 266.767661 192.286573 
L 267.622016 115.910496 
L 268.47637 116.013698 
L 269.330724 118.330008 
L 270.185078 173.123286 
L 271.039432 187.26448 
L 271.893786 194.198342 
L 272.74814 144.977833 
L 273.602494 152.37137 
L 274.456848 153.559725 
L 275.311202 166.904505 
L 276.165556 169.078011 
L 277.01991 169.935094 
L 277.874264 156.856052 
L 278.728618 159.259297 
L 279.582972 161.255334 
L 280.437327 242.303097 
L 281.291681 245.024547 
L 282.146035 245.212817 
L 283.000389 207.800593 
L 283.854743 202.996304 
L 284.709097 199.346704 
L 285.563451 215.779674 
L 286.417805 208.685876 
L 287.272159 205.417482 
L 288.126513 180.524289 
L 288.980867 182.089452 
L 289.835221 183.093803 
L 290.689575 231.961706 
L 291.543929 231.601099 
L 292.398283 230.56968 
L 293.252638 253.818443 
L 294.106992 252.448484 
L 294.961346 250.732686 
L 295.8157 180.341019 
L 296.670054 178.045644 
L 297.524408 177.098426 
L 298.378762 232.238578 
L 299.233116 229.056185 
L 300.08747 225.204514 
L 300.941824 157.762202 
L 301.796178 158.092542 
L 302.650532 159.669438 
L 303.504886 226.029596 
L 304.35924 231.957639 
L 305.213594 230.853752 
L 306.067949 176.812154 
L 306.922303 178.54992 
L 307.776657 180.855762 
L 308.631011 143.211 
L 309.485365 157.668467 
L 310.339719 169.329483 
L 311.194073 189.343919 
L 312.048427 188.284633 
L 312.902781 186.425132 
L 313.757135 221.143439 
L 314.611489 219.454141 
L 315.465843 218.651727 
L 316.320197 272.670724 
L 317.174551 272.353985 
L 318.028906 272.157948 
L 318.88326 167.450315 
L 319.737614 166.776702 
L 320.591968 164.357991 
L 321.446322 238.245655 
L 323.15503 234.170347 
L 324.009384 174.864652 
L 324.863738 170.222099 
L 325.718092 167.409514 
L 326.572446 228.568776 
L 327.4268 236.52339 
L 328.281154 246.450907 
L 329.135508 215.000859 
L 329.989862 212.89422 
L 330.844217 209.952433 
L 331.698571 209.043549 
L 332.552925 200.759663 
L 334.261633 195.263761 
L 335.115987 196.574719 
L 335.970341 196.874325 
L 336.824695 219.73308 
L 337.679049 216.86116 
L 338.533403 212.48948 
L 339.387757 172.874481 
L 340.242111 176.590617 
L 341.096465 178.804258 
L 341.950819 201.922884 
L 342.805173 205.598952 
L 343.659528 200.279521 
L 344.513882 169.320549 
L 345.368236 168.629403 
L 346.22259 172.964616 
L 347.076944 276.334125 
L 347.931298 275.726914 
L 348.785652 273.112866 
L 349.640006 229.631129 
L 350.49436 221.473979 
L 351.348714 217.812044 
L 352.203068 217.327902 
L 353.057422 218.114317 
L 353.911776 219.156069 
L 354.76613 153.142784 
L 355.620484 151.605755 
L 356.474839 149.607719 
L 357.329193 209.462224 
L 358.183547 208.52414 
L 359.037901 213.056957 
L 359.892255 175.48533 
L 360.746609 173.666096 
L 361.600963 171.140983 
L 362.455317 238.965068 
L 363.309671 237.833547 
L 364.164025 237.229203 
L 365.018379 215.618671 
L 366.727087 207.400186 
L 367.581441 179.447336 
L 368.435795 183.026402 
L 369.29015 187.632754 
L 370.144504 161.600273 
L 370.998858 164.607395 
L 371.853212 173.50556 
L 372.707566 225.549054 
L 373.56192 226.773877 
L 374.416274 234.546953 
L 375.270628 154.189936 
L 376.124982 160.762458 
L 376.979336 164.872267 
L 377.83369 130.92924 
L 378.688044 139.334329 
L 379.542398 140.163878 
L 380.396752 154.109735 
L 381.251106 154.828482 
L 382.105461 155.731765 
L 382.959815 142.799526 
L 384.668523 144.436356 
L 384.668523 144.436356 
" style="fill:none;stroke:#008000;stroke-linecap:square;stroke-opacity:0.3;stroke-width:1.5;"/>
   </g>
   <g id="patch_9">
    <path d="M 43.78125 288.430125 
L 43.78125 22.318125 
" style="fill:none;stroke:#000000;stroke-linecap:square;stroke-linejoin:miter;stroke-width:0.8;"/>
   </g>
   <g id="patch_10">
    <path d="M 400.90125 288.430125 
L 400.90125 22.318125 
" style="fill:none;stroke:#000000;stroke-linecap:square;stroke-linejoin:miter;stroke-width:0.8;"/>
   </g>
   <g id="patch_11">
    <path d="M 43.78125 288.430125 
L 400.90125 288.430125 
" style="fill:none;stroke:#000000;stroke-linecap:square;stroke-linejoin:miter;stroke-width:0.8;"/>
   </g>
   <g id="patch_12">
    <path d="M 43.78125 22.318125 
L 400.90125 22.318125 
" style="fill:none;stroke:#000000;stroke-linecap:square;stroke-linejoin:miter;stroke-width:0.8;"/>
   </g>
  </g>
 </g>
 <defs>
  <clipPath id="pb1bb6be0d5">
   <rect height="266.112" width="357.12" x="43.78125" y="22.318125"/>
  </clipPath>
 </defs>
</svg>
