<?xml version="1.0" encoding="utf-8" standalone="no"?>
<!DOCTYPE svg PUBLIC "-//W3C//DTD SVG 1.1//EN"
  "http://www.w3.org/Graphics/SVG/1.1/DTD/svg11.dtd">
<!-- Created with matplotlib (https://matplotlib.org/) -->
<svg height="358.22505pt" version="1.1" viewBox="0 0 444.6825 358.22505" width="444.6825pt" xmlns="http://www.w3.org/2000/svg" xmlns:xlink="http://www.w3.org/1999/xlink">
 <defs>
  <style type="text/css">
*{stroke-linecap:butt;stroke-linejoin:round;}
  </style>
 </defs>
 <g id="figure_1">
  <g id="patch_1">
   <path d="M 0 358.22505 
L 444.6825 358.22505 
L 444.6825 0 
L 0 0 
z
" style="fill:#ffffff;"/>
  </g>
  <g id="axes_1">
   <g id="patch_2">
    <path d="M 43.78125 288.430125 
L 400.90125 288.430125 
L 400.90125 22.318125 
L 43.78125 22.318125 
z
" style="fill:#ffffff;"/>
   </g>
   <g id="matplotlib.axis_1">
    <g id="xtick_1">
     <g id="line2d_1">
      <defs>
       <path d="M 0 0 
L 0 3.5 
" id="m1dff55cce4" style="stroke:#000000;stroke-width:0.8;"/>
      </defs>
      <g>
       <use style="stroke:#000000;stroke-width:0.8;" x="60.013977" xlink:href="#m1dff55cce4" y="288.430125"/>
      </g>
     </g>
     <g id="text_1">
      <!-- 0 -->
      <defs>
       <path d="M 31.78125 66.40625 
Q 24.171875 66.40625 20.328125 58.90625 
Q 16.5 51.421875 16.5 36.375 
Q 16.5 21.390625 20.328125 13.890625 
Q 24.171875 6.390625 31.78125 6.390625 
Q 39.453125 6.390625 43.28125 13.890625 
Q 47.125 21.390625 47.125 36.375 
Q 47.125 51.421875 43.28125 58.90625 
Q 39.453125 66.40625 31.78125 66.40625 
z
M 31.78125 74.21875 
Q 44.046875 74.21875 50.515625 64.515625 
Q 56.984375 54.828125 56.984375 36.375 
Q 56.984375 17.96875 50.515625 8.265625 
Q 44.046875 -1.421875 31.78125 -1.421875 
Q 19.53125 -1.421875 13.0625 8.265625 
Q 6.59375 17.96875 6.59375 36.375 
Q 6.59375 54.828125 13.0625 64.515625 
Q 19.53125 74.21875 31.78125 74.21875 
z
" id="DejaVuSans-48"/>
      </defs>
      <g transform="translate(56.832727 303.028562)scale(0.1 -0.1)">
       <use xlink:href="#DejaVuSans-48"/>
      </g>
     </g>
    </g>
    <g id="xtick_2">
     <g id="line2d_2">
      <g>
       <use style="stroke:#000000;stroke-width:0.8;" x="116.771765" xlink:href="#m1dff55cce4" y="288.430125"/>
      </g>
     </g>
     <g id="text_2">
      <!-- 100 -->
      <defs>
       <path d="M 12.40625 8.296875 
L 28.515625 8.296875 
L 28.515625 63.921875 
L 10.984375 60.40625 
L 10.984375 69.390625 
L 28.421875 72.90625 
L 38.28125 72.90625 
L 38.28125 8.296875 
L 54.390625 8.296875 
L 54.390625 0 
L 12.40625 0 
z
" id="DejaVuSans-49"/>
      </defs>
      <g transform="translate(107.228015 303.028562)scale(0.1 -0.1)">
       <use xlink:href="#DejaVuSans-49"/>
       <use x="63.623047" xlink:href="#DejaVuSans-48"/>
       <use x="127.246094" xlink:href="#DejaVuSans-48"/>
      </g>
     </g>
    </g>
    <g id="xtick_3">
     <g id="line2d_3">
      <g>
       <use style="stroke:#000000;stroke-width:0.8;" x="173.529553" xlink:href="#m1dff55cce4" y="288.430125"/>
      </g>
     </g>
     <g id="text_3">
      <!-- 200 -->
      <defs>
       <path d="M 19.1875 8.296875 
L 53.609375 8.296875 
L 53.609375 0 
L 7.328125 0 
L 7.328125 8.296875 
Q 12.9375 14.109375 22.625 23.890625 
Q 32.328125 33.6875 34.8125 36.53125 
Q 39.546875 41.84375 41.421875 45.53125 
Q 43.3125 49.21875 43.3125 52.78125 
Q 43.3125 58.59375 39.234375 62.25 
Q 35.15625 65.921875 28.609375 65.921875 
Q 23.96875 65.921875 18.8125 64.3125 
Q 13.671875 62.703125 7.8125 59.421875 
L 7.8125 69.390625 
Q 13.765625 71.78125 18.9375 73 
Q 24.125 74.21875 28.421875 74.21875 
Q 39.75 74.21875 46.484375 68.546875 
Q 53.21875 62.890625 53.21875 53.421875 
Q 53.21875 48.921875 51.53125 44.890625 
Q 49.859375 40.875 45.40625 35.40625 
Q 44.1875 33.984375 37.640625 27.21875 
Q 31.109375 20.453125 19.1875 8.296875 
z
" id="DejaVuSans-50"/>
      </defs>
      <g transform="translate(163.985803 303.028562)scale(0.1 -0.1)">
       <use xlink:href="#DejaVuSans-50"/>
       <use x="63.623047" xlink:href="#DejaVuSans-48"/>
       <use x="127.246094" xlink:href="#DejaVuSans-48"/>
      </g>
     </g>
    </g>
    <g id="xtick_4">
     <g id="line2d_4">
      <g>
       <use style="stroke:#000000;stroke-width:0.8;" x="230.28734" xlink:href="#m1dff55cce4" y="288.430125"/>
      </g>
     </g>
     <g id="text_4">
      <!-- 300 -->
      <defs>
       <path d="M 40.578125 39.3125 
Q 47.65625 37.796875 51.625 33 
Q 55.609375 28.21875 55.609375 21.1875 
Q 55.609375 10.40625 48.1875 4.484375 
Q 40.765625 -1.421875 27.09375 -1.421875 
Q 22.515625 -1.421875 17.65625 -0.515625 
Q 12.796875 0.390625 7.625 2.203125 
L 7.625 11.71875 
Q 11.71875 9.328125 16.59375 8.109375 
Q 21.484375 6.890625 26.8125 6.890625 
Q 36.078125 6.890625 40.9375 10.546875 
Q 45.796875 14.203125 45.796875 21.1875 
Q 45.796875 27.640625 41.28125 31.265625 
Q 36.765625 34.90625 28.71875 34.90625 
L 20.21875 34.90625 
L 20.21875 43.015625 
L 29.109375 43.015625 
Q 36.375 43.015625 40.234375 45.921875 
Q 44.09375 48.828125 44.09375 54.296875 
Q 44.09375 59.90625 40.109375 62.90625 
Q 36.140625 65.921875 28.71875 65.921875 
Q 24.65625 65.921875 20.015625 65.03125 
Q 15.375 64.15625 9.8125 62.3125 
L 9.8125 71.09375 
Q 15.4375 72.65625 20.34375 73.4375 
Q 25.25 74.21875 29.59375 74.21875 
Q 40.828125 74.21875 47.359375 69.109375 
Q 53.90625 64.015625 53.90625 55.328125 
Q 53.90625 49.265625 50.4375 45.09375 
Q 46.96875 40.921875 40.578125 39.3125 
z
" id="DejaVuSans-51"/>
      </defs>
      <g transform="translate(220.74359 303.028562)scale(0.1 -0.1)">
       <use xlink:href="#DejaVuSans-51"/>
       <use x="63.623047" xlink:href="#DejaVuSans-48"/>
       <use x="127.246094" xlink:href="#DejaVuSans-48"/>
      </g>
     </g>
    </g>
    <g id="xtick_5">
     <g id="line2d_5">
      <g>
       <use style="stroke:#000000;stroke-width:0.8;" x="287.045128" xlink:href="#m1dff55cce4" y="288.430125"/>
      </g>
     </g>
     <g id="text_5">
      <!-- 400 -->
      <defs>
       <path d="M 37.796875 64.3125 
L 12.890625 25.390625 
L 37.796875 25.390625 
z
M 35.203125 72.90625 
L 47.609375 72.90625 
L 47.609375 25.390625 
L 58.015625 25.390625 
L 58.015625 17.1875 
L 47.609375 17.1875 
L 47.609375 0 
L 37.796875 0 
L 37.796875 17.1875 
L 4.890625 17.1875 
L 4.890625 26.703125 
z
" id="DejaVuSans-52"/>
      </defs>
      <g transform="translate(277.501378 303.028562)scale(0.1 -0.1)">
       <use xlink:href="#DejaVuSans-52"/>
       <use x="63.623047" xlink:href="#DejaVuSans-48"/>
       <use x="127.246094" xlink:href="#DejaVuSans-48"/>
      </g>
     </g>
    </g>
    <g id="xtick_6">
     <g id="line2d_6">
      <g>
       <use style="stroke:#000000;stroke-width:0.8;" x="343.802916" xlink:href="#m1dff55cce4" y="288.430125"/>
      </g>
     </g>
     <g id="text_6">
      <!-- 500 -->
      <defs>
       <path d="M 10.796875 72.90625 
L 49.515625 72.90625 
L 49.515625 64.59375 
L 19.828125 64.59375 
L 19.828125 46.734375 
Q 21.96875 47.46875 24.109375 47.828125 
Q 26.265625 48.1875 28.421875 48.1875 
Q 40.625 48.1875 47.75 41.5 
Q 54.890625 34.8125 54.890625 23.390625 
Q 54.890625 11.625 47.5625 5.09375 
Q 40.234375 -1.421875 26.90625 -1.421875 
Q 22.3125 -1.421875 17.546875 -0.640625 
Q 12.796875 0.140625 7.71875 1.703125 
L 7.71875 11.625 
Q 12.109375 9.234375 16.796875 8.0625 
Q 21.484375 6.890625 26.703125 6.890625 
Q 35.15625 6.890625 40.078125 11.328125 
Q 45.015625 15.765625 45.015625 23.390625 
Q 45.015625 31 40.078125 35.4375 
Q 35.15625 39.890625 26.703125 39.890625 
Q 22.75 39.890625 18.8125 39.015625 
Q 14.890625 38.140625 10.796875 36.28125 
z
" id="DejaVuSans-53"/>
      </defs>
      <g transform="translate(334.259166 303.028562)scale(0.1 -0.1)">
       <use xlink:href="#DejaVuSans-53"/>
       <use x="63.623047" xlink:href="#DejaVuSans-48"/>
       <use x="127.246094" xlink:href="#DejaVuSans-48"/>
      </g>
     </g>
    </g>
    <g id="xtick_7">
     <g id="line2d_7">
      <g>
       <use style="stroke:#000000;stroke-width:0.8;" x="400.560703" xlink:href="#m1dff55cce4" y="288.430125"/>
      </g>
     </g>
     <g id="text_7">
      <!-- 600 -->
      <defs>
       <path d="M 33.015625 40.375 
Q 26.375 40.375 22.484375 35.828125 
Q 18.609375 31.296875 18.609375 23.390625 
Q 18.609375 15.53125 22.484375 10.953125 
Q 26.375 6.390625 33.015625 6.390625 
Q 39.65625 6.390625 43.53125 10.953125 
Q 47.40625 15.53125 47.40625 23.390625 
Q 47.40625 31.296875 43.53125 35.828125 
Q 39.65625 40.375 33.015625 40.375 
z
M 52.59375 71.296875 
L 52.59375 62.3125 
Q 48.875 64.0625 45.09375 64.984375 
Q 41.3125 65.921875 37.59375 65.921875 
Q 27.828125 65.921875 22.671875 59.328125 
Q 17.53125 52.734375 16.796875 39.40625 
Q 19.671875 43.65625 24.015625 45.921875 
Q 28.375 48.1875 33.59375 48.1875 
Q 44.578125 48.1875 50.953125 41.515625 
Q 57.328125 34.859375 57.328125 23.390625 
Q 57.328125 12.15625 50.6875 5.359375 
Q 44.046875 -1.421875 33.015625 -1.421875 
Q 20.359375 -1.421875 13.671875 8.265625 
Q 6.984375 17.96875 6.984375 36.375 
Q 6.984375 53.65625 15.1875 63.9375 
Q 23.390625 74.21875 37.203125 74.21875 
Q 40.921875 74.21875 44.703125 73.484375 
Q 48.484375 72.75 52.59375 71.296875 
z
" id="DejaVuSans-54"/>
      </defs>
      <g transform="translate(391.016953 303.028562)scale(0.1 -0.1)">
       <use xlink:href="#DejaVuSans-54"/>
       <use x="63.623047" xlink:href="#DejaVuSans-48"/>
       <use x="127.246094" xlink:href="#DejaVuSans-48"/>
      </g>
     </g>
    </g>
    <g id="text_8">
     <!-- Epoch -->
     <defs>
      <path d="M 9.8125 72.90625 
L 55.90625 72.90625 
L 55.90625 64.59375 
L 19.671875 64.59375 
L 19.671875 43.015625 
L 54.390625 43.015625 
L 54.390625 34.71875 
L 19.671875 34.71875 
L 19.671875 8.296875 
L 56.78125 8.296875 
L 56.78125 0 
L 9.8125 0 
z
" id="DejaVuSans-69"/>
      <path d="M 18.109375 8.203125 
L 18.109375 -20.796875 
L 9.078125 -20.796875 
L 9.078125 54.6875 
L 18.109375 54.6875 
L 18.109375 46.390625 
Q 20.953125 51.265625 25.265625 53.625 
Q 29.59375 56 35.59375 56 
Q 45.5625 56 51.78125 48.09375 
Q 58.015625 40.1875 58.015625 27.296875 
Q 58.015625 14.40625 51.78125 6.484375 
Q 45.5625 -1.421875 35.59375 -1.421875 
Q 29.59375 -1.421875 25.265625 0.953125 
Q 20.953125 3.328125 18.109375 8.203125 
z
M 48.6875 27.296875 
Q 48.6875 37.203125 44.609375 42.84375 
Q 40.53125 48.484375 33.40625 48.484375 
Q 26.265625 48.484375 22.1875 42.84375 
Q 18.109375 37.203125 18.109375 27.296875 
Q 18.109375 17.390625 22.1875 11.75 
Q 26.265625 6.109375 33.40625 6.109375 
Q 40.53125 6.109375 44.609375 11.75 
Q 48.6875 17.390625 48.6875 27.296875 
z
" id="DejaVuSans-112"/>
      <path d="M 30.609375 48.390625 
Q 23.390625 48.390625 19.1875 42.75 
Q 14.984375 37.109375 14.984375 27.296875 
Q 14.984375 17.484375 19.15625 11.84375 
Q 23.34375 6.203125 30.609375 6.203125 
Q 37.796875 6.203125 41.984375 11.859375 
Q 46.1875 17.53125 46.1875 27.296875 
Q 46.1875 37.015625 41.984375 42.703125 
Q 37.796875 48.390625 30.609375 48.390625 
z
M 30.609375 56 
Q 42.328125 56 49.015625 48.375 
Q 55.71875 40.765625 55.71875 27.296875 
Q 55.71875 13.875 49.015625 6.21875 
Q 42.328125 -1.421875 30.609375 -1.421875 
Q 18.84375 -1.421875 12.171875 6.21875 
Q 5.515625 13.875 5.515625 27.296875 
Q 5.515625 40.765625 12.171875 48.375 
Q 18.84375 56 30.609375 56 
z
" id="DejaVuSans-111"/>
      <path d="M 48.78125 52.59375 
L 48.78125 44.1875 
Q 44.96875 46.296875 41.140625 47.34375 
Q 37.3125 48.390625 33.40625 48.390625 
Q 24.65625 48.390625 19.8125 42.84375 
Q 14.984375 37.3125 14.984375 27.296875 
Q 14.984375 17.28125 19.8125 11.734375 
Q 24.65625 6.203125 33.40625 6.203125 
Q 37.3125 6.203125 41.140625 7.25 
Q 44.96875 8.296875 48.78125 10.40625 
L 48.78125 2.09375 
Q 45.015625 0.34375 40.984375 -0.53125 
Q 36.96875 -1.421875 32.421875 -1.421875 
Q 20.0625 -1.421875 12.78125 6.34375 
Q 5.515625 14.109375 5.515625 27.296875 
Q 5.515625 40.671875 12.859375 48.328125 
Q 20.21875 56 33.015625 56 
Q 37.15625 56 41.109375 55.140625 
Q 45.0625 54.296875 48.78125 52.59375 
z
" id="DejaVuSans-99"/>
      <path d="M 54.890625 33.015625 
L 54.890625 0 
L 45.90625 0 
L 45.90625 32.71875 
Q 45.90625 40.484375 42.875 44.328125 
Q 39.84375 48.1875 33.796875 48.1875 
Q 26.515625 48.1875 22.3125 43.546875 
Q 18.109375 38.921875 18.109375 30.90625 
L 18.109375 0 
L 9.078125 0 
L 9.078125 75.984375 
L 18.109375 75.984375 
L 18.109375 46.1875 
Q 21.34375 51.125 25.703125 53.5625 
Q 30.078125 56 35.796875 56 
Q 45.21875 56 50.046875 50.171875 
Q 54.890625 44.34375 54.890625 33.015625 
z
" id="DejaVuSans-104"/>
     </defs>
     <g transform="translate(207.030313 316.706687)scale(0.1 -0.1)">
      <use xlink:href="#DejaVuSans-69"/>
      <use x="63.183594" xlink:href="#DejaVuSans-112"/>
      <use x="126.660156" xlink:href="#DejaVuSans-111"/>
      <use x="187.841797" xlink:href="#DejaVuSans-99"/>
      <use x="242.822266" xlink:href="#DejaVuSans-104"/>
     </g>
    </g>
   </g>
   <g id="matplotlib.axis_2">
    <g id="ytick_1">
     <g id="line2d_8">
      <defs>
       <path d="M 0 0 
L -3.5 0 
" id="m4f24e452f1" style="stroke:#000000;stroke-width:0.8;"/>
      </defs>
      <g>
       <use style="stroke:#000000;stroke-width:0.8;" x="43.78125" xlink:href="#m4f24e452f1" y="276.334125"/>
      </g>
     </g>
     <g id="text_9">
      <!-- 0.0 -->
      <defs>
       <path d="M 10.6875 12.40625 
L 21 12.40625 
L 21 0 
L 10.6875 0 
z
" id="DejaVuSans-46"/>
      </defs>
      <g transform="translate(20.878125 280.133344)scale(0.1 -0.1)">
       <use xlink:href="#DejaVuSans-48"/>
       <use x="63.623047" xlink:href="#DejaVuSans-46"/>
       <use x="95.410156" xlink:href="#DejaVuSans-48"/>
      </g>
     </g>
    </g>
    <g id="ytick_2">
     <g id="line2d_9">
      <g>
       <use style="stroke:#000000;stroke-width:0.8;" x="43.78125" xlink:href="#m4f24e452f1" y="227.950125"/>
      </g>
     </g>
     <g id="text_10">
      <!-- 0.2 -->
      <g transform="translate(20.878125 231.749344)scale(0.1 -0.1)">
       <use xlink:href="#DejaVuSans-48"/>
       <use x="63.623047" xlink:href="#DejaVuSans-46"/>
       <use x="95.410156" xlink:href="#DejaVuSans-50"/>
      </g>
     </g>
    </g>
    <g id="ytick_3">
     <g id="line2d_10">
      <g>
       <use style="stroke:#000000;stroke-width:0.8;" x="43.78125" xlink:href="#m4f24e452f1" y="179.566125"/>
      </g>
     </g>
     <g id="text_11">
      <!-- 0.4 -->
      <g transform="translate(20.878125 183.365344)scale(0.1 -0.1)">
       <use xlink:href="#DejaVuSans-48"/>
       <use x="63.623047" xlink:href="#DejaVuSans-46"/>
       <use x="95.410156" xlink:href="#DejaVuSans-52"/>
      </g>
     </g>
    </g>
    <g id="ytick_4">
     <g id="line2d_11">
      <g>
       <use style="stroke:#000000;stroke-width:0.8;" x="43.78125" xlink:href="#m4f24e452f1" y="131.182125"/>
      </g>
     </g>
     <g id="text_12">
      <!-- 0.6 -->
      <g transform="translate(20.878125 134.981344)scale(0.1 -0.1)">
       <use xlink:href="#DejaVuSans-48"/>
       <use x="63.623047" xlink:href="#DejaVuSans-46"/>
       <use x="95.410156" xlink:href="#DejaVuSans-54"/>
      </g>
     </g>
    </g>
    <g id="ytick_5">
     <g id="line2d_12">
      <g>
       <use style="stroke:#000000;stroke-width:0.8;" x="43.78125" xlink:href="#m4f24e452f1" y="82.798125"/>
      </g>
     </g>
     <g id="text_13">
      <!-- 0.8 -->
      <defs>
       <path d="M 31.78125 34.625 
Q 24.75 34.625 20.71875 30.859375 
Q 16.703125 27.09375 16.703125 20.515625 
Q 16.703125 13.921875 20.71875 10.15625 
Q 24.75 6.390625 31.78125 6.390625 
Q 38.8125 6.390625 42.859375 10.171875 
Q 46.921875 13.96875 46.921875 20.515625 
Q 46.921875 27.09375 42.890625 30.859375 
Q 38.875 34.625 31.78125 34.625 
z
M 21.921875 38.8125 
Q 15.578125 40.375 12.03125 44.71875 
Q 8.5 49.078125 8.5 55.328125 
Q 8.5 64.0625 14.71875 69.140625 
Q 20.953125 74.21875 31.78125 74.21875 
Q 42.671875 74.21875 48.875 69.140625 
Q 55.078125 64.0625 55.078125 55.328125 
Q 55.078125 49.078125 51.53125 44.71875 
Q 48 40.375 41.703125 38.8125 
Q 48.828125 37.15625 52.796875 32.3125 
Q 56.78125 27.484375 56.78125 20.515625 
Q 56.78125 9.90625 50.3125 4.234375 
Q 43.84375 -1.421875 31.78125 -1.421875 
Q 19.734375 -1.421875 13.25 4.234375 
Q 6.78125 9.90625 6.78125 20.515625 
Q 6.78125 27.484375 10.78125 32.3125 
Q 14.796875 37.15625 21.921875 38.8125 
z
M 18.3125 54.390625 
Q 18.3125 48.734375 21.84375 45.5625 
Q 25.390625 42.390625 31.78125 42.390625 
Q 38.140625 42.390625 41.71875 45.5625 
Q 45.3125 48.734375 45.3125 54.390625 
Q 45.3125 60.0625 41.71875 63.234375 
Q 38.140625 66.40625 31.78125 66.40625 
Q 25.390625 66.40625 21.84375 63.234375 
Q 18.3125 60.0625 18.3125 54.390625 
z
" id="DejaVuSans-56"/>
      </defs>
      <g transform="translate(20.878125 86.597344)scale(0.1 -0.1)">
       <use xlink:href="#DejaVuSans-48"/>
       <use x="63.623047" xlink:href="#DejaVuSans-46"/>
       <use x="95.410156" xlink:href="#DejaVuSans-56"/>
      </g>
     </g>
    </g>
    <g id="ytick_6">
     <g id="line2d_13">
      <g>
       <use style="stroke:#000000;stroke-width:0.8;" x="43.78125" xlink:href="#m4f24e452f1" y="34.414125"/>
      </g>
     </g>
     <g id="text_14">
      <!-- 1.0 -->
      <g transform="translate(20.878125 38.213344)scale(0.1 -0.1)">
       <use xlink:href="#DejaVuSans-49"/>
       <use x="63.623047" xlink:href="#DejaVuSans-46"/>
       <use x="95.410156" xlink:href="#DejaVuSans-48"/>
      </g>
     </g>
    </g>
    <g id="text_15">
     <!-- Loss -->
     <defs>
      <path d="M 9.8125 72.90625 
L 19.671875 72.90625 
L 19.671875 8.296875 
L 55.171875 8.296875 
L 55.171875 0 
L 9.8125 0 
z
" id="DejaVuSans-76"/>
      <path d="M 44.28125 53.078125 
L 44.28125 44.578125 
Q 40.484375 46.53125 36.375 47.5 
Q 32.28125 48.484375 27.875 48.484375 
Q 21.1875 48.484375 17.84375 46.4375 
Q 14.5 44.390625 14.5 40.28125 
Q 14.5 37.15625 16.890625 35.375 
Q 19.28125 33.59375 26.515625 31.984375 
L 29.59375 31.296875 
Q 39.15625 29.25 43.1875 25.515625 
Q 47.21875 21.78125 47.21875 15.09375 
Q 47.21875 7.46875 41.1875 3.015625 
Q 35.15625 -1.421875 24.609375 -1.421875 
Q 20.21875 -1.421875 15.453125 -0.5625 
Q 10.6875 0.296875 5.421875 2 
L 5.421875 11.28125 
Q 10.40625 8.6875 15.234375 7.390625 
Q 20.0625 6.109375 24.8125 6.109375 
Q 31.15625 6.109375 34.5625 8.28125 
Q 37.984375 10.453125 37.984375 14.40625 
Q 37.984375 18.0625 35.515625 20.015625 
Q 33.0625 21.96875 24.703125 23.78125 
L 21.578125 24.515625 
Q 13.234375 26.265625 9.515625 29.90625 
Q 5.8125 33.546875 5.8125 39.890625 
Q 5.8125 47.609375 11.28125 51.796875 
Q 16.75 56 26.8125 56 
Q 31.78125 56 36.171875 55.265625 
Q 40.578125 54.546875 44.28125 53.078125 
z
" id="DejaVuSans-115"/>
     </defs>
     <g transform="translate(14.798438 166.428031)rotate(-90)scale(0.1 -0.1)">
      <use xlink:href="#DejaVuSans-76"/>
      <use x="55.697266" xlink:href="#DejaVuSans-111"/>
      <use x="116.878906" xlink:href="#DejaVuSans-115"/>
      <use x="168.978516" xlink:href="#DejaVuSans-115"/>
     </g>
    </g>
   </g>
   <g id="line2d_14">
    <path clip-path="url(#pfaa826d90a)" d="M 60.013977 218.276872 
L 60.581555 252.312287 
L 61.149133 258.818877 
L 61.716711 231.146252 
L 62.284289 263.732849 
L 62.851867 276.334125 
L 63.419445 213.370083 
L 63.987022 239.714597 
L 64.5546 244.987863 
L 65.122178 197.917229 
L 65.689756 222.765588 
L 66.257334 228.415438 
L 66.824912 170.004107 
L 67.39249 181.870929 
L 67.960068 186.16416 
L 68.527645 135.168221 
L 69.095223 163.580706 
L 69.662801 166.442427 
L 70.230379 111.544317 
L 70.797957 125.134314 
L 71.365535 114.708116 
L 71.933113 95.771918 
L 72.500691 110.92365 
L 73.068268 111.323385 
L 73.635846 112.065189 
L 74.203424 118.380729 
L 74.771002 121.172919 
L 75.33858 117.596564 
L 75.906158 127.150497 
L 76.473736 127.769559 
L 77.041314 105.432896 
L 77.608891 104.374223 
L 78.176469 122.6279 
L 78.744047 96.622195 
L 79.311625 95.047308 
L 79.879203 86.967077 
L 80.446781 118.056395 
L 81.014359 117.4354 
L 81.581937 115.158717 
L 82.149514 98.267335 
L 82.717092 127.468236 
L 83.28467 126.394751 
L 83.852248 96.327176 
L 84.419826 102.006324 
L 84.987404 94.661656 
L 86.12256 119.660005 
L 86.690137 116.902485 
L 87.257715 130.66183 
L 87.825293 133.951669 
L 88.392871 34.414125 
L 88.960449 73.575565 
L 89.528027 97.666147 
L 90.095605 88.972132 
L 90.663183 94.853867 
L 91.23076 99.064329 
L 91.798338 85.024279 
L 92.365916 104.975165 
L 92.933494 108.599394 
L 93.501072 113.001562 
L 94.06865 109.856476 
L 94.636228 96.726887 
L 95.203806 94.316304 
L 95.771384 100.425616 
L 96.338961 99.754272 
L 96.906539 93.650725 
L 97.474117 104.000649 
L 98.041695 94.152454 
L 98.609273 95.207589 
L 99.176851 109.523208 
L 99.744429 101.397356 
L 100.312007 101.912434 
L 100.879584 109.365205 
L 101.447162 102.168589 
L 102.01474 98.417537 
L 102.582318 108.333198 
L 103.149896 105.435267 
L 103.717474 104.239794 
L 104.285052 106.811033 
L 104.85263 105.682061 
L 105.420207 102.040111 
L 105.987785 95.643662 
L 106.555363 103.446507 
L 107.122941 107.672 
L 108.258097 96.919679 
L 108.825675 88.582126 
L 109.393253 99.823679 
L 109.96083 100.520206 
L 110.528408 92.758818 
L 111.095986 99.668592 
L 111.663564 100.709411 
L 112.231142 99.229694 
L 112.79872 90.69631 
L 113.366298 89.173146 
L 113.933876 87.286241 
L 114.501453 109.276864 
L 115.069031 103.521777 
L 115.636609 104.064045 
L 116.204187 96.848945 
L 116.771765 97.793348 
L 117.339343 94.443628 
L 117.906921 105.016269 
L 118.474499 102.9112 
L 119.042076 103.985597 
L 119.609654 91.486297 
L 120.177232 84.181112 
L 120.74481 87.92377 
L 121.312388 106.786211 
L 122.447544 97.174548 
L 123.015122 100.795591 
L 124.150277 89.231239 
L 124.717855 101.996034 
L 125.285433 104.238681 
L 125.853011 109.844175 
L 126.420589 101.1308 
L 126.988167 100.480757 
L 127.555745 104.939741 
L 128.123322 91.958655 
L 128.6909 100.835466 
L 129.258478 97.862252 
L 129.826056 98.49336 
L 130.393634 85.471878 
L 130.961212 80.075215 
L 131.52879 103.560887 
L 132.096368 106.922322 
L 132.663945 108.660505 
L 133.231523 96.775337 
L 133.799101 91.266529 
L 134.366679 76.698121 
L 134.934257 104.917502 
L 135.501835 103.339616 
L 136.069413 103.052455 
L 136.636991 102.422173 
L 137.204568 98.377661 
L 137.772146 97.257583 
L 138.339724 102.287077 
L 138.907302 98.490858 
L 139.47488 102.109911 
L 140.042458 94.962834 
L 141.177614 90.970048 
L 141.745192 105.671529 
L 142.312769 102.041871 
L 142.880347 103.149756 
L 143.447925 95.057146 
L 144.015503 92.526634 
L 144.583081 92.732857 
L 145.150659 106.510622 
L 145.718237 89.079334 
L 146.285815 83.743266 
L 146.853392 104.835221 
L 147.42097 108.299915 
L 147.988548 98.340006 
L 148.556126 98.012642 
L 149.123704 100.621041 
L 149.691282 99.148453 
L 150.826438 103.730449 
L 151.394015 100.167872 
L 151.961593 100.504531 
L 153.096749 90.504419 
L 153.664327 98.008948 
L 154.231905 110.913888 
L 154.799483 103.497376 
L 155.934638 100.297301 
L 156.502216 99.610474 
L 157.069794 101.99741 
L 157.637372 103.385895 
L 158.20495 102.005362 
L 158.772528 101.575599 
L 159.340106 98.181139 
L 159.907684 97.20668 
L 160.475261 108.012144 
L 161.042839 112.08645 
L 161.610417 103.080226 
L 162.745573 80.479316 
L 163.313151 91.713371 
L 163.880729 88.656201 
L 164.448307 93.253365 
L 165.015884 84.826405 
L 165.583462 95.511772 
L 166.15104 97.388924 
L 166.718618 96.419907 
L 167.286196 106.819985 
L 167.853774 98.396305 
L 168.421352 101.226406 
L 168.98893 106.004419 
L 169.556507 106.787718 
L 170.124085 115.821467 
L 170.691663 100.73336 
L 171.259241 94.393635 
L 171.826819 94.382243 
L 172.394397 101.738585 
L 172.961975 83.916038 
L 173.529553 70.297557 
L 174.09713 100.103092 
L 174.664708 107.262839 
L 175.232286 103.393647 
L 175.799864 82.650655 
L 176.367442 109.580023 
L 177.502598 99.491096 
L 178.637753 81.647695 
L 179.205331 108.490406 
L 179.772909 104.689958 
L 180.340487 110.917577 
L 180.908065 100.369558 
L 181.475643 104.310434 
L 182.043221 100.82475 
L 182.610799 96.305113 
L 183.178377 97.435441 
L 183.745954 78.048889 
L 184.313532 99.076523 
L 184.88111 99.834125 
L 185.448688 102.430125 
L 186.016266 102.162767 
L 186.583844 103.293864 
L 187.151422 107.724914 
L 187.719 92.575169 
L 188.854155 85.890192 
L 189.421733 107.476125 
L 189.989311 94.519255 
L 190.556889 106.874114 
L 191.124467 94.424559 
L 191.692045 90.109286 
L 192.259623 95.015483 
L 192.8272 91.143529 
L 193.394778 96.052504 
L 193.962356 97.03743 
L 194.529934 93.823964 
L 195.097512 99.89714 
L 196.232668 95.933153 
L 196.800246 98.099898 
L 197.367823 102.764454 
L 197.935401 101.057053 
L 198.502979 84.622704 
L 199.070557 84.515543 
L 199.638135 99.316418 
L 200.205713 102.213993 
L 200.773291 106.285112 
L 201.340869 96.96817 
L 201.908446 99.243043 
L 202.476024 101.995784 
L 203.043602 102.730066 
L 203.61118 101.503825 
L 204.178758 80.406084 
L 204.746336 95.612554 
L 205.313914 77.891251 
L 205.881492 71.767304 
L 206.449069 105.807137 
L 207.016647 104.314926 
L 207.584225 102.235073 
L 208.719381 111.132575 
L 209.286959 109.64848 
L 209.854537 94.453398 
L 210.422115 95.257406 
L 210.989692 87.434071 
L 211.55727 95.549846 
L 212.124848 90.646853 
L 213.260004 106.675442 
L 213.827582 110.35253 
L 214.39516 104.32522 
L 214.962738 106.452995 
L 215.530315 104.457151 
L 216.097893 104.189826 
L 216.665471 99.480005 
L 217.233049 103.311095 
L 217.800627 94.185123 
L 218.368205 94.223397 
L 218.935783 104.611702 
L 219.503361 103.706752 
L 220.070938 81.212623 
L 220.638516 96.940202 
L 221.206094 81.288721 
L 221.773672 92.441531 
L 222.34125 97.876993 
L 224.043984 89.403563 
L 224.611562 90.79445 
L 225.179139 104.230458 
L 225.746717 100.296134 
L 226.314295 102.503922 
L 226.881873 98.307673 
L 227.449451 87.396469 
L 228.017029 90.677605 
L 228.584607 83.587728 
L 229.152185 94.675141 
L 229.719762 93.732343 
L 230.28734 106.889036 
L 230.854918 105.283779 
L 231.422496 106.495348 
L 231.990074 94.968694 
L 232.557652 94.372812 
L 233.12523 96.733064 
L 233.692808 101.236688 
L 234.260385 94.187346 
L 234.827963 96.833598 
L 235.395541 91.800853 
L 235.963119 79.29062 
L 236.530697 71.266529 
L 237.098275 93.416154 
L 237.665853 89.738067 
L 238.233431 96.415579 
L 238.801008 106.167597 
L 239.368586 109.70252 
L 239.936164 107.665787 
L 240.503742 99.190433 
L 241.07132 105.781557 
L 241.638898 94.864452 
L 242.206476 100.444444 
L 242.774054 84.395254 
L 243.341631 93.109485 
L 243.909209 89.96627 
L 244.476787 90.556153 
L 245.044365 99.741946 
L 245.611943 106.63295 
L 246.179521 95.773136 
L 246.747099 99.939128 
L 247.314677 101.027111 
L 247.882254 98.545864 
L 248.449832 101.043114 
L 249.01741 78.687029 
L 249.584988 74.559524 
L 250.152566 92.621429 
L 251.287722 98.031408 
L 251.8553 98.327304 
L 252.422877 94.189004 
L 252.990455 94.037677 
L 253.558033 85.169145 
L 254.125611 99.018692 
L 254.693189 103.837135 
L 255.260767 103.231058 
L 255.828345 87.298541 
L 256.395923 99.83693 
L 256.9635 95.227858 
L 257.531078 93.577326 
L 258.098656 87.519555 
L 258.666234 76.69125 
L 259.233812 104.490151 
L 259.80139 97.424881 
L 260.368968 96.675325 
L 261.504123 84.121671 
L 262.071701 84.689368 
L 262.639279 103.220657 
L 263.206857 107.869403 
L 263.774435 108.10284 
L 264.342013 99.08669 
L 264.909591 95.602603 
L 266.612324 106.76104 
L 267.179902 102.433045 
L 268.315058 83.454098 
L 269.450214 93.201307 
L 270.58537 82.390839 
L 271.152947 105.691315 
L 271.720525 96.733545 
L 272.855681 106.640333 
L 273.423259 112.364749 
L 273.990837 112.37447 
L 274.558415 86.601555 
L 275.125993 99.791371 
L 275.69357 93.548072 
L 276.261148 106.498759 
L 276.828726 99.784614 
L 277.396304 99.856458 
L 277.963882 84.413021 
L 278.53146 84.863438 
L 279.099038 84.193376 
L 279.666616 85.855869 
L 280.234193 95.586818 
L 280.801771 94.076848 
L 281.369349 101.346736 
L 281.936927 96.338294 
L 282.504505 95.54901 
L 283.072083 108.379695 
L 283.639661 107.934781 
L 284.207239 105.022415 
L 284.774816 105.887731 
L 285.342394 88.84541 
L 285.909972 101.094487 
L 286.47755 103.52432 
L 287.612706 99.453831 
L 288.180284 105.379594 
L 288.747862 89.262405 
L 289.883017 99.051344 
L 290.450595 95.198732 
L 291.018173 95.284823 
L 291.585751 94.339554 
L 292.153329 100.815221 
L 292.720907 101.769124 
L 293.288485 102.146711 
L 293.856062 103.062057 
L 294.42364 86.538372 
L 294.991218 101.414157 
L 295.558796 104.730402 
L 296.126374 102.215205 
L 296.693952 89.478214 
L 297.26153 97.897426 
L 297.829108 98.801126 
L 298.396685 99.262661 
L 298.964263 89.6096 
L 299.531841 88.877263 
L 300.099419 100.143832 
L 300.666997 95.558166 
L 301.234575 97.280489 
L 301.802153 106.414684 
L 302.369731 105.375568 
L 302.937308 106.297356 
L 303.504886 95.885051 
L 304.640042 88.620244 
L 305.20762 105.721768 
L 305.775198 105.198435 
L 306.342776 100.146936 
L 306.910354 99.796393 
L 307.477932 91.185703 
L 308.045509 93.766903 
L 308.613087 98.715463 
L 309.180665 95.667305 
L 309.748243 94.281994 
L 310.315821 80.573779 
L 310.883399 91.028551 
L 311.450977 95.515339 
L 312.586132 101.578163 
L 313.15371 98.51078 
L 313.721288 98.544922 
L 314.288866 103.636915 
L 314.856444 103.301034 
L 315.424022 90.100945 
L 315.9916 100.14868 
L 316.559178 98.99952 
L 317.126755 104.339266 
L 317.694333 96.746825 
L 318.261911 96.678933 
L 318.829489 100.851264 
L 319.397067 98.132845 
L 319.964645 93.097803 
L 320.532223 99.52735 
L 321.099801 97.949459 
L 321.667378 95.261749 
L 322.234956 101.161163 
L 322.802534 101.52423 
L 323.370112 98.495547 
L 323.93769 82.943254 
L 325.072846 92.807149 
L 325.640424 94.490229 
L 326.208001 101.23817 
L 326.775579 103.266843 
L 327.343157 95.898998 
L 327.910735 93.863932 
L 328.478313 94.72624 
L 329.045891 103.235857 
L 329.613469 97.835128 
L 330.181047 101.050067 
L 330.748624 85.51591 
L 331.316202 85.893431 
L 331.88378 91.478345 
L 332.451358 101.156911 
L 333.018936 100.870784 
L 333.586514 103.236967 
L 334.72167 110.756 
L 335.289247 110.679292 
L 335.856825 101.941401 
L 336.424403 100.133247 
L 336.991981 98.831711 
L 337.559559 96.068005 
L 338.127137 99.990723 
L 338.694715 98.497326 
L 339.262293 89.090595 
L 339.82987 82.612402 
L 340.397448 82.750004 
L 340.965026 104.407821 
L 341.532604 100.537663 
L 342.100182 101.159812 
L 343.235338 93.095727 
L 343.802916 92.937765 
L 344.370493 109.220798 
L 344.938071 84.433627 
L 345.505649 96.910847 
L 346.073227 101.491586 
L 346.640805 102.194804 
L 347.208383 95.038682 
L 347.775961 106.284244 
L 348.343539 98.036367 
L 348.911116 102.123557 
L 349.478694 98.190025 
L 350.046272 103.297695 
L 350.61385 101.844852 
L 351.181428 89.690342 
L 351.749006 91.261849 
L 352.316584 78.851427 
L 352.884162 103.056988 
L 353.45174 102.271287 
L 354.019317 101.200887 
L 354.586895 97.234107 
L 355.154473 106.113998 
L 356.289629 99.015686 
L 356.857207 93.005385 
L 357.424785 99.487605 
L 357.992363 96.111896 
L 358.55994 87.896875 
L 359.127518 92.20456 
L 359.695096 103.493048 
L 360.262674 105.317989 
L 360.830252 104.137959 
L 361.39783 95.314259 
L 361.965408 95.006974 
L 362.532986 89.841655 
L 363.100563 106.610465 
L 363.668141 109.346371 
L 364.235719 105.985763 
L 365.370875 83.336633 
L 365.938453 82.713996 
L 366.506031 108.584366 
L 367.073609 87.719545 
L 367.641186 72.929821 
L 368.208764 102.580939 
L 368.776342 91.409657 
L 369.34392 101.725576 
L 369.911498 106.898548 
L 370.479076 103.735497 
L 371.046654 103.196928 
L 372.181809 105.907912 
L 372.749387 103.497161 
L 373.316965 103.914602 
L 373.884543 102.315416 
L 374.452121 101.787066 
L 375.019699 97.472643 
L 375.587277 90.189612 
L 376.154855 94.069827 
L 376.722432 103.473923 
L 377.29001 105.62914 
L 377.857588 106.264882 
L 378.425166 96.457588 
L 380.1279 105.953232 
L 380.695478 99.454957 
L 381.263055 99.978297 
L 381.830633 105.2586 
L 382.398211 108.081957 
L 382.965789 104.978171 
L 383.533367 73.092561 
L 384.100945 96.800864 
L 384.668523 89.211498 
L 384.668523 89.211498 
" style="fill:none;stroke:#1f77b4;stroke-linecap:square;stroke-width:1.5;"/>
   </g>
   <g id="line2d_15">
    <path clip-path="url(#pfaa826d90a)" d="M 60.013977 159.990465 
L 61.149133 276.334125 
L 61.716711 223.935266 
L 62.284289 243.903834 
L 62.851867 250.166787 
L 63.419445 179.701263 
L 63.987022 199.544758 
L 64.5546 205.513739 
L 65.122178 135.330023 
L 65.689756 167.023455 
L 66.257334 177.704264 
L 66.824912 100.627904 
L 67.39249 143.542375 
L 67.960068 166.432299 
L 68.527645 97.299643 
L 69.095223 142.11506 
L 69.662801 169.898881 
L 70.230379 128.202311 
L 70.797957 169.326949 
L 71.365535 199.361117 
L 71.933113 153.114157 
L 72.500691 191.638225 
L 73.068268 218.817847 
L 73.635846 152.905788 
L 74.203424 185.075656 
L 74.771002 208.137223 
L 75.33858 201.384074 
L 75.906158 230.192728 
L 76.473736 252.280113 
L 77.041314 194.71313 
L 77.608891 214.162699 
L 78.176469 224.654714 
L 78.744047 183.025824 
L 79.311625 197.322664 
L 79.879203 205.086834 
L 80.446781 232.870748 
L 81.014359 243.907682 
L 81.581937 248.852394 
L 82.149514 175.601896 
L 82.717092 179.661891 
L 83.28467 178.447395 
L 83.852248 115.519202 
L 84.419826 110.934344 
L 84.987404 103.465475 
L 85.554982 179.76824 
L 86.12256 174.980286 
L 86.690137 177.189586 
L 87.257715 197.442575 
L 87.825293 204.139848 
L 88.392871 204.187583 
L 88.960449 69.566581 
L 89.528027 59.539576 
L 90.095605 58.513217 
L 90.663183 63.658001 
L 91.23076 57.954865 
L 91.798338 60.239117 
L 92.365916 53.530918 
L 92.933494 49.471738 
L 93.501072 50.695235 
L 94.06865 47.509069 
L 94.636228 47.186376 
L 95.203806 49.363557 
L 95.771384 43.636517 
L 96.338961 44.393487 
L 96.906539 46.010799 
L 97.474117 42.547362 
L 98.041695 43.698091 
L 98.609273 44.113331 
L 99.176851 37.623548 
L 99.744429 38.975134 
L 100.312007 39.765094 
L 100.879584 39.845059 
L 101.447162 40.90474 
L 102.01474 41.369324 
L 102.582318 43.985038 
L 103.149896 44.937408 
L 103.717474 45.450763 
L 104.285052 37.237505 
L 104.85263 38.882162 
L 105.420207 39.939993 
L 105.987785 34.414125 
L 106.555363 36.360179 
L 107.122941 37.367426 
L 107.690519 39.826483 
L 108.258097 41.581838 
L 108.825675 41.884937 
L 109.393253 47.429677 
L 109.96083 48.916272 
L 110.528408 49.47122 
L 111.095986 55.330308 
L 111.663564 56.952226 
L 112.231142 57.647455 
L 112.79872 52.768971 
L 113.366298 55.869159 
L 113.933876 56.531825 
L 114.501453 60.000941 
L 115.069031 62.321308 
L 115.636609 63.43372 
L 116.204187 57.281561 
L 116.771765 60.561069 
L 117.339343 61.253968 
L 117.906921 59.764264 
L 118.474499 63.606399 
L 119.042076 64.965164 
L 119.609654 81.710025 
L 120.177232 85.650904 
L 120.74481 87.121347 
L 121.312388 84.695056 
L 121.879966 86.314385 
L 122.447544 86.697153 
L 123.015122 129.756235 
L 123.582699 134.559583 
L 124.150277 135.891742 
L 124.717855 173.639727 
L 125.285433 174.724154 
L 125.853011 175.238055 
L 126.420589 154.904555 
L 126.988167 158.888044 
L 127.555745 159.314792 
L 128.123322 152.076901 
L 128.6909 153.751328 
L 129.258478 154.33549 
L 129.826056 168.900951 
L 130.393634 170.638451 
L 130.961212 171.089473 
L 131.52879 133.936715 
L 132.096368 136.269441 
L 132.663945 136.144775 
L 133.231523 102.477914 
L 133.799101 105.366347 
L 134.366679 106.34177 
L 135.501835 121.21218 
L 136.069413 123.844176 
L 136.636991 98.717522 
L 137.204568 104.792083 
L 137.772146 106.769942 
L 138.339724 104.353217 
L 138.907302 108.645837 
L 139.47488 111.056198 
L 140.042458 93.891139 
L 140.610036 99.40091 
L 141.177614 102.298075 
L 141.745192 78.981449 
L 142.312769 81.516643 
L 142.880347 82.535009 
L 143.447925 107.66627 
L 144.015503 109.934942 
L 144.583081 110.983596 
L 145.150659 112.685073 
L 145.718237 117.84945 
L 146.285815 119.468519 
L 146.853392 105.072148 
L 147.42097 109.1549 
L 147.988548 110.749954 
L 148.556126 109.9703 
L 149.123704 113.09824 
L 149.691282 113.86324 
L 150.25886 123.05405 
L 150.826438 125.495864 
L 151.394015 126.351912 
L 151.961593 161.00032 
L 152.529171 166.796057 
L 153.096749 168.312255 
L 153.664327 130.381231 
L 154.231905 134.522227 
L 154.799483 136.854843 
L 155.367061 122.717555 
L 155.934638 127.806887 
L 156.502216 128.899446 
L 157.069794 119.930772 
L 157.637372 120.082118 
L 158.20495 121.317327 
L 158.772528 116.225219 
L 159.340106 117.944698 
L 159.907684 118.11869 
L 160.475261 127.342877 
L 161.042839 127.476498 
L 161.610417 127.955199 
L 162.177995 159.503456 
L 163.313151 159.954127 
L 163.880729 178.692749 
L 164.448307 182.759747 
L 165.015884 183.155171 
L 165.583462 194.236963 
L 166.15104 195.583869 
L 166.718618 195.201655 
L 167.286196 214.641151 
L 167.853774 214.694732 
L 168.421352 215.392756 
L 168.98893 244.483393 
L 169.556507 243.028358 
L 170.124085 242.704093 
L 170.691663 232.374211 
L 171.259241 232.616004 
L 171.826819 232.015217 
L 172.394397 208.485846 
L 172.961975 205.70306 
L 173.529553 204.737258 
L 174.09713 134.614404 
L 174.664708 133.697114 
L 175.232286 132.304343 
L 175.799864 152.883105 
L 176.367442 154.827494 
L 176.93502 155.245398 
L 177.502598 190.124802 
L 178.070176 189.574045 
L 178.637753 189.756382 
L 179.205331 176.880242 
L 180.340487 171.830883 
L 180.908065 161.482943 
L 182.043221 160.707341 
L 182.610799 158.748003 
L 183.178377 159.346448 
L 183.745954 160.841499 
L 184.313532 149.788005 
L 184.88111 147.359957 
L 185.448688 147.895052 
L 186.016266 145.823444 
L 186.583844 145.722145 
L 187.151422 145.243444 
L 187.719 165.022053 
L 188.286577 167.622262 
L 188.854155 169.182634 
L 189.421733 182.82369 
L 190.556889 178.803493 
L 191.124467 182.934165 
L 191.692045 180.529244 
L 192.259623 180.43666 
L 192.8272 165.90874 
L 193.394778 167.804034 
L 193.962356 168.773916 
L 194.529934 149.636215 
L 195.097512 149.301645 
L 195.66509 149.81389 
L 196.232668 157.204644 
L 196.800246 157.888864 
L 197.367823 158.166209 
L 197.935401 162.844021 
L 199.070557 164.177975 
L 199.638135 152.648833 
L 200.205713 153.641852 
L 200.773291 153.859879 
L 201.340869 125.549038 
L 201.908446 123.61823 
L 202.476024 123.138308 
L 203.043602 136.596722 
L 203.61118 139.982228 
L 204.178758 141.92473 
L 204.746336 109.010252 
L 205.313914 108.046744 
L 205.881492 108.452381 
L 206.449069 112.027366 
L 207.584225 114.982905 
L 208.151803 99.270397 
L 208.719381 101.364818 
L 209.286959 102.536122 
L 209.854537 106.814329 
L 210.422115 109.003628 
L 210.989692 110.168715 
L 211.55727 96.977727 
L 212.124848 97.365454 
L 212.692426 97.916128 
L 213.260004 94.205931 
L 214.39516 95.027769 
L 214.962738 98.467838 
L 215.530315 99.44685 
L 216.097893 100.117287 
L 216.665471 82.252447 
L 217.233049 85.785099 
L 217.800627 86.882654 
L 218.368205 99.005394 
L 218.935783 99.418172 
L 219.503361 100.510158 
L 220.070938 104.976122 
L 220.638516 106.328282 
L 221.206094 106.180526 
L 221.773672 121.364692 
L 222.34125 121.500477 
L 222.908828 121.966764 
L 223.476406 154.667822 
L 224.043984 155.197718 
L 224.611562 154.462487 
L 225.179139 137.306309 
L 225.746717 135.992504 
L 226.314295 136.231642 
L 226.881873 137.989031 
L 227.449451 139.298304 
L 228.017029 140.010962 
L 228.584607 150.903118 
L 229.152185 151.894065 
L 229.719762 151.38613 
L 230.28734 121.213734 
L 230.854918 121.957513 
L 231.422496 121.540016 
L 231.990074 135.046425 
L 232.557652 135.01623 
L 233.12523 134.838204 
L 233.692808 143.660639 
L 234.260385 143.354876 
L 234.827963 143.431104 
L 235.395541 125.244515 
L 236.530697 123.19102 
L 237.098275 116.563545 
L 237.665853 115.769682 
L 238.233431 115.9063 
L 238.801008 140.314634 
L 239.368586 141.160007 
L 239.936164 141.352576 
L 240.503742 134.614367 
L 241.07132 131.196131 
L 241.638898 131.07115 
L 242.206476 103.975093 
L 242.774054 105.45869 
L 243.341631 105.791115 
L 243.909209 97.631068 
L 244.476787 97.130701 
L 245.044365 97.437131 
L 245.611943 91.139139 
L 246.179521 91.398962 
L 246.747099 91.814405 
L 247.314677 95.855362 
L 247.882254 94.873666 
L 248.449832 94.264915 
L 249.01741 87.443577 
L 249.584988 87.860741 
L 250.152566 87.963982 
L 250.720144 93.587244 
L 251.287722 95.59478 
L 252.422877 98.031543 
L 252.990455 98.421731 
L 253.558033 98.554223 
L 254.125611 101.966668 
L 255.260767 104.417104 
L 255.828345 105.452973 
L 256.395923 105.478525 
L 256.9635 106.173051 
L 257.531078 112.863987 
L 258.098656 115.818398 
L 258.666234 116.742755 
L 259.233812 114.653274 
L 259.80139 117.277388 
L 260.368968 118.080336 
L 260.936546 81.765901 
L 261.504123 80.461883 
L 262.071701 80.646866 
L 262.639279 93.170376 
L 263.206857 95.126403 
L 263.774435 95.437699 
L 264.342013 112.287818 
L 264.909591 113.515089 
L 265.477169 114.191761 
L 266.044747 105.796185 
L 266.612324 108.129041 
L 267.179902 108.907843 
L 267.74748 101.928887 
L 268.315058 102.156017 
L 268.882636 102.107154 
L 269.450214 110.506967 
L 270.017792 111.483038 
L 270.58537 111.856444 
L 271.152947 112.721485 
L 271.720525 113.260003 
L 272.288103 113.029413 
L 272.855681 113.459972 
L 273.423259 115.037967 
L 273.990837 114.363959 
L 274.558415 126.892817 
L 275.125993 126.563889 
L 275.69357 126.085502 
L 276.261148 129.53917 
L 276.828726 132.14221 
L 277.396304 132.649904 
L 277.963882 147.236105 
L 278.53146 148.541233 
L 279.099038 148.830252 
L 279.666616 116.656481 
L 280.234193 117.20066 
L 280.801771 117.323513 
L 281.369349 140.12486 
L 281.936927 140.393305 
L 282.504505 139.995587 
L 283.072083 109.11921 
L 283.639661 108.63679 
L 284.207239 108.361832 
L 284.774816 136.237932 
L 285.342394 135.802304 
L 285.909972 136.412535 
L 286.47755 147.659245 
L 287.045128 147.473263 
L 287.612706 146.705543 
L 288.180284 131.672723 
L 288.747862 131.779535 
L 289.315439 132.172979 
L 290.450595 127.885243 
L 291.018173 128.465316 
L 291.585751 106.036747 
L 292.153329 104.669342 
L 292.720907 104.054004 
L 293.288485 109.48997 
L 293.856062 110.590337 
L 294.42364 110.928682 
L 294.991218 116.957008 
L 295.558796 117.322625 
L 296.126374 117.040137 
L 296.693952 135.276145 
L 297.26153 136.123868 
L 297.829108 136.31812 
L 298.964263 132.810778 
L 299.531841 132.049441 
L 300.099419 111.627242 
L 301.234575 112.415352 
L 301.802153 123.048814 
L 302.369731 123.057861 
L 302.937308 123.207893 
L 303.504886 153.732104 
L 304.072464 153.578427 
L 304.640042 153.77625 
L 305.20762 129.153312 
L 305.775198 128.121273 
L 306.342776 127.772566 
L 306.910354 145.532278 
L 307.477932 146.82007 
L 308.045509 146.688891 
L 308.613087 163.430885 
L 309.748243 161.982922 
L 310.315821 143.89319 
L 310.883399 141.665185 
L 311.450977 141.753235 
L 312.018555 152.483185 
L 312.586132 153.397607 
L 313.15371 153.527954 
L 313.721288 167.33674 
L 314.288866 166.869769 
L 314.856444 166.717849 
L 315.424022 136.514185 
L 315.9916 135.328025 
L 316.559178 135.552342 
L 317.126755 136.37864 
L 317.694333 137.517694 
L 318.261911 137.17378 
L 318.829489 155.086077 
L 319.397067 155.789984 
L 319.964645 156.202004 
L 320.532223 129.20656 
L 321.099801 123.642652 
L 321.667378 122.85371 
L 322.234956 130.756858 
L 322.802534 132.203229 
L 323.370112 132.13838 
L 323.93769 168.134933 
L 324.505268 167.209354 
L 325.072846 167.111145 
L 325.640424 128.860888 
L 326.208001 127.719059 
L 326.775579 127.814677 
L 327.343157 128.871397 
L 327.910735 128.29928 
L 328.478313 128.137536 
L 329.045891 153.015302 
L 329.613469 153.716877 
L 330.181047 153.909649 
L 330.748624 162.713934 
L 331.316202 163.933157 
L 331.88378 164.666168 
L 332.451358 160.784716 
L 333.018936 163.085102 
L 333.586514 163.140829 
L 334.154092 147.351594 
L 334.72167 145.614871 
L 335.289247 146.137089 
L 335.856825 154.818965 
L 336.424403 151.632206 
L 336.991981 151.625065 
L 337.559559 141.221212 
L 338.127137 140.805454 
L 338.694715 140.55775 
L 339.262293 154.173098 
L 339.82987 154.297228 
L 340.397448 154.2126 
L 340.965026 171.44743 
L 341.532604 171.402628 
L 342.100182 171.783148 
L 342.66776 179.245338 
L 343.235338 182.420052 
L 343.802916 184.180799 
L 344.370493 151.627174 
L 344.938071 148.214877 
L 345.505649 148.671968 
L 346.073227 176.892121 
L 346.640805 174.326464 
L 347.208383 174.087234 
L 347.775961 172.031999 
L 348.343539 173.738907 
L 348.911116 173.456132 
L 349.478694 149.096125 
L 350.046272 147.717304 
L 350.61385 148.225497 
L 351.181428 193.42001 
L 351.749006 192.938487 
L 352.316584 191.973129 
L 352.884162 191.318872 
L 353.45174 191.646107 
L 354.019317 191.446804 
L 354.586895 192.853989 
L 355.154473 190.836508 
L 355.722051 189.646083 
L 356.289629 185.926949 
L 356.857207 185.871749 
L 357.424785 185.538186 
L 359.127518 189.913602 
L 359.695096 176.953316 
L 360.262674 175.914394 
L 360.830252 175.467424 
L 361.39783 189.201962 
L 361.965408 188.332684 
L 362.532986 188.148164 
L 363.100563 157.913546 
L 363.668141 157.388257 
L 364.235719 157.377156 
L 364.803297 158.155959 
L 365.370875 158.054827 
L 365.938453 157.455049 
L 366.506031 146.539284 
L 367.073609 144.881102 
L 367.641186 144.663352 
L 368.208764 176.958459 
L 368.776342 175.679623 
L 369.34392 175.453917 
L 369.911498 162.381898 
L 370.479076 159.174269 
L 371.046654 158.908748 
L 371.614232 149.993488 
L 372.181809 147.202875 
L 372.749387 146.649038 
L 373.316965 157.099183 
L 373.884543 155.550125 
L 374.452121 154.94278 
L 375.587277 153.165334 
L 376.154855 153.399162 
L 376.722432 167.849022 
L 377.29001 167.095844 
L 377.857588 167.846173 
L 378.425166 139.585509 
L 378.992744 134.361371 
L 379.560322 132.096029 
L 380.1279 156.983138 
L 380.695478 155.567498 
L 381.263055 155.404422 
L 381.830633 167.318164 
L 382.398211 167.307192 
L 382.965789 167.85461 
L 383.533367 132.992671 
L 384.100945 132.836681 
L 384.668523 133.827127 
L 384.668523 133.827127 
" style="fill:none;stroke:#ff7f0e;stroke-linecap:square;stroke-width:1.5;"/>
   </g>
   <g id="patch_3">
    <path d="M 43.78125 288.430125 
L 43.78125 22.318125 
" style="fill:none;stroke:#000000;stroke-linecap:square;stroke-linejoin:miter;stroke-width:0.8;"/>
   </g>
   <g id="patch_4">
    <path d="M 400.90125 288.430125 
L 400.90125 22.318125 
" style="fill:none;stroke:#000000;stroke-linecap:square;stroke-linejoin:miter;stroke-width:0.8;"/>
   </g>
   <g id="patch_5">
    <path d="M 43.78125 288.430125 
L 400.90125 288.430125 
" style="fill:none;stroke:#000000;stroke-linecap:square;stroke-linejoin:miter;stroke-width:0.8;"/>
   </g>
   <g id="patch_6">
    <path d="M 43.78125 22.318125 
L 400.90125 22.318125 
" style="fill:none;stroke:#000000;stroke-linecap:square;stroke-linejoin:miter;stroke-width:0.8;"/>
   </g>
   <g id="text_16">
    <!-- Entropy and Loss. -->
    <defs>
     <path d="M 9.1875 72.90625 
L 59.90625 72.90625 
L 59.90625 58.6875 
L 27.984375 58.6875 
L 27.984375 45.125 
L 58.015625 45.125 
L 58.015625 30.90625 
L 27.984375 30.90625 
L 27.984375 14.203125 
L 60.984375 14.203125 
L 60.984375 0 
L 9.1875 0 
z
" id="DejaVuSans-Bold-69"/>
     <path d="M 63.375 33.296875 
L 63.375 0 
L 45.796875 0 
L 45.796875 5.421875 
L 45.796875 25.484375 
Q 45.796875 32.5625 45.484375 35.25 
Q 45.171875 37.9375 44.390625 39.203125 
Q 43.359375 40.921875 41.59375 41.875 
Q 39.84375 42.828125 37.59375 42.828125 
Q 32.125 42.828125 29 38.59375 
Q 25.875 34.375 25.875 26.90625 
L 25.875 0 
L 8.40625 0 
L 8.40625 54.6875 
L 25.875 54.6875 
L 25.875 46.6875 
Q 29.828125 51.46875 34.265625 53.734375 
Q 38.71875 56 44.09375 56 
Q 53.5625 56 58.46875 50.1875 
Q 63.375 44.390625 63.375 33.296875 
z
" id="DejaVuSans-Bold-110"/>
     <path d="M 27.484375 70.21875 
L 27.484375 54.6875 
L 45.515625 54.6875 
L 45.515625 42.1875 
L 27.484375 42.1875 
L 27.484375 19 
Q 27.484375 15.1875 29 13.84375 
Q 30.515625 12.5 35.015625 12.5 
L 44 12.5 
L 44 0 
L 29 0 
Q 18.65625 0 14.328125 4.3125 
Q 10.015625 8.640625 10.015625 19 
L 10.015625 42.1875 
L 1.3125 42.1875 
L 1.3125 54.6875 
L 10.015625 54.6875 
L 10.015625 70.21875 
z
" id="DejaVuSans-Bold-116"/>
     <path d="M 49.03125 39.796875 
Q 46.734375 40.875 44.453125 41.375 
Q 42.1875 41.890625 39.890625 41.890625 
Q 33.15625 41.890625 29.515625 37.5625 
Q 25.875 33.25 25.875 25.203125 
L 25.875 0 
L 8.40625 0 
L 8.40625 54.6875 
L 25.875 54.6875 
L 25.875 45.703125 
Q 29.25 51.078125 33.609375 53.53125 
Q 37.984375 56 44.09375 56 
Q 44.96875 56 45.984375 55.921875 
Q 47.015625 55.859375 48.96875 55.609375 
z
" id="DejaVuSans-Bold-114"/>
     <path d="M 34.421875 43.5 
Q 28.609375 43.5 25.5625 39.328125 
Q 22.515625 35.15625 22.515625 27.296875 
Q 22.515625 19.4375 25.5625 15.25 
Q 28.609375 11.078125 34.421875 11.078125 
Q 40.140625 11.078125 43.15625 15.25 
Q 46.1875 19.4375 46.1875 27.296875 
Q 46.1875 35.15625 43.15625 39.328125 
Q 40.140625 43.5 34.421875 43.5 
z
M 34.421875 56 
Q 48.53125 56 56.46875 48.375 
Q 64.40625 40.765625 64.40625 27.296875 
Q 64.40625 13.8125 56.46875 6.1875 
Q 48.53125 -1.421875 34.421875 -1.421875 
Q 20.265625 -1.421875 12.28125 6.1875 
Q 4.296875 13.8125 4.296875 27.296875 
Q 4.296875 40.765625 12.28125 48.375 
Q 20.265625 56 34.421875 56 
z
" id="DejaVuSans-Bold-111"/>
     <path d="M 25.875 7.90625 
L 25.875 -20.796875 
L 8.40625 -20.796875 
L 8.40625 54.6875 
L 25.875 54.6875 
L 25.875 46.6875 
Q 29.5 51.46875 33.890625 53.734375 
Q 38.28125 56 44 56 
Q 54.109375 56 60.59375 47.96875 
Q 67.09375 39.9375 67.09375 27.296875 
Q 67.09375 14.65625 60.59375 6.609375 
Q 54.109375 -1.421875 44 -1.421875 
Q 38.28125 -1.421875 33.890625 0.84375 
Q 29.5 3.125 25.875 7.90625 
z
M 37.5 43.3125 
Q 31.890625 43.3125 28.875 39.1875 
Q 25.875 35.0625 25.875 27.296875 
Q 25.875 19.53125 28.875 15.40625 
Q 31.890625 11.28125 37.5 11.28125 
Q 43.109375 11.28125 46.0625 15.375 
Q 49.03125 19.484375 49.03125 27.296875 
Q 49.03125 35.109375 46.0625 39.203125 
Q 43.109375 43.3125 37.5 43.3125 
z
" id="DejaVuSans-Bold-112"/>
     <path d="M 1.21875 54.6875 
L 18.703125 54.6875 
L 33.40625 17.578125 
L 45.90625 54.6875 
L 63.375 54.6875 
L 40.375 -5.171875 
Q 36.921875 -14.3125 32.296875 -17.9375 
Q 27.6875 -21.578125 20.125 -21.578125 
L 10.015625 -21.578125 
L 10.015625 -10.109375 
L 15.484375 -10.109375 
Q 19.921875 -10.109375 21.9375 -8.6875 
Q 23.96875 -7.28125 25.09375 -3.609375 
L 25.59375 -2.09375 
z
" id="DejaVuSans-Bold-121"/>
     <path id="DejaVuSans-Bold-32"/>
     <path d="M 32.90625 24.609375 
Q 27.4375 24.609375 24.671875 22.75 
Q 21.921875 20.90625 21.921875 17.28125 
Q 21.921875 13.96875 24.140625 12.078125 
Q 26.375 10.203125 30.328125 10.203125 
Q 35.25 10.203125 38.625 13.734375 
Q 42 17.28125 42 22.609375 
L 42 24.609375 
z
M 59.625 31.203125 
L 59.625 0 
L 42 0 
L 42 8.109375 
Q 38.484375 3.125 34.078125 0.84375 
Q 29.6875 -1.421875 23.390625 -1.421875 
Q 14.890625 -1.421875 9.59375 3.53125 
Q 4.296875 8.5 4.296875 16.40625 
Q 4.296875 26.03125 10.90625 30.515625 
Q 17.53125 35.015625 31.6875 35.015625 
L 42 35.015625 
L 42 36.375 
Q 42 40.53125 38.71875 42.453125 
Q 35.453125 44.390625 28.515625 44.390625 
Q 22.90625 44.390625 18.0625 43.265625 
Q 13.234375 42.140625 9.078125 39.890625 
L 9.078125 53.21875 
Q 14.703125 54.59375 20.359375 55.296875 
Q 26.03125 56 31.6875 56 
Q 46.484375 56 53.046875 50.171875 
Q 59.625 44.34375 59.625 31.203125 
z
" id="DejaVuSans-Bold-97"/>
     <path d="M 45.609375 46.6875 
L 45.609375 75.984375 
L 63.1875 75.984375 
L 63.1875 0 
L 45.609375 0 
L 45.609375 7.90625 
Q 42 3.078125 37.640625 0.828125 
Q 33.296875 -1.421875 27.59375 -1.421875 
Q 17.484375 -1.421875 10.984375 6.609375 
Q 4.5 14.65625 4.5 27.296875 
Q 4.5 39.9375 10.984375 47.96875 
Q 17.484375 56 27.59375 56 
Q 33.25 56 37.625 53.734375 
Q 42 51.46875 45.609375 46.6875 
z
M 34.078125 11.28125 
Q 39.703125 11.28125 42.65625 15.375 
Q 45.609375 19.484375 45.609375 27.296875 
Q 45.609375 35.109375 42.65625 39.203125 
Q 39.703125 43.3125 34.078125 43.3125 
Q 28.515625 43.3125 25.5625 39.203125 
Q 22.609375 35.109375 22.609375 27.296875 
Q 22.609375 19.484375 25.5625 15.375 
Q 28.515625 11.28125 34.078125 11.28125 
z
" id="DejaVuSans-Bold-100"/>
     <path d="M 9.1875 72.90625 
L 27.984375 72.90625 
L 27.984375 14.203125 
L 60.984375 14.203125 
L 60.984375 0 
L 9.1875 0 
z
" id="DejaVuSans-Bold-76"/>
     <path d="M 51.125 52.984375 
L 51.125 39.703125 
Q 45.515625 42.046875 40.28125 43.21875 
Q 35.0625 44.390625 30.421875 44.390625 
Q 25.4375 44.390625 23.015625 43.140625 
Q 20.609375 41.890625 20.609375 39.3125 
Q 20.609375 37.203125 22.4375 36.078125 
Q 24.265625 34.96875 29 34.421875 
L 32.078125 33.984375 
Q 45.515625 32.28125 50.140625 28.375 
Q 54.78125 24.46875 54.78125 16.109375 
Q 54.78125 7.375 48.328125 2.96875 
Q 41.890625 -1.421875 29.109375 -1.421875 
Q 23.6875 -1.421875 17.890625 -0.5625 
Q 12.109375 0.296875 6 2 
L 6 15.28125 
Q 11.234375 12.75 16.71875 11.46875 
Q 22.21875 10.203125 27.875 10.203125 
Q 33.015625 10.203125 35.59375 11.609375 
Q 38.1875 13.03125 38.1875 15.828125 
Q 38.1875 18.171875 36.40625 19.3125 
Q 34.625 20.453125 29.296875 21.09375 
L 26.21875 21.484375 
Q 14.546875 22.953125 9.859375 26.90625 
Q 5.171875 30.859375 5.171875 38.921875 
Q 5.171875 47.609375 11.125 51.796875 
Q 17.09375 56 29.390625 56 
Q 34.234375 56 39.546875 55.265625 
Q 44.875 54.546875 51.125 52.984375 
z
" id="DejaVuSans-Bold-115"/>
     <path d="M 10.203125 18.890625 
L 27.78125 18.890625 
L 27.78125 0 
L 10.203125 0 
z
" id="DejaVuSans-Bold-46"/>
    </defs>
    <g transform="translate(161.657813 16.318125)scale(0.12 -0.12)">
     <use xlink:href="#DejaVuSans-Bold-69"/>
     <use x="68.310547" xlink:href="#DejaVuSans-Bold-110"/>
     <use x="139.501953" xlink:href="#DejaVuSans-Bold-116"/>
     <use x="187.304688" xlink:href="#DejaVuSans-Bold-114"/>
     <use x="236.621094" xlink:href="#DejaVuSans-Bold-111"/>
     <use x="305.322266" xlink:href="#DejaVuSans-Bold-112"/>
     <use x="376.904297" xlink:href="#DejaVuSans-Bold-121"/>
     <use x="442.089844" xlink:href="#DejaVuSans-Bold-32"/>
     <use x="476.904297" xlink:href="#DejaVuSans-Bold-97"/>
     <use x="544.384766" xlink:href="#DejaVuSans-Bold-110"/>
     <use x="615.576172" xlink:href="#DejaVuSans-Bold-100"/>
     <use x="687.158203" xlink:href="#DejaVuSans-Bold-32"/>
     <use x="721.972656" xlink:href="#DejaVuSans-Bold-76"/>
     <use x="785.693359" xlink:href="#DejaVuSans-Bold-111"/>
     <use x="854.394531" xlink:href="#DejaVuSans-Bold-115"/>
     <use x="913.916016" xlink:href="#DejaVuSans-Bold-115"/>
     <use x="973.4375" xlink:href="#DejaVuSans-Bold-46"/>
    </g>
   </g>
   <g id="legend_1">
    <g id="patch_7">
     <path d="M 20.061562 353.02505 
L 428.620938 353.02505 
Q 430.620938 353.02505 430.620938 351.02505 
L 430.620938 337.346925 
Q 430.620938 335.346925 428.620938 335.346925 
L 20.061562 335.346925 
Q 18.061562 335.346925 18.061562 337.346925 
L 18.061562 351.02505 
Q 18.061562 353.02505 20.061562 353.02505 
z
" style="fill:#4c4c4c;opacity:0.5;stroke:#4c4c4c;stroke-linejoin:miter;"/>
    </g>
    <g id="patch_8">
     <path d="M 18.061562 351.02505 
L 426.620938 351.02505 
Q 428.620938 351.02505 428.620938 349.02505 
L 428.620938 335.346925 
Q 428.620938 333.346925 426.620938 333.346925 
L 18.061562 333.346925 
Q 16.061562 333.346925 16.061562 335.346925 
L 16.061562 349.02505 
Q 16.061562 351.02505 18.061562 351.02505 
z
" style="fill:#ffffff;stroke:#cccccc;stroke-linejoin:miter;"/>
    </g>
    <g id="line2d_16">
     <path d="M 20.061562 341.445362 
L 40.061562 341.445362 
" style="fill:none;stroke:#1f77b4;stroke-linecap:square;stroke-width:1.5;"/>
    </g>
    <g id="line2d_17"/>
    <g id="text_17">
     <!-- Policy Loss (Normalized) -->
     <defs>
      <path d="M 19.671875 64.796875 
L 19.671875 37.40625 
L 32.078125 37.40625 
Q 38.96875 37.40625 42.71875 40.96875 
Q 46.484375 44.53125 46.484375 51.125 
Q 46.484375 57.671875 42.71875 61.234375 
Q 38.96875 64.796875 32.078125 64.796875 
z
M 9.8125 72.90625 
L 32.078125 72.90625 
Q 44.34375 72.90625 50.609375 67.359375 
Q 56.890625 61.8125 56.890625 51.125 
Q 56.890625 40.328125 50.609375 34.8125 
Q 44.34375 29.296875 32.078125 29.296875 
L 19.671875 29.296875 
L 19.671875 0 
L 9.8125 0 
z
" id="DejaVuSans-80"/>
      <path d="M 9.421875 75.984375 
L 18.40625 75.984375 
L 18.40625 0 
L 9.421875 0 
z
" id="DejaVuSans-108"/>
      <path d="M 9.421875 54.6875 
L 18.40625 54.6875 
L 18.40625 0 
L 9.421875 0 
z
M 9.421875 75.984375 
L 18.40625 75.984375 
L 18.40625 64.59375 
L 9.421875 64.59375 
z
" id="DejaVuSans-105"/>
      <path d="M 32.171875 -5.078125 
Q 28.375 -14.84375 24.75 -17.8125 
Q 21.140625 -20.796875 15.09375 -20.796875 
L 7.90625 -20.796875 
L 7.90625 -13.28125 
L 13.1875 -13.28125 
Q 16.890625 -13.28125 18.9375 -11.515625 
Q 21 -9.765625 23.484375 -3.21875 
L 25.09375 0.875 
L 2.984375 54.6875 
L 12.5 54.6875 
L 29.59375 11.921875 
L 46.6875 54.6875 
L 56.203125 54.6875 
z
" id="DejaVuSans-121"/>
      <path id="DejaVuSans-32"/>
      <path d="M 31 75.875 
Q 24.46875 64.65625 21.28125 53.65625 
Q 18.109375 42.671875 18.109375 31.390625 
Q 18.109375 20.125 21.3125 9.0625 
Q 24.515625 -2 31 -13.1875 
L 23.1875 -13.1875 
Q 15.875 -1.703125 12.234375 9.375 
Q 8.59375 20.453125 8.59375 31.390625 
Q 8.59375 42.28125 12.203125 53.3125 
Q 15.828125 64.359375 23.1875 75.875 
z
" id="DejaVuSans-40"/>
      <path d="M 9.8125 72.90625 
L 23.09375 72.90625 
L 55.421875 11.921875 
L 55.421875 72.90625 
L 64.984375 72.90625 
L 64.984375 0 
L 51.703125 0 
L 19.390625 60.984375 
L 19.390625 0 
L 9.8125 0 
z
" id="DejaVuSans-78"/>
      <path d="M 41.109375 46.296875 
Q 39.59375 47.171875 37.8125 47.578125 
Q 36.03125 48 33.890625 48 
Q 26.265625 48 22.1875 43.046875 
Q 18.109375 38.09375 18.109375 28.8125 
L 18.109375 0 
L 9.078125 0 
L 9.078125 54.6875 
L 18.109375 54.6875 
L 18.109375 46.1875 
Q 20.953125 51.171875 25.484375 53.578125 
Q 30.03125 56 36.53125 56 
Q 37.453125 56 38.578125 55.875 
Q 39.703125 55.765625 41.0625 55.515625 
z
" id="DejaVuSans-114"/>
      <path d="M 52 44.1875 
Q 55.375 50.25 60.0625 53.125 
Q 64.75 56 71.09375 56 
Q 79.640625 56 84.28125 50.015625 
Q 88.921875 44.046875 88.921875 33.015625 
L 88.921875 0 
L 79.890625 0 
L 79.890625 32.71875 
Q 79.890625 40.578125 77.09375 44.375 
Q 74.3125 48.1875 68.609375 48.1875 
Q 61.625 48.1875 57.5625 43.546875 
Q 53.515625 38.921875 53.515625 30.90625 
L 53.515625 0 
L 44.484375 0 
L 44.484375 32.71875 
Q 44.484375 40.625 41.703125 44.40625 
Q 38.921875 48.1875 33.109375 48.1875 
Q 26.21875 48.1875 22.15625 43.53125 
Q 18.109375 38.875 18.109375 30.90625 
L 18.109375 0 
L 9.078125 0 
L 9.078125 54.6875 
L 18.109375 54.6875 
L 18.109375 46.1875 
Q 21.1875 51.21875 25.484375 53.609375 
Q 29.78125 56 35.6875 56 
Q 41.65625 56 45.828125 52.96875 
Q 50 49.953125 52 44.1875 
z
" id="DejaVuSans-109"/>
      <path d="M 34.28125 27.484375 
Q 23.390625 27.484375 19.1875 25 
Q 14.984375 22.515625 14.984375 16.5 
Q 14.984375 11.71875 18.140625 8.90625 
Q 21.296875 6.109375 26.703125 6.109375 
Q 34.1875 6.109375 38.703125 11.40625 
Q 43.21875 16.703125 43.21875 25.484375 
L 43.21875 27.484375 
z
M 52.203125 31.203125 
L 52.203125 0 
L 43.21875 0 
L 43.21875 8.296875 
Q 40.140625 3.328125 35.546875 0.953125 
Q 30.953125 -1.421875 24.3125 -1.421875 
Q 15.921875 -1.421875 10.953125 3.296875 
Q 6 8.015625 6 15.921875 
Q 6 25.140625 12.171875 29.828125 
Q 18.359375 34.515625 30.609375 34.515625 
L 43.21875 34.515625 
L 43.21875 35.40625 
Q 43.21875 41.609375 39.140625 45 
Q 35.0625 48.390625 27.6875 48.390625 
Q 23 48.390625 18.546875 47.265625 
Q 14.109375 46.140625 10.015625 43.890625 
L 10.015625 52.203125 
Q 14.9375 54.109375 19.578125 55.046875 
Q 24.21875 56 28.609375 56 
Q 40.484375 56 46.34375 49.84375 
Q 52.203125 43.703125 52.203125 31.203125 
z
" id="DejaVuSans-97"/>
      <path d="M 5.515625 54.6875 
L 48.1875 54.6875 
L 48.1875 46.484375 
L 14.40625 7.171875 
L 48.1875 7.171875 
L 48.1875 0 
L 4.296875 0 
L 4.296875 8.203125 
L 38.09375 47.515625 
L 5.515625 47.515625 
z
" id="DejaVuSans-122"/>
      <path d="M 56.203125 29.59375 
L 56.203125 25.203125 
L 14.890625 25.203125 
Q 15.484375 15.921875 20.484375 11.0625 
Q 25.484375 6.203125 34.421875 6.203125 
Q 39.59375 6.203125 44.453125 7.46875 
Q 49.3125 8.734375 54.109375 11.28125 
L 54.109375 2.78125 
Q 49.265625 0.734375 44.1875 -0.34375 
Q 39.109375 -1.421875 33.890625 -1.421875 
Q 20.796875 -1.421875 13.15625 6.1875 
Q 5.515625 13.8125 5.515625 26.8125 
Q 5.515625 40.234375 12.765625 48.109375 
Q 20.015625 56 32.328125 56 
Q 43.359375 56 49.78125 48.890625 
Q 56.203125 41.796875 56.203125 29.59375 
z
M 47.21875 32.234375 
Q 47.125 39.59375 43.09375 43.984375 
Q 39.0625 48.390625 32.421875 48.390625 
Q 24.90625 48.390625 20.390625 44.140625 
Q 15.875 39.890625 15.1875 32.171875 
z
" id="DejaVuSans-101"/>
      <path d="M 45.40625 46.390625 
L 45.40625 75.984375 
L 54.390625 75.984375 
L 54.390625 0 
L 45.40625 0 
L 45.40625 8.203125 
Q 42.578125 3.328125 38.25 0.953125 
Q 33.9375 -1.421875 27.875 -1.421875 
Q 17.96875 -1.421875 11.734375 6.484375 
Q 5.515625 14.40625 5.515625 27.296875 
Q 5.515625 40.1875 11.734375 48.09375 
Q 17.96875 56 27.875 56 
Q 33.9375 56 38.25 53.625 
Q 42.578125 51.265625 45.40625 46.390625 
z
M 14.796875 27.296875 
Q 14.796875 17.390625 18.875 11.75 
Q 22.953125 6.109375 30.078125 6.109375 
Q 37.203125 6.109375 41.296875 11.75 
Q 45.40625 17.390625 45.40625 27.296875 
Q 45.40625 37.203125 41.296875 42.84375 
Q 37.203125 48.484375 30.078125 48.484375 
Q 22.953125 48.484375 18.875 42.84375 
Q 14.796875 37.203125 14.796875 27.296875 
z
" id="DejaVuSans-100"/>
      <path d="M 8.015625 75.875 
L 15.828125 75.875 
Q 23.140625 64.359375 26.78125 53.3125 
Q 30.421875 42.28125 30.421875 31.390625 
Q 30.421875 20.453125 26.78125 9.375 
Q 23.140625 -1.703125 15.828125 -13.1875 
L 8.015625 -13.1875 
Q 14.5 -2 17.703125 9.0625 
Q 20.90625 20.125 20.90625 31.390625 
Q 20.90625 42.671875 17.703125 53.65625 
Q 14.5 64.65625 8.015625 75.875 
z
" id="DejaVuSans-41"/>
     </defs>
     <g transform="translate(48.061562 344.945362)scale(0.1 -0.1)">
      <use xlink:href="#DejaVuSans-80"/>
      <use x="60.255859" xlink:href="#DejaVuSans-111"/>
      <use x="121.4375" xlink:href="#DejaVuSans-108"/>
      <use x="149.220703" xlink:href="#DejaVuSans-105"/>
      <use x="177.003906" xlink:href="#DejaVuSans-99"/>
      <use x="231.984375" xlink:href="#DejaVuSans-121"/>
      <use x="291.164062" xlink:href="#DejaVuSans-32"/>
      <use x="322.951172" xlink:href="#DejaVuSans-76"/>
      <use x="378.648438" xlink:href="#DejaVuSans-111"/>
      <use x="439.830078" xlink:href="#DejaVuSans-115"/>
      <use x="491.929688" xlink:href="#DejaVuSans-115"/>
      <use x="544.029297" xlink:href="#DejaVuSans-32"/>
      <use x="575.816406" xlink:href="#DejaVuSans-40"/>
      <use x="614.830078" xlink:href="#DejaVuSans-78"/>
      <use x="689.634766" xlink:href="#DejaVuSans-111"/>
      <use x="750.816406" xlink:href="#DejaVuSans-114"/>
      <use x="791.914062" xlink:href="#DejaVuSans-109"/>
      <use x="889.326172" xlink:href="#DejaVuSans-97"/>
      <use x="950.605469" xlink:href="#DejaVuSans-108"/>
      <use x="978.388672" xlink:href="#DejaVuSans-105"/>
      <use x="1006.171875" xlink:href="#DejaVuSans-122"/>
      <use x="1058.662109" xlink:href="#DejaVuSans-101"/>
      <use x="1120.185547" xlink:href="#DejaVuSans-100"/>
      <use x="1183.662109" xlink:href="#DejaVuSans-41"/>
     </g>
    </g>
    <g id="line2d_18">
     <path d="M 190.330312 341.445362 
L 210.330312 341.445362 
" style="fill:none;stroke:#ff7f0e;stroke-linecap:square;stroke-width:1.5;"/>
    </g>
    <g id="line2d_19"/>
    <g id="text_18">
     <!-- Critic Loss (Normalized) -->
     <defs>
      <path d="M 64.40625 67.28125 
L 64.40625 56.890625 
Q 59.421875 61.53125 53.78125 63.8125 
Q 48.140625 66.109375 41.796875 66.109375 
Q 29.296875 66.109375 22.65625 58.46875 
Q 16.015625 50.828125 16.015625 36.375 
Q 16.015625 21.96875 22.65625 14.328125 
Q 29.296875 6.6875 41.796875 6.6875 
Q 48.140625 6.6875 53.78125 8.984375 
Q 59.421875 11.28125 64.40625 15.921875 
L 64.40625 5.609375 
Q 59.234375 2.09375 53.4375 0.328125 
Q 47.65625 -1.421875 41.21875 -1.421875 
Q 24.65625 -1.421875 15.125 8.703125 
Q 5.609375 18.84375 5.609375 36.375 
Q 5.609375 53.953125 15.125 64.078125 
Q 24.65625 74.21875 41.21875 74.21875 
Q 47.75 74.21875 53.53125 72.484375 
Q 59.328125 70.75 64.40625 67.28125 
z
" id="DejaVuSans-67"/>
      <path d="M 18.3125 70.21875 
L 18.3125 54.6875 
L 36.8125 54.6875 
L 36.8125 47.703125 
L 18.3125 47.703125 
L 18.3125 18.015625 
Q 18.3125 11.328125 20.140625 9.421875 
Q 21.96875 7.515625 27.59375 7.515625 
L 36.8125 7.515625 
L 36.8125 0 
L 27.59375 0 
Q 17.1875 0 13.234375 3.875 
Q 9.28125 7.765625 9.28125 18.015625 
L 9.28125 47.703125 
L 2.6875 47.703125 
L 2.6875 54.6875 
L 9.28125 54.6875 
L 9.28125 70.21875 
z
" id="DejaVuSans-116"/>
     </defs>
     <g transform="translate(218.330312 344.945362)scale(0.1 -0.1)">
      <use xlink:href="#DejaVuSans-67"/>
      <use x="69.824219" xlink:href="#DejaVuSans-114"/>
      <use x="110.9375" xlink:href="#DejaVuSans-105"/>
      <use x="138.720703" xlink:href="#DejaVuSans-116"/>
      <use x="177.929688" xlink:href="#DejaVuSans-105"/>
      <use x="205.712891" xlink:href="#DejaVuSans-99"/>
      <use x="260.693359" xlink:href="#DejaVuSans-32"/>
      <use x="292.480469" xlink:href="#DejaVuSans-76"/>
      <use x="348.177734" xlink:href="#DejaVuSans-111"/>
      <use x="409.359375" xlink:href="#DejaVuSans-115"/>
      <use x="461.458984" xlink:href="#DejaVuSans-115"/>
      <use x="513.558594" xlink:href="#DejaVuSans-32"/>
      <use x="545.345703" xlink:href="#DejaVuSans-40"/>
      <use x="584.359375" xlink:href="#DejaVuSans-78"/>
      <use x="659.164062" xlink:href="#DejaVuSans-111"/>
      <use x="720.345703" xlink:href="#DejaVuSans-114"/>
      <use x="761.443359" xlink:href="#DejaVuSans-109"/>
      <use x="858.855469" xlink:href="#DejaVuSans-97"/>
      <use x="920.134766" xlink:href="#DejaVuSans-108"/>
      <use x="947.917969" xlink:href="#DejaVuSans-105"/>
      <use x="975.701172" xlink:href="#DejaVuSans-122"/>
      <use x="1028.191406" xlink:href="#DejaVuSans-101"/>
      <use x="1089.714844" xlink:href="#DejaVuSans-100"/>
      <use x="1153.191406" xlink:href="#DejaVuSans-41"/>
     </g>
    </g>
    <g id="line2d_20">
     <path d="M 357.550625 341.445362 
L 377.550625 341.445362 
" style="fill:none;stroke:#008000;stroke-linecap:square;stroke-width:1.5;"/>
    </g>
    <g id="line2d_21"/>
    <g id="text_19">
     <!-- Entropy -->
     <defs>
      <path d="M 54.890625 33.015625 
L 54.890625 0 
L 45.90625 0 
L 45.90625 32.71875 
Q 45.90625 40.484375 42.875 44.328125 
Q 39.84375 48.1875 33.796875 48.1875 
Q 26.515625 48.1875 22.3125 43.546875 
Q 18.109375 38.921875 18.109375 30.90625 
L 18.109375 0 
L 9.078125 0 
L 9.078125 54.6875 
L 18.109375 54.6875 
L 18.109375 46.1875 
Q 21.34375 51.125 25.703125 53.5625 
Q 30.078125 56 35.796875 56 
Q 45.21875 56 50.046875 50.171875 
Q 54.890625 44.34375 54.890625 33.015625 
z
" id="DejaVuSans-110"/>
     </defs>
     <g transform="translate(385.550625 344.945362)scale(0.1 -0.1)">
      <use xlink:href="#DejaVuSans-69"/>
      <use x="63.183594" xlink:href="#DejaVuSans-110"/>
      <use x="126.5625" xlink:href="#DejaVuSans-116"/>
      <use x="165.771484" xlink:href="#DejaVuSans-114"/>
      <use x="206.853516" xlink:href="#DejaVuSans-111"/>
      <use x="268.035156" xlink:href="#DejaVuSans-112"/>
      <use x="331.511719" xlink:href="#DejaVuSans-121"/>
     </g>
    </g>
   </g>
  </g>
  <g id="axes_2">
   <g id="matplotlib.axis_3">
    <g id="ytick_7">
     <g id="line2d_22">
      <defs>
       <path d="M 0 0 
L 3.5 0 
" id="m234b6372b0" style="stroke:#000000;stroke-width:0.8;"/>
      </defs>
      <g>
       <use style="stroke:#000000;stroke-width:0.8;" x="400.90125" xlink:href="#m234b6372b0" y="285.738187"/>
      </g>
     </g>
     <g id="text_20">
      <!-- 0.1 -->
      <g transform="translate(407.90125 289.537406)scale(0.1 -0.1)">
       <use xlink:href="#DejaVuSans-48"/>
       <use x="63.623047" xlink:href="#DejaVuSans-46"/>
       <use x="95.410156" xlink:href="#DejaVuSans-49"/>
      </g>
     </g>
    </g>
    <g id="ytick_8">
     <g id="line2d_23">
      <g>
       <use style="stroke:#000000;stroke-width:0.8;" x="400.90125" xlink:href="#m234b6372b0" y="242.176148"/>
      </g>
     </g>
     <g id="text_21">
      <!-- 0.2 -->
      <g transform="translate(407.90125 245.975367)scale(0.1 -0.1)">
       <use xlink:href="#DejaVuSans-48"/>
       <use x="63.623047" xlink:href="#DejaVuSans-46"/>
       <use x="95.410156" xlink:href="#DejaVuSans-50"/>
      </g>
     </g>
    </g>
    <g id="ytick_9">
     <g id="line2d_24">
      <g>
       <use style="stroke:#000000;stroke-width:0.8;" x="400.90125" xlink:href="#m234b6372b0" y="198.614109"/>
      </g>
     </g>
     <g id="text_22">
      <!-- 0.3 -->
      <g transform="translate(407.90125 202.413327)scale(0.1 -0.1)">
       <use xlink:href="#DejaVuSans-48"/>
       <use x="63.623047" xlink:href="#DejaVuSans-46"/>
       <use x="95.410156" xlink:href="#DejaVuSans-51"/>
      </g>
     </g>
    </g>
    <g id="ytick_10">
     <g id="line2d_25">
      <g>
       <use style="stroke:#000000;stroke-width:0.8;" x="400.90125" xlink:href="#m234b6372b0" y="155.052069"/>
      </g>
     </g>
     <g id="text_23">
      <!-- 0.4 -->
      <g transform="translate(407.90125 158.851288)scale(0.1 -0.1)">
       <use xlink:href="#DejaVuSans-48"/>
       <use x="63.623047" xlink:href="#DejaVuSans-46"/>
       <use x="95.410156" xlink:href="#DejaVuSans-52"/>
      </g>
     </g>
    </g>
    <g id="ytick_11">
     <g id="line2d_26">
      <g>
       <use style="stroke:#000000;stroke-width:0.8;" x="400.90125" xlink:href="#m234b6372b0" y="111.49003"/>
      </g>
     </g>
     <g id="text_24">
      <!-- 0.5 -->
      <g transform="translate(407.90125 115.289248)scale(0.1 -0.1)">
       <use xlink:href="#DejaVuSans-48"/>
       <use x="63.623047" xlink:href="#DejaVuSans-46"/>
       <use x="95.410156" xlink:href="#DejaVuSans-53"/>
      </g>
     </g>
    </g>
    <g id="ytick_12">
     <g id="line2d_27">
      <g>
       <use style="stroke:#000000;stroke-width:0.8;" x="400.90125" xlink:href="#m234b6372b0" y="67.92799"/>
      </g>
     </g>
     <g id="text_25">
      <!-- 0.6 -->
      <g transform="translate(407.90125 71.727209)scale(0.1 -0.1)">
       <use xlink:href="#DejaVuSans-48"/>
       <use x="63.623047" xlink:href="#DejaVuSans-46"/>
       <use x="95.410156" xlink:href="#DejaVuSans-54"/>
      </g>
     </g>
    </g>
    <g id="ytick_13">
     <g id="line2d_28">
      <g>
       <use style="stroke:#000000;stroke-width:0.8;" x="400.90125" xlink:href="#m234b6372b0" y="24.365951"/>
      </g>
     </g>
     <g id="text_26">
      <!-- 0.7 -->
      <defs>
       <path d="M 8.203125 72.90625 
L 55.078125 72.90625 
L 55.078125 68.703125 
L 28.609375 0 
L 18.3125 0 
L 43.21875 64.59375 
L 8.203125 64.59375 
z
" id="DejaVuSans-55"/>
      </defs>
      <g transform="translate(407.90125 28.16517)scale(0.1 -0.1)">
       <use xlink:href="#DejaVuSans-48"/>
       <use x="63.623047" xlink:href="#DejaVuSans-46"/>
       <use x="95.410156" xlink:href="#DejaVuSans-55"/>
      </g>
     </g>
    </g>
    <g id="text_27">
     <!-- Entropy -->
     <g transform="translate(435.402812 174.909281)rotate(-90)scale(0.1 -0.1)">
      <use xlink:href="#DejaVuSans-69"/>
      <use x="63.183594" xlink:href="#DejaVuSans-110"/>
      <use x="126.5625" xlink:href="#DejaVuSans-116"/>
      <use x="165.771484" xlink:href="#DejaVuSans-114"/>
      <use x="206.853516" xlink:href="#DejaVuSans-111"/>
      <use x="268.035156" xlink:href="#DejaVuSans-112"/>
      <use x="331.511719" xlink:href="#DejaVuSans-121"/>
     </g>
    </g>
   </g>
   <g id="line2d_29">
    <path clip-path="url(#pfaa826d90a)" d="M 60.013977 34.414125 
L 60.581555 34.550078 
L 61.149133 35.640374 
L 61.716711 42.743645 
L 62.851867 45.117988 
L 63.419445 52.116983 
L 63.987022 53.248927 
L 64.5546 53.527116 
L 65.122178 58.547449 
L 65.689756 59.253879 
L 66.257334 59.355246 
L 66.824912 64.020144 
L 67.39249 66.23501 
L 67.960068 66.118687 
L 68.527645 68.987456 
L 69.095223 74.376751 
L 70.230379 72.462585 
L 70.797957 75.754661 
L 71.365535 80.707745 
L 71.933113 74.195983 
L 72.500691 76.920801 
L 73.068268 77.667529 
L 73.635846 76.385663 
L 74.203424 79.051957 
L 74.771002 77.586336 
L 75.33858 72.41873 
L 75.906158 74.146104 
L 77.041314 73.791604 
L 77.608891 77.016041 
L 78.176469 77.911055 
L 78.744047 74.91272 
L 79.311625 75.649919 
L 80.446781 78.308735 
L 81.581937 77.191539 
L 82.149514 79.787545 
L 82.717092 81.212868 
L 83.28467 81.892839 
L 83.852248 76.333084 
L 84.419826 76.007431 
L 84.987404 81.486409 
L 85.554982 79.691656 
L 86.12256 84.751404 
L 86.690137 85.557851 
L 87.257715 88.917514 
L 87.825293 90.540794 
L 88.392871 96.484909 
L 88.960449 100.503408 
L 89.528027 102.984649 
L 90.095605 107.802143 
L 90.663183 114.367549 
L 91.23076 111.898901 
L 91.798338 118.954967 
L 92.365916 123.150833 
L 92.933494 122.726266 
L 93.501072 127.129294 
L 94.06865 124.092999 
L 94.636228 128.502894 
L 95.203806 131.455919 
L 95.771384 126.285704 
L 96.338961 129.544519 
L 97.474117 133.184591 
L 98.041695 135.903464 
L 98.609273 139.742402 
L 99.176851 137.509607 
L 99.744429 139.41832 
L 100.312007 139.137963 
L 100.879584 139.667376 
L 101.447162 143.821984 
L 102.01474 146.910287 
L 102.582318 143.528969 
L 103.149896 147.944641 
L 103.717474 147.415877 
L 104.285052 149.101992 
L 105.420207 155.656142 
L 105.987785 153.491635 
L 106.555363 154.744264 
L 107.122941 154.836025 
L 107.690519 155.161107 
L 108.258097 156.058015 
L 108.825675 159.973018 
L 109.393253 158.446224 
L 109.96083 161.927689 
L 110.528408 164.358961 
L 111.095986 158.57009 
L 111.663564 163.340665 
L 112.231142 166.026121 
L 112.79872 166.965717 
L 113.366298 168.976823 
L 113.933876 169.006163 
L 114.501453 170.685216 
L 115.069031 174.579589 
L 115.636609 174.751802 
L 116.204187 181.741904 
L 116.771765 183.954109 
L 117.339343 184.942337 
L 117.906921 181.760586 
L 118.474499 180.631498 
L 119.042076 180.95928 
L 119.609654 179.057344 
L 120.177232 180.627214 
L 120.74481 182.691548 
L 121.312388 186.825721 
L 122.447544 190.712928 
L 123.015122 189.591604 
L 123.582699 189.909623 
L 124.150277 191.472249 
L 124.717855 189.156236 
L 125.285433 193.307091 
L 125.853011 193.530416 
L 126.420589 192.700886 
L 126.988167 197.514745 
L 127.555745 197.032549 
L 128.123322 202.932044 
L 128.6909 201.529168 
L 129.258478 202.449536 
L 130.393634 210.329147 
L 130.961212 215.573025 
L 131.52879 214.736342 
L 132.096368 216.241429 
L 133.231523 220.963846 
L 133.799101 221.844754 
L 134.366679 224.106585 
L 134.934257 221.723192 
L 135.501835 226.971478 
L 136.069413 229.148501 
L 136.636991 228.047338 
L 137.204568 228.915043 
L 137.772146 230.454034 
L 138.339724 227.70114 
L 139.47488 230.392854 
L 140.042458 231.242007 
L 140.610036 231.353617 
L 141.177614 233.430882 
L 141.745192 232.57714 
L 142.312769 232.23668 
L 142.880347 233.305783 
L 143.447925 237.274312 
L 144.583081 239.022522 
L 145.150659 238.937292 
L 145.718237 238.466514 
L 146.285815 238.86076 
L 146.853392 240.075591 
L 147.42097 242.512971 
L 147.988548 242.404282 
L 148.556126 243.481206 
L 149.123704 244.900277 
L 149.691282 245.88352 
L 150.25886 238.711345 
L 150.826438 238.390625 
L 151.394015 241.031071 
L 152.529171 244.120996 
L 153.096749 245.418182 
L 153.664327 245.252376 
L 154.231905 244.763637 
L 154.799483 245.790663 
L 155.367061 245.264586 
L 155.934638 245.697572 
L 156.502216 246.570664 
L 157.069794 248.994354 
L 157.637372 249.476615 
L 158.20495 249.486397 
L 158.772528 248.218066 
L 159.340106 249.217497 
L 159.907684 249.544124 
L 160.475261 246.585068 
L 161.042839 247.364304 
L 161.610417 248.458514 
L 162.177995 245.432274 
L 162.745573 246.50274 
L 163.313151 246.03955 
L 163.880729 243.497226 
L 164.448307 243.407946 
L 165.015884 244.371429 
L 165.583462 247.677474 
L 166.15104 247.73672 
L 166.718618 249.043168 
L 167.286196 247.6632 
L 167.853774 249.415286 
L 168.421352 249.801697 
L 168.98893 246.520941 
L 169.556507 245.867454 
L 170.124085 246.637589 
L 170.691663 251.620895 
L 171.259241 251.737173 
L 171.826819 252.403162 
L 172.394397 249.580839 
L 172.961975 249.494959 
L 173.529553 250.392745 
L 174.09713 253.848731 
L 174.664708 253.26966 
L 175.232286 253.898623 
L 175.799864 252.064469 
L 176.367442 251.604862 
L 176.93502 252.090012 
L 177.502598 249.472668 
L 178.637753 250.865327 
L 179.205331 253.180081 
L 179.772909 252.898808 
L 180.340487 252.977645 
L 181.475643 249.91591 
L 182.043221 251.344349 
L 182.610799 248.088598 
L 183.745954 250.653492 
L 184.88111 252.178156 
L 185.448688 252.605573 
L 186.016266 258.730073 
L 186.583844 259.025373 
L 187.151422 258.605065 
L 187.719 249.478472 
L 188.286577 249.47348 
L 188.854155 249.774719 
L 189.421733 257.370358 
L 189.989311 257.646723 
L 190.556889 257.799462 
L 191.124467 254.898009 
L 191.692045 255.228797 
L 192.259623 255.234009 
L 192.8272 250.076692 
L 193.394778 251.472123 
L 193.962356 252.209847 
L 195.097512 252.629233 
L 195.66509 253.101504 
L 196.232668 256.031778 
L 196.800246 255.741482 
L 197.367823 256.017315 
L 197.935401 251.920259 
L 198.502979 252.063222 
L 199.070557 252.049837 
L 199.638135 252.869981 
L 200.205713 254.367901 
L 200.773291 253.659778 
L 201.340869 259.403891 
L 201.908446 258.437006 
L 202.476024 258.381428 
L 203.043602 251.144775 
L 203.61118 251.883661 
L 204.746336 254.602677 
L 205.313914 255.155706 
L 205.881492 256.302774 
L 206.449069 250.142332 
L 207.016647 250.830897 
L 207.584225 250.602795 
L 208.151803 251.345881 
L 208.719381 252.277537 
L 209.286959 251.566875 
L 209.854537 249.78826 
L 210.989692 251.116915 
L 211.55727 255.972266 
L 212.124848 256.445413 
L 212.692426 257.3582 
L 213.827582 257.701028 
L 214.39516 258.24915 
L 214.962738 255.130098 
L 215.530315 255.804 
L 216.097893 255.6614 
L 216.665471 258.687841 
L 217.233049 258.354308 
L 217.800627 258.528793 
L 218.368205 256.304397 
L 218.935783 256.597438 
L 219.503361 256.696248 
L 220.070938 258.529507 
L 220.638516 259.751913 
L 221.206094 259.78285 
L 221.773672 257.928365 
L 222.34125 257.906632 
L 222.908828 258.658663 
L 223.476406 256.135345 
L 224.043984 256.091614 
L 224.611562 256.280801 
L 225.179139 258.341481 
L 225.746717 257.98084 
L 226.314295 258.516446 
L 226.881873 255.03713 
L 228.017029 256.40024 
L 228.584607 258.003508 
L 229.719762 259.195548 
L 230.28734 261.168712 
L 231.422496 261.301088 
L 231.990074 258.382642 
L 232.557652 258.704485 
L 233.12523 258.879417 
L 233.692808 258.04228 
L 234.260385 258.295672 
L 234.827963 258.098033 
L 235.395541 261.721514 
L 236.530697 261.302218 
L 237.098275 259.36262 
L 238.233431 259.508725 
L 238.801008 257.191361 
L 239.368586 256.93212 
L 239.936164 256.966414 
L 240.503742 258.428581 
L 241.638898 258.317801 
L 242.206476 259.98491 
L 242.774054 260.975416 
L 243.341631 260.380701 
L 243.909209 258.567818 
L 245.044365 259.530366 
L 245.611943 259.048891 
L 246.179521 259.160222 
L 246.747099 259.04142 
L 247.314677 260.765885 
L 247.882254 260.340624 
L 248.449832 260.763613 
L 249.01741 261.045048 
L 249.584988 262.636235 
L 250.152566 262.30818 
L 250.720144 256.763484 
L 251.287722 257.294118 
L 251.8553 257.37026 
L 252.422877 258.193779 
L 253.558033 259.189647 
L 254.125611 256.544372 
L 254.693189 256.630459 
L 255.260767 257.627035 
L 255.828345 260.591283 
L 256.395923 260.609556 
L 258.666234 261.585029 
L 259.233812 257.747447 
L 259.80139 258.19093 
L 260.368968 258.411165 
L 260.936546 259.993069 
L 261.504123 259.174828 
L 262.071701 259.521512 
L 262.639279 257.482234 
L 263.206857 257.420658 
L 263.774435 257.06956 
L 264.342013 260.605454 
L 265.477169 262.228805 
L 266.044747 258.655216 
L 266.612324 259.187869 
L 267.179902 259.339108 
L 267.74748 263.976165 
L 268.315058 263.627461 
L 268.882636 263.662294 
L 269.450214 262.058916 
L 270.017792 262.674974 
L 270.58537 263.081301 
L 271.152947 264.135012 
L 271.720525 264.489065 
L 272.288103 264.411624 
L 272.855681 265.303457 
L 273.990837 265.481025 
L 274.558415 261.983079 
L 275.125993 261.841797 
L 275.69357 262.363252 
L 276.261148 260.960661 
L 276.828726 261.606236 
L 277.396304 262.02039 
L 277.963882 262.914359 
L 279.099038 262.880604 
L 279.666616 265.479376 
L 280.234193 266.098654 
L 280.801771 266.29184 
L 281.369349 263.58841 
L 281.936927 263.952108 
L 282.504505 263.979761 
L 283.072083 266.490317 
L 283.639661 266.63848 
L 284.207239 266.574495 
L 284.774816 262.246227 
L 285.342394 262.91332 
L 285.909972 263.098275 
L 286.47755 263.782135 
L 287.045128 264.163535 
L 287.612706 264.364919 
L 288.180284 265.785153 
L 288.747862 266.21736 
L 289.315439 266.397693 
L 289.883017 265.199928 
L 290.450595 264.667204 
L 291.018173 264.663945 
L 291.585751 266.935539 
L 292.153329 266.565856 
L 293.288485 266.690838 
L 293.856062 266.766656 
L 294.42364 266.374195 
L 294.991218 268.435258 
L 295.558796 269.007253 
L 296.126374 269.198408 
L 296.693952 265.454424 
L 297.829108 265.475293 
L 298.396685 268.131519 
L 299.531841 268.318272 
L 300.099419 267.561133 
L 300.666997 267.526431 
L 301.234575 267.903008 
L 301.802153 267.651277 
L 302.937308 267.682857 
L 303.504886 265.448251 
L 305.20762 266.858299 
L 305.775198 266.699718 
L 306.342776 266.72234 
L 306.910354 267.299665 
L 307.477932 267.10289 
L 308.045509 267.076249 
L 308.613087 268.299104 
L 309.180665 268.11311 
L 309.748243 268.16739 
L 310.315821 267.257024 
L 310.883399 266.72728 
L 311.450977 267.078262 
L 312.018555 270.09655 
L 312.586132 270.286121 
L 313.15371 269.998195 
L 313.721288 268.089754 
L 314.288866 267.927668 
L 314.856444 267.907688 
L 315.424022 269.807164 
L 315.9916 270.30686 
L 316.559178 270.116167 
L 317.126755 269.237206 
L 317.694333 269.6329 
L 318.261911 269.658164 
L 318.829489 267.590071 
L 319.964645 267.908285 
L 320.532223 270.514677 
L 321.099801 271.165893 
L 321.667378 271.310102 
L 322.234956 270.81173 
L 322.802534 271.113917 
L 323.370112 271.212779 
L 323.93769 270.451881 
L 325.072846 270.078102 
L 325.640424 269.978903 
L 326.208001 270.106923 
L 326.775579 270.020667 
L 327.343157 273.961479 
L 327.910735 274.198643 
L 328.478313 274.190984 
L 329.045891 268.600401 
L 330.181047 268.989162 
L 331.88378 268.71899 
L 332.451358 269.138026 
L 333.586514 269.275965 
L 334.154092 270.308003 
L 334.72167 270.686326 
L 335.289247 270.608262 
L 335.856825 269.117812 
L 336.424403 269.722135 
L 336.991981 269.800095 
L 337.559559 271.205418 
L 338.127137 271.107861 
L 338.694715 271.135189 
L 339.262293 269.826981 
L 340.397448 270.263557 
L 340.965026 269.79816 
L 341.532604 269.909576 
L 342.100182 269.731898 
L 342.66776 268.100595 
L 343.802916 268.166169 
L 344.370493 271.849616 
L 344.938071 271.530156 
L 345.505649 272.030605 
L 346.073227 271.063539 
L 347.208383 270.99612 
L 347.775961 272.198793 
L 348.343539 271.889174 
L 348.911116 271.718778 
L 350.046272 272.151537 
L 351.181428 271.253901 
L 351.749006 271.835536 
L 352.316584 271.808682 
L 352.884162 275.30189 
L 353.45174 275.199581 
L 354.586895 275.289706 
L 355.154473 275.095234 
L 355.722051 275.451146 
L 356.289629 270.534937 
L 356.857207 270.484052 
L 357.424785 270.748934 
L 357.992363 270.29478 
L 359.127518 270.405144 
L 359.695096 275.163483 
L 360.262674 275.239275 
L 360.830252 275.626465 
L 361.39783 271.764035 
L 361.965408 271.683128 
L 362.532986 271.8406 
L 363.100563 273.535329 
L 363.668141 273.364466 
L 364.235719 273.68934 
L 364.803297 272.976529 
L 365.370875 273.228474 
L 365.938453 273.155902 
L 366.506031 273.669762 
L 367.073609 273.651431 
L 367.641186 273.940954 
L 368.208764 273.934846 
L 368.776342 274.087033 
L 369.34392 274.067695 
L 369.911498 273.750604 
L 370.479076 273.800989 
L 371.046654 274.069364 
L 371.614232 274.660749 
L 372.181809 274.92873 
L 372.749387 274.87397 
L 373.316965 276.334125 
L 374.452121 276.329088 
L 375.019699 273.438687 
L 375.587277 273.745632 
L 376.154855 273.410495 
L 376.722432 273.727547 
L 377.29001 273.448962 
L 377.857588 273.359597 
L 378.425166 275.522501 
L 378.992744 275.428755 
L 379.560322 275.549752 
L 380.1279 273.345115 
L 381.263055 273.20321 
L 381.830633 273.624733 
L 382.398211 273.633093 
L 382.965789 273.451604 
L 383.533367 273.054762 
L 384.100945 273.418032 
L 384.668523 273.572368 
L 384.668523 273.572368 
" style="fill:none;stroke:#008000;stroke-linecap:square;stroke-width:1.5;"/>
   </g>
   <g id="patch_9">
    <path d="M 43.78125 288.430125 
L 43.78125 22.318125 
" style="fill:none;stroke:#000000;stroke-linecap:square;stroke-linejoin:miter;stroke-width:0.8;"/>
   </g>
   <g id="patch_10">
    <path d="M 400.90125 288.430125 
L 400.90125 22.318125 
" style="fill:none;stroke:#000000;stroke-linecap:square;stroke-linejoin:miter;stroke-width:0.8;"/>
   </g>
   <g id="patch_11">
    <path d="M 43.78125 288.430125 
L 400.90125 288.430125 
" style="fill:none;stroke:#000000;stroke-linecap:square;stroke-linejoin:miter;stroke-width:0.8;"/>
   </g>
   <g id="patch_12">
    <path d="M 43.78125 22.318125 
L 400.90125 22.318125 
" style="fill:none;stroke:#000000;stroke-linecap:square;stroke-linejoin:miter;stroke-width:0.8;"/>
   </g>
  </g>
 </g>
 <defs>
  <clipPath id="pfaa826d90a">
   <rect height="266.112" width="357.12" x="43.78125" y="22.318125"/>
  </clipPath>
 </defs>
</svg>
