<?xml version="1.0" encoding="utf-8" standalone="no"?>
<!DOCTYPE svg PUBLIC "-//W3C//DTD SVG 1.1//EN"
  "http://www.w3.org/Graphics/SVG/1.1/DTD/svg11.dtd">
<!-- Created with matplotlib (https://matplotlib.org/) -->
<svg height="358.22505pt" version="1.1" viewBox="0 0 444.6825 358.22505" width="444.6825pt" xmlns="http://www.w3.org/2000/svg" xmlns:xlink="http://www.w3.org/1999/xlink">
 <defs>
  <style type="text/css">
*{stroke-linecap:butt;stroke-linejoin:round;}
  </style>
 </defs>
 <g id="figure_1">
  <g id="patch_1">
   <path d="M 0 358.22505 
L 444.6825 358.22505 
L 444.6825 0 
L 0 0 
z
" style="fill:#ffffff;"/>
  </g>
  <g id="axes_1">
   <g id="patch_2">
    <path d="M 43.78125 288.430125 
L 400.90125 288.430125 
L 400.90125 22.318125 
L 43.78125 22.318125 
z
" style="fill:#ffffff;"/>
   </g>
   <g id="matplotlib.axis_1">
    <g id="xtick_1">
     <g id="line2d_1">
      <defs>
       <path d="M 0 0 
L 0 3.5 
" id="m027f4bd601" style="stroke:#000000;stroke-width:0.8;"/>
      </defs>
      <g>
       <use style="stroke:#000000;stroke-width:0.8;" x="60.013977" xlink:href="#m027f4bd601" y="288.430125"/>
      </g>
     </g>
     <g id="text_1">
      <!-- 0 -->
      <defs>
       <path d="M 31.78125 66.40625 
Q 24.171875 66.40625 20.328125 58.90625 
Q 16.5 51.421875 16.5 36.375 
Q 16.5 21.390625 20.328125 13.890625 
Q 24.171875 6.390625 31.78125 6.390625 
Q 39.453125 6.390625 43.28125 13.890625 
Q 47.125 21.390625 47.125 36.375 
Q 47.125 51.421875 43.28125 58.90625 
Q 39.453125 66.40625 31.78125 66.40625 
z
M 31.78125 74.21875 
Q 44.046875 74.21875 50.515625 64.515625 
Q 56.984375 54.828125 56.984375 36.375 
Q 56.984375 17.96875 50.515625 8.265625 
Q 44.046875 -1.421875 31.78125 -1.421875 
Q 19.53125 -1.421875 13.0625 8.265625 
Q 6.59375 17.96875 6.59375 36.375 
Q 6.59375 54.828125 13.0625 64.515625 
Q 19.53125 74.21875 31.78125 74.21875 
z
" id="DejaVuSans-48"/>
      </defs>
      <g transform="translate(56.832727 303.028562)scale(0.1 -0.1)">
       <use xlink:href="#DejaVuSans-48"/>
      </g>
     </g>
    </g>
    <g id="xtick_2">
     <g id="line2d_2">
      <g>
       <use style="stroke:#000000;stroke-width:0.8;" x="107.202138" xlink:href="#m027f4bd601" y="288.430125"/>
      </g>
     </g>
     <g id="text_2">
      <!-- 50 -->
      <defs>
       <path d="M 10.796875 72.90625 
L 49.515625 72.90625 
L 49.515625 64.59375 
L 19.828125 64.59375 
L 19.828125 46.734375 
Q 21.96875 47.46875 24.109375 47.828125 
Q 26.265625 48.1875 28.421875 48.1875 
Q 40.625 48.1875 47.75 41.5 
Q 54.890625 34.8125 54.890625 23.390625 
Q 54.890625 11.625 47.5625 5.09375 
Q 40.234375 -1.421875 26.90625 -1.421875 
Q 22.3125 -1.421875 17.546875 -0.640625 
Q 12.796875 0.140625 7.71875 1.703125 
L 7.71875 11.625 
Q 12.109375 9.234375 16.796875 8.0625 
Q 21.484375 6.890625 26.703125 6.890625 
Q 35.15625 6.890625 40.078125 11.328125 
Q 45.015625 15.765625 45.015625 23.390625 
Q 45.015625 31 40.078125 35.4375 
Q 35.15625 39.890625 26.703125 39.890625 
Q 22.75 39.890625 18.8125 39.015625 
Q 14.890625 38.140625 10.796875 36.28125 
z
" id="DejaVuSans-53"/>
      </defs>
      <g transform="translate(100.839638 303.028562)scale(0.1 -0.1)">
       <use xlink:href="#DejaVuSans-53"/>
       <use x="63.623047" xlink:href="#DejaVuSans-48"/>
      </g>
     </g>
    </g>
    <g id="xtick_3">
     <g id="line2d_3">
      <g>
       <use style="stroke:#000000;stroke-width:0.8;" x="154.390299" xlink:href="#m027f4bd601" y="288.430125"/>
      </g>
     </g>
     <g id="text_3">
      <!-- 100 -->
      <defs>
       <path d="M 12.40625 8.296875 
L 28.515625 8.296875 
L 28.515625 63.921875 
L 10.984375 60.40625 
L 10.984375 69.390625 
L 28.421875 72.90625 
L 38.28125 72.90625 
L 38.28125 8.296875 
L 54.390625 8.296875 
L 54.390625 0 
L 12.40625 0 
z
" id="DejaVuSans-49"/>
      </defs>
      <g transform="translate(144.846549 303.028562)scale(0.1 -0.1)">
       <use xlink:href="#DejaVuSans-49"/>
       <use x="63.623047" xlink:href="#DejaVuSans-48"/>
       <use x="127.246094" xlink:href="#DejaVuSans-48"/>
      </g>
     </g>
    </g>
    <g id="xtick_4">
     <g id="line2d_4">
      <g>
       <use style="stroke:#000000;stroke-width:0.8;" x="201.578459" xlink:href="#m027f4bd601" y="288.430125"/>
      </g>
     </g>
     <g id="text_4">
      <!-- 150 -->
      <g transform="translate(192.034709 303.028562)scale(0.1 -0.1)">
       <use xlink:href="#DejaVuSans-49"/>
       <use x="63.623047" xlink:href="#DejaVuSans-53"/>
       <use x="127.246094" xlink:href="#DejaVuSans-48"/>
      </g>
     </g>
    </g>
    <g id="xtick_5">
     <g id="line2d_5">
      <g>
       <use style="stroke:#000000;stroke-width:0.8;" x="248.76662" xlink:href="#m027f4bd601" y="288.430125"/>
      </g>
     </g>
     <g id="text_5">
      <!-- 200 -->
      <defs>
       <path d="M 19.1875 8.296875 
L 53.609375 8.296875 
L 53.609375 0 
L 7.328125 0 
L 7.328125 8.296875 
Q 12.9375 14.109375 22.625 23.890625 
Q 32.328125 33.6875 34.8125 36.53125 
Q 39.546875 41.84375 41.421875 45.53125 
Q 43.3125 49.21875 43.3125 52.78125 
Q 43.3125 58.59375 39.234375 62.25 
Q 35.15625 65.921875 28.609375 65.921875 
Q 23.96875 65.921875 18.8125 64.3125 
Q 13.671875 62.703125 7.8125 59.421875 
L 7.8125 69.390625 
Q 13.765625 71.78125 18.9375 73 
Q 24.125 74.21875 28.421875 74.21875 
Q 39.75 74.21875 46.484375 68.546875 
Q 53.21875 62.890625 53.21875 53.421875 
Q 53.21875 48.921875 51.53125 44.890625 
Q 49.859375 40.875 45.40625 35.40625 
Q 44.1875 33.984375 37.640625 27.21875 
Q 31.109375 20.453125 19.1875 8.296875 
z
" id="DejaVuSans-50"/>
      </defs>
      <g transform="translate(239.22287 303.028562)scale(0.1 -0.1)">
       <use xlink:href="#DejaVuSans-50"/>
       <use x="63.623047" xlink:href="#DejaVuSans-48"/>
       <use x="127.246094" xlink:href="#DejaVuSans-48"/>
      </g>
     </g>
    </g>
    <g id="xtick_6">
     <g id="line2d_6">
      <g>
       <use style="stroke:#000000;stroke-width:0.8;" x="295.954781" xlink:href="#m027f4bd601" y="288.430125"/>
      </g>
     </g>
     <g id="text_6">
      <!-- 250 -->
      <g transform="translate(286.411031 303.028562)scale(0.1 -0.1)">
       <use xlink:href="#DejaVuSans-50"/>
       <use x="63.623047" xlink:href="#DejaVuSans-53"/>
       <use x="127.246094" xlink:href="#DejaVuSans-48"/>
      </g>
     </g>
    </g>
    <g id="xtick_7">
     <g id="line2d_7">
      <g>
       <use style="stroke:#000000;stroke-width:0.8;" x="343.142941" xlink:href="#m027f4bd601" y="288.430125"/>
      </g>
     </g>
     <g id="text_7">
      <!-- 300 -->
      <defs>
       <path d="M 40.578125 39.3125 
Q 47.65625 37.796875 51.625 33 
Q 55.609375 28.21875 55.609375 21.1875 
Q 55.609375 10.40625 48.1875 4.484375 
Q 40.765625 -1.421875 27.09375 -1.421875 
Q 22.515625 -1.421875 17.65625 -0.515625 
Q 12.796875 0.390625 7.625 2.203125 
L 7.625 11.71875 
Q 11.71875 9.328125 16.59375 8.109375 
Q 21.484375 6.890625 26.8125 6.890625 
Q 36.078125 6.890625 40.9375 10.546875 
Q 45.796875 14.203125 45.796875 21.1875 
Q 45.796875 27.640625 41.28125 31.265625 
Q 36.765625 34.90625 28.71875 34.90625 
L 20.21875 34.90625 
L 20.21875 43.015625 
L 29.109375 43.015625 
Q 36.375 43.015625 40.234375 45.921875 
Q 44.09375 48.828125 44.09375 54.296875 
Q 44.09375 59.90625 40.109375 62.90625 
Q 36.140625 65.921875 28.71875 65.921875 
Q 24.65625 65.921875 20.015625 65.03125 
Q 15.375 64.15625 9.8125 62.3125 
L 9.8125 71.09375 
Q 15.4375 72.65625 20.34375 73.4375 
Q 25.25 74.21875 29.59375 74.21875 
Q 40.828125 74.21875 47.359375 69.109375 
Q 53.90625 64.015625 53.90625 55.328125 
Q 53.90625 49.265625 50.4375 45.09375 
Q 46.96875 40.921875 40.578125 39.3125 
z
" id="DejaVuSans-51"/>
      </defs>
      <g transform="translate(333.599191 303.028562)scale(0.1 -0.1)">
       <use xlink:href="#DejaVuSans-51"/>
       <use x="63.623047" xlink:href="#DejaVuSans-48"/>
       <use x="127.246094" xlink:href="#DejaVuSans-48"/>
      </g>
     </g>
    </g>
    <g id="xtick_8">
     <g id="line2d_8">
      <g>
       <use style="stroke:#000000;stroke-width:0.8;" x="390.331102" xlink:href="#m027f4bd601" y="288.430125"/>
      </g>
     </g>
     <g id="text_8">
      <!-- 350 -->
      <g transform="translate(380.787352 303.028562)scale(0.1 -0.1)">
       <use xlink:href="#DejaVuSans-51"/>
       <use x="63.623047" xlink:href="#DejaVuSans-53"/>
       <use x="127.246094" xlink:href="#DejaVuSans-48"/>
      </g>
     </g>
    </g>
    <g id="text_9">
     <!-- Epoch -->
     <defs>
      <path d="M 9.8125 72.90625 
L 55.90625 72.90625 
L 55.90625 64.59375 
L 19.671875 64.59375 
L 19.671875 43.015625 
L 54.390625 43.015625 
L 54.390625 34.71875 
L 19.671875 34.71875 
L 19.671875 8.296875 
L 56.78125 8.296875 
L 56.78125 0 
L 9.8125 0 
z
" id="DejaVuSans-69"/>
      <path d="M 18.109375 8.203125 
L 18.109375 -20.796875 
L 9.078125 -20.796875 
L 9.078125 54.6875 
L 18.109375 54.6875 
L 18.109375 46.390625 
Q 20.953125 51.265625 25.265625 53.625 
Q 29.59375 56 35.59375 56 
Q 45.5625 56 51.78125 48.09375 
Q 58.015625 40.1875 58.015625 27.296875 
Q 58.015625 14.40625 51.78125 6.484375 
Q 45.5625 -1.421875 35.59375 -1.421875 
Q 29.59375 -1.421875 25.265625 0.953125 
Q 20.953125 3.328125 18.109375 8.203125 
z
M 48.6875 27.296875 
Q 48.6875 37.203125 44.609375 42.84375 
Q 40.53125 48.484375 33.40625 48.484375 
Q 26.265625 48.484375 22.1875 42.84375 
Q 18.109375 37.203125 18.109375 27.296875 
Q 18.109375 17.390625 22.1875 11.75 
Q 26.265625 6.109375 33.40625 6.109375 
Q 40.53125 6.109375 44.609375 11.75 
Q 48.6875 17.390625 48.6875 27.296875 
z
" id="DejaVuSans-112"/>
      <path d="M 30.609375 48.390625 
Q 23.390625 48.390625 19.1875 42.75 
Q 14.984375 37.109375 14.984375 27.296875 
Q 14.984375 17.484375 19.15625 11.84375 
Q 23.34375 6.203125 30.609375 6.203125 
Q 37.796875 6.203125 41.984375 11.859375 
Q 46.1875 17.53125 46.1875 27.296875 
Q 46.1875 37.015625 41.984375 42.703125 
Q 37.796875 48.390625 30.609375 48.390625 
z
M 30.609375 56 
Q 42.328125 56 49.015625 48.375 
Q 55.71875 40.765625 55.71875 27.296875 
Q 55.71875 13.875 49.015625 6.21875 
Q 42.328125 -1.421875 30.609375 -1.421875 
Q 18.84375 -1.421875 12.171875 6.21875 
Q 5.515625 13.875 5.515625 27.296875 
Q 5.515625 40.765625 12.171875 48.375 
Q 18.84375 56 30.609375 56 
z
" id="DejaVuSans-111"/>
      <path d="M 48.78125 52.59375 
L 48.78125 44.1875 
Q 44.96875 46.296875 41.140625 47.34375 
Q 37.3125 48.390625 33.40625 48.390625 
Q 24.65625 48.390625 19.8125 42.84375 
Q 14.984375 37.3125 14.984375 27.296875 
Q 14.984375 17.28125 19.8125 11.734375 
Q 24.65625 6.203125 33.40625 6.203125 
Q 37.3125 6.203125 41.140625 7.25 
Q 44.96875 8.296875 48.78125 10.40625 
L 48.78125 2.09375 
Q 45.015625 0.34375 40.984375 -0.53125 
Q 36.96875 -1.421875 32.421875 -1.421875 
Q 20.0625 -1.421875 12.78125 6.34375 
Q 5.515625 14.109375 5.515625 27.296875 
Q 5.515625 40.671875 12.859375 48.328125 
Q 20.21875 56 33.015625 56 
Q 37.15625 56 41.109375 55.140625 
Q 45.0625 54.296875 48.78125 52.59375 
z
" id="DejaVuSans-99"/>
      <path d="M 54.890625 33.015625 
L 54.890625 0 
L 45.90625 0 
L 45.90625 32.71875 
Q 45.90625 40.484375 42.875 44.328125 
Q 39.84375 48.1875 33.796875 48.1875 
Q 26.515625 48.1875 22.3125 43.546875 
Q 18.109375 38.921875 18.109375 30.90625 
L 18.109375 0 
L 9.078125 0 
L 9.078125 75.984375 
L 18.109375 75.984375 
L 18.109375 46.1875 
Q 21.34375 51.125 25.703125 53.5625 
Q 30.078125 56 35.796875 56 
Q 45.21875 56 50.046875 50.171875 
Q 54.890625 44.34375 54.890625 33.015625 
z
" id="DejaVuSans-104"/>
     </defs>
     <g transform="translate(207.030313 316.706687)scale(0.1 -0.1)">
      <use xlink:href="#DejaVuSans-69"/>
      <use x="63.183594" xlink:href="#DejaVuSans-112"/>
      <use x="126.660156" xlink:href="#DejaVuSans-111"/>
      <use x="187.841797" xlink:href="#DejaVuSans-99"/>
      <use x="242.822266" xlink:href="#DejaVuSans-104"/>
     </g>
    </g>
   </g>
   <g id="matplotlib.axis_2">
    <g id="ytick_1">
     <g id="line2d_9">
      <defs>
       <path d="M 0 0 
L -3.5 0 
" id="mabdc7e0648" style="stroke:#000000;stroke-width:0.8;"/>
      </defs>
      <g>
       <use style="stroke:#000000;stroke-width:0.8;" x="43.78125" xlink:href="#mabdc7e0648" y="274.674401"/>
      </g>
     </g>
     <g id="text_10">
      <!-- 0.0 -->
      <defs>
       <path d="M 10.6875 12.40625 
L 21 12.40625 
L 21 0 
L 10.6875 0 
z
" id="DejaVuSans-46"/>
      </defs>
      <g transform="translate(20.878125 278.47362)scale(0.1 -0.1)">
       <use xlink:href="#DejaVuSans-48"/>
       <use x="63.623047" xlink:href="#DejaVuSans-46"/>
       <use x="95.410156" xlink:href="#DejaVuSans-48"/>
      </g>
     </g>
    </g>
    <g id="ytick_2">
     <g id="line2d_10">
      <g>
       <use style="stroke:#000000;stroke-width:0.8;" x="43.78125" xlink:href="#mabdc7e0648" y="226.622346"/>
      </g>
     </g>
     <g id="text_11">
      <!-- 0.2 -->
      <g transform="translate(20.878125 230.421564)scale(0.1 -0.1)">
       <use xlink:href="#DejaVuSans-48"/>
       <use x="63.623047" xlink:href="#DejaVuSans-46"/>
       <use x="95.410156" xlink:href="#DejaVuSans-50"/>
      </g>
     </g>
    </g>
    <g id="ytick_3">
     <g id="line2d_11">
      <g>
       <use style="stroke:#000000;stroke-width:0.8;" x="43.78125" xlink:href="#mabdc7e0648" y="178.570291"/>
      </g>
     </g>
     <g id="text_12">
      <!-- 0.4 -->
      <defs>
       <path d="M 37.796875 64.3125 
L 12.890625 25.390625 
L 37.796875 25.390625 
z
M 35.203125 72.90625 
L 47.609375 72.90625 
L 47.609375 25.390625 
L 58.015625 25.390625 
L 58.015625 17.1875 
L 47.609375 17.1875 
L 47.609375 0 
L 37.796875 0 
L 37.796875 17.1875 
L 4.890625 17.1875 
L 4.890625 26.703125 
z
" id="DejaVuSans-52"/>
      </defs>
      <g transform="translate(20.878125 182.369509)scale(0.1 -0.1)">
       <use xlink:href="#DejaVuSans-48"/>
       <use x="63.623047" xlink:href="#DejaVuSans-46"/>
       <use x="95.410156" xlink:href="#DejaVuSans-52"/>
      </g>
     </g>
    </g>
    <g id="ytick_4">
     <g id="line2d_12">
      <g>
       <use style="stroke:#000000;stroke-width:0.8;" x="43.78125" xlink:href="#mabdc7e0648" y="130.518235"/>
      </g>
     </g>
     <g id="text_13">
      <!-- 0.6 -->
      <defs>
       <path d="M 33.015625 40.375 
Q 26.375 40.375 22.484375 35.828125 
Q 18.609375 31.296875 18.609375 23.390625 
Q 18.609375 15.53125 22.484375 10.953125 
Q 26.375 6.390625 33.015625 6.390625 
Q 39.65625 6.390625 43.53125 10.953125 
Q 47.40625 15.53125 47.40625 23.390625 
Q 47.40625 31.296875 43.53125 35.828125 
Q 39.65625 40.375 33.015625 40.375 
z
M 52.59375 71.296875 
L 52.59375 62.3125 
Q 48.875 64.0625 45.09375 64.984375 
Q 41.3125 65.921875 37.59375 65.921875 
Q 27.828125 65.921875 22.671875 59.328125 
Q 17.53125 52.734375 16.796875 39.40625 
Q 19.671875 43.65625 24.015625 45.921875 
Q 28.375 48.1875 33.59375 48.1875 
Q 44.578125 48.1875 50.953125 41.515625 
Q 57.328125 34.859375 57.328125 23.390625 
Q 57.328125 12.15625 50.6875 5.359375 
Q 44.046875 -1.421875 33.015625 -1.421875 
Q 20.359375 -1.421875 13.671875 8.265625 
Q 6.984375 17.96875 6.984375 36.375 
Q 6.984375 53.65625 15.1875 63.9375 
Q 23.390625 74.21875 37.203125 74.21875 
Q 40.921875 74.21875 44.703125 73.484375 
Q 48.484375 72.75 52.59375 71.296875 
z
" id="DejaVuSans-54"/>
      </defs>
      <g transform="translate(20.878125 134.317454)scale(0.1 -0.1)">
       <use xlink:href="#DejaVuSans-48"/>
       <use x="63.623047" xlink:href="#DejaVuSans-46"/>
       <use x="95.410156" xlink:href="#DejaVuSans-54"/>
      </g>
     </g>
    </g>
    <g id="ytick_5">
     <g id="line2d_13">
      <g>
       <use style="stroke:#000000;stroke-width:0.8;" x="43.78125" xlink:href="#mabdc7e0648" y="82.46618"/>
      </g>
     </g>
     <g id="text_14">
      <!-- 0.8 -->
      <defs>
       <path d="M 31.78125 34.625 
Q 24.75 34.625 20.71875 30.859375 
Q 16.703125 27.09375 16.703125 20.515625 
Q 16.703125 13.921875 20.71875 10.15625 
Q 24.75 6.390625 31.78125 6.390625 
Q 38.8125 6.390625 42.859375 10.171875 
Q 46.921875 13.96875 46.921875 20.515625 
Q 46.921875 27.09375 42.890625 30.859375 
Q 38.875 34.625 31.78125 34.625 
z
M 21.921875 38.8125 
Q 15.578125 40.375 12.03125 44.71875 
Q 8.5 49.078125 8.5 55.328125 
Q 8.5 64.0625 14.71875 69.140625 
Q 20.953125 74.21875 31.78125 74.21875 
Q 42.671875 74.21875 48.875 69.140625 
Q 55.078125 64.0625 55.078125 55.328125 
Q 55.078125 49.078125 51.53125 44.71875 
Q 48 40.375 41.703125 38.8125 
Q 48.828125 37.15625 52.796875 32.3125 
Q 56.78125 27.484375 56.78125 20.515625 
Q 56.78125 9.90625 50.3125 4.234375 
Q 43.84375 -1.421875 31.78125 -1.421875 
Q 19.734375 -1.421875 13.25 4.234375 
Q 6.78125 9.90625 6.78125 20.515625 
Q 6.78125 27.484375 10.78125 32.3125 
Q 14.796875 37.15625 21.921875 38.8125 
z
M 18.3125 54.390625 
Q 18.3125 48.734375 21.84375 45.5625 
Q 25.390625 42.390625 31.78125 42.390625 
Q 38.140625 42.390625 41.71875 45.5625 
Q 45.3125 48.734375 45.3125 54.390625 
Q 45.3125 60.0625 41.71875 63.234375 
Q 38.140625 66.40625 31.78125 66.40625 
Q 25.390625 66.40625 21.84375 63.234375 
Q 18.3125 60.0625 18.3125 54.390625 
z
" id="DejaVuSans-56"/>
      </defs>
      <g transform="translate(20.878125 86.265399)scale(0.1 -0.1)">
       <use xlink:href="#DejaVuSans-48"/>
       <use x="63.623047" xlink:href="#DejaVuSans-46"/>
       <use x="95.410156" xlink:href="#DejaVuSans-56"/>
      </g>
     </g>
    </g>
    <g id="ytick_6">
     <g id="line2d_14">
      <g>
       <use style="stroke:#000000;stroke-width:0.8;" x="43.78125" xlink:href="#mabdc7e0648" y="34.414125"/>
      </g>
     </g>
     <g id="text_15">
      <!-- 1.0 -->
      <g transform="translate(20.878125 38.213344)scale(0.1 -0.1)">
       <use xlink:href="#DejaVuSans-49"/>
       <use x="63.623047" xlink:href="#DejaVuSans-46"/>
       <use x="95.410156" xlink:href="#DejaVuSans-48"/>
      </g>
     </g>
    </g>
    <g id="text_16">
     <!-- Loss -->
     <defs>
      <path d="M 9.8125 72.90625 
L 19.671875 72.90625 
L 19.671875 8.296875 
L 55.171875 8.296875 
L 55.171875 0 
L 9.8125 0 
z
" id="DejaVuSans-76"/>
      <path d="M 44.28125 53.078125 
L 44.28125 44.578125 
Q 40.484375 46.53125 36.375 47.5 
Q 32.28125 48.484375 27.875 48.484375 
Q 21.1875 48.484375 17.84375 46.4375 
Q 14.5 44.390625 14.5 40.28125 
Q 14.5 37.15625 16.890625 35.375 
Q 19.28125 33.59375 26.515625 31.984375 
L 29.59375 31.296875 
Q 39.15625 29.25 43.1875 25.515625 
Q 47.21875 21.78125 47.21875 15.09375 
Q 47.21875 7.46875 41.1875 3.015625 
Q 35.15625 -1.421875 24.609375 -1.421875 
Q 20.21875 -1.421875 15.453125 -0.5625 
Q 10.6875 0.296875 5.421875 2 
L 5.421875 11.28125 
Q 10.40625 8.6875 15.234375 7.390625 
Q 20.0625 6.109375 24.8125 6.109375 
Q 31.15625 6.109375 34.5625 8.28125 
Q 37.984375 10.453125 37.984375 14.40625 
Q 37.984375 18.0625 35.515625 20.015625 
Q 33.0625 21.96875 24.703125 23.78125 
L 21.578125 24.515625 
Q 13.234375 26.265625 9.515625 29.90625 
Q 5.8125 33.546875 5.8125 39.890625 
Q 5.8125 47.609375 11.28125 51.796875 
Q 16.75 56 26.8125 56 
Q 31.78125 56 36.171875 55.265625 
Q 40.578125 54.546875 44.28125 53.078125 
z
" id="DejaVuSans-115"/>
     </defs>
     <g transform="translate(14.798438 166.428031)rotate(-90)scale(0.1 -0.1)">
      <use xlink:href="#DejaVuSans-76"/>
      <use x="55.697266" xlink:href="#DejaVuSans-111"/>
      <use x="116.878906" xlink:href="#DejaVuSans-115"/>
      <use x="168.978516" xlink:href="#DejaVuSans-115"/>
     </g>
    </g>
   </g>
   <g id="line2d_15">
    <path clip-path="url(#pe6151ef085)" d="M 60.013977 207.369795 
L 61.901504 207.754243 
L 62.845267 117.110332 
L 64.732793 117.764717 
L 65.676557 175.538589 
L 67.564083 175.452435 
L 68.507846 154.472034 
L 70.395373 155.028873 
L 71.339136 145.324091 
L 73.226662 145.304666 
L 74.170425 220.060457 
L 76.057952 220.213776 
L 77.001715 165.250645 
L 78.889242 165.821904 
L 79.833005 143.507508 
L 81.720531 144.311349 
L 82.664294 184.968528 
L 84.551821 185.277105 
L 85.495584 240.954888 
L 87.38311 241.972915 
L 88.326874 115.943455 
L 89.270637 116.565199 
L 90.2144 117.346964 
L 91.158163 169.039912 
L 92.101927 169.655012 
L 93.04569 170.523999 
L 93.989453 205.625035 
L 95.876979 208.673427 
L 96.820743 98.421699 
L 97.764506 99.361478 
L 98.708269 100.510832 
L 99.652032 157.618968 
L 101.539559 158.707743 
L 102.483322 123.507014 
L 103.427085 123.982924 
L 104.370848 124.107725 
L 105.314612 139.807704 
L 106.258375 139.805342 
L 107.202138 139.636355 
L 108.145901 174.660706 
L 109.089664 174.787674 
L 110.033428 174.592033 
L 110.977191 232.868769 
L 112.864717 232.85374 
L 113.80848 111.94891 
L 115.696007 113.372845 
L 116.63977 34.414125 
L 117.583533 35.052299 
L 118.527297 36.044122 
L 119.47106 111.666422 
L 120.414823 110.143337 
L 121.358586 109.637988 
L 122.302349 217.630461 
L 123.246113 218.867554 
L 124.189876 220.682155 
L 125.133639 156.857576 
L 126.077402 157.277115 
L 127.021165 157.092272 
L 127.964929 178.701535 
L 128.908692 179.622981 
L 129.852455 180.794995 
L 130.796218 130.183263 
L 131.739982 130.447175 
L 132.683745 130.879762 
L 133.627508 132.123566 
L 134.571271 131.162325 
L 135.515034 132.499923 
L 136.458798 159.293896 
L 137.402561 159.278455 
L 138.346324 160.623244 
L 139.290087 258.220793 
L 140.23385 260.712247 
L 141.177614 260.311693 
L 142.121377 162.068025 
L 143.06514 162.544278 
L 144.008903 163.202316 
L 144.952666 221.274044 
L 145.89643 221.446224 
L 146.840193 220.908648 
L 147.783956 246.224254 
L 148.727719 246.973921 
L 149.671483 247.265934 
L 150.615246 96.983564 
L 151.559009 96.756141 
L 152.502772 96.032635 
L 153.446535 91.175973 
L 154.390299 92.24538 
L 155.334062 93.760055 
L 156.277825 80.206893 
L 157.221588 80.30091 
L 158.165351 80.641963 
L 159.109115 84.76067 
L 160.052878 85.035862 
L 160.996641 85.084491 
L 161.940404 172.941051 
L 162.884168 173.436706 
L 163.827931 174.275774 
L 164.771694 224.718319 
L 165.715457 224.581565 
L 166.65922 225.008666 
L 167.602984 212.011644 
L 169.49051 211.593749 
L 170.434273 167.980244 
L 171.378036 168.483698 
L 172.3218 169.27303 
L 173.265563 146.922544 
L 174.209326 151.775693 
L 175.153089 152.775336 
L 176.096853 183.550288 
L 177.984379 185.812618 
L 178.928142 140.240546 
L 179.871905 140.729205 
L 180.815669 141.350335 
L 181.759432 163.768574 
L 182.703195 163.900101 
L 183.646958 163.489463 
L 184.590721 200.602395 
L 185.534485 201.310444 
L 186.478248 201.775232 
L 187.422011 169.645283 
L 188.365774 171.104765 
L 189.309538 172.031556 
L 190.253301 180.400517 
L 191.197064 183.739432 
L 192.140827 179.424955 
L 193.08459 210.670668 
L 194.028354 211.561003 
L 194.972117 212.203847 
L 195.91588 218.71896 
L 197.803406 218.230293 
L 198.74717 87.373505 
L 200.634696 87.229884 
L 201.578459 161.474556 
L 202.522223 161.361966 
L 203.465986 160.887821 
L 204.409749 235.926652 
L 205.353512 235.988626 
L 206.297275 236.211412 
L 207.241039 192.990566 
L 209.128565 193.359177 
L 210.072328 207.034527 
L 211.016091 206.852283 
L 211.959855 206.849237 
L 212.903618 128.55924 
L 214.791144 129.032167 
L 215.734908 250.27423 
L 216.678671 249.493513 
L 217.622434 249.123471 
L 218.566197 181.122316 
L 220.453724 181.743011 
L 221.397487 195.561594 
L 223.285013 195.848451 
L 224.228776 182.923686 
L 226.116303 183.051417 
L 227.060066 196.548194 
L 228.947592 196.405587 
L 229.891356 165.432992 
L 231.778882 166.546272 
L 232.722645 245.857485 
L 234.610172 245.798246 
L 235.553935 159.566814 
L 236.497698 160.4532 
L 237.441461 160.96556 
L 238.385225 171.894759 
L 240.272751 171.994863 
L 241.216514 197.174619 
L 243.104041 197.80048 
L 244.047804 186.804036 
L 244.991567 187.094898 
L 245.93533 187.555285 
L 246.879094 186.169497 
L 248.76662 186.828718 
L 249.710383 144.197158 
L 251.59791 145.135717 
L 252.541673 240.347302 
L 254.429199 240.511387 
L 255.372962 221.882981 
L 257.260489 222.414508 
L 258.204252 207.83568 
L 259.148015 208.337397 
L 260.091779 209.214715 
L 261.035542 207.596178 
L 262.923068 207.738423 
L 263.866831 180.669276 
L 264.810595 180.712939 
L 265.754358 180.127681 
L 266.698121 211.440156 
L 267.641884 211.483391 
L 268.585647 211.768175 
L 269.529411 163.55483 
L 270.473174 164.608182 
L 271.416937 164.808409 
L 272.3607 187.453537 
L 273.304464 188.58473 
L 274.248227 188.858879 
L 275.19199 135.455647 
L 276.135753 136.167013 
L 277.079516 132.843076 
L 278.02328 153.467296 
L 278.967043 152.327846 
L 279.910806 154.069861 
L 281.798332 150.803539 
L 282.742096 154.099062 
L 283.685859 232.956761 
L 284.629622 229.217031 
L 285.573385 235.688889 
L 286.517149 266.940619 
L 287.460912 274.674401 
L 288.404675 274.561157 
L 289.348438 147.848984 
L 290.292201 149.09612 
L 291.235965 149.488364 
L 292.179728 176.722795 
L 293.123491 178.424134 
L 294.067254 179.681576 
L 295.011017 206.41256 
L 295.954781 207.450933 
L 296.898544 207.821699 
L 297.842307 195.293066 
L 298.78607 193.313852 
L 299.729834 194.237594 
L 300.673597 210.830921 
L 301.61736 210.851124 
L 302.561123 211.107194 
L 303.504886 179.523249 
L 304.44865 179.955466 
L 305.392413 180.193423 
L 306.336176 210.958613 
L 307.279939 210.879982 
L 308.223702 211.078104 
L 309.167466 217.357292 
L 311.054992 218.533607 
L 311.998755 214.198837 
L 312.942518 214.565854 
L 313.886282 213.963227 
L 314.830045 194.176077 
L 315.773808 194.799117 
L 316.717571 195.12859 
L 317.661335 136.561335 
L 318.605098 136.126353 
L 319.548861 136.769814 
L 320.492624 105.887576 
L 321.436387 107.598846 
L 322.380151 109.064325 
L 323.323914 188.763522 
L 325.21144 188.824852 
L 326.155203 155.644977 
L 328.04273 155.478116 
L 328.986493 160.731971 
L 329.930256 159.672333 
L 330.87402 159.625677 
L 331.817783 197.827137 
L 332.761546 198.044853 
L 333.705309 197.923502 
L 334.649072 211.373311 
L 335.592836 211.896195 
L 336.536599 212.184859 
L 337.480362 189.416889 
L 339.367888 189.367322 
L 340.311652 222.806175 
L 341.255415 222.555037 
L 342.199178 222.712727 
L 343.142941 143.236538 
L 344.086705 144.978978 
L 345.030468 144.408765 
L 345.974231 155.375182 
L 346.917994 155.457232 
L 347.861757 154.951323 
L 348.805521 210.406764 
L 349.749284 210.540948 
L 350.693047 210.501757 
L 351.63681 198.475956 
L 352.580573 198.294113 
L 353.524337 198.672643 
L 354.4681 132.052343 
L 355.411863 136.34254 
L 356.355626 132.576462 
L 357.29939 199.655813 
L 359.186916 199.783706 
L 360.130679 196.661939 
L 361.074442 196.796817 
L 362.018206 197.33188 
L 362.961969 206.384165 
L 363.905732 206.500871 
L 364.849495 205.48263 
L 365.793258 146.993124 
L 366.737022 145.139252 
L 367.680785 147.780889 
L 368.624548 121.558178 
L 369.568311 123.146375 
L 370.512075 122.323114 
L 371.455838 179.715363 
L 372.399601 179.767151 
L 373.343364 180.312675 
L 374.287127 183.750695 
L 375.230891 181.876664 
L 376.174654 183.632309 
L 377.118417 200.956241 
L 378.06218 201.246383 
L 379.005943 200.148466 
L 379.949707 198.047914 
L 380.89347 197.875305 
L 381.837233 198.171167 
L 382.780996 211.447216 
L 383.72476 211.063337 
L 384.668523 211.725841 
L 384.668523 211.725841 
" style="fill:none;stroke:#1f77b4;stroke-linecap:square;stroke-opacity:0.3;stroke-width:1.5;"/>
   </g>
   <g id="line2d_16">
    <path clip-path="url(#pe6151ef085)" d="M 60.013977 230.453416 
L 60.95774 186.811233 
L 61.901504 159.637481 
L 62.845267 145.77666 
L 63.78903 142.073271 
L 64.732793 145.371812 
L 65.676557 145.981106 
L 66.62032 152.914843 
L 67.564083 165.599584 
L 68.507846 166.23966 
L 69.451609 155.578022 
L 70.395373 147.120078 
L 71.339136 150.714696 
L 73.226662 178.810279 
L 74.170425 187.67722 
L 75.114189 195.180486 
L 76.057952 196.861934 
L 77.001715 190.941089 
L 77.945478 174.929309 
L 78.889242 156.519016 
L 79.833005 150.649604 
L 80.776768 147.2418 
L 81.720531 157.591017 
L 82.664294 169.594351 
L 83.608058 196.822713 
L 84.551821 213.687015 
L 85.495584 216.643166 
L 86.439347 204.08173 
L 87.38311 186.388412 
L 88.326874 171.618553 
L 89.270637 153.96148 
L 90.2144 140.280468 
L 91.158163 142.07364 
L 93.04569 189.255324 
L 93.989453 191.23379 
L 94.933216 177.539269 
L 95.876979 159.39938 
L 96.820743 146.823067 
L 97.764506 138.920152 
L 98.708269 129.392302 
L 99.652032 126.787621 
L 100.595795 129.106944 
L 101.539559 141.428039 
L 102.483322 141.860766 
L 104.370848 129.436303 
L 106.258375 135.811285 
L 108.145901 164.134856 
L 109.089664 190.787197 
L 110.033428 203.884584 
L 110.977191 207.09087 
L 111.920954 206.492148 
L 112.864717 187.707071 
L 113.80848 160.669224 
L 115.696007 81.973654 
L 116.63977 61.503819 
L 117.583533 46.955296 
L 118.527297 61.496517 
L 119.47106 79.914504 
L 121.358586 154.358706 
L 122.302349 178.154494 
L 123.246113 189.13788 
L 124.189876 188.623688 
L 125.133639 189.320064 
L 126.077402 187.442361 
L 127.021165 171.786094 
L 127.964929 164.835783 
L 128.908692 159.801083 
L 129.852455 159.329602 
L 130.796218 151.501082 
L 131.739982 140.363492 
L 132.683745 131.480269 
L 133.627508 129.283623 
L 134.571271 124.672308 
L 135.515034 136.47893 
L 136.458798 152.568544 
L 137.402561 182.370233 
L 138.346324 204.336996 
L 139.290087 218.004073 
L 140.23385 217.605174 
L 142.121377 209.892128 
L 143.06514 200.231219 
L 144.008903 188.292173 
L 144.952666 192.78633 
L 145.89643 218.980584 
L 146.840193 238.538422 
L 147.783956 234.478847 
L 148.727719 216.940473 
L 151.559009 128.95687 
L 152.502772 101.59642 
L 153.446535 83.976555 
L 154.390299 77.718356 
L 155.334062 87.452623 
L 156.277825 85.112651 
L 157.221588 76.176413 
L 158.165351 77.328296 
L 159.109115 85.829251 
L 160.052878 96.321657 
L 160.996641 116.660532 
L 163.827931 191.20613 
L 164.771694 209.621271 
L 165.715457 223.118345 
L 166.65922 220.457541 
L 167.602984 218.367537 
L 168.546747 211.709394 
L 169.49051 196.089279 
L 170.434273 183.606762 
L 171.378036 169.306419 
L 172.3218 160.681932 
L 173.265563 156.018828 
L 174.209326 161.034377 
L 175.153089 167.673903 
L 176.096853 168.403343 
L 177.040616 165.860614 
L 177.984379 165.025157 
L 178.928142 161.277326 
L 179.871905 153.934489 
L 180.815669 149.476306 
L 181.759432 153.326746 
L 182.703195 165.507983 
L 183.646958 179.584355 
L 184.590721 186.366717 
L 185.534485 188.536206 
L 186.478248 186.753876 
L 187.422011 185.805208 
L 189.309538 174.507117 
L 190.253301 176.44376 
L 191.197064 182.099645 
L 192.140827 192.506077 
L 193.08459 200.402884 
L 194.028354 218.580956 
L 194.972117 221.313822 
L 195.91588 212.267691 
L 197.803406 161.710266 
L 199.690933 122.69484 
L 200.634696 117.077228 
L 201.578459 126.623027 
L 202.522223 154.01168 
L 203.465986 190.604145 
L 204.409749 209.2866 
L 205.353512 217.439541 
L 206.297275 215.17601 
L 207.241039 215.424995 
L 208.184802 217.443747 
L 209.128565 205.27557 
L 210.072328 195.666981 
L 211.016091 174.693305 
L 211.959855 167.847129 
L 212.903618 165.497539 
L 213.847381 175.638494 
L 214.791144 184.116642 
L 216.678671 203.98809 
L 217.622434 216.898516 
L 218.566197 216.524412 
L 219.50996 209.044948 
L 220.453724 190.470717 
L 221.397487 185.253778 
L 222.34125 183.502272 
L 223.285013 189.307802 
L 224.228776 189.490145 
L 225.17254 192.044068 
L 226.116303 190.780241 
L 227.060066 189.028829 
L 228.003829 179.803261 
L 228.947592 178.786095 
L 229.891356 182.047302 
L 230.835119 196.45395 
L 231.778882 204.194257 
L 232.722645 208.797609 
L 233.666409 209.1335 
L 234.610172 208.088826 
L 235.553935 199.661498 
L 236.497698 184.315847 
L 237.441461 166.725918 
L 238.385225 162.969232 
L 239.328988 168.500564 
L 240.272751 182.340896 
L 241.216514 187.590816 
L 242.160277 191.236086 
L 243.104041 192.392716 
L 244.047804 192.774088 
L 244.991567 194.769674 
L 245.93533 189.961072 
L 246.879094 184.386212 
L 247.822857 169.303386 
L 248.76662 163.960438 
L 249.710383 165.003797 
L 250.654146 173.752019 
L 251.59791 185.495995 
L 252.541673 199.123252 
L 254.429199 230.306932 
L 255.372962 234.74063 
L 256.316726 231.044365 
L 257.260489 217.453113 
L 258.204252 212.681546 
L 259.148015 211.795742 
L 260.091779 210.460533 
L 261.035542 206.167706 
L 261.979305 198.752512 
L 262.923068 195.144635 
L 263.866831 192.467039 
L 264.810595 196.064165 
L 265.754358 196.808423 
L 266.698121 195.529283 
L 267.641884 191.520123 
L 268.585647 189.966097 
L 269.529411 185.783862 
L 270.473174 185.602861 
L 271.416937 178.962578 
L 272.3607 174.008719 
L 273.304464 167.519153 
L 274.248227 165.373469 
L 277.079516 144.498524 
L 278.02328 142.250284 
L 278.967043 137.807789 
L 280.854569 156.622343 
L 281.798332 167.29745 
L 282.742096 181.33355 
L 283.685859 201.72832 
L 284.629622 234.295821 
L 285.573385 252.622598 
L 286.517149 256.556241 
L 287.460912 243.763361 
L 288.404675 220.107197 
L 289.348438 201.726945 
L 290.292201 180.477314 
L 291.235965 164.159593 
L 292.179728 159.707219 
L 293.123491 168.646232 
L 294.067254 189.662502 
L 295.011017 197.283718 
L 295.954781 200.129794 
L 296.898544 200.258339 
L 297.842307 201.965868 
L 298.78607 205.231081 
L 299.729834 203.416424 
L 300.673597 202.151916 
L 301.61736 197.494608 
L 302.561123 195.886796 
L 304.44865 193.218442 
L 305.392413 193.025161 
L 306.336176 196.906043 
L 307.279939 203.793057 
L 308.223702 212.710494 
L 309.167466 216.985042 
L 310.111229 220.088618 
L 311.054992 217.454388 
L 311.998755 215.352386 
L 312.942518 216.537858 
L 313.886282 210.404944 
L 315.773808 189.125689 
L 316.717571 174.179973 
L 317.661335 156.885322 
L 318.605098 133.75685 
L 319.548861 122.141302 
L 320.492624 118.480628 
L 321.436387 127.484547 
L 322.380151 143.054335 
L 324.267677 163.180806 
L 325.21144 172.46865 
L 326.155203 174.147681 
L 327.098967 166.704161 
L 328.04273 156.287194 
L 328.986493 157.66192 
L 329.930256 162.77735 
L 330.87402 173.922178 
L 331.817783 183.603968 
L 332.761546 195.237814 
L 333.705309 203.202182 
L 334.649072 207.826391 
L 335.592836 204.963087 
L 336.536599 200.333808 
L 337.480362 200.512419 
L 338.424125 208.462082 
L 339.367888 208.411566 
L 340.311652 204.875639 
L 342.199178 189.507712 
L 343.142941 177.858284 
L 344.086705 160.358719 
L 345.030468 148.264284 
L 345.974231 148.209486 
L 346.917994 158.622658 
L 347.861757 177.58394 
L 348.805521 188.720374 
L 349.749284 203.449492 
L 350.693047 207.313845 
L 351.63681 204.101593 
L 353.524337 169.125269 
L 354.4681 161.217827 
L 355.411863 159.181088 
L 356.355626 162.645487 
L 357.29939 169.366559 
L 358.243153 179.695424 
L 359.186916 195.449443 
L 361.074442 210.007209 
L 362.018206 204.633628 
L 362.961969 199.909485 
L 363.905732 194.197385 
L 364.849495 183.621499 
L 365.793258 169.709831 
L 366.737022 149.495035 
L 367.680785 135.647226 
L 368.624548 130.416329 
L 369.568311 133.502404 
L 370.512075 146.096515 
L 372.399601 165.440363 
L 373.343364 177.834907 
L 374.287127 186.189606 
L 375.230891 191.153295 
L 376.174654 190.241025 
L 377.118417 193.873428 
L 378.06218 195.763837 
L 379.005943 198.133505 
L 379.949707 200.812109 
L 380.89347 201.293418 
L 381.837233 202.245428 
L 382.780996 204.370518 
L 383.72476 208.371068 
L 384.668523 214.949459 
L 384.668523 214.949459 
" style="fill:none;stroke:#1f77b4;stroke-linecap:square;stroke-width:1.5;"/>
   </g>
   <g id="line2d_17">
    <path clip-path="url(#pe6151ef085)" d="M 60.013977 118.63887 
L 61.901504 122.829917 
L 62.845267 34.414125 
L 64.732793 41.711642 
L 65.676557 149.807645 
L 67.564083 153.970936 
L 68.507846 115.392054 
L 70.395373 119.153326 
L 71.339136 120.406204 
L 73.226662 123.533185 
L 74.170425 176.220789 
L 76.057952 178.006165 
L 77.001715 112.487329 
L 78.889242 113.911869 
L 79.833005 157.517094 
L 81.720531 158.569014 
L 82.664294 171.187097 
L 84.551821 171.923116 
L 85.495584 250.416261 
L 87.38311 250.759895 
L 88.326874 165.278189 
L 90.2144 165.99741 
L 91.158163 215.741281 
L 93.04569 216.204247 
L 93.989453 234.675451 
L 95.876979 234.975305 
L 96.820743 171.929716 
L 98.708269 172.532197 
L 99.652032 209.687645 
L 101.539559 210.107847 
L 102.483322 121.678852 
L 104.370848 122.147368 
L 105.314612 207.460322 
L 107.202138 207.894112 
L 108.145901 239.183354 
L 110.033428 239.472972 
L 110.977191 248.835415 
L 112.864717 248.950868 
L 113.80848 185.026029 
L 115.696007 185.487091 
L 116.63977 162.799667 
L 118.527297 163.313962 
L 119.47106 163.140581 
L 121.358586 163.493317 
L 122.302349 252.731861 
L 124.189876 252.83782 
L 125.133639 249.030952 
L 127.021165 249.184055 
L 127.964929 211.688235 
L 129.852455 211.805146 
L 130.796218 243.98925 
L 132.683745 244.053115 
L 133.627508 251.313269 
L 135.515034 251.435614 
L 136.458798 259.921972 
L 138.346324 259.956758 
L 139.290087 244.015176 
L 141.177614 243.983477 
L 142.121377 262.970701 
L 144.008903 262.965792 
L 144.952666 263.601821 
L 146.840193 263.665826 
L 147.783956 232.818644 
L 149.671483 232.815216 
L 150.615246 256.66147 
L 152.502772 256.565597 
L 153.446535 252.969836 
L 155.334062 252.921707 
L 156.277825 256.936414 
L 158.165351 256.851342 
L 159.109115 242.551727 
L 160.996641 242.484891 
L 161.940404 260.807891 
L 163.827931 260.826002 
L 164.771694 269.134393 
L 166.65922 269.21431 
L 167.602984 265.424931 
L 169.49051 265.510455 
L 170.434273 268.015709 
L 172.3218 268.033287 
L 173.265563 253.582352 
L 175.153089 253.583845 
L 176.096853 269.757225 
L 177.984379 269.767958 
L 178.928142 266.50633 
L 180.815669 266.461682 
L 181.759432 270.828982 
L 183.646958 270.814278 
L 184.590721 270.089358 
L 186.478248 270.127127 
L 187.422011 271.128877 
L 189.309538 271.127082 
L 190.253301 272.495616 
L 192.140827 272.512443 
L 193.08459 253.589272 
L 194.972117 253.645821 
L 195.91588 233.24735 
L 197.803406 233.2785 
L 198.74717 237.116315 
L 200.634696 237.372143 
L 201.578459 258.607258 
L 203.465986 258.692406 
L 204.409749 262.330157 
L 206.297275 262.370665 
L 207.241039 271.348738 
L 209.128565 271.382504 
L 210.072328 273.207622 
L 211.959855 273.212059 
L 212.903618 272.739674 
L 214.791144 272.732547 
L 215.734908 267.941475 
L 217.622434 268.046575 
L 218.566197 269.164585 
L 220.453724 269.211645 
L 221.397487 272.421127 
L 223.285013 272.49223 
L 224.228776 273.74906 
L 226.116303 273.78687 
L 227.060066 273.063515 
L 228.947592 273.12023 
L 229.891356 272.816392 
L 231.778882 272.831799 
L 232.722645 264.688264 
L 234.610172 264.799998 
L 235.553935 273.816948 
L 237.441461 273.803797 
L 238.385225 273.589516 
L 240.272751 273.618922 
L 241.216514 272.707274 
L 243.104041 272.78658 
L 244.047804 273.065909 
L 245.93533 273.159487 
L 246.879094 272.09501 
L 248.76662 272.149388 
L 249.710383 274.663171 
L 251.59791 274.674401 
L 252.541673 270.266031 
L 254.429199 270.556556 
L 255.372962 271.289221 
L 257.260489 271.576476 
L 258.204252 270.034584 
L 260.091779 270.51584 
L 261.035542 272.456127 
L 262.923068 272.811197 
L 263.866831 273.90931 
L 265.754358 273.89024 
L 266.698121 273.097239 
L 268.585647 273.443516 
L 269.529411 273.199435 
L 271.416937 273.165549 
L 272.3607 274.530456 
L 274.248227 274.573685 
L 275.19199 273.992883 
L 277.079516 273.963879 
L 278.02328 273.282704 
L 279.910806 273.27794 
L 280.854569 273.684896 
L 282.742096 273.684847 
L 283.685859 273.287254 
L 285.573385 273.286878 
L 286.517149 271.466241 
L 288.404675 271.486402 
L 289.348438 274.463132 
L 291.235965 274.45629 
L 292.179728 274.606038 
L 296.898544 274.580758 
L 298.78607 274.47285 
L 300.673597 274.575839 
L 302.561123 274.57331 
L 303.504886 273.389136 
L 305.392413 273.382406 
L 306.336176 274.088803 
L 308.223702 274.081498 
L 309.167466 271.941757 
L 311.054992 271.933571 
L 311.998755 274.567432 
L 313.886282 274.563758 
L 314.830045 274.295741 
L 316.717571 274.296049 
L 317.661335 244.148075 
L 319.548861 244.150634 
L 320.492624 249.84225 
L 322.380151 249.846673 
L 323.323914 271.592359 
L 325.21144 271.584399 
L 326.155203 264.512375 
L 328.04273 264.510345 
L 328.986493 269.768828 
L 330.87402 269.757421 
L 331.817783 271.050383 
L 333.705309 271.047407 
L 334.649072 274.361596 
L 336.536599 274.358289 
L 337.480362 273.50869 
L 339.367888 273.500125 
L 340.311652 274.485021 
L 342.199178 274.483551 
L 343.142941 257.390838 
L 345.030468 257.384603 
L 345.974231 266.83453 
L 347.861757 266.842052 
L 348.805521 274.218153 
L 350.693047 274.226594 
L 351.63681 273.89654 
L 353.524337 273.899445 
L 354.4681 273.029854 
L 356.355626 273.033487 
L 357.29939 271.891801 
L 359.186916 271.907608 
L 360.130679 272.671675 
L 362.018206 272.675473 
L 362.961969 271.926556 
L 364.849495 271.938 
L 365.793258 266.614185 
L 367.680785 266.626992 
L 368.624548 245.365438 
L 370.512075 245.389752 
L 371.455838 271.995573 
L 373.343364 272.004787 
L 374.287127 272.768026 
L 376.174654 272.78618 
L 377.118417 273.274894 
L 380.89347 273.165424 
L 381.837233 273.16229 
L 382.780996 273.398602 
L 384.668523 273.397849 
L 384.668523 273.397849 
" style="fill:none;stroke:#ff7f0e;stroke-linecap:square;stroke-opacity:0.3;stroke-width:1.5;"/>
   </g>
   <g id="line2d_18">
    <path clip-path="url(#pe6151ef085)" d="M 60.013977 147.259968 
L 60.95774 94.133538 
L 61.901504 67.51918 
L 62.845267 61.636453 
L 63.78903 70.704917 
L 64.732793 88.94413 
L 65.676557 100.147866 
L 66.62032 115.018765 
L 67.564083 133.955964 
L 68.507846 138.263369 
L 69.451609 129.948005 
L 70.395373 117.367048 
L 71.339136 120.113284 
L 73.226662 147.999148 
L 74.170425 153.046721 
L 77.001715 143.773408 
L 78.889242 132.808309 
L 79.833005 136.785755 
L 80.776768 139.765621 
L 82.664294 172.17272 
L 83.608058 195.606781 
L 84.551821 207.778793 
L 85.495584 216.723683 
L 86.439347 214.603456 
L 87.38311 210.664587 
L 88.326874 206.234329 
L 89.270637 197.782925 
L 90.2144 187.789195 
L 91.158163 191.426477 
L 93.04569 225.446647 
L 93.989453 228.008532 
L 94.933216 219.539596 
L 95.876979 206.921629 
L 96.820743 199.680508 
L 97.764506 201.28785 
L 98.708269 195.193342 
L 99.652032 187.523604 
L 100.595795 172.274563 
L 101.539559 168.181286 
L 103.427085 157.234616 
L 104.370848 157.4202 
L 105.314612 169.397248 
L 106.258375 188.643259 
L 107.202138 216.258302 
L 109.089664 247.460019 
L 110.977191 244.54557 
L 111.920954 238.729088 
L 113.80848 210.145702 
L 115.696007 178.958584 
L 116.63977 167.836954 
L 117.583533 154.718644 
L 118.527297 158.446448 
L 119.47106 165.373032 
L 120.414823 179.661527 
L 123.246113 237.266652 
L 124.189876 250.160537 
L 125.133639 254.70924 
L 126.077402 247.14183 
L 127.021165 232.424292 
L 127.964929 227.599159 
L 128.908692 224.788136 
L 129.852455 225.567574 
L 130.796218 229.166681 
L 131.739982 235.166607 
L 132.683745 245.123598 
L 133.627508 250.829254 
L 134.571271 255.658938 
L 135.515034 255.487957 
L 136.458798 256.384225 
L 137.402561 254.059255 
L 138.346324 252.102275 
L 139.290087 251.609791 
L 140.23385 251.659367 
L 141.177614 252.106984 
L 142.121377 254.466578 
L 143.06514 260.538352 
L 144.008903 264.413021 
L 144.952666 263.34126 
L 146.840193 249.900082 
L 147.783956 246.026174 
L 148.727719 244.139245 
L 149.671483 243.711209 
L 150.615246 245.107766 
L 151.559009 248.188762 
L 152.502772 253.970181 
L 153.446535 256.058245 
L 154.390299 257.672842 
L 155.334062 255.55516 
L 156.277825 254.53353 
L 157.221588 251.383398 
L 158.165351 249.885627 
L 159.109115 249.183902 
L 160.052878 248.696516 
L 160.996641 249.801978 
L 161.940404 252.980245 
L 162.884168 257.92566 
L 163.827931 263.626459 
L 164.771694 266.857675 
L 165.715457 268.075784 
L 166.65922 267.212843 
L 167.602984 267.564208 
L 168.546747 268.640246 
L 169.49051 267.545356 
L 170.434273 266.210111 
L 171.378036 262.951225 
L 172.3218 261.190459 
L 173.265563 260.10858 
L 174.209326 260.206301 
L 175.153089 260.774994 
L 176.096853 262.316446 
L 177.040616 264.28774 
L 177.984379 267.551577 
L 178.928142 268.97595 
L 179.871905 269.431301 
L 180.815669 268.377676 
L 182.703195 269.441782 
L 183.646958 270.296435 
L 184.590721 270.702409 
L 185.534485 270.705611 
L 186.478248 270.453226 
L 187.422011 270.733332 
L 188.365774 272.728591 
L 189.309538 272.823947 
L 190.253301 271.268852 
L 191.197064 270.230426 
L 192.140827 266.242183 
L 193.08459 260.376826 
L 194.972117 246.047962 
L 196.859643 234.748027 
L 197.803406 234.291954 
L 198.74717 235.220997 
L 199.690933 238.712455 
L 200.634696 245.339205 
L 201.578459 250.569344 
L 204.409749 262.590561 
L 205.353512 265.049107 
L 206.297275 265.666218 
L 208.184802 270.27644 
L 209.128565 271.773396 
L 210.072328 273.030788 
L 211.016091 273.905216 
L 211.959855 273.250259 
L 212.903618 272.842782 
L 213.847381 271.928087 
L 214.791144 270.794764 
L 216.678671 268.868204 
L 217.622434 268.447521 
L 218.566197 268.542565 
L 219.50996 269.099932 
L 220.453724 270.360649 
L 222.34125 272.219949 
L 223.285013 272.893085 
L 224.228776 273.424982 
L 225.17254 273.666093 
L 226.116303 273.469713 
L 227.060066 273.431524 
L 228.003829 273.965171 
L 228.947592 273.524118 
L 229.891356 272.559801 
L 230.835119 270.434576 
L 231.778882 269.06287 
L 232.722645 268.288379 
L 233.666409 268.177127 
L 234.610172 268.674371 
L 235.553935 269.703996 
L 236.497698 271.354026 
L 237.441461 273.431556 
L 238.385225 274.215094 
L 239.328988 274.196483 
L 240.272751 273.243915 
L 241.216514 273.078558 
L 243.104041 272.988003 
L 244.047804 272.87165 
L 244.991567 272.556706 
L 246.879094 272.642294 
L 247.822857 273.234277 
L 248.76662 273.445407 
L 249.710383 273.404461 
L 251.59791 272.805321 
L 253.485436 271.777474 
L 254.429199 271.045257 
L 255.372962 270.674157 
L 256.316726 270.439721 
L 257.260489 270.790478 
L 259.148015 270.941158 
L 260.091779 271.197667 
L 261.035542 271.696781 
L 262.923068 273.13362 
L 263.866831 273.512891 
L 264.810595 273.705071 
L 267.641884 273.358319 
L 268.585647 273.181396 
L 269.529411 273.244565 
L 273.304464 274.19943 
L 274.248227 274.314132 
L 275.19199 274.267046 
L 278.02328 273.53534 
L 280.854569 273.464488 
L 281.798332 273.619139 
L 282.742096 273.624722 
L 283.685859 273.396535 
L 284.629622 272.785765 
L 285.573385 272.396352 
L 286.517149 272.286863 
L 287.460912 272.391823 
L 288.404675 272.721248 
L 289.348438 273.169676 
L 291.235965 274.403912 
L 292.179728 274.736377 
L 293.123491 274.831 
L 294.067254 274.598083 
L 299.729834 274.592522 
L 300.673597 274.480766 
L 303.504886 273.891565 
L 304.44865 273.953298 
L 306.336176 273.648699 
L 307.279939 273.194237 
L 309.167466 272.936972 
L 311.054992 273.080418 
L 311.998755 273.377977 
L 312.942518 276.334125 
L 313.886282 276.251295 
L 314.830045 273.372994 
L 315.773808 268.049009 
L 318.605098 249.486047 
L 319.548861 246.231676 
L 320.492624 246.552331 
L 321.436387 251.126254 
L 322.380151 258.681539 
L 323.323914 263.050891 
L 324.267677 265.847877 
L 325.21144 267.592153 
L 326.155203 268.893075 
L 327.098967 268.69951 
L 328.04273 266.791732 
L 328.986493 267.287866 
L 329.930256 268.096647 
L 330.87402 269.855936 
L 331.817783 271.001089 
L 332.761546 271.966604 
L 333.705309 272.362974 
L 334.649072 273.09546 
L 335.592836 273.551168 
L 337.480362 274.090823 
L 338.424125 275.584622 
L 339.367888 275.002338 
L 340.311652 273.364821 
L 341.255415 269.995914 
L 342.199178 267.075061 
L 344.086705 262.171927 
L 345.030468 261.344476 
L 345.974231 262.308367 
L 346.917994 265.015486 
L 347.861757 269.409239 
L 348.805521 271.877992 
L 349.749284 273.54353 
L 350.693047 273.856502 
L 351.63681 274.457133 
L 352.580573 274.50479 
L 353.524337 273.639518 
L 357.29939 272.32371 
L 360.130679 272.265918 
L 361.074442 272.721289 
L 362.018206 272.684303 
L 362.961969 272.063229 
L 363.905732 272.863435 
L 364.849495 271.193711 
L 365.793258 267.835042 
L 366.737022 261.129995 
L 367.680785 256.737663 
L 368.624548 254.515508 
L 369.568311 254.462512 
L 370.512075 256.721293 
L 371.455838 260.143372 
L 372.399601 264.994334 
L 373.343364 271.223264 
L 374.287127 274.16489 
L 375.230891 274.963565 
L 376.174654 272.951447 
L 378.06218 273.199642 
L 382.780996 273.263496 
L 384.668523 273.466268 
L 384.668523 273.466268 
" style="fill:none;stroke:#ff7f0e;stroke-linecap:square;stroke-width:1.5;"/>
   </g>
   <g id="line2d_19">
    <path clip-path="url(#pe6151ef085)" d="M 60.013977 46.947285 
L 60.95774 47.103497 
L 61.901504 47.103558 
L 63.78903 46.80171 
L 64.732793 46.583037 
L 65.676557 46.571592 
L 66.62032 46.874656 
L 67.564083 46.40684 
L 68.507846 45.724457 
L 70.395373 43.151662 
L 71.339136 42.12435 
L 72.282899 41.36955 
L 73.226662 40.934778 
L 74.170425 40.850568 
L 75.114189 40.936178 
L 76.057952 41.230496 
L 77.945478 40.256386 
L 78.889242 39.555423 
L 79.833005 39.450011 
L 81.720531 39.43474 
L 82.664294 39.172817 
L 83.608058 38.773492 
L 84.551821 37.956337 
L 85.495584 36.940868 
L 86.439347 35.535764 
L 87.38311 35.108803 
L 88.326874 35.344627 
L 89.270637 36.26192 
L 90.2144 37.558499 
L 91.158163 39.186397 
L 93.04569 44.606467 
L 93.989453 46.741262 
L 94.933216 49.28486 
L 95.876979 50.446751 
L 96.820743 51.330287 
L 97.764506 50.223748 
L 98.708269 50.400896 
L 99.652032 51.531823 
L 101.539559 56.914149 
L 102.483322 58.651185 
L 104.370848 59.828367 
L 105.314612 58.940616 
L 106.258375 58.304124 
L 107.202138 56.468693 
L 108.145901 58.395103 
L 109.089664 61.62746 
L 110.977191 74.17563 
L 111.920954 83.380319 
L 112.864717 89.494691 
L 113.80848 93.467943 
L 114.752244 95.534697 
L 115.696007 96.025582 
L 117.583533 91.122491 
L 119.47106 79.787804 
L 120.414823 75.651779 
L 121.358586 74.899127 
L 122.302349 73.596921 
L 123.246113 75.484013 
L 125.133639 82.260376 
L 126.077402 84.10512 
L 127.964929 91.802754 
L 128.908692 95.230744 
L 129.852455 104.445476 
L 130.796218 111.92862 
L 132.683745 124.959185 
L 133.627508 129.453503 
L 134.571271 131.147 
L 135.515034 130.358179 
L 137.402561 130.758292 
L 138.346324 131.217283 
L 139.290087 135.63092 
L 140.23385 136.779138 
L 141.177614 136.626665 
L 142.121377 139.515487 
L 143.06514 144.65738 
L 144.952666 151.362495 
L 145.89643 156.30973 
L 146.840193 160.511383 
L 147.783956 162.962956 
L 148.727719 164.45028 
L 149.671483 162.817171 
L 150.615246 157.770694 
L 151.559009 149.998546 
L 153.446535 137.578557 
L 154.390299 135.112265 
L 155.334062 138.181226 
L 157.221588 148.030007 
L 158.165351 153.298026 
L 159.109115 155.350913 
L 160.052878 154.147374 
L 160.996641 150.7031 
L 161.940404 151.240493 
L 162.884168 153.466882 
L 163.827931 153.991056 
L 164.771694 152.593647 
L 165.715457 148.735732 
L 167.602984 137.138491 
L 168.546747 128.270497 
L 169.49051 122.719842 
L 170.434273 122.79119 
L 172.3218 138.992281 
L 173.265563 144.378082 
L 174.209326 152.106853 
L 175.153089 155.085425 
L 176.096853 154.452841 
L 177.040616 148.828794 
L 177.984379 141.85111 
L 178.928142 135.977472 
L 179.871905 127.755291 
L 180.815669 126.269368 
L 181.759432 127.068764 
L 182.703195 136.722759 
L 183.646958 149.558722 
L 184.590721 157.675869 
L 186.478248 155.434346 
L 187.422011 154.777208 
L 188.365774 160.301097 
L 189.309538 160.854315 
L 190.253301 164.159345 
L 191.197064 165.529701 
L 192.140827 171.234842 
L 193.08459 173.297874 
L 194.028354 177.808846 
L 194.972117 172.52819 
L 195.91588 168.446533 
L 196.859643 160.386598 
L 197.803406 161.73824 
L 198.74717 156.643682 
L 200.634696 135.407943 
L 201.578459 130.239827 
L 202.522223 132.942416 
L 203.465986 133.802461 
L 204.409749 136.399713 
L 205.353512 143.104699 
L 206.297275 145.706613 
L 207.241039 145.507957 
L 208.184802 141.108418 
L 209.128565 138.735615 
L 210.072328 140.749699 
L 211.016091 141.961556 
L 211.959855 146.008358 
L 212.903618 143.245438 
L 214.791144 154.509168 
L 215.734908 154.284826 
L 216.678671 146.156598 
L 217.622434 140.913298 
L 218.566197 142.131591 
L 219.50996 147.314498 
L 221.397487 154.358904 
L 222.34125 154.06704 
L 223.285013 152.509968 
L 224.228776 149.459471 
L 225.17254 146.979453 
L 226.116303 141.539556 
L 227.060066 138.920009 
L 228.003829 138.692386 
L 228.947592 144.775031 
L 229.891356 150.003977 
L 230.835119 160.118023 
L 231.778882 166.46996 
L 232.722645 170.160095 
L 233.666409 168.548348 
L 234.610172 164.334992 
L 235.553935 154.424217 
L 236.497698 139.431845 
L 237.441461 129.091556 
L 238.385225 125.658806 
L 239.328988 127.603094 
L 240.272751 135.509375 
L 241.216514 140.908049 
L 243.104041 142.833932 
L 244.047804 145.504601 
L 244.991567 155.441792 
L 245.93533 158.51839 
L 246.879094 162.125035 
L 247.822857 157.791023 
L 248.76662 152.932971 
L 249.710383 146.281544 
L 250.654146 135.849977 
L 251.59791 127.342212 
L 252.541673 126.915637 
L 253.485436 133.237012 
L 254.429199 145.777082 
L 255.372962 150.050503 
L 256.316726 150.218206 
L 257.260489 148.663439 
L 258.204252 153.688501 
L 259.148015 167.492684 
L 260.091779 166.581131 
L 261.035542 182.863314 
L 261.979305 187.565745 
L 262.923068 189.400124 
L 263.866831 183.643659 
L 264.810595 174.598771 
L 265.754358 168.445448 
L 266.698121 157.474718 
L 267.641884 155.681016 
L 268.585647 158.272147 
L 269.529411 149.071726 
L 270.473174 164.59913 
L 271.416937 163.038287 
L 272.3607 167.066175 
L 273.304464 176.198347 
L 274.248227 179.471296 
L 275.19199 182.326066 
L 276.135753 170.419078 
L 277.079516 174.735927 
L 278.02328 166.762919 
L 278.967043 177.724507 
L 279.910806 176.231658 
L 280.854569 183.557328 
L 281.798332 195.830941 
L 282.742096 202.065233 
L 283.685859 196.783141 
L 284.629622 189.944011 
L 285.573385 176.741357 
L 286.517149 174.589583 
L 287.460912 174.267141 
L 288.404675 180.685182 
L 289.348438 164.545856 
L 290.292201 168.307843 
L 291.235965 166.417527 
L 293.123491 152.995123 
L 294.067254 144.429952 
L 295.011017 151.400662 
L 295.954781 153.948821 
L 296.898544 167.115843 
L 297.842307 168.378374 
L 298.78607 175.401096 
L 299.729834 176.234229 
L 300.673597 171.05237 
L 301.61736 161.482681 
L 302.561123 149.245938 
L 303.504886 142.910365 
L 304.44865 146.752481 
L 305.392413 139.890539 
L 306.336176 140.940035 
L 307.279939 143.884446 
L 308.223702 153.237229 
L 309.167466 154.648009 
L 310.111229 152.481097 
L 311.054992 151.753071 
L 311.998755 157.561873 
L 312.942518 184.064528 
L 313.886282 200.701498 
L 314.830045 207.586912 
L 315.773808 207.807316 
L 316.717571 199.200409 
L 317.661335 184.304323 
L 318.605098 160.782102 
L 319.548861 140.536904 
L 320.492624 129.177573 
L 321.436387 139.354442 
L 322.380151 161.338454 
L 323.323914 169.237033 
L 324.267677 169.620943 
L 325.21144 169.449156 
L 326.155203 166.378679 
L 328.04273 157.327243 
L 328.986493 161.844338 
L 329.930256 172.805087 
L 330.87402 189.437265 
L 332.761546 206.613175 
L 333.705309 205.487792 
L 334.649072 199.283762 
L 335.592836 194.231588 
L 336.536599 183.665397 
L 337.480362 177.729739 
L 338.424125 169.13708 
L 339.367888 167.493376 
L 340.311652 167.808149 
L 341.255415 178.715403 
L 342.199178 193.41308 
L 343.142941 204.095035 
L 345.030468 216.906544 
L 345.974231 219.087734 
L 346.917994 222.157798 
L 347.861757 216.129708 
L 348.805521 213.995434 
L 349.749284 204.105072 
L 350.693047 204.465962 
L 351.63681 200.147286 
L 352.580573 208.469574 
L 353.524337 208.504163 
L 354.4681 203.568466 
L 357.29939 165.58318 
L 358.243153 156.946868 
L 359.186916 149.630708 
L 360.130679 154.208967 
L 361.074442 171.525214 
L 362.018206 190.981854 
L 362.961969 196.553879 
L 363.905732 189.505129 
L 364.849495 171.579839 
L 365.793258 161.809235 
L 366.737022 159.198383 
L 367.680785 160.888219 
L 368.624548 169.143016 
L 369.568311 188.94698 
L 370.512075 206.07094 
L 371.455838 207.236341 
L 372.399601 201.878316 
L 374.287127 165.94149 
L 375.230891 157.828316 
L 376.174654 152.125346 
L 377.118417 150.679961 
L 378.06218 156.280969 
L 379.005943 162.756888 
L 379.949707 163.670751 
L 380.89347 164.868654 
L 383.72476 167.946648 
L 384.668523 169.289632 
L 384.668523 169.289632 
" style="fill:none;stroke:#008000;stroke-linecap:square;stroke-width:1.5;"/>
   </g>
   <g id="patch_3">
    <path d="M 43.78125 288.430125 
L 43.78125 22.318125 
" style="fill:none;stroke:#000000;stroke-linecap:square;stroke-linejoin:miter;stroke-width:0.8;"/>
   </g>
   <g id="patch_4">
    <path d="M 400.90125 288.430125 
L 400.90125 22.318125 
" style="fill:none;stroke:#000000;stroke-linecap:square;stroke-linejoin:miter;stroke-width:0.8;"/>
   </g>
   <g id="patch_5">
    <path d="M 43.78125 288.430125 
L 400.90125 288.430125 
" style="fill:none;stroke:#000000;stroke-linecap:square;stroke-linejoin:miter;stroke-width:0.8;"/>
   </g>
   <g id="patch_6">
    <path d="M 43.78125 22.318125 
L 400.90125 22.318125 
" style="fill:none;stroke:#000000;stroke-linecap:square;stroke-linejoin:miter;stroke-width:0.8;"/>
   </g>
   <g id="text_17">
    <!-- Entropy and Loss. -->
    <defs>
     <path d="M 9.1875 72.90625 
L 59.90625 72.90625 
L 59.90625 58.6875 
L 27.984375 58.6875 
L 27.984375 45.125 
L 58.015625 45.125 
L 58.015625 30.90625 
L 27.984375 30.90625 
L 27.984375 14.203125 
L 60.984375 14.203125 
L 60.984375 0 
L 9.1875 0 
z
" id="DejaVuSans-Bold-69"/>
     <path d="M 63.375 33.296875 
L 63.375 0 
L 45.796875 0 
L 45.796875 5.421875 
L 45.796875 25.484375 
Q 45.796875 32.5625 45.484375 35.25 
Q 45.171875 37.9375 44.390625 39.203125 
Q 43.359375 40.921875 41.59375 41.875 
Q 39.84375 42.828125 37.59375 42.828125 
Q 32.125 42.828125 29 38.59375 
Q 25.875 34.375 25.875 26.90625 
L 25.875 0 
L 8.40625 0 
L 8.40625 54.6875 
L 25.875 54.6875 
L 25.875 46.6875 
Q 29.828125 51.46875 34.265625 53.734375 
Q 38.71875 56 44.09375 56 
Q 53.5625 56 58.46875 50.1875 
Q 63.375 44.390625 63.375 33.296875 
z
" id="DejaVuSans-Bold-110"/>
     <path d="M 27.484375 70.21875 
L 27.484375 54.6875 
L 45.515625 54.6875 
L 45.515625 42.1875 
L 27.484375 42.1875 
L 27.484375 19 
Q 27.484375 15.1875 29 13.84375 
Q 30.515625 12.5 35.015625 12.5 
L 44 12.5 
L 44 0 
L 29 0 
Q 18.65625 0 14.328125 4.3125 
Q 10.015625 8.640625 10.015625 19 
L 10.015625 42.1875 
L 1.3125 42.1875 
L 1.3125 54.6875 
L 10.015625 54.6875 
L 10.015625 70.21875 
z
" id="DejaVuSans-Bold-116"/>
     <path d="M 49.03125 39.796875 
Q 46.734375 40.875 44.453125 41.375 
Q 42.1875 41.890625 39.890625 41.890625 
Q 33.15625 41.890625 29.515625 37.5625 
Q 25.875 33.25 25.875 25.203125 
L 25.875 0 
L 8.40625 0 
L 8.40625 54.6875 
L 25.875 54.6875 
L 25.875 45.703125 
Q 29.25 51.078125 33.609375 53.53125 
Q 37.984375 56 44.09375 56 
Q 44.96875 56 45.984375 55.921875 
Q 47.015625 55.859375 48.96875 55.609375 
z
" id="DejaVuSans-Bold-114"/>
     <path d="M 34.421875 43.5 
Q 28.609375 43.5 25.5625 39.328125 
Q 22.515625 35.15625 22.515625 27.296875 
Q 22.515625 19.4375 25.5625 15.25 
Q 28.609375 11.078125 34.421875 11.078125 
Q 40.140625 11.078125 43.15625 15.25 
Q 46.1875 19.4375 46.1875 27.296875 
Q 46.1875 35.15625 43.15625 39.328125 
Q 40.140625 43.5 34.421875 43.5 
z
M 34.421875 56 
Q 48.53125 56 56.46875 48.375 
Q 64.40625 40.765625 64.40625 27.296875 
Q 64.40625 13.8125 56.46875 6.1875 
Q 48.53125 -1.421875 34.421875 -1.421875 
Q 20.265625 -1.421875 12.28125 6.1875 
Q 4.296875 13.8125 4.296875 27.296875 
Q 4.296875 40.765625 12.28125 48.375 
Q 20.265625 56 34.421875 56 
z
" id="DejaVuSans-Bold-111"/>
     <path d="M 25.875 7.90625 
L 25.875 -20.796875 
L 8.40625 -20.796875 
L 8.40625 54.6875 
L 25.875 54.6875 
L 25.875 46.6875 
Q 29.5 51.46875 33.890625 53.734375 
Q 38.28125 56 44 56 
Q 54.109375 56 60.59375 47.96875 
Q 67.09375 39.9375 67.09375 27.296875 
Q 67.09375 14.65625 60.59375 6.609375 
Q 54.109375 -1.421875 44 -1.421875 
Q 38.28125 -1.421875 33.890625 0.84375 
Q 29.5 3.125 25.875 7.90625 
z
M 37.5 43.3125 
Q 31.890625 43.3125 28.875 39.1875 
Q 25.875 35.0625 25.875 27.296875 
Q 25.875 19.53125 28.875 15.40625 
Q 31.890625 11.28125 37.5 11.28125 
Q 43.109375 11.28125 46.0625 15.375 
Q 49.03125 19.484375 49.03125 27.296875 
Q 49.03125 35.109375 46.0625 39.203125 
Q 43.109375 43.3125 37.5 43.3125 
z
" id="DejaVuSans-Bold-112"/>
     <path d="M 1.21875 54.6875 
L 18.703125 54.6875 
L 33.40625 17.578125 
L 45.90625 54.6875 
L 63.375 54.6875 
L 40.375 -5.171875 
Q 36.921875 -14.3125 32.296875 -17.9375 
Q 27.6875 -21.578125 20.125 -21.578125 
L 10.015625 -21.578125 
L 10.015625 -10.109375 
L 15.484375 -10.109375 
Q 19.921875 -10.109375 21.9375 -8.6875 
Q 23.96875 -7.28125 25.09375 -3.609375 
L 25.59375 -2.09375 
z
" id="DejaVuSans-Bold-121"/>
     <path id="DejaVuSans-Bold-32"/>
     <path d="M 32.90625 24.609375 
Q 27.4375 24.609375 24.671875 22.75 
Q 21.921875 20.90625 21.921875 17.28125 
Q 21.921875 13.96875 24.140625 12.078125 
Q 26.375 10.203125 30.328125 10.203125 
Q 35.25 10.203125 38.625 13.734375 
Q 42 17.28125 42 22.609375 
L 42 24.609375 
z
M 59.625 31.203125 
L 59.625 0 
L 42 0 
L 42 8.109375 
Q 38.484375 3.125 34.078125 0.84375 
Q 29.6875 -1.421875 23.390625 -1.421875 
Q 14.890625 -1.421875 9.59375 3.53125 
Q 4.296875 8.5 4.296875 16.40625 
Q 4.296875 26.03125 10.90625 30.515625 
Q 17.53125 35.015625 31.6875 35.015625 
L 42 35.015625 
L 42 36.375 
Q 42 40.53125 38.71875 42.453125 
Q 35.453125 44.390625 28.515625 44.390625 
Q 22.90625 44.390625 18.0625 43.265625 
Q 13.234375 42.140625 9.078125 39.890625 
L 9.078125 53.21875 
Q 14.703125 54.59375 20.359375 55.296875 
Q 26.03125 56 31.6875 56 
Q 46.484375 56 53.046875 50.171875 
Q 59.625 44.34375 59.625 31.203125 
z
" id="DejaVuSans-Bold-97"/>
     <path d="M 45.609375 46.6875 
L 45.609375 75.984375 
L 63.1875 75.984375 
L 63.1875 0 
L 45.609375 0 
L 45.609375 7.90625 
Q 42 3.078125 37.640625 0.828125 
Q 33.296875 -1.421875 27.59375 -1.421875 
Q 17.484375 -1.421875 10.984375 6.609375 
Q 4.5 14.65625 4.5 27.296875 
Q 4.5 39.9375 10.984375 47.96875 
Q 17.484375 56 27.59375 56 
Q 33.25 56 37.625 53.734375 
Q 42 51.46875 45.609375 46.6875 
z
M 34.078125 11.28125 
Q 39.703125 11.28125 42.65625 15.375 
Q 45.609375 19.484375 45.609375 27.296875 
Q 45.609375 35.109375 42.65625 39.203125 
Q 39.703125 43.3125 34.078125 43.3125 
Q 28.515625 43.3125 25.5625 39.203125 
Q 22.609375 35.109375 22.609375 27.296875 
Q 22.609375 19.484375 25.5625 15.375 
Q 28.515625 11.28125 34.078125 11.28125 
z
" id="DejaVuSans-Bold-100"/>
     <path d="M 9.1875 72.90625 
L 27.984375 72.90625 
L 27.984375 14.203125 
L 60.984375 14.203125 
L 60.984375 0 
L 9.1875 0 
z
" id="DejaVuSans-Bold-76"/>
     <path d="M 51.125 52.984375 
L 51.125 39.703125 
Q 45.515625 42.046875 40.28125 43.21875 
Q 35.0625 44.390625 30.421875 44.390625 
Q 25.4375 44.390625 23.015625 43.140625 
Q 20.609375 41.890625 20.609375 39.3125 
Q 20.609375 37.203125 22.4375 36.078125 
Q 24.265625 34.96875 29 34.421875 
L 32.078125 33.984375 
Q 45.515625 32.28125 50.140625 28.375 
Q 54.78125 24.46875 54.78125 16.109375 
Q 54.78125 7.375 48.328125 2.96875 
Q 41.890625 -1.421875 29.109375 -1.421875 
Q 23.6875 -1.421875 17.890625 -0.5625 
Q 12.109375 0.296875 6 2 
L 6 15.28125 
Q 11.234375 12.75 16.71875 11.46875 
Q 22.21875 10.203125 27.875 10.203125 
Q 33.015625 10.203125 35.59375 11.609375 
Q 38.1875 13.03125 38.1875 15.828125 
Q 38.1875 18.171875 36.40625 19.3125 
Q 34.625 20.453125 29.296875 21.09375 
L 26.21875 21.484375 
Q 14.546875 22.953125 9.859375 26.90625 
Q 5.171875 30.859375 5.171875 38.921875 
Q 5.171875 47.609375 11.125 51.796875 
Q 17.09375 56 29.390625 56 
Q 34.234375 56 39.546875 55.265625 
Q 44.875 54.546875 51.125 52.984375 
z
" id="DejaVuSans-Bold-115"/>
     <path d="M 10.203125 18.890625 
L 27.78125 18.890625 
L 27.78125 0 
L 10.203125 0 
z
" id="DejaVuSans-Bold-46"/>
    </defs>
    <g transform="translate(161.657813 16.318125)scale(0.12 -0.12)">
     <use xlink:href="#DejaVuSans-Bold-69"/>
     <use x="68.310547" xlink:href="#DejaVuSans-Bold-110"/>
     <use x="139.501953" xlink:href="#DejaVuSans-Bold-116"/>
     <use x="187.304688" xlink:href="#DejaVuSans-Bold-114"/>
     <use x="236.621094" xlink:href="#DejaVuSans-Bold-111"/>
     <use x="305.322266" xlink:href="#DejaVuSans-Bold-112"/>
     <use x="376.904297" xlink:href="#DejaVuSans-Bold-121"/>
     <use x="442.089844" xlink:href="#DejaVuSans-Bold-32"/>
     <use x="476.904297" xlink:href="#DejaVuSans-Bold-97"/>
     <use x="544.384766" xlink:href="#DejaVuSans-Bold-110"/>
     <use x="615.576172" xlink:href="#DejaVuSans-Bold-100"/>
     <use x="687.158203" xlink:href="#DejaVuSans-Bold-32"/>
     <use x="721.972656" xlink:href="#DejaVuSans-Bold-76"/>
     <use x="785.693359" xlink:href="#DejaVuSans-Bold-111"/>
     <use x="854.394531" xlink:href="#DejaVuSans-Bold-115"/>
     <use x="913.916016" xlink:href="#DejaVuSans-Bold-115"/>
     <use x="973.4375" xlink:href="#DejaVuSans-Bold-46"/>
    </g>
   </g>
   <g id="legend_1">
    <g id="patch_7">
     <path d="M 18.982656 353.02505 
L 429.699844 353.02505 
Q 431.699844 353.02505 431.699844 351.02505 
L 431.699844 337.346925 
Q 431.699844 335.346925 429.699844 335.346925 
L 18.982656 335.346925 
Q 16.982656 335.346925 16.982656 337.346925 
L 16.982656 351.02505 
Q 16.982656 353.02505 18.982656 353.02505 
z
" style="fill:#4c4c4c;opacity:0.5;stroke:#4c4c4c;stroke-linejoin:miter;"/>
    </g>
    <g id="patch_8">
     <path d="M 16.982656 351.02505 
L 427.699844 351.02505 
Q 429.699844 351.02505 429.699844 349.02505 
L 429.699844 335.346925 
Q 429.699844 333.346925 427.699844 333.346925 
L 16.982656 333.346925 
Q 14.982656 333.346925 14.982656 335.346925 
L 14.982656 349.02505 
Q 14.982656 351.02505 16.982656 351.02505 
z
" style="fill:#ffffff;stroke:#cccccc;stroke-linejoin:miter;"/>
    </g>
    <g id="line2d_20">
     <path d="M 18.982656 341.445362 
L 38.982656 341.445362 
" style="fill:none;stroke:#1f77b4;stroke-linecap:square;stroke-width:1.5;"/>
    </g>
    <g id="line2d_21"/>
    <g id="text_18">
     <!-- Policy Loss (Normalized) -->
     <defs>
      <path d="M 19.671875 64.796875 
L 19.671875 37.40625 
L 32.078125 37.40625 
Q 38.96875 37.40625 42.71875 40.96875 
Q 46.484375 44.53125 46.484375 51.125 
Q 46.484375 57.671875 42.71875 61.234375 
Q 38.96875 64.796875 32.078125 64.796875 
z
M 9.8125 72.90625 
L 32.078125 72.90625 
Q 44.34375 72.90625 50.609375 67.359375 
Q 56.890625 61.8125 56.890625 51.125 
Q 56.890625 40.328125 50.609375 34.8125 
Q 44.34375 29.296875 32.078125 29.296875 
L 19.671875 29.296875 
L 19.671875 0 
L 9.8125 0 
z
" id="DejaVuSans-80"/>
      <path d="M 9.421875 75.984375 
L 18.40625 75.984375 
L 18.40625 0 
L 9.421875 0 
z
" id="DejaVuSans-108"/>
      <path d="M 9.421875 54.6875 
L 18.40625 54.6875 
L 18.40625 0 
L 9.421875 0 
z
M 9.421875 75.984375 
L 18.40625 75.984375 
L 18.40625 64.59375 
L 9.421875 64.59375 
z
" id="DejaVuSans-105"/>
      <path d="M 32.171875 -5.078125 
Q 28.375 -14.84375 24.75 -17.8125 
Q 21.140625 -20.796875 15.09375 -20.796875 
L 7.90625 -20.796875 
L 7.90625 -13.28125 
L 13.1875 -13.28125 
Q 16.890625 -13.28125 18.9375 -11.515625 
Q 21 -9.765625 23.484375 -3.21875 
L 25.09375 0.875 
L 2.984375 54.6875 
L 12.5 54.6875 
L 29.59375 11.921875 
L 46.6875 54.6875 
L 56.203125 54.6875 
z
" id="DejaVuSans-121"/>
      <path id="DejaVuSans-32"/>
      <path d="M 31 75.875 
Q 24.46875 64.65625 21.28125 53.65625 
Q 18.109375 42.671875 18.109375 31.390625 
Q 18.109375 20.125 21.3125 9.0625 
Q 24.515625 -2 31 -13.1875 
L 23.1875 -13.1875 
Q 15.875 -1.703125 12.234375 9.375 
Q 8.59375 20.453125 8.59375 31.390625 
Q 8.59375 42.28125 12.203125 53.3125 
Q 15.828125 64.359375 23.1875 75.875 
z
" id="DejaVuSans-40"/>
      <path d="M 9.8125 72.90625 
L 23.09375 72.90625 
L 55.421875 11.921875 
L 55.421875 72.90625 
L 64.984375 72.90625 
L 64.984375 0 
L 51.703125 0 
L 19.390625 60.984375 
L 19.390625 0 
L 9.8125 0 
z
" id="DejaVuSans-78"/>
      <path d="M 41.109375 46.296875 
Q 39.59375 47.171875 37.8125 47.578125 
Q 36.03125 48 33.890625 48 
Q 26.265625 48 22.1875 43.046875 
Q 18.109375 38.09375 18.109375 28.8125 
L 18.109375 0 
L 9.078125 0 
L 9.078125 54.6875 
L 18.109375 54.6875 
L 18.109375 46.1875 
Q 20.953125 51.171875 25.484375 53.578125 
Q 30.03125 56 36.53125 56 
Q 37.453125 56 38.578125 55.875 
Q 39.703125 55.765625 41.0625 55.515625 
z
" id="DejaVuSans-114"/>
      <path d="M 52 44.1875 
Q 55.375 50.25 60.0625 53.125 
Q 64.75 56 71.09375 56 
Q 79.640625 56 84.28125 50.015625 
Q 88.921875 44.046875 88.921875 33.015625 
L 88.921875 0 
L 79.890625 0 
L 79.890625 32.71875 
Q 79.890625 40.578125 77.09375 44.375 
Q 74.3125 48.1875 68.609375 48.1875 
Q 61.625 48.1875 57.5625 43.546875 
Q 53.515625 38.921875 53.515625 30.90625 
L 53.515625 0 
L 44.484375 0 
L 44.484375 32.71875 
Q 44.484375 40.625 41.703125 44.40625 
Q 38.921875 48.1875 33.109375 48.1875 
Q 26.21875 48.1875 22.15625 43.53125 
Q 18.109375 38.875 18.109375 30.90625 
L 18.109375 0 
L 9.078125 0 
L 9.078125 54.6875 
L 18.109375 54.6875 
L 18.109375 46.1875 
Q 21.1875 51.21875 25.484375 53.609375 
Q 29.78125 56 35.6875 56 
Q 41.65625 56 45.828125 52.96875 
Q 50 49.953125 52 44.1875 
z
" id="DejaVuSans-109"/>
      <path d="M 34.28125 27.484375 
Q 23.390625 27.484375 19.1875 25 
Q 14.984375 22.515625 14.984375 16.5 
Q 14.984375 11.71875 18.140625 8.90625 
Q 21.296875 6.109375 26.703125 6.109375 
Q 34.1875 6.109375 38.703125 11.40625 
Q 43.21875 16.703125 43.21875 25.484375 
L 43.21875 27.484375 
z
M 52.203125 31.203125 
L 52.203125 0 
L 43.21875 0 
L 43.21875 8.296875 
Q 40.140625 3.328125 35.546875 0.953125 
Q 30.953125 -1.421875 24.3125 -1.421875 
Q 15.921875 -1.421875 10.953125 3.296875 
Q 6 8.015625 6 15.921875 
Q 6 25.140625 12.171875 29.828125 
Q 18.359375 34.515625 30.609375 34.515625 
L 43.21875 34.515625 
L 43.21875 35.40625 
Q 43.21875 41.609375 39.140625 45 
Q 35.0625 48.390625 27.6875 48.390625 
Q 23 48.390625 18.546875 47.265625 
Q 14.109375 46.140625 10.015625 43.890625 
L 10.015625 52.203125 
Q 14.9375 54.109375 19.578125 55.046875 
Q 24.21875 56 28.609375 56 
Q 40.484375 56 46.34375 49.84375 
Q 52.203125 43.703125 52.203125 31.203125 
z
" id="DejaVuSans-97"/>
      <path d="M 5.515625 54.6875 
L 48.1875 54.6875 
L 48.1875 46.484375 
L 14.40625 7.171875 
L 48.1875 7.171875 
L 48.1875 0 
L 4.296875 0 
L 4.296875 8.203125 
L 38.09375 47.515625 
L 5.515625 47.515625 
z
" id="DejaVuSans-122"/>
      <path d="M 56.203125 29.59375 
L 56.203125 25.203125 
L 14.890625 25.203125 
Q 15.484375 15.921875 20.484375 11.0625 
Q 25.484375 6.203125 34.421875 6.203125 
Q 39.59375 6.203125 44.453125 7.46875 
Q 49.3125 8.734375 54.109375 11.28125 
L 54.109375 2.78125 
Q 49.265625 0.734375 44.1875 -0.34375 
Q 39.109375 -1.421875 33.890625 -1.421875 
Q 20.796875 -1.421875 13.15625 6.1875 
Q 5.515625 13.8125 5.515625 26.8125 
Q 5.515625 40.234375 12.765625 48.109375 
Q 20.015625 56 32.328125 56 
Q 43.359375 56 49.78125 48.890625 
Q 56.203125 41.796875 56.203125 29.59375 
z
M 47.21875 32.234375 
Q 47.125 39.59375 43.09375 43.984375 
Q 39.0625 48.390625 32.421875 48.390625 
Q 24.90625 48.390625 20.390625 44.140625 
Q 15.875 39.890625 15.1875 32.171875 
z
" id="DejaVuSans-101"/>
      <path d="M 45.40625 46.390625 
L 45.40625 75.984375 
L 54.390625 75.984375 
L 54.390625 0 
L 45.40625 0 
L 45.40625 8.203125 
Q 42.578125 3.328125 38.25 0.953125 
Q 33.9375 -1.421875 27.875 -1.421875 
Q 17.96875 -1.421875 11.734375 6.484375 
Q 5.515625 14.40625 5.515625 27.296875 
Q 5.515625 40.1875 11.734375 48.09375 
Q 17.96875 56 27.875 56 
Q 33.9375 56 38.25 53.625 
Q 42.578125 51.265625 45.40625 46.390625 
z
M 14.796875 27.296875 
Q 14.796875 17.390625 18.875 11.75 
Q 22.953125 6.109375 30.078125 6.109375 
Q 37.203125 6.109375 41.296875 11.75 
Q 45.40625 17.390625 45.40625 27.296875 
Q 45.40625 37.203125 41.296875 42.84375 
Q 37.203125 48.484375 30.078125 48.484375 
Q 22.953125 48.484375 18.875 42.84375 
Q 14.796875 37.203125 14.796875 27.296875 
z
" id="DejaVuSans-100"/>
      <path d="M 8.015625 75.875 
L 15.828125 75.875 
Q 23.140625 64.359375 26.78125 53.3125 
Q 30.421875 42.28125 30.421875 31.390625 
Q 30.421875 20.453125 26.78125 9.375 
Q 23.140625 -1.703125 15.828125 -13.1875 
L 8.015625 -13.1875 
Q 14.5 -2 17.703125 9.0625 
Q 20.90625 20.125 20.90625 31.390625 
Q 20.90625 42.671875 17.703125 53.65625 
Q 14.5 64.65625 8.015625 75.875 
z
" id="DejaVuSans-41"/>
     </defs>
     <g transform="translate(46.982656 344.945362)scale(0.1 -0.1)">
      <use xlink:href="#DejaVuSans-80"/>
      <use x="60.255859" xlink:href="#DejaVuSans-111"/>
      <use x="121.4375" xlink:href="#DejaVuSans-108"/>
      <use x="149.220703" xlink:href="#DejaVuSans-105"/>
      <use x="177.003906" xlink:href="#DejaVuSans-99"/>
      <use x="231.984375" xlink:href="#DejaVuSans-121"/>
      <use x="291.164062" xlink:href="#DejaVuSans-32"/>
      <use x="322.951172" xlink:href="#DejaVuSans-76"/>
      <use x="378.648438" xlink:href="#DejaVuSans-111"/>
      <use x="439.830078" xlink:href="#DejaVuSans-115"/>
      <use x="491.929688" xlink:href="#DejaVuSans-115"/>
      <use x="544.029297" xlink:href="#DejaVuSans-32"/>
      <use x="575.816406" xlink:href="#DejaVuSans-40"/>
      <use x="614.830078" xlink:href="#DejaVuSans-78"/>
      <use x="689.634766" xlink:href="#DejaVuSans-111"/>
      <use x="750.816406" xlink:href="#DejaVuSans-114"/>
      <use x="791.914062" xlink:href="#DejaVuSans-109"/>
      <use x="889.326172" xlink:href="#DejaVuSans-97"/>
      <use x="950.605469" xlink:href="#DejaVuSans-108"/>
      <use x="978.388672" xlink:href="#DejaVuSans-105"/>
      <use x="1006.171875" xlink:href="#DejaVuSans-122"/>
      <use x="1058.662109" xlink:href="#DejaVuSans-101"/>
      <use x="1120.185547" xlink:href="#DejaVuSans-100"/>
      <use x="1183.662109" xlink:href="#DejaVuSans-41"/>
     </g>
    </g>
    <g id="line2d_22">
     <path d="M 189.251406 341.445362 
L 209.251406 341.445362 
" style="fill:none;stroke:#ff7f0e;stroke-linecap:square;stroke-width:1.5;"/>
    </g>
    <g id="line2d_23"/>
    <g id="text_19">
     <!-- Value Loss (Normalized) -->
     <defs>
      <path d="M 28.609375 0 
L 0.78125 72.90625 
L 11.078125 72.90625 
L 34.1875 11.53125 
L 57.328125 72.90625 
L 67.578125 72.90625 
L 39.796875 0 
z
" id="DejaVuSans-86"/>
      <path d="M 8.5 21.578125 
L 8.5 54.6875 
L 17.484375 54.6875 
L 17.484375 21.921875 
Q 17.484375 14.15625 20.5 10.265625 
Q 23.53125 6.390625 29.59375 6.390625 
Q 36.859375 6.390625 41.078125 11.03125 
Q 45.3125 15.671875 45.3125 23.6875 
L 45.3125 54.6875 
L 54.296875 54.6875 
L 54.296875 0 
L 45.3125 0 
L 45.3125 8.40625 
Q 42.046875 3.421875 37.71875 1 
Q 33.40625 -1.421875 27.6875 -1.421875 
Q 18.265625 -1.421875 13.375 4.4375 
Q 8.5 10.296875 8.5 21.578125 
z
M 31.109375 56 
z
" id="DejaVuSans-117"/>
     </defs>
     <g transform="translate(217.251406 344.945362)scale(0.1 -0.1)">
      <use xlink:href="#DejaVuSans-86"/>
      <use x="68.298828" xlink:href="#DejaVuSans-97"/>
      <use x="129.578125" xlink:href="#DejaVuSans-108"/>
      <use x="157.361328" xlink:href="#DejaVuSans-117"/>
      <use x="220.740234" xlink:href="#DejaVuSans-101"/>
      <use x="282.263672" xlink:href="#DejaVuSans-32"/>
      <use x="314.050781" xlink:href="#DejaVuSans-76"/>
      <use x="369.748047" xlink:href="#DejaVuSans-111"/>
      <use x="430.929688" xlink:href="#DejaVuSans-115"/>
      <use x="483.029297" xlink:href="#DejaVuSans-115"/>
      <use x="535.128906" xlink:href="#DejaVuSans-32"/>
      <use x="566.916016" xlink:href="#DejaVuSans-40"/>
      <use x="605.929688" xlink:href="#DejaVuSans-78"/>
      <use x="680.734375" xlink:href="#DejaVuSans-111"/>
      <use x="741.916016" xlink:href="#DejaVuSans-114"/>
      <use x="783.013672" xlink:href="#DejaVuSans-109"/>
      <use x="880.425781" xlink:href="#DejaVuSans-97"/>
      <use x="941.705078" xlink:href="#DejaVuSans-108"/>
      <use x="969.488281" xlink:href="#DejaVuSans-105"/>
      <use x="997.271484" xlink:href="#DejaVuSans-122"/>
      <use x="1049.761719" xlink:href="#DejaVuSans-101"/>
      <use x="1111.285156" xlink:href="#DejaVuSans-100"/>
      <use x="1174.761719" xlink:href="#DejaVuSans-41"/>
     </g>
    </g>
    <g id="line2d_24">
     <path d="M 358.629531 341.445362 
L 378.629531 341.445362 
" style="fill:none;stroke:#008000;stroke-linecap:square;stroke-width:1.5;"/>
    </g>
    <g id="line2d_25"/>
    <g id="text_20">
     <!-- Entropy -->
     <defs>
      <path d="M 54.890625 33.015625 
L 54.890625 0 
L 45.90625 0 
L 45.90625 32.71875 
Q 45.90625 40.484375 42.875 44.328125 
Q 39.84375 48.1875 33.796875 48.1875 
Q 26.515625 48.1875 22.3125 43.546875 
Q 18.109375 38.921875 18.109375 30.90625 
L 18.109375 0 
L 9.078125 0 
L 9.078125 54.6875 
L 18.109375 54.6875 
L 18.109375 46.1875 
Q 21.34375 51.125 25.703125 53.5625 
Q 30.078125 56 35.796875 56 
Q 45.21875 56 50.046875 50.171875 
Q 54.890625 44.34375 54.890625 33.015625 
z
" id="DejaVuSans-110"/>
      <path d="M 18.3125 70.21875 
L 18.3125 54.6875 
L 36.8125 54.6875 
L 36.8125 47.703125 
L 18.3125 47.703125 
L 18.3125 18.015625 
Q 18.3125 11.328125 20.140625 9.421875 
Q 21.96875 7.515625 27.59375 7.515625 
L 36.8125 7.515625 
L 36.8125 0 
L 27.59375 0 
Q 17.1875 0 13.234375 3.875 
Q 9.28125 7.765625 9.28125 18.015625 
L 9.28125 47.703125 
L 2.6875 47.703125 
L 2.6875 54.6875 
L 9.28125 54.6875 
L 9.28125 70.21875 
z
" id="DejaVuSans-116"/>
     </defs>
     <g transform="translate(386.629531 344.945362)scale(0.1 -0.1)">
      <use xlink:href="#DejaVuSans-69"/>
      <use x="63.183594" xlink:href="#DejaVuSans-110"/>
      <use x="126.5625" xlink:href="#DejaVuSans-116"/>
      <use x="165.771484" xlink:href="#DejaVuSans-114"/>
      <use x="206.853516" xlink:href="#DejaVuSans-111"/>
      <use x="268.035156" xlink:href="#DejaVuSans-112"/>
      <use x="331.511719" xlink:href="#DejaVuSans-121"/>
     </g>
    </g>
   </g>
  </g>
  <g id="axes_2">
   <g id="matplotlib.axis_3">
    <g id="ytick_7">
     <g id="line2d_26">
      <defs>
       <path d="M 0 0 
L 3.5 0 
" id="mc806685a0f" style="stroke:#000000;stroke-width:0.8;"/>
      </defs>
      <g>
       <use style="stroke:#000000;stroke-width:0.8;" x="400.90125" xlink:href="#mc806685a0f" y="279.875475"/>
      </g>
     </g>
     <g id="text_21">
      <!-- 0.8 -->
      <g transform="translate(407.90125 283.674693)scale(0.1 -0.1)">
       <use xlink:href="#DejaVuSans-48"/>
       <use x="63.623047" xlink:href="#DejaVuSans-46"/>
       <use x="95.410156" xlink:href="#DejaVuSans-56"/>
      </g>
     </g>
    </g>
    <g id="ytick_8">
     <g id="line2d_27">
      <g>
       <use style="stroke:#000000;stroke-width:0.8;" x="400.90125" xlink:href="#mc806685a0f" y="237.285473"/>
      </g>
     </g>
     <g id="text_22">
      <!-- 0.9 -->
      <defs>
       <path d="M 10.984375 1.515625 
L 10.984375 10.5 
Q 14.703125 8.734375 18.5 7.8125 
Q 22.3125 6.890625 25.984375 6.890625 
Q 35.75 6.890625 40.890625 13.453125 
Q 46.046875 20.015625 46.78125 33.40625 
Q 43.953125 29.203125 39.59375 26.953125 
Q 35.25 24.703125 29.984375 24.703125 
Q 19.046875 24.703125 12.671875 31.3125 
Q 6.296875 37.9375 6.296875 49.421875 
Q 6.296875 60.640625 12.9375 67.421875 
Q 19.578125 74.21875 30.609375 74.21875 
Q 43.265625 74.21875 49.921875 64.515625 
Q 56.59375 54.828125 56.59375 36.375 
Q 56.59375 19.140625 48.40625 8.859375 
Q 40.234375 -1.421875 26.421875 -1.421875 
Q 22.703125 -1.421875 18.890625 -0.6875 
Q 15.09375 0.046875 10.984375 1.515625 
z
M 30.609375 32.421875 
Q 37.25 32.421875 41.125 36.953125 
Q 45.015625 41.5 45.015625 49.421875 
Q 45.015625 57.28125 41.125 61.84375 
Q 37.25 66.40625 30.609375 66.40625 
Q 23.96875 66.40625 20.09375 61.84375 
Q 16.21875 57.28125 16.21875 49.421875 
Q 16.21875 41.5 20.09375 36.953125 
Q 23.96875 32.421875 30.609375 32.421875 
z
" id="DejaVuSans-57"/>
      </defs>
      <g transform="translate(407.90125 241.084692)scale(0.1 -0.1)">
       <use xlink:href="#DejaVuSans-48"/>
       <use x="63.623047" xlink:href="#DejaVuSans-46"/>
       <use x="95.410156" xlink:href="#DejaVuSans-57"/>
      </g>
     </g>
    </g>
    <g id="ytick_9">
     <g id="line2d_28">
      <g>
       <use style="stroke:#000000;stroke-width:0.8;" x="400.90125" xlink:href="#mc806685a0f" y="194.695472"/>
      </g>
     </g>
     <g id="text_23">
      <!-- 1.0 -->
      <g transform="translate(407.90125 198.49469)scale(0.1 -0.1)">
       <use xlink:href="#DejaVuSans-49"/>
       <use x="63.623047" xlink:href="#DejaVuSans-46"/>
       <use x="95.410156" xlink:href="#DejaVuSans-48"/>
      </g>
     </g>
    </g>
    <g id="ytick_10">
     <g id="line2d_29">
      <g>
       <use style="stroke:#000000;stroke-width:0.8;" x="400.90125" xlink:href="#mc806685a0f" y="152.10547"/>
      </g>
     </g>
     <g id="text_24">
      <!-- 1.1 -->
      <g transform="translate(407.90125 155.904689)scale(0.1 -0.1)">
       <use xlink:href="#DejaVuSans-49"/>
       <use x="63.623047" xlink:href="#DejaVuSans-46"/>
       <use x="95.410156" xlink:href="#DejaVuSans-49"/>
      </g>
     </g>
    </g>
    <g id="ytick_11">
     <g id="line2d_30">
      <g>
       <use style="stroke:#000000;stroke-width:0.8;" x="400.90125" xlink:href="#mc806685a0f" y="109.515469"/>
      </g>
     </g>
     <g id="text_25">
      <!-- 1.2 -->
      <g transform="translate(407.90125 113.314687)scale(0.1 -0.1)">
       <use xlink:href="#DejaVuSans-49"/>
       <use x="63.623047" xlink:href="#DejaVuSans-46"/>
       <use x="95.410156" xlink:href="#DejaVuSans-50"/>
      </g>
     </g>
    </g>
    <g id="ytick_12">
     <g id="line2d_31">
      <g>
       <use style="stroke:#000000;stroke-width:0.8;" x="400.90125" xlink:href="#mc806685a0f" y="66.925467"/>
      </g>
     </g>
     <g id="text_26">
      <!-- 1.3 -->
      <g transform="translate(407.90125 70.724686)scale(0.1 -0.1)">
       <use xlink:href="#DejaVuSans-49"/>
       <use x="63.623047" xlink:href="#DejaVuSans-46"/>
       <use x="95.410156" xlink:href="#DejaVuSans-51"/>
      </g>
     </g>
    </g>
    <g id="ytick_13">
     <g id="line2d_32">
      <g>
       <use style="stroke:#000000;stroke-width:0.8;" x="400.90125" xlink:href="#mc806685a0f" y="24.335466"/>
      </g>
     </g>
     <g id="text_27">
      <!-- 1.4 -->
      <g transform="translate(407.90125 28.134684)scale(0.1 -0.1)">
       <use xlink:href="#DejaVuSans-49"/>
       <use x="63.623047" xlink:href="#DejaVuSans-46"/>
       <use x="95.410156" xlink:href="#DejaVuSans-52"/>
      </g>
     </g>
    </g>
    <g id="text_28">
     <!-- Entropy -->
     <g transform="translate(435.402812 174.909281)rotate(-90)scale(0.1 -0.1)">
      <use xlink:href="#DejaVuSans-69"/>
      <use x="63.183594" xlink:href="#DejaVuSans-110"/>
      <use x="126.5625" xlink:href="#DejaVuSans-116"/>
      <use x="165.771484" xlink:href="#DejaVuSans-114"/>
      <use x="206.853516" xlink:href="#DejaVuSans-111"/>
      <use x="268.035156" xlink:href="#DejaVuSans-112"/>
      <use x="331.511719" xlink:href="#DejaVuSans-121"/>
     </g>
    </g>
   </g>
   <g id="line2d_33">
    <path clip-path="url(#pe6151ef085)" d="M 60.013977 47.169535 
L 61.901504 46.590591 
L 62.845267 48.326815 
L 64.732793 46.088768 
L 65.676557 45.716717 
L 66.62032 46.066327 
L 67.564083 46.768493 
L 68.507846 46.971578 
L 70.395373 45.011402 
L 71.339136 39.229066 
L 73.226662 39.401688 
L 74.170425 43.464758 
L 76.057952 41.631866 
L 77.001715 40.335067 
L 77.945478 39.504246 
L 78.889242 38.866763 
L 79.833005 39.182763 
L 80.776768 39.667323 
L 81.720531 40.558156 
L 82.664294 39.339951 
L 83.608058 38.71653 
L 84.551821 37.885558 
L 85.495584 36.849824 
L 86.439347 36.143952 
L 87.38311 35.850393 
L 88.326874 34.414125 
L 89.270637 34.781709 
L 90.2144 35.647917 
L 91.158163 42.023921 
L 92.101927 42.841744 
L 93.989453 45.33908 
L 94.933216 48.809497 
L 95.876979 53.335956 
L 96.820743 50.192709 
L 97.764506 52.037279 
L 98.708269 55.024811 
L 99.652032 47.657396 
L 101.539559 49.929409 
L 102.483322 66.909748 
L 103.427085 66.198545 
L 104.370848 64.132155 
L 105.314612 55.445197 
L 106.258375 53.800716 
L 107.202138 53.026658 
L 108.145901 59.628442 
L 109.089664 63.97512 
L 110.033428 70.739829 
L 110.977191 70.14281 
L 111.920954 81.935649 
L 112.864717 85.087375 
L 113.80848 98.695031 
L 114.752244 102.175247 
L 115.696007 106.661292 
L 116.63977 83.489096 
L 117.583533 85.151296 
L 118.527297 86.501963 
L 119.47106 84.021686 
L 120.414823 80.969421 
L 121.358586 77.294091 
L 122.302349 64.843207 
L 123.246113 70.187235 
L 124.189876 78.632573 
L 126.077402 92.001808 
L 127.021165 96.71145 
L 127.964929 87.454939 
L 128.908692 87.388226 
L 129.852455 91.476224 
L 130.796218 118.912088 
L 131.739982 125.183554 
L 132.683745 129.30232 
L 133.627508 147.497818 
L 134.571271 115.30936 
L 137.402561 137.360223 
L 138.346324 135.606026 
L 139.290087 137.07763 
L 140.23385 133.57345 
L 141.177614 136.443701 
L 142.121377 139.685394 
L 143.06514 144.310603 
L 144.008903 149.554967 
L 144.952666 149.312839 
L 145.89643 166.831353 
L 146.840193 160.15986 
L 147.783956 152.317785 
L 149.671483 176.081314 
L 150.615246 160.110003 
L 151.559009 153.017921 
L 152.502772 147.863777 
L 153.446535 131.584081 
L 154.390299 128.471195 
L 155.334062 124.117612 
L 156.277825 156.384765 
L 157.221588 153.725976 
L 158.165351 158.263199 
L 159.109115 157.433495 
L 160.052878 154.810755 
L 160.996641 148.833964 
L 161.940404 148.960029 
L 162.884168 148.551778 
L 163.827931 151.29774 
L 164.771694 161.66939 
L 165.715457 158.585647 
L 166.65922 152.471419 
L 167.602984 126.624797 
L 168.546747 123.637367 
L 169.49051 121.701764 
L 170.434273 127.400988 
L 171.378036 126.995732 
L 172.3218 126.155823 
L 173.265563 154.929204 
L 174.209326 160.308874 
L 175.153089 167.222038 
L 176.096853 141.393896 
L 177.040616 148.98247 
L 177.984379 158.35743 
L 178.928142 125.558347 
L 179.871905 125.321449 
L 180.815669 126.391757 
L 181.759432 139.216267 
L 182.703195 122.871127 
L 183.646958 126.549554 
L 184.590721 169.983841 
L 185.534485 180.175456 
L 186.478248 183.545194 
L 187.422011 146.54012 
L 188.365774 137.853009 
L 189.309538 124.107254 
L 190.253301 175.437129 
L 191.197064 185.618844 
L 192.140827 218.432803 
L 193.08459 157.381962 
L 194.028354 152.925111 
L 194.972117 147.784472 
L 195.91588 179.517512 
L 196.859643 183.013517 
L 197.803406 190.802638 
L 198.74717 140.168228 
L 199.690933 132.335901 
L 200.634696 121.871645 
L 201.578459 146.828958 
L 202.522223 132.790456 
L 203.465986 124.234132 
L 204.409749 152.454208 
L 205.353512 143.318431 
L 206.297275 147.217967 
L 207.241039 112.172663 
L 208.184802 176.006274 
L 209.128565 162.73848 
L 210.072328 125.323073 
L 211.016091 112.595587 
L 212.903618 170.52491 
L 213.847381 152.557273 
L 214.791144 150.842525 
L 215.734908 157.906531 
L 216.678671 147.061084 
L 217.622434 142.929726 
L 218.566197 139.396911 
L 220.453724 139.718852 
L 221.397487 164.538625 
L 222.34125 167.724724 
L 223.285013 171.919647 
L 224.228776 137.07631 
L 225.17254 135.83536 
L 226.116303 132.300158 
L 227.060066 145.974122 
L 228.003829 149.25562 
L 228.947592 153.732881 
L 229.891356 140.15452 
L 230.835119 148.386314 
L 231.778882 159.972768 
L 232.722645 178.903687 
L 233.666409 184.05316 
L 234.610172 187.388678 
L 235.553935 144.691184 
L 236.497698 130.363946 
L 237.441461 119.58308 
L 238.385225 125.961522 
L 239.328988 124.190875 
L 240.272751 126.267418 
L 241.216514 162.371252 
L 242.160277 154.010905 
L 243.104041 143.737395 
L 244.047804 139.986924 
L 244.991567 139.010288 
L 245.93533 140.341358 
L 246.879094 174.910174 
L 247.822857 182.633038 
L 248.76662 192.190774 
L 249.710383 120.020525 
L 250.654146 115.279355 
L 251.59791 106.8527 
L 252.541673 145.376748 
L 253.485436 138.554667 
L 254.429199 138.773491 
L 255.372962 164.784612 
L 256.316726 159.275171 
L 257.260489 152.257926 
L 258.204252 141.762597 
L 259.148015 149.373104 
L 260.091779 162.325964 
L 261.035542 193.575052 
L 261.979305 205.660917 
L 262.923068 214.952256 
L 263.866831 136.954155 
L 264.810595 229.526572 
L 265.754358 120.970049 
L 266.698121 164.048937 
L 267.641884 154.856601 
L 268.585647 168.054635 
L 269.529411 172.221329 
L 270.473174 127.384893 
L 271.416937 182.291957 
L 272.3607 155.601263 
L 273.304464 170.940625 
L 274.248227 209.587615 
L 275.19199 160.90772 
L 276.135753 191.687885 
L 277.079516 195.199072 
L 278.02328 134.919548 
L 278.967043 162.189389 
L 279.910806 164.798168 
L 280.854569 228.05974 
L 281.798332 171.839225 
L 282.742096 252.390054 
L 283.685859 119.922232 
L 284.629622 258.233062 
L 285.573385 177.386592 
L 286.517149 141.375517 
L 287.460912 174.254565 
L 288.404675 173.018184 
L 289.348438 169.019492 
L 290.292201 194.011989 
L 291.235965 197.419704 
L 292.179728 119.819471 
L 293.123491 139.019529 
L 294.067254 155.189305 
L 295.011017 158.892204 
L 295.954781 159.791769 
L 296.898544 143.402356 
L 297.842307 172.866022 
L 298.78607 223.791504 
L 299.729834 124.277186 
L 300.673597 191.81065 
L 301.61736 166.271448 
L 302.561123 181.059891 
L 303.504886 115.605966 
L 304.44865 121.715574 
L 305.392413 137.5529 
L 306.336176 162.560426 
L 307.279939 162.028902 
L 308.223702 143.568276 
L 309.167466 152.992941 
L 310.111229 144.566896 
L 311.054992 164.488514 
L 311.998755 162.536716 
L 312.942518 167.404611 
L 313.886282 175.451243 
L 315.773808 239.056435 
L 316.717571 276.334125 
L 317.661335 142.738979 
L 318.605098 130.949136 
L 319.548861 145.566988 
L 320.492624 116.821176 
L 321.436387 136.594187 
L 322.380151 139.014045 
L 323.323914 193.962843 
L 324.267677 198.130273 
L 325.21144 208.530456 
L 326.155203 129.81775 
L 327.098967 140.803732 
L 328.04273 141.92933 
L 329.930256 195.186455 
L 330.87402 186.028009 
L 331.817783 202.717708 
L 332.761546 202.450347 
L 333.705309 205.097229 
L 334.649072 197.811201 
L 335.592836 210.870224 
L 336.536599 198.990845 
L 337.480362 158.043766 
L 338.424125 159.82345 
L 339.367888 172.889682 
L 340.311652 166.113295 
L 341.255415 188.656741 
L 342.199178 174.53335 
L 343.142941 216.739023 
L 344.086705 211.152867 
L 345.030468 234.16653 
L 345.974231 218.938281 
L 346.917994 216.73387 
L 347.861757 208.273097 
L 348.805521 217.530674 
L 349.749284 216.762987 
L 350.693047 211.208258 
L 351.63681 191.019939 
L 352.580573 200.921929 
L 353.524337 183.541234 
L 354.4681 232.289137 
L 355.411863 197.331565 
L 356.355626 236.845906 
L 357.29939 133.582234 
L 358.243153 127.592497 
L 359.186916 126.919321 
L 360.130679 170.649401 
L 361.074442 172.890139 
L 362.018206 198.750977 
L 362.961969 200.648145 
L 363.905732 204.093913 
L 364.849495 220.819051 
L 365.793258 119.047748 
L 366.737022 145.53947 
L 367.680785 129.609486 
L 368.624548 163.403685 
L 369.568311 222.239427 
L 370.512075 227.342952 
L 371.455838 198.367527 
L 372.399601 215.482638 
L 373.343364 205.863926 
L 374.287127 127.108698 
L 375.230891 158.985064 
L 376.174654 142.086365 
L 377.118417 148.495066 
L 378.06218 178.603934 
L 379.005943 165.789476 
L 379.949707 154.76699 
L 380.89347 180.592745 
L 381.837233 158.347022 
L 382.780996 152.007319 
L 383.72476 186.236476 
L 384.668523 165.992308 
L 384.668523 165.992308 
" style="fill:none;stroke:#008000;stroke-linecap:square;stroke-opacity:0.3;stroke-width:1.5;"/>
   </g>
   <g id="patch_9">
    <path d="M 43.78125 288.430125 
L 43.78125 22.318125 
" style="fill:none;stroke:#000000;stroke-linecap:square;stroke-linejoin:miter;stroke-width:0.8;"/>
   </g>
   <g id="patch_10">
    <path d="M 400.90125 288.430125 
L 400.90125 22.318125 
" style="fill:none;stroke:#000000;stroke-linecap:square;stroke-linejoin:miter;stroke-width:0.8;"/>
   </g>
   <g id="patch_11">
    <path d="M 43.78125 288.430125 
L 400.90125 288.430125 
" style="fill:none;stroke:#000000;stroke-linecap:square;stroke-linejoin:miter;stroke-width:0.8;"/>
   </g>
   <g id="patch_12">
    <path d="M 43.78125 22.318125 
L 400.90125 22.318125 
" style="fill:none;stroke:#000000;stroke-linecap:square;stroke-linejoin:miter;stroke-width:0.8;"/>
   </g>
  </g>
 </g>
 <defs>
  <clipPath id="pe6151ef085">
   <rect height="266.112" width="357.12" x="43.78125" y="22.318125"/>
  </clipPath>
 </defs>
</svg>
