<?xml version="1.0" encoding="utf-8" standalone="no"?>
<!DOCTYPE svg PUBLIC "-//W3C//DTD SVG 1.1//EN"
  "http://www.w3.org/Graphics/SVG/1.1/DTD/svg11.dtd">
<!-- Created with matplotlib (https://matplotlib.org/) -->
<svg height="358.22505pt" version="1.1" viewBox="0 0 444.6825 358.22505" width="444.6825pt" xmlns="http://www.w3.org/2000/svg" xmlns:xlink="http://www.w3.org/1999/xlink">
 <defs>
  <style type="text/css">
*{stroke-linecap:butt;stroke-linejoin:round;}
  </style>
 </defs>
 <g id="figure_1">
  <g id="patch_1">
   <path d="M 0 358.22505 
L 444.6825 358.22505 
L 444.6825 0 
L 0 0 
z
" style="fill:#ffffff;"/>
  </g>
  <g id="axes_1">
   <g id="patch_2">
    <path d="M 43.78125 288.430125 
L 400.90125 288.430125 
L 400.90125 22.318125 
L 43.78125 22.318125 
z
" style="fill:#ffffff;"/>
   </g>
   <g id="matplotlib.axis_1">
    <g id="xtick_1">
     <g id="line2d_1">
      <defs>
       <path d="M 0 0 
L 0 3.5 
" id="m7fc61e3f27" style="stroke:#000000;stroke-width:0.8;"/>
      </defs>
      <g>
       <use style="stroke:#000000;stroke-width:0.8;" x="60.013977" xlink:href="#m7fc61e3f27" y="288.430125"/>
      </g>
     </g>
     <g id="text_1">
      <!-- 0 -->
      <defs>
       <path d="M 31.78125 66.40625 
Q 24.171875 66.40625 20.328125 58.90625 
Q 16.5 51.421875 16.5 36.375 
Q 16.5 21.390625 20.328125 13.890625 
Q 24.171875 6.390625 31.78125 6.390625 
Q 39.453125 6.390625 43.28125 13.890625 
Q 47.125 21.390625 47.125 36.375 
Q 47.125 51.421875 43.28125 58.90625 
Q 39.453125 66.40625 31.78125 66.40625 
z
M 31.78125 74.21875 
Q 44.046875 74.21875 50.515625 64.515625 
Q 56.984375 54.828125 56.984375 36.375 
Q 56.984375 17.96875 50.515625 8.265625 
Q 44.046875 -1.421875 31.78125 -1.421875 
Q 19.53125 -1.421875 13.0625 8.265625 
Q 6.59375 17.96875 6.59375 36.375 
Q 6.59375 54.828125 13.0625 64.515625 
Q 19.53125 74.21875 31.78125 74.21875 
z
" id="DejaVuSans-48"/>
      </defs>
      <g transform="translate(56.832727 303.028562)scale(0.1 -0.1)">
       <use xlink:href="#DejaVuSans-48"/>
      </g>
     </g>
    </g>
    <g id="xtick_2">
     <g id="line2d_2">
      <g>
       <use style="stroke:#000000;stroke-width:0.8;" x="122.447544" xlink:href="#m7fc61e3f27" y="288.430125"/>
      </g>
     </g>
     <g id="text_2">
      <!-- 20 -->
      <defs>
       <path d="M 19.1875 8.296875 
L 53.609375 8.296875 
L 53.609375 0 
L 7.328125 0 
L 7.328125 8.296875 
Q 12.9375 14.109375 22.625 23.890625 
Q 32.328125 33.6875 34.8125 36.53125 
Q 39.546875 41.84375 41.421875 45.53125 
Q 43.3125 49.21875 43.3125 52.78125 
Q 43.3125 58.59375 39.234375 62.25 
Q 35.15625 65.921875 28.609375 65.921875 
Q 23.96875 65.921875 18.8125 64.3125 
Q 13.671875 62.703125 7.8125 59.421875 
L 7.8125 69.390625 
Q 13.765625 71.78125 18.9375 73 
Q 24.125 74.21875 28.421875 74.21875 
Q 39.75 74.21875 46.484375 68.546875 
Q 53.21875 62.890625 53.21875 53.421875 
Q 53.21875 48.921875 51.53125 44.890625 
Q 49.859375 40.875 45.40625 35.40625 
Q 44.1875 33.984375 37.640625 27.21875 
Q 31.109375 20.453125 19.1875 8.296875 
z
" id="DejaVuSans-50"/>
      </defs>
      <g transform="translate(116.085044 303.028562)scale(0.1 -0.1)">
       <use xlink:href="#DejaVuSans-50"/>
       <use x="63.623047" xlink:href="#DejaVuSans-48"/>
      </g>
     </g>
    </g>
    <g id="xtick_3">
     <g id="line2d_3">
      <g>
       <use style="stroke:#000000;stroke-width:0.8;" x="184.88111" xlink:href="#m7fc61e3f27" y="288.430125"/>
      </g>
     </g>
     <g id="text_3">
      <!-- 40 -->
      <defs>
       <path d="M 37.796875 64.3125 
L 12.890625 25.390625 
L 37.796875 25.390625 
z
M 35.203125 72.90625 
L 47.609375 72.90625 
L 47.609375 25.390625 
L 58.015625 25.390625 
L 58.015625 17.1875 
L 47.609375 17.1875 
L 47.609375 0 
L 37.796875 0 
L 37.796875 17.1875 
L 4.890625 17.1875 
L 4.890625 26.703125 
z
" id="DejaVuSans-52"/>
      </defs>
      <g transform="translate(178.51861 303.028562)scale(0.1 -0.1)">
       <use xlink:href="#DejaVuSans-52"/>
       <use x="63.623047" xlink:href="#DejaVuSans-48"/>
      </g>
     </g>
    </g>
    <g id="xtick_4">
     <g id="line2d_4">
      <g>
       <use style="stroke:#000000;stroke-width:0.8;" x="247.314677" xlink:href="#m7fc61e3f27" y="288.430125"/>
      </g>
     </g>
     <g id="text_4">
      <!-- 60 -->
      <defs>
       <path d="M 33.015625 40.375 
Q 26.375 40.375 22.484375 35.828125 
Q 18.609375 31.296875 18.609375 23.390625 
Q 18.609375 15.53125 22.484375 10.953125 
Q 26.375 6.390625 33.015625 6.390625 
Q 39.65625 6.390625 43.53125 10.953125 
Q 47.40625 15.53125 47.40625 23.390625 
Q 47.40625 31.296875 43.53125 35.828125 
Q 39.65625 40.375 33.015625 40.375 
z
M 52.59375 71.296875 
L 52.59375 62.3125 
Q 48.875 64.0625 45.09375 64.984375 
Q 41.3125 65.921875 37.59375 65.921875 
Q 27.828125 65.921875 22.671875 59.328125 
Q 17.53125 52.734375 16.796875 39.40625 
Q 19.671875 43.65625 24.015625 45.921875 
Q 28.375 48.1875 33.59375 48.1875 
Q 44.578125 48.1875 50.953125 41.515625 
Q 57.328125 34.859375 57.328125 23.390625 
Q 57.328125 12.15625 50.6875 5.359375 
Q 44.046875 -1.421875 33.015625 -1.421875 
Q 20.359375 -1.421875 13.671875 8.265625 
Q 6.984375 17.96875 6.984375 36.375 
Q 6.984375 53.65625 15.1875 63.9375 
Q 23.390625 74.21875 37.203125 74.21875 
Q 40.921875 74.21875 44.703125 73.484375 
Q 48.484375 72.75 52.59375 71.296875 
z
" id="DejaVuSans-54"/>
      </defs>
      <g transform="translate(240.952177 303.028562)scale(0.1 -0.1)">
       <use xlink:href="#DejaVuSans-54"/>
       <use x="63.623047" xlink:href="#DejaVuSans-48"/>
      </g>
     </g>
    </g>
    <g id="xtick_5">
     <g id="line2d_5">
      <g>
       <use style="stroke:#000000;stroke-width:0.8;" x="309.748243" xlink:href="#m7fc61e3f27" y="288.430125"/>
      </g>
     </g>
     <g id="text_5">
      <!-- 80 -->
      <defs>
       <path d="M 31.78125 34.625 
Q 24.75 34.625 20.71875 30.859375 
Q 16.703125 27.09375 16.703125 20.515625 
Q 16.703125 13.921875 20.71875 10.15625 
Q 24.75 6.390625 31.78125 6.390625 
Q 38.8125 6.390625 42.859375 10.171875 
Q 46.921875 13.96875 46.921875 20.515625 
Q 46.921875 27.09375 42.890625 30.859375 
Q 38.875 34.625 31.78125 34.625 
z
M 21.921875 38.8125 
Q 15.578125 40.375 12.03125 44.71875 
Q 8.5 49.078125 8.5 55.328125 
Q 8.5 64.0625 14.71875 69.140625 
Q 20.953125 74.21875 31.78125 74.21875 
Q 42.671875 74.21875 48.875 69.140625 
Q 55.078125 64.0625 55.078125 55.328125 
Q 55.078125 49.078125 51.53125 44.71875 
Q 48 40.375 41.703125 38.8125 
Q 48.828125 37.15625 52.796875 32.3125 
Q 56.78125 27.484375 56.78125 20.515625 
Q 56.78125 9.90625 50.3125 4.234375 
Q 43.84375 -1.421875 31.78125 -1.421875 
Q 19.734375 -1.421875 13.25 4.234375 
Q 6.78125 9.90625 6.78125 20.515625 
Q 6.78125 27.484375 10.78125 32.3125 
Q 14.796875 37.15625 21.921875 38.8125 
z
M 18.3125 54.390625 
Q 18.3125 48.734375 21.84375 45.5625 
Q 25.390625 42.390625 31.78125 42.390625 
Q 38.140625 42.390625 41.71875 45.5625 
Q 45.3125 48.734375 45.3125 54.390625 
Q 45.3125 60.0625 41.71875 63.234375 
Q 38.140625 66.40625 31.78125 66.40625 
Q 25.390625 66.40625 21.84375 63.234375 
Q 18.3125 60.0625 18.3125 54.390625 
z
" id="DejaVuSans-56"/>
      </defs>
      <g transform="translate(303.385743 303.028562)scale(0.1 -0.1)">
       <use xlink:href="#DejaVuSans-56"/>
       <use x="63.623047" xlink:href="#DejaVuSans-48"/>
      </g>
     </g>
    </g>
    <g id="xtick_6">
     <g id="line2d_6">
      <g>
       <use style="stroke:#000000;stroke-width:0.8;" x="372.181809" xlink:href="#m7fc61e3f27" y="288.430125"/>
      </g>
     </g>
     <g id="text_6">
      <!-- 100 -->
      <defs>
       <path d="M 12.40625 8.296875 
L 28.515625 8.296875 
L 28.515625 63.921875 
L 10.984375 60.40625 
L 10.984375 69.390625 
L 28.421875 72.90625 
L 38.28125 72.90625 
L 38.28125 8.296875 
L 54.390625 8.296875 
L 54.390625 0 
L 12.40625 0 
z
" id="DejaVuSans-49"/>
      </defs>
      <g transform="translate(362.638059 303.028562)scale(0.1 -0.1)">
       <use xlink:href="#DejaVuSans-49"/>
       <use x="63.623047" xlink:href="#DejaVuSans-48"/>
       <use x="127.246094" xlink:href="#DejaVuSans-48"/>
      </g>
     </g>
    </g>
    <g id="text_7">
     <!-- Epoch -->
     <defs>
      <path d="M 9.8125 72.90625 
L 55.90625 72.90625 
L 55.90625 64.59375 
L 19.671875 64.59375 
L 19.671875 43.015625 
L 54.390625 43.015625 
L 54.390625 34.71875 
L 19.671875 34.71875 
L 19.671875 8.296875 
L 56.78125 8.296875 
L 56.78125 0 
L 9.8125 0 
z
" id="DejaVuSans-69"/>
      <path d="M 18.109375 8.203125 
L 18.109375 -20.796875 
L 9.078125 -20.796875 
L 9.078125 54.6875 
L 18.109375 54.6875 
L 18.109375 46.390625 
Q 20.953125 51.265625 25.265625 53.625 
Q 29.59375 56 35.59375 56 
Q 45.5625 56 51.78125 48.09375 
Q 58.015625 40.1875 58.015625 27.296875 
Q 58.015625 14.40625 51.78125 6.484375 
Q 45.5625 -1.421875 35.59375 -1.421875 
Q 29.59375 -1.421875 25.265625 0.953125 
Q 20.953125 3.328125 18.109375 8.203125 
z
M 48.6875 27.296875 
Q 48.6875 37.203125 44.609375 42.84375 
Q 40.53125 48.484375 33.40625 48.484375 
Q 26.265625 48.484375 22.1875 42.84375 
Q 18.109375 37.203125 18.109375 27.296875 
Q 18.109375 17.390625 22.1875 11.75 
Q 26.265625 6.109375 33.40625 6.109375 
Q 40.53125 6.109375 44.609375 11.75 
Q 48.6875 17.390625 48.6875 27.296875 
z
" id="DejaVuSans-112"/>
      <path d="M 30.609375 48.390625 
Q 23.390625 48.390625 19.1875 42.75 
Q 14.984375 37.109375 14.984375 27.296875 
Q 14.984375 17.484375 19.15625 11.84375 
Q 23.34375 6.203125 30.609375 6.203125 
Q 37.796875 6.203125 41.984375 11.859375 
Q 46.1875 17.53125 46.1875 27.296875 
Q 46.1875 37.015625 41.984375 42.703125 
Q 37.796875 48.390625 30.609375 48.390625 
z
M 30.609375 56 
Q 42.328125 56 49.015625 48.375 
Q 55.71875 40.765625 55.71875 27.296875 
Q 55.71875 13.875 49.015625 6.21875 
Q 42.328125 -1.421875 30.609375 -1.421875 
Q 18.84375 -1.421875 12.171875 6.21875 
Q 5.515625 13.875 5.515625 27.296875 
Q 5.515625 40.765625 12.171875 48.375 
Q 18.84375 56 30.609375 56 
z
" id="DejaVuSans-111"/>
      <path d="M 48.78125 52.59375 
L 48.78125 44.1875 
Q 44.96875 46.296875 41.140625 47.34375 
Q 37.3125 48.390625 33.40625 48.390625 
Q 24.65625 48.390625 19.8125 42.84375 
Q 14.984375 37.3125 14.984375 27.296875 
Q 14.984375 17.28125 19.8125 11.734375 
Q 24.65625 6.203125 33.40625 6.203125 
Q 37.3125 6.203125 41.140625 7.25 
Q 44.96875 8.296875 48.78125 10.40625 
L 48.78125 2.09375 
Q 45.015625 0.34375 40.984375 -0.53125 
Q 36.96875 -1.421875 32.421875 -1.421875 
Q 20.0625 -1.421875 12.78125 6.34375 
Q 5.515625 14.109375 5.515625 27.296875 
Q 5.515625 40.671875 12.859375 48.328125 
Q 20.21875 56 33.015625 56 
Q 37.15625 56 41.109375 55.140625 
Q 45.0625 54.296875 48.78125 52.59375 
z
" id="DejaVuSans-99"/>
      <path d="M 54.890625 33.015625 
L 54.890625 0 
L 45.90625 0 
L 45.90625 32.71875 
Q 45.90625 40.484375 42.875 44.328125 
Q 39.84375 48.1875 33.796875 48.1875 
Q 26.515625 48.1875 22.3125 43.546875 
Q 18.109375 38.921875 18.109375 30.90625 
L 18.109375 0 
L 9.078125 0 
L 9.078125 75.984375 
L 18.109375 75.984375 
L 18.109375 46.1875 
Q 21.34375 51.125 25.703125 53.5625 
Q 30.078125 56 35.796875 56 
Q 45.21875 56 50.046875 50.171875 
Q 54.890625 44.34375 54.890625 33.015625 
z
" id="DejaVuSans-104"/>
     </defs>
     <g transform="translate(207.030313 316.706687)scale(0.1 -0.1)">
      <use xlink:href="#DejaVuSans-69"/>
      <use x="63.183594" xlink:href="#DejaVuSans-112"/>
      <use x="126.660156" xlink:href="#DejaVuSans-111"/>
      <use x="187.841797" xlink:href="#DejaVuSans-99"/>
      <use x="242.822266" xlink:href="#DejaVuSans-104"/>
     </g>
    </g>
   </g>
   <g id="matplotlib.axis_2">
    <g id="ytick_1">
     <g id="line2d_7">
      <defs>
       <path d="M 0 0 
L -3.5 0 
" id="m1269452b27" style="stroke:#000000;stroke-width:0.8;"/>
      </defs>
      <g>
       <use style="stroke:#000000;stroke-width:0.8;" x="43.78125" xlink:href="#m1269452b27" y="257.604864"/>
      </g>
     </g>
     <g id="text_8">
      <!-- 0.0 -->
      <defs>
       <path d="M 10.6875 12.40625 
L 21 12.40625 
L 21 0 
L 10.6875 0 
z
" id="DejaVuSans-46"/>
      </defs>
      <g transform="translate(20.878125 261.404083)scale(0.1 -0.1)">
       <use xlink:href="#DejaVuSans-48"/>
       <use x="63.623047" xlink:href="#DejaVuSans-46"/>
       <use x="95.410156" xlink:href="#DejaVuSans-48"/>
      </g>
     </g>
    </g>
    <g id="ytick_2">
     <g id="line2d_8">
      <g>
       <use style="stroke:#000000;stroke-width:0.8;" x="43.78125" xlink:href="#m1269452b27" y="212.966716"/>
      </g>
     </g>
     <g id="text_9">
      <!-- 0.2 -->
      <g transform="translate(20.878125 216.765935)scale(0.1 -0.1)">
       <use xlink:href="#DejaVuSans-48"/>
       <use x="63.623047" xlink:href="#DejaVuSans-46"/>
       <use x="95.410156" xlink:href="#DejaVuSans-50"/>
      </g>
     </g>
    </g>
    <g id="ytick_3">
     <g id="line2d_9">
      <g>
       <use style="stroke:#000000;stroke-width:0.8;" x="43.78125" xlink:href="#m1269452b27" y="168.328568"/>
      </g>
     </g>
     <g id="text_10">
      <!-- 0.4 -->
      <g transform="translate(20.878125 172.127787)scale(0.1 -0.1)">
       <use xlink:href="#DejaVuSans-48"/>
       <use x="63.623047" xlink:href="#DejaVuSans-46"/>
       <use x="95.410156" xlink:href="#DejaVuSans-52"/>
      </g>
     </g>
    </g>
    <g id="ytick_4">
     <g id="line2d_10">
      <g>
       <use style="stroke:#000000;stroke-width:0.8;" x="43.78125" xlink:href="#m1269452b27" y="123.690421"/>
      </g>
     </g>
     <g id="text_11">
      <!-- 0.6 -->
      <g transform="translate(20.878125 127.489639)scale(0.1 -0.1)">
       <use xlink:href="#DejaVuSans-48"/>
       <use x="63.623047" xlink:href="#DejaVuSans-46"/>
       <use x="95.410156" xlink:href="#DejaVuSans-54"/>
      </g>
     </g>
    </g>
    <g id="ytick_5">
     <g id="line2d_11">
      <g>
       <use style="stroke:#000000;stroke-width:0.8;" x="43.78125" xlink:href="#m1269452b27" y="79.052273"/>
      </g>
     </g>
     <g id="text_12">
      <!-- 0.8 -->
      <g transform="translate(20.878125 82.851492)scale(0.1 -0.1)">
       <use xlink:href="#DejaVuSans-48"/>
       <use x="63.623047" xlink:href="#DejaVuSans-46"/>
       <use x="95.410156" xlink:href="#DejaVuSans-56"/>
      </g>
     </g>
    </g>
    <g id="ytick_6">
     <g id="line2d_12">
      <g>
       <use style="stroke:#000000;stroke-width:0.8;" x="43.78125" xlink:href="#m1269452b27" y="34.414125"/>
      </g>
     </g>
     <g id="text_13">
      <!-- 1.0 -->
      <g transform="translate(20.878125 38.213344)scale(0.1 -0.1)">
       <use xlink:href="#DejaVuSans-49"/>
       <use x="63.623047" xlink:href="#DejaVuSans-46"/>
       <use x="95.410156" xlink:href="#DejaVuSans-48"/>
      </g>
     </g>
    </g>
    <g id="text_14">
     <!-- Loss -->
     <defs>
      <path d="M 9.8125 72.90625 
L 19.671875 72.90625 
L 19.671875 8.296875 
L 55.171875 8.296875 
L 55.171875 0 
L 9.8125 0 
z
" id="DejaVuSans-76"/>
      <path d="M 44.28125 53.078125 
L 44.28125 44.578125 
Q 40.484375 46.53125 36.375 47.5 
Q 32.28125 48.484375 27.875 48.484375 
Q 21.1875 48.484375 17.84375 46.4375 
Q 14.5 44.390625 14.5 40.28125 
Q 14.5 37.15625 16.890625 35.375 
Q 19.28125 33.59375 26.515625 31.984375 
L 29.59375 31.296875 
Q 39.15625 29.25 43.1875 25.515625 
Q 47.21875 21.78125 47.21875 15.09375 
Q 47.21875 7.46875 41.1875 3.015625 
Q 35.15625 -1.421875 24.609375 -1.421875 
Q 20.21875 -1.421875 15.453125 -0.5625 
Q 10.6875 0.296875 5.421875 2 
L 5.421875 11.28125 
Q 10.40625 8.6875 15.234375 7.390625 
Q 20.0625 6.109375 24.8125 6.109375 
Q 31.15625 6.109375 34.5625 8.28125 
Q 37.984375 10.453125 37.984375 14.40625 
Q 37.984375 18.0625 35.515625 20.015625 
Q 33.0625 21.96875 24.703125 23.78125 
L 21.578125 24.515625 
Q 13.234375 26.265625 9.515625 29.90625 
Q 5.8125 33.546875 5.8125 39.890625 
Q 5.8125 47.609375 11.28125 51.796875 
Q 16.75 56 26.8125 56 
Q 31.78125 56 36.171875 55.265625 
Q 40.578125 54.546875 44.28125 53.078125 
z
" id="DejaVuSans-115"/>
     </defs>
     <g transform="translate(14.798438 166.428031)rotate(-90)scale(0.1 -0.1)">
      <use xlink:href="#DejaVuSans-76"/>
      <use x="55.697266" xlink:href="#DejaVuSans-111"/>
      <use x="116.878906" xlink:href="#DejaVuSans-115"/>
      <use x="168.978516" xlink:href="#DejaVuSans-115"/>
     </g>
    </g>
   </g>
   <g id="line2d_13">
    <path clip-path="url(#pd2398d0d57)" d="M 60.013977 257.604854 
L 63.135656 257.604855 
L 66.257334 257.604857 
L 69.379012 257.604855 
L 72.500691 257.60486 
L 75.622369 257.604861 
L 78.744047 257.604854 
L 81.865726 257.604854 
L 84.987404 257.604849 
L 88.109082 257.60485 
L 91.23076 257.604851 
L 94.352439 257.604854 
L 97.474117 257.604848 
L 100.595795 257.604861 
L 103.717474 257.604864 
L 106.839152 257.604858 
L 109.96083 257.604855 
L 113.082509 257.604856 
L 116.204187 257.604859 
L 119.325865 257.604858 
L 122.447544 257.604858 
L 125.569222 257.604856 
L 128.6909 257.604856 
L 131.812579 257.604853 
L 134.934257 257.60483 
L 138.055935 257.604843 
L 141.177614 257.604812 
L 144.299292 257.604841 
L 147.42097 257.604851 
L 150.542649 257.604858 
L 153.664327 257.604853 
L 156.786005 257.604851 
L 159.907684 257.604852 
L 163.029362 257.604855 
L 166.15104 257.604852 
L 169.272719 257.604848 
L 172.394397 257.604825 
L 175.516075 257.604818 
L 178.637753 257.604825 
L 181.759432 257.604853 
L 184.88111 257.604603 
L 188.002788 257.604851 
L 191.124467 257.604832 
L 194.246145 257.604846 
L 197.367823 257.604848 
L 200.489502 257.604851 
L 203.61118 257.60485 
L 206.732858 257.604848 
L 209.854537 257.604819 
L 212.976215 257.604824 
L 216.097893 257.604828 
L 219.219572 257.604822 
L 222.34125 257.604828 
L 225.462928 257.604823 
L 228.584607 257.604836 
L 231.706285 257.604817 
L 234.827963 257.604788 
L 237.949642 182.286325 
L 241.07132 257.604818 
L 244.192998 257.60482 
L 247.314677 257.442911 
L 250.436355 257.604853 
L 253.558033 257.604853 
L 256.679712 257.604851 
L 259.80139 257.604829 
L 262.923068 257.604843 
L 266.044747 257.604851 
L 269.166425 257.604855 
L 272.288103 257.604856 
L 275.409781 257.604857 
L 278.53146 257.604856 
L 281.653138 257.604856 
L 284.774816 257.60481 
L 287.896495 257.604843 
L 291.018173 257.604839 
L 294.139851 257.604852 
L 297.26153 257.604841 
L 300.383208 257.604855 
L 303.504886 257.604831 
L 306.626565 257.604754 
L 309.748243 257.604793 
L 312.869921 257.604857 
L 315.9916 257.604855 
L 319.113278 257.604856 
L 322.234956 257.604843 
L 325.356635 257.604853 
L 328.478313 257.604858 
L 331.599991 257.604834 
L 334.72167 257.604839 
L 337.843348 257.604842 
L 340.965026 257.604828 
L 344.086705 257.604786 
L 347.208383 257.604827 
L 350.330061 34.414125 
L 353.45174 257.604763 
L 356.573418 257.60479 
L 359.695096 257.604833 
L 362.816774 257.604841 
L 365.938453 257.604829 
L 369.060131 257.604816 
L 372.181809 257.60483 
L 375.303488 257.604837 
L 378.425166 257.604835 
L 381.546844 257.604831 
L 384.668523 257.604821 
" style="fill:none;stroke:#1f77b4;stroke-linecap:square;stroke-opacity:0.3;stroke-width:1.5;"/>
   </g>
   <g id="line2d_14">
    <path clip-path="url(#pd2398d0d57)" d="M 60.013977 257.604853 
L 63.135656 257.604856 
L 66.257334 257.604858 
L 69.379012 257.604858 
L 72.500691 257.604858 
L 75.622369 257.604857 
L 78.744047 257.604855 
L 81.865726 257.604854 
L 84.987404 257.604852 
L 88.109082 257.60485 
L 91.23076 257.604851 
L 94.352439 257.604853 
L 97.474117 257.604855 
L 100.595795 257.604857 
L 103.717474 257.604858 
L 106.839152 257.604858 
L 109.96083 257.604859 
L 113.082509 257.604859 
L 116.204187 257.604857 
L 119.325865 257.604859 
L 122.447544 257.604857 
L 125.569222 257.604857 
L 128.6909 257.604851 
L 131.812579 257.604844 
L 134.934257 257.604838 
L 138.055935 257.604836 
L 141.177614 257.604837 
L 144.299292 257.604839 
L 147.42097 257.604843 
L 150.542649 257.604849 
L 153.664327 257.604852 
L 156.786005 257.604859 
L 159.907684 257.604856 
L 163.029362 257.604851 
L 166.15104 257.604843 
L 169.272719 257.604859 
L 172.394397 257.60483 
L 175.516075 257.60481 
L 178.637753 257.604795 
L 181.759432 257.604788 
L 184.88111 257.604789 
L 188.002788 257.604797 
L 191.124467 257.604808 
L 194.246145 257.604825 
L 197.367823 257.604842 
L 200.489502 257.604866 
L 203.61118 257.604843 
L 206.732858 257.60484 
L 209.854537 257.604834 
L 212.976215 257.604828 
L 216.097893 257.604826 
L 219.219572 257.604827 
L 222.34125 263.925257 
L 225.462928 256.024715 
L 228.584607 249.879846 
L 231.706285 245.50424 
L 234.827963 242.853739 
L 237.949642 241.962691 
L 241.07132 242.831097 
L 244.192998 245.458957 
L 247.314677 249.846269 
L 250.436355 255.993029 
L 253.558033 263.899233 
L 256.679712 257.588239 
L 259.80139 257.601451 
L 262.923068 257.618435 
L 266.044747 257.604848 
L 269.166425 257.604854 
L 272.288103 257.604854 
L 275.409781 257.604854 
L 278.53146 257.604848 
L 281.653138 257.604845 
L 284.774816 257.604841 
L 287.896495 257.604841 
L 291.018173 257.604847 
L 294.139851 257.604843 
L 297.26153 257.604831 
L 300.383208 257.604826 
L 303.504886 257.604818 
L 306.626565 257.604818 
L 309.748243 257.604819 
L 312.869921 257.604824 
L 315.9916 257.604834 
L 319.113278 257.604848 
L 322.234956 257.604859 
L 325.356635 257.604855 
L 328.478313 257.604851 
L 331.599991 257.604843 
L 334.72167 276.334125 
L 337.843348 252.922513 
L 340.965026 234.713471 
L 344.086705 221.707007 
L 347.208383 213.903129 
L 350.330061 211.301836 
L 353.45174 213.903128 
L 356.573418 221.707004 
L 359.695096 234.713461 
L 362.816774 252.922495 
L 365.938453 276.334115 
L 369.060131 257.604836 
L 372.181809 257.604834 
L 375.303488 257.60483 
L 378.425166 257.604827 
L 381.546844 257.604825 
L 384.668523 257.604829 
" style="fill:none;stroke:#1f77b4;stroke-linecap:square;stroke-width:1.5;"/>
   </g>
   <g id="line2d_15">
    <path clip-path="url(#pd2398d0d57)" d="M 60.013977 147.09934 
L 63.135656 160.503002 
L 66.257334 173.445437 
L 69.379012 34.414125 
L 72.500691 63.728844 
L 75.622369 83.929713 
L 78.744047 232.031171 
L 81.865726 232.206673 
L 84.987404 232.313064 
L 88.109082 196.759602 
L 91.23076 201.120346 
L 94.352439 204.03706 
L 97.474117 251.088807 
L 100.595795 256.000408 
L 103.717474 257.604864 
L 106.839152 241.931837 
L 109.96083 243.343628 
L 113.082509 244.012841 
L 116.204187 225.230078 
L 119.325865 226.854261 
L 122.447544 227.795727 
L 125.569222 170.236712 
L 128.6909 171.047261 
L 131.812579 171.547337 
L 134.934257 195.323709 
L 138.055935 196.595646 
L 141.177614 197.582374 
L 144.299292 188.360419 
L 147.42097 191.96772 
L 150.542649 193.850677 
L 153.664327 231.55059 
L 156.786005 232.307901 
L 159.907684 232.68821 
L 163.029362 208.284082 
L 166.15104 208.830118 
L 169.272719 209.303328 
L 172.394397 196.421791 
L 175.516075 205.954558 
L 178.637753 209.599985 
L 181.759432 193.806177 
L 184.88111 202.457258 
L 188.002788 204.543635 
L 191.124467 238.26261 
L 194.246145 241.392601 
L 197.367823 243.068998 
L 200.489502 231.723595 
L 203.61118 232.786541 
L 206.732858 233.662172 
L 209.854537 229.960386 
L 212.976215 230.441163 
L 216.097893 230.867299 
L 219.219572 239.873586 
L 222.34125 240.477873 
L 225.462928 241.071125 
L 228.584607 253.943934 
L 231.706285 255.005168 
L 234.827963 255.682155 
L 237.949642 165.546009 
L 241.07132 180.777785 
L 244.192998 184.53203 
L 247.314677 64.006407 
L 250.436355 71.822459 
L 253.558033 76.164491 
L 256.679712 185.191424 
L 259.80139 186.077399 
L 262.923068 187.64399 
L 266.044747 181.477629 
L 269.166425 189.184561 
L 272.288103 192.116801 
L 275.409781 191.990144 
L 278.53146 194.356388 
L 281.653138 195.844536 
L 284.774816 207.121469 
L 287.896495 208.748559 
L 291.018173 210.002229 
L 294.139851 192.851389 
L 297.26153 195.73497 
L 300.383208 197.915093 
L 303.504886 220.487544 
L 306.626565 221.813319 
L 309.748243 222.945839 
L 312.869921 236.722132 
L 315.9916 237.623152 
L 319.113278 238.290744 
L 322.234956 234.976229 
L 325.356635 235.663179 
L 328.478313 236.166477 
L 331.599991 251.460419 
L 334.72167 251.788538 
L 337.843348 252.010718 
L 340.965026 233.521548 
L 344.086705 234.48708 
L 347.208383 235.1748 
L 350.330061 240.268682 
L 353.45174 242.208839 
L 356.573418 243.085712 
L 359.695096 229.158446 
L 362.816774 233.376495 
L 365.938453 235.305659 
L 369.060131 246.984159 
L 372.181809 252.116183 
L 375.303488 253.411301 
L 378.425166 232.249798 
L 381.546844 237.519782 
L 384.668523 238.637671 
" style="fill:none;stroke:#ff7f0e;stroke-linecap:square;stroke-opacity:0.3;stroke-width:1.5;"/>
   </g>
   <g id="line2d_16">
    <path clip-path="url(#pd2398d0d57)" d="M 60.013977 187.305665 
L 63.135656 121.256593 
L 66.257334 91.233551 
L 69.379012 89.314094 
L 72.500691 107.575777 
L 75.622369 138.096153 
L 78.744047 158.63034 
L 81.865726 180.781036 
L 84.987404 213.625777 
L 88.109082 225.569849 
L 91.23076 230.951468 
L 94.352439 223.99872 
L 97.474117 230.959258 
L 100.595795 240.881054 
L 103.717474 249.814056 
L 106.839152 250.600455 
L 109.96083 251.455145 
L 113.082509 241.073278 
L 116.204187 230.089733 
L 119.325865 215.562935 
L 122.447544 203.772173 
L 125.569222 192.867356 
L 128.6909 186.480136 
L 131.812579 183.656772 
L 134.934257 182.177232 
L 138.055935 181.929457 
L 141.177614 190.800785 
L 144.299292 196.526272 
L 147.42097 204.780806 
L 150.542649 209.512 
L 153.664327 214.928414 
L 156.786005 220.160115 
L 159.907684 221.781326 
L 163.029362 219.274108 
L 166.15104 215.781048 
L 169.272719 207.279831 
L 172.394397 203.068774 
L 175.516075 198.387425 
L 178.637753 200.003951 
L 181.759432 203.030168 
L 184.88111 210.126625 
L 188.002788 218.318431 
L 191.124467 224.438028 
L 194.246145 231.216793 
L 197.367823 237.242897 
L 200.489502 238.440642 
L 203.61118 236.441187 
L 206.732858 231.948669 
L 209.854537 231.181289 
L 212.976215 230.953561 
L 216.097893 233.707395 
L 219.219572 236.785582 
L 222.34125 248.514658 
L 225.462928 250.160565 
L 228.584607 245.013272 
L 231.706285 245.454731 
L 234.827963 229.192655 
L 237.949642 203.10263 
L 241.07132 162.145055 
L 244.192998 130.736365 
L 247.314677 112.895752 
L 250.436355 110.163306 
L 253.558033 122.352754 
L 256.679712 133.226299 
L 259.80139 153.592049 
L 262.923068 182.481375 
L 266.044747 194.16124 
L 269.166425 196.699834 
L 272.288103 189.464017 
L 275.409781 192.365746 
L 278.53146 197.570663 
L 281.653138 201.298791 
L 284.774816 202.350772 
L 287.896495 201.063967 
L 291.018173 201.360799 
L 294.139851 202.462302 
L 297.26153 203.243635 
L 300.383208 205.680989 
L 303.504886 211.202803 
L 306.626565 218.901096 
L 309.748243 227.533167 
L 312.869921 232.861081 
L 315.9916 234.749414 
L 319.113278 235.336311 
L 322.234956 238.022085 
L 325.356635 242.057633 
L 328.478313 243.296043 
L 331.599991 244.442596 
L 334.72167 244.286854 
L 337.843348 243.75086 
L 340.965026 242.322148 
L 344.086705 241.590267 
L 347.208383 238.447727 
L 350.330061 236.894346 
L 353.45174 235.522089 
L 356.573418 236.509139 
L 359.695096 236.892376 
L 362.816774 240.015033 
L 365.938453 241.063076 
L 369.060131 242.02872 
L 372.181809 244.833777 
L 375.303488 246.330231 
L 378.425166 245.54151 
L 381.546844 241.491046 
L 384.668523 233.202267 
" style="fill:none;stroke:#ff7f0e;stroke-linecap:square;stroke-width:1.5;"/>
   </g>
   <g id="line2d_17">
    <path clip-path="url(#pd2398d0d57)" d="M 60.013977 247.424271 
L 63.135656 245.619631 
L 66.257334 239.467694 
L 69.379012 230.730977 
L 72.500691 221.171998 
L 75.622369 212.553278 
L 78.744047 212.350427 
L 81.865726 220.970171 
L 84.987404 218.365946 
L 88.109082 215.633232 
L 91.23076 208.307156 
L 94.352439 202.234058 
L 97.474117 196.859663 
L 100.595795 188.372051 
L 103.717474 171.83121 
L 106.839152 167.198895 
L 109.96083 167.261266 
L 113.082509 173.63534 
L 116.204187 168.249992 
L 119.325865 162.302344 
L 122.447544 156.072545 
L 125.569222 156.769169 
L 128.6909 158.408903 
L 131.812579 151.916345 
L 134.934257 145.688438 
L 138.055935 137.558709 
L 141.177614 131.561591 
L 144.299292 129.091447 
L 147.42097 127.339689 
L 150.542649 125.855061 
L 153.664327 126.29983 
L 156.786005 129.218094 
L 159.907684 134.949922 
L 163.029362 131.089427 
L 166.15104 122.809059 
L 169.272719 113.235437 
L 172.394397 106.889284 
L 175.516075 102.356265 
L 178.637753 98.449982 
L 181.759432 95.647299 
L 184.88111 94.276026 
L 188.002788 94.211018 
L 191.124467 96.639784 
L 194.246145 92.551476 
L 197.367823 88.453606 
L 200.489502 86.57061 
L 203.61118 87.107956 
L 206.732858 87.527808 
L 209.854537 87.686838 
L 212.976215 87.598303 
L 216.097893 86.892743 
L 219.219572 84.038393 
L 222.34125 76.11021 
L 225.462928 71.687199 
L 228.584607 73.465179 
L 231.706285 79.362473 
L 234.827963 85.261194 
L 237.949642 87.310961 
L 241.07132 87.60585 
L 244.192998 87.171561 
L 247.314677 85.978503 
L 250.436355 82.543968 
L 253.558033 72.966844 
L 256.679712 66.576163 
L 259.80139 59.878626 
L 262.923068 55.814572 
L 266.044747 50.360078 
L 269.166425 47.195183 
L 272.288103 44.077315 
L 275.409781 44.095275 
L 278.53146 46.913413 
L 281.653138 52.456062 
L 284.774816 55.994832 
L 287.896495 59.113416 
L 291.018173 61.945055 
L 294.139851 69.236936 
L 297.26153 74.769014 
L 300.383208 77.354473 
L 303.504886 73.27039 
L 306.626565 65.96559 
L 309.748243 57.373952 
L 312.869921 51.743774 
L 315.9916 47.017123 
L 319.113278 44.151479 
L 322.234956 44.84828 
L 325.356635 46.455253 
L 328.478313 48.180377 
L 331.599991 50.901696 
L 334.72167 53.950517 
L 337.843348 53.508733 
L 340.965026 52.350897 
L 344.086705 51.329652 
L 347.208383 53.533826 
L 350.330061 59.794196 
L 353.45174 66.656047 
L 356.573418 72.118118 
L 359.695096 81.334424 
L 362.816774 90.2068 
L 365.938453 97.319177 
L 369.060131 98.701952 
L 372.181809 95.196542 
L 375.303488 90.775472 
L 378.425166 86.881499 
L 381.546844 84.95738 
L 384.668523 86.445872 
" style="fill:none;stroke:#008000;stroke-linecap:square;stroke-width:1.5;"/>
   </g>
   <g id="patch_3">
    <path d="M 43.78125 288.430125 
L 43.78125 22.318125 
" style="fill:none;stroke:#000000;stroke-linecap:square;stroke-linejoin:miter;stroke-width:0.8;"/>
   </g>
   <g id="patch_4">
    <path d="M 400.90125 288.430125 
L 400.90125 22.318125 
" style="fill:none;stroke:#000000;stroke-linecap:square;stroke-linejoin:miter;stroke-width:0.8;"/>
   </g>
   <g id="patch_5">
    <path d="M 43.78125 288.430125 
L 400.90125 288.430125 
" style="fill:none;stroke:#000000;stroke-linecap:square;stroke-linejoin:miter;stroke-width:0.8;"/>
   </g>
   <g id="patch_6">
    <path d="M 43.78125 22.318125 
L 400.90125 22.318125 
" style="fill:none;stroke:#000000;stroke-linecap:square;stroke-linejoin:miter;stroke-width:0.8;"/>
   </g>
   <g id="text_15">
    <!-- Entropy and Loss. -->
    <defs>
     <path d="M 9.1875 72.90625 
L 59.90625 72.90625 
L 59.90625 58.6875 
L 27.984375 58.6875 
L 27.984375 45.125 
L 58.015625 45.125 
L 58.015625 30.90625 
L 27.984375 30.90625 
L 27.984375 14.203125 
L 60.984375 14.203125 
L 60.984375 0 
L 9.1875 0 
z
" id="DejaVuSans-Bold-69"/>
     <path d="M 63.375 33.296875 
L 63.375 0 
L 45.796875 0 
L 45.796875 5.421875 
L 45.796875 25.484375 
Q 45.796875 32.5625 45.484375 35.25 
Q 45.171875 37.9375 44.390625 39.203125 
Q 43.359375 40.921875 41.59375 41.875 
Q 39.84375 42.828125 37.59375 42.828125 
Q 32.125 42.828125 29 38.59375 
Q 25.875 34.375 25.875 26.90625 
L 25.875 0 
L 8.40625 0 
L 8.40625 54.6875 
L 25.875 54.6875 
L 25.875 46.6875 
Q 29.828125 51.46875 34.265625 53.734375 
Q 38.71875 56 44.09375 56 
Q 53.5625 56 58.46875 50.1875 
Q 63.375 44.390625 63.375 33.296875 
z
" id="DejaVuSans-Bold-110"/>
     <path d="M 27.484375 70.21875 
L 27.484375 54.6875 
L 45.515625 54.6875 
L 45.515625 42.1875 
L 27.484375 42.1875 
L 27.484375 19 
Q 27.484375 15.1875 29 13.84375 
Q 30.515625 12.5 35.015625 12.5 
L 44 12.5 
L 44 0 
L 29 0 
Q 18.65625 0 14.328125 4.3125 
Q 10.015625 8.640625 10.015625 19 
L 10.015625 42.1875 
L 1.3125 42.1875 
L 1.3125 54.6875 
L 10.015625 54.6875 
L 10.015625 70.21875 
z
" id="DejaVuSans-Bold-116"/>
     <path d="M 49.03125 39.796875 
Q 46.734375 40.875 44.453125 41.375 
Q 42.1875 41.890625 39.890625 41.890625 
Q 33.15625 41.890625 29.515625 37.5625 
Q 25.875 33.25 25.875 25.203125 
L 25.875 0 
L 8.40625 0 
L 8.40625 54.6875 
L 25.875 54.6875 
L 25.875 45.703125 
Q 29.25 51.078125 33.609375 53.53125 
Q 37.984375 56 44.09375 56 
Q 44.96875 56 45.984375 55.921875 
Q 47.015625 55.859375 48.96875 55.609375 
z
" id="DejaVuSans-Bold-114"/>
     <path d="M 34.421875 43.5 
Q 28.609375 43.5 25.5625 39.328125 
Q 22.515625 35.15625 22.515625 27.296875 
Q 22.515625 19.4375 25.5625 15.25 
Q 28.609375 11.078125 34.421875 11.078125 
Q 40.140625 11.078125 43.15625 15.25 
Q 46.1875 19.4375 46.1875 27.296875 
Q 46.1875 35.15625 43.15625 39.328125 
Q 40.140625 43.5 34.421875 43.5 
z
M 34.421875 56 
Q 48.53125 56 56.46875 48.375 
Q 64.40625 40.765625 64.40625 27.296875 
Q 64.40625 13.8125 56.46875 6.1875 
Q 48.53125 -1.421875 34.421875 -1.421875 
Q 20.265625 -1.421875 12.28125 6.1875 
Q 4.296875 13.8125 4.296875 27.296875 
Q 4.296875 40.765625 12.28125 48.375 
Q 20.265625 56 34.421875 56 
z
" id="DejaVuSans-Bold-111"/>
     <path d="M 25.875 7.90625 
L 25.875 -20.796875 
L 8.40625 -20.796875 
L 8.40625 54.6875 
L 25.875 54.6875 
L 25.875 46.6875 
Q 29.5 51.46875 33.890625 53.734375 
Q 38.28125 56 44 56 
Q 54.109375 56 60.59375 47.96875 
Q 67.09375 39.9375 67.09375 27.296875 
Q 67.09375 14.65625 60.59375 6.609375 
Q 54.109375 -1.421875 44 -1.421875 
Q 38.28125 -1.421875 33.890625 0.84375 
Q 29.5 3.125 25.875 7.90625 
z
M 37.5 43.3125 
Q 31.890625 43.3125 28.875 39.1875 
Q 25.875 35.0625 25.875 27.296875 
Q 25.875 19.53125 28.875 15.40625 
Q 31.890625 11.28125 37.5 11.28125 
Q 43.109375 11.28125 46.0625 15.375 
Q 49.03125 19.484375 49.03125 27.296875 
Q 49.03125 35.109375 46.0625 39.203125 
Q 43.109375 43.3125 37.5 43.3125 
z
" id="DejaVuSans-Bold-112"/>
     <path d="M 1.21875 54.6875 
L 18.703125 54.6875 
L 33.40625 17.578125 
L 45.90625 54.6875 
L 63.375 54.6875 
L 40.375 -5.171875 
Q 36.921875 -14.3125 32.296875 -17.9375 
Q 27.6875 -21.578125 20.125 -21.578125 
L 10.015625 -21.578125 
L 10.015625 -10.109375 
L 15.484375 -10.109375 
Q 19.921875 -10.109375 21.9375 -8.6875 
Q 23.96875 -7.28125 25.09375 -3.609375 
L 25.59375 -2.09375 
z
" id="DejaVuSans-Bold-121"/>
     <path id="DejaVuSans-Bold-32"/>
     <path d="M 32.90625 24.609375 
Q 27.4375 24.609375 24.671875 22.75 
Q 21.921875 20.90625 21.921875 17.28125 
Q 21.921875 13.96875 24.140625 12.078125 
Q 26.375 10.203125 30.328125 10.203125 
Q 35.25 10.203125 38.625 13.734375 
Q 42 17.28125 42 22.609375 
L 42 24.609375 
z
M 59.625 31.203125 
L 59.625 0 
L 42 0 
L 42 8.109375 
Q 38.484375 3.125 34.078125 0.84375 
Q 29.6875 -1.421875 23.390625 -1.421875 
Q 14.890625 -1.421875 9.59375 3.53125 
Q 4.296875 8.5 4.296875 16.40625 
Q 4.296875 26.03125 10.90625 30.515625 
Q 17.53125 35.015625 31.6875 35.015625 
L 42 35.015625 
L 42 36.375 
Q 42 40.53125 38.71875 42.453125 
Q 35.453125 44.390625 28.515625 44.390625 
Q 22.90625 44.390625 18.0625 43.265625 
Q 13.234375 42.140625 9.078125 39.890625 
L 9.078125 53.21875 
Q 14.703125 54.59375 20.359375 55.296875 
Q 26.03125 56 31.6875 56 
Q 46.484375 56 53.046875 50.171875 
Q 59.625 44.34375 59.625 31.203125 
z
" id="DejaVuSans-Bold-97"/>
     <path d="M 45.609375 46.6875 
L 45.609375 75.984375 
L 63.1875 75.984375 
L 63.1875 0 
L 45.609375 0 
L 45.609375 7.90625 
Q 42 3.078125 37.640625 0.828125 
Q 33.296875 -1.421875 27.59375 -1.421875 
Q 17.484375 -1.421875 10.984375 6.609375 
Q 4.5 14.65625 4.5 27.296875 
Q 4.5 39.9375 10.984375 47.96875 
Q 17.484375 56 27.59375 56 
Q 33.25 56 37.625 53.734375 
Q 42 51.46875 45.609375 46.6875 
z
M 34.078125 11.28125 
Q 39.703125 11.28125 42.65625 15.375 
Q 45.609375 19.484375 45.609375 27.296875 
Q 45.609375 35.109375 42.65625 39.203125 
Q 39.703125 43.3125 34.078125 43.3125 
Q 28.515625 43.3125 25.5625 39.203125 
Q 22.609375 35.109375 22.609375 27.296875 
Q 22.609375 19.484375 25.5625 15.375 
Q 28.515625 11.28125 34.078125 11.28125 
z
" id="DejaVuSans-Bold-100"/>
     <path d="M 9.1875 72.90625 
L 27.984375 72.90625 
L 27.984375 14.203125 
L 60.984375 14.203125 
L 60.984375 0 
L 9.1875 0 
z
" id="DejaVuSans-Bold-76"/>
     <path d="M 51.125 52.984375 
L 51.125 39.703125 
Q 45.515625 42.046875 40.28125 43.21875 
Q 35.0625 44.390625 30.421875 44.390625 
Q 25.4375 44.390625 23.015625 43.140625 
Q 20.609375 41.890625 20.609375 39.3125 
Q 20.609375 37.203125 22.4375 36.078125 
Q 24.265625 34.96875 29 34.421875 
L 32.078125 33.984375 
Q 45.515625 32.28125 50.140625 28.375 
Q 54.78125 24.46875 54.78125 16.109375 
Q 54.78125 7.375 48.328125 2.96875 
Q 41.890625 -1.421875 29.109375 -1.421875 
Q 23.6875 -1.421875 17.890625 -0.5625 
Q 12.109375 0.296875 6 2 
L 6 15.28125 
Q 11.234375 12.75 16.71875 11.46875 
Q 22.21875 10.203125 27.875 10.203125 
Q 33.015625 10.203125 35.59375 11.609375 
Q 38.1875 13.03125 38.1875 15.828125 
Q 38.1875 18.171875 36.40625 19.3125 
Q 34.625 20.453125 29.296875 21.09375 
L 26.21875 21.484375 
Q 14.546875 22.953125 9.859375 26.90625 
Q 5.171875 30.859375 5.171875 38.921875 
Q 5.171875 47.609375 11.125 51.796875 
Q 17.09375 56 29.390625 56 
Q 34.234375 56 39.546875 55.265625 
Q 44.875 54.546875 51.125 52.984375 
z
" id="DejaVuSans-Bold-115"/>
     <path d="M 10.203125 18.890625 
L 27.78125 18.890625 
L 27.78125 0 
L 10.203125 0 
z
" id="DejaVuSans-Bold-46"/>
    </defs>
    <g transform="translate(161.657813 16.318125)scale(0.12 -0.12)">
     <use xlink:href="#DejaVuSans-Bold-69"/>
     <use x="68.310547" xlink:href="#DejaVuSans-Bold-110"/>
     <use x="139.501953" xlink:href="#DejaVuSans-Bold-116"/>
     <use x="187.304688" xlink:href="#DejaVuSans-Bold-114"/>
     <use x="236.621094" xlink:href="#DejaVuSans-Bold-111"/>
     <use x="305.322266" xlink:href="#DejaVuSans-Bold-112"/>
     <use x="376.904297" xlink:href="#DejaVuSans-Bold-121"/>
     <use x="442.089844" xlink:href="#DejaVuSans-Bold-32"/>
     <use x="476.904297" xlink:href="#DejaVuSans-Bold-97"/>
     <use x="544.384766" xlink:href="#DejaVuSans-Bold-110"/>
     <use x="615.576172" xlink:href="#DejaVuSans-Bold-100"/>
     <use x="687.158203" xlink:href="#DejaVuSans-Bold-32"/>
     <use x="721.972656" xlink:href="#DejaVuSans-Bold-76"/>
     <use x="785.693359" xlink:href="#DejaVuSans-Bold-111"/>
     <use x="854.394531" xlink:href="#DejaVuSans-Bold-115"/>
     <use x="913.916016" xlink:href="#DejaVuSans-Bold-115"/>
     <use x="973.4375" xlink:href="#DejaVuSans-Bold-46"/>
    </g>
   </g>
   <g id="legend_1">
    <g id="patch_7">
     <path d="M 18.982656 353.02505 
L 429.699844 353.02505 
Q 431.699844 353.02505 431.699844 351.02505 
L 431.699844 337.346925 
Q 431.699844 335.346925 429.699844 335.346925 
L 18.982656 335.346925 
Q 16.982656 335.346925 16.982656 337.346925 
L 16.982656 351.02505 
Q 16.982656 353.02505 18.982656 353.02505 
z
" style="fill:#4c4c4c;opacity:0.5;stroke:#4c4c4c;stroke-linejoin:miter;"/>
    </g>
    <g id="patch_8">
     <path d="M 16.982656 351.02505 
L 427.699844 351.02505 
Q 429.699844 351.02505 429.699844 349.02505 
L 429.699844 335.346925 
Q 429.699844 333.346925 427.699844 333.346925 
L 16.982656 333.346925 
Q 14.982656 333.346925 14.982656 335.346925 
L 14.982656 349.02505 
Q 14.982656 351.02505 16.982656 351.02505 
z
" style="fill:#ffffff;stroke:#cccccc;stroke-linejoin:miter;"/>
    </g>
    <g id="line2d_18">
     <path d="M 18.982656 341.445362 
L 38.982656 341.445362 
" style="fill:none;stroke:#1f77b4;stroke-linecap:square;stroke-width:1.5;"/>
    </g>
    <g id="line2d_19"/>
    <g id="text_16">
     <!-- Policy Loss (Normalized) -->
     <defs>
      <path d="M 19.671875 64.796875 
L 19.671875 37.40625 
L 32.078125 37.40625 
Q 38.96875 37.40625 42.71875 40.96875 
Q 46.484375 44.53125 46.484375 51.125 
Q 46.484375 57.671875 42.71875 61.234375 
Q 38.96875 64.796875 32.078125 64.796875 
z
M 9.8125 72.90625 
L 32.078125 72.90625 
Q 44.34375 72.90625 50.609375 67.359375 
Q 56.890625 61.8125 56.890625 51.125 
Q 56.890625 40.328125 50.609375 34.8125 
Q 44.34375 29.296875 32.078125 29.296875 
L 19.671875 29.296875 
L 19.671875 0 
L 9.8125 0 
z
" id="DejaVuSans-80"/>
      <path d="M 9.421875 75.984375 
L 18.40625 75.984375 
L 18.40625 0 
L 9.421875 0 
z
" id="DejaVuSans-108"/>
      <path d="M 9.421875 54.6875 
L 18.40625 54.6875 
L 18.40625 0 
L 9.421875 0 
z
M 9.421875 75.984375 
L 18.40625 75.984375 
L 18.40625 64.59375 
L 9.421875 64.59375 
z
" id="DejaVuSans-105"/>
      <path d="M 32.171875 -5.078125 
Q 28.375 -14.84375 24.75 -17.8125 
Q 21.140625 -20.796875 15.09375 -20.796875 
L 7.90625 -20.796875 
L 7.90625 -13.28125 
L 13.1875 -13.28125 
Q 16.890625 -13.28125 18.9375 -11.515625 
Q 21 -9.765625 23.484375 -3.21875 
L 25.09375 0.875 
L 2.984375 54.6875 
L 12.5 54.6875 
L 29.59375 11.921875 
L 46.6875 54.6875 
L 56.203125 54.6875 
z
" id="DejaVuSans-121"/>
      <path id="DejaVuSans-32"/>
      <path d="M 31 75.875 
Q 24.46875 64.65625 21.28125 53.65625 
Q 18.109375 42.671875 18.109375 31.390625 
Q 18.109375 20.125 21.3125 9.0625 
Q 24.515625 -2 31 -13.1875 
L 23.1875 -13.1875 
Q 15.875 -1.703125 12.234375 9.375 
Q 8.59375 20.453125 8.59375 31.390625 
Q 8.59375 42.28125 12.203125 53.3125 
Q 15.828125 64.359375 23.1875 75.875 
z
" id="DejaVuSans-40"/>
      <path d="M 9.8125 72.90625 
L 23.09375 72.90625 
L 55.421875 11.921875 
L 55.421875 72.90625 
L 64.984375 72.90625 
L 64.984375 0 
L 51.703125 0 
L 19.390625 60.984375 
L 19.390625 0 
L 9.8125 0 
z
" id="DejaVuSans-78"/>
      <path d="M 41.109375 46.296875 
Q 39.59375 47.171875 37.8125 47.578125 
Q 36.03125 48 33.890625 48 
Q 26.265625 48 22.1875 43.046875 
Q 18.109375 38.09375 18.109375 28.8125 
L 18.109375 0 
L 9.078125 0 
L 9.078125 54.6875 
L 18.109375 54.6875 
L 18.109375 46.1875 
Q 20.953125 51.171875 25.484375 53.578125 
Q 30.03125 56 36.53125 56 
Q 37.453125 56 38.578125 55.875 
Q 39.703125 55.765625 41.0625 55.515625 
z
" id="DejaVuSans-114"/>
      <path d="M 52 44.1875 
Q 55.375 50.25 60.0625 53.125 
Q 64.75 56 71.09375 56 
Q 79.640625 56 84.28125 50.015625 
Q 88.921875 44.046875 88.921875 33.015625 
L 88.921875 0 
L 79.890625 0 
L 79.890625 32.71875 
Q 79.890625 40.578125 77.09375 44.375 
Q 74.3125 48.1875 68.609375 48.1875 
Q 61.625 48.1875 57.5625 43.546875 
Q 53.515625 38.921875 53.515625 30.90625 
L 53.515625 0 
L 44.484375 0 
L 44.484375 32.71875 
Q 44.484375 40.625 41.703125 44.40625 
Q 38.921875 48.1875 33.109375 48.1875 
Q 26.21875 48.1875 22.15625 43.53125 
Q 18.109375 38.875 18.109375 30.90625 
L 18.109375 0 
L 9.078125 0 
L 9.078125 54.6875 
L 18.109375 54.6875 
L 18.109375 46.1875 
Q 21.1875 51.21875 25.484375 53.609375 
Q 29.78125 56 35.6875 56 
Q 41.65625 56 45.828125 52.96875 
Q 50 49.953125 52 44.1875 
z
" id="DejaVuSans-109"/>
      <path d="M 34.28125 27.484375 
Q 23.390625 27.484375 19.1875 25 
Q 14.984375 22.515625 14.984375 16.5 
Q 14.984375 11.71875 18.140625 8.90625 
Q 21.296875 6.109375 26.703125 6.109375 
Q 34.1875 6.109375 38.703125 11.40625 
Q 43.21875 16.703125 43.21875 25.484375 
L 43.21875 27.484375 
z
M 52.203125 31.203125 
L 52.203125 0 
L 43.21875 0 
L 43.21875 8.296875 
Q 40.140625 3.328125 35.546875 0.953125 
Q 30.953125 -1.421875 24.3125 -1.421875 
Q 15.921875 -1.421875 10.953125 3.296875 
Q 6 8.015625 6 15.921875 
Q 6 25.140625 12.171875 29.828125 
Q 18.359375 34.515625 30.609375 34.515625 
L 43.21875 34.515625 
L 43.21875 35.40625 
Q 43.21875 41.609375 39.140625 45 
Q 35.0625 48.390625 27.6875 48.390625 
Q 23 48.390625 18.546875 47.265625 
Q 14.109375 46.140625 10.015625 43.890625 
L 10.015625 52.203125 
Q 14.9375 54.109375 19.578125 55.046875 
Q 24.21875 56 28.609375 56 
Q 40.484375 56 46.34375 49.84375 
Q 52.203125 43.703125 52.203125 31.203125 
z
" id="DejaVuSans-97"/>
      <path d="M 5.515625 54.6875 
L 48.1875 54.6875 
L 48.1875 46.484375 
L 14.40625 7.171875 
L 48.1875 7.171875 
L 48.1875 0 
L 4.296875 0 
L 4.296875 8.203125 
L 38.09375 47.515625 
L 5.515625 47.515625 
z
" id="DejaVuSans-122"/>
      <path d="M 56.203125 29.59375 
L 56.203125 25.203125 
L 14.890625 25.203125 
Q 15.484375 15.921875 20.484375 11.0625 
Q 25.484375 6.203125 34.421875 6.203125 
Q 39.59375 6.203125 44.453125 7.46875 
Q 49.3125 8.734375 54.109375 11.28125 
L 54.109375 2.78125 
Q 49.265625 0.734375 44.1875 -0.34375 
Q 39.109375 -1.421875 33.890625 -1.421875 
Q 20.796875 -1.421875 13.15625 6.1875 
Q 5.515625 13.8125 5.515625 26.8125 
Q 5.515625 40.234375 12.765625 48.109375 
Q 20.015625 56 32.328125 56 
Q 43.359375 56 49.78125 48.890625 
Q 56.203125 41.796875 56.203125 29.59375 
z
M 47.21875 32.234375 
Q 47.125 39.59375 43.09375 43.984375 
Q 39.0625 48.390625 32.421875 48.390625 
Q 24.90625 48.390625 20.390625 44.140625 
Q 15.875 39.890625 15.1875 32.171875 
z
" id="DejaVuSans-101"/>
      <path d="M 45.40625 46.390625 
L 45.40625 75.984375 
L 54.390625 75.984375 
L 54.390625 0 
L 45.40625 0 
L 45.40625 8.203125 
Q 42.578125 3.328125 38.25 0.953125 
Q 33.9375 -1.421875 27.875 -1.421875 
Q 17.96875 -1.421875 11.734375 6.484375 
Q 5.515625 14.40625 5.515625 27.296875 
Q 5.515625 40.1875 11.734375 48.09375 
Q 17.96875 56 27.875 56 
Q 33.9375 56 38.25 53.625 
Q 42.578125 51.265625 45.40625 46.390625 
z
M 14.796875 27.296875 
Q 14.796875 17.390625 18.875 11.75 
Q 22.953125 6.109375 30.078125 6.109375 
Q 37.203125 6.109375 41.296875 11.75 
Q 45.40625 17.390625 45.40625 27.296875 
Q 45.40625 37.203125 41.296875 42.84375 
Q 37.203125 48.484375 30.078125 48.484375 
Q 22.953125 48.484375 18.875 42.84375 
Q 14.796875 37.203125 14.796875 27.296875 
z
" id="DejaVuSans-100"/>
      <path d="M 8.015625 75.875 
L 15.828125 75.875 
Q 23.140625 64.359375 26.78125 53.3125 
Q 30.421875 42.28125 30.421875 31.390625 
Q 30.421875 20.453125 26.78125 9.375 
Q 23.140625 -1.703125 15.828125 -13.1875 
L 8.015625 -13.1875 
Q 14.5 -2 17.703125 9.0625 
Q 20.90625 20.125 20.90625 31.390625 
Q 20.90625 42.671875 17.703125 53.65625 
Q 14.5 64.65625 8.015625 75.875 
z
" id="DejaVuSans-41"/>
     </defs>
     <g transform="translate(46.982656 344.945362)scale(0.1 -0.1)">
      <use xlink:href="#DejaVuSans-80"/>
      <use x="60.255859" xlink:href="#DejaVuSans-111"/>
      <use x="121.4375" xlink:href="#DejaVuSans-108"/>
      <use x="149.220703" xlink:href="#DejaVuSans-105"/>
      <use x="177.003906" xlink:href="#DejaVuSans-99"/>
      <use x="231.984375" xlink:href="#DejaVuSans-121"/>
      <use x="291.164062" xlink:href="#DejaVuSans-32"/>
      <use x="322.951172" xlink:href="#DejaVuSans-76"/>
      <use x="378.648438" xlink:href="#DejaVuSans-111"/>
      <use x="439.830078" xlink:href="#DejaVuSans-115"/>
      <use x="491.929688" xlink:href="#DejaVuSans-115"/>
      <use x="544.029297" xlink:href="#DejaVuSans-32"/>
      <use x="575.816406" xlink:href="#DejaVuSans-40"/>
      <use x="614.830078" xlink:href="#DejaVuSans-78"/>
      <use x="689.634766" xlink:href="#DejaVuSans-111"/>
      <use x="750.816406" xlink:href="#DejaVuSans-114"/>
      <use x="791.914062" xlink:href="#DejaVuSans-109"/>
      <use x="889.326172" xlink:href="#DejaVuSans-97"/>
      <use x="950.605469" xlink:href="#DejaVuSans-108"/>
      <use x="978.388672" xlink:href="#DejaVuSans-105"/>
      <use x="1006.171875" xlink:href="#DejaVuSans-122"/>
      <use x="1058.662109" xlink:href="#DejaVuSans-101"/>
      <use x="1120.185547" xlink:href="#DejaVuSans-100"/>
      <use x="1183.662109" xlink:href="#DejaVuSans-41"/>
     </g>
    </g>
    <g id="line2d_20">
     <path d="M 189.251406 341.445362 
L 209.251406 341.445362 
" style="fill:none;stroke:#ff7f0e;stroke-linecap:square;stroke-width:1.5;"/>
    </g>
    <g id="line2d_21"/>
    <g id="text_17">
     <!-- Value Loss (Normalized) -->
     <defs>
      <path d="M 28.609375 0 
L 0.78125 72.90625 
L 11.078125 72.90625 
L 34.1875 11.53125 
L 57.328125 72.90625 
L 67.578125 72.90625 
L 39.796875 0 
z
" id="DejaVuSans-86"/>
      <path d="M 8.5 21.578125 
L 8.5 54.6875 
L 17.484375 54.6875 
L 17.484375 21.921875 
Q 17.484375 14.15625 20.5 10.265625 
Q 23.53125 6.390625 29.59375 6.390625 
Q 36.859375 6.390625 41.078125 11.03125 
Q 45.3125 15.671875 45.3125 23.6875 
L 45.3125 54.6875 
L 54.296875 54.6875 
L 54.296875 0 
L 45.3125 0 
L 45.3125 8.40625 
Q 42.046875 3.421875 37.71875 1 
Q 33.40625 -1.421875 27.6875 -1.421875 
Q 18.265625 -1.421875 13.375 4.4375 
Q 8.5 10.296875 8.5 21.578125 
z
M 31.109375 56 
z
" id="DejaVuSans-117"/>
     </defs>
     <g transform="translate(217.251406 344.945362)scale(0.1 -0.1)">
      <use xlink:href="#DejaVuSans-86"/>
      <use x="68.298828" xlink:href="#DejaVuSans-97"/>
      <use x="129.578125" xlink:href="#DejaVuSans-108"/>
      <use x="157.361328" xlink:href="#DejaVuSans-117"/>
      <use x="220.740234" xlink:href="#DejaVuSans-101"/>
      <use x="282.263672" xlink:href="#DejaVuSans-32"/>
      <use x="314.050781" xlink:href="#DejaVuSans-76"/>
      <use x="369.748047" xlink:href="#DejaVuSans-111"/>
      <use x="430.929688" xlink:href="#DejaVuSans-115"/>
      <use x="483.029297" xlink:href="#DejaVuSans-115"/>
      <use x="535.128906" xlink:href="#DejaVuSans-32"/>
      <use x="566.916016" xlink:href="#DejaVuSans-40"/>
      <use x="605.929688" xlink:href="#DejaVuSans-78"/>
      <use x="680.734375" xlink:href="#DejaVuSans-111"/>
      <use x="741.916016" xlink:href="#DejaVuSans-114"/>
      <use x="783.013672" xlink:href="#DejaVuSans-109"/>
      <use x="880.425781" xlink:href="#DejaVuSans-97"/>
      <use x="941.705078" xlink:href="#DejaVuSans-108"/>
      <use x="969.488281" xlink:href="#DejaVuSans-105"/>
      <use x="997.271484" xlink:href="#DejaVuSans-122"/>
      <use x="1049.761719" xlink:href="#DejaVuSans-101"/>
      <use x="1111.285156" xlink:href="#DejaVuSans-100"/>
      <use x="1174.761719" xlink:href="#DejaVuSans-41"/>
     </g>
    </g>
    <g id="line2d_22">
     <path d="M 358.629531 341.445362 
L 378.629531 341.445362 
" style="fill:none;stroke:#008000;stroke-linecap:square;stroke-width:1.5;"/>
    </g>
    <g id="line2d_23"/>
    <g id="text_18">
     <!-- Entropy -->
     <defs>
      <path d="M 54.890625 33.015625 
L 54.890625 0 
L 45.90625 0 
L 45.90625 32.71875 
Q 45.90625 40.484375 42.875 44.328125 
Q 39.84375 48.1875 33.796875 48.1875 
Q 26.515625 48.1875 22.3125 43.546875 
Q 18.109375 38.921875 18.109375 30.90625 
L 18.109375 0 
L 9.078125 0 
L 9.078125 54.6875 
L 18.109375 54.6875 
L 18.109375 46.1875 
Q 21.34375 51.125 25.703125 53.5625 
Q 30.078125 56 35.796875 56 
Q 45.21875 56 50.046875 50.171875 
Q 54.890625 44.34375 54.890625 33.015625 
z
" id="DejaVuSans-110"/>
      <path d="M 18.3125 70.21875 
L 18.3125 54.6875 
L 36.8125 54.6875 
L 36.8125 47.703125 
L 18.3125 47.703125 
L 18.3125 18.015625 
Q 18.3125 11.328125 20.140625 9.421875 
Q 21.96875 7.515625 27.59375 7.515625 
L 36.8125 7.515625 
L 36.8125 0 
L 27.59375 0 
Q 17.1875 0 13.234375 3.875 
Q 9.28125 7.765625 9.28125 18.015625 
L 9.28125 47.703125 
L 2.6875 47.703125 
L 2.6875 54.6875 
L 9.28125 54.6875 
L 9.28125 70.21875 
z
" id="DejaVuSans-116"/>
     </defs>
     <g transform="translate(386.629531 344.945362)scale(0.1 -0.1)">
      <use xlink:href="#DejaVuSans-69"/>
      <use x="63.183594" xlink:href="#DejaVuSans-110"/>
      <use x="126.5625" xlink:href="#DejaVuSans-116"/>
      <use x="165.771484" xlink:href="#DejaVuSans-114"/>
      <use x="206.853516" xlink:href="#DejaVuSans-111"/>
      <use x="268.035156" xlink:href="#DejaVuSans-112"/>
      <use x="331.511719" xlink:href="#DejaVuSans-121"/>
     </g>
    </g>
   </g>
  </g>
  <g id="axes_2">
   <g id="matplotlib.axis_3">
    <g id="ytick_7">
     <g id="line2d_24">
      <defs>
       <path d="M 0 0 
L 3.5 0 
" id="m8075c0d86c" style="stroke:#000000;stroke-width:0.8;"/>
      </defs>
      <g>
       <use style="stroke:#000000;stroke-width:0.8;" x="400.90125" xlink:href="#m8075c0d86c" y="249.521031"/>
      </g>
     </g>
     <g id="text_19">
      <!-- 1.0 -->
      <g transform="translate(407.90125 253.32025)scale(0.1 -0.1)">
       <use xlink:href="#DejaVuSans-49"/>
       <use x="63.623047" xlink:href="#DejaVuSans-46"/>
       <use x="95.410156" xlink:href="#DejaVuSans-48"/>
      </g>
     </g>
    </g>
    <g id="ytick_8">
     <g id="line2d_25">
      <g>
       <use style="stroke:#000000;stroke-width:0.8;" x="400.90125" xlink:href="#m8075c0d86c" y="191.136273"/>
      </g>
     </g>
     <g id="text_20">
      <!-- 1.5 -->
      <defs>
       <path d="M 10.796875 72.90625 
L 49.515625 72.90625 
L 49.515625 64.59375 
L 19.828125 64.59375 
L 19.828125 46.734375 
Q 21.96875 47.46875 24.109375 47.828125 
Q 26.265625 48.1875 28.421875 48.1875 
Q 40.625 48.1875 47.75 41.5 
Q 54.890625 34.8125 54.890625 23.390625 
Q 54.890625 11.625 47.5625 5.09375 
Q 40.234375 -1.421875 26.90625 -1.421875 
Q 22.3125 -1.421875 17.546875 -0.640625 
Q 12.796875 0.140625 7.71875 1.703125 
L 7.71875 11.625 
Q 12.109375 9.234375 16.796875 8.0625 
Q 21.484375 6.890625 26.703125 6.890625 
Q 35.15625 6.890625 40.078125 11.328125 
Q 45.015625 15.765625 45.015625 23.390625 
Q 45.015625 31 40.078125 35.4375 
Q 35.15625 39.890625 26.703125 39.890625 
Q 22.75 39.890625 18.8125 39.015625 
Q 14.890625 38.140625 10.796875 36.28125 
z
" id="DejaVuSans-53"/>
      </defs>
      <g transform="translate(407.90125 194.935491)scale(0.1 -0.1)">
       <use xlink:href="#DejaVuSans-49"/>
       <use x="63.623047" xlink:href="#DejaVuSans-46"/>
       <use x="95.410156" xlink:href="#DejaVuSans-53"/>
      </g>
     </g>
    </g>
    <g id="ytick_9">
     <g id="line2d_26">
      <g>
       <use style="stroke:#000000;stroke-width:0.8;" x="400.90125" xlink:href="#m8075c0d86c" y="132.751514"/>
      </g>
     </g>
     <g id="text_21">
      <!-- 2.0 -->
      <g transform="translate(407.90125 136.550733)scale(0.1 -0.1)">
       <use xlink:href="#DejaVuSans-50"/>
       <use x="63.623047" xlink:href="#DejaVuSans-46"/>
       <use x="95.410156" xlink:href="#DejaVuSans-48"/>
      </g>
     </g>
    </g>
    <g id="ytick_10">
     <g id="line2d_27">
      <g>
       <use style="stroke:#000000;stroke-width:0.8;" x="400.90125" xlink:href="#m8075c0d86c" y="74.366756"/>
      </g>
     </g>
     <g id="text_22">
      <!-- 2.5 -->
      <g transform="translate(407.90125 78.165975)scale(0.1 -0.1)">
       <use xlink:href="#DejaVuSans-50"/>
       <use x="63.623047" xlink:href="#DejaVuSans-46"/>
       <use x="95.410156" xlink:href="#DejaVuSans-53"/>
      </g>
     </g>
    </g>
    <g id="text_23">
     <!-- Entropy -->
     <g transform="translate(435.402812 174.909281)rotate(-90)scale(0.1 -0.1)">
      <use xlink:href="#DejaVuSans-69"/>
      <use x="63.183594" xlink:href="#DejaVuSans-110"/>
      <use x="126.5625" xlink:href="#DejaVuSans-116"/>
      <use x="165.771484" xlink:href="#DejaVuSans-114"/>
      <use x="206.853516" xlink:href="#DejaVuSans-111"/>
      <use x="268.035156" xlink:href="#DejaVuSans-112"/>
      <use x="331.511719" xlink:href="#DejaVuSans-121"/>
     </g>
    </g>
   </g>
   <g id="line2d_28">
    <path clip-path="url(#pd2398d0d57)" d="M 60.013977 276.334125 
L 63.135656 250.452154 
L 66.257334 240.018368 
L 69.379012 262.939859 
L 72.500691 241.899365 
L 75.622369 227.777027 
L 78.744047 228.281488 
L 81.865726 227.597278 
L 84.987404 182.181418 
L 88.109082 267.62571 
L 91.23076 258.542158 
L 94.352439 253.935867 
L 97.474117 151.007456 
L 100.595795 176.893262 
L 103.717474 184.919206 
L 106.839152 208.443482 
L 109.96083 187.028088 
L 113.082509 166.770769 
L 116.204187 179.654365 
L 119.325865 175.23021 
L 122.447544 169.538554 
L 125.569222 167.171025 
L 128.6909 163.120691 
L 131.812579 155.953598 
L 134.934257 160.195345 
L 138.055935 166.339276 
L 141.177614 145.358312 
L 144.299292 109.473581 
L 147.42097 127.741173 
L 150.542649 129.122846 
L 153.664327 150.568669 
L 156.786005 149.554861 
L 159.907684 134.239758 
L 163.029362 133.080918 
L 166.15104 130.258273 
L 169.272719 126.67916 
L 172.394397 131.20283 
L 175.516075 88.826084 
L 178.637753 87.925515 
L 181.759432 106.884988 
L 184.88111 105.443181 
L 188.002788 102.812243 
L 191.124467 103.687478 
L 194.246145 96.265745 
L 197.367823 94.279917 
L 200.489502 89.827852 
L 203.61118 85.19658 
L 206.732858 84.687999 
L 209.854537 101.070627 
L 212.976215 95.125975 
L 216.097893 98.192693 
L 219.219572 83.101201 
L 222.34125 78.731125 
L 225.462928 81.068406 
L 228.584607 73.452629 
L 231.706285 67.712824 
L 234.827963 71.100899 
L 237.949642 115.394179 
L 241.07132 111.503091 
L 244.192998 101.317874 
L 247.314677 70.982161 
L 250.436355 67.892837 
L 253.558033 77.019771 
L 256.679712 78.776337 
L 259.80139 80.233595 
L 262.923068 62.943021 
L 266.044747 34.414125 
L 269.166425 36.242491 
L 272.288103 38.622618 
L 275.409781 56.957165 
L 278.53146 58.620217 
L 281.653138 60.163445 
L 284.774816 42.062336 
L 287.896495 58.608635 
L 291.018173 60.964486 
L 294.139851 78.129808 
L 297.26153 77.917695 
L 300.383208 79.472783 
L 303.504886 83.581971 
L 306.626565 83.286282 
L 309.748243 52.779965 
L 312.869921 43.03863 
L 315.9916 40.310502 
L 319.113278 39.718067 
L 322.234956 54.250837 
L 325.356635 56.626482 
L 328.478313 49.996993 
L 331.599991 49.933935 
L 334.72167 49.323376 
L 337.843348 43.009982 
L 340.965026 67.723013 
L 344.086705 67.927972 
L 347.208383 58.779267 
L 350.330061 42.763487 
L 353.45174 52.145574 
L 356.573418 73.899378 
L 359.695096 103.889262 
L 362.816774 107.537614 
L 365.938453 96.515554 
L 369.060131 98.857986 
L 372.181809 101.520828 
L 375.303488 94.208674 
L 378.425166 97.107711 
L 381.546844 91.290399 
L 384.668523 87.493048 
" style="fill:none;stroke:#008000;stroke-linecap:square;stroke-opacity:0.3;stroke-width:1.5;"/>
   </g>
   <g id="patch_9">
    <path d="M 43.78125 288.430125 
L 43.78125 22.318125 
" style="fill:none;stroke:#000000;stroke-linecap:square;stroke-linejoin:miter;stroke-width:0.8;"/>
   </g>
   <g id="patch_10">
    <path d="M 400.90125 288.430125 
L 400.90125 22.318125 
" style="fill:none;stroke:#000000;stroke-linecap:square;stroke-linejoin:miter;stroke-width:0.8;"/>
   </g>
   <g id="patch_11">
    <path d="M 43.78125 288.430125 
L 400.90125 288.430125 
" style="fill:none;stroke:#000000;stroke-linecap:square;stroke-linejoin:miter;stroke-width:0.8;"/>
   </g>
   <g id="patch_12">
    <path d="M 43.78125 22.318125 
L 400.90125 22.318125 
" style="fill:none;stroke:#000000;stroke-linecap:square;stroke-linejoin:miter;stroke-width:0.8;"/>
   </g>
  </g>
 </g>
 <defs>
  <clipPath id="pd2398d0d57">
   <rect height="266.112" width="357.12" x="43.78125" y="22.318125"/>
  </clipPath>
 </defs>
</svg>
