<?xml version="1.0" encoding="utf-8" standalone="no"?>
<!DOCTYPE svg PUBLIC "-//W3C//DTD SVG 1.1//EN"
  "http://www.w3.org/Graphics/SVG/1.1/DTD/svg11.dtd">
<!-- Created with matplotlib (https://matplotlib.org/) -->
<svg height="358.22505pt" version="1.1" viewBox="0 0 453.062187 358.22505" width="453.062187pt" xmlns="http://www.w3.org/2000/svg" xmlns:xlink="http://www.w3.org/1999/xlink">
 <defs>
  <style type="text/css">
*{stroke-linecap:butt;stroke-linejoin:round;}
  </style>
 </defs>
 <g id="figure_1">
  <g id="patch_1">
   <path d="M 0 358.22505 
L 453.062187 358.22505 
L 453.062187 0 
L 0 0 
z
" style="fill:#ffffff;"/>
  </g>
  <g id="axes_1">
   <g id="patch_2">
    <path d="M 43.78125 288.430125 
L 400.90125 288.430125 
L 400.90125 22.318125 
L 43.78125 22.318125 
z
" style="fill:#ffffff;"/>
   </g>
   <g id="matplotlib.axis_1">
    <g id="xtick_1">
     <g id="line2d_1">
      <defs>
       <path d="M 0 0 
L 0 3.5 
" id="mc9d9b397b9" style="stroke:#000000;stroke-width:0.8;"/>
      </defs>
      <g>
       <use style="stroke:#000000;stroke-width:0.8;" x="60.013977" xlink:href="#mc9d9b397b9" y="288.430125"/>
      </g>
     </g>
     <g id="text_1">
      <!-- 0 -->
      <defs>
       <path d="M 31.78125 66.40625 
Q 24.171875 66.40625 20.328125 58.90625 
Q 16.5 51.421875 16.5 36.375 
Q 16.5 21.390625 20.328125 13.890625 
Q 24.171875 6.390625 31.78125 6.390625 
Q 39.453125 6.390625 43.28125 13.890625 
Q 47.125 21.390625 47.125 36.375 
Q 47.125 51.421875 43.28125 58.90625 
Q 39.453125 66.40625 31.78125 66.40625 
z
M 31.78125 74.21875 
Q 44.046875 74.21875 50.515625 64.515625 
Q 56.984375 54.828125 56.984375 36.375 
Q 56.984375 17.96875 50.515625 8.265625 
Q 44.046875 -1.421875 31.78125 -1.421875 
Q 19.53125 -1.421875 13.0625 8.265625 
Q 6.59375 17.96875 6.59375 36.375 
Q 6.59375 54.828125 13.0625 64.515625 
Q 19.53125 74.21875 31.78125 74.21875 
z
" id="DejaVuSans-48"/>
      </defs>
      <g transform="translate(56.832727 303.028562)scale(0.1 -0.1)">
       <use xlink:href="#DejaVuSans-48"/>
      </g>
     </g>
    </g>
    <g id="xtick_2">
     <g id="line2d_2">
      <g>
       <use style="stroke:#000000;stroke-width:0.8;" x="135.339858" xlink:href="#mc9d9b397b9" y="288.430125"/>
      </g>
     </g>
     <g id="text_2">
      <!-- 100 -->
      <defs>
       <path d="M 12.40625 8.296875 
L 28.515625 8.296875 
L 28.515625 63.921875 
L 10.984375 60.40625 
L 10.984375 69.390625 
L 28.421875 72.90625 
L 38.28125 72.90625 
L 38.28125 8.296875 
L 54.390625 8.296875 
L 54.390625 0 
L 12.40625 0 
z
" id="DejaVuSans-49"/>
      </defs>
      <g transform="translate(125.796108 303.028562)scale(0.1 -0.1)">
       <use xlink:href="#DejaVuSans-49"/>
       <use x="63.623047" xlink:href="#DejaVuSans-48"/>
       <use x="127.246094" xlink:href="#DejaVuSans-48"/>
      </g>
     </g>
    </g>
    <g id="xtick_3">
     <g id="line2d_3">
      <g>
       <use style="stroke:#000000;stroke-width:0.8;" x="210.665739" xlink:href="#mc9d9b397b9" y="288.430125"/>
      </g>
     </g>
     <g id="text_3">
      <!-- 200 -->
      <defs>
       <path d="M 19.1875 8.296875 
L 53.609375 8.296875 
L 53.609375 0 
L 7.328125 0 
L 7.328125 8.296875 
Q 12.9375 14.109375 22.625 23.890625 
Q 32.328125 33.6875 34.8125 36.53125 
Q 39.546875 41.84375 41.421875 45.53125 
Q 43.3125 49.21875 43.3125 52.78125 
Q 43.3125 58.59375 39.234375 62.25 
Q 35.15625 65.921875 28.609375 65.921875 
Q 23.96875 65.921875 18.8125 64.3125 
Q 13.671875 62.703125 7.8125 59.421875 
L 7.8125 69.390625 
Q 13.765625 71.78125 18.9375 73 
Q 24.125 74.21875 28.421875 74.21875 
Q 39.75 74.21875 46.484375 68.546875 
Q 53.21875 62.890625 53.21875 53.421875 
Q 53.21875 48.921875 51.53125 44.890625 
Q 49.859375 40.875 45.40625 35.40625 
Q 44.1875 33.984375 37.640625 27.21875 
Q 31.109375 20.453125 19.1875 8.296875 
z
" id="DejaVuSans-50"/>
      </defs>
      <g transform="translate(201.121989 303.028562)scale(0.1 -0.1)">
       <use xlink:href="#DejaVuSans-50"/>
       <use x="63.623047" xlink:href="#DejaVuSans-48"/>
       <use x="127.246094" xlink:href="#DejaVuSans-48"/>
      </g>
     </g>
    </g>
    <g id="xtick_4">
     <g id="line2d_4">
      <g>
       <use style="stroke:#000000;stroke-width:0.8;" x="285.991619" xlink:href="#mc9d9b397b9" y="288.430125"/>
      </g>
     </g>
     <g id="text_4">
      <!-- 300 -->
      <defs>
       <path d="M 40.578125 39.3125 
Q 47.65625 37.796875 51.625 33 
Q 55.609375 28.21875 55.609375 21.1875 
Q 55.609375 10.40625 48.1875 4.484375 
Q 40.765625 -1.421875 27.09375 -1.421875 
Q 22.515625 -1.421875 17.65625 -0.515625 
Q 12.796875 0.390625 7.625 2.203125 
L 7.625 11.71875 
Q 11.71875 9.328125 16.59375 8.109375 
Q 21.484375 6.890625 26.8125 6.890625 
Q 36.078125 6.890625 40.9375 10.546875 
Q 45.796875 14.203125 45.796875 21.1875 
Q 45.796875 27.640625 41.28125 31.265625 
Q 36.765625 34.90625 28.71875 34.90625 
L 20.21875 34.90625 
L 20.21875 43.015625 
L 29.109375 43.015625 
Q 36.375 43.015625 40.234375 45.921875 
Q 44.09375 48.828125 44.09375 54.296875 
Q 44.09375 59.90625 40.109375 62.90625 
Q 36.140625 65.921875 28.71875 65.921875 
Q 24.65625 65.921875 20.015625 65.03125 
Q 15.375 64.15625 9.8125 62.3125 
L 9.8125 71.09375 
Q 15.4375 72.65625 20.34375 73.4375 
Q 25.25 74.21875 29.59375 74.21875 
Q 40.828125 74.21875 47.359375 69.109375 
Q 53.90625 64.015625 53.90625 55.328125 
Q 53.90625 49.265625 50.4375 45.09375 
Q 46.96875 40.921875 40.578125 39.3125 
z
" id="DejaVuSans-51"/>
      </defs>
      <g transform="translate(276.447869 303.028562)scale(0.1 -0.1)">
       <use xlink:href="#DejaVuSans-51"/>
       <use x="63.623047" xlink:href="#DejaVuSans-48"/>
       <use x="127.246094" xlink:href="#DejaVuSans-48"/>
      </g>
     </g>
    </g>
    <g id="xtick_5">
     <g id="line2d_5">
      <g>
       <use style="stroke:#000000;stroke-width:0.8;" x="361.3175" xlink:href="#mc9d9b397b9" y="288.430125"/>
      </g>
     </g>
     <g id="text_5">
      <!-- 400 -->
      <defs>
       <path d="M 37.796875 64.3125 
L 12.890625 25.390625 
L 37.796875 25.390625 
z
M 35.203125 72.90625 
L 47.609375 72.90625 
L 47.609375 25.390625 
L 58.015625 25.390625 
L 58.015625 17.1875 
L 47.609375 17.1875 
L 47.609375 0 
L 37.796875 0 
L 37.796875 17.1875 
L 4.890625 17.1875 
L 4.890625 26.703125 
z
" id="DejaVuSans-52"/>
      </defs>
      <g transform="translate(351.77375 303.028562)scale(0.1 -0.1)">
       <use xlink:href="#DejaVuSans-52"/>
       <use x="63.623047" xlink:href="#DejaVuSans-48"/>
       <use x="127.246094" xlink:href="#DejaVuSans-48"/>
      </g>
     </g>
    </g>
    <g id="text_6">
     <!-- Epoch -->
     <defs>
      <path d="M 9.8125 72.90625 
L 55.90625 72.90625 
L 55.90625 64.59375 
L 19.671875 64.59375 
L 19.671875 43.015625 
L 54.390625 43.015625 
L 54.390625 34.71875 
L 19.671875 34.71875 
L 19.671875 8.296875 
L 56.78125 8.296875 
L 56.78125 0 
L 9.8125 0 
z
" id="DejaVuSans-69"/>
      <path d="M 18.109375 8.203125 
L 18.109375 -20.796875 
L 9.078125 -20.796875 
L 9.078125 54.6875 
L 18.109375 54.6875 
L 18.109375 46.390625 
Q 20.953125 51.265625 25.265625 53.625 
Q 29.59375 56 35.59375 56 
Q 45.5625 56 51.78125 48.09375 
Q 58.015625 40.1875 58.015625 27.296875 
Q 58.015625 14.40625 51.78125 6.484375 
Q 45.5625 -1.421875 35.59375 -1.421875 
Q 29.59375 -1.421875 25.265625 0.953125 
Q 20.953125 3.328125 18.109375 8.203125 
z
M 48.6875 27.296875 
Q 48.6875 37.203125 44.609375 42.84375 
Q 40.53125 48.484375 33.40625 48.484375 
Q 26.265625 48.484375 22.1875 42.84375 
Q 18.109375 37.203125 18.109375 27.296875 
Q 18.109375 17.390625 22.1875 11.75 
Q 26.265625 6.109375 33.40625 6.109375 
Q 40.53125 6.109375 44.609375 11.75 
Q 48.6875 17.390625 48.6875 27.296875 
z
" id="DejaVuSans-112"/>
      <path d="M 30.609375 48.390625 
Q 23.390625 48.390625 19.1875 42.75 
Q 14.984375 37.109375 14.984375 27.296875 
Q 14.984375 17.484375 19.15625 11.84375 
Q 23.34375 6.203125 30.609375 6.203125 
Q 37.796875 6.203125 41.984375 11.859375 
Q 46.1875 17.53125 46.1875 27.296875 
Q 46.1875 37.015625 41.984375 42.703125 
Q 37.796875 48.390625 30.609375 48.390625 
z
M 30.609375 56 
Q 42.328125 56 49.015625 48.375 
Q 55.71875 40.765625 55.71875 27.296875 
Q 55.71875 13.875 49.015625 6.21875 
Q 42.328125 -1.421875 30.609375 -1.421875 
Q 18.84375 -1.421875 12.171875 6.21875 
Q 5.515625 13.875 5.515625 27.296875 
Q 5.515625 40.765625 12.171875 48.375 
Q 18.84375 56 30.609375 56 
z
" id="DejaVuSans-111"/>
      <path d="M 48.78125 52.59375 
L 48.78125 44.1875 
Q 44.96875 46.296875 41.140625 47.34375 
Q 37.3125 48.390625 33.40625 48.390625 
Q 24.65625 48.390625 19.8125 42.84375 
Q 14.984375 37.3125 14.984375 27.296875 
Q 14.984375 17.28125 19.8125 11.734375 
Q 24.65625 6.203125 33.40625 6.203125 
Q 37.3125 6.203125 41.140625 7.25 
Q 44.96875 8.296875 48.78125 10.40625 
L 48.78125 2.09375 
Q 45.015625 0.34375 40.984375 -0.53125 
Q 36.96875 -1.421875 32.421875 -1.421875 
Q 20.0625 -1.421875 12.78125 6.34375 
Q 5.515625 14.109375 5.515625 27.296875 
Q 5.515625 40.671875 12.859375 48.328125 
Q 20.21875 56 33.015625 56 
Q 37.15625 56 41.109375 55.140625 
Q 45.0625 54.296875 48.78125 52.59375 
z
" id="DejaVuSans-99"/>
      <path d="M 54.890625 33.015625 
L 54.890625 0 
L 45.90625 0 
L 45.90625 32.71875 
Q 45.90625 40.484375 42.875 44.328125 
Q 39.84375 48.1875 33.796875 48.1875 
Q 26.515625 48.1875 22.3125 43.546875 
Q 18.109375 38.921875 18.109375 30.90625 
L 18.109375 0 
L 9.078125 0 
L 9.078125 75.984375 
L 18.109375 75.984375 
L 18.109375 46.1875 
Q 21.34375 51.125 25.703125 53.5625 
Q 30.078125 56 35.796875 56 
Q 45.21875 56 50.046875 50.171875 
Q 54.890625 44.34375 54.890625 33.015625 
z
" id="DejaVuSans-104"/>
     </defs>
     <g transform="translate(207.030313 316.706687)scale(0.1 -0.1)">
      <use xlink:href="#DejaVuSans-69"/>
      <use x="63.183594" xlink:href="#DejaVuSans-112"/>
      <use x="126.660156" xlink:href="#DejaVuSans-111"/>
      <use x="187.841797" xlink:href="#DejaVuSans-99"/>
      <use x="242.822266" xlink:href="#DejaVuSans-104"/>
     </g>
    </g>
   </g>
   <g id="matplotlib.axis_2">
    <g id="ytick_1">
     <g id="line2d_6">
      <defs>
       <path d="M 0 0 
L -3.5 0 
" id="me53d5ac041" style="stroke:#000000;stroke-width:0.8;"/>
      </defs>
      <g>
       <use style="stroke:#000000;stroke-width:0.8;" x="43.78125" xlink:href="#me53d5ac041" y="276.334125"/>
      </g>
     </g>
     <g id="text_7">
      <!-- 0.0 -->
      <defs>
       <path d="M 10.6875 12.40625 
L 21 12.40625 
L 21 0 
L 10.6875 0 
z
" id="DejaVuSans-46"/>
      </defs>
      <g transform="translate(20.878125 280.133344)scale(0.1 -0.1)">
       <use xlink:href="#DejaVuSans-48"/>
       <use x="63.623047" xlink:href="#DejaVuSans-46"/>
       <use x="95.410156" xlink:href="#DejaVuSans-48"/>
      </g>
     </g>
    </g>
    <g id="ytick_2">
     <g id="line2d_7">
      <g>
       <use style="stroke:#000000;stroke-width:0.8;" x="43.78125" xlink:href="#me53d5ac041" y="227.950125"/>
      </g>
     </g>
     <g id="text_8">
      <!-- 0.2 -->
      <g transform="translate(20.878125 231.749344)scale(0.1 -0.1)">
       <use xlink:href="#DejaVuSans-48"/>
       <use x="63.623047" xlink:href="#DejaVuSans-46"/>
       <use x="95.410156" xlink:href="#DejaVuSans-50"/>
      </g>
     </g>
    </g>
    <g id="ytick_3">
     <g id="line2d_8">
      <g>
       <use style="stroke:#000000;stroke-width:0.8;" x="43.78125" xlink:href="#me53d5ac041" y="179.566125"/>
      </g>
     </g>
     <g id="text_9">
      <!-- 0.4 -->
      <g transform="translate(20.878125 183.365344)scale(0.1 -0.1)">
       <use xlink:href="#DejaVuSans-48"/>
       <use x="63.623047" xlink:href="#DejaVuSans-46"/>
       <use x="95.410156" xlink:href="#DejaVuSans-52"/>
      </g>
     </g>
    </g>
    <g id="ytick_4">
     <g id="line2d_9">
      <g>
       <use style="stroke:#000000;stroke-width:0.8;" x="43.78125" xlink:href="#me53d5ac041" y="131.182125"/>
      </g>
     </g>
     <g id="text_10">
      <!-- 0.6 -->
      <defs>
       <path d="M 33.015625 40.375 
Q 26.375 40.375 22.484375 35.828125 
Q 18.609375 31.296875 18.609375 23.390625 
Q 18.609375 15.53125 22.484375 10.953125 
Q 26.375 6.390625 33.015625 6.390625 
Q 39.65625 6.390625 43.53125 10.953125 
Q 47.40625 15.53125 47.40625 23.390625 
Q 47.40625 31.296875 43.53125 35.828125 
Q 39.65625 40.375 33.015625 40.375 
z
M 52.59375 71.296875 
L 52.59375 62.3125 
Q 48.875 64.0625 45.09375 64.984375 
Q 41.3125 65.921875 37.59375 65.921875 
Q 27.828125 65.921875 22.671875 59.328125 
Q 17.53125 52.734375 16.796875 39.40625 
Q 19.671875 43.65625 24.015625 45.921875 
Q 28.375 48.1875 33.59375 48.1875 
Q 44.578125 48.1875 50.953125 41.515625 
Q 57.328125 34.859375 57.328125 23.390625 
Q 57.328125 12.15625 50.6875 5.359375 
Q 44.046875 -1.421875 33.015625 -1.421875 
Q 20.359375 -1.421875 13.671875 8.265625 
Q 6.984375 17.96875 6.984375 36.375 
Q 6.984375 53.65625 15.1875 63.9375 
Q 23.390625 74.21875 37.203125 74.21875 
Q 40.921875 74.21875 44.703125 73.484375 
Q 48.484375 72.75 52.59375 71.296875 
z
" id="DejaVuSans-54"/>
      </defs>
      <g transform="translate(20.878125 134.981344)scale(0.1 -0.1)">
       <use xlink:href="#DejaVuSans-48"/>
       <use x="63.623047" xlink:href="#DejaVuSans-46"/>
       <use x="95.410156" xlink:href="#DejaVuSans-54"/>
      </g>
     </g>
    </g>
    <g id="ytick_5">
     <g id="line2d_10">
      <g>
       <use style="stroke:#000000;stroke-width:0.8;" x="43.78125" xlink:href="#me53d5ac041" y="82.798125"/>
      </g>
     </g>
     <g id="text_11">
      <!-- 0.8 -->
      <defs>
       <path d="M 31.78125 34.625 
Q 24.75 34.625 20.71875 30.859375 
Q 16.703125 27.09375 16.703125 20.515625 
Q 16.703125 13.921875 20.71875 10.15625 
Q 24.75 6.390625 31.78125 6.390625 
Q 38.8125 6.390625 42.859375 10.171875 
Q 46.921875 13.96875 46.921875 20.515625 
Q 46.921875 27.09375 42.890625 30.859375 
Q 38.875 34.625 31.78125 34.625 
z
M 21.921875 38.8125 
Q 15.578125 40.375 12.03125 44.71875 
Q 8.5 49.078125 8.5 55.328125 
Q 8.5 64.0625 14.71875 69.140625 
Q 20.953125 74.21875 31.78125 74.21875 
Q 42.671875 74.21875 48.875 69.140625 
Q 55.078125 64.0625 55.078125 55.328125 
Q 55.078125 49.078125 51.53125 44.71875 
Q 48 40.375 41.703125 38.8125 
Q 48.828125 37.15625 52.796875 32.3125 
Q 56.78125 27.484375 56.78125 20.515625 
Q 56.78125 9.90625 50.3125 4.234375 
Q 43.84375 -1.421875 31.78125 -1.421875 
Q 19.734375 -1.421875 13.25 4.234375 
Q 6.78125 9.90625 6.78125 20.515625 
Q 6.78125 27.484375 10.78125 32.3125 
Q 14.796875 37.15625 21.921875 38.8125 
z
M 18.3125 54.390625 
Q 18.3125 48.734375 21.84375 45.5625 
Q 25.390625 42.390625 31.78125 42.390625 
Q 38.140625 42.390625 41.71875 45.5625 
Q 45.3125 48.734375 45.3125 54.390625 
Q 45.3125 60.0625 41.71875 63.234375 
Q 38.140625 66.40625 31.78125 66.40625 
Q 25.390625 66.40625 21.84375 63.234375 
Q 18.3125 60.0625 18.3125 54.390625 
z
" id="DejaVuSans-56"/>
      </defs>
      <g transform="translate(20.878125 86.597344)scale(0.1 -0.1)">
       <use xlink:href="#DejaVuSans-48"/>
       <use x="63.623047" xlink:href="#DejaVuSans-46"/>
       <use x="95.410156" xlink:href="#DejaVuSans-56"/>
      </g>
     </g>
    </g>
    <g id="ytick_6">
     <g id="line2d_11">
      <g>
       <use style="stroke:#000000;stroke-width:0.8;" x="43.78125" xlink:href="#me53d5ac041" y="34.414125"/>
      </g>
     </g>
     <g id="text_12">
      <!-- 1.0 -->
      <g transform="translate(20.878125 38.213344)scale(0.1 -0.1)">
       <use xlink:href="#DejaVuSans-49"/>
       <use x="63.623047" xlink:href="#DejaVuSans-46"/>
       <use x="95.410156" xlink:href="#DejaVuSans-48"/>
      </g>
     </g>
    </g>
    <g id="text_13">
     <!-- Loss -->
     <defs>
      <path d="M 9.8125 72.90625 
L 19.671875 72.90625 
L 19.671875 8.296875 
L 55.171875 8.296875 
L 55.171875 0 
L 9.8125 0 
z
" id="DejaVuSans-76"/>
      <path d="M 44.28125 53.078125 
L 44.28125 44.578125 
Q 40.484375 46.53125 36.375 47.5 
Q 32.28125 48.484375 27.875 48.484375 
Q 21.1875 48.484375 17.84375 46.4375 
Q 14.5 44.390625 14.5 40.28125 
Q 14.5 37.15625 16.890625 35.375 
Q 19.28125 33.59375 26.515625 31.984375 
L 29.59375 31.296875 
Q 39.15625 29.25 43.1875 25.515625 
Q 47.21875 21.78125 47.21875 15.09375 
Q 47.21875 7.46875 41.1875 3.015625 
Q 35.15625 -1.421875 24.609375 -1.421875 
Q 20.21875 -1.421875 15.453125 -0.5625 
Q 10.6875 0.296875 5.421875 2 
L 5.421875 11.28125 
Q 10.40625 8.6875 15.234375 7.390625 
Q 20.0625 6.109375 24.8125 6.109375 
Q 31.15625 6.109375 34.5625 8.28125 
Q 37.984375 10.453125 37.984375 14.40625 
Q 37.984375 18.0625 35.515625 20.015625 
Q 33.0625 21.96875 24.703125 23.78125 
L 21.578125 24.515625 
Q 13.234375 26.265625 9.515625 29.90625 
Q 5.8125 33.546875 5.8125 39.890625 
Q 5.8125 47.609375 11.28125 51.796875 
Q 16.75 56 26.8125 56 
Q 31.78125 56 36.171875 55.265625 
Q 40.578125 54.546875 44.28125 53.078125 
z
" id="DejaVuSans-115"/>
     </defs>
     <g transform="translate(14.798438 166.428031)rotate(-90)scale(0.1 -0.1)">
      <use xlink:href="#DejaVuSans-76"/>
      <use x="55.697266" xlink:href="#DejaVuSans-111"/>
      <use x="116.878906" xlink:href="#DejaVuSans-115"/>
      <use x="168.978516" xlink:href="#DejaVuSans-115"/>
     </g>
    </g>
   </g>
   <g id="line2d_12">
    <path clip-path="url(#pff127873dd)" d="M 60.013977 251.755464 
L 60.767236 257.497617 
L 61.520495 258.60041 
L 62.273754 257.945869 
L 63.027012 261.635973 
L 63.780271 262.423001 
L 64.53353 254.43571 
L 65.286789 259.545908 
L 66.040048 260.572954 
L 66.793307 252.254725 
L 67.546565 257.239078 
L 68.299824 258.305902 
L 69.053083 248.60786 
L 69.806342 253.572431 
L 70.559601 255.01047 
L 71.312859 249.382551 
L 72.066118 253.565951 
L 72.819377 254.442103 
L 73.572636 246.890901 
L 74.325895 250.311216 
L 75.079153 251.334168 
L 75.832412 243.080954 
L 76.585671 245.578843 
L 77.33893 247.013059 
L 78.092189 244.554786 
L 78.845447 246.544771 
L 79.598706 247.182276 
L 80.351965 240.247239 
L 81.105224 243.501408 
L 81.858483 244.789008 
L 82.611741 240.202196 
L 83.365 244.22283 
L 84.118259 245.612288 
L 84.871518 238.995494 
L 85.624777 240.731456 
L 86.378035 241.275191 
L 87.131294 239.69617 
L 87.884553 239.112454 
L 88.637812 239.85007 
L 90.14433 237.370685 
L 90.897588 240.727144 
L 91.650847 240.563549 
L 92.404106 241.537694 
L 93.157365 241.900613 
L 93.910624 238.104116 
L 94.663882 239.128612 
L 95.417141 240.411652 
L 96.1704 240.991591 
L 96.923659 242.338063 
L 97.676918 243.235658 
L 98.430176 238.072511 
L 99.183435 238.102601 
L 99.936694 239.622875 
L 100.689953 236.775544 
L 101.443212 238.769387 
L 102.19647 239.344615 
L 102.949729 236.284104 
L 103.702988 236.95238 
L 104.456247 234.768987 
L 105.209506 231.235617 
L 105.962764 228.970266 
L 106.716023 231.031343 
L 107.469282 233.66752 
L 108.222541 227.920921 
L 108.9758 232.17209 
L 109.729058 234.907549 
L 110.482317 234.611618 
L 111.235576 234.861747 
L 111.988835 235.803264 
L 112.742094 234.654877 
L 113.495353 238.374412 
L 114.248611 229.93796 
L 115.755129 233.677844 
L 116.508388 236.413883 
L 117.261647 236.93407 
L 118.014905 234.343287 
L 118.768164 233.780421 
L 119.521423 236.016734 
L 120.274682 236.602216 
L 121.027941 225.476353 
L 121.781199 227.063164 
L 122.534458 229.724892 
L 123.287717 225.534922 
L 124.040976 229.452553 
L 124.794235 231.010388 
L 125.547493 235.32354 
L 126.300752 232.160731 
L 127.054011 235.245602 
L 127.80727 233.234765 
L 129.313787 232.340033 
L 130.067046 232.40185 
L 131.573564 234.034189 
L 132.326823 224.805536 
L 133.080081 228.932715 
L 133.83334 205.376854 
L 134.586599 230.889609 
L 135.339858 228.656438 
L 136.093117 232.513506 
L 136.846376 234.988729 
L 137.599634 235.046696 
L 138.352893 231.102933 
L 139.106152 233.804804 
L 139.859411 234.532784 
L 140.61267 235.476536 
L 142.119187 215.094229 
L 142.872446 222.065941 
L 143.625705 231.746858 
L 144.378964 232.500536 
L 145.885481 222.209324 
L 146.63874 232.471419 
L 147.391999 232.750863 
L 148.145258 234.032808 
L 148.898516 234.599472 
L 149.651775 221.32893 
L 150.405034 229.872218 
L 151.158293 232.005626 
L 151.911552 232.688682 
L 152.66481 231.555296 
L 153.418069 229.161622 
L 154.924587 220.865335 
L 155.677846 195.346303 
L 156.431104 226.818483 
L 157.937622 221.021013 
L 159.44414 233.636882 
L 160.197398 229.806465 
L 160.950657 231.975167 
L 161.703916 232.279936 
L 162.457175 233.31461 
L 163.210434 233.611176 
L 163.963693 222.755503 
L 164.716951 226.187491 
L 165.47021 224.113415 
L 166.223469 232.335339 
L 166.976728 233.912558 
L 167.729987 232.360736 
L 168.483245 237.086588 
L 169.236504 235.956865 
L 169.989763 237.489745 
L 170.743022 236.379268 
L 171.496281 230.895231 
L 172.249539 234.250373 
L 173.002798 235.979795 
L 173.756057 236.293956 
L 174.509316 230.189184 
L 175.262575 233.983685 
L 176.015833 234.406399 
L 176.769092 232.231013 
L 177.522351 220.203894 
L 178.27561 225.438482 
L 179.028869 215.117927 
L 179.782127 221.831156 
L 180.535386 222.260082 
L 181.288645 198.289494 
L 182.041904 228.690746 
L 182.795163 224.345668 
L 183.548421 220.774062 
L 184.30168 231.909548 
L 185.054939 224.384643 
L 185.808198 215.135729 
L 186.561457 225.082466 
L 187.314716 232.811888 
L 188.067974 227.098252 
L 188.821233 186.893549 
L 189.574492 166.333963 
L 191.08101 220.918271 
L 191.834268 241.212078 
L 192.587527 240.290413 
L 193.340786 238.306983 
L 194.094045 239.244048 
L 194.847304 239.625052 
L 195.600562 238.914415 
L 196.353821 238.829137 
L 197.10708 239.464783 
L 197.860339 235.91924 
L 198.613598 221.676154 
L 199.366856 237.061173 
L 200.120115 236.395727 
L 200.873374 233.854348 
L 201.626633 234.001316 
L 202.379892 233.755806 
L 203.13315 234.562913 
L 203.886409 236.480867 
L 204.639668 233.897475 
L 205.392927 229.430448 
L 206.146186 222.43831 
L 206.899444 236.763001 
L 207.652703 236.267093 
L 208.405962 236.620564 
L 209.159221 236.637897 
L 209.91248 234.844026 
L 210.665739 235.490801 
L 211.418997 227.661913 
L 212.172256 237.261922 
L 212.925515 238.70421 
L 213.678774 229.084316 
L 214.432033 237.424386 
L 215.93855 233.234709 
L 216.691809 232.490811 
L 217.445068 237.46108 
L 218.198327 230.394788 
L 218.951585 211.562244 
L 219.704844 234.01373 
L 220.458103 231.119763 
L 221.211362 231.865124 
L 221.964621 225.326613 
L 222.717879 225.679284 
L 223.471138 216.953871 
L 224.224397 220.555183 
L 224.977656 221.906649 
L 225.730915 229.208255 
L 226.484173 226.992905 
L 227.237432 227.262335 
L 228.74395 223.933597 
L 229.497209 220.56168 
L 230.250467 215.546128 
L 231.003726 212.936599 
L 231.756985 190.506785 
L 232.510244 141.446958 
L 233.263503 141.449716 
L 234.016761 238.583221 
L 234.77002 255.96849 
L 235.523279 269.079143 
L 236.276538 239.020055 
L 237.029797 243.910587 
L 237.783056 276.334125 
L 238.536314 218.135784 
L 239.289573 212.047683 
L 240.042832 213.635536 
L 240.796091 241.664253 
L 241.54935 240.392425 
L 242.302608 240.506979 
L 243.055867 238.245488 
L 243.809126 239.683199 
L 244.562385 242.506552 
L 245.315644 237.932643 
L 246.068902 243.797702 
L 246.822161 245.508006 
L 247.57542 235.649815 
L 248.328679 235.20371 
L 249.081938 236.152494 
L 249.835196 233.489738 
L 250.588455 223.725009 
L 251.341714 196.207142 
L 252.094973 238.694029 
L 253.60149 243.097321 
L 254.354749 243.677215 
L 255.108008 245.496484 
L 255.861267 245.313846 
L 256.614526 242.702379 
L 257.367784 244.718904 
L 258.121043 243.088839 
L 258.874302 238.261771 
L 259.627561 238.31885 
L 260.38082 237.137235 
L 261.134079 238.966501 
L 261.887337 239.720383 
L 262.640596 240.276037 
L 264.147114 242.058183 
L 264.900373 242.02154 
L 265.653631 237.394383 
L 266.40689 240.489848 
L 267.160149 239.273349 
L 267.913408 235.812676 
L 268.666667 237.454006 
L 269.419925 236.882349 
L 270.173184 238.006153 
L 270.926443 239.906825 
L 271.679702 240.423586 
L 272.432961 236.973357 
L 273.186219 241.112743 
L 273.939478 241.696678 
L 274.692737 239.907399 
L 275.445996 239.219195 
L 276.199255 239.440007 
L 276.952513 239.822041 
L 278.459031 240.358075 
L 279.21229 240.933466 
L 279.965549 241.113541 
L 280.718807 241.676891 
L 281.472066 236.695802 
L 282.225325 238.751415 
L 282.978584 240.082761 
L 283.731843 235.953805 
L 284.485102 239.935795 
L 285.23836 240.535101 
L 285.991619 236.69187 
L 286.744878 239.040272 
L 287.498137 239.484227 
L 288.251396 236.360552 
L 289.004654 237.613736 
L 289.757913 237.988553 
L 290.511172 234.059415 
L 291.264431 227.536618 
L 292.01769 232.73887 
L 292.770948 235.942471 
L 293.524207 237.025103 
L 294.277466 232.096169 
L 295.030725 226.158738 
L 295.783984 218.56832 
L 296.537242 227.385156 
L 297.290501 237.602279 
L 298.04376 237.715809 
L 298.797019 237.072362 
L 299.550278 233.853827 
L 300.303536 229.401046 
L 301.056795 233.720469 
L 301.810054 237.092788 
L 302.563313 231.533422 
L 303.316572 230.774974 
L 304.06983 231.491267 
L 304.823089 235.56081 
L 305.576348 237.948001 
L 306.329607 237.737336 
L 307.082866 237.216136 
L 307.836124 238.133524 
L 308.589383 235.501555 
L 309.342642 239.280056 
L 310.095901 237.815275 
L 310.84916 218.176032 
L 311.602419 190.485932 
L 312.355677 232.350491 
L 313.108936 230.92856 
L 313.862195 229.980206 
L 314.615454 231.825143 
L 315.368713 217.052058 
L 316.121971 226.520812 
L 316.87523 219.76412 
L 317.628489 208.041375 
L 318.381748 203.613729 
L 319.135007 77.238143 
L 319.888265 240.326003 
L 321.394783 227.888159 
L 322.148042 236.593538 
L 322.901301 226.875911 
L 323.654559 235.861344 
L 324.407818 231.771291 
L 325.161077 234.600579 
L 325.914336 235.341133 
L 326.667595 234.448109 
L 327.420853 234.046908 
L 328.174112 234.540646 
L 328.927371 237.219614 
L 329.68063 238.040842 
L 330.433889 237.641738 
L 331.187147 234.570852 
L 332.693665 238.20728 
L 333.446924 235.470865 
L 334.200183 233.214899 
L 334.953442 233.458139 
L 335.7067 235.964234 
L 336.459959 228.611267 
L 337.213218 226.878284 
L 337.966477 233.252752 
L 338.719736 232.462202 
L 339.472994 229.770577 
L 340.226253 235.009391 
L 341.732771 217.70305 
L 342.48603 230.076333 
L 343.239288 231.060767 
L 343.992547 230.4227 
L 344.745806 179.552597 
L 345.499065 35.894517 
L 346.252324 34.414125 
L 347.005582 239.102348 
L 347.758841 238.814743 
L 348.5121 232.920053 
L 349.265359 202.903228 
L 350.018618 240.955402 
L 350.771876 245.895317 
L 351.525135 225.696654 
L 352.278394 247.645868 
L 353.031653 251.197704 
L 353.784912 209.306862 
L 354.53817 224.818635 
L 355.291429 227.7888 
L 356.044688 219.686944 
L 356.797947 228.110518 
L 357.551206 231.878956 
L 358.304465 217.746148 
L 359.057723 182.730253 
L 359.810982 193.815854 
L 360.564241 238.228518 
L 361.3175 238.839567 
L 362.070759 240.990217 
L 362.824017 235.464155 
L 363.577276 236.128953 
L 364.330535 235.405532 
L 365.837053 237.055228 
L 366.590311 237.938805 
L 367.34357 240.509289 
L 368.096829 240.785544 
L 368.850088 241.584381 
L 369.603347 239.496078 
L 370.356605 236.903325 
L 371.109864 237.377578 
L 371.863123 236.886878 
L 372.616382 233.709123 
L 373.369641 230.047844 
L 374.122899 238.105507 
L 374.876158 238.217966 
L 375.629417 239.197263 
L 376.382676 238.580464 
L 377.135935 239.741863 
L 377.889193 240.640775 
L 378.642452 239.376066 
L 379.395711 241.573945 
L 380.14897 241.277535 
L 380.902229 239.574161 
L 381.655488 239.731887 
L 382.408746 239.303521 
L 383.162005 234.000016 
L 383.915264 237.54312 
L 384.668523 236.837239 
L 384.668523 236.837239 
" style="fill:none;stroke:#1f77b4;stroke-linecap:square;stroke-width:1.5;"/>
   </g>
   <g id="line2d_13">
    <path clip-path="url(#pff127873dd)" d="M 60.013977 269.874272 
L 61.520495 272.192844 
L 62.273754 271.300477 
L 63.027012 272.207654 
L 63.780271 272.810197 
L 64.53353 271.980972 
L 66.040048 272.776205 
L 66.793307 271.245703 
L 68.299824 272.007371 
L 69.053083 270.55495 
L 70.559601 271.309934 
L 71.312859 269.629228 
L 72.819377 270.441897 
L 73.572636 267.931904 
L 75.079153 268.842817 
L 75.832412 267.051044 
L 77.33893 267.981702 
L 78.092189 266.449347 
L 79.598706 267.386009 
L 80.351965 265.039727 
L 81.858483 266.05131 
L 82.611741 263.597397 
L 84.118259 264.670074 
L 84.871518 261.647358 
L 86.378035 262.799446 
L 87.131294 258.731506 
L 88.637812 259.993958 
L 89.391071 260.03087 
L 90.897588 261.240801 
L 91.650847 255.044136 
L 93.157365 256.466065 
L 93.910624 253.03165 
L 95.417141 254.547615 
L 96.1704 248.056914 
L 97.676918 249.721732 
L 98.430176 243.699532 
L 99.936694 245.501026 
L 100.689953 236.68006 
L 102.19647 238.706846 
L 102.949729 236.238923 
L 104.456247 238.257145 
L 105.209506 236.0672 
L 106.716023 238.090997 
L 107.469282 234.661606 
L 108.9758 236.675331 
L 109.729058 226.062722 
L 111.235576 228.433764 
L 111.988835 222.479367 
L 113.495353 224.85074 
L 114.248611 233.888536 
L 115.755129 235.932732 
L 116.508388 222.365903 
L 118.014905 224.754618 
L 118.768164 221.06349 
L 120.274682 223.503546 
L 121.027941 230.102307 
L 122.534458 232.272438 
L 123.287717 219.741233 
L 124.794235 222.14948 
L 125.547493 226.398534 
L 127.054011 228.705438 
L 127.80727 223.168034 
L 129.313787 225.340546 
L 130.067046 216.119429 
L 131.573564 218.522678 
L 132.326823 224.160605 
L 133.83334 226.381817 
L 134.586599 242.33696 
L 136.093117 243.787693 
L 136.846376 235.39815 
L 138.352893 237.064818 
L 139.106152 219.565372 
L 140.61267 221.939053 
L 141.365928 227.538504 
L 142.872446 229.454202 
L 143.625705 228.526672 
L 145.132222 230.674265 
L 145.885481 213.791898 
L 147.391999 216.216741 
L 148.145258 228.677893 
L 149.651775 230.547145 
L 150.405034 219.918124 
L 151.911552 222.104296 
L 152.66481 217.899128 
L 154.171328 220.150221 
L 154.924587 230.933214 
L 156.431104 232.623888 
L 157.184363 227.932462 
L 158.690881 229.874707 
L 159.44414 212.19407 
L 160.950657 214.2186 
L 161.703916 206.635148 
L 163.210434 209.081477 
L 163.963693 214.825885 
L 165.47021 216.875307 
L 166.223469 221.148202 
L 167.729987 222.840863 
L 168.483245 191.904231 
L 169.989763 194.207 
L 170.743022 190.424494 
L 172.249539 193.082745 
L 173.002798 170.751699 
L 174.509316 173.906092 
L 175.262575 225.006909 
L 176.769092 226.372752 
L 177.522351 224.989758 
L 179.028869 226.538676 
L 179.782127 230.06001 
L 181.288645 231.576004 
L 182.041904 252.198396 
L 183.548421 253.060663 
L 184.30168 260.100494 
L 185.808198 260.598212 
L 186.561457 250.72998 
L 188.067974 251.716552 
L 188.821233 260.509526 
L 190.327751 261.039665 
L 191.08101 178.651047 
L 191.834268 180.696863 
L 192.587527 182.078805 
L 193.340786 180.452232 
L 194.847304 182.234428 
L 195.600562 186.61523 
L 197.10708 189.122072 
L 197.860339 162.340324 
L 199.366856 165.532885 
L 200.120115 191.517043 
L 201.626633 194.464463 
L 202.379892 163.368745 
L 203.886409 166.346798 
L 204.639668 213.931118 
L 206.146186 214.855399 
L 206.899444 170.611414 
L 208.405962 173.318509 
L 209.159221 134.451637 
L 210.665739 138.734366 
L 211.418997 123.245128 
L 212.925515 127.857288 
L 213.678774 155.298417 
L 215.185291 158.527436 
L 215.93855 69.847403 
L 217.445068 78.16995 
L 218.198327 58.377113 
L 219.704844 66.418159 
L 220.458103 136.428206 
L 221.211362 139.135506 
L 221.964621 141.252386 
L 222.717879 115.534765 
L 224.224397 119.891753 
L 224.977656 70.097117 
L 226.484173 76.999598 
L 227.237432 94.002115 
L 228.74395 99.042879 
L 229.497209 132.201318 
L 230.250467 133.984606 
L 231.003726 135.432109 
L 231.756985 34.414125 
L 233.263503 43.157454 
L 234.016761 172.959438 
L 235.523279 219.956949 
L 236.276538 259.404075 
L 237.029797 272.967271 
L 237.783056 275.662904 
L 240.042832 275.907083 
L 240.796091 274.741867 
L 241.54935 275.203594 
L 243.809126 275.534111 
L 244.562385 275.572544 
L 245.315644 274.86953 
L 246.822161 274.966686 
L 247.57542 274.79578 
L 249.081938 274.909698 
L 249.835196 274.765414 
L 251.341714 274.939099 
L 252.094973 273.717787 
L 253.60149 274.171545 
L 254.354749 273.873532 
L 255.861267 274.136301 
L 256.614526 273.141066 
L 258.121043 273.510194 
L 258.874302 273.212805 
L 260.38082 273.454977 
L 261.134079 270.46384 
L 261.887337 270.965113 
L 262.640596 271.178598 
L 263.393855 270.031304 
L 264.900373 270.468644 
L 265.653631 268.164357 
L 266.40689 268.639322 
L 267.160149 268.901583 
L 267.913408 266.878557 
L 268.666667 267.421581 
L 269.419925 267.655269 
L 270.173184 264.233806 
L 270.926443 265.070476 
L 271.679702 265.553018 
L 272.432961 262.906381 
L 273.186219 263.664529 
L 273.939478 263.99116 
L 274.692737 261.364159 
L 275.445996 262.441214 
L 276.199255 262.992197 
L 276.952513 260.350055 
L 277.705772 260.96491 
L 278.459031 261.334267 
L 279.21229 255.926016 
L 279.965549 256.625807 
L 280.718807 257.054373 
L 281.472066 255.74374 
L 282.225325 256.646982 
L 282.978584 257.111463 
L 283.731843 251.009909 
L 284.485102 251.69922 
L 285.23836 252.192589 
L 285.991619 241.046284 
L 286.744878 244.127639 
L 287.498137 245.712008 
L 288.251396 242.666735 
L 289.004654 244.440497 
L 289.757913 245.335004 
L 290.511172 249.971931 
L 291.264431 250.688875 
L 292.01769 251.127068 
L 292.770948 254.979334 
L 293.524207 255.015215 
L 294.277466 255.168784 
L 295.030725 256.535108 
L 295.783984 257.165305 
L 296.537242 257.429014 
L 297.290501 250.838442 
L 298.797019 251.066449 
L 299.550278 260.478782 
L 301.056795 260.691044 
L 301.810054 252.162502 
L 302.563313 253.32403 
L 303.316572 253.849675 
L 304.06983 243.634336 
L 304.823089 245.004954 
L 305.576348 245.734153 
L 306.329607 218.562921 
L 307.082866 223.207316 
L 307.836124 224.781729 
L 308.589383 212.488474 
L 309.342642 214.739062 
L 310.095901 216.026203 
L 310.84916 214.185646 
L 311.602419 215.565284 
L 312.355677 216.401099 
L 313.108936 191.549734 
L 313.862195 194.544333 
L 314.615454 196.316864 
L 315.368713 182.97598 
L 316.121971 185.774336 
L 316.87523 187.817673 
L 317.628489 223.214028 
L 318.381748 224.168619 
L 319.135007 224.657772 
L 319.888265 256.907573 
L 320.641524 262.395963 
L 321.394783 263.382227 
L 322.148042 262.485685 
L 322.901301 263.197157 
L 323.654559 263.64181 
L 324.407818 262.768085 
L 325.161077 263.281315 
L 325.914336 263.567688 
L 326.667595 255.626307 
L 327.420853 256.458185 
L 328.174112 256.86351 
L 328.927371 239.309318 
L 329.68063 241.298899 
L 330.433889 242.141128 
L 331.187147 226.667188 
L 331.940406 230.162838 
L 332.693665 231.320487 
L 333.446924 209.401839 
L 334.200183 212.844967 
L 334.953442 214.11511 
L 335.7067 221.986742 
L 336.459959 222.031988 
L 337.213218 222.34021 
L 337.966477 197.519844 
L 338.719736 200.314514 
L 339.472994 201.859968 
L 340.226253 212.302451 
L 341.732771 213.367299 
L 342.48603 203.818634 
L 343.239288 205.2447 
L 343.992547 205.950858 
L 344.745806 196.125436 
L 346.252324 198.723988 
L 347.005582 154.549716 
L 347.758841 223.900238 
L 348.5121 258.417611 
L 349.265359 269.352635 
L 350.018618 275.135479 
L 350.771876 276.002919 
L 351.525135 276.065933 
L 352.278394 276.266039 
L 358.304465 276.318895 
L 384.668523 276.322595 
L 384.668523 276.322595 
" style="fill:none;stroke:#ff7f0e;stroke-linecap:square;stroke-width:1.5;"/>
   </g>
   <g id="patch_3">
    <path d="M 43.78125 288.430125 
L 43.78125 22.318125 
" style="fill:none;stroke:#000000;stroke-linecap:square;stroke-linejoin:miter;stroke-width:0.8;"/>
   </g>
   <g id="patch_4">
    <path d="M 400.90125 288.430125 
L 400.90125 22.318125 
" style="fill:none;stroke:#000000;stroke-linecap:square;stroke-linejoin:miter;stroke-width:0.8;"/>
   </g>
   <g id="patch_5">
    <path d="M 43.78125 288.430125 
L 400.90125 288.430125 
" style="fill:none;stroke:#000000;stroke-linecap:square;stroke-linejoin:miter;stroke-width:0.8;"/>
   </g>
   <g id="patch_6">
    <path d="M 43.78125 22.318125 
L 400.90125 22.318125 
" style="fill:none;stroke:#000000;stroke-linecap:square;stroke-linejoin:miter;stroke-width:0.8;"/>
   </g>
   <g id="text_14">
    <!-- Entropy and Loss. -->
    <defs>
     <path d="M 54.890625 33.015625 
L 54.890625 0 
L 45.90625 0 
L 45.90625 32.71875 
Q 45.90625 40.484375 42.875 44.328125 
Q 39.84375 48.1875 33.796875 48.1875 
Q 26.515625 48.1875 22.3125 43.546875 
Q 18.109375 38.921875 18.109375 30.90625 
L 18.109375 0 
L 9.078125 0 
L 9.078125 54.6875 
L 18.109375 54.6875 
L 18.109375 46.1875 
Q 21.34375 51.125 25.703125 53.5625 
Q 30.078125 56 35.796875 56 
Q 45.21875 56 50.046875 50.171875 
Q 54.890625 44.34375 54.890625 33.015625 
z
" id="DejaVuSans-110"/>
     <path d="M 18.3125 70.21875 
L 18.3125 54.6875 
L 36.8125 54.6875 
L 36.8125 47.703125 
L 18.3125 47.703125 
L 18.3125 18.015625 
Q 18.3125 11.328125 20.140625 9.421875 
Q 21.96875 7.515625 27.59375 7.515625 
L 36.8125 7.515625 
L 36.8125 0 
L 27.59375 0 
Q 17.1875 0 13.234375 3.875 
Q 9.28125 7.765625 9.28125 18.015625 
L 9.28125 47.703125 
L 2.6875 47.703125 
L 2.6875 54.6875 
L 9.28125 54.6875 
L 9.28125 70.21875 
z
" id="DejaVuSans-116"/>
     <path d="M 41.109375 46.296875 
Q 39.59375 47.171875 37.8125 47.578125 
Q 36.03125 48 33.890625 48 
Q 26.265625 48 22.1875 43.046875 
Q 18.109375 38.09375 18.109375 28.8125 
L 18.109375 0 
L 9.078125 0 
L 9.078125 54.6875 
L 18.109375 54.6875 
L 18.109375 46.1875 
Q 20.953125 51.171875 25.484375 53.578125 
Q 30.03125 56 36.53125 56 
Q 37.453125 56 38.578125 55.875 
Q 39.703125 55.765625 41.0625 55.515625 
z
" id="DejaVuSans-114"/>
     <path d="M 32.171875 -5.078125 
Q 28.375 -14.84375 24.75 -17.8125 
Q 21.140625 -20.796875 15.09375 -20.796875 
L 7.90625 -20.796875 
L 7.90625 -13.28125 
L 13.1875 -13.28125 
Q 16.890625 -13.28125 18.9375 -11.515625 
Q 21 -9.765625 23.484375 -3.21875 
L 25.09375 0.875 
L 2.984375 54.6875 
L 12.5 54.6875 
L 29.59375 11.921875 
L 46.6875 54.6875 
L 56.203125 54.6875 
z
" id="DejaVuSans-121"/>
     <path id="DejaVuSans-32"/>
     <path d="M 34.28125 27.484375 
Q 23.390625 27.484375 19.1875 25 
Q 14.984375 22.515625 14.984375 16.5 
Q 14.984375 11.71875 18.140625 8.90625 
Q 21.296875 6.109375 26.703125 6.109375 
Q 34.1875 6.109375 38.703125 11.40625 
Q 43.21875 16.703125 43.21875 25.484375 
L 43.21875 27.484375 
z
M 52.203125 31.203125 
L 52.203125 0 
L 43.21875 0 
L 43.21875 8.296875 
Q 40.140625 3.328125 35.546875 0.953125 
Q 30.953125 -1.421875 24.3125 -1.421875 
Q 15.921875 -1.421875 10.953125 3.296875 
Q 6 8.015625 6 15.921875 
Q 6 25.140625 12.171875 29.828125 
Q 18.359375 34.515625 30.609375 34.515625 
L 43.21875 34.515625 
L 43.21875 35.40625 
Q 43.21875 41.609375 39.140625 45 
Q 35.0625 48.390625 27.6875 48.390625 
Q 23 48.390625 18.546875 47.265625 
Q 14.109375 46.140625 10.015625 43.890625 
L 10.015625 52.203125 
Q 14.9375 54.109375 19.578125 55.046875 
Q 24.21875 56 28.609375 56 
Q 40.484375 56 46.34375 49.84375 
Q 52.203125 43.703125 52.203125 31.203125 
z
" id="DejaVuSans-97"/>
     <path d="M 45.40625 46.390625 
L 45.40625 75.984375 
L 54.390625 75.984375 
L 54.390625 0 
L 45.40625 0 
L 45.40625 8.203125 
Q 42.578125 3.328125 38.25 0.953125 
Q 33.9375 -1.421875 27.875 -1.421875 
Q 17.96875 -1.421875 11.734375 6.484375 
Q 5.515625 14.40625 5.515625 27.296875 
Q 5.515625 40.1875 11.734375 48.09375 
Q 17.96875 56 27.875 56 
Q 33.9375 56 38.25 53.625 
Q 42.578125 51.265625 45.40625 46.390625 
z
M 14.796875 27.296875 
Q 14.796875 17.390625 18.875 11.75 
Q 22.953125 6.109375 30.078125 6.109375 
Q 37.203125 6.109375 41.296875 11.75 
Q 45.40625 17.390625 45.40625 27.296875 
Q 45.40625 37.203125 41.296875 42.84375 
Q 37.203125 48.484375 30.078125 48.484375 
Q 22.953125 48.484375 18.875 42.84375 
Q 14.796875 37.203125 14.796875 27.296875 
z
" id="DejaVuSans-100"/>
    </defs>
    <g transform="translate(168.625313 16.318125)scale(0.12 -0.12)">
     <use xlink:href="#DejaVuSans-69"/>
     <use x="63.183594" xlink:href="#DejaVuSans-110"/>
     <use x="126.5625" xlink:href="#DejaVuSans-116"/>
     <use x="165.771484" xlink:href="#DejaVuSans-114"/>
     <use x="206.853516" xlink:href="#DejaVuSans-111"/>
     <use x="268.035156" xlink:href="#DejaVuSans-112"/>
     <use x="331.511719" xlink:href="#DejaVuSans-121"/>
     <use x="390.691406" xlink:href="#DejaVuSans-32"/>
     <use x="422.478516" xlink:href="#DejaVuSans-97"/>
     <use x="483.757812" xlink:href="#DejaVuSans-110"/>
     <use x="547.136719" xlink:href="#DejaVuSans-100"/>
     <use x="610.613281" xlink:href="#DejaVuSans-32"/>
     <use x="642.400391" xlink:href="#DejaVuSans-76"/>
     <use x="698.097656" xlink:href="#DejaVuSans-111"/>
     <use x="759.279297" xlink:href="#DejaVuSans-115"/>
     <use x="811.378906" xlink:href="#DejaVuSans-115"/>
     <use x="863.478516" xlink:href="#DejaVuSans-46"/>
    </g>
   </g>
   <g id="legend_1">
    <g id="patch_7">
     <path d="M 20.061562 353.02505 
L 428.620938 353.02505 
Q 430.620938 353.02505 430.620938 351.02505 
L 430.620938 337.346925 
Q 430.620938 335.346925 428.620938 335.346925 
L 20.061562 335.346925 
Q 18.061562 335.346925 18.061562 337.346925 
L 18.061562 351.02505 
Q 18.061562 353.02505 20.061562 353.02505 
z
" style="fill:#4c4c4c;opacity:0.5;stroke:#4c4c4c;stroke-linejoin:miter;"/>
    </g>
    <g id="patch_8">
     <path d="M 18.061562 351.02505 
L 426.620938 351.02505 
Q 428.620938 351.02505 428.620938 349.02505 
L 428.620938 335.346925 
Q 428.620938 333.346925 426.620938 333.346925 
L 18.061562 333.346925 
Q 16.061562 333.346925 16.061562 335.346925 
L 16.061562 349.02505 
Q 16.061562 351.02505 18.061562 351.02505 
z
" style="fill:#ffffff;stroke:#cccccc;stroke-linejoin:miter;"/>
    </g>
    <g id="line2d_14">
     <path d="M 20.061562 341.445362 
L 40.061562 341.445362 
" style="fill:none;stroke:#1f77b4;stroke-linecap:square;stroke-width:1.5;"/>
    </g>
    <g id="line2d_15"/>
    <g id="text_15">
     <!-- Policy Loss (Normalized) -->
     <defs>
      <path d="M 19.671875 64.796875 
L 19.671875 37.40625 
L 32.078125 37.40625 
Q 38.96875 37.40625 42.71875 40.96875 
Q 46.484375 44.53125 46.484375 51.125 
Q 46.484375 57.671875 42.71875 61.234375 
Q 38.96875 64.796875 32.078125 64.796875 
z
M 9.8125 72.90625 
L 32.078125 72.90625 
Q 44.34375 72.90625 50.609375 67.359375 
Q 56.890625 61.8125 56.890625 51.125 
Q 56.890625 40.328125 50.609375 34.8125 
Q 44.34375 29.296875 32.078125 29.296875 
L 19.671875 29.296875 
L 19.671875 0 
L 9.8125 0 
z
" id="DejaVuSans-80"/>
      <path d="M 9.421875 75.984375 
L 18.40625 75.984375 
L 18.40625 0 
L 9.421875 0 
z
" id="DejaVuSans-108"/>
      <path d="M 9.421875 54.6875 
L 18.40625 54.6875 
L 18.40625 0 
L 9.421875 0 
z
M 9.421875 75.984375 
L 18.40625 75.984375 
L 18.40625 64.59375 
L 9.421875 64.59375 
z
" id="DejaVuSans-105"/>
      <path d="M 31 75.875 
Q 24.46875 64.65625 21.28125 53.65625 
Q 18.109375 42.671875 18.109375 31.390625 
Q 18.109375 20.125 21.3125 9.0625 
Q 24.515625 -2 31 -13.1875 
L 23.1875 -13.1875 
Q 15.875 -1.703125 12.234375 9.375 
Q 8.59375 20.453125 8.59375 31.390625 
Q 8.59375 42.28125 12.203125 53.3125 
Q 15.828125 64.359375 23.1875 75.875 
z
" id="DejaVuSans-40"/>
      <path d="M 9.8125 72.90625 
L 23.09375 72.90625 
L 55.421875 11.921875 
L 55.421875 72.90625 
L 64.984375 72.90625 
L 64.984375 0 
L 51.703125 0 
L 19.390625 60.984375 
L 19.390625 0 
L 9.8125 0 
z
" id="DejaVuSans-78"/>
      <path d="M 52 44.1875 
Q 55.375 50.25 60.0625 53.125 
Q 64.75 56 71.09375 56 
Q 79.640625 56 84.28125 50.015625 
Q 88.921875 44.046875 88.921875 33.015625 
L 88.921875 0 
L 79.890625 0 
L 79.890625 32.71875 
Q 79.890625 40.578125 77.09375 44.375 
Q 74.3125 48.1875 68.609375 48.1875 
Q 61.625 48.1875 57.5625 43.546875 
Q 53.515625 38.921875 53.515625 30.90625 
L 53.515625 0 
L 44.484375 0 
L 44.484375 32.71875 
Q 44.484375 40.625 41.703125 44.40625 
Q 38.921875 48.1875 33.109375 48.1875 
Q 26.21875 48.1875 22.15625 43.53125 
Q 18.109375 38.875 18.109375 30.90625 
L 18.109375 0 
L 9.078125 0 
L 9.078125 54.6875 
L 18.109375 54.6875 
L 18.109375 46.1875 
Q 21.1875 51.21875 25.484375 53.609375 
Q 29.78125 56 35.6875 56 
Q 41.65625 56 45.828125 52.96875 
Q 50 49.953125 52 44.1875 
z
" id="DejaVuSans-109"/>
      <path d="M 5.515625 54.6875 
L 48.1875 54.6875 
L 48.1875 46.484375 
L 14.40625 7.171875 
L 48.1875 7.171875 
L 48.1875 0 
L 4.296875 0 
L 4.296875 8.203125 
L 38.09375 47.515625 
L 5.515625 47.515625 
z
" id="DejaVuSans-122"/>
      <path d="M 56.203125 29.59375 
L 56.203125 25.203125 
L 14.890625 25.203125 
Q 15.484375 15.921875 20.484375 11.0625 
Q 25.484375 6.203125 34.421875 6.203125 
Q 39.59375 6.203125 44.453125 7.46875 
Q 49.3125 8.734375 54.109375 11.28125 
L 54.109375 2.78125 
Q 49.265625 0.734375 44.1875 -0.34375 
Q 39.109375 -1.421875 33.890625 -1.421875 
Q 20.796875 -1.421875 13.15625 6.1875 
Q 5.515625 13.8125 5.515625 26.8125 
Q 5.515625 40.234375 12.765625 48.109375 
Q 20.015625 56 32.328125 56 
Q 43.359375 56 49.78125 48.890625 
Q 56.203125 41.796875 56.203125 29.59375 
z
M 47.21875 32.234375 
Q 47.125 39.59375 43.09375 43.984375 
Q 39.0625 48.390625 32.421875 48.390625 
Q 24.90625 48.390625 20.390625 44.140625 
Q 15.875 39.890625 15.1875 32.171875 
z
" id="DejaVuSans-101"/>
      <path d="M 8.015625 75.875 
L 15.828125 75.875 
Q 23.140625 64.359375 26.78125 53.3125 
Q 30.421875 42.28125 30.421875 31.390625 
Q 30.421875 20.453125 26.78125 9.375 
Q 23.140625 -1.703125 15.828125 -13.1875 
L 8.015625 -13.1875 
Q 14.5 -2 17.703125 9.0625 
Q 20.90625 20.125 20.90625 31.390625 
Q 20.90625 42.671875 17.703125 53.65625 
Q 14.5 64.65625 8.015625 75.875 
z
" id="DejaVuSans-41"/>
     </defs>
     <g transform="translate(48.061562 344.945362)scale(0.1 -0.1)">
      <use xlink:href="#DejaVuSans-80"/>
      <use x="60.255859" xlink:href="#DejaVuSans-111"/>
      <use x="121.4375" xlink:href="#DejaVuSans-108"/>
      <use x="149.220703" xlink:href="#DejaVuSans-105"/>
      <use x="177.003906" xlink:href="#DejaVuSans-99"/>
      <use x="231.984375" xlink:href="#DejaVuSans-121"/>
      <use x="291.164062" xlink:href="#DejaVuSans-32"/>
      <use x="322.951172" xlink:href="#DejaVuSans-76"/>
      <use x="378.648438" xlink:href="#DejaVuSans-111"/>
      <use x="439.830078" xlink:href="#DejaVuSans-115"/>
      <use x="491.929688" xlink:href="#DejaVuSans-115"/>
      <use x="544.029297" xlink:href="#DejaVuSans-32"/>
      <use x="575.816406" xlink:href="#DejaVuSans-40"/>
      <use x="614.830078" xlink:href="#DejaVuSans-78"/>
      <use x="689.634766" xlink:href="#DejaVuSans-111"/>
      <use x="750.816406" xlink:href="#DejaVuSans-114"/>
      <use x="791.914062" xlink:href="#DejaVuSans-109"/>
      <use x="889.326172" xlink:href="#DejaVuSans-97"/>
      <use x="950.605469" xlink:href="#DejaVuSans-108"/>
      <use x="978.388672" xlink:href="#DejaVuSans-105"/>
      <use x="1006.171875" xlink:href="#DejaVuSans-122"/>
      <use x="1058.662109" xlink:href="#DejaVuSans-101"/>
      <use x="1120.185547" xlink:href="#DejaVuSans-100"/>
      <use x="1183.662109" xlink:href="#DejaVuSans-41"/>
     </g>
    </g>
    <g id="line2d_16">
     <path d="M 190.330312 341.445362 
L 210.330312 341.445362 
" style="fill:none;stroke:#ff7f0e;stroke-linecap:square;stroke-width:1.5;"/>
    </g>
    <g id="line2d_17"/>
    <g id="text_16">
     <!-- Critic Loss (Normalized) -->
     <defs>
      <path d="M 64.40625 67.28125 
L 64.40625 56.890625 
Q 59.421875 61.53125 53.78125 63.8125 
Q 48.140625 66.109375 41.796875 66.109375 
Q 29.296875 66.109375 22.65625 58.46875 
Q 16.015625 50.828125 16.015625 36.375 
Q 16.015625 21.96875 22.65625 14.328125 
Q 29.296875 6.6875 41.796875 6.6875 
Q 48.140625 6.6875 53.78125 8.984375 
Q 59.421875 11.28125 64.40625 15.921875 
L 64.40625 5.609375 
Q 59.234375 2.09375 53.4375 0.328125 
Q 47.65625 -1.421875 41.21875 -1.421875 
Q 24.65625 -1.421875 15.125 8.703125 
Q 5.609375 18.84375 5.609375 36.375 
Q 5.609375 53.953125 15.125 64.078125 
Q 24.65625 74.21875 41.21875 74.21875 
Q 47.75 74.21875 53.53125 72.484375 
Q 59.328125 70.75 64.40625 67.28125 
z
" id="DejaVuSans-67"/>
     </defs>
     <g transform="translate(218.330312 344.945362)scale(0.1 -0.1)">
      <use xlink:href="#DejaVuSans-67"/>
      <use x="69.824219" xlink:href="#DejaVuSans-114"/>
      <use x="110.9375" xlink:href="#DejaVuSans-105"/>
      <use x="138.720703" xlink:href="#DejaVuSans-116"/>
      <use x="177.929688" xlink:href="#DejaVuSans-105"/>
      <use x="205.712891" xlink:href="#DejaVuSans-99"/>
      <use x="260.693359" xlink:href="#DejaVuSans-32"/>
      <use x="292.480469" xlink:href="#DejaVuSans-76"/>
      <use x="348.177734" xlink:href="#DejaVuSans-111"/>
      <use x="409.359375" xlink:href="#DejaVuSans-115"/>
      <use x="461.458984" xlink:href="#DejaVuSans-115"/>
      <use x="513.558594" xlink:href="#DejaVuSans-32"/>
      <use x="545.345703" xlink:href="#DejaVuSans-40"/>
      <use x="584.359375" xlink:href="#DejaVuSans-78"/>
      <use x="659.164062" xlink:href="#DejaVuSans-111"/>
      <use x="720.345703" xlink:href="#DejaVuSans-114"/>
      <use x="761.443359" xlink:href="#DejaVuSans-109"/>
      <use x="858.855469" xlink:href="#DejaVuSans-97"/>
      <use x="920.134766" xlink:href="#DejaVuSans-108"/>
      <use x="947.917969" xlink:href="#DejaVuSans-105"/>
      <use x="975.701172" xlink:href="#DejaVuSans-122"/>
      <use x="1028.191406" xlink:href="#DejaVuSans-101"/>
      <use x="1089.714844" xlink:href="#DejaVuSans-100"/>
      <use x="1153.191406" xlink:href="#DejaVuSans-41"/>
     </g>
    </g>
    <g id="line2d_18">
     <path d="M 357.550625 341.445362 
L 377.550625 341.445362 
" style="fill:none;stroke:#008000;stroke-linecap:square;stroke-width:1.5;"/>
    </g>
    <g id="line2d_19"/>
    <g id="text_17">
     <!-- Entropy -->
     <g transform="translate(385.550625 344.945362)scale(0.1 -0.1)">
      <use xlink:href="#DejaVuSans-69"/>
      <use x="63.183594" xlink:href="#DejaVuSans-110"/>
      <use x="126.5625" xlink:href="#DejaVuSans-116"/>
      <use x="165.771484" xlink:href="#DejaVuSans-114"/>
      <use x="206.853516" xlink:href="#DejaVuSans-111"/>
      <use x="268.035156" xlink:href="#DejaVuSans-112"/>
      <use x="331.511719" xlink:href="#DejaVuSans-121"/>
     </g>
    </g>
   </g>
  </g>
  <g id="axes_2">
   <g id="matplotlib.axis_3">
    <g id="ytick_7">
     <g id="line2d_20">
      <defs>
       <path d="M 0 0 
L 3.5 0 
" id="mad0672264b" style="stroke:#000000;stroke-width:0.8;"/>
      </defs>
      <g>
       <use style="stroke:#000000;stroke-width:0.8;" x="400.90125" xlink:href="#mad0672264b" y="271.448728"/>
      </g>
     </g>
     <g id="text_18">
      <!-- 2.0 -->
      <defs>
       <path d="M 10.59375 35.5 
L 73.1875 35.5 
L 73.1875 27.203125 
L 10.59375 27.203125 
z
" id="DejaVuSans-8722"/>
      </defs>
      <g transform="translate(407.90125 275.247947)scale(0.1 -0.1)">
       <use xlink:href="#DejaVuSans-8722"/>
       <use x="83.789062" xlink:href="#DejaVuSans-50"/>
       <use x="147.412109" xlink:href="#DejaVuSans-46"/>
       <use x="179.199219" xlink:href="#DejaVuSans-48"/>
      </g>
     </g>
    </g>
    <g id="ytick_8">
     <g id="line2d_21">
      <g>
       <use style="stroke:#000000;stroke-width:0.8;" x="400.90125" xlink:href="#mad0672264b" y="233.650979"/>
      </g>
     </g>
     <g id="text_19">
      <!-- 1.5 -->
      <defs>
       <path d="M 10.796875 72.90625 
L 49.515625 72.90625 
L 49.515625 64.59375 
L 19.828125 64.59375 
L 19.828125 46.734375 
Q 21.96875 47.46875 24.109375 47.828125 
Q 26.265625 48.1875 28.421875 48.1875 
Q 40.625 48.1875 47.75 41.5 
Q 54.890625 34.8125 54.890625 23.390625 
Q 54.890625 11.625 47.5625 5.09375 
Q 40.234375 -1.421875 26.90625 -1.421875 
Q 22.3125 -1.421875 17.546875 -0.640625 
Q 12.796875 0.140625 7.71875 1.703125 
L 7.71875 11.625 
Q 12.109375 9.234375 16.796875 8.0625 
Q 21.484375 6.890625 26.703125 6.890625 
Q 35.15625 6.890625 40.078125 11.328125 
Q 45.015625 15.765625 45.015625 23.390625 
Q 45.015625 31 40.078125 35.4375 
Q 35.15625 39.890625 26.703125 39.890625 
Q 22.75 39.890625 18.8125 39.015625 
Q 14.890625 38.140625 10.796875 36.28125 
z
" id="DejaVuSans-53"/>
      </defs>
      <g transform="translate(407.90125 237.450197)scale(0.1 -0.1)">
       <use xlink:href="#DejaVuSans-8722"/>
       <use x="83.789062" xlink:href="#DejaVuSans-49"/>
       <use x="147.412109" xlink:href="#DejaVuSans-46"/>
       <use x="179.199219" xlink:href="#DejaVuSans-53"/>
      </g>
     </g>
    </g>
    <g id="ytick_9">
     <g id="line2d_22">
      <g>
       <use style="stroke:#000000;stroke-width:0.8;" x="400.90125" xlink:href="#mad0672264b" y="195.853229"/>
      </g>
     </g>
     <g id="text_20">
      <!-- 1.0 -->
      <g transform="translate(407.90125 199.652448)scale(0.1 -0.1)">
       <use xlink:href="#DejaVuSans-8722"/>
       <use x="83.789062" xlink:href="#DejaVuSans-49"/>
       <use x="147.412109" xlink:href="#DejaVuSans-46"/>
       <use x="179.199219" xlink:href="#DejaVuSans-48"/>
      </g>
     </g>
    </g>
    <g id="ytick_10">
     <g id="line2d_23">
      <g>
       <use style="stroke:#000000;stroke-width:0.8;" x="400.90125" xlink:href="#mad0672264b" y="158.05548"/>
      </g>
     </g>
     <g id="text_21">
      <!-- 0.5 -->
      <g transform="translate(407.90125 161.854699)scale(0.1 -0.1)">
       <use xlink:href="#DejaVuSans-8722"/>
       <use x="83.789062" xlink:href="#DejaVuSans-48"/>
       <use x="147.412109" xlink:href="#DejaVuSans-46"/>
       <use x="179.199219" xlink:href="#DejaVuSans-53"/>
      </g>
     </g>
    </g>
    <g id="ytick_11">
     <g id="line2d_24">
      <g>
       <use style="stroke:#000000;stroke-width:0.8;" x="400.90125" xlink:href="#mad0672264b" y="120.257731"/>
      </g>
     </g>
     <g id="text_22">
      <!-- 0.0 -->
      <g transform="translate(407.90125 124.056949)scale(0.1 -0.1)">
       <use xlink:href="#DejaVuSans-48"/>
       <use x="63.623047" xlink:href="#DejaVuSans-46"/>
       <use x="95.410156" xlink:href="#DejaVuSans-48"/>
      </g>
     </g>
    </g>
    <g id="ytick_12">
     <g id="line2d_25">
      <g>
       <use style="stroke:#000000;stroke-width:0.8;" x="400.90125" xlink:href="#mad0672264b" y="82.459981"/>
      </g>
     </g>
     <g id="text_23">
      <!-- 0.5 -->
      <g transform="translate(407.90125 86.2592)scale(0.1 -0.1)">
       <use xlink:href="#DejaVuSans-48"/>
       <use x="63.623047" xlink:href="#DejaVuSans-46"/>
       <use x="95.410156" xlink:href="#DejaVuSans-53"/>
      </g>
     </g>
    </g>
    <g id="ytick_13">
     <g id="line2d_26">
      <g>
       <use style="stroke:#000000;stroke-width:0.8;" x="400.90125" xlink:href="#mad0672264b" y="44.662232"/>
      </g>
     </g>
     <g id="text_24">
      <!-- 1.0 -->
      <g transform="translate(407.90125 48.461451)scale(0.1 -0.1)">
       <use xlink:href="#DejaVuSans-49"/>
       <use x="63.623047" xlink:href="#DejaVuSans-46"/>
       <use x="95.410156" xlink:href="#DejaVuSans-48"/>
      </g>
     </g>
    </g>
    <g id="text_25">
     <!-- Entropy -->
     <g transform="translate(443.7825 174.909281)rotate(-90)scale(0.1 -0.1)">
      <use xlink:href="#DejaVuSans-69"/>
      <use x="63.183594" xlink:href="#DejaVuSans-110"/>
      <use x="126.5625" xlink:href="#DejaVuSans-116"/>
      <use x="165.771484" xlink:href="#DejaVuSans-114"/>
      <use x="206.853516" xlink:href="#DejaVuSans-111"/>
      <use x="268.035156" xlink:href="#DejaVuSans-112"/>
      <use x="331.511719" xlink:href="#DejaVuSans-121"/>
     </g>
    </g>
   </g>
   <g id="line2d_27">
    <path clip-path="url(#pff127873dd)" d="M 60.013977 35.696911 
L 60.767236 35.223996 
L 61.520495 34.414125 
L 62.273754 39.296467 
L 63.027012 39.192824 
L 63.780271 38.400489 
L 64.53353 46.935123 
L 65.286789 46.962884 
L 66.040048 46.321833 
L 66.793307 55.227217 
L 68.299824 53.361798 
L 69.053083 59.993831 
L 69.806342 59.542931 
L 70.559601 58.902912 
L 71.312859 69.870093 
L 72.066118 69.830041 
L 72.819377 69.050197 
L 73.572636 77.225778 
L 74.325895 77.73237 
L 75.079153 77.256377 
L 75.832412 90.319025 
L 76.585671 90.159025 
L 77.33893 89.451454 
L 78.092189 91.847351 
L 78.845447 92.582344 
L 79.598706 92.788416 
L 80.351965 103.861599 
L 81.105224 104.70394 
L 81.858483 104.79455 
L 82.611741 118.472406 
L 83.365 120.588869 
L 84.118259 120.555312 
L 84.871518 130.737595 
L 85.624777 128.923223 
L 86.378035 128.326659 
L 87.131294 132.928172 
L 87.884553 133.021423 
L 88.637812 132.880554 
L 89.391071 140.109956 
L 90.14433 140.702542 
L 90.897588 141.696402 
L 91.650847 145.112609 
L 92.404106 145.855723 
L 93.157365 145.489486 
L 93.910624 145.616405 
L 94.663882 145.461323 
L 95.417141 144.722975 
L 96.1704 150.055635 
L 96.923659 151.477008 
L 97.676918 151.21575 
L 98.430176 159.100182 
L 99.183435 158.022312 
L 99.936694 157.752244 
L 100.689953 159.914694 
L 101.443212 160.980953 
L 102.19647 161.054317 
L 102.949729 163.795401 
L 103.702988 162.728697 
L 105.209506 163.368103 
L 105.962764 164.621683 
L 106.716023 164.110639 
L 107.469282 169.617599 
L 108.222541 168.119375 
L 108.9758 169.068044 
L 109.729058 169.231705 
L 110.482317 170.041189 
L 111.235576 170.226645 
L 111.988835 170.860391 
L 112.742094 171.045532 
L 113.495353 170.839421 
L 114.248611 169.692765 
L 115.00187 169.966576 
L 115.755129 169.750008 
L 116.508388 171.141178 
L 117.261647 170.171187 
L 118.014905 170.09584 
L 118.768164 172.831878 
L 119.521423 173.186866 
L 120.274682 173.253449 
L 121.027941 174.603314 
L 121.781199 174.90133 
L 122.534458 173.906215 
L 123.287717 176.406751 
L 124.040976 176.310398 
L 124.794235 176.923913 
L 125.547493 178.04872 
L 126.300752 178.428108 
L 127.054011 179.048909 
L 127.80727 182.804128 
L 128.560529 183.169038 
L 129.313787 182.124278 
L 130.067046 184.500524 
L 130.820305 185.06275 
L 132.326823 184.157062 
L 133.080081 184.090258 
L 133.83334 181.848921 
L 134.586599 174.041557 
L 135.339858 175.129903 
L 136.093117 174.123888 
L 136.846376 178.767551 
L 137.599634 177.504707 
L 138.352893 176.577089 
L 139.106152 183.181087 
L 139.859411 184.220783 
L 140.61267 183.991688 
L 141.365928 184.301861 
L 142.119187 181.902329 
L 142.872446 178.466434 
L 143.625705 184.575132 
L 144.378964 184.754311 
L 145.132222 183.505336 
L 145.885481 184.621001 
L 146.63874 186.509477 
L 147.391999 185.674886 
L 148.145258 187.416967 
L 148.898516 188.735642 
L 149.651775 187.356336 
L 150.405034 193.8825 
L 151.158293 196.623197 
L 151.911552 196.676717 
L 152.66481 200.299018 
L 153.418069 200.304966 
L 154.171328 199.423677 
L 154.924587 195.727417 
L 155.677846 194.443207 
L 156.431104 194.207231 
L 157.937622 189.083561 
L 158.690881 190.003541 
L 159.44414 187.663364 
L 160.197398 188.560095 
L 160.950657 187.806069 
L 161.703916 190.151022 
L 162.457175 191.386686 
L 163.210434 190.605869 
L 163.963693 187.663518 
L 164.716951 185.787902 
L 165.47021 185.451838 
L 166.223469 177.917893 
L 166.976728 174.946767 
L 167.729987 174.549911 
L 168.483245 182.857829 
L 169.236504 184.23709 
L 169.989763 184.640002 
L 170.743022 187.524963 
L 171.496281 186.477197 
L 172.249539 185.800473 
L 173.002798 194.1105 
L 173.756057 195.415361 
L 174.509316 193.717054 
L 175.262575 181.64628 
L 176.015833 182.494987 
L 176.769092 182.253244 
L 177.522351 183.671936 
L 178.27561 186.092339 
L 179.028869 185.493053 
L 179.782127 194.393791 
L 180.535386 191.654036 
L 181.288645 190.230208 
L 182.041904 171.438622 
L 182.795163 171.288212 
L 183.548421 173.072968 
L 184.30168 163.808666 
L 185.054939 163.850719 
L 185.808198 160.79797 
L 186.561457 171.702574 
L 187.314716 171.593186 
L 188.067974 173.073567 
L 188.821233 161.506577 
L 189.574492 151.932028 
L 190.327751 156.186659 
L 191.08101 180.856802 
L 191.834268 183.564674 
L 192.587527 184.00298 
L 193.340786 186.212438 
L 194.094045 186.922933 
L 194.847304 187.061113 
L 195.600562 186.145157 
L 196.353821 188.870921 
L 197.10708 188.397974 
L 197.860339 195.319246 
L 198.613598 195.657293 
L 199.366856 196.42649 
L 200.120115 190.093014 
L 200.873374 190.401087 
L 201.626633 190.473077 
L 202.379892 195.557551 
L 203.13315 194.425787 
L 203.886409 194.540817 
L 204.639668 184.634834 
L 206.146186 183.13282 
L 206.899444 194.474432 
L 207.652703 195.897972 
L 208.405962 195.144992 
L 209.159221 210.304612 
L 210.665739 211.648137 
L 211.418997 213.50276 
L 212.172256 214.705072 
L 212.925515 214.66798 
L 213.678774 205.413024 
L 214.432033 208.031144 
L 215.185291 207.593329 
L 215.93855 229.123985 
L 216.691809 232.118812 
L 217.445068 232.344771 
L 218.198327 235.382178 
L 218.951585 234.80871 
L 219.704844 234.807376 
L 220.458103 227.759517 
L 221.211362 227.328362 
L 221.964621 226.021848 
L 222.717879 225.912536 
L 223.471138 224.342412 
L 224.224397 225.032428 
L 224.977656 236.260943 
L 225.730915 236.735507 
L 226.484173 236.122163 
L 227.237432 231.397336 
L 227.990691 232.082107 
L 228.74395 231.911336 
L 229.497209 230.365156 
L 230.250467 230.892628 
L 231.003726 230.164249 
L 231.756985 276.334125 
L 232.510244 261.528448 
L 233.263503 261.358019 
L 234.016761 112.719809 
L 234.77002 113.174774 
L 235.523279 112.589471 
L 236.276538 120.473634 
L 237.783056 122.055362 
L 238.536314 134.621263 
L 239.289573 132.321278 
L 240.042832 132.556936 
L 240.796091 131.809084 
L 241.54935 132.316217 
L 242.302608 133.703833 
L 243.055867 134.648968 
L 243.809126 134.354237 
L 244.562385 135.629522 
L 245.315644 138.283602 
L 246.068902 135.020868 
L 246.822161 136.470498 
L 247.57542 129.157838 
L 248.328679 130.369788 
L 249.081938 130.081281 
L 249.835196 135.270037 
L 250.588455 134.236024 
L 251.341714 129.396366 
L 252.848232 133.163115 
L 253.60149 133.244167 
L 254.354749 135.127357 
L 255.108008 134.983366 
L 255.861267 135.185729 
L 258.121043 137.216012 
L 258.874302 139.460042 
L 259.627561 137.940612 
L 260.38082 137.212976 
L 261.134079 140.319135 
L 261.887337 140.918683 
L 262.640596 140.797602 
L 263.393855 142.566713 
L 264.147114 141.767128 
L 264.900373 141.721687 
L 265.653631 144.649669 
L 266.40689 145.612412 
L 267.160149 145.382245 
L 267.913408 141.654582 
L 268.666667 143.23761 
L 269.419925 143.407855 
L 270.173184 146.35363 
L 270.926443 147.438417 
L 271.679702 147.350593 
L 272.432961 146.996736 
L 273.186219 148.223925 
L 273.939478 148.293303 
L 274.692737 145.921592 
L 275.445996 146.730963 
L 276.199255 146.841142 
L 276.952513 146.101028 
L 277.705772 146.025204 
L 278.459031 145.790188 
L 279.21229 150.479108 
L 279.965549 151.70305 
L 280.718807 152.003865 
L 281.472066 148.597148 
L 282.225325 149.911088 
L 282.978584 149.850004 
L 283.731843 153.121107 
L 284.485102 154.333275 
L 285.23836 154.553694 
L 285.991619 159.64488 
L 286.744878 160.747541 
L 287.498137 160.680692 
L 288.251396 160.214315 
L 289.004654 161.4988 
L 289.757913 161.14944 
L 290.511172 156.74113 
L 292.01769 157.141051 
L 292.770948 155.056747 
L 293.524207 156.277312 
L 294.277466 156.248943 
L 295.030725 155.259298 
L 295.783984 151.576835 
L 297.290501 153.6213 
L 298.04376 155.339376 
L 298.797019 155.705174 
L 299.550278 153.881637 
L 300.303536 154.879798 
L 301.056795 154.637582 
L 301.810054 163.766347 
L 302.563313 163.475712 
L 303.316572 163.967988 
L 304.06983 164.955155 
L 304.823089 164.688509 
L 305.576348 164.683503 
L 306.329607 171.637983 
L 307.082866 173.212982 
L 307.836124 173.766633 
L 308.589383 177.990491 
L 309.342642 179.023348 
L 310.095901 179.007036 
L 310.84916 181.73267 
L 311.602419 183.699074 
L 312.355677 183.202156 
L 313.108936 195.271345 
L 313.862195 195.360272 
L 314.615454 194.925278 
L 315.368713 196.329497 
L 316.121971 196.96902 
L 316.87523 196.389848 
L 317.628489 181.168138 
L 318.381748 179.285993 
L 319.135007 176.372668 
L 319.888265 172.243541 
L 320.641524 172.977128 
L 321.394783 171.761096 
L 322.148042 179.258526 
L 322.901301 179.028989 
L 323.654559 178.35158 
L 324.407818 181.755312 
L 325.161077 182.400242 
L 325.914336 181.519134 
L 326.667595 178.738777 
L 327.420853 178.102723 
L 328.174112 178.737055 
L 328.927371 186.651839 
L 330.433889 186.792051 
L 331.187147 189.166031 
L 331.940406 188.319857 
L 332.693665 188.664806 
L 333.446924 186.904499 
L 334.200183 186.813725 
L 334.953442 186.95679 
L 335.7067 189.383118 
L 336.459959 188.890954 
L 337.213218 187.338691 
L 337.966477 196.106458 
L 338.719736 195.71859 
L 339.472994 195.7449 
L 340.226253 194.381315 
L 340.979512 193.541813 
L 341.732771 191.234083 
L 342.48603 193.535009 
L 343.239288 191.808339 
L 343.992547 190.75075 
L 344.745806 190.406792 
L 345.499065 206.309353 
L 346.252324 205.817567 
L 347.005582 157.629398 
L 347.758841 156.891274 
L 348.5121 156.57409 
L 349.265359 150.761266 
L 350.018618 151.082959 
L 350.771876 153.192698 
L 351.525135 130.000763 
L 352.278394 129.057843 
L 353.031653 132.682989 
L 353.784912 128.429902 
L 354.53817 128.524266 
L 355.291429 128.406296 
L 356.044688 127.425832 
L 356.797947 127.021186 
L 357.551206 128.767254 
L 358.304465 131.773643 
L 359.057723 125.027962 
L 359.810982 124.856826 
L 360.564241 121.401373 
L 361.3175 122.080081 
L 362.070759 121.325124 
L 362.824017 128.185013 
L 363.577276 126.099362 
L 364.330535 126.54938 
L 365.083794 124.883049 
L 365.837053 124.594831 
L 366.590311 124.444965 
L 367.34357 127.069403 
L 368.096829 126.747655 
L 368.850088 126.742292 
L 369.603347 127.251974 
L 370.356605 126.306187 
L 371.109864 127.751613 
L 371.863123 128.509134 
L 372.616382 127.161427 
L 373.369641 126.096056 
L 374.122899 127.540537 
L 374.876158 126.9488 
L 375.629417 126.834753 
L 376.382676 123.347437 
L 377.889193 126.046781 
L 378.642452 122.370069 
L 379.395711 122.482241 
L 380.14897 122.797555 
L 380.902229 125.072358 
L 381.655488 125.548385 
L 382.408746 125.637114 
L 383.162005 127.966544 
L 383.915264 128.550922 
L 384.668523 128.114938 
L 384.668523 128.114938 
" style="fill:none;stroke:#008000;stroke-linecap:square;stroke-width:1.5;"/>
   </g>
   <g id="patch_9">
    <path d="M 43.78125 288.430125 
L 43.78125 22.318125 
" style="fill:none;stroke:#000000;stroke-linecap:square;stroke-linejoin:miter;stroke-width:0.8;"/>
   </g>
   <g id="patch_10">
    <path d="M 400.90125 288.430125 
L 400.90125 22.318125 
" style="fill:none;stroke:#000000;stroke-linecap:square;stroke-linejoin:miter;stroke-width:0.8;"/>
   </g>
   <g id="patch_11">
    <path d="M 43.78125 288.430125 
L 400.90125 288.430125 
" style="fill:none;stroke:#000000;stroke-linecap:square;stroke-linejoin:miter;stroke-width:0.8;"/>
   </g>
   <g id="patch_12">
    <path d="M 43.78125 22.318125 
L 400.90125 22.318125 
" style="fill:none;stroke:#000000;stroke-linecap:square;stroke-linejoin:miter;stroke-width:0.8;"/>
   </g>
  </g>
 </g>
 <defs>
  <clipPath id="pff127873dd">
   <rect height="266.112" width="357.12" x="43.78125" y="22.318125"/>
  </clipPath>
 </defs>
</svg>
