<?xml version="1.0" encoding="utf-8" standalone="no"?>
<!DOCTYPE svg PUBLIC "-//W3C//DTD SVG 1.1//EN"
  "http://www.w3.org/Graphics/SVG/1.1/DTD/svg11.dtd">
<!-- Created with matplotlib (https://matplotlib.org/) -->
<svg height="358.22505pt" version="1.1" viewBox="0 0 451.045 358.22505" width="451.045pt" xmlns="http://www.w3.org/2000/svg" xmlns:xlink="http://www.w3.org/1999/xlink">
 <defs>
  <style type="text/css">
*{stroke-linecap:butt;stroke-linejoin:round;}
  </style>
 </defs>
 <g id="figure_1">
  <g id="patch_1">
   <path d="M 0 358.22505 
L 451.045 358.22505 
L 451.045 0 
L 0 0 
z
" style="fill:#ffffff;"/>
  </g>
  <g id="axes_1">
   <g id="patch_2">
    <path d="M 43.78125 288.430125 
L 400.90125 288.430125 
L 400.90125 22.318125 
L 43.78125 22.318125 
z
" style="fill:#ffffff;"/>
   </g>
   <g id="matplotlib.axis_1">
    <g id="xtick_1">
     <g id="line2d_1">
      <defs>
       <path d="M 0 0 
L 0 3.5 
" id="m31a60255d4" style="stroke:#000000;stroke-width:0.8;"/>
      </defs>
      <g>
       <use style="stroke:#000000;stroke-width:0.8;" x="60.013977" xlink:href="#m31a60255d4" y="288.430125"/>
      </g>
     </g>
     <g id="text_1">
      <!-- 0 -->
      <defs>
       <path d="M 31.78125 66.40625 
Q 24.171875 66.40625 20.328125 58.90625 
Q 16.5 51.421875 16.5 36.375 
Q 16.5 21.390625 20.328125 13.890625 
Q 24.171875 6.390625 31.78125 6.390625 
Q 39.453125 6.390625 43.28125 13.890625 
Q 47.125 21.390625 47.125 36.375 
Q 47.125 51.421875 43.28125 58.90625 
Q 39.453125 66.40625 31.78125 66.40625 
z
M 31.78125 74.21875 
Q 44.046875 74.21875 50.515625 64.515625 
Q 56.984375 54.828125 56.984375 36.375 
Q 56.984375 17.96875 50.515625 8.265625 
Q 44.046875 -1.421875 31.78125 -1.421875 
Q 19.53125 -1.421875 13.0625 8.265625 
Q 6.59375 17.96875 6.59375 36.375 
Q 6.59375 54.828125 13.0625 64.515625 
Q 19.53125 74.21875 31.78125 74.21875 
z
" id="DejaVuSans-48"/>
      </defs>
      <g transform="translate(56.832727 303.028562)scale(0.1 -0.1)">
       <use xlink:href="#DejaVuSans-48"/>
      </g>
     </g>
    </g>
    <g id="xtick_2">
     <g id="line2d_2">
      <g>
       <use style="stroke:#000000;stroke-width:0.8;" x="104.487203" xlink:href="#m31a60255d4" y="288.430125"/>
      </g>
     </g>
     <g id="text_2">
      <!-- 50 -->
      <defs>
       <path d="M 10.796875 72.90625 
L 49.515625 72.90625 
L 49.515625 64.59375 
L 19.828125 64.59375 
L 19.828125 46.734375 
Q 21.96875 47.46875 24.109375 47.828125 
Q 26.265625 48.1875 28.421875 48.1875 
Q 40.625 48.1875 47.75 41.5 
Q 54.890625 34.8125 54.890625 23.390625 
Q 54.890625 11.625 47.5625 5.09375 
Q 40.234375 -1.421875 26.90625 -1.421875 
Q 22.3125 -1.421875 17.546875 -0.640625 
Q 12.796875 0.140625 7.71875 1.703125 
L 7.71875 11.625 
Q 12.109375 9.234375 16.796875 8.0625 
Q 21.484375 6.890625 26.703125 6.890625 
Q 35.15625 6.890625 40.078125 11.328125 
Q 45.015625 15.765625 45.015625 23.390625 
Q 45.015625 31 40.078125 35.4375 
Q 35.15625 39.890625 26.703125 39.890625 
Q 22.75 39.890625 18.8125 39.015625 
Q 14.890625 38.140625 10.796875 36.28125 
z
" id="DejaVuSans-53"/>
      </defs>
      <g transform="translate(98.124703 303.028562)scale(0.1 -0.1)">
       <use xlink:href="#DejaVuSans-53"/>
       <use x="63.623047" xlink:href="#DejaVuSans-48"/>
      </g>
     </g>
    </g>
    <g id="xtick_3">
     <g id="line2d_3">
      <g>
       <use style="stroke:#000000;stroke-width:0.8;" x="148.960428" xlink:href="#m31a60255d4" y="288.430125"/>
      </g>
     </g>
     <g id="text_3">
      <!-- 100 -->
      <defs>
       <path d="M 12.40625 8.296875 
L 28.515625 8.296875 
L 28.515625 63.921875 
L 10.984375 60.40625 
L 10.984375 69.390625 
L 28.421875 72.90625 
L 38.28125 72.90625 
L 38.28125 8.296875 
L 54.390625 8.296875 
L 54.390625 0 
L 12.40625 0 
z
" id="DejaVuSans-49"/>
      </defs>
      <g transform="translate(139.416678 303.028562)scale(0.1 -0.1)">
       <use xlink:href="#DejaVuSans-49"/>
       <use x="63.623047" xlink:href="#DejaVuSans-48"/>
       <use x="127.246094" xlink:href="#DejaVuSans-48"/>
      </g>
     </g>
    </g>
    <g id="xtick_4">
     <g id="line2d_4">
      <g>
       <use style="stroke:#000000;stroke-width:0.8;" x="193.433653" xlink:href="#m31a60255d4" y="288.430125"/>
      </g>
     </g>
     <g id="text_4">
      <!-- 150 -->
      <g transform="translate(183.889903 303.028562)scale(0.1 -0.1)">
       <use xlink:href="#DejaVuSans-49"/>
       <use x="63.623047" xlink:href="#DejaVuSans-53"/>
       <use x="127.246094" xlink:href="#DejaVuSans-48"/>
      </g>
     </g>
    </g>
    <g id="xtick_5">
     <g id="line2d_5">
      <g>
       <use style="stroke:#000000;stroke-width:0.8;" x="237.906879" xlink:href="#m31a60255d4" y="288.430125"/>
      </g>
     </g>
     <g id="text_5">
      <!-- 200 -->
      <defs>
       <path d="M 19.1875 8.296875 
L 53.609375 8.296875 
L 53.609375 0 
L 7.328125 0 
L 7.328125 8.296875 
Q 12.9375 14.109375 22.625 23.890625 
Q 32.328125 33.6875 34.8125 36.53125 
Q 39.546875 41.84375 41.421875 45.53125 
Q 43.3125 49.21875 43.3125 52.78125 
Q 43.3125 58.59375 39.234375 62.25 
Q 35.15625 65.921875 28.609375 65.921875 
Q 23.96875 65.921875 18.8125 64.3125 
Q 13.671875 62.703125 7.8125 59.421875 
L 7.8125 69.390625 
Q 13.765625 71.78125 18.9375 73 
Q 24.125 74.21875 28.421875 74.21875 
Q 39.75 74.21875 46.484375 68.546875 
Q 53.21875 62.890625 53.21875 53.421875 
Q 53.21875 48.921875 51.53125 44.890625 
Q 49.859375 40.875 45.40625 35.40625 
Q 44.1875 33.984375 37.640625 27.21875 
Q 31.109375 20.453125 19.1875 8.296875 
z
" id="DejaVuSans-50"/>
      </defs>
      <g transform="translate(228.363129 303.028562)scale(0.1 -0.1)">
       <use xlink:href="#DejaVuSans-50"/>
       <use x="63.623047" xlink:href="#DejaVuSans-48"/>
       <use x="127.246094" xlink:href="#DejaVuSans-48"/>
      </g>
     </g>
    </g>
    <g id="xtick_6">
     <g id="line2d_6">
      <g>
       <use style="stroke:#000000;stroke-width:0.8;" x="282.380104" xlink:href="#m31a60255d4" y="288.430125"/>
      </g>
     </g>
     <g id="text_6">
      <!-- 250 -->
      <g transform="translate(272.836354 303.028562)scale(0.1 -0.1)">
       <use xlink:href="#DejaVuSans-50"/>
       <use x="63.623047" xlink:href="#DejaVuSans-53"/>
       <use x="127.246094" xlink:href="#DejaVuSans-48"/>
      </g>
     </g>
    </g>
    <g id="xtick_7">
     <g id="line2d_7">
      <g>
       <use style="stroke:#000000;stroke-width:0.8;" x="326.85333" xlink:href="#m31a60255d4" y="288.430125"/>
      </g>
     </g>
     <g id="text_7">
      <!-- 300 -->
      <defs>
       <path d="M 40.578125 39.3125 
Q 47.65625 37.796875 51.625 33 
Q 55.609375 28.21875 55.609375 21.1875 
Q 55.609375 10.40625 48.1875 4.484375 
Q 40.765625 -1.421875 27.09375 -1.421875 
Q 22.515625 -1.421875 17.65625 -0.515625 
Q 12.796875 0.390625 7.625 2.203125 
L 7.625 11.71875 
Q 11.71875 9.328125 16.59375 8.109375 
Q 21.484375 6.890625 26.8125 6.890625 
Q 36.078125 6.890625 40.9375 10.546875 
Q 45.796875 14.203125 45.796875 21.1875 
Q 45.796875 27.640625 41.28125 31.265625 
Q 36.765625 34.90625 28.71875 34.90625 
L 20.21875 34.90625 
L 20.21875 43.015625 
L 29.109375 43.015625 
Q 36.375 43.015625 40.234375 45.921875 
Q 44.09375 48.828125 44.09375 54.296875 
Q 44.09375 59.90625 40.109375 62.90625 
Q 36.140625 65.921875 28.71875 65.921875 
Q 24.65625 65.921875 20.015625 65.03125 
Q 15.375 64.15625 9.8125 62.3125 
L 9.8125 71.09375 
Q 15.4375 72.65625 20.34375 73.4375 
Q 25.25 74.21875 29.59375 74.21875 
Q 40.828125 74.21875 47.359375 69.109375 
Q 53.90625 64.015625 53.90625 55.328125 
Q 53.90625 49.265625 50.4375 45.09375 
Q 46.96875 40.921875 40.578125 39.3125 
z
" id="DejaVuSans-51"/>
      </defs>
      <g transform="translate(317.30958 303.028562)scale(0.1 -0.1)">
       <use xlink:href="#DejaVuSans-51"/>
       <use x="63.623047" xlink:href="#DejaVuSans-48"/>
       <use x="127.246094" xlink:href="#DejaVuSans-48"/>
      </g>
     </g>
    </g>
    <g id="xtick_8">
     <g id="line2d_8">
      <g>
       <use style="stroke:#000000;stroke-width:0.8;" x="371.326555" xlink:href="#m31a60255d4" y="288.430125"/>
      </g>
     </g>
     <g id="text_8">
      <!-- 350 -->
      <g transform="translate(361.782805 303.028562)scale(0.1 -0.1)">
       <use xlink:href="#DejaVuSans-51"/>
       <use x="63.623047" xlink:href="#DejaVuSans-53"/>
       <use x="127.246094" xlink:href="#DejaVuSans-48"/>
      </g>
     </g>
    </g>
    <g id="text_9">
     <!-- Epoch -->
     <defs>
      <path d="M 9.8125 72.90625 
L 55.90625 72.90625 
L 55.90625 64.59375 
L 19.671875 64.59375 
L 19.671875 43.015625 
L 54.390625 43.015625 
L 54.390625 34.71875 
L 19.671875 34.71875 
L 19.671875 8.296875 
L 56.78125 8.296875 
L 56.78125 0 
L 9.8125 0 
z
" id="DejaVuSans-69"/>
      <path d="M 18.109375 8.203125 
L 18.109375 -20.796875 
L 9.078125 -20.796875 
L 9.078125 54.6875 
L 18.109375 54.6875 
L 18.109375 46.390625 
Q 20.953125 51.265625 25.265625 53.625 
Q 29.59375 56 35.59375 56 
Q 45.5625 56 51.78125 48.09375 
Q 58.015625 40.1875 58.015625 27.296875 
Q 58.015625 14.40625 51.78125 6.484375 
Q 45.5625 -1.421875 35.59375 -1.421875 
Q 29.59375 -1.421875 25.265625 0.953125 
Q 20.953125 3.328125 18.109375 8.203125 
z
M 48.6875 27.296875 
Q 48.6875 37.203125 44.609375 42.84375 
Q 40.53125 48.484375 33.40625 48.484375 
Q 26.265625 48.484375 22.1875 42.84375 
Q 18.109375 37.203125 18.109375 27.296875 
Q 18.109375 17.390625 22.1875 11.75 
Q 26.265625 6.109375 33.40625 6.109375 
Q 40.53125 6.109375 44.609375 11.75 
Q 48.6875 17.390625 48.6875 27.296875 
z
" id="DejaVuSans-112"/>
      <path d="M 30.609375 48.390625 
Q 23.390625 48.390625 19.1875 42.75 
Q 14.984375 37.109375 14.984375 27.296875 
Q 14.984375 17.484375 19.15625 11.84375 
Q 23.34375 6.203125 30.609375 6.203125 
Q 37.796875 6.203125 41.984375 11.859375 
Q 46.1875 17.53125 46.1875 27.296875 
Q 46.1875 37.015625 41.984375 42.703125 
Q 37.796875 48.390625 30.609375 48.390625 
z
M 30.609375 56 
Q 42.328125 56 49.015625 48.375 
Q 55.71875 40.765625 55.71875 27.296875 
Q 55.71875 13.875 49.015625 6.21875 
Q 42.328125 -1.421875 30.609375 -1.421875 
Q 18.84375 -1.421875 12.171875 6.21875 
Q 5.515625 13.875 5.515625 27.296875 
Q 5.515625 40.765625 12.171875 48.375 
Q 18.84375 56 30.609375 56 
z
" id="DejaVuSans-111"/>
      <path d="M 48.78125 52.59375 
L 48.78125 44.1875 
Q 44.96875 46.296875 41.140625 47.34375 
Q 37.3125 48.390625 33.40625 48.390625 
Q 24.65625 48.390625 19.8125 42.84375 
Q 14.984375 37.3125 14.984375 27.296875 
Q 14.984375 17.28125 19.8125 11.734375 
Q 24.65625 6.203125 33.40625 6.203125 
Q 37.3125 6.203125 41.140625 7.25 
Q 44.96875 8.296875 48.78125 10.40625 
L 48.78125 2.09375 
Q 45.015625 0.34375 40.984375 -0.53125 
Q 36.96875 -1.421875 32.421875 -1.421875 
Q 20.0625 -1.421875 12.78125 6.34375 
Q 5.515625 14.109375 5.515625 27.296875 
Q 5.515625 40.671875 12.859375 48.328125 
Q 20.21875 56 33.015625 56 
Q 37.15625 56 41.109375 55.140625 
Q 45.0625 54.296875 48.78125 52.59375 
z
" id="DejaVuSans-99"/>
      <path d="M 54.890625 33.015625 
L 54.890625 0 
L 45.90625 0 
L 45.90625 32.71875 
Q 45.90625 40.484375 42.875 44.328125 
Q 39.84375 48.1875 33.796875 48.1875 
Q 26.515625 48.1875 22.3125 43.546875 
Q 18.109375 38.921875 18.109375 30.90625 
L 18.109375 0 
L 9.078125 0 
L 9.078125 75.984375 
L 18.109375 75.984375 
L 18.109375 46.1875 
Q 21.34375 51.125 25.703125 53.5625 
Q 30.078125 56 35.796875 56 
Q 45.21875 56 50.046875 50.171875 
Q 54.890625 44.34375 54.890625 33.015625 
z
" id="DejaVuSans-104"/>
     </defs>
     <g transform="translate(207.030313 316.706687)scale(0.1 -0.1)">
      <use xlink:href="#DejaVuSans-69"/>
      <use x="63.183594" xlink:href="#DejaVuSans-112"/>
      <use x="126.660156" xlink:href="#DejaVuSans-111"/>
      <use x="187.841797" xlink:href="#DejaVuSans-99"/>
      <use x="242.822266" xlink:href="#DejaVuSans-104"/>
     </g>
    </g>
   </g>
   <g id="matplotlib.axis_2">
    <g id="ytick_1">
     <g id="line2d_9">
      <defs>
       <path d="M 0 0 
L -3.5 0 
" id="m2027fcc4cc" style="stroke:#000000;stroke-width:0.8;"/>
      </defs>
      <g>
       <use style="stroke:#000000;stroke-width:0.8;" x="43.78125" xlink:href="#m2027fcc4cc" y="267.259437"/>
      </g>
     </g>
     <g id="text_10">
      <!-- 0.0 -->
      <defs>
       <path d="M 10.6875 12.40625 
L 21 12.40625 
L 21 0 
L 10.6875 0 
z
" id="DejaVuSans-46"/>
      </defs>
      <g transform="translate(20.878125 271.058656)scale(0.1 -0.1)">
       <use xlink:href="#DejaVuSans-48"/>
       <use x="63.623047" xlink:href="#DejaVuSans-46"/>
       <use x="95.410156" xlink:href="#DejaVuSans-48"/>
      </g>
     </g>
    </g>
    <g id="ytick_2">
     <g id="line2d_10">
      <g>
       <use style="stroke:#000000;stroke-width:0.8;" x="43.78125" xlink:href="#m2027fcc4cc" y="220.957046"/>
      </g>
     </g>
     <g id="text_11">
      <!-- 0.2 -->
      <g transform="translate(20.878125 224.756265)scale(0.1 -0.1)">
       <use xlink:href="#DejaVuSans-48"/>
       <use x="63.623047" xlink:href="#DejaVuSans-46"/>
       <use x="95.410156" xlink:href="#DejaVuSans-50"/>
      </g>
     </g>
    </g>
    <g id="ytick_3">
     <g id="line2d_11">
      <g>
       <use style="stroke:#000000;stroke-width:0.8;" x="43.78125" xlink:href="#m2027fcc4cc" y="174.654655"/>
      </g>
     </g>
     <g id="text_12">
      <!-- 0.4 -->
      <defs>
       <path d="M 37.796875 64.3125 
L 12.890625 25.390625 
L 37.796875 25.390625 
z
M 35.203125 72.90625 
L 47.609375 72.90625 
L 47.609375 25.390625 
L 58.015625 25.390625 
L 58.015625 17.1875 
L 47.609375 17.1875 
L 47.609375 0 
L 37.796875 0 
L 37.796875 17.1875 
L 4.890625 17.1875 
L 4.890625 26.703125 
z
" id="DejaVuSans-52"/>
      </defs>
      <g transform="translate(20.878125 178.453874)scale(0.1 -0.1)">
       <use xlink:href="#DejaVuSans-48"/>
       <use x="63.623047" xlink:href="#DejaVuSans-46"/>
       <use x="95.410156" xlink:href="#DejaVuSans-52"/>
      </g>
     </g>
    </g>
    <g id="ytick_4">
     <g id="line2d_12">
      <g>
       <use style="stroke:#000000;stroke-width:0.8;" x="43.78125" xlink:href="#m2027fcc4cc" y="128.352264"/>
      </g>
     </g>
     <g id="text_13">
      <!-- 0.6 -->
      <defs>
       <path d="M 33.015625 40.375 
Q 26.375 40.375 22.484375 35.828125 
Q 18.609375 31.296875 18.609375 23.390625 
Q 18.609375 15.53125 22.484375 10.953125 
Q 26.375 6.390625 33.015625 6.390625 
Q 39.65625 6.390625 43.53125 10.953125 
Q 47.40625 15.53125 47.40625 23.390625 
Q 47.40625 31.296875 43.53125 35.828125 
Q 39.65625 40.375 33.015625 40.375 
z
M 52.59375 71.296875 
L 52.59375 62.3125 
Q 48.875 64.0625 45.09375 64.984375 
Q 41.3125 65.921875 37.59375 65.921875 
Q 27.828125 65.921875 22.671875 59.328125 
Q 17.53125 52.734375 16.796875 39.40625 
Q 19.671875 43.65625 24.015625 45.921875 
Q 28.375 48.1875 33.59375 48.1875 
Q 44.578125 48.1875 50.953125 41.515625 
Q 57.328125 34.859375 57.328125 23.390625 
Q 57.328125 12.15625 50.6875 5.359375 
Q 44.046875 -1.421875 33.015625 -1.421875 
Q 20.359375 -1.421875 13.671875 8.265625 
Q 6.984375 17.96875 6.984375 36.375 
Q 6.984375 53.65625 15.1875 63.9375 
Q 23.390625 74.21875 37.203125 74.21875 
Q 40.921875 74.21875 44.703125 73.484375 
Q 48.484375 72.75 52.59375 71.296875 
z
" id="DejaVuSans-54"/>
      </defs>
      <g transform="translate(20.878125 132.151483)scale(0.1 -0.1)">
       <use xlink:href="#DejaVuSans-48"/>
       <use x="63.623047" xlink:href="#DejaVuSans-46"/>
       <use x="95.410156" xlink:href="#DejaVuSans-54"/>
      </g>
     </g>
    </g>
    <g id="ytick_5">
     <g id="line2d_13">
      <g>
       <use style="stroke:#000000;stroke-width:0.8;" x="43.78125" xlink:href="#m2027fcc4cc" y="82.049873"/>
      </g>
     </g>
     <g id="text_14">
      <!-- 0.8 -->
      <defs>
       <path d="M 31.78125 34.625 
Q 24.75 34.625 20.71875 30.859375 
Q 16.703125 27.09375 16.703125 20.515625 
Q 16.703125 13.921875 20.71875 10.15625 
Q 24.75 6.390625 31.78125 6.390625 
Q 38.8125 6.390625 42.859375 10.171875 
Q 46.921875 13.96875 46.921875 20.515625 
Q 46.921875 27.09375 42.890625 30.859375 
Q 38.875 34.625 31.78125 34.625 
z
M 21.921875 38.8125 
Q 15.578125 40.375 12.03125 44.71875 
Q 8.5 49.078125 8.5 55.328125 
Q 8.5 64.0625 14.71875 69.140625 
Q 20.953125 74.21875 31.78125 74.21875 
Q 42.671875 74.21875 48.875 69.140625 
Q 55.078125 64.0625 55.078125 55.328125 
Q 55.078125 49.078125 51.53125 44.71875 
Q 48 40.375 41.703125 38.8125 
Q 48.828125 37.15625 52.796875 32.3125 
Q 56.78125 27.484375 56.78125 20.515625 
Q 56.78125 9.90625 50.3125 4.234375 
Q 43.84375 -1.421875 31.78125 -1.421875 
Q 19.734375 -1.421875 13.25 4.234375 
Q 6.78125 9.90625 6.78125 20.515625 
Q 6.78125 27.484375 10.78125 32.3125 
Q 14.796875 37.15625 21.921875 38.8125 
z
M 18.3125 54.390625 
Q 18.3125 48.734375 21.84375 45.5625 
Q 25.390625 42.390625 31.78125 42.390625 
Q 38.140625 42.390625 41.71875 45.5625 
Q 45.3125 48.734375 45.3125 54.390625 
Q 45.3125 60.0625 41.71875 63.234375 
Q 38.140625 66.40625 31.78125 66.40625 
Q 25.390625 66.40625 21.84375 63.234375 
Q 18.3125 60.0625 18.3125 54.390625 
z
" id="DejaVuSans-56"/>
      </defs>
      <g transform="translate(20.878125 85.849092)scale(0.1 -0.1)">
       <use xlink:href="#DejaVuSans-48"/>
       <use x="63.623047" xlink:href="#DejaVuSans-46"/>
       <use x="95.410156" xlink:href="#DejaVuSans-56"/>
      </g>
     </g>
    </g>
    <g id="ytick_6">
     <g id="line2d_14">
      <g>
       <use style="stroke:#000000;stroke-width:0.8;" x="43.78125" xlink:href="#m2027fcc4cc" y="35.747482"/>
      </g>
     </g>
     <g id="text_15">
      <!-- 1.0 -->
      <g transform="translate(20.878125 39.546701)scale(0.1 -0.1)">
       <use xlink:href="#DejaVuSans-49"/>
       <use x="63.623047" xlink:href="#DejaVuSans-46"/>
       <use x="95.410156" xlink:href="#DejaVuSans-48"/>
      </g>
     </g>
    </g>
    <g id="text_16">
     <!-- Loss -->
     <defs>
      <path d="M 9.8125 72.90625 
L 19.671875 72.90625 
L 19.671875 8.296875 
L 55.171875 8.296875 
L 55.171875 0 
L 9.8125 0 
z
" id="DejaVuSans-76"/>
      <path d="M 44.28125 53.078125 
L 44.28125 44.578125 
Q 40.484375 46.53125 36.375 47.5 
Q 32.28125 48.484375 27.875 48.484375 
Q 21.1875 48.484375 17.84375 46.4375 
Q 14.5 44.390625 14.5 40.28125 
Q 14.5 37.15625 16.890625 35.375 
Q 19.28125 33.59375 26.515625 31.984375 
L 29.59375 31.296875 
Q 39.15625 29.25 43.1875 25.515625 
Q 47.21875 21.78125 47.21875 15.09375 
Q 47.21875 7.46875 41.1875 3.015625 
Q 35.15625 -1.421875 24.609375 -1.421875 
Q 20.21875 -1.421875 15.453125 -0.5625 
Q 10.6875 0.296875 5.421875 2 
L 5.421875 11.28125 
Q 10.40625 8.6875 15.234375 7.390625 
Q 20.0625 6.109375 24.8125 6.109375 
Q 31.15625 6.109375 34.5625 8.28125 
Q 37.984375 10.453125 37.984375 14.40625 
Q 37.984375 18.0625 35.515625 20.015625 
Q 33.0625 21.96875 24.703125 23.78125 
L 21.578125 24.515625 
Q 13.234375 26.265625 9.515625 29.90625 
Q 5.8125 33.546875 5.8125 39.890625 
Q 5.8125 47.609375 11.28125 51.796875 
Q 16.75 56 26.8125 56 
Q 31.78125 56 36.171875 55.265625 
Q 40.578125 54.546875 44.28125 53.078125 
z
" id="DejaVuSans-115"/>
     </defs>
     <g transform="translate(14.798438 166.428031)rotate(-90)scale(0.1 -0.1)">
      <use xlink:href="#DejaVuSans-76"/>
      <use x="55.697266" xlink:href="#DejaVuSans-111"/>
      <use x="116.878906" xlink:href="#DejaVuSans-115"/>
      <use x="168.978516" xlink:href="#DejaVuSans-115"/>
     </g>
    </g>
   </g>
   <g id="line2d_15">
    <path clip-path="url(#p3d2d50eaca)" d="M 60.013977 171.168195 
L 61.792906 173.674867 
L 62.682371 230.715111 
L 63.571835 232.517132 
L 64.4613 232.823435 
L 65.350764 206.55335 
L 66.240229 207.655656 
L 67.129693 208.427273 
L 68.019158 180.548604 
L 69.798087 180.497866 
L 70.687551 169.035735 
L 72.46648 169.42791 
L 73.355945 172.833181 
L 75.134874 173.568875 
L 76.024338 186.657378 
L 77.803267 187.762555 
L 78.692732 139.650355 
L 80.471661 140.113565 
L 81.361125 233.867801 
L 83.140054 234.242417 
L 84.029519 113.909356 
L 84.918983 114.707281 
L 85.808448 115.840724 
L 86.697913 141.996083 
L 87.587377 141.924448 
L 88.476842 141.970885 
L 89.366306 228.123737 
L 91.145235 228.342166 
L 92.0347 267.237132 
L 92.924164 267.259437 
L 93.813629 266.947915 
L 94.703093 89.395284 
L 95.592558 90.526633 
L 96.482022 91.956022 
L 97.371487 132.600975 
L 98.260951 133.243397 
L 99.150416 134.161905 
L 100.03988 219.446365 
L 100.929345 219.441432 
L 101.818809 219.595819 
L 102.708274 174.28769 
L 103.597738 176.742675 
L 104.487203 176.915641 
L 105.376667 222.172854 
L 106.266132 222.989152 
L 107.155596 223.9633 
L 108.045061 160.686727 
L 109.82399 161.461396 
L 110.713454 184.882205 
L 112.492383 185.039485 
L 113.381848 253.307037 
L 115.160777 253.40146 
L 116.050241 217.042728 
L 116.939706 216.987174 
L 117.82917 216.744761 
L 118.718635 251.080241 
L 120.497564 251.027076 
L 121.387028 133.192523 
L 122.276493 133.835574 
L 123.165957 135.059819 
L 124.055422 197.821827 
L 124.944886 197.536733 
L 125.834351 196.847935 
L 126.723815 253.893055 
L 128.502744 254.789252 
L 129.392209 209.079931 
L 131.171138 209.163943 
L 132.060602 236.398508 
L 133.839531 236.263995 
L 134.728996 257.784101 
L 136.507925 257.601539 
L 137.397389 248.747312 
L 139.176318 248.358866 
L 140.065783 213.473571 
L 141.844712 213.504927 
L 142.734177 203.642454 
L 144.513106 203.951029 
L 145.40257 238.728799 
L 146.292035 239.213648 
L 147.181499 239.33876 
L 148.070964 209.472652 
L 148.960428 210.74241 
L 149.849893 212.544225 
L 150.739357 129.326285 
L 151.628822 129.466096 
L 152.518286 129.726968 
L 153.407751 165.207739 
L 155.18668 165.82693 
L 156.076144 234.800477 
L 157.855073 234.786778 
L 158.744538 240.505613 
L 160.523467 240.899735 
L 161.412931 252.108262 
L 163.19186 251.976307 
L 164.081325 245.006848 
L 166.749718 245.131754 
L 167.639183 245.33749 
L 168.528647 245.789135 
L 169.418112 249.685097 
L 171.197041 249.66826 
L 172.086505 183.932583 
L 172.97597 187.769775 
L 173.865434 188.869869 
L 174.754899 250.409394 
L 175.644363 250.600106 
L 176.533828 250.55014 
L 177.423292 237.554402 
L 179.202221 238.878758 
L 180.091686 225.85507 
L 181.870615 226.083409 
L 182.760079 197.395658 
L 183.649544 198.827579 
L 184.539008 199.870571 
L 185.428473 253.369819 
L 187.207402 253.216234 
L 188.096866 238.678118 
L 189.875795 238.74773 
L 190.76526 242.408259 
L 192.544189 242.396325 
L 193.433653 250.716268 
L 195.212583 250.952061 
L 196.102047 243.11773 
L 197.880976 243.385229 
L 198.770441 253.676825 
L 200.54937 254.006373 
L 201.438834 236.425414 
L 203.217763 236.848881 
L 204.107228 244.751735 
L 204.996692 244.738181 
L 205.886157 244.490147 
L 206.775621 245.45633 
L 208.55455 245.809834 
L 209.444015 233.757709 
L 211.222944 234.179328 
L 212.112408 225.992686 
L 213.891337 226.098951 
L 214.780802 183.068845 
L 215.670266 183.381297 
L 216.559731 183.312353 
L 217.449195 234.229197 
L 219.228124 234.095825 
L 220.117589 164.061243 
L 221.007053 163.699757 
L 221.896518 164.031134 
L 222.785982 70.188909 
L 223.675447 69.877852 
L 224.564911 69.686767 
L 225.454376 110.266568 
L 226.34384 110.631295 
L 227.233305 111.179348 
L 228.122769 52.777545 
L 229.012234 54.216388 
L 229.901698 35.747482 
L 230.791163 93.973895 
L 231.680627 92.370618 
L 232.570092 95.639243 
L 233.459556 181.568023 
L 235.238485 181.886433 
L 236.12795 153.741603 
L 237.017414 154.083286 
L 237.906879 154.23784 
L 238.796343 228.92876 
L 240.575272 229.220171 
L 241.464737 146.174335 
L 242.354201 146.468178 
L 243.243666 146.962977 
L 244.13313 221.852356 
L 245.912059 222.128247 
L 246.801524 251.557168 
L 248.580453 251.56714 
L 249.469917 235.188471 
L 251.248847 235.386938 
L 252.138311 189.223886 
L 253.91724 189.305572 
L 254.806705 235.590247 
L 256.585634 235.489872 
L 257.475098 237.697728 
L 259.254027 237.650756 
L 260.143492 139.619561 
L 261.032956 140.731826 
L 261.922421 142.387167 
L 262.811885 216.192517 
L 264.590814 216.178985 
L 265.480279 240.643344 
L 267.259208 240.83787 
L 268.148672 179.277751 
L 269.927601 179.374745 
L 270.817066 150.736711 
L 271.70653 151.91731 
L 272.595995 153.538775 
L 273.485459 244.939475 
L 275.264388 244.971845 
L 276.153853 254.864837 
L 277.932782 254.777634 
L 278.822246 220.519638 
L 280.601175 220.701334 
L 281.49064 189.091915 
L 282.380104 190.699528 
L 283.269569 190.890912 
L 284.159033 244.414602 
L 285.937962 244.407658 
L 286.827427 245.916674 
L 288.606356 246.068779 
L 289.49582 243.037971 
L 291.274749 243.051621 
L 292.164214 244.047768 
L 293.943143 244.117541 
L 294.832607 243.532704 
L 296.611536 243.630037 
L 297.501001 169.789357 
L 299.27993 172.794888 
L 300.169394 242.874344 
L 301.948323 242.932066 
L 302.837788 243.282625 
L 304.616717 243.395908 
L 305.506182 244.364583 
L 307.285111 244.340487 
L 308.174575 236.618368 
L 309.953504 236.665148 
L 310.842969 245.119262 
L 312.621898 245.254979 
L 313.511362 242.969206 
L 315.290291 242.962557 
L 316.179756 244.043624 
L 317.958685 244.105432 
L 318.848149 241.157517 
L 320.627078 241.120898 
L 321.516543 243.52109 
L 323.295472 243.553965 
L 324.184936 242.694574 
L 325.963865 242.89255 
L 326.85333 244.819788 
L 328.632259 244.819784 
L 329.521723 246.862302 
L 331.300652 246.853787 
L 332.190117 227.704655 
L 333.079581 227.828222 
L 333.969046 228.143971 
L 334.85851 242.715375 
L 336.637439 242.746046 
L 337.526904 245.093573 
L 339.305833 245.07951 
L 340.195297 244.899354 
L 341.974226 244.929705 
L 342.863691 225.87378 
L 344.64262 225.674387 
L 345.532084 224.946486 
L 347.311013 225.515536 
L 348.200478 239.143269 
L 349.979407 239.371178 
L 350.868871 218.182666 
L 352.6478 218.412286 
L 353.537265 251.403838 
L 355.316194 251.49662 
L 356.205658 251.030727 
L 357.984587 251.04565 
L 358.874052 233.513256 
L 360.652981 233.703942 
L 361.542446 226.60927 
L 363.321375 226.830631 
L 364.210839 230.745778 
L 365.989768 230.977045 
L 366.879233 250.194103 
L 367.768697 250.632564 
L 368.658162 250.943002 
L 369.547626 246.538069 
L 371.326555 246.869737 
L 372.21602 244.264007 
L 373.994949 244.395259 
L 374.884413 247.264556 
L 376.663342 247.390976 
L 377.552807 184.793721 
L 378.442271 185.842862 
L 379.331736 187.351074 
L 380.2212 227.750965 
L 381.110665 227.949612 
L 382.000129 228.550465 
L 382.889594 230.684054 
L 384.668523 230.380958 
L 384.668523 230.380958 
" style="fill:none;stroke:#1f77b4;stroke-linecap:square;stroke-opacity:0.3;stroke-width:1.5;"/>
   </g>
   <g id="line2d_16">
    <path clip-path="url(#p3d2d50eaca)" d="M 60.013977 158.938876 
L 60.903442 182.907048 
L 61.792906 200.761017 
L 62.682371 212.923023 
L 63.571835 219.815305 
L 64.4613 221.860102 
L 65.350764 220.016061 
L 66.240229 213.055969 
L 67.129693 198.769015 
L 68.019158 189.278582 
L 68.908622 181.365106 
L 69.798087 177.025779 
L 70.687551 172.097008 
L 71.577016 168.76753 
L 72.46648 170.327078 
L 73.355945 171.365562 
L 74.245409 178.208505 
L 75.134874 181.57356 
L 76.024338 180.002605 
L 76.913803 167.360952 
L 77.803267 162.040321 
L 78.692732 163.259887 
L 79.582196 179.519414 
L 80.471661 186.658404 
L 81.361125 188.867806 
L 83.140054 181.326176 
L 84.029519 169.049444 
L 84.918983 144.841148 
L 85.808448 124.946291 
L 86.697913 127.19551 
L 87.587377 140.641702 
L 88.476842 172.788102 
L 89.366306 197.353776 
L 90.255771 235.871968 
L 91.145235 251.348552 
L 92.0347 249.946627 
L 92.924164 227.515015 
L 93.813629 192.854657 
L 94.703093 164.499134 
L 95.592558 130.474551 
L 96.482022 109.085385 
L 97.371487 108.768053 
L 98.260951 131.208723 
L 99.150416 168.689788 
L 100.03988 186.183637 
L 100.929345 193.028555 
L 101.818809 195.895645 
L 102.708274 200.323636 
L 103.597738 206.424938 
L 104.487203 200.246011 
L 105.376667 199.222599 
L 106.266132 195.665451 
L 107.155596 195.376071 
L 108.045061 189.543842 
L 108.934525 176.532231 
L 109.82399 168.863361 
L 110.713454 174.349833 
L 111.602919 191.697947 
L 112.492383 213.476653 
L 113.381848 226.353074 
L 114.271312 231.479737 
L 116.050241 237.039508 
L 116.939706 246.705526 
L 117.82917 239.263186 
L 118.718635 230.412806 
L 119.608099 212.187151 
L 121.387028 185.098277 
L 122.276493 168.395972 
L 123.165957 160.26695 
L 124.055422 167.205519 
L 124.944886 190.163374 
L 125.834351 220.415362 
L 126.723815 233.946344 
L 127.61328 236.737466 
L 128.502744 232.385783 
L 129.392209 231.734404 
L 130.281673 226.738357 
L 131.171138 220.442531 
L 132.060602 223.578749 
L 132.950067 232.096984 
L 133.839531 244.31709 
L 135.61846 256.818766 
L 136.507925 255.430954 
L 137.397389 252.118738 
L 138.286854 245.95522 
L 140.955248 214.821617 
L 141.844712 208.736242 
L 142.734177 206.755933 
L 143.623641 212.325773 
L 144.513106 219.901393 
L 145.40257 223.090668 
L 146.292035 232.20488 
L 147.181499 231.552434 
L 148.070964 221.004049 
L 149.849893 177.608958 
L 151.628822 145.017807 
L 152.518286 142.91029 
L 153.407751 148.925479 
L 154.297215 164.769285 
L 155.18668 191.222805 
L 156.076144 209.842733 
L 156.965609 224.149265 
L 158.744538 243.170937 
L 159.634002 248.171636 
L 160.523467 245.413673 
L 161.412931 247.664555 
L 162.302396 248.873709 
L 163.19186 248.816333 
L 164.081325 248.4652 
L 164.970789 247.021152 
L 165.860254 245.135329 
L 166.749718 244.962255 
L 167.639183 251.120838 
L 168.528647 250.919774 
L 169.418112 245.10592 
L 170.307576 230.645692 
L 171.197041 220.440506 
L 172.086505 214.439809 
L 172.97597 213.628203 
L 173.865434 215.447456 
L 174.754899 220.966851 
L 175.644363 231.3293 
L 176.533828 244.3176 
L 177.423292 246.547652 
L 178.312757 245.805344 
L 179.202221 235.572206 
L 180.091686 228.793865 
L 180.98115 217.256471 
L 181.870615 212.223858 
L 182.760079 210.869027 
L 183.649544 215.277234 
L 186.317937 236.985894 
L 187.207402 245.342957 
L 188.096866 248.077027 
L 188.986331 246.149469 
L 189.875795 240.209741 
L 190.76526 240.336166 
L 191.654724 242.768717 
L 192.544189 246.064201 
L 193.433653 247.388637 
L 194.323118 247.027213 
L 195.212583 246.807909 
L 196.102047 247.169926 
L 196.991512 249.048389 
L 197.880976 248.833819 
L 198.770441 248.45107 
L 199.659905 246.926336 
L 200.54937 246.103645 
L 201.438834 244.471097 
L 203.217763 240.486754 
L 204.107228 240.432846 
L 204.996692 242.788429 
L 205.886157 245.471002 
L 206.775621 245.232435 
L 207.665086 244.373765 
L 209.444015 238.322606 
L 210.333479 238.43768 
L 211.222944 234.008888 
L 212.112408 226.758505 
L 213.001873 213.799565 
L 213.891337 206.234421 
L 214.780802 201.746928 
L 215.670266 207.254186 
L 216.559731 209.585477 
L 217.449195 208.525499 
L 218.33866 214.162494 
L 219.228124 210.255846 
L 220.117589 191.265263 
L 221.896518 126.895894 
L 222.785982 104.289702 
L 223.675447 95.840367 
L 224.564911 93.264359 
L 225.454376 87.757668 
L 226.34384 79.307862 
L 227.233305 82.126476 
L 228.122769 77.335805 
L 229.012234 65.634029 
L 229.901698 62.613214 
L 230.791163 74.318849 
L 231.680627 98.139105 
L 232.570092 127.155938 
L 233.459556 147.994513 
L 234.349021 157.260862 
L 235.238485 162.675818 
L 236.12795 173.650977 
L 237.017414 188.808496 
L 237.906879 190.081653 
L 238.796343 194.259461 
L 239.685808 188.802075 
L 240.575272 188.65676 
L 241.464737 186.923626 
L 242.354201 182.005083 
L 243.243666 177.875063 
L 244.13313 188.096587 
L 245.022595 207.279046 
L 245.912059 231.819087 
L 246.801524 243.954469 
L 247.690988 252.535657 
L 249.469917 241.76293 
L 251.248847 214.781369 
L 252.138311 208.325307 
L 253.027776 206.239378 
L 253.91724 209.316414 
L 254.806705 214.405419 
L 255.696169 231.059855 
L 256.585634 240.639689 
L 257.475098 235.646315 
L 259.254027 194.372937 
L 260.143492 182.305431 
L 261.032956 173.52273 
L 261.922421 173.080048 
L 262.811885 181.339254 
L 264.590814 227.035169 
L 265.480279 233.337699 
L 266.369743 232.084697 
L 268.148672 203.873404 
L 269.038137 180.253965 
L 269.927601 165.000478 
L 270.817066 162.617765 
L 271.70653 170.154861 
L 275.264388 247.589212 
L 276.153853 255.420918 
L 277.043317 256.280853 
L 277.932782 242.707421 
L 278.822246 233.411311 
L 279.711711 217.525121 
L 280.601175 206.429536 
L 281.49064 202.231841 
L 282.380104 204.204056 
L 284.159033 221.169763 
L 285.937962 243.241346 
L 286.827427 248.627328 
L 287.716891 249.488836 
L 288.606356 244.696686 
L 291.274749 243.614476 
L 292.164214 243.457806 
L 293.053678 249.705812 
L 293.943143 248.365222 
L 294.832607 240.698349 
L 295.722072 223.054676 
L 296.611536 210.300888 
L 297.501001 202.657352 
L 298.390465 200.047995 
L 299.27993 202.567009 
L 300.169394 210.110897 
L 301.058859 222.673367 
L 301.948323 240.449243 
L 302.837788 247.755015 
L 303.727252 249.993525 
L 304.616717 244.218141 
L 305.506182 243.675029 
L 306.395646 241.932117 
L 307.285111 240.727597 
L 308.174575 240.087303 
L 309.06404 240.155113 
L 309.953504 240.463684 
L 310.842969 241.223712 
L 311.732433 242.293858 
L 312.621898 243.904363 
L 313.511362 244.428041 
L 314.400827 244.597629 
L 315.290291 243.687886 
L 316.179756 243.382776 
L 317.06922 242.873268 
L 320.627078 242.254045 
L 322.406007 242.4696 
L 323.295472 243.006616 
L 324.184936 243.312306 
L 325.963865 243.498994 
L 326.85333 244.055507 
L 327.742794 246.375064 
L 328.632259 246.757787 
L 329.521723 245.385898 
L 330.411188 241.532793 
L 331.300652 238.307084 
L 332.190117 236.112153 
L 333.079581 234.638021 
L 333.969046 234.382506 
L 334.85851 235.768972 
L 335.747975 238.682188 
L 336.637439 243.126751 
L 337.526904 245.087798 
L 338.416368 247.399905 
L 339.305833 246.132433 
L 340.195297 244.389015 
L 341.084762 241.388536 
L 342.863691 233.276746 
L 343.753155 228.279584 
L 344.64262 225.3998 
L 345.532084 224.750601 
L 347.311013 232.110071 
L 348.200478 232.832213 
L 349.089942 229.451811 
L 349.979407 228.357482 
L 350.868871 228.803147 
L 351.758336 230.34168 
L 352.6478 232.311551 
L 353.537265 236.983415 
L 355.316194 251.087827 
L 356.205658 252.582275 
L 357.095123 250.976172 
L 357.984587 244.57962 
L 360.652981 231.294509 
L 362.43191 225.833403 
L 363.321375 227.384191 
L 364.210839 229.499605 
L 365.100304 233.698674 
L 365.989768 238.748895 
L 366.879233 242.845716 
L 367.768697 246.388505 
L 368.658162 248.434653 
L 369.547626 249.403075 
L 370.437091 248.443358 
L 371.326555 245.793695 
L 372.21602 245.143789 
L 373.105484 250.308417 
L 373.994949 249.485096 
L 374.884413 243.326861 
L 375.773878 230.540756 
L 376.663342 220.152035 
L 377.552807 212.023967 
L 378.442271 206.704174 
L 379.331736 204.985111 
L 380.2212 207.770153 
L 382.000129 230.907176 
L 382.889594 237.732053 
L 383.779058 236.783738 
L 384.668523 224.604153 
L 384.668523 224.604153 
" style="fill:none;stroke:#1f77b4;stroke-linecap:square;stroke-width:1.5;"/>
   </g>
   <g id="line2d_17">
    <path clip-path="url(#p3d2d50eaca)" d="M 60.013977 264.20172 
L 60.903442 265.611802 
L 61.792906 267.259437 
L 62.682371 203.302081 
L 63.571835 206.823446 
L 64.4613 211.365637 
L 65.350764 207.147613 
L 67.129693 221.770199 
L 68.019158 204.611699 
L 68.908622 212.699035 
L 69.798087 219.581928 
L 70.687551 207.227602 
L 72.46648 218.30135 
L 73.355945 217.52348 
L 75.134874 226.593546 
L 76.024338 170.637272 
L 77.803267 179.328577 
L 78.692732 195.710486 
L 80.471661 202.745886 
L 81.361125 104.038414 
L 83.140054 111.753964 
L 84.029519 183.514145 
L 85.808448 187.594377 
L 86.697913 174.529584 
L 88.476842 179.030281 
L 89.366306 129.652735 
L 91.145235 135.5328 
L 92.0347 53.495646 
L 93.813629 59.873303 
L 94.703093 175.086896 
L 96.482022 178.386404 
L 97.371487 134.260506 
L 99.150416 138.243762 
L 100.03988 81.562676 
L 101.818809 86.349035 
L 102.708274 110.269833 
L 104.487203 114.613949 
L 105.376667 48.668997 
L 107.155596 53.47448 
L 108.045061 107.197783 
L 109.82399 111.317695 
L 110.713454 109.399624 
L 112.492383 113.554483 
L 113.381848 52.750317 
L 115.160777 57.450178 
L 116.050241 103.843832 
L 117.82917 107.875528 
L 118.718635 45.923623 
L 120.497564 50.570615 
L 121.387028 134.341106 
L 123.165957 137.602376 
L 124.055422 68.042662 
L 125.834351 72.00624 
L 126.723815 49.904742 
L 128.502744 54.40605 
L 129.392209 77.323381 
L 131.171138 81.375958 
L 132.060602 57.283595 
L 133.839531 61.592039 
L 134.728996 35.747482 
L 136.507925 40.256177 
L 137.397389 58.119544 
L 139.176318 62.413311 
L 140.065783 99.221231 
L 141.844712 103.026377 
L 142.734177 130.087019 
L 144.513106 133.695597 
L 145.40257 71.027069 
L 147.181499 75.138087 
L 148.070964 83.556633 
L 149.849893 87.32832 
L 150.739357 145.654641 
L 152.518286 148.623856 
L 153.407751 135.904844 
L 155.18668 139.136912 
L 156.076144 79.913528 
L 157.855073 83.919917 
L 158.744538 72.295164 
L 160.523467 76.363296 
L 161.412931 51.380684 
L 163.19186 55.602268 
L 164.081325 58.572036 
L 165.860254 62.724318 
L 166.749718 62.133891 
L 168.528647 66.250826 
L 169.418112 59.354754 
L 171.197041 63.488008 
L 172.086505 86.872374 
L 173.865434 90.351778 
L 174.754899 65.13038 
L 176.533828 69.19897 
L 177.423292 80.626277 
L 179.202221 84.533495 
L 180.091686 89.428338 
L 181.870615 93.196323 
L 182.760079 84.176414 
L 184.539008 87.583863 
L 185.428473 66.611877 
L 187.207402 70.637351 
L 188.096866 94.218571 
L 189.875795 98.00671 
L 190.76526 84.928461 
L 192.544189 88.788631 
L 193.433653 78.626576 
L 195.212583 82.537171 
L 196.102047 103.330703 
L 197.880976 107.029177 
L 198.770441 80.0156 
L 200.54937 83.902777 
L 201.438834 93.349832 
L 203.217763 97.099895 
L 204.107228 85.298997 
L 205.886157 89.132638 
L 206.775621 84.016397 
L 208.55455 87.854389 
L 209.444015 101.870755 
L 211.222944 105.546879 
L 212.112408 115.629689 
L 213.891337 119.173966 
L 214.780802 129.971052 
L 216.559731 132.871615 
L 217.449195 120.145369 
L 219.228124 123.666438 
L 220.117589 191.001827 
L 221.896518 193.47574 
L 222.785982 251.556633 
L 224.564911 252.803868 
L 225.454376 225.239201 
L 227.233305 226.831902 
L 228.122769 200.978929 
L 229.901698 201.653935 
L 230.791163 224.493577 
L 232.570092 225.8515 
L 233.459556 159.596534 
L 235.238485 161.551669 
L 236.12795 214.550237 
L 237.906879 216.641418 
L 238.796343 149.275587 
L 240.575272 152.485649 
L 241.464737 176.353846 
L 243.243666 178.492131 
L 244.13313 154.469566 
L 245.912059 157.455252 
L 246.801524 118.664235 
L 248.580453 122.153946 
L 249.469917 137.33769 
L 251.248847 140.618847 
L 252.138311 163.653443 
L 253.91724 166.426988 
L 254.806705 141.656994 
L 256.585634 144.923665 
L 257.475098 151.264352 
L 259.254027 154.385568 
L 260.143492 185.762652 
L 261.922421 187.831235 
L 262.811885 163.248113 
L 264.590814 166.261855 
L 265.480279 142.464315 
L 267.259208 145.694302 
L 268.148672 206.45311 
L 269.927601 208.827728 
L 270.817066 164.940481 
L 272.595995 166.894195 
L 273.485459 146.169831 
L 275.264388 149.363211 
L 276.153853 122.120908 
L 277.932782 125.553761 
L 278.822246 161.637022 
L 280.601175 164.55647 
L 281.49064 135.970481 
L 283.269569 138.578149 
L 284.159033 117.556386 
L 285.937962 121.020617 
L 286.827427 118.451483 
L 288.606356 121.905522 
L 289.49582 124.341167 
L 291.274749 127.741803 
L 292.164214 121.819558 
L 293.943143 125.239967 
L 294.832607 122.722442 
L 296.611536 126.132755 
L 297.501001 119.336885 
L 299.27993 122.074662 
L 300.169394 128.79541 
L 301.948323 132.148101 
L 302.837788 126.144187 
L 304.616717 129.518408 
L 305.506182 127.668379 
L 307.285111 131.027026 
L 308.174575 137.576686 
L 309.953504 140.840608 
L 310.842969 129.977351 
L 312.621898 133.311281 
L 313.511362 131.238671 
L 315.290291 134.559546 
L 316.179756 132.499723 
L 317.958685 135.80741 
L 318.848149 135.199634 
L 320.627078 138.48165 
L 321.516543 135.074659 
L 323.295472 138.355587 
L 324.184936 136.430722 
L 325.963865 139.697603 
L 326.85333 137.799782 
L 328.632259 141.05273 
L 329.521723 140.214872 
L 331.300652 143.443944 
L 332.190117 158.013996 
L 333.969046 161.01957 
L 334.85851 141.196964 
L 336.637439 144.4134 
L 337.526904 142.751178 
L 339.305833 145.95183 
L 340.195297 144.33738 
L 341.974226 147.521752 
L 342.863691 162.459153 
L 344.64262 165.417966 
L 345.532084 164.267021 
L 347.311013 167.195754 
L 348.200478 160.380149 
L 349.979407 163.396077 
L 350.868871 170.57906 
L 352.6478 173.287121 
L 353.537265 151.533427 
L 357.984587 159.283962 
L 358.874052 170.469296 
L 360.652981 173.359285 
L 361.542446 182.508005 
L 363.321375 185.25858 
L 364.210839 166.676481 
L 365.989768 169.490698 
L 366.879233 159.006508 
L 368.658162 162.038478 
L 369.547626 163.12497 
L 371.326555 166.116716 
L 372.21602 166.559407 
L 373.994949 169.510585 
L 374.884413 164.893119 
L 376.663342 167.863021 
L 377.552807 158.181094 
L 379.331736 160.274336 
L 380.2212 184.04174 
L 382.000129 186.673266 
L 382.889594 183.363308 
L 384.668523 186.02165 
L 384.668523 186.02165 
" style="fill:none;stroke:#ff7f0e;stroke-linecap:square;stroke-opacity:0.3;stroke-width:1.5;"/>
   </g>
   <g id="line2d_18">
    <path clip-path="url(#p3d2d50eaca)" d="M 60.013977 276.334125 
L 60.903442 255.142416 
L 61.792906 238.617582 
L 62.682371 226.258618 
L 63.571835 217.56452 
L 65.350764 206.39664 
L 66.240229 207.376782 
L 67.129693 213.456253 
L 68.019158 212.992488 
L 68.908622 212.925633 
L 69.798087 213.110477 
L 70.687551 212.662517 
L 71.577016 218.556313 
L 72.46648 220.615129 
L 73.355945 216.247916 
L 74.245409 208.708035 
L 75.134874 202.33428 
L 76.024338 194.91342 
L 76.913803 197.808146 
L 77.803267 192.906385 
L 78.692732 182.712203 
L 79.582196 165.529584 
L 80.471661 157.82506 
L 81.361125 148.6005 
L 82.25059 144.633541 
L 83.140054 143.479493 
L 84.029519 148.620814 
L 84.918983 164.477978 
L 85.808448 182.341696 
L 86.697913 183.015212 
L 87.587377 182.400478 
L 89.366306 146.069778 
L 90.255771 115.274452 
L 91.145235 96.947009 
L 92.0347 88.621491 
L 92.924164 95.835963 
L 93.813629 110.331731 
L 94.703093 122.708076 
L 95.592558 142.710099 
L 96.482022 159.672327 
L 97.371487 157.463472 
L 98.260951 141.389164 
L 99.150416 115.479556 
L 100.03988 102.970665 
L 100.929345 101.94994 
L 101.818809 101.416258 
L 102.708274 95.151565 
L 103.597738 85.169171 
L 104.487203 83.616616 
L 105.376667 79.249205 
L 106.266132 77.237345 
L 107.155596 76.706441 
L 108.045061 82.2148 
L 109.82399 111.684285 
L 110.713454 111.736501 
L 111.602919 100.285038 
L 112.492383 86.076526 
L 113.381848 79.345701 
L 114.271312 81.632939 
L 115.160777 81.337704 
L 116.050241 79.652232 
L 116.939706 72.012421 
L 117.82917 75.781081 
L 118.718635 77.575772 
L 119.608099 87.202779 
L 120.497564 89.736971 
L 121.387028 94.785951 
L 122.276493 101.901722 
L 123.165957 107.766973 
L 124.055422 100.661277 
L 124.944886 84.633435 
L 125.834351 63.991428 
L 126.723815 55.901579 
L 127.61328 57.366614 
L 128.502744 65.135495 
L 129.392209 66.417093 
L 130.281673 70.24512 
L 131.171138 71.998843 
L 132.060602 67.90776 
L 133.839531 50.556241 
L 135.61846 41.656047 
L 136.507925 45.371171 
L 137.397389 51.515764 
L 138.286854 59.635196 
L 140.065783 87.37765 
L 140.955248 105.938007 
L 141.844712 115.677501 
L 142.734177 119.696654 
L 143.623641 116.284638 
L 144.513106 106.799314 
L 145.40257 98.575167 
L 146.292035 84.70983 
L 147.181499 76.654857 
L 148.070964 79.154664 
L 148.960428 91.271283 
L 149.849893 110.307095 
L 150.739357 122.937252 
L 151.628822 138.581746 
L 152.518286 144.612171 
L 153.407751 142.742552 
L 154.297215 134.058429 
L 155.18668 116.469614 
L 156.076144 102.755684 
L 158.744538 72.744343 
L 159.634002 66.432012 
L 160.523467 66.151602 
L 161.412931 61.302495 
L 162.302396 58.170119 
L 163.19186 57.172588 
L 164.081325 56.401474 
L 164.970789 58.419991 
L 165.860254 62.200008 
L 166.749718 62.886441 
L 167.639183 61.217396 
L 168.528647 61.497879 
L 169.418112 63.636108 
L 170.307576 69.567951 
L 171.197041 73.932669 
L 172.086505 76.589775 
L 172.97597 77.333405 
L 173.865434 78.302701 
L 174.754899 77.733652 
L 175.644363 76.060051 
L 176.533828 73.77254 
L 177.423292 75.25261 
L 178.312757 79.916211 
L 179.202221 86.031728 
L 180.091686 88.4275 
L 180.98115 91.249438 
L 181.870615 90.152089 
L 182.760079 87.66177 
L 183.649544 81.914936 
L 184.539008 77.732234 
L 185.428473 75.962511 
L 186.317937 77.893992 
L 187.207402 80.979261 
L 188.096866 83.543691 
L 189.875795 91.995223 
L 190.76526 91.772461 
L 192.544189 83.413261 
L 193.433653 83.246463 
L 195.212583 92.278686 
L 196.102047 93.892669 
L 196.991512 93.952784 
L 197.880976 94.400158 
L 198.770441 93.009156 
L 199.659905 92.004717 
L 200.54937 88.86193 
L 201.438834 87.965694 
L 202.328299 89.130249 
L 203.217763 91.838171 
L 204.107228 90.94337 
L 204.996692 88.173174 
L 205.886157 86.129989 
L 206.775621 86.430112 
L 207.665086 87.938024 
L 210.333479 101.590044 
L 213.001873 119.79992 
L 213.891337 123.268049 
L 214.780802 126.159656 
L 215.670266 121.903285 
L 216.559731 122.877767 
L 217.449195 129.2069 
L 218.33866 133.99438 
L 219.228124 146.606504 
L 220.117589 166.166247 
L 221.896518 215.162731 
L 222.785982 231.79387 
L 223.675447 242.84345 
L 224.564911 241.180255 
L 225.454376 239.174357 
L 226.34384 229.344436 
L 227.233305 215.88359 
L 228.122769 210.357719 
L 229.012234 214.32864 
L 229.901698 215.896516 
L 230.791163 211.438689 
L 231.680627 200.681742 
L 233.459556 189.685284 
L 234.349021 192.043096 
L 235.238485 189.052517 
L 236.12795 186.920706 
L 237.017414 183.891 
L 237.906879 186.160357 
L 239.685808 175.634329 
L 240.575272 165.453657 
L 241.464737 161.826162 
L 242.354201 165.428854 
L 243.243666 170.279111 
L 244.13313 164.467749 
L 245.912059 141.628456 
L 246.801524 133.658543 
L 247.690988 127.27857 
L 248.580453 127.714981 
L 249.469917 130.27508 
L 250.359382 139.385494 
L 251.248847 150.178324 
L 252.138311 154.840923 
L 253.027776 156.200874 
L 254.806705 153.72496 
L 255.696169 148.824483 
L 256.585634 145.96114 
L 257.475098 148.940939 
L 259.254027 167.546908 
L 261.032956 178.110739 
L 261.922421 178.183402 
L 262.811885 174.567226 
L 263.70135 162.434936 
L 264.590814 153.523715 
L 265.480279 153.27062 
L 267.259208 172.938167 
L 269.038137 186.421095 
L 269.927601 189.9636 
L 270.817066 185.534592 
L 271.70653 177.9376 
L 272.595995 161.967408 
L 274.374924 139.733506 
L 276.153853 133.551386 
L 277.043317 137.196483 
L 277.932782 142.18356 
L 278.822246 144.893575 
L 279.711711 149.621942 
L 280.601175 152.671661 
L 281.49064 149.05456 
L 282.380104 142.029472 
L 283.269569 131.250705 
L 284.159033 124.576349 
L 285.048498 120.376143 
L 285.937962 120.113237 
L 286.827427 118.718589 
L 287.716891 119.917041 
L 288.606356 122.834885 
L 289.49582 123.474961 
L 290.385285 124.363672 
L 291.274749 124.964557 
L 292.164214 124.727859 
L 293.053678 124.988449 
L 293.943143 124.429561 
L 294.832607 123.627743 
L 295.722072 122.518523 
L 296.611536 122.539258 
L 297.501001 122.443685 
L 299.27993 125.080628 
L 300.169394 126.034676 
L 301.948323 129.084999 
L 302.837788 129.346707 
L 304.616717 128.117789 
L 305.506182 128.782354 
L 307.285111 133.878179 
L 308.174575 134.90289 
L 309.06404 135.738488 
L 309.953504 135.941501 
L 310.842969 135.113339 
L 311.732433 134.129923 
L 312.621898 132.555992 
L 313.511362 131.780461 
L 314.400827 132.04294 
L 315.290291 133.378119 
L 316.179756 133.649697 
L 317.958685 135.376996 
L 318.848149 135.65755 
L 320.627078 136.798319 
L 321.516543 136.795167 
L 323.295472 137.366135 
L 324.184936 137.384691 
L 325.074401 137.855876 
L 325.963865 138.596863 
L 326.85333 138.87755 
L 327.742794 138.256551 
L 328.632259 139.410862 
L 329.521723 141.495255 
L 330.411188 146.426789 
L 331.300652 150.000762 
L 332.190117 151.812619 
L 333.079581 152.693091 
L 333.969046 152.284969 
L 334.85851 150.403649 
L 335.747975 147.803138 
L 336.637439 144.154557 
L 337.526904 142.560555 
L 338.416368 141.446072 
L 339.305833 143.978248 
L 340.195297 145.949128 
L 341.084762 149.2091 
L 344.64262 164.376042 
L 345.532084 165.825034 
L 346.421549 165.247397 
L 347.311013 163.681388 
L 348.200478 163.767838 
L 349.089942 166.427362 
L 349.979407 167.392579 
L 350.868871 166.783264 
L 352.6478 163.942197 
L 353.537265 161.173647 
L 354.426729 157.426623 
L 355.316194 154.944501 
L 356.205658 155.112411 
L 357.095123 157.088803 
L 357.984587 162.624663 
L 358.874052 166.922586 
L 359.763517 173.202806 
L 360.652981 177.286867 
L 361.542446 179.247036 
L 362.43191 180.145017 
L 363.321375 177.795564 
L 364.210839 174.609527 
L 365.100304 170.381719 
L 365.989768 165.605905 
L 366.879233 162.498238 
L 367.768697 161.244969 
L 368.658162 162.395003 
L 369.547626 162.483245 
L 370.437091 164.001918 
L 371.326555 166.100419 
L 372.21602 166.700997 
L 373.105484 167.926018 
L 373.994949 167.881548 
L 374.884413 166.871839 
L 375.773878 163.417015 
L 376.663342 162.186022 
L 377.552807 162.868683 
L 378.442271 165.828893 
L 380.2212 174.347243 
L 381.110665 180.725347 
L 382.000129 185.959407 
L 382.889594 188.827758 
L 383.779058 188.108733 
L 384.668523 182.580668 
L 384.668523 182.580668 
" style="fill:none;stroke:#ff7f0e;stroke-linecap:square;stroke-width:1.5;"/>
   </g>
   <g id="line2d_19">
    <path clip-path="url(#p3d2d50eaca)" d="M 60.013977 34.414125 
L 61.792906 40.480963 
L 63.571835 47.612538 
L 64.4613 51.777195 
L 65.350764 56.849614 
L 66.240229 63.50011 
L 67.129693 69.188841 
L 68.019158 74.134388 
L 69.798087 82.833895 
L 71.577016 89.006375 
L 72.46648 92.738831 
L 73.355945 97.174174 
L 75.134874 111.386417 
L 76.913803 120.471626 
L 77.803267 121.457441 
L 78.692732 120.319762 
L 79.582196 118.310515 
L 80.471661 114.098687 
L 81.361125 109.054115 
L 82.25059 107.405547 
L 83.140054 104.830353 
L 84.029519 99.554591 
L 84.918983 91.299259 
L 85.808448 88.245121 
L 86.697913 87.144316 
L 87.587377 89.400754 
L 89.366306 99.024035 
L 90.255771 107.251863 
L 91.145235 117.86458 
L 92.0347 124.414804 
L 92.924164 134.003422 
L 93.813629 135.382429 
L 94.703093 135.799516 
L 95.592558 133.29403 
L 96.482022 127.904058 
L 97.371487 119.859824 
L 98.260951 108.160698 
L 99.150416 101.590546 
L 100.03988 99.263746 
L 100.929345 103.90976 
L 101.818809 116.024999 
L 102.708274 124.242128 
L 103.597738 130.378942 
L 106.266132 153.699769 
L 108.045061 156.535465 
L 108.934525 152.666955 
L 110.713454 148.311961 
L 111.602919 149.541248 
L 112.492383 147.058737 
L 113.381848 146.033031 
L 114.271312 142.413155 
L 115.160777 145.021585 
L 116.050241 145.623577 
L 116.939706 152.598307 
L 118.718635 152.75968 
L 119.608099 147.48568 
L 120.497564 147.287592 
L 121.387028 144.543344 
L 122.276493 142.69104 
L 123.165957 139.70526 
L 124.055422 143.512128 
L 124.944886 151.685226 
L 125.834351 163.219551 
L 126.723815 164.867955 
L 127.61328 160.861751 
L 128.502744 151.913336 
L 129.392209 147.676234 
L 130.281673 144.306432 
L 131.171138 143.054582 
L 132.060602 142.630275 
L 132.950067 142.480174 
L 133.839531 144.811143 
L 134.728996 148.234922 
L 135.61846 156.10209 
L 136.507925 161.663771 
L 137.397389 166.050741 
L 138.286854 168.990398 
L 139.176318 169.71742 
L 140.065783 168.550001 
L 140.955248 163.217941 
L 141.844712 160.274808 
L 142.734177 161.997818 
L 143.623641 167.864455 
L 144.513106 177.431438 
L 145.40257 183.827073 
L 146.292035 191.416632 
L 147.181499 195.400899 
L 148.070964 195.407855 
L 148.960428 196.342675 
L 149.849893 188.312251 
L 150.739357 179.165195 
L 151.628822 162.210672 
L 152.518286 151.341431 
L 153.407751 146.117379 
L 154.297215 147.969876 
L 156.076144 160.957655 
L 156.965609 169.753655 
L 157.855073 180.436192 
L 158.744538 182.073654 
L 159.634002 179.776571 
L 160.523467 170.762399 
L 161.412931 168.263962 
L 162.302396 167.942394 
L 163.19186 170.086226 
L 164.081325 171.765359 
L 164.970789 172.145384 
L 166.749718 174.285429 
L 167.639183 172.482388 
L 168.528647 174.755844 
L 169.418112 178.290967 
L 170.307576 192.560745 
L 171.197041 199.283735 
L 172.086505 198.799435 
L 174.754899 166.410691 
L 175.644363 150.556954 
L 176.533828 139.233914 
L 177.423292 139.543307 
L 178.312757 151.698225 
L 179.202221 172.433081 
L 180.091686 182.536362 
L 180.98115 189.166293 
L 181.870615 191.262927 
L 182.760079 195.943222 
L 183.649544 202.504574 
L 185.428473 192.901313 
L 187.207402 177.897269 
L 188.986331 155.023529 
L 189.875795 145.357955 
L 190.76526 138.888763 
L 191.654724 133.535426 
L 192.544189 139.084479 
L 194.323118 146.431532 
L 195.212583 153.600063 
L 199.659905 202.817446 
L 200.54937 203.605649 
L 201.438834 203.12994 
L 203.217763 184.672881 
L 204.107228 181.60618 
L 204.996692 185.322691 
L 205.886157 186.721552 
L 206.775621 188.551306 
L 207.665086 194.273293 
L 208.55455 197.607962 
L 209.444015 189.350219 
L 211.222944 153.476732 
L 212.112408 143.294484 
L 213.001873 138.9556 
L 213.891337 139.509464 
L 214.780802 137.090871 
L 215.670266 135.276112 
L 216.559731 136.959466 
L 217.449195 136.063014 
L 218.33866 134.921967 
L 219.228124 131.892531 
L 220.117589 138.186363 
L 221.007053 146.377542 
L 221.896518 150.057287 
L 222.785982 147.385363 
L 223.675447 137.818175 
L 224.564911 126.494274 
L 225.454376 118.780507 
L 226.34384 112.91218 
L 227.233305 114.344046 
L 228.122769 127.411034 
L 229.012234 152.944546 
L 229.901698 169.805927 
L 230.791163 175.911839 
L 231.680627 168.232447 
L 233.459556 147.200904 
L 235.238485 132.546384 
L 236.12795 133.147277 
L 237.906879 150.920679 
L 238.796343 150.688292 
L 239.685808 146.937242 
L 240.575272 139.291974 
L 241.464737 138.349571 
L 242.354201 139.439093 
L 244.13313 146.03285 
L 245.912059 151.185882 
L 246.801524 152.901815 
L 247.690988 157.689108 
L 248.580453 157.329379 
L 249.469917 154.0644 
L 250.359382 147.902316 
L 252.138311 130.564339 
L 253.027776 117.854171 
L 253.91724 110.24029 
L 254.806705 109.35195 
L 255.696169 113.568848 
L 257.475098 139.031812 
L 258.364563 156.917095 
L 259.254027 170.1772 
L 260.143492 177.987961 
L 261.032956 179.710794 
L 262.811885 168.779727 
L 263.70135 163.996581 
L 265.480279 145.80594 
L 266.369743 138.420334 
L 267.259208 135.470798 
L 268.148672 129.09149 
L 269.038137 121.794566 
L 269.927601 118.754319 
L 270.817066 119.695765 
L 271.70653 124.563767 
L 273.485459 146.076771 
L 274.374924 159.604613 
L 275.264388 169.270986 
L 276.153853 175.140479 
L 277.932782 167.746294 
L 278.822246 168.635679 
L 281.49064 188.476477 
L 283.269569 207.057933 
L 284.159033 209.300661 
L 285.048498 208.814326 
L 285.937962 198.750693 
L 286.827427 191.139846 
L 287.716891 180.475719 
L 289.49582 171.720826 
L 290.385285 172.339438 
L 291.274749 174.42463 
L 292.164214 176.053204 
L 293.053678 176.813902 
L 293.943143 181.092832 
L 294.832607 182.328759 
L 295.722072 182.407841 
L 296.611536 181.452631 
L 297.501001 186.166226 
L 298.390465 197.124919 
L 299.27993 204.881579 
L 300.169394 205.414308 
L 301.948323 188.129313 
L 302.837788 183.820726 
L 303.727252 185.652976 
L 304.616717 186.060357 
L 305.506182 186.902014 
L 306.395646 184.931594 
L 307.285111 189.572512 
L 308.174575 190.571665 
L 309.06404 193.278635 
L 309.953504 190.587549 
L 310.842969 192.547946 
L 312.621898 202.355881 
L 313.511362 198.983616 
L 314.400827 185.433677 
L 315.290291 174.412854 
L 316.179756 174.059917 
L 317.06922 182.641166 
L 317.958685 194.372024 
L 318.848149 203.047784 
L 319.737614 214.034392 
L 320.627078 220.176272 
L 321.516543 217.258359 
L 322.406007 203.220169 
L 323.295472 186.826299 
L 324.184936 181.338259 
L 325.074401 180.646329 
L 325.963865 186.85037 
L 326.85333 193.995083 
L 327.742794 204.701852 
L 328.632259 217.427372 
L 329.521723 223.991034 
L 330.411188 229.569394 
L 332.190117 220.084376 
L 333.969046 198.907316 
L 335.747975 185.537366 
L 336.637439 185.396047 
L 337.526904 190.014577 
L 339.305833 215.344031 
L 340.195297 221.059714 
L 341.084762 224.297507 
L 341.974226 219.513168 
L 342.863691 213.378832 
L 343.753155 200.54177 
L 344.64262 189.45996 
L 345.532084 185.108206 
L 346.421549 185.654833 
L 348.200478 198.217425 
L 349.979407 216.870451 
L 350.868871 220.00168 
L 351.758336 220.562637 
L 352.6478 213.455394 
L 353.537265 207.317418 
L 356.205658 184.542897 
L 357.095123 179.778965 
L 357.984587 176.824297 
L 358.874052 172.879319 
L 359.763517 166.611538 
L 360.652981 166.897071 
L 361.542446 168.36002 
L 362.43191 171.126319 
L 363.321375 177.137198 
L 365.100304 192.634108 
L 365.989768 202.03801 
L 366.879233 209.790007 
L 367.768697 219.226687 
L 368.658162 219.485012 
L 369.547626 218.999782 
L 371.326555 203.266071 
L 372.21602 197.982187 
L 373.105484 190.357128 
L 373.994949 189.708009 
L 374.884413 197.508475 
L 375.773878 219.174783 
L 376.663342 237.967558 
L 377.552807 244.568424 
L 378.442271 239.83446 
L 379.331736 229.194193 
L 380.2212 220.13365 
L 381.110665 202.545426 
L 382.000129 190.131165 
L 382.889594 187.983655 
L 383.779058 201.195687 
L 384.668523 234.860047 
L 384.668523 234.860047 
" style="fill:none;stroke:#008000;stroke-linecap:square;stroke-width:1.5;"/>
   </g>
   <g id="patch_3">
    <path d="M 43.78125 288.430125 
L 43.78125 22.318125 
" style="fill:none;stroke:#000000;stroke-linecap:square;stroke-linejoin:miter;stroke-width:0.8;"/>
   </g>
   <g id="patch_4">
    <path d="M 400.90125 288.430125 
L 400.90125 22.318125 
" style="fill:none;stroke:#000000;stroke-linecap:square;stroke-linejoin:miter;stroke-width:0.8;"/>
   </g>
   <g id="patch_5">
    <path d="M 43.78125 288.430125 
L 400.90125 288.430125 
" style="fill:none;stroke:#000000;stroke-linecap:square;stroke-linejoin:miter;stroke-width:0.8;"/>
   </g>
   <g id="patch_6">
    <path d="M 43.78125 22.318125 
L 400.90125 22.318125 
" style="fill:none;stroke:#000000;stroke-linecap:square;stroke-linejoin:miter;stroke-width:0.8;"/>
   </g>
   <g id="text_17">
    <!-- Entropy and Loss. -->
    <defs>
     <path d="M 9.1875 72.90625 
L 59.90625 72.90625 
L 59.90625 58.6875 
L 27.984375 58.6875 
L 27.984375 45.125 
L 58.015625 45.125 
L 58.015625 30.90625 
L 27.984375 30.90625 
L 27.984375 14.203125 
L 60.984375 14.203125 
L 60.984375 0 
L 9.1875 0 
z
" id="DejaVuSans-Bold-69"/>
     <path d="M 63.375 33.296875 
L 63.375 0 
L 45.796875 0 
L 45.796875 5.421875 
L 45.796875 25.484375 
Q 45.796875 32.5625 45.484375 35.25 
Q 45.171875 37.9375 44.390625 39.203125 
Q 43.359375 40.921875 41.59375 41.875 
Q 39.84375 42.828125 37.59375 42.828125 
Q 32.125 42.828125 29 38.59375 
Q 25.875 34.375 25.875 26.90625 
L 25.875 0 
L 8.40625 0 
L 8.40625 54.6875 
L 25.875 54.6875 
L 25.875 46.6875 
Q 29.828125 51.46875 34.265625 53.734375 
Q 38.71875 56 44.09375 56 
Q 53.5625 56 58.46875 50.1875 
Q 63.375 44.390625 63.375 33.296875 
z
" id="DejaVuSans-Bold-110"/>
     <path d="M 27.484375 70.21875 
L 27.484375 54.6875 
L 45.515625 54.6875 
L 45.515625 42.1875 
L 27.484375 42.1875 
L 27.484375 19 
Q 27.484375 15.1875 29 13.84375 
Q 30.515625 12.5 35.015625 12.5 
L 44 12.5 
L 44 0 
L 29 0 
Q 18.65625 0 14.328125 4.3125 
Q 10.015625 8.640625 10.015625 19 
L 10.015625 42.1875 
L 1.3125 42.1875 
L 1.3125 54.6875 
L 10.015625 54.6875 
L 10.015625 70.21875 
z
" id="DejaVuSans-Bold-116"/>
     <path d="M 49.03125 39.796875 
Q 46.734375 40.875 44.453125 41.375 
Q 42.1875 41.890625 39.890625 41.890625 
Q 33.15625 41.890625 29.515625 37.5625 
Q 25.875 33.25 25.875 25.203125 
L 25.875 0 
L 8.40625 0 
L 8.40625 54.6875 
L 25.875 54.6875 
L 25.875 45.703125 
Q 29.25 51.078125 33.609375 53.53125 
Q 37.984375 56 44.09375 56 
Q 44.96875 56 45.984375 55.921875 
Q 47.015625 55.859375 48.96875 55.609375 
z
" id="DejaVuSans-Bold-114"/>
     <path d="M 34.421875 43.5 
Q 28.609375 43.5 25.5625 39.328125 
Q 22.515625 35.15625 22.515625 27.296875 
Q 22.515625 19.4375 25.5625 15.25 
Q 28.609375 11.078125 34.421875 11.078125 
Q 40.140625 11.078125 43.15625 15.25 
Q 46.1875 19.4375 46.1875 27.296875 
Q 46.1875 35.15625 43.15625 39.328125 
Q 40.140625 43.5 34.421875 43.5 
z
M 34.421875 56 
Q 48.53125 56 56.46875 48.375 
Q 64.40625 40.765625 64.40625 27.296875 
Q 64.40625 13.8125 56.46875 6.1875 
Q 48.53125 -1.421875 34.421875 -1.421875 
Q 20.265625 -1.421875 12.28125 6.1875 
Q 4.296875 13.8125 4.296875 27.296875 
Q 4.296875 40.765625 12.28125 48.375 
Q 20.265625 56 34.421875 56 
z
" id="DejaVuSans-Bold-111"/>
     <path d="M 25.875 7.90625 
L 25.875 -20.796875 
L 8.40625 -20.796875 
L 8.40625 54.6875 
L 25.875 54.6875 
L 25.875 46.6875 
Q 29.5 51.46875 33.890625 53.734375 
Q 38.28125 56 44 56 
Q 54.109375 56 60.59375 47.96875 
Q 67.09375 39.9375 67.09375 27.296875 
Q 67.09375 14.65625 60.59375 6.609375 
Q 54.109375 -1.421875 44 -1.421875 
Q 38.28125 -1.421875 33.890625 0.84375 
Q 29.5 3.125 25.875 7.90625 
z
M 37.5 43.3125 
Q 31.890625 43.3125 28.875 39.1875 
Q 25.875 35.0625 25.875 27.296875 
Q 25.875 19.53125 28.875 15.40625 
Q 31.890625 11.28125 37.5 11.28125 
Q 43.109375 11.28125 46.0625 15.375 
Q 49.03125 19.484375 49.03125 27.296875 
Q 49.03125 35.109375 46.0625 39.203125 
Q 43.109375 43.3125 37.5 43.3125 
z
" id="DejaVuSans-Bold-112"/>
     <path d="M 1.21875 54.6875 
L 18.703125 54.6875 
L 33.40625 17.578125 
L 45.90625 54.6875 
L 63.375 54.6875 
L 40.375 -5.171875 
Q 36.921875 -14.3125 32.296875 -17.9375 
Q 27.6875 -21.578125 20.125 -21.578125 
L 10.015625 -21.578125 
L 10.015625 -10.109375 
L 15.484375 -10.109375 
Q 19.921875 -10.109375 21.9375 -8.6875 
Q 23.96875 -7.28125 25.09375 -3.609375 
L 25.59375 -2.09375 
z
" id="DejaVuSans-Bold-121"/>
     <path id="DejaVuSans-Bold-32"/>
     <path d="M 32.90625 24.609375 
Q 27.4375 24.609375 24.671875 22.75 
Q 21.921875 20.90625 21.921875 17.28125 
Q 21.921875 13.96875 24.140625 12.078125 
Q 26.375 10.203125 30.328125 10.203125 
Q 35.25 10.203125 38.625 13.734375 
Q 42 17.28125 42 22.609375 
L 42 24.609375 
z
M 59.625 31.203125 
L 59.625 0 
L 42 0 
L 42 8.109375 
Q 38.484375 3.125 34.078125 0.84375 
Q 29.6875 -1.421875 23.390625 -1.421875 
Q 14.890625 -1.421875 9.59375 3.53125 
Q 4.296875 8.5 4.296875 16.40625 
Q 4.296875 26.03125 10.90625 30.515625 
Q 17.53125 35.015625 31.6875 35.015625 
L 42 35.015625 
L 42 36.375 
Q 42 40.53125 38.71875 42.453125 
Q 35.453125 44.390625 28.515625 44.390625 
Q 22.90625 44.390625 18.0625 43.265625 
Q 13.234375 42.140625 9.078125 39.890625 
L 9.078125 53.21875 
Q 14.703125 54.59375 20.359375 55.296875 
Q 26.03125 56 31.6875 56 
Q 46.484375 56 53.046875 50.171875 
Q 59.625 44.34375 59.625 31.203125 
z
" id="DejaVuSans-Bold-97"/>
     <path d="M 45.609375 46.6875 
L 45.609375 75.984375 
L 63.1875 75.984375 
L 63.1875 0 
L 45.609375 0 
L 45.609375 7.90625 
Q 42 3.078125 37.640625 0.828125 
Q 33.296875 -1.421875 27.59375 -1.421875 
Q 17.484375 -1.421875 10.984375 6.609375 
Q 4.5 14.65625 4.5 27.296875 
Q 4.5 39.9375 10.984375 47.96875 
Q 17.484375 56 27.59375 56 
Q 33.25 56 37.625 53.734375 
Q 42 51.46875 45.609375 46.6875 
z
M 34.078125 11.28125 
Q 39.703125 11.28125 42.65625 15.375 
Q 45.609375 19.484375 45.609375 27.296875 
Q 45.609375 35.109375 42.65625 39.203125 
Q 39.703125 43.3125 34.078125 43.3125 
Q 28.515625 43.3125 25.5625 39.203125 
Q 22.609375 35.109375 22.609375 27.296875 
Q 22.609375 19.484375 25.5625 15.375 
Q 28.515625 11.28125 34.078125 11.28125 
z
" id="DejaVuSans-Bold-100"/>
     <path d="M 9.1875 72.90625 
L 27.984375 72.90625 
L 27.984375 14.203125 
L 60.984375 14.203125 
L 60.984375 0 
L 9.1875 0 
z
" id="DejaVuSans-Bold-76"/>
     <path d="M 51.125 52.984375 
L 51.125 39.703125 
Q 45.515625 42.046875 40.28125 43.21875 
Q 35.0625 44.390625 30.421875 44.390625 
Q 25.4375 44.390625 23.015625 43.140625 
Q 20.609375 41.890625 20.609375 39.3125 
Q 20.609375 37.203125 22.4375 36.078125 
Q 24.265625 34.96875 29 34.421875 
L 32.078125 33.984375 
Q 45.515625 32.28125 50.140625 28.375 
Q 54.78125 24.46875 54.78125 16.109375 
Q 54.78125 7.375 48.328125 2.96875 
Q 41.890625 -1.421875 29.109375 -1.421875 
Q 23.6875 -1.421875 17.890625 -0.5625 
Q 12.109375 0.296875 6 2 
L 6 15.28125 
Q 11.234375 12.75 16.71875 11.46875 
Q 22.21875 10.203125 27.875 10.203125 
Q 33.015625 10.203125 35.59375 11.609375 
Q 38.1875 13.03125 38.1875 15.828125 
Q 38.1875 18.171875 36.40625 19.3125 
Q 34.625 20.453125 29.296875 21.09375 
L 26.21875 21.484375 
Q 14.546875 22.953125 9.859375 26.90625 
Q 5.171875 30.859375 5.171875 38.921875 
Q 5.171875 47.609375 11.125 51.796875 
Q 17.09375 56 29.390625 56 
Q 34.234375 56 39.546875 55.265625 
Q 44.875 54.546875 51.125 52.984375 
z
" id="DejaVuSans-Bold-115"/>
     <path d="M 10.203125 18.890625 
L 27.78125 18.890625 
L 27.78125 0 
L 10.203125 0 
z
" id="DejaVuSans-Bold-46"/>
    </defs>
    <g transform="translate(161.657813 16.318125)scale(0.12 -0.12)">
     <use xlink:href="#DejaVuSans-Bold-69"/>
     <use x="68.310547" xlink:href="#DejaVuSans-Bold-110"/>
     <use x="139.501953" xlink:href="#DejaVuSans-Bold-116"/>
     <use x="187.304688" xlink:href="#DejaVuSans-Bold-114"/>
     <use x="236.621094" xlink:href="#DejaVuSans-Bold-111"/>
     <use x="305.322266" xlink:href="#DejaVuSans-Bold-112"/>
     <use x="376.904297" xlink:href="#DejaVuSans-Bold-121"/>
     <use x="442.089844" xlink:href="#DejaVuSans-Bold-32"/>
     <use x="476.904297" xlink:href="#DejaVuSans-Bold-97"/>
     <use x="544.384766" xlink:href="#DejaVuSans-Bold-110"/>
     <use x="615.576172" xlink:href="#DejaVuSans-Bold-100"/>
     <use x="687.158203" xlink:href="#DejaVuSans-Bold-32"/>
     <use x="721.972656" xlink:href="#DejaVuSans-Bold-76"/>
     <use x="785.693359" xlink:href="#DejaVuSans-Bold-111"/>
     <use x="854.394531" xlink:href="#DejaVuSans-Bold-115"/>
     <use x="913.916016" xlink:href="#DejaVuSans-Bold-115"/>
     <use x="973.4375" xlink:href="#DejaVuSans-Bold-46"/>
    </g>
   </g>
   <g id="legend_1">
    <g id="patch_7">
     <path d="M 18.982656 353.02505 
L 429.699844 353.02505 
Q 431.699844 353.02505 431.699844 351.02505 
L 431.699844 337.346925 
Q 431.699844 335.346925 429.699844 335.346925 
L 18.982656 335.346925 
Q 16.982656 335.346925 16.982656 337.346925 
L 16.982656 351.02505 
Q 16.982656 353.02505 18.982656 353.02505 
z
" style="fill:#4c4c4c;opacity:0.5;stroke:#4c4c4c;stroke-linejoin:miter;"/>
    </g>
    <g id="patch_8">
     <path d="M 16.982656 351.02505 
L 427.699844 351.02505 
Q 429.699844 351.02505 429.699844 349.02505 
L 429.699844 335.346925 
Q 429.699844 333.346925 427.699844 333.346925 
L 16.982656 333.346925 
Q 14.982656 333.346925 14.982656 335.346925 
L 14.982656 349.02505 
Q 14.982656 351.02505 16.982656 351.02505 
z
" style="fill:#ffffff;stroke:#cccccc;stroke-linejoin:miter;"/>
    </g>
    <g id="line2d_20">
     <path d="M 18.982656 341.445362 
L 38.982656 341.445362 
" style="fill:none;stroke:#1f77b4;stroke-linecap:square;stroke-opacity:0.3;stroke-width:1.5;"/>
    </g>
    <g id="line2d_21"/>
    <g id="text_18">
     <!-- Policy Loss (Normalized) -->
     <defs>
      <path d="M 19.671875 64.796875 
L 19.671875 37.40625 
L 32.078125 37.40625 
Q 38.96875 37.40625 42.71875 40.96875 
Q 46.484375 44.53125 46.484375 51.125 
Q 46.484375 57.671875 42.71875 61.234375 
Q 38.96875 64.796875 32.078125 64.796875 
z
M 9.8125 72.90625 
L 32.078125 72.90625 
Q 44.34375 72.90625 50.609375 67.359375 
Q 56.890625 61.8125 56.890625 51.125 
Q 56.890625 40.328125 50.609375 34.8125 
Q 44.34375 29.296875 32.078125 29.296875 
L 19.671875 29.296875 
L 19.671875 0 
L 9.8125 0 
z
" id="DejaVuSans-80"/>
      <path d="M 9.421875 75.984375 
L 18.40625 75.984375 
L 18.40625 0 
L 9.421875 0 
z
" id="DejaVuSans-108"/>
      <path d="M 9.421875 54.6875 
L 18.40625 54.6875 
L 18.40625 0 
L 9.421875 0 
z
M 9.421875 75.984375 
L 18.40625 75.984375 
L 18.40625 64.59375 
L 9.421875 64.59375 
z
" id="DejaVuSans-105"/>
      <path d="M 32.171875 -5.078125 
Q 28.375 -14.84375 24.75 -17.8125 
Q 21.140625 -20.796875 15.09375 -20.796875 
L 7.90625 -20.796875 
L 7.90625 -13.28125 
L 13.1875 -13.28125 
Q 16.890625 -13.28125 18.9375 -11.515625 
Q 21 -9.765625 23.484375 -3.21875 
L 25.09375 0.875 
L 2.984375 54.6875 
L 12.5 54.6875 
L 29.59375 11.921875 
L 46.6875 54.6875 
L 56.203125 54.6875 
z
" id="DejaVuSans-121"/>
      <path id="DejaVuSans-32"/>
      <path d="M 31 75.875 
Q 24.46875 64.65625 21.28125 53.65625 
Q 18.109375 42.671875 18.109375 31.390625 
Q 18.109375 20.125 21.3125 9.0625 
Q 24.515625 -2 31 -13.1875 
L 23.1875 -13.1875 
Q 15.875 -1.703125 12.234375 9.375 
Q 8.59375 20.453125 8.59375 31.390625 
Q 8.59375 42.28125 12.203125 53.3125 
Q 15.828125 64.359375 23.1875 75.875 
z
" id="DejaVuSans-40"/>
      <path d="M 9.8125 72.90625 
L 23.09375 72.90625 
L 55.421875 11.921875 
L 55.421875 72.90625 
L 64.984375 72.90625 
L 64.984375 0 
L 51.703125 0 
L 19.390625 60.984375 
L 19.390625 0 
L 9.8125 0 
z
" id="DejaVuSans-78"/>
      <path d="M 41.109375 46.296875 
Q 39.59375 47.171875 37.8125 47.578125 
Q 36.03125 48 33.890625 48 
Q 26.265625 48 22.1875 43.046875 
Q 18.109375 38.09375 18.109375 28.8125 
L 18.109375 0 
L 9.078125 0 
L 9.078125 54.6875 
L 18.109375 54.6875 
L 18.109375 46.1875 
Q 20.953125 51.171875 25.484375 53.578125 
Q 30.03125 56 36.53125 56 
Q 37.453125 56 38.578125 55.875 
Q 39.703125 55.765625 41.0625 55.515625 
z
" id="DejaVuSans-114"/>
      <path d="M 52 44.1875 
Q 55.375 50.25 60.0625 53.125 
Q 64.75 56 71.09375 56 
Q 79.640625 56 84.28125 50.015625 
Q 88.921875 44.046875 88.921875 33.015625 
L 88.921875 0 
L 79.890625 0 
L 79.890625 32.71875 
Q 79.890625 40.578125 77.09375 44.375 
Q 74.3125 48.1875 68.609375 48.1875 
Q 61.625 48.1875 57.5625 43.546875 
Q 53.515625 38.921875 53.515625 30.90625 
L 53.515625 0 
L 44.484375 0 
L 44.484375 32.71875 
Q 44.484375 40.625 41.703125 44.40625 
Q 38.921875 48.1875 33.109375 48.1875 
Q 26.21875 48.1875 22.15625 43.53125 
Q 18.109375 38.875 18.109375 30.90625 
L 18.109375 0 
L 9.078125 0 
L 9.078125 54.6875 
L 18.109375 54.6875 
L 18.109375 46.1875 
Q 21.1875 51.21875 25.484375 53.609375 
Q 29.78125 56 35.6875 56 
Q 41.65625 56 45.828125 52.96875 
Q 50 49.953125 52 44.1875 
z
" id="DejaVuSans-109"/>
      <path d="M 34.28125 27.484375 
Q 23.390625 27.484375 19.1875 25 
Q 14.984375 22.515625 14.984375 16.5 
Q 14.984375 11.71875 18.140625 8.90625 
Q 21.296875 6.109375 26.703125 6.109375 
Q 34.1875 6.109375 38.703125 11.40625 
Q 43.21875 16.703125 43.21875 25.484375 
L 43.21875 27.484375 
z
M 52.203125 31.203125 
L 52.203125 0 
L 43.21875 0 
L 43.21875 8.296875 
Q 40.140625 3.328125 35.546875 0.953125 
Q 30.953125 -1.421875 24.3125 -1.421875 
Q 15.921875 -1.421875 10.953125 3.296875 
Q 6 8.015625 6 15.921875 
Q 6 25.140625 12.171875 29.828125 
Q 18.359375 34.515625 30.609375 34.515625 
L 43.21875 34.515625 
L 43.21875 35.40625 
Q 43.21875 41.609375 39.140625 45 
Q 35.0625 48.390625 27.6875 48.390625 
Q 23 48.390625 18.546875 47.265625 
Q 14.109375 46.140625 10.015625 43.890625 
L 10.015625 52.203125 
Q 14.9375 54.109375 19.578125 55.046875 
Q 24.21875 56 28.609375 56 
Q 40.484375 56 46.34375 49.84375 
Q 52.203125 43.703125 52.203125 31.203125 
z
" id="DejaVuSans-97"/>
      <path d="M 5.515625 54.6875 
L 48.1875 54.6875 
L 48.1875 46.484375 
L 14.40625 7.171875 
L 48.1875 7.171875 
L 48.1875 0 
L 4.296875 0 
L 4.296875 8.203125 
L 38.09375 47.515625 
L 5.515625 47.515625 
z
" id="DejaVuSans-122"/>
      <path d="M 56.203125 29.59375 
L 56.203125 25.203125 
L 14.890625 25.203125 
Q 15.484375 15.921875 20.484375 11.0625 
Q 25.484375 6.203125 34.421875 6.203125 
Q 39.59375 6.203125 44.453125 7.46875 
Q 49.3125 8.734375 54.109375 11.28125 
L 54.109375 2.78125 
Q 49.265625 0.734375 44.1875 -0.34375 
Q 39.109375 -1.421875 33.890625 -1.421875 
Q 20.796875 -1.421875 13.15625 6.1875 
Q 5.515625 13.8125 5.515625 26.8125 
Q 5.515625 40.234375 12.765625 48.109375 
Q 20.015625 56 32.328125 56 
Q 43.359375 56 49.78125 48.890625 
Q 56.203125 41.796875 56.203125 29.59375 
z
M 47.21875 32.234375 
Q 47.125 39.59375 43.09375 43.984375 
Q 39.0625 48.390625 32.421875 48.390625 
Q 24.90625 48.390625 20.390625 44.140625 
Q 15.875 39.890625 15.1875 32.171875 
z
" id="DejaVuSans-101"/>
      <path d="M 45.40625 46.390625 
L 45.40625 75.984375 
L 54.390625 75.984375 
L 54.390625 0 
L 45.40625 0 
L 45.40625 8.203125 
Q 42.578125 3.328125 38.25 0.953125 
Q 33.9375 -1.421875 27.875 -1.421875 
Q 17.96875 -1.421875 11.734375 6.484375 
Q 5.515625 14.40625 5.515625 27.296875 
Q 5.515625 40.1875 11.734375 48.09375 
Q 17.96875 56 27.875 56 
Q 33.9375 56 38.25 53.625 
Q 42.578125 51.265625 45.40625 46.390625 
z
M 14.796875 27.296875 
Q 14.796875 17.390625 18.875 11.75 
Q 22.953125 6.109375 30.078125 6.109375 
Q 37.203125 6.109375 41.296875 11.75 
Q 45.40625 17.390625 45.40625 27.296875 
Q 45.40625 37.203125 41.296875 42.84375 
Q 37.203125 48.484375 30.078125 48.484375 
Q 22.953125 48.484375 18.875 42.84375 
Q 14.796875 37.203125 14.796875 27.296875 
z
" id="DejaVuSans-100"/>
      <path d="M 8.015625 75.875 
L 15.828125 75.875 
Q 23.140625 64.359375 26.78125 53.3125 
Q 30.421875 42.28125 30.421875 31.390625 
Q 30.421875 20.453125 26.78125 9.375 
Q 23.140625 -1.703125 15.828125 -13.1875 
L 8.015625 -13.1875 
Q 14.5 -2 17.703125 9.0625 
Q 20.90625 20.125 20.90625 31.390625 
Q 20.90625 42.671875 17.703125 53.65625 
Q 14.5 64.65625 8.015625 75.875 
z
" id="DejaVuSans-41"/>
     </defs>
     <g transform="translate(46.982656 344.945362)scale(0.1 -0.1)">
      <use xlink:href="#DejaVuSans-80"/>
      <use x="60.255859" xlink:href="#DejaVuSans-111"/>
      <use x="121.4375" xlink:href="#DejaVuSans-108"/>
      <use x="149.220703" xlink:href="#DejaVuSans-105"/>
      <use x="177.003906" xlink:href="#DejaVuSans-99"/>
      <use x="231.984375" xlink:href="#DejaVuSans-121"/>
      <use x="291.164062" xlink:href="#DejaVuSans-32"/>
      <use x="322.951172" xlink:href="#DejaVuSans-76"/>
      <use x="378.648438" xlink:href="#DejaVuSans-111"/>
      <use x="439.830078" xlink:href="#DejaVuSans-115"/>
      <use x="491.929688" xlink:href="#DejaVuSans-115"/>
      <use x="544.029297" xlink:href="#DejaVuSans-32"/>
      <use x="575.816406" xlink:href="#DejaVuSans-40"/>
      <use x="614.830078" xlink:href="#DejaVuSans-78"/>
      <use x="689.634766" xlink:href="#DejaVuSans-111"/>
      <use x="750.816406" xlink:href="#DejaVuSans-114"/>
      <use x="791.914062" xlink:href="#DejaVuSans-109"/>
      <use x="889.326172" xlink:href="#DejaVuSans-97"/>
      <use x="950.605469" xlink:href="#DejaVuSans-108"/>
      <use x="978.388672" xlink:href="#DejaVuSans-105"/>
      <use x="1006.171875" xlink:href="#DejaVuSans-122"/>
      <use x="1058.662109" xlink:href="#DejaVuSans-101"/>
      <use x="1120.185547" xlink:href="#DejaVuSans-100"/>
      <use x="1183.662109" xlink:href="#DejaVuSans-41"/>
     </g>
    </g>
    <g id="line2d_22">
     <path d="M 189.251406 341.445362 
L 209.251406 341.445362 
" style="fill:none;stroke:#ff7f0e;stroke-linecap:square;stroke-opacity:0.3;stroke-width:1.5;"/>
    </g>
    <g id="line2d_23"/>
    <g id="text_19">
     <!-- Value Loss (Normalized) -->
     <defs>
      <path d="M 28.609375 0 
L 0.78125 72.90625 
L 11.078125 72.90625 
L 34.1875 11.53125 
L 57.328125 72.90625 
L 67.578125 72.90625 
L 39.796875 0 
z
" id="DejaVuSans-86"/>
      <path d="M 8.5 21.578125 
L 8.5 54.6875 
L 17.484375 54.6875 
L 17.484375 21.921875 
Q 17.484375 14.15625 20.5 10.265625 
Q 23.53125 6.390625 29.59375 6.390625 
Q 36.859375 6.390625 41.078125 11.03125 
Q 45.3125 15.671875 45.3125 23.6875 
L 45.3125 54.6875 
L 54.296875 54.6875 
L 54.296875 0 
L 45.3125 0 
L 45.3125 8.40625 
Q 42.046875 3.421875 37.71875 1 
Q 33.40625 -1.421875 27.6875 -1.421875 
Q 18.265625 -1.421875 13.375 4.4375 
Q 8.5 10.296875 8.5 21.578125 
z
M 31.109375 56 
z
" id="DejaVuSans-117"/>
     </defs>
     <g transform="translate(217.251406 344.945362)scale(0.1 -0.1)">
      <use xlink:href="#DejaVuSans-86"/>
      <use x="68.298828" xlink:href="#DejaVuSans-97"/>
      <use x="129.578125" xlink:href="#DejaVuSans-108"/>
      <use x="157.361328" xlink:href="#DejaVuSans-117"/>
      <use x="220.740234" xlink:href="#DejaVuSans-101"/>
      <use x="282.263672" xlink:href="#DejaVuSans-32"/>
      <use x="314.050781" xlink:href="#DejaVuSans-76"/>
      <use x="369.748047" xlink:href="#DejaVuSans-111"/>
      <use x="430.929688" xlink:href="#DejaVuSans-115"/>
      <use x="483.029297" xlink:href="#DejaVuSans-115"/>
      <use x="535.128906" xlink:href="#DejaVuSans-32"/>
      <use x="566.916016" xlink:href="#DejaVuSans-40"/>
      <use x="605.929688" xlink:href="#DejaVuSans-78"/>
      <use x="680.734375" xlink:href="#DejaVuSans-111"/>
      <use x="741.916016" xlink:href="#DejaVuSans-114"/>
      <use x="783.013672" xlink:href="#DejaVuSans-109"/>
      <use x="880.425781" xlink:href="#DejaVuSans-97"/>
      <use x="941.705078" xlink:href="#DejaVuSans-108"/>
      <use x="969.488281" xlink:href="#DejaVuSans-105"/>
      <use x="997.271484" xlink:href="#DejaVuSans-122"/>
      <use x="1049.761719" xlink:href="#DejaVuSans-101"/>
      <use x="1111.285156" xlink:href="#DejaVuSans-100"/>
      <use x="1174.761719" xlink:href="#DejaVuSans-41"/>
     </g>
    </g>
    <g id="line2d_24">
     <path d="M 358.629531 341.445362 
L 378.629531 341.445362 
" style="fill:none;stroke:#008000;stroke-linecap:square;stroke-opacity:0.3;stroke-width:1.5;"/>
    </g>
    <g id="line2d_25"/>
    <g id="text_20">
     <!-- Entropy -->
     <defs>
      <path d="M 54.890625 33.015625 
L 54.890625 0 
L 45.90625 0 
L 45.90625 32.71875 
Q 45.90625 40.484375 42.875 44.328125 
Q 39.84375 48.1875 33.796875 48.1875 
Q 26.515625 48.1875 22.3125 43.546875 
Q 18.109375 38.921875 18.109375 30.90625 
L 18.109375 0 
L 9.078125 0 
L 9.078125 54.6875 
L 18.109375 54.6875 
L 18.109375 46.1875 
Q 21.34375 51.125 25.703125 53.5625 
Q 30.078125 56 35.796875 56 
Q 45.21875 56 50.046875 50.171875 
Q 54.890625 44.34375 54.890625 33.015625 
z
" id="DejaVuSans-110"/>
      <path d="M 18.3125 70.21875 
L 18.3125 54.6875 
L 36.8125 54.6875 
L 36.8125 47.703125 
L 18.3125 47.703125 
L 18.3125 18.015625 
Q 18.3125 11.328125 20.140625 9.421875 
Q 21.96875 7.515625 27.59375 7.515625 
L 36.8125 7.515625 
L 36.8125 0 
L 27.59375 0 
Q 17.1875 0 13.234375 3.875 
Q 9.28125 7.765625 9.28125 18.015625 
L 9.28125 47.703125 
L 2.6875 47.703125 
L 2.6875 54.6875 
L 9.28125 54.6875 
L 9.28125 70.21875 
z
" id="DejaVuSans-116"/>
     </defs>
     <g transform="translate(386.629531 344.945362)scale(0.1 -0.1)">
      <use xlink:href="#DejaVuSans-69"/>
      <use x="63.183594" xlink:href="#DejaVuSans-110"/>
      <use x="126.5625" xlink:href="#DejaVuSans-116"/>
      <use x="165.771484" xlink:href="#DejaVuSans-114"/>
      <use x="206.853516" xlink:href="#DejaVuSans-111"/>
      <use x="268.035156" xlink:href="#DejaVuSans-112"/>
      <use x="331.511719" xlink:href="#DejaVuSans-121"/>
     </g>
    </g>
   </g>
  </g>
  <g id="axes_2">
   <g id="matplotlib.axis_3">
    <g id="ytick_7">
     <g id="line2d_26">
      <defs>
       <path d="M 0 0 
L 3.5 0 
" id="ma841b2543a" style="stroke:#000000;stroke-width:0.8;"/>
      </defs>
      <g>
       <use style="stroke:#000000;stroke-width:0.8;" x="400.90125" xlink:href="#ma841b2543a" y="266.46404"/>
      </g>
     </g>
     <g id="text_21">
      <!-- 0.45 -->
      <g transform="translate(407.90125 270.263259)scale(0.1 -0.1)">
       <use xlink:href="#DejaVuSans-48"/>
       <use x="63.623047" xlink:href="#DejaVuSans-46"/>
       <use x="95.410156" xlink:href="#DejaVuSans-52"/>
       <use x="159.033203" xlink:href="#DejaVuSans-53"/>
      </g>
     </g>
    </g>
    <g id="ytick_8">
     <g id="line2d_27">
      <g>
       <use style="stroke:#000000;stroke-width:0.8;" x="400.90125" xlink:href="#ma841b2543a" y="218.632075"/>
      </g>
     </g>
     <g id="text_22">
      <!-- 0.50 -->
      <g transform="translate(407.90125 222.431294)scale(0.1 -0.1)">
       <use xlink:href="#DejaVuSans-48"/>
       <use x="63.623047" xlink:href="#DejaVuSans-46"/>
       <use x="95.410156" xlink:href="#DejaVuSans-53"/>
       <use x="159.033203" xlink:href="#DejaVuSans-48"/>
      </g>
     </g>
    </g>
    <g id="ytick_9">
     <g id="line2d_28">
      <g>
       <use style="stroke:#000000;stroke-width:0.8;" x="400.90125" xlink:href="#ma841b2543a" y="170.80011"/>
      </g>
     </g>
     <g id="text_23">
      <!-- 0.55 -->
      <g transform="translate(407.90125 174.599329)scale(0.1 -0.1)">
       <use xlink:href="#DejaVuSans-48"/>
       <use x="63.623047" xlink:href="#DejaVuSans-46"/>
       <use x="95.410156" xlink:href="#DejaVuSans-53"/>
       <use x="159.033203" xlink:href="#DejaVuSans-53"/>
      </g>
     </g>
    </g>
    <g id="ytick_10">
     <g id="line2d_29">
      <g>
       <use style="stroke:#000000;stroke-width:0.8;" x="400.90125" xlink:href="#ma841b2543a" y="122.968145"/>
      </g>
     </g>
     <g id="text_24">
      <!-- 0.60 -->
      <g transform="translate(407.90125 126.767364)scale(0.1 -0.1)">
       <use xlink:href="#DejaVuSans-48"/>
       <use x="63.623047" xlink:href="#DejaVuSans-46"/>
       <use x="95.410156" xlink:href="#DejaVuSans-54"/>
       <use x="159.033203" xlink:href="#DejaVuSans-48"/>
      </g>
     </g>
    </g>
    <g id="ytick_11">
     <g id="line2d_30">
      <g>
       <use style="stroke:#000000;stroke-width:0.8;" x="400.90125" xlink:href="#ma841b2543a" y="75.13618"/>
      </g>
     </g>
     <g id="text_25">
      <!-- 0.65 -->
      <g transform="translate(407.90125 78.935399)scale(0.1 -0.1)">
       <use xlink:href="#DejaVuSans-48"/>
       <use x="63.623047" xlink:href="#DejaVuSans-46"/>
       <use x="95.410156" xlink:href="#DejaVuSans-54"/>
       <use x="159.033203" xlink:href="#DejaVuSans-53"/>
      </g>
     </g>
    </g>
    <g id="ytick_12">
     <g id="line2d_31">
      <g>
       <use style="stroke:#000000;stroke-width:0.8;" x="400.90125" xlink:href="#ma841b2543a" y="27.304215"/>
      </g>
     </g>
     <g id="text_26">
      <!-- 0.70 -->
      <defs>
       <path d="M 8.203125 72.90625 
L 55.078125 72.90625 
L 55.078125 68.703125 
L 28.609375 0 
L 18.3125 0 
L 43.21875 64.59375 
L 8.203125 64.59375 
z
" id="DejaVuSans-55"/>
      </defs>
      <g transform="translate(407.90125 31.103433)scale(0.1 -0.1)">
       <use xlink:href="#DejaVuSans-48"/>
       <use x="63.623047" xlink:href="#DejaVuSans-46"/>
       <use x="95.410156" xlink:href="#DejaVuSans-55"/>
       <use x="159.033203" xlink:href="#DejaVuSans-48"/>
      </g>
     </g>
    </g>
    <g id="text_27">
     <!-- Entropy -->
     <g transform="translate(441.765312 174.909281)rotate(-90)scale(0.1 -0.1)">
      <use xlink:href="#DejaVuSans-69"/>
      <use x="63.183594" xlink:href="#DejaVuSans-110"/>
      <use x="126.5625" xlink:href="#DejaVuSans-116"/>
      <use x="165.771484" xlink:href="#DejaVuSans-114"/>
      <use x="206.853516" xlink:href="#DejaVuSans-111"/>
      <use x="268.035156" xlink:href="#DejaVuSans-112"/>
      <use x="331.511719" xlink:href="#DejaVuSans-121"/>
     </g>
    </g>
   </g>
   <g id="line2d_32">
    <path clip-path="url(#p3d2d50eaca)" d="M 60.013977 35.026635 
L 60.903442 34.414125 
L 61.792906 36.528375 
L 62.682371 41.743209 
L 64.4613 56.923512 
L 65.350764 52.542768 
L 66.240229 59.422078 
L 67.129693 67.764866 
L 68.019158 74.566115 
L 69.798087 91.356324 
L 70.687551 83.185965 
L 72.46648 89.567431 
L 73.355945 99.336123 
L 74.245409 105.979141 
L 75.134874 113.531744 
L 76.024338 119.804644 
L 77.803267 129.24125 
L 78.692732 116.632272 
L 80.471661 122.864688 
L 81.361125 107.099073 
L 83.140054 106.984349 
L 84.029519 96.063394 
L 84.918983 100.234646 
L 85.808448 105.718388 
L 86.697913 76.69519 
L 87.587377 77.386731 
L 88.476842 79.119345 
L 89.366306 117.967911 
L 90.255771 119.440172 
L 91.145235 121.623416 
L 92.0347 121.33153 
L 92.924164 128.61038 
L 93.813629 138.717999 
L 94.703093 137.932774 
L 95.592558 145.812673 
L 96.482022 156.031482 
L 97.371487 102.172647 
L 98.260951 102.897316 
L 99.150416 104.340895 
L 100.03988 101.063035 
L 100.929345 101.454307 
L 101.818809 102.258006 
L 102.708274 140.739192 
L 103.597738 143.532723 
L 104.487203 148.192352 
L 105.376667 143.836469 
L 106.266132 145.144169 
L 107.155596 146.662673 
L 108.045061 171.197472 
L 109.82399 174.643314 
L 110.713454 133.316195 
L 111.602919 133.045064 
L 112.492383 133.212247 
L 113.381848 166.174453 
L 114.271312 167.345362 
L 115.160777 168.213437 
L 116.050241 131.033451 
L 116.939706 131.425122 
L 117.82917 132.786307 
L 118.718635 177.202378 
L 120.497564 185.222033 
L 121.387028 117.762639 
L 122.276493 117.401872 
L 123.165957 118.129963 
L 124.055422 170.050683 
L 124.944886 171.661217 
L 125.834351 174.83684 
L 126.723815 166.053913 
L 127.61328 162.503953 
L 128.502744 157.489031 
L 129.392209 145.700914 
L 130.281673 145.079451 
L 131.171138 144.879368 
L 132.060602 150.698616 
L 132.950067 149.489446 
L 133.839531 148.028362 
L 134.728996 150.469908 
L 135.61846 153.371207 
L 136.507925 157.359481 
L 137.397389 176.555883 
L 138.286854 184.569381 
L 139.176318 189.807764 
L 140.065783 159.29178 
L 140.955248 162.361687 
L 141.844712 166.094511 
L 142.734177 165.772404 
L 143.623641 167.481127 
L 144.513106 170.067333 
L 145.40257 204.322699 
L 146.292035 202.331954 
L 147.181499 200.986621 
L 148.070964 198.366089 
L 148.960428 198.657462 
L 149.849893 200.12881 
L 150.739357 176.422342 
L 152.518286 181.104836 
L 153.407751 126.435517 
L 155.18668 128.826828 
L 156.076144 196.759603 
L 157.855073 194.426282 
L 158.744538 178.04046 
L 160.523467 174.275191 
L 161.412931 171.12289 
L 162.302396 174.139712 
L 163.19186 179.247918 
L 164.081325 171.633619 
L 165.860254 181.414 
L 166.749718 181.250181 
L 167.639183 179.36213 
L 168.528647 175.033217 
L 169.418112 186.876644 
L 171.197041 183.683687 
L 172.086505 219.770026 
L 172.97597 222.567007 
L 173.865434 228.299984 
L 174.754899 129.06483 
L 175.644363 126.522929 
L 176.533828 125.813085 
L 177.423292 168.110972 
L 179.202221 152.248195 
L 180.091686 204.82248 
L 180.98115 206.588508 
L 181.870615 209.171293 
L 182.760079 186.974376 
L 183.649544 193.111455 
L 184.539008 201.051339 
L 185.428473 204.798019 
L 186.317937 206.472187 
L 187.207402 207.30508 
L 188.096866 145.256556 
L 189.875795 145.751377 
L 190.76526 148.083672 
L 192.544189 144.913979 
L 193.433653 142.358678 
L 195.212583 142.850819 
L 196.102047 187.205422 
L 196.991512 183.24121 
L 197.880976 178.306231 
L 198.770441 205.039613 
L 199.659905 203.8772 
L 200.54937 203.193187 
L 201.438834 213.758278 
L 202.328299 214.977711 
L 203.217763 215.972314 
L 204.107228 162.16149 
L 204.996692 162.556867 
L 205.886157 165.262188 
L 206.775621 222.450857 
L 207.665086 222.48983 
L 208.55455 222.222349 
L 209.444015 173.988551 
L 210.333479 173.127604 
L 211.222944 172.46714 
L 212.112408 131.682739 
L 213.001873 131.216542 
L 213.891337 131.190484 
L 214.780802 158.230806 
L 215.670266 151.142346 
L 216.559731 144.997627 
L 217.449195 130.168512 
L 218.33866 129.450971 
L 219.228124 129.690854 
L 220.117589 144.126246 
L 221.007053 151.822369 
L 221.896518 150.262354 
L 222.785982 151.68495 
L 223.675447 170.46482 
L 225.454376 101.893704 
L 226.34384 101.245898 
L 227.233305 103.336998 
L 228.122769 135.860434 
L 229.012234 153.628653 
L 229.901698 161.312802 
L 230.791163 202.955983 
L 231.680627 214.452613 
L 232.570092 176.85866 
L 233.459556 110.532598 
L 234.349021 116.326187 
L 235.238485 111.304594 
L 236.12795 165.987028 
L 237.017414 163.159456 
L 237.906879 162.182359 
L 238.796343 147.363222 
L 239.685808 144.877885 
L 240.575272 142.805431 
L 241.464737 138.370404 
L 242.354201 140.763996 
L 243.243666 144.513754 
L 244.13313 154.391297 
L 245.912059 155.60862 
L 246.801524 156.426631 
L 248.580453 155.225559 
L 249.469917 162.327874 
L 250.359382 162.145296 
L 251.248847 162.116786 
L 252.138311 115.562802 
L 253.027776 114.308587 
L 253.91724 112.831537 
L 254.806705 112.139825 
L 255.696169 112.465353 
L 256.585634 113.43692 
L 257.475098 157.998563 
L 258.364563 161.158106 
L 259.254027 165.811634 
L 260.143492 189.21983 
L 261.922421 199.283999 
L 262.811885 155.207313 
L 263.70135 155.838982 
L 264.590814 155.48061 
L 265.480279 152.002096 
L 266.369743 151.507161 
L 267.259208 151.498152 
L 268.148672 118.54946 
L 269.038137 119.669393 
L 269.927601 120.477083 
L 270.817066 125.695168 
L 271.70653 125.934253 
L 272.595995 128.57172 
L 273.485459 157.028479 
L 274.374924 162.660473 
L 275.264388 169.892167 
L 276.153853 186.11685 
L 277.043317 188.758594 
L 277.932782 189.52848 
L 278.822246 158.63371 
L 279.711711 158.029411 
L 280.601175 157.648858 
L 281.49064 217.438644 
L 282.380104 223.272489 
L 283.269569 231.080058 
L 284.159033 199.457683 
L 285.048498 203.054171 
L 285.937962 207.276057 
L 286.827427 195.831658 
L 287.716891 196.118811 
L 288.606356 195.566628 
L 289.49582 162.280091 
L 291.274749 161.398275 
L 292.164214 199.273793 
L 293.943143 198.566116 
L 294.832607 175.328354 
L 295.722072 175.711073 
L 296.611536 176.244211 
L 297.501001 200.324218 
L 298.390465 203.724443 
L 299.27993 208.167738 
L 300.169394 215.435013 
L 301.058859 216.592465 
L 301.948323 216.937208 
L 302.837788 166.862458 
L 304.616717 165.853145 
L 305.506182 217.441438 
L 306.395646 217.394396 
L 307.285111 217.783387 
L 308.174575 174.074538 
L 309.953504 173.64643 
L 310.842969 220.78011 
L 311.732433 221.130185 
L 312.621898 221.603566 
L 313.511362 189.90658 
L 314.400827 190.791476 
L 315.290291 191.919277 
L 316.179756 169.432699 
L 317.06922 169.561051 
L 317.958685 169.502434 
L 318.848149 239.473452 
L 319.737614 239.540393 
L 320.627078 239.42259 
L 321.516543 209.286302 
L 323.295472 209.344178 
L 324.184936 171.229974 
L 325.074401 171.389516 
L 325.963865 172.014343 
L 326.85333 221.345635 
L 327.742794 222.242762 
L 328.632259 221.652546 
L 329.521723 231.389763 
L 330.411188 231.754292 
L 331.300652 232.903591 
L 332.190117 226.718216 
L 333.079581 225.635689 
L 333.969046 223.830545 
L 334.85851 178.713183 
L 335.747975 177.969242 
L 336.637439 176.987868 
L 337.526904 210.613218 
L 338.416368 210.837535 
L 339.305833 211.230461 
L 340.195297 237.337819 
L 341.974226 238.822168 
L 342.863691 206.554125 
L 343.753155 207.037941 
L 344.64262 207.180491 
L 345.532084 180.53874 
L 346.421549 179.782938 
L 347.311013 179.99072 
L 348.200478 222.618211 
L 349.089942 222.545368 
L 349.979407 222.870639 
L 350.868871 226.25162 
L 352.6478 226.695494 
L 353.537265 206.867907 
L 354.426729 206.675578 
L 355.316194 206.2469 
L 356.205658 180.860619 
L 357.984587 181.55655 
L 358.874052 178.576335 
L 359.763517 178.479971 
L 360.652981 178.092006 
L 361.542446 167.718559 
L 362.43191 166.58363 
L 363.321375 164.969047 
L 364.210839 208.460479 
L 365.989768 204.613216 
L 366.879233 217.8505 
L 367.768697 217.672882 
L 368.658162 218.719402 
L 369.547626 232.490508 
L 371.326555 233.350286 
L 372.21602 182.222887 
L 373.994949 179.858148 
L 374.884413 219.381605 
L 375.773878 220.413584 
L 376.663342 222.427707 
L 377.552807 273.668747 
L 378.442271 274.442824 
L 379.331736 276.334125 
L 380.2212 188.745365 
L 381.110665 188.791836 
L 382.000129 187.630108 
L 382.889594 220.46533 
L 384.668523 226.375924 
L 384.668523 226.375924 
" style="fill:none;stroke:#008000;stroke-linecap:square;stroke-opacity:0.3;stroke-width:1.5;"/>
   </g>
   <g id="patch_9">
    <path d="M 43.78125 288.430125 
L 43.78125 22.318125 
" style="fill:none;stroke:#000000;stroke-linecap:square;stroke-linejoin:miter;stroke-width:0.8;"/>
   </g>
   <g id="patch_10">
    <path d="M 400.90125 288.430125 
L 400.90125 22.318125 
" style="fill:none;stroke:#000000;stroke-linecap:square;stroke-linejoin:miter;stroke-width:0.8;"/>
   </g>
   <g id="patch_11">
    <path d="M 43.78125 288.430125 
L 400.90125 288.430125 
" style="fill:none;stroke:#000000;stroke-linecap:square;stroke-linejoin:miter;stroke-width:0.8;"/>
   </g>
   <g id="patch_12">
    <path d="M 43.78125 22.318125 
L 400.90125 22.318125 
" style="fill:none;stroke:#000000;stroke-linecap:square;stroke-linejoin:miter;stroke-width:0.8;"/>
   </g>
  </g>
 </g>
 <defs>
  <clipPath id="p3d2d50eaca">
   <rect height="266.112" width="357.12" x="43.78125" y="22.318125"/>
  </clipPath>
 </defs>
</svg>
