<?xml version="1.0" encoding="utf-8" standalone="no"?>
<!DOCTYPE svg PUBLIC "-//W3C//DTD SVG 1.1//EN"
  "http://www.w3.org/Graphics/SVG/1.1/DTD/svg11.dtd">
<!-- Created with matplotlib (https://matplotlib.org/) -->
<svg height="358.22505pt" version="1.1" viewBox="0 0 444.6825 358.22505" width="444.6825pt" xmlns="http://www.w3.org/2000/svg" xmlns:xlink="http://www.w3.org/1999/xlink">
 <defs>
  <style type="text/css">
*{stroke-linecap:butt;stroke-linejoin:round;}
  </style>
 </defs>
 <g id="figure_1">
  <g id="patch_1">
   <path d="M 0 358.22505 
L 444.6825 358.22505 
L 444.6825 0 
L 0 0 
z
" style="fill:#ffffff;"/>
  </g>
  <g id="axes_1">
   <g id="patch_2">
    <path d="M 43.78125 288.430125 
L 400.90125 288.430125 
L 400.90125 22.318125 
L 43.78125 22.318125 
z
" style="fill:#ffffff;"/>
   </g>
   <g id="matplotlib.axis_1">
    <g id="xtick_1">
     <g id="line2d_1">
      <defs>
       <path d="M 0 0 
L 0 3.5 
" id="me98dbacc6f" style="stroke:#000000;stroke-width:0.8;"/>
      </defs>
      <g>
       <use style="stroke:#000000;stroke-width:0.8;" x="60.013977" xlink:href="#me98dbacc6f" y="288.430125"/>
      </g>
     </g>
     <g id="text_1">
      <!-- 0 -->
      <defs>
       <path d="M 31.78125 66.40625 
Q 24.171875 66.40625 20.328125 58.90625 
Q 16.5 51.421875 16.5 36.375 
Q 16.5 21.390625 20.328125 13.890625 
Q 24.171875 6.390625 31.78125 6.390625 
Q 39.453125 6.390625 43.28125 13.890625 
Q 47.125 21.390625 47.125 36.375 
Q 47.125 51.421875 43.28125 58.90625 
Q 39.453125 66.40625 31.78125 66.40625 
z
M 31.78125 74.21875 
Q 44.046875 74.21875 50.515625 64.515625 
Q 56.984375 54.828125 56.984375 36.375 
Q 56.984375 17.96875 50.515625 8.265625 
Q 44.046875 -1.421875 31.78125 -1.421875 
Q 19.53125 -1.421875 13.0625 8.265625 
Q 6.59375 17.96875 6.59375 36.375 
Q 6.59375 54.828125 13.0625 64.515625 
Q 19.53125 74.21875 31.78125 74.21875 
z
" id="DejaVuSans-48"/>
      </defs>
      <g transform="translate(56.832727 303.028562)scale(0.1 -0.1)">
       <use xlink:href="#DejaVuSans-48"/>
      </g>
     </g>
    </g>
    <g id="xtick_2">
     <g id="line2d_2">
      <g>
       <use style="stroke:#000000;stroke-width:0.8;" x="103.186124" xlink:href="#me98dbacc6f" y="288.430125"/>
      </g>
     </g>
     <g id="text_2">
      <!-- 25 -->
      <defs>
       <path d="M 19.1875 8.296875 
L 53.609375 8.296875 
L 53.609375 0 
L 7.328125 0 
L 7.328125 8.296875 
Q 12.9375 14.109375 22.625 23.890625 
Q 32.328125 33.6875 34.8125 36.53125 
Q 39.546875 41.84375 41.421875 45.53125 
Q 43.3125 49.21875 43.3125 52.78125 
Q 43.3125 58.59375 39.234375 62.25 
Q 35.15625 65.921875 28.609375 65.921875 
Q 23.96875 65.921875 18.8125 64.3125 
Q 13.671875 62.703125 7.8125 59.421875 
L 7.8125 69.390625 
Q 13.765625 71.78125 18.9375 73 
Q 24.125 74.21875 28.421875 74.21875 
Q 39.75 74.21875 46.484375 68.546875 
Q 53.21875 62.890625 53.21875 53.421875 
Q 53.21875 48.921875 51.53125 44.890625 
Q 49.859375 40.875 45.40625 35.40625 
Q 44.1875 33.984375 37.640625 27.21875 
Q 31.109375 20.453125 19.1875 8.296875 
z
" id="DejaVuSans-50"/>
       <path d="M 10.796875 72.90625 
L 49.515625 72.90625 
L 49.515625 64.59375 
L 19.828125 64.59375 
L 19.828125 46.734375 
Q 21.96875 47.46875 24.109375 47.828125 
Q 26.265625 48.1875 28.421875 48.1875 
Q 40.625 48.1875 47.75 41.5 
Q 54.890625 34.8125 54.890625 23.390625 
Q 54.890625 11.625 47.5625 5.09375 
Q 40.234375 -1.421875 26.90625 -1.421875 
Q 22.3125 -1.421875 17.546875 -0.640625 
Q 12.796875 0.140625 7.71875 1.703125 
L 7.71875 11.625 
Q 12.109375 9.234375 16.796875 8.0625 
Q 21.484375 6.890625 26.703125 6.890625 
Q 35.15625 6.890625 40.078125 11.328125 
Q 45.015625 15.765625 45.015625 23.390625 
Q 45.015625 31 40.078125 35.4375 
Q 35.15625 39.890625 26.703125 39.890625 
Q 22.75 39.890625 18.8125 39.015625 
Q 14.890625 38.140625 10.796875 36.28125 
z
" id="DejaVuSans-53"/>
      </defs>
      <g transform="translate(96.823624 303.028562)scale(0.1 -0.1)">
       <use xlink:href="#DejaVuSans-50"/>
       <use x="63.623047" xlink:href="#DejaVuSans-53"/>
      </g>
     </g>
    </g>
    <g id="xtick_3">
     <g id="line2d_3">
      <g>
       <use style="stroke:#000000;stroke-width:0.8;" x="146.358271" xlink:href="#me98dbacc6f" y="288.430125"/>
      </g>
     </g>
     <g id="text_3">
      <!-- 50 -->
      <g transform="translate(139.995771 303.028562)scale(0.1 -0.1)">
       <use xlink:href="#DejaVuSans-53"/>
       <use x="63.623047" xlink:href="#DejaVuSans-48"/>
      </g>
     </g>
    </g>
    <g id="xtick_4">
     <g id="line2d_4">
      <g>
       <use style="stroke:#000000;stroke-width:0.8;" x="189.530418" xlink:href="#me98dbacc6f" y="288.430125"/>
      </g>
     </g>
     <g id="text_4">
      <!-- 75 -->
      <defs>
       <path d="M 8.203125 72.90625 
L 55.078125 72.90625 
L 55.078125 68.703125 
L 28.609375 0 
L 18.3125 0 
L 43.21875 64.59375 
L 8.203125 64.59375 
z
" id="DejaVuSans-55"/>
      </defs>
      <g transform="translate(183.167918 303.028562)scale(0.1 -0.1)">
       <use xlink:href="#DejaVuSans-55"/>
       <use x="63.623047" xlink:href="#DejaVuSans-53"/>
      </g>
     </g>
    </g>
    <g id="xtick_5">
     <g id="line2d_5">
      <g>
       <use style="stroke:#000000;stroke-width:0.8;" x="232.702565" xlink:href="#me98dbacc6f" y="288.430125"/>
      </g>
     </g>
     <g id="text_5">
      <!-- 100 -->
      <defs>
       <path d="M 12.40625 8.296875 
L 28.515625 8.296875 
L 28.515625 63.921875 
L 10.984375 60.40625 
L 10.984375 69.390625 
L 28.421875 72.90625 
L 38.28125 72.90625 
L 38.28125 8.296875 
L 54.390625 8.296875 
L 54.390625 0 
L 12.40625 0 
z
" id="DejaVuSans-49"/>
      </defs>
      <g transform="translate(223.158815 303.028562)scale(0.1 -0.1)">
       <use xlink:href="#DejaVuSans-49"/>
       <use x="63.623047" xlink:href="#DejaVuSans-48"/>
       <use x="127.246094" xlink:href="#DejaVuSans-48"/>
      </g>
     </g>
    </g>
    <g id="xtick_6">
     <g id="line2d_6">
      <g>
       <use style="stroke:#000000;stroke-width:0.8;" x="275.874712" xlink:href="#me98dbacc6f" y="288.430125"/>
      </g>
     </g>
     <g id="text_6">
      <!-- 125 -->
      <g transform="translate(266.330962 303.028562)scale(0.1 -0.1)">
       <use xlink:href="#DejaVuSans-49"/>
       <use x="63.623047" xlink:href="#DejaVuSans-50"/>
       <use x="127.246094" xlink:href="#DejaVuSans-53"/>
      </g>
     </g>
    </g>
    <g id="xtick_7">
     <g id="line2d_7">
      <g>
       <use style="stroke:#000000;stroke-width:0.8;" x="319.046859" xlink:href="#me98dbacc6f" y="288.430125"/>
      </g>
     </g>
     <g id="text_7">
      <!-- 150 -->
      <g transform="translate(309.503109 303.028562)scale(0.1 -0.1)">
       <use xlink:href="#DejaVuSans-49"/>
       <use x="63.623047" xlink:href="#DejaVuSans-53"/>
       <use x="127.246094" xlink:href="#DejaVuSans-48"/>
      </g>
     </g>
    </g>
    <g id="xtick_8">
     <g id="line2d_8">
      <g>
       <use style="stroke:#000000;stroke-width:0.8;" x="362.219006" xlink:href="#me98dbacc6f" y="288.430125"/>
      </g>
     </g>
     <g id="text_8">
      <!-- 175 -->
      <g transform="translate(352.675256 303.028562)scale(0.1 -0.1)">
       <use xlink:href="#DejaVuSans-49"/>
       <use x="63.623047" xlink:href="#DejaVuSans-55"/>
       <use x="127.246094" xlink:href="#DejaVuSans-53"/>
      </g>
     </g>
    </g>
    <g id="text_9">
     <!-- Epoch -->
     <defs>
      <path d="M 9.8125 72.90625 
L 55.90625 72.90625 
L 55.90625 64.59375 
L 19.671875 64.59375 
L 19.671875 43.015625 
L 54.390625 43.015625 
L 54.390625 34.71875 
L 19.671875 34.71875 
L 19.671875 8.296875 
L 56.78125 8.296875 
L 56.78125 0 
L 9.8125 0 
z
" id="DejaVuSans-69"/>
      <path d="M 18.109375 8.203125 
L 18.109375 -20.796875 
L 9.078125 -20.796875 
L 9.078125 54.6875 
L 18.109375 54.6875 
L 18.109375 46.390625 
Q 20.953125 51.265625 25.265625 53.625 
Q 29.59375 56 35.59375 56 
Q 45.5625 56 51.78125 48.09375 
Q 58.015625 40.1875 58.015625 27.296875 
Q 58.015625 14.40625 51.78125 6.484375 
Q 45.5625 -1.421875 35.59375 -1.421875 
Q 29.59375 -1.421875 25.265625 0.953125 
Q 20.953125 3.328125 18.109375 8.203125 
z
M 48.6875 27.296875 
Q 48.6875 37.203125 44.609375 42.84375 
Q 40.53125 48.484375 33.40625 48.484375 
Q 26.265625 48.484375 22.1875 42.84375 
Q 18.109375 37.203125 18.109375 27.296875 
Q 18.109375 17.390625 22.1875 11.75 
Q 26.265625 6.109375 33.40625 6.109375 
Q 40.53125 6.109375 44.609375 11.75 
Q 48.6875 17.390625 48.6875 27.296875 
z
" id="DejaVuSans-112"/>
      <path d="M 30.609375 48.390625 
Q 23.390625 48.390625 19.1875 42.75 
Q 14.984375 37.109375 14.984375 27.296875 
Q 14.984375 17.484375 19.15625 11.84375 
Q 23.34375 6.203125 30.609375 6.203125 
Q 37.796875 6.203125 41.984375 11.859375 
Q 46.1875 17.53125 46.1875 27.296875 
Q 46.1875 37.015625 41.984375 42.703125 
Q 37.796875 48.390625 30.609375 48.390625 
z
M 30.609375 56 
Q 42.328125 56 49.015625 48.375 
Q 55.71875 40.765625 55.71875 27.296875 
Q 55.71875 13.875 49.015625 6.21875 
Q 42.328125 -1.421875 30.609375 -1.421875 
Q 18.84375 -1.421875 12.171875 6.21875 
Q 5.515625 13.875 5.515625 27.296875 
Q 5.515625 40.765625 12.171875 48.375 
Q 18.84375 56 30.609375 56 
z
" id="DejaVuSans-111"/>
      <path d="M 48.78125 52.59375 
L 48.78125 44.1875 
Q 44.96875 46.296875 41.140625 47.34375 
Q 37.3125 48.390625 33.40625 48.390625 
Q 24.65625 48.390625 19.8125 42.84375 
Q 14.984375 37.3125 14.984375 27.296875 
Q 14.984375 17.28125 19.8125 11.734375 
Q 24.65625 6.203125 33.40625 6.203125 
Q 37.3125 6.203125 41.140625 7.25 
Q 44.96875 8.296875 48.78125 10.40625 
L 48.78125 2.09375 
Q 45.015625 0.34375 40.984375 -0.53125 
Q 36.96875 -1.421875 32.421875 -1.421875 
Q 20.0625 -1.421875 12.78125 6.34375 
Q 5.515625 14.109375 5.515625 27.296875 
Q 5.515625 40.671875 12.859375 48.328125 
Q 20.21875 56 33.015625 56 
Q 37.15625 56 41.109375 55.140625 
Q 45.0625 54.296875 48.78125 52.59375 
z
" id="DejaVuSans-99"/>
      <path d="M 54.890625 33.015625 
L 54.890625 0 
L 45.90625 0 
L 45.90625 32.71875 
Q 45.90625 40.484375 42.875 44.328125 
Q 39.84375 48.1875 33.796875 48.1875 
Q 26.515625 48.1875 22.3125 43.546875 
Q 18.109375 38.921875 18.109375 30.90625 
L 18.109375 0 
L 9.078125 0 
L 9.078125 75.984375 
L 18.109375 75.984375 
L 18.109375 46.1875 
Q 21.34375 51.125 25.703125 53.5625 
Q 30.078125 56 35.796875 56 
Q 45.21875 56 50.046875 50.171875 
Q 54.890625 44.34375 54.890625 33.015625 
z
" id="DejaVuSans-104"/>
     </defs>
     <g transform="translate(207.030313 316.706687)scale(0.1 -0.1)">
      <use xlink:href="#DejaVuSans-69"/>
      <use x="63.183594" xlink:href="#DejaVuSans-112"/>
      <use x="126.660156" xlink:href="#DejaVuSans-111"/>
      <use x="187.841797" xlink:href="#DejaVuSans-99"/>
      <use x="242.822266" xlink:href="#DejaVuSans-104"/>
     </g>
    </g>
   </g>
   <g id="matplotlib.axis_2">
    <g id="ytick_1">
     <g id="line2d_9">
      <defs>
       <path d="M 0 0 
L -3.5 0 
" id="m03ccfd0e44" style="stroke:#000000;stroke-width:0.8;"/>
      </defs>
      <g>
       <use style="stroke:#000000;stroke-width:0.8;" x="43.78125" xlink:href="#m03ccfd0e44" y="276.334125"/>
      </g>
     </g>
     <g id="text_10">
      <!-- 0.0 -->
      <defs>
       <path d="M 10.6875 12.40625 
L 21 12.40625 
L 21 0 
L 10.6875 0 
z
" id="DejaVuSans-46"/>
      </defs>
      <g transform="translate(20.878125 280.133344)scale(0.1 -0.1)">
       <use xlink:href="#DejaVuSans-48"/>
       <use x="63.623047" xlink:href="#DejaVuSans-46"/>
       <use x="95.410156" xlink:href="#DejaVuSans-48"/>
      </g>
     </g>
    </g>
    <g id="ytick_2">
     <g id="line2d_10">
      <g>
       <use style="stroke:#000000;stroke-width:0.8;" x="43.78125" xlink:href="#m03ccfd0e44" y="229.835966"/>
      </g>
     </g>
     <g id="text_11">
      <!-- 0.2 -->
      <g transform="translate(20.878125 233.635184)scale(0.1 -0.1)">
       <use xlink:href="#DejaVuSans-48"/>
       <use x="63.623047" xlink:href="#DejaVuSans-46"/>
       <use x="95.410156" xlink:href="#DejaVuSans-50"/>
      </g>
     </g>
    </g>
    <g id="ytick_3">
     <g id="line2d_11">
      <g>
       <use style="stroke:#000000;stroke-width:0.8;" x="43.78125" xlink:href="#m03ccfd0e44" y="183.337806"/>
      </g>
     </g>
     <g id="text_12">
      <!-- 0.4 -->
      <defs>
       <path d="M 37.796875 64.3125 
L 12.890625 25.390625 
L 37.796875 25.390625 
z
M 35.203125 72.90625 
L 47.609375 72.90625 
L 47.609375 25.390625 
L 58.015625 25.390625 
L 58.015625 17.1875 
L 47.609375 17.1875 
L 47.609375 0 
L 37.796875 0 
L 37.796875 17.1875 
L 4.890625 17.1875 
L 4.890625 26.703125 
z
" id="DejaVuSans-52"/>
      </defs>
      <g transform="translate(20.878125 187.137025)scale(0.1 -0.1)">
       <use xlink:href="#DejaVuSans-48"/>
       <use x="63.623047" xlink:href="#DejaVuSans-46"/>
       <use x="95.410156" xlink:href="#DejaVuSans-52"/>
      </g>
     </g>
    </g>
    <g id="ytick_4">
     <g id="line2d_12">
      <g>
       <use style="stroke:#000000;stroke-width:0.8;" x="43.78125" xlink:href="#m03ccfd0e44" y="136.839647"/>
      </g>
     </g>
     <g id="text_13">
      <!-- 0.6 -->
      <defs>
       <path d="M 33.015625 40.375 
Q 26.375 40.375 22.484375 35.828125 
Q 18.609375 31.296875 18.609375 23.390625 
Q 18.609375 15.53125 22.484375 10.953125 
Q 26.375 6.390625 33.015625 6.390625 
Q 39.65625 6.390625 43.53125 10.953125 
Q 47.40625 15.53125 47.40625 23.390625 
Q 47.40625 31.296875 43.53125 35.828125 
Q 39.65625 40.375 33.015625 40.375 
z
M 52.59375 71.296875 
L 52.59375 62.3125 
Q 48.875 64.0625 45.09375 64.984375 
Q 41.3125 65.921875 37.59375 65.921875 
Q 27.828125 65.921875 22.671875 59.328125 
Q 17.53125 52.734375 16.796875 39.40625 
Q 19.671875 43.65625 24.015625 45.921875 
Q 28.375 48.1875 33.59375 48.1875 
Q 44.578125 48.1875 50.953125 41.515625 
Q 57.328125 34.859375 57.328125 23.390625 
Q 57.328125 12.15625 50.6875 5.359375 
Q 44.046875 -1.421875 33.015625 -1.421875 
Q 20.359375 -1.421875 13.671875 8.265625 
Q 6.984375 17.96875 6.984375 36.375 
Q 6.984375 53.65625 15.1875 63.9375 
Q 23.390625 74.21875 37.203125 74.21875 
Q 40.921875 74.21875 44.703125 73.484375 
Q 48.484375 72.75 52.59375 71.296875 
z
" id="DejaVuSans-54"/>
      </defs>
      <g transform="translate(20.878125 140.638866)scale(0.1 -0.1)">
       <use xlink:href="#DejaVuSans-48"/>
       <use x="63.623047" xlink:href="#DejaVuSans-46"/>
       <use x="95.410156" xlink:href="#DejaVuSans-54"/>
      </g>
     </g>
    </g>
    <g id="ytick_5">
     <g id="line2d_13">
      <g>
       <use style="stroke:#000000;stroke-width:0.8;" x="43.78125" xlink:href="#m03ccfd0e44" y="90.341488"/>
      </g>
     </g>
     <g id="text_14">
      <!-- 0.8 -->
      <defs>
       <path d="M 31.78125 34.625 
Q 24.75 34.625 20.71875 30.859375 
Q 16.703125 27.09375 16.703125 20.515625 
Q 16.703125 13.921875 20.71875 10.15625 
Q 24.75 6.390625 31.78125 6.390625 
Q 38.8125 6.390625 42.859375 10.171875 
Q 46.921875 13.96875 46.921875 20.515625 
Q 46.921875 27.09375 42.890625 30.859375 
Q 38.875 34.625 31.78125 34.625 
z
M 21.921875 38.8125 
Q 15.578125 40.375 12.03125 44.71875 
Q 8.5 49.078125 8.5 55.328125 
Q 8.5 64.0625 14.71875 69.140625 
Q 20.953125 74.21875 31.78125 74.21875 
Q 42.671875 74.21875 48.875 69.140625 
Q 55.078125 64.0625 55.078125 55.328125 
Q 55.078125 49.078125 51.53125 44.71875 
Q 48 40.375 41.703125 38.8125 
Q 48.828125 37.15625 52.796875 32.3125 
Q 56.78125 27.484375 56.78125 20.515625 
Q 56.78125 9.90625 50.3125 4.234375 
Q 43.84375 -1.421875 31.78125 -1.421875 
Q 19.734375 -1.421875 13.25 4.234375 
Q 6.78125 9.90625 6.78125 20.515625 
Q 6.78125 27.484375 10.78125 32.3125 
Q 14.796875 37.15625 21.921875 38.8125 
z
M 18.3125 54.390625 
Q 18.3125 48.734375 21.84375 45.5625 
Q 25.390625 42.390625 31.78125 42.390625 
Q 38.140625 42.390625 41.71875 45.5625 
Q 45.3125 48.734375 45.3125 54.390625 
Q 45.3125 60.0625 41.71875 63.234375 
Q 38.140625 66.40625 31.78125 66.40625 
Q 25.390625 66.40625 21.84375 63.234375 
Q 18.3125 60.0625 18.3125 54.390625 
z
" id="DejaVuSans-56"/>
      </defs>
      <g transform="translate(20.878125 94.140707)scale(0.1 -0.1)">
       <use xlink:href="#DejaVuSans-48"/>
       <use x="63.623047" xlink:href="#DejaVuSans-46"/>
       <use x="95.410156" xlink:href="#DejaVuSans-56"/>
      </g>
     </g>
    </g>
    <g id="ytick_6">
     <g id="line2d_14">
      <g>
       <use style="stroke:#000000;stroke-width:0.8;" x="43.78125" xlink:href="#m03ccfd0e44" y="43.843329"/>
      </g>
     </g>
     <g id="text_15">
      <!-- 1.0 -->
      <g transform="translate(20.878125 47.642547)scale(0.1 -0.1)">
       <use xlink:href="#DejaVuSans-49"/>
       <use x="63.623047" xlink:href="#DejaVuSans-46"/>
       <use x="95.410156" xlink:href="#DejaVuSans-48"/>
      </g>
     </g>
    </g>
    <g id="text_16">
     <!-- Loss -->
     <defs>
      <path d="M 9.8125 72.90625 
L 19.671875 72.90625 
L 19.671875 8.296875 
L 55.171875 8.296875 
L 55.171875 0 
L 9.8125 0 
z
" id="DejaVuSans-76"/>
      <path d="M 44.28125 53.078125 
L 44.28125 44.578125 
Q 40.484375 46.53125 36.375 47.5 
Q 32.28125 48.484375 27.875 48.484375 
Q 21.1875 48.484375 17.84375 46.4375 
Q 14.5 44.390625 14.5 40.28125 
Q 14.5 37.15625 16.890625 35.375 
Q 19.28125 33.59375 26.515625 31.984375 
L 29.59375 31.296875 
Q 39.15625 29.25 43.1875 25.515625 
Q 47.21875 21.78125 47.21875 15.09375 
Q 47.21875 7.46875 41.1875 3.015625 
Q 35.15625 -1.421875 24.609375 -1.421875 
Q 20.21875 -1.421875 15.453125 -0.5625 
Q 10.6875 0.296875 5.421875 2 
L 5.421875 11.28125 
Q 10.40625 8.6875 15.234375 7.390625 
Q 20.0625 6.109375 24.8125 6.109375 
Q 31.15625 6.109375 34.5625 8.28125 
Q 37.984375 10.453125 37.984375 14.40625 
Q 37.984375 18.0625 35.515625 20.015625 
Q 33.0625 21.96875 24.703125 23.78125 
L 21.578125 24.515625 
Q 13.234375 26.265625 9.515625 29.90625 
Q 5.8125 33.546875 5.8125 39.890625 
Q 5.8125 47.609375 11.28125 51.796875 
Q 16.75 56 26.8125 56 
Q 31.78125 56 36.171875 55.265625 
Q 40.578125 54.546875 44.28125 53.078125 
z
" id="DejaVuSans-115"/>
     </defs>
     <g transform="translate(14.798438 166.428031)rotate(-90)scale(0.1 -0.1)">
      <use xlink:href="#DejaVuSans-76"/>
      <use x="55.697266" xlink:href="#DejaVuSans-111"/>
      <use x="116.878906" xlink:href="#DejaVuSans-115"/>
      <use x="168.978516" xlink:href="#DejaVuSans-115"/>
     </g>
    </g>
   </g>
   <g id="line2d_15">
    <path clip-path="url(#p543e75d4c7)" d="M 60.013977 200.795743 
L 61.740863 132.849236 
L 63.467749 181.960477 
L 65.194635 158.781234 
L 66.921521 164.661307 
L 68.648407 173.86774 
L 70.375293 147.481759 
L 72.102178 204.12073 
L 73.829064 223.433994 
L 75.55595 162.314001 
L 77.282836 201.516704 
L 79.009722 207.885733 
L 80.736608 158.768665 
L 82.463494 217.227662 
L 84.19038 227.303958 
L 85.917265 194.808028 
L 87.644151 245.445895 
L 89.371037 247.406918 
L 91.097923 215.624163 
L 92.824809 271.980024 
L 94.551695 276.334125 
L 96.278581 192.021156 
L 98.005467 237.474785 
L 99.732353 219.488001 
L 101.459238 43.843329 
L 103.186124 81.927007 
L 104.91301 102.674346 
L 106.639896 136.790886 
L 108.366782 192.479633 
L 110.093668 203.105028 
L 111.820554 158.667778 
L 113.54744 124.363254 
L 115.274325 200.573408 
L 117.001211 145.477584 
L 118.728097 140.366109 
L 120.454983 73.348594 
L 122.181869 164.49908 
L 123.908755 148.096364 
L 125.635641 133.34513 
L 129.089412 208.483688 
L 130.816298 91.428564 
L 132.543184 147.689541 
L 134.27007 137.492465 
L 135.996956 160.565655 
L 137.723842 155.410907 
L 139.450728 185.9381 
L 141.177614 199.106595 
L 142.9045 146.137167 
L 144.631385 129.165217 
L 146.358271 130.477175 
L 148.085157 166.637323 
L 149.812043 199.997859 
L 151.538929 205.957878 
L 153.265815 173.227405 
L 154.992701 214.080237 
L 156.719587 221.72385 
L 158.446472 154.915918 
L 160.173358 196.807778 
L 161.900244 206.632505 
L 163.62713 151.420337 
L 165.354016 155.735312 
L 167.080902 165.592736 
L 168.807788 166.302172 
L 170.534674 184.291388 
L 172.261559 182.812652 
L 173.988445 135.747728 
L 175.715331 135.008174 
L 177.442217 163.059435 
L 179.169103 169.000731 
L 180.895989 159.060923 
L 182.622875 157.323804 
L 184.349761 158.142339 
L 186.076647 159.729725 
L 187.803532 182.508272 
L 189.530418 168.083064 
L 191.257304 149.300089 
L 192.98419 189.220972 
L 194.711076 152.09611 
L 196.437962 134.729775 
L 198.164848 162.631402 
L 199.891734 152.585696 
L 201.618619 162.120889 
L 203.345505 165.9921 
L 205.072391 141.960599 
L 206.799277 150.248281 
L 208.526163 152.469598 
L 210.253049 153.895864 
L 211.979935 178.007603 
L 213.706821 189.694021 
L 215.433706 131.516312 
L 217.160592 159.268441 
L 218.887478 153.940916 
L 220.614364 141.01582 
L 222.34125 147.077634 
L 224.068136 113.101121 
L 225.795022 147.518942 
L 227.521908 163.04427 
L 229.248794 170.214857 
L 230.975679 140.762625 
L 232.702565 122.613494 
L 234.429451 127.610512 
L 236.156337 142.377455 
L 237.883223 110.764889 
L 239.610109 125.78294 
L 241.336995 52.827409 
L 243.063881 76.245903 
L 244.790766 50.131543 
L 246.517652 134.852477 
L 248.244538 146.275843 
L 249.971424 140.720855 
L 251.69831 141.459839 
L 253.425196 141.550048 
L 255.152082 132.369365 
L 256.878968 65.686943 
L 258.605853 152.68469 
L 260.332739 155.078974 
L 262.059625 138.198466 
L 263.786511 165.248389 
L 265.513397 134.994384 
L 267.240283 171.318385 
L 268.967169 45.854744 
L 270.694055 151.67237 
L 272.420941 121.223165 
L 274.147826 97.777599 
L 275.874712 106.3181 
L 277.601598 149.095913 
L 279.328484 155.484278 
L 281.05537 176.896421 
L 282.782256 135.298015 
L 284.509142 138.486346 
L 286.236028 142.395292 
L 287.962913 132.227362 
L 289.689799 152.22694 
L 291.416685 150.17267 
L 293.143571 114.367711 
L 294.870457 137.180116 
L 296.597343 144.630215 
L 298.324229 156.138431 
L 300.051115 158.82857 
L 301.778 171.551957 
L 303.504886 132.836944 
L 305.231772 162.971675 
L 306.958658 172.872815 
L 308.685544 152.654207 
L 310.41243 163.301858 
L 312.139316 149.10183 
L 313.866202 129.092818 
L 315.593088 132.738673 
L 317.319973 144.19713 
L 319.046859 103.524154 
L 320.773745 152.195681 
L 322.500631 153.094167 
L 325.954403 118.318017 
L 327.681289 122.087833 
L 329.408175 150.379283 
L 331.13506 150.396693 
L 332.861946 137.526227 
L 334.588832 118.034858 
L 336.315718 106.320496 
L 338.042604 97.134503 
L 339.76949 131.406204 
L 341.496376 94.741956 
L 343.223262 141.909037 
L 344.950147 144.948276 
L 346.677033 136.284633 
L 348.403919 138.939508 
L 350.130805 149.648477 
L 351.857691 70.826305 
L 353.584577 119.624428 
L 355.311463 140.420664 
L 357.038349 152.303731 
L 358.765235 143.390054 
L 360.49212 152.346283 
L 362.219006 64.367544 
L 363.945892 135.780833 
L 365.672778 138.740838 
L 367.399664 144.170274 
L 369.12655 92.81485 
L 370.853436 84.094292 
L 372.580322 107.652578 
L 374.307207 77.964626 
L 376.034093 152.298493 
L 377.760979 150.786118 
L 379.487865 166.503255 
L 381.214751 104.415533 
L 382.941637 137.356249 
L 384.668523 112.08164 
L 384.668523 112.08164 
" style="fill:none;stroke:#1f77b4;stroke-linecap:square;stroke-opacity:0.3;stroke-width:1.5;"/>
   </g>
   <g id="line2d_16">
    <path clip-path="url(#p543e75d4c7)" d="M 60.013977 187.792252 
L 61.740863 167.925192 
L 63.467749 158.348665 
L 65.194635 156.883334 
L 66.921521 161.349859 
L 68.648407 169.568904 
L 70.375293 179.413776 
L 72.102178 185.701153 
L 73.829064 188.62177 
L 75.55595 189.870346 
L 77.282836 195.906342 
L 79.009722 196.344077 
L 80.736608 193.722273 
L 84.19038 211.851782 
L 85.917265 216.079568 
L 87.644151 234.492298 
L 89.371037 243.673723 
L 91.097923 243.131944 
L 92.824809 258.897733 
L 94.551695 251.790634 
L 96.278581 223.798068 
L 98.005467 192.073996 
L 99.732353 157.881471 
L 101.459238 126.515615 
L 103.186124 118.872478 
L 104.91301 127.240424 
L 106.639896 123.239973 
L 108.366782 144.177883 
L 110.093668 173.310882 
L 111.820554 181.274319 
L 113.54744 168.333366 
L 115.274325 154.479787 
L 117.001211 141.909102 
L 118.728097 133.298162 
L 120.454983 131.779588 
L 122.181869 144.521361 
L 123.908755 139.992035 
L 125.635641 149.482212 
L 127.362527 152.280831 
L 129.089412 156.902242 
L 130.816298 145.553694 
L 132.543184 145.93994 
L 134.27007 153.364225 
L 135.996956 156.307901 
L 137.723842 160.546269 
L 139.450728 168.849703 
L 141.177614 159.153539 
L 142.9045 157.260316 
L 144.631385 158.938439 
L 146.358271 158.733902 
L 148.085157 160.393964 
L 149.812043 176.508534 
L 151.538929 190.345553 
L 154.992701 204.661782 
L 156.719587 200.402921 
L 158.446472 191.962309 
L 161.900244 178.720476 
L 163.62713 168.812427 
L 165.354016 170.538409 
L 167.080902 173.996108 
L 168.807788 163.883241 
L 170.534674 159.954092 
L 172.261559 163.519861 
L 173.988445 161.190644 
L 175.715331 157.940152 
L 177.442217 155.481571 
L 179.169103 151.700089 
L 180.895989 156.016623 
L 182.622875 165.502035 
L 184.349761 163.743852 
L 186.076647 164.87168 
L 187.803532 168.081872 
L 191.257304 165.676897 
L 192.98419 162.050213 
L 194.711076 157.941239 
L 196.437962 156.272824 
L 198.164848 156.364709 
L 199.891734 155.569088 
L 201.618619 151.82765 
L 203.345505 153.356707 
L 205.072391 153.326601 
L 206.799277 157.653512 
L 208.526163 159.11861 
L 210.253049 159.661864 
L 211.979935 162.071839 
L 213.706821 163.611135 
L 215.433706 163.435214 
L 217.160592 155.896068 
L 218.887478 146.83096 
L 220.614364 138.801056 
L 222.34125 140.413434 
L 224.068136 148.26741 
L 225.795022 146.336083 
L 227.521908 145.300147 
L 229.248794 147.879584 
L 230.975679 144.820256 
L 232.702565 148.155494 
L 234.429451 134.925845 
L 236.156337 123.301306 
L 237.883223 103.308163 
L 239.610109 92.834279 
L 241.336995 88.477794 
L 243.063881 87.621038 
L 244.790766 92.556865 
L 246.517652 106.462936 
L 248.244538 125.275973 
L 249.971424 134.439924 
L 251.69831 134.845188 
L 253.425196 137.122405 
L 255.152082 126.472222 
L 256.878968 128.650446 
L 258.605853 129.501775 
L 260.332739 144.539039 
L 262.059625 141.103176 
L 263.786511 143.914596 
L 265.513397 147.000669 
L 267.240283 132.103394 
L 268.967169 120.547327 
L 270.694055 114.161486 
L 272.420941 108.713075 
L 274.147826 118.487198 
L 275.874712 126.403102 
L 277.601598 142.971567 
L 279.328484 140.887548 
L 281.05537 147.277156 
L 282.782256 151.203463 
L 284.509142 152.14239 
L 286.236028 143.976982 
L 287.962913 138.559053 
L 289.689799 134.37266 
L 291.416685 137.623829 
L 293.143571 137.615932 
L 294.870457 143.61869 
L 296.597343 145.584345 
L 298.324229 146.109754 
L 300.051115 153.139966 
L 301.778 159.368677 
L 303.504886 160.517444 
L 305.231772 162.287171 
L 306.958658 159.982087 
L 308.685544 155.507154 
L 310.41243 154.589331 
L 312.139316 148.278998 
L 313.866202 137.996241 
L 315.593088 134.588821 
L 317.319973 135.939609 
L 320.773745 132.672417 
L 322.500631 133.543094 
L 324.227517 134.882558 
L 325.954403 137.852209 
L 327.681289 141.767918 
L 329.408175 136.20943 
L 331.13506 130.238576 
L 332.861946 130.792698 
L 336.315718 116.30882 
L 338.042604 111.722539 
L 339.76949 113.193624 
L 341.496376 118.282824 
L 343.223262 133.162067 
L 344.950147 135.516834 
L 346.677033 133.066825 
L 348.403919 127.465786 
L 350.130805 128.736979 
L 351.857691 123.305498 
L 353.584577 132.19308 
L 355.311463 129.23895 
L 357.038349 127.463898 
L 358.765235 128.273107 
L 360.49212 139.054706 
L 362.219006 133.353199 
L 363.945892 123.998139 
L 365.672778 119.073475 
L 367.399664 108.275318 
L 369.12655 104.610534 
L 370.853436 108.914798 
L 372.580322 109.98848 
L 374.307207 113.494787 
L 376.034093 123.140523 
L 377.760979 138.582905 
L 379.487865 148.861181 
L 381.214751 149.255023 
L 382.941637 135.044103 
L 384.668523 101.508092 
L 384.668523 101.508092 
" style="fill:none;stroke:#1f77b4;stroke-linecap:square;stroke-width:1.5;"/>
   </g>
   <g id="line2d_17">
    <path clip-path="url(#p543e75d4c7)" d="M 60.013977 43.843329 
L 61.740863 74.801143 
L 63.467749 102.161132 
L 65.194635 183.885714 
L 66.921521 191.302825 
L 68.648407 195.591007 
L 70.375293 224.564607 
L 73.829064 225.151826 
L 75.55595 227.013705 
L 77.282836 227.338872 
L 79.009722 227.857088 
L 80.736608 238.633183 
L 82.463494 239.422032 
L 84.19038 240.037171 
L 85.917265 226.727537 
L 87.644151 227.420738 
L 89.371037 227.977724 
L 91.097923 235.754641 
L 94.551695 236.396178 
L 96.278581 238.720018 
L 99.732353 239.267889 
L 101.459238 229.318585 
L 103.186124 230.100199 
L 104.91301 230.563863 
L 106.639896 219.076268 
L 110.093668 219.91543 
L 111.820554 230.901535 
L 113.54744 232.381409 
L 115.274325 233.286703 
L 117.001211 239.971857 
L 120.454983 240.66053 
L 122.181869 243.920836 
L 125.635641 243.97115 
L 129.089412 252.803294 
L 130.816298 252.812308 
L 132.543184 223.9073 
L 134.27007 227.13915 
L 135.996956 229.156486 
L 137.723842 236.329212 
L 141.177614 236.557602 
L 142.9045 254.562519 
L 144.631385 255.189238 
L 146.358271 255.537071 
L 148.085157 260.702215 
L 149.812043 261.051559 
L 151.538929 261.152368 
L 153.265815 258.335326 
L 154.992701 258.84433 
L 156.719587 259.190297 
L 158.446472 261.474204 
L 160.173358 262.115823 
L 161.900244 262.223298 
L 163.62713 260.573401 
L 165.354016 261.062376 
L 167.080902 261.225496 
L 168.807788 264.537203 
L 172.261559 264.692283 
L 173.988445 271.594199 
L 175.715331 271.838132 
L 177.442217 271.851828 
L 179.169103 265.51432 
L 180.895989 265.99727 
L 182.622875 266.094846 
L 184.349761 262.203075 
L 187.803532 262.239513 
L 189.530418 268.377287 
L 192.98419 268.391439 
L 194.711076 272.179914 
L 198.164848 272.291528 
L 199.891734 273.560739 
L 203.345505 273.48724 
L 205.072391 269.423811 
L 208.526163 269.741766 
L 210.253049 270.145615 
L 213.706821 270.206049 
L 215.433706 276.188761 
L 218.887478 276.1806 
L 220.614364 265.71412 
L 222.34125 266.29178 
L 224.068136 266.634703 
L 225.795022 270.061566 
L 229.248794 270.098879 
L 230.975679 265.097716 
L 234.429451 265.60916 
L 236.156337 271.736784 
L 239.610109 271.684607 
L 241.336995 273.815067 
L 244.790766 273.772897 
L 246.517652 264.561849 
L 248.244538 265.090894 
L 249.971424 265.501531 
L 251.69831 268.977199 
L 255.152082 269.102683 
L 256.878968 274.782157 
L 260.332739 274.834826 
L 262.059625 270.532462 
L 265.513397 270.672011 
L 267.240283 267.510139 
L 270.694055 267.667358 
L 272.420941 273.693952 
L 275.874712 273.704346 
L 277.601598 274.332986 
L 281.05537 274.34534 
L 282.782256 276.334125 
L 286.236028 276.329595 
L 287.962913 269.873314 
L 291.416685 270.092914 
L 293.143571 272.795803 
L 296.597343 273.019422 
L 298.324229 273.795816 
L 301.778 273.769648 
L 303.504886 276.236532 
L 306.958658 276.267191 
L 308.685544 273.833907 
L 312.139316 274.019094 
L 313.866202 273.01604 
L 317.319973 272.987971 
L 319.046859 270.253054 
L 322.500631 270.287122 
L 324.227517 272.532169 
L 327.681289 272.588699 
L 329.408175 267.887806 
L 332.861946 268.004252 
L 334.588832 271.971075 
L 338.042604 271.995914 
L 339.76949 272.198804 
L 341.496376 272.283579 
L 343.223262 272.253478 
L 344.950147 269.956416 
L 348.403919 270.131725 
L 350.130805 273.029334 
L 353.584577 273.051143 
L 355.311463 271.930639 
L 358.765235 272.152837 
L 360.49212 269.074423 
L 362.219006 269.301097 
L 363.945892 269.365908 
L 365.672778 269.317927 
L 369.12655 269.425907 
L 370.853436 270.533298 
L 374.307207 270.526477 
L 376.034093 265.131861 
L 379.487865 265.138797 
L 381.214751 274.007126 
L 384.668523 274.019018 
L 384.668523 274.019018 
" style="fill:none;stroke:#ff7f0e;stroke-linecap:square;stroke-opacity:0.3;stroke-width:1.5;"/>
   </g>
   <g id="line2d_18">
    <path clip-path="url(#p543e75d4c7)" d="M 60.013977 34.414125 
L 61.740863 83.967913 
L 63.467749 125.237499 
L 65.194635 158.778729 
L 66.921521 185.147447 
L 68.648407 204.899498 
L 70.375293 219.56138 
L 72.102178 225.661758 
L 73.829064 224.807118 
L 75.55595 228.953193 
L 77.282836 232.753786 
L 79.009722 232.78892 
L 80.736608 234.203013 
L 82.463494 234.020799 
L 85.917265 233.216437 
L 87.644151 232.321639 
L 89.371037 231.240513 
L 91.097923 231.992353 
L 94.551695 237.53915 
L 96.278581 237.941499 
L 98.005467 238.161222 
L 99.732353 235.979353 
L 101.459238 233.255113 
L 103.186124 228.937874 
L 104.91301 225.393799 
L 106.639896 223.420978 
L 108.366782 222.641309 
L 110.093668 224.451646 
L 111.820554 226.749136 
L 113.54744 230.061427 
L 115.274325 234.786999 
L 117.001211 238.146645 
L 118.728097 240.237428 
L 120.454983 241.033866 
L 122.181869 242.976451 
L 123.908755 247.373952 
L 125.635641 248.089178 
L 127.362527 247.123779 
L 129.089412 244.076046 
L 130.816298 240.58453 
L 132.543184 237.42805 
L 134.27007 233.027352 
L 135.996956 230.899643 
L 137.723842 231.848938 
L 139.450728 235.882254 
L 141.177614 243.523222 
L 144.631385 253.35324 
L 146.358271 256.832289 
L 148.085157 259.689567 
L 149.812043 260.696215 
L 151.538929 259.714045 
L 154.992701 260.410836 
L 156.719587 260.199187 
L 158.446472 260.476753 
L 160.173358 260.628698 
L 161.900244 261.259278 
L 163.62713 261.699957 
L 165.354016 261.577773 
L 167.080902 262.069774 
L 168.807788 263.387164 
L 170.534674 265.76721 
L 172.261559 267.714801 
L 173.988445 268.877225 
L 175.715331 269.715231 
L 177.442217 269.366723 
L 179.169103 268.506181 
L 182.622875 264.309809 
L 184.349761 263.566917 
L 186.076647 263.41495 
L 189.530418 265.857013 
L 191.257304 267.486196 
L 192.98419 269.589451 
L 196.437962 272.59253 
L 199.891734 273.079857 
L 201.618619 272.742487 
L 203.345505 271.873794 
L 205.072391 271.240052 
L 206.799277 270.088526 
L 208.526163 269.59922 
L 210.253049 269.949137 
L 211.979935 271.83951 
L 213.706821 273.177489 
L 215.433706 273.366178 
L 217.160592 272.637423 
L 222.34125 269.905968 
L 224.068136 268.448288 
L 227.521908 267.020413 
L 229.248794 267.726978 
L 232.702565 267.705338 
L 234.429451 267.956522 
L 236.156337 269.014758 
L 237.883223 271.275584 
L 239.610109 272.872085 
L 241.336995 272.936245 
L 243.063881 271.73974 
L 244.790766 269.94886 
L 246.517652 268.771231 
L 248.244538 267.287416 
L 249.971424 266.625281 
L 251.69831 267.170363 
L 253.425196 269.084016 
L 255.152082 271.516964 
L 256.878968 272.603614 
L 258.605853 273.364807 
L 260.332739 273.108252 
L 262.059625 272.50244 
L 265.513397 269.195726 
L 267.240283 268.766935 
L 268.967169 269.022264 
L 274.147826 272.186471 
L 275.874712 273.597853 
L 277.601598 274.547838 
L 279.328484 275.657457 
L 282.782256 275.310723 
L 289.689799 271.924295 
L 291.416685 271.339983 
L 293.143571 271.397705 
L 294.870457 271.780689 
L 296.597343 273.011939 
L 300.051115 274.557055 
L 303.504886 275.220675 
L 305.231772 275.422651 
L 306.958658 275.290538 
L 310.41243 274.658891 
L 315.593088 272.263 
L 319.046859 271.369443 
L 320.773745 271.572238 
L 322.500631 271.566701 
L 324.227517 271.286436 
L 325.954403 270.60496 
L 332.861946 269.713675 
L 334.588832 270.101053 
L 338.042604 272.067557 
L 339.76949 272.291098 
L 341.496376 271.826308 
L 343.223262 271.174845 
L 344.950147 271.055957 
L 348.403919 271.389415 
L 350.130805 271.663184 
L 351.857691 272.305484 
L 353.584577 272.705604 
L 355.311463 272.490276 
L 357.038349 271.908902 
L 358.765235 270.963748 
L 362.219006 269.666236 
L 363.945892 269.367933 
L 365.672778 269.209471 
L 367.399664 269.811658 
L 369.12655 270.19525 
L 370.853436 269.863345 
L 372.580322 268.472067 
L 374.307207 267.787443 
L 376.034093 267.685194 
L 377.760979 267.4615 
L 379.487865 267.932368 
L 381.214751 269.369274 
L 382.941637 272.043695 
L 384.668523 276.227108 
L 384.668523 276.227108 
" style="fill:none;stroke:#ff7f0e;stroke-linecap:square;stroke-width:1.5;"/>
   </g>
   <g id="line2d_19">
    <path clip-path="url(#p543e75d4c7)" d="M 60.013977 44.27086 
L 61.740863 47.520482 
L 63.467749 50.183804 
L 65.194635 52.237452 
L 66.921521 53.658048 
L 68.648407 54.422217 
L 70.375293 53.987906 
L 72.102178 53.06307 
L 73.829064 51.193304 
L 75.55595 50.170078 
L 77.282836 49.96774 
L 79.009722 51.00271 
L 80.736608 53.834353 
L 82.463494 57.483963 
L 84.19038 62.853084 
L 91.097923 90.915729 
L 92.824809 98.846666 
L 94.551695 104.56485 
L 98.005467 121.19175 
L 99.732353 128.501643 
L 101.459238 134.709819 
L 103.186124 140.431699 
L 104.91301 141.026239 
L 106.639896 144.800065 
L 108.366782 149.399057 
L 110.093668 150.792457 
L 111.820554 149.871998 
L 113.54744 150.764855 
L 115.274325 150.788214 
L 117.001211 154.317669 
L 118.728097 166.70615 
L 120.454983 174.596799 
L 122.181869 175.342205 
L 123.908755 176.499711 
L 125.635641 178.22052 
L 127.362527 178.573667 
L 129.089412 177.210304 
L 130.816298 176.733566 
L 132.543184 178.335978 
L 134.27007 184.688576 
L 135.996956 197.205301 
L 139.450728 207.635588 
L 141.177614 207.079956 
L 142.9045 205.788575 
L 144.631385 202.728959 
L 146.358271 194.935475 
L 148.085157 185.492391 
L 149.812043 173.731381 
L 151.538929 164.9658 
L 153.265815 159.393577 
L 154.992701 161.816479 
L 156.719587 170.312379 
L 158.446472 174.557173 
L 160.173358 179.517232 
L 161.900244 185.070164 
L 163.62713 188.132008 
L 165.354016 195.683395 
L 167.080902 196.570617 
L 168.807788 195.566233 
L 170.534674 191.534629 
L 172.261559 188.846211 
L 173.988445 184.329635 
L 175.715331 176.62698 
L 177.442217 172.390315 
L 179.169103 172.168851 
L 180.895989 179.588489 
L 182.622875 191.236239 
L 186.076647 203.161587 
L 187.803532 206.720193 
L 189.530418 210.579337 
L 191.257304 214.051554 
L 192.98419 212.349767 
L 194.711076 209.737125 
L 196.437962 203.574548 
L 198.164848 200.728749 
L 199.891734 198.187136 
L 201.618619 199.205618 
L 203.345505 201.031849 
L 205.072391 201.800521 
L 206.799277 204.627727 
L 208.526163 208.43452 
L 210.253049 209.070925 
L 211.979935 206.63425 
L 213.706821 203.058266 
L 215.433706 204.854185 
L 217.160592 206.202701 
L 218.887478 209.119848 
L 220.614364 213.104659 
L 222.34125 215.888273 
L 224.068136 220.568529 
L 225.795022 225.955401 
L 227.521908 232.398424 
L 229.248794 238.26732 
L 230.975679 242.999544 
L 232.702565 246.502689 
L 234.429451 245.535553 
L 236.156337 242.46911 
L 237.883223 238.84664 
L 239.610109 232.196133 
L 241.336995 227.112352 
L 243.063881 219.657585 
L 244.790766 215.88557 
L 246.517652 215.126897 
L 248.244538 219.706684 
L 249.971424 223.47734 
L 251.69831 224.720208 
L 253.425196 220.331313 
L 255.152082 217.212867 
L 256.878968 215.55517 
L 258.605853 214.987378 
L 260.332739 213.359815 
L 262.059625 214.542451 
L 263.786511 220.217569 
L 265.513397 228.614928 
L 267.240283 232.639443 
L 268.967169 235.203508 
L 270.694055 230.949442 
L 272.420941 224.980641 
L 274.147826 221.143347 
L 275.874712 213.560966 
L 277.601598 204.023038 
L 279.328484 192.08672 
L 281.05537 184.108983 
L 282.782256 180.58679 
L 284.509142 180.475617 
L 286.236028 186.717847 
L 287.962913 193.987433 
L 289.689799 203.768723 
L 291.416685 212.560236 
L 294.870457 223.901597 
L 296.597343 224.177763 
L 298.324229 223.377026 
L 300.051115 218.773847 
L 301.778 214.740127 
L 303.504886 216.706055 
L 305.231772 227.760343 
L 306.958658 235.975821 
L 308.685544 238.850699 
L 310.41243 242.701299 
L 312.139316 245.212594 
L 313.866202 241.623429 
L 315.593088 234.608921 
L 317.319973 226.199196 
L 319.046859 224.167313 
L 320.773745 227.689509 
L 322.500631 236.796756 
L 324.227517 241.170424 
L 325.954403 248.341099 
L 327.681289 252.858224 
L 329.408175 253.089169 
L 331.13506 244.445253 
L 332.861946 237.986966 
L 334.588832 235.255736 
L 336.315718 234.837946 
L 338.042604 237.587823 
L 339.76949 241.614886 
L 343.223262 257.965503 
L 344.950147 258.24948 
L 346.677033 252.568563 
L 348.403919 243.741927 
L 351.857691 237.997756 
L 353.584577 234.962801 
L 355.311463 233.770644 
L 357.038349 234.305575 
L 358.765235 239.036357 
L 360.49212 244.377997 
L 362.219006 247.229419 
L 363.945892 249.482343 
L 365.672778 253.52844 
L 367.399664 255.902012 
L 369.12655 254.193578 
L 370.853436 254.340775 
L 372.580322 256.381237 
L 374.307207 255.714774 
L 376.034093 255.955035 
L 377.760979 257.091458 
L 379.487865 255.562112 
L 381.214751 249.930329 
L 382.941637 238.759438 
L 384.668523 220.61277 
L 384.668523 220.61277 
" style="fill:none;stroke:#008000;stroke-linecap:square;stroke-width:1.5;"/>
   </g>
   <g id="patch_3">
    <path d="M 43.78125 288.430125 
L 43.78125 22.318125 
" style="fill:none;stroke:#000000;stroke-linecap:square;stroke-linejoin:miter;stroke-width:0.8;"/>
   </g>
   <g id="patch_4">
    <path d="M 400.90125 288.430125 
L 400.90125 22.318125 
" style="fill:none;stroke:#000000;stroke-linecap:square;stroke-linejoin:miter;stroke-width:0.8;"/>
   </g>
   <g id="patch_5">
    <path d="M 43.78125 288.430125 
L 400.90125 288.430125 
" style="fill:none;stroke:#000000;stroke-linecap:square;stroke-linejoin:miter;stroke-width:0.8;"/>
   </g>
   <g id="patch_6">
    <path d="M 43.78125 22.318125 
L 400.90125 22.318125 
" style="fill:none;stroke:#000000;stroke-linecap:square;stroke-linejoin:miter;stroke-width:0.8;"/>
   </g>
   <g id="text_17">
    <!-- Entropy and Loss. -->
    <defs>
     <path d="M 9.1875 72.90625 
L 59.90625 72.90625 
L 59.90625 58.6875 
L 27.984375 58.6875 
L 27.984375 45.125 
L 58.015625 45.125 
L 58.015625 30.90625 
L 27.984375 30.90625 
L 27.984375 14.203125 
L 60.984375 14.203125 
L 60.984375 0 
L 9.1875 0 
z
" id="DejaVuSans-Bold-69"/>
     <path d="M 63.375 33.296875 
L 63.375 0 
L 45.796875 0 
L 45.796875 5.421875 
L 45.796875 25.484375 
Q 45.796875 32.5625 45.484375 35.25 
Q 45.171875 37.9375 44.390625 39.203125 
Q 43.359375 40.921875 41.59375 41.875 
Q 39.84375 42.828125 37.59375 42.828125 
Q 32.125 42.828125 29 38.59375 
Q 25.875 34.375 25.875 26.90625 
L 25.875 0 
L 8.40625 0 
L 8.40625 54.6875 
L 25.875 54.6875 
L 25.875 46.6875 
Q 29.828125 51.46875 34.265625 53.734375 
Q 38.71875 56 44.09375 56 
Q 53.5625 56 58.46875 50.1875 
Q 63.375 44.390625 63.375 33.296875 
z
" id="DejaVuSans-Bold-110"/>
     <path d="M 27.484375 70.21875 
L 27.484375 54.6875 
L 45.515625 54.6875 
L 45.515625 42.1875 
L 27.484375 42.1875 
L 27.484375 19 
Q 27.484375 15.1875 29 13.84375 
Q 30.515625 12.5 35.015625 12.5 
L 44 12.5 
L 44 0 
L 29 0 
Q 18.65625 0 14.328125 4.3125 
Q 10.015625 8.640625 10.015625 19 
L 10.015625 42.1875 
L 1.3125 42.1875 
L 1.3125 54.6875 
L 10.015625 54.6875 
L 10.015625 70.21875 
z
" id="DejaVuSans-Bold-116"/>
     <path d="M 49.03125 39.796875 
Q 46.734375 40.875 44.453125 41.375 
Q 42.1875 41.890625 39.890625 41.890625 
Q 33.15625 41.890625 29.515625 37.5625 
Q 25.875 33.25 25.875 25.203125 
L 25.875 0 
L 8.40625 0 
L 8.40625 54.6875 
L 25.875 54.6875 
L 25.875 45.703125 
Q 29.25 51.078125 33.609375 53.53125 
Q 37.984375 56 44.09375 56 
Q 44.96875 56 45.984375 55.921875 
Q 47.015625 55.859375 48.96875 55.609375 
z
" id="DejaVuSans-Bold-114"/>
     <path d="M 34.421875 43.5 
Q 28.609375 43.5 25.5625 39.328125 
Q 22.515625 35.15625 22.515625 27.296875 
Q 22.515625 19.4375 25.5625 15.25 
Q 28.609375 11.078125 34.421875 11.078125 
Q 40.140625 11.078125 43.15625 15.25 
Q 46.1875 19.4375 46.1875 27.296875 
Q 46.1875 35.15625 43.15625 39.328125 
Q 40.140625 43.5 34.421875 43.5 
z
M 34.421875 56 
Q 48.53125 56 56.46875 48.375 
Q 64.40625 40.765625 64.40625 27.296875 
Q 64.40625 13.8125 56.46875 6.1875 
Q 48.53125 -1.421875 34.421875 -1.421875 
Q 20.265625 -1.421875 12.28125 6.1875 
Q 4.296875 13.8125 4.296875 27.296875 
Q 4.296875 40.765625 12.28125 48.375 
Q 20.265625 56 34.421875 56 
z
" id="DejaVuSans-Bold-111"/>
     <path d="M 25.875 7.90625 
L 25.875 -20.796875 
L 8.40625 -20.796875 
L 8.40625 54.6875 
L 25.875 54.6875 
L 25.875 46.6875 
Q 29.5 51.46875 33.890625 53.734375 
Q 38.28125 56 44 56 
Q 54.109375 56 60.59375 47.96875 
Q 67.09375 39.9375 67.09375 27.296875 
Q 67.09375 14.65625 60.59375 6.609375 
Q 54.109375 -1.421875 44 -1.421875 
Q 38.28125 -1.421875 33.890625 0.84375 
Q 29.5 3.125 25.875 7.90625 
z
M 37.5 43.3125 
Q 31.890625 43.3125 28.875 39.1875 
Q 25.875 35.0625 25.875 27.296875 
Q 25.875 19.53125 28.875 15.40625 
Q 31.890625 11.28125 37.5 11.28125 
Q 43.109375 11.28125 46.0625 15.375 
Q 49.03125 19.484375 49.03125 27.296875 
Q 49.03125 35.109375 46.0625 39.203125 
Q 43.109375 43.3125 37.5 43.3125 
z
" id="DejaVuSans-Bold-112"/>
     <path d="M 1.21875 54.6875 
L 18.703125 54.6875 
L 33.40625 17.578125 
L 45.90625 54.6875 
L 63.375 54.6875 
L 40.375 -5.171875 
Q 36.921875 -14.3125 32.296875 -17.9375 
Q 27.6875 -21.578125 20.125 -21.578125 
L 10.015625 -21.578125 
L 10.015625 -10.109375 
L 15.484375 -10.109375 
Q 19.921875 -10.109375 21.9375 -8.6875 
Q 23.96875 -7.28125 25.09375 -3.609375 
L 25.59375 -2.09375 
z
" id="DejaVuSans-Bold-121"/>
     <path id="DejaVuSans-Bold-32"/>
     <path d="M 32.90625 24.609375 
Q 27.4375 24.609375 24.671875 22.75 
Q 21.921875 20.90625 21.921875 17.28125 
Q 21.921875 13.96875 24.140625 12.078125 
Q 26.375 10.203125 30.328125 10.203125 
Q 35.25 10.203125 38.625 13.734375 
Q 42 17.28125 42 22.609375 
L 42 24.609375 
z
M 59.625 31.203125 
L 59.625 0 
L 42 0 
L 42 8.109375 
Q 38.484375 3.125 34.078125 0.84375 
Q 29.6875 -1.421875 23.390625 -1.421875 
Q 14.890625 -1.421875 9.59375 3.53125 
Q 4.296875 8.5 4.296875 16.40625 
Q 4.296875 26.03125 10.90625 30.515625 
Q 17.53125 35.015625 31.6875 35.015625 
L 42 35.015625 
L 42 36.375 
Q 42 40.53125 38.71875 42.453125 
Q 35.453125 44.390625 28.515625 44.390625 
Q 22.90625 44.390625 18.0625 43.265625 
Q 13.234375 42.140625 9.078125 39.890625 
L 9.078125 53.21875 
Q 14.703125 54.59375 20.359375 55.296875 
Q 26.03125 56 31.6875 56 
Q 46.484375 56 53.046875 50.171875 
Q 59.625 44.34375 59.625 31.203125 
z
" id="DejaVuSans-Bold-97"/>
     <path d="M 45.609375 46.6875 
L 45.609375 75.984375 
L 63.1875 75.984375 
L 63.1875 0 
L 45.609375 0 
L 45.609375 7.90625 
Q 42 3.078125 37.640625 0.828125 
Q 33.296875 -1.421875 27.59375 -1.421875 
Q 17.484375 -1.421875 10.984375 6.609375 
Q 4.5 14.65625 4.5 27.296875 
Q 4.5 39.9375 10.984375 47.96875 
Q 17.484375 56 27.59375 56 
Q 33.25 56 37.625 53.734375 
Q 42 51.46875 45.609375 46.6875 
z
M 34.078125 11.28125 
Q 39.703125 11.28125 42.65625 15.375 
Q 45.609375 19.484375 45.609375 27.296875 
Q 45.609375 35.109375 42.65625 39.203125 
Q 39.703125 43.3125 34.078125 43.3125 
Q 28.515625 43.3125 25.5625 39.203125 
Q 22.609375 35.109375 22.609375 27.296875 
Q 22.609375 19.484375 25.5625 15.375 
Q 28.515625 11.28125 34.078125 11.28125 
z
" id="DejaVuSans-Bold-100"/>
     <path d="M 9.1875 72.90625 
L 27.984375 72.90625 
L 27.984375 14.203125 
L 60.984375 14.203125 
L 60.984375 0 
L 9.1875 0 
z
" id="DejaVuSans-Bold-76"/>
     <path d="M 51.125 52.984375 
L 51.125 39.703125 
Q 45.515625 42.046875 40.28125 43.21875 
Q 35.0625 44.390625 30.421875 44.390625 
Q 25.4375 44.390625 23.015625 43.140625 
Q 20.609375 41.890625 20.609375 39.3125 
Q 20.609375 37.203125 22.4375 36.078125 
Q 24.265625 34.96875 29 34.421875 
L 32.078125 33.984375 
Q 45.515625 32.28125 50.140625 28.375 
Q 54.78125 24.46875 54.78125 16.109375 
Q 54.78125 7.375 48.328125 2.96875 
Q 41.890625 -1.421875 29.109375 -1.421875 
Q 23.6875 -1.421875 17.890625 -0.5625 
Q 12.109375 0.296875 6 2 
L 6 15.28125 
Q 11.234375 12.75 16.71875 11.46875 
Q 22.21875 10.203125 27.875 10.203125 
Q 33.015625 10.203125 35.59375 11.609375 
Q 38.1875 13.03125 38.1875 15.828125 
Q 38.1875 18.171875 36.40625 19.3125 
Q 34.625 20.453125 29.296875 21.09375 
L 26.21875 21.484375 
Q 14.546875 22.953125 9.859375 26.90625 
Q 5.171875 30.859375 5.171875 38.921875 
Q 5.171875 47.609375 11.125 51.796875 
Q 17.09375 56 29.390625 56 
Q 34.234375 56 39.546875 55.265625 
Q 44.875 54.546875 51.125 52.984375 
z
" id="DejaVuSans-Bold-115"/>
     <path d="M 10.203125 18.890625 
L 27.78125 18.890625 
L 27.78125 0 
L 10.203125 0 
z
" id="DejaVuSans-Bold-46"/>
    </defs>
    <g transform="translate(161.657813 16.318125)scale(0.12 -0.12)">
     <use xlink:href="#DejaVuSans-Bold-69"/>
     <use x="68.310547" xlink:href="#DejaVuSans-Bold-110"/>
     <use x="139.501953" xlink:href="#DejaVuSans-Bold-116"/>
     <use x="187.304688" xlink:href="#DejaVuSans-Bold-114"/>
     <use x="236.621094" xlink:href="#DejaVuSans-Bold-111"/>
     <use x="305.322266" xlink:href="#DejaVuSans-Bold-112"/>
     <use x="376.904297" xlink:href="#DejaVuSans-Bold-121"/>
     <use x="442.089844" xlink:href="#DejaVuSans-Bold-32"/>
     <use x="476.904297" xlink:href="#DejaVuSans-Bold-97"/>
     <use x="544.384766" xlink:href="#DejaVuSans-Bold-110"/>
     <use x="615.576172" xlink:href="#DejaVuSans-Bold-100"/>
     <use x="687.158203" xlink:href="#DejaVuSans-Bold-32"/>
     <use x="721.972656" xlink:href="#DejaVuSans-Bold-76"/>
     <use x="785.693359" xlink:href="#DejaVuSans-Bold-111"/>
     <use x="854.394531" xlink:href="#DejaVuSans-Bold-115"/>
     <use x="913.916016" xlink:href="#DejaVuSans-Bold-115"/>
     <use x="973.4375" xlink:href="#DejaVuSans-Bold-46"/>
    </g>
   </g>
   <g id="legend_1">
    <g id="patch_7">
     <path d="M 18.982656 353.02505 
L 429.699844 353.02505 
Q 431.699844 353.02505 431.699844 351.02505 
L 431.699844 337.346925 
Q 431.699844 335.346925 429.699844 335.346925 
L 18.982656 335.346925 
Q 16.982656 335.346925 16.982656 337.346925 
L 16.982656 351.02505 
Q 16.982656 353.02505 18.982656 353.02505 
z
" style="fill:#4c4c4c;opacity:0.5;stroke:#4c4c4c;stroke-linejoin:miter;"/>
    </g>
    <g id="patch_8">
     <path d="M 16.982656 351.02505 
L 427.699844 351.02505 
Q 429.699844 351.02505 429.699844 349.02505 
L 429.699844 335.346925 
Q 429.699844 333.346925 427.699844 333.346925 
L 16.982656 333.346925 
Q 14.982656 333.346925 14.982656 335.346925 
L 14.982656 349.02505 
Q 14.982656 351.02505 16.982656 351.02505 
z
" style="fill:#ffffff;stroke:#cccccc;stroke-linejoin:miter;"/>
    </g>
    <g id="line2d_20">
     <path d="M 18.982656 341.445362 
L 38.982656 341.445362 
" style="fill:none;stroke:#1f77b4;stroke-linecap:square;stroke-width:1.5;"/>
    </g>
    <g id="line2d_21"/>
    <g id="text_18">
     <!-- Policy Loss (Normalized) -->
     <defs>
      <path d="M 19.671875 64.796875 
L 19.671875 37.40625 
L 32.078125 37.40625 
Q 38.96875 37.40625 42.71875 40.96875 
Q 46.484375 44.53125 46.484375 51.125 
Q 46.484375 57.671875 42.71875 61.234375 
Q 38.96875 64.796875 32.078125 64.796875 
z
M 9.8125 72.90625 
L 32.078125 72.90625 
Q 44.34375 72.90625 50.609375 67.359375 
Q 56.890625 61.8125 56.890625 51.125 
Q 56.890625 40.328125 50.609375 34.8125 
Q 44.34375 29.296875 32.078125 29.296875 
L 19.671875 29.296875 
L 19.671875 0 
L 9.8125 0 
z
" id="DejaVuSans-80"/>
      <path d="M 9.421875 75.984375 
L 18.40625 75.984375 
L 18.40625 0 
L 9.421875 0 
z
" id="DejaVuSans-108"/>
      <path d="M 9.421875 54.6875 
L 18.40625 54.6875 
L 18.40625 0 
L 9.421875 0 
z
M 9.421875 75.984375 
L 18.40625 75.984375 
L 18.40625 64.59375 
L 9.421875 64.59375 
z
" id="DejaVuSans-105"/>
      <path d="M 32.171875 -5.078125 
Q 28.375 -14.84375 24.75 -17.8125 
Q 21.140625 -20.796875 15.09375 -20.796875 
L 7.90625 -20.796875 
L 7.90625 -13.28125 
L 13.1875 -13.28125 
Q 16.890625 -13.28125 18.9375 -11.515625 
Q 21 -9.765625 23.484375 -3.21875 
L 25.09375 0.875 
L 2.984375 54.6875 
L 12.5 54.6875 
L 29.59375 11.921875 
L 46.6875 54.6875 
L 56.203125 54.6875 
z
" id="DejaVuSans-121"/>
      <path id="DejaVuSans-32"/>
      <path d="M 31 75.875 
Q 24.46875 64.65625 21.28125 53.65625 
Q 18.109375 42.671875 18.109375 31.390625 
Q 18.109375 20.125 21.3125 9.0625 
Q 24.515625 -2 31 -13.1875 
L 23.1875 -13.1875 
Q 15.875 -1.703125 12.234375 9.375 
Q 8.59375 20.453125 8.59375 31.390625 
Q 8.59375 42.28125 12.203125 53.3125 
Q 15.828125 64.359375 23.1875 75.875 
z
" id="DejaVuSans-40"/>
      <path d="M 9.8125 72.90625 
L 23.09375 72.90625 
L 55.421875 11.921875 
L 55.421875 72.90625 
L 64.984375 72.90625 
L 64.984375 0 
L 51.703125 0 
L 19.390625 60.984375 
L 19.390625 0 
L 9.8125 0 
z
" id="DejaVuSans-78"/>
      <path d="M 41.109375 46.296875 
Q 39.59375 47.171875 37.8125 47.578125 
Q 36.03125 48 33.890625 48 
Q 26.265625 48 22.1875 43.046875 
Q 18.109375 38.09375 18.109375 28.8125 
L 18.109375 0 
L 9.078125 0 
L 9.078125 54.6875 
L 18.109375 54.6875 
L 18.109375 46.1875 
Q 20.953125 51.171875 25.484375 53.578125 
Q 30.03125 56 36.53125 56 
Q 37.453125 56 38.578125 55.875 
Q 39.703125 55.765625 41.0625 55.515625 
z
" id="DejaVuSans-114"/>
      <path d="M 52 44.1875 
Q 55.375 50.25 60.0625 53.125 
Q 64.75 56 71.09375 56 
Q 79.640625 56 84.28125 50.015625 
Q 88.921875 44.046875 88.921875 33.015625 
L 88.921875 0 
L 79.890625 0 
L 79.890625 32.71875 
Q 79.890625 40.578125 77.09375 44.375 
Q 74.3125 48.1875 68.609375 48.1875 
Q 61.625 48.1875 57.5625 43.546875 
Q 53.515625 38.921875 53.515625 30.90625 
L 53.515625 0 
L 44.484375 0 
L 44.484375 32.71875 
Q 44.484375 40.625 41.703125 44.40625 
Q 38.921875 48.1875 33.109375 48.1875 
Q 26.21875 48.1875 22.15625 43.53125 
Q 18.109375 38.875 18.109375 30.90625 
L 18.109375 0 
L 9.078125 0 
L 9.078125 54.6875 
L 18.109375 54.6875 
L 18.109375 46.1875 
Q 21.1875 51.21875 25.484375 53.609375 
Q 29.78125 56 35.6875 56 
Q 41.65625 56 45.828125 52.96875 
Q 50 49.953125 52 44.1875 
z
" id="DejaVuSans-109"/>
      <path d="M 34.28125 27.484375 
Q 23.390625 27.484375 19.1875 25 
Q 14.984375 22.515625 14.984375 16.5 
Q 14.984375 11.71875 18.140625 8.90625 
Q 21.296875 6.109375 26.703125 6.109375 
Q 34.1875 6.109375 38.703125 11.40625 
Q 43.21875 16.703125 43.21875 25.484375 
L 43.21875 27.484375 
z
M 52.203125 31.203125 
L 52.203125 0 
L 43.21875 0 
L 43.21875 8.296875 
Q 40.140625 3.328125 35.546875 0.953125 
Q 30.953125 -1.421875 24.3125 -1.421875 
Q 15.921875 -1.421875 10.953125 3.296875 
Q 6 8.015625 6 15.921875 
Q 6 25.140625 12.171875 29.828125 
Q 18.359375 34.515625 30.609375 34.515625 
L 43.21875 34.515625 
L 43.21875 35.40625 
Q 43.21875 41.609375 39.140625 45 
Q 35.0625 48.390625 27.6875 48.390625 
Q 23 48.390625 18.546875 47.265625 
Q 14.109375 46.140625 10.015625 43.890625 
L 10.015625 52.203125 
Q 14.9375 54.109375 19.578125 55.046875 
Q 24.21875 56 28.609375 56 
Q 40.484375 56 46.34375 49.84375 
Q 52.203125 43.703125 52.203125 31.203125 
z
" id="DejaVuSans-97"/>
      <path d="M 5.515625 54.6875 
L 48.1875 54.6875 
L 48.1875 46.484375 
L 14.40625 7.171875 
L 48.1875 7.171875 
L 48.1875 0 
L 4.296875 0 
L 4.296875 8.203125 
L 38.09375 47.515625 
L 5.515625 47.515625 
z
" id="DejaVuSans-122"/>
      <path d="M 56.203125 29.59375 
L 56.203125 25.203125 
L 14.890625 25.203125 
Q 15.484375 15.921875 20.484375 11.0625 
Q 25.484375 6.203125 34.421875 6.203125 
Q 39.59375 6.203125 44.453125 7.46875 
Q 49.3125 8.734375 54.109375 11.28125 
L 54.109375 2.78125 
Q 49.265625 0.734375 44.1875 -0.34375 
Q 39.109375 -1.421875 33.890625 -1.421875 
Q 20.796875 -1.421875 13.15625 6.1875 
Q 5.515625 13.8125 5.515625 26.8125 
Q 5.515625 40.234375 12.765625 48.109375 
Q 20.015625 56 32.328125 56 
Q 43.359375 56 49.78125 48.890625 
Q 56.203125 41.796875 56.203125 29.59375 
z
M 47.21875 32.234375 
Q 47.125 39.59375 43.09375 43.984375 
Q 39.0625 48.390625 32.421875 48.390625 
Q 24.90625 48.390625 20.390625 44.140625 
Q 15.875 39.890625 15.1875 32.171875 
z
" id="DejaVuSans-101"/>
      <path d="M 45.40625 46.390625 
L 45.40625 75.984375 
L 54.390625 75.984375 
L 54.390625 0 
L 45.40625 0 
L 45.40625 8.203125 
Q 42.578125 3.328125 38.25 0.953125 
Q 33.9375 -1.421875 27.875 -1.421875 
Q 17.96875 -1.421875 11.734375 6.484375 
Q 5.515625 14.40625 5.515625 27.296875 
Q 5.515625 40.1875 11.734375 48.09375 
Q 17.96875 56 27.875 56 
Q 33.9375 56 38.25 53.625 
Q 42.578125 51.265625 45.40625 46.390625 
z
M 14.796875 27.296875 
Q 14.796875 17.390625 18.875 11.75 
Q 22.953125 6.109375 30.078125 6.109375 
Q 37.203125 6.109375 41.296875 11.75 
Q 45.40625 17.390625 45.40625 27.296875 
Q 45.40625 37.203125 41.296875 42.84375 
Q 37.203125 48.484375 30.078125 48.484375 
Q 22.953125 48.484375 18.875 42.84375 
Q 14.796875 37.203125 14.796875 27.296875 
z
" id="DejaVuSans-100"/>
      <path d="M 8.015625 75.875 
L 15.828125 75.875 
Q 23.140625 64.359375 26.78125 53.3125 
Q 30.421875 42.28125 30.421875 31.390625 
Q 30.421875 20.453125 26.78125 9.375 
Q 23.140625 -1.703125 15.828125 -13.1875 
L 8.015625 -13.1875 
Q 14.5 -2 17.703125 9.0625 
Q 20.90625 20.125 20.90625 31.390625 
Q 20.90625 42.671875 17.703125 53.65625 
Q 14.5 64.65625 8.015625 75.875 
z
" id="DejaVuSans-41"/>
     </defs>
     <g transform="translate(46.982656 344.945362)scale(0.1 -0.1)">
      <use xlink:href="#DejaVuSans-80"/>
      <use x="60.255859" xlink:href="#DejaVuSans-111"/>
      <use x="121.4375" xlink:href="#DejaVuSans-108"/>
      <use x="149.220703" xlink:href="#DejaVuSans-105"/>
      <use x="177.003906" xlink:href="#DejaVuSans-99"/>
      <use x="231.984375" xlink:href="#DejaVuSans-121"/>
      <use x="291.164062" xlink:href="#DejaVuSans-32"/>
      <use x="322.951172" xlink:href="#DejaVuSans-76"/>
      <use x="378.648438" xlink:href="#DejaVuSans-111"/>
      <use x="439.830078" xlink:href="#DejaVuSans-115"/>
      <use x="491.929688" xlink:href="#DejaVuSans-115"/>
      <use x="544.029297" xlink:href="#DejaVuSans-32"/>
      <use x="575.816406" xlink:href="#DejaVuSans-40"/>
      <use x="614.830078" xlink:href="#DejaVuSans-78"/>
      <use x="689.634766" xlink:href="#DejaVuSans-111"/>
      <use x="750.816406" xlink:href="#DejaVuSans-114"/>
      <use x="791.914062" xlink:href="#DejaVuSans-109"/>
      <use x="889.326172" xlink:href="#DejaVuSans-97"/>
      <use x="950.605469" xlink:href="#DejaVuSans-108"/>
      <use x="978.388672" xlink:href="#DejaVuSans-105"/>
      <use x="1006.171875" xlink:href="#DejaVuSans-122"/>
      <use x="1058.662109" xlink:href="#DejaVuSans-101"/>
      <use x="1120.185547" xlink:href="#DejaVuSans-100"/>
      <use x="1183.662109" xlink:href="#DejaVuSans-41"/>
     </g>
    </g>
    <g id="line2d_22">
     <path d="M 189.251406 341.445362 
L 209.251406 341.445362 
" style="fill:none;stroke:#ff7f0e;stroke-linecap:square;stroke-width:1.5;"/>
    </g>
    <g id="line2d_23"/>
    <g id="text_19">
     <!-- Value Loss (Normalized) -->
     <defs>
      <path d="M 28.609375 0 
L 0.78125 72.90625 
L 11.078125 72.90625 
L 34.1875 11.53125 
L 57.328125 72.90625 
L 67.578125 72.90625 
L 39.796875 0 
z
" id="DejaVuSans-86"/>
      <path d="M 8.5 21.578125 
L 8.5 54.6875 
L 17.484375 54.6875 
L 17.484375 21.921875 
Q 17.484375 14.15625 20.5 10.265625 
Q 23.53125 6.390625 29.59375 6.390625 
Q 36.859375 6.390625 41.078125 11.03125 
Q 45.3125 15.671875 45.3125 23.6875 
L 45.3125 54.6875 
L 54.296875 54.6875 
L 54.296875 0 
L 45.3125 0 
L 45.3125 8.40625 
Q 42.046875 3.421875 37.71875 1 
Q 33.40625 -1.421875 27.6875 -1.421875 
Q 18.265625 -1.421875 13.375 4.4375 
Q 8.5 10.296875 8.5 21.578125 
z
M 31.109375 56 
z
" id="DejaVuSans-117"/>
     </defs>
     <g transform="translate(217.251406 344.945362)scale(0.1 -0.1)">
      <use xlink:href="#DejaVuSans-86"/>
      <use x="68.298828" xlink:href="#DejaVuSans-97"/>
      <use x="129.578125" xlink:href="#DejaVuSans-108"/>
      <use x="157.361328" xlink:href="#DejaVuSans-117"/>
      <use x="220.740234" xlink:href="#DejaVuSans-101"/>
      <use x="282.263672" xlink:href="#DejaVuSans-32"/>
      <use x="314.050781" xlink:href="#DejaVuSans-76"/>
      <use x="369.748047" xlink:href="#DejaVuSans-111"/>
      <use x="430.929688" xlink:href="#DejaVuSans-115"/>
      <use x="483.029297" xlink:href="#DejaVuSans-115"/>
      <use x="535.128906" xlink:href="#DejaVuSans-32"/>
      <use x="566.916016" xlink:href="#DejaVuSans-40"/>
      <use x="605.929688" xlink:href="#DejaVuSans-78"/>
      <use x="680.734375" xlink:href="#DejaVuSans-111"/>
      <use x="741.916016" xlink:href="#DejaVuSans-114"/>
      <use x="783.013672" xlink:href="#DejaVuSans-109"/>
      <use x="880.425781" xlink:href="#DejaVuSans-97"/>
      <use x="941.705078" xlink:href="#DejaVuSans-108"/>
      <use x="969.488281" xlink:href="#DejaVuSans-105"/>
      <use x="997.271484" xlink:href="#DejaVuSans-122"/>
      <use x="1049.761719" xlink:href="#DejaVuSans-101"/>
      <use x="1111.285156" xlink:href="#DejaVuSans-100"/>
      <use x="1174.761719" xlink:href="#DejaVuSans-41"/>
     </g>
    </g>
    <g id="line2d_24">
     <path d="M 358.629531 341.445362 
L 378.629531 341.445362 
" style="fill:none;stroke:#008000;stroke-linecap:square;stroke-width:1.5;"/>
    </g>
    <g id="line2d_25"/>
    <g id="text_20">
     <!-- Entropy -->
     <defs>
      <path d="M 54.890625 33.015625 
L 54.890625 0 
L 45.90625 0 
L 45.90625 32.71875 
Q 45.90625 40.484375 42.875 44.328125 
Q 39.84375 48.1875 33.796875 48.1875 
Q 26.515625 48.1875 22.3125 43.546875 
Q 18.109375 38.921875 18.109375 30.90625 
L 18.109375 0 
L 9.078125 0 
L 9.078125 54.6875 
L 18.109375 54.6875 
L 18.109375 46.1875 
Q 21.34375 51.125 25.703125 53.5625 
Q 30.078125 56 35.796875 56 
Q 45.21875 56 50.046875 50.171875 
Q 54.890625 44.34375 54.890625 33.015625 
z
" id="DejaVuSans-110"/>
      <path d="M 18.3125 70.21875 
L 18.3125 54.6875 
L 36.8125 54.6875 
L 36.8125 47.703125 
L 18.3125 47.703125 
L 18.3125 18.015625 
Q 18.3125 11.328125 20.140625 9.421875 
Q 21.96875 7.515625 27.59375 7.515625 
L 36.8125 7.515625 
L 36.8125 0 
L 27.59375 0 
Q 17.1875 0 13.234375 3.875 
Q 9.28125 7.765625 9.28125 18.015625 
L 9.28125 47.703125 
L 2.6875 47.703125 
L 2.6875 54.6875 
L 9.28125 54.6875 
L 9.28125 70.21875 
z
" id="DejaVuSans-116"/>
     </defs>
     <g transform="translate(386.629531 344.945362)scale(0.1 -0.1)">
      <use xlink:href="#DejaVuSans-69"/>
      <use x="63.183594" xlink:href="#DejaVuSans-110"/>
      <use x="126.5625" xlink:href="#DejaVuSans-116"/>
      <use x="165.771484" xlink:href="#DejaVuSans-114"/>
      <use x="206.853516" xlink:href="#DejaVuSans-111"/>
      <use x="268.035156" xlink:href="#DejaVuSans-112"/>
      <use x="331.511719" xlink:href="#DejaVuSans-121"/>
     </g>
    </g>
   </g>
  </g>
  <g id="axes_2">
   <g id="matplotlib.axis_3">
    <g id="ytick_7">
     <g id="line2d_26">
      <defs>
       <path d="M 0 0 
L 3.5 0 
" id="m15cd435c3c" style="stroke:#000000;stroke-width:0.8;"/>
      </defs>
      <g>
       <use style="stroke:#000000;stroke-width:0.8;" x="400.90125" xlink:href="#m15cd435c3c" y="270.875338"/>
      </g>
     </g>
     <g id="text_21">
      <!-- 0.9 -->
      <defs>
       <path d="M 10.984375 1.515625 
L 10.984375 10.5 
Q 14.703125 8.734375 18.5 7.8125 
Q 22.3125 6.890625 25.984375 6.890625 
Q 35.75 6.890625 40.890625 13.453125 
Q 46.046875 20.015625 46.78125 33.40625 
Q 43.953125 29.203125 39.59375 26.953125 
Q 35.25 24.703125 29.984375 24.703125 
Q 19.046875 24.703125 12.671875 31.3125 
Q 6.296875 37.9375 6.296875 49.421875 
Q 6.296875 60.640625 12.9375 67.421875 
Q 19.578125 74.21875 30.609375 74.21875 
Q 43.265625 74.21875 49.921875 64.515625 
Q 56.59375 54.828125 56.59375 36.375 
Q 56.59375 19.140625 48.40625 8.859375 
Q 40.234375 -1.421875 26.421875 -1.421875 
Q 22.703125 -1.421875 18.890625 -0.6875 
Q 15.09375 0.046875 10.984375 1.515625 
z
M 30.609375 32.421875 
Q 37.25 32.421875 41.125 36.953125 
Q 45.015625 41.5 45.015625 49.421875 
Q 45.015625 57.28125 41.125 61.84375 
Q 37.25 66.40625 30.609375 66.40625 
Q 23.96875 66.40625 20.09375 61.84375 
Q 16.21875 57.28125 16.21875 49.421875 
Q 16.21875 41.5 20.09375 36.953125 
Q 23.96875 32.421875 30.609375 32.421875 
z
" id="DejaVuSans-57"/>
      </defs>
      <g transform="translate(407.90125 274.674556)scale(0.1 -0.1)">
       <use xlink:href="#DejaVuSans-48"/>
       <use x="63.623047" xlink:href="#DejaVuSans-46"/>
       <use x="95.410156" xlink:href="#DejaVuSans-57"/>
      </g>
     </g>
    </g>
    <g id="ytick_8">
     <g id="line2d_27">
      <g>
       <use style="stroke:#000000;stroke-width:0.8;" x="400.90125" xlink:href="#m15cd435c3c" y="220.174163"/>
      </g>
     </g>
     <g id="text_22">
      <!-- 1.0 -->
      <g transform="translate(407.90125 223.973382)scale(0.1 -0.1)">
       <use xlink:href="#DejaVuSans-49"/>
       <use x="63.623047" xlink:href="#DejaVuSans-46"/>
       <use x="95.410156" xlink:href="#DejaVuSans-48"/>
      </g>
     </g>
    </g>
    <g id="ytick_9">
     <g id="line2d_28">
      <g>
       <use style="stroke:#000000;stroke-width:0.8;" x="400.90125" xlink:href="#m15cd435c3c" y="169.472989"/>
      </g>
     </g>
     <g id="text_23">
      <!-- 1.1 -->
      <g transform="translate(407.90125 173.272208)scale(0.1 -0.1)">
       <use xlink:href="#DejaVuSans-49"/>
       <use x="63.623047" xlink:href="#DejaVuSans-46"/>
       <use x="95.410156" xlink:href="#DejaVuSans-49"/>
      </g>
     </g>
    </g>
    <g id="ytick_10">
     <g id="line2d_29">
      <g>
       <use style="stroke:#000000;stroke-width:0.8;" x="400.90125" xlink:href="#m15cd435c3c" y="118.771815"/>
      </g>
     </g>
     <g id="text_24">
      <!-- 1.2 -->
      <g transform="translate(407.90125 122.571033)scale(0.1 -0.1)">
       <use xlink:href="#DejaVuSans-49"/>
       <use x="63.623047" xlink:href="#DejaVuSans-46"/>
       <use x="95.410156" xlink:href="#DejaVuSans-50"/>
      </g>
     </g>
    </g>
    <g id="ytick_11">
     <g id="line2d_30">
      <g>
       <use style="stroke:#000000;stroke-width:0.8;" x="400.90125" xlink:href="#m15cd435c3c" y="68.07064"/>
      </g>
     </g>
     <g id="text_25">
      <!-- 1.3 -->
      <defs>
       <path d="M 40.578125 39.3125 
Q 47.65625 37.796875 51.625 33 
Q 55.609375 28.21875 55.609375 21.1875 
Q 55.609375 10.40625 48.1875 4.484375 
Q 40.765625 -1.421875 27.09375 -1.421875 
Q 22.515625 -1.421875 17.65625 -0.515625 
Q 12.796875 0.390625 7.625 2.203125 
L 7.625 11.71875 
Q 11.71875 9.328125 16.59375 8.109375 
Q 21.484375 6.890625 26.8125 6.890625 
Q 36.078125 6.890625 40.9375 10.546875 
Q 45.796875 14.203125 45.796875 21.1875 
Q 45.796875 27.640625 41.28125 31.265625 
Q 36.765625 34.90625 28.71875 34.90625 
L 20.21875 34.90625 
L 20.21875 43.015625 
L 29.109375 43.015625 
Q 36.375 43.015625 40.234375 45.921875 
Q 44.09375 48.828125 44.09375 54.296875 
Q 44.09375 59.90625 40.109375 62.90625 
Q 36.140625 65.921875 28.71875 65.921875 
Q 24.65625 65.921875 20.015625 65.03125 
Q 15.375 64.15625 9.8125 62.3125 
L 9.8125 71.09375 
Q 15.4375 72.65625 20.34375 73.4375 
Q 25.25 74.21875 29.59375 74.21875 
Q 40.828125 74.21875 47.359375 69.109375 
Q 53.90625 64.015625 53.90625 55.328125 
Q 53.90625 49.265625 50.4375 45.09375 
Q 46.96875 40.921875 40.578125 39.3125 
z
" id="DejaVuSans-51"/>
      </defs>
      <g transform="translate(407.90125 71.869859)scale(0.1 -0.1)">
       <use xlink:href="#DejaVuSans-49"/>
       <use x="63.623047" xlink:href="#DejaVuSans-46"/>
       <use x="95.410156" xlink:href="#DejaVuSans-51"/>
      </g>
     </g>
    </g>
    <g id="text_26">
     <!-- Entropy -->
     <g transform="translate(435.402812 174.909281)rotate(-90)scale(0.1 -0.1)">
      <use xlink:href="#DejaVuSans-69"/>
      <use x="63.183594" xlink:href="#DejaVuSans-110"/>
      <use x="126.5625" xlink:href="#DejaVuSans-116"/>
      <use x="165.771484" xlink:href="#DejaVuSans-114"/>
      <use x="206.853516" xlink:href="#DejaVuSans-111"/>
      <use x="268.035156" xlink:href="#DejaVuSans-112"/>
      <use x="331.511719" xlink:href="#DejaVuSans-121"/>
     </g>
    </g>
   </g>
   <g id="line2d_31">
    <path clip-path="url(#p543e75d4c7)" d="M 60.013977 34.414125 
L 61.740863 39.96335 
L 63.467749 39.468946 
L 65.194635 42.162175 
L 66.921521 45.729797 
L 68.648407 46.8992 
L 70.375293 43.659649 
L 72.102178 45.020649 
L 73.829064 44.697292 
L 75.55595 39.947212 
L 77.282836 38.774787 
L 79.009722 39.793935 
L 80.736608 43.800113 
L 82.463494 51.696726 
L 84.19038 53.349109 
L 85.917265 61.0615 
L 87.644151 70.522676 
L 89.371037 71.581956 
L 91.097923 85.319177 
L 92.824809 95.492282 
L 94.551695 96.217085 
L 96.278581 103.585508 
L 98.005467 117.126116 
L 99.732353 118.711471 
L 101.459238 124.201403 
L 103.186124 147.558396 
L 104.91301 135.894708 
L 106.639896 142.286836 
L 108.366782 135.893015 
L 110.093668 139.508446 
L 111.820554 137.941828 
L 113.54744 171.398068 
L 115.274325 149.983391 
L 117.001211 139.013801 
L 118.728097 145.653312 
L 120.454983 156.187186 
L 122.181869 176.304024 
L 123.908755 199.596648 
L 125.635641 214.344555 
L 127.362527 142.677463 
L 129.089412 140.791961 
L 130.816298 160.921612 
L 132.543184 197.847318 
L 135.996956 190.905121 
L 137.723842 199.791689 
L 139.450728 194.925503 
L 141.177614 197.393954 
L 142.9045 203.416307 
L 144.631385 214.03244 
L 146.358271 212.709277 
L 148.085157 164.212235 
L 149.812043 161.503775 
L 151.538929 164.584911 
L 153.265815 148.719338 
L 154.992701 152.763352 
L 156.719587 161.271562 
L 158.446472 180.578497 
L 160.173358 178.587829 
L 161.900244 189.08018 
L 163.62713 180.855859 
L 165.354016 179.155849 
L 167.080902 190.93105 
L 168.807788 193.342022 
L 170.534674 202.607008 
L 172.261559 210.520424 
L 173.988445 152.885079 
L 175.715331 162.930473 
L 177.442217 168.97803 
L 179.169103 177.229912 
L 180.895989 172.786144 
L 182.622875 174.122363 
L 184.349761 200.135717 
L 186.076647 209.04356 
L 187.803532 214.038364 
L 189.530418 196.962892 
L 191.257304 208.427067 
L 192.98419 208.612015 
L 194.711076 202.220733 
L 196.437962 214.115063 
L 198.164848 211.61349 
L 199.891734 184.778871 
L 201.618619 180.796688 
L 203.345505 180.43344 
L 205.072391 214.216301 
L 206.799277 216.745857 
L 208.526163 211.586171 
L 210.253049 200.162794 
L 211.979935 196.715026 
L 213.706821 198.093613 
L 215.433706 200.542844 
L 217.160592 205.665177 
L 218.887478 206.394815 
L 220.614364 217.796675 
L 222.34125 215.425534 
L 224.068136 204.731734 
L 225.795022 225.105323 
L 227.521908 233.712294 
L 229.248794 231.818571 
L 230.975679 249.080381 
L 232.702565 246.687874 
L 234.429451 246.710569 
L 236.156337 240.108229 
L 237.883223 230.788907 
L 239.610109 235.522849 
L 241.336995 226.315554 
L 243.063881 215.546959 
L 244.790766 218.115801 
L 246.517652 208.797084 
L 248.244538 209.421313 
L 249.971424 205.773487 
L 251.69831 234.100261 
L 253.425196 236.584306 
L 255.152082 237.264987 
L 256.878968 193.989159 
L 258.605853 192.335265 
L 260.332739 193.454502 
L 262.059625 225.887665 
L 263.786511 236.673878 
L 267.240283 223.709631 
L 268.967169 219.892994 
L 270.694055 233.587393 
L 272.420941 225.43832 
L 274.147826 229.122895 
L 275.874712 218.604886 
L 277.601598 188.161545 
L 279.328484 183.285084 
L 281.05537 191.36592 
L 282.782256 168.520555 
L 284.509142 175.67514 
L 286.236028 176.459235 
L 287.962913 194.000159 
L 289.689799 205.138922 
L 291.416685 200.741814 
L 293.143571 226.901978 
L 294.870457 226.888741 
L 296.597343 224.161061 
L 298.324229 206.977099 
L 300.051115 225.680022 
L 301.778 222.139296 
L 303.504886 206.173542 
L 305.231772 213.416975 
L 306.958658 213.359979 
L 308.685544 252.250184 
L 312.139316 269.583434 
L 313.866202 214.919828 
L 315.593088 221.08195 
L 317.319973 227.826325 
L 319.046859 225.221701 
L 320.773745 219.81829 
L 322.500631 229.025434 
L 324.227517 247.055473 
L 325.954403 250.726357 
L 327.681289 251.603047 
L 329.408175 247.451993 
L 331.13506 253.271266 
L 332.861946 253.706528 
L 334.588832 220.893677 
L 336.315718 216.475325 
L 338.042604 215.376033 
L 339.76949 261.17773 
L 341.496376 256.992709 
L 343.223262 255.900367 
L 344.950147 259.460192 
L 346.677033 253.98537 
L 348.403919 251.55678 
L 350.130805 230.172565 
L 351.857691 221.348039 
L 353.584577 230.408917 
L 355.311463 245.791027 
L 357.038349 243.212212 
L 358.765235 232.024523 
L 360.49212 232.20672 
L 362.219006 240.087377 
L 363.945892 250.590427 
L 365.672778 263.639442 
L 367.399664 262.666078 
L 369.12655 249.947581 
L 370.853436 249.836008 
L 372.580322 249.911801 
L 374.307207 244.850935 
L 376.034093 253.393114 
L 377.760979 276.334125 
L 379.487865 260.037399 
L 381.214751 230.383835 
L 382.941637 233.8326 
L 384.668523 224.878067 
L 384.668523 224.878067 
" style="fill:none;stroke:#008000;stroke-linecap:square;stroke-opacity:0.3;stroke-width:1.5;"/>
   </g>
   <g id="patch_9">
    <path d="M 43.78125 288.430125 
L 43.78125 22.318125 
" style="fill:none;stroke:#000000;stroke-linecap:square;stroke-linejoin:miter;stroke-width:0.8;"/>
   </g>
   <g id="patch_10">
    <path d="M 400.90125 288.430125 
L 400.90125 22.318125 
" style="fill:none;stroke:#000000;stroke-linecap:square;stroke-linejoin:miter;stroke-width:0.8;"/>
   </g>
   <g id="patch_11">
    <path d="M 43.78125 288.430125 
L 400.90125 288.430125 
" style="fill:none;stroke:#000000;stroke-linecap:square;stroke-linejoin:miter;stroke-width:0.8;"/>
   </g>
   <g id="patch_12">
    <path d="M 43.78125 22.318125 
L 400.90125 22.318125 
" style="fill:none;stroke:#000000;stroke-linecap:square;stroke-linejoin:miter;stroke-width:0.8;"/>
   </g>
  </g>
 </g>
 <defs>
  <clipPath id="p543e75d4c7">
   <rect height="266.112" width="357.12" x="43.78125" y="22.318125"/>
  </clipPath>
 </defs>
</svg>
