<?xml version="1.0" encoding="utf-8" standalone="no"?>
<!DOCTYPE svg PUBLIC "-//W3C//DTD SVG 1.1//EN"
  "http://www.w3.org/Graphics/SVG/1.1/DTD/svg11.dtd">
<!-- Created with matplotlib (https://matplotlib.org/) -->
<svg height="358.22505pt" version="1.1" viewBox="0 0 451.045 358.22505" width="451.045pt" xmlns="http://www.w3.org/2000/svg" xmlns:xlink="http://www.w3.org/1999/xlink">
 <defs>
  <style type="text/css">
*{stroke-linecap:butt;stroke-linejoin:round;}
  </style>
 </defs>
 <g id="figure_1">
  <g id="patch_1">
   <path d="M 0 358.22505 
L 451.045 358.22505 
L 451.045 0 
L 0 0 
z
" style="fill:#ffffff;"/>
  </g>
  <g id="axes_1">
   <g id="patch_2">
    <path d="M 43.78125 288.430125 
L 400.90125 288.430125 
L 400.90125 22.318125 
L 43.78125 22.318125 
z
" style="fill:#ffffff;"/>
   </g>
   <g id="matplotlib.axis_1">
    <g id="xtick_1">
     <g id="line2d_1">
      <defs>
       <path d="M 0 0 
L 0 3.5 
" id="m456266fafe" style="stroke:#000000;stroke-width:0.8;"/>
      </defs>
      <g>
       <use style="stroke:#000000;stroke-width:0.8;" x="60.013977" xlink:href="#m456266fafe" y="288.430125"/>
      </g>
     </g>
     <g id="text_1">
      <!-- 0 -->
      <defs>
       <path d="M 31.78125 66.40625 
Q 24.171875 66.40625 20.328125 58.90625 
Q 16.5 51.421875 16.5 36.375 
Q 16.5 21.390625 20.328125 13.890625 
Q 24.171875 6.390625 31.78125 6.390625 
Q 39.453125 6.390625 43.28125 13.890625 
Q 47.125 21.390625 47.125 36.375 
Q 47.125 51.421875 43.28125 58.90625 
Q 39.453125 66.40625 31.78125 66.40625 
z
M 31.78125 74.21875 
Q 44.046875 74.21875 50.515625 64.515625 
Q 56.984375 54.828125 56.984375 36.375 
Q 56.984375 17.96875 50.515625 8.265625 
Q 44.046875 -1.421875 31.78125 -1.421875 
Q 19.53125 -1.421875 13.0625 8.265625 
Q 6.59375 17.96875 6.59375 36.375 
Q 6.59375 54.828125 13.0625 64.515625 
Q 19.53125 74.21875 31.78125 74.21875 
z
" id="DejaVuSans-48"/>
      </defs>
      <g transform="translate(56.832727 303.028562)scale(0.1 -0.1)">
       <use xlink:href="#DejaVuSans-48"/>
      </g>
     </g>
    </g>
    <g id="xtick_2">
     <g id="line2d_2">
      <g>
       <use style="stroke:#000000;stroke-width:0.8;" x="104.487203" xlink:href="#m456266fafe" y="288.430125"/>
      </g>
     </g>
     <g id="text_2">
      <!-- 50 -->
      <defs>
       <path d="M 10.796875 72.90625 
L 49.515625 72.90625 
L 49.515625 64.59375 
L 19.828125 64.59375 
L 19.828125 46.734375 
Q 21.96875 47.46875 24.109375 47.828125 
Q 26.265625 48.1875 28.421875 48.1875 
Q 40.625 48.1875 47.75 41.5 
Q 54.890625 34.8125 54.890625 23.390625 
Q 54.890625 11.625 47.5625 5.09375 
Q 40.234375 -1.421875 26.90625 -1.421875 
Q 22.3125 -1.421875 17.546875 -0.640625 
Q 12.796875 0.140625 7.71875 1.703125 
L 7.71875 11.625 
Q 12.109375 9.234375 16.796875 8.0625 
Q 21.484375 6.890625 26.703125 6.890625 
Q 35.15625 6.890625 40.078125 11.328125 
Q 45.015625 15.765625 45.015625 23.390625 
Q 45.015625 31 40.078125 35.4375 
Q 35.15625 39.890625 26.703125 39.890625 
Q 22.75 39.890625 18.8125 39.015625 
Q 14.890625 38.140625 10.796875 36.28125 
z
" id="DejaVuSans-53"/>
      </defs>
      <g transform="translate(98.124703 303.028562)scale(0.1 -0.1)">
       <use xlink:href="#DejaVuSans-53"/>
       <use x="63.623047" xlink:href="#DejaVuSans-48"/>
      </g>
     </g>
    </g>
    <g id="xtick_3">
     <g id="line2d_3">
      <g>
       <use style="stroke:#000000;stroke-width:0.8;" x="148.960428" xlink:href="#m456266fafe" y="288.430125"/>
      </g>
     </g>
     <g id="text_3">
      <!-- 100 -->
      <defs>
       <path d="M 12.40625 8.296875 
L 28.515625 8.296875 
L 28.515625 63.921875 
L 10.984375 60.40625 
L 10.984375 69.390625 
L 28.421875 72.90625 
L 38.28125 72.90625 
L 38.28125 8.296875 
L 54.390625 8.296875 
L 54.390625 0 
L 12.40625 0 
z
" id="DejaVuSans-49"/>
      </defs>
      <g transform="translate(139.416678 303.028562)scale(0.1 -0.1)">
       <use xlink:href="#DejaVuSans-49"/>
       <use x="63.623047" xlink:href="#DejaVuSans-48"/>
       <use x="127.246094" xlink:href="#DejaVuSans-48"/>
      </g>
     </g>
    </g>
    <g id="xtick_4">
     <g id="line2d_4">
      <g>
       <use style="stroke:#000000;stroke-width:0.8;" x="193.433653" xlink:href="#m456266fafe" y="288.430125"/>
      </g>
     </g>
     <g id="text_4">
      <!-- 150 -->
      <g transform="translate(183.889903 303.028562)scale(0.1 -0.1)">
       <use xlink:href="#DejaVuSans-49"/>
       <use x="63.623047" xlink:href="#DejaVuSans-53"/>
       <use x="127.246094" xlink:href="#DejaVuSans-48"/>
      </g>
     </g>
    </g>
    <g id="xtick_5">
     <g id="line2d_5">
      <g>
       <use style="stroke:#000000;stroke-width:0.8;" x="237.906879" xlink:href="#m456266fafe" y="288.430125"/>
      </g>
     </g>
     <g id="text_5">
      <!-- 200 -->
      <defs>
       <path d="M 19.1875 8.296875 
L 53.609375 8.296875 
L 53.609375 0 
L 7.328125 0 
L 7.328125 8.296875 
Q 12.9375 14.109375 22.625 23.890625 
Q 32.328125 33.6875 34.8125 36.53125 
Q 39.546875 41.84375 41.421875 45.53125 
Q 43.3125 49.21875 43.3125 52.78125 
Q 43.3125 58.59375 39.234375 62.25 
Q 35.15625 65.921875 28.609375 65.921875 
Q 23.96875 65.921875 18.8125 64.3125 
Q 13.671875 62.703125 7.8125 59.421875 
L 7.8125 69.390625 
Q 13.765625 71.78125 18.9375 73 
Q 24.125 74.21875 28.421875 74.21875 
Q 39.75 74.21875 46.484375 68.546875 
Q 53.21875 62.890625 53.21875 53.421875 
Q 53.21875 48.921875 51.53125 44.890625 
Q 49.859375 40.875 45.40625 35.40625 
Q 44.1875 33.984375 37.640625 27.21875 
Q 31.109375 20.453125 19.1875 8.296875 
z
" id="DejaVuSans-50"/>
      </defs>
      <g transform="translate(228.363129 303.028562)scale(0.1 -0.1)">
       <use xlink:href="#DejaVuSans-50"/>
       <use x="63.623047" xlink:href="#DejaVuSans-48"/>
       <use x="127.246094" xlink:href="#DejaVuSans-48"/>
      </g>
     </g>
    </g>
    <g id="xtick_6">
     <g id="line2d_6">
      <g>
       <use style="stroke:#000000;stroke-width:0.8;" x="282.380104" xlink:href="#m456266fafe" y="288.430125"/>
      </g>
     </g>
     <g id="text_6">
      <!-- 250 -->
      <g transform="translate(272.836354 303.028562)scale(0.1 -0.1)">
       <use xlink:href="#DejaVuSans-50"/>
       <use x="63.623047" xlink:href="#DejaVuSans-53"/>
       <use x="127.246094" xlink:href="#DejaVuSans-48"/>
      </g>
     </g>
    </g>
    <g id="xtick_7">
     <g id="line2d_7">
      <g>
       <use style="stroke:#000000;stroke-width:0.8;" x="326.85333" xlink:href="#m456266fafe" y="288.430125"/>
      </g>
     </g>
     <g id="text_7">
      <!-- 300 -->
      <defs>
       <path d="M 40.578125 39.3125 
Q 47.65625 37.796875 51.625 33 
Q 55.609375 28.21875 55.609375 21.1875 
Q 55.609375 10.40625 48.1875 4.484375 
Q 40.765625 -1.421875 27.09375 -1.421875 
Q 22.515625 -1.421875 17.65625 -0.515625 
Q 12.796875 0.390625 7.625 2.203125 
L 7.625 11.71875 
Q 11.71875 9.328125 16.59375 8.109375 
Q 21.484375 6.890625 26.8125 6.890625 
Q 36.078125 6.890625 40.9375 10.546875 
Q 45.796875 14.203125 45.796875 21.1875 
Q 45.796875 27.640625 41.28125 31.265625 
Q 36.765625 34.90625 28.71875 34.90625 
L 20.21875 34.90625 
L 20.21875 43.015625 
L 29.109375 43.015625 
Q 36.375 43.015625 40.234375 45.921875 
Q 44.09375 48.828125 44.09375 54.296875 
Q 44.09375 59.90625 40.109375 62.90625 
Q 36.140625 65.921875 28.71875 65.921875 
Q 24.65625 65.921875 20.015625 65.03125 
Q 15.375 64.15625 9.8125 62.3125 
L 9.8125 71.09375 
Q 15.4375 72.65625 20.34375 73.4375 
Q 25.25 74.21875 29.59375 74.21875 
Q 40.828125 74.21875 47.359375 69.109375 
Q 53.90625 64.015625 53.90625 55.328125 
Q 53.90625 49.265625 50.4375 45.09375 
Q 46.96875 40.921875 40.578125 39.3125 
z
" id="DejaVuSans-51"/>
      </defs>
      <g transform="translate(317.30958 303.028562)scale(0.1 -0.1)">
       <use xlink:href="#DejaVuSans-51"/>
       <use x="63.623047" xlink:href="#DejaVuSans-48"/>
       <use x="127.246094" xlink:href="#DejaVuSans-48"/>
      </g>
     </g>
    </g>
    <g id="xtick_8">
     <g id="line2d_8">
      <g>
       <use style="stroke:#000000;stroke-width:0.8;" x="371.326555" xlink:href="#m456266fafe" y="288.430125"/>
      </g>
     </g>
     <g id="text_8">
      <!-- 350 -->
      <g transform="translate(361.782805 303.028562)scale(0.1 -0.1)">
       <use xlink:href="#DejaVuSans-51"/>
       <use x="63.623047" xlink:href="#DejaVuSans-53"/>
       <use x="127.246094" xlink:href="#DejaVuSans-48"/>
      </g>
     </g>
    </g>
    <g id="text_9">
     <!-- Epoch -->
     <defs>
      <path d="M 9.8125 72.90625 
L 55.90625 72.90625 
L 55.90625 64.59375 
L 19.671875 64.59375 
L 19.671875 43.015625 
L 54.390625 43.015625 
L 54.390625 34.71875 
L 19.671875 34.71875 
L 19.671875 8.296875 
L 56.78125 8.296875 
L 56.78125 0 
L 9.8125 0 
z
" id="DejaVuSans-69"/>
      <path d="M 18.109375 8.203125 
L 18.109375 -20.796875 
L 9.078125 -20.796875 
L 9.078125 54.6875 
L 18.109375 54.6875 
L 18.109375 46.390625 
Q 20.953125 51.265625 25.265625 53.625 
Q 29.59375 56 35.59375 56 
Q 45.5625 56 51.78125 48.09375 
Q 58.015625 40.1875 58.015625 27.296875 
Q 58.015625 14.40625 51.78125 6.484375 
Q 45.5625 -1.421875 35.59375 -1.421875 
Q 29.59375 -1.421875 25.265625 0.953125 
Q 20.953125 3.328125 18.109375 8.203125 
z
M 48.6875 27.296875 
Q 48.6875 37.203125 44.609375 42.84375 
Q 40.53125 48.484375 33.40625 48.484375 
Q 26.265625 48.484375 22.1875 42.84375 
Q 18.109375 37.203125 18.109375 27.296875 
Q 18.109375 17.390625 22.1875 11.75 
Q 26.265625 6.109375 33.40625 6.109375 
Q 40.53125 6.109375 44.609375 11.75 
Q 48.6875 17.390625 48.6875 27.296875 
z
" id="DejaVuSans-112"/>
      <path d="M 30.609375 48.390625 
Q 23.390625 48.390625 19.1875 42.75 
Q 14.984375 37.109375 14.984375 27.296875 
Q 14.984375 17.484375 19.15625 11.84375 
Q 23.34375 6.203125 30.609375 6.203125 
Q 37.796875 6.203125 41.984375 11.859375 
Q 46.1875 17.53125 46.1875 27.296875 
Q 46.1875 37.015625 41.984375 42.703125 
Q 37.796875 48.390625 30.609375 48.390625 
z
M 30.609375 56 
Q 42.328125 56 49.015625 48.375 
Q 55.71875 40.765625 55.71875 27.296875 
Q 55.71875 13.875 49.015625 6.21875 
Q 42.328125 -1.421875 30.609375 -1.421875 
Q 18.84375 -1.421875 12.171875 6.21875 
Q 5.515625 13.875 5.515625 27.296875 
Q 5.515625 40.765625 12.171875 48.375 
Q 18.84375 56 30.609375 56 
z
" id="DejaVuSans-111"/>
      <path d="M 48.78125 52.59375 
L 48.78125 44.1875 
Q 44.96875 46.296875 41.140625 47.34375 
Q 37.3125 48.390625 33.40625 48.390625 
Q 24.65625 48.390625 19.8125 42.84375 
Q 14.984375 37.3125 14.984375 27.296875 
Q 14.984375 17.28125 19.8125 11.734375 
Q 24.65625 6.203125 33.40625 6.203125 
Q 37.3125 6.203125 41.140625 7.25 
Q 44.96875 8.296875 48.78125 10.40625 
L 48.78125 2.09375 
Q 45.015625 0.34375 40.984375 -0.53125 
Q 36.96875 -1.421875 32.421875 -1.421875 
Q 20.0625 -1.421875 12.78125 6.34375 
Q 5.515625 14.109375 5.515625 27.296875 
Q 5.515625 40.671875 12.859375 48.328125 
Q 20.21875 56 33.015625 56 
Q 37.15625 56 41.109375 55.140625 
Q 45.0625 54.296875 48.78125 52.59375 
z
" id="DejaVuSans-99"/>
      <path d="M 54.890625 33.015625 
L 54.890625 0 
L 45.90625 0 
L 45.90625 32.71875 
Q 45.90625 40.484375 42.875 44.328125 
Q 39.84375 48.1875 33.796875 48.1875 
Q 26.515625 48.1875 22.3125 43.546875 
Q 18.109375 38.921875 18.109375 30.90625 
L 18.109375 0 
L 9.078125 0 
L 9.078125 75.984375 
L 18.109375 75.984375 
L 18.109375 46.1875 
Q 21.34375 51.125 25.703125 53.5625 
Q 30.078125 56 35.796875 56 
Q 45.21875 56 50.046875 50.171875 
Q 54.890625 44.34375 54.890625 33.015625 
z
" id="DejaVuSans-104"/>
     </defs>
     <g transform="translate(207.030313 316.706687)scale(0.1 -0.1)">
      <use xlink:href="#DejaVuSans-69"/>
      <use x="63.183594" xlink:href="#DejaVuSans-112"/>
      <use x="126.660156" xlink:href="#DejaVuSans-111"/>
      <use x="187.841797" xlink:href="#DejaVuSans-99"/>
      <use x="242.822266" xlink:href="#DejaVuSans-104"/>
     </g>
    </g>
   </g>
   <g id="matplotlib.axis_2">
    <g id="ytick_1">
     <g id="line2d_9">
      <defs>
       <path d="M 0 0 
L -3.5 0 
" id="m635aa7ef98" style="stroke:#000000;stroke-width:0.8;"/>
      </defs>
      <g>
       <use style="stroke:#000000;stroke-width:0.8;" x="43.78125" xlink:href="#m635aa7ef98" y="276.334125"/>
      </g>
     </g>
     <g id="text_10">
      <!-- 0.0 -->
      <defs>
       <path d="M 10.6875 12.40625 
L 21 12.40625 
L 21 0 
L 10.6875 0 
z
" id="DejaVuSans-46"/>
      </defs>
      <g transform="translate(20.878125 280.133344)scale(0.1 -0.1)">
       <use xlink:href="#DejaVuSans-48"/>
       <use x="63.623047" xlink:href="#DejaVuSans-46"/>
       <use x="95.410156" xlink:href="#DejaVuSans-48"/>
      </g>
     </g>
    </g>
    <g id="ytick_2">
     <g id="line2d_10">
      <g>
       <use style="stroke:#000000;stroke-width:0.8;" x="43.78125" xlink:href="#m635aa7ef98" y="227.950125"/>
      </g>
     </g>
     <g id="text_11">
      <!-- 0.2 -->
      <g transform="translate(20.878125 231.749344)scale(0.1 -0.1)">
       <use xlink:href="#DejaVuSans-48"/>
       <use x="63.623047" xlink:href="#DejaVuSans-46"/>
       <use x="95.410156" xlink:href="#DejaVuSans-50"/>
      </g>
     </g>
    </g>
    <g id="ytick_3">
     <g id="line2d_11">
      <g>
       <use style="stroke:#000000;stroke-width:0.8;" x="43.78125" xlink:href="#m635aa7ef98" y="179.566125"/>
      </g>
     </g>
     <g id="text_12">
      <!-- 0.4 -->
      <defs>
       <path d="M 37.796875 64.3125 
L 12.890625 25.390625 
L 37.796875 25.390625 
z
M 35.203125 72.90625 
L 47.609375 72.90625 
L 47.609375 25.390625 
L 58.015625 25.390625 
L 58.015625 17.1875 
L 47.609375 17.1875 
L 47.609375 0 
L 37.796875 0 
L 37.796875 17.1875 
L 4.890625 17.1875 
L 4.890625 26.703125 
z
" id="DejaVuSans-52"/>
      </defs>
      <g transform="translate(20.878125 183.365344)scale(0.1 -0.1)">
       <use xlink:href="#DejaVuSans-48"/>
       <use x="63.623047" xlink:href="#DejaVuSans-46"/>
       <use x="95.410156" xlink:href="#DejaVuSans-52"/>
      </g>
     </g>
    </g>
    <g id="ytick_4">
     <g id="line2d_12">
      <g>
       <use style="stroke:#000000;stroke-width:0.8;" x="43.78125" xlink:href="#m635aa7ef98" y="131.182125"/>
      </g>
     </g>
     <g id="text_13">
      <!-- 0.6 -->
      <defs>
       <path d="M 33.015625 40.375 
Q 26.375 40.375 22.484375 35.828125 
Q 18.609375 31.296875 18.609375 23.390625 
Q 18.609375 15.53125 22.484375 10.953125 
Q 26.375 6.390625 33.015625 6.390625 
Q 39.65625 6.390625 43.53125 10.953125 
Q 47.40625 15.53125 47.40625 23.390625 
Q 47.40625 31.296875 43.53125 35.828125 
Q 39.65625 40.375 33.015625 40.375 
z
M 52.59375 71.296875 
L 52.59375 62.3125 
Q 48.875 64.0625 45.09375 64.984375 
Q 41.3125 65.921875 37.59375 65.921875 
Q 27.828125 65.921875 22.671875 59.328125 
Q 17.53125 52.734375 16.796875 39.40625 
Q 19.671875 43.65625 24.015625 45.921875 
Q 28.375 48.1875 33.59375 48.1875 
Q 44.578125 48.1875 50.953125 41.515625 
Q 57.328125 34.859375 57.328125 23.390625 
Q 57.328125 12.15625 50.6875 5.359375 
Q 44.046875 -1.421875 33.015625 -1.421875 
Q 20.359375 -1.421875 13.671875 8.265625 
Q 6.984375 17.96875 6.984375 36.375 
Q 6.984375 53.65625 15.1875 63.9375 
Q 23.390625 74.21875 37.203125 74.21875 
Q 40.921875 74.21875 44.703125 73.484375 
Q 48.484375 72.75 52.59375 71.296875 
z
" id="DejaVuSans-54"/>
      </defs>
      <g transform="translate(20.878125 134.981344)scale(0.1 -0.1)">
       <use xlink:href="#DejaVuSans-48"/>
       <use x="63.623047" xlink:href="#DejaVuSans-46"/>
       <use x="95.410156" xlink:href="#DejaVuSans-54"/>
      </g>
     </g>
    </g>
    <g id="ytick_5">
     <g id="line2d_13">
      <g>
       <use style="stroke:#000000;stroke-width:0.8;" x="43.78125" xlink:href="#m635aa7ef98" y="82.798125"/>
      </g>
     </g>
     <g id="text_14">
      <!-- 0.8 -->
      <defs>
       <path d="M 31.78125 34.625 
Q 24.75 34.625 20.71875 30.859375 
Q 16.703125 27.09375 16.703125 20.515625 
Q 16.703125 13.921875 20.71875 10.15625 
Q 24.75 6.390625 31.78125 6.390625 
Q 38.8125 6.390625 42.859375 10.171875 
Q 46.921875 13.96875 46.921875 20.515625 
Q 46.921875 27.09375 42.890625 30.859375 
Q 38.875 34.625 31.78125 34.625 
z
M 21.921875 38.8125 
Q 15.578125 40.375 12.03125 44.71875 
Q 8.5 49.078125 8.5 55.328125 
Q 8.5 64.0625 14.71875 69.140625 
Q 20.953125 74.21875 31.78125 74.21875 
Q 42.671875 74.21875 48.875 69.140625 
Q 55.078125 64.0625 55.078125 55.328125 
Q 55.078125 49.078125 51.53125 44.71875 
Q 48 40.375 41.703125 38.8125 
Q 48.828125 37.15625 52.796875 32.3125 
Q 56.78125 27.484375 56.78125 20.515625 
Q 56.78125 9.90625 50.3125 4.234375 
Q 43.84375 -1.421875 31.78125 -1.421875 
Q 19.734375 -1.421875 13.25 4.234375 
Q 6.78125 9.90625 6.78125 20.515625 
Q 6.78125 27.484375 10.78125 32.3125 
Q 14.796875 37.15625 21.921875 38.8125 
z
M 18.3125 54.390625 
Q 18.3125 48.734375 21.84375 45.5625 
Q 25.390625 42.390625 31.78125 42.390625 
Q 38.140625 42.390625 41.71875 45.5625 
Q 45.3125 48.734375 45.3125 54.390625 
Q 45.3125 60.0625 41.71875 63.234375 
Q 38.140625 66.40625 31.78125 66.40625 
Q 25.390625 66.40625 21.84375 63.234375 
Q 18.3125 60.0625 18.3125 54.390625 
z
" id="DejaVuSans-56"/>
      </defs>
      <g transform="translate(20.878125 86.597344)scale(0.1 -0.1)">
       <use xlink:href="#DejaVuSans-48"/>
       <use x="63.623047" xlink:href="#DejaVuSans-46"/>
       <use x="95.410156" xlink:href="#DejaVuSans-56"/>
      </g>
     </g>
    </g>
    <g id="ytick_6">
     <g id="line2d_14">
      <g>
       <use style="stroke:#000000;stroke-width:0.8;" x="43.78125" xlink:href="#m635aa7ef98" y="34.414125"/>
      </g>
     </g>
     <g id="text_15">
      <!-- 1.0 -->
      <g transform="translate(20.878125 38.213344)scale(0.1 -0.1)">
       <use xlink:href="#DejaVuSans-49"/>
       <use x="63.623047" xlink:href="#DejaVuSans-46"/>
       <use x="95.410156" xlink:href="#DejaVuSans-48"/>
      </g>
     </g>
    </g>
    <g id="text_16">
     <!-- Loss -->
     <defs>
      <path d="M 9.8125 72.90625 
L 19.671875 72.90625 
L 19.671875 8.296875 
L 55.171875 8.296875 
L 55.171875 0 
L 9.8125 0 
z
" id="DejaVuSans-76"/>
      <path d="M 44.28125 53.078125 
L 44.28125 44.578125 
Q 40.484375 46.53125 36.375 47.5 
Q 32.28125 48.484375 27.875 48.484375 
Q 21.1875 48.484375 17.84375 46.4375 
Q 14.5 44.390625 14.5 40.28125 
Q 14.5 37.15625 16.890625 35.375 
Q 19.28125 33.59375 26.515625 31.984375 
L 29.59375 31.296875 
Q 39.15625 29.25 43.1875 25.515625 
Q 47.21875 21.78125 47.21875 15.09375 
Q 47.21875 7.46875 41.1875 3.015625 
Q 35.15625 -1.421875 24.609375 -1.421875 
Q 20.21875 -1.421875 15.453125 -0.5625 
Q 10.6875 0.296875 5.421875 2 
L 5.421875 11.28125 
Q 10.40625 8.6875 15.234375 7.390625 
Q 20.0625 6.109375 24.8125 6.109375 
Q 31.15625 6.109375 34.5625 8.28125 
Q 37.984375 10.453125 37.984375 14.40625 
Q 37.984375 18.0625 35.515625 20.015625 
Q 33.0625 21.96875 24.703125 23.78125 
L 21.578125 24.515625 
Q 13.234375 26.265625 9.515625 29.90625 
Q 5.8125 33.546875 5.8125 39.890625 
Q 5.8125 47.609375 11.28125 51.796875 
Q 16.75 56 26.8125 56 
Q 31.78125 56 36.171875 55.265625 
Q 40.578125 54.546875 44.28125 53.078125 
z
" id="DejaVuSans-115"/>
     </defs>
     <g transform="translate(14.798438 166.428031)rotate(-90)scale(0.1 -0.1)">
      <use xlink:href="#DejaVuSans-76"/>
      <use x="55.697266" xlink:href="#DejaVuSans-111"/>
      <use x="116.878906" xlink:href="#DejaVuSans-115"/>
      <use x="168.978516" xlink:href="#DejaVuSans-115"/>
     </g>
    </g>
   </g>
   <g id="line2d_15">
    <path clip-path="url(#pca39435b71)" d="M 60.013977 228.075233 
L 61.792906 228.888321 
L 62.682371 228.657356 
L 64.4613 229.866048 
L 65.350764 205.614514 
L 67.129693 206.422165 
L 68.019158 213.792879 
L 69.798087 213.655524 
L 70.687551 126.627999 
L 72.46648 128.160536 
L 73.355945 124.447265 
L 74.245409 124.962763 
L 75.134874 125.259924 
L 76.024338 183.516054 
L 77.803267 183.815581 
L 78.692732 217.076544 
L 79.582196 217.419785 
L 80.471661 217.902991 
L 81.361125 202.466232 
L 83.140054 203.456482 
L 84.029519 213.635887 
L 84.918983 213.507356 
L 85.808448 213.654007 
L 86.697913 84.710607 
L 87.587377 85.832038 
L 88.476842 84.291854 
L 89.366306 203.898358 
L 90.255771 204.099504 
L 91.145235 203.950566 
L 92.0347 247.233279 
L 92.924164 248.068198 
L 93.813629 248.062233 
L 94.703093 156.789258 
L 95.592558 157.648597 
L 96.482022 158.848166 
L 97.371487 169.933968 
L 98.260951 169.815569 
L 99.150416 169.940603 
L 100.03988 117.612849 
L 100.929345 119.018444 
L 101.818809 121.047157 
L 102.708274 236.559475 
L 104.487203 236.979625 
L 105.376667 151.00816 
L 106.266132 152.318014 
L 107.155596 151.945922 
L 108.045061 242.953449 
L 109.82399 242.851471 
L 110.713454 116.94738 
L 112.492383 118.684264 
L 113.381848 40.978928 
L 114.271312 44.839059 
L 115.160777 46.124556 
L 116.050241 269.946919 
L 116.939706 269.774556 
L 117.82917 269.784364 
L 118.718635 245.922158 
L 120.497564 246.684246 
L 121.387028 217.502816 
L 123.165957 218.696868 
L 124.055422 271.022544 
L 125.834351 271.374421 
L 126.723815 274.069802 
L 128.502744 274.275286 
L 129.392209 194.837109 
L 130.281673 195.425378 
L 131.171138 195.694224 
L 132.060602 226.900422 
L 133.839531 226.834224 
L 134.728996 243.235156 
L 136.507925 243.231368 
L 137.397389 258.657231 
L 139.176318 259.096156 
L 140.065783 256.649954 
L 141.844712 256.581043 
L 142.734177 242.562831 
L 144.513106 242.769536 
L 145.40257 176.135475 
L 146.292035 177.450484 
L 147.181499 179.184493 
L 148.070964 251.334415 
L 149.849893 251.353887 
L 150.739357 255.354424 
L 152.518286 255.720693 
L 153.407751 120.440582 
L 154.297215 121.492222 
L 155.18668 123.082483 
L 156.076144 260.132908 
L 156.965609 260.095817 
L 157.855073 260.223749 
L 158.744538 228.377037 
L 160.523467 227.741536 
L 161.412931 242.628515 
L 163.19186 243.26244 
L 164.081325 269.572062 
L 165.860254 269.661561 
L 166.749718 179.150421 
L 167.639183 183.497002 
L 168.528647 183.116632 
L 169.418112 262.331037 
L 171.197041 262.532574 
L 172.086505 191.269998 
L 172.97597 194.937844 
L 173.865434 195.015779 
L 174.754899 193.647594 
L 176.533828 194.609389 
L 177.423292 243.57241 
L 178.312757 244.895851 
L 179.202221 245.294676 
L 180.091686 195.611594 
L 180.98115 196.325039 
L 181.870615 196.097145 
L 182.760079 263.117088 
L 184.539008 263.040838 
L 185.428473 235.25008 
L 186.317937 236.126867 
L 187.207402 237.383756 
L 188.096866 223.574877 
L 189.875795 226.69309 
L 190.76526 249.824191 
L 192.544189 249.812718 
L 193.433653 254.795715 
L 195.212583 254.614798 
L 196.102047 199.927117 
L 196.991512 200.326443 
L 197.880976 200.941229 
L 198.770441 257.203418 
L 199.659905 257.266353 
L 200.54937 257.471101 
L 201.438834 245.916578 
L 202.328299 245.759158 
L 203.217763 245.802583 
L 204.107228 272.873732 
L 205.886157 273.281595 
L 206.775621 223.390068 
L 208.55455 223.158283 
L 209.444015 276.334125 
L 211.222944 276.104286 
L 212.112408 268.725962 
L 213.001873 269.449655 
L 213.891337 269.509798 
L 214.780802 239.748507 
L 216.559731 240.448754 
L 217.449195 246.091684 
L 219.228124 246.176763 
L 220.117589 252.760361 
L 221.896518 252.920816 
L 222.785982 224.366992 
L 224.564911 224.012567 
L 225.454376 271.569906 
L 227.233305 271.774824 
L 228.122769 226.087521 
L 229.012234 226.61186 
L 229.901698 227.376985 
L 230.791163 263.824745 
L 231.680627 263.955921 
L 232.570092 264.249657 
L 233.459556 258.29857 
L 235.238485 258.267966 
L 236.12795 226.793298 
L 237.906879 226.582979 
L 238.796343 158.264498 
L 239.685808 159.052944 
L 240.575272 158.815871 
L 241.464737 35.431246 
L 242.354201 35.879643 
L 243.243666 34.414125 
L 244.13313 240.02752 
L 245.022595 238.949778 
L 245.912059 238.817196 
L 246.801524 231.65255 
L 247.690988 231.982841 
L 248.580453 232.694418 
L 249.469917 272.177669 
L 251.248847 271.904862 
L 252.138311 259.201471 
L 253.91724 259.720389 
L 254.806705 267.457292 
L 256.585634 267.49219 
L 257.475098 259.046491 
L 259.254027 259.108673 
L 260.143492 266.242613 
L 261.922421 266.523183 
L 262.811885 253.952869 
L 264.590814 253.901072 
L 265.480279 270.981049 
L 267.259208 271.048943 
L 268.148672 252.105804 
L 269.927601 252.158767 
L 270.817066 269.300454 
L 272.595995 269.360024 
L 273.485459 270.937388 
L 275.264388 270.777934 
L 276.153853 247.495355 
L 277.932782 248.168928 
L 278.822246 264.504998 
L 280.601175 264.813819 
L 281.49064 202.71596 
L 283.269569 202.659625 
L 284.159033 239.578888 
L 285.937962 239.170497 
L 286.827427 232.510401 
L 288.606356 232.702826 
L 289.49582 215.558185 
L 290.385285 216.027265 
L 291.274749 215.902533 
L 292.164214 182.585542 
L 293.053678 182.560675 
L 293.943143 183.19863 
L 294.832607 261.96541 
L 296.611536 261.816704 
L 297.501001 261.571478 
L 299.27993 261.67361 
L 300.169394 265.678121 
L 301.058859 265.824525 
L 301.948323 266.14179 
L 302.837788 270.920802 
L 303.727252 270.987481 
L 304.616717 270.866377 
L 305.506182 260.68728 
L 307.285111 260.889862 
L 308.174575 272.332681 
L 309.06404 272.590793 
L 309.953504 272.617022 
L 310.842969 268.371688 
L 312.621898 268.793339 
L 313.511362 257.440062 
L 314.400827 257.109191 
L 315.290291 257.247898 
L 316.179756 256.399813 
L 317.06922 257.093903 
L 317.958685 256.509416 
L 318.848149 229.05655 
L 319.737614 228.529927 
L 320.627078 228.891746 
L 321.516543 255.220444 
L 322.406007 255.90521 
L 323.295472 255.846552 
L 324.184936 170.24151 
L 325.074401 172.536255 
L 325.963865 172.53958 
L 326.85333 206.840812 
L 327.742794 206.12023 
L 328.632259 206.018323 
L 329.521723 180.208583 
L 330.411188 184.49767 
L 331.300652 184.286676 
L 332.190117 274.067691 
L 333.969046 273.685044 
L 334.85851 234.571224 
L 336.637439 234.550575 
L 337.526904 270.270137 
L 339.305833 270.736406 
L 340.195297 244.49205 
L 341.974226 244.628085 
L 342.863691 270.022646 
L 344.64262 270.080892 
L 345.532084 263.209127 
L 347.311013 263.600074 
L 348.200478 272.819268 
L 349.089942 273.805835 
L 349.979407 273.480318 
L 350.868871 268.212904 
L 351.758336 268.371792 
L 352.6478 270.823475 
L 353.537265 261.328813 
L 354.426729 261.218743 
L 356.205658 261.680344 
L 357.095123 261.360638 
L 357.984587 261.940452 
L 358.874052 260.727554 
L 360.652981 260.001271 
L 361.542446 270.401093 
L 362.43191 268.755675 
L 363.321375 270.577397 
L 364.210839 263.126577 
L 365.100304 263.260154 
L 365.989768 263.781618 
L 366.879233 272.426364 
L 367.768697 272.01281 
L 368.658162 272.50611 
L 369.547626 272.13453 
L 370.437091 267.20509 
L 371.326555 272.018814 
L 372.21602 273.007403 
L 373.105484 272.981043 
L 373.994949 273.150997 
L 374.884413 264.169157 
L 375.773878 264.238002 
L 376.663342 264.174017 
L 377.552807 275.81872 
L 378.442271 276.054639 
L 379.331736 275.963474 
L 380.2212 273.068837 
L 381.110665 272.991268 
L 382.000129 273.049745 
L 382.889594 268.777682 
L 383.779058 268.923678 
L 384.668523 269.185666 
L 384.668523 269.185666 
" style="fill:none;stroke:#1f77b4;stroke-linecap:square;stroke-opacity:0.3;stroke-width:1.5;"/>
   </g>
   <g id="line2d_16">
    <path clip-path="url(#pca39435b71)" d="M 60.013977 225.440693 
L 60.903442 231.164558 
L 61.792906 232.276026 
L 62.682371 229.94226 
L 63.571835 225.330422 
L 64.4613 219.607671 
L 65.350764 215.64526 
L 66.240229 219.65816 
L 67.129693 215.551219 
L 68.019158 205.696635 
L 69.798087 179.340115 
L 70.687551 161.866416 
L 71.577016 139.815643 
L 72.46648 126.100272 
L 73.355945 122.799954 
L 74.245409 127.215079 
L 75.134874 146.295362 
L 76.024338 161.527586 
L 77.803267 195.673466 
L 78.692732 207.099324 
L 79.582196 211.741716 
L 80.471661 209.723498 
L 81.361125 211.280475 
L 82.25059 221.702871 
L 83.140054 215.873284 
L 84.029519 203.484863 
L 84.918983 174.550884 
L 85.808448 154.814426 
L 86.697913 141.337399 
L 87.587377 131.828717 
L 88.476842 134.422251 
L 89.366306 150.376115 
L 91.145235 222.217918 
L 92.0347 234.059976 
L 92.924164 229.844863 
L 93.813629 209.552817 
L 94.703093 196.654995 
L 95.592558 186.366374 
L 96.482022 169.436707 
L 97.371487 157.16736 
L 98.260951 139.781715 
L 99.150416 141.966382 
L 100.03988 144.63586 
L 100.929345 161.033262 
L 101.818809 173.14943 
L 102.708274 183.696526 
L 103.597738 184.422534 
L 104.487203 192.967875 
L 105.376667 196.515268 
L 106.266132 207.38901 
L 107.155596 199.167391 
L 108.045061 196.377773 
L 108.934525 198.805665 
L 109.82399 194.250241 
L 110.713454 169.642555 
L 111.602919 116.41007 
L 112.492383 79.11394 
L 113.381848 74.306044 
L 114.271312 95.717893 
L 115.160777 138.179989 
L 116.939706 216.303832 
L 117.82917 253.77066 
L 118.718635 268.55736 
L 119.608099 259.598593 
L 120.497564 232.656526 
L 121.387028 229.873149 
L 122.276493 232.210328 
L 124.055422 248.532759 
L 124.944886 265.471312 
L 125.834351 275.318971 
L 126.723815 273.149424 
L 127.61328 259.482741 
L 128.502744 240.814978 
L 130.281673 216.329565 
L 131.171138 209.956885 
L 132.060602 210.100121 
L 132.950067 215.967986 
L 133.839531 231.200201 
L 134.728996 239.312332 
L 135.61846 245.85693 
L 136.507925 248.89844 
L 138.286854 257.842141 
L 139.176318 258.244138 
L 140.065783 257.938366 
L 140.955248 261.179748 
L 141.844712 255.281394 
L 142.734177 245.1842 
L 143.623641 225.798357 
L 144.513106 212.642984 
L 145.40257 205.354514 
L 146.292035 203.924922 
L 147.181499 209.213634 
L 148.070964 218.293149 
L 148.960428 243.447087 
L 149.849893 258.757131 
L 150.739357 252.995675 
L 152.518286 193.494426 
L 153.407751 180.413559 
L 154.297215 179.299867 
L 155.18668 183.963198 
L 156.076144 195.762528 
L 156.965609 213.716144 
L 157.855073 241.281828 
L 158.744538 250.093734 
L 159.634002 246.717092 
L 160.523467 233.528417 
L 161.412931 236.048735 
L 162.302396 250.157488 
L 163.19186 258.207684 
L 164.081325 256.175646 
L 164.970789 241.001586 
L 165.860254 228.630509 
L 166.749718 221.452681 
L 167.639183 223.831418 
L 168.528647 221.579492 
L 169.418112 222.151632 
L 170.307576 225.213458 
L 171.197041 232.222142 
L 172.086505 225.780776 
L 173.865434 193.460562 
L 174.754899 191.653122 
L 175.644363 202.651744 
L 176.533828 217.429992 
L 177.423292 222.576321 
L 178.312757 219.063922 
L 179.202221 219.233283 
L 180.091686 221.191468 
L 180.98115 225.854501 
L 181.870615 226.37095 
L 182.760079 232.194973 
L 184.539008 250.394597 
L 185.428473 250.292878 
L 186.317937 242.732288 
L 187.207402 231.264594 
L 188.096866 228.872401 
L 188.986331 229.810558 
L 189.875795 235.338343 
L 190.76526 239.739477 
L 191.654724 249.655081 
L 192.544189 254.48808 
L 193.433653 252.100768 
L 194.323118 239.935759 
L 195.212583 229.353423 
L 196.102047 224.419518 
L 196.991512 224.026634 
L 197.880976 225.827131 
L 198.770441 230.935973 
L 199.659905 236.858509 
L 200.54937 248.89184 
L 201.438834 255.033139 
L 202.328299 262.479476 
L 203.217763 260.215225 
L 204.107228 259.592916 
L 204.996692 252.207287 
L 205.886157 248.938965 
L 206.775621 246.875923 
L 207.665086 246.839369 
L 208.55455 246.690537 
L 209.444015 251.7654 
L 211.222944 273.120804 
L 212.112408 274.0858 
L 213.001873 268.682091 
L 213.891337 257.553481 
L 215.670266 246.066798 
L 216.559731 243.308264 
L 217.449195 242.174798 
L 219.228124 250.412607 
L 220.117589 249.460741 
L 221.007053 242.279952 
L 221.896518 238.257633 
L 222.785982 237.845315 
L 223.675447 243.831721 
L 224.564911 246.961765 
L 225.454376 249.12919 
L 226.34384 247.491952 
L 227.233305 249.527236 
L 228.122769 248.916583 
L 229.012234 247.650911 
L 229.901698 243.650327 
L 230.791163 246.218831 
L 232.570092 262.386277 
L 233.459556 261.710631 
L 234.349021 261.955629 
L 235.238485 250.274788 
L 236.12795 236.115018 
L 237.017414 229.197017 
L 237.906879 208.688877 
L 238.796343 178.845003 
L 239.685808 127.816616 
L 240.575272 99.730819 
L 241.464737 88.14585 
L 242.354201 95.967062 
L 244.13313 150.221607 
L 245.022595 183.056876 
L 245.912059 225.668034 
L 246.801524 249.236126 
L 247.690988 259.742551 
L 248.580453 248.91656 
L 249.469917 255.284114 
L 251.248847 265.027355 
L 252.138311 267.266556 
L 253.027776 267.574027 
L 253.91724 263.650304 
L 254.806705 263.192475 
L 255.696169 262.569233 
L 256.585634 263.404836 
L 257.475098 263.174415 
L 258.364563 263.902083 
L 259.254027 263.08569 
L 260.143492 262.47313 
L 261.032956 260.2992 
L 262.811885 260.01695 
L 263.70135 262.064937 
L 265.480279 262.699341 
L 266.369743 261.297201 
L 267.259208 261.765174 
L 268.148672 261.366658 
L 269.038137 260.664166 
L 269.927601 259.601372 
L 270.817066 261.400776 
L 271.70653 266.575796 
L 272.595995 270.715317 
L 273.485459 270.368646 
L 274.374924 265.931582 
L 275.264388 260.579308 
L 276.153853 257.659452 
L 277.043317 261.097733 
L 277.932782 259.280345 
L 278.822246 254.095259 
L 279.711711 243.879164 
L 282.380104 224.470874 
L 283.269569 220.144522 
L 284.159033 220.661631 
L 285.048498 226.862931 
L 285.937962 236.250175 
L 286.827427 236.881159 
L 287.716891 236.427384 
L 289.49582 220.692951 
L 290.385285 205.347723 
L 291.274749 198.4191 
L 292.164214 197.969421 
L 293.053678 203.910516 
L 294.832607 228.456731 
L 296.611536 258.427915 
L 297.501001 266.849781 
L 298.390465 268.666278 
L 299.27993 262.963272 
L 300.169394 264.37328 
L 301.058859 266.891981 
L 301.948323 268.371851 
L 302.837788 268.797826 
L 303.727252 267.28218 
L 304.616717 265.98895 
L 305.506182 265.56089 
L 306.395646 265.893081 
L 307.285111 266.065955 
L 308.174575 267.026971 
L 309.06404 269.44388 
L 309.953504 271.220683 
L 310.842969 270.447197 
L 311.732433 268.174937 
L 312.621898 264.287379 
L 313.511362 261.486102 
L 314.400827 261.414218 
L 315.290291 259.29127 
L 316.179756 255.100133 
L 317.06922 248.021797 
L 317.958685 243.931956 
L 318.848149 240.852238 
L 319.737614 246.873521 
L 320.627078 245.726669 
L 321.516543 239.681262 
L 322.406007 228.032763 
L 323.295472 219.106832 
L 324.184936 208.159457 
L 325.074401 200.063923 
L 325.963865 190.232827 
L 326.85333 186.183022 
L 327.742794 179.924999 
L 328.632259 190.028957 
L 329.521723 197.886754 
L 330.411188 212.006695 
L 331.300652 222.455486 
L 332.190117 235.059853 
L 333.079581 243.144501 
L 333.969046 252.810021 
L 334.85851 257.117694 
L 335.747975 259.284142 
L 336.637439 251.938085 
L 337.526904 252.730607 
L 338.416368 252.660761 
L 339.305833 257.185718 
L 340.195297 258.116709 
L 341.084762 258.48227 
L 341.974226 256.142031 
L 342.863691 258.022924 
L 343.753155 260.60295 
L 344.64262 265.73003 
L 345.532084 267.982896 
L 346.421549 269.264023 
L 347.311013 267.914945 
L 348.200478 268.586618 
L 349.089942 270.457466 
L 349.979407 271.723195 
L 350.868871 271.087708 
L 351.758336 269.243785 
L 352.6478 266.330367 
L 353.537265 264.221543 
L 354.426729 262.831304 
L 355.316194 262.088738 
L 356.205658 261.153646 
L 357.095123 259.750705 
L 357.984587 260.683431 
L 358.874052 261.278371 
L 359.763517 263.105016 
L 360.652981 264.59018 
L 361.542446 265.699681 
L 362.43191 265.684423 
L 364.210839 266.890733 
L 365.100304 267.321191 
L 365.989768 267.619377 
L 366.879233 268.401399 
L 367.768697 269.345941 
L 368.658162 271.090311 
L 369.547626 271.825278 
L 370.437091 272.760522 
L 371.326555 272.063244 
L 372.21602 271.532751 
L 373.105484 269.5575 
L 373.994949 268.638408 
L 375.773878 268.652848 
L 376.663342 269.396801 
L 377.552807 270.62382 
L 379.331736 274.588939 
L 380.2212 274.732858 
L 381.110665 273.236591 
L 382.889594 269.869765 
L 383.779058 268.897944 
L 384.668523 268.999674 
L 384.668523 268.999674 
" style="fill:none;stroke:#1f77b4;stroke-linecap:square;stroke-width:1.5;"/>
   </g>
   <g id="line2d_17">
    <path clip-path="url(#pca39435b71)" d="M 60.013977 206.678488 
L 61.792906 211.906574 
L 62.682371 184.49249 
L 63.571835 187.757341 
L 64.4613 191.772496 
L 65.350764 190.289601 
L 66.240229 197.182362 
L 67.129693 206.052173 
L 68.019158 169.74583 
L 68.908622 184.987467 
L 69.798087 202.778253 
L 70.687551 234.647562 
L 71.577016 250.100822 
L 72.46648 262.03188 
L 73.355945 238.982935 
L 74.245409 246.339101 
L 75.134874 251.637582 
L 76.024338 159.140817 
L 76.913803 164.039845 
L 77.803267 168.168824 
L 78.692732 132.987897 
L 80.471661 140.376083 
L 81.361125 109.97886 
L 83.140054 116.255183 
L 84.029519 111.710156 
L 85.808448 117.794361 
L 86.697913 165.720623 
L 88.476842 170.306476 
L 89.366306 77.846074 
L 91.145235 83.475549 
L 92.0347 72.885589 
L 93.813629 78.672111 
L 94.703093 114.703294 
L 96.482022 119.347301 
L 97.371487 93.990246 
L 99.150416 98.728333 
L 100.03988 140.633247 
L 101.818809 144.850835 
L 102.708274 55.841911 
L 104.487203 61.125197 
L 105.376667 134.110414 
L 107.155596 138.331678 
L 108.045061 69.991497 
L 109.82399 75.191665 
L 110.713454 143.251337 
L 112.492383 147.184653 
L 113.381848 181.94905 
L 115.160777 184.867483 
L 116.050241 34.414125 
L 117.82917 39.794903 
L 118.718635 82.689114 
L 120.497564 87.596893 
L 121.387028 68.943062 
L 123.165957 73.671456 
L 124.055422 41.588839 
L 125.834351 46.802747 
L 126.723815 36.332814 
L 128.502744 41.556939 
L 129.392209 90.94263 
L 131.171138 95.328007 
L 132.060602 93.146991 
L 133.839531 97.717398 
L 134.728996 87.085999 
L 136.507925 91.818113 
L 137.397389 78.914069 
L 139.176318 83.654343 
L 140.065783 74.873131 
L 141.844712 79.633993 
L 142.734177 94.650682 
L 144.513106 99.224567 
L 145.40257 118.963218 
L 147.181499 122.759572 
L 148.070964 97.465638 
L 149.849893 101.992812 
L 150.739357 88.985588 
L 152.518286 93.583387 
L 153.407751 187.103163 
L 155.18668 190.407517 
L 156.076144 74.771459 
L 157.855073 79.477953 
L 158.744538 116.8828 
L 160.523467 121.174996 
L 161.412931 102.30638 
L 163.19186 106.735121 
L 164.081325 75.276052 
L 165.860254 79.947933 
L 166.749718 110.242084 
L 168.528647 114.085369 
L 169.418112 76.127336 
L 171.197041 80.770337 
L 172.086505 100.065263 
L 173.865434 104.03783 
L 174.754899 151.615583 
L 176.533828 155.470201 
L 177.423292 94.764102 
L 179.202221 99.096095 
L 180.091686 168.667531 
L 181.870615 172.315765 
L 182.760079 86.215811 
L 184.539008 90.736553 
L 185.428473 118.022208 
L 187.207402 122.191466 
L 188.096866 123.920749 
L 189.875795 127.962782 
L 190.76526 106.611243 
L 192.544189 110.936782 
L 193.433653 108.793266 
L 195.212583 113.075813 
L 196.102047 132.019604 
L 197.880976 135.576582 
L 198.770441 109.46661 
L 200.54937 113.749375 
L 201.438834 122.924298 
L 203.217763 127.084564 
L 204.107228 93.714988 
L 205.886157 98.122529 
L 206.775621 151.463503 
L 208.55455 155.271387 
L 209.444015 97.836069 
L 211.222944 102.198627 
L 212.112408 105.346689 
L 213.891337 109.63965 
L 214.780802 143.168351 
L 216.559731 147.078125 
L 217.449195 133.142318 
L 219.228124 137.166344 
L 220.117589 124.058324 
L 221.896518 128.170981 
L 222.785982 155.105042 
L 224.564911 158.913671 
L 225.454376 112.808737 
L 227.233305 117.017312 
L 228.122769 151.418717 
L 229.901698 155.219884 
L 230.791163 114.628271 
L 232.570092 118.812801 
L 233.459556 122.480048 
L 235.238485 126.593121 
L 236.12795 153.526942 
L 237.906879 157.199637 
L 238.796343 233.00738 
L 240.575272 235.746855 
L 241.464737 275.019282 
L 243.243666 276.334125 
L 244.13313 176.630211 
L 245.912059 180.141309 
L 246.801524 158.775397 
L 248.580453 162.436037 
L 249.469917 123.080032 
L 251.248847 127.166347 
L 252.138311 140.316134 
L 253.91724 144.246519 
L 254.806705 122.257081 
L 256.585634 126.343702 
L 257.475098 121.041841 
L 259.254027 125.135179 
L 260.143492 124.744707 
L 261.922421 128.803368 
L 262.811885 141.54693 
L 264.590814 145.452001 
L 265.480279 133.095847 
L 267.259208 137.076509 
L 268.148672 148.517098 
L 269.927601 152.322007 
L 270.817066 133.314658 
L 272.595995 137.287509 
L 273.485459 137.985926 
L 275.264388 141.915217 
L 276.153853 156.435365 
L 277.932782 160.185205 
L 278.822246 153.848911 
L 280.601175 157.63041 
L 281.49064 214.627188 
L 283.269569 217.739205 
L 284.159033 177.122289 
L 285.937962 180.611814 
L 286.827427 199.904278 
L 288.606356 203.192201 
L 289.49582 229.39378 
L 291.274749 232.33233 
L 292.164214 213.95169 
L 293.943143 216.68902 
L 294.832607 170.800545 
L 296.611536 174.402396 
L 297.501001 167.14859 
L 299.27993 170.782145 
L 300.169394 167.565055 
L 301.948323 171.194845 
L 302.837788 160.508903 
L 304.616717 164.207656 
L 305.506182 172.329024 
L 307.285111 175.901076 
L 308.174575 161.023669 
L 309.953504 164.711745 
L 310.842969 163.918264 
L 312.621898 167.577766 
L 313.511362 190.766549 
L 315.290291 194.153649 
L 316.179756 185.291944 
L 317.958685 188.728829 
L 318.848149 222.227512 
L 320.627078 225.169573 
L 321.516543 191.359259 
L 323.295472 194.72484 
L 324.184936 246.226447 
L 325.963865 248.370937 
L 326.85333 158.310733 
L 328.632259 161.031239 
L 329.521723 174.919897 
L 331.300652 177.21383 
L 332.190117 175.885389 
L 333.969046 179.416506 
L 334.85851 191.837148 
L 336.637439 194.944373 
L 337.526904 176.322638 
L 339.305833 179.844676 
L 340.195297 193.472341 
L 341.974226 196.662651 
L 342.863691 179.813148 
L 344.64262 183.299414 
L 345.532084 189.601533 
L 347.311013 192.984005 
L 348.200478 181.214271 
L 349.979407 184.683 
L 350.868871 178.039166 
L 352.6478 181.53589 
L 353.537265 194.119955 
L 355.316194 197.448792 
L 356.205658 191.599335 
L 357.984587 194.952851 
L 358.874052 198.01448 
L 360.652981 201.278785 
L 361.542446 187.622808 
L 363.321375 191.019556 
L 364.210839 200.07536 
L 365.989768 203.347574 
L 366.879233 187.966689 
L 368.658162 191.357421 
L 369.547626 188.786895 
L 371.326555 192.167125 
L 372.21602 191.587193 
L 373.994949 194.938859 
L 374.884413 197.933955 
L 376.663342 201.220762 
L 377.552807 192.024135 
L 379.331736 195.368057 
L 380.2212 190.441309 
L 382.000129 193.798489 
L 382.889594 190.663992 
L 384.668523 194.017354 
L 384.668523 194.017354 
" style="fill:none;stroke:#ff7f0e;stroke-linecap:square;stroke-opacity:0.3;stroke-width:1.5;"/>
   </g>
   <g id="line2d_18">
    <path clip-path="url(#pca39435b71)" d="M 60.013977 212.553477 
L 60.903442 203.825787 
L 61.792906 198.235483 
L 62.682371 195.068226 
L 63.571835 193.60968 
L 64.4613 193.145505 
L 65.350764 189.068533 
L 66.240229 185.540706 
L 67.129693 187.811765 
L 68.019158 191.220686 
L 70.687551 223.00205 
L 71.577016 242.623404 
L 72.46648 253.303309 
L 73.355945 248.268109 
L 74.245409 237.662413 
L 77.803267 158.781093 
L 78.692732 141.101604 
L 79.582196 130.372178 
L 80.471661 129.014233 
L 82.25059 111.377297 
L 83.140054 111.872908 
L 84.029519 114.541549 
L 84.918983 130.520119 
L 85.808448 141.759358 
L 86.697913 143.275782 
L 87.587377 140.398826 
L 88.476842 131.956868 
L 89.366306 118.049897 
L 91.145235 79.841352 
L 92.0347 73.59999 
L 92.924164 79.515384 
L 93.813629 94.01862 
L 94.703093 99.338362 
L 95.592558 100.333718 
L 97.371487 108.759737 
L 98.260951 120.346755 
L 99.150416 121.156573 
L 100.03988 119.404383 
L 100.929345 108.244799 
L 102.708274 97.605895 
L 103.597738 100.214442 
L 104.487203 96.900982 
L 105.376667 97.302223 
L 106.266132 94.71517 
L 107.155596 103.665811 
L 108.045061 105.343732 
L 108.934525 103.150122 
L 109.82399 101.793179 
L 110.713454 113.872741 
L 111.602919 145.464426 
L 112.492383 167.068185 
L 113.381848 166.718316 
L 114.271312 148.37667 
L 115.160777 121.030436 
L 116.050241 98.984147 
L 117.82917 62.930899 
L 118.718635 56.079337 
L 119.608099 62.882432 
L 120.497564 79.806211 
L 121.387028 78.430005 
L 122.276493 73.092893 
L 123.165957 61.714661 
L 124.055422 53.525841 
L 124.944886 42.816198 
L 125.834351 40.05404 
L 126.723815 41.231143 
L 127.61328 48.447466 
L 128.502744 60.840279 
L 131.171138 92.602887 
L 132.060602 97.408845 
L 132.950067 98.9639 
L 133.839531 93.732474 
L 134.728996 91.351423 
L 135.61846 89.551157 
L 136.507925 86.973646 
L 137.397389 83.701087 
L 138.286854 79.960884 
L 139.176318 79.055567 
L 140.065783 78.851798 
L 140.955248 79.289606 
L 141.844712 84.009633 
L 142.734177 89.64468 
L 143.623641 99.283711 
L 144.513106 107.295725 
L 145.40257 111.536873 
L 146.292035 114.188573 
L 147.181499 112.328242 
L 148.070964 108.966806 
L 148.960428 95.99401 
L 149.849893 91.298019 
L 150.739357 97.000744 
L 151.628822 120.237368 
L 152.518286 137.597188 
L 153.407751 144.923039 
L 154.297215 142.597321 
L 155.18668 138.262524 
L 156.076144 128.849655 
L 156.965609 117.226227 
L 157.855073 99.239695 
L 158.744538 94.565669 
L 159.634002 100.689739 
L 160.523467 113.597839 
L 161.412931 111.553197 
L 163.19186 92.504962 
L 164.081325 88.517122 
L 165.860254 94.787617 
L 166.749718 95.185639 
L 167.639183 94.224951 
L 168.528647 96.217485 
L 169.418112 94.670035 
L 170.307576 88.476454 
L 171.197041 86.139742 
L 172.086505 92.42338 
L 173.865434 125.38569 
L 174.754899 132.122138 
L 175.644363 127.614602 
L 176.533828 124.660295 
L 177.423292 125.301576 
L 178.312757 134.26861 
L 179.202221 133.729985 
L 180.091686 134.265676 
L 180.98115 131.900813 
L 181.870615 133.321565 
L 182.760079 126.58257 
L 183.649544 116.895277 
L 184.539008 104.103579 
L 185.428473 102.41844 
L 186.317937 109.557915 
L 187.207402 122.532494 
L 188.096866 124.685729 
L 188.986331 123.784693 
L 189.875795 119.009365 
L 190.76526 115.76345 
L 191.654724 111.179281 
L 192.544189 109.113748 
L 193.433653 109.717975 
L 195.212583 121.599511 
L 196.102047 123.758838 
L 196.991512 123.818593 
L 197.880976 123.496047 
L 198.770441 122.095571 
L 199.659905 123.066381 
L 201.438834 116.877167 
L 202.328299 109.809081 
L 203.217763 109.584468 
L 204.107228 110.346735 
L 204.996692 118.897099 
L 205.886157 123.463046 
L 206.775621 126.412579 
L 208.55455 129.732093 
L 209.444015 124.793528 
L 211.222944 102.942607 
L 212.112408 102.44434 
L 213.001873 109.940441 
L 213.891337 123.0198 
L 215.670266 136.977489 
L 216.559731 140.51271 
L 217.449195 140.866281 
L 219.228124 130.25089 
L 220.117589 130.072715 
L 221.007053 136.845743 
L 221.896518 141.615715 
L 222.785982 142.283772 
L 223.675447 138.381556 
L 224.564911 136.923954 
L 225.454376 134.830473 
L 226.34384 136.720371 
L 227.233305 134.337387 
L 228.122769 133.759098 
L 229.012234 134.111291 
L 229.901698 137.046626 
L 230.791163 133.692144 
L 232.570092 119.551055 
L 233.459556 120.155493 
L 234.349021 119.44087 
L 235.238485 131.75714 
L 237.017414 162.190912 
L 238.796343 206.672224 
L 239.685808 237.70933 
L 240.575272 254.044564 
L 241.464737 260.23803 
L 242.354201 255.964009 
L 244.13313 218.502255 
L 245.022595 200.662656 
L 245.912059 177.420849 
L 246.801524 159.834634 
L 247.690988 147.524274 
L 248.580453 146.352064 
L 249.469917 138.491892 
L 250.359382 135.699914 
L 251.248847 134.672012 
L 252.138311 132.293975 
L 253.027776 132.38131 
L 253.91724 134.792887 
L 254.806705 132.208089 
L 255.696169 128.781935 
L 256.585634 124.530413 
L 257.475098 122.342378 
L 258.364563 121.160644 
L 259.254027 123.791979 
L 260.143492 125.676403 
L 261.922421 134.039093 
L 262.811885 136.54154 
L 263.70135 137.477792 
L 264.590814 138.783017 
L 265.480279 139.85878 
L 266.369743 142.524073 
L 267.259208 142.686418 
L 269.038137 143.222242 
L 269.927601 143.763061 
L 270.817066 142.202861 
L 271.70653 138.993417 
L 272.595995 136.813325 
L 273.485459 137.669373 
L 274.374924 141.662514 
L 275.264388 147.452382 
L 276.153853 151.011805 
L 277.043317 149.408505 
L 277.932782 153.006098 
L 278.822246 160.14806 
L 279.711711 173.071961 
L 280.601175 182.399485 
L 281.49064 190.409724 
L 282.380104 194.469521 
L 283.269569 197.80249 
L 284.159033 198.155403 
L 285.048498 193.460847 
L 285.937962 187.677374 
L 286.827427 191.219437 
L 287.716891 201.075546 
L 288.606356 213.481862 
L 289.49582 219.925488 
L 290.385285 227.403778 
L 291.274749 226.441823 
L 292.164214 221.404739 
L 293.053678 212.607469 
L 293.943143 199.369915 
L 294.832607 188.144363 
L 295.722072 179.065317 
L 297.501001 167.508883 
L 298.390465 166.822037 
L 299.27993 169.929486 
L 300.169394 168.487565 
L 301.058859 166.593537 
L 302.837788 165.422088 
L 303.727252 167.109488 
L 304.616717 168.223999 
L 305.506182 168.35323 
L 306.395646 168.67638 
L 307.285111 169.230011 
L 308.174575 167.958213 
L 309.06404 164.427454 
L 309.953504 162.987789 
L 310.842969 164.766851 
L 311.732433 170.05614 
L 312.621898 176.798573 
L 313.511362 181.651365 
L 314.400827 183.161781 
L 315.290291 187.163304 
L 316.179756 192.148111 
L 317.06922 200.292357 
L 318.848149 207.416991 
L 319.737614 205.142587 
L 320.627078 206.892654 
L 321.516543 209.54551 
L 322.406007 220.523894 
L 323.295472 221.497742 
L 324.184936 220.281893 
L 325.963865 209.606655 
L 326.85333 198.318955 
L 327.742794 184.942531 
L 328.632259 169.661545 
L 329.521723 163.885267 
L 330.411188 164.408875 
L 331.300652 175.165435 
L 332.190117 178.443566 
L 333.079581 183.12761 
L 334.85851 186.435781 
L 335.747975 185.914628 
L 336.637439 185.837617 
L 337.526904 185.616639 
L 338.416368 187.005638 
L 339.305833 186.458605 
L 341.084762 186.868586 
L 341.974226 188.633664 
L 342.863691 188.15544 
L 343.753155 188.328197 
L 344.64262 186.66103 
L 345.532084 186.048426 
L 346.421549 186.815515 
L 347.311013 188.006129 
L 348.200478 186.531312 
L 349.089942 183.44948 
L 349.979407 181.219397 
L 350.868871 180.955496 
L 351.758336 183.148657 
L 352.6478 186.625556 
L 354.426729 191.278059 
L 355.316194 193.969863 
L 356.205658 195.339879 
L 357.095123 197.266936 
L 358.874052 196.354848 
L 359.763517 195.045783 
L 360.652981 194.72006 
L 361.542446 194.109123 
L 362.43191 195.423414 
L 363.321375 195.595276 
L 364.210839 195.475638 
L 365.100304 195.884309 
L 365.989768 196.595069 
L 366.879233 195.044198 
L 367.768697 193.039178 
L 368.658162 190.479768 
L 369.547626 189.308446 
L 370.437091 189.336208 
L 371.326555 191.356773 
L 372.21602 192.270315 
L 373.105484 194.538562 
L 373.994949 196.231194 
L 375.773878 197.499925 
L 376.663342 197.295017 
L 378.442271 195.067346 
L 379.331736 193.484623 
L 380.2212 192.18378 
L 381.110665 191.869067 
L 382.000129 191.89365 
L 382.889594 192.21022 
L 383.779058 192.771467 
L 384.668523 193.530083 
L 384.668523 193.530083 
" style="fill:none;stroke:#ff7f0e;stroke-linecap:square;stroke-width:1.5;"/>
   </g>
   <g id="line2d_19">
    <path clip-path="url(#pca39435b71)" d="M 60.013977 37.55335 
L 60.903442 37.828165 
L 61.792906 39.216169 
L 62.682371 41.686517 
L 63.571835 45.208364 
L 64.4613 49.750868 
L 65.350764 55.307516 
L 67.129693 71.925348 
L 68.019158 76.830335 
L 68.908622 80.860172 
L 69.798087 81.743084 
L 70.687551 81.351092 
L 71.577016 80.632132 
L 72.46648 78.920241 
L 73.355945 78.604528 
L 74.245409 80.719389 
L 75.134874 83.383971 
L 76.024338 83.787267 
L 76.913803 83.874643 
L 77.803267 84.679802 
L 78.692732 84.222755 
L 79.582196 84.050508 
L 80.471661 85.390737 
L 81.361125 87.705732 
L 82.25059 92.721416 
L 83.140054 98.716656 
L 84.918983 107.344498 
L 88.476842 119.426786 
L 89.366306 121.16068 
L 90.255771 125.109641 
L 91.145235 124.943015 
L 92.0347 120.03689 
L 93.813629 104.90641 
L 94.703093 98.670409 
L 95.592558 94.184696 
L 96.482022 93.807877 
L 97.371487 96.698091 
L 98.260951 101.301994 
L 99.150416 109.152864 
L 100.03988 113.038854 
L 100.929345 119.137905 
L 101.818809 119.364297 
L 102.708274 117.518589 
L 103.597738 115.073233 
L 105.376667 103.373315 
L 106.266132 89.847247 
L 107.155596 83.699792 
L 108.045061 86.490174 
L 108.934525 100.381357 
L 109.82399 117.618461 
L 110.713454 130.017763 
L 111.602919 148.51867 
L 112.492383 161.127261 
L 113.381848 164.33911 
L 114.271312 155.807303 
L 115.160777 141.305238 
L 116.050241 135.632577 
L 116.939706 134.255566 
L 117.82917 135.622458 
L 118.718635 133.628418 
L 119.608099 132.170338 
L 120.497564 137.671061 
L 121.387028 137.629091 
L 122.276493 138.267727 
L 123.165957 134.447772 
L 124.055422 133.155592 
L 124.944886 130.497724 
L 125.834351 129.084206 
L 126.723815 126.34658 
L 127.61328 120.143609 
L 128.502744 118.804346 
L 129.392209 124.628498 
L 130.281673 141.539759 
L 131.171138 152.803626 
L 132.060602 154.639108 
L 133.839531 134.088689 
L 134.728996 126.651058 
L 135.61846 122.742593 
L 136.507925 115.89132 
L 137.397389 115.514275 
L 138.286854 116.942863 
L 139.176318 125.768144 
L 140.065783 125.532355 
L 140.955248 122.731912 
L 141.844712 114.80962 
L 142.734177 114.681266 
L 143.623641 114.21883 
L 145.40257 126.797194 
L 146.292035 138.080398 
L 147.181499 143.122816 
L 148.070964 146.699328 
L 149.849893 142.895343 
L 150.739357 139.372946 
L 151.628822 135.384414 
L 152.518286 129.372277 
L 153.407751 129.529751 
L 154.297215 133.206432 
L 155.18668 141.105148 
L 156.965609 145.247041 
L 157.855073 144.330822 
L 158.744538 145.75318 
L 159.634002 151.999509 
L 160.523467 152.583553 
L 161.412931 147.240697 
L 163.19186 123.728309 
L 164.081325 113.902092 
L 164.970789 111.28787 
L 165.860254 111.778845 
L 166.749718 113.507612 
L 167.639183 116.288853 
L 168.528647 124.624609 
L 169.418112 127.347232 
L 170.307576 130.506589 
L 171.197041 129.43769 
L 172.086505 130.453542 
L 172.97597 133.428906 
L 173.865434 136.826428 
L 174.754899 134.904541 
L 175.644363 133.727859 
L 176.533828 128.687639 
L 177.423292 124.601987 
L 178.312757 122.280756 
L 180.091686 124.937857 
L 181.870615 132.210248 
L 182.760079 132.807766 
L 183.649544 133.061421 
L 184.539008 133.971777 
L 185.428473 130.220151 
L 187.207402 121.657383 
L 188.096866 118.958039 
L 188.986331 117.284154 
L 189.875795 117.755799 
L 190.76526 117.985709 
L 191.654724 117.054257 
L 192.544189 119.190573 
L 193.433653 123.105464 
L 194.323118 129.907235 
L 196.991512 153.744783 
L 197.880976 156.043937 
L 198.770441 153.454001 
L 199.659905 142.924774 
L 200.54937 133.784855 
L 201.438834 130.479044 
L 202.328299 136.987129 
L 203.217763 140.637277 
L 204.107228 140.410182 
L 204.996692 132.469241 
L 205.886157 130.239775 
L 207.665086 123.935934 
L 208.55455 122.784913 
L 209.444015 131.298791 
L 210.333479 146.338358 
L 211.222944 164.93021 
L 212.112408 172.727468 
L 213.001873 175.048256 
L 213.891337 168.834752 
L 214.780802 167.114794 
L 215.670266 164.922972 
L 216.559731 161.151152 
L 218.33866 155.328305 
L 219.228124 152.620118 
L 221.007053 143.555172 
L 221.896518 141.583775 
L 222.785982 140.887698 
L 223.675447 140.734182 
L 224.564911 144.002048 
L 225.454376 148.701508 
L 226.34384 154.611326 
L 227.233305 161.340473 
L 228.122769 167.029909 
L 229.012234 170.127728 
L 229.901698 172.80781 
L 230.791163 176.730646 
L 231.680627 183.949663 
L 232.570092 185.33053 
L 233.459556 184.528527 
L 234.349021 181.820607 
L 235.238485 175.572959 
L 237.017414 159.267933 
L 237.906879 151.063298 
L 238.796343 146.455934 
L 239.685808 145.589341 
L 240.575272 148.497692 
L 241.464737 148.574896 
L 242.354201 150.128215 
L 243.243666 152.734417 
L 244.13313 154.311116 
L 245.022595 158.107305 
L 245.912059 159.966213 
L 246.801524 160.569825 
L 247.690988 158.608681 
L 248.580453 155.876657 
L 249.469917 151.789993 
L 252.138311 142.232198 
L 253.027776 138.058641 
L 253.91724 138.478449 
L 254.806705 139.380871 
L 255.696169 140.919881 
L 256.585634 144.308537 
L 257.475098 150.278145 
L 258.364563 157.034518 
L 261.032956 180.96496 
L 261.922421 183.943797 
L 262.811885 185.660317 
L 263.70135 181.085099 
L 264.590814 175.858664 
L 265.480279 171.913948 
L 266.369743 169.366326 
L 267.259208 167.717963 
L 268.148672 168.767702 
L 269.038137 176.163592 
L 269.927601 182.538337 
L 270.817066 181.113407 
L 271.70653 172.562988 
L 272.595995 161.783942 
L 273.485459 155.00533 
L 274.374924 154.037469 
L 275.264388 152.10127 
L 277.043317 146.938953 
L 277.932782 147.264877 
L 278.822246 142.593608 
L 279.711711 135.735311 
L 280.601175 127.97072 
L 281.49064 125.180393 
L 282.380104 123.988845 
L 284.159033 135.957668 
L 285.048498 145.796238 
L 285.937962 152.015015 
L 286.827427 156.592463 
L 287.716891 157.665101 
L 288.606356 157.637069 
L 289.49582 157.044342 
L 290.385285 155.851049 
L 291.274749 151.903953 
L 292.164214 150.739881 
L 293.053678 152.368466 
L 293.943143 154.477136 
L 294.832607 151.160611 
L 295.722072 141.546088 
L 296.611536 137.124488 
L 297.501001 139.57552 
L 298.390465 146.289631 
L 299.27993 154.944447 
L 300.169394 162.512201 
L 301.058859 172.324308 
L 301.948323 177.328951 
L 302.837788 174.381935 
L 303.727252 162.366935 
L 304.616717 146.469686 
L 306.395646 130.571242 
L 307.285111 127.766137 
L 308.174575 128.421629 
L 309.953504 139.292969 
L 311.732433 144.286223 
L 312.621898 142.216694 
L 313.511362 140.755409 
L 314.400827 138.098076 
L 315.290291 134.933742 
L 316.179756 135.502161 
L 317.06922 137.859293 
L 317.958685 141.079242 
L 318.848149 142.219004 
L 319.737614 152.015925 
L 320.627078 157.296345 
L 321.516543 157.022247 
L 322.406007 151.225388 
L 323.295472 147.097733 
L 324.184936 141.099923 
L 325.074401 138.136128 
L 326.85333 143.635647 
L 327.742794 152.685313 
L 328.632259 164.606083 
L 329.521723 168.545171 
L 330.411188 169.046086 
L 331.300652 167.394702 
L 332.190117 168.149545 
L 333.079581 167.43482 
L 333.969046 169.725061 
L 334.85851 173.765488 
L 335.747975 174.82842 
L 336.637439 176.83312 
L 337.526904 174.569245 
L 339.305833 163.493256 
L 340.195297 161.879946 
L 341.084762 164.441121 
L 341.974226 167.75771 
L 342.863691 170.488984 
L 343.753155 174.227834 
L 344.64262 177.064501 
L 345.532084 177.426417 
L 346.421549 172.390183 
L 347.311013 168.89681 
L 349.979407 178.393608 
L 350.868871 178.259842 
L 351.758336 174.219271 
L 352.6478 173.315558 
L 353.537265 173.113321 
L 354.426729 175.114328 
L 355.316194 173.849697 
L 356.205658 177.068858 
L 357.095123 183.240815 
L 357.984587 183.848866 
L 358.874052 182.584675 
L 359.763517 175.653466 
L 360.652981 167.509848 
L 361.542446 165.083144 
L 362.43191 163.807404 
L 364.210839 169.559052 
L 365.100304 175.735197 
L 365.989768 179.789765 
L 366.879233 182.769205 
L 367.768697 184.742402 
L 368.658162 181.874873 
L 369.547626 179.673311 
L 370.437091 167.614655 
L 371.326555 163.771412 
L 372.21602 171.237456 
L 373.994949 213.309467 
L 375.773878 238.628939 
L 376.663342 240.79858 
L 377.552807 232.927446 
L 378.442271 213.465001 
L 379.331736 186.451977 
L 380.2212 173.36938 
L 381.110665 169.864258 
L 382.000129 170.449929 
L 382.889594 174.144672 
L 383.779058 179.96677 
L 384.668523 186.934502 
L 384.668523 186.934502 
" style="fill:none;stroke:#008000;stroke-linecap:square;stroke-width:1.5;"/>
   </g>
   <g id="patch_3">
    <path d="M 43.78125 288.430125 
L 43.78125 22.318125 
" style="fill:none;stroke:#000000;stroke-linecap:square;stroke-linejoin:miter;stroke-width:0.8;"/>
   </g>
   <g id="patch_4">
    <path d="M 400.90125 288.430125 
L 400.90125 22.318125 
" style="fill:none;stroke:#000000;stroke-linecap:square;stroke-linejoin:miter;stroke-width:0.8;"/>
   </g>
   <g id="patch_5">
    <path d="M 43.78125 288.430125 
L 400.90125 288.430125 
" style="fill:none;stroke:#000000;stroke-linecap:square;stroke-linejoin:miter;stroke-width:0.8;"/>
   </g>
   <g id="patch_6">
    <path d="M 43.78125 22.318125 
L 400.90125 22.318125 
" style="fill:none;stroke:#000000;stroke-linecap:square;stroke-linejoin:miter;stroke-width:0.8;"/>
   </g>
   <g id="text_17">
    <!-- Entropy and Loss. -->
    <defs>
     <path d="M 9.1875 72.90625 
L 59.90625 72.90625 
L 59.90625 58.6875 
L 27.984375 58.6875 
L 27.984375 45.125 
L 58.015625 45.125 
L 58.015625 30.90625 
L 27.984375 30.90625 
L 27.984375 14.203125 
L 60.984375 14.203125 
L 60.984375 0 
L 9.1875 0 
z
" id="DejaVuSans-Bold-69"/>
     <path d="M 63.375 33.296875 
L 63.375 0 
L 45.796875 0 
L 45.796875 5.421875 
L 45.796875 25.484375 
Q 45.796875 32.5625 45.484375 35.25 
Q 45.171875 37.9375 44.390625 39.203125 
Q 43.359375 40.921875 41.59375 41.875 
Q 39.84375 42.828125 37.59375 42.828125 
Q 32.125 42.828125 29 38.59375 
Q 25.875 34.375 25.875 26.90625 
L 25.875 0 
L 8.40625 0 
L 8.40625 54.6875 
L 25.875 54.6875 
L 25.875 46.6875 
Q 29.828125 51.46875 34.265625 53.734375 
Q 38.71875 56 44.09375 56 
Q 53.5625 56 58.46875 50.1875 
Q 63.375 44.390625 63.375 33.296875 
z
" id="DejaVuSans-Bold-110"/>
     <path d="M 27.484375 70.21875 
L 27.484375 54.6875 
L 45.515625 54.6875 
L 45.515625 42.1875 
L 27.484375 42.1875 
L 27.484375 19 
Q 27.484375 15.1875 29 13.84375 
Q 30.515625 12.5 35.015625 12.5 
L 44 12.5 
L 44 0 
L 29 0 
Q 18.65625 0 14.328125 4.3125 
Q 10.015625 8.640625 10.015625 19 
L 10.015625 42.1875 
L 1.3125 42.1875 
L 1.3125 54.6875 
L 10.015625 54.6875 
L 10.015625 70.21875 
z
" id="DejaVuSans-Bold-116"/>
     <path d="M 49.03125 39.796875 
Q 46.734375 40.875 44.453125 41.375 
Q 42.1875 41.890625 39.890625 41.890625 
Q 33.15625 41.890625 29.515625 37.5625 
Q 25.875 33.25 25.875 25.203125 
L 25.875 0 
L 8.40625 0 
L 8.40625 54.6875 
L 25.875 54.6875 
L 25.875 45.703125 
Q 29.25 51.078125 33.609375 53.53125 
Q 37.984375 56 44.09375 56 
Q 44.96875 56 45.984375 55.921875 
Q 47.015625 55.859375 48.96875 55.609375 
z
" id="DejaVuSans-Bold-114"/>
     <path d="M 34.421875 43.5 
Q 28.609375 43.5 25.5625 39.328125 
Q 22.515625 35.15625 22.515625 27.296875 
Q 22.515625 19.4375 25.5625 15.25 
Q 28.609375 11.078125 34.421875 11.078125 
Q 40.140625 11.078125 43.15625 15.25 
Q 46.1875 19.4375 46.1875 27.296875 
Q 46.1875 35.15625 43.15625 39.328125 
Q 40.140625 43.5 34.421875 43.5 
z
M 34.421875 56 
Q 48.53125 56 56.46875 48.375 
Q 64.40625 40.765625 64.40625 27.296875 
Q 64.40625 13.8125 56.46875 6.1875 
Q 48.53125 -1.421875 34.421875 -1.421875 
Q 20.265625 -1.421875 12.28125 6.1875 
Q 4.296875 13.8125 4.296875 27.296875 
Q 4.296875 40.765625 12.28125 48.375 
Q 20.265625 56 34.421875 56 
z
" id="DejaVuSans-Bold-111"/>
     <path d="M 25.875 7.90625 
L 25.875 -20.796875 
L 8.40625 -20.796875 
L 8.40625 54.6875 
L 25.875 54.6875 
L 25.875 46.6875 
Q 29.5 51.46875 33.890625 53.734375 
Q 38.28125 56 44 56 
Q 54.109375 56 60.59375 47.96875 
Q 67.09375 39.9375 67.09375 27.296875 
Q 67.09375 14.65625 60.59375 6.609375 
Q 54.109375 -1.421875 44 -1.421875 
Q 38.28125 -1.421875 33.890625 0.84375 
Q 29.5 3.125 25.875 7.90625 
z
M 37.5 43.3125 
Q 31.890625 43.3125 28.875 39.1875 
Q 25.875 35.0625 25.875 27.296875 
Q 25.875 19.53125 28.875 15.40625 
Q 31.890625 11.28125 37.5 11.28125 
Q 43.109375 11.28125 46.0625 15.375 
Q 49.03125 19.484375 49.03125 27.296875 
Q 49.03125 35.109375 46.0625 39.203125 
Q 43.109375 43.3125 37.5 43.3125 
z
" id="DejaVuSans-Bold-112"/>
     <path d="M 1.21875 54.6875 
L 18.703125 54.6875 
L 33.40625 17.578125 
L 45.90625 54.6875 
L 63.375 54.6875 
L 40.375 -5.171875 
Q 36.921875 -14.3125 32.296875 -17.9375 
Q 27.6875 -21.578125 20.125 -21.578125 
L 10.015625 -21.578125 
L 10.015625 -10.109375 
L 15.484375 -10.109375 
Q 19.921875 -10.109375 21.9375 -8.6875 
Q 23.96875 -7.28125 25.09375 -3.609375 
L 25.59375 -2.09375 
z
" id="DejaVuSans-Bold-121"/>
     <path id="DejaVuSans-Bold-32"/>
     <path d="M 32.90625 24.609375 
Q 27.4375 24.609375 24.671875 22.75 
Q 21.921875 20.90625 21.921875 17.28125 
Q 21.921875 13.96875 24.140625 12.078125 
Q 26.375 10.203125 30.328125 10.203125 
Q 35.25 10.203125 38.625 13.734375 
Q 42 17.28125 42 22.609375 
L 42 24.609375 
z
M 59.625 31.203125 
L 59.625 0 
L 42 0 
L 42 8.109375 
Q 38.484375 3.125 34.078125 0.84375 
Q 29.6875 -1.421875 23.390625 -1.421875 
Q 14.890625 -1.421875 9.59375 3.53125 
Q 4.296875 8.5 4.296875 16.40625 
Q 4.296875 26.03125 10.90625 30.515625 
Q 17.53125 35.015625 31.6875 35.015625 
L 42 35.015625 
L 42 36.375 
Q 42 40.53125 38.71875 42.453125 
Q 35.453125 44.390625 28.515625 44.390625 
Q 22.90625 44.390625 18.0625 43.265625 
Q 13.234375 42.140625 9.078125 39.890625 
L 9.078125 53.21875 
Q 14.703125 54.59375 20.359375 55.296875 
Q 26.03125 56 31.6875 56 
Q 46.484375 56 53.046875 50.171875 
Q 59.625 44.34375 59.625 31.203125 
z
" id="DejaVuSans-Bold-97"/>
     <path d="M 45.609375 46.6875 
L 45.609375 75.984375 
L 63.1875 75.984375 
L 63.1875 0 
L 45.609375 0 
L 45.609375 7.90625 
Q 42 3.078125 37.640625 0.828125 
Q 33.296875 -1.421875 27.59375 -1.421875 
Q 17.484375 -1.421875 10.984375 6.609375 
Q 4.5 14.65625 4.5 27.296875 
Q 4.5 39.9375 10.984375 47.96875 
Q 17.484375 56 27.59375 56 
Q 33.25 56 37.625 53.734375 
Q 42 51.46875 45.609375 46.6875 
z
M 34.078125 11.28125 
Q 39.703125 11.28125 42.65625 15.375 
Q 45.609375 19.484375 45.609375 27.296875 
Q 45.609375 35.109375 42.65625 39.203125 
Q 39.703125 43.3125 34.078125 43.3125 
Q 28.515625 43.3125 25.5625 39.203125 
Q 22.609375 35.109375 22.609375 27.296875 
Q 22.609375 19.484375 25.5625 15.375 
Q 28.515625 11.28125 34.078125 11.28125 
z
" id="DejaVuSans-Bold-100"/>
     <path d="M 9.1875 72.90625 
L 27.984375 72.90625 
L 27.984375 14.203125 
L 60.984375 14.203125 
L 60.984375 0 
L 9.1875 0 
z
" id="DejaVuSans-Bold-76"/>
     <path d="M 51.125 52.984375 
L 51.125 39.703125 
Q 45.515625 42.046875 40.28125 43.21875 
Q 35.0625 44.390625 30.421875 44.390625 
Q 25.4375 44.390625 23.015625 43.140625 
Q 20.609375 41.890625 20.609375 39.3125 
Q 20.609375 37.203125 22.4375 36.078125 
Q 24.265625 34.96875 29 34.421875 
L 32.078125 33.984375 
Q 45.515625 32.28125 50.140625 28.375 
Q 54.78125 24.46875 54.78125 16.109375 
Q 54.78125 7.375 48.328125 2.96875 
Q 41.890625 -1.421875 29.109375 -1.421875 
Q 23.6875 -1.421875 17.890625 -0.5625 
Q 12.109375 0.296875 6 2 
L 6 15.28125 
Q 11.234375 12.75 16.71875 11.46875 
Q 22.21875 10.203125 27.875 10.203125 
Q 33.015625 10.203125 35.59375 11.609375 
Q 38.1875 13.03125 38.1875 15.828125 
Q 38.1875 18.171875 36.40625 19.3125 
Q 34.625 20.453125 29.296875 21.09375 
L 26.21875 21.484375 
Q 14.546875 22.953125 9.859375 26.90625 
Q 5.171875 30.859375 5.171875 38.921875 
Q 5.171875 47.609375 11.125 51.796875 
Q 17.09375 56 29.390625 56 
Q 34.234375 56 39.546875 55.265625 
Q 44.875 54.546875 51.125 52.984375 
z
" id="DejaVuSans-Bold-115"/>
     <path d="M 10.203125 18.890625 
L 27.78125 18.890625 
L 27.78125 0 
L 10.203125 0 
z
" id="DejaVuSans-Bold-46"/>
    </defs>
    <g transform="translate(161.657813 16.318125)scale(0.12 -0.12)">
     <use xlink:href="#DejaVuSans-Bold-69"/>
     <use x="68.310547" xlink:href="#DejaVuSans-Bold-110"/>
     <use x="139.501953" xlink:href="#DejaVuSans-Bold-116"/>
     <use x="187.304688" xlink:href="#DejaVuSans-Bold-114"/>
     <use x="236.621094" xlink:href="#DejaVuSans-Bold-111"/>
     <use x="305.322266" xlink:href="#DejaVuSans-Bold-112"/>
     <use x="376.904297" xlink:href="#DejaVuSans-Bold-121"/>
     <use x="442.089844" xlink:href="#DejaVuSans-Bold-32"/>
     <use x="476.904297" xlink:href="#DejaVuSans-Bold-97"/>
     <use x="544.384766" xlink:href="#DejaVuSans-Bold-110"/>
     <use x="615.576172" xlink:href="#DejaVuSans-Bold-100"/>
     <use x="687.158203" xlink:href="#DejaVuSans-Bold-32"/>
     <use x="721.972656" xlink:href="#DejaVuSans-Bold-76"/>
     <use x="785.693359" xlink:href="#DejaVuSans-Bold-111"/>
     <use x="854.394531" xlink:href="#DejaVuSans-Bold-115"/>
     <use x="913.916016" xlink:href="#DejaVuSans-Bold-115"/>
     <use x="973.4375" xlink:href="#DejaVuSans-Bold-46"/>
    </g>
   </g>
   <g id="legend_1">
    <g id="patch_7">
     <path d="M 18.982656 353.02505 
L 429.699844 353.02505 
Q 431.699844 353.02505 431.699844 351.02505 
L 431.699844 337.346925 
Q 431.699844 335.346925 429.699844 335.346925 
L 18.982656 335.346925 
Q 16.982656 335.346925 16.982656 337.346925 
L 16.982656 351.02505 
Q 16.982656 353.02505 18.982656 353.02505 
z
" style="fill:#4c4c4c;opacity:0.5;stroke:#4c4c4c;stroke-linejoin:miter;"/>
    </g>
    <g id="patch_8">
     <path d="M 16.982656 351.02505 
L 427.699844 351.02505 
Q 429.699844 351.02505 429.699844 349.02505 
L 429.699844 335.346925 
Q 429.699844 333.346925 427.699844 333.346925 
L 16.982656 333.346925 
Q 14.982656 333.346925 14.982656 335.346925 
L 14.982656 349.02505 
Q 14.982656 351.02505 16.982656 351.02505 
z
" style="fill:#ffffff;stroke:#cccccc;stroke-linejoin:miter;"/>
    </g>
    <g id="line2d_20">
     <path d="M 18.982656 341.445362 
L 38.982656 341.445362 
" style="fill:none;stroke:#1f77b4;stroke-linecap:square;stroke-width:1.5;"/>
    </g>
    <g id="line2d_21"/>
    <g id="text_18">
     <!-- Policy Loss (Normalized) -->
     <defs>
      <path d="M 19.671875 64.796875 
L 19.671875 37.40625 
L 32.078125 37.40625 
Q 38.96875 37.40625 42.71875 40.96875 
Q 46.484375 44.53125 46.484375 51.125 
Q 46.484375 57.671875 42.71875 61.234375 
Q 38.96875 64.796875 32.078125 64.796875 
z
M 9.8125 72.90625 
L 32.078125 72.90625 
Q 44.34375 72.90625 50.609375 67.359375 
Q 56.890625 61.8125 56.890625 51.125 
Q 56.890625 40.328125 50.609375 34.8125 
Q 44.34375 29.296875 32.078125 29.296875 
L 19.671875 29.296875 
L 19.671875 0 
L 9.8125 0 
z
" id="DejaVuSans-80"/>
      <path d="M 9.421875 75.984375 
L 18.40625 75.984375 
L 18.40625 0 
L 9.421875 0 
z
" id="DejaVuSans-108"/>
      <path d="M 9.421875 54.6875 
L 18.40625 54.6875 
L 18.40625 0 
L 9.421875 0 
z
M 9.421875 75.984375 
L 18.40625 75.984375 
L 18.40625 64.59375 
L 9.421875 64.59375 
z
" id="DejaVuSans-105"/>
      <path d="M 32.171875 -5.078125 
Q 28.375 -14.84375 24.75 -17.8125 
Q 21.140625 -20.796875 15.09375 -20.796875 
L 7.90625 -20.796875 
L 7.90625 -13.28125 
L 13.1875 -13.28125 
Q 16.890625 -13.28125 18.9375 -11.515625 
Q 21 -9.765625 23.484375 -3.21875 
L 25.09375 0.875 
L 2.984375 54.6875 
L 12.5 54.6875 
L 29.59375 11.921875 
L 46.6875 54.6875 
L 56.203125 54.6875 
z
" id="DejaVuSans-121"/>
      <path id="DejaVuSans-32"/>
      <path d="M 31 75.875 
Q 24.46875 64.65625 21.28125 53.65625 
Q 18.109375 42.671875 18.109375 31.390625 
Q 18.109375 20.125 21.3125 9.0625 
Q 24.515625 -2 31 -13.1875 
L 23.1875 -13.1875 
Q 15.875 -1.703125 12.234375 9.375 
Q 8.59375 20.453125 8.59375 31.390625 
Q 8.59375 42.28125 12.203125 53.3125 
Q 15.828125 64.359375 23.1875 75.875 
z
" id="DejaVuSans-40"/>
      <path d="M 9.8125 72.90625 
L 23.09375 72.90625 
L 55.421875 11.921875 
L 55.421875 72.90625 
L 64.984375 72.90625 
L 64.984375 0 
L 51.703125 0 
L 19.390625 60.984375 
L 19.390625 0 
L 9.8125 0 
z
" id="DejaVuSans-78"/>
      <path d="M 41.109375 46.296875 
Q 39.59375 47.171875 37.8125 47.578125 
Q 36.03125 48 33.890625 48 
Q 26.265625 48 22.1875 43.046875 
Q 18.109375 38.09375 18.109375 28.8125 
L 18.109375 0 
L 9.078125 0 
L 9.078125 54.6875 
L 18.109375 54.6875 
L 18.109375 46.1875 
Q 20.953125 51.171875 25.484375 53.578125 
Q 30.03125 56 36.53125 56 
Q 37.453125 56 38.578125 55.875 
Q 39.703125 55.765625 41.0625 55.515625 
z
" id="DejaVuSans-114"/>
      <path d="M 52 44.1875 
Q 55.375 50.25 60.0625 53.125 
Q 64.75 56 71.09375 56 
Q 79.640625 56 84.28125 50.015625 
Q 88.921875 44.046875 88.921875 33.015625 
L 88.921875 0 
L 79.890625 0 
L 79.890625 32.71875 
Q 79.890625 40.578125 77.09375 44.375 
Q 74.3125 48.1875 68.609375 48.1875 
Q 61.625 48.1875 57.5625 43.546875 
Q 53.515625 38.921875 53.515625 30.90625 
L 53.515625 0 
L 44.484375 0 
L 44.484375 32.71875 
Q 44.484375 40.625 41.703125 44.40625 
Q 38.921875 48.1875 33.109375 48.1875 
Q 26.21875 48.1875 22.15625 43.53125 
Q 18.109375 38.875 18.109375 30.90625 
L 18.109375 0 
L 9.078125 0 
L 9.078125 54.6875 
L 18.109375 54.6875 
L 18.109375 46.1875 
Q 21.1875 51.21875 25.484375 53.609375 
Q 29.78125 56 35.6875 56 
Q 41.65625 56 45.828125 52.96875 
Q 50 49.953125 52 44.1875 
z
" id="DejaVuSans-109"/>
      <path d="M 34.28125 27.484375 
Q 23.390625 27.484375 19.1875 25 
Q 14.984375 22.515625 14.984375 16.5 
Q 14.984375 11.71875 18.140625 8.90625 
Q 21.296875 6.109375 26.703125 6.109375 
Q 34.1875 6.109375 38.703125 11.40625 
Q 43.21875 16.703125 43.21875 25.484375 
L 43.21875 27.484375 
z
M 52.203125 31.203125 
L 52.203125 0 
L 43.21875 0 
L 43.21875 8.296875 
Q 40.140625 3.328125 35.546875 0.953125 
Q 30.953125 -1.421875 24.3125 -1.421875 
Q 15.921875 -1.421875 10.953125 3.296875 
Q 6 8.015625 6 15.921875 
Q 6 25.140625 12.171875 29.828125 
Q 18.359375 34.515625 30.609375 34.515625 
L 43.21875 34.515625 
L 43.21875 35.40625 
Q 43.21875 41.609375 39.140625 45 
Q 35.0625 48.390625 27.6875 48.390625 
Q 23 48.390625 18.546875 47.265625 
Q 14.109375 46.140625 10.015625 43.890625 
L 10.015625 52.203125 
Q 14.9375 54.109375 19.578125 55.046875 
Q 24.21875 56 28.609375 56 
Q 40.484375 56 46.34375 49.84375 
Q 52.203125 43.703125 52.203125 31.203125 
z
" id="DejaVuSans-97"/>
      <path d="M 5.515625 54.6875 
L 48.1875 54.6875 
L 48.1875 46.484375 
L 14.40625 7.171875 
L 48.1875 7.171875 
L 48.1875 0 
L 4.296875 0 
L 4.296875 8.203125 
L 38.09375 47.515625 
L 5.515625 47.515625 
z
" id="DejaVuSans-122"/>
      <path d="M 56.203125 29.59375 
L 56.203125 25.203125 
L 14.890625 25.203125 
Q 15.484375 15.921875 20.484375 11.0625 
Q 25.484375 6.203125 34.421875 6.203125 
Q 39.59375 6.203125 44.453125 7.46875 
Q 49.3125 8.734375 54.109375 11.28125 
L 54.109375 2.78125 
Q 49.265625 0.734375 44.1875 -0.34375 
Q 39.109375 -1.421875 33.890625 -1.421875 
Q 20.796875 -1.421875 13.15625 6.1875 
Q 5.515625 13.8125 5.515625 26.8125 
Q 5.515625 40.234375 12.765625 48.109375 
Q 20.015625 56 32.328125 56 
Q 43.359375 56 49.78125 48.890625 
Q 56.203125 41.796875 56.203125 29.59375 
z
M 47.21875 32.234375 
Q 47.125 39.59375 43.09375 43.984375 
Q 39.0625 48.390625 32.421875 48.390625 
Q 24.90625 48.390625 20.390625 44.140625 
Q 15.875 39.890625 15.1875 32.171875 
z
" id="DejaVuSans-101"/>
      <path d="M 45.40625 46.390625 
L 45.40625 75.984375 
L 54.390625 75.984375 
L 54.390625 0 
L 45.40625 0 
L 45.40625 8.203125 
Q 42.578125 3.328125 38.25 0.953125 
Q 33.9375 -1.421875 27.875 -1.421875 
Q 17.96875 -1.421875 11.734375 6.484375 
Q 5.515625 14.40625 5.515625 27.296875 
Q 5.515625 40.1875 11.734375 48.09375 
Q 17.96875 56 27.875 56 
Q 33.9375 56 38.25 53.625 
Q 42.578125 51.265625 45.40625 46.390625 
z
M 14.796875 27.296875 
Q 14.796875 17.390625 18.875 11.75 
Q 22.953125 6.109375 30.078125 6.109375 
Q 37.203125 6.109375 41.296875 11.75 
Q 45.40625 17.390625 45.40625 27.296875 
Q 45.40625 37.203125 41.296875 42.84375 
Q 37.203125 48.484375 30.078125 48.484375 
Q 22.953125 48.484375 18.875 42.84375 
Q 14.796875 37.203125 14.796875 27.296875 
z
" id="DejaVuSans-100"/>
      <path d="M 8.015625 75.875 
L 15.828125 75.875 
Q 23.140625 64.359375 26.78125 53.3125 
Q 30.421875 42.28125 30.421875 31.390625 
Q 30.421875 20.453125 26.78125 9.375 
Q 23.140625 -1.703125 15.828125 -13.1875 
L 8.015625 -13.1875 
Q 14.5 -2 17.703125 9.0625 
Q 20.90625 20.125 20.90625 31.390625 
Q 20.90625 42.671875 17.703125 53.65625 
Q 14.5 64.65625 8.015625 75.875 
z
" id="DejaVuSans-41"/>
     </defs>
     <g transform="translate(46.982656 344.945362)scale(0.1 -0.1)">
      <use xlink:href="#DejaVuSans-80"/>
      <use x="60.255859" xlink:href="#DejaVuSans-111"/>
      <use x="121.4375" xlink:href="#DejaVuSans-108"/>
      <use x="149.220703" xlink:href="#DejaVuSans-105"/>
      <use x="177.003906" xlink:href="#DejaVuSans-99"/>
      <use x="231.984375" xlink:href="#DejaVuSans-121"/>
      <use x="291.164062" xlink:href="#DejaVuSans-32"/>
      <use x="322.951172" xlink:href="#DejaVuSans-76"/>
      <use x="378.648438" xlink:href="#DejaVuSans-111"/>
      <use x="439.830078" xlink:href="#DejaVuSans-115"/>
      <use x="491.929688" xlink:href="#DejaVuSans-115"/>
      <use x="544.029297" xlink:href="#DejaVuSans-32"/>
      <use x="575.816406" xlink:href="#DejaVuSans-40"/>
      <use x="614.830078" xlink:href="#DejaVuSans-78"/>
      <use x="689.634766" xlink:href="#DejaVuSans-111"/>
      <use x="750.816406" xlink:href="#DejaVuSans-114"/>
      <use x="791.914062" xlink:href="#DejaVuSans-109"/>
      <use x="889.326172" xlink:href="#DejaVuSans-97"/>
      <use x="950.605469" xlink:href="#DejaVuSans-108"/>
      <use x="978.388672" xlink:href="#DejaVuSans-105"/>
      <use x="1006.171875" xlink:href="#DejaVuSans-122"/>
      <use x="1058.662109" xlink:href="#DejaVuSans-101"/>
      <use x="1120.185547" xlink:href="#DejaVuSans-100"/>
      <use x="1183.662109" xlink:href="#DejaVuSans-41"/>
     </g>
    </g>
    <g id="line2d_22">
     <path d="M 189.251406 341.445362 
L 209.251406 341.445362 
" style="fill:none;stroke:#ff7f0e;stroke-linecap:square;stroke-width:1.5;"/>
    </g>
    <g id="line2d_23"/>
    <g id="text_19">
     <!-- Value Loss (Normalized) -->
     <defs>
      <path d="M 28.609375 0 
L 0.78125 72.90625 
L 11.078125 72.90625 
L 34.1875 11.53125 
L 57.328125 72.90625 
L 67.578125 72.90625 
L 39.796875 0 
z
" id="DejaVuSans-86"/>
      <path d="M 8.5 21.578125 
L 8.5 54.6875 
L 17.484375 54.6875 
L 17.484375 21.921875 
Q 17.484375 14.15625 20.5 10.265625 
Q 23.53125 6.390625 29.59375 6.390625 
Q 36.859375 6.390625 41.078125 11.03125 
Q 45.3125 15.671875 45.3125 23.6875 
L 45.3125 54.6875 
L 54.296875 54.6875 
L 54.296875 0 
L 45.3125 0 
L 45.3125 8.40625 
Q 42.046875 3.421875 37.71875 1 
Q 33.40625 -1.421875 27.6875 -1.421875 
Q 18.265625 -1.421875 13.375 4.4375 
Q 8.5 10.296875 8.5 21.578125 
z
M 31.109375 56 
z
" id="DejaVuSans-117"/>
     </defs>
     <g transform="translate(217.251406 344.945362)scale(0.1 -0.1)">
      <use xlink:href="#DejaVuSans-86"/>
      <use x="68.298828" xlink:href="#DejaVuSans-97"/>
      <use x="129.578125" xlink:href="#DejaVuSans-108"/>
      <use x="157.361328" xlink:href="#DejaVuSans-117"/>
      <use x="220.740234" xlink:href="#DejaVuSans-101"/>
      <use x="282.263672" xlink:href="#DejaVuSans-32"/>
      <use x="314.050781" xlink:href="#DejaVuSans-76"/>
      <use x="369.748047" xlink:href="#DejaVuSans-111"/>
      <use x="430.929688" xlink:href="#DejaVuSans-115"/>
      <use x="483.029297" xlink:href="#DejaVuSans-115"/>
      <use x="535.128906" xlink:href="#DejaVuSans-32"/>
      <use x="566.916016" xlink:href="#DejaVuSans-40"/>
      <use x="605.929688" xlink:href="#DejaVuSans-78"/>
      <use x="680.734375" xlink:href="#DejaVuSans-111"/>
      <use x="741.916016" xlink:href="#DejaVuSans-114"/>
      <use x="783.013672" xlink:href="#DejaVuSans-109"/>
      <use x="880.425781" xlink:href="#DejaVuSans-97"/>
      <use x="941.705078" xlink:href="#DejaVuSans-108"/>
      <use x="969.488281" xlink:href="#DejaVuSans-105"/>
      <use x="997.271484" xlink:href="#DejaVuSans-122"/>
      <use x="1049.761719" xlink:href="#DejaVuSans-101"/>
      <use x="1111.285156" xlink:href="#DejaVuSans-100"/>
      <use x="1174.761719" xlink:href="#DejaVuSans-41"/>
     </g>
    </g>
    <g id="line2d_24">
     <path d="M 358.629531 341.445362 
L 378.629531 341.445362 
" style="fill:none;stroke:#008000;stroke-linecap:square;stroke-width:1.5;"/>
    </g>
    <g id="line2d_25"/>
    <g id="text_20">
     <!-- Entropy -->
     <defs>
      <path d="M 54.890625 33.015625 
L 54.890625 0 
L 45.90625 0 
L 45.90625 32.71875 
Q 45.90625 40.484375 42.875 44.328125 
Q 39.84375 48.1875 33.796875 48.1875 
Q 26.515625 48.1875 22.3125 43.546875 
Q 18.109375 38.921875 18.109375 30.90625 
L 18.109375 0 
L 9.078125 0 
L 9.078125 54.6875 
L 18.109375 54.6875 
L 18.109375 46.1875 
Q 21.34375 51.125 25.703125 53.5625 
Q 30.078125 56 35.796875 56 
Q 45.21875 56 50.046875 50.171875 
Q 54.890625 44.34375 54.890625 33.015625 
z
" id="DejaVuSans-110"/>
      <path d="M 18.3125 70.21875 
L 18.3125 54.6875 
L 36.8125 54.6875 
L 36.8125 47.703125 
L 18.3125 47.703125 
L 18.3125 18.015625 
Q 18.3125 11.328125 20.140625 9.421875 
Q 21.96875 7.515625 27.59375 7.515625 
L 36.8125 7.515625 
L 36.8125 0 
L 27.59375 0 
Q 17.1875 0 13.234375 3.875 
Q 9.28125 7.765625 9.28125 18.015625 
L 9.28125 47.703125 
L 2.6875 47.703125 
L 2.6875 54.6875 
L 9.28125 54.6875 
L 9.28125 70.21875 
z
" id="DejaVuSans-116"/>
     </defs>
     <g transform="translate(386.629531 344.945362)scale(0.1 -0.1)">
      <use xlink:href="#DejaVuSans-69"/>
      <use x="63.183594" xlink:href="#DejaVuSans-110"/>
      <use x="126.5625" xlink:href="#DejaVuSans-116"/>
      <use x="165.771484" xlink:href="#DejaVuSans-114"/>
      <use x="206.853516" xlink:href="#DejaVuSans-111"/>
      <use x="268.035156" xlink:href="#DejaVuSans-112"/>
      <use x="331.511719" xlink:href="#DejaVuSans-121"/>
     </g>
    </g>
   </g>
  </g>
  <g id="axes_2">
   <g id="matplotlib.axis_3">
    <g id="ytick_7">
     <g id="line2d_26">
      <defs>
       <path d="M 0 0 
L 3.5 0 
" id="mc8599c375b" style="stroke:#000000;stroke-width:0.8;"/>
      </defs>
      <g>
       <use style="stroke:#000000;stroke-width:0.8;" x="400.90125" xlink:href="#mc8599c375b" y="271.070676"/>
      </g>
     </g>
     <g id="text_21">
      <!-- 0.40 -->
      <g transform="translate(407.90125 274.869895)scale(0.1 -0.1)">
       <use xlink:href="#DejaVuSans-48"/>
       <use x="63.623047" xlink:href="#DejaVuSans-46"/>
       <use x="95.410156" xlink:href="#DejaVuSans-52"/>
       <use x="159.033203" xlink:href="#DejaVuSans-48"/>
      </g>
     </g>
    </g>
    <g id="ytick_8">
     <g id="line2d_27">
      <g>
       <use style="stroke:#000000;stroke-width:0.8;" x="400.90125" xlink:href="#mc8599c375b" y="227.32728"/>
      </g>
     </g>
     <g id="text_22">
      <!-- 0.45 -->
      <g transform="translate(407.90125 231.126499)scale(0.1 -0.1)">
       <use xlink:href="#DejaVuSans-48"/>
       <use x="63.623047" xlink:href="#DejaVuSans-46"/>
       <use x="95.410156" xlink:href="#DejaVuSans-52"/>
       <use x="159.033203" xlink:href="#DejaVuSans-53"/>
      </g>
     </g>
    </g>
    <g id="ytick_9">
     <g id="line2d_28">
      <g>
       <use style="stroke:#000000;stroke-width:0.8;" x="400.90125" xlink:href="#mc8599c375b" y="183.583885"/>
      </g>
     </g>
     <g id="text_23">
      <!-- 0.50 -->
      <g transform="translate(407.90125 187.383103)scale(0.1 -0.1)">
       <use xlink:href="#DejaVuSans-48"/>
       <use x="63.623047" xlink:href="#DejaVuSans-46"/>
       <use x="95.410156" xlink:href="#DejaVuSans-53"/>
       <use x="159.033203" xlink:href="#DejaVuSans-48"/>
      </g>
     </g>
    </g>
    <g id="ytick_10">
     <g id="line2d_29">
      <g>
       <use style="stroke:#000000;stroke-width:0.8;" x="400.90125" xlink:href="#mc8599c375b" y="139.840489"/>
      </g>
     </g>
     <g id="text_24">
      <!-- 0.55 -->
      <g transform="translate(407.90125 143.639708)scale(0.1 -0.1)">
       <use xlink:href="#DejaVuSans-48"/>
       <use x="63.623047" xlink:href="#DejaVuSans-46"/>
       <use x="95.410156" xlink:href="#DejaVuSans-53"/>
       <use x="159.033203" xlink:href="#DejaVuSans-53"/>
      </g>
     </g>
    </g>
    <g id="ytick_11">
     <g id="line2d_30">
      <g>
       <use style="stroke:#000000;stroke-width:0.8;" x="400.90125" xlink:href="#mc8599c375b" y="96.097093"/>
      </g>
     </g>
     <g id="text_25">
      <!-- 0.60 -->
      <g transform="translate(407.90125 99.896312)scale(0.1 -0.1)">
       <use xlink:href="#DejaVuSans-48"/>
       <use x="63.623047" xlink:href="#DejaVuSans-46"/>
       <use x="95.410156" xlink:href="#DejaVuSans-54"/>
       <use x="159.033203" xlink:href="#DejaVuSans-48"/>
      </g>
     </g>
    </g>
    <g id="ytick_12">
     <g id="line2d_31">
      <g>
       <use style="stroke:#000000;stroke-width:0.8;" x="400.90125" xlink:href="#mc8599c375b" y="52.353698"/>
      </g>
     </g>
     <g id="text_26">
      <!-- 0.65 -->
      <g transform="translate(407.90125 56.152916)scale(0.1 -0.1)">
       <use xlink:href="#DejaVuSans-48"/>
       <use x="63.623047" xlink:href="#DejaVuSans-46"/>
       <use x="95.410156" xlink:href="#DejaVuSans-54"/>
       <use x="159.033203" xlink:href="#DejaVuSans-53"/>
      </g>
     </g>
    </g>
    <g id="text_27">
     <!-- Entropy -->
     <g transform="translate(441.765312 174.909281)rotate(-90)scale(0.1 -0.1)">
      <use xlink:href="#DejaVuSans-69"/>
      <use x="63.183594" xlink:href="#DejaVuSans-110"/>
      <use x="126.5625" xlink:href="#DejaVuSans-116"/>
      <use x="165.771484" xlink:href="#DejaVuSans-114"/>
      <use x="206.853516" xlink:href="#DejaVuSans-111"/>
      <use x="268.035156" xlink:href="#DejaVuSans-112"/>
      <use x="331.511719" xlink:href="#DejaVuSans-121"/>
     </g>
    </g>
   </g>
   <g id="line2d_32">
    <path clip-path="url(#pca39435b71)" d="M 60.013977 34.414125 
L 60.903442 40.008212 
L 61.792906 47.293661 
L 62.682371 36.653856 
L 64.4613 47.149164 
L 65.350764 58.287121 
L 67.129693 67.638654 
L 68.019158 80.609236 
L 69.798087 88.48717 
L 70.687551 74.684178 
L 71.577016 78.038794 
L 72.46648 82.103225 
L 73.355945 73.776521 
L 75.134874 85.722379 
L 76.024338 83.662448 
L 76.913803 86.870378 
L 77.803267 89.5594 
L 78.692732 78.905203 
L 79.582196 81.490455 
L 80.471661 84.78526 
L 81.361125 89.408385 
L 83.140054 96.031055 
L 84.918983 110.111361 
L 85.808448 115.627333 
L 86.697913 110.292934 
L 88.476842 118.097394 
L 89.366306 119.342176 
L 90.255771 126.388482 
L 91.145235 126.318293 
L 92.924164 118.422943 
L 93.813629 116.111511 
L 94.703093 81.663267 
L 95.592558 85.063981 
L 96.482022 90.584855 
L 97.371487 104.89377 
L 98.260951 105.402143 
L 99.150416 105.67153 
L 100.03988 117.750153 
L 101.818809 113.051468 
L 102.708274 121.542432 
L 103.597738 122.207505 
L 104.487203 123.370417 
L 105.376667 84.148711 
L 106.266132 92.168848 
L 107.155596 97.360888 
L 108.045061 82.007067 
L 108.934525 81.675105 
L 109.82399 82.046386 
L 110.713454 161.380349 
L 112.492383 174.438016 
L 113.381848 143.599906 
L 114.271312 154.392499 
L 115.160777 170.272579 
L 116.050241 115.624152 
L 116.939706 119.001453 
L 117.82917 119.285232 
L 118.718635 152.129615 
L 119.608099 148.053034 
L 120.497564 143.217883 
L 121.387028 127.300728 
L 122.276493 126.730822 
L 123.165957 126.835792 
L 124.055422 143.439244 
L 124.944886 141.261514 
L 125.834351 138.772316 
L 126.723815 115.074636 
L 127.61328 114.845088 
L 128.502744 114.983536 
L 129.392209 128.899895 
L 130.281673 130.149109 
L 131.171138 132.144639 
L 132.060602 175.836317 
L 132.950067 174.219472 
L 133.839531 171.430328 
L 134.728996 87.739081 
L 136.507925 85.072012 
L 137.397389 149.010856 
L 138.286854 146.077685 
L 139.176318 142.57685 
L 140.065783 107.152899 
L 140.955248 104.916245 
L 141.844712 103.053583 
L 142.734177 126.417997 
L 143.623641 126.695936 
L 144.513106 127.182669 
L 145.40257 120.242584 
L 146.292035 121.888839 
L 147.181499 124.819977 
L 148.070964 164.454576 
L 148.960428 166.541571 
L 149.849893 167.498975 
L 150.739357 115.489302 
L 151.628822 115.134865 
L 152.518286 114.905056 
L 153.407751 144.144625 
L 154.297215 144.473355 
L 155.18668 146.183906 
L 156.076144 139.180777 
L 156.965609 140.997968 
L 157.855073 140.718047 
L 158.744538 143.828776 
L 159.634002 149.958873 
L 160.523467 157.482734 
L 161.412931 147.036027 
L 162.302396 146.604883 
L 163.19186 147.563173 
L 164.081325 91.00969 
L 165.860254 92.847739 
L 166.749718 127.590869 
L 167.639183 134.220788 
L 168.528647 143.895627 
L 169.418112 115.784711 
L 170.307576 116.047267 
L 171.197041 116.543229 
L 172.086505 137.832381 
L 172.97597 143.287603 
L 173.865434 147.433068 
L 174.754899 128.853485 
L 175.644363 128.842169 
L 176.533828 130.42272 
L 177.423292 117.139625 
L 178.312757 124.453754 
L 179.202221 136.030104 
L 180.091686 116.17346 
L 180.98115 121.857187 
L 181.870615 130.650807 
L 182.760079 137.723708 
L 183.649544 138.873219 
L 184.539008 139.032682 
L 185.428473 125.041077 
L 187.207402 122.018214 
L 188.096866 116.846459 
L 188.986331 115.911478 
L 189.875795 120.747985 
L 190.76526 119.006824 
L 192.544189 118.31938 
L 193.433653 122.98709 
L 195.212583 127.248216 
L 196.102047 152.96265 
L 196.991512 157.36405 
L 197.880976 162.385676 
L 198.770441 152.030485 
L 199.659905 150.254125 
L 200.54937 145.734667 
L 201.438834 113.421497 
L 202.328299 115.306217 
L 203.217763 118.739366 
L 204.107228 165.631411 
L 204.996692 165.040908 
L 205.886157 162.940146 
L 206.775621 92.84388 
L 207.665086 92.876524 
L 208.55455 93.216621 
L 209.444015 161.997969 
L 210.333479 162.966845 
L 211.222944 164.531857 
L 212.112408 174.34723 
L 213.001873 171.73554 
L 213.891337 172.173464 
L 214.780802 160.487398 
L 215.670266 162.925806 
L 216.559731 164.973483 
L 217.449195 156.918043 
L 218.33866 156.032445 
L 219.228124 154.620482 
L 220.117589 145.939549 
L 221.896518 143.852137 
L 222.785982 137.756404 
L 223.675447 138.790724 
L 224.564911 140.287528 
L 225.454376 153.807992 
L 226.34384 154.720238 
L 227.233305 155.458002 
L 228.122769 172.277339 
L 229.012234 173.290957 
L 229.901698 173.847044 
L 230.791163 176.236382 
L 231.680627 176.562713 
L 232.570092 176.112378 
L 233.459556 191.523403 
L 235.238485 193.926143 
L 236.12795 150.260435 
L 237.017414 150.925507 
L 237.906879 152.084717 
L 238.796343 143.066503 
L 239.685808 148.527773 
L 240.575272 149.942656 
L 241.464737 152.832806 
L 242.354201 149.612623 
L 243.243666 150.175802 
L 244.13313 148.874598 
L 245.022595 159.356191 
L 245.912059 162.548268 
L 246.801524 161.222503 
L 247.690988 162.319659 
L 248.580453 163.10983 
L 249.469917 143.645534 
L 250.359382 143.450403 
L 251.248847 142.524339 
L 252.138311 147.621264 
L 253.91724 140.722323 
L 254.806705 134.194871 
L 255.696169 134.849827 
L 256.585634 135.751487 
L 257.475098 161.669135 
L 258.364563 161.72733 
L 259.254027 161.253321 
L 260.143492 172.300283 
L 261.032956 175.609324 
L 261.922421 179.878794 
L 262.811885 189.662358 
L 264.590814 193.964106 
L 265.480279 157.273941 
L 266.369743 155.165253 
L 267.259208 152.306234 
L 268.148672 181.843453 
L 269.038137 182.446576 
L 269.927601 183.448253 
L 270.817066 178.826275 
L 271.70653 179.665098 
L 272.595995 180.869832 
L 273.485459 138.592568 
L 275.264388 136.386054 
L 276.153853 162.651726 
L 277.043317 163.493365 
L 277.932782 165.806205 
L 278.822246 126.521768 
L 279.711711 125.467111 
L 280.601175 123.365515 
L 281.49064 129.524345 
L 282.380104 129.575344 
L 283.269569 129.076045 
L 284.159033 136.531646 
L 285.937962 140.667987 
L 286.827427 168.084316 
L 287.716891 170.173188 
L 288.606356 171.583377 
L 289.49582 139.87599 
L 290.385285 145.012755 
L 291.274749 146.077267 
L 292.164214 160.346655 
L 293.053678 157.906474 
L 293.943143 156.688131 
L 294.832607 146.21363 
L 296.611536 146.647538 
L 297.501001 130.888959 
L 298.390465 131.000969 
L 299.27993 131.368861 
L 300.169394 189.754761 
L 301.058859 185.533631 
L 301.948323 178.89224 
L 302.837788 167.612289 
L 303.727252 163.438455 
L 304.616717 161.834856 
L 305.506182 124.776383 
L 306.395646 121.467655 
L 307.285111 117.519771 
L 308.174575 140.598632 
L 309.06404 135.292131 
L 309.953504 132.353693 
L 310.842969 150.557355 
L 311.732433 148.39162 
L 312.621898 144.255853 
L 313.511362 126.272718 
L 314.400827 145.286679 
L 315.290291 143.600845 
L 316.179756 127.504098 
L 317.06922 132.179629 
L 317.958685 140.784481 
L 318.848149 147.492619 
L 319.737614 150.727925 
L 320.627078 152.231613 
L 321.516543 155.055851 
L 323.295472 171.912003 
L 324.184936 119.63044 
L 325.074401 128.311738 
L 325.963865 127.869642 
L 326.85333 154.187617 
L 327.742794 145.971619 
L 328.632259 174.291746 
L 329.521723 181.463151 
L 330.411188 161.030083 
L 331.300652 176.63092 
L 332.190117 156.50734 
L 333.079581 161.255511 
L 333.969046 164.567577 
L 334.85851 180.539694 
L 335.747975 181.283716 
L 336.637439 180.972873 
L 337.526904 171.847133 
L 338.416368 168.073104 
L 339.305833 165.020988 
L 340.195297 159.389721 
L 341.084762 158.774761 
L 341.974226 157.801452 
L 342.863691 179.564873 
L 343.753155 181.175774 
L 344.64262 183.850769 
L 345.532084 168.316784 
L 346.421549 171.866375 
L 347.311013 176.588577 
L 348.200478 167.812061 
L 349.089942 164.516421 
L 349.979407 163.88321 
L 350.868871 199.948376 
L 351.758336 195.116901 
L 352.6478 168.245187 
L 353.537265 161.505135 
L 354.426729 161.819837 
L 355.316194 160.748233 
L 356.205658 193.44559 
L 357.095123 194.553123 
L 357.984587 194.476911 
L 358.874052 169.427185 
L 359.763517 171.608773 
L 360.652981 174.427952 
L 361.542446 158.609509 
L 362.43191 167.16138 
L 363.321375 154.921731 
L 364.210839 178.567943 
L 365.100304 177.580502 
L 365.989768 171.557669 
L 366.879233 186.926403 
L 367.768697 190.653344 
L 368.658162 187.914209 
L 369.547626 166.541467 
L 370.437091 183.66213 
L 371.326555 169.099446 
L 372.21602 165.989134 
L 373.105484 164.65586 
L 373.994949 164.972283 
L 374.884413 268.806301 
L 375.773878 276.334125 
L 376.663342 274.261131 
L 377.552807 197.951047 
L 378.442271 195.855265 
L 379.331736 196.942148 
L 380.2212 164.516317 
L 381.110665 164.428555 
L 382.000129 165.022239 
L 382.889594 185.008832 
L 383.779058 183.857965 
L 384.668523 181.873698 
L 384.668523 181.873698 
" style="fill:none;stroke:#008000;stroke-linecap:square;stroke-opacity:0.3;stroke-width:1.5;"/>
   </g>
   <g id="patch_9">
    <path d="M 43.78125 288.430125 
L 43.78125 22.318125 
" style="fill:none;stroke:#000000;stroke-linecap:square;stroke-linejoin:miter;stroke-width:0.8;"/>
   </g>
   <g id="patch_10">
    <path d="M 400.90125 288.430125 
L 400.90125 22.318125 
" style="fill:none;stroke:#000000;stroke-linecap:square;stroke-linejoin:miter;stroke-width:0.8;"/>
   </g>
   <g id="patch_11">
    <path d="M 43.78125 288.430125 
L 400.90125 288.430125 
" style="fill:none;stroke:#000000;stroke-linecap:square;stroke-linejoin:miter;stroke-width:0.8;"/>
   </g>
   <g id="patch_12">
    <path d="M 43.78125 22.318125 
L 400.90125 22.318125 
" style="fill:none;stroke:#000000;stroke-linecap:square;stroke-linejoin:miter;stroke-width:0.8;"/>
   </g>
  </g>
 </g>
 <defs>
  <clipPath id="pca39435b71">
   <rect height="266.112" width="357.12" x="43.78125" y="22.318125"/>
  </clipPath>
 </defs>
</svg>
