<?xml version="1.0" encoding="utf-8" standalone="no"?>
<!DOCTYPE svg PUBLIC "-//W3C//DTD SVG 1.1//EN"
  "http://www.w3.org/Graphics/SVG/1.1/DTD/svg11.dtd">
<!-- Created with matplotlib (https://matplotlib.org/) -->
<svg height="358.22505pt" version="1.1" viewBox="0 0 451.045 358.22505" width="451.045pt" xmlns="http://www.w3.org/2000/svg" xmlns:xlink="http://www.w3.org/1999/xlink">
 <defs>
  <style type="text/css">
*{stroke-linecap:butt;stroke-linejoin:round;}
  </style>
 </defs>
 <g id="figure_1">
  <g id="patch_1">
   <path d="M 0 358.22505 
L 451.045 358.22505 
L 451.045 0 
L 0 0 
z
" style="fill:#ffffff;"/>
  </g>
  <g id="axes_1">
   <g id="patch_2">
    <path d="M 43.78125 288.430125 
L 400.90125 288.430125 
L 400.90125 22.318125 
L 43.78125 22.318125 
z
" style="fill:#ffffff;"/>
   </g>
   <g id="matplotlib.axis_1">
    <g id="xtick_1">
     <g id="line2d_1">
      <defs>
       <path d="M 0 0 
L 0 3.5 
" id="md5ba4f700a" style="stroke:#000000;stroke-width:0.8;"/>
      </defs>
      <g>
       <use style="stroke:#000000;stroke-width:0.8;" x="60.013977" xlink:href="#md5ba4f700a" y="288.430125"/>
      </g>
     </g>
     <g id="text_1">
      <!-- 0 -->
      <defs>
       <path d="M 31.78125 66.40625 
Q 24.171875 66.40625 20.328125 58.90625 
Q 16.5 51.421875 16.5 36.375 
Q 16.5 21.390625 20.328125 13.890625 
Q 24.171875 6.390625 31.78125 6.390625 
Q 39.453125 6.390625 43.28125 13.890625 
Q 47.125 21.390625 47.125 36.375 
Q 47.125 51.421875 43.28125 58.90625 
Q 39.453125 66.40625 31.78125 66.40625 
z
M 31.78125 74.21875 
Q 44.046875 74.21875 50.515625 64.515625 
Q 56.984375 54.828125 56.984375 36.375 
Q 56.984375 17.96875 50.515625 8.265625 
Q 44.046875 -1.421875 31.78125 -1.421875 
Q 19.53125 -1.421875 13.0625 8.265625 
Q 6.59375 17.96875 6.59375 36.375 
Q 6.59375 54.828125 13.0625 64.515625 
Q 19.53125 74.21875 31.78125 74.21875 
z
" id="DejaVuSans-48"/>
      </defs>
      <g transform="translate(56.832727 303.028562)scale(0.1 -0.1)">
       <use xlink:href="#DejaVuSans-48"/>
      </g>
     </g>
    </g>
    <g id="xtick_2">
     <g id="line2d_2">
      <g>
       <use style="stroke:#000000;stroke-width:0.8;" x="117.171468" xlink:href="#md5ba4f700a" y="288.430125"/>
      </g>
     </g>
     <g id="text_2">
      <!-- 50 -->
      <defs>
       <path d="M 10.796875 72.90625 
L 49.515625 72.90625 
L 49.515625 64.59375 
L 19.828125 64.59375 
L 19.828125 46.734375 
Q 21.96875 47.46875 24.109375 47.828125 
Q 26.265625 48.1875 28.421875 48.1875 
Q 40.625 48.1875 47.75 41.5 
Q 54.890625 34.8125 54.890625 23.390625 
Q 54.890625 11.625 47.5625 5.09375 
Q 40.234375 -1.421875 26.90625 -1.421875 
Q 22.3125 -1.421875 17.546875 -0.640625 
Q 12.796875 0.140625 7.71875 1.703125 
L 7.71875 11.625 
Q 12.109375 9.234375 16.796875 8.0625 
Q 21.484375 6.890625 26.703125 6.890625 
Q 35.15625 6.890625 40.078125 11.328125 
Q 45.015625 15.765625 45.015625 23.390625 
Q 45.015625 31 40.078125 35.4375 
Q 35.15625 39.890625 26.703125 39.890625 
Q 22.75 39.890625 18.8125 39.015625 
Q 14.890625 38.140625 10.796875 36.28125 
z
" id="DejaVuSans-53"/>
      </defs>
      <g transform="translate(110.808968 303.028562)scale(0.1 -0.1)">
       <use xlink:href="#DejaVuSans-53"/>
       <use x="63.623047" xlink:href="#DejaVuSans-48"/>
      </g>
     </g>
    </g>
    <g id="xtick_3">
     <g id="line2d_3">
      <g>
       <use style="stroke:#000000;stroke-width:0.8;" x="174.328958" xlink:href="#md5ba4f700a" y="288.430125"/>
      </g>
     </g>
     <g id="text_3">
      <!-- 100 -->
      <defs>
       <path d="M 12.40625 8.296875 
L 28.515625 8.296875 
L 28.515625 63.921875 
L 10.984375 60.40625 
L 10.984375 69.390625 
L 28.421875 72.90625 
L 38.28125 72.90625 
L 38.28125 8.296875 
L 54.390625 8.296875 
L 54.390625 0 
L 12.40625 0 
z
" id="DejaVuSans-49"/>
      </defs>
      <g transform="translate(164.785208 303.028562)scale(0.1 -0.1)">
       <use xlink:href="#DejaVuSans-49"/>
       <use x="63.623047" xlink:href="#DejaVuSans-48"/>
       <use x="127.246094" xlink:href="#DejaVuSans-48"/>
      </g>
     </g>
    </g>
    <g id="xtick_4">
     <g id="line2d_4">
      <g>
       <use style="stroke:#000000;stroke-width:0.8;" x="231.486448" xlink:href="#md5ba4f700a" y="288.430125"/>
      </g>
     </g>
     <g id="text_4">
      <!-- 150 -->
      <g transform="translate(221.942698 303.028562)scale(0.1 -0.1)">
       <use xlink:href="#DejaVuSans-49"/>
       <use x="63.623047" xlink:href="#DejaVuSans-53"/>
       <use x="127.246094" xlink:href="#DejaVuSans-48"/>
      </g>
     </g>
    </g>
    <g id="xtick_5">
     <g id="line2d_5">
      <g>
       <use style="stroke:#000000;stroke-width:0.8;" x="288.643939" xlink:href="#md5ba4f700a" y="288.430125"/>
      </g>
     </g>
     <g id="text_5">
      <!-- 200 -->
      <defs>
       <path d="M 19.1875 8.296875 
L 53.609375 8.296875 
L 53.609375 0 
L 7.328125 0 
L 7.328125 8.296875 
Q 12.9375 14.109375 22.625 23.890625 
Q 32.328125 33.6875 34.8125 36.53125 
Q 39.546875 41.84375 41.421875 45.53125 
Q 43.3125 49.21875 43.3125 52.78125 
Q 43.3125 58.59375 39.234375 62.25 
Q 35.15625 65.921875 28.609375 65.921875 
Q 23.96875 65.921875 18.8125 64.3125 
Q 13.671875 62.703125 7.8125 59.421875 
L 7.8125 69.390625 
Q 13.765625 71.78125 18.9375 73 
Q 24.125 74.21875 28.421875 74.21875 
Q 39.75 74.21875 46.484375 68.546875 
Q 53.21875 62.890625 53.21875 53.421875 
Q 53.21875 48.921875 51.53125 44.890625 
Q 49.859375 40.875 45.40625 35.40625 
Q 44.1875 33.984375 37.640625 27.21875 
Q 31.109375 20.453125 19.1875 8.296875 
z
" id="DejaVuSans-50"/>
      </defs>
      <g transform="translate(279.100189 303.028562)scale(0.1 -0.1)">
       <use xlink:href="#DejaVuSans-50"/>
       <use x="63.623047" xlink:href="#DejaVuSans-48"/>
       <use x="127.246094" xlink:href="#DejaVuSans-48"/>
      </g>
     </g>
    </g>
    <g id="xtick_6">
     <g id="line2d_6">
      <g>
       <use style="stroke:#000000;stroke-width:0.8;" x="345.801429" xlink:href="#md5ba4f700a" y="288.430125"/>
      </g>
     </g>
     <g id="text_6">
      <!-- 250 -->
      <g transform="translate(336.257679 303.028562)scale(0.1 -0.1)">
       <use xlink:href="#DejaVuSans-50"/>
       <use x="63.623047" xlink:href="#DejaVuSans-53"/>
       <use x="127.246094" xlink:href="#DejaVuSans-48"/>
      </g>
     </g>
    </g>
    <g id="text_7">
     <!-- Epoch -->
     <defs>
      <path d="M 9.8125 72.90625 
L 55.90625 72.90625 
L 55.90625 64.59375 
L 19.671875 64.59375 
L 19.671875 43.015625 
L 54.390625 43.015625 
L 54.390625 34.71875 
L 19.671875 34.71875 
L 19.671875 8.296875 
L 56.78125 8.296875 
L 56.78125 0 
L 9.8125 0 
z
" id="DejaVuSans-69"/>
      <path d="M 18.109375 8.203125 
L 18.109375 -20.796875 
L 9.078125 -20.796875 
L 9.078125 54.6875 
L 18.109375 54.6875 
L 18.109375 46.390625 
Q 20.953125 51.265625 25.265625 53.625 
Q 29.59375 56 35.59375 56 
Q 45.5625 56 51.78125 48.09375 
Q 58.015625 40.1875 58.015625 27.296875 
Q 58.015625 14.40625 51.78125 6.484375 
Q 45.5625 -1.421875 35.59375 -1.421875 
Q 29.59375 -1.421875 25.265625 0.953125 
Q 20.953125 3.328125 18.109375 8.203125 
z
M 48.6875 27.296875 
Q 48.6875 37.203125 44.609375 42.84375 
Q 40.53125 48.484375 33.40625 48.484375 
Q 26.265625 48.484375 22.1875 42.84375 
Q 18.109375 37.203125 18.109375 27.296875 
Q 18.109375 17.390625 22.1875 11.75 
Q 26.265625 6.109375 33.40625 6.109375 
Q 40.53125 6.109375 44.609375 11.75 
Q 48.6875 17.390625 48.6875 27.296875 
z
" id="DejaVuSans-112"/>
      <path d="M 30.609375 48.390625 
Q 23.390625 48.390625 19.1875 42.75 
Q 14.984375 37.109375 14.984375 27.296875 
Q 14.984375 17.484375 19.15625 11.84375 
Q 23.34375 6.203125 30.609375 6.203125 
Q 37.796875 6.203125 41.984375 11.859375 
Q 46.1875 17.53125 46.1875 27.296875 
Q 46.1875 37.015625 41.984375 42.703125 
Q 37.796875 48.390625 30.609375 48.390625 
z
M 30.609375 56 
Q 42.328125 56 49.015625 48.375 
Q 55.71875 40.765625 55.71875 27.296875 
Q 55.71875 13.875 49.015625 6.21875 
Q 42.328125 -1.421875 30.609375 -1.421875 
Q 18.84375 -1.421875 12.171875 6.21875 
Q 5.515625 13.875 5.515625 27.296875 
Q 5.515625 40.765625 12.171875 48.375 
Q 18.84375 56 30.609375 56 
z
" id="DejaVuSans-111"/>
      <path d="M 48.78125 52.59375 
L 48.78125 44.1875 
Q 44.96875 46.296875 41.140625 47.34375 
Q 37.3125 48.390625 33.40625 48.390625 
Q 24.65625 48.390625 19.8125 42.84375 
Q 14.984375 37.3125 14.984375 27.296875 
Q 14.984375 17.28125 19.8125 11.734375 
Q 24.65625 6.203125 33.40625 6.203125 
Q 37.3125 6.203125 41.140625 7.25 
Q 44.96875 8.296875 48.78125 10.40625 
L 48.78125 2.09375 
Q 45.015625 0.34375 40.984375 -0.53125 
Q 36.96875 -1.421875 32.421875 -1.421875 
Q 20.0625 -1.421875 12.78125 6.34375 
Q 5.515625 14.109375 5.515625 27.296875 
Q 5.515625 40.671875 12.859375 48.328125 
Q 20.21875 56 33.015625 56 
Q 37.15625 56 41.109375 55.140625 
Q 45.0625 54.296875 48.78125 52.59375 
z
" id="DejaVuSans-99"/>
      <path d="M 54.890625 33.015625 
L 54.890625 0 
L 45.90625 0 
L 45.90625 32.71875 
Q 45.90625 40.484375 42.875 44.328125 
Q 39.84375 48.1875 33.796875 48.1875 
Q 26.515625 48.1875 22.3125 43.546875 
Q 18.109375 38.921875 18.109375 30.90625 
L 18.109375 0 
L 9.078125 0 
L 9.078125 75.984375 
L 18.109375 75.984375 
L 18.109375 46.1875 
Q 21.34375 51.125 25.703125 53.5625 
Q 30.078125 56 35.796875 56 
Q 45.21875 56 50.046875 50.171875 
Q 54.890625 44.34375 54.890625 33.015625 
z
" id="DejaVuSans-104"/>
     </defs>
     <g transform="translate(207.030313 316.706687)scale(0.1 -0.1)">
      <use xlink:href="#DejaVuSans-69"/>
      <use x="63.183594" xlink:href="#DejaVuSans-112"/>
      <use x="126.660156" xlink:href="#DejaVuSans-111"/>
      <use x="187.841797" xlink:href="#DejaVuSans-99"/>
      <use x="242.822266" xlink:href="#DejaVuSans-104"/>
     </g>
    </g>
   </g>
   <g id="matplotlib.axis_2">
    <g id="ytick_1">
     <g id="line2d_7">
      <defs>
       <path d="M 0 0 
L -3.5 0 
" id="m84e2a5b457" style="stroke:#000000;stroke-width:0.8;"/>
      </defs>
      <g>
       <use style="stroke:#000000;stroke-width:0.8;" x="43.78125" xlink:href="#m84e2a5b457" y="276.334125"/>
      </g>
     </g>
     <g id="text_8">
      <!-- 0.0 -->
      <defs>
       <path d="M 10.6875 12.40625 
L 21 12.40625 
L 21 0 
L 10.6875 0 
z
" id="DejaVuSans-46"/>
      </defs>
      <g transform="translate(20.878125 280.133344)scale(0.1 -0.1)">
       <use xlink:href="#DejaVuSans-48"/>
       <use x="63.623047" xlink:href="#DejaVuSans-46"/>
       <use x="95.410156" xlink:href="#DejaVuSans-48"/>
      </g>
     </g>
    </g>
    <g id="ytick_2">
     <g id="line2d_8">
      <g>
       <use style="stroke:#000000;stroke-width:0.8;" x="43.78125" xlink:href="#m84e2a5b457" y="227.950125"/>
      </g>
     </g>
     <g id="text_9">
      <!-- 0.2 -->
      <g transform="translate(20.878125 231.749344)scale(0.1 -0.1)">
       <use xlink:href="#DejaVuSans-48"/>
       <use x="63.623047" xlink:href="#DejaVuSans-46"/>
       <use x="95.410156" xlink:href="#DejaVuSans-50"/>
      </g>
     </g>
    </g>
    <g id="ytick_3">
     <g id="line2d_9">
      <g>
       <use style="stroke:#000000;stroke-width:0.8;" x="43.78125" xlink:href="#m84e2a5b457" y="179.566125"/>
      </g>
     </g>
     <g id="text_10">
      <!-- 0.4 -->
      <defs>
       <path d="M 37.796875 64.3125 
L 12.890625 25.390625 
L 37.796875 25.390625 
z
M 35.203125 72.90625 
L 47.609375 72.90625 
L 47.609375 25.390625 
L 58.015625 25.390625 
L 58.015625 17.1875 
L 47.609375 17.1875 
L 47.609375 0 
L 37.796875 0 
L 37.796875 17.1875 
L 4.890625 17.1875 
L 4.890625 26.703125 
z
" id="DejaVuSans-52"/>
      </defs>
      <g transform="translate(20.878125 183.365344)scale(0.1 -0.1)">
       <use xlink:href="#DejaVuSans-48"/>
       <use x="63.623047" xlink:href="#DejaVuSans-46"/>
       <use x="95.410156" xlink:href="#DejaVuSans-52"/>
      </g>
     </g>
    </g>
    <g id="ytick_4">
     <g id="line2d_10">
      <g>
       <use style="stroke:#000000;stroke-width:0.8;" x="43.78125" xlink:href="#m84e2a5b457" y="131.182125"/>
      </g>
     </g>
     <g id="text_11">
      <!-- 0.6 -->
      <defs>
       <path d="M 33.015625 40.375 
Q 26.375 40.375 22.484375 35.828125 
Q 18.609375 31.296875 18.609375 23.390625 
Q 18.609375 15.53125 22.484375 10.953125 
Q 26.375 6.390625 33.015625 6.390625 
Q 39.65625 6.390625 43.53125 10.953125 
Q 47.40625 15.53125 47.40625 23.390625 
Q 47.40625 31.296875 43.53125 35.828125 
Q 39.65625 40.375 33.015625 40.375 
z
M 52.59375 71.296875 
L 52.59375 62.3125 
Q 48.875 64.0625 45.09375 64.984375 
Q 41.3125 65.921875 37.59375 65.921875 
Q 27.828125 65.921875 22.671875 59.328125 
Q 17.53125 52.734375 16.796875 39.40625 
Q 19.671875 43.65625 24.015625 45.921875 
Q 28.375 48.1875 33.59375 48.1875 
Q 44.578125 48.1875 50.953125 41.515625 
Q 57.328125 34.859375 57.328125 23.390625 
Q 57.328125 12.15625 50.6875 5.359375 
Q 44.046875 -1.421875 33.015625 -1.421875 
Q 20.359375 -1.421875 13.671875 8.265625 
Q 6.984375 17.96875 6.984375 36.375 
Q 6.984375 53.65625 15.1875 63.9375 
Q 23.390625 74.21875 37.203125 74.21875 
Q 40.921875 74.21875 44.703125 73.484375 
Q 48.484375 72.75 52.59375 71.296875 
z
" id="DejaVuSans-54"/>
      </defs>
      <g transform="translate(20.878125 134.981344)scale(0.1 -0.1)">
       <use xlink:href="#DejaVuSans-48"/>
       <use x="63.623047" xlink:href="#DejaVuSans-46"/>
       <use x="95.410156" xlink:href="#DejaVuSans-54"/>
      </g>
     </g>
    </g>
    <g id="ytick_5">
     <g id="line2d_11">
      <g>
       <use style="stroke:#000000;stroke-width:0.8;" x="43.78125" xlink:href="#m84e2a5b457" y="82.798125"/>
      </g>
     </g>
     <g id="text_12">
      <!-- 0.8 -->
      <defs>
       <path d="M 31.78125 34.625 
Q 24.75 34.625 20.71875 30.859375 
Q 16.703125 27.09375 16.703125 20.515625 
Q 16.703125 13.921875 20.71875 10.15625 
Q 24.75 6.390625 31.78125 6.390625 
Q 38.8125 6.390625 42.859375 10.171875 
Q 46.921875 13.96875 46.921875 20.515625 
Q 46.921875 27.09375 42.890625 30.859375 
Q 38.875 34.625 31.78125 34.625 
z
M 21.921875 38.8125 
Q 15.578125 40.375 12.03125 44.71875 
Q 8.5 49.078125 8.5 55.328125 
Q 8.5 64.0625 14.71875 69.140625 
Q 20.953125 74.21875 31.78125 74.21875 
Q 42.671875 74.21875 48.875 69.140625 
Q 55.078125 64.0625 55.078125 55.328125 
Q 55.078125 49.078125 51.53125 44.71875 
Q 48 40.375 41.703125 38.8125 
Q 48.828125 37.15625 52.796875 32.3125 
Q 56.78125 27.484375 56.78125 20.515625 
Q 56.78125 9.90625 50.3125 4.234375 
Q 43.84375 -1.421875 31.78125 -1.421875 
Q 19.734375 -1.421875 13.25 4.234375 
Q 6.78125 9.90625 6.78125 20.515625 
Q 6.78125 27.484375 10.78125 32.3125 
Q 14.796875 37.15625 21.921875 38.8125 
z
M 18.3125 54.390625 
Q 18.3125 48.734375 21.84375 45.5625 
Q 25.390625 42.390625 31.78125 42.390625 
Q 38.140625 42.390625 41.71875 45.5625 
Q 45.3125 48.734375 45.3125 54.390625 
Q 45.3125 60.0625 41.71875 63.234375 
Q 38.140625 66.40625 31.78125 66.40625 
Q 25.390625 66.40625 21.84375 63.234375 
Q 18.3125 60.0625 18.3125 54.390625 
z
" id="DejaVuSans-56"/>
      </defs>
      <g transform="translate(20.878125 86.597344)scale(0.1 -0.1)">
       <use xlink:href="#DejaVuSans-48"/>
       <use x="63.623047" xlink:href="#DejaVuSans-46"/>
       <use x="95.410156" xlink:href="#DejaVuSans-56"/>
      </g>
     </g>
    </g>
    <g id="ytick_6">
     <g id="line2d_12">
      <g>
       <use style="stroke:#000000;stroke-width:0.8;" x="43.78125" xlink:href="#m84e2a5b457" y="34.414125"/>
      </g>
     </g>
     <g id="text_13">
      <!-- 1.0 -->
      <g transform="translate(20.878125 38.213344)scale(0.1 -0.1)">
       <use xlink:href="#DejaVuSans-49"/>
       <use x="63.623047" xlink:href="#DejaVuSans-46"/>
       <use x="95.410156" xlink:href="#DejaVuSans-48"/>
      </g>
     </g>
    </g>
    <g id="text_14">
     <!-- Loss -->
     <defs>
      <path d="M 9.8125 72.90625 
L 19.671875 72.90625 
L 19.671875 8.296875 
L 55.171875 8.296875 
L 55.171875 0 
L 9.8125 0 
z
" id="DejaVuSans-76"/>
      <path d="M 44.28125 53.078125 
L 44.28125 44.578125 
Q 40.484375 46.53125 36.375 47.5 
Q 32.28125 48.484375 27.875 48.484375 
Q 21.1875 48.484375 17.84375 46.4375 
Q 14.5 44.390625 14.5 40.28125 
Q 14.5 37.15625 16.890625 35.375 
Q 19.28125 33.59375 26.515625 31.984375 
L 29.59375 31.296875 
Q 39.15625 29.25 43.1875 25.515625 
Q 47.21875 21.78125 47.21875 15.09375 
Q 47.21875 7.46875 41.1875 3.015625 
Q 35.15625 -1.421875 24.609375 -1.421875 
Q 20.21875 -1.421875 15.453125 -0.5625 
Q 10.6875 0.296875 5.421875 2 
L 5.421875 11.28125 
Q 10.40625 8.6875 15.234375 7.390625 
Q 20.0625 6.109375 24.8125 6.109375 
Q 31.15625 6.109375 34.5625 8.28125 
Q 37.984375 10.453125 37.984375 14.40625 
Q 37.984375 18.0625 35.515625 20.015625 
Q 33.0625 21.96875 24.703125 23.78125 
L 21.578125 24.515625 
Q 13.234375 26.265625 9.515625 29.90625 
Q 5.8125 33.546875 5.8125 39.890625 
Q 5.8125 47.609375 11.28125 51.796875 
Q 16.75 56 26.8125 56 
Q 31.78125 56 36.171875 55.265625 
Q 40.578125 54.546875 44.28125 53.078125 
z
" id="DejaVuSans-115"/>
     </defs>
     <g transform="translate(14.798438 166.428031)rotate(-90)scale(0.1 -0.1)">
      <use xlink:href="#DejaVuSans-76"/>
      <use x="55.697266" xlink:href="#DejaVuSans-111"/>
      <use x="116.878906" xlink:href="#DejaVuSans-115"/>
      <use x="168.978516" xlink:href="#DejaVuSans-115"/>
     </g>
    </g>
   </g>
   <g id="line2d_13">
    <path clip-path="url(#p96ec483fb9)" d="M 60.013977 138.292276 
L 61.157127 139.795205 
L 62.300277 139.525532 
L 63.443427 94.660319 
L 64.586577 96.228739 
L 65.729726 97.552044 
L 66.872876 99.131777 
L 68.016026 100.955157 
L 69.159176 101.417589 
L 70.302326 135.248804 
L 72.588625 135.372808 
L 73.731775 152.800127 
L 76.018075 153.746593 
L 77.161224 192.494736 
L 79.447524 193.276719 
L 80.590674 276.207862 
L 82.876973 276.334125 
L 84.020123 197.868869 
L 86.306423 197.266295 
L 87.449573 72.356333 
L 88.592722 72.797451 
L 89.735872 73.584774 
L 90.879022 206.304636 
L 93.165322 207.303379 
L 94.308472 162.877597 
L 96.594771 163.589084 
L 97.737921 63.991116 
L 100.024221 64.806921 
L 101.16737 159.175312 
L 103.45367 159.934575 
L 104.59682 59.536816 
L 105.73997 60.744746 
L 106.883119 62.273503 
L 108.026269 144.393937 
L 109.169419 145.328802 
L 110.312569 145.223151 
L 111.455719 157.465436 
L 113.742018 161.419656 
L 114.885168 137.030854 
L 116.028318 137.06991 
L 117.171468 137.357377 
L 118.314617 68.712374 
L 119.457767 68.578102 
L 120.600917 68.619811 
L 121.744067 206.317337 
L 122.887217 205.977266 
L 124.030367 205.319307 
L 125.173516 186.935551 
L 126.316666 188.120185 
L 127.459816 187.838076 
L 128.602966 129.414209 
L 129.746116 130.769214 
L 130.889265 130.113157 
L 132.032415 184.821715 
L 134.318715 184.861486 
L 135.461865 184.512242 
L 136.605014 186.773472 
L 137.748164 186.81736 
L 138.891314 160.217789 
L 140.034464 161.451241 
L 141.177614 162.049342 
L 142.320763 239.050178 
L 144.607063 239.18398 
L 145.750213 226.650548 
L 148.036512 226.748285 
L 149.179662 113.376317 
L 150.322812 115.679321 
L 151.465962 114.784714 
L 152.609112 195.459971 
L 153.752262 195.170893 
L 154.895411 195.025007 
L 156.038561 186.976944 
L 158.324861 186.957385 
L 159.468011 237.682945 
L 161.75431 237.974258 
L 162.89746 206.521746 
L 165.18376 206.424401 
L 166.326909 184.033103 
L 168.613209 183.590885 
L 169.756359 212.87319 
L 172.042658 212.842447 
L 173.185808 223.327887 
L 175.472108 223.329938 
L 176.615258 199.155493 
L 178.901557 199.166062 
L 180.044707 207.160814 
L 181.187857 207.232192 
L 182.331007 207.133909 
L 183.474157 212.291098 
L 185.760456 212.361299 
L 186.903606 188.975164 
L 189.189906 189.733504 
L 190.333055 144.115326 
L 192.619355 144.156949 
L 193.762505 237.870269 
L 196.048804 238.305723 
L 197.191954 176.898404 
L 198.335104 177.621968 
L 199.478254 177.696876 
L 200.621404 224.338707 
L 201.764553 224.187266 
L 202.907703 224.181372 
L 204.050853 238.810918 
L 206.337153 238.065911 
L 207.480302 152.44753 
L 208.623452 155.237885 
L 209.766602 155.151992 
L 210.909752 84.024236 
L 212.052902 87.756469 
L 213.196052 86.249722 
L 214.339201 210.370735 
L 216.625501 210.376693 
L 217.768651 79.566294 
L 218.911801 82.01321 
L 220.05495 80.85352 
L 221.1981 34.414125 
L 222.34125 36.249503 
L 223.4844 35.639101 
L 224.62755 104.398686 
L 225.770699 104.230733 
L 226.913849 104.775008 
L 228.056999 188.249765 
L 230.343299 188.153687 
L 231.486448 208.830401 
L 233.772748 208.817203 
L 234.915898 227.171765 
L 237.202198 226.853826 
L 238.345347 208.45914 
L 239.488497 208.594959 
L 240.631647 208.86108 
L 241.774797 217.708301 
L 244.061096 217.589489 
L 245.204246 179.356915 
L 247.490546 179.311548 
L 248.633696 241.469669 
L 249.776845 241.926884 
L 250.919995 241.742125 
L 252.063145 174.347821 
L 253.206295 177.098805 
L 254.349445 176.767398 
L 255.492594 172.227863 
L 257.778894 172.638048 
L 258.922044 239.592768 
L 261.208343 239.608776 
L 262.351493 205.045192 
L 264.637793 205.551035 
L 265.780943 239.050873 
L 268.067242 239.313993 
L 269.210392 224.635581 
L 271.496692 224.919869 
L 272.639842 225.413946 
L 274.926141 225.527157 
L 276.069291 216.459906 
L 278.355591 216.645874 
L 279.49874 229.78847 
L 281.78504 229.891636 
L 282.92819 232.191704 
L 284.07134 232.860474 
L 285.214489 233.094672 
L 286.357639 195.608822 
L 288.643939 195.540083 
L 289.787089 98.544516 
L 292.073388 100.846037 
L 293.216538 177.238445 
L 294.359688 177.032233 
L 295.502838 176.56423 
L 296.645988 227.733761 
L 298.932287 227.766649 
L 300.075437 207.21028 
L 302.361737 207.785445 
L 303.504886 218.306 
L 304.648036 219.03495 
L 305.791186 219.370724 
L 306.934336 196.309521 
L 309.220635 196.284691 
L 310.363785 242.946574 
L 312.650085 242.857027 
L 313.793235 169.70103 
L 314.936384 170.549686 
L 316.079534 169.655568 
L 317.222684 80.128163 
L 318.365834 74.645997 
L 319.508984 79.692782 
L 320.652133 66.088195 
L 321.795283 65.489463 
L 322.938433 66.187063 
L 324.081583 189.600656 
L 325.224733 190.30041 
L 326.367883 190.143587 
L 327.511032 223.928038 
L 329.797332 224.13047 
L 330.940482 236.076233 
L 332.083632 236.402363 
L 333.226781 236.41327 
L 334.369931 231.96128 
L 336.656231 231.891848 
L 337.799381 221.014357 
L 340.08568 220.806242 
L 341.22883 173.652724 
L 343.51513 173.936012 
L 344.658279 235.469762 
L 345.801429 235.639477 
L 346.944579 235.927686 
L 348.087729 231.6694 
L 349.230879 231.943289 
L 350.374028 232.464335 
L 351.517178 237.97279 
L 353.803478 238.086344 
L 354.946628 227.623022 
L 357.232927 227.69662 
L 358.376077 236.924813 
L 360.662377 237.13331 
L 361.805527 109.833826 
L 362.948676 109.947395 
L 364.091826 110.369167 
L 365.234976 227.48499 
L 367.521276 227.692649 
L 368.664425 239.862928 
L 369.807575 241.027734 
L 370.950725 240.974623 
L 372.093875 231.301551 
L 374.380174 231.349723 
L 375.523324 227.516311 
L 377.809624 227.922422 
L 378.952774 230.928695 
L 381.239073 230.972803 
L 382.382223 227.37708 
L 384.668523 227.673611 
L 384.668523 227.673611 
" style="fill:none;stroke:#1f77b4;stroke-linecap:square;stroke-opacity:0.3;stroke-width:1.5;"/>
   </g>
   <g id="line2d_14">
    <path clip-path="url(#p96ec483fb9)" d="M 60.013977 146.133194 
L 62.300277 120.948361 
L 63.443427 110.528362 
L 64.586577 102.474664 
L 65.729726 97.475784 
L 66.872876 97.478784 
L 68.016026 101.698538 
L 69.159176 113.306939 
L 70.302326 122.545514 
L 71.445475 128.986818 
L 72.588625 138.718687 
L 73.731775 149.805352 
L 74.874925 153.42063 
L 76.018075 163.010562 
L 77.161224 181.645083 
L 78.304374 209.80715 
L 79.447524 229.428321 
L 80.590674 242.710452 
L 81.733824 257.670467 
L 82.876973 249.726593 
L 84.020123 228.971479 
L 86.306423 142.791325 
L 87.449573 122.511373 
L 88.592722 121.70414 
L 89.735872 133.568728 
L 90.879022 144.132954 
L 92.022172 169.152623 
L 93.165322 190.541029 
L 94.308472 184.98243 
L 95.451621 155.391201 
L 96.594771 119.872523 
L 97.737921 104.548047 
L 98.881071 107.978196 
L 100.024221 112.264642 
L 101.16737 111.485219 
L 102.31052 105.21785 
L 103.45367 111.293105 
L 104.59682 109.185638 
L 105.73997 104.401214 
L 106.883119 97.245568 
L 108.026269 105.758408 
L 109.169419 124.501905 
L 110.312569 148.882787 
L 111.455719 158.086862 
L 112.598868 164.802742 
L 114.885168 144.344368 
L 116.028318 117.809557 
L 117.171468 102.627989 
L 118.314617 99.972278 
L 119.457767 109.527622 
L 120.600917 126.900585 
L 121.744067 146.406616 
L 122.887217 173.759152 
L 124.030367 196.687703 
L 125.173516 201.103133 
L 126.316666 186.576033 
L 127.459816 162.021835 
L 128.602966 153.933239 
L 129.746116 151.22123 
L 130.889265 154.011293 
L 132.032415 159.367333 
L 133.175565 171.327525 
L 134.318715 184.637183 
L 135.461865 187.753569 
L 136.605014 178.771345 
L 137.748164 171.241527 
L 138.891314 174.29164 
L 140.034464 183.129291 
L 141.177614 194.123841 
L 142.320763 206.234292 
L 143.463913 228.504895 
L 144.607063 238.224237 
L 145.750213 231.96812 
L 146.893363 206.329646 
L 148.036512 177.676625 
L 149.179662 161.471237 
L 150.322812 152.936655 
L 151.465962 151.590766 
L 152.609112 155.984607 
L 153.752262 163.851568 
L 154.895411 185.685784 
L 157.181711 208.140288 
L 158.324861 209.365808 
L 160.61116 222.55349 
L 161.75431 224.819981 
L 162.89746 221.253223 
L 164.04061 210.095339 
L 165.18376 196.954994 
L 166.326909 191.98558 
L 167.470059 190.65414 
L 169.756359 200.31957 
L 172.042658 217.334478 
L 173.185808 220.039401 
L 174.328958 218.165607 
L 175.472108 212.823367 
L 176.615258 209.717091 
L 177.758407 206.065269 
L 178.901557 202.971997 
L 180.044707 202.677641 
L 182.331007 210.336648 
L 183.474157 209.805082 
L 184.617306 211.098487 
L 185.760456 205.823084 
L 186.903606 196.958577 
L 188.046756 177.458966 
L 189.189906 166.445228 
L 190.333055 164.320485 
L 192.619355 186.995483 
L 193.762505 195.533184 
L 194.905655 199.269382 
L 196.048804 207.35261 
L 197.191954 209.236957 
L 198.335104 205.658925 
L 199.478254 197.546722 
L 200.621404 202.541394 
L 201.764553 219.914262 
L 202.907703 233.299336 
L 204.050853 232.186291 
L 205.194003 228.339122 
L 206.337153 208.493867 
L 207.480302 185.5526 
L 208.623452 148.052692 
L 209.766602 122.656111 
L 210.909752 112.788843 
L 212.052902 128.79249 
L 213.196052 146.359642 
L 214.339201 151.617103 
L 215.482351 157.6614 
L 216.625501 157.051765 
L 217.768651 137.919864 
L 220.05495 63.634367 
L 221.1981 48.014196 
L 222.34125 40.55089 
L 224.62755 77.538793 
L 225.770699 101.973863 
L 226.913849 133.753501 
L 228.056999 160.141148 
L 229.200149 179.81558 
L 230.343299 191.947017 
L 231.486448 206.699231 
L 232.629598 216.915415 
L 233.772748 216.382249 
L 234.915898 220.347259 
L 236.059048 220.633712 
L 237.202198 218.424217 
L 238.345347 217.412212 
L 239.488497 218.855879 
L 240.631647 215.335984 
L 241.774797 211.419614 
L 242.917947 201.44304 
L 244.061096 198.187092 
L 245.204246 197.526954 
L 246.347396 205.875493 
L 247.490546 209.549452 
L 248.633696 211.754913 
L 249.776845 212.999263 
L 250.919995 213.356334 
L 252.063145 205.800579 
L 253.206295 188.106981 
L 254.349445 173.080772 
L 255.492594 172.502718 
L 256.635744 184.197978 
L 257.778894 201.595884 
L 258.922044 211.297882 
L 261.208343 221.226958 
L 262.351493 224.430344 
L 263.494643 225.790271 
L 264.637793 220.989377 
L 265.780943 223.015476 
L 266.924093 226.58431 
L 268.067242 232.127162 
L 269.210392 232.64528 
L 270.353542 231.390939 
L 271.496692 226.207226 
L 272.639842 223.92859 
L 273.782991 221.215036 
L 274.926141 221.085941 
L 276.069291 220.645142 
L 277.212441 220.848432 
L 278.355591 221.973796 
L 279.49874 224.050974 
L 280.64189 230.063911 
L 281.78504 232.767754 
L 282.92819 230.93765 
L 284.07134 233.961323 
L 285.214489 223.941977 
L 286.357639 206.511572 
L 287.500789 177.433782 
L 288.643939 154.16197 
L 289.787089 138.407738 
L 290.930238 127.023393 
L 292.073388 130.97205 
L 293.216538 142.418003 
L 294.359688 165.479931 
L 295.502838 195.488914 
L 296.645988 211.628235 
L 297.789137 218.902528 
L 298.932287 216.884915 
L 300.075437 219.048605 
L 301.218587 219.963631 
L 302.361737 214.208832 
L 303.504886 212.213163 
L 304.648036 206.510025 
L 305.791186 206.63977 
L 306.934336 207.88624 
L 308.077486 217.328014 
L 309.220635 220.300036 
L 310.363785 220.130918 
L 311.506935 224.549613 
L 312.650085 218.273476 
L 313.793235 198.169705 
L 314.936384 171.099136 
L 316.079534 137.262665 
L 317.222684 109.421715 
L 318.365834 77.56413 
L 319.508984 69.045042 
L 320.652133 69.73742 
L 321.795283 82.615405 
L 324.081583 141.715626 
L 326.367883 197.795352 
L 327.511032 218.87467 
L 328.654182 230.4359 
L 329.797332 227.855043 
L 330.940482 233.385363 
L 332.083632 236.737748 
L 333.226781 234.804951 
L 334.369931 234.038305 
L 335.513081 235.621993 
L 336.656231 230.743384 
L 337.799381 223.103658 
L 338.94253 208.094196 
L 340.08568 198.750055 
L 341.22883 194.15581 
L 342.37198 195.004491 
L 343.51513 200.370377 
L 344.658279 207.96252 
L 345.801429 218.0548 
L 346.944579 231.393814 
L 348.087729 237.604708 
L 349.230879 240.043358 
L 350.374028 235.263244 
L 351.517178 235.053394 
L 352.660328 233.700932 
L 354.946628 232.525421 
L 356.089778 242.7552 
L 357.232927 239.782431 
L 358.376077 227.576418 
L 359.519227 198.932432 
L 360.662377 178.928277 
L 361.805527 165.592144 
L 362.948676 158.816046 
L 364.091826 160.80432 
L 365.234976 173.452086 
L 366.378126 196.712893 
L 367.521276 228.683708 
L 368.664425 242.479268 
L 369.807575 246.309701 
L 370.950725 236.687278 
L 372.093875 235.70002 
L 373.237025 233.32314 
L 374.380174 230.135231 
L 375.523324 228.639719 
L 376.666474 228.570957 
L 377.809624 229.360759 
L 378.952774 229.301376 
L 380.095923 229.728434 
L 381.239073 229.90177 
L 382.382223 229.58736 
L 383.525373 228.551181 
L 384.668523 226.559211 
L 384.668523 226.559211 
" style="fill:none;stroke:#1f77b4;stroke-linecap:square;stroke-width:1.5;"/>
   </g>
   <g id="line2d_15">
    <path clip-path="url(#p96ec483fb9)" d="M 60.013977 268.219404 
L 61.157127 269.513765 
L 64.586577 274.246793 
L 65.729726 276.334125 
L 66.872876 258.041521 
L 69.159176 266.406563 
L 70.302326 226.475515 
L 72.588625 240.36242 
L 73.731775 221.83903 
L 74.874925 228.233233 
L 76.018075 233.661048 
L 77.161224 170.60189 
L 78.304374 175.654442 
L 79.447524 180.190535 
L 80.590674 125.217215 
L 82.876973 135.271966 
L 84.020123 130.10825 
L 86.306423 137.858983 
L 87.449573 231.187946 
L 89.735872 234.961488 
L 90.879022 120.036828 
L 93.165322 126.11108 
L 94.308472 135.747916 
L 96.594771 141.231801 
L 97.737921 185.110919 
L 100.024221 189.098559 
L 101.16737 89.18192 
L 103.45367 94.150807 
L 104.59682 180.554486 
L 106.883119 183.762355 
L 108.026269 113.456283 
L 110.312569 117.996577 
L 111.455719 84.780091 
L 113.742018 89.491128 
L 114.885168 132.860965 
L 117.171468 136.929899 
L 118.314617 187.529478 
L 120.600917 190.54505 
L 121.744067 72.159298 
L 124.030367 76.708183 
L 125.173516 79.891597 
L 127.459816 84.143677 
L 128.602966 132.655914 
L 130.889265 136.100364 
L 132.032415 81.705841 
L 134.318715 86.006339 
L 135.461865 67.204654 
L 137.748164 71.35199 
L 138.891314 116.558488 
L 141.177614 120.326976 
L 142.320763 34.414125 
L 144.607063 38.935397 
L 145.750213 64.850169 
L 148.036512 69.246972 
L 149.179662 141.818924 
L 151.465962 145.053032 
L 152.609112 72.471958 
L 154.895411 76.534292 
L 156.038561 92.135116 
L 158.324861 96.055458 
L 159.468011 50.477092 
L 161.75431 54.835775 
L 162.89746 73.706816 
L 165.18376 77.804122 
L 166.326909 69.17297 
L 168.613209 73.020885 
L 169.756359 76.358257 
L 172.042658 80.426433 
L 173.185808 64.677927 
L 175.472108 68.830517 
L 176.615258 92.279573 
L 178.901557 96.160468 
L 180.044707 81.715266 
L 182.331007 85.606099 
L 183.474157 76.711578 
L 185.760456 80.710152 
L 186.903606 103.332954 
L 189.189906 106.997703 
L 190.333055 115.334705 
L 192.619355 118.609341 
L 193.762505 59.298464 
L 196.048804 63.428883 
L 197.191954 99.681385 
L 199.478254 103.221344 
L 200.621404 62.719833 
L 202.907703 66.796733 
L 204.050853 59.347565 
L 206.337153 63.449877 
L 207.480302 145.015158 
L 209.766602 147.948915 
L 210.909752 142.446064 
L 213.196052 145.038656 
L 214.339201 110.379586 
L 216.625501 114.0043 
L 217.768651 168.688326 
L 220.05495 171.247189 
L 221.1981 206.058729 
L 223.4844 207.698266 
L 224.62755 195.193749 
L 226.913849 197.653253 
L 228.056999 125.168247 
L 230.343299 128.559253 
L 231.486448 94.441771 
L 233.772748 98.128652 
L 234.915898 89.746607 
L 237.202198 93.524332 
L 238.345347 108.97095 
L 240.631647 112.540039 
L 241.774797 108.471901 
L 244.061096 112.055897 
L 245.204246 135.378475 
L 247.490546 138.567104 
L 248.633696 92.840524 
L 250.919995 96.58946 
L 252.063145 103.320683 
L 254.349445 106.441986 
L 255.492594 170.286566 
L 257.778894 173.234366 
L 258.922044 94.481996 
L 261.208343 98.208306 
L 262.351493 122.559326 
L 264.637793 125.959662 
L 265.780943 89.193356 
L 268.067242 92.950788 
L 269.210392 89.237128 
L 271.496692 92.992284 
L 272.639842 89.438936 
L 274.926141 93.186904 
L 276.069291 96.138487 
L 278.355591 99.820267 
L 279.49874 85.421378 
L 281.78504 89.196941 
L 282.92819 87.088775 
L 285.214489 90.847951 
L 286.357639 137.163986 
L 289.787089 142.006186 
L 292.073388 144.114067 
L 293.216538 126.858421 
L 295.502838 129.988258 
L 296.645988 101.32737 
L 298.932287 104.953032 
L 300.075437 104.752893 
L 302.361737 108.004979 
L 303.504886 122.003779 
L 305.791186 125.424314 
L 306.934336 133.27359 
L 309.220635 136.583729 
L 310.363785 100.42571 
L 312.650085 104.049646 
L 313.793235 116.304962 
L 316.079534 119.174919 
L 317.222684 166.307802 
L 319.508984 168.171507 
L 320.652133 178.676415 
L 322.938433 180.30425 
L 324.081583 169.529231 
L 326.367883 172.432672 
L 327.511032 130.023229 
L 329.797332 133.376153 
L 330.940482 114.474484 
L 333.226781 117.965246 
L 334.369931 107.589339 
L 336.656231 111.134627 
L 337.799381 119.781956 
L 340.08568 123.215747 
L 341.22883 124.334349 
L 343.51513 127.274459 
L 344.658279 114.786991 
L 346.944579 118.264934 
L 348.087729 113.190752 
L 350.374028 116.681344 
L 351.517178 114.337119 
L 353.803478 117.814094 
L 354.946628 131.073083 
L 357.232927 134.400461 
L 358.376077 131.121198 
L 360.662377 134.449182 
L 361.805527 193.721323 
L 364.091826 195.726129 
L 365.234976 138.453825 
L 367.521276 141.685372 
L 368.664425 134.86706 
L 370.950725 138.150496 
L 372.093875 123.624901 
L 374.380174 127.007904 
L 375.523324 127.413227 
L 377.809624 130.761068 
L 378.952774 129.510222 
L 381.239073 132.837866 
L 382.382223 145.265574 
L 384.668523 148.438709 
L 384.668523 148.438709 
" style="fill:none;stroke:#ff7f0e;stroke-linecap:square;stroke-opacity:0.3;stroke-width:1.5;"/>
   </g>
   <g id="line2d_16">
    <path clip-path="url(#p96ec483fb9)" d="M 60.013977 267.263601 
L 61.157127 270.237461 
L 62.300277 272.345665 
L 63.443427 273.339833 
L 64.586577 272.971585 
L 65.729726 270.99254 
L 68.016026 259.437194 
L 70.302326 242.893767 
L 71.445475 241.502872 
L 72.588625 236.143639 
L 73.731775 225.798606 
L 74.874925 220.27544 
L 76.018075 211.208419 
L 79.447524 160.203391 
L 80.590674 144.651498 
L 81.733824 127.214998 
L 82.876973 128.073338 
L 84.020123 133.667247 
L 85.163273 158.891091 
L 86.306423 180.940722 
L 87.449573 189.514696 
L 88.592722 190.139297 
L 89.735872 185.080616 
L 90.879022 173.12845 
L 93.165322 130.701637 
L 94.308472 127.221924 
L 95.451621 144.133917 
L 96.594771 163.612413 
L 97.737921 164.789853 
L 98.881071 151.845632 
L 100.024221 142.001289 
L 101.16737 135.957696 
L 102.31052 138.612839 
L 103.45367 135.783551 
L 104.59682 137.444709 
L 105.73997 145.160908 
L 106.883119 154.331231 
L 108.026269 146.279048 
L 109.169419 126.766775 
L 110.312569 104.175638 
L 111.455719 95.941548 
L 112.598868 92.358437 
L 114.885168 116.211974 
L 116.028318 143.518744 
L 117.171468 162.020579 
L 118.314617 165.79443 
L 119.457767 158.533799 
L 121.744067 123.240595 
L 122.887217 98.970625 
L 124.030367 78.842375 
L 125.173516 73.701632 
L 126.316666 85.752284 
L 127.459816 105.966256 
L 128.602966 111.871563 
L 129.746116 115.596945 
L 130.889265 113.435622 
L 132.032415 106.314776 
L 134.318715 77.178709 
L 135.461865 73.615335 
L 136.605014 84.764785 
L 137.748164 94.761779 
L 138.891314 94.534093 
L 141.177614 82.401106 
L 142.320763 73.081202 
L 143.463913 56.792049 
L 144.607063 47.36367 
L 145.750213 52.741453 
L 146.893363 75.301005 
L 148.036512 100.786123 
L 149.179662 112.14615 
L 150.322812 115.210258 
L 151.465962 112.117167 
L 153.752262 102.090527 
L 154.895411 87.776677 
L 156.038561 80.078473 
L 157.181711 74.155928 
L 158.324861 75.670053 
L 159.468011 70.969164 
L 161.75431 63.982449 
L 162.89746 63.600739 
L 164.04061 66.145443 
L 165.18376 72.816238 
L 166.326909 74.455078 
L 167.470059 76.403872 
L 168.613209 75.145061 
L 169.756359 74.489025 
L 170.899509 71.872938 
L 172.042658 71.983736 
L 173.185808 72.686588 
L 174.328958 76.108666 
L 176.615258 81.969789 
L 177.758407 86.05354 
L 178.901557 89.514645 
L 180.044707 89.139922 
L 182.331007 80.681844 
L 183.474157 80.844687 
L 184.617306 83.121886 
L 186.903606 94.676436 
L 188.046756 106.542696 
L 189.189906 112.559173 
L 190.333055 111.507522 
L 192.619355 92.13494 
L 193.762505 85.497464 
L 194.905655 84.618228 
L 196.048804 81.957539 
L 197.191954 80.377757 
L 198.335104 81.715514 
L 199.478254 85.769974 
L 200.621404 81.420885 
L 201.764553 67.577189 
L 202.907703 59.730692 
L 204.050853 63.651615 
L 205.194003 76.321368 
L 206.337153 95.733384 
L 207.480302 112.37115 
L 208.623452 131.330509 
L 209.766602 144.303658 
L 210.909752 148.715222 
L 212.052902 140.146976 
L 213.196052 127.851595 
L 214.339201 126.641353 
L 215.482351 126.721378 
L 216.625501 134.205038 
L 217.768651 146.534845 
L 220.05495 183.259534 
L 222.34125 208.067612 
L 223.4844 205.778449 
L 224.62755 199.864066 
L 225.770699 190.165014 
L 229.200149 134.19671 
L 230.343299 117.89364 
L 231.486448 103.587484 
L 232.629598 94.062738 
L 233.772748 94.6409 
L 234.915898 92.099058 
L 236.059048 93.893861 
L 237.202198 99.656485 
L 238.345347 102.665364 
L 239.488497 104.186955 
L 241.774797 112.54687 
L 242.917947 120.894415 
L 244.061096 123.756485 
L 245.204246 124.465233 
L 246.347396 122.224344 
L 247.490546 118.731273 
L 248.633696 113.353411 
L 249.776845 101.833081 
L 250.919995 96.418485 
L 252.063145 100.705196 
L 254.349445 135.974106 
L 255.492594 142.679482 
L 256.635744 141.690675 
L 257.778894 137.620131 
L 260.065194 125.453219 
L 261.208343 112.648989 
L 262.351493 106.91259 
L 263.494643 105.711929 
L 264.637793 110.212809 
L 265.780943 105.742896 
L 266.924093 100.037203 
L 268.067242 92.583078 
L 269.210392 88.79201 
L 270.353542 87.815688 
L 271.496692 90.997738 
L 272.639842 91.286264 
L 273.782991 93.516155 
L 274.926141 94.845794 
L 276.069291 94.70477 
L 277.212441 94.381288 
L 278.355591 93.603524 
L 279.49874 91.796407 
L 280.64189 86.13484 
L 281.78504 85.476207 
L 282.92819 89.43721 
L 284.07134 97.343167 
L 287.500789 131.121603 
L 288.643939 139.731139 
L 289.787089 143.780031 
L 290.930238 145.580981 
L 292.073388 138.85372 
L 293.216538 133.212455 
L 296.645988 112.147771 
L 297.789137 106.223093 
L 298.932287 104.524513 
L 300.075437 103.999509 
L 301.218587 106.165588 
L 302.361737 112.635027 
L 303.504886 117.295327 
L 304.648036 125.49967 
L 305.791186 129.720373 
L 306.934336 130.059881 
L 308.077486 126.252233 
L 309.220635 120.752329 
L 310.363785 116.351537 
L 311.506935 108.653112 
L 312.650085 106.801766 
L 313.793235 111.46501 
L 314.936384 120.837979 
L 316.079534 136.271754 
L 318.365834 161.845556 
L 319.508984 170.874022 
L 320.652133 177.223309 
L 321.795283 182.727848 
L 324.081583 173.28361 
L 325.224733 167.088425 
L 328.654182 136.373462 
L 330.940482 119.386092 
L 332.083632 113.643891 
L 333.226781 113.545703 
L 334.369931 111.382494 
L 335.513081 111.497746 
L 336.656231 114.39058 
L 337.799381 116.277223 
L 338.94253 120.175438 
L 340.08568 123.546211 
L 341.22883 124.300006 
L 342.37198 124.22938 
L 346.944579 116.349016 
L 349.230879 113.324375 
L 351.517178 115.993258 
L 352.660328 119.056398 
L 353.803478 122.847343 
L 354.946628 126.020067 
L 356.089778 124.254132 
L 357.232927 128.424215 
L 358.376077 136.197259 
L 359.519227 151.260324 
L 360.662377 161.029006 
L 361.805527 167.859692 
L 362.948676 171.660163 
L 364.091826 171.008617 
L 365.234976 165.232539 
L 366.378126 156.363407 
L 367.521276 141.603576 
L 368.664425 133.8174 
L 369.807575 130.123469 
L 370.950725 132.163501 
L 372.093875 129.474005 
L 373.237025 127.843171 
L 375.523324 126.776159 
L 376.666474 126.495541 
L 377.809624 128.98414 
L 378.952774 131.024913 
L 380.095923 133.358163 
L 381.239073 136.385149 
L 382.382223 140.210415 
L 383.525373 144.938506 
L 384.668523 150.673967 
L 384.668523 150.673967 
" style="fill:none;stroke:#ff7f0e;stroke-linecap:square;stroke-width:1.5;"/>
   </g>
   <g id="line2d_17">
    <path clip-path="url(#p96ec483fb9)" d="M 60.013977 37.661951 
L 61.157127 34.723564 
L 62.300277 37.314784 
L 63.443427 43.972593 
L 64.586577 53.233971 
L 65.729726 63.6359 
L 68.016026 79.072626 
L 69.159176 84.101536 
L 70.302326 86.09402 
L 71.445475 84.870131 
L 72.588625 82.883845 
L 73.731775 81.519275 
L 74.874925 83.876243 
L 76.018075 88.988849 
L 77.161224 92.325415 
L 78.304374 97.306336 
L 79.447524 101.755287 
L 80.590674 104.102936 
L 81.733824 103.615158 
L 82.876973 103.518145 
L 84.020123 105.377755 
L 85.163273 112.060384 
L 86.306423 117.95566 
L 87.449573 120.989293 
L 88.592722 126.739634 
L 89.735872 129.026793 
L 90.879022 126.328403 
L 93.165322 111.685352 
L 95.451621 104.214257 
L 96.594771 107.115726 
L 97.737921 110.429528 
L 100.024221 131.673813 
L 101.16737 135.00008 
L 102.31052 133.929946 
L 103.45367 131.049964 
L 104.59682 129.845032 
L 105.73997 129.943461 
L 106.883119 125.981272 
L 108.026269 124.37382 
L 109.169419 120.434788 
L 111.455719 133.43514 
L 112.598868 145.379723 
L 116.028318 174.198991 
L 117.171468 180.166609 
L 118.314617 176.954461 
L 119.457767 164.820644 
L 120.600917 150.472325 
L 121.744067 147.970167 
L 124.030367 165.785107 
L 125.173516 169.017283 
L 127.459816 179.98666 
L 128.602966 179.544842 
L 129.746116 177.116836 
L 130.889265 169.034631 
L 132.032415 163.31635 
L 133.175565 161.539525 
L 134.318715 164.931306 
L 135.461865 162.738458 
L 137.748164 172.126771 
L 138.891314 174.134054 
L 140.034464 178.308068 
L 141.177614 179.200078 
L 142.320763 174.097948 
L 143.463913 167.222021 
L 145.750213 145.757566 
L 146.893363 144.008043 
L 148.036512 146.972982 
L 149.179662 146.498337 
L 150.322812 143.207611 
L 151.465962 148.452167 
L 152.609112 154.813019 
L 153.752262 169.070715 
L 154.895411 178.0046 
L 156.038561 179.391651 
L 157.181711 174.790159 
L 158.324861 175.280119 
L 159.468011 171.488636 
L 160.61116 166.08701 
L 161.75431 159.320665 
L 162.89746 161.61559 
L 164.04061 167.842865 
L 165.18376 181.107182 
L 167.470059 196.057128 
L 168.613209 197.056582 
L 169.756359 197.684662 
L 170.899509 194.775083 
L 173.185808 186.542676 
L 174.328958 184.643384 
L 175.472108 179.74475 
L 177.758407 172.302266 
L 178.901557 172.567472 
L 180.044707 170.322749 
L 181.187857 167.213324 
L 182.331007 165.231765 
L 183.474157 166.624163 
L 184.617306 175.41912 
L 185.760456 182.695895 
L 186.903606 183.364791 
L 188.046756 180.208231 
L 189.189906 175.415843 
L 190.333055 171.353573 
L 191.476205 165.499792 
L 192.619355 160.828129 
L 193.762505 160.027828 
L 194.905655 161.422243 
L 196.048804 171.528518 
L 197.191954 180.017317 
L 198.335104 191.940219 
L 199.478254 200.644793 
L 200.621404 207.820796 
L 201.764553 210.143277 
L 202.907703 210.81075 
L 204.050853 213.408557 
L 205.194003 219.567248 
L 206.337153 219.51607 
L 207.480302 224.921457 
L 208.623452 234.982005 
L 209.766602 238.160033 
L 210.909752 230.755197 
L 213.196052 194.631968 
L 214.339201 183.58787 
L 215.482351 189.322347 
L 216.625501 195.800299 
L 217.768651 193.044953 
L 218.911801 186.425928 
L 220.05495 183.380228 
L 221.1981 177.605661 
L 223.4844 161.412877 
L 224.62755 164.918548 
L 225.770699 181.892729 
L 226.913849 204.25819 
L 228.056999 212.771628 
L 229.200149 208.847495 
L 230.343299 196.996678 
L 231.486448 189.229509 
L 233.772748 177.562421 
L 234.915898 177.876248 
L 237.202198 196.926902 
L 238.345347 198.016712 
L 239.488497 193.574363 
L 240.631647 186.433924 
L 241.774797 180.295439 
L 242.917947 168.432324 
L 244.061096 164.356757 
L 245.204246 169.659405 
L 247.490546 208.879068 
L 248.633696 217.314623 
L 249.776845 222.107451 
L 250.919995 217.280259 
L 252.063145 206.528575 
L 253.206295 189.900385 
L 254.349445 169.047794 
L 255.492594 158.78552 
L 256.635744 154.373984 
L 257.778894 161.03906 
L 258.922044 162.316421 
L 261.208343 174.758938 
L 262.351493 175.732467 
L 264.637793 173.341686 
L 265.780943 172.651395 
L 266.924093 170.062493 
L 268.067242 169.374629 
L 269.210392 172.869172 
L 270.353542 179.966716 
L 271.496692 188.412904 
L 272.639842 192.473269 
L 273.782991 195.144606 
L 274.926141 194.806027 
L 276.069291 192.783431 
L 277.212441 185.509284 
L 278.355591 180.908834 
L 279.49874 182.422387 
L 280.64189 194.283625 
L 281.78504 200.869373 
L 282.92819 201.112772 
L 284.07134 191.695809 
L 285.214489 186.712566 
L 286.357639 183.74655 
L 287.500789 187.699744 
L 288.643939 188.575912 
L 289.787089 194.67365 
L 292.073388 217.693013 
L 293.216538 215.059053 
L 294.359688 203.296584 
L 295.502838 185.251373 
L 296.645988 175.676494 
L 297.789137 170.51303 
L 298.932287 173.598681 
L 300.075437 175.294138 
L 301.218587 175.520801 
L 302.361737 183.694643 
L 303.504886 192.940554 
L 304.648036 211.594542 
L 305.791186 219.204063 
L 306.934336 219.451486 
L 308.077486 211.160789 
L 309.220635 199.026508 
L 310.363785 185.287252 
L 312.650085 152.045471 
L 313.793235 154.112151 
L 314.936384 161.902876 
L 316.079534 182.235343 
L 318.365834 213.931004 
L 319.508984 221.979552 
L 320.652133 226.203656 
L 321.795283 223.9433 
L 322.938433 218.880665 
L 324.081583 216.241288 
L 325.224733 222.406609 
L 326.367883 216.275524 
L 327.511032 208.646601 
L 328.654182 194.351156 
L 329.797332 184.199118 
L 330.940482 175.630508 
L 332.083632 175.0965 
L 333.226781 174.879876 
L 334.369931 179.336069 
L 335.513081 184.41584 
L 336.656231 196.988891 
L 337.799381 201.985543 
L 338.94253 201.236715 
L 340.08568 196.08508 
L 341.22883 200.894756 
L 342.37198 209.606506 
L 343.51513 220.477302 
L 344.658279 224.93415 
L 345.801429 220.727045 
L 346.944579 218.565054 
L 348.087729 223.733305 
L 349.230879 236.763303 
L 350.374028 243.931246 
L 351.517178 248.797006 
L 352.660328 251.942219 
L 353.803478 249.422546 
L 354.946628 240.208767 
L 356.089778 228.056681 
L 357.232927 208.942717 
L 358.376077 196.155609 
L 359.519227 185.886957 
L 360.662377 181.358977 
L 362.948676 162.204187 
L 364.091826 158.066802 
L 365.234976 154.862939 
L 366.378126 151.251354 
L 367.521276 155.519138 
L 368.664425 161.967815 
L 369.807575 173.623693 
L 370.950725 182.538282 
L 372.093875 189.033117 
L 373.237025 193.60438 
L 374.380174 193.50363 
L 375.523324 192.250692 
L 376.666474 180.809976 
L 377.809624 173.38721 
L 378.952774 176.568715 
L 380.095923 184.624006 
L 381.239073 196.68089 
L 382.382223 212.197592 
L 383.525373 230.632334 
L 384.668523 251.443339 
L 384.668523 251.443339 
" style="fill:none;stroke:#008000;stroke-linecap:square;stroke-width:1.5;"/>
   </g>
   <g id="patch_3">
    <path d="M 43.78125 288.430125 
L 43.78125 22.318125 
" style="fill:none;stroke:#000000;stroke-linecap:square;stroke-linejoin:miter;stroke-width:0.8;"/>
   </g>
   <g id="patch_4">
    <path d="M 400.90125 288.430125 
L 400.90125 22.318125 
" style="fill:none;stroke:#000000;stroke-linecap:square;stroke-linejoin:miter;stroke-width:0.8;"/>
   </g>
   <g id="patch_5">
    <path d="M 43.78125 288.430125 
L 400.90125 288.430125 
" style="fill:none;stroke:#000000;stroke-linecap:square;stroke-linejoin:miter;stroke-width:0.8;"/>
   </g>
   <g id="patch_6">
    <path d="M 43.78125 22.318125 
L 400.90125 22.318125 
" style="fill:none;stroke:#000000;stroke-linecap:square;stroke-linejoin:miter;stroke-width:0.8;"/>
   </g>
   <g id="text_15">
    <!-- Entropy and Loss. -->
    <defs>
     <path d="M 9.1875 72.90625 
L 59.90625 72.90625 
L 59.90625 58.6875 
L 27.984375 58.6875 
L 27.984375 45.125 
L 58.015625 45.125 
L 58.015625 30.90625 
L 27.984375 30.90625 
L 27.984375 14.203125 
L 60.984375 14.203125 
L 60.984375 0 
L 9.1875 0 
z
" id="DejaVuSans-Bold-69"/>
     <path d="M 63.375 33.296875 
L 63.375 0 
L 45.796875 0 
L 45.796875 5.421875 
L 45.796875 25.484375 
Q 45.796875 32.5625 45.484375 35.25 
Q 45.171875 37.9375 44.390625 39.203125 
Q 43.359375 40.921875 41.59375 41.875 
Q 39.84375 42.828125 37.59375 42.828125 
Q 32.125 42.828125 29 38.59375 
Q 25.875 34.375 25.875 26.90625 
L 25.875 0 
L 8.40625 0 
L 8.40625 54.6875 
L 25.875 54.6875 
L 25.875 46.6875 
Q 29.828125 51.46875 34.265625 53.734375 
Q 38.71875 56 44.09375 56 
Q 53.5625 56 58.46875 50.1875 
Q 63.375 44.390625 63.375 33.296875 
z
" id="DejaVuSans-Bold-110"/>
     <path d="M 27.484375 70.21875 
L 27.484375 54.6875 
L 45.515625 54.6875 
L 45.515625 42.1875 
L 27.484375 42.1875 
L 27.484375 19 
Q 27.484375 15.1875 29 13.84375 
Q 30.515625 12.5 35.015625 12.5 
L 44 12.5 
L 44 0 
L 29 0 
Q 18.65625 0 14.328125 4.3125 
Q 10.015625 8.640625 10.015625 19 
L 10.015625 42.1875 
L 1.3125 42.1875 
L 1.3125 54.6875 
L 10.015625 54.6875 
L 10.015625 70.21875 
z
" id="DejaVuSans-Bold-116"/>
     <path d="M 49.03125 39.796875 
Q 46.734375 40.875 44.453125 41.375 
Q 42.1875 41.890625 39.890625 41.890625 
Q 33.15625 41.890625 29.515625 37.5625 
Q 25.875 33.25 25.875 25.203125 
L 25.875 0 
L 8.40625 0 
L 8.40625 54.6875 
L 25.875 54.6875 
L 25.875 45.703125 
Q 29.25 51.078125 33.609375 53.53125 
Q 37.984375 56 44.09375 56 
Q 44.96875 56 45.984375 55.921875 
Q 47.015625 55.859375 48.96875 55.609375 
z
" id="DejaVuSans-Bold-114"/>
     <path d="M 34.421875 43.5 
Q 28.609375 43.5 25.5625 39.328125 
Q 22.515625 35.15625 22.515625 27.296875 
Q 22.515625 19.4375 25.5625 15.25 
Q 28.609375 11.078125 34.421875 11.078125 
Q 40.140625 11.078125 43.15625 15.25 
Q 46.1875 19.4375 46.1875 27.296875 
Q 46.1875 35.15625 43.15625 39.328125 
Q 40.140625 43.5 34.421875 43.5 
z
M 34.421875 56 
Q 48.53125 56 56.46875 48.375 
Q 64.40625 40.765625 64.40625 27.296875 
Q 64.40625 13.8125 56.46875 6.1875 
Q 48.53125 -1.421875 34.421875 -1.421875 
Q 20.265625 -1.421875 12.28125 6.1875 
Q 4.296875 13.8125 4.296875 27.296875 
Q 4.296875 40.765625 12.28125 48.375 
Q 20.265625 56 34.421875 56 
z
" id="DejaVuSans-Bold-111"/>
     <path d="M 25.875 7.90625 
L 25.875 -20.796875 
L 8.40625 -20.796875 
L 8.40625 54.6875 
L 25.875 54.6875 
L 25.875 46.6875 
Q 29.5 51.46875 33.890625 53.734375 
Q 38.28125 56 44 56 
Q 54.109375 56 60.59375 47.96875 
Q 67.09375 39.9375 67.09375 27.296875 
Q 67.09375 14.65625 60.59375 6.609375 
Q 54.109375 -1.421875 44 -1.421875 
Q 38.28125 -1.421875 33.890625 0.84375 
Q 29.5 3.125 25.875 7.90625 
z
M 37.5 43.3125 
Q 31.890625 43.3125 28.875 39.1875 
Q 25.875 35.0625 25.875 27.296875 
Q 25.875 19.53125 28.875 15.40625 
Q 31.890625 11.28125 37.5 11.28125 
Q 43.109375 11.28125 46.0625 15.375 
Q 49.03125 19.484375 49.03125 27.296875 
Q 49.03125 35.109375 46.0625 39.203125 
Q 43.109375 43.3125 37.5 43.3125 
z
" id="DejaVuSans-Bold-112"/>
     <path d="M 1.21875 54.6875 
L 18.703125 54.6875 
L 33.40625 17.578125 
L 45.90625 54.6875 
L 63.375 54.6875 
L 40.375 -5.171875 
Q 36.921875 -14.3125 32.296875 -17.9375 
Q 27.6875 -21.578125 20.125 -21.578125 
L 10.015625 -21.578125 
L 10.015625 -10.109375 
L 15.484375 -10.109375 
Q 19.921875 -10.109375 21.9375 -8.6875 
Q 23.96875 -7.28125 25.09375 -3.609375 
L 25.59375 -2.09375 
z
" id="DejaVuSans-Bold-121"/>
     <path id="DejaVuSans-Bold-32"/>
     <path d="M 32.90625 24.609375 
Q 27.4375 24.609375 24.671875 22.75 
Q 21.921875 20.90625 21.921875 17.28125 
Q 21.921875 13.96875 24.140625 12.078125 
Q 26.375 10.203125 30.328125 10.203125 
Q 35.25 10.203125 38.625 13.734375 
Q 42 17.28125 42 22.609375 
L 42 24.609375 
z
M 59.625 31.203125 
L 59.625 0 
L 42 0 
L 42 8.109375 
Q 38.484375 3.125 34.078125 0.84375 
Q 29.6875 -1.421875 23.390625 -1.421875 
Q 14.890625 -1.421875 9.59375 3.53125 
Q 4.296875 8.5 4.296875 16.40625 
Q 4.296875 26.03125 10.90625 30.515625 
Q 17.53125 35.015625 31.6875 35.015625 
L 42 35.015625 
L 42 36.375 
Q 42 40.53125 38.71875 42.453125 
Q 35.453125 44.390625 28.515625 44.390625 
Q 22.90625 44.390625 18.0625 43.265625 
Q 13.234375 42.140625 9.078125 39.890625 
L 9.078125 53.21875 
Q 14.703125 54.59375 20.359375 55.296875 
Q 26.03125 56 31.6875 56 
Q 46.484375 56 53.046875 50.171875 
Q 59.625 44.34375 59.625 31.203125 
z
" id="DejaVuSans-Bold-97"/>
     <path d="M 45.609375 46.6875 
L 45.609375 75.984375 
L 63.1875 75.984375 
L 63.1875 0 
L 45.609375 0 
L 45.609375 7.90625 
Q 42 3.078125 37.640625 0.828125 
Q 33.296875 -1.421875 27.59375 -1.421875 
Q 17.484375 -1.421875 10.984375 6.609375 
Q 4.5 14.65625 4.5 27.296875 
Q 4.5 39.9375 10.984375 47.96875 
Q 17.484375 56 27.59375 56 
Q 33.25 56 37.625 53.734375 
Q 42 51.46875 45.609375 46.6875 
z
M 34.078125 11.28125 
Q 39.703125 11.28125 42.65625 15.375 
Q 45.609375 19.484375 45.609375 27.296875 
Q 45.609375 35.109375 42.65625 39.203125 
Q 39.703125 43.3125 34.078125 43.3125 
Q 28.515625 43.3125 25.5625 39.203125 
Q 22.609375 35.109375 22.609375 27.296875 
Q 22.609375 19.484375 25.5625 15.375 
Q 28.515625 11.28125 34.078125 11.28125 
z
" id="DejaVuSans-Bold-100"/>
     <path d="M 9.1875 72.90625 
L 27.984375 72.90625 
L 27.984375 14.203125 
L 60.984375 14.203125 
L 60.984375 0 
L 9.1875 0 
z
" id="DejaVuSans-Bold-76"/>
     <path d="M 51.125 52.984375 
L 51.125 39.703125 
Q 45.515625 42.046875 40.28125 43.21875 
Q 35.0625 44.390625 30.421875 44.390625 
Q 25.4375 44.390625 23.015625 43.140625 
Q 20.609375 41.890625 20.609375 39.3125 
Q 20.609375 37.203125 22.4375 36.078125 
Q 24.265625 34.96875 29 34.421875 
L 32.078125 33.984375 
Q 45.515625 32.28125 50.140625 28.375 
Q 54.78125 24.46875 54.78125 16.109375 
Q 54.78125 7.375 48.328125 2.96875 
Q 41.890625 -1.421875 29.109375 -1.421875 
Q 23.6875 -1.421875 17.890625 -0.5625 
Q 12.109375 0.296875 6 2 
L 6 15.28125 
Q 11.234375 12.75 16.71875 11.46875 
Q 22.21875 10.203125 27.875 10.203125 
Q 33.015625 10.203125 35.59375 11.609375 
Q 38.1875 13.03125 38.1875 15.828125 
Q 38.1875 18.171875 36.40625 19.3125 
Q 34.625 20.453125 29.296875 21.09375 
L 26.21875 21.484375 
Q 14.546875 22.953125 9.859375 26.90625 
Q 5.171875 30.859375 5.171875 38.921875 
Q 5.171875 47.609375 11.125 51.796875 
Q 17.09375 56 29.390625 56 
Q 34.234375 56 39.546875 55.265625 
Q 44.875 54.546875 51.125 52.984375 
z
" id="DejaVuSans-Bold-115"/>
     <path d="M 10.203125 18.890625 
L 27.78125 18.890625 
L 27.78125 0 
L 10.203125 0 
z
" id="DejaVuSans-Bold-46"/>
    </defs>
    <g transform="translate(161.657813 16.318125)scale(0.12 -0.12)">
     <use xlink:href="#DejaVuSans-Bold-69"/>
     <use x="68.310547" xlink:href="#DejaVuSans-Bold-110"/>
     <use x="139.501953" xlink:href="#DejaVuSans-Bold-116"/>
     <use x="187.304688" xlink:href="#DejaVuSans-Bold-114"/>
     <use x="236.621094" xlink:href="#DejaVuSans-Bold-111"/>
     <use x="305.322266" xlink:href="#DejaVuSans-Bold-112"/>
     <use x="376.904297" xlink:href="#DejaVuSans-Bold-121"/>
     <use x="442.089844" xlink:href="#DejaVuSans-Bold-32"/>
     <use x="476.904297" xlink:href="#DejaVuSans-Bold-97"/>
     <use x="544.384766" xlink:href="#DejaVuSans-Bold-110"/>
     <use x="615.576172" xlink:href="#DejaVuSans-Bold-100"/>
     <use x="687.158203" xlink:href="#DejaVuSans-Bold-32"/>
     <use x="721.972656" xlink:href="#DejaVuSans-Bold-76"/>
     <use x="785.693359" xlink:href="#DejaVuSans-Bold-111"/>
     <use x="854.394531" xlink:href="#DejaVuSans-Bold-115"/>
     <use x="913.916016" xlink:href="#DejaVuSans-Bold-115"/>
     <use x="973.4375" xlink:href="#DejaVuSans-Bold-46"/>
    </g>
   </g>
   <g id="legend_1">
    <g id="patch_7">
     <path d="M 18.982656 353.02505 
L 429.699844 353.02505 
Q 431.699844 353.02505 431.699844 351.02505 
L 431.699844 337.346925 
Q 431.699844 335.346925 429.699844 335.346925 
L 18.982656 335.346925 
Q 16.982656 335.346925 16.982656 337.346925 
L 16.982656 351.02505 
Q 16.982656 353.02505 18.982656 353.02505 
z
" style="fill:#4c4c4c;opacity:0.5;stroke:#4c4c4c;stroke-linejoin:miter;"/>
    </g>
    <g id="patch_8">
     <path d="M 16.982656 351.02505 
L 427.699844 351.02505 
Q 429.699844 351.02505 429.699844 349.02505 
L 429.699844 335.346925 
Q 429.699844 333.346925 427.699844 333.346925 
L 16.982656 333.346925 
Q 14.982656 333.346925 14.982656 335.346925 
L 14.982656 349.02505 
Q 14.982656 351.02505 16.982656 351.02505 
z
" style="fill:#ffffff;stroke:#cccccc;stroke-linejoin:miter;"/>
    </g>
    <g id="line2d_18">
     <path d="M 18.982656 341.445362 
L 38.982656 341.445362 
" style="fill:none;stroke:#1f77b4;stroke-linecap:square;stroke-width:1.5;"/>
    </g>
    <g id="line2d_19"/>
    <g id="text_16">
     <!-- Policy Loss (Normalized) -->
     <defs>
      <path d="M 19.671875 64.796875 
L 19.671875 37.40625 
L 32.078125 37.40625 
Q 38.96875 37.40625 42.71875 40.96875 
Q 46.484375 44.53125 46.484375 51.125 
Q 46.484375 57.671875 42.71875 61.234375 
Q 38.96875 64.796875 32.078125 64.796875 
z
M 9.8125 72.90625 
L 32.078125 72.90625 
Q 44.34375 72.90625 50.609375 67.359375 
Q 56.890625 61.8125 56.890625 51.125 
Q 56.890625 40.328125 50.609375 34.8125 
Q 44.34375 29.296875 32.078125 29.296875 
L 19.671875 29.296875 
L 19.671875 0 
L 9.8125 0 
z
" id="DejaVuSans-80"/>
      <path d="M 9.421875 75.984375 
L 18.40625 75.984375 
L 18.40625 0 
L 9.421875 0 
z
" id="DejaVuSans-108"/>
      <path d="M 9.421875 54.6875 
L 18.40625 54.6875 
L 18.40625 0 
L 9.421875 0 
z
M 9.421875 75.984375 
L 18.40625 75.984375 
L 18.40625 64.59375 
L 9.421875 64.59375 
z
" id="DejaVuSans-105"/>
      <path d="M 32.171875 -5.078125 
Q 28.375 -14.84375 24.75 -17.8125 
Q 21.140625 -20.796875 15.09375 -20.796875 
L 7.90625 -20.796875 
L 7.90625 -13.28125 
L 13.1875 -13.28125 
Q 16.890625 -13.28125 18.9375 -11.515625 
Q 21 -9.765625 23.484375 -3.21875 
L 25.09375 0.875 
L 2.984375 54.6875 
L 12.5 54.6875 
L 29.59375 11.921875 
L 46.6875 54.6875 
L 56.203125 54.6875 
z
" id="DejaVuSans-121"/>
      <path id="DejaVuSans-32"/>
      <path d="M 31 75.875 
Q 24.46875 64.65625 21.28125 53.65625 
Q 18.109375 42.671875 18.109375 31.390625 
Q 18.109375 20.125 21.3125 9.0625 
Q 24.515625 -2 31 -13.1875 
L 23.1875 -13.1875 
Q 15.875 -1.703125 12.234375 9.375 
Q 8.59375 20.453125 8.59375 31.390625 
Q 8.59375 42.28125 12.203125 53.3125 
Q 15.828125 64.359375 23.1875 75.875 
z
" id="DejaVuSans-40"/>
      <path d="M 9.8125 72.90625 
L 23.09375 72.90625 
L 55.421875 11.921875 
L 55.421875 72.90625 
L 64.984375 72.90625 
L 64.984375 0 
L 51.703125 0 
L 19.390625 60.984375 
L 19.390625 0 
L 9.8125 0 
z
" id="DejaVuSans-78"/>
      <path d="M 41.109375 46.296875 
Q 39.59375 47.171875 37.8125 47.578125 
Q 36.03125 48 33.890625 48 
Q 26.265625 48 22.1875 43.046875 
Q 18.109375 38.09375 18.109375 28.8125 
L 18.109375 0 
L 9.078125 0 
L 9.078125 54.6875 
L 18.109375 54.6875 
L 18.109375 46.1875 
Q 20.953125 51.171875 25.484375 53.578125 
Q 30.03125 56 36.53125 56 
Q 37.453125 56 38.578125 55.875 
Q 39.703125 55.765625 41.0625 55.515625 
z
" id="DejaVuSans-114"/>
      <path d="M 52 44.1875 
Q 55.375 50.25 60.0625 53.125 
Q 64.75 56 71.09375 56 
Q 79.640625 56 84.28125 50.015625 
Q 88.921875 44.046875 88.921875 33.015625 
L 88.921875 0 
L 79.890625 0 
L 79.890625 32.71875 
Q 79.890625 40.578125 77.09375 44.375 
Q 74.3125 48.1875 68.609375 48.1875 
Q 61.625 48.1875 57.5625 43.546875 
Q 53.515625 38.921875 53.515625 30.90625 
L 53.515625 0 
L 44.484375 0 
L 44.484375 32.71875 
Q 44.484375 40.625 41.703125 44.40625 
Q 38.921875 48.1875 33.109375 48.1875 
Q 26.21875 48.1875 22.15625 43.53125 
Q 18.109375 38.875 18.109375 30.90625 
L 18.109375 0 
L 9.078125 0 
L 9.078125 54.6875 
L 18.109375 54.6875 
L 18.109375 46.1875 
Q 21.1875 51.21875 25.484375 53.609375 
Q 29.78125 56 35.6875 56 
Q 41.65625 56 45.828125 52.96875 
Q 50 49.953125 52 44.1875 
z
" id="DejaVuSans-109"/>
      <path d="M 34.28125 27.484375 
Q 23.390625 27.484375 19.1875 25 
Q 14.984375 22.515625 14.984375 16.5 
Q 14.984375 11.71875 18.140625 8.90625 
Q 21.296875 6.109375 26.703125 6.109375 
Q 34.1875 6.109375 38.703125 11.40625 
Q 43.21875 16.703125 43.21875 25.484375 
L 43.21875 27.484375 
z
M 52.203125 31.203125 
L 52.203125 0 
L 43.21875 0 
L 43.21875 8.296875 
Q 40.140625 3.328125 35.546875 0.953125 
Q 30.953125 -1.421875 24.3125 -1.421875 
Q 15.921875 -1.421875 10.953125 3.296875 
Q 6 8.015625 6 15.921875 
Q 6 25.140625 12.171875 29.828125 
Q 18.359375 34.515625 30.609375 34.515625 
L 43.21875 34.515625 
L 43.21875 35.40625 
Q 43.21875 41.609375 39.140625 45 
Q 35.0625 48.390625 27.6875 48.390625 
Q 23 48.390625 18.546875 47.265625 
Q 14.109375 46.140625 10.015625 43.890625 
L 10.015625 52.203125 
Q 14.9375 54.109375 19.578125 55.046875 
Q 24.21875 56 28.609375 56 
Q 40.484375 56 46.34375 49.84375 
Q 52.203125 43.703125 52.203125 31.203125 
z
" id="DejaVuSans-97"/>
      <path d="M 5.515625 54.6875 
L 48.1875 54.6875 
L 48.1875 46.484375 
L 14.40625 7.171875 
L 48.1875 7.171875 
L 48.1875 0 
L 4.296875 0 
L 4.296875 8.203125 
L 38.09375 47.515625 
L 5.515625 47.515625 
z
" id="DejaVuSans-122"/>
      <path d="M 56.203125 29.59375 
L 56.203125 25.203125 
L 14.890625 25.203125 
Q 15.484375 15.921875 20.484375 11.0625 
Q 25.484375 6.203125 34.421875 6.203125 
Q 39.59375 6.203125 44.453125 7.46875 
Q 49.3125 8.734375 54.109375 11.28125 
L 54.109375 2.78125 
Q 49.265625 0.734375 44.1875 -0.34375 
Q 39.109375 -1.421875 33.890625 -1.421875 
Q 20.796875 -1.421875 13.15625 6.1875 
Q 5.515625 13.8125 5.515625 26.8125 
Q 5.515625 40.234375 12.765625 48.109375 
Q 20.015625 56 32.328125 56 
Q 43.359375 56 49.78125 48.890625 
Q 56.203125 41.796875 56.203125 29.59375 
z
M 47.21875 32.234375 
Q 47.125 39.59375 43.09375 43.984375 
Q 39.0625 48.390625 32.421875 48.390625 
Q 24.90625 48.390625 20.390625 44.140625 
Q 15.875 39.890625 15.1875 32.171875 
z
" id="DejaVuSans-101"/>
      <path d="M 45.40625 46.390625 
L 45.40625 75.984375 
L 54.390625 75.984375 
L 54.390625 0 
L 45.40625 0 
L 45.40625 8.203125 
Q 42.578125 3.328125 38.25 0.953125 
Q 33.9375 -1.421875 27.875 -1.421875 
Q 17.96875 -1.421875 11.734375 6.484375 
Q 5.515625 14.40625 5.515625 27.296875 
Q 5.515625 40.1875 11.734375 48.09375 
Q 17.96875 56 27.875 56 
Q 33.9375 56 38.25 53.625 
Q 42.578125 51.265625 45.40625 46.390625 
z
M 14.796875 27.296875 
Q 14.796875 17.390625 18.875 11.75 
Q 22.953125 6.109375 30.078125 6.109375 
Q 37.203125 6.109375 41.296875 11.75 
Q 45.40625 17.390625 45.40625 27.296875 
Q 45.40625 37.203125 41.296875 42.84375 
Q 37.203125 48.484375 30.078125 48.484375 
Q 22.953125 48.484375 18.875 42.84375 
Q 14.796875 37.203125 14.796875 27.296875 
z
" id="DejaVuSans-100"/>
      <path d="M 8.015625 75.875 
L 15.828125 75.875 
Q 23.140625 64.359375 26.78125 53.3125 
Q 30.421875 42.28125 30.421875 31.390625 
Q 30.421875 20.453125 26.78125 9.375 
Q 23.140625 -1.703125 15.828125 -13.1875 
L 8.015625 -13.1875 
Q 14.5 -2 17.703125 9.0625 
Q 20.90625 20.125 20.90625 31.390625 
Q 20.90625 42.671875 17.703125 53.65625 
Q 14.5 64.65625 8.015625 75.875 
z
" id="DejaVuSans-41"/>
     </defs>
     <g transform="translate(46.982656 344.945362)scale(0.1 -0.1)">
      <use xlink:href="#DejaVuSans-80"/>
      <use x="60.255859" xlink:href="#DejaVuSans-111"/>
      <use x="121.4375" xlink:href="#DejaVuSans-108"/>
      <use x="149.220703" xlink:href="#DejaVuSans-105"/>
      <use x="177.003906" xlink:href="#DejaVuSans-99"/>
      <use x="231.984375" xlink:href="#DejaVuSans-121"/>
      <use x="291.164062" xlink:href="#DejaVuSans-32"/>
      <use x="322.951172" xlink:href="#DejaVuSans-76"/>
      <use x="378.648438" xlink:href="#DejaVuSans-111"/>
      <use x="439.830078" xlink:href="#DejaVuSans-115"/>
      <use x="491.929688" xlink:href="#DejaVuSans-115"/>
      <use x="544.029297" xlink:href="#DejaVuSans-32"/>
      <use x="575.816406" xlink:href="#DejaVuSans-40"/>
      <use x="614.830078" xlink:href="#DejaVuSans-78"/>
      <use x="689.634766" xlink:href="#DejaVuSans-111"/>
      <use x="750.816406" xlink:href="#DejaVuSans-114"/>
      <use x="791.914062" xlink:href="#DejaVuSans-109"/>
      <use x="889.326172" xlink:href="#DejaVuSans-97"/>
      <use x="950.605469" xlink:href="#DejaVuSans-108"/>
      <use x="978.388672" xlink:href="#DejaVuSans-105"/>
      <use x="1006.171875" xlink:href="#DejaVuSans-122"/>
      <use x="1058.662109" xlink:href="#DejaVuSans-101"/>
      <use x="1120.185547" xlink:href="#DejaVuSans-100"/>
      <use x="1183.662109" xlink:href="#DejaVuSans-41"/>
     </g>
    </g>
    <g id="line2d_20">
     <path d="M 189.251406 341.445362 
L 209.251406 341.445362 
" style="fill:none;stroke:#ff7f0e;stroke-linecap:square;stroke-width:1.5;"/>
    </g>
    <g id="line2d_21"/>
    <g id="text_17">
     <!-- Value Loss (Normalized) -->
     <defs>
      <path d="M 28.609375 0 
L 0.78125 72.90625 
L 11.078125 72.90625 
L 34.1875 11.53125 
L 57.328125 72.90625 
L 67.578125 72.90625 
L 39.796875 0 
z
" id="DejaVuSans-86"/>
      <path d="M 8.5 21.578125 
L 8.5 54.6875 
L 17.484375 54.6875 
L 17.484375 21.921875 
Q 17.484375 14.15625 20.5 10.265625 
Q 23.53125 6.390625 29.59375 6.390625 
Q 36.859375 6.390625 41.078125 11.03125 
Q 45.3125 15.671875 45.3125 23.6875 
L 45.3125 54.6875 
L 54.296875 54.6875 
L 54.296875 0 
L 45.3125 0 
L 45.3125 8.40625 
Q 42.046875 3.421875 37.71875 1 
Q 33.40625 -1.421875 27.6875 -1.421875 
Q 18.265625 -1.421875 13.375 4.4375 
Q 8.5 10.296875 8.5 21.578125 
z
M 31.109375 56 
z
" id="DejaVuSans-117"/>
     </defs>
     <g transform="translate(217.251406 344.945362)scale(0.1 -0.1)">
      <use xlink:href="#DejaVuSans-86"/>
      <use x="68.298828" xlink:href="#DejaVuSans-97"/>
      <use x="129.578125" xlink:href="#DejaVuSans-108"/>
      <use x="157.361328" xlink:href="#DejaVuSans-117"/>
      <use x="220.740234" xlink:href="#DejaVuSans-101"/>
      <use x="282.263672" xlink:href="#DejaVuSans-32"/>
      <use x="314.050781" xlink:href="#DejaVuSans-76"/>
      <use x="369.748047" xlink:href="#DejaVuSans-111"/>
      <use x="430.929688" xlink:href="#DejaVuSans-115"/>
      <use x="483.029297" xlink:href="#DejaVuSans-115"/>
      <use x="535.128906" xlink:href="#DejaVuSans-32"/>
      <use x="566.916016" xlink:href="#DejaVuSans-40"/>
      <use x="605.929688" xlink:href="#DejaVuSans-78"/>
      <use x="680.734375" xlink:href="#DejaVuSans-111"/>
      <use x="741.916016" xlink:href="#DejaVuSans-114"/>
      <use x="783.013672" xlink:href="#DejaVuSans-109"/>
      <use x="880.425781" xlink:href="#DejaVuSans-97"/>
      <use x="941.705078" xlink:href="#DejaVuSans-108"/>
      <use x="969.488281" xlink:href="#DejaVuSans-105"/>
      <use x="997.271484" xlink:href="#DejaVuSans-122"/>
      <use x="1049.761719" xlink:href="#DejaVuSans-101"/>
      <use x="1111.285156" xlink:href="#DejaVuSans-100"/>
      <use x="1174.761719" xlink:href="#DejaVuSans-41"/>
     </g>
    </g>
    <g id="line2d_22">
     <path d="M 358.629531 341.445362 
L 378.629531 341.445362 
" style="fill:none;stroke:#008000;stroke-linecap:square;stroke-width:1.5;"/>
    </g>
    <g id="line2d_23"/>
    <g id="text_18">
     <!-- Entropy -->
     <defs>
      <path d="M 54.890625 33.015625 
L 54.890625 0 
L 45.90625 0 
L 45.90625 32.71875 
Q 45.90625 40.484375 42.875 44.328125 
Q 39.84375 48.1875 33.796875 48.1875 
Q 26.515625 48.1875 22.3125 43.546875 
Q 18.109375 38.921875 18.109375 30.90625 
L 18.109375 0 
L 9.078125 0 
L 9.078125 54.6875 
L 18.109375 54.6875 
L 18.109375 46.1875 
Q 21.34375 51.125 25.703125 53.5625 
Q 30.078125 56 35.796875 56 
Q 45.21875 56 50.046875 50.171875 
Q 54.890625 44.34375 54.890625 33.015625 
z
" id="DejaVuSans-110"/>
      <path d="M 18.3125 70.21875 
L 18.3125 54.6875 
L 36.8125 54.6875 
L 36.8125 47.703125 
L 18.3125 47.703125 
L 18.3125 18.015625 
Q 18.3125 11.328125 20.140625 9.421875 
Q 21.96875 7.515625 27.59375 7.515625 
L 36.8125 7.515625 
L 36.8125 0 
L 27.59375 0 
Q 17.1875 0 13.234375 3.875 
Q 9.28125 7.765625 9.28125 18.015625 
L 9.28125 47.703125 
L 2.6875 47.703125 
L 2.6875 54.6875 
L 9.28125 54.6875 
L 9.28125 70.21875 
z
" id="DejaVuSans-116"/>
     </defs>
     <g transform="translate(386.629531 344.945362)scale(0.1 -0.1)">
      <use xlink:href="#DejaVuSans-69"/>
      <use x="63.183594" xlink:href="#DejaVuSans-110"/>
      <use x="126.5625" xlink:href="#DejaVuSans-116"/>
      <use x="165.771484" xlink:href="#DejaVuSans-114"/>
      <use x="206.853516" xlink:href="#DejaVuSans-111"/>
      <use x="268.035156" xlink:href="#DejaVuSans-112"/>
      <use x="331.511719" xlink:href="#DejaVuSans-121"/>
     </g>
    </g>
   </g>
  </g>
  <g id="axes_2">
   <g id="matplotlib.axis_3">
    <g id="ytick_7">
     <g id="line2d_24">
      <defs>
       <path d="M 0 0 
L 3.5 0 
" id="mc4efb2a496" style="stroke:#000000;stroke-width:0.8;"/>
      </defs>
      <g>
       <use style="stroke:#000000;stroke-width:0.8;" x="400.90125" xlink:href="#mc4efb2a496" y="284.991653"/>
      </g>
     </g>
     <g id="text_19">
      <!-- 0.45 -->
      <g transform="translate(407.90125 288.790872)scale(0.1 -0.1)">
       <use xlink:href="#DejaVuSans-48"/>
       <use x="63.623047" xlink:href="#DejaVuSans-46"/>
       <use x="95.410156" xlink:href="#DejaVuSans-52"/>
       <use x="159.033203" xlink:href="#DejaVuSans-53"/>
      </g>
     </g>
    </g>
    <g id="ytick_8">
     <g id="line2d_25">
      <g>
       <use style="stroke:#000000;stroke-width:0.8;" x="400.90125" xlink:href="#mc4efb2a496" y="233.350718"/>
      </g>
     </g>
     <g id="text_20">
      <!-- 0.50 -->
      <g transform="translate(407.90125 237.149937)scale(0.1 -0.1)">
       <use xlink:href="#DejaVuSans-48"/>
       <use x="63.623047" xlink:href="#DejaVuSans-46"/>
       <use x="95.410156" xlink:href="#DejaVuSans-53"/>
       <use x="159.033203" xlink:href="#DejaVuSans-48"/>
      </g>
     </g>
    </g>
    <g id="ytick_9">
     <g id="line2d_26">
      <g>
       <use style="stroke:#000000;stroke-width:0.8;" x="400.90125" xlink:href="#mc4efb2a496" y="181.709783"/>
      </g>
     </g>
     <g id="text_21">
      <!-- 0.55 -->
      <g transform="translate(407.90125 185.509001)scale(0.1 -0.1)">
       <use xlink:href="#DejaVuSans-48"/>
       <use x="63.623047" xlink:href="#DejaVuSans-46"/>
       <use x="95.410156" xlink:href="#DejaVuSans-53"/>
       <use x="159.033203" xlink:href="#DejaVuSans-53"/>
      </g>
     </g>
    </g>
    <g id="ytick_10">
     <g id="line2d_27">
      <g>
       <use style="stroke:#000000;stroke-width:0.8;" x="400.90125" xlink:href="#mc4efb2a496" y="130.068847"/>
      </g>
     </g>
     <g id="text_22">
      <!-- 0.60 -->
      <g transform="translate(407.90125 133.868066)scale(0.1 -0.1)">
       <use xlink:href="#DejaVuSans-48"/>
       <use x="63.623047" xlink:href="#DejaVuSans-46"/>
       <use x="95.410156" xlink:href="#DejaVuSans-54"/>
       <use x="159.033203" xlink:href="#DejaVuSans-48"/>
      </g>
     </g>
    </g>
    <g id="ytick_11">
     <g id="line2d_28">
      <g>
       <use style="stroke:#000000;stroke-width:0.8;" x="400.90125" xlink:href="#mc4efb2a496" y="78.427912"/>
      </g>
     </g>
     <g id="text_23">
      <!-- 0.65 -->
      <g transform="translate(407.90125 82.227131)scale(0.1 -0.1)">
       <use xlink:href="#DejaVuSans-48"/>
       <use x="63.623047" xlink:href="#DejaVuSans-46"/>
       <use x="95.410156" xlink:href="#DejaVuSans-54"/>
       <use x="159.033203" xlink:href="#DejaVuSans-53"/>
      </g>
     </g>
    </g>
    <g id="ytick_12">
     <g id="line2d_29">
      <g>
       <use style="stroke:#000000;stroke-width:0.8;" x="400.90125" xlink:href="#mc4efb2a496" y="26.786977"/>
      </g>
     </g>
     <g id="text_24">
      <!-- 0.70 -->
      <defs>
       <path d="M 8.203125 72.90625 
L 55.078125 72.90625 
L 55.078125 68.703125 
L 28.609375 0 
L 18.3125 0 
L 43.21875 64.59375 
L 8.203125 64.59375 
z
" id="DejaVuSans-55"/>
      </defs>
      <g transform="translate(407.90125 30.586196)scale(0.1 -0.1)">
       <use xlink:href="#DejaVuSans-48"/>
       <use x="63.623047" xlink:href="#DejaVuSans-46"/>
       <use x="95.410156" xlink:href="#DejaVuSans-55"/>
       <use x="159.033203" xlink:href="#DejaVuSans-48"/>
      </g>
     </g>
    </g>
    <g id="text_25">
     <!-- Entropy -->
     <g transform="translate(441.765312 174.909281)rotate(-90)scale(0.1 -0.1)">
      <use xlink:href="#DejaVuSans-69"/>
      <use x="63.183594" xlink:href="#DejaVuSans-110"/>
      <use x="126.5625" xlink:href="#DejaVuSans-116"/>
      <use x="165.771484" xlink:href="#DejaVuSans-114"/>
      <use x="206.853516" xlink:href="#DejaVuSans-111"/>
      <use x="268.035156" xlink:href="#DejaVuSans-112"/>
      <use x="331.511719" xlink:href="#DejaVuSans-121"/>
     </g>
    </g>
   </g>
   <g id="line2d_30">
    <path clip-path="url(#p96ec483fb9)" d="M 60.013977 34.414125 
L 62.300277 41.595684 
L 63.443427 43.564583 
L 64.586577 50.348951 
L 65.729726 59.826851 
L 66.872876 71.224832 
L 69.159176 97.647832 
L 70.302326 79.230566 
L 71.445475 82.59868 
L 72.588625 85.385907 
L 73.731775 78.811707 
L 74.874925 80.8506 
L 76.018075 83.143001 
L 77.161224 95.268507 
L 78.304374 101.37189 
L 79.447524 108.099253 
L 80.590674 98.541571 
L 82.876973 109.497853 
L 84.020123 101.335077 
L 85.163273 105.108753 
L 86.306423 108.465048 
L 87.449573 129.18838 
L 88.592722 133.455528 
L 89.735872 139.964597 
L 90.879022 113.147115 
L 92.022172 119.846407 
L 93.165322 127.34919 
L 94.308472 95.016416 
L 96.594771 100.971006 
L 97.737921 121.458192 
L 100.024221 116.636319 
L 101.16737 144.393834 
L 102.31052 147.052891 
L 103.45367 150.872738 
L 104.59682 110.079233 
L 105.73997 113.665334 
L 106.883119 119.608167 
L 108.026269 134.895497 
L 109.169419 136.69812 
L 110.312569 138.709003 
L 111.455719 117.118956 
L 112.598868 122.968709 
L 113.742018 132.229914 
L 114.885168 193.82832 
L 116.028318 193.978282 
L 117.171468 191.973555 
L 118.314617 157.010657 
L 119.457767 161.093615 
L 120.600917 166.961467 
L 121.744067 137.76663 
L 122.887217 140.600335 
L 124.030367 145.604058 
L 125.173516 183.641117 
L 126.316666 200.570335 
L 127.459816 203.269837 
L 128.602966 148.159446 
L 130.889265 177.368195 
L 132.032415 166.838653 
L 133.175565 168.107975 
L 134.318715 170.066962 
L 135.461865 152.745356 
L 136.605014 159.111604 
L 137.748164 167.048206 
L 138.891314 177.676615 
L 140.034464 186.173236 
L 141.177614 198.536243 
L 142.320763 157.972975 
L 143.463913 162.432685 
L 144.607063 168.617452 
L 145.750213 139.483376 
L 146.893363 142.403512 
L 148.036512 144.044723 
L 149.179662 133.731813 
L 150.322812 150.064568 
L 151.465962 178.525231 
L 152.609112 144.555 
L 153.752262 147.024635 
L 154.895411 149.847197 
L 156.038561 203.645543 
L 157.181711 204.091366 
L 158.324861 203.94479 
L 159.468011 141.382342 
L 160.61116 142.296643 
L 161.75431 143.874446 
L 162.89746 178.074236 
L 164.04061 180.316096 
L 165.18376 182.849384 
L 166.326909 186.995565 
L 168.613209 189.235146 
L 169.756359 204.52106 
L 170.899509 205.227162 
L 172.042658 205.415292 
L 173.185808 172.260558 
L 174.328958 172.09736 
L 175.472108 172.066642 
L 176.615258 182.856463 
L 177.758407 184.131264 
L 178.901557 185.598135 
L 180.044707 156.924103 
L 181.187857 158.660671 
L 182.331007 161.059634 
L 183.474157 174.412292 
L 184.617306 174.302345 
L 185.760456 174.314965 
L 186.903606 186.912765 
L 188.046756 190.982611 
L 189.189906 196.554909 
L 190.333055 151.260387 
L 191.476205 154.635334 
L 192.619355 158.471002 
L 193.762505 167.643499 
L 196.048804 165.480991 
L 197.191954 181.631219 
L 198.335104 185.125717 
L 199.478254 190.741046 
L 200.621404 221.541819 
L 201.764553 223.263736 
L 202.907703 223.22169 
L 204.050853 196.753812 
L 205.194003 203.744902 
L 206.337153 208.054834 
L 207.480302 235.45702 
L 208.623452 245.797664 
L 209.766602 248.812911 
L 210.909752 211.025573 
L 212.052902 235.447786 
L 213.196052 217.980342 
L 214.339201 157.917755 
L 215.482351 159.907031 
L 216.625501 159.755776 
L 217.768651 217.294801 
L 220.05495 238.775393 
L 221.1981 144.843659 
L 222.34125 123.814062 
L 223.4844 125.73445 
L 224.62755 189.814064 
L 225.770699 207.268765 
L 226.913849 195.109523 
L 228.056999 216.142383 
L 229.200149 218.069852 
L 230.343299 219.66089 
L 231.486448 168.487251 
L 232.629598 168.39571 
L 233.772748 168.832792 
L 234.915898 187.192005 
L 236.059048 188.12422 
L 237.202198 190.08567 
L 238.345347 203.874364 
L 239.488497 204.795006 
L 240.631647 206.230049 
L 241.774797 161.138616 
L 242.917947 161.500039 
L 244.061096 161.482433 
L 245.204246 175.282146 
L 246.347396 175.675581 
L 247.490546 176.648057 
L 248.633696 246.190822 
L 249.776845 248.855634 
L 250.919995 253.204566 
L 252.063145 169.440397 
L 254.349445 177.356068 
L 255.492594 150.232198 
L 256.635744 155.622523 
L 258.922044 167.580707 
L 261.208343 166.409451 
L 262.351493 180.811167 
L 263.494643 182.17006 
L 264.637793 185.450635 
L 265.780943 160.023073 
L 266.924093 163.737466 
L 268.067242 167.848311 
L 269.210392 176.534785 
L 270.353542 178.489956 
L 271.496692 179.828903 
L 272.639842 201.613236 
L 273.782991 200.94998 
L 274.926141 199.46378 
L 276.069291 186.463556 
L 277.212441 186.20734 
L 278.355591 186.129404 
L 279.49874 177.785578 
L 280.64189 178.784463 
L 281.78504 180.317942 
L 282.92819 221.91223 
L 284.07134 221.97847 
L 285.214489 223.167701 
L 286.357639 146.274209 
L 287.500789 150.174885 
L 288.643939 155.064228 
L 289.787089 228.037652 
L 290.930238 232.983446 
L 292.073388 240.253468 
L 293.216538 193.731731 
L 294.359688 193.982345 
L 295.502838 195.536201 
L 296.645988 168.583347 
L 297.789137 166.252286 
L 298.932287 165.620303 
L 300.075437 180.15062 
L 301.218587 183.099875 
L 302.361737 186.531027 
L 303.504886 194.631073 
L 304.648036 193.458217 
L 305.791186 193.493983 
L 306.934336 241.742316 
L 308.077486 241.906898 
L 309.220635 241.685895 
L 310.363785 142.543994 
L 311.506935 142.980645 
L 312.650085 143.853023 
L 313.793235 163.079874 
L 314.936384 167.022904 
L 316.079534 172.77613 
L 317.222684 206.032316 
L 318.365834 228.046394 
L 319.508984 198.808096 
L 320.652133 234.982325 
L 321.795283 246.378797 
L 324.081583 198.194458 
L 325.224733 204.038054 
L 326.367883 207.217423 
L 327.511032 225.432523 
L 328.654182 221.971883 
L 329.797332 215.598678 
L 330.940482 143.176347 
L 332.083632 139.216633 
L 333.226781 137.756288 
L 334.369931 215.299124 
L 336.656231 219.144765 
L 337.799381 179.655918 
L 340.08568 181.882941 
L 341.22883 218.093122 
L 343.51513 214.096164 
L 344.658279 229.701887 
L 345.801429 228.282972 
L 346.944579 225.848981 
L 348.087729 216.148355 
L 349.230879 215.815619 
L 350.374028 216.263166 
L 351.517178 276.334125 
L 352.660328 275.729229 
L 353.803478 275.565354 
L 354.946628 211.828203 
L 357.232927 212.406813 
L 358.376077 191.904237 
L 359.519227 192.453175 
L 360.662377 193.295204 
L 361.805527 165.874734 
L 364.091826 153.318918 
L 365.234976 154.774461 
L 367.521276 152.98612 
L 368.664425 171.229045 
L 369.807575 164.568229 
L 370.950725 162.525519 
L 372.093875 203.396098 
L 373.237025 206.49316 
L 374.380174 208.407701 
L 375.523324 177.549923 
L 376.666474 178.880128 
L 377.809624 181.5169 
L 378.952774 171.035498 
L 380.095923 171.276693 
L 381.239073 171.833942 
L 382.382223 245.668632 
L 383.525373 241.990806 
L 384.668523 237.487849 
L 384.668523 237.487849 
" style="fill:none;stroke:#008000;stroke-linecap:square;stroke-opacity:0.3;stroke-width:1.5;"/>
   </g>
   <g id="patch_9">
    <path d="M 43.78125 288.430125 
L 43.78125 22.318125 
" style="fill:none;stroke:#000000;stroke-linecap:square;stroke-linejoin:miter;stroke-width:0.8;"/>
   </g>
   <g id="patch_10">
    <path d="M 400.90125 288.430125 
L 400.90125 22.318125 
" style="fill:none;stroke:#000000;stroke-linecap:square;stroke-linejoin:miter;stroke-width:0.8;"/>
   </g>
   <g id="patch_11">
    <path d="M 43.78125 288.430125 
L 400.90125 288.430125 
" style="fill:none;stroke:#000000;stroke-linecap:square;stroke-linejoin:miter;stroke-width:0.8;"/>
   </g>
   <g id="patch_12">
    <path d="M 43.78125 22.318125 
L 400.90125 22.318125 
" style="fill:none;stroke:#000000;stroke-linecap:square;stroke-linejoin:miter;stroke-width:0.8;"/>
   </g>
  </g>
 </g>
 <defs>
  <clipPath id="p96ec483fb9">
   <rect height="266.112" width="357.12" x="43.78125" y="22.318125"/>
  </clipPath>
 </defs>
</svg>
