<?xml version="1.0" encoding="utf-8" standalone="no"?>
<!DOCTYPE svg PUBLIC "-//W3C//DTD SVG 1.1//EN"
  "http://www.w3.org/Graphics/SVG/1.1/DTD/svg11.dtd">
<!-- Created with matplotlib (https://matplotlib.org/) -->
<svg height="358.22505pt" version="1.1" viewBox="0 0 444.6825 358.22505" width="444.6825pt" xmlns="http://www.w3.org/2000/svg" xmlns:xlink="http://www.w3.org/1999/xlink">
 <defs>
  <style type="text/css">
*{stroke-linecap:butt;stroke-linejoin:round;}
  </style>
 </defs>
 <g id="figure_1">
  <g id="patch_1">
   <path d="M 0 358.22505 
L 444.6825 358.22505 
L 444.6825 0 
L 0 0 
z
" style="fill:#ffffff;"/>
  </g>
  <g id="axes_1">
   <g id="patch_2">
    <path d="M 43.78125 288.430125 
L 400.90125 288.430125 
L 400.90125 22.318125 
L 43.78125 22.318125 
z
" style="fill:#ffffff;"/>
   </g>
   <g id="matplotlib.axis_1">
    <g id="xtick_1">
     <g id="line2d_1">
      <defs>
       <path d="M 0 0 
L 0 3.5 
" id="me7fd62b6b0" style="stroke:#000000;stroke-width:0.8;"/>
      </defs>
      <g>
       <use style="stroke:#000000;stroke-width:0.8;" x="60.013977" xlink:href="#me7fd62b6b0" y="288.430125"/>
      </g>
     </g>
     <g id="text_1">
      <!-- 0 -->
      <defs>
       <path d="M 31.78125 66.40625 
Q 24.171875 66.40625 20.328125 58.90625 
Q 16.5 51.421875 16.5 36.375 
Q 16.5 21.390625 20.328125 13.890625 
Q 24.171875 6.390625 31.78125 6.390625 
Q 39.453125 6.390625 43.28125 13.890625 
Q 47.125 21.390625 47.125 36.375 
Q 47.125 51.421875 43.28125 58.90625 
Q 39.453125 66.40625 31.78125 66.40625 
z
M 31.78125 74.21875 
Q 44.046875 74.21875 50.515625 64.515625 
Q 56.984375 54.828125 56.984375 36.375 
Q 56.984375 17.96875 50.515625 8.265625 
Q 44.046875 -1.421875 31.78125 -1.421875 
Q 19.53125 -1.421875 13.0625 8.265625 
Q 6.59375 17.96875 6.59375 36.375 
Q 6.59375 54.828125 13.0625 64.515625 
Q 19.53125 74.21875 31.78125 74.21875 
z
" id="DejaVuSans-48"/>
      </defs>
      <g transform="translate(56.832727 303.028562)scale(0.1 -0.1)">
       <use xlink:href="#DejaVuSans-48"/>
      </g>
     </g>
    </g>
    <g id="xtick_2">
     <g id="line2d_2">
      <g>
       <use style="stroke:#000000;stroke-width:0.8;" x="104.979981" xlink:href="#me7fd62b6b0" y="288.430125"/>
      </g>
     </g>
     <g id="text_2">
      <!-- 100 -->
      <defs>
       <path d="M 12.40625 8.296875 
L 28.515625 8.296875 
L 28.515625 63.921875 
L 10.984375 60.40625 
L 10.984375 69.390625 
L 28.421875 72.90625 
L 38.28125 72.90625 
L 38.28125 8.296875 
L 54.390625 8.296875 
L 54.390625 0 
L 12.40625 0 
z
" id="DejaVuSans-49"/>
      </defs>
      <g transform="translate(95.436231 303.028562)scale(0.1 -0.1)">
       <use xlink:href="#DejaVuSans-49"/>
       <use x="63.623047" xlink:href="#DejaVuSans-48"/>
       <use x="127.246094" xlink:href="#DejaVuSans-48"/>
      </g>
     </g>
    </g>
    <g id="xtick_3">
     <g id="line2d_3">
      <g>
       <use style="stroke:#000000;stroke-width:0.8;" x="149.945984" xlink:href="#me7fd62b6b0" y="288.430125"/>
      </g>
     </g>
     <g id="text_3">
      <!-- 200 -->
      <defs>
       <path d="M 19.1875 8.296875 
L 53.609375 8.296875 
L 53.609375 0 
L 7.328125 0 
L 7.328125 8.296875 
Q 12.9375 14.109375 22.625 23.890625 
Q 32.328125 33.6875 34.8125 36.53125 
Q 39.546875 41.84375 41.421875 45.53125 
Q 43.3125 49.21875 43.3125 52.78125 
Q 43.3125 58.59375 39.234375 62.25 
Q 35.15625 65.921875 28.609375 65.921875 
Q 23.96875 65.921875 18.8125 64.3125 
Q 13.671875 62.703125 7.8125 59.421875 
L 7.8125 69.390625 
Q 13.765625 71.78125 18.9375 73 
Q 24.125 74.21875 28.421875 74.21875 
Q 39.75 74.21875 46.484375 68.546875 
Q 53.21875 62.890625 53.21875 53.421875 
Q 53.21875 48.921875 51.53125 44.890625 
Q 49.859375 40.875 45.40625 35.40625 
Q 44.1875 33.984375 37.640625 27.21875 
Q 31.109375 20.453125 19.1875 8.296875 
z
" id="DejaVuSans-50"/>
      </defs>
      <g transform="translate(140.402234 303.028562)scale(0.1 -0.1)">
       <use xlink:href="#DejaVuSans-50"/>
       <use x="63.623047" xlink:href="#DejaVuSans-48"/>
       <use x="127.246094" xlink:href="#DejaVuSans-48"/>
      </g>
     </g>
    </g>
    <g id="xtick_4">
     <g id="line2d_4">
      <g>
       <use style="stroke:#000000;stroke-width:0.8;" x="194.911988" xlink:href="#me7fd62b6b0" y="288.430125"/>
      </g>
     </g>
     <g id="text_4">
      <!-- 300 -->
      <defs>
       <path d="M 40.578125 39.3125 
Q 47.65625 37.796875 51.625 33 
Q 55.609375 28.21875 55.609375 21.1875 
Q 55.609375 10.40625 48.1875 4.484375 
Q 40.765625 -1.421875 27.09375 -1.421875 
Q 22.515625 -1.421875 17.65625 -0.515625 
Q 12.796875 0.390625 7.625 2.203125 
L 7.625 11.71875 
Q 11.71875 9.328125 16.59375 8.109375 
Q 21.484375 6.890625 26.8125 6.890625 
Q 36.078125 6.890625 40.9375 10.546875 
Q 45.796875 14.203125 45.796875 21.1875 
Q 45.796875 27.640625 41.28125 31.265625 
Q 36.765625 34.90625 28.71875 34.90625 
L 20.21875 34.90625 
L 20.21875 43.015625 
L 29.109375 43.015625 
Q 36.375 43.015625 40.234375 45.921875 
Q 44.09375 48.828125 44.09375 54.296875 
Q 44.09375 59.90625 40.109375 62.90625 
Q 36.140625 65.921875 28.71875 65.921875 
Q 24.65625 65.921875 20.015625 65.03125 
Q 15.375 64.15625 9.8125 62.3125 
L 9.8125 71.09375 
Q 15.4375 72.65625 20.34375 73.4375 
Q 25.25 74.21875 29.59375 74.21875 
Q 40.828125 74.21875 47.359375 69.109375 
Q 53.90625 64.015625 53.90625 55.328125 
Q 53.90625 49.265625 50.4375 45.09375 
Q 46.96875 40.921875 40.578125 39.3125 
z
" id="DejaVuSans-51"/>
      </defs>
      <g transform="translate(185.368238 303.028562)scale(0.1 -0.1)">
       <use xlink:href="#DejaVuSans-51"/>
       <use x="63.623047" xlink:href="#DejaVuSans-48"/>
       <use x="127.246094" xlink:href="#DejaVuSans-48"/>
      </g>
     </g>
    </g>
    <g id="xtick_5">
     <g id="line2d_5">
      <g>
       <use style="stroke:#000000;stroke-width:0.8;" x="239.877991" xlink:href="#me7fd62b6b0" y="288.430125"/>
      </g>
     </g>
     <g id="text_5">
      <!-- 400 -->
      <defs>
       <path d="M 37.796875 64.3125 
L 12.890625 25.390625 
L 37.796875 25.390625 
z
M 35.203125 72.90625 
L 47.609375 72.90625 
L 47.609375 25.390625 
L 58.015625 25.390625 
L 58.015625 17.1875 
L 47.609375 17.1875 
L 47.609375 0 
L 37.796875 0 
L 37.796875 17.1875 
L 4.890625 17.1875 
L 4.890625 26.703125 
z
" id="DejaVuSans-52"/>
      </defs>
      <g transform="translate(230.334241 303.028562)scale(0.1 -0.1)">
       <use xlink:href="#DejaVuSans-52"/>
       <use x="63.623047" xlink:href="#DejaVuSans-48"/>
       <use x="127.246094" xlink:href="#DejaVuSans-48"/>
      </g>
     </g>
    </g>
    <g id="xtick_6">
     <g id="line2d_6">
      <g>
       <use style="stroke:#000000;stroke-width:0.8;" x="284.843995" xlink:href="#me7fd62b6b0" y="288.430125"/>
      </g>
     </g>
     <g id="text_6">
      <!-- 500 -->
      <defs>
       <path d="M 10.796875 72.90625 
L 49.515625 72.90625 
L 49.515625 64.59375 
L 19.828125 64.59375 
L 19.828125 46.734375 
Q 21.96875 47.46875 24.109375 47.828125 
Q 26.265625 48.1875 28.421875 48.1875 
Q 40.625 48.1875 47.75 41.5 
Q 54.890625 34.8125 54.890625 23.390625 
Q 54.890625 11.625 47.5625 5.09375 
Q 40.234375 -1.421875 26.90625 -1.421875 
Q 22.3125 -1.421875 17.546875 -0.640625 
Q 12.796875 0.140625 7.71875 1.703125 
L 7.71875 11.625 
Q 12.109375 9.234375 16.796875 8.0625 
Q 21.484375 6.890625 26.703125 6.890625 
Q 35.15625 6.890625 40.078125 11.328125 
Q 45.015625 15.765625 45.015625 23.390625 
Q 45.015625 31 40.078125 35.4375 
Q 35.15625 39.890625 26.703125 39.890625 
Q 22.75 39.890625 18.8125 39.015625 
Q 14.890625 38.140625 10.796875 36.28125 
z
" id="DejaVuSans-53"/>
      </defs>
      <g transform="translate(275.300245 303.028562)scale(0.1 -0.1)">
       <use xlink:href="#DejaVuSans-53"/>
       <use x="63.623047" xlink:href="#DejaVuSans-48"/>
       <use x="127.246094" xlink:href="#DejaVuSans-48"/>
      </g>
     </g>
    </g>
    <g id="xtick_7">
     <g id="line2d_7">
      <g>
       <use style="stroke:#000000;stroke-width:0.8;" x="329.809998" xlink:href="#me7fd62b6b0" y="288.430125"/>
      </g>
     </g>
     <g id="text_7">
      <!-- 600 -->
      <defs>
       <path d="M 33.015625 40.375 
Q 26.375 40.375 22.484375 35.828125 
Q 18.609375 31.296875 18.609375 23.390625 
Q 18.609375 15.53125 22.484375 10.953125 
Q 26.375 6.390625 33.015625 6.390625 
Q 39.65625 6.390625 43.53125 10.953125 
Q 47.40625 15.53125 47.40625 23.390625 
Q 47.40625 31.296875 43.53125 35.828125 
Q 39.65625 40.375 33.015625 40.375 
z
M 52.59375 71.296875 
L 52.59375 62.3125 
Q 48.875 64.0625 45.09375 64.984375 
Q 41.3125 65.921875 37.59375 65.921875 
Q 27.828125 65.921875 22.671875 59.328125 
Q 17.53125 52.734375 16.796875 39.40625 
Q 19.671875 43.65625 24.015625 45.921875 
Q 28.375 48.1875 33.59375 48.1875 
Q 44.578125 48.1875 50.953125 41.515625 
Q 57.328125 34.859375 57.328125 23.390625 
Q 57.328125 12.15625 50.6875 5.359375 
Q 44.046875 -1.421875 33.015625 -1.421875 
Q 20.359375 -1.421875 13.671875 8.265625 
Q 6.984375 17.96875 6.984375 36.375 
Q 6.984375 53.65625 15.1875 63.9375 
Q 23.390625 74.21875 37.203125 74.21875 
Q 40.921875 74.21875 44.703125 73.484375 
Q 48.484375 72.75 52.59375 71.296875 
z
" id="DejaVuSans-54"/>
      </defs>
      <g transform="translate(320.266248 303.028562)scale(0.1 -0.1)">
       <use xlink:href="#DejaVuSans-54"/>
       <use x="63.623047" xlink:href="#DejaVuSans-48"/>
       <use x="127.246094" xlink:href="#DejaVuSans-48"/>
      </g>
     </g>
    </g>
    <g id="xtick_8">
     <g id="line2d_8">
      <g>
       <use style="stroke:#000000;stroke-width:0.8;" x="374.776002" xlink:href="#me7fd62b6b0" y="288.430125"/>
      </g>
     </g>
     <g id="text_8">
      <!-- 700 -->
      <defs>
       <path d="M 8.203125 72.90625 
L 55.078125 72.90625 
L 55.078125 68.703125 
L 28.609375 0 
L 18.3125 0 
L 43.21875 64.59375 
L 8.203125 64.59375 
z
" id="DejaVuSans-55"/>
      </defs>
      <g transform="translate(365.232252 303.028562)scale(0.1 -0.1)">
       <use xlink:href="#DejaVuSans-55"/>
       <use x="63.623047" xlink:href="#DejaVuSans-48"/>
       <use x="127.246094" xlink:href="#DejaVuSans-48"/>
      </g>
     </g>
    </g>
    <g id="text_9">
     <!-- Epoch -->
     <defs>
      <path d="M 9.8125 72.90625 
L 55.90625 72.90625 
L 55.90625 64.59375 
L 19.671875 64.59375 
L 19.671875 43.015625 
L 54.390625 43.015625 
L 54.390625 34.71875 
L 19.671875 34.71875 
L 19.671875 8.296875 
L 56.78125 8.296875 
L 56.78125 0 
L 9.8125 0 
z
" id="DejaVuSans-69"/>
      <path d="M 18.109375 8.203125 
L 18.109375 -20.796875 
L 9.078125 -20.796875 
L 9.078125 54.6875 
L 18.109375 54.6875 
L 18.109375 46.390625 
Q 20.953125 51.265625 25.265625 53.625 
Q 29.59375 56 35.59375 56 
Q 45.5625 56 51.78125 48.09375 
Q 58.015625 40.1875 58.015625 27.296875 
Q 58.015625 14.40625 51.78125 6.484375 
Q 45.5625 -1.421875 35.59375 -1.421875 
Q 29.59375 -1.421875 25.265625 0.953125 
Q 20.953125 3.328125 18.109375 8.203125 
z
M 48.6875 27.296875 
Q 48.6875 37.203125 44.609375 42.84375 
Q 40.53125 48.484375 33.40625 48.484375 
Q 26.265625 48.484375 22.1875 42.84375 
Q 18.109375 37.203125 18.109375 27.296875 
Q 18.109375 17.390625 22.1875 11.75 
Q 26.265625 6.109375 33.40625 6.109375 
Q 40.53125 6.109375 44.609375 11.75 
Q 48.6875 17.390625 48.6875 27.296875 
z
" id="DejaVuSans-112"/>
      <path d="M 30.609375 48.390625 
Q 23.390625 48.390625 19.1875 42.75 
Q 14.984375 37.109375 14.984375 27.296875 
Q 14.984375 17.484375 19.15625 11.84375 
Q 23.34375 6.203125 30.609375 6.203125 
Q 37.796875 6.203125 41.984375 11.859375 
Q 46.1875 17.53125 46.1875 27.296875 
Q 46.1875 37.015625 41.984375 42.703125 
Q 37.796875 48.390625 30.609375 48.390625 
z
M 30.609375 56 
Q 42.328125 56 49.015625 48.375 
Q 55.71875 40.765625 55.71875 27.296875 
Q 55.71875 13.875 49.015625 6.21875 
Q 42.328125 -1.421875 30.609375 -1.421875 
Q 18.84375 -1.421875 12.171875 6.21875 
Q 5.515625 13.875 5.515625 27.296875 
Q 5.515625 40.765625 12.171875 48.375 
Q 18.84375 56 30.609375 56 
z
" id="DejaVuSans-111"/>
      <path d="M 48.78125 52.59375 
L 48.78125 44.1875 
Q 44.96875 46.296875 41.140625 47.34375 
Q 37.3125 48.390625 33.40625 48.390625 
Q 24.65625 48.390625 19.8125 42.84375 
Q 14.984375 37.3125 14.984375 27.296875 
Q 14.984375 17.28125 19.8125 11.734375 
Q 24.65625 6.203125 33.40625 6.203125 
Q 37.3125 6.203125 41.140625 7.25 
Q 44.96875 8.296875 48.78125 10.40625 
L 48.78125 2.09375 
Q 45.015625 0.34375 40.984375 -0.53125 
Q 36.96875 -1.421875 32.421875 -1.421875 
Q 20.0625 -1.421875 12.78125 6.34375 
Q 5.515625 14.109375 5.515625 27.296875 
Q 5.515625 40.671875 12.859375 48.328125 
Q 20.21875 56 33.015625 56 
Q 37.15625 56 41.109375 55.140625 
Q 45.0625 54.296875 48.78125 52.59375 
z
" id="DejaVuSans-99"/>
      <path d="M 54.890625 33.015625 
L 54.890625 0 
L 45.90625 0 
L 45.90625 32.71875 
Q 45.90625 40.484375 42.875 44.328125 
Q 39.84375 48.1875 33.796875 48.1875 
Q 26.515625 48.1875 22.3125 43.546875 
Q 18.109375 38.921875 18.109375 30.90625 
L 18.109375 0 
L 9.078125 0 
L 9.078125 75.984375 
L 18.109375 75.984375 
L 18.109375 46.1875 
Q 21.34375 51.125 25.703125 53.5625 
Q 30.078125 56 35.796875 56 
Q 45.21875 56 50.046875 50.171875 
Q 54.890625 44.34375 54.890625 33.015625 
z
" id="DejaVuSans-104"/>
     </defs>
     <g transform="translate(207.030313 316.706687)scale(0.1 -0.1)">
      <use xlink:href="#DejaVuSans-69"/>
      <use x="63.183594" xlink:href="#DejaVuSans-112"/>
      <use x="126.660156" xlink:href="#DejaVuSans-111"/>
      <use x="187.841797" xlink:href="#DejaVuSans-99"/>
      <use x="242.822266" xlink:href="#DejaVuSans-104"/>
     </g>
    </g>
   </g>
   <g id="matplotlib.axis_2">
    <g id="ytick_1">
     <g id="line2d_9">
      <defs>
       <path d="M 0 0 
L -3.5 0 
" id="m465df155cc" style="stroke:#000000;stroke-width:0.8;"/>
      </defs>
      <g>
       <use style="stroke:#000000;stroke-width:0.8;" x="43.78125" xlink:href="#m465df155cc" y="276.334125"/>
      </g>
     </g>
     <g id="text_10">
      <!-- 0.0 -->
      <defs>
       <path d="M 10.6875 12.40625 
L 21 12.40625 
L 21 0 
L 10.6875 0 
z
" id="DejaVuSans-46"/>
      </defs>
      <g transform="translate(20.878125 280.133344)scale(0.1 -0.1)">
       <use xlink:href="#DejaVuSans-48"/>
       <use x="63.623047" xlink:href="#DejaVuSans-46"/>
       <use x="95.410156" xlink:href="#DejaVuSans-48"/>
      </g>
     </g>
    </g>
    <g id="ytick_2">
     <g id="line2d_10">
      <g>
       <use style="stroke:#000000;stroke-width:0.8;" x="43.78125" xlink:href="#m465df155cc" y="227.950125"/>
      </g>
     </g>
     <g id="text_11">
      <!-- 0.2 -->
      <g transform="translate(20.878125 231.749344)scale(0.1 -0.1)">
       <use xlink:href="#DejaVuSans-48"/>
       <use x="63.623047" xlink:href="#DejaVuSans-46"/>
       <use x="95.410156" xlink:href="#DejaVuSans-50"/>
      </g>
     </g>
    </g>
    <g id="ytick_3">
     <g id="line2d_11">
      <g>
       <use style="stroke:#000000;stroke-width:0.8;" x="43.78125" xlink:href="#m465df155cc" y="179.566125"/>
      </g>
     </g>
     <g id="text_12">
      <!-- 0.4 -->
      <g transform="translate(20.878125 183.365344)scale(0.1 -0.1)">
       <use xlink:href="#DejaVuSans-48"/>
       <use x="63.623047" xlink:href="#DejaVuSans-46"/>
       <use x="95.410156" xlink:href="#DejaVuSans-52"/>
      </g>
     </g>
    </g>
    <g id="ytick_4">
     <g id="line2d_12">
      <g>
       <use style="stroke:#000000;stroke-width:0.8;" x="43.78125" xlink:href="#m465df155cc" y="131.182125"/>
      </g>
     </g>
     <g id="text_13">
      <!-- 0.6 -->
      <g transform="translate(20.878125 134.981344)scale(0.1 -0.1)">
       <use xlink:href="#DejaVuSans-48"/>
       <use x="63.623047" xlink:href="#DejaVuSans-46"/>
       <use x="95.410156" xlink:href="#DejaVuSans-54"/>
      </g>
     </g>
    </g>
    <g id="ytick_5">
     <g id="line2d_13">
      <g>
       <use style="stroke:#000000;stroke-width:0.8;" x="43.78125" xlink:href="#m465df155cc" y="82.798125"/>
      </g>
     </g>
     <g id="text_14">
      <!-- 0.8 -->
      <defs>
       <path d="M 31.78125 34.625 
Q 24.75 34.625 20.71875 30.859375 
Q 16.703125 27.09375 16.703125 20.515625 
Q 16.703125 13.921875 20.71875 10.15625 
Q 24.75 6.390625 31.78125 6.390625 
Q 38.8125 6.390625 42.859375 10.171875 
Q 46.921875 13.96875 46.921875 20.515625 
Q 46.921875 27.09375 42.890625 30.859375 
Q 38.875 34.625 31.78125 34.625 
z
M 21.921875 38.8125 
Q 15.578125 40.375 12.03125 44.71875 
Q 8.5 49.078125 8.5 55.328125 
Q 8.5 64.0625 14.71875 69.140625 
Q 20.953125 74.21875 31.78125 74.21875 
Q 42.671875 74.21875 48.875 69.140625 
Q 55.078125 64.0625 55.078125 55.328125 
Q 55.078125 49.078125 51.53125 44.71875 
Q 48 40.375 41.703125 38.8125 
Q 48.828125 37.15625 52.796875 32.3125 
Q 56.78125 27.484375 56.78125 20.515625 
Q 56.78125 9.90625 50.3125 4.234375 
Q 43.84375 -1.421875 31.78125 -1.421875 
Q 19.734375 -1.421875 13.25 4.234375 
Q 6.78125 9.90625 6.78125 20.515625 
Q 6.78125 27.484375 10.78125 32.3125 
Q 14.796875 37.15625 21.921875 38.8125 
z
M 18.3125 54.390625 
Q 18.3125 48.734375 21.84375 45.5625 
Q 25.390625 42.390625 31.78125 42.390625 
Q 38.140625 42.390625 41.71875 45.5625 
Q 45.3125 48.734375 45.3125 54.390625 
Q 45.3125 60.0625 41.71875 63.234375 
Q 38.140625 66.40625 31.78125 66.40625 
Q 25.390625 66.40625 21.84375 63.234375 
Q 18.3125 60.0625 18.3125 54.390625 
z
" id="DejaVuSans-56"/>
      </defs>
      <g transform="translate(20.878125 86.597344)scale(0.1 -0.1)">
       <use xlink:href="#DejaVuSans-48"/>
       <use x="63.623047" xlink:href="#DejaVuSans-46"/>
       <use x="95.410156" xlink:href="#DejaVuSans-56"/>
      </g>
     </g>
    </g>
    <g id="ytick_6">
     <g id="line2d_14">
      <g>
       <use style="stroke:#000000;stroke-width:0.8;" x="43.78125" xlink:href="#m465df155cc" y="34.414125"/>
      </g>
     </g>
     <g id="text_15">
      <!-- 1.0 -->
      <g transform="translate(20.878125 38.213344)scale(0.1 -0.1)">
       <use xlink:href="#DejaVuSans-49"/>
       <use x="63.623047" xlink:href="#DejaVuSans-46"/>
       <use x="95.410156" xlink:href="#DejaVuSans-48"/>
      </g>
     </g>
    </g>
    <g id="text_16">
     <!-- Loss -->
     <defs>
      <path d="M 9.8125 72.90625 
L 19.671875 72.90625 
L 19.671875 8.296875 
L 55.171875 8.296875 
L 55.171875 0 
L 9.8125 0 
z
" id="DejaVuSans-76"/>
      <path d="M 44.28125 53.078125 
L 44.28125 44.578125 
Q 40.484375 46.53125 36.375 47.5 
Q 32.28125 48.484375 27.875 48.484375 
Q 21.1875 48.484375 17.84375 46.4375 
Q 14.5 44.390625 14.5 40.28125 
Q 14.5 37.15625 16.890625 35.375 
Q 19.28125 33.59375 26.515625 31.984375 
L 29.59375 31.296875 
Q 39.15625 29.25 43.1875 25.515625 
Q 47.21875 21.78125 47.21875 15.09375 
Q 47.21875 7.46875 41.1875 3.015625 
Q 35.15625 -1.421875 24.609375 -1.421875 
Q 20.21875 -1.421875 15.453125 -0.5625 
Q 10.6875 0.296875 5.421875 2 
L 5.421875 11.28125 
Q 10.40625 8.6875 15.234375 7.390625 
Q 20.0625 6.109375 24.8125 6.109375 
Q 31.15625 6.109375 34.5625 8.28125 
Q 37.984375 10.453125 37.984375 14.40625 
Q 37.984375 18.0625 35.515625 20.015625 
Q 33.0625 21.96875 24.703125 23.78125 
L 21.578125 24.515625 
Q 13.234375 26.265625 9.515625 29.90625 
Q 5.8125 33.546875 5.8125 39.890625 
Q 5.8125 47.609375 11.28125 51.796875 
Q 16.75 56 26.8125 56 
Q 31.78125 56 36.171875 55.265625 
Q 40.578125 54.546875 44.28125 53.078125 
z
" id="DejaVuSans-115"/>
     </defs>
     <g transform="translate(14.798438 166.428031)rotate(-90)scale(0.1 -0.1)">
      <use xlink:href="#DejaVuSans-76"/>
      <use x="55.697266" xlink:href="#DejaVuSans-111"/>
      <use x="116.878906" xlink:href="#DejaVuSans-115"/>
      <use x="168.978516" xlink:href="#DejaVuSans-115"/>
     </g>
    </g>
   </g>
   <g id="line2d_15">
    <path clip-path="url(#pe6a8048041)" d="M 60.013977 195.176253 
L 60.913297 206.098842 
L 61.362957 230.926344 
L 61.812617 232.200848 
L 62.262277 230.837917 
L 62.711937 197.088944 
L 63.161598 211.342713 
L 63.611258 38.28916 
L 64.060918 175.603573 
L 64.960238 238.654429 
L 65.409898 185.314094 
L 65.859558 219.967138 
L 66.309218 220.410757 
L 66.758878 242.596434 
L 67.208538 166.942478 
L 67.658198 184.360322 
L 68.107858 222.468813 
L 68.557518 273.454894 
L 69.007178 264.153845 
L 69.456838 189.445322 
L 69.906498 214.52061 
L 70.356158 227.558241 
L 71.255478 94.421771 
L 71.705138 216.625175 
L 72.154798 209.261786 
L 73.054118 86.16844 
L 73.503778 201.413886 
L 73.953438 213.279741 
L 74.403098 200.105104 
L 74.852758 213.688268 
L 75.302418 250.244206 
L 75.752079 133.286418 
L 76.201739 201.817701 
L 76.651399 208.208948 
L 77.101059 204.109218 
L 77.550719 203.326979 
L 78.000379 225.850297 
L 78.450039 225.732433 
L 78.899699 176.958284 
L 79.349359 172.38523 
L 79.799019 170.7105 
L 80.698339 248.953781 
L 81.147999 276.334125 
L 81.597659 214.166189 
L 82.047319 253.987493 
L 82.496979 275.131364 
L 82.946639 194.299108 
L 83.396299 175.748157 
L 83.845959 217.072532 
L 84.295619 76.033294 
L 84.745279 95.188778 
L 85.644599 198.882668 
L 86.094259 208.45082 
L 86.543919 233.884214 
L 86.993579 200.779668 
L 87.892899 245.151227 
L 88.342559 199.604942 
L 89.24188 236.093147 
L 89.69154 196.714892 
L 90.59086 231.585422 
L 91.04052 199.74577 
L 91.93984 245.988405 
L 92.3895 199.677521 
L 92.83916 212.725524 
L 93.28882 222.405721 
L 93.73848 196.414869 
L 94.18814 212.221209 
L 94.6378 222.660035 
L 95.08746 202.445349 
L 95.53712 235.320197 
L 95.98678 258.819055 
L 96.43644 222.290205 
L 96.8861 244.546106 
L 97.33576 248.411986 
L 97.78542 195.988139 
L 98.23508 212.368251 
L 98.68474 217.175692 
L 99.1344 195.096003 
L 99.58406 207.830098 
L 100.03372 209.174409 
L 100.48338 205.373302 
L 100.93304 232.235112 
L 101.382701 239.722691 
L 101.832361 206.480961 
L 102.282021 256.595074 
L 102.731681 258.150156 
L 103.631001 63.665904 
L 104.080661 209.733213 
L 104.530321 209.328597 
L 104.979981 224.781068 
L 105.429641 174.617762 
L 105.879301 216.148255 
L 106.328961 228.18781 
L 106.778621 245.616763 
L 107.228281 212.645255 
L 107.677941 229.179982 
L 108.127601 230.055813 
L 108.577261 195.440335 
L 109.026921 197.488316 
L 109.476581 203.782101 
L 109.926241 199.529118 
L 110.375901 213.177118 
L 110.825561 211.048571 
L 111.275221 207.829436 
L 111.724881 223.912214 
L 112.174541 222.465535 
L 112.624201 195.369296 
L 113.073861 218.182174 
L 113.523521 224.807404 
L 113.973182 198.560191 
L 114.422842 207.703044 
L 114.872502 200.230006 
L 115.322162 179.36164 
L 115.771822 201.732625 
L 116.221482 190.077786 
L 116.671142 168.235368 
L 117.120802 171.890721 
L 117.570462 213.84711 
L 118.020122 200.433859 
L 118.919442 227.055632 
L 119.369102 207.86995 
L 119.818762 165.134596 
L 120.268422 177.375697 
L 120.718082 175.166803 
L 121.167742 211.739808 
L 121.617402 220.907384 
L 122.067062 201.703015 
L 122.516722 218.692567 
L 122.966382 219.616479 
L 123.416042 189.467555 
L 123.865702 208.267784 
L 124.315362 214.776486 
L 124.765022 209.10304 
L 125.214682 209.697813 
L 125.664342 222.590118 
L 126.114002 198.283409 
L 126.563662 217.16705 
L 127.013323 222.638511 
L 127.462983 212.433433 
L 127.912643 222.452124 
L 128.362303 241.654347 
L 128.811963 186.702417 
L 129.261623 248.225667 
L 129.711283 263.487865 
L 130.610603 102.932473 
L 131.060263 70.490767 
L 131.509923 178.53781 
L 131.959583 183.865583 
L 132.409243 216.151466 
L 132.858903 193.333738 
L 133.308563 193.678209 
L 133.758223 210.652419 
L 134.207883 201.060524 
L 134.657543 87.147259 
L 135.107203 203.782475 
L 135.556863 197.748928 
L 136.006523 238.115381 
L 136.456183 220.73981 
L 136.905843 196.445466 
L 137.355503 195.075192 
L 137.805163 205.497061 
L 138.254823 200.56314 
L 138.704483 218.028949 
L 139.154143 198.167241 
L 139.603804 191.332539 
L 140.053464 201.360135 
L 140.503124 215.332252 
L 140.952784 170.730419 
L 141.402444 167.281251 
L 141.852104 212.736135 
L 142.301764 190.814929 
L 142.751424 136.928121 
L 143.201084 227.531636 
L 143.650744 195.052523 
L 144.100404 198.269145 
L 144.550064 197.458409 
L 144.999724 188.597346 
L 145.899044 213.014308 
L 146.348704 191.396393 
L 146.798364 221.06569 
L 147.248024 235.338414 
L 147.697684 192.99457 
L 149.046664 171.272789 
L 149.496324 121.450603 
L 149.945984 151.4053 
L 150.395644 191.151799 
L 150.845304 189.850685 
L 151.294964 187.097562 
L 151.744624 212.605729 
L 152.194285 219.583869 
L 152.643945 214.750442 
L 153.093605 197.823063 
L 153.543265 196.389208 
L 153.992925 161.137326 
L 154.442585 197.621335 
L 154.892245 187.947752 
L 155.341905 188.60766 
L 155.791565 202.761058 
L 156.241225 209.622318 
L 156.690885 213.946953 
L 157.140545 123.516337 
L 157.590205 171.332842 
L 158.039865 194.068681 
L 158.489525 179.205032 
L 158.939185 182.07818 
L 159.388845 183.900436 
L 159.838505 196.060817 
L 160.288165 204.483179 
L 160.737825 226.839747 
L 161.187485 192.247858 
L 161.637145 190.250651 
L 162.086805 191.11336 
L 162.536465 185.501731 
L 162.986125 185.806705 
L 163.435785 193.899966 
L 164.335105 191.874185 
L 164.784765 195.709114 
L 165.234426 177.816047 
L 165.684086 180.675071 
L 166.133746 192.485831 
L 166.583406 192.032603 
L 167.033066 214.606875 
L 167.482726 210.515736 
L 168.382046 130.461005 
L 168.831706 152.471683 
L 169.281366 198.900459 
L 169.731026 196.437107 
L 170.180686 210.464178 
L 170.630346 203.869684 
L 171.080006 210.426205 
L 171.529666 207.901031 
L 171.979326 211.58031 
L 172.428986 231.708295 
L 172.878646 229.932764 
L 173.328306 194.179574 
L 173.777966 218.619997 
L 174.227626 223.75874 
L 174.677286 183.325859 
L 175.126946 170.981436 
L 175.576606 209.22329 
L 176.026266 205.63308 
L 176.475926 208.725292 
L 176.925586 231.341494 
L 177.375246 185.839995 
L 177.824907 180.875639 
L 178.274567 186.969959 
L 178.724227 176.454669 
L 179.173887 193.385682 
L 179.623547 203.287765 
L 180.073207 199.893695 
L 180.522867 160.068978 
L 180.972527 210.239474 
L 181.422187 199.401927 
L 181.871847 193.190549 
L 182.321507 202.812878 
L 182.771167 192.623113 
L 183.670487 201.366687 
L 184.120147 194.81782 
L 184.569807 177.656822 
L 185.019467 183.444126 
L 185.469127 192.721691 
L 185.918787 208.579947 
L 186.368447 198.168219 
L 186.818107 179.596496 
L 187.267767 194.033771 
L 187.717427 195.87479 
L 188.167087 198.536458 
L 189.066407 169.736953 
L 189.516067 193.44379 
L 189.965727 190.104127 
L 190.415387 192.874216 
L 190.865048 190.422223 
L 191.314708 198.020352 
L 192.214028 192.386839 
L 193.113348 174.270736 
L 193.563008 197.15536 
L 194.012668 183.67607 
L 194.462328 176.068034 
L 194.911988 198.127826 
L 195.361648 210.896587 
L 195.811308 217.923873 
L 196.260968 170.916944 
L 196.710628 140.058713 
L 197.160288 184.391322 
L 197.609948 196.014404 
L 198.059608 198.343932 
L 198.509268 180.793539 
L 199.408588 172.985036 
L 199.858248 181.695626 
L 200.307908 192.867123 
L 200.757568 179.768494 
L 201.207228 195.1296 
L 201.656888 192.041002 
L 202.556208 189.353569 
L 203.455529 211.428542 
L 203.905189 215.274791 
L 204.354849 191.779662 
L 204.804509 189.304687 
L 205.254169 188.644391 
L 206.153489 182.710817 
L 206.603149 194.075185 
L 207.052809 199.224873 
L 207.502469 200.648212 
L 207.952129 197.326608 
L 208.401789 146.659629 
L 208.851449 197.980946 
L 209.301109 190.61808 
L 209.750769 208.287261 
L 210.200429 210.144577 
L 210.650089 214.150828 
L 211.099749 199.913815 
L 211.549409 198.967007 
L 211.999069 222.186624 
L 212.448729 185.239211 
L 212.898389 198.633722 
L 213.797709 200.734156 
L 214.247369 213.091443 
L 214.697029 220.187721 
L 215.146689 198.348629 
L 215.596349 204.810314 
L 216.04601 209.332144 
L 216.49567 194.964863 
L 216.94533 196.547418 
L 217.39499 195.672526 
L 217.84465 195.955472 
L 218.29431 145.431557 
L 218.74397 186.816744 
L 219.19363 190.167794 
L 219.64329 210.071046 
L 220.09295 214.293135 
L 220.54261 195.542378 
L 220.99227 206.555733 
L 221.44193 204.36173 
L 221.89159 190.286546 
L 222.34125 140.72743 
L 222.79091 177.469664 
L 223.24057 202.625049 
L 223.69023 186.449004 
L 224.13989 150.56945 
L 224.58955 196.987069 
L 225.03921 207.814934 
L 225.48887 205.582507 
L 225.93853 199.564599 
L 226.38819 211.601446 
L 227.28751 190.611413 
L 227.73717 223.657287 
L 228.18683 213.886276 
L 228.63649 187.469826 
L 229.535811 197.357646 
L 229.985471 170.873771 
L 230.435131 181.54312 
L 230.884791 183.252511 
L 231.334451 192.873804 
L 231.784111 193.422749 
L 232.233771 198.823027 
L 232.683431 194.949583 
L 233.133091 165.001414 
L 233.582751 197.486294 
L 234.032411 190.858989 
L 234.482071 153.220468 
L 235.381391 197.213134 
L 235.831051 204.736352 
L 236.280711 207.241651 
L 236.730371 197.778356 
L 237.180031 215.929896 
L 237.629691 211.605587 
L 238.079351 194.30368 
L 238.529011 213.11094 
L 239.428331 197.945278 
L 239.877991 213.733655 
L 240.327651 218.1455 
L 240.777311 195.84878 
L 241.226971 49.88153 
L 241.676632 75.422982 
L 242.126292 169.722355 
L 242.575952 34.414125 
L 243.025612 190.200615 
L 243.475272 191.537042 
L 243.924932 208.120732 
L 244.374592 198.79959 
L 244.824252 195.514853 
L 245.273912 194.874414 
L 245.723572 195.591556 
L 246.173232 196.0219 
L 246.622892 203.882529 
L 247.072552 198.764555 
L 247.522212 196.034584 
L 248.421532 213.209472 
L 248.871192 173.085809 
L 249.320852 157.955633 
L 249.770512 159.601932 
L 250.220172 191.972887 
L 251.119492 203.358736 
L 251.569152 193.221079 
L 252.018812 204.165092 
L 252.468472 163.683229 
L 252.918132 191.948548 
L 253.367792 211.766085 
L 253.817452 224.688407 
L 254.267113 196.02652 
L 254.716773 201.633989 
L 255.166433 196.876873 
L 255.616093 176.116124 
L 256.065753 69.733211 
L 256.515413 151.227738 
L 256.965073 186.291858 
L 257.414733 209.938852 
L 258.314053 197.35663 
L 258.763713 209.378557 
L 259.213373 185.729206 
L 259.663033 190.599479 
L 260.112693 183.934956 
L 260.562353 194.336942 
L 261.012013 190.642466 
L 261.461673 195.623845 
L 261.911333 168.513104 
L 262.360993 197.4207 
L 262.810653 194.689154 
L 263.260313 211.841008 
L 264.159633 173.164255 
L 264.609293 187.167594 
L 265.058953 206.322233 
L 265.508613 216.378251 
L 265.958273 222.265863 
L 266.407933 191.235217 
L 266.857593 208.213366 
L 267.307254 218.662823 
L 267.756914 199.956974 
L 268.206574 210.556933 
L 268.656234 213.803333 
L 269.105894 203.325666 
L 269.555554 217.856122 
L 270.005214 176.770743 
L 270.454874 192.080341 
L 270.904534 216.746115 
L 271.354194 206.05032 
L 271.803854 201.04398 
L 272.253514 213.763256 
L 272.703174 217.304493 
L 273.152834 183.756519 
L 273.602494 208.241979 
L 274.052154 214.133656 
L 274.951474 173.925771 
L 275.401134 202.95507 
L 275.850794 194.400619 
L 276.300454 218.110848 
L 276.750114 213.683973 
L 277.199774 187.847689 
L 277.649434 170.756463 
L 278.099094 181.190506 
L 278.998414 190.865128 
L 279.448074 149.446987 
L 279.897735 195.935265 
L 280.347395 206.521738 
L 281.246715 189.062877 
L 282.595695 206.744046 
L 283.045355 225.995039 
L 283.495015 182.175315 
L 283.944675 186.317577 
L 284.394335 193.617096 
L 284.843995 207.61754 
L 285.293655 184.823812 
L 285.743315 112.794555 
L 286.192975 200.879631 
L 286.642635 199.369207 
L 287.092295 159.456282 
L 287.541955 206.459709 
L 287.991615 194.870234 
L 288.441275 198.299579 
L 288.890935 198.124595 
L 289.340595 196.073374 
L 289.790255 196.159586 
L 290.239915 213.957056 
L 290.689575 168.375815 
L 291.139235 206.571084 
L 291.588895 208.085236 
L 292.038555 199.799948 
L 292.488215 226.217414 
L 292.937876 223.518756 
L 293.387536 195.60384 
L 293.837196 196.612216 
L 294.286856 195.228571 
L 294.736516 201.018401 
L 295.635836 233.010425 
L 296.085496 195.021504 
L 296.535156 196.25839 
L 296.984816 194.96353 
L 297.434476 191.157308 
L 297.884136 195.98078 
L 298.333796 198.327469 
L 298.783456 196.113051 
L 299.233116 201.67896 
L 299.682776 199.686474 
L 300.132436 198.678324 
L 300.582096 167.126511 
L 301.031756 186.656396 
L 301.481416 191.077817 
L 301.931076 194.181781 
L 302.380736 192.541626 
L 302.830396 195.604583 
L 303.280056 208.927979 
L 303.729716 215.990189 
L 304.179376 193.212337 
L 304.629036 188.817947 
L 305.078696 202.117782 
L 305.528357 210.98335 
L 305.978017 233.320416 
L 306.877337 164.809579 
L 307.326997 178.593531 
L 307.776657 162.967639 
L 308.226317 193.068103 
L 308.675977 213.580133 
L 309.125637 153.154126 
L 309.575297 188.112365 
L 310.024957 185.763809 
L 310.474617 194.151337 
L 310.924277 190.103858 
L 311.373937 204.367884 
L 311.823597 210.903359 
L 312.273257 187.131871 
L 312.722917 176.167879 
L 313.172577 186.51528 
L 313.622237 205.442146 
L 314.071897 200.568651 
L 314.521557 189.143899 
L 314.971217 193.028524 
L 315.870537 180.223094 
L 316.320197 180.673135 
L 316.769857 204.520812 
L 317.219517 213.686456 
L 317.669177 181.904667 
L 318.118838 196.764368 
L 318.568498 192.612708 
L 319.018158 210.158382 
L 319.467818 233.001889 
L 319.917478 227.45609 
L 320.367138 194.083797 
L 320.816798 170.813535 
L 321.266458 196.038674 
L 321.716118 183.193195 
L 322.165778 204.389202 
L 322.615438 197.081323 
L 323.514758 201.176979 
L 323.964418 200.617729 
L 324.414078 161.328289 
L 324.863738 148.68936 
L 325.313398 186.094702 
L 325.763058 200.153367 
L 326.212718 196.736598 
L 326.662378 209.012475 
L 327.112038 199.86812 
L 327.561698 204.633844 
L 328.011358 215.32708 
L 328.461018 198.523057 
L 328.910678 213.852497 
L 329.360338 221.686948 
L 329.809998 195.470606 
L 330.259658 212.810941 
L 330.709318 195.757511 
L 331.158979 189.100635 
L 331.608639 192.11507 
L 332.058299 201.330099 
L 332.507959 165.043689 
L 333.407279 183.357168 
L 333.856939 177.12698 
L 334.306599 173.995861 
L 335.205919 203.269993 
L 335.655579 207.49793 
L 336.105239 204.26666 
L 337.004559 157.27007 
L 337.454219 153.377206 
L 337.903879 194.829323 
L 338.353539 154.361742 
L 339.252859 195.032729 
L 340.152179 202.295574 
L 341.051499 192.051172 
L 341.501159 202.409724 
L 341.950819 179.168185 
L 342.400479 60.825188 
L 342.850139 94.876912 
L 343.299799 207.688903 
L 343.74946 221.53496 
L 344.19912 222.091353 
L 344.64878 154.065779 
L 345.09844 224.437761 
L 345.5481 201.007325 
L 345.99776 200.285494 
L 346.44742 204.253432 
L 346.89708 203.833451 
L 347.34674 201.784713 
L 347.7964 204.53219 
L 348.24606 210.509393 
L 349.14538 187.978313 
L 349.59504 170.483649 
L 350.0447 201.433977 
L 350.49436 202.357248 
L 350.94402 202.130185 
L 351.39368 219.848929 
L 351.84334 200.121141 
L 352.293 219.780124 
L 352.74266 200.396179 
L 353.19232 216.887598 
L 353.64198 227.396236 
L 354.09164 197.086289 
L 354.5413 183.667047 
L 354.99096 201.912469 
L 355.44062 196.886229 
L 355.89028 203.352352 
L 356.339941 215.779499 
L 356.789601 199.122039 
L 357.239261 153.433008 
L 357.688921 169.990539 
L 358.138581 207.51898 
L 358.588241 209.185619 
L 359.487561 169.379753 
L 359.937221 199.266896 
L 360.386881 197.291017 
L 360.836541 185.916325 
L 361.286201 197.543577 
L 361.735861 202.818782 
L 362.185521 200.438614 
L 362.635181 208.938302 
L 363.084841 197.350351 
L 363.534501 205.367446 
L 363.984161 226.009149 
L 364.433821 187.331689 
L 365.333141 205.770786 
L 365.782801 206.604758 
L 366.232461 199.315466 
L 366.682121 180.43271 
L 367.131781 203.078508 
L 367.581441 180.457729 
L 368.031101 163.924286 
L 368.480761 174.542448 
L 368.930421 189.32948 
L 369.380082 192.379583 
L 369.829742 199.274506 
L 370.279402 197.538679 
L 370.729062 198.379465 
L 371.178722 198.463972 
L 371.628382 183.635156 
L 372.078042 204.753721 
L 372.527702 213.434021 
L 372.977362 193.909225 
L 373.427022 217.019375 
L 373.876682 219.001154 
L 374.326342 205.606586 
L 375.225662 169.814012 
L 375.675322 197.642787 
L 376.124982 192.204091 
L 376.574642 195.585148 
L 377.024302 187.034489 
L 377.473962 195.039841 
L 377.923622 179.638835 
L 378.822942 245.524579 
L 379.272602 240.780542 
L 379.722262 182.361678 
L 380.171922 194.003912 
L 380.621582 212.435293 
L 381.071242 199.215992 
L 381.520902 214.217591 
L 381.970563 218.930561 
L 382.420223 194.059814 
L 382.869883 202.448224 
L 383.319543 197.656293 
L 383.769203 197.531595 
L 384.218863 202.902963 
L 384.668523 204.638743 
L 384.668523 204.638743 
" style="fill:none;stroke:#1f77b4;stroke-linecap:square;stroke-width:1.5;"/>
   </g>
   <g id="line2d_16">
    <path clip-path="url(#pe6a8048041)" d="M 60.013977 34.414125 
L 60.913297 60.537852 
L 62.262277 103.462411 
L 62.711937 51.330434 
L 63.611258 73.425311 
L 64.060918 159.250665 
L 64.960238 169.1153 
L 65.409898 190.666889 
L 66.309218 195.692248 
L 66.758878 219.090979 
L 67.658198 221.716206 
L 68.107858 234.36987 
L 69.007178 235.701156 
L 69.456838 221.970137 
L 70.356158 224.366557 
L 70.805818 237.543352 
L 71.255478 238.130671 
L 71.705138 238.510176 
L 72.154798 233.233445 
L 73.054118 233.892429 
L 73.503778 234.959153 
L 74.403098 236.0529 
L 74.852758 245.540515 
L 75.752079 246.43484 
L 76.201739 206.934636 
L 77.101059 208.947496 
L 77.550719 232.608606 
L 78.450039 232.97171 
L 78.899699 244.58402 
L 79.799019 244.759831 
L 80.248679 252.122643 
L 81.147999 252.145327 
L 81.597659 250.391 
L 82.496979 250.421939 
L 82.946639 254.195683 
L 83.845959 254.982681 
L 84.295619 255.242571 
L 85.194939 255.293018 
L 85.644599 254.549304 
L 86.094259 254.77424 
L 86.543919 255.204446 
L 86.993579 252.377481 
L 87.892899 252.660587 
L 88.342559 252.457594 
L 89.24188 253.54073 
L 89.69154 251.133203 
L 90.1412 252.268426 
L 90.59086 253.031136 
L 91.49018 253.899076 
L 91.93984 254.253253 
L 92.3895 254.009946 
L 92.83916 254.61082 
L 93.28882 254.909841 
L 93.73848 256.1635 
L 94.6378 256.40939 
L 95.08746 259.887631 
L 95.53712 260.731384 
L 95.98678 261.086681 
L 96.43644 247.01936 
L 96.8861 247.833126 
L 97.33576 248.217101 
L 97.78542 258.636447 
L 98.68474 259.0335 
L 99.1344 256.42389 
L 100.03372 256.522395 
L 100.48338 255.664085 
L 101.382701 256.636948 
L 101.832361 254.272995 
L 102.282021 254.904066 
L 102.731681 255.267922 
L 103.181341 257.151338 
L 104.080661 257.294824 
L 104.530321 261.545645 
L 104.979981 261.637237 
L 105.429641 261.612283 
L 105.879301 262.418585 
L 106.778621 262.431589 
L 107.228281 255.280904 
L 108.127601 255.374549 
L 108.577261 254.655554 
L 109.026921 254.966859 
L 109.476581 255.104091 
L 109.926241 261.291624 
L 110.825561 261.880246 
L 111.275221 260.323214 
L 111.724881 260.763886 
L 112.174541 260.764337 
L 112.624201 258.648514 
L 113.523521 258.93115 
L 113.973182 263.005505 
L 114.422842 262.733877 
L 114.872502 262.637115 
L 115.322162 271.079812 
L 116.221482 271.245412 
L 116.671142 266.923323 
L 117.120802 267.051341 
L 117.570462 267.035353 
L 118.020122 260.732256 
L 118.919442 261.096793 
L 119.369102 271.225034 
L 120.268422 271.357875 
L 120.718082 255.635635 
L 121.617402 255.759783 
L 122.067062 258.639094 
L 122.516722 258.935271 
L 122.966382 258.993886 
L 123.416042 267.735857 
L 124.315362 267.820408 
L 124.765022 269.927667 
L 125.664342 269.936147 
L 126.114002 261.760183 
L 127.013323 261.724211 
L 127.462983 266.266843 
L 128.362303 266.287565 
L 128.811963 263.730647 
L 129.261623 263.612941 
L 129.711283 263.739416 
L 130.160943 271.192869 
L 131.060263 271.197211 
L 131.509923 270.843772 
L 132.409243 270.783447 
L 132.858903 267.851952 
L 133.758223 267.990884 
L 134.207883 264.669693 
L 134.657543 264.498293 
L 135.107203 264.623247 
L 135.556863 270.209002 
L 136.456183 270.238283 
L 136.905843 268.984085 
L 137.355503 268.931005 
L 137.805163 269.017631 
L 138.254823 268.771147 
L 139.154143 269.062513 
L 139.603804 267.652057 
L 140.053464 267.615523 
L 140.503124 267.841987 
L 140.952784 275.148588 
L 141.852104 275.191744 
L 142.301764 275.47675 
L 143.201084 275.492506 
L 143.650744 261.086315 
L 144.100404 261.547691 
L 144.550064 261.441053 
L 144.999724 267.026725 
L 145.899044 267.044837 
L 146.348704 275.591184 
L 147.248024 275.624179 
L 147.697684 268.825783 
L 148.597004 268.911861 
L 149.046664 266.467058 
L 149.945984 266.797226 
L 150.395644 272.698492 
L 150.845304 272.815551 
L 151.294964 272.766623 
L 151.744624 268.620823 
L 152.643945 268.820163 
L 153.093605 258.259619 
L 153.992925 259.074993 
L 154.442585 267.946783 
L 155.341905 267.889611 
L 155.791565 260.195053 
L 156.241225 260.972635 
L 156.690885 261.288608 
L 157.140545 268.102945 
L 158.039865 268.287349 
L 158.489525 259.41641 
L 159.388845 259.765669 
L 159.838505 271.716226 
L 160.737825 271.790654 
L 161.187485 272.161449 
L 161.637145 272.271502 
L 162.086805 272.265399 
L 162.536465 262.475529 
L 163.435785 262.735816 
L 163.885445 266.67278 
L 164.335105 266.934561 
L 164.784765 267.058781 
L 165.234426 270.137413 
L 166.133746 270.277532 
L 166.583406 265.267387 
L 167.482726 265.388002 
L 167.932386 272.05354 
L 168.831706 272.09388 
L 169.281366 270.855693 
L 170.180686 270.939606 
L 170.630346 265.543834 
L 171.529666 266.171181 
L 171.979326 275.468135 
L 172.878646 275.457207 
L 173.328306 275.701206 
L 174.227626 275.736185 
L 174.677286 271.331265 
L 175.576606 271.295698 
L 176.026266 268.198448 
L 176.925586 268.241998 
L 177.375246 269.797802 
L 178.274567 269.743808 
L 178.724227 267.266813 
L 179.623547 267.191665 
L 180.073207 266.429051 
L 180.972527 266.435332 
L 181.422187 250.314196 
L 182.321507 251.271098 
L 182.771167 263.072674 
L 183.670487 263.458469 
L 184.120147 265.456353 
L 185.019467 265.479573 
L 185.469127 272.739963 
L 185.918787 272.644985 
L 186.368447 272.671868 
L 186.818107 260.592397 
L 187.267767 260.921176 
L 187.717427 261.003481 
L 188.167087 262.983075 
L 189.066407 263.387395 
L 189.516067 263.103314 
L 190.415387 263.429632 
L 190.865048 267.363338 
L 191.764368 267.617385 
L 192.214028 264.608244 
L 192.663688 264.62906 
L 193.113348 264.822672 
L 193.563008 268.032363 
L 194.462328 268.299013 
L 194.911988 267.677302 
L 195.811308 267.659696 
L 196.260968 269.550728 
L 196.710628 269.490523 
L 197.160288 269.61422 
L 197.609948 262.330996 
L 198.059608 262.956598 
L 198.509268 263.134026 
L 198.958928 264.681868 
L 199.408588 264.965078 
L 199.858248 264.893874 
L 200.307908 263.637488 
L 200.757568 264.039573 
L 201.207228 264.158948 
L 201.656888 245.846945 
L 202.556208 247.364336 
L 203.005868 258.667496 
L 203.905189 259.519577 
L 204.354849 261.744031 
L 205.254169 261.928569 
L 205.703829 271.028185 
L 206.603149 271.010837 
L 207.052809 266.595274 
L 208.851449 266.794912 
L 209.301109 266.922473 
L 209.750769 269.907777 
L 210.200429 269.937715 
L 210.650089 270.100633 
L 211.099749 263.372302 
L 211.999069 263.094344 
L 212.448729 260.0583 
L 213.348049 260.366542 
L 213.797709 261.336889 
L 214.247369 261.884439 
L 214.697029 262.205672 
L 215.146689 244.656 
L 216.04601 247.144306 
L 216.49567 267.456814 
L 216.94533 267.514755 
L 217.39499 267.405233 
L 217.84465 261.426357 
L 218.29431 261.406217 
L 218.74397 261.502765 
L 219.19363 266.604284 
L 220.09295 266.916755 
L 220.54261 258.21069 
L 221.44193 259.250498 
L 221.89159 254.209682 
L 222.79091 255.376883 
L 223.24057 262.537849 
L 224.13989 262.454459 
L 224.58955 258.401011 
L 225.48887 259.596104 
L 225.93853 268.813326 
L 226.38819 268.776903 
L 226.83785 268.948195 
L 227.28751 270.417963 
L 228.18683 270.450437 
L 228.63649 262.049646 
L 229.086151 262.448231 
L 229.535811 262.63378 
L 229.985471 268.608453 
L 230.884791 268.729772 
L 231.334451 262.146431 
L 231.784111 262.232225 
L 232.233771 262.462805 
L 232.683431 259.257126 
L 233.133091 260.059852 
L 233.582751 260.426982 
L 234.032411 268.912973 
L 234.931731 269.123539 
L 235.381391 268.718896 
L 235.831051 268.945024 
L 236.280711 268.850966 
L 236.730371 272.936164 
L 237.180031 273.11372 
L 237.629691 273.159098 
L 238.079351 268.848799 
L 238.978671 268.839669 
L 239.428331 268.135129 
L 240.327651 268.690771 
L 240.777311 254.492537 
L 241.226971 254.620108 
L 241.676632 255.391006 
L 242.126292 261.2957 
L 243.025612 261.823254 
L 243.475272 266.043617 
L 243.924932 265.81194 
L 244.374592 265.809095 
L 244.824252 257.826544 
L 245.723572 258.473463 
L 246.173232 264.575011 
L 247.072552 264.874134 
L 247.522212 261.112836 
L 248.421532 261.329264 
L 248.871192 271.533183 
L 249.770512 271.687017 
L 250.220172 260.127187 
L 251.119492 260.64072 
L 251.569152 269.497707 
L 252.468472 269.55945 
L 252.918132 268.123681 
L 253.817452 268.211766 
L 254.267113 265.798666 
L 255.166433 265.993628 
L 255.616093 275.562089 
L 256.515413 275.770974 
L 256.965073 273.554151 
L 257.864393 273.563865 
L 258.314053 265.226831 
L 259.213373 265.433502 
L 259.663033 275.464478 
L 260.562353 275.557505 
L 261.012013 270.051567 
L 261.461673 270.043024 
L 261.911333 270.178925 
L 262.360993 268.529479 
L 262.810653 268.550564 
L 263.260313 268.691997 
L 263.709973 270.885776 
L 264.609293 271.05384 
L 265.058953 267.167016 
L 265.508613 267.460164 
L 265.958273 267.437927 
L 266.407933 276.128357 
L 267.307254 276.153109 
L 267.756914 272.869737 
L 268.656234 272.971495 
L 269.105894 273.437072 
L 270.005214 273.517544 
L 270.454874 276.270666 
L 271.354194 276.328438 
L 271.803854 273.902102 
L 272.703174 274.051124 
L 273.152834 276.2885 
L 274.052154 276.334125 
L 274.501814 270.17244 
L 275.401134 270.403629 
L 275.850794 273.816711 
L 276.750114 273.879454 
L 277.199774 273.227681 
L 278.099094 273.324946 
L 278.548754 276.04445 
L 279.448074 276.063188 
L 279.897735 272.80157 
L 280.797055 272.953571 
L 281.246715 273.61001 
L 282.146035 273.567661 
L 282.595695 276.226026 
L 283.495015 276.221275 
L 283.944675 276.064832 
L 286.192975 276.122546 
L 286.642635 269.824535 
L 287.541955 270.124135 
L 287.991615 263.787575 
L 288.441275 264.081107 
L 288.890935 264.172229 
L 289.340595 266.742301 
L 290.239915 267.256773 
L 290.689575 270.453599 
L 291.588895 270.756691 
L 292.038555 262.954623 
L 292.937876 263.12371 
L 293.387536 262.378154 
L 294.286856 263.105994 
L 294.736516 260.306462 
L 295.186176 261.150541 
L 295.635836 261.510156 
L 296.085496 276.043691 
L 296.984816 276.153553 
L 297.434476 275.870253 
L 298.333796 275.995833 
L 298.783456 275.796212 
L 299.682776 275.879386 
L 300.132436 270.519797 
L 301.031756 270.464756 
L 301.481416 264.031222 
L 302.380736 264.219164 
L 302.830396 268.021459 
L 303.729716 268.205198 
L 304.179376 273.302866 
L 305.078696 273.380894 
L 305.528357 272.510013 
L 306.427677 272.640677 
L 306.877337 272.055647 
L 307.776657 272.242502 
L 308.226317 274.136059 
L 310.474617 274.366477 
L 310.924277 276.039301 
L 311.823597 276.078582 
L 312.273257 272.957325 
L 313.172577 273.023696 
L 313.622237 272.203573 
L 314.521557 272.254903 
L 314.971217 273.145027 
L 315.870537 273.240702 
L 316.320197 269.603645 
L 317.219517 269.63556 
L 317.669177 271.663127 
L 318.568498 271.756107 
L 319.018158 276.050481 
L 319.917478 276.182231 
L 321.266458 276.196355 
L 321.716118 267.353606 
L 322.615438 267.407713 
L 323.065098 266.039801 
L 323.964418 266.384972 
L 324.414078 275.990937 
L 325.313398 276.059152 
L 325.763058 270.156215 
L 326.662378 270.385969 
L 327.112038 268.615811 
L 328.011358 268.735277 
L 328.461018 267.259245 
L 329.360338 267.787117 
L 329.809998 264.901366 
L 330.259658 264.866585 
L 330.709318 265.16113 
L 331.158979 260.137766 
L 332.058299 260.809785 
L 332.507959 276.180634 
L 333.407279 276.19715 
L 333.856939 264.633409 
L 334.756259 264.944914 
L 335.205919 264.864815 
L 335.655579 265.239532 
L 336.105239 265.220636 
L 336.554899 273.88062 
L 337.454219 273.893705 
L 337.903879 272.892565 
L 338.803199 272.952623 
L 339.252859 259.64834 
L 339.702519 260.263511 
L 340.152179 260.424656 
L 340.601839 265.883564 
L 341.051499 266.394833 
L 341.501159 266.635917 
L 341.950819 275.951691 
L 342.850139 276.065896 
L 343.299799 267.147927 
L 344.19912 267.586681 
L 344.64878 273.693217 
L 345.5481 273.57517 
L 345.99776 256.02754 
L 346.44742 256.559875 
L 346.89708 256.896987 
L 347.34674 261.292216 
L 347.7964 261.2042 
L 348.24606 261.720472 
L 348.69572 276.115763 
L 349.59504 276.199792 
L 350.0447 267.183019 
L 350.94402 267.419842 
L 351.39368 263.593365 
L 351.84334 264.36147 
L 352.293 264.836886 
L 352.74266 265.875611 
L 353.19232 265.952533 
L 353.64198 266.149746 
L 354.09164 271.525726 
L 354.99096 271.678568 
L 355.44062 266.241733 
L 356.339941 266.500542 
L 356.789601 272.74133 
L 357.688921 272.802086 
L 358.138581 276.253043 
L 359.037901 276.320267 
L 359.487561 269.981398 
L 360.386881 270.046908 
L 360.836541 272.578589 
L 361.735861 272.539686 
L 362.185521 270.500792 
L 363.084841 270.553047 
L 363.534501 275.734433 
L 364.433821 275.779357 
L 364.883481 257.734671 
L 365.333141 258.088528 
L 365.782801 258.274824 
L 366.232461 265.048925 
L 367.131781 265.469001 
L 367.581441 261.936265 
L 369.829742 262.718467 
L 370.279402 249.133923 
L 371.178722 249.958919 
L 371.628382 268.644957 
L 372.527702 269.087379 
L 372.977362 263.783912 
L 373.427022 264.243583 
L 373.876682 264.383525 
L 374.326342 274.95726 
L 375.225662 274.943601 
L 375.675322 268.206674 
L 376.574642 268.496193 
L 377.024302 269.865844 
L 377.923622 269.914111 
L 378.373282 276.249773 
L 379.272602 276.319482 
L 379.722262 270.366847 
L 380.621582 270.542776 
L 381.071242 261.265742 
L 381.970563 261.562112 
L 382.420223 265.060921 
L 382.869883 265.321211 
L 383.319543 265.369856 
L 383.769203 256.397596 
L 384.218863 257.050635 
L 384.668523 257.455322 
L 384.668523 257.455322 
" style="fill:none;stroke:#ff7f0e;stroke-linecap:square;stroke-width:1.5;"/>
   </g>
   <g id="patch_3">
    <path d="M 43.78125 288.430125 
L 43.78125 22.318125 
" style="fill:none;stroke:#000000;stroke-linecap:square;stroke-linejoin:miter;stroke-width:0.8;"/>
   </g>
   <g id="patch_4">
    <path d="M 400.90125 288.430125 
L 400.90125 22.318125 
" style="fill:none;stroke:#000000;stroke-linecap:square;stroke-linejoin:miter;stroke-width:0.8;"/>
   </g>
   <g id="patch_5">
    <path d="M 43.78125 288.430125 
L 400.90125 288.430125 
" style="fill:none;stroke:#000000;stroke-linecap:square;stroke-linejoin:miter;stroke-width:0.8;"/>
   </g>
   <g id="patch_6">
    <path d="M 43.78125 22.318125 
L 400.90125 22.318125 
" style="fill:none;stroke:#000000;stroke-linecap:square;stroke-linejoin:miter;stroke-width:0.8;"/>
   </g>
   <g id="text_17">
    <!-- Entropy and Loss. -->
    <defs>
     <path d="M 54.890625 33.015625 
L 54.890625 0 
L 45.90625 0 
L 45.90625 32.71875 
Q 45.90625 40.484375 42.875 44.328125 
Q 39.84375 48.1875 33.796875 48.1875 
Q 26.515625 48.1875 22.3125 43.546875 
Q 18.109375 38.921875 18.109375 30.90625 
L 18.109375 0 
L 9.078125 0 
L 9.078125 54.6875 
L 18.109375 54.6875 
L 18.109375 46.1875 
Q 21.34375 51.125 25.703125 53.5625 
Q 30.078125 56 35.796875 56 
Q 45.21875 56 50.046875 50.171875 
Q 54.890625 44.34375 54.890625 33.015625 
z
" id="DejaVuSans-110"/>
     <path d="M 18.3125 70.21875 
L 18.3125 54.6875 
L 36.8125 54.6875 
L 36.8125 47.703125 
L 18.3125 47.703125 
L 18.3125 18.015625 
Q 18.3125 11.328125 20.140625 9.421875 
Q 21.96875 7.515625 27.59375 7.515625 
L 36.8125 7.515625 
L 36.8125 0 
L 27.59375 0 
Q 17.1875 0 13.234375 3.875 
Q 9.28125 7.765625 9.28125 18.015625 
L 9.28125 47.703125 
L 2.6875 47.703125 
L 2.6875 54.6875 
L 9.28125 54.6875 
L 9.28125 70.21875 
z
" id="DejaVuSans-116"/>
     <path d="M 41.109375 46.296875 
Q 39.59375 47.171875 37.8125 47.578125 
Q 36.03125 48 33.890625 48 
Q 26.265625 48 22.1875 43.046875 
Q 18.109375 38.09375 18.109375 28.8125 
L 18.109375 0 
L 9.078125 0 
L 9.078125 54.6875 
L 18.109375 54.6875 
L 18.109375 46.1875 
Q 20.953125 51.171875 25.484375 53.578125 
Q 30.03125 56 36.53125 56 
Q 37.453125 56 38.578125 55.875 
Q 39.703125 55.765625 41.0625 55.515625 
z
" id="DejaVuSans-114"/>
     <path d="M 32.171875 -5.078125 
Q 28.375 -14.84375 24.75 -17.8125 
Q 21.140625 -20.796875 15.09375 -20.796875 
L 7.90625 -20.796875 
L 7.90625 -13.28125 
L 13.1875 -13.28125 
Q 16.890625 -13.28125 18.9375 -11.515625 
Q 21 -9.765625 23.484375 -3.21875 
L 25.09375 0.875 
L 2.984375 54.6875 
L 12.5 54.6875 
L 29.59375 11.921875 
L 46.6875 54.6875 
L 56.203125 54.6875 
z
" id="DejaVuSans-121"/>
     <path id="DejaVuSans-32"/>
     <path d="M 34.28125 27.484375 
Q 23.390625 27.484375 19.1875 25 
Q 14.984375 22.515625 14.984375 16.5 
Q 14.984375 11.71875 18.140625 8.90625 
Q 21.296875 6.109375 26.703125 6.109375 
Q 34.1875 6.109375 38.703125 11.40625 
Q 43.21875 16.703125 43.21875 25.484375 
L 43.21875 27.484375 
z
M 52.203125 31.203125 
L 52.203125 0 
L 43.21875 0 
L 43.21875 8.296875 
Q 40.140625 3.328125 35.546875 0.953125 
Q 30.953125 -1.421875 24.3125 -1.421875 
Q 15.921875 -1.421875 10.953125 3.296875 
Q 6 8.015625 6 15.921875 
Q 6 25.140625 12.171875 29.828125 
Q 18.359375 34.515625 30.609375 34.515625 
L 43.21875 34.515625 
L 43.21875 35.40625 
Q 43.21875 41.609375 39.140625 45 
Q 35.0625 48.390625 27.6875 48.390625 
Q 23 48.390625 18.546875 47.265625 
Q 14.109375 46.140625 10.015625 43.890625 
L 10.015625 52.203125 
Q 14.9375 54.109375 19.578125 55.046875 
Q 24.21875 56 28.609375 56 
Q 40.484375 56 46.34375 49.84375 
Q 52.203125 43.703125 52.203125 31.203125 
z
" id="DejaVuSans-97"/>
     <path d="M 45.40625 46.390625 
L 45.40625 75.984375 
L 54.390625 75.984375 
L 54.390625 0 
L 45.40625 0 
L 45.40625 8.203125 
Q 42.578125 3.328125 38.25 0.953125 
Q 33.9375 -1.421875 27.875 -1.421875 
Q 17.96875 -1.421875 11.734375 6.484375 
Q 5.515625 14.40625 5.515625 27.296875 
Q 5.515625 40.1875 11.734375 48.09375 
Q 17.96875 56 27.875 56 
Q 33.9375 56 38.25 53.625 
Q 42.578125 51.265625 45.40625 46.390625 
z
M 14.796875 27.296875 
Q 14.796875 17.390625 18.875 11.75 
Q 22.953125 6.109375 30.078125 6.109375 
Q 37.203125 6.109375 41.296875 11.75 
Q 45.40625 17.390625 45.40625 27.296875 
Q 45.40625 37.203125 41.296875 42.84375 
Q 37.203125 48.484375 30.078125 48.484375 
Q 22.953125 48.484375 18.875 42.84375 
Q 14.796875 37.203125 14.796875 27.296875 
z
" id="DejaVuSans-100"/>
    </defs>
    <g transform="translate(168.625313 16.318125)scale(0.12 -0.12)">
     <use xlink:href="#DejaVuSans-69"/>
     <use x="63.183594" xlink:href="#DejaVuSans-110"/>
     <use x="126.5625" xlink:href="#DejaVuSans-116"/>
     <use x="165.771484" xlink:href="#DejaVuSans-114"/>
     <use x="206.853516" xlink:href="#DejaVuSans-111"/>
     <use x="268.035156" xlink:href="#DejaVuSans-112"/>
     <use x="331.511719" xlink:href="#DejaVuSans-121"/>
     <use x="390.691406" xlink:href="#DejaVuSans-32"/>
     <use x="422.478516" xlink:href="#DejaVuSans-97"/>
     <use x="483.757812" xlink:href="#DejaVuSans-110"/>
     <use x="547.136719" xlink:href="#DejaVuSans-100"/>
     <use x="610.613281" xlink:href="#DejaVuSans-32"/>
     <use x="642.400391" xlink:href="#DejaVuSans-76"/>
     <use x="698.097656" xlink:href="#DejaVuSans-111"/>
     <use x="759.279297" xlink:href="#DejaVuSans-115"/>
     <use x="811.378906" xlink:href="#DejaVuSans-115"/>
     <use x="863.478516" xlink:href="#DejaVuSans-46"/>
    </g>
   </g>
   <g id="legend_1">
    <g id="patch_7">
     <path d="M 20.061562 353.02505 
L 428.620938 353.02505 
Q 430.620938 353.02505 430.620938 351.02505 
L 430.620938 337.346925 
Q 430.620938 335.346925 428.620938 335.346925 
L 20.061562 335.346925 
Q 18.061562 335.346925 18.061562 337.346925 
L 18.061562 351.02505 
Q 18.061562 353.02505 20.061562 353.02505 
z
" style="fill:#4c4c4c;opacity:0.5;stroke:#4c4c4c;stroke-linejoin:miter;"/>
    </g>
    <g id="patch_8">
     <path d="M 18.061562 351.02505 
L 426.620938 351.02505 
Q 428.620938 351.02505 428.620938 349.02505 
L 428.620938 335.346925 
Q 428.620938 333.346925 426.620938 333.346925 
L 18.061562 333.346925 
Q 16.061562 333.346925 16.061562 335.346925 
L 16.061562 349.02505 
Q 16.061562 351.02505 18.061562 351.02505 
z
" style="fill:#ffffff;stroke:#cccccc;stroke-linejoin:miter;"/>
    </g>
    <g id="line2d_17">
     <path d="M 20.061562 341.445362 
L 40.061562 341.445362 
" style="fill:none;stroke:#1f77b4;stroke-linecap:square;stroke-width:1.5;"/>
    </g>
    <g id="line2d_18"/>
    <g id="text_18">
     <!-- Policy Loss (Normalized) -->
     <defs>
      <path d="M 19.671875 64.796875 
L 19.671875 37.40625 
L 32.078125 37.40625 
Q 38.96875 37.40625 42.71875 40.96875 
Q 46.484375 44.53125 46.484375 51.125 
Q 46.484375 57.671875 42.71875 61.234375 
Q 38.96875 64.796875 32.078125 64.796875 
z
M 9.8125 72.90625 
L 32.078125 72.90625 
Q 44.34375 72.90625 50.609375 67.359375 
Q 56.890625 61.8125 56.890625 51.125 
Q 56.890625 40.328125 50.609375 34.8125 
Q 44.34375 29.296875 32.078125 29.296875 
L 19.671875 29.296875 
L 19.671875 0 
L 9.8125 0 
z
" id="DejaVuSans-80"/>
      <path d="M 9.421875 75.984375 
L 18.40625 75.984375 
L 18.40625 0 
L 9.421875 0 
z
" id="DejaVuSans-108"/>
      <path d="M 9.421875 54.6875 
L 18.40625 54.6875 
L 18.40625 0 
L 9.421875 0 
z
M 9.421875 75.984375 
L 18.40625 75.984375 
L 18.40625 64.59375 
L 9.421875 64.59375 
z
" id="DejaVuSans-105"/>
      <path d="M 31 75.875 
Q 24.46875 64.65625 21.28125 53.65625 
Q 18.109375 42.671875 18.109375 31.390625 
Q 18.109375 20.125 21.3125 9.0625 
Q 24.515625 -2 31 -13.1875 
L 23.1875 -13.1875 
Q 15.875 -1.703125 12.234375 9.375 
Q 8.59375 20.453125 8.59375 31.390625 
Q 8.59375 42.28125 12.203125 53.3125 
Q 15.828125 64.359375 23.1875 75.875 
z
" id="DejaVuSans-40"/>
      <path d="M 9.8125 72.90625 
L 23.09375 72.90625 
L 55.421875 11.921875 
L 55.421875 72.90625 
L 64.984375 72.90625 
L 64.984375 0 
L 51.703125 0 
L 19.390625 60.984375 
L 19.390625 0 
L 9.8125 0 
z
" id="DejaVuSans-78"/>
      <path d="M 52 44.1875 
Q 55.375 50.25 60.0625 53.125 
Q 64.75 56 71.09375 56 
Q 79.640625 56 84.28125 50.015625 
Q 88.921875 44.046875 88.921875 33.015625 
L 88.921875 0 
L 79.890625 0 
L 79.890625 32.71875 
Q 79.890625 40.578125 77.09375 44.375 
Q 74.3125 48.1875 68.609375 48.1875 
Q 61.625 48.1875 57.5625 43.546875 
Q 53.515625 38.921875 53.515625 30.90625 
L 53.515625 0 
L 44.484375 0 
L 44.484375 32.71875 
Q 44.484375 40.625 41.703125 44.40625 
Q 38.921875 48.1875 33.109375 48.1875 
Q 26.21875 48.1875 22.15625 43.53125 
Q 18.109375 38.875 18.109375 30.90625 
L 18.109375 0 
L 9.078125 0 
L 9.078125 54.6875 
L 18.109375 54.6875 
L 18.109375 46.1875 
Q 21.1875 51.21875 25.484375 53.609375 
Q 29.78125 56 35.6875 56 
Q 41.65625 56 45.828125 52.96875 
Q 50 49.953125 52 44.1875 
z
" id="DejaVuSans-109"/>
      <path d="M 5.515625 54.6875 
L 48.1875 54.6875 
L 48.1875 46.484375 
L 14.40625 7.171875 
L 48.1875 7.171875 
L 48.1875 0 
L 4.296875 0 
L 4.296875 8.203125 
L 38.09375 47.515625 
L 5.515625 47.515625 
z
" id="DejaVuSans-122"/>
      <path d="M 56.203125 29.59375 
L 56.203125 25.203125 
L 14.890625 25.203125 
Q 15.484375 15.921875 20.484375 11.0625 
Q 25.484375 6.203125 34.421875 6.203125 
Q 39.59375 6.203125 44.453125 7.46875 
Q 49.3125 8.734375 54.109375 11.28125 
L 54.109375 2.78125 
Q 49.265625 0.734375 44.1875 -0.34375 
Q 39.109375 -1.421875 33.890625 -1.421875 
Q 20.796875 -1.421875 13.15625 6.1875 
Q 5.515625 13.8125 5.515625 26.8125 
Q 5.515625 40.234375 12.765625 48.109375 
Q 20.015625 56 32.328125 56 
Q 43.359375 56 49.78125 48.890625 
Q 56.203125 41.796875 56.203125 29.59375 
z
M 47.21875 32.234375 
Q 47.125 39.59375 43.09375 43.984375 
Q 39.0625 48.390625 32.421875 48.390625 
Q 24.90625 48.390625 20.390625 44.140625 
Q 15.875 39.890625 15.1875 32.171875 
z
" id="DejaVuSans-101"/>
      <path d="M 8.015625 75.875 
L 15.828125 75.875 
Q 23.140625 64.359375 26.78125 53.3125 
Q 30.421875 42.28125 30.421875 31.390625 
Q 30.421875 20.453125 26.78125 9.375 
Q 23.140625 -1.703125 15.828125 -13.1875 
L 8.015625 -13.1875 
Q 14.5 -2 17.703125 9.0625 
Q 20.90625 20.125 20.90625 31.390625 
Q 20.90625 42.671875 17.703125 53.65625 
Q 14.5 64.65625 8.015625 75.875 
z
" id="DejaVuSans-41"/>
     </defs>
     <g transform="translate(48.061562 344.945362)scale(0.1 -0.1)">
      <use xlink:href="#DejaVuSans-80"/>
      <use x="60.255859" xlink:href="#DejaVuSans-111"/>
      <use x="121.4375" xlink:href="#DejaVuSans-108"/>
      <use x="149.220703" xlink:href="#DejaVuSans-105"/>
      <use x="177.003906" xlink:href="#DejaVuSans-99"/>
      <use x="231.984375" xlink:href="#DejaVuSans-121"/>
      <use x="291.164062" xlink:href="#DejaVuSans-32"/>
      <use x="322.951172" xlink:href="#DejaVuSans-76"/>
      <use x="378.648438" xlink:href="#DejaVuSans-111"/>
      <use x="439.830078" xlink:href="#DejaVuSans-115"/>
      <use x="491.929688" xlink:href="#DejaVuSans-115"/>
      <use x="544.029297" xlink:href="#DejaVuSans-32"/>
      <use x="575.816406" xlink:href="#DejaVuSans-40"/>
      <use x="614.830078" xlink:href="#DejaVuSans-78"/>
      <use x="689.634766" xlink:href="#DejaVuSans-111"/>
      <use x="750.816406" xlink:href="#DejaVuSans-114"/>
      <use x="791.914062" xlink:href="#DejaVuSans-109"/>
      <use x="889.326172" xlink:href="#DejaVuSans-97"/>
      <use x="950.605469" xlink:href="#DejaVuSans-108"/>
      <use x="978.388672" xlink:href="#DejaVuSans-105"/>
      <use x="1006.171875" xlink:href="#DejaVuSans-122"/>
      <use x="1058.662109" xlink:href="#DejaVuSans-101"/>
      <use x="1120.185547" xlink:href="#DejaVuSans-100"/>
      <use x="1183.662109" xlink:href="#DejaVuSans-41"/>
     </g>
    </g>
    <g id="line2d_19">
     <path d="M 190.330312 341.445362 
L 210.330312 341.445362 
" style="fill:none;stroke:#ff7f0e;stroke-linecap:square;stroke-width:1.5;"/>
    </g>
    <g id="line2d_20"/>
    <g id="text_19">
     <!-- Critic Loss (Normalized) -->
     <defs>
      <path d="M 64.40625 67.28125 
L 64.40625 56.890625 
Q 59.421875 61.53125 53.78125 63.8125 
Q 48.140625 66.109375 41.796875 66.109375 
Q 29.296875 66.109375 22.65625 58.46875 
Q 16.015625 50.828125 16.015625 36.375 
Q 16.015625 21.96875 22.65625 14.328125 
Q 29.296875 6.6875 41.796875 6.6875 
Q 48.140625 6.6875 53.78125 8.984375 
Q 59.421875 11.28125 64.40625 15.921875 
L 64.40625 5.609375 
Q 59.234375 2.09375 53.4375 0.328125 
Q 47.65625 -1.421875 41.21875 -1.421875 
Q 24.65625 -1.421875 15.125 8.703125 
Q 5.609375 18.84375 5.609375 36.375 
Q 5.609375 53.953125 15.125 64.078125 
Q 24.65625 74.21875 41.21875 74.21875 
Q 47.75 74.21875 53.53125 72.484375 
Q 59.328125 70.75 64.40625 67.28125 
z
" id="DejaVuSans-67"/>
     </defs>
     <g transform="translate(218.330312 344.945362)scale(0.1 -0.1)">
      <use xlink:href="#DejaVuSans-67"/>
      <use x="69.824219" xlink:href="#DejaVuSans-114"/>
      <use x="110.9375" xlink:href="#DejaVuSans-105"/>
      <use x="138.720703" xlink:href="#DejaVuSans-116"/>
      <use x="177.929688" xlink:href="#DejaVuSans-105"/>
      <use x="205.712891" xlink:href="#DejaVuSans-99"/>
      <use x="260.693359" xlink:href="#DejaVuSans-32"/>
      <use x="292.480469" xlink:href="#DejaVuSans-76"/>
      <use x="348.177734" xlink:href="#DejaVuSans-111"/>
      <use x="409.359375" xlink:href="#DejaVuSans-115"/>
      <use x="461.458984" xlink:href="#DejaVuSans-115"/>
      <use x="513.558594" xlink:href="#DejaVuSans-32"/>
      <use x="545.345703" xlink:href="#DejaVuSans-40"/>
      <use x="584.359375" xlink:href="#DejaVuSans-78"/>
      <use x="659.164062" xlink:href="#DejaVuSans-111"/>
      <use x="720.345703" xlink:href="#DejaVuSans-114"/>
      <use x="761.443359" xlink:href="#DejaVuSans-109"/>
      <use x="858.855469" xlink:href="#DejaVuSans-97"/>
      <use x="920.134766" xlink:href="#DejaVuSans-108"/>
      <use x="947.917969" xlink:href="#DejaVuSans-105"/>
      <use x="975.701172" xlink:href="#DejaVuSans-122"/>
      <use x="1028.191406" xlink:href="#DejaVuSans-101"/>
      <use x="1089.714844" xlink:href="#DejaVuSans-100"/>
      <use x="1153.191406" xlink:href="#DejaVuSans-41"/>
     </g>
    </g>
    <g id="line2d_21">
     <path d="M 357.550625 341.445362 
L 377.550625 341.445362 
" style="fill:none;stroke:#008000;stroke-linecap:square;stroke-width:1.5;"/>
    </g>
    <g id="line2d_22"/>
    <g id="text_20">
     <!-- Entropy -->
     <g transform="translate(385.550625 344.945362)scale(0.1 -0.1)">
      <use xlink:href="#DejaVuSans-69"/>
      <use x="63.183594" xlink:href="#DejaVuSans-110"/>
      <use x="126.5625" xlink:href="#DejaVuSans-116"/>
      <use x="165.771484" xlink:href="#DejaVuSans-114"/>
      <use x="206.853516" xlink:href="#DejaVuSans-111"/>
      <use x="268.035156" xlink:href="#DejaVuSans-112"/>
      <use x="331.511719" xlink:href="#DejaVuSans-121"/>
     </g>
    </g>
   </g>
  </g>
  <g id="axes_2">
   <g id="matplotlib.axis_3">
    <g id="ytick_7">
     <g id="line2d_23">
      <defs>
       <path d="M 0 0 
L 3.5 0 
" id="m5a2200b1bf" style="stroke:#000000;stroke-width:0.8;"/>
      </defs>
      <g>
       <use style="stroke:#000000;stroke-width:0.8;" x="400.90125" xlink:href="#m5a2200b1bf" y="269.841326"/>
      </g>
     </g>
     <g id="text_21">
      <!-- 0.8 -->
      <g transform="translate(407.90125 273.640545)scale(0.1 -0.1)">
       <use xlink:href="#DejaVuSans-48"/>
       <use x="63.623047" xlink:href="#DejaVuSans-46"/>
       <use x="95.410156" xlink:href="#DejaVuSans-56"/>
      </g>
     </g>
    </g>
    <g id="ytick_8">
     <g id="line2d_24">
      <g>
       <use style="stroke:#000000;stroke-width:0.8;" x="400.90125" xlink:href="#m5a2200b1bf" y="228.682105"/>
      </g>
     </g>
     <g id="text_22">
      <!-- 0.9 -->
      <defs>
       <path d="M 10.984375 1.515625 
L 10.984375 10.5 
Q 14.703125 8.734375 18.5 7.8125 
Q 22.3125 6.890625 25.984375 6.890625 
Q 35.75 6.890625 40.890625 13.453125 
Q 46.046875 20.015625 46.78125 33.40625 
Q 43.953125 29.203125 39.59375 26.953125 
Q 35.25 24.703125 29.984375 24.703125 
Q 19.046875 24.703125 12.671875 31.3125 
Q 6.296875 37.9375 6.296875 49.421875 
Q 6.296875 60.640625 12.9375 67.421875 
Q 19.578125 74.21875 30.609375 74.21875 
Q 43.265625 74.21875 49.921875 64.515625 
Q 56.59375 54.828125 56.59375 36.375 
Q 56.59375 19.140625 48.40625 8.859375 
Q 40.234375 -1.421875 26.421875 -1.421875 
Q 22.703125 -1.421875 18.890625 -0.6875 
Q 15.09375 0.046875 10.984375 1.515625 
z
M 30.609375 32.421875 
Q 37.25 32.421875 41.125 36.953125 
Q 45.015625 41.5 45.015625 49.421875 
Q 45.015625 57.28125 41.125 61.84375 
Q 37.25 66.40625 30.609375 66.40625 
Q 23.96875 66.40625 20.09375 61.84375 
Q 16.21875 57.28125 16.21875 49.421875 
Q 16.21875 41.5 20.09375 36.953125 
Q 23.96875 32.421875 30.609375 32.421875 
z
" id="DejaVuSans-57"/>
      </defs>
      <g transform="translate(407.90125 232.481324)scale(0.1 -0.1)">
       <use xlink:href="#DejaVuSans-48"/>
       <use x="63.623047" xlink:href="#DejaVuSans-46"/>
       <use x="95.410156" xlink:href="#DejaVuSans-57"/>
      </g>
     </g>
    </g>
    <g id="ytick_9">
     <g id="line2d_25">
      <g>
       <use style="stroke:#000000;stroke-width:0.8;" x="400.90125" xlink:href="#m5a2200b1bf" y="187.522885"/>
      </g>
     </g>
     <g id="text_23">
      <!-- 1.0 -->
      <g transform="translate(407.90125 191.322103)scale(0.1 -0.1)">
       <use xlink:href="#DejaVuSans-49"/>
       <use x="63.623047" xlink:href="#DejaVuSans-46"/>
       <use x="95.410156" xlink:href="#DejaVuSans-48"/>
      </g>
     </g>
    </g>
    <g id="ytick_10">
     <g id="line2d_26">
      <g>
       <use style="stroke:#000000;stroke-width:0.8;" x="400.90125" xlink:href="#m5a2200b1bf" y="146.363664"/>
      </g>
     </g>
     <g id="text_24">
      <!-- 1.1 -->
      <g transform="translate(407.90125 150.162883)scale(0.1 -0.1)">
       <use xlink:href="#DejaVuSans-49"/>
       <use x="63.623047" xlink:href="#DejaVuSans-46"/>
       <use x="95.410156" xlink:href="#DejaVuSans-49"/>
      </g>
     </g>
    </g>
    <g id="ytick_11">
     <g id="line2d_27">
      <g>
       <use style="stroke:#000000;stroke-width:0.8;" x="400.90125" xlink:href="#m5a2200b1bf" y="105.204443"/>
      </g>
     </g>
     <g id="text_25">
      <!-- 1.2 -->
      <g transform="translate(407.90125 109.003662)scale(0.1 -0.1)">
       <use xlink:href="#DejaVuSans-49"/>
       <use x="63.623047" xlink:href="#DejaVuSans-46"/>
       <use x="95.410156" xlink:href="#DejaVuSans-50"/>
      </g>
     </g>
    </g>
    <g id="ytick_12">
     <g id="line2d_28">
      <g>
       <use style="stroke:#000000;stroke-width:0.8;" x="400.90125" xlink:href="#m5a2200b1bf" y="64.045223"/>
      </g>
     </g>
     <g id="text_26">
      <!-- 1.3 -->
      <g transform="translate(407.90125 67.844441)scale(0.1 -0.1)">
       <use xlink:href="#DejaVuSans-49"/>
       <use x="63.623047" xlink:href="#DejaVuSans-46"/>
       <use x="95.410156" xlink:href="#DejaVuSans-51"/>
      </g>
     </g>
    </g>
    <g id="ytick_13">
     <g id="line2d_29">
      <g>
       <use style="stroke:#000000;stroke-width:0.8;" x="400.90125" xlink:href="#m5a2200b1bf" y="22.886002"/>
      </g>
     </g>
     <g id="text_27">
      <!-- 1.4 -->
      <g transform="translate(407.90125 26.685221)scale(0.1 -0.1)">
       <use xlink:href="#DejaVuSans-49"/>
       <use x="63.623047" xlink:href="#DejaVuSans-46"/>
       <use x="95.410156" xlink:href="#DejaVuSans-52"/>
      </g>
     </g>
    </g>
    <g id="text_28">
     <!-- Entropy -->
     <g transform="translate(435.402812 174.909281)rotate(-90)scale(0.1 -0.1)">
      <use xlink:href="#DejaVuSans-69"/>
      <use x="63.183594" xlink:href="#DejaVuSans-110"/>
      <use x="126.5625" xlink:href="#DejaVuSans-116"/>
      <use x="165.771484" xlink:href="#DejaVuSans-114"/>
      <use x="206.853516" xlink:href="#DejaVuSans-111"/>
      <use x="268.035156" xlink:href="#DejaVuSans-112"/>
      <use x="331.511719" xlink:href="#DejaVuSans-121"/>
     </g>
    </g>
   </g>
   <g id="line2d_30">
    <path clip-path="url(#pe6a8048041)" d="M 60.013977 34.414125 
L 60.913297 36.228522 
L 61.362957 37.495004 
L 61.812617 44.504567 
L 62.262277 47.165788 
L 62.711937 46.282312 
L 63.161598 48.458274 
L 63.611258 61.686903 
L 64.060918 65.684917 
L 64.510578 70.820419 
L 64.960238 67.383372 
L 65.409898 62.29674 
L 65.859558 69.40939 
L 66.309218 69.109108 
L 66.758878 76.019313 
L 67.208538 76.15969 
L 67.658198 84.595884 
L 68.107858 76.051107 
L 68.557518 86.929739 
L 69.007178 91.041045 
L 69.456838 97.499258 
L 69.906498 95.549979 
L 70.356158 95.899817 
L 70.805818 94.319806 
L 71.255478 104.052756 
L 71.705138 102.043028 
L 72.154798 91.524047 
L 72.604458 89.359812 
L 73.054118 90.765983 
L 73.503778 98.022297 
L 73.953438 112.465546 
L 74.852758 128.914646 
L 75.302418 122.782524 
L 75.752079 154.968831 
L 76.201739 161.744988 
L 76.651399 158.25132 
L 77.101059 156.761836 
L 77.550719 146.903818 
L 78.000379 148.414352 
L 78.450039 143.429285 
L 78.899699 122.026373 
L 79.349359 120.122578 
L 79.799019 117.310579 
L 80.248679 90.388571 
L 81.147999 98.696164 
L 81.597659 99.098895 
L 82.047319 105.356085 
L 82.496979 106.015331 
L 82.946639 94.987834 
L 83.396299 98.966565 
L 83.845959 96.217909 
L 84.295619 84.752698 
L 84.745279 88.260006 
L 85.194939 93.987337 
L 85.644599 94.237277 
L 86.094259 106.312522 
L 86.543919 107.313068 
L 86.993579 105.586056 
L 87.443239 103.331687 
L 87.892899 109.521658 
L 88.342559 105.659311 
L 88.79222 103.365052 
L 89.69154 110.148324 
L 90.1412 108.789059 
L 90.59086 108.294085 
L 91.04052 117.490061 
L 91.93984 128.804494 
L 92.3895 124.816048 
L 93.28882 148.841517 
L 93.73848 126.032875 
L 94.6378 118.019773 
L 95.08746 110.025709 
L 95.98678 124.613603 
L 96.43644 129.805383 
L 96.8861 116.989101 
L 97.33576 124.192964 
L 97.78542 134.520245 
L 98.23508 128.457992 
L 98.68474 127.403965 
L 99.1344 115.416058 
L 99.58406 115.647991 
L 100.03372 123.184175 
L 100.93304 157.450471 
L 101.382701 165.287084 
L 101.832361 159.911603 
L 102.282021 155.95186 
L 102.731681 153.094966 
L 103.181341 124.340946 
L 103.631001 113.203051 
L 104.530321 129.433613 
L 104.979981 137.270864 
L 105.429641 152.216348 
L 105.879301 130.950427 
L 106.328961 133.430302 
L 106.778621 131.12672 
L 107.228281 134.191604 
L 107.677941 140.76198 
L 108.127601 136.821766 
L 108.577261 138.575665 
L 109.026921 138.972067 
L 109.476581 140.101851 
L 109.926241 131.335396 
L 110.375901 131.191438 
L 110.825561 132.13075 
L 111.275221 130.161943 
L 111.724881 139.271121 
L 112.174541 144.309326 
L 112.624201 163.765412 
L 113.073861 161.774526 
L 113.523521 171.223386 
L 113.973182 145.191624 
L 114.422842 144.79802 
L 114.872502 159.050697 
L 115.322162 147.804711 
L 116.221482 155.491527 
L 116.671142 169.818686 
L 117.120802 176.588956 
L 117.570462 169.308796 
L 118.020122 150.86773 
L 118.469782 153.991885 
L 118.919442 154.966132 
L 119.369102 140.97517 
L 119.818762 134.667687 
L 120.268422 138.331515 
L 120.718082 161.170136 
L 121.167742 164.342228 
L 121.617402 164.365387 
L 122.067062 173.347044 
L 122.516722 162.929334 
L 122.966382 159.829467 
L 123.416042 172.688779 
L 123.865702 164.457041 
L 124.315362 166.718034 
L 124.765022 171.261902 
L 125.214682 185.135352 
L 125.664342 179.721599 
L 126.114002 159.368495 
L 126.563662 166.276541 
L 127.013323 169.238976 
L 127.462983 193.833164 
L 127.912643 191.134801 
L 128.362303 190.990155 
L 128.811963 156.985575 
L 129.261623 163.580435 
L 129.711283 168.535669 
L 130.160943 178.82782 
L 130.610603 198.868499 
L 131.060263 195.623225 
L 131.509923 183.24137 
L 131.959583 175.262369 
L 132.409243 161.7339 
L 132.858903 168.279253 
L 133.308563 169.85681 
L 133.758223 180.910606 
L 134.207883 170.190015 
L 134.657543 163.41999 
L 135.107203 165.364019 
L 135.556863 163.321467 
L 136.006523 161.974812 
L 136.456183 167.425167 
L 136.905843 227.435113 
L 137.355503 253.176161 
L 137.805163 253.95336 
L 138.254823 203.885924 
L 138.704483 204.378739 
L 139.154143 198.071869 
L 139.603804 184.898758 
L 140.503124 197.049146 
L 140.952784 190.229786 
L 141.402444 191.647046 
L 141.852104 188.982734 
L 142.301764 190.406397 
L 142.751424 197.921998 
L 143.201084 185.564676 
L 143.650744 190.596183 
L 144.100404 182.558181 
L 144.550064 177.851267 
L 144.999724 196.389924 
L 145.449384 196.623943 
L 145.899044 205.57172 
L 146.348704 190.977938 
L 146.798364 191.316147 
L 147.248024 193.784491 
L 147.697684 200.382148 
L 148.147344 203.97304 
L 148.597004 205.622797 
L 149.046664 196.503217 
L 149.496324 181.080275 
L 150.395644 215.27209 
L 150.845304 213.729467 
L 151.294964 215.462833 
L 151.744624 211.154896 
L 152.194285 202.110411 
L 152.643945 202.940577 
L 153.093605 202.958559 
L 153.543265 200.985066 
L 153.992925 212.082678 
L 154.442585 218.098883 
L 154.892245 234.131931 
L 155.341905 223.294171 
L 155.791565 186.291387 
L 156.241225 180.914286 
L 156.690885 173.408964 
L 157.140545 217.8341 
L 157.590205 199.654456 
L 158.039865 201.983037 
L 158.489525 189.401681 
L 158.939185 181.925578 
L 159.388845 178.475185 
L 159.838505 173.872831 
L 160.288165 182.89482 
L 160.737825 172.186249 
L 161.187485 175.186808 
L 161.637145 174.290919 
L 162.086805 178.37411 
L 162.986125 217.739576 
L 163.435785 223.32886 
L 163.885445 210.445113 
L 164.335105 215.291005 
L 164.784765 225.546185 
L 165.234426 202.225764 
L 165.684086 214.176357 
L 166.133746 214.18671 
L 166.583406 200.070091 
L 167.033066 201.386619 
L 167.482726 194.008427 
L 167.932386 200.611236 
L 168.382046 211.617291 
L 169.281366 195.359596 
L 169.731026 208.648723 
L 170.180686 214.111517 
L 170.630346 198.401566 
L 171.080006 198.444547 
L 171.529666 199.516459 
L 171.979326 220.041611 
L 172.428986 212.228109 
L 172.878646 212.156718 
L 173.328306 198.314842 
L 173.777966 210.372324 
L 174.227626 209.133933 
L 175.126946 185.798081 
L 175.576606 195.047121 
L 176.026266 209.343737 
L 176.475926 200.251781 
L 176.925586 203.783622 
L 177.375246 192.410286 
L 177.824907 184.079362 
L 178.274567 200.955087 
L 178.724227 187.56854 
L 179.173887 185.320476 
L 179.623547 177.237849 
L 180.073207 210.871003 
L 180.522867 219.992865 
L 180.972527 220.502485 
L 181.422187 200.513472 
L 181.871847 196.789539 
L 182.321507 197.252964 
L 182.771167 202.186659 
L 183.220827 205.893885 
L 183.670487 204.844322 
L 184.120147 186.317343 
L 184.569807 187.389524 
L 185.019467 181.122079 
L 185.469127 190.346292 
L 185.918787 192.629241 
L 186.368447 184.403293 
L 186.818107 185.22524 
L 187.267767 193.076965 
L 187.717427 192.419977 
L 188.167087 207.471394 
L 188.616747 201.902839 
L 189.516067 206.236216 
L 189.965727 192.169251 
L 190.415387 188.259605 
L 190.865048 217.988216 
L 191.314708 221.865945 
L 191.764368 222.272772 
L 192.214028 201.852252 
L 192.663688 204.201563 
L 193.113348 214.413246 
L 193.563008 190.391481 
L 194.012668 187.750893 
L 194.462328 192.021662 
L 194.911988 202.743799 
L 195.361648 200.018866 
L 195.811308 195.822383 
L 196.260968 171.207685 
L 196.710628 174.576922 
L 197.160288 186.670026 
L 197.609948 230.344753 
L 198.059608 229.898403 
L 198.509268 235.104412 
L 198.958928 202.662546 
L 199.408588 207.318113 
L 199.858248 186.916483 
L 200.307908 225.044734 
L 200.757568 224.607658 
L 201.207228 225.987726 
L 201.656888 233.938858 
L 202.106548 231.682036 
L 202.556208 231.70863 
L 203.455529 242.967373 
L 203.905189 245.007963 
L 204.354849 189.243837 
L 204.804509 186.850833 
L 205.254169 186.551582 
L 205.703829 185.772076 
L 206.153489 190.169754 
L 206.603149 188.12622 
L 207.052809 177.005867 
L 207.502469 172.867427 
L 207.952129 172.199301 
L 208.401789 200.769423 
L 208.851449 205.454527 
L 209.301109 192.367869 
L 209.750769 227.786324 
L 210.200429 224.761503 
L 210.650089 232.38495 
L 211.099749 182.737613 
L 211.549409 174.632857 
L 211.999069 171.194437 
L 212.448729 186.681409 
L 213.348049 191.725158 
L 213.797709 196.934258 
L 214.247369 194.359295 
L 214.697029 194.635583 
L 215.146689 205.1737 
L 215.596349 199.891198 
L 216.04601 199.66893 
L 216.49567 233.14218 
L 216.94533 235.767901 
L 217.39499 234.067655 
L 217.84465 205.454846 
L 218.29431 215.932612 
L 218.74397 214.728836 
L 219.19363 241.322006 
L 219.64329 244.877644 
L 220.09295 250.955451 
L 220.54261 191.759185 
L 220.99227 192.099406 
L 221.44193 195.500389 
L 221.89159 230.486356 
L 222.34125 254.069989 
L 222.79091 241.195711 
L 223.24057 187.135266 
L 223.69023 191.191324 
L 224.13989 175.816859 
L 224.58955 241.117501 
L 225.03921 236.289984 
L 225.48887 235.961882 
L 225.93853 223.115131 
L 226.38819 228.791728 
L 226.83785 221.141834 
L 227.28751 221.494493 
L 227.73717 222.058159 
L 228.18683 225.873305 
L 228.63649 221.5598 
L 229.086151 221.471776 
L 229.535811 219.245914 
L 229.985471 224.750291 
L 230.435131 223.993994 
L 230.884791 222.211342 
L 231.334451 189.965101 
L 231.784111 192.452728 
L 232.233771 186.992289 
L 232.683431 202.863887 
L 233.133091 199.513834 
L 233.582751 205.042597 
L 234.032411 224.454475 
L 234.482071 225.550993 
L 234.931731 215.351233 
L 235.381391 244.787314 
L 235.831051 244.188027 
L 236.280711 240.16553 
L 236.730371 196.210737 
L 237.629691 189.49861 
L 238.079351 180.33541 
L 238.529011 189.767391 
L 238.978671 190.607591 
L 239.428331 237.926175 
L 239.877991 238.244562 
L 240.327651 245.521336 
L 240.777311 215.085641 
L 241.226971 212.066683 
L 241.676632 230.575214 
L 242.126292 233.606537 
L 242.575952 220.978986 
L 243.025612 226.516629 
L 243.475272 238.008802 
L 243.924932 239.52645 
L 244.374592 240.026576 
L 244.824252 191.204351 
L 245.273912 181.515095 
L 245.723572 184.562707 
L 246.173232 205.213418 
L 246.622892 209.875437 
L 247.072552 208.303939 
L 247.522212 205.711017 
L 247.971872 211.402432 
L 248.421532 215.573402 
L 248.871192 189.183461 
L 249.320852 183.706169 
L 249.770512 181.205049 
L 250.220172 210.513928 
L 251.119492 207.035887 
L 251.569152 203.338229 
L 252.018812 196.425154 
L 252.468472 180.053136 
L 252.918132 183.384004 
L 253.367792 182.613968 
L 253.817452 183.526834 
L 254.267113 194.816071 
L 254.716773 196.938748 
L 255.166433 200.023626 
L 255.616093 233.595301 
L 256.065753 232.491692 
L 256.515413 238.036303 
L 256.965073 167.126898 
L 257.414733 166.692765 
L 257.864393 164.814828 
L 258.314053 205.257725 
L 258.763713 220.909141 
L 259.213373 213.667645 
L 259.663033 222.643561 
L 260.112693 221.856401 
L 260.562353 232.972462 
L 261.012013 229.628395 
L 261.461673 234.662061 
L 261.911333 224.379846 
L 262.360993 202.569935 
L 262.810653 203.643638 
L 263.260313 206.700229 
L 263.709973 205.349306 
L 264.159633 211.072221 
L 264.609293 215.33877 
L 265.058953 214.863447 
L 265.508613 227.957122 
L 265.958273 222.816934 
L 266.407933 210.668558 
L 267.307254 221.245584 
L 267.756914 209.649907 
L 268.206574 210.278045 
L 268.656234 212.088517 
L 269.105894 203.200772 
L 269.555554 204.850456 
L 270.005214 210.196326 
L 270.454874 222.718386 
L 270.904534 226.002912 
L 271.354194 220.653607 
L 271.803854 227.540138 
L 272.253514 228.394738 
L 272.703174 230.126632 
L 273.152834 203.236123 
L 273.602494 220.418141 
L 274.052154 229.186559 
L 274.501814 221.294894 
L 274.951474 227.146043 
L 275.401134 221.229711 
L 275.850794 238.728202 
L 276.300454 245.533701 
L 276.750114 248.027117 
L 277.199774 244.772595 
L 277.649434 247.810321 
L 278.099094 243.410043 
L 278.548754 270.726171 
L 278.998414 269.273559 
L 279.448074 270.306929 
L 279.897735 246.734582 
L 280.797055 261.023985 
L 281.246715 230.956675 
L 281.696375 237.772502 
L 282.146035 235.167682 
L 282.595695 247.943632 
L 283.045355 250.173664 
L 283.495015 260.057221 
L 284.394335 255.211108 
L 284.843995 257.420238 
L 285.293655 258.77781 
L 285.743315 255.60275 
L 286.192975 245.963196 
L 286.642635 248.404137 
L 287.092295 252.01019 
L 287.541955 249.794976 
L 287.991615 242.534418 
L 288.441275 242.356678 
L 288.890935 241.34227 
L 289.340595 230.696234 
L 289.790255 227.448876 
L 290.239915 228.347905 
L 290.689575 243.52937 
L 291.139235 248.993881 
L 292.038555 235.073304 
L 292.488215 235.007213 
L 292.937876 239.324643 
L 293.387536 235.96041 
L 293.837196 233.462725 
L 294.286856 229.568461 
L 294.736516 202.517238 
L 295.186176 205.647747 
L 295.635836 207.599847 
L 296.085496 225.56115 
L 296.535156 223.337324 
L 296.984816 222.931135 
L 297.434476 218.086985 
L 297.884136 204.037487 
L 298.333796 207.736397 
L 298.783456 245.125867 
L 299.233116 248.517871 
L 299.682776 249.495356 
L 300.132436 245.043069 
L 300.582096 238.177195 
L 301.031756 236.014284 
L 301.481416 218.109751 
L 301.931076 216.110278 
L 302.380736 219.389922 
L 302.830396 244.232186 
L 303.280056 240.895234 
L 303.729716 245.274045 
L 304.179376 201.503935 
L 304.629036 201.279656 
L 305.078696 199.390851 
L 305.528357 236.218177 
L 305.978017 235.903347 
L 306.427677 237.043877 
L 306.877337 194.050402 
L 307.326997 188.579734 
L 307.776657 189.844522 
L 308.226317 241.394231 
L 308.675977 249.907017 
L 309.125637 239.338382 
L 309.575297 261.156585 
L 310.024957 263.541762 
L 310.474617 262.167827 
L 310.924277 237.244629 
L 311.373937 249.293672 
L 311.823597 233.855692 
L 312.273257 228.174262 
L 312.722917 237.617258 
L 313.172577 242.67239 
L 313.622237 245.024056 
L 314.071897 239.651568 
L 314.521557 242.877239 
L 314.971217 238.237251 
L 315.420877 237.048489 
L 315.870537 245.778047 
L 316.320197 226.916391 
L 316.769857 228.873569 
L 317.219517 226.54256 
L 317.669177 197.04051 
L 318.118838 193.493557 
L 318.568498 194.722577 
L 319.018158 199.139856 
L 319.467818 198.416236 
L 319.917478 204.962963 
L 320.367138 204.274523 
L 320.816798 198.35331 
L 321.266458 199.931726 
L 321.716118 196.934945 
L 322.165778 188.423288 
L 322.615438 188.535231 
L 323.065098 235.637313 
L 323.514758 232.68349 
L 323.964418 235.30796 
L 324.414078 232.547112 
L 324.863738 242.569181 
L 325.313398 220.926633 
L 325.763058 234.335161 
L 326.212718 243.672004 
L 326.662378 245.71804 
L 327.112038 218.213157 
L 327.561698 222.351572 
L 328.011358 223.905381 
L 328.461018 230.093291 
L 328.910678 232.645537 
L 329.360338 232.209197 
L 329.809998 250.76964 
L 330.259658 254.140913 
L 330.709318 250.552156 
L 331.158979 266.334994 
L 331.608639 258.690694 
L 332.058299 259.846631 
L 332.507959 256.960543 
L 332.957619 250.811345 
L 333.407279 250.061279 
L 333.856939 233.54859 
L 334.306599 244.316309 
L 334.756259 237.623686 
L 335.205919 240.902863 
L 335.655579 238.353414 
L 336.105239 231.106938 
L 336.554899 245.579283 
L 337.004559 256.006192 
L 337.454219 244.148603 
L 337.903879 258.016336 
L 338.353539 250.59266 
L 338.803199 248.201202 
L 339.252859 224.780319 
L 340.152179 222.518076 
L 341.501159 231.396989 
L 341.950819 230.399952 
L 342.400479 223.597912 
L 342.850139 207.149916 
L 343.299799 183.440626 
L 344.19912 192.725557 
L 344.64878 235.149086 
L 345.09844 235.873172 
L 345.5481 237.33594 
L 345.99776 226.34615 
L 346.89708 216.09546 
L 347.7964 198.31786 
L 348.24606 197.19828 
L 348.69572 214.987093 
L 349.14538 216.695827 
L 350.49436 205.065044 
L 351.39368 212.701935 
L 351.84334 203.978265 
L 352.293 208.448609 
L 352.74266 206.259154 
L 353.19232 202.807314 
L 353.64198 202.56861 
L 354.09164 236.048287 
L 354.5413 222.999189 
L 354.99096 226.886142 
L 355.44062 234.863352 
L 355.89028 229.089458 
L 356.339941 231.110741 
L 356.789601 212.525643 
L 357.239261 207.876798 
L 357.688921 206.478404 
L 358.138581 238.694935 
L 359.037901 260.244553 
L 359.487561 267.990787 
L 359.937221 270.752715 
L 360.386881 276.334125 
L 360.836541 191.512851 
L 361.286201 196.284335 
L 361.735861 196.4726 
L 362.185521 215.906803 
L 362.635181 207.048742 
L 363.084841 210.56866 
L 363.534501 202.173926 
L 363.984161 200.270058 
L 364.433821 202.091815 
L 364.883481 193.396628 
L 365.333141 189.566811 
L 365.782801 190.879954 
L 366.232461 179.65487 
L 366.682121 183.623346 
L 367.131781 183.57271 
L 368.031101 227.891619 
L 368.480761 223.088439 
L 368.930421 192.780094 
L 369.380082 192.276852 
L 369.829742 192.365146 
L 370.279402 208.087829 
L 370.729062 212.630986 
L 371.178722 215.355428 
L 371.628382 189.601255 
L 372.078042 190.253705 
L 372.527702 196.008439 
L 372.977362 184.584639 
L 373.427022 186.368567 
L 373.876682 193.265966 
L 374.326342 176.629239 
L 374.776002 177.454621 
L 375.225662 195.240513 
L 375.675322 236.80559 
L 376.124982 232.638717 
L 376.574642 225.258219 
L 377.024302 214.609606 
L 377.473962 215.375766 
L 377.923622 218.263523 
L 378.822942 240.945035 
L 379.272602 248.659769 
L 379.722262 253.876621 
L 380.171922 248.650741 
L 380.621582 245.466284 
L 381.071242 232.29413 
L 381.520902 240.892535 
L 381.970563 241.563556 
L 382.420223 226.113236 
L 382.869883 226.35324 
L 383.319543 226.008358 
L 383.769203 229.009039 
L 384.668523 224.553906 
L 384.668523 224.553906 
" style="fill:none;stroke:#008000;stroke-linecap:square;stroke-width:1.5;"/>
   </g>
   <g id="patch_9">
    <path d="M 43.78125 288.430125 
L 43.78125 22.318125 
" style="fill:none;stroke:#000000;stroke-linecap:square;stroke-linejoin:miter;stroke-width:0.8;"/>
   </g>
   <g id="patch_10">
    <path d="M 400.90125 288.430125 
L 400.90125 22.318125 
" style="fill:none;stroke:#000000;stroke-linecap:square;stroke-linejoin:miter;stroke-width:0.8;"/>
   </g>
   <g id="patch_11">
    <path d="M 43.78125 288.430125 
L 400.90125 288.430125 
" style="fill:none;stroke:#000000;stroke-linecap:square;stroke-linejoin:miter;stroke-width:0.8;"/>
   </g>
   <g id="patch_12">
    <path d="M 43.78125 22.318125 
L 400.90125 22.318125 
" style="fill:none;stroke:#000000;stroke-linecap:square;stroke-linejoin:miter;stroke-width:0.8;"/>
   </g>
  </g>
 </g>
 <defs>
  <clipPath id="pe6a8048041">
   <rect height="266.112" width="357.12" x="43.78125" y="22.318125"/>
  </clipPath>
 </defs>
</svg>
