<?xml version="1.0" encoding="utf-8" standalone="no"?>
<!DOCTYPE svg PUBLIC "-//W3C//DTD SVG 1.1//EN"
  "http://www.w3.org/Graphics/SVG/1.1/DTD/svg11.dtd">
<!-- Created with matplotlib (https://matplotlib.org/) -->
<svg height="358.22505pt" version="1.1" viewBox="0 0 444.6825 358.22505" width="444.6825pt" xmlns="http://www.w3.org/2000/svg" xmlns:xlink="http://www.w3.org/1999/xlink">
 <defs>
  <style type="text/css">
*{stroke-linecap:butt;stroke-linejoin:round;}
  </style>
 </defs>
 <g id="figure_1">
  <g id="patch_1">
   <path d="M 0 358.22505 
L 444.6825 358.22505 
L 444.6825 0 
L 0 0 
z
" style="fill:#ffffff;"/>
  </g>
  <g id="axes_1">
   <g id="patch_2">
    <path d="M 43.78125 288.430125 
L 400.90125 288.430125 
L 400.90125 22.318125 
L 43.78125 22.318125 
z
" style="fill:#ffffff;"/>
   </g>
   <g id="matplotlib.axis_1">
    <g id="xtick_1">
     <g id="line2d_1">
      <defs>
       <path d="M 0 0 
L 0 3.5 
" id="m445b989338" style="stroke:#000000;stroke-width:0.8;"/>
      </defs>
      <g>
       <use style="stroke:#000000;stroke-width:0.8;" x="60.013977" xlink:href="#m445b989338" y="288.430125"/>
      </g>
     </g>
     <g id="text_1">
      <!-- 0 -->
      <defs>
       <path d="M 31.78125 66.40625 
Q 24.171875 66.40625 20.328125 58.90625 
Q 16.5 51.421875 16.5 36.375 
Q 16.5 21.390625 20.328125 13.890625 
Q 24.171875 6.390625 31.78125 6.390625 
Q 39.453125 6.390625 43.28125 13.890625 
Q 47.125 21.390625 47.125 36.375 
Q 47.125 51.421875 43.28125 58.90625 
Q 39.453125 66.40625 31.78125 66.40625 
z
M 31.78125 74.21875 
Q 44.046875 74.21875 50.515625 64.515625 
Q 56.984375 54.828125 56.984375 36.375 
Q 56.984375 17.96875 50.515625 8.265625 
Q 44.046875 -1.421875 31.78125 -1.421875 
Q 19.53125 -1.421875 13.0625 8.265625 
Q 6.59375 17.96875 6.59375 36.375 
Q 6.59375 54.828125 13.0625 64.515625 
Q 19.53125 74.21875 31.78125 74.21875 
z
" id="DejaVuSans-48"/>
      </defs>
      <g transform="translate(56.832727 303.028562)scale(0.1 -0.1)">
       <use xlink:href="#DejaVuSans-48"/>
      </g>
     </g>
    </g>
    <g id="xtick_2">
     <g id="line2d_2">
      <g>
       <use style="stroke:#000000;stroke-width:0.8;" x="135.867843" xlink:href="#m445b989338" y="288.430125"/>
      </g>
     </g>
     <g id="text_2">
      <!-- 100 -->
      <defs>
       <path d="M 12.40625 8.296875 
L 28.515625 8.296875 
L 28.515625 63.921875 
L 10.984375 60.40625 
L 10.984375 69.390625 
L 28.421875 72.90625 
L 38.28125 72.90625 
L 38.28125 8.296875 
L 54.390625 8.296875 
L 54.390625 0 
L 12.40625 0 
z
" id="DejaVuSans-49"/>
      </defs>
      <g transform="translate(126.324093 303.028562)scale(0.1 -0.1)">
       <use xlink:href="#DejaVuSans-49"/>
       <use x="63.623047" xlink:href="#DejaVuSans-48"/>
       <use x="127.246094" xlink:href="#DejaVuSans-48"/>
      </g>
     </g>
    </g>
    <g id="xtick_3">
     <g id="line2d_3">
      <g>
       <use style="stroke:#000000;stroke-width:0.8;" x="211.721709" xlink:href="#m445b989338" y="288.430125"/>
      </g>
     </g>
     <g id="text_3">
      <!-- 200 -->
      <defs>
       <path d="M 19.1875 8.296875 
L 53.609375 8.296875 
L 53.609375 0 
L 7.328125 0 
L 7.328125 8.296875 
Q 12.9375 14.109375 22.625 23.890625 
Q 32.328125 33.6875 34.8125 36.53125 
Q 39.546875 41.84375 41.421875 45.53125 
Q 43.3125 49.21875 43.3125 52.78125 
Q 43.3125 58.59375 39.234375 62.25 
Q 35.15625 65.921875 28.609375 65.921875 
Q 23.96875 65.921875 18.8125 64.3125 
Q 13.671875 62.703125 7.8125 59.421875 
L 7.8125 69.390625 
Q 13.765625 71.78125 18.9375 73 
Q 24.125 74.21875 28.421875 74.21875 
Q 39.75 74.21875 46.484375 68.546875 
Q 53.21875 62.890625 53.21875 53.421875 
Q 53.21875 48.921875 51.53125 44.890625 
Q 49.859375 40.875 45.40625 35.40625 
Q 44.1875 33.984375 37.640625 27.21875 
Q 31.109375 20.453125 19.1875 8.296875 
z
" id="DejaVuSans-50"/>
      </defs>
      <g transform="translate(202.177959 303.028562)scale(0.1 -0.1)">
       <use xlink:href="#DejaVuSans-50"/>
       <use x="63.623047" xlink:href="#DejaVuSans-48"/>
       <use x="127.246094" xlink:href="#DejaVuSans-48"/>
      </g>
     </g>
    </g>
    <g id="xtick_4">
     <g id="line2d_4">
      <g>
       <use style="stroke:#000000;stroke-width:0.8;" x="287.575575" xlink:href="#m445b989338" y="288.430125"/>
      </g>
     </g>
     <g id="text_4">
      <!-- 300 -->
      <defs>
       <path d="M 40.578125 39.3125 
Q 47.65625 37.796875 51.625 33 
Q 55.609375 28.21875 55.609375 21.1875 
Q 55.609375 10.40625 48.1875 4.484375 
Q 40.765625 -1.421875 27.09375 -1.421875 
Q 22.515625 -1.421875 17.65625 -0.515625 
Q 12.796875 0.390625 7.625 2.203125 
L 7.625 11.71875 
Q 11.71875 9.328125 16.59375 8.109375 
Q 21.484375 6.890625 26.8125 6.890625 
Q 36.078125 6.890625 40.9375 10.546875 
Q 45.796875 14.203125 45.796875 21.1875 
Q 45.796875 27.640625 41.28125 31.265625 
Q 36.765625 34.90625 28.71875 34.90625 
L 20.21875 34.90625 
L 20.21875 43.015625 
L 29.109375 43.015625 
Q 36.375 43.015625 40.234375 45.921875 
Q 44.09375 48.828125 44.09375 54.296875 
Q 44.09375 59.90625 40.109375 62.90625 
Q 36.140625 65.921875 28.71875 65.921875 
Q 24.65625 65.921875 20.015625 65.03125 
Q 15.375 64.15625 9.8125 62.3125 
L 9.8125 71.09375 
Q 15.4375 72.65625 20.34375 73.4375 
Q 25.25 74.21875 29.59375 74.21875 
Q 40.828125 74.21875 47.359375 69.109375 
Q 53.90625 64.015625 53.90625 55.328125 
Q 53.90625 49.265625 50.4375 45.09375 
Q 46.96875 40.921875 40.578125 39.3125 
z
" id="DejaVuSans-51"/>
      </defs>
      <g transform="translate(278.031825 303.028562)scale(0.1 -0.1)">
       <use xlink:href="#DejaVuSans-51"/>
       <use x="63.623047" xlink:href="#DejaVuSans-48"/>
       <use x="127.246094" xlink:href="#DejaVuSans-48"/>
      </g>
     </g>
    </g>
    <g id="xtick_5">
     <g id="line2d_5">
      <g>
       <use style="stroke:#000000;stroke-width:0.8;" x="363.42944" xlink:href="#m445b989338" y="288.430125"/>
      </g>
     </g>
     <g id="text_5">
      <!-- 400 -->
      <defs>
       <path d="M 37.796875 64.3125 
L 12.890625 25.390625 
L 37.796875 25.390625 
z
M 35.203125 72.90625 
L 47.609375 72.90625 
L 47.609375 25.390625 
L 58.015625 25.390625 
L 58.015625 17.1875 
L 47.609375 17.1875 
L 47.609375 0 
L 37.796875 0 
L 37.796875 17.1875 
L 4.890625 17.1875 
L 4.890625 26.703125 
z
" id="DejaVuSans-52"/>
      </defs>
      <g transform="translate(353.88569 303.028562)scale(0.1 -0.1)">
       <use xlink:href="#DejaVuSans-52"/>
       <use x="63.623047" xlink:href="#DejaVuSans-48"/>
       <use x="127.246094" xlink:href="#DejaVuSans-48"/>
      </g>
     </g>
    </g>
    <g id="text_6">
     <!-- Epoch -->
     <defs>
      <path d="M 9.8125 72.90625 
L 55.90625 72.90625 
L 55.90625 64.59375 
L 19.671875 64.59375 
L 19.671875 43.015625 
L 54.390625 43.015625 
L 54.390625 34.71875 
L 19.671875 34.71875 
L 19.671875 8.296875 
L 56.78125 8.296875 
L 56.78125 0 
L 9.8125 0 
z
" id="DejaVuSans-69"/>
      <path d="M 18.109375 8.203125 
L 18.109375 -20.796875 
L 9.078125 -20.796875 
L 9.078125 54.6875 
L 18.109375 54.6875 
L 18.109375 46.390625 
Q 20.953125 51.265625 25.265625 53.625 
Q 29.59375 56 35.59375 56 
Q 45.5625 56 51.78125 48.09375 
Q 58.015625 40.1875 58.015625 27.296875 
Q 58.015625 14.40625 51.78125 6.484375 
Q 45.5625 -1.421875 35.59375 -1.421875 
Q 29.59375 -1.421875 25.265625 0.953125 
Q 20.953125 3.328125 18.109375 8.203125 
z
M 48.6875 27.296875 
Q 48.6875 37.203125 44.609375 42.84375 
Q 40.53125 48.484375 33.40625 48.484375 
Q 26.265625 48.484375 22.1875 42.84375 
Q 18.109375 37.203125 18.109375 27.296875 
Q 18.109375 17.390625 22.1875 11.75 
Q 26.265625 6.109375 33.40625 6.109375 
Q 40.53125 6.109375 44.609375 11.75 
Q 48.6875 17.390625 48.6875 27.296875 
z
" id="DejaVuSans-112"/>
      <path d="M 30.609375 48.390625 
Q 23.390625 48.390625 19.1875 42.75 
Q 14.984375 37.109375 14.984375 27.296875 
Q 14.984375 17.484375 19.15625 11.84375 
Q 23.34375 6.203125 30.609375 6.203125 
Q 37.796875 6.203125 41.984375 11.859375 
Q 46.1875 17.53125 46.1875 27.296875 
Q 46.1875 37.015625 41.984375 42.703125 
Q 37.796875 48.390625 30.609375 48.390625 
z
M 30.609375 56 
Q 42.328125 56 49.015625 48.375 
Q 55.71875 40.765625 55.71875 27.296875 
Q 55.71875 13.875 49.015625 6.21875 
Q 42.328125 -1.421875 30.609375 -1.421875 
Q 18.84375 -1.421875 12.171875 6.21875 
Q 5.515625 13.875 5.515625 27.296875 
Q 5.515625 40.765625 12.171875 48.375 
Q 18.84375 56 30.609375 56 
z
" id="DejaVuSans-111"/>
      <path d="M 48.78125 52.59375 
L 48.78125 44.1875 
Q 44.96875 46.296875 41.140625 47.34375 
Q 37.3125 48.390625 33.40625 48.390625 
Q 24.65625 48.390625 19.8125 42.84375 
Q 14.984375 37.3125 14.984375 27.296875 
Q 14.984375 17.28125 19.8125 11.734375 
Q 24.65625 6.203125 33.40625 6.203125 
Q 37.3125 6.203125 41.140625 7.25 
Q 44.96875 8.296875 48.78125 10.40625 
L 48.78125 2.09375 
Q 45.015625 0.34375 40.984375 -0.53125 
Q 36.96875 -1.421875 32.421875 -1.421875 
Q 20.0625 -1.421875 12.78125 6.34375 
Q 5.515625 14.109375 5.515625 27.296875 
Q 5.515625 40.671875 12.859375 48.328125 
Q 20.21875 56 33.015625 56 
Q 37.15625 56 41.109375 55.140625 
Q 45.0625 54.296875 48.78125 52.59375 
z
" id="DejaVuSans-99"/>
      <path d="M 54.890625 33.015625 
L 54.890625 0 
L 45.90625 0 
L 45.90625 32.71875 
Q 45.90625 40.484375 42.875 44.328125 
Q 39.84375 48.1875 33.796875 48.1875 
Q 26.515625 48.1875 22.3125 43.546875 
Q 18.109375 38.921875 18.109375 30.90625 
L 18.109375 0 
L 9.078125 0 
L 9.078125 75.984375 
L 18.109375 75.984375 
L 18.109375 46.1875 
Q 21.34375 51.125 25.703125 53.5625 
Q 30.078125 56 35.796875 56 
Q 45.21875 56 50.046875 50.171875 
Q 54.890625 44.34375 54.890625 33.015625 
z
" id="DejaVuSans-104"/>
     </defs>
     <g transform="translate(207.030313 316.706687)scale(0.1 -0.1)">
      <use xlink:href="#DejaVuSans-69"/>
      <use x="63.183594" xlink:href="#DejaVuSans-112"/>
      <use x="126.660156" xlink:href="#DejaVuSans-111"/>
      <use x="187.841797" xlink:href="#DejaVuSans-99"/>
      <use x="242.822266" xlink:href="#DejaVuSans-104"/>
     </g>
    </g>
   </g>
   <g id="matplotlib.axis_2">
    <g id="ytick_1">
     <g id="line2d_6">
      <defs>
       <path d="M 0 0 
L -3.5 0 
" id="m7ad4fd3859" style="stroke:#000000;stroke-width:0.8;"/>
      </defs>
      <g>
       <use style="stroke:#000000;stroke-width:0.8;" x="43.78125" xlink:href="#m7ad4fd3859" y="276.334125"/>
      </g>
     </g>
     <g id="text_7">
      <!-- 0.0 -->
      <defs>
       <path d="M 10.6875 12.40625 
L 21 12.40625 
L 21 0 
L 10.6875 0 
z
" id="DejaVuSans-46"/>
      </defs>
      <g transform="translate(20.878125 280.133344)scale(0.1 -0.1)">
       <use xlink:href="#DejaVuSans-48"/>
       <use x="63.623047" xlink:href="#DejaVuSans-46"/>
       <use x="95.410156" xlink:href="#DejaVuSans-48"/>
      </g>
     </g>
    </g>
    <g id="ytick_2">
     <g id="line2d_7">
      <g>
       <use style="stroke:#000000;stroke-width:0.8;" x="43.78125" xlink:href="#m7ad4fd3859" y="227.950125"/>
      </g>
     </g>
     <g id="text_8">
      <!-- 0.2 -->
      <g transform="translate(20.878125 231.749344)scale(0.1 -0.1)">
       <use xlink:href="#DejaVuSans-48"/>
       <use x="63.623047" xlink:href="#DejaVuSans-46"/>
       <use x="95.410156" xlink:href="#DejaVuSans-50"/>
      </g>
     </g>
    </g>
    <g id="ytick_3">
     <g id="line2d_8">
      <g>
       <use style="stroke:#000000;stroke-width:0.8;" x="43.78125" xlink:href="#m7ad4fd3859" y="179.566125"/>
      </g>
     </g>
     <g id="text_9">
      <!-- 0.4 -->
      <g transform="translate(20.878125 183.365344)scale(0.1 -0.1)">
       <use xlink:href="#DejaVuSans-48"/>
       <use x="63.623047" xlink:href="#DejaVuSans-46"/>
       <use x="95.410156" xlink:href="#DejaVuSans-52"/>
      </g>
     </g>
    </g>
    <g id="ytick_4">
     <g id="line2d_9">
      <g>
       <use style="stroke:#000000;stroke-width:0.8;" x="43.78125" xlink:href="#m7ad4fd3859" y="131.182125"/>
      </g>
     </g>
     <g id="text_10">
      <!-- 0.6 -->
      <defs>
       <path d="M 33.015625 40.375 
Q 26.375 40.375 22.484375 35.828125 
Q 18.609375 31.296875 18.609375 23.390625 
Q 18.609375 15.53125 22.484375 10.953125 
Q 26.375 6.390625 33.015625 6.390625 
Q 39.65625 6.390625 43.53125 10.953125 
Q 47.40625 15.53125 47.40625 23.390625 
Q 47.40625 31.296875 43.53125 35.828125 
Q 39.65625 40.375 33.015625 40.375 
z
M 52.59375 71.296875 
L 52.59375 62.3125 
Q 48.875 64.0625 45.09375 64.984375 
Q 41.3125 65.921875 37.59375 65.921875 
Q 27.828125 65.921875 22.671875 59.328125 
Q 17.53125 52.734375 16.796875 39.40625 
Q 19.671875 43.65625 24.015625 45.921875 
Q 28.375 48.1875 33.59375 48.1875 
Q 44.578125 48.1875 50.953125 41.515625 
Q 57.328125 34.859375 57.328125 23.390625 
Q 57.328125 12.15625 50.6875 5.359375 
Q 44.046875 -1.421875 33.015625 -1.421875 
Q 20.359375 -1.421875 13.671875 8.265625 
Q 6.984375 17.96875 6.984375 36.375 
Q 6.984375 53.65625 15.1875 63.9375 
Q 23.390625 74.21875 37.203125 74.21875 
Q 40.921875 74.21875 44.703125 73.484375 
Q 48.484375 72.75 52.59375 71.296875 
z
" id="DejaVuSans-54"/>
      </defs>
      <g transform="translate(20.878125 134.981344)scale(0.1 -0.1)">
       <use xlink:href="#DejaVuSans-48"/>
       <use x="63.623047" xlink:href="#DejaVuSans-46"/>
       <use x="95.410156" xlink:href="#DejaVuSans-54"/>
      </g>
     </g>
    </g>
    <g id="ytick_5">
     <g id="line2d_10">
      <g>
       <use style="stroke:#000000;stroke-width:0.8;" x="43.78125" xlink:href="#m7ad4fd3859" y="82.798125"/>
      </g>
     </g>
     <g id="text_11">
      <!-- 0.8 -->
      <defs>
       <path d="M 31.78125 34.625 
Q 24.75 34.625 20.71875 30.859375 
Q 16.703125 27.09375 16.703125 20.515625 
Q 16.703125 13.921875 20.71875 10.15625 
Q 24.75 6.390625 31.78125 6.390625 
Q 38.8125 6.390625 42.859375 10.171875 
Q 46.921875 13.96875 46.921875 20.515625 
Q 46.921875 27.09375 42.890625 30.859375 
Q 38.875 34.625 31.78125 34.625 
z
M 21.921875 38.8125 
Q 15.578125 40.375 12.03125 44.71875 
Q 8.5 49.078125 8.5 55.328125 
Q 8.5 64.0625 14.71875 69.140625 
Q 20.953125 74.21875 31.78125 74.21875 
Q 42.671875 74.21875 48.875 69.140625 
Q 55.078125 64.0625 55.078125 55.328125 
Q 55.078125 49.078125 51.53125 44.71875 
Q 48 40.375 41.703125 38.8125 
Q 48.828125 37.15625 52.796875 32.3125 
Q 56.78125 27.484375 56.78125 20.515625 
Q 56.78125 9.90625 50.3125 4.234375 
Q 43.84375 -1.421875 31.78125 -1.421875 
Q 19.734375 -1.421875 13.25 4.234375 
Q 6.78125 9.90625 6.78125 20.515625 
Q 6.78125 27.484375 10.78125 32.3125 
Q 14.796875 37.15625 21.921875 38.8125 
z
M 18.3125 54.390625 
Q 18.3125 48.734375 21.84375 45.5625 
Q 25.390625 42.390625 31.78125 42.390625 
Q 38.140625 42.390625 41.71875 45.5625 
Q 45.3125 48.734375 45.3125 54.390625 
Q 45.3125 60.0625 41.71875 63.234375 
Q 38.140625 66.40625 31.78125 66.40625 
Q 25.390625 66.40625 21.84375 63.234375 
Q 18.3125 60.0625 18.3125 54.390625 
z
" id="DejaVuSans-56"/>
      </defs>
      <g transform="translate(20.878125 86.597344)scale(0.1 -0.1)">
       <use xlink:href="#DejaVuSans-48"/>
       <use x="63.623047" xlink:href="#DejaVuSans-46"/>
       <use x="95.410156" xlink:href="#DejaVuSans-56"/>
      </g>
     </g>
    </g>
    <g id="ytick_6">
     <g id="line2d_11">
      <g>
       <use style="stroke:#000000;stroke-width:0.8;" x="43.78125" xlink:href="#m7ad4fd3859" y="34.414125"/>
      </g>
     </g>
     <g id="text_12">
      <!-- 1.0 -->
      <g transform="translate(20.878125 38.213344)scale(0.1 -0.1)">
       <use xlink:href="#DejaVuSans-49"/>
       <use x="63.623047" xlink:href="#DejaVuSans-46"/>
       <use x="95.410156" xlink:href="#DejaVuSans-48"/>
      </g>
     </g>
    </g>
    <g id="text_13">
     <!-- Loss -->
     <defs>
      <path d="M 9.8125 72.90625 
L 19.671875 72.90625 
L 19.671875 8.296875 
L 55.171875 8.296875 
L 55.171875 0 
L 9.8125 0 
z
" id="DejaVuSans-76"/>
      <path d="M 44.28125 53.078125 
L 44.28125 44.578125 
Q 40.484375 46.53125 36.375 47.5 
Q 32.28125 48.484375 27.875 48.484375 
Q 21.1875 48.484375 17.84375 46.4375 
Q 14.5 44.390625 14.5 40.28125 
Q 14.5 37.15625 16.890625 35.375 
Q 19.28125 33.59375 26.515625 31.984375 
L 29.59375 31.296875 
Q 39.15625 29.25 43.1875 25.515625 
Q 47.21875 21.78125 47.21875 15.09375 
Q 47.21875 7.46875 41.1875 3.015625 
Q 35.15625 -1.421875 24.609375 -1.421875 
Q 20.21875 -1.421875 15.453125 -0.5625 
Q 10.6875 0.296875 5.421875 2 
L 5.421875 11.28125 
Q 10.40625 8.6875 15.234375 7.390625 
Q 20.0625 6.109375 24.8125 6.109375 
Q 31.15625 6.109375 34.5625 8.28125 
Q 37.984375 10.453125 37.984375 14.40625 
Q 37.984375 18.0625 35.515625 20.015625 
Q 33.0625 21.96875 24.703125 23.78125 
L 21.578125 24.515625 
Q 13.234375 26.265625 9.515625 29.90625 
Q 5.8125 33.546875 5.8125 39.890625 
Q 5.8125 47.609375 11.28125 51.796875 
Q 16.75 56 26.8125 56 
Q 31.78125 56 36.171875 55.265625 
Q 40.578125 54.546875 44.28125 53.078125 
z
" id="DejaVuSans-115"/>
     </defs>
     <g transform="translate(14.798438 166.428031)rotate(-90)scale(0.1 -0.1)">
      <use xlink:href="#DejaVuSans-76"/>
      <use x="55.697266" xlink:href="#DejaVuSans-111"/>
      <use x="116.878906" xlink:href="#DejaVuSans-115"/>
      <use x="168.978516" xlink:href="#DejaVuSans-115"/>
     </g>
    </g>
   </g>
   <g id="line2d_12">
    <path clip-path="url(#p6b599c849a)" d="M 60.013977 205.797317 
L 60.772516 241.207065 
L 61.531055 244.321157 
L 62.289593 200.387894 
L 63.048132 244.42093 
L 63.806671 247.983579 
L 64.565209 247.207331 
L 65.323748 274.145586 
L 66.082287 276.334125 
L 66.840825 206.582173 
L 67.599364 235.740141 
L 68.357903 245.346278 
L 69.116441 148.515185 
L 69.87498 183.014382 
L 70.633518 188.967562 
L 71.392057 129.997797 
L 72.150596 143.312487 
L 72.909134 142.530494 
L 73.667673 100.217356 
L 74.426212 114.148952 
L 75.18475 120.07073 
L 75.943289 122.372305 
L 76.701828 149.654774 
L 77.460366 142.483437 
L 78.218905 109.055469 
L 79.735982 121.337404 
L 80.494521 156.247357 
L 81.25306 150.392596 
L 82.011598 169.814349 
L 82.770137 105.704112 
L 83.528676 82.807538 
L 84.287214 111.034373 
L 85.045753 73.527898 
L 85.804292 102.214104 
L 86.56283 111.43797 
L 87.321369 96.605609 
L 88.079908 114.543889 
L 88.838446 107.904191 
L 89.596985 98.992368 
L 90.355524 56.477329 
L 91.114062 130.180676 
L 91.872601 95.265794 
L 92.63114 97.743375 
L 93.389678 94.893759 
L 94.148217 95.089985 
L 94.906756 116.296212 
L 95.665294 96.74953 
L 96.423833 95.035383 
L 97.182371 103.196746 
L 97.94091 56.680933 
L 98.699449 83.570617 
L 99.457987 70.734479 
L 100.216526 71.840689 
L 100.975065 90.07176 
L 101.733603 86.997666 
L 102.492142 54.448795 
L 103.250681 91.164304 
L 104.009219 81.912757 
L 104.767758 60.445334 
L 105.526297 90.15881 
L 106.284835 93.743053 
L 107.043374 91.975086 
L 107.801913 86.296477 
L 108.560451 82.378095 
L 109.31899 77.745137 
L 110.077529 86.993688 
L 110.836067 66.018684 
L 111.594606 34.414125 
L 112.353145 96.199189 
L 113.111683 94.898012 
L 113.870222 94.651414 
L 115.387299 85.579294 
L 116.145838 90.425688 
L 116.904377 98.401846 
L 117.662915 97.000358 
L 118.421454 90.296787 
L 119.179993 86.444445 
L 119.938531 79.510897 
L 120.69707 67.159891 
L 121.455609 95.608609 
L 122.214147 91.438543 
L 122.972686 88.408345 
L 123.731225 92.025453 
L 124.489763 86.716957 
L 125.248302 79.842453 
L 126.00684 95.882768 
L 126.765379 96.687915 
L 127.523918 92.035878 
L 128.282456 76.613841 
L 129.040995 81.060113 
L 129.799534 74.095141 
L 130.558072 80.584762 
L 131.316611 82.309221 
L 132.07515 76.470983 
L 132.833688 102.523089 
L 133.592227 101.690553 
L 134.350766 99.081567 
L 135.109304 95.599567 
L 135.867843 94.690418 
L 136.626382 90.516899 
L 137.38492 76.917002 
L 138.143459 78.800997 
L 138.901998 80.295399 
L 139.660536 98.486152 
L 140.419075 91.619604 
L 141.177614 93.443962 
L 141.936152 87.761512 
L 142.694691 95.054942 
L 143.45323 95.512494 
L 144.211768 91.200941 
L 144.970307 89.929737 
L 145.728846 85.613497 
L 146.487384 89.706036 
L 147.245923 86.199824 
L 148.004462 84.471673 
L 148.763 95.52995 
L 149.521539 85.819776 
L 150.280078 89.722212 
L 151.038616 95.080845 
L 151.797155 86.272013 
L 152.555694 88.402652 
L 153.314232 82.151045 
L 154.072771 77.790428 
L 154.831309 76.172224 
L 155.589848 80.690011 
L 156.348387 77.123395 
L 157.106925 82.96249 
L 157.865464 84.012829 
L 158.624003 84.737087 
L 159.382541 85.183345 
L 160.14108 82.748266 
L 160.899619 86.616304 
L 161.658157 82.061228 
L 162.416696 81.525976 
L 163.175235 84.164489 
L 163.933773 84.994236 
L 164.692312 84.784573 
L 165.450851 83.72709 
L 166.209389 80.704586 
L 166.967928 86.483014 
L 167.726467 84.907392 
L 168.485005 85.163352 
L 169.243544 88.089627 
L 170.002083 88.047651 
L 170.760621 87.367906 
L 171.51916 93.943914 
L 172.277699 83.427942 
L 173.036237 82.531595 
L 173.794776 99.127007 
L 174.553315 91.684249 
L 175.311853 93.390898 
L 176.070392 86.640047 
L 176.828931 78.62644 
L 177.587469 74.796228 
L 178.346008 86.834506 
L 179.104547 72.317275 
L 179.863085 66.260595 
L 180.621624 80.472837 
L 181.380162 86.649844 
L 182.138701 87.862977 
L 182.89724 83.600064 
L 183.655778 89.295661 
L 184.414317 89.326171 
L 185.172856 86.505877 
L 185.931394 84.776434 
L 186.689933 98.712974 
L 187.448472 88.473778 
L 188.20701 93.165939 
L 188.965549 89.117148 
L 189.724088 96.267549 
L 190.482626 89.604434 
L 191.241165 87.04034 
L 191.999704 92.356232 
L 192.758242 93.759274 
L 193.516781 92.637581 
L 194.27532 98.113866 
L 195.033858 96.190353 
L 195.792397 98.435786 
L 196.550936 98.537068 
L 197.309474 101.195802 
L 198.068013 101.27165 
L 198.826552 85.598945 
L 199.58509 81.157783 
L 200.343629 77.564292 
L 201.102168 97.722947 
L 201.860706 98.616642 
L 203.377784 90.961122 
L 204.136322 85.242354 
L 204.894861 81.08836 
L 205.6534 94.801085 
L 206.411938 92.470465 
L 207.170477 93.659295 
L 208.687554 74.812861 
L 209.446093 79.789766 
L 210.204631 87.719776 
L 210.96317 88.788759 
L 211.721709 85.386447 
L 212.480247 87.959012 
L 213.238786 81.976316 
L 213.997325 78.712358 
L 214.755863 82.015651 
L 215.514402 83.91301 
L 216.272941 86.950546 
L 217.031479 94.314622 
L 217.790018 88.451853 
L 218.548557 91.090766 
L 219.307095 81.382615 
L 220.065634 81.738634 
L 220.824173 82.781966 
L 221.582711 84.243228 
L 222.34125 83.397603 
L 223.099789 88.968129 
L 223.858327 80.960751 
L 224.616866 69.475695 
L 225.375405 64.569001 
L 226.133943 86.435105 
L 226.892482 81.029991 
L 227.651021 78.094274 
L 228.409559 89.131826 
L 229.168098 89.059866 
L 229.926637 89.901684 
L 230.685175 87.799955 
L 231.443714 86.651238 
L 232.202253 88.796361 
L 232.960791 72.746683 
L 234.477869 73.224058 
L 235.236407 94.259317 
L 235.994946 87.49284 
L 236.753484 87.244573 
L 237.512023 91.017153 
L 238.270562 83.020584 
L 239.0291 83.510625 
L 239.787639 80.533355 
L 240.546178 78.762565 
L 241.304716 78.894043 
L 242.063255 95.178972 
L 242.821794 85.235461 
L 243.580332 87.331646 
L 244.338871 104.150816 
L 245.09741 99.955668 
L 245.855948 97.794462 
L 246.614487 96.348266 
L 247.373026 100.132249 
L 248.131564 97.144988 
L 248.890103 101.975354 
L 249.648642 100.293397 
L 250.40718 97.160346 
L 251.165719 89.711495 
L 251.924258 86.738734 
L 252.682796 85.80519 
L 253.441335 80.905481 
L 254.199874 96.269229 
L 254.958412 96.955158 
L 255.716951 85.437025 
L 256.47549 87.175722 
L 257.234028 83.283043 
L 257.992567 60.400112 
L 258.751106 60.415693 
L 259.509644 56.848483 
L 260.268183 93.802679 
L 261.026722 96.378376 
L 261.78526 98.530758 
L 262.543799 80.580018 
L 263.302338 83.699163 
L 264.060876 84.938594 
L 264.819415 72.569925 
L 265.577953 82.750055 
L 266.336492 81.646972 
L 267.095031 95.885866 
L 267.853569 96.340458 
L 268.612108 94.248738 
L 269.370647 68.772185 
L 270.129185 80.661083 
L 270.887724 85.502796 
L 271.646263 73.96871 
L 272.404801 75.155876 
L 273.16334 71.740064 
L 273.921879 97.270504 
L 274.680417 86.72241 
L 275.438956 91.643885 
L 276.197495 80.277292 
L 276.956033 81.457902 
L 277.714572 78.523306 
L 278.473111 90.771098 
L 279.231649 87.419165 
L 280.748727 78.551072 
L 281.507265 81.31477 
L 282.265804 82.805126 
L 283.024343 77.263052 
L 283.782881 77.798876 
L 284.54142 85.766678 
L 285.299959 91.16044 
L 286.058497 87.925929 
L 286.817036 89.234692 
L 287.575575 86.21341 
L 288.334113 81.540003 
L 289.092652 90.8025 
L 289.851191 98.651507 
L 290.609729 85.723501 
L 291.368268 82.676391 
L 292.126806 96.191473 
L 292.885345 89.027555 
L 293.643884 80.513481 
L 294.402422 87.777996 
L 295.160961 73.538627 
L 295.9195 88.913372 
L 296.678038 90.042342 
L 297.436577 83.934924 
L 298.195116 85.607718 
L 298.953654 84.649048 
L 299.712193 90.439863 
L 300.470732 88.796206 
L 301.22927 101.122258 
L 301.987809 97.53034 
L 302.746348 100.681178 
L 303.504886 89.355578 
L 304.263425 91.327378 
L 305.021964 88.234125 
L 305.780502 70.708902 
L 306.539041 79.930681 
L 307.29758 78.487874 
L 308.056118 95.620521 
L 308.814657 88.609526 
L 309.573196 85.408304 
L 310.331734 71.794695 
L 311.090273 61.047025 
L 311.848812 66.891859 
L 312.60735 76.761152 
L 313.365889 73.074724 
L 314.124428 73.675889 
L 314.882966 80.172706 
L 315.641505 73.947505 
L 316.400044 72.704433 
L 317.158582 67.513006 
L 317.917121 75.066855 
L 318.67566 69.228977 
L 319.434198 92.946863 
L 320.192737 95.391156 
L 320.951275 96.152829 
L 321.709814 82.803868 
L 322.468353 82.214477 
L 323.226891 71.455657 
L 323.98543 78.263059 
L 324.743969 80.964124 
L 325.502507 83.098615 
L 326.261046 69.252697 
L 327.778123 72.704004 
L 328.536662 87.31323 
L 329.295201 89.164834 
L 330.053739 92.095556 
L 330.812278 67.610847 
L 331.570817 64.652576 
L 332.329355 66.888212 
L 333.087894 89.850357 
L 333.846433 90.806387 
L 334.604971 94.506744 
L 335.36351 78.506587 
L 336.122049 80.697498 
L 336.880587 81.63821 
L 337.639126 89.83181 
L 338.397665 88.387106 
L 339.156203 89.954863 
L 339.914742 79.907372 
L 340.673281 77.041232 
L 341.431819 82.623012 
L 342.190358 64.204751 
L 342.948897 80.391508 
L 343.707435 76.306863 
L 344.465974 86.693923 
L 345.224513 88.888206 
L 345.983051 88.924026 
L 346.74159 81.994057 
L 347.500129 73.510803 
L 348.258667 79.667707 
L 349.017206 84.088276 
L 349.775744 81.084896 
L 350.534283 86.858512 
L 351.292822 95.06683 
L 352.05136 94.017715 
L 352.809899 81.40861 
L 353.568438 93.18471 
L 354.326976 88.870716 
L 355.085515 80.302887 
L 355.844054 96.384481 
L 356.602592 98.552712 
L 357.361131 96.971259 
L 358.11967 81.289644 
L 358.878208 78.788668 
L 359.636747 79.679196 
L 360.395286 88.165645 
L 361.153824 80.436771 
L 361.912363 76.601164 
L 362.670902 77.86999 
L 363.42944 80.289701 
L 364.187979 80.49175 
L 364.946518 75.211467 
L 365.705056 73.864398 
L 366.463595 75.451452 
L 367.222134 85.064876 
L 367.980672 83.765865 
L 368.739211 81.905756 
L 370.256288 93.237934 
L 371.014827 93.67994 
L 371.773366 87.786998 
L 372.531904 93.841277 
L 373.290443 96.289886 
L 374.048982 89.879908 
L 374.80752 59.441362 
L 375.566059 86.141976 
L 376.324597 87.203934 
L 377.083136 86.858524 
L 377.841675 83.644041 
L 378.600213 90.32472 
L 379.358752 91.233801 
L 380.117291 86.085408 
L 380.875829 71.476153 
L 382.392907 73.307696 
L 383.151445 63.029113 
L 383.909984 80.59681 
L 384.668523 75.753298 
L 384.668523 75.753298 
" style="fill:none;stroke:#1f77b4;stroke-linecap:square;stroke-opacity:0.3;stroke-width:1.5;"/>
   </g>
   <g id="line2d_13">
    <path clip-path="url(#p6b599c849a)" d="M 60.013977 219.348679 
L 60.772516 220.594973 
L 61.531055 225.815221 
L 63.806671 249.775547 
L 64.565209 248.260409 
L 65.323748 258.130682 
L 66.082287 255.801169 
L 66.840825 239.938874 
L 67.599364 230.048364 
L 68.357903 212.231421 
L 69.116441 191.35426 
L 70.633518 167.345269 
L 71.392057 147.586065 
L 72.150596 134.861394 
L 72.909134 129.60348 
L 73.667673 119.085837 
L 74.426212 120.176714 
L 75.18475 125.359468 
L 76.701828 122.860717 
L 77.460366 127.833031 
L 78.218905 127.092178 
L 78.977444 135.021437 
L 79.735982 140.226956 
L 80.494521 136.343087 
L 81.25306 138.363076 
L 82.011598 133.887658 
L 83.528676 111.991685 
L 84.287214 98.39206 
L 85.045753 93.291288 
L 85.804292 92.984249 
L 86.56283 104.957466 
L 87.321369 101.420651 
L 88.079908 100.890249 
L 88.838446 103.370664 
L 89.596985 99.611781 
L 91.114062 95.693748 
L 91.872601 95.617121 
L 92.63114 98.541088 
L 93.389678 100.958183 
L 94.148217 107.279552 
L 94.906756 98.097511 
L 95.665294 98.763285 
L 96.423833 94.255836 
L 97.94091 81.33172 
L 98.699449 78.950773 
L 99.457987 75.582443 
L 100.216526 74.451239 
L 100.975065 77.018693 
L 101.733603 78.919009 
L 102.492142 75.906323 
L 103.250681 77.632669 
L 104.009219 79.024348 
L 104.767758 80.154679 
L 105.526297 84.110012 
L 106.284835 87.23687 
L 107.043374 86.610958 
L 107.801913 90.684982 
L 108.560451 83.84956 
L 109.31899 75.209447 
L 110.077529 71.810556 
L 110.836067 72.171893 
L 112.353145 78.174836 
L 113.111683 81.520374 
L 113.870222 85.846627 
L 114.628761 93.320602 
L 115.387299 97.541262 
L 116.145838 92.853297 
L 116.904377 93.52925 
L 117.662915 89.778044 
L 118.421454 88.024508 
L 119.179993 86.69963 
L 119.938531 84.408085 
L 120.69707 83.592485 
L 121.455609 85.075339 
L 122.214147 85.518384 
L 122.972686 86.978237 
L 124.489763 92.450607 
L 125.248302 89.877671 
L 126.00684 90.168288 
L 126.765379 88.530069 
L 127.523918 86.15506 
L 128.282456 85.062696 
L 129.040995 80.761368 
L 129.799534 77.465943 
L 130.558072 78.688851 
L 131.316611 82.919051 
L 132.07515 88.465238 
L 132.833688 92.54195 
L 133.592227 97.318369 
L 134.350766 97.997615 
L 135.109304 96.705286 
L 136.626382 86.735911 
L 137.38492 84.786894 
L 138.901998 85.175337 
L 139.660536 86.619409 
L 141.177614 93.235301 
L 141.936152 94.443202 
L 142.694691 93.520795 
L 143.45323 91.535119 
L 144.211768 91.483062 
L 144.970307 89.413719 
L 145.728846 89.359674 
L 146.487384 87.752974 
L 147.245923 86.949969 
L 148.004462 88.310958 
L 148.763 89.051035 
L 149.521539 90.304152 
L 150.280078 90.482564 
L 151.038616 90.209759 
L 151.797155 87.991668 
L 152.555694 85.14199 
L 153.314232 83.076179 
L 154.072771 80.249937 
L 154.831309 78.510036 
L 155.589848 78.898064 
L 156.348387 79.62552 
L 157.106925 81.124576 
L 157.865464 83.134715 
L 158.624003 84.33635 
L 159.382541 84.330125 
L 160.14108 84.513906 
L 160.899619 83.845292 
L 161.658157 83.727861 
L 162.416696 83.905916 
L 163.175235 83.396023 
L 163.933773 83.549314 
L 164.692312 83.462541 
L 165.450851 83.912975 
L 166.967928 84.500024 
L 167.726467 84.586342 
L 168.485005 86.462662 
L 169.243544 87.895947 
L 170.002083 87.14924 
L 170.760621 87.455975 
L 171.51916 88.317598 
L 173.036237 90.937224 
L 173.794776 91.455008 
L 174.553315 89.468561 
L 175.311853 88.637301 
L 176.070392 88.19285 
L 176.828931 83.520627 
L 177.587469 77.878209 
L 178.346008 75.973529 
L 179.104547 75.712822 
L 179.863085 76.888906 
L 183.655778 88.786852 
L 184.414317 88.274581 
L 185.172856 88.972343 
L 185.931394 89.33741 
L 186.689933 90.960468 
L 187.448472 91.596649 
L 188.965549 91.862541 
L 189.724088 91.64691 
L 190.482626 90.124163 
L 191.241165 91.407819 
L 191.999704 91.618785 
L 192.758242 92.84719 
L 193.516781 93.513625 
L 194.27532 95.750655 
L 195.033858 98.759494 
L 195.792397 99.696925 
L 196.550936 99.402341 
L 198.068013 92.097448 
L 198.826552 90.460703 
L 199.58509 89.448683 
L 200.343629 89.472193 
L 201.102168 89.807342 
L 201.860706 89.384467 
L 202.619245 91.249944 
L 203.377784 91.683914 
L 204.136322 91.886092 
L 204.894861 90.279547 
L 205.6534 89.017593 
L 206.411938 87.406443 
L 207.170477 86.422331 
L 207.929016 86.205102 
L 208.687554 85.061887 
L 209.446093 83.575847 
L 210.204631 83.988472 
L 210.96317 84.060144 
L 211.721709 85.023799 
L 212.480247 85.227511 
L 213.238786 83.333764 
L 213.997325 82.816956 
L 214.755863 83.27459 
L 215.514402 85.563826 
L 217.031479 88.357454 
L 217.790018 88.500479 
L 218.548557 87.523561 
L 219.307095 85.645253 
L 220.065634 84.682338 
L 220.824173 84.453986 
L 221.582711 84.650241 
L 222.34125 81.22716 
L 223.099789 80.375346 
L 223.858327 79.148376 
L 224.616866 76.964136 
L 225.375405 76.189065 
L 226.133943 76.81333 
L 226.892482 78.757971 
L 228.409559 86.474351 
L 229.168098 89.565355 
L 229.926637 88.515416 
L 230.685175 88.219825 
L 231.443714 84.282062 
L 232.202253 81.254439 
L 232.960791 80.091049 
L 233.71933 79.525148 
L 235.236407 82.923187 
L 235.994946 85.180171 
L 236.753484 88.149044 
L 237.512023 88.092549 
L 238.270562 84.934618 
L 239.0291 82.466458 
L 239.787639 82.568285 
L 240.546178 81.234319 
L 241.304716 82.511161 
L 243.580332 93.220475 
L 244.338871 96.35521 
L 245.09741 97.690369 
L 245.855948 98.027116 
L 246.614487 100.216113 
L 247.373026 100.695867 
L 248.131564 99.310512 
L 248.890103 98.91342 
L 249.648642 97.844091 
L 251.165719 90.827474 
L 251.924258 90.01368 
L 252.682796 88.472408 
L 253.441335 88.406819 
L 254.199874 90.585031 
L 254.958412 90.558253 
L 255.716951 88.168508 
L 256.47549 80.318596 
L 257.234028 74.517918 
L 257.992567 69.924763 
L 258.751106 71.761346 
L 260.268183 78.546969 
L 261.026722 84.509664 
L 261.78526 88.959127 
L 262.543799 89.632474 
L 263.302338 86.529131 
L 264.060876 81.046524 
L 264.819415 80.674165 
L 265.577953 84.541161 
L 266.336492 87.129649 
L 267.095031 86.983409 
L 267.853569 88.150608 
L 268.612108 88.312981 
L 269.370647 85.509363 
L 270.129185 80.089468 
L 270.887724 76.927263 
L 271.646263 76.366912 
L 272.404801 79.406641 
L 273.16334 83.42887 
L 273.921879 83.999857 
L 274.680417 83.901806 
L 275.438956 85.807712 
L 276.197495 86.46079 
L 276.956033 86.36797 
L 277.714572 83.402231 
L 278.473111 83.503749 
L 279.231649 83.411028 
L 279.990188 84.053116 
L 281.507265 80.686568 
L 282.265804 79.459594 
L 283.024343 80.52193 
L 284.54142 85.170358 
L 286.058497 85.86547 
L 286.817036 88.520988 
L 287.575575 89.66983 
L 288.334113 87.98405 
L 289.092652 88.148095 
L 289.851191 89.756307 
L 290.609729 89.502511 
L 291.368268 90.675067 
L 292.126806 88.578487 
L 292.885345 85.578612 
L 293.643884 84.586186 
L 294.402422 85.213073 
L 295.160961 84.797647 
L 295.9195 83.114166 
L 296.678038 84.470484 
L 297.436577 85.002226 
L 298.195116 86.138653 
L 298.953654 88.712198 
L 299.712193 90.410766 
L 301.987809 97.553545 
L 302.746348 96.160537 
L 303.504886 92.999599 
L 304.263425 87.779397 
L 305.021964 83.767106 
L 305.780502 82.501077 
L 306.539041 83.01468 
L 307.29758 84.89176 
L 308.056118 83.6191 
L 308.814657 81.500611 
L 309.573196 80.457059 
L 311.090273 72.723874 
L 311.848812 69.789156 
L 312.60735 70.392266 
L 314.124428 74.221671 
L 314.882966 75.828096 
L 315.641505 72.827478 
L 316.400044 71.443898 
L 317.158582 73.070619 
L 318.67566 80.441636 
L 319.434198 85.520324 
L 320.192737 87.647366 
L 320.951275 88.198211 
L 321.709814 86.377263 
L 322.468353 85.473861 
L 323.226891 80.661394 
L 324.743969 74.612081 
L 325.502507 74.583215 
L 326.261046 74.995182 
L 327.019585 79.302891 
L 327.778123 80.668558 
L 328.536662 80.782479 
L 329.295201 78.458835 
L 330.053739 78.50713 
L 330.812278 77.523838 
L 331.570817 78.596272 
L 332.329355 78.166071 
L 333.087894 79.39491 
L 333.846433 81.093859 
L 334.604971 85.572932 
L 335.36351 87.040898 
L 336.122049 87.579767 
L 336.880587 85.665652 
L 337.639126 84.668667 
L 338.397665 85.762785 
L 339.156203 85.007556 
L 339.914742 82.803835 
L 340.673281 79.272228 
L 341.431819 76.307828 
L 342.190358 75.863182 
L 342.948897 77.554557 
L 343.707435 81.226653 
L 344.465974 82.683792 
L 345.224513 83.101793 
L 345.983051 84.930644 
L 346.74159 82.709316 
L 348.258667 80.339404 
L 349.017206 82.421975 
L 349.775744 83.726651 
L 351.292822 90.084306 
L 352.05136 89.123973 
L 352.809899 88.669723 
L 353.568438 89.295014 
L 354.326976 90.671988 
L 355.844054 91.586815 
L 356.602592 90.888282 
L 357.361131 89.059004 
L 358.11967 88.360113 
L 358.878208 86.35479 
L 359.636747 81.910149 
L 360.395286 79.65304 
L 361.153824 79.550306 
L 361.912363 80.621603 
L 362.670902 79.792939 
L 363.42944 77.515757 
L 364.187979 76.190751 
L 364.946518 77.328632 
L 365.705056 77.820666 
L 366.463595 78.169166 
L 367.222134 79.658735 
L 368.739211 85.84767 
L 370.256288 90.349967 
L 371.014827 93.914786 
L 371.773366 92.360992 
L 372.531904 90.155863 
L 373.290443 87.187943 
L 374.80752 82.999291 
L 375.566059 82.306831 
L 376.324597 82.297065 
L 377.841675 87.538599 
L 378.600213 89.257847 
L 379.358752 85.602389 
L 380.117291 81.052128 
L 380.875829 77.853905 
L 381.634368 73.307253 
L 382.392907 70.130377 
L 383.151445 69.360001 
L 383.909984 72.032849 
L 384.668523 79.185645 
L 384.668523 79.185645 
" style="fill:none;stroke:#1f77b4;stroke-linecap:square;stroke-width:1.5;"/>
   </g>
   <g id="line2d_14">
    <path clip-path="url(#p6b599c849a)" d="M 60.013977 101.493365 
L 60.772516 174.874049 
L 61.531055 262.014108 
L 62.289593 189.713802 
L 63.048132 218.527637 
L 63.806671 223.910865 
L 64.565209 156.08544 
L 65.323748 177.443065 
L 66.082287 185.68325 
L 66.840825 125.304758 
L 67.599364 153.966754 
L 68.357903 168.536344 
L 69.116441 106.538497 
L 69.87498 145.222218 
L 70.633518 167.956074 
L 71.392057 123.95258 
L 72.150596 162.048403 
L 72.909134 187.518322 
L 73.667673 154.212357 
L 74.426212 199.486166 
L 75.18475 232.988595 
L 75.943289 195.233493 
L 76.701828 225.776688 
L 77.460366 247.683446 
L 78.218905 222.003751 
L 78.977444 254.400145 
L 79.735982 276.334125 
L 80.494521 240.375703 
L 81.25306 261.580969 
L 82.011598 276.17294 
L 82.770137 172.509467 
L 83.528676 188.834884 
L 84.287214 194.948342 
L 85.045753 149.882014 
L 85.804292 157.384848 
L 86.56283 157.970757 
L 87.321369 132.114267 
L 88.079908 135.278135 
L 88.838446 132.919283 
L 89.596985 154.677177 
L 90.355524 155.985688 
L 91.114062 153.469248 
L 91.872601 129.676648 
L 92.63114 127.71894 
L 93.389678 122.581813 
L 94.148217 109.565414 
L 94.906756 103.670014 
L 95.665294 95.622304 
L 96.423833 93.885306 
L 97.182371 85.685536 
L 97.94091 79.018027 
L 98.699449 79.08338 
L 99.457987 70.25186 
L 100.216526 66.796143 
L 100.975065 67.644199 
L 101.733603 59.498542 
L 102.492142 58.732145 
L 103.250681 58.363778 
L 104.009219 52.7706 
L 104.767758 52.694837 
L 105.526297 51.555632 
L 106.284835 48.003203 
L 107.043374 48.009154 
L 107.801913 46.724688 
L 108.560451 44.579729 
L 109.31899 44.577905 
L 110.836067 42.004458 
L 111.594606 41.998433 
L 113.111683 40.148547 
L 113.870222 40.155917 
L 114.628761 38.94784 
L 115.387299 38.491127 
L 116.145838 38.494406 
L 116.904377 37.739911 
L 117.662915 37.358112 
L 118.421454 37.35358 
L 119.179993 36.696588 
L 119.938531 36.467163 
L 120.69707 36.467347 
L 121.455609 36.00249 
L 122.214147 35.871379 
L 122.972686 35.873977 
L 123.731225 35.450501 
L 125.248302 35.390676 
L 126.00684 35.087238 
L 127.523918 35.054184 
L 128.282456 34.821718 
L 132.07515 34.635167 
L 132.833688 34.507686 
L 136.626382 34.60016 
L 137.38492 34.414125 
L 141.177614 34.636752 
L 141.936152 35.221242 
L 145.728846 35.375807 
L 146.487384 38.011308 
L 147.245923 39.830351 
L 148.004462 40.643824 
L 148.763 36.46252 
L 149.521539 36.696367 
L 150.280078 36.728242 
L 151.797155 37.960492 
L 153.314232 38.411845 
L 154.831309 38.432315 
L 155.589848 39.009121 
L 157.106925 38.696932 
L 157.865464 37.597156 
L 159.382541 37.708183 
L 160.14108 38.468427 
L 160.899619 38.218624 
L 161.658157 38.230821 
L 162.416696 39.770931 
L 163.175235 40.051965 
L 163.933773 40.173587 
L 164.692312 39.332679 
L 166.209389 39.453251 
L 166.967928 42.5205 
L 167.726467 43.709286 
L 168.485005 43.996787 
L 169.243544 37.044246 
L 170.002083 37.313027 
L 170.760621 37.370125 
L 171.51916 38.682284 
L 172.277699 38.42395 
L 173.036237 38.330204 
L 173.794776 40.723327 
L 174.553315 41.521637 
L 175.311853 41.937024 
L 176.070392 40.442202 
L 176.828931 41.330793 
L 177.587469 41.646373 
L 178.346008 38.762192 
L 179.104547 38.673348 
L 179.863085 38.748889 
L 180.621624 37.202976 
L 182.138701 37.130787 
L 182.89724 38.466622 
L 183.655778 39.028394 
L 184.414317 39.19547 
L 185.172856 37.743154 
L 186.689933 37.48832 
L 187.448472 38.07082 
L 188.965549 38.426087 
L 189.724088 38.444659 
L 190.482626 39.13032 
L 191.241165 39.420842 
L 191.999704 40.770937 
L 192.758242 41.375841 
L 193.516781 41.468094 
L 194.27532 42.493121 
L 195.033858 42.706977 
L 195.792397 42.777379 
L 196.550936 39.800466 
L 197.309474 40.73569 
L 198.068013 41.087327 
L 198.826552 40.161537 
L 200.343629 39.734634 
L 201.102168 38.670087 
L 201.860706 38.540634 
L 202.619245 38.6187 
L 203.377784 45.107452 
L 204.894861 45.329341 
L 205.6534 41.08578 
L 206.411938 41.261589 
L 207.170477 41.2093 
L 207.929016 40.762351 
L 208.687554 40.068363 
L 209.446093 40.022669 
L 210.204631 38.200015 
L 211.721709 38.340264 
L 212.480247 39.46554 
L 214.755863 40.268511 
L 215.514402 40.786653 
L 216.272941 41.160824 
L 217.031479 41.284252 
L 217.790018 41.926245 
L 218.548557 42.340766 
L 219.307095 41.516625 
L 220.065634 41.785443 
L 220.824173 41.914158 
L 221.582711 42.464728 
L 223.099789 42.403613 
L 223.858327 42.181889 
L 225.375405 41.968383 
L 226.133943 50.837028 
L 226.892482 52.021669 
L 227.651021 52.254098 
L 228.409559 48.075907 
L 229.168098 48.332472 
L 229.926637 48.440257 
L 230.685175 52.074253 
L 231.443714 52.603266 
L 232.202253 52.649844 
L 232.960791 44.345236 
L 233.71933 43.59391 
L 234.477869 43.45823 
L 235.236407 54.640864 
L 235.994946 55.32166 
L 236.753484 55.765734 
L 237.512023 44.902992 
L 238.270562 45.401346 
L 239.0291 45.599725 
L 239.787639 52.635417 
L 240.546178 52.977473 
L 241.304716 52.941969 
L 242.063255 50.092703 
L 242.821794 50.534143 
L 243.580332 50.6191 
L 244.338871 54.108314 
L 245.09741 54.288453 
L 245.855948 54.349992 
L 246.614487 41.160511 
L 247.373026 41.258273 
L 248.131564 41.10964 
L 248.890103 44.193508 
L 250.40718 44.795244 
L 251.165719 44.775805 
L 252.682796 45.0491 
L 253.441335 50.454216 
L 254.958412 50.085149 
L 255.716951 51.088324 
L 256.47549 50.407141 
L 257.234028 50.199788 
L 257.992567 46.914684 
L 258.751106 46.938545 
L 259.509644 46.828438 
L 260.268183 45.054812 
L 261.78526 44.739177 
L 262.543799 58.119262 
L 264.060876 58.550126 
L 264.819415 54.224814 
L 265.577953 54.962856 
L 266.336492 55.038471 
L 267.095031 46.720634 
L 267.853569 46.390278 
L 268.612108 46.384566 
L 269.370647 50.820464 
L 270.129185 51.259675 
L 270.887724 51.449284 
L 271.646263 51.194174 
L 273.16334 51.278744 
L 273.921879 52.379718 
L 274.680417 52.967192 
L 275.438956 53.258194 
L 276.197495 48.983862 
L 277.714572 48.785022 
L 278.473111 47.501182 
L 279.231649 48.92634 
L 279.990188 49.494321 
L 280.748727 54.957641 
L 282.265804 54.948171 
L 283.782881 54.614848 
L 284.54142 54.667248 
L 285.299959 52.090633 
L 286.817036 52.067565 
L 287.575575 48.415015 
L 288.334113 50.093883 
L 289.092652 50.634503 
L 289.851191 63.901018 
L 290.609729 63.461513 
L 291.368268 63.441411 
L 292.126806 54.516146 
L 293.643884 54.82279 
L 294.402422 46.801777 
L 295.160961 46.722845 
L 295.9195 46.462927 
L 296.678038 59.927343 
L 297.436577 60.613077 
L 298.195116 60.766389 
L 298.953654 77.263544 
L 299.712193 77.394784 
L 300.470732 77.37238 
L 301.22927 57.035129 
L 301.987809 56.735763 
L 302.746348 55.977988 
L 303.504886 52.885571 
L 305.021964 53.48281 
L 305.780502 54.197858 
L 306.539041 54.642891 
L 307.29758 54.635189 
L 308.056118 52.239247 
L 308.814657 52.164627 
L 309.573196 52.302831 
L 310.331734 58.897268 
L 311.090273 59.683804 
L 311.848812 59.985823 
L 312.60735 54.638376 
L 313.365889 54.562135 
L 314.124428 54.853007 
L 314.882966 76.161981 
L 316.400044 78.396393 
L 317.158582 69.365001 
L 317.917121 70.454791 
L 318.67566 70.575989 
L 319.434198 61.783254 
L 320.951275 61.771996 
L 321.709814 52.894175 
L 323.226891 52.433979 
L 323.98543 51.544559 
L 325.502507 51.84656 
L 326.261046 66.834429 
L 327.019585 66.116157 
L 327.778123 66.069284 
L 328.536662 58.166853 
L 329.295201 58.984656 
L 330.053739 59.100677 
L 330.812278 63.692025 
L 332.329355 63.827558 
L 333.087894 51.251199 
L 333.846433 50.714927 
L 334.604971 50.597893 
L 335.36351 53.518167 
L 336.122049 52.949431 
L 336.880587 52.556577 
L 337.639126 58.416325 
L 339.156203 58.580877 
L 339.914742 55.820603 
L 340.673281 56.562533 
L 341.431819 56.949675 
L 342.190358 64.615992 
L 342.948897 64.817578 
L 343.707435 64.529193 
L 344.465974 55.939149 
L 345.224513 55.514089 
L 345.983051 55.352466 
L 346.74159 70.681047 
L 347.500129 69.649111 
L 348.258667 69.681742 
L 349.017206 71.796411 
L 349.775744 72.085569 
L 350.534283 72.157979 
L 351.292822 53.106097 
L 352.05136 52.821563 
L 352.809899 53.101343 
L 353.568438 66.069856 
L 354.326976 67.192663 
L 355.085515 67.83941 
L 355.844054 68.232613 
L 356.602592 68.089084 
L 357.361131 68.104616 
L 358.11967 64.849968 
L 358.878208 64.952392 
L 359.636747 64.892751 
L 360.395286 66.379355 
L 361.912363 67.744209 
L 362.670902 71.539053 
L 363.42944 71.828986 
L 364.187979 71.920815 
L 364.946518 52.778191 
L 365.705056 52.626334 
L 366.463595 52.671585 
L 367.222134 63.547133 
L 367.980672 63.075384 
L 368.739211 62.793467 
L 369.49775 53.70809 
L 371.014827 53.546192 
L 371.773366 56.485057 
L 372.531904 55.822372 
L 373.290443 55.507935 
L 374.048982 58.313773 
L 374.80752 58.129359 
L 375.566059 58.133836 
L 376.324597 50.808359 
L 377.841675 50.252428 
L 378.600213 56.239546 
L 379.358752 55.791197 
L 380.117291 55.717148 
L 380.875829 48.664745 
L 382.392907 49.262814 
L 383.151445 44.87786 
L 384.668523 44.74955 
L 384.668523 44.74955 
" style="fill:none;stroke:#ff7f0e;stroke-linecap:square;stroke-opacity:0.3;stroke-width:1.5;"/>
   </g>
   <g id="line2d_15">
    <path clip-path="url(#p6b599c849a)" d="M 60.013977 111.583528 
L 60.772516 176.365065 
L 61.531055 213.074532 
L 62.289593 227.198308 
L 63.048132 224.222773 
L 63.806671 209.634308 
L 64.565209 188.199897 
L 65.323748 174.692288 
L 66.082287 166.633574 
L 66.840825 150.395199 
L 67.599364 147.178453 
L 68.357903 145.380908 
L 69.116441 137.549227 
L 69.87498 141.370373 
L 70.633518 146.477421 
L 71.392057 145.841726 
L 72.150596 158.374555 
L 72.909134 173.227571 
L 73.667673 179.333351 
L 75.18475 207.683752 
L 75.943289 213.323477 
L 77.460366 237.954549 
L 78.218905 240.26388 
L 78.977444 254.70056 
L 79.735982 261.841606 
L 81.25306 248.446512 
L 82.011598 236.30652 
L 82.770137 214.787832 
L 85.045753 162.633033 
L 85.804292 149.028978 
L 86.56283 148.590517 
L 87.321369 141.394228 
L 88.079908 141.508729 
L 88.838446 145.357199 
L 89.596985 144.450031 
L 90.355524 144.799485 
L 91.114062 144.748572 
L 91.872601 139.45396 
L 92.63114 131.045849 
L 93.389678 120.042882 
L 94.906756 103.251248 
L 95.665294 98.162087 
L 97.182371 85.305979 
L 98.699449 76.35253 
L 100.216526 67.990949 
L 102.492142 58.776155 
L 104.767758 52.226411 
L 105.526297 50.834119 
L 106.284835 49.019848 
L 107.043374 47.541725 
L 107.801913 46.4845 
L 108.560451 45.155293 
L 109.31899 44.145795 
L 112.353145 41.023847 
L 113.111683 40.308144 
L 116.145838 38.245104 
L 117.662915 37.426813 
L 122.214147 35.886041 
L 126.765379 35.055041 
L 132.833688 34.543915 
L 139.660536 34.55713 
L 141.936152 34.988308 
L 143.45323 34.937211 
L 144.211768 35.262888 
L 144.970307 36.277697 
L 146.487384 37.661679 
L 147.245923 38.031576 
L 148.004462 38.161466 
L 148.763 38.108283 
L 149.521539 37.865776 
L 150.280078 37.395977 
L 151.038616 37.182961 
L 151.797155 37.338699 
L 152.555694 38.03869 
L 154.072771 38.671384 
L 154.831309 38.743654 
L 155.589848 38.662095 
L 157.106925 38.31426 
L 157.865464 38.18198 
L 158.624003 37.926026 
L 159.382541 37.823644 
L 160.14108 38.006665 
L 162.416696 39.315706 
L 163.933773 39.378334 
L 164.692312 39.789425 
L 165.450851 40.933626 
L 166.209389 41.364526 
L 166.967928 41.481406 
L 168.485005 40.772276 
L 169.243544 40.085697 
L 170.760621 37.933839 
L 171.51916 37.615339 
L 172.277699 38.268023 
L 173.036237 39.537623 
L 173.794776 40.149383 
L 174.553315 40.945441 
L 175.311853 41.277235 
L 176.070392 41.362745 
L 176.828931 41.181262 
L 178.346008 39.670304 
L 179.104547 38.808193 
L 180.621624 37.62082 
L 181.380162 37.616865 
L 182.138701 37.955983 
L 184.414317 38.291638 
L 185.931394 38.146799 
L 186.689933 37.882523 
L 187.448472 37.822209 
L 188.20701 37.89901 
L 189.724088 38.761528 
L 191.241165 39.770915 
L 191.999704 40.446702 
L 192.758242 41.394581 
L 193.516781 41.893323 
L 195.033858 42.088205 
L 196.550936 41.464998 
L 197.309474 41.103923 
L 198.826552 40.066313 
L 199.58509 39.155403 
L 200.343629 39.132354 
L 201.102168 39.315263 
L 202.619245 41.473175 
L 203.377784 42.332954 
L 204.136322 43.012712 
L 204.894861 43.436667 
L 205.6534 43.243569 
L 206.411938 42.607018 
L 207.170477 41.172628 
L 208.687554 39.607079 
L 209.446093 39.405985 
L 210.204631 38.977417 
L 210.96317 38.742463 
L 211.721709 38.738334 
L 212.480247 38.962972 
L 213.238786 39.366397 
L 213.997325 39.941119 
L 216.272941 41.147632 
L 217.790018 41.65327 
L 220.065634 42.056936 
L 221.582711 42.177458 
L 222.34125 41.475968 
L 223.099789 41.655673 
L 223.858327 42.513092 
L 226.133943 47.659156 
L 227.651021 49.684342 
L 228.409559 50.417189 
L 229.168098 51.364086 
L 229.926637 50.759377 
L 230.685175 50.30753 
L 231.443714 48.720427 
L 232.202253 48.201852 
L 232.960791 47.881659 
L 233.71933 48.991393 
L 235.236407 49.628061 
L 235.994946 49.486557 
L 236.753484 50.270233 
L 237.512023 50.281498 
L 238.270562 50.089047 
L 239.0291 48.934228 
L 239.787639 49.122069 
L 240.546178 49.677547 
L 241.304716 51.391033 
L 242.063255 51.988525 
L 242.821794 53.386948 
L 243.580332 52.879444 
L 244.338871 52.076194 
L 245.855948 48.762269 
L 247.373026 44.71813 
L 248.131564 42.971413 
L 248.890103 42.329466 
L 249.648642 42.320423 
L 250.40718 44.19443 
L 253.441335 48.295376 
L 254.199874 49.650397 
L 254.958412 50.457156 
L 255.716951 50.649738 
L 256.47549 50.340251 
L 257.234028 49.179114 
L 257.992567 48.272728 
L 258.751106 46.113779 
L 259.509644 45.316405 
L 260.268183 45.949815 
L 261.026722 48.01507 
L 263.302338 55.355132 
L 264.060876 56.859925 
L 264.819415 56.723165 
L 265.577953 54.645253 
L 266.336492 51.385481 
L 267.095031 49.716396 
L 267.853569 48.782987 
L 269.370647 48.754338 
L 270.129185 49.402912 
L 270.887724 50.864045 
L 272.404801 52.253158 
L 274.680417 51.850547 
L 275.438956 51.221167 
L 276.197495 50.414953 
L 276.956033 49.152502 
L 277.714572 48.522648 
L 278.473111 48.677019 
L 279.231649 49.595503 
L 279.990188 51.213216 
L 281.507265 53.99144 
L 282.265804 54.958732 
L 283.024343 55.080171 
L 283.782881 54.973603 
L 284.54142 53.736169 
L 285.299959 52.775872 
L 286.058497 50.745073 
L 286.817036 50.273168 
L 287.575575 51.028411 
L 289.092652 55.940319 
L 290.609729 59.629342 
L 291.368268 60.20295 
L 292.126806 58.761042 
L 293.643884 50.943151 
L 294.402422 49.779022 
L 295.160961 48.84906 
L 295.9195 51.352539 
L 296.678038 55.102374 
L 297.436577 62.055529 
L 298.195116 67.879476 
L 298.953654 70.817943 
L 299.712193 71.412143 
L 300.470732 68.783781 
L 301.22927 65.708959 
L 301.987809 61.343914 
L 302.746348 55.927491 
L 303.504886 53.184009 
L 304.263425 52.483821 
L 305.021964 53.89557 
L 305.780502 53.66734 
L 306.539041 53.028499 
L 307.29758 53.125861 
L 308.056118 53.422161 
L 308.814657 54.600445 
L 309.573196 55.520601 
L 310.331734 56.248611 
L 311.090273 55.077135 
L 311.848812 55.886714 
L 312.60735 57.802076 
L 313.365889 61.380434 
L 314.124428 64.249224 
L 314.882966 67.593543 
L 315.641505 71.518183 
L 316.400044 74.106406 
L 317.158582 74.159995 
L 317.917121 72.685976 
L 318.67566 67.932303 
L 320.192737 61.143542 
L 320.951275 58.690748 
L 322.468353 52.250506 
L 323.226891 51.70381 
L 323.98543 52.105688 
L 324.743969 54.74914 
L 325.502507 57.96879 
L 326.261046 60.111852 
L 327.778123 62.398727 
L 328.536662 62.816468 
L 329.295201 63.482574 
L 330.053739 61.818033 
L 330.812278 60.907562 
L 331.570817 59.449667 
L 332.329355 58.455518 
L 333.087894 56.470924 
L 333.846433 53.888217 
L 334.604971 51.908929 
L 335.36351 51.534084 
L 336.122049 52.758242 
L 336.880587 55.118665 
L 337.639126 56.238875 
L 338.397665 56.366438 
L 339.156203 56.806768 
L 339.914742 57.924639 
L 340.673281 59.757354 
L 342.190358 61.022446 
L 342.948897 59.871302 
L 343.707435 60.012157 
L 345.224513 60.860398 
L 345.983051 61.552218 
L 346.74159 63.748334 
L 347.500129 68.286495 
L 348.258667 71.344175 
L 349.017206 71.312515 
L 349.775744 67.859424 
L 350.534283 63.396907 
L 351.292822 61.097948 
L 352.05136 59.627768 
L 352.809899 59.208354 
L 353.568438 60.290911 
L 354.326976 63.121788 
L 355.085515 67.161767 
L 355.844054 68.558156 
L 356.602592 68.437211 
L 357.361131 66.828471 
L 358.878208 65.522401 
L 359.636747 65.495345 
L 360.395286 66.116305 
L 361.153824 68.861719 
L 361.912363 70.05601 
L 362.670902 69.332286 
L 364.187979 63.515882 
L 364.946518 61.067532 
L 365.705056 59.816586 
L 366.463595 58.25474 
L 367.222134 57.44589 
L 367.980672 57.28733 
L 368.739211 58.810884 
L 369.49775 58.209359 
L 370.256288 56.691135 
L 371.014827 54.756632 
L 371.773366 54.542272 
L 373.290443 57.20164 
L 374.048982 57.145919 
L 375.566059 54.664031 
L 376.324597 53.961947 
L 377.083136 53.989088 
L 377.841675 53.376498 
L 378.600213 52.948502 
L 380.117291 53.12655 
L 380.875829 51.87215 
L 382.392907 47.312704 
L 383.151445 45.501217 
L 383.909984 44.554078 
L 384.668523 44.88543 
L 384.668523 44.88543 
" style="fill:none;stroke:#ff7f0e;stroke-linecap:square;stroke-width:1.5;"/>
   </g>
   <g id="line2d_16">
    <path clip-path="url(#p6b599c849a)" d="M 60.013977 35.159117 
L 60.772516 35.233901 
L 61.531055 36.077331 
L 62.289593 37.518613 
L 63.806671 41.511556 
L 64.565209 43.759354 
L 65.323748 45.529845 
L 66.082287 46.883612 
L 66.840825 48.92605 
L 67.599364 50.476113 
L 68.357903 51.634152 
L 69.116441 53.379216 
L 69.87498 55.728449 
L 71.392057 58.126309 
L 72.150596 59.26057 
L 73.667673 59.375537 
L 74.426212 59.974475 
L 75.18475 59.755141 
L 75.943289 59.163262 
L 76.701828 58.320014 
L 77.460366 57.991668 
L 78.977444 55.912382 
L 79.735982 55.728801 
L 80.494521 56.098073 
L 82.011598 59.618982 
L 83.528676 62.043979 
L 84.287214 62.67219 
L 85.045753 63.155021 
L 85.804292 62.569463 
L 86.56283 61.778958 
L 87.321369 62.908716 
L 88.079908 64.351139 
L 88.838446 65.438249 
L 89.596985 65.772443 
L 90.355524 66.243106 
L 91.114062 65.861647 
L 91.872601 65.265409 
L 93.389678 65.943397 
L 94.148217 65.43452 
L 94.906756 68.192924 
L 95.665294 71.775416 
L 96.423833 74.718512 
L 97.94091 82.391782 
L 98.699449 84.242822 
L 100.216526 92.899805 
L 100.975065 95.336763 
L 101.733603 97.219911 
L 103.250681 105.330673 
L 105.526297 115.022232 
L 106.284835 115.526511 
L 107.043374 116.222092 
L 107.801913 115.819077 
L 108.560451 117.740286 
L 110.077529 125.514643 
L 110.836067 130.285582 
L 111.594606 135.848824 
L 112.353145 140.441354 
L 113.111683 143.347214 
L 113.870222 144.318287 
L 114.628761 144.178224 
L 115.387299 144.725017 
L 116.145838 147.098408 
L 118.421454 151.558875 
L 119.179993 153.928633 
L 119.938531 156.774756 
L 122.214147 166.627999 
L 122.972686 169.336551 
L 123.731225 170.935579 
L 124.489763 172.017173 
L 126.00684 172.57584 
L 126.765379 173.151078 
L 127.523918 174.444155 
L 128.282456 176.257379 
L 130.558072 183.31134 
L 131.316611 186.040069 
L 132.07515 187.945713 
L 132.833688 189.127057 
L 133.592227 189.863751 
L 134.350766 190.417185 
L 135.109304 191.686106 
L 135.867843 193.746948 
L 137.38492 199.657269 
L 138.901998 207.264247 
L 139.660536 209.337096 
L 140.419075 210.899117 
L 141.177614 211.271339 
L 141.936152 211.195264 
L 142.694691 210.448494 
L 143.45323 210.045552 
L 144.211768 210.067043 
L 144.970307 211.134217 
L 146.487384 214.328207 
L 148.004462 218.327565 
L 148.763 219.639714 
L 149.521539 220.490529 
L 150.280078 220.745232 
L 151.038616 221.585742 
L 152.555694 224.24347 
L 153.314232 224.843085 
L 154.072771 225.629115 
L 154.831309 225.728141 
L 155.589848 224.799196 
L 156.348387 223.151913 
L 157.106925 221.830544 
L 157.865464 221.241605 
L 158.624003 221.467876 
L 160.14108 223.807053 
L 161.658157 227.185405 
L 162.416696 227.928041 
L 163.175235 228.164277 
L 163.933773 227.570035 
L 164.692312 227.226824 
L 166.209389 226.804088 
L 166.967928 226.870476 
L 167.726467 226.795056 
L 168.485005 227.292273 
L 169.243544 227.96385 
L 170.760621 230.675268 
L 171.51916 231.597582 
L 172.277699 232.987924 
L 173.036237 233.367371 
L 173.794776 232.662632 
L 175.311853 229.068175 
L 176.070392 227.997939 
L 176.828931 228.122036 
L 178.346008 229.292218 
L 179.104547 230.247963 
L 179.863085 231.742786 
L 180.621624 232.395635 
L 181.380162 232.483537 
L 182.138701 232.360596 
L 182.89724 232.890466 
L 183.655778 233.63125 
L 184.414317 234.989166 
L 185.172856 236.038467 
L 185.931394 237.711932 
L 186.689933 238.662851 
L 187.448472 239.048913 
L 188.20701 239.258509 
L 188.965549 238.845234 
L 189.724088 238.195723 
L 190.482626 236.866319 
L 191.241165 236.153324 
L 191.999704 236.283317 
L 193.516781 239.590821 
L 194.27532 240.080371 
L 195.033858 239.839191 
L 195.792397 239.385181 
L 196.550936 238.437467 
L 198.068013 235.790198 
L 198.826552 235.767285 
L 199.58509 237.328509 
L 200.343629 239.388184 
L 201.102168 240.05772 
L 201.860706 239.176021 
L 202.619245 238.953712 
L 203.377784 239.46068 
L 204.894861 241.565044 
L 205.6534 243.019384 
L 207.170477 247.108613 
L 207.929016 247.566332 
L 208.687554 247.130951 
L 209.446093 245.20524 
L 210.96317 243.267263 
L 211.721709 242.94746 
L 212.480247 242.987618 
L 213.997325 245.178238 
L 214.755863 245.517291 
L 215.514402 246.16106 
L 216.272941 246.081506 
L 217.790018 244.177841 
L 219.307095 240.798551 
L 220.065634 238.429635 
L 220.824173 237.907968 
L 221.582711 238.092974 
L 222.34125 239.603873 
L 223.858327 243.885159 
L 225.375405 248.001985 
L 226.133943 249.16614 
L 226.892482 249.960049 
L 227.651021 249.223223 
L 228.409559 249.400903 
L 229.926637 249.538376 
L 230.685175 249.244199 
L 231.443714 248.792257 
L 232.202253 248.201733 
L 232.960791 248.133596 
L 233.71933 248.720416 
L 234.477869 249.480497 
L 235.236407 249.603183 
L 238.270562 249.3747 
L 239.0291 249.471092 
L 239.787639 249.737642 
L 240.546178 250.851441 
L 241.304716 251.50277 
L 242.063255 251.227297 
L 243.580332 249.096825 
L 244.338871 248.373135 
L 245.09741 248.772931 
L 245.855948 248.485657 
L 246.614487 247.956292 
L 247.373026 246.706725 
L 248.131564 246.627409 
L 248.890103 246.424751 
L 249.648642 246.691236 
L 250.40718 246.829275 
L 251.165719 247.656945 
L 251.924258 248.846497 
L 252.682796 250.613325 
L 253.441335 251.097832 
L 254.199874 250.597592 
L 254.958412 249.723079 
L 255.716951 250.074606 
L 257.234028 252.789881 
L 257.992567 253.531836 
L 258.751106 253.687534 
L 259.509644 253.51216 
L 260.268183 253.156417 
L 261.026722 252.425047 
L 261.78526 251.871947 
L 262.543799 252.147564 
L 264.060876 254.849058 
L 264.819415 255.341195 
L 265.577953 254.556761 
L 266.336492 254.328295 
L 267.095031 254.740006 
L 268.612108 256.863821 
L 269.370647 258.421942 
L 270.887724 262.236458 
L 271.646263 262.623795 
L 272.404801 261.795623 
L 273.16334 260.182123 
L 273.921879 259.771947 
L 275.438956 260.674516 
L 276.197495 260.538805 
L 276.956033 260.083927 
L 277.714572 259.924454 
L 279.990188 258.218472 
L 281.507265 257.863402 
L 283.024343 259.685654 
L 283.782881 261.279803 
L 284.54142 262.170641 
L 285.299959 262.76749 
L 286.058497 263.080889 
L 286.817036 262.989505 
L 287.575575 262.205461 
L 288.334113 260.77129 
L 289.092652 259.072794 
L 289.851191 258.373961 
L 290.609729 258.434214 
L 291.368268 259.131869 
L 292.126806 259.320615 
L 292.885345 259.230461 
L 293.643884 259.558249 
L 295.9195 261.170532 
L 296.678038 261.868009 
L 297.436577 262.778056 
L 298.195116 263.374426 
L 298.953654 263.425815 
L 299.712193 263.056393 
L 300.470732 262.308411 
L 301.22927 261.881939 
L 301.987809 261.683705 
L 302.746348 261.637814 
L 303.504886 261.732528 
L 304.263425 262.473927 
L 305.021964 262.918719 
L 305.780502 262.665718 
L 308.056118 260.191308 
L 308.814657 259.230606 
L 309.573196 259.012447 
L 310.331734 259.432629 
L 311.848812 262.398506 
L 312.60735 263.0785 
L 313.365889 263.135376 
L 314.124428 263.019231 
L 314.882966 263.036392 
L 316.400044 262.54182 
L 317.158582 263.042297 
L 318.67566 265.504503 
L 319.434198 265.696101 
L 320.192737 265.455632 
L 321.709814 263.815218 
L 322.468353 262.664836 
L 323.226891 261.808435 
L 323.98543 261.551569 
L 324.743969 262.188525 
L 325.502507 263.025428 
L 326.261046 263.295204 
L 327.019585 263.010067 
L 328.536662 263.4262 
L 329.295201 264.333026 
L 330.812278 264.889401 
L 331.570817 264.998475 
L 332.329355 264.979872 
L 333.087894 264.166184 
L 333.846433 262.982987 
L 334.604971 261.538139 
L 335.36351 260.942631 
L 336.122049 260.853412 
L 336.880587 261.558369 
L 337.639126 261.889701 
L 338.397665 261.410149 
L 339.156203 262.062222 
L 339.914742 263.526874 
L 340.673281 266.254274 
L 341.431819 268.397447 
L 342.190358 269.969001 
L 342.948897 270.822538 
L 343.707435 271.010953 
L 344.465974 270.565536 
L 345.224513 269.137408 
L 345.983051 267.177165 
L 346.74159 266.844169 
L 347.500129 267.387337 
L 348.258667 268.881089 
L 349.775744 270.318172 
L 351.292822 271.247926 
L 352.05136 271.429859 
L 352.809899 271.295102 
L 353.568438 271.429483 
L 354.326976 271.842273 
L 355.085515 271.964401 
L 355.844054 271.839565 
L 356.602592 271.306724 
L 357.361131 270.933572 
L 358.11967 270.750643 
L 358.878208 271.029882 
L 360.395286 271.053555 
L 361.153824 270.656099 
L 362.670902 270.923795 
L 364.187979 271.261123 
L 364.946518 272.019292 
L 365.705056 273.490837 
L 366.463595 274.592298 
L 367.222134 274.648732 
L 368.739211 272.331164 
L 369.49775 271.839644 
L 370.256288 271.821619 
L 371.014827 271.941835 
L 372.531904 272.88393 
L 373.290443 273.997214 
L 374.80752 275.00769 
L 375.566059 274.795379 
L 377.841675 275.160829 
L 378.600213 274.793727 
L 379.358752 274.199237 
L 380.117291 273.338323 
L 380.875829 272.76609 
L 382.392907 272.340646 
L 384.668523 272.132896 
L 384.668523 272.132896 
" style="fill:none;stroke:#008000;stroke-linecap:square;stroke-width:1.5;"/>
   </g>
   <g id="patch_3">
    <path d="M 43.78125 288.430125 
L 43.78125 22.318125 
" style="fill:none;stroke:#000000;stroke-linecap:square;stroke-linejoin:miter;stroke-width:0.8;"/>
   </g>
   <g id="patch_4">
    <path d="M 400.90125 288.430125 
L 400.90125 22.318125 
" style="fill:none;stroke:#000000;stroke-linecap:square;stroke-linejoin:miter;stroke-width:0.8;"/>
   </g>
   <g id="patch_5">
    <path d="M 43.78125 288.430125 
L 400.90125 288.430125 
" style="fill:none;stroke:#000000;stroke-linecap:square;stroke-linejoin:miter;stroke-width:0.8;"/>
   </g>
   <g id="patch_6">
    <path d="M 43.78125 22.318125 
L 400.90125 22.318125 
" style="fill:none;stroke:#000000;stroke-linecap:square;stroke-linejoin:miter;stroke-width:0.8;"/>
   </g>
   <g id="text_14">
    <!-- Entropy and Loss. -->
    <defs>
     <path d="M 9.1875 72.90625 
L 59.90625 72.90625 
L 59.90625 58.6875 
L 27.984375 58.6875 
L 27.984375 45.125 
L 58.015625 45.125 
L 58.015625 30.90625 
L 27.984375 30.90625 
L 27.984375 14.203125 
L 60.984375 14.203125 
L 60.984375 0 
L 9.1875 0 
z
" id="DejaVuSans-Bold-69"/>
     <path d="M 63.375 33.296875 
L 63.375 0 
L 45.796875 0 
L 45.796875 5.421875 
L 45.796875 25.484375 
Q 45.796875 32.5625 45.484375 35.25 
Q 45.171875 37.9375 44.390625 39.203125 
Q 43.359375 40.921875 41.59375 41.875 
Q 39.84375 42.828125 37.59375 42.828125 
Q 32.125 42.828125 29 38.59375 
Q 25.875 34.375 25.875 26.90625 
L 25.875 0 
L 8.40625 0 
L 8.40625 54.6875 
L 25.875 54.6875 
L 25.875 46.6875 
Q 29.828125 51.46875 34.265625 53.734375 
Q 38.71875 56 44.09375 56 
Q 53.5625 56 58.46875 50.1875 
Q 63.375 44.390625 63.375 33.296875 
z
" id="DejaVuSans-Bold-110"/>
     <path d="M 27.484375 70.21875 
L 27.484375 54.6875 
L 45.515625 54.6875 
L 45.515625 42.1875 
L 27.484375 42.1875 
L 27.484375 19 
Q 27.484375 15.1875 29 13.84375 
Q 30.515625 12.5 35.015625 12.5 
L 44 12.5 
L 44 0 
L 29 0 
Q 18.65625 0 14.328125 4.3125 
Q 10.015625 8.640625 10.015625 19 
L 10.015625 42.1875 
L 1.3125 42.1875 
L 1.3125 54.6875 
L 10.015625 54.6875 
L 10.015625 70.21875 
z
" id="DejaVuSans-Bold-116"/>
     <path d="M 49.03125 39.796875 
Q 46.734375 40.875 44.453125 41.375 
Q 42.1875 41.890625 39.890625 41.890625 
Q 33.15625 41.890625 29.515625 37.5625 
Q 25.875 33.25 25.875 25.203125 
L 25.875 0 
L 8.40625 0 
L 8.40625 54.6875 
L 25.875 54.6875 
L 25.875 45.703125 
Q 29.25 51.078125 33.609375 53.53125 
Q 37.984375 56 44.09375 56 
Q 44.96875 56 45.984375 55.921875 
Q 47.015625 55.859375 48.96875 55.609375 
z
" id="DejaVuSans-Bold-114"/>
     <path d="M 34.421875 43.5 
Q 28.609375 43.5 25.5625 39.328125 
Q 22.515625 35.15625 22.515625 27.296875 
Q 22.515625 19.4375 25.5625 15.25 
Q 28.609375 11.078125 34.421875 11.078125 
Q 40.140625 11.078125 43.15625 15.25 
Q 46.1875 19.4375 46.1875 27.296875 
Q 46.1875 35.15625 43.15625 39.328125 
Q 40.140625 43.5 34.421875 43.5 
z
M 34.421875 56 
Q 48.53125 56 56.46875 48.375 
Q 64.40625 40.765625 64.40625 27.296875 
Q 64.40625 13.8125 56.46875 6.1875 
Q 48.53125 -1.421875 34.421875 -1.421875 
Q 20.265625 -1.421875 12.28125 6.1875 
Q 4.296875 13.8125 4.296875 27.296875 
Q 4.296875 40.765625 12.28125 48.375 
Q 20.265625 56 34.421875 56 
z
" id="DejaVuSans-Bold-111"/>
     <path d="M 25.875 7.90625 
L 25.875 -20.796875 
L 8.40625 -20.796875 
L 8.40625 54.6875 
L 25.875 54.6875 
L 25.875 46.6875 
Q 29.5 51.46875 33.890625 53.734375 
Q 38.28125 56 44 56 
Q 54.109375 56 60.59375 47.96875 
Q 67.09375 39.9375 67.09375 27.296875 
Q 67.09375 14.65625 60.59375 6.609375 
Q 54.109375 -1.421875 44 -1.421875 
Q 38.28125 -1.421875 33.890625 0.84375 
Q 29.5 3.125 25.875 7.90625 
z
M 37.5 43.3125 
Q 31.890625 43.3125 28.875 39.1875 
Q 25.875 35.0625 25.875 27.296875 
Q 25.875 19.53125 28.875 15.40625 
Q 31.890625 11.28125 37.5 11.28125 
Q 43.109375 11.28125 46.0625 15.375 
Q 49.03125 19.484375 49.03125 27.296875 
Q 49.03125 35.109375 46.0625 39.203125 
Q 43.109375 43.3125 37.5 43.3125 
z
" id="DejaVuSans-Bold-112"/>
     <path d="M 1.21875 54.6875 
L 18.703125 54.6875 
L 33.40625 17.578125 
L 45.90625 54.6875 
L 63.375 54.6875 
L 40.375 -5.171875 
Q 36.921875 -14.3125 32.296875 -17.9375 
Q 27.6875 -21.578125 20.125 -21.578125 
L 10.015625 -21.578125 
L 10.015625 -10.109375 
L 15.484375 -10.109375 
Q 19.921875 -10.109375 21.9375 -8.6875 
Q 23.96875 -7.28125 25.09375 -3.609375 
L 25.59375 -2.09375 
z
" id="DejaVuSans-Bold-121"/>
     <path id="DejaVuSans-Bold-32"/>
     <path d="M 32.90625 24.609375 
Q 27.4375 24.609375 24.671875 22.75 
Q 21.921875 20.90625 21.921875 17.28125 
Q 21.921875 13.96875 24.140625 12.078125 
Q 26.375 10.203125 30.328125 10.203125 
Q 35.25 10.203125 38.625 13.734375 
Q 42 17.28125 42 22.609375 
L 42 24.609375 
z
M 59.625 31.203125 
L 59.625 0 
L 42 0 
L 42 8.109375 
Q 38.484375 3.125 34.078125 0.84375 
Q 29.6875 -1.421875 23.390625 -1.421875 
Q 14.890625 -1.421875 9.59375 3.53125 
Q 4.296875 8.5 4.296875 16.40625 
Q 4.296875 26.03125 10.90625 30.515625 
Q 17.53125 35.015625 31.6875 35.015625 
L 42 35.015625 
L 42 36.375 
Q 42 40.53125 38.71875 42.453125 
Q 35.453125 44.390625 28.515625 44.390625 
Q 22.90625 44.390625 18.0625 43.265625 
Q 13.234375 42.140625 9.078125 39.890625 
L 9.078125 53.21875 
Q 14.703125 54.59375 20.359375 55.296875 
Q 26.03125 56 31.6875 56 
Q 46.484375 56 53.046875 50.171875 
Q 59.625 44.34375 59.625 31.203125 
z
" id="DejaVuSans-Bold-97"/>
     <path d="M 45.609375 46.6875 
L 45.609375 75.984375 
L 63.1875 75.984375 
L 63.1875 0 
L 45.609375 0 
L 45.609375 7.90625 
Q 42 3.078125 37.640625 0.828125 
Q 33.296875 -1.421875 27.59375 -1.421875 
Q 17.484375 -1.421875 10.984375 6.609375 
Q 4.5 14.65625 4.5 27.296875 
Q 4.5 39.9375 10.984375 47.96875 
Q 17.484375 56 27.59375 56 
Q 33.25 56 37.625 53.734375 
Q 42 51.46875 45.609375 46.6875 
z
M 34.078125 11.28125 
Q 39.703125 11.28125 42.65625 15.375 
Q 45.609375 19.484375 45.609375 27.296875 
Q 45.609375 35.109375 42.65625 39.203125 
Q 39.703125 43.3125 34.078125 43.3125 
Q 28.515625 43.3125 25.5625 39.203125 
Q 22.609375 35.109375 22.609375 27.296875 
Q 22.609375 19.484375 25.5625 15.375 
Q 28.515625 11.28125 34.078125 11.28125 
z
" id="DejaVuSans-Bold-100"/>
     <path d="M 9.1875 72.90625 
L 27.984375 72.90625 
L 27.984375 14.203125 
L 60.984375 14.203125 
L 60.984375 0 
L 9.1875 0 
z
" id="DejaVuSans-Bold-76"/>
     <path d="M 51.125 52.984375 
L 51.125 39.703125 
Q 45.515625 42.046875 40.28125 43.21875 
Q 35.0625 44.390625 30.421875 44.390625 
Q 25.4375 44.390625 23.015625 43.140625 
Q 20.609375 41.890625 20.609375 39.3125 
Q 20.609375 37.203125 22.4375 36.078125 
Q 24.265625 34.96875 29 34.421875 
L 32.078125 33.984375 
Q 45.515625 32.28125 50.140625 28.375 
Q 54.78125 24.46875 54.78125 16.109375 
Q 54.78125 7.375 48.328125 2.96875 
Q 41.890625 -1.421875 29.109375 -1.421875 
Q 23.6875 -1.421875 17.890625 -0.5625 
Q 12.109375 0.296875 6 2 
L 6 15.28125 
Q 11.234375 12.75 16.71875 11.46875 
Q 22.21875 10.203125 27.875 10.203125 
Q 33.015625 10.203125 35.59375 11.609375 
Q 38.1875 13.03125 38.1875 15.828125 
Q 38.1875 18.171875 36.40625 19.3125 
Q 34.625 20.453125 29.296875 21.09375 
L 26.21875 21.484375 
Q 14.546875 22.953125 9.859375 26.90625 
Q 5.171875 30.859375 5.171875 38.921875 
Q 5.171875 47.609375 11.125 51.796875 
Q 17.09375 56 29.390625 56 
Q 34.234375 56 39.546875 55.265625 
Q 44.875 54.546875 51.125 52.984375 
z
" id="DejaVuSans-Bold-115"/>
     <path d="M 10.203125 18.890625 
L 27.78125 18.890625 
L 27.78125 0 
L 10.203125 0 
z
" id="DejaVuSans-Bold-46"/>
    </defs>
    <g transform="translate(161.657813 16.318125)scale(0.12 -0.12)">
     <use xlink:href="#DejaVuSans-Bold-69"/>
     <use x="68.310547" xlink:href="#DejaVuSans-Bold-110"/>
     <use x="139.501953" xlink:href="#DejaVuSans-Bold-116"/>
     <use x="187.304688" xlink:href="#DejaVuSans-Bold-114"/>
     <use x="236.621094" xlink:href="#DejaVuSans-Bold-111"/>
     <use x="305.322266" xlink:href="#DejaVuSans-Bold-112"/>
     <use x="376.904297" xlink:href="#DejaVuSans-Bold-121"/>
     <use x="442.089844" xlink:href="#DejaVuSans-Bold-32"/>
     <use x="476.904297" xlink:href="#DejaVuSans-Bold-97"/>
     <use x="544.384766" xlink:href="#DejaVuSans-Bold-110"/>
     <use x="615.576172" xlink:href="#DejaVuSans-Bold-100"/>
     <use x="687.158203" xlink:href="#DejaVuSans-Bold-32"/>
     <use x="721.972656" xlink:href="#DejaVuSans-Bold-76"/>
     <use x="785.693359" xlink:href="#DejaVuSans-Bold-111"/>
     <use x="854.394531" xlink:href="#DejaVuSans-Bold-115"/>
     <use x="913.916016" xlink:href="#DejaVuSans-Bold-115"/>
     <use x="973.4375" xlink:href="#DejaVuSans-Bold-46"/>
    </g>
   </g>
   <g id="legend_1">
    <g id="patch_7">
     <path d="M 18.982656 353.02505 
L 429.699844 353.02505 
Q 431.699844 353.02505 431.699844 351.02505 
L 431.699844 337.346925 
Q 431.699844 335.346925 429.699844 335.346925 
L 18.982656 335.346925 
Q 16.982656 335.346925 16.982656 337.346925 
L 16.982656 351.02505 
Q 16.982656 353.02505 18.982656 353.02505 
z
" style="fill:#4c4c4c;opacity:0.5;stroke:#4c4c4c;stroke-linejoin:miter;"/>
    </g>
    <g id="patch_8">
     <path d="M 16.982656 351.02505 
L 427.699844 351.02505 
Q 429.699844 351.02505 429.699844 349.02505 
L 429.699844 335.346925 
Q 429.699844 333.346925 427.699844 333.346925 
L 16.982656 333.346925 
Q 14.982656 333.346925 14.982656 335.346925 
L 14.982656 349.02505 
Q 14.982656 351.02505 16.982656 351.02505 
z
" style="fill:#ffffff;stroke:#cccccc;stroke-linejoin:miter;"/>
    </g>
    <g id="line2d_17">
     <path d="M 18.982656 341.445362 
L 38.982656 341.445362 
" style="fill:none;stroke:#1f77b4;stroke-linecap:square;stroke-opacity:0.3;stroke-width:1.5;"/>
    </g>
    <g id="line2d_18"/>
    <g id="text_15">
     <!-- Policy Loss (Normalized) -->
     <defs>
      <path d="M 19.671875 64.796875 
L 19.671875 37.40625 
L 32.078125 37.40625 
Q 38.96875 37.40625 42.71875 40.96875 
Q 46.484375 44.53125 46.484375 51.125 
Q 46.484375 57.671875 42.71875 61.234375 
Q 38.96875 64.796875 32.078125 64.796875 
z
M 9.8125 72.90625 
L 32.078125 72.90625 
Q 44.34375 72.90625 50.609375 67.359375 
Q 56.890625 61.8125 56.890625 51.125 
Q 56.890625 40.328125 50.609375 34.8125 
Q 44.34375 29.296875 32.078125 29.296875 
L 19.671875 29.296875 
L 19.671875 0 
L 9.8125 0 
z
" id="DejaVuSans-80"/>
      <path d="M 9.421875 75.984375 
L 18.40625 75.984375 
L 18.40625 0 
L 9.421875 0 
z
" id="DejaVuSans-108"/>
      <path d="M 9.421875 54.6875 
L 18.40625 54.6875 
L 18.40625 0 
L 9.421875 0 
z
M 9.421875 75.984375 
L 18.40625 75.984375 
L 18.40625 64.59375 
L 9.421875 64.59375 
z
" id="DejaVuSans-105"/>
      <path d="M 32.171875 -5.078125 
Q 28.375 -14.84375 24.75 -17.8125 
Q 21.140625 -20.796875 15.09375 -20.796875 
L 7.90625 -20.796875 
L 7.90625 -13.28125 
L 13.1875 -13.28125 
Q 16.890625 -13.28125 18.9375 -11.515625 
Q 21 -9.765625 23.484375 -3.21875 
L 25.09375 0.875 
L 2.984375 54.6875 
L 12.5 54.6875 
L 29.59375 11.921875 
L 46.6875 54.6875 
L 56.203125 54.6875 
z
" id="DejaVuSans-121"/>
      <path id="DejaVuSans-32"/>
      <path d="M 31 75.875 
Q 24.46875 64.65625 21.28125 53.65625 
Q 18.109375 42.671875 18.109375 31.390625 
Q 18.109375 20.125 21.3125 9.0625 
Q 24.515625 -2 31 -13.1875 
L 23.1875 -13.1875 
Q 15.875 -1.703125 12.234375 9.375 
Q 8.59375 20.453125 8.59375 31.390625 
Q 8.59375 42.28125 12.203125 53.3125 
Q 15.828125 64.359375 23.1875 75.875 
z
" id="DejaVuSans-40"/>
      <path d="M 9.8125 72.90625 
L 23.09375 72.90625 
L 55.421875 11.921875 
L 55.421875 72.90625 
L 64.984375 72.90625 
L 64.984375 0 
L 51.703125 0 
L 19.390625 60.984375 
L 19.390625 0 
L 9.8125 0 
z
" id="DejaVuSans-78"/>
      <path d="M 41.109375 46.296875 
Q 39.59375 47.171875 37.8125 47.578125 
Q 36.03125 48 33.890625 48 
Q 26.265625 48 22.1875 43.046875 
Q 18.109375 38.09375 18.109375 28.8125 
L 18.109375 0 
L 9.078125 0 
L 9.078125 54.6875 
L 18.109375 54.6875 
L 18.109375 46.1875 
Q 20.953125 51.171875 25.484375 53.578125 
Q 30.03125 56 36.53125 56 
Q 37.453125 56 38.578125 55.875 
Q 39.703125 55.765625 41.0625 55.515625 
z
" id="DejaVuSans-114"/>
      <path d="M 52 44.1875 
Q 55.375 50.25 60.0625 53.125 
Q 64.75 56 71.09375 56 
Q 79.640625 56 84.28125 50.015625 
Q 88.921875 44.046875 88.921875 33.015625 
L 88.921875 0 
L 79.890625 0 
L 79.890625 32.71875 
Q 79.890625 40.578125 77.09375 44.375 
Q 74.3125 48.1875 68.609375 48.1875 
Q 61.625 48.1875 57.5625 43.546875 
Q 53.515625 38.921875 53.515625 30.90625 
L 53.515625 0 
L 44.484375 0 
L 44.484375 32.71875 
Q 44.484375 40.625 41.703125 44.40625 
Q 38.921875 48.1875 33.109375 48.1875 
Q 26.21875 48.1875 22.15625 43.53125 
Q 18.109375 38.875 18.109375 30.90625 
L 18.109375 0 
L 9.078125 0 
L 9.078125 54.6875 
L 18.109375 54.6875 
L 18.109375 46.1875 
Q 21.1875 51.21875 25.484375 53.609375 
Q 29.78125 56 35.6875 56 
Q 41.65625 56 45.828125 52.96875 
Q 50 49.953125 52 44.1875 
z
" id="DejaVuSans-109"/>
      <path d="M 34.28125 27.484375 
Q 23.390625 27.484375 19.1875 25 
Q 14.984375 22.515625 14.984375 16.5 
Q 14.984375 11.71875 18.140625 8.90625 
Q 21.296875 6.109375 26.703125 6.109375 
Q 34.1875 6.109375 38.703125 11.40625 
Q 43.21875 16.703125 43.21875 25.484375 
L 43.21875 27.484375 
z
M 52.203125 31.203125 
L 52.203125 0 
L 43.21875 0 
L 43.21875 8.296875 
Q 40.140625 3.328125 35.546875 0.953125 
Q 30.953125 -1.421875 24.3125 -1.421875 
Q 15.921875 -1.421875 10.953125 3.296875 
Q 6 8.015625 6 15.921875 
Q 6 25.140625 12.171875 29.828125 
Q 18.359375 34.515625 30.609375 34.515625 
L 43.21875 34.515625 
L 43.21875 35.40625 
Q 43.21875 41.609375 39.140625 45 
Q 35.0625 48.390625 27.6875 48.390625 
Q 23 48.390625 18.546875 47.265625 
Q 14.109375 46.140625 10.015625 43.890625 
L 10.015625 52.203125 
Q 14.9375 54.109375 19.578125 55.046875 
Q 24.21875 56 28.609375 56 
Q 40.484375 56 46.34375 49.84375 
Q 52.203125 43.703125 52.203125 31.203125 
z
" id="DejaVuSans-97"/>
      <path d="M 5.515625 54.6875 
L 48.1875 54.6875 
L 48.1875 46.484375 
L 14.40625 7.171875 
L 48.1875 7.171875 
L 48.1875 0 
L 4.296875 0 
L 4.296875 8.203125 
L 38.09375 47.515625 
L 5.515625 47.515625 
z
" id="DejaVuSans-122"/>
      <path d="M 56.203125 29.59375 
L 56.203125 25.203125 
L 14.890625 25.203125 
Q 15.484375 15.921875 20.484375 11.0625 
Q 25.484375 6.203125 34.421875 6.203125 
Q 39.59375 6.203125 44.453125 7.46875 
Q 49.3125 8.734375 54.109375 11.28125 
L 54.109375 2.78125 
Q 49.265625 0.734375 44.1875 -0.34375 
Q 39.109375 -1.421875 33.890625 -1.421875 
Q 20.796875 -1.421875 13.15625 6.1875 
Q 5.515625 13.8125 5.515625 26.8125 
Q 5.515625 40.234375 12.765625 48.109375 
Q 20.015625 56 32.328125 56 
Q 43.359375 56 49.78125 48.890625 
Q 56.203125 41.796875 56.203125 29.59375 
z
M 47.21875 32.234375 
Q 47.125 39.59375 43.09375 43.984375 
Q 39.0625 48.390625 32.421875 48.390625 
Q 24.90625 48.390625 20.390625 44.140625 
Q 15.875 39.890625 15.1875 32.171875 
z
" id="DejaVuSans-101"/>
      <path d="M 45.40625 46.390625 
L 45.40625 75.984375 
L 54.390625 75.984375 
L 54.390625 0 
L 45.40625 0 
L 45.40625 8.203125 
Q 42.578125 3.328125 38.25 0.953125 
Q 33.9375 -1.421875 27.875 -1.421875 
Q 17.96875 -1.421875 11.734375 6.484375 
Q 5.515625 14.40625 5.515625 27.296875 
Q 5.515625 40.1875 11.734375 48.09375 
Q 17.96875 56 27.875 56 
Q 33.9375 56 38.25 53.625 
Q 42.578125 51.265625 45.40625 46.390625 
z
M 14.796875 27.296875 
Q 14.796875 17.390625 18.875 11.75 
Q 22.953125 6.109375 30.078125 6.109375 
Q 37.203125 6.109375 41.296875 11.75 
Q 45.40625 17.390625 45.40625 27.296875 
Q 45.40625 37.203125 41.296875 42.84375 
Q 37.203125 48.484375 30.078125 48.484375 
Q 22.953125 48.484375 18.875 42.84375 
Q 14.796875 37.203125 14.796875 27.296875 
z
" id="DejaVuSans-100"/>
      <path d="M 8.015625 75.875 
L 15.828125 75.875 
Q 23.140625 64.359375 26.78125 53.3125 
Q 30.421875 42.28125 30.421875 31.390625 
Q 30.421875 20.453125 26.78125 9.375 
Q 23.140625 -1.703125 15.828125 -13.1875 
L 8.015625 -13.1875 
Q 14.5 -2 17.703125 9.0625 
Q 20.90625 20.125 20.90625 31.390625 
Q 20.90625 42.671875 17.703125 53.65625 
Q 14.5 64.65625 8.015625 75.875 
z
" id="DejaVuSans-41"/>
     </defs>
     <g transform="translate(46.982656 344.945362)scale(0.1 -0.1)">
      <use xlink:href="#DejaVuSans-80"/>
      <use x="60.255859" xlink:href="#DejaVuSans-111"/>
      <use x="121.4375" xlink:href="#DejaVuSans-108"/>
      <use x="149.220703" xlink:href="#DejaVuSans-105"/>
      <use x="177.003906" xlink:href="#DejaVuSans-99"/>
      <use x="231.984375" xlink:href="#DejaVuSans-121"/>
      <use x="291.164062" xlink:href="#DejaVuSans-32"/>
      <use x="322.951172" xlink:href="#DejaVuSans-76"/>
      <use x="378.648438" xlink:href="#DejaVuSans-111"/>
      <use x="439.830078" xlink:href="#DejaVuSans-115"/>
      <use x="491.929688" xlink:href="#DejaVuSans-115"/>
      <use x="544.029297" xlink:href="#DejaVuSans-32"/>
      <use x="575.816406" xlink:href="#DejaVuSans-40"/>
      <use x="614.830078" xlink:href="#DejaVuSans-78"/>
      <use x="689.634766" xlink:href="#DejaVuSans-111"/>
      <use x="750.816406" xlink:href="#DejaVuSans-114"/>
      <use x="791.914062" xlink:href="#DejaVuSans-109"/>
      <use x="889.326172" xlink:href="#DejaVuSans-97"/>
      <use x="950.605469" xlink:href="#DejaVuSans-108"/>
      <use x="978.388672" xlink:href="#DejaVuSans-105"/>
      <use x="1006.171875" xlink:href="#DejaVuSans-122"/>
      <use x="1058.662109" xlink:href="#DejaVuSans-101"/>
      <use x="1120.185547" xlink:href="#DejaVuSans-100"/>
      <use x="1183.662109" xlink:href="#DejaVuSans-41"/>
     </g>
    </g>
    <g id="line2d_19">
     <path d="M 189.251406 341.445362 
L 209.251406 341.445362 
" style="fill:none;stroke:#ff7f0e;stroke-linecap:square;stroke-opacity:0.3;stroke-width:1.5;"/>
    </g>
    <g id="line2d_20"/>
    <g id="text_16">
     <!-- Value Loss (Normalized) -->
     <defs>
      <path d="M 28.609375 0 
L 0.78125 72.90625 
L 11.078125 72.90625 
L 34.1875 11.53125 
L 57.328125 72.90625 
L 67.578125 72.90625 
L 39.796875 0 
z
" id="DejaVuSans-86"/>
      <path d="M 8.5 21.578125 
L 8.5 54.6875 
L 17.484375 54.6875 
L 17.484375 21.921875 
Q 17.484375 14.15625 20.5 10.265625 
Q 23.53125 6.390625 29.59375 6.390625 
Q 36.859375 6.390625 41.078125 11.03125 
Q 45.3125 15.671875 45.3125 23.6875 
L 45.3125 54.6875 
L 54.296875 54.6875 
L 54.296875 0 
L 45.3125 0 
L 45.3125 8.40625 
Q 42.046875 3.421875 37.71875 1 
Q 33.40625 -1.421875 27.6875 -1.421875 
Q 18.265625 -1.421875 13.375 4.4375 
Q 8.5 10.296875 8.5 21.578125 
z
M 31.109375 56 
z
" id="DejaVuSans-117"/>
     </defs>
     <g transform="translate(217.251406 344.945362)scale(0.1 -0.1)">
      <use xlink:href="#DejaVuSans-86"/>
      <use x="68.298828" xlink:href="#DejaVuSans-97"/>
      <use x="129.578125" xlink:href="#DejaVuSans-108"/>
      <use x="157.361328" xlink:href="#DejaVuSans-117"/>
      <use x="220.740234" xlink:href="#DejaVuSans-101"/>
      <use x="282.263672" xlink:href="#DejaVuSans-32"/>
      <use x="314.050781" xlink:href="#DejaVuSans-76"/>
      <use x="369.748047" xlink:href="#DejaVuSans-111"/>
      <use x="430.929688" xlink:href="#DejaVuSans-115"/>
      <use x="483.029297" xlink:href="#DejaVuSans-115"/>
      <use x="535.128906" xlink:href="#DejaVuSans-32"/>
      <use x="566.916016" xlink:href="#DejaVuSans-40"/>
      <use x="605.929688" xlink:href="#DejaVuSans-78"/>
      <use x="680.734375" xlink:href="#DejaVuSans-111"/>
      <use x="741.916016" xlink:href="#DejaVuSans-114"/>
      <use x="783.013672" xlink:href="#DejaVuSans-109"/>
      <use x="880.425781" xlink:href="#DejaVuSans-97"/>
      <use x="941.705078" xlink:href="#DejaVuSans-108"/>
      <use x="969.488281" xlink:href="#DejaVuSans-105"/>
      <use x="997.271484" xlink:href="#DejaVuSans-122"/>
      <use x="1049.761719" xlink:href="#DejaVuSans-101"/>
      <use x="1111.285156" xlink:href="#DejaVuSans-100"/>
      <use x="1174.761719" xlink:href="#DejaVuSans-41"/>
     </g>
    </g>
    <g id="line2d_21">
     <path d="M 358.629531 341.445362 
L 378.629531 341.445362 
" style="fill:none;stroke:#008000;stroke-linecap:square;stroke-opacity:0.3;stroke-width:1.5;"/>
    </g>
    <g id="line2d_22"/>
    <g id="text_17">
     <!-- Entropy -->
     <defs>
      <path d="M 54.890625 33.015625 
L 54.890625 0 
L 45.90625 0 
L 45.90625 32.71875 
Q 45.90625 40.484375 42.875 44.328125 
Q 39.84375 48.1875 33.796875 48.1875 
Q 26.515625 48.1875 22.3125 43.546875 
Q 18.109375 38.921875 18.109375 30.90625 
L 18.109375 0 
L 9.078125 0 
L 9.078125 54.6875 
L 18.109375 54.6875 
L 18.109375 46.1875 
Q 21.34375 51.125 25.703125 53.5625 
Q 30.078125 56 35.796875 56 
Q 45.21875 56 50.046875 50.171875 
Q 54.890625 44.34375 54.890625 33.015625 
z
" id="DejaVuSans-110"/>
      <path d="M 18.3125 70.21875 
L 18.3125 54.6875 
L 36.8125 54.6875 
L 36.8125 47.703125 
L 18.3125 47.703125 
L 18.3125 18.015625 
Q 18.3125 11.328125 20.140625 9.421875 
Q 21.96875 7.515625 27.59375 7.515625 
L 36.8125 7.515625 
L 36.8125 0 
L 27.59375 0 
Q 17.1875 0 13.234375 3.875 
Q 9.28125 7.765625 9.28125 18.015625 
L 9.28125 47.703125 
L 2.6875 47.703125 
L 2.6875 54.6875 
L 9.28125 54.6875 
L 9.28125 70.21875 
z
" id="DejaVuSans-116"/>
     </defs>
     <g transform="translate(386.629531 344.945362)scale(0.1 -0.1)">
      <use xlink:href="#DejaVuSans-69"/>
      <use x="63.183594" xlink:href="#DejaVuSans-110"/>
      <use x="126.5625" xlink:href="#DejaVuSans-116"/>
      <use x="165.771484" xlink:href="#DejaVuSans-114"/>
      <use x="206.853516" xlink:href="#DejaVuSans-111"/>
      <use x="268.035156" xlink:href="#DejaVuSans-112"/>
      <use x="331.511719" xlink:href="#DejaVuSans-121"/>
     </g>
    </g>
   </g>
  </g>
  <g id="axes_2">
   <g id="matplotlib.axis_3">
    <g id="ytick_7">
     <g id="line2d_23">
      <defs>
       <path d="M 0 0 
L 3.5 0 
" id="m29a1c5daf1" style="stroke:#000000;stroke-width:0.8;"/>
      </defs>
      <g>
       <use style="stroke:#000000;stroke-width:0.8;" x="400.90125" xlink:href="#m29a1c5daf1" y="258.139424"/>
      </g>
     </g>
     <g id="text_18">
      <!-- 0.1 -->
      <g transform="translate(407.90125 261.938643)scale(0.1 -0.1)">
       <use xlink:href="#DejaVuSans-48"/>
       <use x="63.623047" xlink:href="#DejaVuSans-46"/>
       <use x="95.410156" xlink:href="#DejaVuSans-49"/>
      </g>
     </g>
    </g>
    <g id="ytick_8">
     <g id="line2d_24">
      <g>
       <use style="stroke:#000000;stroke-width:0.8;" x="400.90125" xlink:href="#m29a1c5daf1" y="217.714782"/>
      </g>
     </g>
     <g id="text_19">
      <!-- 0.2 -->
      <g transform="translate(407.90125 221.514)scale(0.1 -0.1)">
       <use xlink:href="#DejaVuSans-48"/>
       <use x="63.623047" xlink:href="#DejaVuSans-46"/>
       <use x="95.410156" xlink:href="#DejaVuSans-50"/>
      </g>
     </g>
    </g>
    <g id="ytick_9">
     <g id="line2d_25">
      <g>
       <use style="stroke:#000000;stroke-width:0.8;" x="400.90125" xlink:href="#m29a1c5daf1" y="177.290139"/>
      </g>
     </g>
     <g id="text_20">
      <!-- 0.3 -->
      <g transform="translate(407.90125 181.089357)scale(0.1 -0.1)">
       <use xlink:href="#DejaVuSans-48"/>
       <use x="63.623047" xlink:href="#DejaVuSans-46"/>
       <use x="95.410156" xlink:href="#DejaVuSans-51"/>
      </g>
     </g>
    </g>
    <g id="ytick_10">
     <g id="line2d_26">
      <g>
       <use style="stroke:#000000;stroke-width:0.8;" x="400.90125" xlink:href="#m29a1c5daf1" y="136.865496"/>
      </g>
     </g>
     <g id="text_21">
      <!-- 0.4 -->
      <g transform="translate(407.90125 140.664715)scale(0.1 -0.1)">
       <use xlink:href="#DejaVuSans-48"/>
       <use x="63.623047" xlink:href="#DejaVuSans-46"/>
       <use x="95.410156" xlink:href="#DejaVuSans-52"/>
      </g>
     </g>
    </g>
    <g id="ytick_11">
     <g id="line2d_27">
      <g>
       <use style="stroke:#000000;stroke-width:0.8;" x="400.90125" xlink:href="#m29a1c5daf1" y="96.440853"/>
      </g>
     </g>
     <g id="text_22">
      <!-- 0.5 -->
      <defs>
       <path d="M 10.796875 72.90625 
L 49.515625 72.90625 
L 49.515625 64.59375 
L 19.828125 64.59375 
L 19.828125 46.734375 
Q 21.96875 47.46875 24.109375 47.828125 
Q 26.265625 48.1875 28.421875 48.1875 
Q 40.625 48.1875 47.75 41.5 
Q 54.890625 34.8125 54.890625 23.390625 
Q 54.890625 11.625 47.5625 5.09375 
Q 40.234375 -1.421875 26.90625 -1.421875 
Q 22.3125 -1.421875 17.546875 -0.640625 
Q 12.796875 0.140625 7.71875 1.703125 
L 7.71875 11.625 
Q 12.109375 9.234375 16.796875 8.0625 
Q 21.484375 6.890625 26.703125 6.890625 
Q 35.15625 6.890625 40.078125 11.328125 
Q 45.015625 15.765625 45.015625 23.390625 
Q 45.015625 31 40.078125 35.4375 
Q 35.15625 39.890625 26.703125 39.890625 
Q 22.75 39.890625 18.8125 39.015625 
Q 14.890625 38.140625 10.796875 36.28125 
z
" id="DejaVuSans-53"/>
      </defs>
      <g transform="translate(407.90125 100.240072)scale(0.1 -0.1)">
       <use xlink:href="#DejaVuSans-48"/>
       <use x="63.623047" xlink:href="#DejaVuSans-46"/>
       <use x="95.410156" xlink:href="#DejaVuSans-53"/>
      </g>
     </g>
    </g>
    <g id="ytick_12">
     <g id="line2d_28">
      <g>
       <use style="stroke:#000000;stroke-width:0.8;" x="400.90125" xlink:href="#m29a1c5daf1" y="56.01621"/>
      </g>
     </g>
     <g id="text_23">
      <!-- 0.6 -->
      <g transform="translate(407.90125 59.815429)scale(0.1 -0.1)">
       <use xlink:href="#DejaVuSans-48"/>
       <use x="63.623047" xlink:href="#DejaVuSans-46"/>
       <use x="95.410156" xlink:href="#DejaVuSans-54"/>
      </g>
     </g>
    </g>
    <g id="text_24">
     <!-- Entropy -->
     <g transform="translate(435.402812 174.909281)rotate(-90)scale(0.1 -0.1)">
      <use xlink:href="#DejaVuSans-69"/>
      <use x="63.183594" xlink:href="#DejaVuSans-110"/>
      <use x="126.5625" xlink:href="#DejaVuSans-116"/>
      <use x="165.771484" xlink:href="#DejaVuSans-114"/>
      <use x="206.853516" xlink:href="#DejaVuSans-111"/>
      <use x="268.035156" xlink:href="#DejaVuSans-112"/>
      <use x="331.511719" xlink:href="#DejaVuSans-121"/>
     </g>
    </g>
   </g>
   <g id="line2d_29">
    <path clip-path="url(#p6b599c849a)" d="M 60.013977 35.381201 
L 60.772516 35.315494 
L 61.531055 34.414125 
L 62.289593 39.592446 
L 63.048132 39.342509 
L 63.806671 39.638034 
L 64.565209 45.194911 
L 65.323748 46.628851 
L 66.082287 46.017947 
L 66.840825 49.778255 
L 68.357903 50.188111 
L 69.116441 54.181128 
L 69.87498 56.099425 
L 70.633518 55.743156 
L 71.392057 58.620312 
L 72.150596 60.339271 
L 72.909134 61.018098 
L 73.667673 56.202214 
L 74.426212 60.431073 
L 75.18475 60.128392 
L 75.943289 57.517317 
L 76.701828 60.484612 
L 77.460366 60.567137 
L 78.218905 55.06151 
L 78.977444 54.265364 
L 79.735982 54.980888 
L 80.494521 57.82448 
L 81.25306 56.576601 
L 82.011598 57.197408 
L 82.770137 63.174791 
L 83.528676 64.671425 
L 84.287214 63.726782 
L 85.045753 58.702235 
L 85.804292 63.416439 
L 86.56283 64.971962 
L 87.321369 61.145754 
L 88.079908 62.132466 
L 88.838446 62.881507 
L 89.596985 68.371448 
L 90.355524 71.500227 
L 91.114062 64.599357 
L 91.872601 63.722758 
L 92.63114 65.846031 
L 93.389678 63.606307 
L 94.148217 62.925046 
L 94.906756 72.337985 
L 95.665294 75.263355 
L 96.423833 70.9625 
L 97.182371 70.859928 
L 97.94091 90.446243 
L 99.457987 84.456813 
L 100.216526 93.134783 
L 100.975065 94.981614 
L 101.733603 94.106244 
L 102.492142 107.914369 
L 103.250681 102.628765 
L 104.009219 104.993409 
L 104.767758 114.821287 
L 105.526297 114.459634 
L 106.284835 117.718092 
L 107.043374 119.999994 
L 108.560451 113.993264 
L 109.31899 115.94692 
L 110.077529 120.148214 
L 111.594606 146.663458 
L 112.353145 139.488483 
L 113.870222 142.799686 
L 114.628761 145.018712 
L 115.387299 144.105247 
L 116.145838 146.293576 
L 116.904377 147.556273 
L 117.662915 152.346376 
L 118.421454 153.194832 
L 119.179993 152.974604 
L 119.938531 155.031013 
L 120.69707 158.02174 
L 121.455609 162.715391 
L 122.214147 168.657053 
L 122.972686 171.790193 
L 123.731225 172.071899 
L 124.489763 170.772723 
L 125.248302 172.041359 
L 126.00684 170.763627 
L 126.765379 172.880587 
L 127.523918 176.01645 
L 128.282456 175.905348 
L 129.040995 178.77436 
L 129.799534 179.423611 
L 130.558072 183.374811 
L 132.07515 189.188565 
L 132.833688 189.019298 
L 133.592227 191.68855 
L 134.350766 192.270865 
L 135.109304 187.598056 
L 135.867843 192.33291 
L 136.626382 195.175332 
L 137.38492 201.038378 
L 138.143459 205.331673 
L 138.901998 207.615924 
L 139.660536 208.869693 
L 140.419075 211.141873 
L 141.177614 212.583697 
L 141.936152 209.776989 
L 142.694691 211.15733 
L 143.45323 211.235813 
L 144.211768 209.104812 
L 145.728846 209.988218 
L 146.487384 216.122001 
L 148.004462 219.853998 
L 148.763 218.523877 
L 149.521539 220.364227 
L 150.280078 221.432013 
L 151.038616 219.990074 
L 151.797155 222.577656 
L 153.314232 225.399936 
L 154.072771 226.910545 
L 154.831309 227.060946 
L 155.589848 223.040677 
L 156.348387 223.604957 
L 157.106925 223.91833 
L 157.865464 219.470996 
L 158.624003 219.744251 
L 159.382541 220.254323 
L 160.14108 225.763239 
L 160.899619 227.097402 
L 161.658157 227.228755 
L 162.416696 228.378037 
L 163.175235 227.859357 
L 163.933773 228.332305 
L 164.692312 225.905195 
L 165.450851 226.90048 
L 166.209389 227.321617 
L 166.967928 226.42873 
L 167.726467 227.192914 
L 168.485005 227.724503 
L 169.243544 227.742177 
L 170.760621 228.915409 
L 171.51916 232.743936 
L 172.277699 234.26516 
L 173.036237 234.600441 
L 173.794776 231.310756 
L 174.553315 231.762079 
L 175.311853 232.385759 
L 176.070392 224.980225 
L 176.828931 225.078708 
L 177.587469 226.449054 
L 178.346008 231.908666 
L 179.104547 232.563128 
L 179.863085 233.563569 
L 180.621624 230.34968 
L 181.380162 231.817148 
L 182.138701 231.826593 
L 183.655778 234.42047 
L 184.414317 234.467919 
L 185.172856 236.30563 
L 185.931394 236.978078 
L 186.689933 237.891615 
L 187.448472 239.999557 
L 188.20701 240.295961 
L 188.965549 241.082469 
L 189.724088 235.896967 
L 190.482626 236.26059 
L 191.241165 237.117913 
L 191.999704 235.811406 
L 193.516781 236.620515 
L 194.27532 242.800307 
L 195.033858 242.993356 
L 195.792397 243.778972 
L 196.550936 234.346167 
L 197.309474 234.69758 
L 198.068013 234.645668 
L 198.826552 236.698775 
L 199.58509 237.39871 
L 200.343629 238.277188 
L 201.102168 240.91078 
L 201.860706 241.721033 
L 202.619245 242.834926 
L 203.377784 236.303787 
L 204.894861 236.514714 
L 205.6534 248.485327 
L 207.170477 247.760274 
L 207.929016 245.901703 
L 209.446093 246.976862 
L 210.204631 242.725071 
L 210.96317 243.497893 
L 211.721709 243.794827 
L 212.480247 241.848899 
L 213.997325 243.551648 
L 214.755863 247.736113 
L 216.272941 247.848648 
L 217.031479 242.689609 
L 217.790018 243.165358 
L 218.548557 244.034271 
L 219.307095 239.141366 
L 220.065634 240.211881 
L 220.824173 240.805491 
L 221.582711 235.505219 
L 223.099789 236.870621 
L 223.858327 249.435789 
L 225.375405 249.612508 
L 226.133943 247.031058 
L 226.892482 247.513174 
L 227.651021 247.838402 
L 228.409559 250.582005 
L 229.168098 251.329762 
L 229.926637 251.65371 
L 230.685175 247.109505 
L 231.443714 247.583109 
L 232.202253 247.707205 
L 232.960791 248.754751 
L 233.71933 249.022452 
L 234.477869 249.125522 
L 235.236407 249.624682 
L 235.994946 250.411313 
L 236.753484 250.418472 
L 237.512023 248.048775 
L 238.270562 248.7814 
L 239.0291 249.280829 
L 239.787639 250.153464 
L 240.546178 250.731806 
L 241.304716 250.635426 
L 242.063255 251.64078 
L 243.580332 252.201126 
L 244.338871 245.720888 
L 245.09741 245.482137 
L 245.855948 245.785878 
L 246.614487 250.427586 
L 247.373026 250.85173 
L 248.131564 251.094077 
L 248.890103 242.059797 
L 249.648642 242.38588 
L 250.40718 242.836703 
L 251.165719 251.715571 
L 251.924258 252.253683 
L 252.682796 252.311662 
L 253.441335 249.443735 
L 254.199874 249.221615 
L 254.958412 249.386485 
L 255.716951 250.428556 
L 256.47549 250.801884 
L 257.234028 250.907956 
L 257.992567 255.030713 
L 259.509644 256.020889 
L 260.268183 251.060462 
L 261.026722 251.165344 
L 261.78526 251.063949 
L 262.543799 252.551485 
L 263.302338 252.984634 
L 264.060876 253.753414 
L 264.819415 257.001584 
L 265.577953 256.78429 
L 266.336492 257.166906 
L 267.095031 251.700439 
L 267.853569 252.405325 
L 268.612108 252.604103 
L 269.370647 262.79658 
L 270.887724 263.482657 
L 271.646263 261.038135 
L 272.404801 261.234588 
L 273.16334 261.827324 
L 273.921879 258.527636 
L 275.438956 258.834307 
L 276.197495 262.161828 
L 276.956033 262.534183 
L 277.714572 262.584508 
L 278.473111 256.715529 
L 279.231649 256.828088 
L 279.990188 257.079399 
L 280.748727 259.345771 
L 282.265804 259.80104 
L 283.024343 258.692421 
L 284.54142 259.325574 
L 285.299959 265.694355 
L 286.817036 265.745081 
L 287.575575 259.006933 
L 288.334113 259.139088 
L 289.092652 259.500831 
L 289.851191 258.566076 
L 290.609729 258.263239 
L 291.368268 258.329629 
L 292.126806 260.071918 
L 292.885345 259.97477 
L 293.643884 260.296986 
L 294.402422 259.300879 
L 295.160961 259.890299 
L 295.9195 259.65947 
L 296.678038 263.225982 
L 297.436577 263.584314 
L 298.195116 263.478076 
L 298.953654 263.009631 
L 300.470732 263.487892 
L 301.22927 260.812519 
L 302.746348 261.194217 
L 303.504886 262.166057 
L 304.263425 262.314099 
L 305.021964 262.854604 
L 305.780502 262.774792 
L 306.539041 263.075467 
L 307.29758 263.00932 
L 308.056118 258.010603 
L 308.814657 258.273889 
L 309.573196 258.216624 
L 310.331734 260.327307 
L 311.090273 260.530204 
L 311.848812 260.596231 
L 312.60735 264.888432 
L 314.124428 264.931237 
L 314.882966 260.701758 
L 316.400044 261.575037 
L 317.158582 264.549919 
L 318.67566 264.548471 
L 319.434198 266.172309 
L 320.192737 266.512156 
L 320.951275 266.611054 
L 321.709814 261.86805 
L 322.468353 261.946175 
L 323.226891 262.137778 
L 323.98543 261.255135 
L 324.743969 261.580143 
L 325.502507 261.754885 
L 326.261046 264.803124 
L 327.019585 264.694857 
L 327.778123 264.850263 
L 328.536662 261.338663 
L 329.295201 262.077987 
L 330.053739 262.258853 
L 330.812278 267.402405 
L 331.570817 267.381767 
L 332.329355 267.596336 
L 333.087894 261.485793 
L 333.846433 261.52286 
L 334.604971 261.422793 
L 335.36351 261.099644 
L 336.880587 261.355237 
L 337.639126 262.078276 
L 339.156203 262.55554 
L 339.914742 263.342975 
L 340.673281 263.587711 
L 341.431819 263.575456 
L 342.190358 274.378953 
L 342.948897 274.678397 
L 343.707435 274.838395 
L 344.465974 266.61259 
L 345.983051 266.791007 
L 346.74159 267.513329 
L 348.258667 267.688355 
L 349.017206 270.794437 
L 349.775744 270.998708 
L 352.809899 271.115222 
L 353.568438 271.609123 
L 356.602592 272.101459 
L 357.361131 272.243445 
L 358.11967 269.49963 
L 359.636747 269.75348 
L 360.395286 272.528404 
L 361.153824 272.385198 
L 361.912363 272.51388 
L 362.670902 269.109837 
L 363.42944 269.39726 
L 364.187979 269.47406 
L 364.946518 274.020373 
L 365.705056 273.988962 
L 366.463595 274.087015 
L 367.222134 274.890638 
L 368.739211 275.003232 
L 369.49775 269.365171 
L 370.256288 269.332044 
L 371.014827 269.441836 
L 371.773366 274.751956 
L 372.531904 275.214429 
L 373.290443 275.150882 
L 374.048982 273.393497 
L 375.566059 273.461784 
L 376.324597 276.097079 
L 377.083136 276.334125 
L 377.841675 276.223924 
L 378.600213 273.679616 
L 379.358752 273.570922 
L 380.117291 273.595012 
L 380.875829 272.574582 
L 381.634368 272.505646 
L 382.392907 272.556619 
L 383.151445 272.130942 
L 383.909984 272.05154 
L 384.668523 272.21822 
L 384.668523 272.21822 
" style="fill:none;stroke:#008000;stroke-linecap:square;stroke-opacity:0.3;stroke-width:1.5;"/>
   </g>
   <g id="patch_9">
    <path d="M 43.78125 288.430125 
L 43.78125 22.318125 
" style="fill:none;stroke:#000000;stroke-linecap:square;stroke-linejoin:miter;stroke-width:0.8;"/>
   </g>
   <g id="patch_10">
    <path d="M 400.90125 288.430125 
L 400.90125 22.318125 
" style="fill:none;stroke:#000000;stroke-linecap:square;stroke-linejoin:miter;stroke-width:0.8;"/>
   </g>
   <g id="patch_11">
    <path d="M 43.78125 288.430125 
L 400.90125 288.430125 
" style="fill:none;stroke:#000000;stroke-linecap:square;stroke-linejoin:miter;stroke-width:0.8;"/>
   </g>
   <g id="patch_12">
    <path d="M 43.78125 22.318125 
L 400.90125 22.318125 
" style="fill:none;stroke:#000000;stroke-linecap:square;stroke-linejoin:miter;stroke-width:0.8;"/>
   </g>
  </g>
 </g>
 <defs>
  <clipPath id="p6b599c849a">
   <rect height="266.112" width="357.12" x="43.78125" y="22.318125"/>
  </clipPath>
 </defs>
</svg>
