<?xml version="1.0" encoding="utf-8" standalone="no"?>
<!DOCTYPE svg PUBLIC "-//W3C//DTD SVG 1.1//EN"
  "http://www.w3.org/Graphics/SVG/1.1/DTD/svg11.dtd">
<!-- Created with matplotlib (https://matplotlib.org/) -->
<svg height="358.22505pt" version="1.1" viewBox="0 0 444.6825 358.22505" width="444.6825pt" xmlns="http://www.w3.org/2000/svg" xmlns:xlink="http://www.w3.org/1999/xlink">
 <defs>
  <style type="text/css">
*{stroke-linecap:butt;stroke-linejoin:round;}
  </style>
 </defs>
 <g id="figure_1">
  <g id="patch_1">
   <path d="M 0 358.22505 
L 444.6825 358.22505 
L 444.6825 0 
L 0 0 
z
" style="fill:#ffffff;"/>
  </g>
  <g id="axes_1">
   <g id="patch_2">
    <path d="M 43.78125 288.430125 
L 400.90125 288.430125 
L 400.90125 22.318125 
L 43.78125 22.318125 
z
" style="fill:#ffffff;"/>
   </g>
   <g id="matplotlib.axis_1">
    <g id="xtick_1">
     <g id="line2d_1">
      <defs>
       <path d="M 0 0 
L 0 3.5 
" id="m4403bce4aa" style="stroke:#000000;stroke-width:0.8;"/>
      </defs>
      <g>
       <use style="stroke:#000000;stroke-width:0.8;" x="60.013977" xlink:href="#m4403bce4aa" y="288.430125"/>
      </g>
     </g>
     <g id="text_1">
      <!-- 0 -->
      <defs>
       <path d="M 31.78125 66.40625 
Q 24.171875 66.40625 20.328125 58.90625 
Q 16.5 51.421875 16.5 36.375 
Q 16.5 21.390625 20.328125 13.890625 
Q 24.171875 6.390625 31.78125 6.390625 
Q 39.453125 6.390625 43.28125 13.890625 
Q 47.125 21.390625 47.125 36.375 
Q 47.125 51.421875 43.28125 58.90625 
Q 39.453125 66.40625 31.78125 66.40625 
z
M 31.78125 74.21875 
Q 44.046875 74.21875 50.515625 64.515625 
Q 56.984375 54.828125 56.984375 36.375 
Q 56.984375 17.96875 50.515625 8.265625 
Q 44.046875 -1.421875 31.78125 -1.421875 
Q 19.53125 -1.421875 13.0625 8.265625 
Q 6.59375 17.96875 6.59375 36.375 
Q 6.59375 54.828125 13.0625 64.515625 
Q 19.53125 74.21875 31.78125 74.21875 
z
" id="DejaVuSans-48"/>
      </defs>
      <g transform="translate(56.832727 303.028562)scale(0.1 -0.1)">
       <use xlink:href="#DejaVuSans-48"/>
      </g>
     </g>
    </g>
    <g id="xtick_2">
     <g id="line2d_2">
      <g>
       <use style="stroke:#000000;stroke-width:0.8;" x="100.144329" xlink:href="#m4403bce4aa" y="288.430125"/>
      </g>
     </g>
     <g id="text_2">
      <!-- 100 -->
      <defs>
       <path d="M 12.40625 8.296875 
L 28.515625 8.296875 
L 28.515625 63.921875 
L 10.984375 60.40625 
L 10.984375 69.390625 
L 28.421875 72.90625 
L 38.28125 72.90625 
L 38.28125 8.296875 
L 54.390625 8.296875 
L 54.390625 0 
L 12.40625 0 
z
" id="DejaVuSans-49"/>
      </defs>
      <g transform="translate(90.600579 303.028562)scale(0.1 -0.1)">
       <use xlink:href="#DejaVuSans-49"/>
       <use x="63.623047" xlink:href="#DejaVuSans-48"/>
       <use x="127.246094" xlink:href="#DejaVuSans-48"/>
      </g>
     </g>
    </g>
    <g id="xtick_3">
     <g id="line2d_3">
      <g>
       <use style="stroke:#000000;stroke-width:0.8;" x="140.274681" xlink:href="#m4403bce4aa" y="288.430125"/>
      </g>
     </g>
     <g id="text_3">
      <!-- 200 -->
      <defs>
       <path d="M 19.1875 8.296875 
L 53.609375 8.296875 
L 53.609375 0 
L 7.328125 0 
L 7.328125 8.296875 
Q 12.9375 14.109375 22.625 23.890625 
Q 32.328125 33.6875 34.8125 36.53125 
Q 39.546875 41.84375 41.421875 45.53125 
Q 43.3125 49.21875 43.3125 52.78125 
Q 43.3125 58.59375 39.234375 62.25 
Q 35.15625 65.921875 28.609375 65.921875 
Q 23.96875 65.921875 18.8125 64.3125 
Q 13.671875 62.703125 7.8125 59.421875 
L 7.8125 69.390625 
Q 13.765625 71.78125 18.9375 73 
Q 24.125 74.21875 28.421875 74.21875 
Q 39.75 74.21875 46.484375 68.546875 
Q 53.21875 62.890625 53.21875 53.421875 
Q 53.21875 48.921875 51.53125 44.890625 
Q 49.859375 40.875 45.40625 35.40625 
Q 44.1875 33.984375 37.640625 27.21875 
Q 31.109375 20.453125 19.1875 8.296875 
z
" id="DejaVuSans-50"/>
      </defs>
      <g transform="translate(130.730931 303.028562)scale(0.1 -0.1)">
       <use xlink:href="#DejaVuSans-50"/>
       <use x="63.623047" xlink:href="#DejaVuSans-48"/>
       <use x="127.246094" xlink:href="#DejaVuSans-48"/>
      </g>
     </g>
    </g>
    <g id="xtick_4">
     <g id="line2d_4">
      <g>
       <use style="stroke:#000000;stroke-width:0.8;" x="180.405032" xlink:href="#m4403bce4aa" y="288.430125"/>
      </g>
     </g>
     <g id="text_4">
      <!-- 300 -->
      <defs>
       <path d="M 40.578125 39.3125 
Q 47.65625 37.796875 51.625 33 
Q 55.609375 28.21875 55.609375 21.1875 
Q 55.609375 10.40625 48.1875 4.484375 
Q 40.765625 -1.421875 27.09375 -1.421875 
Q 22.515625 -1.421875 17.65625 -0.515625 
Q 12.796875 0.390625 7.625 2.203125 
L 7.625 11.71875 
Q 11.71875 9.328125 16.59375 8.109375 
Q 21.484375 6.890625 26.8125 6.890625 
Q 36.078125 6.890625 40.9375 10.546875 
Q 45.796875 14.203125 45.796875 21.1875 
Q 45.796875 27.640625 41.28125 31.265625 
Q 36.765625 34.90625 28.71875 34.90625 
L 20.21875 34.90625 
L 20.21875 43.015625 
L 29.109375 43.015625 
Q 36.375 43.015625 40.234375 45.921875 
Q 44.09375 48.828125 44.09375 54.296875 
Q 44.09375 59.90625 40.109375 62.90625 
Q 36.140625 65.921875 28.71875 65.921875 
Q 24.65625 65.921875 20.015625 65.03125 
Q 15.375 64.15625 9.8125 62.3125 
L 9.8125 71.09375 
Q 15.4375 72.65625 20.34375 73.4375 
Q 25.25 74.21875 29.59375 74.21875 
Q 40.828125 74.21875 47.359375 69.109375 
Q 53.90625 64.015625 53.90625 55.328125 
Q 53.90625 49.265625 50.4375 45.09375 
Q 46.96875 40.921875 40.578125 39.3125 
z
" id="DejaVuSans-51"/>
      </defs>
      <g transform="translate(170.861282 303.028562)scale(0.1 -0.1)">
       <use xlink:href="#DejaVuSans-51"/>
       <use x="63.623047" xlink:href="#DejaVuSans-48"/>
       <use x="127.246094" xlink:href="#DejaVuSans-48"/>
      </g>
     </g>
    </g>
    <g id="xtick_5">
     <g id="line2d_5">
      <g>
       <use style="stroke:#000000;stroke-width:0.8;" x="220.535384" xlink:href="#m4403bce4aa" y="288.430125"/>
      </g>
     </g>
     <g id="text_5">
      <!-- 400 -->
      <defs>
       <path d="M 37.796875 64.3125 
L 12.890625 25.390625 
L 37.796875 25.390625 
z
M 35.203125 72.90625 
L 47.609375 72.90625 
L 47.609375 25.390625 
L 58.015625 25.390625 
L 58.015625 17.1875 
L 47.609375 17.1875 
L 47.609375 0 
L 37.796875 0 
L 37.796875 17.1875 
L 4.890625 17.1875 
L 4.890625 26.703125 
z
" id="DejaVuSans-52"/>
      </defs>
      <g transform="translate(210.991634 303.028562)scale(0.1 -0.1)">
       <use xlink:href="#DejaVuSans-52"/>
       <use x="63.623047" xlink:href="#DejaVuSans-48"/>
       <use x="127.246094" xlink:href="#DejaVuSans-48"/>
      </g>
     </g>
    </g>
    <g id="xtick_6">
     <g id="line2d_6">
      <g>
       <use style="stroke:#000000;stroke-width:0.8;" x="260.665736" xlink:href="#m4403bce4aa" y="288.430125"/>
      </g>
     </g>
     <g id="text_6">
      <!-- 500 -->
      <defs>
       <path d="M 10.796875 72.90625 
L 49.515625 72.90625 
L 49.515625 64.59375 
L 19.828125 64.59375 
L 19.828125 46.734375 
Q 21.96875 47.46875 24.109375 47.828125 
Q 26.265625 48.1875 28.421875 48.1875 
Q 40.625 48.1875 47.75 41.5 
Q 54.890625 34.8125 54.890625 23.390625 
Q 54.890625 11.625 47.5625 5.09375 
Q 40.234375 -1.421875 26.90625 -1.421875 
Q 22.3125 -1.421875 17.546875 -0.640625 
Q 12.796875 0.140625 7.71875 1.703125 
L 7.71875 11.625 
Q 12.109375 9.234375 16.796875 8.0625 
Q 21.484375 6.890625 26.703125 6.890625 
Q 35.15625 6.890625 40.078125 11.328125 
Q 45.015625 15.765625 45.015625 23.390625 
Q 45.015625 31 40.078125 35.4375 
Q 35.15625 39.890625 26.703125 39.890625 
Q 22.75 39.890625 18.8125 39.015625 
Q 14.890625 38.140625 10.796875 36.28125 
z
" id="DejaVuSans-53"/>
      </defs>
      <g transform="translate(251.121986 303.028562)scale(0.1 -0.1)">
       <use xlink:href="#DejaVuSans-53"/>
       <use x="63.623047" xlink:href="#DejaVuSans-48"/>
       <use x="127.246094" xlink:href="#DejaVuSans-48"/>
      </g>
     </g>
    </g>
    <g id="xtick_7">
     <g id="line2d_7">
      <g>
       <use style="stroke:#000000;stroke-width:0.8;" x="300.796088" xlink:href="#m4403bce4aa" y="288.430125"/>
      </g>
     </g>
     <g id="text_7">
      <!-- 600 -->
      <defs>
       <path d="M 33.015625 40.375 
Q 26.375 40.375 22.484375 35.828125 
Q 18.609375 31.296875 18.609375 23.390625 
Q 18.609375 15.53125 22.484375 10.953125 
Q 26.375 6.390625 33.015625 6.390625 
Q 39.65625 6.390625 43.53125 10.953125 
Q 47.40625 15.53125 47.40625 23.390625 
Q 47.40625 31.296875 43.53125 35.828125 
Q 39.65625 40.375 33.015625 40.375 
z
M 52.59375 71.296875 
L 52.59375 62.3125 
Q 48.875 64.0625 45.09375 64.984375 
Q 41.3125 65.921875 37.59375 65.921875 
Q 27.828125 65.921875 22.671875 59.328125 
Q 17.53125 52.734375 16.796875 39.40625 
Q 19.671875 43.65625 24.015625 45.921875 
Q 28.375 48.1875 33.59375 48.1875 
Q 44.578125 48.1875 50.953125 41.515625 
Q 57.328125 34.859375 57.328125 23.390625 
Q 57.328125 12.15625 50.6875 5.359375 
Q 44.046875 -1.421875 33.015625 -1.421875 
Q 20.359375 -1.421875 13.671875 8.265625 
Q 6.984375 17.96875 6.984375 36.375 
Q 6.984375 53.65625 15.1875 63.9375 
Q 23.390625 74.21875 37.203125 74.21875 
Q 40.921875 74.21875 44.703125 73.484375 
Q 48.484375 72.75 52.59375 71.296875 
z
" id="DejaVuSans-54"/>
      </defs>
      <g transform="translate(291.252338 303.028562)scale(0.1 -0.1)">
       <use xlink:href="#DejaVuSans-54"/>
       <use x="63.623047" xlink:href="#DejaVuSans-48"/>
       <use x="127.246094" xlink:href="#DejaVuSans-48"/>
      </g>
     </g>
    </g>
    <g id="xtick_8">
     <g id="line2d_8">
      <g>
       <use style="stroke:#000000;stroke-width:0.8;" x="340.926439" xlink:href="#m4403bce4aa" y="288.430125"/>
      </g>
     </g>
     <g id="text_8">
      <!-- 700 -->
      <defs>
       <path d="M 8.203125 72.90625 
L 55.078125 72.90625 
L 55.078125 68.703125 
L 28.609375 0 
L 18.3125 0 
L 43.21875 64.59375 
L 8.203125 64.59375 
z
" id="DejaVuSans-55"/>
      </defs>
      <g transform="translate(331.382689 303.028562)scale(0.1 -0.1)">
       <use xlink:href="#DejaVuSans-55"/>
       <use x="63.623047" xlink:href="#DejaVuSans-48"/>
       <use x="127.246094" xlink:href="#DejaVuSans-48"/>
      </g>
     </g>
    </g>
    <g id="xtick_9">
     <g id="line2d_9">
      <g>
       <use style="stroke:#000000;stroke-width:0.8;" x="381.056791" xlink:href="#m4403bce4aa" y="288.430125"/>
      </g>
     </g>
     <g id="text_9">
      <!-- 800 -->
      <defs>
       <path d="M 31.78125 34.625 
Q 24.75 34.625 20.71875 30.859375 
Q 16.703125 27.09375 16.703125 20.515625 
Q 16.703125 13.921875 20.71875 10.15625 
Q 24.75 6.390625 31.78125 6.390625 
Q 38.8125 6.390625 42.859375 10.171875 
Q 46.921875 13.96875 46.921875 20.515625 
Q 46.921875 27.09375 42.890625 30.859375 
Q 38.875 34.625 31.78125 34.625 
z
M 21.921875 38.8125 
Q 15.578125 40.375 12.03125 44.71875 
Q 8.5 49.078125 8.5 55.328125 
Q 8.5 64.0625 14.71875 69.140625 
Q 20.953125 74.21875 31.78125 74.21875 
Q 42.671875 74.21875 48.875 69.140625 
Q 55.078125 64.0625 55.078125 55.328125 
Q 55.078125 49.078125 51.53125 44.71875 
Q 48 40.375 41.703125 38.8125 
Q 48.828125 37.15625 52.796875 32.3125 
Q 56.78125 27.484375 56.78125 20.515625 
Q 56.78125 9.90625 50.3125 4.234375 
Q 43.84375 -1.421875 31.78125 -1.421875 
Q 19.734375 -1.421875 13.25 4.234375 
Q 6.78125 9.90625 6.78125 20.515625 
Q 6.78125 27.484375 10.78125 32.3125 
Q 14.796875 37.15625 21.921875 38.8125 
z
M 18.3125 54.390625 
Q 18.3125 48.734375 21.84375 45.5625 
Q 25.390625 42.390625 31.78125 42.390625 
Q 38.140625 42.390625 41.71875 45.5625 
Q 45.3125 48.734375 45.3125 54.390625 
Q 45.3125 60.0625 41.71875 63.234375 
Q 38.140625 66.40625 31.78125 66.40625 
Q 25.390625 66.40625 21.84375 63.234375 
Q 18.3125 60.0625 18.3125 54.390625 
z
" id="DejaVuSans-56"/>
      </defs>
      <g transform="translate(371.513041 303.028562)scale(0.1 -0.1)">
       <use xlink:href="#DejaVuSans-56"/>
       <use x="63.623047" xlink:href="#DejaVuSans-48"/>
       <use x="127.246094" xlink:href="#DejaVuSans-48"/>
      </g>
     </g>
    </g>
    <g id="text_10">
     <!-- Epoch -->
     <defs>
      <path d="M 9.8125 72.90625 
L 55.90625 72.90625 
L 55.90625 64.59375 
L 19.671875 64.59375 
L 19.671875 43.015625 
L 54.390625 43.015625 
L 54.390625 34.71875 
L 19.671875 34.71875 
L 19.671875 8.296875 
L 56.78125 8.296875 
L 56.78125 0 
L 9.8125 0 
z
" id="DejaVuSans-69"/>
      <path d="M 18.109375 8.203125 
L 18.109375 -20.796875 
L 9.078125 -20.796875 
L 9.078125 54.6875 
L 18.109375 54.6875 
L 18.109375 46.390625 
Q 20.953125 51.265625 25.265625 53.625 
Q 29.59375 56 35.59375 56 
Q 45.5625 56 51.78125 48.09375 
Q 58.015625 40.1875 58.015625 27.296875 
Q 58.015625 14.40625 51.78125 6.484375 
Q 45.5625 -1.421875 35.59375 -1.421875 
Q 29.59375 -1.421875 25.265625 0.953125 
Q 20.953125 3.328125 18.109375 8.203125 
z
M 48.6875 27.296875 
Q 48.6875 37.203125 44.609375 42.84375 
Q 40.53125 48.484375 33.40625 48.484375 
Q 26.265625 48.484375 22.1875 42.84375 
Q 18.109375 37.203125 18.109375 27.296875 
Q 18.109375 17.390625 22.1875 11.75 
Q 26.265625 6.109375 33.40625 6.109375 
Q 40.53125 6.109375 44.609375 11.75 
Q 48.6875 17.390625 48.6875 27.296875 
z
" id="DejaVuSans-112"/>
      <path d="M 30.609375 48.390625 
Q 23.390625 48.390625 19.1875 42.75 
Q 14.984375 37.109375 14.984375 27.296875 
Q 14.984375 17.484375 19.15625 11.84375 
Q 23.34375 6.203125 30.609375 6.203125 
Q 37.796875 6.203125 41.984375 11.859375 
Q 46.1875 17.53125 46.1875 27.296875 
Q 46.1875 37.015625 41.984375 42.703125 
Q 37.796875 48.390625 30.609375 48.390625 
z
M 30.609375 56 
Q 42.328125 56 49.015625 48.375 
Q 55.71875 40.765625 55.71875 27.296875 
Q 55.71875 13.875 49.015625 6.21875 
Q 42.328125 -1.421875 30.609375 -1.421875 
Q 18.84375 -1.421875 12.171875 6.21875 
Q 5.515625 13.875 5.515625 27.296875 
Q 5.515625 40.765625 12.171875 48.375 
Q 18.84375 56 30.609375 56 
z
" id="DejaVuSans-111"/>
      <path d="M 48.78125 52.59375 
L 48.78125 44.1875 
Q 44.96875 46.296875 41.140625 47.34375 
Q 37.3125 48.390625 33.40625 48.390625 
Q 24.65625 48.390625 19.8125 42.84375 
Q 14.984375 37.3125 14.984375 27.296875 
Q 14.984375 17.28125 19.8125 11.734375 
Q 24.65625 6.203125 33.40625 6.203125 
Q 37.3125 6.203125 41.140625 7.25 
Q 44.96875 8.296875 48.78125 10.40625 
L 48.78125 2.09375 
Q 45.015625 0.34375 40.984375 -0.53125 
Q 36.96875 -1.421875 32.421875 -1.421875 
Q 20.0625 -1.421875 12.78125 6.34375 
Q 5.515625 14.109375 5.515625 27.296875 
Q 5.515625 40.671875 12.859375 48.328125 
Q 20.21875 56 33.015625 56 
Q 37.15625 56 41.109375 55.140625 
Q 45.0625 54.296875 48.78125 52.59375 
z
" id="DejaVuSans-99"/>
      <path d="M 54.890625 33.015625 
L 54.890625 0 
L 45.90625 0 
L 45.90625 32.71875 
Q 45.90625 40.484375 42.875 44.328125 
Q 39.84375 48.1875 33.796875 48.1875 
Q 26.515625 48.1875 22.3125 43.546875 
Q 18.109375 38.921875 18.109375 30.90625 
L 18.109375 0 
L 9.078125 0 
L 9.078125 75.984375 
L 18.109375 75.984375 
L 18.109375 46.1875 
Q 21.34375 51.125 25.703125 53.5625 
Q 30.078125 56 35.796875 56 
Q 45.21875 56 50.046875 50.171875 
Q 54.890625 44.34375 54.890625 33.015625 
z
" id="DejaVuSans-104"/>
     </defs>
     <g transform="translate(207.030313 316.706687)scale(0.1 -0.1)">
      <use xlink:href="#DejaVuSans-69"/>
      <use x="63.183594" xlink:href="#DejaVuSans-112"/>
      <use x="126.660156" xlink:href="#DejaVuSans-111"/>
      <use x="187.841797" xlink:href="#DejaVuSans-99"/>
      <use x="242.822266" xlink:href="#DejaVuSans-104"/>
     </g>
    </g>
   </g>
   <g id="matplotlib.axis_2">
    <g id="ytick_1">
     <g id="line2d_10">
      <defs>
       <path d="M 0 0 
L -3.5 0 
" id="md0b68bed62" style="stroke:#000000;stroke-width:0.8;"/>
      </defs>
      <g>
       <use style="stroke:#000000;stroke-width:0.8;" x="43.78125" xlink:href="#md0b68bed62" y="276.334125"/>
      </g>
     </g>
     <g id="text_11">
      <!-- 0.0 -->
      <defs>
       <path d="M 10.6875 12.40625 
L 21 12.40625 
L 21 0 
L 10.6875 0 
z
" id="DejaVuSans-46"/>
      </defs>
      <g transform="translate(20.878125 280.133344)scale(0.1 -0.1)">
       <use xlink:href="#DejaVuSans-48"/>
       <use x="63.623047" xlink:href="#DejaVuSans-46"/>
       <use x="95.410156" xlink:href="#DejaVuSans-48"/>
      </g>
     </g>
    </g>
    <g id="ytick_2">
     <g id="line2d_11">
      <g>
       <use style="stroke:#000000;stroke-width:0.8;" x="43.78125" xlink:href="#md0b68bed62" y="227.950125"/>
      </g>
     </g>
     <g id="text_12">
      <!-- 0.2 -->
      <g transform="translate(20.878125 231.749344)scale(0.1 -0.1)">
       <use xlink:href="#DejaVuSans-48"/>
       <use x="63.623047" xlink:href="#DejaVuSans-46"/>
       <use x="95.410156" xlink:href="#DejaVuSans-50"/>
      </g>
     </g>
    </g>
    <g id="ytick_3">
     <g id="line2d_12">
      <g>
       <use style="stroke:#000000;stroke-width:0.8;" x="43.78125" xlink:href="#md0b68bed62" y="179.566125"/>
      </g>
     </g>
     <g id="text_13">
      <!-- 0.4 -->
      <g transform="translate(20.878125 183.365344)scale(0.1 -0.1)">
       <use xlink:href="#DejaVuSans-48"/>
       <use x="63.623047" xlink:href="#DejaVuSans-46"/>
       <use x="95.410156" xlink:href="#DejaVuSans-52"/>
      </g>
     </g>
    </g>
    <g id="ytick_4">
     <g id="line2d_13">
      <g>
       <use style="stroke:#000000;stroke-width:0.8;" x="43.78125" xlink:href="#md0b68bed62" y="131.182125"/>
      </g>
     </g>
     <g id="text_14">
      <!-- 0.6 -->
      <g transform="translate(20.878125 134.981344)scale(0.1 -0.1)">
       <use xlink:href="#DejaVuSans-48"/>
       <use x="63.623047" xlink:href="#DejaVuSans-46"/>
       <use x="95.410156" xlink:href="#DejaVuSans-54"/>
      </g>
     </g>
    </g>
    <g id="ytick_5">
     <g id="line2d_14">
      <g>
       <use style="stroke:#000000;stroke-width:0.8;" x="43.78125" xlink:href="#md0b68bed62" y="82.798125"/>
      </g>
     </g>
     <g id="text_15">
      <!-- 0.8 -->
      <g transform="translate(20.878125 86.597344)scale(0.1 -0.1)">
       <use xlink:href="#DejaVuSans-48"/>
       <use x="63.623047" xlink:href="#DejaVuSans-46"/>
       <use x="95.410156" xlink:href="#DejaVuSans-56"/>
      </g>
     </g>
    </g>
    <g id="ytick_6">
     <g id="line2d_15">
      <g>
       <use style="stroke:#000000;stroke-width:0.8;" x="43.78125" xlink:href="#md0b68bed62" y="34.414125"/>
      </g>
     </g>
     <g id="text_16">
      <!-- 1.0 -->
      <g transform="translate(20.878125 38.213344)scale(0.1 -0.1)">
       <use xlink:href="#DejaVuSans-49"/>
       <use x="63.623047" xlink:href="#DejaVuSans-46"/>
       <use x="95.410156" xlink:href="#DejaVuSans-48"/>
      </g>
     </g>
    </g>
    <g id="text_17">
     <!-- Loss -->
     <defs>
      <path d="M 9.8125 72.90625 
L 19.671875 72.90625 
L 19.671875 8.296875 
L 55.171875 8.296875 
L 55.171875 0 
L 9.8125 0 
z
" id="DejaVuSans-76"/>
      <path d="M 44.28125 53.078125 
L 44.28125 44.578125 
Q 40.484375 46.53125 36.375 47.5 
Q 32.28125 48.484375 27.875 48.484375 
Q 21.1875 48.484375 17.84375 46.4375 
Q 14.5 44.390625 14.5 40.28125 
Q 14.5 37.15625 16.890625 35.375 
Q 19.28125 33.59375 26.515625 31.984375 
L 29.59375 31.296875 
Q 39.15625 29.25 43.1875 25.515625 
Q 47.21875 21.78125 47.21875 15.09375 
Q 47.21875 7.46875 41.1875 3.015625 
Q 35.15625 -1.421875 24.609375 -1.421875 
Q 20.21875 -1.421875 15.453125 -0.5625 
Q 10.6875 0.296875 5.421875 2 
L 5.421875 11.28125 
Q 10.40625 8.6875 15.234375 7.390625 
Q 20.0625 6.109375 24.8125 6.109375 
Q 31.15625 6.109375 34.5625 8.28125 
Q 37.984375 10.453125 37.984375 14.40625 
Q 37.984375 18.0625 35.515625 20.015625 
Q 33.0625 21.96875 24.703125 23.78125 
L 21.578125 24.515625 
Q 13.234375 26.265625 9.515625 29.90625 
Q 5.8125 33.546875 5.8125 39.890625 
Q 5.8125 47.609375 11.28125 51.796875 
Q 16.75 56 26.8125 56 
Q 31.78125 56 36.171875 55.265625 
Q 40.578125 54.546875 44.28125 53.078125 
z
" id="DejaVuSans-115"/>
     </defs>
     <g transform="translate(14.798438 166.428031)rotate(-90)scale(0.1 -0.1)">
      <use xlink:href="#DejaVuSans-76"/>
      <use x="55.697266" xlink:href="#DejaVuSans-111"/>
      <use x="116.878906" xlink:href="#DejaVuSans-115"/>
      <use x="168.978516" xlink:href="#DejaVuSans-115"/>
     </g>
    </g>
   </g>
   <g id="line2d_16">
    <path clip-path="url(#p20761d92c6)" d="M 60.013977 200.65115 
L 60.415281 236.213746 
L 60.816584 241.476724 
L 61.217888 185.646781 
L 61.619191 190.842678 
L 62.020495 170.226907 
L 62.421798 187.726943 
L 62.823102 137.575859 
L 63.224405 34.414125 
L 63.625709 200.294455 
L 64.428316 51.833691 
L 64.829619 202.656838 
L 65.230923 202.775204 
L 65.632227 163.060432 
L 66.03353 195.838578 
L 66.434834 211.922637 
L 66.836137 151.056619 
L 67.638744 94.980318 
L 68.040048 185.983527 
L 68.441351 212.599511 
L 68.842655 187.933581 
L 69.243958 201.840046 
L 69.645262 183.491932 
L 70.046565 206.646256 
L 70.447869 120.024648 
L 70.849172 192.016506 
L 71.250476 221.608443 
L 72.053083 159.054547 
L 72.454386 189.581643 
L 72.85569 204.976935 
L 73.256993 162.259842 
L 73.658297 221.133568 
L 74.0596 249.277853 
L 74.460904 190.086604 
L 74.862207 221.564227 
L 75.263511 233.172992 
L 75.664814 183.991942 
L 76.467421 228.035357 
L 76.868725 190.861805 
L 77.270029 236.728387 
L 77.671332 252.826275 
L 78.072636 178.933003 
L 78.473939 193.977689 
L 78.875243 200.349026 
L 79.276546 176.065 
L 80.079153 230.2495 
L 80.480457 185.467509 
L 80.88176 217.447666 
L 81.283064 221.946602 
L 81.684367 169.631471 
L 82.085671 189.454233 
L 82.486974 189.894588 
L 82.888278 161.964345 
L 83.289581 211.896565 
L 83.690885 230.438029 
L 84.092188 178.121659 
L 84.493492 225.213207 
L 84.894795 234.84288 
L 85.296099 175.140075 
L 85.697402 182.939283 
L 86.098706 164.473723 
L 86.500009 248.07104 
L 86.901313 276.334125 
L 87.70392 173.881653 
L 88.105223 174.291428 
L 88.506527 182.572294 
L 88.907831 195.440969 
L 89.309134 222.59489 
L 89.710438 219.920336 
L 90.111741 191.247966 
L 90.513045 206.763219 
L 90.914348 206.209233 
L 91.315652 185.10933 
L 91.716955 157.894426 
L 92.118259 156.399422 
L 92.519562 182.538635 
L 92.920866 222.438898 
L 93.322169 221.738847 
L 93.723473 172.609807 
L 94.124776 186.927666 
L 94.52608 169.409786 
L 95.328687 196.427603 
L 95.72999 205.204923 
L 96.131294 174.232391 
L 96.532597 177.754368 
L 96.933901 179.190606 
L 97.335204 171.499504 
L 97.736508 178.520003 
L 98.137811 175.854773 
L 98.539115 98.716602 
L 98.940418 150.022481 
L 99.341722 182.118496 
L 99.743025 180.63918 
L 100.144329 188.49856 
L 100.545633 185.595149 
L 100.946936 172.23086 
L 101.34824 162.964015 
L 101.749543 163.58706 
L 102.55215 204.802641 
L 102.953454 199.309995 
L 103.354757 168.310692 
L 103.756061 188.663619 
L 104.157364 192.581959 
L 104.558668 173.578582 
L 104.959971 180.516681 
L 105.361275 159.284848 
L 105.762578 167.763369 
L 106.163882 162.605483 
L 106.565185 145.665698 
L 106.966489 149.144363 
L 107.367792 182.692626 
L 107.769096 189.795035 
L 108.170399 167.449843 
L 108.973006 152.891942 
L 109.37431 172.909805 
L 109.775613 168.770725 
L 110.176917 160.312556 
L 110.57822 146.417091 
L 110.979524 163.442584 
L 111.380827 174.573261 
L 112.183435 182.267241 
L 112.584738 177.052185 
L 112.986042 178.861756 
L 113.387345 189.730854 
L 113.788649 164.295361 
L 114.189952 181.415825 
L 114.591256 189.181311 
L 114.992559 189.878852 
L 115.393863 129.520907 
L 115.795166 143.288941 
L 116.19647 174.998882 
L 116.597773 168.731985 
L 116.999077 171.081951 
L 117.40038 164.949442 
L 117.801684 163.109133 
L 118.202987 156.886132 
L 118.604291 124.109842 
L 119.005594 167.891003 
L 119.406898 148.3952 
L 119.808201 171.702496 
L 120.610808 174.354454 
L 121.012112 170.505512 
L 121.814719 179.152649 
L 122.216022 181.78189 
L 122.617326 177.808332 
L 123.018629 181.136788 
L 123.419933 182.550391 
L 123.821237 177.416542 
L 124.22254 180.798267 
L 124.623844 182.414107 
L 125.025147 178.202909 
L 125.426451 171.191778 
L 125.827754 197.619837 
L 126.229058 172.537273 
L 126.630361 183.702308 
L 127.031665 178.157741 
L 127.432968 155.142485 
L 127.834272 156.637762 
L 128.235575 173.09443 
L 128.636879 169.968724 
L 129.038182 172.300029 
L 129.439486 128.015911 
L 129.840789 175.099782 
L 130.242093 179.651743 
L 130.643396 177.606882 
L 131.0447 157.935428 
L 131.446003 161.212682 
L 131.847307 159.883169 
L 132.24861 184.834822 
L 132.649914 189.573108 
L 133.051217 192.063087 
L 133.452521 171.168368 
L 133.853824 166.439509 
L 134.255128 171.47654 
L 134.656431 170.295904 
L 135.057735 151.927027 
L 135.459039 111.380499 
L 135.860342 173.545508 
L 136.261646 190.072815 
L 136.662949 185.336949 
L 137.064253 177.517709 
L 137.465556 177.414473 
L 137.86686 187.198566 
L 138.268163 176.801204 
L 138.669467 174.508947 
L 139.07077 175.226436 
L 139.873377 194.693849 
L 140.274681 195.388997 
L 140.675984 177.83793 
L 141.077288 188.985039 
L 141.478591 194.591616 
L 141.879895 170.755965 
L 142.281198 164.613591 
L 142.682502 146.864023 
L 143.083805 185.178037 
L 143.485109 190.951958 
L 144.287716 161.79007 
L 144.689019 152.788256 
L 145.090323 127.470393 
L 145.491626 176.238186 
L 145.89293 178.509194 
L 146.294233 176.409496 
L 146.695537 150.605046 
L 147.096841 166.473478 
L 147.498144 169.482086 
L 147.899448 170.620929 
L 148.300751 193.084832 
L 148.702055 204.641504 
L 149.103358 174.608997 
L 149.504662 174.87858 
L 149.905965 184.931276 
L 150.307269 171.505838 
L 150.708572 172.440592 
L 151.109876 172.394459 
L 151.511179 174.318872 
L 151.912483 188.665408 
L 152.313786 193.890647 
L 152.71509 132.244593 
L 153.116393 164.626149 
L 153.517697 138.872434 
L 153.919 172.829987 
L 154.320304 167.980569 
L 154.721607 181.903503 
L 155.122911 176.321824 
L 155.925518 188.566577 
L 156.326821 161.245186 
L 156.728125 165.455757 
L 157.129428 168.324637 
L 157.530732 180.18036 
L 157.932035 174.635802 
L 158.333339 178.881065 
L 158.734643 173.31704 
L 159.135946 180.696549 
L 159.53725 180.625818 
L 159.938553 170.123122 
L 160.339857 166.020006 
L 160.74116 170.852063 
L 161.142464 169.181011 
L 161.543767 171.373357 
L 161.945071 167.290168 
L 162.747678 189.497115 
L 163.148981 174.558044 
L 163.550285 168.578446 
L 163.951588 169.430594 
L 164.352892 145.711733 
L 164.754195 178.504138 
L 165.155499 179.500645 
L 165.556802 172.527891 
L 165.958106 171.616424 
L 166.359409 176.018298 
L 166.760713 173.220049 
L 167.162016 174.767373 
L 167.56332 177.96153 
L 167.964623 160.956882 
L 168.365927 169.953015 
L 168.76723 176.011169 
L 169.168534 152.190789 
L 169.569837 166.582726 
L 169.971141 172.745538 
L 170.372445 170.798539 
L 170.773748 184.25735 
L 171.175052 175.195434 
L 171.576355 183.708884 
L 171.977659 164.567612 
L 172.378962 153.994304 
L 172.780266 160.430314 
L 173.181569 155.154943 
L 173.984176 175.528866 
L 174.38548 173.638007 
L 174.786783 181.483786 
L 175.188087 180.794105 
L 175.58939 180.749217 
L 175.990694 191.554742 
L 176.391997 179.499362 
L 176.793301 174.225533 
L 177.194604 173.666347 
L 177.595908 167.801559 
L 177.997211 176.768708 
L 178.398515 173.980367 
L 179.201122 166.203872 
L 179.602425 171.681261 
L 180.003729 179.584278 
L 180.405032 175.328824 
L 180.806336 175.813078 
L 181.207639 170.939014 
L 181.608943 169.542673 
L 182.010247 169.388943 
L 182.41155 178.51174 
L 182.812854 173.469235 
L 183.214157 174.180027 
L 183.615461 178.988349 
L 184.016764 173.849727 
L 184.418068 173.42869 
L 184.819371 173.737111 
L 185.220675 176.263028 
L 185.621978 182.026746 
L 186.023282 175.75945 
L 186.424585 185.92165 
L 186.825889 175.455427 
L 187.227192 184.204654 
L 187.628496 176.11856 
L 188.431103 182.643749 
L 188.832406 175.784491 
L 189.23371 187.323817 
L 189.635013 186.493665 
L 190.036317 180.074978 
L 190.43762 188.481382 
L 191.240227 173.857255 
L 191.641531 175.84936 
L 192.042834 177.274973 
L 193.246745 191.316939 
L 193.648049 168.672004 
L 194.049352 168.314614 
L 194.450656 173.272703 
L 194.851959 166.973324 
L 195.654566 175.310764 
L 196.05587 174.693526 
L 196.457173 179.349821 
L 196.858477 182.522952 
L 197.25978 174.827282 
L 197.661084 178.616619 
L 198.062387 184.855648 
L 198.463691 177.647961 
L 198.864994 186.202268 
L 199.266298 187.134335 
L 199.667601 173.263118 
L 200.068905 177.675103 
L 200.470208 183.489786 
L 200.871512 162.05913 
L 201.272815 175.94702 
L 201.674119 173.552766 
L 202.476726 187.922231 
L 202.878029 190.697683 
L 203.279333 172.546109 
L 203.680636 169.240661 
L 204.08194 176.680123 
L 204.483243 177.396332 
L 204.884547 185.725338 
L 205.285851 184.955325 
L 205.687154 177.216147 
L 206.088458 184.985397 
L 206.489761 186.621099 
L 206.891065 176.520791 
L 207.292368 176.479001 
L 207.693672 174.407287 
L 208.094975 171.071725 
L 208.496279 162.390048 
L 208.897582 148.071014 
L 209.298886 176.496589 
L 210.101493 190.402285 
L 210.502796 177.130455 
L 211.305403 183.993194 
L 211.706707 175.384299 
L 212.10801 190.357595 
L 212.509314 199.067341 
L 212.910617 173.976727 
L 213.311921 175.940889 
L 213.713224 172.028161 
L 214.114528 170.987112 
L 214.515831 175.667771 
L 214.917135 168.44375 
L 215.719742 200.643729 
L 216.121045 195.806535 
L 216.522349 170.0998 
L 216.923653 176.357089 
L 217.324956 185.755672 
L 217.72626 174.746627 
L 218.127563 172.68093 
L 218.528867 172.921749 
L 218.93017 173.908584 
L 219.732777 174.550714 
L 220.134081 180.667445 
L 220.535384 181.115482 
L 220.936688 176.144773 
L 221.337991 174.329914 
L 221.739295 174.931714 
L 222.140598 173.092741 
L 222.541902 176.115034 
L 222.943205 176.505796 
L 223.344509 175.14625 
L 223.745812 175.437028 
L 224.147116 175.922644 
L 224.548419 170.197026 
L 224.949723 177.138874 
L 225.75233 196.003278 
L 226.153633 175.867532 
L 226.554937 171.890625 
L 226.95624 165.862209 
L 227.357544 174.315693 
L 227.758847 171.527796 
L 228.160151 182.716784 
L 228.561455 172.416404 
L 228.962758 174.559007 
L 229.364062 168.652298 
L 229.765365 174.090184 
L 230.166669 177.807378 
L 230.567972 180.418487 
L 230.969276 184.203451 
L 231.771883 199.5585 
L 232.173186 170.639306 
L 232.57449 168.962902 
L 232.975793 161.278264 
L 233.377097 172.383736 
L 233.7784 165.423752 
L 234.179704 161.790571 
L 234.581007 178.116464 
L 234.982311 176.681923 
L 235.383614 179.981635 
L 235.784918 178.560821 
L 236.186221 170.774155 
L 236.988828 175.071531 
L 237.791435 182.699355 
L 238.192739 176.719659 
L 238.594042 184.93157 
L 239.396649 177.353832 
L 239.797953 180.703883 
L 240.199257 187.454751 
L 240.60056 179.81183 
L 241.001864 156.003812 
L 241.403167 175.478354 
L 241.804471 174.459722 
L 242.205774 172.210305 
L 242.607078 174.77311 
L 243.008381 176.509028 
L 243.409685 186.371204 
L 243.810988 185.477111 
L 244.212292 179.226286 
L 244.613595 182.356354 
L 245.014899 181.884963 
L 245.416202 175.141388 
L 245.817506 175.23787 
L 246.218809 183.413236 
L 246.620113 170.680681 
L 247.021416 172.013016 
L 247.42272 170.909401 
L 247.824023 174.539152 
L 248.225327 175.888138 
L 248.62663 177.653342 
L 249.027934 181.058067 
L 249.429237 178.804615 
L 249.830541 179.21041 
L 250.231844 175.665523 
L 251.034451 177.946917 
L 251.435755 175.371449 
L 251.837059 169.071609 
L 252.238362 172.197369 
L 253.040969 194.555538 
L 253.442273 192.888411 
L 253.843576 174.373799 
L 254.24488 178.905342 
L 254.646183 177.404557 
L 255.047487 176.970913 
L 255.44879 177.441425 
L 255.850094 178.107103 
L 256.251397 173.841742 
L 257.054004 186.506412 
L 257.455308 176.351481 
L 257.856611 178.151316 
L 258.257915 186.977556 
L 258.659218 173.795546 
L 259.461825 187.348104 
L 259.863129 175.311958 
L 260.264432 171.553132 
L 260.665736 165.689081 
L 261.067039 178.075321 
L 261.869646 189.633509 
L 262.27095 175.401164 
L 262.672253 176.813401 
L 263.073557 175.075141 
L 263.474861 174.319144 
L 263.876164 179.585409 
L 264.277468 176.027864 
L 264.678771 178.44404 
L 265.080075 186.587331 
L 265.481378 181.486417 
L 265.882682 173.48257 
L 266.283985 173.25399 
L 266.685289 172.553037 
L 267.086592 173.947212 
L 267.487896 173.019449 
L 267.889199 173.771878 
L 268.290503 170.82068 
L 269.09311 175.089367 
L 269.494413 174.991951 
L 269.895717 179.467474 
L 270.29702 181.532069 
L 270.698324 175.83375 
L 271.099627 182.610971 
L 271.500931 182.956262 
L 271.902234 174.179248 
L 272.704841 176.811157 
L 273.106145 175.603031 
L 273.908752 180.367135 
L 274.310055 174.081341 
L 274.711359 174.006449 
L 275.112663 170.475797 
L 275.513966 174.761945 
L 275.91527 176.295209 
L 276.316573 177.026922 
L 276.717877 177.338023 
L 277.11918 186.055124 
L 277.520484 190.729857 
L 277.921787 177.404716 
L 278.323091 181.006939 
L 278.724394 181.314842 
L 279.125698 175.13851 
L 279.527001 174.891628 
L 279.928305 171.917073 
L 280.329608 173.56867 
L 281.132215 175.606065 
L 281.533519 175.307089 
L 281.934822 175.556109 
L 282.336126 175.61331 
L 282.737429 176.436918 
L 283.540036 182.498011 
L 283.94134 177.968279 
L 284.342643 167.234283 
L 284.743947 160.310562 
L 285.14525 174.659198 
L 285.546554 175.202994 
L 285.947857 177.764384 
L 286.349161 165.795965 
L 286.750465 169.600382 
L 287.151768 169.981541 
L 287.553072 177.814162 
L 287.954375 175.718909 
L 288.355679 181.362621 
L 288.756982 171.234231 
L 289.158286 170.481991 
L 289.559589 168.903607 
L 289.960893 175.415695 
L 290.362196 174.742744 
L 290.7635 172.579297 
L 291.164803 171.552614 
L 291.566107 169.870697 
L 291.96741 169.645256 
L 292.368714 177.003117 
L 292.770017 180.431731 
L 293.171321 181.806216 
L 293.572624 174.940527 
L 293.973928 177.071507 
L 294.375231 181.767163 
L 294.776535 179.265183 
L 295.177838 188.641917 
L 295.579142 192.265035 
L 295.980445 174.69013 
L 296.381749 176.816654 
L 296.783052 181.179852 
L 297.184356 167.986548 
L 297.585659 171.853167 
L 297.986963 172.665604 
L 298.388267 174.985081 
L 299.190874 181.189959 
L 299.592177 173.181917 
L 299.993481 175.830636 
L 300.394784 173.990325 
L 300.796088 174.880399 
L 301.197391 173.940163 
L 301.598695 174.158864 
L 301.999998 172.737665 
L 302.401302 175.767248 
L 302.802605 170.858968 
L 303.203909 174.190619 
L 303.605212 181.15891 
L 304.006516 172.27085 
L 304.809123 178.968873 
L 305.210426 178.760871 
L 305.61173 175.867696 
L 306.013033 178.43667 
L 306.414337 182.16894 
L 306.81564 179.667491 
L 307.216944 188.487235 
L 307.618247 191.903191 
L 308.019551 175.563094 
L 308.822158 193.353743 
L 309.223461 172.461078 
L 309.624765 162.828114 
L 310.026069 163.100233 
L 310.427372 174.961111 
L 310.828676 174.8626 
L 311.229979 175.143992 
L 311.631283 175.220664 
L 312.032586 181.115088 
L 312.43389 183.606182 
L 312.835193 174.574604 
L 313.6378 185.404766 
L 314.039104 176.835439 
L 314.440407 178.106478 
L 315.243014 176.231323 
L 315.644318 176.055126 
L 316.045621 176.024219 
L 316.446925 175.380833 
L 316.848228 175.715884 
L 317.249532 177.880542 
L 317.650835 175.135318 
L 318.052139 185.1998 
L 318.453442 176.741615 
L 318.854746 175.679418 
L 319.256049 178.105405 
L 319.657353 179.392418 
L 320.058656 172.253602 
L 320.45996 175.740047 
L 320.861263 175.681167 
L 321.262567 171.994402 
L 321.663871 171.672968 
L 322.466478 174.778091 
L 322.867781 176.524049 
L 323.269085 177.755692 
L 324.071692 170.348594 
L 324.472995 170.357566 
L 325.275602 180.742636 
L 325.676906 184.119753 
L 326.078209 178.656011 
L 326.479513 184.640898 
L 326.880816 186.227618 
L 327.28212 175.816763 
L 327.683423 180.815088 
L 328.084727 183.801603 
L 328.48603 179.572235 
L 328.887334 185.959768 
L 329.288637 184.431495 
L 329.689941 175.532194 
L 330.091244 175.364938 
L 330.492548 172.14926 
L 330.893851 177.711705 
L 331.295155 178.900606 
L 331.696458 180.826642 
L 332.097762 176.170164 
L 332.499065 177.611356 
L 332.900369 180.02114 
L 333.301673 174.196361 
L 333.702976 178.304088 
L 334.10428 179.915772 
L 334.505583 174.394121 
L 334.906887 176.197147 
L 335.30819 171.452326 
L 335.709494 176.347999 
L 336.110797 174.532314 
L 336.512101 174.475193 
L 336.913404 176.792158 
L 337.716011 183.404859 
L 338.117315 174.899074 
L 338.919922 177.82051 
L 339.321225 176.477951 
L 339.722529 185.829119 
L 340.123832 187.715173 
L 340.525136 170.202336 
L 340.926439 167.57005 
L 341.327743 177.414053 
L 341.729046 170.529209 
L 342.13035 172.526254 
L 342.531653 175.20528 
L 342.932957 176.857022 
L 343.33426 180.352497 
L 343.735564 182.688147 
L 344.136867 174.644459 
L 344.538171 175.237563 
L 344.939475 176.287538 
L 345.340778 176.482791 
L 346.143385 181.637027 
L 346.544689 180.345099 
L 346.945992 184.531494 
L 347.347296 181.72537 
L 347.748599 174.236783 
L 348.149903 163.693664 
L 348.551206 172.749969 
L 348.95251 175.757299 
L 349.353813 185.814044 
L 349.755117 189.674758 
L 350.15642 176.252974 
L 350.959027 185.048313 
L 351.360331 176.327733 
L 351.761634 179.206809 
L 352.162938 181.094666 
L 352.564241 175.531182 
L 352.965545 176.003114 
L 353.366848 176.166116 
L 353.768152 174.71388 
L 354.169455 176.540982 
L 354.570759 176.942145 
L 354.972062 174.226797 
L 355.774669 176.876224 
L 356.175973 192.148567 
L 356.577277 184.781916 
L 356.97858 181.585283 
L 357.379884 175.11425 
L 357.781187 175.004101 
L 358.182491 175.079866 
L 358.583794 174.913631 
L 359.386401 178.119514 
L 359.787705 175.2327 
L 360.189008 175.318856 
L 360.590312 175.819342 
L 360.991615 174.710767 
L 361.392919 180.037772 
L 361.794222 181.320248 
L 362.195526 175.826333 
L 362.998133 179.42232 
L 363.399436 176.30452 
L 363.80074 180.059628 
L 364.202043 181.523394 
L 364.603347 178.295343 
L 365.00465 179.150102 
L 365.405954 185.400139 
L 365.807257 176.79018 
L 366.208561 179.484458 
L 366.609864 176.841728 
L 367.011168 175.295624 
L 367.412471 180.353894 
L 367.813775 180.260821 
L 368.215079 175.14861 
L 368.616382 176.985898 
L 369.017686 180.627965 
L 369.418989 177.132456 
L 370.221596 185.045165 
L 370.6229 172.037503 
L 371.024203 175.207136 
L 371.425507 177.346451 
L 371.82681 174.875651 
L 372.629417 175.705308 
L 373.030721 174.628531 
L 373.833328 175.846049 
L 374.234631 175.137498 
L 375.037238 175.858922 
L 375.438542 175.678611 
L 375.839845 175.965003 
L 376.241149 176.821596 
L 376.642452 174.48786 
L 377.043756 173.715507 
L 377.445059 173.204606 
L 377.846363 175.966927 
L 378.247666 182.78781 
L 378.64897 186.598751 
L 379.050273 174.480934 
L 379.451577 175.036111 
L 379.852881 172.754941 
L 380.254184 177.585409 
L 381.056791 179.082178 
L 381.458095 176.641681 
L 381.859398 178.570886 
L 382.260702 178.930902 
L 382.662005 175.994226 
L 383.464612 187.035985 
L 383.865916 173.596664 
L 384.267219 179.370045 
L 384.668523 183.132009 
L 384.668523 183.132009 
" style="fill:none;stroke:#1f77b4;stroke-linecap:square;stroke-width:1.5;"/>
   </g>
   <g id="line2d_17">
    <path clip-path="url(#p20761d92c6)" d="M 60.013977 34.414125 
L 60.816584 80.304614 
L 61.217888 143.390304 
L 62.020495 157.10635 
L 62.421798 199.312036 
L 63.224405 208.932699 
L 63.625709 227.702647 
L 64.428316 231.755642 
L 64.829619 237.255523 
L 65.632227 238.835452 
L 66.03353 235.967503 
L 66.836137 239.146902 
L 67.237441 246.75239 
L 68.040048 248.884595 
L 68.441351 260.84133 
L 69.243958 261.096209 
L 69.645262 252.133227 
L 70.447869 252.290582 
L 70.849172 257.558201 
L 71.651779 257.54651 
L 72.053083 255.853938 
L 72.85569 256.205453 
L 73.256993 258.041316 
L 73.658297 258.492042 
L 74.0596 258.633586 
L 74.460904 258.962888 
L 74.862207 260.040988 
L 75.263511 260.554354 
L 75.664814 262.324717 
L 76.066118 262.923929 
L 76.467421 263.205946 
L 76.868725 262.00728 
L 77.270029 263.760503 
L 77.671332 264.684487 
L 78.473939 265.716132 
L 78.875243 266.02541 
L 79.276546 263.362986 
L 79.67785 263.774516 
L 80.079153 263.976008 
L 80.480457 265.658011 
L 80.88176 266.25237 
L 81.283064 266.265017 
L 81.684367 263.699379 
L 82.486974 263.797903 
L 82.888278 261.537376 
L 83.289581 262.257367 
L 83.690885 262.669639 
L 84.092188 268.469325 
L 84.894795 268.656262 
L 85.296099 269.814997 
L 86.098706 269.994068 
L 86.500009 267.808227 
L 86.901313 268.594547 
L 87.302616 268.888773 
L 88.105223 269.910041 
L 88.506527 270.160391 
L 88.907831 274.133432 
L 89.309134 274.418087 
L 89.710438 274.491472 
L 90.111741 274.066113 
L 90.914348 274.096284 
L 91.315652 273.88165 
L 92.118259 273.963969 
L 92.519562 275.335577 
L 93.322169 275.267148 
L 93.723473 271.67049 
L 94.52608 271.922749 
L 94.927383 270.361636 
L 95.72999 270.881289 
L 96.532597 271.237111 
L 96.933901 271.376962 
L 97.335204 267.105337 
L 98.137811 267.463697 
L 98.539115 272.795072 
L 99.341722 272.922658 
L 99.743025 270.29436 
L 100.545633 270.448344 
L 100.946936 270.202105 
L 101.749543 270.630765 
L 102.150847 269.563387 
L 102.953454 269.944987 
L 103.354757 274.344234 
L 104.157364 274.414438 
L 104.558668 269.983116 
L 104.959971 270.209209 
L 105.361275 270.250376 
L 105.762578 273.206652 
L 106.565185 273.233092 
L 106.966489 272.98329 
L 107.769096 273.048351 
L 108.170399 275.485034 
L 108.973006 275.473438 
L 109.37431 269.635081 
L 110.176917 269.816621 
L 110.57822 270.22074 
L 110.979524 270.395339 
L 111.380827 270.43615 
L 111.782131 269.107789 
L 112.584738 269.391427 
L 112.986042 267.745923 
L 113.788649 268.14698 
L 114.189952 269.232801 
L 114.992559 269.425188 
L 115.393863 270.622813 
L 115.795166 270.55364 
L 116.19647 270.612995 
L 116.597773 267.305308 
L 117.40038 267.54026 
L 117.801684 270.532345 
L 118.604291 270.56433 
L 119.005594 268.576008 
L 119.808201 268.737457 
L 120.209505 271.004035 
L 120.610808 271.074396 
L 121.012112 271.02741 
L 121.413415 267.004449 
L 122.216022 267.298254 
L 122.617326 264.903016 
L 123.419933 265.164992 
L 123.821237 265.121477 
L 124.623844 265.729311 
L 125.025147 267.519486 
L 125.827754 267.669749 
L 126.229058 265.798331 
L 127.031665 265.928375 
L 127.432968 269.482457 
L 128.235575 269.651638 
L 128.636879 272.694885 
L 129.439486 272.907012 
L 129.840789 266.69067 
L 130.242093 266.912404 
L 130.643396 266.951033 
L 131.0447 270.36229 
L 131.847307 270.404042 
L 132.24861 270.936388 
L 133.051217 270.918995 
L 133.452521 272.197724 
L 134.255128 272.115157 
L 134.656431 276.047814 
L 135.459039 276.092832 
L 135.860342 268.158188 
L 136.662949 268.327977 
L 137.064253 273.098203 
L 137.86686 273.154517 
L 138.268163 268.479696 
L 139.07077 268.610853 
L 139.472074 275.341777 
L 140.274681 275.363706 
L 140.675984 269.389843 
L 141.478591 269.618372 
L 141.879895 269.198574 
L 142.682502 269.161307 
L 143.083805 269.910409 
L 143.886412 270.039941 
L 144.287716 268.758493 
L 145.090323 268.937296 
L 145.491626 267.614917 
L 146.294233 267.571504 
L 146.695537 272.012435 
L 147.498144 271.996388 
L 147.899448 274.533103 
L 148.702055 274.506181 
L 149.103358 271.954535 
L 149.905965 271.957569 
L 150.307269 270.700633 
L 151.109876 270.788906 
L 151.511179 270.604021 
L 152.313786 270.717754 
L 152.71509 269.899243 
L 153.116393 269.847988 
L 153.517697 269.911875 
L 153.919 271.621702 
L 154.721607 271.603223 
L 155.122911 273.277923 
L 155.925518 273.296884 
L 156.326821 274.25602 
L 157.129428 274.265205 
L 157.530732 269.075067 
L 158.333339 269.216401 
L 158.734643 272.596288 
L 159.53725 272.733637 
L 159.938553 268.970265 
L 160.74116 269.159905 
L 161.142464 268.202776 
L 161.945071 268.437452 
L 162.346374 267.723824 
L 163.148981 267.859221 
L 163.550285 271.144057 
L 165.155499 271.167787 
L 165.556802 271.227543 
L 165.958106 273.097889 
L 166.760713 273.109306 
L 167.162016 268.715734 
L 167.964623 268.849902 
L 168.365927 276.320469 
L 169.168534 276.334125 
L 169.569837 274.13348 
L 170.372445 274.123825 
L 170.773748 272.621764 
L 171.576355 272.665545 
L 171.977659 270.147537 
L 172.780266 270.241499 
L 173.181569 269.725555 
L 173.984176 269.862613 
L 174.38548 271.051222 
L 175.188087 271.149594 
L 175.58939 271.717465 
L 176.391997 271.800542 
L 176.793301 266.998834 
L 177.595908 267.26203 
L 177.997211 271.089997 
L 178.799818 271.23557 
L 179.201122 273.33898 
L 180.003729 273.382037 
L 180.405032 271.19384 
L 181.207639 271.238264 
L 182.010247 271.127802 
L 182.41155 271.129544 
L 182.812854 272.52428 
L 183.615461 272.586863 
L 184.016764 267.912425 
L 184.819371 268.031619 
L 185.220675 272.528359 
L 186.023282 272.558835 
L 186.424585 271.120995 
L 187.227192 271.16332 
L 187.628496 268.716483 
L 188.431103 268.739941 
L 188.832406 268.636226 
L 189.635013 268.683537 
L 190.036317 272.978679 
L 190.838924 273.02181 
L 191.240227 264.839013 
L 192.042834 265.049733 
L 192.444138 266.533056 
L 193.246745 266.625634 
L 193.648049 275.53253 
L 194.450656 275.541029 
L 194.851959 268.252103 
L 195.654566 268.311934 
L 196.05587 267.654231 
L 196.858477 267.719895 
L 197.25978 268.704057 
L 198.062387 268.781702 
L 198.463691 268.740921 
L 199.266298 268.864596 
L 199.667601 269.423593 
L 200.470208 269.455 
L 200.871512 275.229 
L 201.674119 275.252796 
L 202.075422 270.930963 
L 202.878029 271.064719 
L 203.279333 266.796139 
L 204.08194 266.915319 
L 204.483243 268.393492 
L 205.285851 268.500839 
L 205.687154 266.678511 
L 206.489761 266.829961 
L 206.891065 267.772735 
L 207.693672 267.88664 
L 208.094975 273.537381 
L 208.897582 273.586248 
L 209.298886 271.890914 
L 210.101493 271.921065 
L 210.502796 267.857073 
L 211.305403 267.94373 
L 211.706707 270.257927 
L 212.509314 270.288322 
L 212.910617 267.999759 
L 213.713224 268.080005 
L 214.114528 268.581448 
L 214.917135 268.645002 
L 215.318438 264.936548 
L 216.121045 264.978085 
L 216.522349 270.417231 
L 217.324956 270.464052 
L 217.72626 272.665389 
L 218.528867 272.757008 
L 218.93017 272.5902 
L 219.732777 272.6531 
L 220.134081 265.611799 
L 220.936688 265.793594 
L 221.337991 263.287122 
L 222.140598 263.502861 
L 222.541902 265.835017 
L 223.344509 265.996858 
L 223.745812 268.31655 
L 224.548419 268.352162 
L 224.949723 267.270327 
L 225.75233 267.3987 
L 226.153633 263.531194 
L 226.95624 263.603652 
L 227.357544 266.248951 
L 228.160151 266.668007 
L 228.561455 263.861902 
L 229.364062 264.060141 
L 229.765365 264.733468 
L 230.567972 264.810582 
L 230.969276 269.145911 
L 231.771883 269.168898 
L 232.173186 264.715567 
L 232.975793 264.746361 
L 233.377097 262.711426 
L 234.179704 262.942976 
L 234.581007 265.158763 
L 235.383614 265.335318 
L 235.784918 269.070905 
L 236.587525 269.138223 
L 236.988828 261.331649 
L 237.791435 261.601811 
L 238.192739 263.323566 
L 238.995346 263.382331 
L 239.396649 267.413077 
L 240.199257 267.571099 
L 240.60056 266.197205 
L 241.403167 266.262299 
L 241.804471 260.971752 
L 242.607078 261.199491 
L 243.008381 266.713388 
L 243.810988 266.850155 
L 244.212292 267.537133 
L 245.014899 267.657232 
L 245.416202 267.17041 
L 246.218809 267.267997 
L 246.620113 260.895249 
L 247.42272 261.040112 
L 247.824023 262.012673 
L 248.62663 262.234984 
L 249.027934 264.139709 
L 249.830541 264.310037 
L 250.231844 264.22547 
L 251.034451 264.275326 
L 251.435755 262.553381 
L 252.238362 262.716635 
L 252.639666 266.384345 
L 253.442273 266.436859 
L 253.843576 263.605608 
L 254.646183 263.768787 
L 255.047487 259.400305 
L 255.850094 259.70361 
L 256.251397 264.737129 
L 257.054004 264.902219 
L 257.455308 270.206277 
L 258.257915 270.325079 
L 258.659218 270.845455 
L 259.461825 270.933374 
L 259.863129 268.082324 
L 260.665736 268.188782 
L 261.067039 262.996694 
L 261.869646 263.178881 
L 262.27095 261.4574 
L 263.073557 261.504044 
L 263.474861 267.763017 
L 264.277468 267.767445 
L 264.678771 266.934959 
L 265.481378 266.963508 
L 265.882682 263.930361 
L 266.685289 264.11298 
L 267.086592 266.638105 
L 267.889199 266.733947 
L 268.290503 265.759015 
L 269.09311 265.88815 
L 269.494413 268.892977 
L 270.29702 268.927742 
L 270.698324 264.594804 
L 271.500931 264.61197 
L 271.902234 265.697479 
L 272.704841 265.815154 
L 273.106145 261.395652 
L 273.908752 261.511162 
L 274.310055 265.585752 
L 275.112663 265.624463 
L 275.513966 268.458968 
L 276.316573 268.508352 
L 276.717877 266.095544 
L 277.520484 266.20623 
L 277.921787 262.302818 
L 278.724394 262.593733 
L 279.125698 265.936048 
L 281.132215 266.300535 
L 281.533519 263.558234 
L 282.336126 263.642782 
L 282.737429 265.773282 
L 283.540036 265.941305 
L 283.94134 266.806989 
L 284.743947 266.798339 
L 285.14525 267.527236 
L 287.151768 267.858925 
L 287.553072 274.743294 
L 288.355679 274.775133 
L 288.756982 269.336346 
L 289.559589 269.433512 
L 289.960893 265.686004 
L 290.7635 265.808137 
L 291.164803 266.2584 
L 291.96741 266.350375 
L 292.368714 267.152593 
L 293.171321 267.280627 
L 293.572624 264.191628 
L 294.375231 264.336156 
L 294.776535 269.643407 
L 295.579142 269.618861 
L 295.980445 270.352525 
L 296.783052 270.399276 
L 297.184356 271.837425 
L 297.986963 271.850742 
L 298.388267 268.231537 
L 299.190874 268.308836 
L 299.592177 267.457539 
L 300.394784 267.490842 
L 300.796088 271.268967 
L 301.598695 271.29561 
L 301.999998 268.262997 
L 302.802605 268.292085 
L 303.203909 268.483415 
L 304.006516 268.554961 
L 304.407819 268.473161 
L 305.210426 268.523399 
L 305.61173 266.817948 
L 306.414337 266.896681 
L 306.81564 269.838907 
L 307.618247 269.860212 
L 308.019551 268.555146 
L 308.822158 268.604424 
L 309.223461 265.165775 
L 310.026069 265.30472 
L 310.427372 270.717287 
L 311.229979 270.725384 
L 311.631283 269.745305 
L 312.43389 269.800093 
L 312.835193 269.083065 
L 313.6378 269.148473 
L 314.039104 268.55962 
L 314.841711 268.566275 
L 315.243014 269.163859 
L 316.045621 269.191698 
L 316.446925 267.258993 
L 317.249532 267.304824 
L 317.650835 269.481878 
L 318.453442 269.529807 
L 318.854746 271.345369 
L 319.657353 271.40437 
L 320.058656 270.569006 
L 320.861263 270.643972 
L 321.262567 268.551644 
L 322.065174 268.571945 
L 322.466478 272.680942 
L 323.269085 272.717699 
L 323.670388 266.106847 
L 324.472995 266.166683 
L 324.874299 265.045234 
L 325.676906 265.126378 
L 326.078209 269.992866 
L 326.880816 270.036472 
L 327.28212 270.483603 
L 328.084727 270.532227 
L 328.48603 267.125761 
L 329.288637 267.186142 
L 329.689941 266.20866 
L 330.492548 266.273307 
L 330.893851 265.232758 
L 331.696458 265.373983 
L 332.097762 267.836406 
L 332.900369 267.991548 
L 333.301673 266.963049 
L 334.10428 267.060951 
L 334.505583 269.872742 
L 335.30819 269.874702 
L 335.709494 268.619234 
L 336.512101 268.624584 
L 336.913404 266.676889 
L 337.716011 266.755866 
L 338.117315 268.655512 
L 338.919922 268.705271 
L 339.321225 267.451383 
L 340.123832 267.544536 
L 340.525136 271.639489 
L 341.327743 271.654848 
L 341.729046 269.936317 
L 342.531653 269.97087 
L 342.932957 270.894145 
L 343.735564 270.916131 
L 344.136867 263.312497 
L 344.939475 263.341669 
L 345.340778 269.30226 
L 346.143385 269.297153 
L 346.544689 271.162109 
L 347.347296 271.198583 
L 347.748599 269.966204 
L 348.551206 269.980301 
L 348.95251 271.46516 
L 349.755117 271.492308 
L 350.15642 268.383524 
L 350.959027 268.461796 
L 351.360331 267.868386 
L 352.162938 267.912655 
L 352.564241 267.162979 
L 353.366848 267.191394 
L 353.768152 269.735878 
L 354.570759 269.793233 
L 354.972062 270.919928 
L 355.774669 270.921798 
L 356.175973 268.687066 
L 356.97858 268.786667 
L 357.379884 267.665987 
L 358.182491 267.689144 
L 358.583794 272.54402 
L 359.386401 272.54883 
L 359.787705 267.956186 
L 360.590312 268.060046 
L 360.991615 273.63668 
L 361.794222 273.621813 
L 362.195526 267.605909 
L 362.998133 267.676927 
L 363.399436 271.368969 
L 364.202043 271.423882 
L 364.603347 270.745871 
L 365.405954 270.752405 
L 365.807257 271.534525 
L 366.609864 271.593434 
L 367.011168 267.597583 
L 367.813775 267.64128 
L 368.215079 268.95246 
L 369.017686 269.043297 
L 369.418989 268.757373 
L 370.221596 268.822851 
L 370.6229 271.560916 
L 371.425507 271.567983 
L 371.82681 268.031596 
L 372.629417 268.048069 
L 373.030721 266.543892 
L 373.833328 266.622363 
L 374.234631 269.448453 
L 375.037238 269.462863 
L 375.438542 266.669048 
L 376.241149 266.799036 
L 376.642452 267.249141 
L 377.445059 267.300217 
L 377.846363 270.178318 
L 378.64897 270.203139 
L 379.050273 271.836691 
L 379.852881 271.859879 
L 380.254184 262.712679 
L 381.056791 262.773486 
L 381.458095 266.999264 
L 382.260702 267.020902 
L 382.662005 265.05588 
L 383.464612 265.129515 
L 383.865916 266.206279 
L 384.668523 266.267019 
L 384.668523 266.267019 
" style="fill:none;stroke:#ff7f0e;stroke-linecap:square;stroke-width:1.5;"/>
   </g>
   <g id="patch_3">
    <path d="M 43.78125 288.430125 
L 43.78125 22.318125 
" style="fill:none;stroke:#000000;stroke-linecap:square;stroke-linejoin:miter;stroke-width:0.8;"/>
   </g>
   <g id="patch_4">
    <path d="M 400.90125 288.430125 
L 400.90125 22.318125 
" style="fill:none;stroke:#000000;stroke-linecap:square;stroke-linejoin:miter;stroke-width:0.8;"/>
   </g>
   <g id="patch_5">
    <path d="M 43.78125 288.430125 
L 400.90125 288.430125 
" style="fill:none;stroke:#000000;stroke-linecap:square;stroke-linejoin:miter;stroke-width:0.8;"/>
   </g>
   <g id="patch_6">
    <path d="M 43.78125 22.318125 
L 400.90125 22.318125 
" style="fill:none;stroke:#000000;stroke-linecap:square;stroke-linejoin:miter;stroke-width:0.8;"/>
   </g>
   <g id="text_18">
    <!-- Entropy and Loss. -->
    <defs>
     <path d="M 9.1875 72.90625 
L 59.90625 72.90625 
L 59.90625 58.6875 
L 27.984375 58.6875 
L 27.984375 45.125 
L 58.015625 45.125 
L 58.015625 30.90625 
L 27.984375 30.90625 
L 27.984375 14.203125 
L 60.984375 14.203125 
L 60.984375 0 
L 9.1875 0 
z
" id="DejaVuSans-Bold-69"/>
     <path d="M 63.375 33.296875 
L 63.375 0 
L 45.796875 0 
L 45.796875 5.421875 
L 45.796875 25.484375 
Q 45.796875 32.5625 45.484375 35.25 
Q 45.171875 37.9375 44.390625 39.203125 
Q 43.359375 40.921875 41.59375 41.875 
Q 39.84375 42.828125 37.59375 42.828125 
Q 32.125 42.828125 29 38.59375 
Q 25.875 34.375 25.875 26.90625 
L 25.875 0 
L 8.40625 0 
L 8.40625 54.6875 
L 25.875 54.6875 
L 25.875 46.6875 
Q 29.828125 51.46875 34.265625 53.734375 
Q 38.71875 56 44.09375 56 
Q 53.5625 56 58.46875 50.1875 
Q 63.375 44.390625 63.375 33.296875 
z
" id="DejaVuSans-Bold-110"/>
     <path d="M 27.484375 70.21875 
L 27.484375 54.6875 
L 45.515625 54.6875 
L 45.515625 42.1875 
L 27.484375 42.1875 
L 27.484375 19 
Q 27.484375 15.1875 29 13.84375 
Q 30.515625 12.5 35.015625 12.5 
L 44 12.5 
L 44 0 
L 29 0 
Q 18.65625 0 14.328125 4.3125 
Q 10.015625 8.640625 10.015625 19 
L 10.015625 42.1875 
L 1.3125 42.1875 
L 1.3125 54.6875 
L 10.015625 54.6875 
L 10.015625 70.21875 
z
" id="DejaVuSans-Bold-116"/>
     <path d="M 49.03125 39.796875 
Q 46.734375 40.875 44.453125 41.375 
Q 42.1875 41.890625 39.890625 41.890625 
Q 33.15625 41.890625 29.515625 37.5625 
Q 25.875 33.25 25.875 25.203125 
L 25.875 0 
L 8.40625 0 
L 8.40625 54.6875 
L 25.875 54.6875 
L 25.875 45.703125 
Q 29.25 51.078125 33.609375 53.53125 
Q 37.984375 56 44.09375 56 
Q 44.96875 56 45.984375 55.921875 
Q 47.015625 55.859375 48.96875 55.609375 
z
" id="DejaVuSans-Bold-114"/>
     <path d="M 34.421875 43.5 
Q 28.609375 43.5 25.5625 39.328125 
Q 22.515625 35.15625 22.515625 27.296875 
Q 22.515625 19.4375 25.5625 15.25 
Q 28.609375 11.078125 34.421875 11.078125 
Q 40.140625 11.078125 43.15625 15.25 
Q 46.1875 19.4375 46.1875 27.296875 
Q 46.1875 35.15625 43.15625 39.328125 
Q 40.140625 43.5 34.421875 43.5 
z
M 34.421875 56 
Q 48.53125 56 56.46875 48.375 
Q 64.40625 40.765625 64.40625 27.296875 
Q 64.40625 13.8125 56.46875 6.1875 
Q 48.53125 -1.421875 34.421875 -1.421875 
Q 20.265625 -1.421875 12.28125 6.1875 
Q 4.296875 13.8125 4.296875 27.296875 
Q 4.296875 40.765625 12.28125 48.375 
Q 20.265625 56 34.421875 56 
z
" id="DejaVuSans-Bold-111"/>
     <path d="M 25.875 7.90625 
L 25.875 -20.796875 
L 8.40625 -20.796875 
L 8.40625 54.6875 
L 25.875 54.6875 
L 25.875 46.6875 
Q 29.5 51.46875 33.890625 53.734375 
Q 38.28125 56 44 56 
Q 54.109375 56 60.59375 47.96875 
Q 67.09375 39.9375 67.09375 27.296875 
Q 67.09375 14.65625 60.59375 6.609375 
Q 54.109375 -1.421875 44 -1.421875 
Q 38.28125 -1.421875 33.890625 0.84375 
Q 29.5 3.125 25.875 7.90625 
z
M 37.5 43.3125 
Q 31.890625 43.3125 28.875 39.1875 
Q 25.875 35.0625 25.875 27.296875 
Q 25.875 19.53125 28.875 15.40625 
Q 31.890625 11.28125 37.5 11.28125 
Q 43.109375 11.28125 46.0625 15.375 
Q 49.03125 19.484375 49.03125 27.296875 
Q 49.03125 35.109375 46.0625 39.203125 
Q 43.109375 43.3125 37.5 43.3125 
z
" id="DejaVuSans-Bold-112"/>
     <path d="M 1.21875 54.6875 
L 18.703125 54.6875 
L 33.40625 17.578125 
L 45.90625 54.6875 
L 63.375 54.6875 
L 40.375 -5.171875 
Q 36.921875 -14.3125 32.296875 -17.9375 
Q 27.6875 -21.578125 20.125 -21.578125 
L 10.015625 -21.578125 
L 10.015625 -10.109375 
L 15.484375 -10.109375 
Q 19.921875 -10.109375 21.9375 -8.6875 
Q 23.96875 -7.28125 25.09375 -3.609375 
L 25.59375 -2.09375 
z
" id="DejaVuSans-Bold-121"/>
     <path id="DejaVuSans-Bold-32"/>
     <path d="M 32.90625 24.609375 
Q 27.4375 24.609375 24.671875 22.75 
Q 21.921875 20.90625 21.921875 17.28125 
Q 21.921875 13.96875 24.140625 12.078125 
Q 26.375 10.203125 30.328125 10.203125 
Q 35.25 10.203125 38.625 13.734375 
Q 42 17.28125 42 22.609375 
L 42 24.609375 
z
M 59.625 31.203125 
L 59.625 0 
L 42 0 
L 42 8.109375 
Q 38.484375 3.125 34.078125 0.84375 
Q 29.6875 -1.421875 23.390625 -1.421875 
Q 14.890625 -1.421875 9.59375 3.53125 
Q 4.296875 8.5 4.296875 16.40625 
Q 4.296875 26.03125 10.90625 30.515625 
Q 17.53125 35.015625 31.6875 35.015625 
L 42 35.015625 
L 42 36.375 
Q 42 40.53125 38.71875 42.453125 
Q 35.453125 44.390625 28.515625 44.390625 
Q 22.90625 44.390625 18.0625 43.265625 
Q 13.234375 42.140625 9.078125 39.890625 
L 9.078125 53.21875 
Q 14.703125 54.59375 20.359375 55.296875 
Q 26.03125 56 31.6875 56 
Q 46.484375 56 53.046875 50.171875 
Q 59.625 44.34375 59.625 31.203125 
z
" id="DejaVuSans-Bold-97"/>
     <path d="M 45.609375 46.6875 
L 45.609375 75.984375 
L 63.1875 75.984375 
L 63.1875 0 
L 45.609375 0 
L 45.609375 7.90625 
Q 42 3.078125 37.640625 0.828125 
Q 33.296875 -1.421875 27.59375 -1.421875 
Q 17.484375 -1.421875 10.984375 6.609375 
Q 4.5 14.65625 4.5 27.296875 
Q 4.5 39.9375 10.984375 47.96875 
Q 17.484375 56 27.59375 56 
Q 33.25 56 37.625 53.734375 
Q 42 51.46875 45.609375 46.6875 
z
M 34.078125 11.28125 
Q 39.703125 11.28125 42.65625 15.375 
Q 45.609375 19.484375 45.609375 27.296875 
Q 45.609375 35.109375 42.65625 39.203125 
Q 39.703125 43.3125 34.078125 43.3125 
Q 28.515625 43.3125 25.5625 39.203125 
Q 22.609375 35.109375 22.609375 27.296875 
Q 22.609375 19.484375 25.5625 15.375 
Q 28.515625 11.28125 34.078125 11.28125 
z
" id="DejaVuSans-Bold-100"/>
     <path d="M 9.1875 72.90625 
L 27.984375 72.90625 
L 27.984375 14.203125 
L 60.984375 14.203125 
L 60.984375 0 
L 9.1875 0 
z
" id="DejaVuSans-Bold-76"/>
     <path d="M 51.125 52.984375 
L 51.125 39.703125 
Q 45.515625 42.046875 40.28125 43.21875 
Q 35.0625 44.390625 30.421875 44.390625 
Q 25.4375 44.390625 23.015625 43.140625 
Q 20.609375 41.890625 20.609375 39.3125 
Q 20.609375 37.203125 22.4375 36.078125 
Q 24.265625 34.96875 29 34.421875 
L 32.078125 33.984375 
Q 45.515625 32.28125 50.140625 28.375 
Q 54.78125 24.46875 54.78125 16.109375 
Q 54.78125 7.375 48.328125 2.96875 
Q 41.890625 -1.421875 29.109375 -1.421875 
Q 23.6875 -1.421875 17.890625 -0.5625 
Q 12.109375 0.296875 6 2 
L 6 15.28125 
Q 11.234375 12.75 16.71875 11.46875 
Q 22.21875 10.203125 27.875 10.203125 
Q 33.015625 10.203125 35.59375 11.609375 
Q 38.1875 13.03125 38.1875 15.828125 
Q 38.1875 18.171875 36.40625 19.3125 
Q 34.625 20.453125 29.296875 21.09375 
L 26.21875 21.484375 
Q 14.546875 22.953125 9.859375 26.90625 
Q 5.171875 30.859375 5.171875 38.921875 
Q 5.171875 47.609375 11.125 51.796875 
Q 17.09375 56 29.390625 56 
Q 34.234375 56 39.546875 55.265625 
Q 44.875 54.546875 51.125 52.984375 
z
" id="DejaVuSans-Bold-115"/>
     <path d="M 10.203125 18.890625 
L 27.78125 18.890625 
L 27.78125 0 
L 10.203125 0 
z
" id="DejaVuSans-Bold-46"/>
    </defs>
    <g transform="translate(161.657813 16.318125)scale(0.12 -0.12)">
     <use xlink:href="#DejaVuSans-Bold-69"/>
     <use x="68.310547" xlink:href="#DejaVuSans-Bold-110"/>
     <use x="139.501953" xlink:href="#DejaVuSans-Bold-116"/>
     <use x="187.304688" xlink:href="#DejaVuSans-Bold-114"/>
     <use x="236.621094" xlink:href="#DejaVuSans-Bold-111"/>
     <use x="305.322266" xlink:href="#DejaVuSans-Bold-112"/>
     <use x="376.904297" xlink:href="#DejaVuSans-Bold-121"/>
     <use x="442.089844" xlink:href="#DejaVuSans-Bold-32"/>
     <use x="476.904297" xlink:href="#DejaVuSans-Bold-97"/>
     <use x="544.384766" xlink:href="#DejaVuSans-Bold-110"/>
     <use x="615.576172" xlink:href="#DejaVuSans-Bold-100"/>
     <use x="687.158203" xlink:href="#DejaVuSans-Bold-32"/>
     <use x="721.972656" xlink:href="#DejaVuSans-Bold-76"/>
     <use x="785.693359" xlink:href="#DejaVuSans-Bold-111"/>
     <use x="854.394531" xlink:href="#DejaVuSans-Bold-115"/>
     <use x="913.916016" xlink:href="#DejaVuSans-Bold-115"/>
     <use x="973.4375" xlink:href="#DejaVuSans-Bold-46"/>
    </g>
   </g>
   <g id="legend_1">
    <g id="patch_7">
     <path d="M 20.061562 353.02505 
L 428.620938 353.02505 
Q 430.620938 353.02505 430.620938 351.02505 
L 430.620938 337.346925 
Q 430.620938 335.346925 428.620938 335.346925 
L 20.061562 335.346925 
Q 18.061562 335.346925 18.061562 337.346925 
L 18.061562 351.02505 
Q 18.061562 353.02505 20.061562 353.02505 
z
" style="fill:#4c4c4c;opacity:0.5;stroke:#4c4c4c;stroke-linejoin:miter;"/>
    </g>
    <g id="patch_8">
     <path d="M 18.061562 351.02505 
L 426.620938 351.02505 
Q 428.620938 351.02505 428.620938 349.02505 
L 428.620938 335.346925 
Q 428.620938 333.346925 426.620938 333.346925 
L 18.061562 333.346925 
Q 16.061562 333.346925 16.061562 335.346925 
L 16.061562 349.02505 
Q 16.061562 351.02505 18.061562 351.02505 
z
" style="fill:#ffffff;stroke:#cccccc;stroke-linejoin:miter;"/>
    </g>
    <g id="line2d_18">
     <path d="M 20.061562 341.445362 
L 40.061562 341.445362 
" style="fill:none;stroke:#1f77b4;stroke-linecap:square;stroke-width:1.5;"/>
    </g>
    <g id="line2d_19"/>
    <g id="text_19">
     <!-- Policy Loss (Normalized) -->
     <defs>
      <path d="M 19.671875 64.796875 
L 19.671875 37.40625 
L 32.078125 37.40625 
Q 38.96875 37.40625 42.71875 40.96875 
Q 46.484375 44.53125 46.484375 51.125 
Q 46.484375 57.671875 42.71875 61.234375 
Q 38.96875 64.796875 32.078125 64.796875 
z
M 9.8125 72.90625 
L 32.078125 72.90625 
Q 44.34375 72.90625 50.609375 67.359375 
Q 56.890625 61.8125 56.890625 51.125 
Q 56.890625 40.328125 50.609375 34.8125 
Q 44.34375 29.296875 32.078125 29.296875 
L 19.671875 29.296875 
L 19.671875 0 
L 9.8125 0 
z
" id="DejaVuSans-80"/>
      <path d="M 9.421875 75.984375 
L 18.40625 75.984375 
L 18.40625 0 
L 9.421875 0 
z
" id="DejaVuSans-108"/>
      <path d="M 9.421875 54.6875 
L 18.40625 54.6875 
L 18.40625 0 
L 9.421875 0 
z
M 9.421875 75.984375 
L 18.40625 75.984375 
L 18.40625 64.59375 
L 9.421875 64.59375 
z
" id="DejaVuSans-105"/>
      <path d="M 32.171875 -5.078125 
Q 28.375 -14.84375 24.75 -17.8125 
Q 21.140625 -20.796875 15.09375 -20.796875 
L 7.90625 -20.796875 
L 7.90625 -13.28125 
L 13.1875 -13.28125 
Q 16.890625 -13.28125 18.9375 -11.515625 
Q 21 -9.765625 23.484375 -3.21875 
L 25.09375 0.875 
L 2.984375 54.6875 
L 12.5 54.6875 
L 29.59375 11.921875 
L 46.6875 54.6875 
L 56.203125 54.6875 
z
" id="DejaVuSans-121"/>
      <path id="DejaVuSans-32"/>
      <path d="M 31 75.875 
Q 24.46875 64.65625 21.28125 53.65625 
Q 18.109375 42.671875 18.109375 31.390625 
Q 18.109375 20.125 21.3125 9.0625 
Q 24.515625 -2 31 -13.1875 
L 23.1875 -13.1875 
Q 15.875 -1.703125 12.234375 9.375 
Q 8.59375 20.453125 8.59375 31.390625 
Q 8.59375 42.28125 12.203125 53.3125 
Q 15.828125 64.359375 23.1875 75.875 
z
" id="DejaVuSans-40"/>
      <path d="M 9.8125 72.90625 
L 23.09375 72.90625 
L 55.421875 11.921875 
L 55.421875 72.90625 
L 64.984375 72.90625 
L 64.984375 0 
L 51.703125 0 
L 19.390625 60.984375 
L 19.390625 0 
L 9.8125 0 
z
" id="DejaVuSans-78"/>
      <path d="M 41.109375 46.296875 
Q 39.59375 47.171875 37.8125 47.578125 
Q 36.03125 48 33.890625 48 
Q 26.265625 48 22.1875 43.046875 
Q 18.109375 38.09375 18.109375 28.8125 
L 18.109375 0 
L 9.078125 0 
L 9.078125 54.6875 
L 18.109375 54.6875 
L 18.109375 46.1875 
Q 20.953125 51.171875 25.484375 53.578125 
Q 30.03125 56 36.53125 56 
Q 37.453125 56 38.578125 55.875 
Q 39.703125 55.765625 41.0625 55.515625 
z
" id="DejaVuSans-114"/>
      <path d="M 52 44.1875 
Q 55.375 50.25 60.0625 53.125 
Q 64.75 56 71.09375 56 
Q 79.640625 56 84.28125 50.015625 
Q 88.921875 44.046875 88.921875 33.015625 
L 88.921875 0 
L 79.890625 0 
L 79.890625 32.71875 
Q 79.890625 40.578125 77.09375 44.375 
Q 74.3125 48.1875 68.609375 48.1875 
Q 61.625 48.1875 57.5625 43.546875 
Q 53.515625 38.921875 53.515625 30.90625 
L 53.515625 0 
L 44.484375 0 
L 44.484375 32.71875 
Q 44.484375 40.625 41.703125 44.40625 
Q 38.921875 48.1875 33.109375 48.1875 
Q 26.21875 48.1875 22.15625 43.53125 
Q 18.109375 38.875 18.109375 30.90625 
L 18.109375 0 
L 9.078125 0 
L 9.078125 54.6875 
L 18.109375 54.6875 
L 18.109375 46.1875 
Q 21.1875 51.21875 25.484375 53.609375 
Q 29.78125 56 35.6875 56 
Q 41.65625 56 45.828125 52.96875 
Q 50 49.953125 52 44.1875 
z
" id="DejaVuSans-109"/>
      <path d="M 34.28125 27.484375 
Q 23.390625 27.484375 19.1875 25 
Q 14.984375 22.515625 14.984375 16.5 
Q 14.984375 11.71875 18.140625 8.90625 
Q 21.296875 6.109375 26.703125 6.109375 
Q 34.1875 6.109375 38.703125 11.40625 
Q 43.21875 16.703125 43.21875 25.484375 
L 43.21875 27.484375 
z
M 52.203125 31.203125 
L 52.203125 0 
L 43.21875 0 
L 43.21875 8.296875 
Q 40.140625 3.328125 35.546875 0.953125 
Q 30.953125 -1.421875 24.3125 -1.421875 
Q 15.921875 -1.421875 10.953125 3.296875 
Q 6 8.015625 6 15.921875 
Q 6 25.140625 12.171875 29.828125 
Q 18.359375 34.515625 30.609375 34.515625 
L 43.21875 34.515625 
L 43.21875 35.40625 
Q 43.21875 41.609375 39.140625 45 
Q 35.0625 48.390625 27.6875 48.390625 
Q 23 48.390625 18.546875 47.265625 
Q 14.109375 46.140625 10.015625 43.890625 
L 10.015625 52.203125 
Q 14.9375 54.109375 19.578125 55.046875 
Q 24.21875 56 28.609375 56 
Q 40.484375 56 46.34375 49.84375 
Q 52.203125 43.703125 52.203125 31.203125 
z
" id="DejaVuSans-97"/>
      <path d="M 5.515625 54.6875 
L 48.1875 54.6875 
L 48.1875 46.484375 
L 14.40625 7.171875 
L 48.1875 7.171875 
L 48.1875 0 
L 4.296875 0 
L 4.296875 8.203125 
L 38.09375 47.515625 
L 5.515625 47.515625 
z
" id="DejaVuSans-122"/>
      <path d="M 56.203125 29.59375 
L 56.203125 25.203125 
L 14.890625 25.203125 
Q 15.484375 15.921875 20.484375 11.0625 
Q 25.484375 6.203125 34.421875 6.203125 
Q 39.59375 6.203125 44.453125 7.46875 
Q 49.3125 8.734375 54.109375 11.28125 
L 54.109375 2.78125 
Q 49.265625 0.734375 44.1875 -0.34375 
Q 39.109375 -1.421875 33.890625 -1.421875 
Q 20.796875 -1.421875 13.15625 6.1875 
Q 5.515625 13.8125 5.515625 26.8125 
Q 5.515625 40.234375 12.765625 48.109375 
Q 20.015625 56 32.328125 56 
Q 43.359375 56 49.78125 48.890625 
Q 56.203125 41.796875 56.203125 29.59375 
z
M 47.21875 32.234375 
Q 47.125 39.59375 43.09375 43.984375 
Q 39.0625 48.390625 32.421875 48.390625 
Q 24.90625 48.390625 20.390625 44.140625 
Q 15.875 39.890625 15.1875 32.171875 
z
" id="DejaVuSans-101"/>
      <path d="M 45.40625 46.390625 
L 45.40625 75.984375 
L 54.390625 75.984375 
L 54.390625 0 
L 45.40625 0 
L 45.40625 8.203125 
Q 42.578125 3.328125 38.25 0.953125 
Q 33.9375 -1.421875 27.875 -1.421875 
Q 17.96875 -1.421875 11.734375 6.484375 
Q 5.515625 14.40625 5.515625 27.296875 
Q 5.515625 40.1875 11.734375 48.09375 
Q 17.96875 56 27.875 56 
Q 33.9375 56 38.25 53.625 
Q 42.578125 51.265625 45.40625 46.390625 
z
M 14.796875 27.296875 
Q 14.796875 17.390625 18.875 11.75 
Q 22.953125 6.109375 30.078125 6.109375 
Q 37.203125 6.109375 41.296875 11.75 
Q 45.40625 17.390625 45.40625 27.296875 
Q 45.40625 37.203125 41.296875 42.84375 
Q 37.203125 48.484375 30.078125 48.484375 
Q 22.953125 48.484375 18.875 42.84375 
Q 14.796875 37.203125 14.796875 27.296875 
z
" id="DejaVuSans-100"/>
      <path d="M 8.015625 75.875 
L 15.828125 75.875 
Q 23.140625 64.359375 26.78125 53.3125 
Q 30.421875 42.28125 30.421875 31.390625 
Q 30.421875 20.453125 26.78125 9.375 
Q 23.140625 -1.703125 15.828125 -13.1875 
L 8.015625 -13.1875 
Q 14.5 -2 17.703125 9.0625 
Q 20.90625 20.125 20.90625 31.390625 
Q 20.90625 42.671875 17.703125 53.65625 
Q 14.5 64.65625 8.015625 75.875 
z
" id="DejaVuSans-41"/>
     </defs>
     <g transform="translate(48.061562 344.945362)scale(0.1 -0.1)">
      <use xlink:href="#DejaVuSans-80"/>
      <use x="60.255859" xlink:href="#DejaVuSans-111"/>
      <use x="121.4375" xlink:href="#DejaVuSans-108"/>
      <use x="149.220703" xlink:href="#DejaVuSans-105"/>
      <use x="177.003906" xlink:href="#DejaVuSans-99"/>
      <use x="231.984375" xlink:href="#DejaVuSans-121"/>
      <use x="291.164062" xlink:href="#DejaVuSans-32"/>
      <use x="322.951172" xlink:href="#DejaVuSans-76"/>
      <use x="378.648438" xlink:href="#DejaVuSans-111"/>
      <use x="439.830078" xlink:href="#DejaVuSans-115"/>
      <use x="491.929688" xlink:href="#DejaVuSans-115"/>
      <use x="544.029297" xlink:href="#DejaVuSans-32"/>
      <use x="575.816406" xlink:href="#DejaVuSans-40"/>
      <use x="614.830078" xlink:href="#DejaVuSans-78"/>
      <use x="689.634766" xlink:href="#DejaVuSans-111"/>
      <use x="750.816406" xlink:href="#DejaVuSans-114"/>
      <use x="791.914062" xlink:href="#DejaVuSans-109"/>
      <use x="889.326172" xlink:href="#DejaVuSans-97"/>
      <use x="950.605469" xlink:href="#DejaVuSans-108"/>
      <use x="978.388672" xlink:href="#DejaVuSans-105"/>
      <use x="1006.171875" xlink:href="#DejaVuSans-122"/>
      <use x="1058.662109" xlink:href="#DejaVuSans-101"/>
      <use x="1120.185547" xlink:href="#DejaVuSans-100"/>
      <use x="1183.662109" xlink:href="#DejaVuSans-41"/>
     </g>
    </g>
    <g id="line2d_20">
     <path d="M 190.330312 341.445362 
L 210.330312 341.445362 
" style="fill:none;stroke:#ff7f0e;stroke-linecap:square;stroke-width:1.5;"/>
    </g>
    <g id="line2d_21"/>
    <g id="text_20">
     <!-- Critic Loss (Normalized) -->
     <defs>
      <path d="M 64.40625 67.28125 
L 64.40625 56.890625 
Q 59.421875 61.53125 53.78125 63.8125 
Q 48.140625 66.109375 41.796875 66.109375 
Q 29.296875 66.109375 22.65625 58.46875 
Q 16.015625 50.828125 16.015625 36.375 
Q 16.015625 21.96875 22.65625 14.328125 
Q 29.296875 6.6875 41.796875 6.6875 
Q 48.140625 6.6875 53.78125 8.984375 
Q 59.421875 11.28125 64.40625 15.921875 
L 64.40625 5.609375 
Q 59.234375 2.09375 53.4375 0.328125 
Q 47.65625 -1.421875 41.21875 -1.421875 
Q 24.65625 -1.421875 15.125 8.703125 
Q 5.609375 18.84375 5.609375 36.375 
Q 5.609375 53.953125 15.125 64.078125 
Q 24.65625 74.21875 41.21875 74.21875 
Q 47.75 74.21875 53.53125 72.484375 
Q 59.328125 70.75 64.40625 67.28125 
z
" id="DejaVuSans-67"/>
      <path d="M 18.3125 70.21875 
L 18.3125 54.6875 
L 36.8125 54.6875 
L 36.8125 47.703125 
L 18.3125 47.703125 
L 18.3125 18.015625 
Q 18.3125 11.328125 20.140625 9.421875 
Q 21.96875 7.515625 27.59375 7.515625 
L 36.8125 7.515625 
L 36.8125 0 
L 27.59375 0 
Q 17.1875 0 13.234375 3.875 
Q 9.28125 7.765625 9.28125 18.015625 
L 9.28125 47.703125 
L 2.6875 47.703125 
L 2.6875 54.6875 
L 9.28125 54.6875 
L 9.28125 70.21875 
z
" id="DejaVuSans-116"/>
     </defs>
     <g transform="translate(218.330312 344.945362)scale(0.1 -0.1)">
      <use xlink:href="#DejaVuSans-67"/>
      <use x="69.824219" xlink:href="#DejaVuSans-114"/>
      <use x="110.9375" xlink:href="#DejaVuSans-105"/>
      <use x="138.720703" xlink:href="#DejaVuSans-116"/>
      <use x="177.929688" xlink:href="#DejaVuSans-105"/>
      <use x="205.712891" xlink:href="#DejaVuSans-99"/>
      <use x="260.693359" xlink:href="#DejaVuSans-32"/>
      <use x="292.480469" xlink:href="#DejaVuSans-76"/>
      <use x="348.177734" xlink:href="#DejaVuSans-111"/>
      <use x="409.359375" xlink:href="#DejaVuSans-115"/>
      <use x="461.458984" xlink:href="#DejaVuSans-115"/>
      <use x="513.558594" xlink:href="#DejaVuSans-32"/>
      <use x="545.345703" xlink:href="#DejaVuSans-40"/>
      <use x="584.359375" xlink:href="#DejaVuSans-78"/>
      <use x="659.164062" xlink:href="#DejaVuSans-111"/>
      <use x="720.345703" xlink:href="#DejaVuSans-114"/>
      <use x="761.443359" xlink:href="#DejaVuSans-109"/>
      <use x="858.855469" xlink:href="#DejaVuSans-97"/>
      <use x="920.134766" xlink:href="#DejaVuSans-108"/>
      <use x="947.917969" xlink:href="#DejaVuSans-105"/>
      <use x="975.701172" xlink:href="#DejaVuSans-122"/>
      <use x="1028.191406" xlink:href="#DejaVuSans-101"/>
      <use x="1089.714844" xlink:href="#DejaVuSans-100"/>
      <use x="1153.191406" xlink:href="#DejaVuSans-41"/>
     </g>
    </g>
    <g id="line2d_22">
     <path d="M 357.550625 341.445362 
L 377.550625 341.445362 
" style="fill:none;stroke:#008000;stroke-linecap:square;stroke-width:1.5;"/>
    </g>
    <g id="line2d_23"/>
    <g id="text_21">
     <!-- Entropy -->
     <defs>
      <path d="M 54.890625 33.015625 
L 54.890625 0 
L 45.90625 0 
L 45.90625 32.71875 
Q 45.90625 40.484375 42.875 44.328125 
Q 39.84375 48.1875 33.796875 48.1875 
Q 26.515625 48.1875 22.3125 43.546875 
Q 18.109375 38.921875 18.109375 30.90625 
L 18.109375 0 
L 9.078125 0 
L 9.078125 54.6875 
L 18.109375 54.6875 
L 18.109375 46.1875 
Q 21.34375 51.125 25.703125 53.5625 
Q 30.078125 56 35.796875 56 
Q 45.21875 56 50.046875 50.171875 
Q 54.890625 44.34375 54.890625 33.015625 
z
" id="DejaVuSans-110"/>
     </defs>
     <g transform="translate(385.550625 344.945362)scale(0.1 -0.1)">
      <use xlink:href="#DejaVuSans-69"/>
      <use x="63.183594" xlink:href="#DejaVuSans-110"/>
      <use x="126.5625" xlink:href="#DejaVuSans-116"/>
      <use x="165.771484" xlink:href="#DejaVuSans-114"/>
      <use x="206.853516" xlink:href="#DejaVuSans-111"/>
      <use x="268.035156" xlink:href="#DejaVuSans-112"/>
      <use x="331.511719" xlink:href="#DejaVuSans-121"/>
     </g>
    </g>
   </g>
  </g>
  <g id="axes_2">
   <g id="matplotlib.axis_3">
    <g id="ytick_7">
     <g id="line2d_24">
      <defs>
       <path d="M 0 0 
L 3.5 0 
" id="m37cdb7b27f" style="stroke:#000000;stroke-width:0.8;"/>
      </defs>
      <g>
       <use style="stroke:#000000;stroke-width:0.8;" x="400.90125" xlink:href="#m37cdb7b27f" y="287.540173"/>
      </g>
     </g>
     <g id="text_22">
      <!-- 0.7 -->
      <g transform="translate(407.90125 291.339392)scale(0.1 -0.1)">
       <use xlink:href="#DejaVuSans-48"/>
       <use x="63.623047" xlink:href="#DejaVuSans-46"/>
       <use x="95.410156" xlink:href="#DejaVuSans-55"/>
      </g>
     </g>
    </g>
    <g id="ytick_8">
     <g id="line2d_25">
      <g>
       <use style="stroke:#000000;stroke-width:0.8;" x="400.90125" xlink:href="#m37cdb7b27f" y="247.480945"/>
      </g>
     </g>
     <g id="text_23">
      <!-- 0.8 -->
      <g transform="translate(407.90125 251.280164)scale(0.1 -0.1)">
       <use xlink:href="#DejaVuSans-48"/>
       <use x="63.623047" xlink:href="#DejaVuSans-46"/>
       <use x="95.410156" xlink:href="#DejaVuSans-56"/>
      </g>
     </g>
    </g>
    <g id="ytick_9">
     <g id="line2d_26">
      <g>
       <use style="stroke:#000000;stroke-width:0.8;" x="400.90125" xlink:href="#m37cdb7b27f" y="207.421717"/>
      </g>
     </g>
     <g id="text_24">
      <!-- 0.9 -->
      <defs>
       <path d="M 10.984375 1.515625 
L 10.984375 10.5 
Q 14.703125 8.734375 18.5 7.8125 
Q 22.3125 6.890625 25.984375 6.890625 
Q 35.75 6.890625 40.890625 13.453125 
Q 46.046875 20.015625 46.78125 33.40625 
Q 43.953125 29.203125 39.59375 26.953125 
Q 35.25 24.703125 29.984375 24.703125 
Q 19.046875 24.703125 12.671875 31.3125 
Q 6.296875 37.9375 6.296875 49.421875 
Q 6.296875 60.640625 12.9375 67.421875 
Q 19.578125 74.21875 30.609375 74.21875 
Q 43.265625 74.21875 49.921875 64.515625 
Q 56.59375 54.828125 56.59375 36.375 
Q 56.59375 19.140625 48.40625 8.859375 
Q 40.234375 -1.421875 26.421875 -1.421875 
Q 22.703125 -1.421875 18.890625 -0.6875 
Q 15.09375 0.046875 10.984375 1.515625 
z
M 30.609375 32.421875 
Q 37.25 32.421875 41.125 36.953125 
Q 45.015625 41.5 45.015625 49.421875 
Q 45.015625 57.28125 41.125 61.84375 
Q 37.25 66.40625 30.609375 66.40625 
Q 23.96875 66.40625 20.09375 61.84375 
Q 16.21875 57.28125 16.21875 49.421875 
Q 16.21875 41.5 20.09375 36.953125 
Q 23.96875 32.421875 30.609375 32.421875 
z
" id="DejaVuSans-57"/>
      </defs>
      <g transform="translate(407.90125 211.220936)scale(0.1 -0.1)">
       <use xlink:href="#DejaVuSans-48"/>
       <use x="63.623047" xlink:href="#DejaVuSans-46"/>
       <use x="95.410156" xlink:href="#DejaVuSans-57"/>
      </g>
     </g>
    </g>
    <g id="ytick_10">
     <g id="line2d_27">
      <g>
       <use style="stroke:#000000;stroke-width:0.8;" x="400.90125" xlink:href="#m37cdb7b27f" y="167.362489"/>
      </g>
     </g>
     <g id="text_25">
      <!-- 1.0 -->
      <g transform="translate(407.90125 171.161708)scale(0.1 -0.1)">
       <use xlink:href="#DejaVuSans-49"/>
       <use x="63.623047" xlink:href="#DejaVuSans-46"/>
       <use x="95.410156" xlink:href="#DejaVuSans-48"/>
      </g>
     </g>
    </g>
    <g id="ytick_11">
     <g id="line2d_28">
      <g>
       <use style="stroke:#000000;stroke-width:0.8;" x="400.90125" xlink:href="#m37cdb7b27f" y="127.303261"/>
      </g>
     </g>
     <g id="text_26">
      <!-- 1.1 -->
      <g transform="translate(407.90125 131.10248)scale(0.1 -0.1)">
       <use xlink:href="#DejaVuSans-49"/>
       <use x="63.623047" xlink:href="#DejaVuSans-46"/>
       <use x="95.410156" xlink:href="#DejaVuSans-49"/>
      </g>
     </g>
    </g>
    <g id="ytick_12">
     <g id="line2d_29">
      <g>
       <use style="stroke:#000000;stroke-width:0.8;" x="400.90125" xlink:href="#m37cdb7b27f" y="87.244033"/>
      </g>
     </g>
     <g id="text_27">
      <!-- 1.2 -->
      <g transform="translate(407.90125 91.043252)scale(0.1 -0.1)">
       <use xlink:href="#DejaVuSans-49"/>
       <use x="63.623047" xlink:href="#DejaVuSans-46"/>
       <use x="95.410156" xlink:href="#DejaVuSans-50"/>
      </g>
     </g>
    </g>
    <g id="ytick_13">
     <g id="line2d_30">
      <g>
       <use style="stroke:#000000;stroke-width:0.8;" x="400.90125" xlink:href="#m37cdb7b27f" y="47.184805"/>
      </g>
     </g>
     <g id="text_28">
      <!-- 1.3 -->
      <g transform="translate(407.90125 50.984024)scale(0.1 -0.1)">
       <use xlink:href="#DejaVuSans-49"/>
       <use x="63.623047" xlink:href="#DejaVuSans-46"/>
       <use x="95.410156" xlink:href="#DejaVuSans-51"/>
      </g>
     </g>
    </g>
    <g id="text_29">
     <!-- Entropy -->
     <g transform="translate(435.402812 174.909281)rotate(-90)scale(0.1 -0.1)">
      <use xlink:href="#DejaVuSans-69"/>
      <use x="63.183594" xlink:href="#DejaVuSans-110"/>
      <use x="126.5625" xlink:href="#DejaVuSans-116"/>
      <use x="165.771484" xlink:href="#DejaVuSans-114"/>
      <use x="206.853516" xlink:href="#DejaVuSans-111"/>
      <use x="268.035156" xlink:href="#DejaVuSans-112"/>
      <use x="331.511719" xlink:href="#DejaVuSans-121"/>
     </g>
    </g>
   </g>
   <g id="line2d_31">
    <path clip-path="url(#p20761d92c6)" d="M 60.013977 34.565267 
L 60.415281 34.414125 
L 60.816584 35.073899 
L 61.217888 36.335138 
L 61.619191 43.636583 
L 62.020495 43.853005 
L 62.421798 42.202282 
L 62.823102 50.130215 
L 63.224405 55.143655 
L 64.027012 48.069378 
L 64.428316 50.431163 
L 64.829619 51.263521 
L 65.230923 55.917275 
L 65.632227 52.085994 
L 66.03353 37.622595 
L 67.237441 46.654178 
L 67.638744 50.815681 
L 68.040048 47.338116 
L 68.441351 65.212892 
L 68.842655 69.784557 
L 69.243958 69.882549 
L 69.645262 66.753399 
L 70.046565 72.17552 
L 70.447869 72.876172 
L 71.250476 80.332818 
L 71.651779 81.300273 
L 72.053083 77.925713 
L 72.454386 65.516658 
L 72.85569 64.913521 
L 73.256993 69.760059 
L 74.0596 86.837625 
L 74.460904 81.008732 
L 75.263511 97.472273 
L 75.664814 93.283503 
L 76.066118 92.046332 
L 76.467421 97.581249 
L 76.868725 98.838668 
L 77.671332 128.7727 
L 78.072636 105.978512 
L 78.473939 107.114396 
L 78.875243 107.578091 
L 79.276546 107.496001 
L 79.67785 119.993927 
L 80.079153 127.346326 
L 80.480457 113.683194 
L 80.88176 114.830587 
L 81.283064 115.423552 
L 81.684367 108.084764 
L 82.486974 133.81527 
L 82.888278 128.511388 
L 83.289581 137.247134 
L 83.690885 138.833007 
L 84.092188 132.395916 
L 84.493492 138.79318 
L 84.894795 141.03983 
L 85.296099 133.563986 
L 85.697402 136.178917 
L 86.098706 148.640503 
L 86.500009 124.860714 
L 86.901313 116.152236 
L 88.105223 144.985005 
L 88.506527 165.647822 
L 88.907831 132.266836 
L 89.309134 135.949171 
L 89.710438 140.679714 
L 90.111741 152.789112 
L 90.513045 157.911957 
L 90.914348 159.822273 
L 91.315652 153.794436 
L 91.716955 160.27102 
L 92.118259 168.602335 
L 92.519562 158.817283 
L 92.920866 154.032682 
L 93.322169 153.71822 
L 93.723473 171.607968 
L 94.124776 176.718205 
L 94.52608 178.964975 
L 94.927383 150.790021 
L 95.328687 154.09056 
L 95.72999 155.136428 
L 96.131294 165.694717 
L 96.532597 163.427342 
L 96.933901 161.834831 
L 97.335204 171.104757 
L 97.736508 174.984389 
L 98.137811 177.020299 
L 98.539115 166.857583 
L 98.940418 178.390824 
L 99.341722 173.435645 
L 100.144329 155.683597 
L 100.545633 157.376917 
L 100.946936 196.259608 
L 101.34824 210.260124 
L 101.749543 209.468763 
L 102.150847 163.606707 
L 102.55215 169.363825 
L 102.953454 171.093725 
L 103.354757 163.296686 
L 103.756061 162.146571 
L 104.157364 164.308409 
L 104.558668 202.663271 
L 104.959971 217.476208 
L 105.361275 215.048068 
L 105.762578 180.320027 
L 106.163882 178.793823 
L 106.565185 189.529806 
L 106.966489 156.15837 
L 107.367792 159.208296 
L 107.769096 165.234986 
L 108.170399 157.932252 
L 108.571703 157.566645 
L 108.973006 161.786838 
L 109.37431 149.48394 
L 109.775613 147.896682 
L 110.176917 150.66266 
L 110.57822 191.742359 
L 110.979524 195.91198 
L 111.380827 185.713782 
L 111.782131 179.798789 
L 112.183435 186.427829 
L 112.584738 185.70607 
L 112.986042 179.308519 
L 113.387345 182.281464 
L 113.788649 190.947919 
L 114.591256 186.549435 
L 114.992559 187.907878 
L 115.393863 203.864412 
L 115.795166 197.37756 
L 116.19647 180.707959 
L 116.597773 177.134265 
L 116.999077 182.441203 
L 117.40038 192.067089 
L 117.801684 187.280148 
L 118.202987 173.326097 
L 118.604291 183.453594 
L 119.005594 177.494332 
L 119.406898 174.905786 
L 119.808201 179.437909 
L 120.209505 159.89357 
L 120.610808 162.933562 
L 121.012112 164.860927 
L 121.413415 180.23949 
L 122.216022 173.88136 
L 122.617326 199.182698 
L 123.018629 209.245679 
L 123.419933 207.403437 
L 123.821237 184.388767 
L 124.22254 191.421665 
L 124.623844 194.213646 
L 125.025147 168.14874 
L 125.426451 157.52806 
L 125.827754 161.391719 
L 126.229058 208.0496 
L 126.630361 208.419458 
L 127.031665 216.247656 
L 127.432968 175.421795 
L 127.834272 180.107807 
L 128.235575 175.385311 
L 128.636879 191.616288 
L 129.038182 183.865356 
L 129.439486 184.42506 
L 129.840789 187.17208 
L 130.242093 193.508314 
L 130.643396 201.788173 
L 131.0447 175.191715 
L 131.446003 176.115331 
L 131.847307 178.019033 
L 132.24861 166.561124 
L 133.051217 162.582329 
L 133.452521 159.493055 
L 133.853824 167.496989 
L 134.255128 161.864057 
L 134.656431 185.751222 
L 135.459039 173.71071 
L 135.860342 141.987944 
L 136.261646 142.897664 
L 136.662949 146.30035 
L 137.064253 164.671438 
L 137.465556 162.504633 
L 137.86686 163.498401 
L 138.268163 199.294108 
L 138.669467 207.920903 
L 139.07077 205.630008 
L 139.472074 174.897572 
L 139.873377 176.959914 
L 140.274681 177.325927 
L 140.675984 178.459423 
L 141.077288 179.024476 
L 141.478591 180.204868 
L 141.879895 171.213135 
L 142.281198 177.831979 
L 142.682502 178.592109 
L 143.083805 165.524903 
L 143.485109 166.673776 
L 143.886412 173.349162 
L 144.287716 196.333412 
L 144.689019 197.687534 
L 145.090323 196.350842 
L 145.491626 175.340756 
L 145.89293 170.975247 
L 146.294233 171.434166 
L 146.695537 200.316743 
L 147.096841 191.628895 
L 147.498144 189.58938 
L 147.899448 181.251404 
L 148.300751 184.880469 
L 148.702055 181.455458 
L 149.103358 167.941654 
L 149.504662 166.335437 
L 149.905965 166.688485 
L 150.307269 188.147844 
L 150.708572 184.49385 
L 151.109876 184.83102 
L 151.511179 200.316839 
L 152.313786 195.114388 
L 152.71509 185.727512 
L 153.116393 185.926026 
L 153.517697 186.375729 
L 153.919 185.267566 
L 154.320304 185.303215 
L 154.721607 190.643294 
L 155.122911 204.86305 
L 155.524214 205.606919 
L 155.925518 201.962429 
L 156.326821 204.58352 
L 156.728125 200.020547 
L 157.129428 200.879504 
L 157.530732 198.820839 
L 157.932035 191.499505 
L 158.333339 191.16224 
L 159.135946 185.748404 
L 159.53725 189.507624 
L 159.938553 215.028393 
L 160.339857 220.560707 
L 160.74116 220.413528 
L 161.142464 202.971048 
L 161.543767 199.406044 
L 161.945071 203.183674 
L 162.346374 208.706533 
L 162.747678 208.730864 
L 163.148981 213.422678 
L 163.550285 203.811309 
L 163.951588 197.008228 
L 164.352892 186.919674 
L 164.754195 222.723286 
L 165.155499 218.592608 
L 165.556802 217.92486 
L 165.958106 216.570571 
L 166.359409 231.061118 
L 166.760713 231.389382 
L 167.162016 205.595124 
L 167.56332 205.746219 
L 167.964623 205.129615 
L 168.365927 224.518753 
L 168.76723 220.713664 
L 169.168534 218.70975 
L 169.569837 187.249131 
L 169.971141 180.464866 
L 170.372445 177.237916 
L 170.773748 214.842868 
L 171.175052 216.939473 
L 171.576355 212.460094 
L 171.977659 195.522496 
L 172.780266 204.233218 
L 173.181569 186.010623 
L 173.582873 187.338838 
L 173.984176 188.168522 
L 174.38548 208.01154 
L 174.786783 201.211229 
L 175.188087 199.874968 
L 175.58939 208.387343 
L 175.990694 210.515323 
L 176.391997 207.919733 
L 176.793301 191.611727 
L 177.595908 181.463982 
L 177.997211 219.189394 
L 178.398515 219.599914 
L 178.799818 224.21131 
L 179.201122 239.954812 
L 179.602425 239.830149 
L 180.003729 244.015051 
L 180.405032 228.681186 
L 180.806336 230.219472 
L 181.207639 229.338023 
L 181.608943 200.87215 
L 182.41155 206.978758 
L 182.812854 238.836477 
L 183.615461 245.004282 
L 184.016764 205.844425 
L 184.819371 211.050864 
L 185.220675 232.930008 
L 185.621978 234.518961 
L 186.023282 235.062907 
L 186.424585 218.589146 
L 186.825889 213.376452 
L 187.227192 214.105803 
L 187.628496 219.876889 
L 188.029799 218.542466 
L 188.431103 210.716536 
L 188.832406 234.34547 
L 189.23371 238.040962 
L 189.635013 234.436728 
L 190.036317 237.231789 
L 190.43762 234.221165 
L 191.240227 209.542186 
L 191.641531 209.433712 
L 192.042834 209.801038 
L 192.444138 201.184201 
L 192.845441 199.980935 
L 193.246745 201.310511 
L 193.648049 201.164215 
L 194.049352 203.573254 
L 194.450656 207.659949 
L 194.851959 213.136844 
L 195.253263 208.784444 
L 195.654566 210.136369 
L 196.457173 217.55985 
L 197.25978 227.685437 
L 197.661084 228.319018 
L 198.062387 234.234536 
L 198.463691 226.001309 
L 198.864994 228.533243 
L 199.266298 235.949681 
L 199.667601 195.648949 
L 200.068905 199.625356 
L 200.470208 205.295752 
L 200.871512 232.703772 
L 201.272815 239.129211 
L 201.674119 238.258841 
L 202.075422 205.716802 
L 202.476726 202.277321 
L 202.878029 204.849583 
L 203.279333 234.322667 
L 203.680636 238.498926 
L 204.08194 238.821888 
L 204.483243 241.268628 
L 204.884547 239.478152 
L 205.285851 238.28692 
L 205.687154 216.116022 
L 206.088458 220.171342 
L 206.489761 220.822711 
L 206.891065 226.248868 
L 207.292368 225.847445 
L 207.693672 225.850119 
L 208.094975 227.908617 
L 208.496279 228.272075 
L 208.897582 230.204501 
L 209.298886 236.877165 
L 209.700189 235.362231 
L 210.101493 233.312902 
L 210.502796 227.819555 
L 210.9041 229.75542 
L 211.305403 235.335226 
L 212.10801 252.687952 
L 212.509314 258.247844 
L 212.910617 226.636155 
L 213.311921 227.199871 
L 213.713224 226.646088 
L 214.114528 229.591193 
L 214.917135 223.291658 
L 215.318438 230.398766 
L 216.121045 226.493179 
L 216.522349 239.502817 
L 216.923653 241.383716 
L 217.324956 242.128063 
L 217.72626 229.66015 
L 218.127563 231.220116 
L 218.528867 240.420727 
L 218.93017 260.179507 
L 219.331474 259.004177 
L 219.732777 259.417109 
L 220.134081 220.875934 
L 220.535384 218.119172 
L 220.936688 217.142883 
L 221.337991 225.899736 
L 221.739295 227.805945 
L 222.140598 225.923923 
L 222.541902 246.633994 
L 222.943205 241.685762 
L 223.344509 239.326174 
L 223.745812 248.516063 
L 224.147116 252.97018 
L 224.548419 256.093743 
L 224.949723 235.438733 
L 225.351026 232.518747 
L 225.75233 233.288786 
L 226.153633 233.774829 
L 226.554937 238.936952 
L 226.95624 241.627454 
L 227.357544 227.909668 
L 227.758847 222.568251 
L 228.160151 225.171745 
L 228.561455 214.60455 
L 228.962758 218.9022 
L 229.364062 219.46348 
L 229.765365 230.568604 
L 230.567972 222.550057 
L 230.969276 245.193293 
L 231.370579 239.757873 
L 231.771883 242.87845 
L 232.173186 239.827713 
L 232.975793 243.489849 
L 233.377097 213.155707 
L 233.7784 211.03852 
L 234.179704 213.363868 
L 234.581007 208.249787 
L 234.982311 206.630485 
L 235.383614 206.439707 
L 235.784918 227.848996 
L 236.186221 224.43184 
L 236.587525 226.69093 
L 236.988828 194.628798 
L 237.390132 191.294137 
L 237.791435 189.130771 
L 238.192739 214.602234 
L 238.594042 216.132879 
L 238.995346 216.370051 
L 239.396649 231.348599 
L 240.199257 224.112316 
L 240.60056 232.916851 
L 241.001864 231.853697 
L 241.403167 231.613111 
L 241.804471 227.796561 
L 242.205774 230.639997 
L 242.607078 232.328972 
L 243.008381 213.392999 
L 243.409685 216.173518 
L 243.810988 216.464891 
L 244.212292 229.242753 
L 244.613595 226.746468 
L 245.014899 225.197174 
L 245.416202 243.154948 
L 245.817506 242.269655 
L 246.218809 246.053349 
L 246.620113 211.718995 
L 247.021416 213.474491 
L 247.42272 210.560905 
L 247.824023 227.308536 
L 248.225327 227.320618 
L 248.62663 226.630186 
L 249.027934 232.04044 
L 249.429237 227.101617 
L 249.830541 223.911676 
L 250.633148 228.535464 
L 251.034451 227.826694 
L 251.435755 226.031418 
L 251.837059 228.692361 
L 252.238362 226.393969 
L 252.639666 240.68667 
L 253.040969 235.974632 
L 253.442273 235.624474 
L 253.843576 227.219809 
L 254.24488 222.022873 
L 254.646183 215.103821 
L 255.047487 212.314133 
L 255.44879 213.005234 
L 255.850094 216.422557 
L 256.251397 232.744649 
L 256.652701 238.148767 
L 257.054004 241.355088 
L 257.455308 234.894453 
L 258.257915 233.522567 
L 258.659218 243.627167 
L 259.461825 239.828716 
L 259.863129 254.903036 
L 260.264432 255.414772 
L 260.665736 253.47566 
L 261.067039 212.322538 
L 261.869646 206.213733 
L 262.27095 235.788271 
L 262.672253 234.90472 
L 263.073557 235.2236 
L 263.474861 261.141565 
L 263.876164 270.205837 
L 264.277468 276.334125 
L 264.678771 239.049461 
L 265.481378 246.277722 
L 265.882682 231.785074 
L 266.685289 235.39702 
L 267.086592 263.397957 
L 267.487896 263.220287 
L 267.889199 265.717742 
L 268.290503 229.596828 
L 268.691806 227.22573 
L 269.09311 223.882187 
L 269.494413 253.583226 
L 270.29702 267.403733 
L 270.698324 238.940128 
L 271.099627 238.134656 
L 271.500931 235.825304 
L 271.902234 234.276011 
L 272.303538 236.80847 
L 272.704841 237.954479 
L 273.106145 200.302489 
L 273.908752 200.904981 
L 274.310055 229.61039 
L 274.711359 237.454897 
L 275.112663 240.630511 
L 275.513966 216.751035 
L 275.91527 218.925313 
L 276.316573 222.517202 
L 276.717877 204.168082 
L 277.11918 215.559039 
L 277.520484 217.530385 
L 277.921787 196.808066 
L 278.323091 195.736244 
L 278.724394 187.363837 
L 279.125698 223.858716 
L 279.527001 228.705469 
L 279.928305 225.541555 
L 280.329608 214.635399 
L 281.132215 226.107706 
L 281.533519 213.169341 
L 281.934822 211.235387 
L 282.336126 208.688052 
L 282.737429 186.963011 
L 283.138733 181.897806 
L 283.540036 178.659968 
L 283.94134 212.036848 
L 284.342643 201.942205 
L 284.743947 199.417386 
L 285.14525 219.245601 
L 285.546554 223.994792 
L 285.947857 224.777462 
L 286.750465 238.63801 
L 287.151768 242.070519 
L 287.553072 249.590344 
L 287.954375 249.51611 
L 288.355679 252.086773 
L 288.756982 215.740553 
L 289.559589 204.335508 
L 289.960893 225.136574 
L 290.362196 224.096986 
L 290.7635 221.103483 
L 291.164803 215.696977 
L 291.566107 218.762757 
L 291.96741 219.603376 
L 292.368714 214.801297 
L 292.770017 219.008596 
L 293.171321 221.11929 
L 293.572624 210.747505 
L 293.973928 206.164069 
L 294.375231 199.809115 
L 294.776535 201.234152 
L 295.177838 215.410953 
L 295.579142 214.724174 
L 295.980445 238.462704 
L 296.381749 240.541951 
L 296.783052 240.688366 
L 297.184356 225.897945 
L 297.585659 231.188861 
L 297.986963 232.0312 
L 298.388267 204.679387 
L 298.78957 203.044709 
L 299.190874 203.111899 
L 299.592177 206.561671 
L 299.993481 221.158639 
L 300.394784 222.217615 
L 300.796088 217.220197 
L 301.197391 217.2648 
L 301.598695 218.251475 
L 301.999998 215.615915 
L 302.802605 216.571598 
L 303.203909 223.850789 
L 303.605212 226.684316 
L 304.006516 225.371955 
L 304.407819 208.90488 
L 305.210426 213.189804 
L 305.61173 218.16941 
L 306.013033 218.96237 
L 306.414337 221.158257 
L 306.81564 215.534374 
L 307.216944 213.60381 
L 307.618247 212.909032 
L 308.019551 198.167847 
L 308.822158 190.692767 
L 309.223461 228.057706 
L 310.026069 225.246505 
L 310.427372 230.8478 
L 310.828676 233.216414 
L 311.229979 237.278612 
L 311.631283 204.551358 
L 312.032586 207.116075 
L 312.43389 207.466186 
L 312.835193 212.709658 
L 313.236497 215.042791 
L 313.6378 216.465679 
L 314.039104 235.252324 
L 314.841711 226.643032 
L 315.243014 222.395381 
L 315.644318 215.294647 
L 316.045621 212.532633 
L 316.446925 195.151827 
L 316.848228 193.28246 
L 317.249532 190.456121 
L 317.650835 226.547571 
L 318.453442 224.37623 
L 318.854746 214.557416 
L 319.657353 216.20919 
L 320.058656 199.219325 
L 320.45996 190.558028 
L 320.861263 188.13655 
L 321.262567 223.47076 
L 321.663871 224.47914 
L 322.065174 224.057971 
L 322.466478 216.022471 
L 322.867781 215.413651 
L 323.269085 216.666151 
L 323.670388 213.808533 
L 324.472995 215.741867 
L 324.874299 198.663226 
L 325.275602 193.556188 
L 325.676906 190.316583 
L 326.078209 228.597139 
L 326.880816 243.974269 
L 327.28212 195.602055 
L 327.683423 193.118734 
L 328.084727 187.283658 
L 328.48603 206.704887 
L 328.887334 202.420321 
L 329.288637 201.973794 
L 329.689941 236.747202 
L 330.492548 250.311124 
L 330.893851 189.851718 
L 331.295155 191.36584 
L 331.696458 192.340721 
L 332.097762 212.571672 
L 332.900369 207.787573 
L 333.301673 216.006306 
L 333.702976 211.936086 
L 334.10428 215.580123 
L 334.505583 235.03934 
L 334.906887 238.687627 
L 335.30819 243.738601 
L 335.709494 211.996304 
L 336.110797 216.563766 
L 336.512101 216.468616 
L 336.913404 203.479082 
L 337.314708 203.485386 
L 337.716011 203.909062 
L 338.117315 216.209763 
L 338.518618 217.645378 
L 338.919922 218.004896 
L 339.321225 209.631128 
L 339.722529 204.150603 
L 340.123832 203.219155 
L 340.525136 212.772718 
L 340.926439 216.886108 
L 341.327743 219.136339 
L 341.729046 192.01506 
L 342.13035 186.28342 
L 342.531653 185.383036 
L 342.932957 200.239668 
L 343.33426 197.405282 
L 343.735564 195.956057 
L 344.136867 209.795761 
L 344.538171 210.67776 
L 344.939475 212.710948 
L 345.340778 218.442254 
L 345.742082 216.574033 
L 346.143385 213.763835 
L 346.544689 201.471753 
L 346.945992 196.649211 
L 347.347296 202.03886 
L 347.748599 226.148106 
L 348.149903 228.394422 
L 348.551206 231.579778 
L 348.95251 209.602476 
L 349.353813 203.914936 
L 349.755117 201.455564 
L 350.15642 196.957537 
L 350.557724 194.511776 
L 350.959027 191.266583 
L 351.360331 215.303291 
L 352.564241 224.231104 
L 353.366848 224.959979 
L 353.768152 211.709157 
L 354.570759 205.591113 
L 354.972062 214.6205 
L 355.373366 218.72847 
L 355.774669 224.075712 
L 356.175973 238.107507 
L 356.577277 240.152467 
L 356.97858 239.085468 
L 357.379884 204.536363 
L 357.781187 207.525545 
L 358.182491 209.544024 
L 358.583794 243.73607 
L 359.386401 248.593449 
L 359.787705 211.794351 
L 360.189008 209.536527 
L 360.590312 209.110558 
L 360.991615 217.707673 
L 361.392919 220.944986 
L 361.794222 222.425561 
L 362.195526 196.535246 
L 362.998133 191.131916 
L 363.399436 210.078634 
L 364.202043 197.907538 
L 364.603347 201.669934 
L 365.00465 199.152923 
L 365.405954 202.43811 
L 365.807257 234.1024 
L 366.208561 234.980196 
L 366.609864 235.480327 
L 367.011168 222.183017 
L 367.412471 218.477855 
L 367.813775 220.45412 
L 368.215079 235.630801 
L 369.017686 231.289671 
L 369.418989 198.397497 
L 370.221596 194.590403 
L 370.6229 233.515165 
L 371.024203 237.328133 
L 371.425507 234.862458 
L 371.82681 219.506984 
L 372.228114 218.864474 
L 372.629417 218.885056 
L 373.030721 215.0713 
L 373.432024 215.961584 
L 373.833328 216.104799 
L 374.234631 216.551851 
L 374.635935 217.683414 
L 375.037238 219.296268 
L 375.438542 201.856247 
L 375.839845 197.70685 
L 376.241149 196.045263 
L 376.642452 216.100907 
L 377.445059 212.270032 
L 377.846363 217.452426 
L 378.64897 209.056596 
L 379.050273 225.514741 
L 379.451577 223.330291 
L 379.852881 221.899309 
L 380.254184 234.987526 
L 381.056791 236.983514 
L 381.458095 208.24482 
L 382.260702 210.414657 
L 382.662005 242.417478 
L 383.464612 254.308017 
L 383.865916 219.591677 
L 384.668523 216.467661 
L 384.668523 216.467661 
" style="fill:none;stroke:#008000;stroke-linecap:square;stroke-width:1.5;"/>
   </g>
   <g id="patch_9">
    <path d="M 43.78125 288.430125 
L 43.78125 22.318125 
" style="fill:none;stroke:#000000;stroke-linecap:square;stroke-linejoin:miter;stroke-width:0.8;"/>
   </g>
   <g id="patch_10">
    <path d="M 400.90125 288.430125 
L 400.90125 22.318125 
" style="fill:none;stroke:#000000;stroke-linecap:square;stroke-linejoin:miter;stroke-width:0.8;"/>
   </g>
   <g id="patch_11">
    <path d="M 43.78125 288.430125 
L 400.90125 288.430125 
" style="fill:none;stroke:#000000;stroke-linecap:square;stroke-linejoin:miter;stroke-width:0.8;"/>
   </g>
   <g id="patch_12">
    <path d="M 43.78125 22.318125 
L 400.90125 22.318125 
" style="fill:none;stroke:#000000;stroke-linecap:square;stroke-linejoin:miter;stroke-width:0.8;"/>
   </g>
  </g>
 </g>
 <defs>
  <clipPath id="p20761d92c6">
   <rect height="266.112" width="357.12" x="43.78125" y="22.318125"/>
  </clipPath>
 </defs>
</svg>
