<?xml version="1.0" encoding="utf-8" standalone="no"?>
<!DOCTYPE svg PUBLIC "-//W3C//DTD SVG 1.1//EN"
  "http://www.w3.org/Graphics/SVG/1.1/DTD/svg11.dtd">
<!-- Created with matplotlib (https://matplotlib.org/) -->
<svg height="358.22505pt" version="1.1" viewBox="0 0 451.045 358.22505" width="451.045pt" xmlns="http://www.w3.org/2000/svg" xmlns:xlink="http://www.w3.org/1999/xlink">
 <defs>
  <style type="text/css">
*{stroke-linecap:butt;stroke-linejoin:round;}
  </style>
 </defs>
 <g id="figure_1">
  <g id="patch_1">
   <path d="M 0 358.22505 
L 451.045 358.22505 
L 451.045 0 
L 0 0 
z
" style="fill:#ffffff;"/>
  </g>
  <g id="axes_1">
   <g id="patch_2">
    <path d="M 43.78125 288.430125 
L 400.90125 288.430125 
L 400.90125 22.318125 
L 43.78125 22.318125 
z
" style="fill:#ffffff;"/>
   </g>
   <g id="matplotlib.axis_1">
    <g id="xtick_1">
     <g id="line2d_1">
      <defs>
       <path d="M 0 0 
L 0 3.5 
" id="me94ff73ea4" style="stroke:#000000;stroke-width:0.8;"/>
      </defs>
      <g>
       <use style="stroke:#000000;stroke-width:0.8;" x="60.013977" xlink:href="#me94ff73ea4" y="288.430125"/>
      </g>
     </g>
     <g id="text_1">
      <!-- 0 -->
      <defs>
       <path d="M 31.78125 66.40625 
Q 24.171875 66.40625 20.328125 58.90625 
Q 16.5 51.421875 16.5 36.375 
Q 16.5 21.390625 20.328125 13.890625 
Q 24.171875 6.390625 31.78125 6.390625 
Q 39.453125 6.390625 43.28125 13.890625 
Q 47.125 21.390625 47.125 36.375 
Q 47.125 51.421875 43.28125 58.90625 
Q 39.453125 66.40625 31.78125 66.40625 
z
M 31.78125 74.21875 
Q 44.046875 74.21875 50.515625 64.515625 
Q 56.984375 54.828125 56.984375 36.375 
Q 56.984375 17.96875 50.515625 8.265625 
Q 44.046875 -1.421875 31.78125 -1.421875 
Q 19.53125 -1.421875 13.0625 8.265625 
Q 6.59375 17.96875 6.59375 36.375 
Q 6.59375 54.828125 13.0625 64.515625 
Q 19.53125 74.21875 31.78125 74.21875 
z
" id="DejaVuSans-48"/>
      </defs>
      <g transform="translate(56.832727 303.028562)scale(0.1 -0.1)">
       <use xlink:href="#DejaVuSans-48"/>
      </g>
     </g>
    </g>
    <g id="xtick_2">
     <g id="line2d_2">
      <g>
       <use style="stroke:#000000;stroke-width:0.8;" x="113.76473" xlink:href="#me94ff73ea4" y="288.430125"/>
      </g>
     </g>
     <g id="text_2">
      <!-- 50 -->
      <defs>
       <path d="M 10.796875 72.90625 
L 49.515625 72.90625 
L 49.515625 64.59375 
L 19.828125 64.59375 
L 19.828125 46.734375 
Q 21.96875 47.46875 24.109375 47.828125 
Q 26.265625 48.1875 28.421875 48.1875 
Q 40.625 48.1875 47.75 41.5 
Q 54.890625 34.8125 54.890625 23.390625 
Q 54.890625 11.625 47.5625 5.09375 
Q 40.234375 -1.421875 26.90625 -1.421875 
Q 22.3125 -1.421875 17.546875 -0.640625 
Q 12.796875 0.140625 7.71875 1.703125 
L 7.71875 11.625 
Q 12.109375 9.234375 16.796875 8.0625 
Q 21.484375 6.890625 26.703125 6.890625 
Q 35.15625 6.890625 40.078125 11.328125 
Q 45.015625 15.765625 45.015625 23.390625 
Q 45.015625 31 40.078125 35.4375 
Q 35.15625 39.890625 26.703125 39.890625 
Q 22.75 39.890625 18.8125 39.015625 
Q 14.890625 38.140625 10.796875 36.28125 
z
" id="DejaVuSans-53"/>
      </defs>
      <g transform="translate(107.40223 303.028562)scale(0.1 -0.1)">
       <use xlink:href="#DejaVuSans-53"/>
       <use x="63.623047" xlink:href="#DejaVuSans-48"/>
      </g>
     </g>
    </g>
    <g id="xtick_3">
     <g id="line2d_3">
      <g>
       <use style="stroke:#000000;stroke-width:0.8;" x="167.515482" xlink:href="#me94ff73ea4" y="288.430125"/>
      </g>
     </g>
     <g id="text_3">
      <!-- 100 -->
      <defs>
       <path d="M 12.40625 8.296875 
L 28.515625 8.296875 
L 28.515625 63.921875 
L 10.984375 60.40625 
L 10.984375 69.390625 
L 28.421875 72.90625 
L 38.28125 72.90625 
L 38.28125 8.296875 
L 54.390625 8.296875 
L 54.390625 0 
L 12.40625 0 
z
" id="DejaVuSans-49"/>
      </defs>
      <g transform="translate(157.971732 303.028562)scale(0.1 -0.1)">
       <use xlink:href="#DejaVuSans-49"/>
       <use x="63.623047" xlink:href="#DejaVuSans-48"/>
       <use x="127.246094" xlink:href="#DejaVuSans-48"/>
      </g>
     </g>
    </g>
    <g id="xtick_4">
     <g id="line2d_4">
      <g>
       <use style="stroke:#000000;stroke-width:0.8;" x="221.266235" xlink:href="#me94ff73ea4" y="288.430125"/>
      </g>
     </g>
     <g id="text_4">
      <!-- 150 -->
      <g transform="translate(211.722485 303.028562)scale(0.1 -0.1)">
       <use xlink:href="#DejaVuSans-49"/>
       <use x="63.623047" xlink:href="#DejaVuSans-53"/>
       <use x="127.246094" xlink:href="#DejaVuSans-48"/>
      </g>
     </g>
    </g>
    <g id="xtick_5">
     <g id="line2d_5">
      <g>
       <use style="stroke:#000000;stroke-width:0.8;" x="275.016988" xlink:href="#me94ff73ea4" y="288.430125"/>
      </g>
     </g>
     <g id="text_5">
      <!-- 200 -->
      <defs>
       <path d="M 19.1875 8.296875 
L 53.609375 8.296875 
L 53.609375 0 
L 7.328125 0 
L 7.328125 8.296875 
Q 12.9375 14.109375 22.625 23.890625 
Q 32.328125 33.6875 34.8125 36.53125 
Q 39.546875 41.84375 41.421875 45.53125 
Q 43.3125 49.21875 43.3125 52.78125 
Q 43.3125 58.59375 39.234375 62.25 
Q 35.15625 65.921875 28.609375 65.921875 
Q 23.96875 65.921875 18.8125 64.3125 
Q 13.671875 62.703125 7.8125 59.421875 
L 7.8125 69.390625 
Q 13.765625 71.78125 18.9375 73 
Q 24.125 74.21875 28.421875 74.21875 
Q 39.75 74.21875 46.484375 68.546875 
Q 53.21875 62.890625 53.21875 53.421875 
Q 53.21875 48.921875 51.53125 44.890625 
Q 49.859375 40.875 45.40625 35.40625 
Q 44.1875 33.984375 37.640625 27.21875 
Q 31.109375 20.453125 19.1875 8.296875 
z
" id="DejaVuSans-50"/>
      </defs>
      <g transform="translate(265.473238 303.028562)scale(0.1 -0.1)">
       <use xlink:href="#DejaVuSans-50"/>
       <use x="63.623047" xlink:href="#DejaVuSans-48"/>
       <use x="127.246094" xlink:href="#DejaVuSans-48"/>
      </g>
     </g>
    </g>
    <g id="xtick_6">
     <g id="line2d_6">
      <g>
       <use style="stroke:#000000;stroke-width:0.8;" x="328.76774" xlink:href="#me94ff73ea4" y="288.430125"/>
      </g>
     </g>
     <g id="text_6">
      <!-- 250 -->
      <g transform="translate(319.22399 303.028562)scale(0.1 -0.1)">
       <use xlink:href="#DejaVuSans-50"/>
       <use x="63.623047" xlink:href="#DejaVuSans-53"/>
       <use x="127.246094" xlink:href="#DejaVuSans-48"/>
      </g>
     </g>
    </g>
    <g id="xtick_7">
     <g id="line2d_7">
      <g>
       <use style="stroke:#000000;stroke-width:0.8;" x="382.518493" xlink:href="#me94ff73ea4" y="288.430125"/>
      </g>
     </g>
     <g id="text_7">
      <!-- 300 -->
      <defs>
       <path d="M 40.578125 39.3125 
Q 47.65625 37.796875 51.625 33 
Q 55.609375 28.21875 55.609375 21.1875 
Q 55.609375 10.40625 48.1875 4.484375 
Q 40.765625 -1.421875 27.09375 -1.421875 
Q 22.515625 -1.421875 17.65625 -0.515625 
Q 12.796875 0.390625 7.625 2.203125 
L 7.625 11.71875 
Q 11.71875 9.328125 16.59375 8.109375 
Q 21.484375 6.890625 26.8125 6.890625 
Q 36.078125 6.890625 40.9375 10.546875 
Q 45.796875 14.203125 45.796875 21.1875 
Q 45.796875 27.640625 41.28125 31.265625 
Q 36.765625 34.90625 28.71875 34.90625 
L 20.21875 34.90625 
L 20.21875 43.015625 
L 29.109375 43.015625 
Q 36.375 43.015625 40.234375 45.921875 
Q 44.09375 48.828125 44.09375 54.296875 
Q 44.09375 59.90625 40.109375 62.90625 
Q 36.140625 65.921875 28.71875 65.921875 
Q 24.65625 65.921875 20.015625 65.03125 
Q 15.375 64.15625 9.8125 62.3125 
L 9.8125 71.09375 
Q 15.4375 72.65625 20.34375 73.4375 
Q 25.25 74.21875 29.59375 74.21875 
Q 40.828125 74.21875 47.359375 69.109375 
Q 53.90625 64.015625 53.90625 55.328125 
Q 53.90625 49.265625 50.4375 45.09375 
Q 46.96875 40.921875 40.578125 39.3125 
z
" id="DejaVuSans-51"/>
      </defs>
      <g transform="translate(372.974743 303.028562)scale(0.1 -0.1)">
       <use xlink:href="#DejaVuSans-51"/>
       <use x="63.623047" xlink:href="#DejaVuSans-48"/>
       <use x="127.246094" xlink:href="#DejaVuSans-48"/>
      </g>
     </g>
    </g>
    <g id="text_8">
     <!-- Epoch -->
     <defs>
      <path d="M 9.8125 72.90625 
L 55.90625 72.90625 
L 55.90625 64.59375 
L 19.671875 64.59375 
L 19.671875 43.015625 
L 54.390625 43.015625 
L 54.390625 34.71875 
L 19.671875 34.71875 
L 19.671875 8.296875 
L 56.78125 8.296875 
L 56.78125 0 
L 9.8125 0 
z
" id="DejaVuSans-69"/>
      <path d="M 18.109375 8.203125 
L 18.109375 -20.796875 
L 9.078125 -20.796875 
L 9.078125 54.6875 
L 18.109375 54.6875 
L 18.109375 46.390625 
Q 20.953125 51.265625 25.265625 53.625 
Q 29.59375 56 35.59375 56 
Q 45.5625 56 51.78125 48.09375 
Q 58.015625 40.1875 58.015625 27.296875 
Q 58.015625 14.40625 51.78125 6.484375 
Q 45.5625 -1.421875 35.59375 -1.421875 
Q 29.59375 -1.421875 25.265625 0.953125 
Q 20.953125 3.328125 18.109375 8.203125 
z
M 48.6875 27.296875 
Q 48.6875 37.203125 44.609375 42.84375 
Q 40.53125 48.484375 33.40625 48.484375 
Q 26.265625 48.484375 22.1875 42.84375 
Q 18.109375 37.203125 18.109375 27.296875 
Q 18.109375 17.390625 22.1875 11.75 
Q 26.265625 6.109375 33.40625 6.109375 
Q 40.53125 6.109375 44.609375 11.75 
Q 48.6875 17.390625 48.6875 27.296875 
z
" id="DejaVuSans-112"/>
      <path d="M 30.609375 48.390625 
Q 23.390625 48.390625 19.1875 42.75 
Q 14.984375 37.109375 14.984375 27.296875 
Q 14.984375 17.484375 19.15625 11.84375 
Q 23.34375 6.203125 30.609375 6.203125 
Q 37.796875 6.203125 41.984375 11.859375 
Q 46.1875 17.53125 46.1875 27.296875 
Q 46.1875 37.015625 41.984375 42.703125 
Q 37.796875 48.390625 30.609375 48.390625 
z
M 30.609375 56 
Q 42.328125 56 49.015625 48.375 
Q 55.71875 40.765625 55.71875 27.296875 
Q 55.71875 13.875 49.015625 6.21875 
Q 42.328125 -1.421875 30.609375 -1.421875 
Q 18.84375 -1.421875 12.171875 6.21875 
Q 5.515625 13.875 5.515625 27.296875 
Q 5.515625 40.765625 12.171875 48.375 
Q 18.84375 56 30.609375 56 
z
" id="DejaVuSans-111"/>
      <path d="M 48.78125 52.59375 
L 48.78125 44.1875 
Q 44.96875 46.296875 41.140625 47.34375 
Q 37.3125 48.390625 33.40625 48.390625 
Q 24.65625 48.390625 19.8125 42.84375 
Q 14.984375 37.3125 14.984375 27.296875 
Q 14.984375 17.28125 19.8125 11.734375 
Q 24.65625 6.203125 33.40625 6.203125 
Q 37.3125 6.203125 41.140625 7.25 
Q 44.96875 8.296875 48.78125 10.40625 
L 48.78125 2.09375 
Q 45.015625 0.34375 40.984375 -0.53125 
Q 36.96875 -1.421875 32.421875 -1.421875 
Q 20.0625 -1.421875 12.78125 6.34375 
Q 5.515625 14.109375 5.515625 27.296875 
Q 5.515625 40.671875 12.859375 48.328125 
Q 20.21875 56 33.015625 56 
Q 37.15625 56 41.109375 55.140625 
Q 45.0625 54.296875 48.78125 52.59375 
z
" id="DejaVuSans-99"/>
      <path d="M 54.890625 33.015625 
L 54.890625 0 
L 45.90625 0 
L 45.90625 32.71875 
Q 45.90625 40.484375 42.875 44.328125 
Q 39.84375 48.1875 33.796875 48.1875 
Q 26.515625 48.1875 22.3125 43.546875 
Q 18.109375 38.921875 18.109375 30.90625 
L 18.109375 0 
L 9.078125 0 
L 9.078125 75.984375 
L 18.109375 75.984375 
L 18.109375 46.1875 
Q 21.34375 51.125 25.703125 53.5625 
Q 30.078125 56 35.796875 56 
Q 45.21875 56 50.046875 50.171875 
Q 54.890625 44.34375 54.890625 33.015625 
z
" id="DejaVuSans-104"/>
     </defs>
     <g transform="translate(207.030313 316.706687)scale(0.1 -0.1)">
      <use xlink:href="#DejaVuSans-69"/>
      <use x="63.183594" xlink:href="#DejaVuSans-112"/>
      <use x="126.660156" xlink:href="#DejaVuSans-111"/>
      <use x="187.841797" xlink:href="#DejaVuSans-99"/>
      <use x="242.822266" xlink:href="#DejaVuSans-104"/>
     </g>
    </g>
   </g>
   <g id="matplotlib.axis_2">
    <g id="ytick_1">
     <g id="line2d_8">
      <defs>
       <path d="M 0 0 
L -3.5 0 
" id="m6ef17caa8d" style="stroke:#000000;stroke-width:0.8;"/>
      </defs>
      <g>
       <use style="stroke:#000000;stroke-width:0.8;" x="43.78125" xlink:href="#m6ef17caa8d" y="276.334125"/>
      </g>
     </g>
     <g id="text_9">
      <!-- 0.0 -->
      <defs>
       <path d="M 10.6875 12.40625 
L 21 12.40625 
L 21 0 
L 10.6875 0 
z
" id="DejaVuSans-46"/>
      </defs>
      <g transform="translate(20.878125 280.133344)scale(0.1 -0.1)">
       <use xlink:href="#DejaVuSans-48"/>
       <use x="63.623047" xlink:href="#DejaVuSans-46"/>
       <use x="95.410156" xlink:href="#DejaVuSans-48"/>
      </g>
     </g>
    </g>
    <g id="ytick_2">
     <g id="line2d_9">
      <g>
       <use style="stroke:#000000;stroke-width:0.8;" x="43.78125" xlink:href="#m6ef17caa8d" y="228.221274"/>
      </g>
     </g>
     <g id="text_10">
      <!-- 0.2 -->
      <g transform="translate(20.878125 232.020493)scale(0.1 -0.1)">
       <use xlink:href="#DejaVuSans-48"/>
       <use x="63.623047" xlink:href="#DejaVuSans-46"/>
       <use x="95.410156" xlink:href="#DejaVuSans-50"/>
      </g>
     </g>
    </g>
    <g id="ytick_3">
     <g id="line2d_10">
      <g>
       <use style="stroke:#000000;stroke-width:0.8;" x="43.78125" xlink:href="#m6ef17caa8d" y="180.108424"/>
      </g>
     </g>
     <g id="text_11">
      <!-- 0.4 -->
      <defs>
       <path d="M 37.796875 64.3125 
L 12.890625 25.390625 
L 37.796875 25.390625 
z
M 35.203125 72.90625 
L 47.609375 72.90625 
L 47.609375 25.390625 
L 58.015625 25.390625 
L 58.015625 17.1875 
L 47.609375 17.1875 
L 47.609375 0 
L 37.796875 0 
L 37.796875 17.1875 
L 4.890625 17.1875 
L 4.890625 26.703125 
z
" id="DejaVuSans-52"/>
      </defs>
      <g transform="translate(20.878125 183.907643)scale(0.1 -0.1)">
       <use xlink:href="#DejaVuSans-48"/>
       <use x="63.623047" xlink:href="#DejaVuSans-46"/>
       <use x="95.410156" xlink:href="#DejaVuSans-52"/>
      </g>
     </g>
    </g>
    <g id="ytick_4">
     <g id="line2d_11">
      <g>
       <use style="stroke:#000000;stroke-width:0.8;" x="43.78125" xlink:href="#m6ef17caa8d" y="131.995573"/>
      </g>
     </g>
     <g id="text_12">
      <!-- 0.6 -->
      <defs>
       <path d="M 33.015625 40.375 
Q 26.375 40.375 22.484375 35.828125 
Q 18.609375 31.296875 18.609375 23.390625 
Q 18.609375 15.53125 22.484375 10.953125 
Q 26.375 6.390625 33.015625 6.390625 
Q 39.65625 6.390625 43.53125 10.953125 
Q 47.40625 15.53125 47.40625 23.390625 
Q 47.40625 31.296875 43.53125 35.828125 
Q 39.65625 40.375 33.015625 40.375 
z
M 52.59375 71.296875 
L 52.59375 62.3125 
Q 48.875 64.0625 45.09375 64.984375 
Q 41.3125 65.921875 37.59375 65.921875 
Q 27.828125 65.921875 22.671875 59.328125 
Q 17.53125 52.734375 16.796875 39.40625 
Q 19.671875 43.65625 24.015625 45.921875 
Q 28.375 48.1875 33.59375 48.1875 
Q 44.578125 48.1875 50.953125 41.515625 
Q 57.328125 34.859375 57.328125 23.390625 
Q 57.328125 12.15625 50.6875 5.359375 
Q 44.046875 -1.421875 33.015625 -1.421875 
Q 20.359375 -1.421875 13.671875 8.265625 
Q 6.984375 17.96875 6.984375 36.375 
Q 6.984375 53.65625 15.1875 63.9375 
Q 23.390625 74.21875 37.203125 74.21875 
Q 40.921875 74.21875 44.703125 73.484375 
Q 48.484375 72.75 52.59375 71.296875 
z
" id="DejaVuSans-54"/>
      </defs>
      <g transform="translate(20.878125 135.794792)scale(0.1 -0.1)">
       <use xlink:href="#DejaVuSans-48"/>
       <use x="63.623047" xlink:href="#DejaVuSans-46"/>
       <use x="95.410156" xlink:href="#DejaVuSans-54"/>
      </g>
     </g>
    </g>
    <g id="ytick_5">
     <g id="line2d_12">
      <g>
       <use style="stroke:#000000;stroke-width:0.8;" x="43.78125" xlink:href="#m6ef17caa8d" y="83.882723"/>
      </g>
     </g>
     <g id="text_13">
      <!-- 0.8 -->
      <defs>
       <path d="M 31.78125 34.625 
Q 24.75 34.625 20.71875 30.859375 
Q 16.703125 27.09375 16.703125 20.515625 
Q 16.703125 13.921875 20.71875 10.15625 
Q 24.75 6.390625 31.78125 6.390625 
Q 38.8125 6.390625 42.859375 10.171875 
Q 46.921875 13.96875 46.921875 20.515625 
Q 46.921875 27.09375 42.890625 30.859375 
Q 38.875 34.625 31.78125 34.625 
z
M 21.921875 38.8125 
Q 15.578125 40.375 12.03125 44.71875 
Q 8.5 49.078125 8.5 55.328125 
Q 8.5 64.0625 14.71875 69.140625 
Q 20.953125 74.21875 31.78125 74.21875 
Q 42.671875 74.21875 48.875 69.140625 
Q 55.078125 64.0625 55.078125 55.328125 
Q 55.078125 49.078125 51.53125 44.71875 
Q 48 40.375 41.703125 38.8125 
Q 48.828125 37.15625 52.796875 32.3125 
Q 56.78125 27.484375 56.78125 20.515625 
Q 56.78125 9.90625 50.3125 4.234375 
Q 43.84375 -1.421875 31.78125 -1.421875 
Q 19.734375 -1.421875 13.25 4.234375 
Q 6.78125 9.90625 6.78125 20.515625 
Q 6.78125 27.484375 10.78125 32.3125 
Q 14.796875 37.15625 21.921875 38.8125 
z
M 18.3125 54.390625 
Q 18.3125 48.734375 21.84375 45.5625 
Q 25.390625 42.390625 31.78125 42.390625 
Q 38.140625 42.390625 41.71875 45.5625 
Q 45.3125 48.734375 45.3125 54.390625 
Q 45.3125 60.0625 41.71875 63.234375 
Q 38.140625 66.40625 31.78125 66.40625 
Q 25.390625 66.40625 21.84375 63.234375 
Q 18.3125 60.0625 18.3125 54.390625 
z
" id="DejaVuSans-56"/>
      </defs>
      <g transform="translate(20.878125 87.681942)scale(0.1 -0.1)">
       <use xlink:href="#DejaVuSans-48"/>
       <use x="63.623047" xlink:href="#DejaVuSans-46"/>
       <use x="95.410156" xlink:href="#DejaVuSans-56"/>
      </g>
     </g>
    </g>
    <g id="ytick_6">
     <g id="line2d_13">
      <g>
       <use style="stroke:#000000;stroke-width:0.8;" x="43.78125" xlink:href="#m6ef17caa8d" y="35.769872"/>
      </g>
     </g>
     <g id="text_14">
      <!-- 1.0 -->
      <g transform="translate(20.878125 39.569091)scale(0.1 -0.1)">
       <use xlink:href="#DejaVuSans-49"/>
       <use x="63.623047" xlink:href="#DejaVuSans-46"/>
       <use x="95.410156" xlink:href="#DejaVuSans-48"/>
      </g>
     </g>
    </g>
    <g id="text_15">
     <!-- Loss -->
     <defs>
      <path d="M 9.8125 72.90625 
L 19.671875 72.90625 
L 19.671875 8.296875 
L 55.171875 8.296875 
L 55.171875 0 
L 9.8125 0 
z
" id="DejaVuSans-76"/>
      <path d="M 44.28125 53.078125 
L 44.28125 44.578125 
Q 40.484375 46.53125 36.375 47.5 
Q 32.28125 48.484375 27.875 48.484375 
Q 21.1875 48.484375 17.84375 46.4375 
Q 14.5 44.390625 14.5 40.28125 
Q 14.5 37.15625 16.890625 35.375 
Q 19.28125 33.59375 26.515625 31.984375 
L 29.59375 31.296875 
Q 39.15625 29.25 43.1875 25.515625 
Q 47.21875 21.78125 47.21875 15.09375 
Q 47.21875 7.46875 41.1875 3.015625 
Q 35.15625 -1.421875 24.609375 -1.421875 
Q 20.21875 -1.421875 15.453125 -0.5625 
Q 10.6875 0.296875 5.421875 2 
L 5.421875 11.28125 
Q 10.40625 8.6875 15.234375 7.390625 
Q 20.0625 6.109375 24.8125 6.109375 
Q 31.15625 6.109375 34.5625 8.28125 
Q 37.984375 10.453125 37.984375 14.40625 
Q 37.984375 18.0625 35.515625 20.015625 
Q 33.0625 21.96875 24.703125 23.78125 
L 21.578125 24.515625 
Q 13.234375 26.265625 9.515625 29.90625 
Q 5.8125 33.546875 5.8125 39.890625 
Q 5.8125 47.609375 11.28125 51.796875 
Q 16.75 56 26.8125 56 
Q 31.78125 56 36.171875 55.265625 
Q 40.578125 54.546875 44.28125 53.078125 
z
" id="DejaVuSans-115"/>
     </defs>
     <g transform="translate(14.798438 166.428031)rotate(-90)scale(0.1 -0.1)">
      <use xlink:href="#DejaVuSans-76"/>
      <use x="55.697266" xlink:href="#DejaVuSans-111"/>
      <use x="116.878906" xlink:href="#DejaVuSans-115"/>
      <use x="168.978516" xlink:href="#DejaVuSans-115"/>
     </g>
    </g>
   </g>
   <g id="line2d_14">
    <path clip-path="url(#pba5b2dbcb0)" d="M 60.013977 199.950402 
L 61.088992 252.193927 
L 62.164007 276.334125 
L 63.239022 212.955128 
L 64.314037 243.92646 
L 65.389053 256.535263 
L 66.464068 168.521373 
L 67.539083 203.405176 
L 68.614098 222.43203 
L 69.689113 165.188479 
L 70.764128 200.445911 
L 71.839143 212.237768 
L 72.914158 153.052691 
L 73.989173 175.055135 
L 75.064188 185.188379 
L 76.139203 122.605581 
L 77.214218 140.75621 
L 78.289233 150.049294 
L 79.364248 69.054323 
L 80.439263 61.700546 
L 81.514278 67.476214 
L 82.589293 94.975066 
L 83.664308 108.883867 
L 84.739323 110.414216 
L 85.814339 70.340559 
L 86.889354 69.565506 
L 87.964369 74.304767 
L 89.039384 67.156773 
L 90.114399 71.789333 
L 91.189414 72.435431 
L 92.264429 65.05603 
L 93.339444 72.999187 
L 94.414459 75.516077 
L 95.489474 63.550266 
L 96.564489 77.01069 
L 97.639504 79.137441 
L 98.714519 58.298673 
L 99.789534 63.867544 
L 100.864549 63.678915 
L 101.939564 68.222414 
L 103.014579 81.14736 
L 104.089594 84.037929 
L 105.164609 66.24236 
L 106.239624 72.742283 
L 107.31464 72.93302 
L 108.389655 57.820673 
L 109.46467 62.175972 
L 110.539685 63.620337 
L 111.6147 69.510897 
L 112.689715 62.525096 
L 113.76473 67.480179 
L 114.839745 63.143694 
L 115.91476 57.510497 
L 116.989775 60.966722 
L 118.06479 87.690503 
L 119.139805 87.098194 
L 120.21482 85.779823 
L 121.289835 54.146962 
L 122.36485 65.802769 
L 123.439865 67.173741 
L 124.51488 76.640714 
L 125.589895 67.579151 
L 126.66491 69.215812 
L 127.739925 54.987196 
L 128.814941 69.45614 
L 129.889956 74.7571 
L 130.964971 60.542466 
L 132.039986 59.561722 
L 133.115001 60.914931 
L 134.190016 69.373796 
L 136.340046 71.685184 
L 137.415061 64.888056 
L 138.490076 66.475989 
L 139.565091 71.515983 
L 140.640106 56.817253 
L 141.715121 63.221766 
L 142.790136 65.063444 
L 143.865151 62.665457 
L 144.940166 67.347814 
L 146.015181 67.758618 
L 147.090196 56.614524 
L 148.165211 58.65274 
L 149.240227 64.441874 
L 150.315242 56.388791 
L 151.390257 60.923628 
L 152.465272 60.093748 
L 153.540287 53.144953 
L 154.615302 64.00734 
L 155.690317 69.764156 
L 156.765332 56.085797 
L 157.840347 69.013298 
L 158.915362 70.934077 
L 159.990377 61.743527 
L 161.065392 69.077655 
L 162.140407 70.239589 
L 163.215422 52.696717 
L 164.290437 60.207188 
L 165.365452 61.59425 
L 166.440467 54.241758 
L 167.515482 61.164092 
L 168.590497 63.517219 
L 169.665512 55.737331 
L 170.740528 53.998981 
L 171.815543 54.335411 
L 172.890558 62.989645 
L 173.965573 64.451273 
L 175.040588 64.650598 
L 176.115603 60.381007 
L 177.190618 67.546994 
L 178.265633 67.338946 
L 179.340648 54.277604 
L 180.415663 65.747109 
L 181.490678 69.304435 
L 182.565693 59.343525 
L 183.640708 55.961657 
L 184.715723 56.695457 
L 185.790738 55.441606 
L 186.865753 68.405426 
L 187.940768 72.482794 
L 189.015783 55.834783 
L 190.090798 59.742854 
L 191.165814 60.910207 
L 192.240829 60.93506 
L 193.315844 57.841371 
L 194.390859 59.908668 
L 195.465874 57.394393 
L 196.540889 59.998693 
L 197.615904 62.022361 
L 198.690919 56.072845 
L 199.765934 63.222042 
L 200.840949 68.010628 
L 201.915964 61.310364 
L 202.990979 79.555444 
L 204.065994 79.038105 
L 205.141009 66.262318 
L 206.216024 71.490167 
L 207.291039 72.412337 
L 208.366054 66.110232 
L 209.441069 72.818812 
L 210.516084 71.404296 
L 211.591099 35.769872 
L 212.666115 47.914901 
L 213.74113 56.978366 
L 214.816145 69.71566 
L 215.89116 86.02923 
L 216.966175 91.310674 
L 218.04119 45.801278 
L 219.116205 54.595343 
L 220.19122 60.126689 
L 221.266235 50.741398 
L 222.34125 55.381972 
L 223.416265 56.628046 
L 224.49128 56.172111 
L 225.566295 62.532089 
L 226.64131 66.537625 
L 227.716325 63.231406 
L 228.79134 77.282605 
L 229.866355 74.299593 
L 230.94137 68.692541 
L 232.016385 79.042316 
L 233.091401 80.243167 
L 234.166416 55.827014 
L 235.241431 67.768687 
L 236.316446 66.755217 
L 237.391461 60.448984 
L 238.466476 62.566713 
L 239.541491 62.940001 
L 240.616506 59.979966 
L 241.691521 64.410292 
L 242.766536 65.064968 
L 243.841551 59.711196 
L 244.916566 66.131855 
L 245.991581 68.012183 
L 247.066596 54.408181 
L 249.216626 57.988769 
L 250.291641 58.700793 
L 251.366656 68.587298 
L 252.441671 68.457146 
L 253.516686 62.155247 
L 254.591702 62.507311 
L 255.666717 65.41262 
L 256.741732 72.877991 
L 257.816747 74.539977 
L 258.891762 73.983554 
L 259.966777 59.348301 
L 261.041792 59.835319 
L 262.116807 62.298908 
L 263.191822 51.584857 
L 264.266837 57.260911 
L 265.341852 60.053099 
L 266.416867 59.581172 
L 267.491882 64.468616 
L 268.566897 66.656363 
L 269.641912 58.390622 
L 270.716927 62.618981 
L 271.791942 64.460071 
L 272.866957 64.76578 
L 273.941972 74.426874 
L 275.016988 74.970976 
L 276.092003 56.459498 
L 277.167018 61.155925 
L 278.242033 62.101204 
L 279.317048 50.167926 
L 280.392063 59.11455 
L 281.467078 60.103694 
L 282.542093 55.958686 
L 283.617108 64.996873 
L 284.692123 67.334731 
L 285.767138 52.010519 
L 286.842153 58.351945 
L 287.917168 59.554991 
L 288.992183 47.631642 
L 290.067198 58.109374 
L 291.142213 58.525125 
L 292.217228 60.813474 
L 293.292243 71.450552 
L 294.367258 69.999585 
L 295.442273 69.16052 
L 296.517289 72.566317 
L 297.592304 71.907705 
L 298.667319 66.003136 
L 299.742334 78.079935 
L 300.817349 77.907811 
L 301.892364 57.649833 
L 302.967379 62.074204 
L 304.042394 63.033492 
L 305.117409 54.629055 
L 306.192424 63.149215 
L 307.267439 64.471354 
L 308.342454 57.048262 
L 309.417469 63.443626 
L 310.492484 66.377494 
L 311.567499 53.321156 
L 312.642514 63.23198 
L 313.717529 59.3205 
L 314.792544 59.998715 
L 315.867559 79.172976 
L 316.942575 63.483411 
L 318.01759 85.883703 
L 319.092605 91.675997 
L 320.16762 89.749404 
L 321.242635 64.334115 
L 322.31765 70.909759 
L 323.392665 72.474079 
L 324.46768 59.207971 
L 325.542695 65.90802 
L 326.61771 69.948968 
L 327.692725 39.199242 
L 328.76774 53.848494 
L 329.842755 58.959208 
L 330.91777 59.778542 
L 331.992785 65.651791 
L 333.0678 67.824606 
L 334.142815 64.41583 
L 335.21783 69.982273 
L 336.292845 71.678283 
L 337.36786 62.974454 
L 338.442876 70.134922 
L 339.517891 70.828653 
L 340.592906 56.900855 
L 341.667921 60.568357 
L 342.742936 61.179108 
L 343.817951 58.74262 
L 344.892966 67.226338 
L 345.967981 67.183893 
L 347.042996 58.642903 
L 348.118011 63.136929 
L 349.193026 64.202059 
L 350.268041 57.483235 
L 351.343056 62.080159 
L 352.418071 64.754907 
L 353.493086 58.277247 
L 354.568101 65.203875 
L 355.643116 68.936562 
L 356.718131 61.981717 
L 357.793146 74.300925 
L 358.868161 70.824536 
L 359.943177 63.23506 
L 361.018192 68.886669 
L 362.093207 69.556795 
L 363.168222 52.69131 
L 364.243237 63.725018 
L 365.318252 64.510377 
L 366.393267 62.123257 
L 367.468282 68.461962 
L 368.543297 69.563271 
L 369.618312 67.196306 
L 370.693327 76.964232 
L 371.768342 79.073035 
L 372.843357 55.59038 
L 373.918372 61.924489 
L 374.993387 64.933038 
L 376.068402 54.052297 
L 377.143417 56.146242 
L 378.218432 57.230616 
L 379.293447 58.530707 
L 380.368463 65.145292 
L 381.443478 65.087626 
L 382.518493 55.08587 
L 383.593508 59.307114 
L 384.668523 62.340209 
L 384.668523 62.340209 
" style="fill:none;stroke:#1f77b4;stroke-linecap:square;stroke-opacity:0.3;stroke-width:1.5;"/>
   </g>
   <g id="line2d_15">
    <path clip-path="url(#pba5b2dbcb0)" d="M 60.013977 211.382618 
L 61.088992 239.085435 
L 62.164007 251.030209 
L 63.239022 250.711187 
L 64.314037 241.622618 
L 65.389053 227.258747 
L 66.464068 209.841335 
L 67.539083 205.04261 
L 68.614098 201.509362 
L 69.689113 189.949471 
L 71.839143 190.66493 
L 72.914158 177.087019 
L 73.989173 173.549819 
L 75.064188 167.730089 
L 77.214218 126.60934 
L 78.289233 111.45313 
L 79.364248 93.809232 
L 80.439263 87.992761 
L 81.514278 88.312298 
L 82.589293 82.775429 
L 83.664308 83.215013 
L 84.739323 89.889799 
L 85.814339 87.591883 
L 86.889354 82.235641 
L 87.964369 73.353214 
L 89.039384 67.637982 
L 90.114399 67.724302 
L 91.189414 70.1586 
L 92.264429 69.767391 
L 93.339444 71.743876 
L 94.414459 72.53336 
L 95.489474 71.662299 
L 96.564489 70.372972 
L 98.714519 66.347823 
L 99.789534 68.25665 
L 100.864549 69.807035 
L 101.939564 69.67699 
L 103.014579 72.815798 
L 104.089594 75.421231 
L 105.164609 74.092494 
L 107.31464 68.683379 
L 108.389655 64.908706 
L 109.46467 63.916237 
L 110.539685 65.207032 
L 111.6147 63.89711 
L 112.689715 61.472136 
L 113.76473 62.797063 
L 114.839745 64.305037 
L 115.91476 69.9112 
L 118.06479 74.172767 
L 119.139805 73.837714 
L 120.21482 75.127161 
L 121.289835 74.643637 
L 122.36485 72.955761 
L 123.439865 67.095838 
L 124.51488 64.868962 
L 125.589895 66.525696 
L 126.66491 69.522179 
L 127.739925 67.548596 
L 128.814941 65.151344 
L 129.889956 63.252147 
L 130.964971 63.830495 
L 132.039986 65.088065 
L 133.115001 66.620098 
L 134.190016 65.248825 
L 136.340046 68.887214 
L 137.415061 68.459219 
L 138.490076 67.342006 
L 139.565091 64.930983 
L 140.640106 63.715701 
L 141.715121 64.304226 
L 142.790136 64.617695 
L 143.865151 63.372708 
L 144.940166 63.390667 
L 146.015181 63.753768 
L 147.090196 62.199644 
L 148.165211 61.650994 
L 150.315242 57.860354 
L 151.390257 59.198788 
L 152.465272 59.796149 
L 153.540287 59.805833 
L 155.690317 63.119322 
L 156.765332 63.999207 
L 157.840347 67.11335 
L 158.915362 67.745474 
L 159.990377 65.965324 
L 161.065392 65.374421 
L 162.140407 64.369501 
L 163.215422 61.03738 
L 164.290437 60.246869 
L 165.365452 60.12564 
L 166.440467 58.560784 
L 167.515482 57.397076 
L 168.590497 58.120541 
L 169.665512 57.3407 
L 170.740528 58.244735 
L 171.815543 58.985559 
L 172.890558 59.285912 
L 173.965573 61.977791 
L 175.040588 63.406909 
L 176.115603 63.807951 
L 177.190618 64.73925 
L 178.265633 64.464336 
L 179.340648 63.973873 
L 180.415663 63.259264 
L 182.565693 58.882832 
L 183.640708 60.477016 
L 184.715723 61.647054 
L 185.790738 60.547907 
L 186.865753 60.799486 
L 187.940768 62.570949 
L 189.015783 62.888349 
L 190.090798 62.506531 
L 191.165814 61.079673 
L 192.240829 58.585838 
L 193.315844 58.655272 
L 194.390859 59.49052 
L 195.465874 58.548554 
L 196.540889 59.349595 
L 197.615904 58.824452 
L 198.690919 60.359397 
L 199.765934 63.836481 
L 200.840949 66.608824 
L 201.915964 68.731201 
L 202.990979 71.341421 
L 204.065994 72.607975 
L 205.141009 72.389093 
L 206.216024 75.033409 
L 207.291039 73.018679 
L 208.366054 66.805877 
L 209.441069 61.7821 
L 210.516084 57.868796 
L 211.591099 55.253659 
L 212.666115 60.473117 
L 213.74113 63.491419 
L 214.816145 64.710923 
L 215.89116 68.183878 
L 216.966175 71.181666 
L 218.04119 67.517448 
L 219.116205 62.574118 
L 220.19122 56.432174 
L 221.266235 51.916394 
L 222.34125 52.619553 
L 223.416265 56.943964 
L 224.49128 58.350794 
L 226.64131 65.034104 
L 227.716325 67.558166 
L 228.79134 72.657963 
L 229.866355 74.016738 
L 230.94137 73.791653 
L 232.016385 73.437576 
L 233.091401 71.803622 
L 234.166416 68.362797 
L 235.241431 66.707471 
L 236.316446 64.429426 
L 237.391461 61.704958 
L 238.466476 61.872694 
L 239.541491 63.095009 
L 240.616506 61.625053 
L 241.691521 63.301231 
L 242.766536 64.183065 
L 243.841551 63.489954 
L 244.916566 62.580436 
L 245.991581 60.767496 
L 247.066596 59.368342 
L 248.141611 59.874756 
L 249.216626 60.740087 
L 250.291641 60.664246 
L 251.366656 61.315371 
L 252.441671 63.840366 
L 253.516686 65.442817 
L 254.591702 68.295106 
L 255.666717 69.411586 
L 256.741732 68.645487 
L 257.816747 69.371987 
L 258.891762 68.381178 
L 259.966777 65.577901 
L 261.041792 62.246554 
L 262.116807 58.531838 
L 263.191822 56.648662 
L 264.266837 57.625827 
L 265.341852 59.474111 
L 266.416867 60.143096 
L 268.566897 62.295571 
L 269.641912 62.641518 
L 270.716927 65.474575 
L 271.791942 66.608611 
L 272.866957 66.60039 
L 273.941972 67.669411 
L 275.016988 66.92089 
L 276.092003 64.408463 
L 277.167018 62.240404 
L 278.242033 58.969977 
L 279.317048 56.216027 
L 280.392063 57.724198 
L 281.467078 59.538972 
L 282.542093 59.319599 
L 283.617108 60.799299 
L 284.692123 60.691284 
L 285.767138 58.66564 
L 286.842153 57.322883 
L 287.917168 55.67525 
L 288.992183 54.874106 
L 290.067198 56.61981 
L 291.142213 60.088984 
L 292.217228 62.490615 
L 293.292243 66.34778 
L 294.367258 68.939252 
L 295.442273 69.779253 
L 296.517289 73.048614 
L 297.592304 73.298563 
L 298.667319 71.754895 
L 299.742334 71.338932 
L 300.817349 68.744645 
L 301.892364 65.77185 
L 302.967379 64.226073 
L 304.042394 61.932267 
L 305.117409 59.000906 
L 307.267439 61.450932 
L 308.342454 61.248218 
L 309.417469 61.303237 
L 310.492484 60.031411 
L 311.567499 60.577144 
L 312.642514 60.038781 
L 313.717529 61.717367 
L 314.792544 64.683556 
L 315.867559 71.878675 
L 316.942575 77.424702 
L 318.01759 79.463829 
L 319.092605 82.192598 
L 320.16762 80.667158 
L 321.242635 76.288176 
L 322.31765 76.271634 
L 323.392665 68.860224 
L 324.46768 63.025266 
L 325.542695 59.758631 
L 326.61771 58.590049 
L 327.692725 55.915292 
L 328.76774 55.927534 
L 329.842755 57.367984 
L 330.91777 58.387868 
L 331.992785 62.321118 
L 333.0678 67.083899 
L 334.142815 67.270777 
L 335.21783 69.148207 
L 336.292845 69.237676 
L 338.442876 66.833547 
L 340.592906 62.540568 
L 342.742936 62.292265 
L 343.817951 61.264662 
L 345.967981 63.53844 
L 347.042996 62.812029 
L 348.118011 63.032005 
L 349.193026 62.118261 
L 350.268041 60.564949 
L 351.343056 61.51389 
L 352.418071 61.857363 
L 353.493086 62.526197 
L 354.568101 64.805905 
L 355.643116 66.458866 
L 356.718131 67.003887 
L 357.793146 69.255888 
L 358.868161 69.111906 
L 359.943177 67.272025 
L 361.018192 65.970722 
L 362.093207 64.452055 
L 363.168222 62.190742 
L 364.243237 62.639082 
L 365.318252 62.869719 
L 366.393267 63.316395 
L 367.468282 67.863524 
L 368.543297 70.976229 
L 369.618312 70.28979 
L 370.693327 70.825868 
L 371.768342 69.566868 
L 373.918372 63.371129 
L 374.993387 59.868146 
L 376.068402 56.896135 
L 377.143417 57.601936 
L 378.218432 59.647354 
L 379.293447 58.975892 
L 381.443478 61.102413 
L 382.518493 61.613363 
L 383.593508 61.300832 
L 384.668523 59.823364 
L 384.668523 59.823364 
" style="fill:none;stroke:#1f77b4;stroke-linecap:square;stroke-width:1.5;"/>
   </g>
   <g id="line2d_16">
    <path clip-path="url(#pba5b2dbcb0)" d="M 60.013977 35.769872 
L 61.088992 150.729492 
L 62.164007 226.534333 
L 63.239022 153.044277 
L 64.314037 167.662971 
L 65.389053 170.367855 
L 66.464068 138.551792 
L 67.539083 170.545072 
L 68.614098 173.705456 
L 69.689113 118.858318 
L 71.839143 128.696777 
L 72.914158 161.388124 
L 73.989173 176.663966 
L 75.064188 180.852227 
L 76.139203 200.938064 
L 77.214218 203.471085 
L 78.289233 204.752387 
L 79.364248 232.953918 
L 80.439263 236.394894 
L 81.514278 237.050932 
L 82.589293 216.051049 
L 83.664308 217.173651 
L 84.739323 217.885324 
L 85.814339 220.374854 
L 86.889354 220.858337 
L 87.964369 221.151568 
L 89.039384 239.55359 
L 90.114399 242.079552 
L 91.189414 242.247276 
L 92.264429 217.551971 
L 93.339444 219.211517 
L 94.414459 219.529639 
L 95.489474 212.229203 
L 96.564489 212.481245 
L 97.639504 212.579598 
L 98.714519 211.980394 
L 100.864549 212.128773 
L 101.939564 214.293586 
L 104.089594 214.430663 
L 105.164609 214.890888 
L 106.239624 215.70822 
L 107.31464 216.326384 
L 108.389655 222.497303 
L 109.46467 222.969945 
L 110.539685 223.196371 
L 111.6147 245.856785 
L 112.689715 247.26937 
L 113.76473 247.890965 
L 114.839745 255.414544 
L 115.91476 256.051236 
L 116.989775 256.347885 
L 118.06479 263.341293 
L 119.139805 263.950772 
L 120.21482 264.354045 
L 121.289835 275.605814 
L 122.36485 276.128441 
L 123.439865 276.334125 
L 124.51488 250.253409 
L 125.589895 250.664484 
L 126.66491 250.83984 
L 127.739925 235.712427 
L 128.814941 236.330331 
L 130.964971 236.56031 
L 132.039986 238.30578 
L 133.115001 238.653414 
L 134.190016 215.941772 
L 135.265031 216.714984 
L 136.340046 217.039054 
L 137.415061 231.737799 
L 138.490076 232.371952 
L 139.565091 232.576285 
L 140.640106 209.822769 
L 141.715121 210.681003 
L 142.790136 211.105713 
L 143.865151 212.413616 
L 144.940166 213.061992 
L 146.015181 213.326301 
L 147.090196 217.305231 
L 148.165211 218.055336 
L 149.240227 218.520337 
L 150.315242 212.579983 
L 151.390257 213.171236 
L 152.465272 213.474746 
L 153.540287 227.425879 
L 154.615302 228.251635 
L 155.690317 228.63269 
L 156.765332 211.638746 
L 157.840347 212.162713 
L 158.915362 212.306182 
L 161.065392 213.670253 
L 162.140407 214.203235 
L 163.215422 214.084683 
L 165.365452 214.622055 
L 166.440467 215.173973 
L 168.590497 215.603006 
L 169.665512 214.486738 
L 171.815543 214.753083 
L 172.890558 218.657581 
L 173.965573 219.142254 
L 175.040588 219.368132 
L 176.115603 218.674857 
L 177.190618 219.886377 
L 178.265633 220.786352 
L 179.340648 222.32955 
L 180.415663 228.801591 
L 181.490678 229.184925 
L 182.565693 239.435444 
L 183.640708 241.326331 
L 184.715723 241.745042 
L 185.790738 253.937978 
L 186.865753 254.538062 
L 187.940768 254.885851 
L 189.015783 225.740594 
L 190.090798 227.162354 
L 191.165814 227.327602 
L 192.240829 220.073036 
L 193.315844 220.317555 
L 194.390859 220.443731 
L 195.465874 211.998273 
L 196.540889 212.280276 
L 197.615904 212.440762 
L 198.690919 213.529867 
L 200.840949 213.744199 
L 201.915964 216.959821 
L 204.065994 217.15459 
L 205.141009 222.148998 
L 206.216024 222.677465 
L 207.291039 222.912692 
L 208.366054 211.479785 
L 209.441069 211.838357 
L 210.516084 211.907386 
L 211.591099 242.175253 
L 212.666115 245.049976 
L 213.74113 245.23271 
L 214.816145 259.974026 
L 215.89116 261.183347 
L 216.966175 261.622625 
L 218.04119 247.19405 
L 219.116205 247.905996 
L 220.19122 248.114178 
L 221.266235 240.631347 
L 223.416265 240.915478 
L 224.49128 240.083426 
L 225.566295 240.935993 
L 226.64131 241.146463 
L 227.716325 228.340289 
L 228.79134 229.516046 
L 229.866355 230.078436 
L 230.94137 221.185768 
L 232.016385 222.891847 
L 233.091401 223.374459 
L 234.166416 212.913136 
L 235.241431 214.000532 
L 236.316446 214.438647 
L 237.391461 214.444571 
L 239.541491 214.972325 
L 240.616506 214.315713 
L 242.766536 214.408544 
L 243.841551 213.867569 
L 245.991581 214.079916 
L 247.066596 213.992874 
L 248.141611 214.266801 
L 249.216626 214.400543 
L 250.291641 215.420444 
L 252.441671 215.676584 
L 253.516686 217.91495 
L 255.666717 218.413615 
L 256.741732 213.619757 
L 258.891762 214.068329 
L 259.966777 216.286721 
L 261.041792 217.351077 
L 262.116807 217.935485 
L 263.191822 207.424235 
L 264.266837 210.26509 
L 265.341852 211.217093 
L 266.416867 214.459274 
L 267.491882 214.738379 
L 268.566897 214.873411 
L 269.641912 222.01175 
L 270.716927 222.948518 
L 271.791942 223.431151 
L 272.866957 221.042718 
L 273.941972 221.820935 
L 275.016988 222.170304 
L 276.092003 217.071813 
L 277.167018 217.999319 
L 278.242033 218.614953 
L 279.317048 226.250318 
L 280.392063 229.705579 
L 281.467078 230.595848 
L 282.542093 240.952602 
L 283.617108 241.316738 
L 284.692123 241.55711 
L 285.767138 233.304699 
L 286.842153 234.453432 
L 287.917168 234.923942 
L 288.992183 239.672025 
L 290.067198 240.419084 
L 291.142213 240.766421 
L 292.217228 226.614357 
L 293.292243 227.279171 
L 294.367258 227.580809 
L 295.442273 221.693377 
L 297.592304 222.1493 
L 298.667319 212.424751 
L 300.817349 212.558468 
L 301.892364 214.244054 
L 304.042394 215.142537 
L 305.117409 217.075952 
L 307.267439 217.442031 
L 308.342454 212.553516 
L 309.417469 213.158426 
L 310.492484 213.508343 
L 311.567499 231.435784 
L 312.642514 232.633588 
L 313.717529 233.267273 
L 314.792544 226.585838 
L 315.867559 227.225471 
L 316.942575 227.690439 
L 318.01759 244.244651 
L 319.092605 245.326052 
L 320.16762 245.774531 
L 321.242635 230.552984 
L 322.31765 231.628463 
L 323.392665 232.084172 
L 324.46768 224.559521 
L 325.542695 225.000812 
L 326.61771 225.229089 
L 327.692725 236.844169 
L 328.76774 239.566488 
L 329.842755 240.787266 
L 330.91777 224.431644 
L 331.992785 225.689688 
L 333.0678 226.485781 
L 334.142815 221.12955 
L 336.292845 221.469715 
L 337.36786 212.513644 
L 339.517891 213.098077 
L 340.592906 212.411815 
L 341.667921 213.822913 
L 342.742936 214.569281 
L 343.817951 215.55933 
L 345.967981 216.559215 
L 347.042996 210.915828 
L 348.118011 211.980268 
L 349.193026 212.660263 
L 350.268041 213.810438 
L 352.418071 213.852706 
L 353.493086 225.462667 
L 354.568101 225.980556 
L 355.643116 226.143445 
L 356.718131 225.585052 
L 357.793146 225.976748 
L 358.868161 226.222595 
L 359.943177 213.085594 
L 361.018192 213.506408 
L 364.243237 214.378307 
L 365.318252 214.559445 
L 366.393267 213.879223 
L 368.543297 213.915258 
L 369.618312 215.400973 
L 371.768342 215.604832 
L 372.843357 213.619271 
L 374.993387 213.786317 
L 376.068402 212.872552 
L 378.218432 212.928962 
L 379.293447 213.106581 
L 384.668523 213.449352 
L 384.668523 213.449352 
" style="fill:none;stroke:#ff7f0e;stroke-linecap:square;stroke-opacity:0.3;stroke-width:1.5;"/>
   </g>
   <g id="line2d_17">
    <path clip-path="url(#pba5b2dbcb0)" d="M 60.013977 64.096494 
L 61.088992 128.416683 
L 62.164007 167.561483 
L 63.239022 186.200845 
L 64.314037 189.00472 
L 65.389053 180.64306 
L 66.464068 162.195381 
L 67.539083 146.318023 
L 68.614098 144.848026 
L 69.689113 139.886692 
L 70.764128 139.256645 
L 72.914158 151.531055 
L 73.989173 162.93624 
L 75.064188 182.017159 
L 77.214218 209.998061 
L 78.289233 217.605098 
L 79.364248 223.569391 
L 80.439263 227.01304 
L 81.514278 227.011181 
L 82.589293 226.618393 
L 83.664308 222.733254 
L 84.739323 218.265402 
L 85.814339 218.741096 
L 87.964369 230.19897 
L 89.039384 232.324719 
L 90.114399 233.391581 
L 91.189414 232.00184 
L 92.264429 228.795037 
L 93.339444 223.91767 
L 94.414459 217.463777 
L 95.489474 213.537694 
L 96.564489 211.601303 
L 97.639504 212.57861 
L 98.714519 211.878357 
L 99.789534 211.971693 
L 100.864549 212.916585 
L 101.939564 213.348338 
L 103.014579 213.45082 
L 104.089594 214.25959 
L 105.164609 215.478347 
L 106.239624 215.061174 
L 107.31464 216.913946 
L 108.389655 220.919196 
L 109.46467 225.629034 
L 113.76473 249.14689 
L 114.839745 254.214466 
L 115.91476 256.830617 
L 116.989775 258.11965 
L 118.06479 261.729071 
L 119.139805 267.578738 
L 120.21482 270.045641 
L 121.289835 270.68136 
L 122.36485 270.402869 
L 123.439865 266.433064 
L 124.51488 260.813942 
L 125.589895 253.744536 
L 126.66491 245.764029 
L 127.739925 240.173584 
L 128.814941 238.980831 
L 129.889956 238.70599 
L 130.964971 235.326071 
L 132.039986 230.726371 
L 133.115001 228.415474 
L 134.190016 225.717676 
L 135.265031 226.059314 
L 136.340046 225.1439 
L 137.415061 223.718233 
L 138.490076 222.721189 
L 139.565091 222.906608 
L 140.640106 220.139587 
L 142.790136 212.078463 
L 143.865151 210.742651 
L 144.940166 212.071997 
L 146.015181 215.208289 
L 147.090196 215.860158 
L 148.165211 214.927567 
L 149.240227 214.928301 
L 150.315242 215.847664 
L 151.390257 218.842267 
L 152.465272 220.298195 
L 153.540287 221.163513 
L 154.615302 221.34783 
L 155.690317 221.109729 
L 156.765332 219.349634 
L 157.840347 216.77662 
L 158.915362 213.337173 
L 159.990377 211.976822 
L 161.065392 212.010928 
L 162.140407 213.854551 
L 165.365452 214.879088 
L 166.440467 214.992074 
L 167.515482 214.721141 
L 168.590497 214.798747 
L 169.665512 215.123744 
L 172.890558 217.086045 
L 173.965573 217.890716 
L 175.040588 218.41016 
L 176.115603 219.423008 
L 177.190618 219.93262 
L 178.265633 221.389536 
L 180.415663 227.142144 
L 181.490678 231.472635 
L 182.565693 236.462258 
L 183.640708 244.101627 
L 184.715723 248.041883 
L 185.790738 248.673943 
L 186.865753 247.768487 
L 187.940768 243.507817 
L 190.090798 232.810406 
L 191.165814 225.891406 
L 192.240829 220.809513 
L 193.315844 217.578784 
L 194.390859 217.398968 
L 195.465874 215.039002 
L 196.540889 213.274709 
L 197.615904 212.931179 
L 198.690919 212.715404 
L 199.765934 212.95152 
L 200.840949 214.618156 
L 201.915964 215.953554 
L 202.990979 218.481128 
L 204.065994 219.774663 
L 205.141009 220.136025 
L 206.216024 217.013098 
L 207.291039 215.928416 
L 208.366054 217.421405 
L 209.441069 219.391648 
L 210.516084 223.868883 
L 211.591099 231.100113 
L 213.74113 250.368753 
L 214.816145 255.825933 
L 215.89116 258.387311 
L 216.966175 255.764011 
L 218.04119 253.726034 
L 219.116205 250.464762 
L 220.19122 245.645451 
L 221.266235 242.643054 
L 222.34125 242.035221 
L 223.416265 241.764096 
L 224.49128 239.682826 
L 225.566295 238.417716 
L 226.64131 236.546541 
L 227.716325 233.373893 
L 228.79134 230.948114 
L 232.016385 221.08465 
L 233.091401 219.390727 
L 234.166416 216.863084 
L 235.241431 215.237721 
L 236.316446 214.745958 
L 237.391461 213.828047 
L 238.466476 213.804197 
L 239.541491 214.718505 
L 244.916566 213.932583 
L 248.141611 214.202474 
L 249.216626 214.582493 
L 250.291641 215.111419 
L 251.366656 216.200607 
L 252.441671 216.828094 
L 253.516686 217.009937 
L 254.591702 216.665468 
L 255.666717 216.134236 
L 256.741732 215.729317 
L 257.816747 216.341467 
L 258.891762 215.706148 
L 259.966777 214.93698 
L 261.041792 213.995331 
L 262.116807 213.650579 
L 263.191822 213.002544 
L 264.266837 211.90722 
L 265.341852 211.631181 
L 266.416867 212.579652 
L 267.491882 214.928516 
L 268.566897 218.054427 
L 270.716927 221.579744 
L 271.791942 222.267593 
L 272.866957 222.382255 
L 273.941972 221.103852 
L 275.016988 219.498934 
L 276.092003 219.382851 
L 277.167018 219.47494 
L 278.242033 221.545624 
L 279.317048 224.68792 
L 281.467078 233.973992 
L 282.542093 236.819028 
L 283.617108 237.977568 
L 285.767138 237.900318 
L 286.842153 238.868652 
L 287.917168 237.759864 
L 288.992183 236.889155 
L 290.067198 236.334399 
L 291.142213 235.301527 
L 293.292243 230.039279 
L 295.442273 222.828244 
L 296.517289 219.861901 
L 297.592304 218.353666 
L 298.667319 215.927203 
L 299.742334 214.119818 
L 300.817349 213.569488 
L 301.892364 213.275266 
L 302.967379 214.330559 
L 304.042394 215.882426 
L 305.117409 216.161425 
L 306.192424 214.543865 
L 307.267439 214.297054 
L 308.342454 215.506484 
L 311.567499 224.200076 
L 312.642514 225.697695 
L 314.792544 231.113637 
L 315.867559 234.660853 
L 316.942575 235.445374 
L 318.01759 237.008135 
L 319.092605 238.811806 
L 320.16762 239.445328 
L 321.242635 237.705392 
L 322.31765 233.393715 
L 323.392665 228.566397 
L 324.46768 226.894106 
L 325.542695 228.929112 
L 326.61771 231.587902 
L 327.692725 232.272261 
L 328.76774 233.200803 
L 329.842755 233.472063 
L 330.91777 231.731894 
L 331.992785 229.559527 
L 333.0678 225.328929 
L 334.142815 221.825474 
L 335.21783 219.31439 
L 336.292845 218.195175 
L 337.36786 215.761243 
L 338.442876 213.957082 
L 339.517891 213.245774 
L 340.592906 212.745822 
L 341.667921 213.623251 
L 342.742936 214.848471 
L 343.817951 214.899528 
L 345.967981 214.327271 
L 347.042996 213.766079 
L 348.118011 212.31508 
L 349.193026 212.162117 
L 350.268041 213.284757 
L 351.343056 215.551816 
L 352.418071 218.639686 
L 353.493086 221.156677 
L 354.568101 224.599906 
L 355.643116 226.176574 
L 356.718131 226.118374 
L 357.793146 224.364847 
L 358.868161 220.972088 
L 359.943177 218.417444 
L 361.018192 216.186164 
L 362.093207 214.405904 
L 363.168222 213.231404 
L 364.243237 212.944488 
L 365.318252 214.116515 
L 366.393267 214.206549 
L 367.468282 214.533143 
L 369.618312 214.752191 
L 370.693327 214.827962 
L 371.768342 214.779485 
L 372.843357 214.489609 
L 376.068402 213.113017 
L 377.143417 212.941534 
L 383.593508 213.444197 
L 384.668523 213.435839 
L 384.668523 213.435839 
" style="fill:none;stroke:#ff7f0e;stroke-linecap:square;stroke-width:1.5;"/>
   </g>
   <g id="line2d_18">
    <path clip-path="url(#pba5b2dbcb0)" d="M 60.013977 34.414125 
L 61.088992 38.217323 
L 62.164007 43.794373 
L 63.239022 50.714399 
L 65.389053 66.859875 
L 66.464068 75.295592 
L 67.539083 82.562805 
L 68.614098 88.428509 
L 69.689113 95.611065 
L 70.764128 101.841743 
L 71.839143 107.023713 
L 75.064188 128.318326 
L 76.139203 134.268122 
L 77.214218 138.077591 
L 78.289233 141.183688 
L 82.589293 155.545093 
L 84.739323 164.340393 
L 85.814339 167.972524 
L 86.889354 170.341328 
L 87.964369 170.338387 
L 89.039384 172.448897 
L 90.114399 176.69766 
L 92.264429 180.717854 
L 94.414459 182.586105 
L 95.489474 183.932515 
L 96.564489 183.548846 
L 97.639504 182.487318 
L 98.714519 183.598479 
L 99.789534 187.898936 
L 100.864549 193.534809 
L 103.014579 199.058772 
L 104.089594 198.793158 
L 105.164609 196.17535 
L 106.239624 191.363716 
L 108.389655 176.545471 
L 109.46467 171.963754 
L 110.539685 169.957937 
L 111.6147 170.644681 
L 112.689715 175.248742 
L 113.76473 181.256324 
L 114.839745 183.714789 
L 115.91476 184.047738 
L 116.989775 181.267257 
L 118.06479 176.837612 
L 119.139805 170.253165 
L 120.21482 165.105137 
L 121.289835 162.833273 
L 122.36485 161.464631 
L 123.439865 164.003119 
L 124.51488 167.844747 
L 125.589895 173.390039 
L 126.66491 178.338769 
L 127.739925 182.334414 
L 129.889956 186.56103 
L 130.964971 190.513481 
L 132.039986 195.272079 
L 133.115001 195.776824 
L 134.190016 194.820545 
L 135.265031 191.877182 
L 136.340046 190.216188 
L 137.415061 188.010831 
L 138.490076 187.03149 
L 139.565091 186.612275 
L 140.640106 188.55276 
L 141.715121 189.394898 
L 142.790136 191.62716 
L 143.865151 191.953485 
L 144.940166 191.556887 
L 146.015181 187.876535 
L 147.090196 186.242946 
L 148.165211 186.705789 
L 150.315242 187.117296 
L 152.465272 183.446665 
L 153.540287 185.13192 
L 154.615302 189.121006 
L 156.765332 199.34902 
L 157.840347 207.378387 
L 158.915362 213.762637 
L 159.990377 216.229767 
L 161.065392 217.642113 
L 162.140407 216.915604 
L 163.215422 215.790821 
L 164.290437 213.807575 
L 165.365452 212.767254 
L 166.440467 212.886717 
L 167.515482 214.926797 
L 168.590497 217.44312 
L 170.740528 216.504317 
L 171.815543 216.115358 
L 173.965573 213.378316 
L 175.040588 211.030503 
L 177.190618 208.45665 
L 178.265633 207.551953 
L 179.340648 207.256601 
L 180.415663 208.260236 
L 181.490678 209.673065 
L 182.565693 208.866608 
L 183.640708 206.562999 
L 184.715723 204.560858 
L 185.790738 201.431516 
L 186.865753 196.204749 
L 187.940768 192.079424 
L 189.015783 191.820826 
L 190.090798 196.052893 
L 192.240829 212.270555 
L 193.315844 217.875817 
L 194.390859 220.949599 
L 195.465874 221.849704 
L 196.540889 219.179347 
L 198.690919 208.530981 
L 199.765934 205.282115 
L 200.840949 202.938522 
L 202.990979 204.154724 
L 204.065994 206.73846 
L 205.141009 211.503261 
L 206.216024 218.296142 
L 207.291039 220.651963 
L 208.366054 222.197496 
L 209.441069 222.420429 
L 210.516084 220.943714 
L 212.666115 211.638298 
L 213.74113 204.534485 
L 214.816145 200.710305 
L 215.89116 200.01239 
L 216.966175 201.541888 
L 218.04119 199.789351 
L 219.116205 199.070796 
L 220.19122 198.855886 
L 221.266235 198.843419 
L 222.34125 198.237151 
L 223.416265 198.013002 
L 224.49128 198.02336 
L 225.566295 199.129493 
L 226.64131 200.557334 
L 227.716325 203.578531 
L 228.79134 205.33421 
L 229.866355 206.840103 
L 230.94137 208.572608 
L 233.091401 213.87088 
L 234.166416 217.297801 
L 235.241431 221.771047 
L 236.316446 224.435363 
L 237.391461 225.487868 
L 238.466476 224.875876 
L 239.541491 224.065372 
L 240.616506 225.193315 
L 241.691521 228.163159 
L 243.841551 235.4451 
L 245.991581 240.970349 
L 247.066596 242.051364 
L 248.141611 242.394851 
L 249.216626 239.354357 
L 250.291641 238.607376 
L 251.366656 240.691927 
L 252.441671 243.880002 
L 253.516686 246.348546 
L 254.591702 246.764242 
L 255.666717 246.049401 
L 256.741732 246.441155 
L 257.816747 248.045235 
L 258.891762 248.808804 
L 259.966777 248.25053 
L 261.041792 250.258675 
L 262.116807 254.103305 
L 265.341852 267.003149 
L 266.416867 270.108413 
L 267.491882 272.769062 
L 268.566897 272.929963 
L 269.641912 269.429681 
L 270.716927 263.355569 
L 271.791942 259.302671 
L 272.866957 257.021472 
L 273.941972 258.452627 
L 275.016988 259.51427 
L 276.092003 260.04508 
L 277.167018 259.700104 
L 278.242033 256.812209 
L 279.317048 251.291242 
L 280.392063 243.012046 
L 281.467078 235.812811 
L 282.542093 232.153811 
L 283.617108 231.021993 
L 284.692123 231.865891 
L 285.767138 232.367448 
L 286.842153 233.769648 
L 287.917168 235.697788 
L 288.992183 236.382641 
L 290.067198 235.92308 
L 291.142213 236.235818 
L 292.217228 239.645622 
L 293.292243 242.429305 
L 294.367258 246.0017 
L 295.442273 248.814616 
L 296.517289 250.803749 
L 297.592304 252.050576 
L 298.667319 253.837714 
L 299.742334 256.327633 
L 300.817349 256.325959 
L 302.967379 259.238501 
L 304.042394 259.560176 
L 305.117409 259.253363 
L 306.192424 259.61525 
L 307.267439 257.406891 
L 308.342454 254.38707 
L 309.417469 250.60232 
L 310.492484 248.369223 
L 311.567499 244.615163 
L 312.642514 244.513763 
L 313.717529 244.095225 
L 314.792544 242.724802 
L 315.867559 241.945746 
L 316.942575 243.710622 
L 318.01759 241.700341 
L 319.092605 236.327944 
L 320.16762 229.657775 
L 321.242635 225.91537 
L 322.31765 224.197558 
L 323.392665 225.448867 
L 324.46768 226.974442 
L 325.542695 230.350321 
L 326.61771 236.01068 
L 327.692725 240.457386 
L 328.76774 240.273692 
L 329.842755 237.250292 
L 331.992785 229.347531 
L 334.142815 223.749471 
L 335.21783 223.865099 
L 336.292845 224.985344 
L 337.36786 224.736919 
L 338.442876 220.23783 
L 339.517891 214.353661 
L 340.592906 210.488158 
L 341.667921 207.10163 
L 342.742936 206.190029 
L 343.817951 209.777012 
L 344.892966 216.524804 
L 345.967981 224.066027 
L 348.118011 235.122071 
L 349.193026 234.147139 
L 350.268041 230.020032 
L 351.343056 224.247394 
L 352.418071 219.672016 
L 353.493086 217.271095 
L 354.568101 217.428902 
L 355.643116 219.858896 
L 356.718131 220.844284 
L 357.793146 222.38623 
L 358.868161 224.281047 
L 359.943177 221.962434 
L 361.018192 218.957585 
L 362.093207 216.545114 
L 363.168222 216.391426 
L 364.243237 215.912458 
L 365.318252 217.017269 
L 367.468282 223.722926 
L 368.543297 224.279541 
L 369.618312 223.882879 
L 370.693327 224.433568 
L 371.768342 226.421139 
L 372.843357 228.15553 
L 373.918372 228.307956 
L 374.993387 227.738159 
L 376.068402 228.267189 
L 377.143417 231.380539 
L 378.218432 232.402498 
L 379.293447 229.705 
L 380.368463 228.522746 
L 381.443478 227.684419 
L 382.518493 227.528483 
L 383.593508 228.393404 
L 384.668523 230.617648 
L 384.668523 230.617648 
" style="fill:none;stroke:#008000;stroke-linecap:square;stroke-width:1.5;"/>
   </g>
   <g id="patch_3">
    <path d="M 43.78125 288.430125 
L 43.78125 22.318125 
" style="fill:none;stroke:#000000;stroke-linecap:square;stroke-linejoin:miter;stroke-width:0.8;"/>
   </g>
   <g id="patch_4">
    <path d="M 400.90125 288.430125 
L 400.90125 22.318125 
" style="fill:none;stroke:#000000;stroke-linecap:square;stroke-linejoin:miter;stroke-width:0.8;"/>
   </g>
   <g id="patch_5">
    <path d="M 43.78125 288.430125 
L 400.90125 288.430125 
" style="fill:none;stroke:#000000;stroke-linecap:square;stroke-linejoin:miter;stroke-width:0.8;"/>
   </g>
   <g id="patch_6">
    <path d="M 43.78125 22.318125 
L 400.90125 22.318125 
" style="fill:none;stroke:#000000;stroke-linecap:square;stroke-linejoin:miter;stroke-width:0.8;"/>
   </g>
   <g id="text_16">
    <!-- Entropy and Loss. -->
    <defs>
     <path d="M 9.1875 72.90625 
L 59.90625 72.90625 
L 59.90625 58.6875 
L 27.984375 58.6875 
L 27.984375 45.125 
L 58.015625 45.125 
L 58.015625 30.90625 
L 27.984375 30.90625 
L 27.984375 14.203125 
L 60.984375 14.203125 
L 60.984375 0 
L 9.1875 0 
z
" id="DejaVuSans-Bold-69"/>
     <path d="M 63.375 33.296875 
L 63.375 0 
L 45.796875 0 
L 45.796875 5.421875 
L 45.796875 25.484375 
Q 45.796875 32.5625 45.484375 35.25 
Q 45.171875 37.9375 44.390625 39.203125 
Q 43.359375 40.921875 41.59375 41.875 
Q 39.84375 42.828125 37.59375 42.828125 
Q 32.125 42.828125 29 38.59375 
Q 25.875 34.375 25.875 26.90625 
L 25.875 0 
L 8.40625 0 
L 8.40625 54.6875 
L 25.875 54.6875 
L 25.875 46.6875 
Q 29.828125 51.46875 34.265625 53.734375 
Q 38.71875 56 44.09375 56 
Q 53.5625 56 58.46875 50.1875 
Q 63.375 44.390625 63.375 33.296875 
z
" id="DejaVuSans-Bold-110"/>
     <path d="M 27.484375 70.21875 
L 27.484375 54.6875 
L 45.515625 54.6875 
L 45.515625 42.1875 
L 27.484375 42.1875 
L 27.484375 19 
Q 27.484375 15.1875 29 13.84375 
Q 30.515625 12.5 35.015625 12.5 
L 44 12.5 
L 44 0 
L 29 0 
Q 18.65625 0 14.328125 4.3125 
Q 10.015625 8.640625 10.015625 19 
L 10.015625 42.1875 
L 1.3125 42.1875 
L 1.3125 54.6875 
L 10.015625 54.6875 
L 10.015625 70.21875 
z
" id="DejaVuSans-Bold-116"/>
     <path d="M 49.03125 39.796875 
Q 46.734375 40.875 44.453125 41.375 
Q 42.1875 41.890625 39.890625 41.890625 
Q 33.15625 41.890625 29.515625 37.5625 
Q 25.875 33.25 25.875 25.203125 
L 25.875 0 
L 8.40625 0 
L 8.40625 54.6875 
L 25.875 54.6875 
L 25.875 45.703125 
Q 29.25 51.078125 33.609375 53.53125 
Q 37.984375 56 44.09375 56 
Q 44.96875 56 45.984375 55.921875 
Q 47.015625 55.859375 48.96875 55.609375 
z
" id="DejaVuSans-Bold-114"/>
     <path d="M 34.421875 43.5 
Q 28.609375 43.5 25.5625 39.328125 
Q 22.515625 35.15625 22.515625 27.296875 
Q 22.515625 19.4375 25.5625 15.25 
Q 28.609375 11.078125 34.421875 11.078125 
Q 40.140625 11.078125 43.15625 15.25 
Q 46.1875 19.4375 46.1875 27.296875 
Q 46.1875 35.15625 43.15625 39.328125 
Q 40.140625 43.5 34.421875 43.5 
z
M 34.421875 56 
Q 48.53125 56 56.46875 48.375 
Q 64.40625 40.765625 64.40625 27.296875 
Q 64.40625 13.8125 56.46875 6.1875 
Q 48.53125 -1.421875 34.421875 -1.421875 
Q 20.265625 -1.421875 12.28125 6.1875 
Q 4.296875 13.8125 4.296875 27.296875 
Q 4.296875 40.765625 12.28125 48.375 
Q 20.265625 56 34.421875 56 
z
" id="DejaVuSans-Bold-111"/>
     <path d="M 25.875 7.90625 
L 25.875 -20.796875 
L 8.40625 -20.796875 
L 8.40625 54.6875 
L 25.875 54.6875 
L 25.875 46.6875 
Q 29.5 51.46875 33.890625 53.734375 
Q 38.28125 56 44 56 
Q 54.109375 56 60.59375 47.96875 
Q 67.09375 39.9375 67.09375 27.296875 
Q 67.09375 14.65625 60.59375 6.609375 
Q 54.109375 -1.421875 44 -1.421875 
Q 38.28125 -1.421875 33.890625 0.84375 
Q 29.5 3.125 25.875 7.90625 
z
M 37.5 43.3125 
Q 31.890625 43.3125 28.875 39.1875 
Q 25.875 35.0625 25.875 27.296875 
Q 25.875 19.53125 28.875 15.40625 
Q 31.890625 11.28125 37.5 11.28125 
Q 43.109375 11.28125 46.0625 15.375 
Q 49.03125 19.484375 49.03125 27.296875 
Q 49.03125 35.109375 46.0625 39.203125 
Q 43.109375 43.3125 37.5 43.3125 
z
" id="DejaVuSans-Bold-112"/>
     <path d="M 1.21875 54.6875 
L 18.703125 54.6875 
L 33.40625 17.578125 
L 45.90625 54.6875 
L 63.375 54.6875 
L 40.375 -5.171875 
Q 36.921875 -14.3125 32.296875 -17.9375 
Q 27.6875 -21.578125 20.125 -21.578125 
L 10.015625 -21.578125 
L 10.015625 -10.109375 
L 15.484375 -10.109375 
Q 19.921875 -10.109375 21.9375 -8.6875 
Q 23.96875 -7.28125 25.09375 -3.609375 
L 25.59375 -2.09375 
z
" id="DejaVuSans-Bold-121"/>
     <path id="DejaVuSans-Bold-32"/>
     <path d="M 32.90625 24.609375 
Q 27.4375 24.609375 24.671875 22.75 
Q 21.921875 20.90625 21.921875 17.28125 
Q 21.921875 13.96875 24.140625 12.078125 
Q 26.375 10.203125 30.328125 10.203125 
Q 35.25 10.203125 38.625 13.734375 
Q 42 17.28125 42 22.609375 
L 42 24.609375 
z
M 59.625 31.203125 
L 59.625 0 
L 42 0 
L 42 8.109375 
Q 38.484375 3.125 34.078125 0.84375 
Q 29.6875 -1.421875 23.390625 -1.421875 
Q 14.890625 -1.421875 9.59375 3.53125 
Q 4.296875 8.5 4.296875 16.40625 
Q 4.296875 26.03125 10.90625 30.515625 
Q 17.53125 35.015625 31.6875 35.015625 
L 42 35.015625 
L 42 36.375 
Q 42 40.53125 38.71875 42.453125 
Q 35.453125 44.390625 28.515625 44.390625 
Q 22.90625 44.390625 18.0625 43.265625 
Q 13.234375 42.140625 9.078125 39.890625 
L 9.078125 53.21875 
Q 14.703125 54.59375 20.359375 55.296875 
Q 26.03125 56 31.6875 56 
Q 46.484375 56 53.046875 50.171875 
Q 59.625 44.34375 59.625 31.203125 
z
" id="DejaVuSans-Bold-97"/>
     <path d="M 45.609375 46.6875 
L 45.609375 75.984375 
L 63.1875 75.984375 
L 63.1875 0 
L 45.609375 0 
L 45.609375 7.90625 
Q 42 3.078125 37.640625 0.828125 
Q 33.296875 -1.421875 27.59375 -1.421875 
Q 17.484375 -1.421875 10.984375 6.609375 
Q 4.5 14.65625 4.5 27.296875 
Q 4.5 39.9375 10.984375 47.96875 
Q 17.484375 56 27.59375 56 
Q 33.25 56 37.625 53.734375 
Q 42 51.46875 45.609375 46.6875 
z
M 34.078125 11.28125 
Q 39.703125 11.28125 42.65625 15.375 
Q 45.609375 19.484375 45.609375 27.296875 
Q 45.609375 35.109375 42.65625 39.203125 
Q 39.703125 43.3125 34.078125 43.3125 
Q 28.515625 43.3125 25.5625 39.203125 
Q 22.609375 35.109375 22.609375 27.296875 
Q 22.609375 19.484375 25.5625 15.375 
Q 28.515625 11.28125 34.078125 11.28125 
z
" id="DejaVuSans-Bold-100"/>
     <path d="M 9.1875 72.90625 
L 27.984375 72.90625 
L 27.984375 14.203125 
L 60.984375 14.203125 
L 60.984375 0 
L 9.1875 0 
z
" id="DejaVuSans-Bold-76"/>
     <path d="M 51.125 52.984375 
L 51.125 39.703125 
Q 45.515625 42.046875 40.28125 43.21875 
Q 35.0625 44.390625 30.421875 44.390625 
Q 25.4375 44.390625 23.015625 43.140625 
Q 20.609375 41.890625 20.609375 39.3125 
Q 20.609375 37.203125 22.4375 36.078125 
Q 24.265625 34.96875 29 34.421875 
L 32.078125 33.984375 
Q 45.515625 32.28125 50.140625 28.375 
Q 54.78125 24.46875 54.78125 16.109375 
Q 54.78125 7.375 48.328125 2.96875 
Q 41.890625 -1.421875 29.109375 -1.421875 
Q 23.6875 -1.421875 17.890625 -0.5625 
Q 12.109375 0.296875 6 2 
L 6 15.28125 
Q 11.234375 12.75 16.71875 11.46875 
Q 22.21875 10.203125 27.875 10.203125 
Q 33.015625 10.203125 35.59375 11.609375 
Q 38.1875 13.03125 38.1875 15.828125 
Q 38.1875 18.171875 36.40625 19.3125 
Q 34.625 20.453125 29.296875 21.09375 
L 26.21875 21.484375 
Q 14.546875 22.953125 9.859375 26.90625 
Q 5.171875 30.859375 5.171875 38.921875 
Q 5.171875 47.609375 11.125 51.796875 
Q 17.09375 56 29.390625 56 
Q 34.234375 56 39.546875 55.265625 
Q 44.875 54.546875 51.125 52.984375 
z
" id="DejaVuSans-Bold-115"/>
     <path d="M 10.203125 18.890625 
L 27.78125 18.890625 
L 27.78125 0 
L 10.203125 0 
z
" id="DejaVuSans-Bold-46"/>
    </defs>
    <g transform="translate(161.657813 16.318125)scale(0.12 -0.12)">
     <use xlink:href="#DejaVuSans-Bold-69"/>
     <use x="68.310547" xlink:href="#DejaVuSans-Bold-110"/>
     <use x="139.501953" xlink:href="#DejaVuSans-Bold-116"/>
     <use x="187.304688" xlink:href="#DejaVuSans-Bold-114"/>
     <use x="236.621094" xlink:href="#DejaVuSans-Bold-111"/>
     <use x="305.322266" xlink:href="#DejaVuSans-Bold-112"/>
     <use x="376.904297" xlink:href="#DejaVuSans-Bold-121"/>
     <use x="442.089844" xlink:href="#DejaVuSans-Bold-32"/>
     <use x="476.904297" xlink:href="#DejaVuSans-Bold-97"/>
     <use x="544.384766" xlink:href="#DejaVuSans-Bold-110"/>
     <use x="615.576172" xlink:href="#DejaVuSans-Bold-100"/>
     <use x="687.158203" xlink:href="#DejaVuSans-Bold-32"/>
     <use x="721.972656" xlink:href="#DejaVuSans-Bold-76"/>
     <use x="785.693359" xlink:href="#DejaVuSans-Bold-111"/>
     <use x="854.394531" xlink:href="#DejaVuSans-Bold-115"/>
     <use x="913.916016" xlink:href="#DejaVuSans-Bold-115"/>
     <use x="973.4375" xlink:href="#DejaVuSans-Bold-46"/>
    </g>
   </g>
   <g id="legend_1">
    <g id="patch_7">
     <path d="M 18.982656 353.02505 
L 429.699844 353.02505 
Q 431.699844 353.02505 431.699844 351.02505 
L 431.699844 337.346925 
Q 431.699844 335.346925 429.699844 335.346925 
L 18.982656 335.346925 
Q 16.982656 335.346925 16.982656 337.346925 
L 16.982656 351.02505 
Q 16.982656 353.02505 18.982656 353.02505 
z
" style="fill:#4c4c4c;opacity:0.5;stroke:#4c4c4c;stroke-linejoin:miter;"/>
    </g>
    <g id="patch_8">
     <path d="M 16.982656 351.02505 
L 427.699844 351.02505 
Q 429.699844 351.02505 429.699844 349.02505 
L 429.699844 335.346925 
Q 429.699844 333.346925 427.699844 333.346925 
L 16.982656 333.346925 
Q 14.982656 333.346925 14.982656 335.346925 
L 14.982656 349.02505 
Q 14.982656 351.02505 16.982656 351.02505 
z
" style="fill:#ffffff;stroke:#cccccc;stroke-linejoin:miter;"/>
    </g>
    <g id="line2d_19">
     <path d="M 18.982656 341.445362 
L 38.982656 341.445362 
" style="fill:none;stroke:#1f77b4;stroke-linecap:square;stroke-width:1.5;"/>
    </g>
    <g id="line2d_20"/>
    <g id="text_17">
     <!-- Policy Loss (Normalized) -->
     <defs>
      <path d="M 19.671875 64.796875 
L 19.671875 37.40625 
L 32.078125 37.40625 
Q 38.96875 37.40625 42.71875 40.96875 
Q 46.484375 44.53125 46.484375 51.125 
Q 46.484375 57.671875 42.71875 61.234375 
Q 38.96875 64.796875 32.078125 64.796875 
z
M 9.8125 72.90625 
L 32.078125 72.90625 
Q 44.34375 72.90625 50.609375 67.359375 
Q 56.890625 61.8125 56.890625 51.125 
Q 56.890625 40.328125 50.609375 34.8125 
Q 44.34375 29.296875 32.078125 29.296875 
L 19.671875 29.296875 
L 19.671875 0 
L 9.8125 0 
z
" id="DejaVuSans-80"/>
      <path d="M 9.421875 75.984375 
L 18.40625 75.984375 
L 18.40625 0 
L 9.421875 0 
z
" id="DejaVuSans-108"/>
      <path d="M 9.421875 54.6875 
L 18.40625 54.6875 
L 18.40625 0 
L 9.421875 0 
z
M 9.421875 75.984375 
L 18.40625 75.984375 
L 18.40625 64.59375 
L 9.421875 64.59375 
z
" id="DejaVuSans-105"/>
      <path d="M 32.171875 -5.078125 
Q 28.375 -14.84375 24.75 -17.8125 
Q 21.140625 -20.796875 15.09375 -20.796875 
L 7.90625 -20.796875 
L 7.90625 -13.28125 
L 13.1875 -13.28125 
Q 16.890625 -13.28125 18.9375 -11.515625 
Q 21 -9.765625 23.484375 -3.21875 
L 25.09375 0.875 
L 2.984375 54.6875 
L 12.5 54.6875 
L 29.59375 11.921875 
L 46.6875 54.6875 
L 56.203125 54.6875 
z
" id="DejaVuSans-121"/>
      <path id="DejaVuSans-32"/>
      <path d="M 31 75.875 
Q 24.46875 64.65625 21.28125 53.65625 
Q 18.109375 42.671875 18.109375 31.390625 
Q 18.109375 20.125 21.3125 9.0625 
Q 24.515625 -2 31 -13.1875 
L 23.1875 -13.1875 
Q 15.875 -1.703125 12.234375 9.375 
Q 8.59375 20.453125 8.59375 31.390625 
Q 8.59375 42.28125 12.203125 53.3125 
Q 15.828125 64.359375 23.1875 75.875 
z
" id="DejaVuSans-40"/>
      <path d="M 9.8125 72.90625 
L 23.09375 72.90625 
L 55.421875 11.921875 
L 55.421875 72.90625 
L 64.984375 72.90625 
L 64.984375 0 
L 51.703125 0 
L 19.390625 60.984375 
L 19.390625 0 
L 9.8125 0 
z
" id="DejaVuSans-78"/>
      <path d="M 41.109375 46.296875 
Q 39.59375 47.171875 37.8125 47.578125 
Q 36.03125 48 33.890625 48 
Q 26.265625 48 22.1875 43.046875 
Q 18.109375 38.09375 18.109375 28.8125 
L 18.109375 0 
L 9.078125 0 
L 9.078125 54.6875 
L 18.109375 54.6875 
L 18.109375 46.1875 
Q 20.953125 51.171875 25.484375 53.578125 
Q 30.03125 56 36.53125 56 
Q 37.453125 56 38.578125 55.875 
Q 39.703125 55.765625 41.0625 55.515625 
z
" id="DejaVuSans-114"/>
      <path d="M 52 44.1875 
Q 55.375 50.25 60.0625 53.125 
Q 64.75 56 71.09375 56 
Q 79.640625 56 84.28125 50.015625 
Q 88.921875 44.046875 88.921875 33.015625 
L 88.921875 0 
L 79.890625 0 
L 79.890625 32.71875 
Q 79.890625 40.578125 77.09375 44.375 
Q 74.3125 48.1875 68.609375 48.1875 
Q 61.625 48.1875 57.5625 43.546875 
Q 53.515625 38.921875 53.515625 30.90625 
L 53.515625 0 
L 44.484375 0 
L 44.484375 32.71875 
Q 44.484375 40.625 41.703125 44.40625 
Q 38.921875 48.1875 33.109375 48.1875 
Q 26.21875 48.1875 22.15625 43.53125 
Q 18.109375 38.875 18.109375 30.90625 
L 18.109375 0 
L 9.078125 0 
L 9.078125 54.6875 
L 18.109375 54.6875 
L 18.109375 46.1875 
Q 21.1875 51.21875 25.484375 53.609375 
Q 29.78125 56 35.6875 56 
Q 41.65625 56 45.828125 52.96875 
Q 50 49.953125 52 44.1875 
z
" id="DejaVuSans-109"/>
      <path d="M 34.28125 27.484375 
Q 23.390625 27.484375 19.1875 25 
Q 14.984375 22.515625 14.984375 16.5 
Q 14.984375 11.71875 18.140625 8.90625 
Q 21.296875 6.109375 26.703125 6.109375 
Q 34.1875 6.109375 38.703125 11.40625 
Q 43.21875 16.703125 43.21875 25.484375 
L 43.21875 27.484375 
z
M 52.203125 31.203125 
L 52.203125 0 
L 43.21875 0 
L 43.21875 8.296875 
Q 40.140625 3.328125 35.546875 0.953125 
Q 30.953125 -1.421875 24.3125 -1.421875 
Q 15.921875 -1.421875 10.953125 3.296875 
Q 6 8.015625 6 15.921875 
Q 6 25.140625 12.171875 29.828125 
Q 18.359375 34.515625 30.609375 34.515625 
L 43.21875 34.515625 
L 43.21875 35.40625 
Q 43.21875 41.609375 39.140625 45 
Q 35.0625 48.390625 27.6875 48.390625 
Q 23 48.390625 18.546875 47.265625 
Q 14.109375 46.140625 10.015625 43.890625 
L 10.015625 52.203125 
Q 14.9375 54.109375 19.578125 55.046875 
Q 24.21875 56 28.609375 56 
Q 40.484375 56 46.34375 49.84375 
Q 52.203125 43.703125 52.203125 31.203125 
z
" id="DejaVuSans-97"/>
      <path d="M 5.515625 54.6875 
L 48.1875 54.6875 
L 48.1875 46.484375 
L 14.40625 7.171875 
L 48.1875 7.171875 
L 48.1875 0 
L 4.296875 0 
L 4.296875 8.203125 
L 38.09375 47.515625 
L 5.515625 47.515625 
z
" id="DejaVuSans-122"/>
      <path d="M 56.203125 29.59375 
L 56.203125 25.203125 
L 14.890625 25.203125 
Q 15.484375 15.921875 20.484375 11.0625 
Q 25.484375 6.203125 34.421875 6.203125 
Q 39.59375 6.203125 44.453125 7.46875 
Q 49.3125 8.734375 54.109375 11.28125 
L 54.109375 2.78125 
Q 49.265625 0.734375 44.1875 -0.34375 
Q 39.109375 -1.421875 33.890625 -1.421875 
Q 20.796875 -1.421875 13.15625 6.1875 
Q 5.515625 13.8125 5.515625 26.8125 
Q 5.515625 40.234375 12.765625 48.109375 
Q 20.015625 56 32.328125 56 
Q 43.359375 56 49.78125 48.890625 
Q 56.203125 41.796875 56.203125 29.59375 
z
M 47.21875 32.234375 
Q 47.125 39.59375 43.09375 43.984375 
Q 39.0625 48.390625 32.421875 48.390625 
Q 24.90625 48.390625 20.390625 44.140625 
Q 15.875 39.890625 15.1875 32.171875 
z
" id="DejaVuSans-101"/>
      <path d="M 45.40625 46.390625 
L 45.40625 75.984375 
L 54.390625 75.984375 
L 54.390625 0 
L 45.40625 0 
L 45.40625 8.203125 
Q 42.578125 3.328125 38.25 0.953125 
Q 33.9375 -1.421875 27.875 -1.421875 
Q 17.96875 -1.421875 11.734375 6.484375 
Q 5.515625 14.40625 5.515625 27.296875 
Q 5.515625 40.1875 11.734375 48.09375 
Q 17.96875 56 27.875 56 
Q 33.9375 56 38.25 53.625 
Q 42.578125 51.265625 45.40625 46.390625 
z
M 14.796875 27.296875 
Q 14.796875 17.390625 18.875 11.75 
Q 22.953125 6.109375 30.078125 6.109375 
Q 37.203125 6.109375 41.296875 11.75 
Q 45.40625 17.390625 45.40625 27.296875 
Q 45.40625 37.203125 41.296875 42.84375 
Q 37.203125 48.484375 30.078125 48.484375 
Q 22.953125 48.484375 18.875 42.84375 
Q 14.796875 37.203125 14.796875 27.296875 
z
" id="DejaVuSans-100"/>
      <path d="M 8.015625 75.875 
L 15.828125 75.875 
Q 23.140625 64.359375 26.78125 53.3125 
Q 30.421875 42.28125 30.421875 31.390625 
Q 30.421875 20.453125 26.78125 9.375 
Q 23.140625 -1.703125 15.828125 -13.1875 
L 8.015625 -13.1875 
Q 14.5 -2 17.703125 9.0625 
Q 20.90625 20.125 20.90625 31.390625 
Q 20.90625 42.671875 17.703125 53.65625 
Q 14.5 64.65625 8.015625 75.875 
z
" id="DejaVuSans-41"/>
     </defs>
     <g transform="translate(46.982656 344.945362)scale(0.1 -0.1)">
      <use xlink:href="#DejaVuSans-80"/>
      <use x="60.255859" xlink:href="#DejaVuSans-111"/>
      <use x="121.4375" xlink:href="#DejaVuSans-108"/>
      <use x="149.220703" xlink:href="#DejaVuSans-105"/>
      <use x="177.003906" xlink:href="#DejaVuSans-99"/>
      <use x="231.984375" xlink:href="#DejaVuSans-121"/>
      <use x="291.164062" xlink:href="#DejaVuSans-32"/>
      <use x="322.951172" xlink:href="#DejaVuSans-76"/>
      <use x="378.648438" xlink:href="#DejaVuSans-111"/>
      <use x="439.830078" xlink:href="#DejaVuSans-115"/>
      <use x="491.929688" xlink:href="#DejaVuSans-115"/>
      <use x="544.029297" xlink:href="#DejaVuSans-32"/>
      <use x="575.816406" xlink:href="#DejaVuSans-40"/>
      <use x="614.830078" xlink:href="#DejaVuSans-78"/>
      <use x="689.634766" xlink:href="#DejaVuSans-111"/>
      <use x="750.816406" xlink:href="#DejaVuSans-114"/>
      <use x="791.914062" xlink:href="#DejaVuSans-109"/>
      <use x="889.326172" xlink:href="#DejaVuSans-97"/>
      <use x="950.605469" xlink:href="#DejaVuSans-108"/>
      <use x="978.388672" xlink:href="#DejaVuSans-105"/>
      <use x="1006.171875" xlink:href="#DejaVuSans-122"/>
      <use x="1058.662109" xlink:href="#DejaVuSans-101"/>
      <use x="1120.185547" xlink:href="#DejaVuSans-100"/>
      <use x="1183.662109" xlink:href="#DejaVuSans-41"/>
     </g>
    </g>
    <g id="line2d_21">
     <path d="M 189.251406 341.445362 
L 209.251406 341.445362 
" style="fill:none;stroke:#ff7f0e;stroke-linecap:square;stroke-width:1.5;"/>
    </g>
    <g id="line2d_22"/>
    <g id="text_18">
     <!-- Value Loss (Normalized) -->
     <defs>
      <path d="M 28.609375 0 
L 0.78125 72.90625 
L 11.078125 72.90625 
L 34.1875 11.53125 
L 57.328125 72.90625 
L 67.578125 72.90625 
L 39.796875 0 
z
" id="DejaVuSans-86"/>
      <path d="M 8.5 21.578125 
L 8.5 54.6875 
L 17.484375 54.6875 
L 17.484375 21.921875 
Q 17.484375 14.15625 20.5 10.265625 
Q 23.53125 6.390625 29.59375 6.390625 
Q 36.859375 6.390625 41.078125 11.03125 
Q 45.3125 15.671875 45.3125 23.6875 
L 45.3125 54.6875 
L 54.296875 54.6875 
L 54.296875 0 
L 45.3125 0 
L 45.3125 8.40625 
Q 42.046875 3.421875 37.71875 1 
Q 33.40625 -1.421875 27.6875 -1.421875 
Q 18.265625 -1.421875 13.375 4.4375 
Q 8.5 10.296875 8.5 21.578125 
z
M 31.109375 56 
z
" id="DejaVuSans-117"/>
     </defs>
     <g transform="translate(217.251406 344.945362)scale(0.1 -0.1)">
      <use xlink:href="#DejaVuSans-86"/>
      <use x="68.298828" xlink:href="#DejaVuSans-97"/>
      <use x="129.578125" xlink:href="#DejaVuSans-108"/>
      <use x="157.361328" xlink:href="#DejaVuSans-117"/>
      <use x="220.740234" xlink:href="#DejaVuSans-101"/>
      <use x="282.263672" xlink:href="#DejaVuSans-32"/>
      <use x="314.050781" xlink:href="#DejaVuSans-76"/>
      <use x="369.748047" xlink:href="#DejaVuSans-111"/>
      <use x="430.929688" xlink:href="#DejaVuSans-115"/>
      <use x="483.029297" xlink:href="#DejaVuSans-115"/>
      <use x="535.128906" xlink:href="#DejaVuSans-32"/>
      <use x="566.916016" xlink:href="#DejaVuSans-40"/>
      <use x="605.929688" xlink:href="#DejaVuSans-78"/>
      <use x="680.734375" xlink:href="#DejaVuSans-111"/>
      <use x="741.916016" xlink:href="#DejaVuSans-114"/>
      <use x="783.013672" xlink:href="#DejaVuSans-109"/>
      <use x="880.425781" xlink:href="#DejaVuSans-97"/>
      <use x="941.705078" xlink:href="#DejaVuSans-108"/>
      <use x="969.488281" xlink:href="#DejaVuSans-105"/>
      <use x="997.271484" xlink:href="#DejaVuSans-122"/>
      <use x="1049.761719" xlink:href="#DejaVuSans-101"/>
      <use x="1111.285156" xlink:href="#DejaVuSans-100"/>
      <use x="1174.761719" xlink:href="#DejaVuSans-41"/>
     </g>
    </g>
    <g id="line2d_23">
     <path d="M 358.629531 341.445362 
L 378.629531 341.445362 
" style="fill:none;stroke:#008000;stroke-linecap:square;stroke-width:1.5;"/>
    </g>
    <g id="line2d_24"/>
    <g id="text_19">
     <!-- Entropy -->
     <defs>
      <path d="M 54.890625 33.015625 
L 54.890625 0 
L 45.90625 0 
L 45.90625 32.71875 
Q 45.90625 40.484375 42.875 44.328125 
Q 39.84375 48.1875 33.796875 48.1875 
Q 26.515625 48.1875 22.3125 43.546875 
Q 18.109375 38.921875 18.109375 30.90625 
L 18.109375 0 
L 9.078125 0 
L 9.078125 54.6875 
L 18.109375 54.6875 
L 18.109375 46.1875 
Q 21.34375 51.125 25.703125 53.5625 
Q 30.078125 56 35.796875 56 
Q 45.21875 56 50.046875 50.171875 
Q 54.890625 44.34375 54.890625 33.015625 
z
" id="DejaVuSans-110"/>
      <path d="M 18.3125 70.21875 
L 18.3125 54.6875 
L 36.8125 54.6875 
L 36.8125 47.703125 
L 18.3125 47.703125 
L 18.3125 18.015625 
Q 18.3125 11.328125 20.140625 9.421875 
Q 21.96875 7.515625 27.59375 7.515625 
L 36.8125 7.515625 
L 36.8125 0 
L 27.59375 0 
Q 17.1875 0 13.234375 3.875 
Q 9.28125 7.765625 9.28125 18.015625 
L 9.28125 47.703125 
L 2.6875 47.703125 
L 2.6875 54.6875 
L 9.28125 54.6875 
L 9.28125 70.21875 
z
" id="DejaVuSans-116"/>
     </defs>
     <g transform="translate(386.629531 344.945362)scale(0.1 -0.1)">
      <use xlink:href="#DejaVuSans-69"/>
      <use x="63.183594" xlink:href="#DejaVuSans-110"/>
      <use x="126.5625" xlink:href="#DejaVuSans-116"/>
      <use x="165.771484" xlink:href="#DejaVuSans-114"/>
      <use x="206.853516" xlink:href="#DejaVuSans-111"/>
      <use x="268.035156" xlink:href="#DejaVuSans-112"/>
      <use x="331.511719" xlink:href="#DejaVuSans-121"/>
     </g>
    </g>
   </g>
  </g>
  <g id="axes_2">
   <g id="matplotlib.axis_3">
    <g id="ytick_7">
     <g id="line2d_25">
      <defs>
       <path d="M 0 0 
L 3.5 0 
" id="m6b0d6a06b6" style="stroke:#000000;stroke-width:0.8;"/>
      </defs>
      <g>
       <use style="stroke:#000000;stroke-width:0.8;" x="400.90125" xlink:href="#m6b0d6a06b6" y="238.189823"/>
      </g>
     </g>
     <g id="text_20">
      <!-- 0.50 -->
      <g transform="translate(407.90125 241.989042)scale(0.1 -0.1)">
       <use xlink:href="#DejaVuSans-48"/>
       <use x="63.623047" xlink:href="#DejaVuSans-46"/>
       <use x="95.410156" xlink:href="#DejaVuSans-53"/>
       <use x="159.033203" xlink:href="#DejaVuSans-48"/>
      </g>
     </g>
    </g>
    <g id="ytick_8">
     <g id="line2d_26">
      <g>
       <use style="stroke:#000000;stroke-width:0.8;" x="400.90125" xlink:href="#m6b0d6a06b6" y="181.822793"/>
      </g>
     </g>
     <g id="text_21">
      <!-- 0.55 -->
      <g transform="translate(407.90125 185.622012)scale(0.1 -0.1)">
       <use xlink:href="#DejaVuSans-48"/>
       <use x="63.623047" xlink:href="#DejaVuSans-46"/>
       <use x="95.410156" xlink:href="#DejaVuSans-53"/>
       <use x="159.033203" xlink:href="#DejaVuSans-53"/>
      </g>
     </g>
    </g>
    <g id="ytick_9">
     <g id="line2d_27">
      <g>
       <use style="stroke:#000000;stroke-width:0.8;" x="400.90125" xlink:href="#m6b0d6a06b6" y="125.455763"/>
      </g>
     </g>
     <g id="text_22">
      <!-- 0.60 -->
      <g transform="translate(407.90125 129.254981)scale(0.1 -0.1)">
       <use xlink:href="#DejaVuSans-48"/>
       <use x="63.623047" xlink:href="#DejaVuSans-46"/>
       <use x="95.410156" xlink:href="#DejaVuSans-54"/>
       <use x="159.033203" xlink:href="#DejaVuSans-48"/>
      </g>
     </g>
    </g>
    <g id="ytick_10">
     <g id="line2d_28">
      <g>
       <use style="stroke:#000000;stroke-width:0.8;" x="400.90125" xlink:href="#m6b0d6a06b6" y="69.088732"/>
      </g>
     </g>
     <g id="text_23">
      <!-- 0.65 -->
      <g transform="translate(407.90125 72.887951)scale(0.1 -0.1)">
       <use xlink:href="#DejaVuSans-48"/>
       <use x="63.623047" xlink:href="#DejaVuSans-46"/>
       <use x="95.410156" xlink:href="#DejaVuSans-54"/>
       <use x="159.033203" xlink:href="#DejaVuSans-53"/>
      </g>
     </g>
    </g>
    <g id="text_24">
     <!-- Entropy -->
     <g transform="translate(441.765312 174.909281)rotate(-90)scale(0.1 -0.1)">
      <use xlink:href="#DejaVuSans-69"/>
      <use x="63.183594" xlink:href="#DejaVuSans-110"/>
      <use x="126.5625" xlink:href="#DejaVuSans-116"/>
      <use x="165.771484" xlink:href="#DejaVuSans-114"/>
      <use x="206.853516" xlink:href="#DejaVuSans-111"/>
      <use x="268.035156" xlink:href="#DejaVuSans-112"/>
      <use x="331.511719" xlink:href="#DejaVuSans-121"/>
     </g>
    </g>
   </g>
   <g id="line2d_29">
    <path clip-path="url(#pba5b2dbcb0)" d="M 60.013977 34.414125 
L 61.088992 36.002877 
L 62.164007 38.232936 
L 63.239022 54.138602 
L 64.314037 57.987651 
L 65.389053 60.380926 
L 66.464068 79.659768 
L 67.539083 82.83734 
L 68.614098 87.184974 
L 69.689113 92.985895 
L 70.764128 101.432408 
L 71.839143 104.321446 
L 73.989173 121.750484 
L 75.064188 125.011847 
L 76.139203 134.580781 
L 77.214218 140.854082 
L 78.289233 142.634742 
L 79.364248 142.818184 
L 80.439263 145.245258 
L 81.514278 143.455862 
L 82.589293 158.48551 
L 83.664308 162.265147 
L 84.739323 162.715419 
L 85.814339 170.024123 
L 86.889354 168.868911 
L 87.964369 169.336049 
L 89.039384 172.91652 
L 90.114399 173.194774 
L 91.189414 174.172323 
L 92.264429 179.549111 
L 93.339444 189.944406 
L 94.414459 189.339116 
L 95.489474 173.465837 
L 96.564489 179.218379 
L 97.639504 182.840578 
L 98.714519 187.774755 
L 99.789534 187.836507 
L 100.864549 183.920062 
L 103.014579 205.295514 
L 104.089594 202.091333 
L 106.239624 190.66601 
L 107.31464 188.308886 
L 108.389655 169.09865 
L 109.46467 168.139311 
L 110.539685 168.853389 
L 111.6147 169.238415 
L 112.689715 174.216201 
L 113.76473 177.439734 
L 114.839745 184.653761 
L 115.91476 188.898453 
L 116.989775 190.832586 
L 118.06479 173.633555 
L 119.139805 164.837563 
L 120.21482 162.272538 
L 121.289835 157.409924 
L 122.36485 162.702047 
L 123.439865 160.499739 
L 124.51488 175.617413 
L 125.589895 173.576306 
L 126.66491 167.248308 
L 127.739925 183.246367 
L 128.814941 189.902006 
L 129.889956 192.780763 
L 130.964971 184.90386 
L 132.039986 189.296514 
L 133.115001 187.439453 
L 134.190016 203.087562 
L 135.265031 200.083688 
L 136.340046 197.795439 
L 137.415061 178.644805 
L 138.490076 175.51185 
L 139.565091 178.595752 
L 140.640106 194.813135 
L 142.790136 196.828843 
L 143.865151 193.670488 
L 144.940166 183.364899 
L 146.015181 178.292704 
L 147.090196 190.558163 
L 148.165211 191.606804 
L 149.240227 189.355713 
L 150.315242 177.744395 
L 151.390257 189.390318 
L 152.465272 189.860211 
L 153.540287 178.316961 
L 154.615302 183.859721 
L 155.690317 188.507312 
L 156.765332 204.341281 
L 157.840347 210.861724 
L 158.915362 212.566925 
L 159.990377 215.602447 
L 161.065392 220.717042 
L 162.140407 221.161333 
L 163.215422 206.490505 
L 165.365452 217.783521 
L 166.440467 212.359495 
L 167.515482 209.928792 
L 168.590497 212.352439 
L 169.665512 222.416665 
L 170.740528 220.849482 
L 171.815543 217.956413 
L 172.890558 210.764829 
L 173.965573 208.668219 
L 175.040588 211.46352 
L 176.115603 208.300059 
L 177.190618 211.047316 
L 178.265633 212.366013 
L 179.340648 203.752118 
L 180.415663 203.472991 
L 181.490678 203.984477 
L 182.565693 209.049213 
L 183.640708 214.839182 
L 184.715723 212.321463 
L 185.790738 199.152101 
L 186.865753 188.331867 
L 187.940768 188.113618 
L 189.015783 194.623242 
L 190.090798 194.67216 
L 191.165814 193.73896 
L 192.240829 213.696804 
L 193.315844 224.543244 
L 194.390859 225.402195 
L 195.465874 225.124815 
L 197.615904 210.246623 
L 198.690919 206.775612 
L 199.765934 202.893033 
L 200.840949 201.358641 
L 201.915964 205.961951 
L 202.990979 203.777249 
L 204.065994 206.922029 
L 205.141009 207.466105 
L 206.216024 216.223595 
L 207.291039 214.920286 
L 208.366054 230.194053 
L 209.441069 231.636186 
L 210.516084 225.121052 
L 211.591099 199.046336 
L 212.666115 211.68486 
L 213.74113 210.471793 
L 214.816145 202.166389 
L 215.89116 196.272134 
L 216.966175 197.459196 
L 218.04119 195.155828 
L 219.116205 204.123302 
L 220.19122 203.820724 
L 221.266235 200.591345 
L 222.34125 193.912524 
L 223.416265 192.327266 
L 224.49128 196.486217 
L 225.566295 201.871539 
L 226.64131 201.701805 
L 227.716325 204.349882 
L 228.79134 205.999446 
L 229.866355 202.556387 
L 230.94137 206.447231 
L 232.016385 215.180867 
L 233.091401 211.002161 
L 234.166416 218.154503 
L 235.241431 219.999402 
L 236.316446 223.365321 
L 237.391461 225.188986 
L 238.466476 229.701314 
L 239.541491 229.663282 
L 240.616506 221.242236 
L 241.691521 219.585617 
L 242.766536 221.583719 
L 243.841551 241.247117 
L 244.916566 246.846622 
L 245.991581 247.69341 
L 247.066596 240.296815 
L 248.141611 235.98503 
L 249.216626 232.878079 
L 250.291641 240.944304 
L 251.366656 243.87134 
L 252.441671 246.102676 
L 253.516686 237.798616 
L 254.591702 250.170611 
L 255.666717 253.171965 
L 256.741732 245.489658 
L 257.816747 243.696566 
L 258.891762 242.577673 
L 259.966777 251.59141 
L 261.041792 255.446305 
L 262.116807 255.608849 
L 263.191822 250.011864 
L 264.266837 261.472329 
L 265.341852 268.718542 
L 266.416867 271.427969 
L 267.491882 276.334125 
L 268.566897 274.832524 
L 270.716927 263.351228 
L 271.791942 261.390956 
L 272.866957 252.433663 
L 273.941972 251.812783 
L 275.016988 250.905755 
L 276.092003 269.900531 
L 277.167018 267.364098 
L 278.242033 263.921544 
L 279.317048 243.740411 
L 280.392063 241.99533 
L 281.467078 236.194946 
L 282.542093 225.307114 
L 283.617108 229.340814 
L 284.692123 228.838533 
L 285.767138 243.010777 
L 286.842153 233.61198 
L 287.917168 234.09585 
L 288.992183 231.998635 
L 290.067198 236.964191 
L 291.142213 237.212476 
L 292.217228 240.527663 
L 293.292243 240.888767 
L 294.367258 239.978211 
L 295.442273 253.500446 
L 296.517289 252.697772 
L 297.592304 252.508148 
L 298.667319 256.078406 
L 299.742334 252.529315 
L 300.817349 251.205713 
L 301.892364 257.94427 
L 302.967379 263.835702 
L 304.042394 264.093697 
L 305.117409 253.850329 
L 306.192424 259.974962 
L 307.267439 256.689307 
L 308.342454 252.340363 
L 309.417469 252.444918 
L 310.492484 256.850003 
L 311.567499 239.683898 
L 312.642514 238.878267 
L 313.717529 237.546299 
L 314.792544 247.441531 
L 315.867559 244.007611 
L 316.942575 251.577635 
L 318.01759 235.069569 
L 319.092605 233.402333 
L 320.16762 235.555723 
L 321.242635 231.780588 
L 322.31765 215.609301 
L 323.392665 214.117309 
L 324.46768 227.62755 
L 325.542695 237.603616 
L 326.61771 238.511787 
L 327.692725 235.535967 
L 328.76774 241.617192 
L 329.842755 242.751876 
L 330.91777 236.892831 
L 331.992785 223.020343 
L 333.0678 221.660725 
L 334.142815 224.878412 
L 335.21783 221.377768 
L 336.292845 221.150381 
L 337.36786 229.245532 
L 338.442876 224.978397 
L 339.517891 223.256801 
L 340.592906 207.903409 
L 341.667921 197.41216 
L 342.742936 195.982995 
L 344.892966 222.101656 
L 345.967981 223.638803 
L 347.042996 234.253556 
L 348.118011 236.515398 
L 349.193026 234.403736 
L 350.268041 224.783264 
L 351.343056 228.8046 
L 352.418071 230.456381 
L 353.493086 203.629084 
L 354.568101 208.343534 
L 355.643116 214.685037 
L 356.718131 230.973512 
L 357.793146 226.463132 
L 358.868161 227.861388 
L 359.943177 223.669108 
L 361.018192 212.474599 
L 362.093207 212.603412 
L 363.168222 212.11625 
L 364.243237 218.115396 
L 365.318252 221.964512 
L 366.393267 223.076114 
L 367.468282 217.78641 
L 368.543297 218.415958 
L 369.618312 226.772766 
L 370.693327 232.977931 
L 371.768342 227.783643 
L 372.843357 214.853965 
L 373.918372 228.030786 
L 374.993387 233.110573 
L 376.068402 232.994259 
L 377.143417 226.431349 
L 378.218432 227.815158 
L 379.293447 231.437827 
L 380.368463 233.381166 
L 381.443478 232.807928 
L 382.518493 219.209057 
L 383.593508 225.356569 
L 384.668523 233.591688 
L 384.668523 233.591688 
" style="fill:none;stroke:#008000;stroke-linecap:square;stroke-opacity:0.3;stroke-width:1.5;"/>
   </g>
   <g id="patch_9">
    <path d="M 43.78125 288.430125 
L 43.78125 22.318125 
" style="fill:none;stroke:#000000;stroke-linecap:square;stroke-linejoin:miter;stroke-width:0.8;"/>
   </g>
   <g id="patch_10">
    <path d="M 400.90125 288.430125 
L 400.90125 22.318125 
" style="fill:none;stroke:#000000;stroke-linecap:square;stroke-linejoin:miter;stroke-width:0.8;"/>
   </g>
   <g id="patch_11">
    <path d="M 43.78125 288.430125 
L 400.90125 288.430125 
" style="fill:none;stroke:#000000;stroke-linecap:square;stroke-linejoin:miter;stroke-width:0.8;"/>
   </g>
   <g id="patch_12">
    <path d="M 43.78125 22.318125 
L 400.90125 22.318125 
" style="fill:none;stroke:#000000;stroke-linecap:square;stroke-linejoin:miter;stroke-width:0.8;"/>
   </g>
  </g>
 </g>
 <defs>
  <clipPath id="pba5b2dbcb0">
   <rect height="266.112" width="357.12" x="43.78125" y="22.318125"/>
  </clipPath>
 </defs>
</svg>
