<?xml version="1.0" encoding="utf-8" standalone="no"?>
<!DOCTYPE svg PUBLIC "-//W3C//DTD SVG 1.1//EN"
  "http://www.w3.org/Graphics/SVG/1.1/DTD/svg11.dtd">
<!-- Created with matplotlib (https://matplotlib.org/) -->
<svg height="358.22505pt" version="1.1" viewBox="0 0 444.6825 358.22505" width="444.6825pt" xmlns="http://www.w3.org/2000/svg" xmlns:xlink="http://www.w3.org/1999/xlink">
 <defs>
  <style type="text/css">
*{stroke-linecap:butt;stroke-linejoin:round;}
  </style>
 </defs>
 <g id="figure_1">
  <g id="patch_1">
   <path d="M 0 358.22505 
L 444.6825 358.22505 
L 444.6825 0 
L 0 0 
z
" style="fill:#ffffff;"/>
  </g>
  <g id="axes_1">
   <g id="patch_2">
    <path d="M 43.78125 288.430125 
L 400.90125 288.430125 
L 400.90125 22.318125 
L 43.78125 22.318125 
z
" style="fill:#ffffff;"/>
   </g>
   <g id="matplotlib.axis_1">
    <g id="xtick_1">
     <g id="line2d_1">
      <defs>
       <path d="M 0 0 
L 0 3.5 
" id="m0bb31f934b" style="stroke:#000000;stroke-width:0.8;"/>
      </defs>
      <g>
       <use style="stroke:#000000;stroke-width:0.8;" x="60.013977" xlink:href="#m0bb31f934b" y="288.430125"/>
      </g>
     </g>
     <g id="text_1">
      <!-- 0 -->
      <defs>
       <path d="M 31.78125 66.40625 
Q 24.171875 66.40625 20.328125 58.90625 
Q 16.5 51.421875 16.5 36.375 
Q 16.5 21.390625 20.328125 13.890625 
Q 24.171875 6.390625 31.78125 6.390625 
Q 39.453125 6.390625 43.28125 13.890625 
Q 47.125 21.390625 47.125 36.375 
Q 47.125 51.421875 43.28125 58.90625 
Q 39.453125 66.40625 31.78125 66.40625 
z
M 31.78125 74.21875 
Q 44.046875 74.21875 50.515625 64.515625 
Q 56.984375 54.828125 56.984375 36.375 
Q 56.984375 17.96875 50.515625 8.265625 
Q 44.046875 -1.421875 31.78125 -1.421875 
Q 19.53125 -1.421875 13.0625 8.265625 
Q 6.59375 17.96875 6.59375 36.375 
Q 6.59375 54.828125 13.0625 64.515625 
Q 19.53125 74.21875 31.78125 74.21875 
z
" id="DejaVuSans-48"/>
      </defs>
      <g transform="translate(56.832727 303.028562)scale(0.1 -0.1)">
       <use xlink:href="#DejaVuSans-48"/>
      </g>
     </g>
    </g>
    <g id="xtick_2">
     <g id="line2d_2">
      <g>
       <use style="stroke:#000000;stroke-width:0.8;" x="117.78169" xlink:href="#m0bb31f934b" y="288.430125"/>
      </g>
     </g>
     <g id="text_2">
      <!-- 50 -->
      <defs>
       <path d="M 10.796875 72.90625 
L 49.515625 72.90625 
L 49.515625 64.59375 
L 19.828125 64.59375 
L 19.828125 46.734375 
Q 21.96875 47.46875 24.109375 47.828125 
Q 26.265625 48.1875 28.421875 48.1875 
Q 40.625 48.1875 47.75 41.5 
Q 54.890625 34.8125 54.890625 23.390625 
Q 54.890625 11.625 47.5625 5.09375 
Q 40.234375 -1.421875 26.90625 -1.421875 
Q 22.3125 -1.421875 17.546875 -0.640625 
Q 12.796875 0.140625 7.71875 1.703125 
L 7.71875 11.625 
Q 12.109375 9.234375 16.796875 8.0625 
Q 21.484375 6.890625 26.703125 6.890625 
Q 35.15625 6.890625 40.078125 11.328125 
Q 45.015625 15.765625 45.015625 23.390625 
Q 45.015625 31 40.078125 35.4375 
Q 35.15625 39.890625 26.703125 39.890625 
Q 22.75 39.890625 18.8125 39.015625 
Q 14.890625 38.140625 10.796875 36.28125 
z
" id="DejaVuSans-53"/>
      </defs>
      <g transform="translate(111.41919 303.028562)scale(0.1 -0.1)">
       <use xlink:href="#DejaVuSans-53"/>
       <use x="63.623047" xlink:href="#DejaVuSans-48"/>
      </g>
     </g>
    </g>
    <g id="xtick_3">
     <g id="line2d_3">
      <g>
       <use style="stroke:#000000;stroke-width:0.8;" x="175.549403" xlink:href="#m0bb31f934b" y="288.430125"/>
      </g>
     </g>
     <g id="text_3">
      <!-- 100 -->
      <defs>
       <path d="M 12.40625 8.296875 
L 28.515625 8.296875 
L 28.515625 63.921875 
L 10.984375 60.40625 
L 10.984375 69.390625 
L 28.421875 72.90625 
L 38.28125 72.90625 
L 38.28125 8.296875 
L 54.390625 8.296875 
L 54.390625 0 
L 12.40625 0 
z
" id="DejaVuSans-49"/>
      </defs>
      <g transform="translate(166.005653 303.028562)scale(0.1 -0.1)">
       <use xlink:href="#DejaVuSans-49"/>
       <use x="63.623047" xlink:href="#DejaVuSans-48"/>
       <use x="127.246094" xlink:href="#DejaVuSans-48"/>
      </g>
     </g>
    </g>
    <g id="xtick_4">
     <g id="line2d_4">
      <g>
       <use style="stroke:#000000;stroke-width:0.8;" x="233.317115" xlink:href="#m0bb31f934b" y="288.430125"/>
      </g>
     </g>
     <g id="text_4">
      <!-- 150 -->
      <g transform="translate(223.773365 303.028562)scale(0.1 -0.1)">
       <use xlink:href="#DejaVuSans-49"/>
       <use x="63.623047" xlink:href="#DejaVuSans-53"/>
       <use x="127.246094" xlink:href="#DejaVuSans-48"/>
      </g>
     </g>
    </g>
    <g id="xtick_5">
     <g id="line2d_5">
      <g>
       <use style="stroke:#000000;stroke-width:0.8;" x="291.084828" xlink:href="#m0bb31f934b" y="288.430125"/>
      </g>
     </g>
     <g id="text_5">
      <!-- 200 -->
      <defs>
       <path d="M 19.1875 8.296875 
L 53.609375 8.296875 
L 53.609375 0 
L 7.328125 0 
L 7.328125 8.296875 
Q 12.9375 14.109375 22.625 23.890625 
Q 32.328125 33.6875 34.8125 36.53125 
Q 39.546875 41.84375 41.421875 45.53125 
Q 43.3125 49.21875 43.3125 52.78125 
Q 43.3125 58.59375 39.234375 62.25 
Q 35.15625 65.921875 28.609375 65.921875 
Q 23.96875 65.921875 18.8125 64.3125 
Q 13.671875 62.703125 7.8125 59.421875 
L 7.8125 69.390625 
Q 13.765625 71.78125 18.9375 73 
Q 24.125 74.21875 28.421875 74.21875 
Q 39.75 74.21875 46.484375 68.546875 
Q 53.21875 62.890625 53.21875 53.421875 
Q 53.21875 48.921875 51.53125 44.890625 
Q 49.859375 40.875 45.40625 35.40625 
Q 44.1875 33.984375 37.640625 27.21875 
Q 31.109375 20.453125 19.1875 8.296875 
z
" id="DejaVuSans-50"/>
      </defs>
      <g transform="translate(281.541078 303.028562)scale(0.1 -0.1)">
       <use xlink:href="#DejaVuSans-50"/>
       <use x="63.623047" xlink:href="#DejaVuSans-48"/>
       <use x="127.246094" xlink:href="#DejaVuSans-48"/>
      </g>
     </g>
    </g>
    <g id="xtick_6">
     <g id="line2d_6">
      <g>
       <use style="stroke:#000000;stroke-width:0.8;" x="348.852541" xlink:href="#m0bb31f934b" y="288.430125"/>
      </g>
     </g>
     <g id="text_6">
      <!-- 250 -->
      <g transform="translate(339.308791 303.028562)scale(0.1 -0.1)">
       <use xlink:href="#DejaVuSans-50"/>
       <use x="63.623047" xlink:href="#DejaVuSans-53"/>
       <use x="127.246094" xlink:href="#DejaVuSans-48"/>
      </g>
     </g>
    </g>
    <g id="text_7">
     <!-- Epoch -->
     <defs>
      <path d="M 9.8125 72.90625 
L 55.90625 72.90625 
L 55.90625 64.59375 
L 19.671875 64.59375 
L 19.671875 43.015625 
L 54.390625 43.015625 
L 54.390625 34.71875 
L 19.671875 34.71875 
L 19.671875 8.296875 
L 56.78125 8.296875 
L 56.78125 0 
L 9.8125 0 
z
" id="DejaVuSans-69"/>
      <path d="M 18.109375 8.203125 
L 18.109375 -20.796875 
L 9.078125 -20.796875 
L 9.078125 54.6875 
L 18.109375 54.6875 
L 18.109375 46.390625 
Q 20.953125 51.265625 25.265625 53.625 
Q 29.59375 56 35.59375 56 
Q 45.5625 56 51.78125 48.09375 
Q 58.015625 40.1875 58.015625 27.296875 
Q 58.015625 14.40625 51.78125 6.484375 
Q 45.5625 -1.421875 35.59375 -1.421875 
Q 29.59375 -1.421875 25.265625 0.953125 
Q 20.953125 3.328125 18.109375 8.203125 
z
M 48.6875 27.296875 
Q 48.6875 37.203125 44.609375 42.84375 
Q 40.53125 48.484375 33.40625 48.484375 
Q 26.265625 48.484375 22.1875 42.84375 
Q 18.109375 37.203125 18.109375 27.296875 
Q 18.109375 17.390625 22.1875 11.75 
Q 26.265625 6.109375 33.40625 6.109375 
Q 40.53125 6.109375 44.609375 11.75 
Q 48.6875 17.390625 48.6875 27.296875 
z
" id="DejaVuSans-112"/>
      <path d="M 30.609375 48.390625 
Q 23.390625 48.390625 19.1875 42.75 
Q 14.984375 37.109375 14.984375 27.296875 
Q 14.984375 17.484375 19.15625 11.84375 
Q 23.34375 6.203125 30.609375 6.203125 
Q 37.796875 6.203125 41.984375 11.859375 
Q 46.1875 17.53125 46.1875 27.296875 
Q 46.1875 37.015625 41.984375 42.703125 
Q 37.796875 48.390625 30.609375 48.390625 
z
M 30.609375 56 
Q 42.328125 56 49.015625 48.375 
Q 55.71875 40.765625 55.71875 27.296875 
Q 55.71875 13.875 49.015625 6.21875 
Q 42.328125 -1.421875 30.609375 -1.421875 
Q 18.84375 -1.421875 12.171875 6.21875 
Q 5.515625 13.875 5.515625 27.296875 
Q 5.515625 40.765625 12.171875 48.375 
Q 18.84375 56 30.609375 56 
z
" id="DejaVuSans-111"/>
      <path d="M 48.78125 52.59375 
L 48.78125 44.1875 
Q 44.96875 46.296875 41.140625 47.34375 
Q 37.3125 48.390625 33.40625 48.390625 
Q 24.65625 48.390625 19.8125 42.84375 
Q 14.984375 37.3125 14.984375 27.296875 
Q 14.984375 17.28125 19.8125 11.734375 
Q 24.65625 6.203125 33.40625 6.203125 
Q 37.3125 6.203125 41.140625 7.25 
Q 44.96875 8.296875 48.78125 10.40625 
L 48.78125 2.09375 
Q 45.015625 0.34375 40.984375 -0.53125 
Q 36.96875 -1.421875 32.421875 -1.421875 
Q 20.0625 -1.421875 12.78125 6.34375 
Q 5.515625 14.109375 5.515625 27.296875 
Q 5.515625 40.671875 12.859375 48.328125 
Q 20.21875 56 33.015625 56 
Q 37.15625 56 41.109375 55.140625 
Q 45.0625 54.296875 48.78125 52.59375 
z
" id="DejaVuSans-99"/>
      <path d="M 54.890625 33.015625 
L 54.890625 0 
L 45.90625 0 
L 45.90625 32.71875 
Q 45.90625 40.484375 42.875 44.328125 
Q 39.84375 48.1875 33.796875 48.1875 
Q 26.515625 48.1875 22.3125 43.546875 
Q 18.109375 38.921875 18.109375 30.90625 
L 18.109375 0 
L 9.078125 0 
L 9.078125 75.984375 
L 18.109375 75.984375 
L 18.109375 46.1875 
Q 21.34375 51.125 25.703125 53.5625 
Q 30.078125 56 35.796875 56 
Q 45.21875 56 50.046875 50.171875 
Q 54.890625 44.34375 54.890625 33.015625 
z
" id="DejaVuSans-104"/>
     </defs>
     <g transform="translate(207.030313 316.706687)scale(0.1 -0.1)">
      <use xlink:href="#DejaVuSans-69"/>
      <use x="63.183594" xlink:href="#DejaVuSans-112"/>
      <use x="126.660156" xlink:href="#DejaVuSans-111"/>
      <use x="187.841797" xlink:href="#DejaVuSans-99"/>
      <use x="242.822266" xlink:href="#DejaVuSans-104"/>
     </g>
    </g>
   </g>
   <g id="matplotlib.axis_2">
    <g id="ytick_1">
     <g id="line2d_7">
      <defs>
       <path d="M 0 0 
L -3.5 0 
" id="m8cf55e0843" style="stroke:#000000;stroke-width:0.8;"/>
      </defs>
      <g>
       <use style="stroke:#000000;stroke-width:0.8;" x="43.78125" xlink:href="#m8cf55e0843" y="276.334125"/>
      </g>
     </g>
     <g id="text_8">
      <!-- 0.0 -->
      <defs>
       <path d="M 10.6875 12.40625 
L 21 12.40625 
L 21 0 
L 10.6875 0 
z
" id="DejaVuSans-46"/>
      </defs>
      <g transform="translate(20.878125 280.133344)scale(0.1 -0.1)">
       <use xlink:href="#DejaVuSans-48"/>
       <use x="63.623047" xlink:href="#DejaVuSans-46"/>
       <use x="95.410156" xlink:href="#DejaVuSans-48"/>
      </g>
     </g>
    </g>
    <g id="ytick_2">
     <g id="line2d_8">
      <g>
       <use style="stroke:#000000;stroke-width:0.8;" x="43.78125" xlink:href="#m8cf55e0843" y="227.950125"/>
      </g>
     </g>
     <g id="text_9">
      <!-- 0.2 -->
      <g transform="translate(20.878125 231.749344)scale(0.1 -0.1)">
       <use xlink:href="#DejaVuSans-48"/>
       <use x="63.623047" xlink:href="#DejaVuSans-46"/>
       <use x="95.410156" xlink:href="#DejaVuSans-50"/>
      </g>
     </g>
    </g>
    <g id="ytick_3">
     <g id="line2d_9">
      <g>
       <use style="stroke:#000000;stroke-width:0.8;" x="43.78125" xlink:href="#m8cf55e0843" y="179.566125"/>
      </g>
     </g>
     <g id="text_10">
      <!-- 0.4 -->
      <defs>
       <path d="M 37.796875 64.3125 
L 12.890625 25.390625 
L 37.796875 25.390625 
z
M 35.203125 72.90625 
L 47.609375 72.90625 
L 47.609375 25.390625 
L 58.015625 25.390625 
L 58.015625 17.1875 
L 47.609375 17.1875 
L 47.609375 0 
L 37.796875 0 
L 37.796875 17.1875 
L 4.890625 17.1875 
L 4.890625 26.703125 
z
" id="DejaVuSans-52"/>
      </defs>
      <g transform="translate(20.878125 183.365344)scale(0.1 -0.1)">
       <use xlink:href="#DejaVuSans-48"/>
       <use x="63.623047" xlink:href="#DejaVuSans-46"/>
       <use x="95.410156" xlink:href="#DejaVuSans-52"/>
      </g>
     </g>
    </g>
    <g id="ytick_4">
     <g id="line2d_10">
      <g>
       <use style="stroke:#000000;stroke-width:0.8;" x="43.78125" xlink:href="#m8cf55e0843" y="131.182125"/>
      </g>
     </g>
     <g id="text_11">
      <!-- 0.6 -->
      <defs>
       <path d="M 33.015625 40.375 
Q 26.375 40.375 22.484375 35.828125 
Q 18.609375 31.296875 18.609375 23.390625 
Q 18.609375 15.53125 22.484375 10.953125 
Q 26.375 6.390625 33.015625 6.390625 
Q 39.65625 6.390625 43.53125 10.953125 
Q 47.40625 15.53125 47.40625 23.390625 
Q 47.40625 31.296875 43.53125 35.828125 
Q 39.65625 40.375 33.015625 40.375 
z
M 52.59375 71.296875 
L 52.59375 62.3125 
Q 48.875 64.0625 45.09375 64.984375 
Q 41.3125 65.921875 37.59375 65.921875 
Q 27.828125 65.921875 22.671875 59.328125 
Q 17.53125 52.734375 16.796875 39.40625 
Q 19.671875 43.65625 24.015625 45.921875 
Q 28.375 48.1875 33.59375 48.1875 
Q 44.578125 48.1875 50.953125 41.515625 
Q 57.328125 34.859375 57.328125 23.390625 
Q 57.328125 12.15625 50.6875 5.359375 
Q 44.046875 -1.421875 33.015625 -1.421875 
Q 20.359375 -1.421875 13.671875 8.265625 
Q 6.984375 17.96875 6.984375 36.375 
Q 6.984375 53.65625 15.1875 63.9375 
Q 23.390625 74.21875 37.203125 74.21875 
Q 40.921875 74.21875 44.703125 73.484375 
Q 48.484375 72.75 52.59375 71.296875 
z
" id="DejaVuSans-54"/>
      </defs>
      <g transform="translate(20.878125 134.981344)scale(0.1 -0.1)">
       <use xlink:href="#DejaVuSans-48"/>
       <use x="63.623047" xlink:href="#DejaVuSans-46"/>
       <use x="95.410156" xlink:href="#DejaVuSans-54"/>
      </g>
     </g>
    </g>
    <g id="ytick_5">
     <g id="line2d_11">
      <g>
       <use style="stroke:#000000;stroke-width:0.8;" x="43.78125" xlink:href="#m8cf55e0843" y="82.798125"/>
      </g>
     </g>
     <g id="text_12">
      <!-- 0.8 -->
      <defs>
       <path d="M 31.78125 34.625 
Q 24.75 34.625 20.71875 30.859375 
Q 16.703125 27.09375 16.703125 20.515625 
Q 16.703125 13.921875 20.71875 10.15625 
Q 24.75 6.390625 31.78125 6.390625 
Q 38.8125 6.390625 42.859375 10.171875 
Q 46.921875 13.96875 46.921875 20.515625 
Q 46.921875 27.09375 42.890625 30.859375 
Q 38.875 34.625 31.78125 34.625 
z
M 21.921875 38.8125 
Q 15.578125 40.375 12.03125 44.71875 
Q 8.5 49.078125 8.5 55.328125 
Q 8.5 64.0625 14.71875 69.140625 
Q 20.953125 74.21875 31.78125 74.21875 
Q 42.671875 74.21875 48.875 69.140625 
Q 55.078125 64.0625 55.078125 55.328125 
Q 55.078125 49.078125 51.53125 44.71875 
Q 48 40.375 41.703125 38.8125 
Q 48.828125 37.15625 52.796875 32.3125 
Q 56.78125 27.484375 56.78125 20.515625 
Q 56.78125 9.90625 50.3125 4.234375 
Q 43.84375 -1.421875 31.78125 -1.421875 
Q 19.734375 -1.421875 13.25 4.234375 
Q 6.78125 9.90625 6.78125 20.515625 
Q 6.78125 27.484375 10.78125 32.3125 
Q 14.796875 37.15625 21.921875 38.8125 
z
M 18.3125 54.390625 
Q 18.3125 48.734375 21.84375 45.5625 
Q 25.390625 42.390625 31.78125 42.390625 
Q 38.140625 42.390625 41.71875 45.5625 
Q 45.3125 48.734375 45.3125 54.390625 
Q 45.3125 60.0625 41.71875 63.234375 
Q 38.140625 66.40625 31.78125 66.40625 
Q 25.390625 66.40625 21.84375 63.234375 
Q 18.3125 60.0625 18.3125 54.390625 
z
" id="DejaVuSans-56"/>
      </defs>
      <g transform="translate(20.878125 86.597344)scale(0.1 -0.1)">
       <use xlink:href="#DejaVuSans-48"/>
       <use x="63.623047" xlink:href="#DejaVuSans-46"/>
       <use x="95.410156" xlink:href="#DejaVuSans-56"/>
      </g>
     </g>
    </g>
    <g id="ytick_6">
     <g id="line2d_12">
      <g>
       <use style="stroke:#000000;stroke-width:0.8;" x="43.78125" xlink:href="#m8cf55e0843" y="34.414125"/>
      </g>
     </g>
     <g id="text_13">
      <!-- 1.0 -->
      <g transform="translate(20.878125 38.213344)scale(0.1 -0.1)">
       <use xlink:href="#DejaVuSans-49"/>
       <use x="63.623047" xlink:href="#DejaVuSans-46"/>
       <use x="95.410156" xlink:href="#DejaVuSans-48"/>
      </g>
     </g>
    </g>
    <g id="text_14">
     <!-- Loss -->
     <defs>
      <path d="M 9.8125 72.90625 
L 19.671875 72.90625 
L 19.671875 8.296875 
L 55.171875 8.296875 
L 55.171875 0 
L 9.8125 0 
z
" id="DejaVuSans-76"/>
      <path d="M 44.28125 53.078125 
L 44.28125 44.578125 
Q 40.484375 46.53125 36.375 47.5 
Q 32.28125 48.484375 27.875 48.484375 
Q 21.1875 48.484375 17.84375 46.4375 
Q 14.5 44.390625 14.5 40.28125 
Q 14.5 37.15625 16.890625 35.375 
Q 19.28125 33.59375 26.515625 31.984375 
L 29.59375 31.296875 
Q 39.15625 29.25 43.1875 25.515625 
Q 47.21875 21.78125 47.21875 15.09375 
Q 47.21875 7.46875 41.1875 3.015625 
Q 35.15625 -1.421875 24.609375 -1.421875 
Q 20.21875 -1.421875 15.453125 -0.5625 
Q 10.6875 0.296875 5.421875 2 
L 5.421875 11.28125 
Q 10.40625 8.6875 15.234375 7.390625 
Q 20.0625 6.109375 24.8125 6.109375 
Q 31.15625 6.109375 34.5625 8.28125 
Q 37.984375 10.453125 37.984375 14.40625 
Q 37.984375 18.0625 35.515625 20.015625 
Q 33.0625 21.96875 24.703125 23.78125 
L 21.578125 24.515625 
Q 13.234375 26.265625 9.515625 29.90625 
Q 5.8125 33.546875 5.8125 39.890625 
Q 5.8125 47.609375 11.28125 51.796875 
Q 16.75 56 26.8125 56 
Q 31.78125 56 36.171875 55.265625 
Q 40.578125 54.546875 44.28125 53.078125 
z
" id="DejaVuSans-115"/>
     </defs>
     <g transform="translate(14.798438 166.428031)rotate(-90)scale(0.1 -0.1)">
      <use xlink:href="#DejaVuSans-76"/>
      <use x="55.697266" xlink:href="#DejaVuSans-111"/>
      <use x="116.878906" xlink:href="#DejaVuSans-115"/>
      <use x="168.978516" xlink:href="#DejaVuSans-115"/>
     </g>
    </g>
   </g>
   <g id="line2d_13">
    <path clip-path="url(#p7b9bcacc48)" d="M 60.013977 171.892298 
L 61.169332 213.848619 
L 62.324686 231.503308 
L 63.48004 221.111265 
L 64.635394 251.120095 
L 65.790749 266.784297 
L 66.946103 229.789367 
L 68.101457 222.190593 
L 69.256811 243.476832 
L 70.412166 229.452593 
L 71.56752 224.039684 
L 72.722874 234.263226 
L 73.878228 232.754325 
L 75.033583 257.017298 
L 76.188937 248.136464 
L 77.344291 114.511875 
L 78.499645 142.672953 
L 79.655 146.84604 
L 80.810354 144.750843 
L 81.965708 156.342949 
L 83.121062 162.526242 
L 84.276417 201.397713 
L 85.431771 226.220237 
L 86.587125 233.977406 
L 87.742479 138.247508 
L 88.897834 165.804109 
L 90.053188 185.527138 
L 91.208542 201.410737 
L 92.363896 197.112699 
L 93.519251 206.687375 
L 94.674605 150.332237 
L 96.985313 178.913379 
L 98.140668 165.539666 
L 99.296022 200.570184 
L 100.451376 203.759643 
L 101.60673 245.698078 
L 102.762085 271.091321 
L 103.917439 276.334125 
L 105.072793 188.768779 
L 106.228147 208.749786 
L 107.383502 214.342528 
L 108.538856 215.463603 
L 109.69421 219.18043 
L 110.849564 248.116199 
L 112.004919 138.713014 
L 113.160273 184.550733 
L 114.315627 195.568592 
L 115.470981 217.030147 
L 116.626336 234.726584 
L 117.78169 254.308473 
L 118.937044 148.393528 
L 120.092398 181.509412 
L 121.247753 197.695261 
L 122.403107 180.742227 
L 124.713816 218.056408 
L 125.86917 211.756506 
L 127.024524 226.616807 
L 128.179878 253.074053 
L 129.335233 201.644762 
L 130.490587 236.46446 
L 131.645941 249.416277 
L 132.801295 189.409764 
L 133.95665 200.71398 
L 135.112004 214.626936 
L 136.267358 181.879194 
L 137.422712 209.434696 
L 138.578067 203.448479 
L 139.733421 157.718649 
L 140.888775 181.538956 
L 142.044129 194.549237 
L 143.199484 172.961647 
L 144.354838 193.935903 
L 145.510192 220.916128 
L 146.665546 180.778893 
L 147.820901 202.839328 
L 148.976255 214.067214 
L 150.131609 201.293125 
L 151.286963 227.915448 
L 152.442318 234.647787 
L 153.597672 187.176101 
L 154.753026 224.311394 
L 155.90838 240.137357 
L 157.063735 171.814004 
L 158.219089 198.31852 
L 159.374443 217.01799 
L 160.529797 157.575048 
L 161.685152 192.19599 
L 162.840506 201.963957 
L 163.99586 204.045762 
L 165.151214 214.296992 
L 166.306569 232.385714 
L 167.461923 205.786152 
L 168.617277 211.902867 
L 169.772631 226.984674 
L 170.927986 182.565534 
L 172.08334 200.581914 
L 173.238694 205.65725 
L 174.394048 192.719125 
L 175.549403 219.566385 
L 176.704757 215.500313 
L 177.860111 101.281583 
L 179.015465 115.196438 
L 180.17082 136.066323 
L 181.326174 194.497806 
L 182.481528 206.068299 
L 183.636882 223.057602 
L 184.792237 114.107204 
L 187.102945 179.805176 
L 189.413654 232.56592 
L 190.569008 260.947457 
L 191.724362 139.307791 
L 192.879717 169.46512 
L 194.035071 187.551719 
L 195.190425 228.563938 
L 196.345779 233.508335 
L 197.501134 242.97552 
L 198.656488 182.092667 
L 199.811842 179.502875 
L 200.967196 196.913087 
L 202.122551 132.970971 
L 203.277905 163.138225 
L 204.433259 179.461239 
L 205.588613 193.044439 
L 206.743968 209.375204 
L 207.899322 212.538767 
L 209.054676 229.826441 
L 210.21003 238.559632 
L 211.365385 252.420636 
L 212.520739 207.673286 
L 213.676093 206.93831 
L 214.831447 214.82251 
L 215.986802 169.203986 
L 217.142156 176.814678 
L 218.29751 191.951491 
L 219.452864 202.885601 
L 220.608219 209.198194 
L 221.763573 224.890098 
L 222.918927 218.206279 
L 224.074281 199.101409 
L 225.229636 225.849882 
L 226.38499 199.735409 
L 227.540344 210.401342 
L 228.695698 209.99964 
L 229.851053 171.179007 
L 231.006407 215.94961 
L 232.161761 247.893771 
L 233.317115 150.939583 
L 235.627824 193.333166 
L 236.783178 175.971813 
L 237.938532 187.28105 
L 239.093887 205.821619 
L 240.249241 220.9043 
L 241.404595 233.152777 
L 242.559949 239.349513 
L 243.715304 173.190579 
L 244.870658 167.362656 
L 246.026012 178.129645 
L 247.181366 180.513873 
L 248.336721 188.053248 
L 249.492075 202.517929 
L 250.647429 203.926887 
L 251.802783 223.674035 
L 252.958138 223.162486 
L 254.113492 152.522032 
L 256.424201 190.263168 
L 257.579555 112.332236 
L 258.734909 143.08934 
L 259.890263 159.04081 
L 261.045618 203.308475 
L 262.200972 215.995486 
L 263.356326 223.682977 
L 264.51168 201.445973 
L 265.667035 204.94146 
L 266.822389 214.32223 
L 267.977743 205.747904 
L 269.133097 205.72112 
L 270.288452 213.083363 
L 271.443806 174.193782 
L 272.59916 189.527065 
L 273.754514 208.236829 
L 274.909869 163.451758 
L 276.065223 124.667632 
L 277.220577 141.397441 
L 278.375931 192.163954 
L 279.531286 201.763168 
L 280.68664 214.633993 
L 281.841994 145.552253 
L 282.997348 164.988447 
L 284.152703 189.671808 
L 285.308057 136.739243 
L 286.463411 158.867073 
L 287.618765 178.077427 
L 288.77412 97.289241 
L 289.929474 145.540478 
L 291.084828 119.477183 
L 292.240182 140.35315 
L 293.395537 144.530153 
L 294.550891 172.285708 
L 295.706245 169.933732 
L 296.861599 146.430563 
L 298.016954 140.456864 
L 299.172308 166.880738 
L 300.327662 171.407997 
L 301.483016 176.697132 
L 302.638371 95.030072 
L 303.793725 94.995211 
L 304.949079 142.067977 
L 306.104433 159.836745 
L 307.259788 156.097005 
L 308.415142 161.278901 
L 309.570496 156.150098 
L 310.72585 148.612629 
L 311.881205 169.618972 
L 313.036559 173.838332 
L 314.191913 186.63053 
L 315.347267 181.534644 
L 316.502622 135.329939 
L 317.657976 122.530076 
L 318.81333 134.737055 
L 319.968684 142.804477 
L 321.124039 167.450031 
L 322.279393 155.626226 
L 323.434747 135.610627 
L 324.590102 158.064045 
L 325.745456 185.472565 
L 326.90081 168.343337 
L 328.056164 169.850547 
L 329.211519 189.987847 
L 330.366873 125.159605 
L 331.522227 125.656778 
L 332.677581 141.35553 
L 333.832936 75.694572 
L 334.98829 71.440149 
L 336.143644 105.628567 
L 337.298998 86.704715 
L 338.454353 108.209843 
L 339.609707 121.253524 
L 340.765061 126.710777 
L 341.920415 131.086582 
L 343.07577 176.18783 
L 344.231124 67.697852 
L 345.386478 77.930727 
L 346.541832 68.04043 
L 347.697187 102.35796 
L 348.852541 132.467007 
L 350.007895 113.60691 
L 351.163249 157.852846 
L 352.318604 171.772325 
L 353.473958 169.754953 
L 354.629312 98.732018 
L 355.784666 80.167258 
L 356.940021 79.670806 
L 358.095375 34.414125 
L 359.250729 107.38656 
L 360.406083 101.231091 
L 361.561438 99.678214 
L 362.716792 129.253407 
L 363.872146 133.122085 
L 365.0275 62.781273 
L 366.182855 97.939768 
L 367.338209 89.795777 
L 368.493563 178.89696 
L 369.648917 181.75823 
L 370.804272 173.596087 
L 371.959626 159.675417 
L 373.11498 149.199113 
L 374.270334 174.972901 
L 375.425689 125.028875 
L 376.581043 139.317846 
L 377.736397 149.622204 
L 378.891751 117.888435 
L 380.047106 123.402233 
L 381.20246 144.428736 
L 382.357814 71.880893 
L 383.513168 117.239223 
L 384.668523 129.642606 
L 384.668523 129.642606 
" style="fill:none;stroke:#1f77b4;stroke-linecap:square;stroke-width:1.5;"/>
   </g>
   <g id="line2d_14">
    <path clip-path="url(#p7b9bcacc48)" d="M 60.013977 133.050245 
L 61.169332 139.128424 
L 62.324686 144.22685 
L 63.48004 212.91234 
L 64.635394 214.259219 
L 65.790749 215.432423 
L 66.946103 210.696753 
L 68.101457 211.956657 
L 69.256811 212.747994 
L 70.412166 222.311871 
L 71.56752 223.101476 
L 72.722874 223.746905 
L 73.878228 235.658575 
L 75.033583 236.300974 
L 76.188937 236.768073 
L 77.344291 244.886033 
L 79.655 245.326394 
L 80.810354 260.954807 
L 83.121062 260.962341 
L 84.276417 247.099043 
L 85.431771 247.504265 
L 86.587125 247.777326 
L 87.742479 269.746611 
L 90.053188 269.80856 
L 91.208542 237.834689 
L 93.519251 239.533189 
L 94.674605 267.362593 
L 100.451376 267.358231 
L 101.60673 254.370108 
L 103.917439 255.063311 
L 105.072793 265.659661 
L 107.383502 265.628484 
L 108.538856 267.518046 
L 110.849564 267.605629 
L 112.004919 276.292722 
L 114.315627 276.295491 
L 115.470981 266.941284 
L 117.78169 267.187933 
L 118.937044 268.692808 
L 121.247753 268.837602 
L 122.403107 268.001733 
L 124.713816 268.225034 
L 125.86917 259.294036 
L 128.179878 259.550183 
L 129.335233 267.196262 
L 131.645941 267.378269 
L 132.801295 256.636321 
L 135.112004 256.742447 
L 136.267358 248.781044 
L 137.422712 249.666796 
L 138.578067 250.331099 
L 139.733421 276.317641 
L 145.510192 276.334125 
L 146.665546 271.857786 
L 148.976255 271.877636 
L 150.131609 267.204204 
L 152.442318 267.517161 
L 153.597672 271.866146 
L 155.90838 271.921359 
L 157.063735 271.324997 
L 159.374443 271.360632 
L 160.529797 267.608721 
L 162.840506 267.742178 
L 163.99586 276.168726 
L 166.306569 276.19745 
L 167.461923 263.038502 
L 169.772631 263.233603 
L 170.927986 271.275144 
L 173.238694 271.316382 
L 174.394048 267.60019 
L 176.704757 267.673146 
L 177.860111 276.318125 
L 180.17082 276.321685 
L 181.326174 267.00594 
L 183.636882 267.159223 
L 184.792237 276.297389 
L 187.102945 276.296575 
L 188.258299 259.011205 
L 190.569008 259.129775 
L 191.724362 263.426913 
L 194.035071 263.446576 
L 195.190425 252.848223 
L 196.345779 253.379995 
L 197.501134 253.749158 
L 198.656488 262.786084 
L 200.967196 262.920857 
L 202.122551 267.275617 
L 204.433259 267.437863 
L 205.588613 241.250886 
L 207.899322 241.705469 
L 209.054676 233.655877 
L 211.365385 233.924859 
L 212.520739 242.277127 
L 213.676093 242.604903 
L 214.831447 242.807981 
L 215.986802 245.142179 
L 218.29751 245.409718 
L 219.452864 240.485292 
L 221.763573 240.975838 
L 222.918927 263.333884 
L 225.229636 263.518478 
L 226.38499 240.859645 
L 228.695698 242.21782 
L 229.851053 258.373306 
L 231.006407 258.02124 
L 232.161761 258.077155 
L 233.317115 256.938103 
L 235.627824 257.214498 
L 236.783178 248.46597 
L 237.938532 248.817328 
L 239.093887 249.046171 
L 240.249241 259.364403 
L 242.559949 259.574605 
L 243.715304 257.755109 
L 246.026012 258.158906 
L 247.181366 249.937835 
L 248.336721 250.296461 
L 249.492075 250.494414 
L 250.647429 259.356114 
L 252.958138 259.654781 
L 254.113492 247.290785 
L 256.424201 247.604966 
L 257.579555 270.944555 
L 259.890263 270.967857 
L 261.045618 250.538675 
L 262.200972 250.68984 
L 263.356326 250.982604 
L 264.51168 256.714283 
L 266.822389 256.79656 
L 267.977743 231.650265 
L 269.133097 232.702338 
L 270.288452 233.312658 
L 271.443806 216.570066 
L 273.754514 217.470898 
L 274.909869 250.966849 
L 277.220577 251.218947 
L 278.375931 218.609728 
L 280.68664 219.229068 
L 281.841994 257.303293 
L 284.152703 257.338687 
L 285.308057 243.406885 
L 287.618765 243.73108 
L 288.77412 152.955751 
L 289.929474 154.965646 
L 291.084828 156.067978 
L 292.240182 194.506249 
L 293.395537 195.43965 
L 294.550891 196.227572 
L 295.706245 129.363408 
L 298.016954 132.447447 
L 299.172308 227.706333 
L 300.327662 227.66067 
L 301.483016 227.999908 
L 302.638371 234.33867 
L 304.949079 234.783342 
L 306.104433 126.865044 
L 307.259788 128.814035 
L 308.415142 130.156042 
L 309.570496 212.421595 
L 313.036559 213.714356 
L 314.191913 213.773583 
L 315.347267 213.954484 
L 316.502622 255.423096 
L 317.657976 255.465381 
L 318.81333 255.729608 
L 319.968684 241.494784 
L 321.124039 241.490056 
L 322.279393 241.610943 
L 323.434747 257.493282 
L 325.745456 257.612269 
L 326.90081 233.038684 
L 328.056164 234.098533 
L 329.211519 234.720443 
L 330.366873 181.39982 
L 331.522227 183.09596 
L 332.677581 184.538545 
L 333.832936 96.173939 
L 334.98829 99.31849 
L 336.143644 101.919507 
L 337.298998 170.529632 
L 338.454353 171.164364 
L 339.609707 172.07025 
L 340.765061 34.414125 
L 341.920415 38.932286 
L 343.07577 42.755925 
L 344.231124 160.330185 
L 345.386478 162.023027 
L 346.541832 162.995374 
L 347.697187 196.660411 
L 348.852541 196.777666 
L 350.007895 197.230775 
L 351.163249 240.162942 
L 352.318604 240.025112 
L 353.473958 240.243503 
L 354.629312 195.576225 
L 355.784666 196.973083 
L 356.940021 197.894147 
L 358.095375 251.608998 
L 359.250729 251.787655 
L 360.406083 252.086347 
L 361.561438 263.531901 
L 362.716792 263.417598 
L 363.872146 263.443081 
L 365.0275 226.933756 
L 366.182855 227.508722 
L 367.338209 227.906281 
L 368.493563 236.777017 
L 370.804272 237.836718 
L 371.959626 235.727288 
L 374.270334 235.95689 
L 375.425689 253.795805 
L 376.581043 254.091138 
L 377.736397 254.199372 
L 378.891751 255.14331 
L 381.20246 255.605404 
L 382.357814 251.164114 
L 383.513168 251.47211 
L 384.668523 251.628685 
L 384.668523 251.628685 
" style="fill:none;stroke:#ff7f0e;stroke-linecap:square;stroke-width:1.5;"/>
   </g>
   <g id="patch_3">
    <path d="M 43.78125 288.430125 
L 43.78125 22.318125 
" style="fill:none;stroke:#000000;stroke-linecap:square;stroke-linejoin:miter;stroke-width:0.8;"/>
   </g>
   <g id="patch_4">
    <path d="M 400.90125 288.430125 
L 400.90125 22.318125 
" style="fill:none;stroke:#000000;stroke-linecap:square;stroke-linejoin:miter;stroke-width:0.8;"/>
   </g>
   <g id="patch_5">
    <path d="M 43.78125 288.430125 
L 400.90125 288.430125 
" style="fill:none;stroke:#000000;stroke-linecap:square;stroke-linejoin:miter;stroke-width:0.8;"/>
   </g>
   <g id="patch_6">
    <path d="M 43.78125 22.318125 
L 400.90125 22.318125 
" style="fill:none;stroke:#000000;stroke-linecap:square;stroke-linejoin:miter;stroke-width:0.8;"/>
   </g>
   <g id="text_15">
    <!-- Entropy and Loss. -->
    <defs>
     <path d="M 54.890625 33.015625 
L 54.890625 0 
L 45.90625 0 
L 45.90625 32.71875 
Q 45.90625 40.484375 42.875 44.328125 
Q 39.84375 48.1875 33.796875 48.1875 
Q 26.515625 48.1875 22.3125 43.546875 
Q 18.109375 38.921875 18.109375 30.90625 
L 18.109375 0 
L 9.078125 0 
L 9.078125 54.6875 
L 18.109375 54.6875 
L 18.109375 46.1875 
Q 21.34375 51.125 25.703125 53.5625 
Q 30.078125 56 35.796875 56 
Q 45.21875 56 50.046875 50.171875 
Q 54.890625 44.34375 54.890625 33.015625 
z
" id="DejaVuSans-110"/>
     <path d="M 18.3125 70.21875 
L 18.3125 54.6875 
L 36.8125 54.6875 
L 36.8125 47.703125 
L 18.3125 47.703125 
L 18.3125 18.015625 
Q 18.3125 11.328125 20.140625 9.421875 
Q 21.96875 7.515625 27.59375 7.515625 
L 36.8125 7.515625 
L 36.8125 0 
L 27.59375 0 
Q 17.1875 0 13.234375 3.875 
Q 9.28125 7.765625 9.28125 18.015625 
L 9.28125 47.703125 
L 2.6875 47.703125 
L 2.6875 54.6875 
L 9.28125 54.6875 
L 9.28125 70.21875 
z
" id="DejaVuSans-116"/>
     <path d="M 41.109375 46.296875 
Q 39.59375 47.171875 37.8125 47.578125 
Q 36.03125 48 33.890625 48 
Q 26.265625 48 22.1875 43.046875 
Q 18.109375 38.09375 18.109375 28.8125 
L 18.109375 0 
L 9.078125 0 
L 9.078125 54.6875 
L 18.109375 54.6875 
L 18.109375 46.1875 
Q 20.953125 51.171875 25.484375 53.578125 
Q 30.03125 56 36.53125 56 
Q 37.453125 56 38.578125 55.875 
Q 39.703125 55.765625 41.0625 55.515625 
z
" id="DejaVuSans-114"/>
     <path d="M 32.171875 -5.078125 
Q 28.375 -14.84375 24.75 -17.8125 
Q 21.140625 -20.796875 15.09375 -20.796875 
L 7.90625 -20.796875 
L 7.90625 -13.28125 
L 13.1875 -13.28125 
Q 16.890625 -13.28125 18.9375 -11.515625 
Q 21 -9.765625 23.484375 -3.21875 
L 25.09375 0.875 
L 2.984375 54.6875 
L 12.5 54.6875 
L 29.59375 11.921875 
L 46.6875 54.6875 
L 56.203125 54.6875 
z
" id="DejaVuSans-121"/>
     <path id="DejaVuSans-32"/>
     <path d="M 34.28125 27.484375 
Q 23.390625 27.484375 19.1875 25 
Q 14.984375 22.515625 14.984375 16.5 
Q 14.984375 11.71875 18.140625 8.90625 
Q 21.296875 6.109375 26.703125 6.109375 
Q 34.1875 6.109375 38.703125 11.40625 
Q 43.21875 16.703125 43.21875 25.484375 
L 43.21875 27.484375 
z
M 52.203125 31.203125 
L 52.203125 0 
L 43.21875 0 
L 43.21875 8.296875 
Q 40.140625 3.328125 35.546875 0.953125 
Q 30.953125 -1.421875 24.3125 -1.421875 
Q 15.921875 -1.421875 10.953125 3.296875 
Q 6 8.015625 6 15.921875 
Q 6 25.140625 12.171875 29.828125 
Q 18.359375 34.515625 30.609375 34.515625 
L 43.21875 34.515625 
L 43.21875 35.40625 
Q 43.21875 41.609375 39.140625 45 
Q 35.0625 48.390625 27.6875 48.390625 
Q 23 48.390625 18.546875 47.265625 
Q 14.109375 46.140625 10.015625 43.890625 
L 10.015625 52.203125 
Q 14.9375 54.109375 19.578125 55.046875 
Q 24.21875 56 28.609375 56 
Q 40.484375 56 46.34375 49.84375 
Q 52.203125 43.703125 52.203125 31.203125 
z
" id="DejaVuSans-97"/>
     <path d="M 45.40625 46.390625 
L 45.40625 75.984375 
L 54.390625 75.984375 
L 54.390625 0 
L 45.40625 0 
L 45.40625 8.203125 
Q 42.578125 3.328125 38.25 0.953125 
Q 33.9375 -1.421875 27.875 -1.421875 
Q 17.96875 -1.421875 11.734375 6.484375 
Q 5.515625 14.40625 5.515625 27.296875 
Q 5.515625 40.1875 11.734375 48.09375 
Q 17.96875 56 27.875 56 
Q 33.9375 56 38.25 53.625 
Q 42.578125 51.265625 45.40625 46.390625 
z
M 14.796875 27.296875 
Q 14.796875 17.390625 18.875 11.75 
Q 22.953125 6.109375 30.078125 6.109375 
Q 37.203125 6.109375 41.296875 11.75 
Q 45.40625 17.390625 45.40625 27.296875 
Q 45.40625 37.203125 41.296875 42.84375 
Q 37.203125 48.484375 30.078125 48.484375 
Q 22.953125 48.484375 18.875 42.84375 
Q 14.796875 37.203125 14.796875 27.296875 
z
" id="DejaVuSans-100"/>
    </defs>
    <g transform="translate(168.625313 16.318125)scale(0.12 -0.12)">
     <use xlink:href="#DejaVuSans-69"/>
     <use x="63.183594" xlink:href="#DejaVuSans-110"/>
     <use x="126.5625" xlink:href="#DejaVuSans-116"/>
     <use x="165.771484" xlink:href="#DejaVuSans-114"/>
     <use x="206.853516" xlink:href="#DejaVuSans-111"/>
     <use x="268.035156" xlink:href="#DejaVuSans-112"/>
     <use x="331.511719" xlink:href="#DejaVuSans-121"/>
     <use x="390.691406" xlink:href="#DejaVuSans-32"/>
     <use x="422.478516" xlink:href="#DejaVuSans-97"/>
     <use x="483.757812" xlink:href="#DejaVuSans-110"/>
     <use x="547.136719" xlink:href="#DejaVuSans-100"/>
     <use x="610.613281" xlink:href="#DejaVuSans-32"/>
     <use x="642.400391" xlink:href="#DejaVuSans-76"/>
     <use x="698.097656" xlink:href="#DejaVuSans-111"/>
     <use x="759.279297" xlink:href="#DejaVuSans-115"/>
     <use x="811.378906" xlink:href="#DejaVuSans-115"/>
     <use x="863.478516" xlink:href="#DejaVuSans-46"/>
    </g>
   </g>
   <g id="legend_1">
    <g id="patch_7">
     <path d="M 20.061562 353.02505 
L 428.620938 353.02505 
Q 430.620938 353.02505 430.620938 351.02505 
L 430.620938 337.346925 
Q 430.620938 335.346925 428.620938 335.346925 
L 20.061562 335.346925 
Q 18.061562 335.346925 18.061562 337.346925 
L 18.061562 351.02505 
Q 18.061562 353.02505 20.061562 353.02505 
z
" style="fill:#4c4c4c;opacity:0.5;stroke:#4c4c4c;stroke-linejoin:miter;"/>
    </g>
    <g id="patch_8">
     <path d="M 18.061562 351.02505 
L 426.620938 351.02505 
Q 428.620938 351.02505 428.620938 349.02505 
L 428.620938 335.346925 
Q 428.620938 333.346925 426.620938 333.346925 
L 18.061562 333.346925 
Q 16.061562 333.346925 16.061562 335.346925 
L 16.061562 349.02505 
Q 16.061562 351.02505 18.061562 351.02505 
z
" style="fill:#ffffff;stroke:#cccccc;stroke-linejoin:miter;"/>
    </g>
    <g id="line2d_15">
     <path d="M 20.061562 341.445362 
L 40.061562 341.445362 
" style="fill:none;stroke:#1f77b4;stroke-linecap:square;stroke-width:1.5;"/>
    </g>
    <g id="line2d_16"/>
    <g id="text_16">
     <!-- Policy Loss (Normalized) -->
     <defs>
      <path d="M 19.671875 64.796875 
L 19.671875 37.40625 
L 32.078125 37.40625 
Q 38.96875 37.40625 42.71875 40.96875 
Q 46.484375 44.53125 46.484375 51.125 
Q 46.484375 57.671875 42.71875 61.234375 
Q 38.96875 64.796875 32.078125 64.796875 
z
M 9.8125 72.90625 
L 32.078125 72.90625 
Q 44.34375 72.90625 50.609375 67.359375 
Q 56.890625 61.8125 56.890625 51.125 
Q 56.890625 40.328125 50.609375 34.8125 
Q 44.34375 29.296875 32.078125 29.296875 
L 19.671875 29.296875 
L 19.671875 0 
L 9.8125 0 
z
" id="DejaVuSans-80"/>
      <path d="M 9.421875 75.984375 
L 18.40625 75.984375 
L 18.40625 0 
L 9.421875 0 
z
" id="DejaVuSans-108"/>
      <path d="M 9.421875 54.6875 
L 18.40625 54.6875 
L 18.40625 0 
L 9.421875 0 
z
M 9.421875 75.984375 
L 18.40625 75.984375 
L 18.40625 64.59375 
L 9.421875 64.59375 
z
" id="DejaVuSans-105"/>
      <path d="M 31 75.875 
Q 24.46875 64.65625 21.28125 53.65625 
Q 18.109375 42.671875 18.109375 31.390625 
Q 18.109375 20.125 21.3125 9.0625 
Q 24.515625 -2 31 -13.1875 
L 23.1875 -13.1875 
Q 15.875 -1.703125 12.234375 9.375 
Q 8.59375 20.453125 8.59375 31.390625 
Q 8.59375 42.28125 12.203125 53.3125 
Q 15.828125 64.359375 23.1875 75.875 
z
" id="DejaVuSans-40"/>
      <path d="M 9.8125 72.90625 
L 23.09375 72.90625 
L 55.421875 11.921875 
L 55.421875 72.90625 
L 64.984375 72.90625 
L 64.984375 0 
L 51.703125 0 
L 19.390625 60.984375 
L 19.390625 0 
L 9.8125 0 
z
" id="DejaVuSans-78"/>
      <path d="M 52 44.1875 
Q 55.375 50.25 60.0625 53.125 
Q 64.75 56 71.09375 56 
Q 79.640625 56 84.28125 50.015625 
Q 88.921875 44.046875 88.921875 33.015625 
L 88.921875 0 
L 79.890625 0 
L 79.890625 32.71875 
Q 79.890625 40.578125 77.09375 44.375 
Q 74.3125 48.1875 68.609375 48.1875 
Q 61.625 48.1875 57.5625 43.546875 
Q 53.515625 38.921875 53.515625 30.90625 
L 53.515625 0 
L 44.484375 0 
L 44.484375 32.71875 
Q 44.484375 40.625 41.703125 44.40625 
Q 38.921875 48.1875 33.109375 48.1875 
Q 26.21875 48.1875 22.15625 43.53125 
Q 18.109375 38.875 18.109375 30.90625 
L 18.109375 0 
L 9.078125 0 
L 9.078125 54.6875 
L 18.109375 54.6875 
L 18.109375 46.1875 
Q 21.1875 51.21875 25.484375 53.609375 
Q 29.78125 56 35.6875 56 
Q 41.65625 56 45.828125 52.96875 
Q 50 49.953125 52 44.1875 
z
" id="DejaVuSans-109"/>
      <path d="M 5.515625 54.6875 
L 48.1875 54.6875 
L 48.1875 46.484375 
L 14.40625 7.171875 
L 48.1875 7.171875 
L 48.1875 0 
L 4.296875 0 
L 4.296875 8.203125 
L 38.09375 47.515625 
L 5.515625 47.515625 
z
" id="DejaVuSans-122"/>
      <path d="M 56.203125 29.59375 
L 56.203125 25.203125 
L 14.890625 25.203125 
Q 15.484375 15.921875 20.484375 11.0625 
Q 25.484375 6.203125 34.421875 6.203125 
Q 39.59375 6.203125 44.453125 7.46875 
Q 49.3125 8.734375 54.109375 11.28125 
L 54.109375 2.78125 
Q 49.265625 0.734375 44.1875 -0.34375 
Q 39.109375 -1.421875 33.890625 -1.421875 
Q 20.796875 -1.421875 13.15625 6.1875 
Q 5.515625 13.8125 5.515625 26.8125 
Q 5.515625 40.234375 12.765625 48.109375 
Q 20.015625 56 32.328125 56 
Q 43.359375 56 49.78125 48.890625 
Q 56.203125 41.796875 56.203125 29.59375 
z
M 47.21875 32.234375 
Q 47.125 39.59375 43.09375 43.984375 
Q 39.0625 48.390625 32.421875 48.390625 
Q 24.90625 48.390625 20.390625 44.140625 
Q 15.875 39.890625 15.1875 32.171875 
z
" id="DejaVuSans-101"/>
      <path d="M 8.015625 75.875 
L 15.828125 75.875 
Q 23.140625 64.359375 26.78125 53.3125 
Q 30.421875 42.28125 30.421875 31.390625 
Q 30.421875 20.453125 26.78125 9.375 
Q 23.140625 -1.703125 15.828125 -13.1875 
L 8.015625 -13.1875 
Q 14.5 -2 17.703125 9.0625 
Q 20.90625 20.125 20.90625 31.390625 
Q 20.90625 42.671875 17.703125 53.65625 
Q 14.5 64.65625 8.015625 75.875 
z
" id="DejaVuSans-41"/>
     </defs>
     <g transform="translate(48.061562 344.945362)scale(0.1 -0.1)">
      <use xlink:href="#DejaVuSans-80"/>
      <use x="60.255859" xlink:href="#DejaVuSans-111"/>
      <use x="121.4375" xlink:href="#DejaVuSans-108"/>
      <use x="149.220703" xlink:href="#DejaVuSans-105"/>
      <use x="177.003906" xlink:href="#DejaVuSans-99"/>
      <use x="231.984375" xlink:href="#DejaVuSans-121"/>
      <use x="291.164062" xlink:href="#DejaVuSans-32"/>
      <use x="322.951172" xlink:href="#DejaVuSans-76"/>
      <use x="378.648438" xlink:href="#DejaVuSans-111"/>
      <use x="439.830078" xlink:href="#DejaVuSans-115"/>
      <use x="491.929688" xlink:href="#DejaVuSans-115"/>
      <use x="544.029297" xlink:href="#DejaVuSans-32"/>
      <use x="575.816406" xlink:href="#DejaVuSans-40"/>
      <use x="614.830078" xlink:href="#DejaVuSans-78"/>
      <use x="689.634766" xlink:href="#DejaVuSans-111"/>
      <use x="750.816406" xlink:href="#DejaVuSans-114"/>
      <use x="791.914062" xlink:href="#DejaVuSans-109"/>
      <use x="889.326172" xlink:href="#DejaVuSans-97"/>
      <use x="950.605469" xlink:href="#DejaVuSans-108"/>
      <use x="978.388672" xlink:href="#DejaVuSans-105"/>
      <use x="1006.171875" xlink:href="#DejaVuSans-122"/>
      <use x="1058.662109" xlink:href="#DejaVuSans-101"/>
      <use x="1120.185547" xlink:href="#DejaVuSans-100"/>
      <use x="1183.662109" xlink:href="#DejaVuSans-41"/>
     </g>
    </g>
    <g id="line2d_17">
     <path d="M 190.330312 341.445362 
L 210.330312 341.445362 
" style="fill:none;stroke:#ff7f0e;stroke-linecap:square;stroke-width:1.5;"/>
    </g>
    <g id="line2d_18"/>
    <g id="text_17">
     <!-- Critic Loss (Normalized) -->
     <defs>
      <path d="M 64.40625 67.28125 
L 64.40625 56.890625 
Q 59.421875 61.53125 53.78125 63.8125 
Q 48.140625 66.109375 41.796875 66.109375 
Q 29.296875 66.109375 22.65625 58.46875 
Q 16.015625 50.828125 16.015625 36.375 
Q 16.015625 21.96875 22.65625 14.328125 
Q 29.296875 6.6875 41.796875 6.6875 
Q 48.140625 6.6875 53.78125 8.984375 
Q 59.421875 11.28125 64.40625 15.921875 
L 64.40625 5.609375 
Q 59.234375 2.09375 53.4375 0.328125 
Q 47.65625 -1.421875 41.21875 -1.421875 
Q 24.65625 -1.421875 15.125 8.703125 
Q 5.609375 18.84375 5.609375 36.375 
Q 5.609375 53.953125 15.125 64.078125 
Q 24.65625 74.21875 41.21875 74.21875 
Q 47.75 74.21875 53.53125 72.484375 
Q 59.328125 70.75 64.40625 67.28125 
z
" id="DejaVuSans-67"/>
     </defs>
     <g transform="translate(218.330312 344.945362)scale(0.1 -0.1)">
      <use xlink:href="#DejaVuSans-67"/>
      <use x="69.824219" xlink:href="#DejaVuSans-114"/>
      <use x="110.9375" xlink:href="#DejaVuSans-105"/>
      <use x="138.720703" xlink:href="#DejaVuSans-116"/>
      <use x="177.929688" xlink:href="#DejaVuSans-105"/>
      <use x="205.712891" xlink:href="#DejaVuSans-99"/>
      <use x="260.693359" xlink:href="#DejaVuSans-32"/>
      <use x="292.480469" xlink:href="#DejaVuSans-76"/>
      <use x="348.177734" xlink:href="#DejaVuSans-111"/>
      <use x="409.359375" xlink:href="#DejaVuSans-115"/>
      <use x="461.458984" xlink:href="#DejaVuSans-115"/>
      <use x="513.558594" xlink:href="#DejaVuSans-32"/>
      <use x="545.345703" xlink:href="#DejaVuSans-40"/>
      <use x="584.359375" xlink:href="#DejaVuSans-78"/>
      <use x="659.164062" xlink:href="#DejaVuSans-111"/>
      <use x="720.345703" xlink:href="#DejaVuSans-114"/>
      <use x="761.443359" xlink:href="#DejaVuSans-109"/>
      <use x="858.855469" xlink:href="#DejaVuSans-97"/>
      <use x="920.134766" xlink:href="#DejaVuSans-108"/>
      <use x="947.917969" xlink:href="#DejaVuSans-105"/>
      <use x="975.701172" xlink:href="#DejaVuSans-122"/>
      <use x="1028.191406" xlink:href="#DejaVuSans-101"/>
      <use x="1089.714844" xlink:href="#DejaVuSans-100"/>
      <use x="1153.191406" xlink:href="#DejaVuSans-41"/>
     </g>
    </g>
    <g id="line2d_19">
     <path d="M 357.550625 341.445362 
L 377.550625 341.445362 
" style="fill:none;stroke:#008000;stroke-linecap:square;stroke-width:1.5;"/>
    </g>
    <g id="line2d_20"/>
    <g id="text_18">
     <!-- Entropy -->
     <g transform="translate(385.550625 344.945362)scale(0.1 -0.1)">
      <use xlink:href="#DejaVuSans-69"/>
      <use x="63.183594" xlink:href="#DejaVuSans-110"/>
      <use x="126.5625" xlink:href="#DejaVuSans-116"/>
      <use x="165.771484" xlink:href="#DejaVuSans-114"/>
      <use x="206.853516" xlink:href="#DejaVuSans-111"/>
      <use x="268.035156" xlink:href="#DejaVuSans-112"/>
      <use x="331.511719" xlink:href="#DejaVuSans-121"/>
     </g>
    </g>
   </g>
  </g>
  <g id="axes_2">
   <g id="matplotlib.axis_3">
    <g id="ytick_7">
     <g id="line2d_21">
      <defs>
       <path d="M 0 0 
L 3.5 0 
" id="mc6b7d95b82" style="stroke:#000000;stroke-width:0.8;"/>
      </defs>
      <g>
       <use style="stroke:#000000;stroke-width:0.8;" x="400.90125" xlink:href="#mc6b7d95b82" y="256.991835"/>
      </g>
     </g>
     <g id="text_19">
      <!-- 2.5 -->
      <g transform="translate(407.90125 260.791054)scale(0.1 -0.1)">
       <use xlink:href="#DejaVuSans-50"/>
       <use x="63.623047" xlink:href="#DejaVuSans-46"/>
       <use x="95.410156" xlink:href="#DejaVuSans-53"/>
      </g>
     </g>
    </g>
    <g id="ytick_8">
     <g id="line2d_22">
      <g>
       <use style="stroke:#000000;stroke-width:0.8;" x="400.90125" xlink:href="#mc6b7d95b82" y="208.568989"/>
      </g>
     </g>
     <g id="text_20">
      <!-- 3.0 -->
      <defs>
       <path d="M 40.578125 39.3125 
Q 47.65625 37.796875 51.625 33 
Q 55.609375 28.21875 55.609375 21.1875 
Q 55.609375 10.40625 48.1875 4.484375 
Q 40.765625 -1.421875 27.09375 -1.421875 
Q 22.515625 -1.421875 17.65625 -0.515625 
Q 12.796875 0.390625 7.625 2.203125 
L 7.625 11.71875 
Q 11.71875 9.328125 16.59375 8.109375 
Q 21.484375 6.890625 26.8125 6.890625 
Q 36.078125 6.890625 40.9375 10.546875 
Q 45.796875 14.203125 45.796875 21.1875 
Q 45.796875 27.640625 41.28125 31.265625 
Q 36.765625 34.90625 28.71875 34.90625 
L 20.21875 34.90625 
L 20.21875 43.015625 
L 29.109375 43.015625 
Q 36.375 43.015625 40.234375 45.921875 
Q 44.09375 48.828125 44.09375 54.296875 
Q 44.09375 59.90625 40.109375 62.90625 
Q 36.140625 65.921875 28.71875 65.921875 
Q 24.65625 65.921875 20.015625 65.03125 
Q 15.375 64.15625 9.8125 62.3125 
L 9.8125 71.09375 
Q 15.4375 72.65625 20.34375 73.4375 
Q 25.25 74.21875 29.59375 74.21875 
Q 40.828125 74.21875 47.359375 69.109375 
Q 53.90625 64.015625 53.90625 55.328125 
Q 53.90625 49.265625 50.4375 45.09375 
Q 46.96875 40.921875 40.578125 39.3125 
z
" id="DejaVuSans-51"/>
      </defs>
      <g transform="translate(407.90125 212.368208)scale(0.1 -0.1)">
       <use xlink:href="#DejaVuSans-51"/>
       <use x="63.623047" xlink:href="#DejaVuSans-46"/>
       <use x="95.410156" xlink:href="#DejaVuSans-48"/>
      </g>
     </g>
    </g>
    <g id="ytick_9">
     <g id="line2d_23">
      <g>
       <use style="stroke:#000000;stroke-width:0.8;" x="400.90125" xlink:href="#mc6b7d95b82" y="160.146143"/>
      </g>
     </g>
     <g id="text_21">
      <!-- 3.5 -->
      <g transform="translate(407.90125 163.945361)scale(0.1 -0.1)">
       <use xlink:href="#DejaVuSans-51"/>
       <use x="63.623047" xlink:href="#DejaVuSans-46"/>
       <use x="95.410156" xlink:href="#DejaVuSans-53"/>
      </g>
     </g>
    </g>
    <g id="ytick_10">
     <g id="line2d_24">
      <g>
       <use style="stroke:#000000;stroke-width:0.8;" x="400.90125" xlink:href="#mc6b7d95b82" y="111.723296"/>
      </g>
     </g>
     <g id="text_22">
      <!-- 4.0 -->
      <g transform="translate(407.90125 115.522515)scale(0.1 -0.1)">
       <use xlink:href="#DejaVuSans-52"/>
       <use x="63.623047" xlink:href="#DejaVuSans-46"/>
       <use x="95.410156" xlink:href="#DejaVuSans-48"/>
      </g>
     </g>
    </g>
    <g id="ytick_11">
     <g id="line2d_25">
      <g>
       <use style="stroke:#000000;stroke-width:0.8;" x="400.90125" xlink:href="#mc6b7d95b82" y="63.30045"/>
      </g>
     </g>
     <g id="text_23">
      <!-- 4.5 -->
      <g transform="translate(407.90125 67.099669)scale(0.1 -0.1)">
       <use xlink:href="#DejaVuSans-52"/>
       <use x="63.623047" xlink:href="#DejaVuSans-46"/>
       <use x="95.410156" xlink:href="#DejaVuSans-53"/>
      </g>
     </g>
    </g>
    <g id="text_24">
     <!-- Entropy -->
     <g transform="translate(435.402812 174.909281)rotate(-90)scale(0.1 -0.1)">
      <use xlink:href="#DejaVuSans-69"/>
      <use x="63.183594" xlink:href="#DejaVuSans-110"/>
      <use x="126.5625" xlink:href="#DejaVuSans-116"/>
      <use x="165.771484" xlink:href="#DejaVuSans-114"/>
      <use x="206.853516" xlink:href="#DejaVuSans-111"/>
      <use x="268.035156" xlink:href="#DejaVuSans-112"/>
      <use x="331.511719" xlink:href="#DejaVuSans-121"/>
     </g>
    </g>
   </g>
   <g id="line2d_26">
    <path clip-path="url(#p7b9bcacc48)" d="M 60.013977 101.803959 
L 62.324686 102.60887 
L 63.48004 96.262727 
L 65.790749 96.327702 
L 66.946103 95.427384 
L 69.256811 96.126405 
L 70.412166 101.821831 
L 71.56752 101.844643 
L 72.722874 101.98877 
L 73.878228 110.895573 
L 76.188937 110.158038 
L 77.344291 109.480629 
L 78.499645 108.378922 
L 79.655 109.077527 
L 80.810354 94.400026 
L 81.965708 94.358464 
L 83.121062 93.749817 
L 84.276417 94.021861 
L 86.587125 94.811764 
L 87.742479 92.892261 
L 88.897834 93.467013 
L 90.053188 93.103302 
L 91.208542 86.679301 
L 92.363896 86.719385 
L 93.519251 85.874621 
L 94.674605 90.062374 
L 95.829959 90.916789 
L 96.985313 90.793998 
L 98.140668 86.167815 
L 99.296022 86.25177 
L 100.451376 85.459004 
L 101.60673 87.881172 
L 102.762085 88.613303 
L 103.917439 88.865121 
L 105.072793 88.610117 
L 106.228147 87.588809 
L 107.383502 87.441172 
L 108.538856 79.366619 
L 109.69421 79.857508 
L 110.849564 79.533604 
L 112.004919 68.733945 
L 113.160273 68.475524 
L 114.315627 68.439411 
L 115.470981 62.41902 
L 116.626336 62.742138 
L 117.78169 62.052908 
L 118.937044 58.638986 
L 120.092398 57.441826 
L 121.247753 57.804567 
L 122.403107 43.304118 
L 124.713816 42.771159 
L 125.86917 38.909481 
L 127.024524 39.674769 
L 128.179878 40.06531 
L 129.335233 42.229749 
L 130.490587 40.947665 
L 131.645941 41.444049 
L 132.801295 36.536587 
L 133.95665 34.414125 
L 135.112004 34.463583 
L 136.267358 35.347554 
L 137.422712 35.989866 
L 138.578067 36.338522 
L 139.733421 43.237019 
L 140.888775 43.387519 
L 142.044129 43.899235 
L 143.199484 48.160645 
L 144.354838 47.051964 
L 145.510192 46.543527 
L 146.665546 43.907317 
L 148.976255 43.511973 
L 150.131609 46.283766 
L 151.286963 47.371389 
L 152.442318 47.435163 
L 153.597672 51.241149 
L 154.753026 50.628253 
L 155.90838 51.076611 
L 157.063735 53.461835 
L 159.374443 53.556549 
L 160.529797 57.667182 
L 161.685152 58.7452 
L 162.840506 58.902164 
L 163.99586 67.135853 
L 165.151214 67.167347 
L 166.306569 66.397995 
L 167.461923 64.916552 
L 168.617277 65.518781 
L 169.772631 65.465536 
L 170.927986 75.862324 
L 172.08334 76.104213 
L 173.238694 76.177777 
L 174.394048 78.455726 
L 175.549403 79.090603 
L 176.704757 78.915906 
L 177.860111 79.089541 
L 179.015465 79.018609 
L 180.17082 78.62442 
L 181.326174 62.119545 
L 182.481528 59.929153 
L 183.636882 61.052565 
L 184.792237 58.870531 
L 187.102945 58.172157 
L 188.258299 56.819786 
L 189.413654 56.188788 
L 190.569008 56.352079 
L 191.724362 54.243887 
L 192.879717 55.727453 
L 194.035071 55.023676 
L 195.190425 51.363617 
L 197.501134 53.531797 
L 198.656488 58.200603 
L 199.811842 58.248907 
L 200.967196 57.853102 
L 202.122551 54.304798 
L 203.277905 54.742488 
L 204.433259 54.792916 
L 205.588613 67.339597 
L 206.743968 67.213758 
L 209.054676 66.070027 
L 210.21003 65.430993 
L 211.365385 65.222308 
L 212.520739 76.833666 
L 213.676093 76.869132 
L 214.831447 77.30299 
L 215.986802 78.796485 
L 217.142156 79.18758 
L 218.29751 79.412983 
L 219.452864 88.472594 
L 220.608219 87.070627 
L 221.763573 86.773646 
L 222.918927 107.71509 
L 225.229636 107.062664 
L 226.38499 109.796544 
L 227.540344 111.571504 
L 228.695698 111.998666 
L 229.851053 109.749764 
L 231.006407 110.75805 
L 232.161761 111.07221 
L 233.317115 110.278336 
L 234.47247 110.652622 
L 235.627824 110.493025 
L 236.783178 124.937504 
L 237.938532 125.764027 
L 239.093887 125.72228 
L 240.249241 129.933008 
L 241.404595 130.557195 
L 242.559949 130.506074 
L 243.715304 125.993816 
L 244.870658 126.324162 
L 246.026012 126.932071 
L 247.181366 136.495294 
L 248.336721 135.566668 
L 249.492075 135.762423 
L 250.647429 134.283082 
L 251.802783 134.81805 
L 252.958138 135.009465 
L 254.113492 156.030638 
L 255.268846 156.183977 
L 256.424201 156.733746 
L 257.579555 148.822645 
L 258.734909 149.14551 
L 259.890263 149.737717 
L 261.045618 142.1015 
L 262.200972 142.019924 
L 263.356326 141.230437 
L 264.51168 151.896638 
L 266.822389 153.713367 
L 267.977743 157.891353 
L 269.133097 158.518542 
L 270.288452 159.393322 
L 271.443806 165.934713 
L 272.59916 166.665805 
L 273.754514 166.742371 
L 274.909869 170.988472 
L 276.065223 171.739214 
L 277.220577 171.538887 
L 278.375931 170.433301 
L 279.531286 170.544086 
L 280.68664 171.149454 
L 281.841994 179.96115 
L 282.997348 180.723922 
L 284.152703 180.069026 
L 285.308057 196.889331 
L 286.463411 197.218176 
L 287.618765 197.685144 
L 288.77412 209.142979 
L 289.929474 209.233929 
L 291.084828 209.576351 
L 292.240182 201.521724 
L 293.395537 202.834311 
L 294.550891 202.769613 
L 295.706245 211.193146 
L 296.861599 211.097254 
L 298.016954 211.303285 
L 299.172308 206.442556 
L 300.327662 207.241879 
L 301.483016 206.961823 
L 302.638371 220.053238 
L 303.793725 220.239596 
L 304.949079 221.624292 
L 306.104433 221.028344 
L 307.259788 221.189488 
L 308.415142 221.504064 
L 309.570496 208.757494 
L 310.72585 209.659221 
L 311.881205 209.612464 
L 313.036559 209.30313 
L 314.191913 209.752342 
L 315.347267 209.364664 
L 316.502622 220.082724 
L 317.657976 220.866877 
L 318.81333 221.157093 
L 319.968684 222.671023 
L 321.124039 222.448137 
L 322.279393 222.447467 
L 323.434747 229.104583 
L 324.590102 229.056556 
L 325.745456 229.129289 
L 326.90081 221.60746 
L 328.056164 222.227698 
L 329.211519 222.057457 
L 330.366873 238.919901 
L 331.522227 239.163568 
L 332.677581 239.198918 
L 333.832936 254.959331 
L 334.98829 254.962033 
L 336.143644 254.642816 
L 337.298998 257.873959 
L 338.454353 259.282368 
L 339.609707 259.155628 
L 340.765061 270.483397 
L 341.920415 272.093058 
L 343.07577 270.997169 
L 344.231124 275.026895 
L 345.386478 274.453437 
L 346.541832 275.208058 
L 347.697187 270.414959 
L 348.852541 270.506626 
L 350.007895 271.420751 
L 351.163249 265.970863 
L 352.318604 266.783255 
L 353.473958 266.815165 
L 354.629312 276.334125 
L 355.784666 275.153866 
L 356.940021 276.087895 
L 358.095375 254.7512 
L 359.250729 255.006781 
L 360.406083 256.213016 
L 361.561438 261.49361 
L 362.716792 260.633445 
L 363.872146 259.957098 
L 365.0275 257.563424 
L 366.182855 259.215246 
L 367.338209 259.269091 
L 368.493563 265.061194 
L 369.648917 266.691104 
L 370.804272 267.138053 
L 371.959626 270.993428 
L 373.11498 270.209829 
L 374.270334 270.482659 
L 375.425689 265.498676 
L 376.581043 266.599021 
L 377.736397 266.35106 
L 378.891751 268.49331 
L 380.047106 268.837925 
L 381.20246 268.659672 
L 382.357814 268.187947 
L 383.513168 269.282358 
L 384.668523 268.904077 
L 384.668523 268.904077 
" style="fill:none;stroke:#008000;stroke-linecap:square;stroke-width:1.5;"/>
   </g>
   <g id="patch_9">
    <path d="M 43.78125 288.430125 
L 43.78125 22.318125 
" style="fill:none;stroke:#000000;stroke-linecap:square;stroke-linejoin:miter;stroke-width:0.8;"/>
   </g>
   <g id="patch_10">
    <path d="M 400.90125 288.430125 
L 400.90125 22.318125 
" style="fill:none;stroke:#000000;stroke-linecap:square;stroke-linejoin:miter;stroke-width:0.8;"/>
   </g>
   <g id="patch_11">
    <path d="M 43.78125 288.430125 
L 400.90125 288.430125 
" style="fill:none;stroke:#000000;stroke-linecap:square;stroke-linejoin:miter;stroke-width:0.8;"/>
   </g>
   <g id="patch_12">
    <path d="M 43.78125 22.318125 
L 400.90125 22.318125 
" style="fill:none;stroke:#000000;stroke-linecap:square;stroke-linejoin:miter;stroke-width:0.8;"/>
   </g>
  </g>
 </g>
 <defs>
  <clipPath id="p7b9bcacc48">
   <rect height="266.112" width="357.12" x="43.78125" y="22.318125"/>
  </clipPath>
 </defs>
</svg>
