<?xml version="1.0" encoding="utf-8" standalone="no"?>
<!DOCTYPE svg PUBLIC "-//W3C//DTD SVG 1.1//EN"
  "http://www.w3.org/Graphics/SVG/1.1/DTD/svg11.dtd">
<!-- Created with matplotlib (https://matplotlib.org/) -->
<svg height="358.22505pt" version="1.1" viewBox="0 0 444.6825 358.22505" width="444.6825pt" xmlns="http://www.w3.org/2000/svg" xmlns:xlink="http://www.w3.org/1999/xlink">
 <defs>
  <style type="text/css">
*{stroke-linecap:butt;stroke-linejoin:round;}
  </style>
 </defs>
 <g id="figure_1">
  <g id="patch_1">
   <path d="M 0 358.22505 
L 444.6825 358.22505 
L 444.6825 0 
L 0 0 
z
" style="fill:#ffffff;"/>
  </g>
  <g id="axes_1">
   <g id="patch_2">
    <path d="M 43.78125 288.430125 
L 400.90125 288.430125 
L 400.90125 22.318125 
L 43.78125 22.318125 
z
" style="fill:#ffffff;"/>
   </g>
   <g id="matplotlib.axis_1">
    <g id="xtick_1">
     <g id="line2d_1">
      <defs>
       <path d="M 0 0 
L 0 3.5 
" id="m6450ef665c" style="stroke:#000000;stroke-width:0.8;"/>
      </defs>
      <g>
       <use style="stroke:#000000;stroke-width:0.8;" x="60.013977" xlink:href="#m6450ef665c" y="288.430125"/>
      </g>
     </g>
     <g id="text_1">
      <!-- 0 -->
      <defs>
       <path d="M 31.78125 66.40625 
Q 24.171875 66.40625 20.328125 58.90625 
Q 16.5 51.421875 16.5 36.375 
Q 16.5 21.390625 20.328125 13.890625 
Q 24.171875 6.390625 31.78125 6.390625 
Q 39.453125 6.390625 43.28125 13.890625 
Q 47.125 21.390625 47.125 36.375 
Q 47.125 51.421875 43.28125 58.90625 
Q 39.453125 66.40625 31.78125 66.40625 
z
M 31.78125 74.21875 
Q 44.046875 74.21875 50.515625 64.515625 
Q 56.984375 54.828125 56.984375 36.375 
Q 56.984375 17.96875 50.515625 8.265625 
Q 44.046875 -1.421875 31.78125 -1.421875 
Q 19.53125 -1.421875 13.0625 8.265625 
Q 6.59375 17.96875 6.59375 36.375 
Q 6.59375 54.828125 13.0625 64.515625 
Q 19.53125 74.21875 31.78125 74.21875 
z
" id="DejaVuSans-48"/>
      </defs>
      <g transform="translate(56.832727 303.028562)scale(0.1 -0.1)">
       <use xlink:href="#DejaVuSans-48"/>
      </g>
     </g>
    </g>
    <g id="xtick_2">
     <g id="line2d_2">
      <g>
       <use style="stroke:#000000;stroke-width:0.8;" x="100.697504" xlink:href="#m6450ef665c" y="288.430125"/>
      </g>
     </g>
     <g id="text_2">
      <!-- 50 -->
      <defs>
       <path d="M 10.796875 72.90625 
L 49.515625 72.90625 
L 49.515625 64.59375 
L 19.828125 64.59375 
L 19.828125 46.734375 
Q 21.96875 47.46875 24.109375 47.828125 
Q 26.265625 48.1875 28.421875 48.1875 
Q 40.625 48.1875 47.75 41.5 
Q 54.890625 34.8125 54.890625 23.390625 
Q 54.890625 11.625 47.5625 5.09375 
Q 40.234375 -1.421875 26.90625 -1.421875 
Q 22.3125 -1.421875 17.546875 -0.640625 
Q 12.796875 0.140625 7.71875 1.703125 
L 7.71875 11.625 
Q 12.109375 9.234375 16.796875 8.0625 
Q 21.484375 6.890625 26.703125 6.890625 
Q 35.15625 6.890625 40.078125 11.328125 
Q 45.015625 15.765625 45.015625 23.390625 
Q 45.015625 31 40.078125 35.4375 
Q 35.15625 39.890625 26.703125 39.890625 
Q 22.75 39.890625 18.8125 39.015625 
Q 14.890625 38.140625 10.796875 36.28125 
z
" id="DejaVuSans-53"/>
      </defs>
      <g transform="translate(94.335004 303.028562)scale(0.1 -0.1)">
       <use xlink:href="#DejaVuSans-53"/>
       <use x="63.623047" xlink:href="#DejaVuSans-48"/>
      </g>
     </g>
    </g>
    <g id="xtick_3">
     <g id="line2d_3">
      <g>
       <use style="stroke:#000000;stroke-width:0.8;" x="141.381031" xlink:href="#m6450ef665c" y="288.430125"/>
      </g>
     </g>
     <g id="text_3">
      <!-- 100 -->
      <defs>
       <path d="M 12.40625 8.296875 
L 28.515625 8.296875 
L 28.515625 63.921875 
L 10.984375 60.40625 
L 10.984375 69.390625 
L 28.421875 72.90625 
L 38.28125 72.90625 
L 38.28125 8.296875 
L 54.390625 8.296875 
L 54.390625 0 
L 12.40625 0 
z
" id="DejaVuSans-49"/>
      </defs>
      <g transform="translate(131.837281 303.028562)scale(0.1 -0.1)">
       <use xlink:href="#DejaVuSans-49"/>
       <use x="63.623047" xlink:href="#DejaVuSans-48"/>
       <use x="127.246094" xlink:href="#DejaVuSans-48"/>
      </g>
     </g>
    </g>
    <g id="xtick_4">
     <g id="line2d_4">
      <g>
       <use style="stroke:#000000;stroke-width:0.8;" x="182.064558" xlink:href="#m6450ef665c" y="288.430125"/>
      </g>
     </g>
     <g id="text_4">
      <!-- 150 -->
      <g transform="translate(172.520808 303.028562)scale(0.1 -0.1)">
       <use xlink:href="#DejaVuSans-49"/>
       <use x="63.623047" xlink:href="#DejaVuSans-53"/>
       <use x="127.246094" xlink:href="#DejaVuSans-48"/>
      </g>
     </g>
    </g>
    <g id="xtick_5">
     <g id="line2d_5">
      <g>
       <use style="stroke:#000000;stroke-width:0.8;" x="222.748085" xlink:href="#m6450ef665c" y="288.430125"/>
      </g>
     </g>
     <g id="text_5">
      <!-- 200 -->
      <defs>
       <path d="M 19.1875 8.296875 
L 53.609375 8.296875 
L 53.609375 0 
L 7.328125 0 
L 7.328125 8.296875 
Q 12.9375 14.109375 22.625 23.890625 
Q 32.328125 33.6875 34.8125 36.53125 
Q 39.546875 41.84375 41.421875 45.53125 
Q 43.3125 49.21875 43.3125 52.78125 
Q 43.3125 58.59375 39.234375 62.25 
Q 35.15625 65.921875 28.609375 65.921875 
Q 23.96875 65.921875 18.8125 64.3125 
Q 13.671875 62.703125 7.8125 59.421875 
L 7.8125 69.390625 
Q 13.765625 71.78125 18.9375 73 
Q 24.125 74.21875 28.421875 74.21875 
Q 39.75 74.21875 46.484375 68.546875 
Q 53.21875 62.890625 53.21875 53.421875 
Q 53.21875 48.921875 51.53125 44.890625 
Q 49.859375 40.875 45.40625 35.40625 
Q 44.1875 33.984375 37.640625 27.21875 
Q 31.109375 20.453125 19.1875 8.296875 
z
" id="DejaVuSans-50"/>
      </defs>
      <g transform="translate(213.204335 303.028562)scale(0.1 -0.1)">
       <use xlink:href="#DejaVuSans-50"/>
       <use x="63.623047" xlink:href="#DejaVuSans-48"/>
       <use x="127.246094" xlink:href="#DejaVuSans-48"/>
      </g>
     </g>
    </g>
    <g id="xtick_6">
     <g id="line2d_6">
      <g>
       <use style="stroke:#000000;stroke-width:0.8;" x="263.431612" xlink:href="#m6450ef665c" y="288.430125"/>
      </g>
     </g>
     <g id="text_6">
      <!-- 250 -->
      <g transform="translate(253.887862 303.028562)scale(0.1 -0.1)">
       <use xlink:href="#DejaVuSans-50"/>
       <use x="63.623047" xlink:href="#DejaVuSans-53"/>
       <use x="127.246094" xlink:href="#DejaVuSans-48"/>
      </g>
     </g>
    </g>
    <g id="xtick_7">
     <g id="line2d_7">
      <g>
       <use style="stroke:#000000;stroke-width:0.8;" x="304.115139" xlink:href="#m6450ef665c" y="288.430125"/>
      </g>
     </g>
     <g id="text_7">
      <!-- 300 -->
      <defs>
       <path d="M 40.578125 39.3125 
Q 47.65625 37.796875 51.625 33 
Q 55.609375 28.21875 55.609375 21.1875 
Q 55.609375 10.40625 48.1875 4.484375 
Q 40.765625 -1.421875 27.09375 -1.421875 
Q 22.515625 -1.421875 17.65625 -0.515625 
Q 12.796875 0.390625 7.625 2.203125 
L 7.625 11.71875 
Q 11.71875 9.328125 16.59375 8.109375 
Q 21.484375 6.890625 26.8125 6.890625 
Q 36.078125 6.890625 40.9375 10.546875 
Q 45.796875 14.203125 45.796875 21.1875 
Q 45.796875 27.640625 41.28125 31.265625 
Q 36.765625 34.90625 28.71875 34.90625 
L 20.21875 34.90625 
L 20.21875 43.015625 
L 29.109375 43.015625 
Q 36.375 43.015625 40.234375 45.921875 
Q 44.09375 48.828125 44.09375 54.296875 
Q 44.09375 59.90625 40.109375 62.90625 
Q 36.140625 65.921875 28.71875 65.921875 
Q 24.65625 65.921875 20.015625 65.03125 
Q 15.375 64.15625 9.8125 62.3125 
L 9.8125 71.09375 
Q 15.4375 72.65625 20.34375 73.4375 
Q 25.25 74.21875 29.59375 74.21875 
Q 40.828125 74.21875 47.359375 69.109375 
Q 53.90625 64.015625 53.90625 55.328125 
Q 53.90625 49.265625 50.4375 45.09375 
Q 46.96875 40.921875 40.578125 39.3125 
z
" id="DejaVuSans-51"/>
      </defs>
      <g transform="translate(294.571389 303.028562)scale(0.1 -0.1)">
       <use xlink:href="#DejaVuSans-51"/>
       <use x="63.623047" xlink:href="#DejaVuSans-48"/>
       <use x="127.246094" xlink:href="#DejaVuSans-48"/>
      </g>
     </g>
    </g>
    <g id="xtick_8">
     <g id="line2d_8">
      <g>
       <use style="stroke:#000000;stroke-width:0.8;" x="344.798666" xlink:href="#m6450ef665c" y="288.430125"/>
      </g>
     </g>
     <g id="text_8">
      <!-- 350 -->
      <g transform="translate(335.254916 303.028562)scale(0.1 -0.1)">
       <use xlink:href="#DejaVuSans-51"/>
       <use x="63.623047" xlink:href="#DejaVuSans-53"/>
       <use x="127.246094" xlink:href="#DejaVuSans-48"/>
      </g>
     </g>
    </g>
    <g id="xtick_9">
     <g id="line2d_9">
      <g>
       <use style="stroke:#000000;stroke-width:0.8;" x="385.482193" xlink:href="#m6450ef665c" y="288.430125"/>
      </g>
     </g>
     <g id="text_9">
      <!-- 400 -->
      <defs>
       <path d="M 37.796875 64.3125 
L 12.890625 25.390625 
L 37.796875 25.390625 
z
M 35.203125 72.90625 
L 47.609375 72.90625 
L 47.609375 25.390625 
L 58.015625 25.390625 
L 58.015625 17.1875 
L 47.609375 17.1875 
L 47.609375 0 
L 37.796875 0 
L 37.796875 17.1875 
L 4.890625 17.1875 
L 4.890625 26.703125 
z
" id="DejaVuSans-52"/>
      </defs>
      <g transform="translate(375.938443 303.028562)scale(0.1 -0.1)">
       <use xlink:href="#DejaVuSans-52"/>
       <use x="63.623047" xlink:href="#DejaVuSans-48"/>
       <use x="127.246094" xlink:href="#DejaVuSans-48"/>
      </g>
     </g>
    </g>
    <g id="text_10">
     <!-- Epoch -->
     <defs>
      <path d="M 9.8125 72.90625 
L 55.90625 72.90625 
L 55.90625 64.59375 
L 19.671875 64.59375 
L 19.671875 43.015625 
L 54.390625 43.015625 
L 54.390625 34.71875 
L 19.671875 34.71875 
L 19.671875 8.296875 
L 56.78125 8.296875 
L 56.78125 0 
L 9.8125 0 
z
" id="DejaVuSans-69"/>
      <path d="M 18.109375 8.203125 
L 18.109375 -20.796875 
L 9.078125 -20.796875 
L 9.078125 54.6875 
L 18.109375 54.6875 
L 18.109375 46.390625 
Q 20.953125 51.265625 25.265625 53.625 
Q 29.59375 56 35.59375 56 
Q 45.5625 56 51.78125 48.09375 
Q 58.015625 40.1875 58.015625 27.296875 
Q 58.015625 14.40625 51.78125 6.484375 
Q 45.5625 -1.421875 35.59375 -1.421875 
Q 29.59375 -1.421875 25.265625 0.953125 
Q 20.953125 3.328125 18.109375 8.203125 
z
M 48.6875 27.296875 
Q 48.6875 37.203125 44.609375 42.84375 
Q 40.53125 48.484375 33.40625 48.484375 
Q 26.265625 48.484375 22.1875 42.84375 
Q 18.109375 37.203125 18.109375 27.296875 
Q 18.109375 17.390625 22.1875 11.75 
Q 26.265625 6.109375 33.40625 6.109375 
Q 40.53125 6.109375 44.609375 11.75 
Q 48.6875 17.390625 48.6875 27.296875 
z
" id="DejaVuSans-112"/>
      <path d="M 30.609375 48.390625 
Q 23.390625 48.390625 19.1875 42.75 
Q 14.984375 37.109375 14.984375 27.296875 
Q 14.984375 17.484375 19.15625 11.84375 
Q 23.34375 6.203125 30.609375 6.203125 
Q 37.796875 6.203125 41.984375 11.859375 
Q 46.1875 17.53125 46.1875 27.296875 
Q 46.1875 37.015625 41.984375 42.703125 
Q 37.796875 48.390625 30.609375 48.390625 
z
M 30.609375 56 
Q 42.328125 56 49.015625 48.375 
Q 55.71875 40.765625 55.71875 27.296875 
Q 55.71875 13.875 49.015625 6.21875 
Q 42.328125 -1.421875 30.609375 -1.421875 
Q 18.84375 -1.421875 12.171875 6.21875 
Q 5.515625 13.875 5.515625 27.296875 
Q 5.515625 40.765625 12.171875 48.375 
Q 18.84375 56 30.609375 56 
z
" id="DejaVuSans-111"/>
      <path d="M 48.78125 52.59375 
L 48.78125 44.1875 
Q 44.96875 46.296875 41.140625 47.34375 
Q 37.3125 48.390625 33.40625 48.390625 
Q 24.65625 48.390625 19.8125 42.84375 
Q 14.984375 37.3125 14.984375 27.296875 
Q 14.984375 17.28125 19.8125 11.734375 
Q 24.65625 6.203125 33.40625 6.203125 
Q 37.3125 6.203125 41.140625 7.25 
Q 44.96875 8.296875 48.78125 10.40625 
L 48.78125 2.09375 
Q 45.015625 0.34375 40.984375 -0.53125 
Q 36.96875 -1.421875 32.421875 -1.421875 
Q 20.0625 -1.421875 12.78125 6.34375 
Q 5.515625 14.109375 5.515625 27.296875 
Q 5.515625 40.671875 12.859375 48.328125 
Q 20.21875 56 33.015625 56 
Q 37.15625 56 41.109375 55.140625 
Q 45.0625 54.296875 48.78125 52.59375 
z
" id="DejaVuSans-99"/>
      <path d="M 54.890625 33.015625 
L 54.890625 0 
L 45.90625 0 
L 45.90625 32.71875 
Q 45.90625 40.484375 42.875 44.328125 
Q 39.84375 48.1875 33.796875 48.1875 
Q 26.515625 48.1875 22.3125 43.546875 
Q 18.109375 38.921875 18.109375 30.90625 
L 18.109375 0 
L 9.078125 0 
L 9.078125 75.984375 
L 18.109375 75.984375 
L 18.109375 46.1875 
Q 21.34375 51.125 25.703125 53.5625 
Q 30.078125 56 35.796875 56 
Q 45.21875 56 50.046875 50.171875 
Q 54.890625 44.34375 54.890625 33.015625 
z
" id="DejaVuSans-104"/>
     </defs>
     <g transform="translate(207.030313 316.706687)scale(0.1 -0.1)">
      <use xlink:href="#DejaVuSans-69"/>
      <use x="63.183594" xlink:href="#DejaVuSans-112"/>
      <use x="126.660156" xlink:href="#DejaVuSans-111"/>
      <use x="187.841797" xlink:href="#DejaVuSans-99"/>
      <use x="242.822266" xlink:href="#DejaVuSans-104"/>
     </g>
    </g>
   </g>
   <g id="matplotlib.axis_2">
    <g id="ytick_1">
     <g id="line2d_10">
      <defs>
       <path d="M 0 0 
L -3.5 0 
" id="mcd6d25e4b4" style="stroke:#000000;stroke-width:0.8;"/>
      </defs>
      <g>
       <use style="stroke:#000000;stroke-width:0.8;" x="43.78125" xlink:href="#mcd6d25e4b4" y="273.486771"/>
      </g>
     </g>
     <g id="text_11">
      <!-- 0.0 -->
      <defs>
       <path d="M 10.6875 12.40625 
L 21 12.40625 
L 21 0 
L 10.6875 0 
z
" id="DejaVuSans-46"/>
      </defs>
      <g transform="translate(20.878125 277.285989)scale(0.1 -0.1)">
       <use xlink:href="#DejaVuSans-48"/>
       <use x="63.623047" xlink:href="#DejaVuSans-46"/>
       <use x="95.410156" xlink:href="#DejaVuSans-48"/>
      </g>
     </g>
    </g>
    <g id="ytick_2">
     <g id="line2d_11">
      <g>
       <use style="stroke:#000000;stroke-width:0.8;" x="43.78125" xlink:href="#mcd6d25e4b4" y="225.672242"/>
      </g>
     </g>
     <g id="text_12">
      <!-- 0.2 -->
      <g transform="translate(20.878125 229.47146)scale(0.1 -0.1)">
       <use xlink:href="#DejaVuSans-48"/>
       <use x="63.623047" xlink:href="#DejaVuSans-46"/>
       <use x="95.410156" xlink:href="#DejaVuSans-50"/>
      </g>
     </g>
    </g>
    <g id="ytick_3">
     <g id="line2d_12">
      <g>
       <use style="stroke:#000000;stroke-width:0.8;" x="43.78125" xlink:href="#mcd6d25e4b4" y="177.857712"/>
      </g>
     </g>
     <g id="text_13">
      <!-- 0.4 -->
      <g transform="translate(20.878125 181.656931)scale(0.1 -0.1)">
       <use xlink:href="#DejaVuSans-48"/>
       <use x="63.623047" xlink:href="#DejaVuSans-46"/>
       <use x="95.410156" xlink:href="#DejaVuSans-52"/>
      </g>
     </g>
    </g>
    <g id="ytick_4">
     <g id="line2d_13">
      <g>
       <use style="stroke:#000000;stroke-width:0.8;" x="43.78125" xlink:href="#mcd6d25e4b4" y="130.043183"/>
      </g>
     </g>
     <g id="text_14">
      <!-- 0.6 -->
      <defs>
       <path d="M 33.015625 40.375 
Q 26.375 40.375 22.484375 35.828125 
Q 18.609375 31.296875 18.609375 23.390625 
Q 18.609375 15.53125 22.484375 10.953125 
Q 26.375 6.390625 33.015625 6.390625 
Q 39.65625 6.390625 43.53125 10.953125 
Q 47.40625 15.53125 47.40625 23.390625 
Q 47.40625 31.296875 43.53125 35.828125 
Q 39.65625 40.375 33.015625 40.375 
z
M 52.59375 71.296875 
L 52.59375 62.3125 
Q 48.875 64.0625 45.09375 64.984375 
Q 41.3125 65.921875 37.59375 65.921875 
Q 27.828125 65.921875 22.671875 59.328125 
Q 17.53125 52.734375 16.796875 39.40625 
Q 19.671875 43.65625 24.015625 45.921875 
Q 28.375 48.1875 33.59375 48.1875 
Q 44.578125 48.1875 50.953125 41.515625 
Q 57.328125 34.859375 57.328125 23.390625 
Q 57.328125 12.15625 50.6875 5.359375 
Q 44.046875 -1.421875 33.015625 -1.421875 
Q 20.359375 -1.421875 13.671875 8.265625 
Q 6.984375 17.96875 6.984375 36.375 
Q 6.984375 53.65625 15.1875 63.9375 
Q 23.390625 74.21875 37.203125 74.21875 
Q 40.921875 74.21875 44.703125 73.484375 
Q 48.484375 72.75 52.59375 71.296875 
z
" id="DejaVuSans-54"/>
      </defs>
      <g transform="translate(20.878125 133.842402)scale(0.1 -0.1)">
       <use xlink:href="#DejaVuSans-48"/>
       <use x="63.623047" xlink:href="#DejaVuSans-46"/>
       <use x="95.410156" xlink:href="#DejaVuSans-54"/>
      </g>
     </g>
    </g>
    <g id="ytick_5">
     <g id="line2d_14">
      <g>
       <use style="stroke:#000000;stroke-width:0.8;" x="43.78125" xlink:href="#mcd6d25e4b4" y="82.228654"/>
      </g>
     </g>
     <g id="text_15">
      <!-- 0.8 -->
      <defs>
       <path d="M 31.78125 34.625 
Q 24.75 34.625 20.71875 30.859375 
Q 16.703125 27.09375 16.703125 20.515625 
Q 16.703125 13.921875 20.71875 10.15625 
Q 24.75 6.390625 31.78125 6.390625 
Q 38.8125 6.390625 42.859375 10.171875 
Q 46.921875 13.96875 46.921875 20.515625 
Q 46.921875 27.09375 42.890625 30.859375 
Q 38.875 34.625 31.78125 34.625 
z
M 21.921875 38.8125 
Q 15.578125 40.375 12.03125 44.71875 
Q 8.5 49.078125 8.5 55.328125 
Q 8.5 64.0625 14.71875 69.140625 
Q 20.953125 74.21875 31.78125 74.21875 
Q 42.671875 74.21875 48.875 69.140625 
Q 55.078125 64.0625 55.078125 55.328125 
Q 55.078125 49.078125 51.53125 44.71875 
Q 48 40.375 41.703125 38.8125 
Q 48.828125 37.15625 52.796875 32.3125 
Q 56.78125 27.484375 56.78125 20.515625 
Q 56.78125 9.90625 50.3125 4.234375 
Q 43.84375 -1.421875 31.78125 -1.421875 
Q 19.734375 -1.421875 13.25 4.234375 
Q 6.78125 9.90625 6.78125 20.515625 
Q 6.78125 27.484375 10.78125 32.3125 
Q 14.796875 37.15625 21.921875 38.8125 
z
M 18.3125 54.390625 
Q 18.3125 48.734375 21.84375 45.5625 
Q 25.390625 42.390625 31.78125 42.390625 
Q 38.140625 42.390625 41.71875 45.5625 
Q 45.3125 48.734375 45.3125 54.390625 
Q 45.3125 60.0625 41.71875 63.234375 
Q 38.140625 66.40625 31.78125 66.40625 
Q 25.390625 66.40625 21.84375 63.234375 
Q 18.3125 60.0625 18.3125 54.390625 
z
" id="DejaVuSans-56"/>
      </defs>
      <g transform="translate(20.878125 86.027873)scale(0.1 -0.1)">
       <use xlink:href="#DejaVuSans-48"/>
       <use x="63.623047" xlink:href="#DejaVuSans-46"/>
       <use x="95.410156" xlink:href="#DejaVuSans-56"/>
      </g>
     </g>
    </g>
    <g id="ytick_6">
     <g id="line2d_15">
      <g>
       <use style="stroke:#000000;stroke-width:0.8;" x="43.78125" xlink:href="#mcd6d25e4b4" y="34.414125"/>
      </g>
     </g>
     <g id="text_16">
      <!-- 1.0 -->
      <g transform="translate(20.878125 38.213344)scale(0.1 -0.1)">
       <use xlink:href="#DejaVuSans-49"/>
       <use x="63.623047" xlink:href="#DejaVuSans-46"/>
       <use x="95.410156" xlink:href="#DejaVuSans-48"/>
      </g>
     </g>
    </g>
    <g id="text_17">
     <!-- Loss -->
     <defs>
      <path d="M 9.8125 72.90625 
L 19.671875 72.90625 
L 19.671875 8.296875 
L 55.171875 8.296875 
L 55.171875 0 
L 9.8125 0 
z
" id="DejaVuSans-76"/>
      <path d="M 44.28125 53.078125 
L 44.28125 44.578125 
Q 40.484375 46.53125 36.375 47.5 
Q 32.28125 48.484375 27.875 48.484375 
Q 21.1875 48.484375 17.84375 46.4375 
Q 14.5 44.390625 14.5 40.28125 
Q 14.5 37.15625 16.890625 35.375 
Q 19.28125 33.59375 26.515625 31.984375 
L 29.59375 31.296875 
Q 39.15625 29.25 43.1875 25.515625 
Q 47.21875 21.78125 47.21875 15.09375 
Q 47.21875 7.46875 41.1875 3.015625 
Q 35.15625 -1.421875 24.609375 -1.421875 
Q 20.21875 -1.421875 15.453125 -0.5625 
Q 10.6875 0.296875 5.421875 2 
L 5.421875 11.28125 
Q 10.40625 8.6875 15.234375 7.390625 
Q 20.0625 6.109375 24.8125 6.109375 
Q 31.15625 6.109375 34.5625 8.28125 
Q 37.984375 10.453125 37.984375 14.40625 
Q 37.984375 18.0625 35.515625 20.015625 
Q 33.0625 21.96875 24.703125 23.78125 
L 21.578125 24.515625 
Q 13.234375 26.265625 9.515625 29.90625 
Q 5.8125 33.546875 5.8125 39.890625 
Q 5.8125 47.609375 11.28125 51.796875 
Q 16.75 56 26.8125 56 
Q 31.78125 56 36.171875 55.265625 
Q 40.578125 54.546875 44.28125 53.078125 
z
" id="DejaVuSans-115"/>
     </defs>
     <g transform="translate(14.798438 166.428031)rotate(-90)scale(0.1 -0.1)">
      <use xlink:href="#DejaVuSans-76"/>
      <use x="55.697266" xlink:href="#DejaVuSans-111"/>
      <use x="116.878906" xlink:href="#DejaVuSans-115"/>
      <use x="168.978516" xlink:href="#DejaVuSans-115"/>
     </g>
    </g>
   </g>
   <g id="line2d_16">
    <path clip-path="url(#p5f98d96eea)" d="M 60.013977 72.402113 
L 60.827648 71.467982 
L 61.641318 34.414125 
L 62.454989 99.697655 
L 63.268659 61.813496 
L 64.08233 140.304889 
L 64.896001 97.818143 
L 65.709671 125.410096 
L 66.523342 158.601109 
L 67.337012 114.261622 
L 68.150683 102.219409 
L 68.964353 161.042374 
L 69.778024 167.248963 
L 70.591694 166.580171 
L 71.405365 192.392985 
L 72.219035 199.178278 
L 73.032706 196.817991 
L 73.846376 204.049094 
L 74.660047 225.494256 
L 75.473718 233.02881 
L 76.287388 101.642848 
L 77.101059 136.393034 
L 78.7284 173.618205 
L 79.54207 174.872786 
L 80.355741 196.880186 
L 81.169411 188.868717 
L 81.983082 206.412996 
L 82.796752 219.802751 
L 83.610423 225.165343 
L 84.424093 64.218548 
L 85.237764 132.733848 
L 86.051435 161.671715 
L 86.865105 195.558067 
L 88.492446 226.086456 
L 89.306117 193.816344 
L 90.119787 240.471133 
L 90.933458 248.675276 
L 91.747128 252.012321 
L 92.560799 103.074363 
L 93.374469 142.271301 
L 94.18814 151.225836 
L 95.00181 175.143547 
L 95.815481 185.504052 
L 96.629152 199.545561 
L 97.442822 220.567934 
L 98.256493 218.860192 
L 99.070163 233.253906 
L 99.883834 233.534988 
L 100.697504 91.705851 
L 101.511175 89.63761 
L 102.324845 178.088907 
L 103.138516 184.676128 
L 103.952186 207.924369 
L 104.765857 220.04294 
L 105.579528 220.053742 
L 106.393198 220.662481 
L 107.206869 251.935398 
L 108.020539 243.664472 
L 108.83421 128.849711 
L 109.64788 134.951558 
L 112.088892 205.458495 
L 112.902562 206.721659 
L 113.716233 217.339924 
L 114.529903 207.82107 
L 115.343574 217.760584 
L 116.157245 229.222222 
L 116.970915 73.900048 
L 117.784586 108.679762 
L 118.598256 135.838931 
L 119.411927 147.367867 
L 120.225597 154.021962 
L 121.039268 167.486656 
L 121.852938 173.260759 
L 122.666609 161.378375 
L 123.480279 190.674448 
L 124.29395 193.034354 
L 125.10762 142.571502 
L 125.921291 178.517239 
L 126.734962 190.665539 
L 127.548632 213.98979 
L 128.362303 211.951756 
L 129.175973 222.927599 
L 129.989644 228.027632 
L 130.803314 230.638064 
L 131.616985 257.919863 
L 132.430655 257.404503 
L 133.244326 103.122881 
L 134.057996 75.632546 
L 134.871667 126.99284 
L 135.685337 142.647701 
L 136.499008 181.758949 
L 137.312679 180.471703 
L 138.126349 199.527597 
L 138.94002 182.215714 
L 139.75369 215.473733 
L 140.567361 209.0539 
L 141.381031 109.697957 
L 143.822043 177.911777 
L 144.635713 183.312023 
L 145.449384 194.32774 
L 146.263055 209.02943 
L 147.076725 214.686698 
L 147.890396 223.180384 
L 148.704066 221.705884 
L 149.517737 118.662635 
L 150.331407 167.44648 
L 151.145078 182.284977 
L 151.958748 189.967422 
L 152.772419 199.890071 
L 153.586089 211.732637 
L 154.39976 200.808269 
L 155.21343 226.678326 
L 156.027101 198.270444 
L 156.840772 225.731843 
L 157.654442 134.704635 
L 158.468113 157.823476 
L 159.281783 184.911691 
L 160.095454 194.208752 
L 160.909124 208.099859 
L 161.722795 216.807077 
L 162.536465 222.184447 
L 163.350136 224.426391 
L 164.163806 234.507763 
L 164.977477 230.422363 
L 165.791147 112.42903 
L 166.604818 180.411624 
L 169.04583 206.252792 
L 169.8595 221.499095 
L 170.673171 225.195397 
L 171.486841 223.98887 
L 172.300512 237.193855 
L 173.114182 241.680903 
L 173.927853 142.969808 
L 176.368864 203.403353 
L 177.182535 196.178987 
L 177.996206 185.76194 
L 178.809876 200.560784 
L 179.623547 211.328035 
L 180.437217 212.264496 
L 181.250888 228.255122 
L 182.064558 175.359277 
L 182.878229 219.907065 
L 183.691899 242.472097 
L 185.31924 252.846458 
L 186.132911 267.119685 
L 186.946582 261.017259 
L 187.760252 272.546709 
L 188.573923 273.486771 
L 189.387593 267.969238 
L 190.201264 147.994821 
L 191.014934 185.758332 
L 191.828605 193.928068 
L 192.642275 220.706439 
L 193.455946 203.279347 
L 194.269616 240.559277 
L 195.083287 232.034672 
L 195.896957 243.467682 
L 196.710628 247.531933 
L 197.524299 246.911497 
L 198.337969 151.278798 
L 199.15164 186.199726 
L 199.96531 194.293822 
L 200.778981 206.920926 
L 201.592651 225.897478 
L 202.406322 224.888718 
L 203.219992 243.379298 
L 204.033663 238.767151 
L 204.847333 250.79225 
L 205.661004 254.216052 
L 206.474674 165.848125 
L 207.288345 189.476702 
L 208.102016 197.211969 
L 208.915686 208.562004 
L 209.729357 207.697577 
L 210.543027 223.977621 
L 211.356698 236.778456 
L 212.170368 226.476681 
L 212.984039 244.986736 
L 213.797709 236.67659 
L 214.61138 155.713319 
L 215.42505 186.746413 
L 216.238721 197.155343 
L 217.052391 209.908743 
L 217.866062 213.363402 
L 218.679733 222.8501 
L 219.493403 218.246959 
L 221.120744 227.479961 
L 221.934415 239.746698 
L 222.748085 163.116861 
L 223.561756 182.232818 
L 225.189097 204.514751 
L 226.002767 221.060518 
L 227.630109 209.730045 
L 228.443779 229.098968 
L 229.25745 227.437971 
L 230.07112 237.979118 
L 230.884791 165.460178 
L 231.698461 197.09752 
L 232.512132 206.390265 
L 233.325802 213.494112 
L 234.139473 226.635656 
L 234.953143 235.948982 
L 235.766814 234.929164 
L 236.580484 235.360915 
L 237.394155 244.885673 
L 238.207826 240.710485 
L 239.021496 149.622146 
L 239.835167 183.321758 
L 240.648837 202.928387 
L 241.462508 202.11509 
L 242.276178 219.674448 
L 243.089849 215.129719 
L 243.903519 227.394025 
L 245.53086 236.45412 
L 246.344531 227.524429 
L 247.158201 153.747727 
L 247.971872 186.684635 
L 248.785543 197.319571 
L 249.599213 215.652638 
L 250.412884 202.354667 
L 251.226554 221.147518 
L 252.040225 229.340167 
L 252.853895 219.85503 
L 253.667566 239.391932 
L 254.481236 236.290461 
L 255.294907 120.767362 
L 256.108577 133.868915 
L 256.922248 149.559968 
L 259.36326 173.060937 
L 260.17693 183.291694 
L 260.990601 186.671186 
L 261.804271 191.952638 
L 262.617942 199.014105 
L 263.431612 139.975078 
L 264.245283 177.115956 
L 265.058953 190.303218 
L 265.872624 209.466686 
L 266.686294 204.688893 
L 267.499965 220.075156 
L 268.313636 228.139434 
L 269.127306 224.201598 
L 270.754647 237.031074 
L 271.568318 144.056872 
L 272.381988 169.304654 
L 273.195659 187.256869 
L 274.009329 192.964358 
L 274.823 205.661144 
L 275.63667 207.07126 
L 276.450341 212.724854 
L 277.264011 217.430557 
L 278.077682 224.200144 
L 278.891353 225.243729 
L 279.705023 112.037099 
L 281.332364 177.53552 
L 282.146035 174.619492 
L 282.959705 184.797238 
L 283.773376 208.555543 
L 284.587046 208.547903 
L 285.400717 217.762853 
L 286.214387 217.545507 
L 287.028058 223.051131 
L 287.841728 141.792738 
L 288.655399 165.054873 
L 289.46907 175.644444 
L 290.28274 182.734881 
L 291.096411 204.455973 
L 291.910081 205.461593 
L 292.723752 193.520383 
L 294.351093 222.641183 
L 295.164763 201.178235 
L 295.978434 134.494603 
L 296.792104 181.61275 
L 297.605775 190.065711 
L 299.233116 211.287051 
L 300.046787 204.305916 
L 300.860457 215.341863 
L 301.674128 210.968125 
L 302.487798 231.436461 
L 303.301469 218.258635 
L 304.115139 144.625677 
L 304.92881 171.835546 
L 305.74248 189.4433 
L 306.556151 195.823426 
L 307.369821 186.283393 
L 308.183492 195.347888 
L 308.997163 213.328096 
L 309.810833 209.877169 
L 310.624504 202.745715 
L 311.438174 206.075959 
L 312.251845 142.033697 
L 313.879186 168.573543 
L 314.692856 178.509186 
L 315.506527 197.140857 
L 316.320197 184.754798 
L 317.133868 203.703258 
L 317.947538 213.717684 
L 318.761209 208.817998 
L 319.57488 198.283321 
L 320.38855 138.61921 
L 321.202221 164.821325 
L 322.015891 183.622819 
L 322.829562 182.456191 
L 323.643232 195.485867 
L 324.456903 206.199266 
L 325.270573 182.185759 
L 326.084244 176.370623 
L 326.897914 208.105028 
L 328.525255 154.570383 
L 330.152597 197.652441 
L 330.966267 198.017744 
L 331.779938 209.857487 
L 332.593608 210.140954 
L 333.407279 216.663941 
L 334.220949 222.190163 
L 335.03462 223.11413 
L 335.84829 214.699595 
L 336.661961 158.316064 
L 337.475631 159.058458 
L 338.289302 173.193184 
L 339.102972 189.630917 
L 339.916643 195.931012 
L 340.730314 194.139193 
L 341.543984 200.850537 
L 342.357655 195.712291 
L 343.171325 208.863974 
L 343.984996 202.785069 
L 344.798666 161.286721 
L 345.612337 160.279832 
L 346.426007 186.071969 
L 347.239678 186.401138 
L 348.053348 208.070903 
L 348.867019 212.512855 
L 349.68069 205.252386 
L 350.49436 187.755946 
L 351.308031 228.648308 
L 352.121701 207.167433 
L 352.935372 164.05309 
L 353.749042 174.727909 
L 354.562713 195.336647 
L 355.376383 191.773033 
L 357.003724 213.019664 
L 357.817395 211.702022 
L 358.631065 212.354549 
L 359.444736 223.917654 
L 360.258407 226.911958 
L 361.072077 158.925006 
L 361.885748 182.4998 
L 362.699418 190.145158 
L 363.513089 195.632821 
L 365.14043 209.919787 
L 365.9541 211.157801 
L 366.767771 215.374829 
L 367.581441 217.715081 
L 368.395112 216.849564 
L 369.208782 152.649562 
L 370.022453 163.4111 
L 370.836124 182.00604 
L 371.649794 188.203304 
L 372.463465 192.935136 
L 373.277135 200.988532 
L 374.090806 205.842387 
L 374.904476 209.201141 
L 375.718147 209.880623 
L 376.531817 216.08767 
L 377.345488 177.418845 
L 378.159158 212.550074 
L 378.972829 216.556964 
L 379.786499 223.731513 
L 380.60017 234.209683 
L 381.413841 226.443911 
L 382.227511 227.358533 
L 383.041182 239.295045 
L 383.854852 244.480057 
L 384.668523 232.729082 
L 384.668523 232.729082 
" style="fill:none;stroke:#1f77b4;stroke-linecap:square;stroke-opacity:0.3;stroke-width:1.5;"/>
   </g>
   <g id="line2d_17">
    <path clip-path="url(#p5f98d96eea)" d="M 60.013977 73.519398 
L 60.827648 60.659957 
L 61.641318 61.156975 
L 62.454989 71.292727 
L 63.268659 87.349488 
L 64.08233 105.609533 
L 64.896001 113.072304 
L 65.709671 122.54089 
L 66.523342 125.373786 
L 67.337012 133.139658 
L 68.150683 135.069454 
L 68.964353 149.427349 
L 70.591694 168.032151 
L 71.405365 185.264096 
L 72.219035 208.583471 
L 73.032706 208.664958 
L 73.846376 204.070808 
L 74.660047 193.508938 
L 76.287388 167.799926 
L 77.101059 160.919525 
L 77.914729 155.523505 
L 78.7284 155.718043 
L 79.54207 167.468329 
L 80.355741 205.224222 
L 81.169411 204.528907 
L 81.983082 195.159496 
L 82.796752 180.698412 
L 83.610423 168.609191 
L 84.424093 158.897124 
L 85.237764 160.665123 
L 86.051435 159.678166 
L 86.865105 168.335214 
L 87.678776 188.479379 
L 88.492446 232.579907 
L 89.306117 234.010349 
L 90.119787 226.553942 
L 92.560799 177.773418 
L 94.18814 157.551667 
L 95.00181 159.87672 
L 95.815481 174.998958 
L 96.629152 215.252068 
L 97.442822 222.588458 
L 98.256493 210.272925 
L 100.697504 163.631272 
L 101.511175 156.169384 
L 102.324845 157.99798 
L 103.138516 164.493317 
L 103.952186 185.408644 
L 104.765857 227.233415 
L 105.579528 237.432602 
L 106.393198 225.816943 
L 107.206869 212.457465 
L 108.020539 194.871791 
L 108.83421 181.417564 
L 109.64788 172.119426 
L 110.461551 169.076876 
L 111.275221 169.850042 
L 112.088892 182.235699 
L 112.902562 217.849839 
L 113.716233 221.123385 
L 114.529903 208.554059 
L 116.970915 151.184868 
L 117.784586 137.412275 
L 118.598256 132.884585 
L 119.411927 131.017151 
L 120.225597 141.133112 
L 121.039268 170.141239 
L 121.852938 172.431753 
L 122.666609 172.582984 
L 123.480279 172.145931 
L 124.29395 174.58393 
L 125.10762 177.48218 
L 125.921291 183.432486 
L 126.734962 191.981308 
L 127.548632 197.050481 
L 128.362303 209.431358 
L 129.175973 238.448024 
L 129.989644 244.87452 
L 130.803314 231.989454 
L 131.616985 210.135261 
L 133.244326 161.54383 
L 134.057996 142.933535 
L 134.871667 134.768284 
L 135.685337 131.778607 
L 136.499008 147.479433 
L 137.312679 187.586909 
L 138.126349 199.843067 
L 138.94002 193.677035 
L 139.75369 183.360595 
L 140.567361 171.013034 
L 141.381031 162.890208 
L 142.194702 156.246981 
L 143.008372 157.211658 
L 143.822043 160.646835 
L 144.635713 176.030527 
L 145.449384 207.399009 
L 146.263055 210.371121 
L 147.076725 205.951031 
L 148.704066 190.431332 
L 149.517737 182.036751 
L 150.331407 177.824035 
L 151.145078 175.348064 
L 151.958748 182.035225 
L 152.772419 191.26477 
L 153.586089 215.415486 
L 154.39976 213.532606 
L 155.21343 206.329224 
L 157.654442 180.463174 
L 158.468113 178.354047 
L 159.281783 178.781805 
L 160.095454 187.229803 
L 160.909124 197.800011 
L 161.722795 226.98693 
L 162.536465 225.084674 
L 163.350136 217.236232 
L 165.791147 187.613943 
L 166.604818 182.660874 
L 167.418489 183.261978 
L 168.232159 188.03547 
L 169.04583 201.058598 
L 169.8595 229.686814 
L 170.673171 228.65606 
L 171.486841 223.780274 
L 173.114182 203.688894 
L 174.741523 186.281597 
L 175.555194 180.471394 
L 176.368864 179.295449 
L 177.182535 184.786134 
L 177.996206 204.826263 
L 178.809876 204.687934 
L 179.623547 202.658267 
L 180.437217 203.544136 
L 182.064558 215.836808 
L 183.691899 230.823839 
L 185.31924 252.480517 
L 186.132911 275.6935 
L 186.946582 271.490924 
L 187.760252 260.843599 
L 190.201264 212.451385 
L 191.014934 202.373962 
L 191.828605 195.778522 
L 192.642275 198.116008 
L 193.455946 210.115594 
L 194.269616 239.040992 
L 195.083287 239.409999 
L 195.896957 235.138526 
L 197.524299 215.519081 
L 198.337969 203.994157 
L 199.15164 197.775086 
L 199.96531 196.168775 
L 200.778981 200.171393 
L 201.592651 211.778371 
L 202.406322 238.502989 
L 203.219992 241.273648 
L 204.033663 238.995553 
L 204.847333 230.886875 
L 207.288345 201.269782 
L 208.102016 199.164685 
L 208.915686 198.826408 
L 209.729357 207.671514 
L 210.543027 230.777564 
L 211.356698 231.630431 
L 212.170368 227.879891 
L 213.797709 212.296699 
L 214.61138 203.030906 
L 215.42505 197.916593 
L 216.238721 197.052637 
L 217.052391 198.161013 
L 217.866062 205.908381 
L 218.679733 226.133348 
L 219.493403 226.214971 
L 220.307074 222.057361 
L 221.934415 206.108962 
L 222.748085 200.391345 
L 223.561756 198.296331 
L 224.375426 195.49531 
L 225.189097 197.399493 
L 226.002767 203.192025 
L 226.816438 223.184368 
L 227.630109 223.786265 
L 228.443779 220.622142 
L 229.25745 215.198867 
L 230.07112 208.962373 
L 230.884791 205.952495 
L 231.698461 205.327993 
L 232.512132 205.609856 
L 233.325802 210.090681 
L 234.139473 218.795552 
L 234.953143 240.548603 
L 235.766814 238.992351 
L 236.580484 232.00999 
L 237.394155 223.009139 
L 238.207826 211.170489 
L 239.021496 202.647536 
L 239.835167 196.588047 
L 240.648837 194.423774 
L 241.462508 196.954025 
L 242.276178 207.870059 
L 243.089849 230.188516 
L 243.903519 228.551557 
L 244.71719 222.981609 
L 246.344531 208.099686 
L 247.971872 194.931601 
L 248.785543 194.877134 
L 249.599213 197.337911 
L 250.412884 207.153768 
L 251.226554 231.081732 
L 252.040225 231.105723 
L 252.853895 222.329171 
L 254.481236 192.406331 
L 255.294907 173.994257 
L 256.108577 159.149865 
L 256.922248 150.802955 
L 257.735918 147.522311 
L 258.549589 155.426223 
L 259.36326 179.610761 
L 260.17693 182.436256 
L 260.990601 181.834329 
L 261.804271 179.907644 
L 262.617942 180.104028 
L 263.431612 179.947211 
L 264.245283 181.802553 
L 265.058953 187.927921 
L 265.872624 195.827346 
L 266.686294 206.223646 
L 267.499965 228.214968 
L 268.313636 228.12587 
L 269.127306 221.954483 
L 271.568318 192.752985 
L 272.381988 185.988139 
L 273.195659 183.826861 
L 274.009329 185.436857 
L 274.823 193.926205 
L 275.63667 219.875702 
L 276.450341 219.333783 
L 278.077682 198.546829 
L 279.705023 173.681241 
L 280.518694 166.26386 
L 281.332364 163.863836 
L 282.146035 168.86041 
L 282.959705 181.783876 
L 283.773376 210.301053 
L 284.587046 213.067389 
L 285.400717 209.012006 
L 286.214387 203.686492 
L 287.841728 183.647746 
L 289.46907 176.985474 
L 290.28274 178.446239 
L 291.096411 188.218401 
L 291.910081 208.912661 
L 292.723752 206.795651 
L 293.537422 201.977864 
L 295.164763 187.469647 
L 295.978434 185.343149 
L 296.792104 184.697171 
L 297.605775 185.392018 
L 298.419445 188.671688 
L 299.233116 201.041912 
L 300.046787 220.295225 
L 300.860457 217.503484 
L 301.674128 211.681074 
L 302.487798 203.68413 
L 304.92881 183.056454 
L 305.74248 180.950281 
L 306.556151 182.511921 
L 307.369821 190.849639 
L 308.183492 208.122263 
L 308.997163 206.905992 
L 309.810833 200.568363 
L 313.065515 169.163991 
L 313.879186 167.926751 
L 314.692856 173.045742 
L 315.506527 183.16721 
L 316.320197 202.472184 
L 317.133868 203.814096 
L 317.947538 198.803352 
L 318.761209 192.60281 
L 319.57488 184.531042 
L 320.38855 179.175578 
L 321.202221 176.422081 
L 322.015891 176.783406 
L 322.829562 177.534328 
L 323.643232 185.765675 
L 324.456903 197.311513 
L 325.270573 193.459534 
L 326.084244 187.067668 
L 327.711585 179.329856 
L 328.525255 179.617809 
L 330.152597 188.952174 
L 330.966267 193.625572 
L 331.779938 205.649753 
L 332.593608 219.825606 
L 333.407279 220.78694 
L 334.220949 214.66937 
L 335.03462 205.516074 
L 335.84829 194.866735 
L 337.475631 179.618215 
L 338.289302 176.939975 
L 339.102972 177.622489 
L 339.916643 185.008511 
L 340.730314 199.902392 
L 341.543984 203.576971 
L 342.357655 198.497478 
L 343.984996 185.569628 
L 344.798666 181.716457 
L 345.612337 181.110347 
L 346.426007 184.994364 
L 347.239678 184.877729 
L 348.053348 193.690363 
L 348.867019 208.140148 
L 349.68069 210.79611 
L 350.49436 205.148681 
L 351.308031 200.606835 
L 352.121701 193.333069 
L 352.935372 188.764186 
L 353.749042 188.36697 
L 354.562713 189.913216 
L 355.376383 189.303358 
L 356.190054 198.038347 
L 357.003724 214.510936 
L 357.817395 216.103 
L 358.631065 212.626036 
L 359.444736 208.357666 
L 361.072077 194.786294 
L 361.885748 191.334492 
L 362.699418 189.738707 
L 363.513089 190.860449 
L 364.326759 197.541832 
L 365.14043 214.816259 
L 365.9541 215.220793 
L 366.767771 210.079113 
L 368.395112 193.880184 
L 369.208782 185.804287 
L 370.022453 180.436316 
L 370.836124 178.302215 
L 371.649794 180.89367 
L 372.463465 188.104552 
L 373.277135 204.1544 
L 374.090806 205.26624 
L 374.904476 204.82979 
L 376.531817 204.88725 
L 377.345488 207.090859 
L 378.972829 213.483149 
L 379.786499 218.22553 
L 380.60017 225.665359 
L 381.413841 232.063536 
L 382.227511 236.983087 
L 383.041182 239.517339 
L 383.854852 238.759622 
L 384.668523 233.803263 
L 384.668523 233.803263 
" style="fill:none;stroke:#1f77b4;stroke-linecap:square;stroke-width:1.5;"/>
   </g>
   <g id="line2d_18">
    <path clip-path="url(#p5f98d96eea)" d="M 60.013977 135.204952 
L 60.827648 139.685967 
L 61.641318 141.885649 
L 62.454989 143.688995 
L 64.08233 146.512052 
L 65.709671 148.661819 
L 67.337012 150.42001 
L 68.150683 89.906279 
L 68.964353 98.264992 
L 69.778024 104.25869 
L 70.591694 109.009483 
L 71.405365 112.780445 
L 72.219035 115.836361 
L 73.846376 120.618799 
L 75.473718 124.440113 
L 76.287388 46.836956 
L 77.101059 56.702172 
L 77.914729 64.174326 
L 79.54207 76.237504 
L 81.169411 86.141093 
L 83.610423 99.014981 
L 84.424093 34.414125 
L 85.237764 42.736433 
L 86.865105 52.550807 
L 88.492446 60.466978 
L 90.119787 67.371729 
L 91.747128 73.564081 
L 92.560799 104.516869 
L 94.18814 111.088071 
L 97.442822 122.746855 
L 99.883834 130.950304 
L 100.697504 122.879169 
L 101.511175 125.351882 
L 103.138516 129.173195 
L 105.579528 134.174446 
L 108.020539 138.750989 
L 108.83421 169.342404 
L 110.461551 171.869569 
L 112.902562 175.057183 
L 116.157245 178.87253 
L 116.970915 200.715816 
L 118.598256 202.532666 
L 121.039268 204.660258 
L 124.29395 207.214218 
L 125.10762 123.023294 
L 126.734962 135.020243 
L 127.548632 139.671999 
L 129.175973 147.087276 
L 130.803314 152.808212 
L 132.430655 157.370038 
L 133.244326 210.101029 
L 134.057996 215.166879 
L 134.871667 219.507138 
L 135.685337 224.722827 
L 136.499008 227.873086 
L 137.312679 229.204496 
L 138.126349 230.177678 
L 139.75369 231.511445 
L 140.567361 231.994994 
L 141.381031 181.659348 
L 142.194702 184.71922 
L 143.008372 186.759502 
L 143.822043 188.324715 
L 145.449384 190.774677 
L 147.076725 192.781024 
L 148.704066 194.567647 
L 149.517737 224.368617 
L 150.331407 225.200172 
L 151.958748 226.177639 
L 156.840772 228.538096 
L 157.654442 199.397799 
L 158.468113 203.603795 
L 159.281783 205.858354 
L 160.095454 207.536068 
L 161.722795 210.098431 
L 163.350136 212.148754 
L 164.977477 213.94877 
L 165.791147 127.660903 
L 166.604818 141.68619 
L 167.418489 152.112742 
L 168.232159 160.169138 
L 169.04583 166.322593 
L 169.8595 171.065217 
L 170.673171 174.782052 
L 171.486841 177.800099 
L 172.300512 180.351243 
L 173.114182 182.534421 
L 173.927853 223.413532 
L 174.741523 226.575496 
L 175.555194 229.107929 
L 176.368864 230.996709 
L 177.182535 232.44733 
L 177.996206 233.595388 
L 179.623547 235.36208 
L 181.250888 236.699227 
L 182.064558 209.653738 
L 182.878229 214.583162 
L 183.691899 217.445585 
L 184.50557 219.487672 
L 185.31924 221.064355 
L 186.946582 223.448199 
L 188.573923 225.242824 
L 189.387593 226.008087 
L 190.201264 258.645925 
L 191.014934 261.31611 
L 191.828605 262.429953 
L 192.642275 263.202225 
L 194.269616 264.294827 
L 195.896957 265.024124 
L 197.524299 265.511733 
L 198.337969 210.86712 
L 199.15164 218.536722 
L 199.96531 222.054058 
L 200.778981 224.288867 
L 201.592651 225.873869 
L 202.406322 227.097894 
L 204.033663 228.968799 
L 205.661004 230.44635 
L 206.474674 238.715446 
L 207.288345 239.783327 
L 208.102016 240.54768 
L 209.729357 241.684429 
L 212.170368 242.987722 
L 213.797709 243.734733 
L 214.61138 265.120915 
L 215.42505 265.41183 
L 218.679733 265.783039 
L 221.934415 266.128382 
L 222.748085 267.905601 
L 224.375426 268.461842 
L 226.816438 268.876013 
L 230.07112 269.161889 
L 230.884791 255.321876 
L 231.698461 256.557429 
L 232.512132 257.341652 
L 233.325802 257.856603 
L 234.953143 258.518195 
L 237.394155 259.1333 
L 238.207826 259.291419 
L 239.021496 251.202548 
L 240.648837 252.429487 
L 244.71719 255.304468 
L 246.344531 256.522857 
L 247.158201 266.759891 
L 247.971872 267.447051 
L 249.599213 268.155209 
L 252.040225 268.744749 
L 254.481236 269.107952 
L 255.294907 256.884025 
L 256.108577 258.512648 
L 256.922248 259.188809 
L 258.549589 260.018833 
L 260.990601 260.750865 
L 262.617942 261.114076 
L 263.431612 235.199294 
L 264.245283 236.774954 
L 265.872624 239.177177 
L 269.940977 244.692279 
L 270.754647 245.718921 
L 271.568318 272.493118 
L 272.381988 273.223189 
L 274.009329 273.418629 
L 278.891353 273.486771 
L 279.705023 239.983805 
L 280.518694 243.161274 
L 281.332364 245.035366 
L 282.146035 246.366652 
L 282.959705 247.383835 
L 284.587046 248.895132 
L 286.214387 250.050674 
L 287.028058 250.53805 
L 287.841728 259.775032 
L 289.46907 260.679196 
L 291.910081 261.721297 
L 295.164763 262.852121 
L 295.978434 246.673459 
L 296.792104 249.238861 
L 297.605775 250.356587 
L 298.419445 251.044498 
L 300.046787 251.968664 
L 302.487798 252.977528 
L 303.301469 253.268258 
L 304.115139 250.579526 
L 304.92881 252.269892 
L 305.74248 253.428878 
L 306.556151 254.299192 
L 308.183492 255.545196 
L 309.810833 256.421213 
L 311.438174 257.117096 
L 312.251845 261.30697 
L 314.692856 261.795222 
L 319.57488 262.610847 
L 320.38855 271.592599 
L 321.202221 272.333181 
L 322.015891 272.634616 
L 323.643232 272.879065 
L 326.897914 273.040847 
L 327.711585 273.062006 
L 328.525255 263.262725 
L 329.338926 264.827071 
L 330.152597 265.889449 
L 331.779938 267.382832 
L 333.407279 268.418456 
L 335.03462 269.159255 
L 335.84829 269.442368 
L 336.661961 262.633941 
L 337.475631 264.050464 
L 338.289302 264.936024 
L 339.102972 265.594962 
L 340.730314 266.523579 
L 342.357655 267.178144 
L 343.984996 267.682502 
L 344.798666 238.543867 
L 345.612337 240.39832 
L 346.426007 241.413081 
L 347.239678 242.105685 
L 348.867019 243.069592 
L 351.308031 244.088817 
L 352.121701 244.375525 
L 352.935372 249.956303 
L 353.749042 250.310331 
L 355.376383 250.698411 
L 358.631065 251.200123 
L 360.258407 251.39804 
L 361.072077 262.746549 
L 364.326759 263.144942 
L 368.395112 263.498939 
L 369.208782 248.003771 
L 370.022453 248.886565 
L 370.836124 249.403186 
L 372.463465 249.994191 
L 374.904476 250.496194 
L 376.531817 250.747725 
L 377.345488 260.719376 
L 378.159158 261.956143 
L 378.972829 262.433058 
L 380.60017 262.89459 
L 383.041182 263.21168 
L 384.668523 263.365425 
L 384.668523 263.365425 
" style="fill:none;stroke:#ff7f0e;stroke-linecap:square;stroke-opacity:0.3;stroke-width:1.5;"/>
   </g>
   <g id="line2d_19">
    <path clip-path="url(#p5f98d96eea)" d="M 60.013977 140.770557 
L 60.827648 135.608273 
L 61.641318 136.164275 
L 62.454989 140.409273 
L 64.08233 151.849105 
L 64.896001 150.900728 
L 65.709671 145.332825 
L 66.523342 136.9345 
L 68.150683 118.048393 
L 68.964353 110.262511 
L 69.778024 105.147813 
L 70.591694 103.757788 
L 71.405365 107.077666 
L 72.219035 122.695764 
L 73.032706 122.830528 
L 73.846376 116.57267 
L 74.660047 106.335137 
L 76.287388 82.370021 
L 77.101059 72.333324 
L 77.914729 65.79172 
L 78.7284 64.240887 
L 79.54207 69.077264 
L 80.355741 87.366821 
L 81.169411 90.19158 
L 81.983082 87.575404 
L 82.796752 81.213359 
L 85.237764 55.494296 
L 86.051435 49.697824 
L 86.865105 47.698998 
L 87.678776 50.915661 
L 88.492446 58.403447 
L 89.306117 62.258796 
L 90.119787 68.432289 
L 91.747128 84.7921 
L 93.374469 102.297528 
L 94.18814 109.87567 
L 95.00181 115.794057 
L 95.815481 119.379693 
L 96.629152 120.845755 
L 97.442822 123.435374 
L 98.256493 125.161869 
L 99.070163 126.205057 
L 99.883834 126.764006 
L 102.324845 127.682083 
L 103.138516 128.524799 
L 103.952186 130.073018 
L 104.765857 130.171311 
L 105.579528 132.365397 
L 106.393198 136.923328 
L 107.206869 143.136481 
L 109.64788 164.772004 
L 110.461551 170.687101 
L 111.275221 174.820654 
L 112.088892 176.503045 
L 112.902562 173.315424 
L 113.716233 174.727953 
L 114.529903 177.840015 
L 115.343574 182.165682 
L 118.598256 201.647459 
L 119.411927 204.578989 
L 120.225597 205.751335 
L 121.039268 211.796762 
L 121.852938 210.176295 
L 122.666609 201.81956 
L 123.480279 189.168248 
L 125.921291 146.671773 
L 126.734962 137.308896 
L 127.548632 133.221662 
L 128.362303 136 
L 129.175973 142.905142 
L 129.989644 146.718843 
L 130.803314 154.428871 
L 131.616985 165.065007 
L 133.244326 191.874363 
L 134.871667 217.647243 
L 135.685337 226.542955 
L 136.499008 230.825093 
L 137.312679 233.288096 
L 138.126349 233.435505 
L 138.94002 228.986418 
L 139.75369 221.400007 
L 142.194702 194.692233 
L 143.008372 188.192975 
L 143.822043 184.69696 
L 144.635713 185.25593 
L 145.449384 188.468379 
L 146.263055 190.045881 
L 147.076725 193.978558 
L 147.890396 199.56097 
L 150.331407 219.258712 
L 151.145078 224.52248 
L 151.958748 228.011229 
L 152.772419 229.063387 
L 153.586089 229.501871 
L 154.39976 228.927967 
L 155.21343 226.204297 
L 156.027101 222.161536 
L 157.654442 212.909282 
L 158.468113 208.940682 
L 159.281783 206.17107 
L 160.095454 205.136546 
L 160.909124 206.351579 
L 161.722795 217.622844 
L 162.536465 215.608006 
L 163.350136 207.089952 
L 166.604818 158.912164 
L 167.418489 152.8482 
L 168.232159 152.106047 
L 169.04583 157.898015 
L 169.8595 168.077373 
L 170.673171 172.452345 
L 171.486841 179.39144 
L 173.114182 198.362983 
L 174.741523 218.742423 
L 175.555194 227.158585 
L 176.368864 233.103933 
L 177.182535 235.603518 
L 177.996206 235.997408 
L 178.809876 235.990991 
L 179.623547 233.835843 
L 180.437217 230.45244 
L 182.064558 222.747878 
L 182.878229 219.571807 
L 183.691899 217.520989 
L 184.50557 217.055999 
L 185.31924 218.607599 
L 186.946582 221.359859 
L 187.760252 225.541599 
L 188.573923 231.704714 
L 191.828605 260.672269 
L 192.642275 264.994589 
L 193.455946 266.526259 
L 194.269616 269.051011 
L 195.083287 267.545855 
L 195.896957 262.105026 
L 196.710628 254.214486 
L 199.15164 228.231524 
L 199.96531 222.44052 
L 200.778981 219.767097 
L 201.592651 221.168613 
L 202.406322 226.935626 
L 203.219992 227.748019 
L 204.033663 229.306581 
L 205.661004 233.582129 
L 207.288345 238.176286 
L 208.102016 240.117587 
L 208.915686 241.563152 
L 209.729357 242.318356 
L 210.543027 240.42512 
L 211.356698 241.281998 
L 212.170368 243.851027 
L 212.984039 247.622328 
L 215.42505 261.108037 
L 216.238721 264.674414 
L 217.052391 266.96449 
L 217.866062 267.499026 
L 218.679733 265.662296 
L 219.493403 265.748278 
L 220.307074 265.994768 
L 221.934415 266.838824 
L 224.375426 268.331561 
L 225.189097 268.690852 
L 226.002767 268.892625 
L 226.816438 270.049857 
L 227.630109 269.744764 
L 228.443779 268.353041 
L 229.25745 266.279742 
L 231.698461 259.241257 
L 232.512132 257.599724 
L 233.325802 256.767953 
L 234.139473 257.008791 
L 234.953143 259.271061 
L 235.766814 259.261588 
L 236.580484 258.575547 
L 237.394155 257.446919 
L 239.835167 253.515775 
L 240.648837 252.684706 
L 241.462508 252.399769 
L 243.089849 253.327936 
L 243.903519 254.101133 
L 244.71719 255.701944 
L 245.53086 257.88278 
L 247.971872 265.390682 
L 248.785543 267.390312 
L 249.599213 268.74144 
L 251.226554 269.646812 
L 252.040225 269.402145 
L 252.853895 268.254378 
L 253.667566 266.527666 
L 256.108577 260.670016 
L 256.922248 259.330291 
L 257.735918 258.688915 
L 258.549589 258.970429 
L 259.36326 262.582857 
L 260.17693 262.085444 
L 260.990601 259.548005 
L 261.804271 255.621749 
L 264.245283 241.975224 
L 265.058953 238.830814 
L 265.872624 237.34261 
L 266.686294 238.050107 
L 267.499965 239.300346 
L 268.313636 240.934448 
L 269.127306 244.717846 
L 269.940977 249.955197 
L 272.381988 267.751938 
L 273.195659 272.283169 
L 274.009329 275.124838 
L 275.63667 276.334125 
L 276.450341 275.323636 
L 277.264011 271.796131 
L 278.077682 266.66353 
L 280.518694 249.559089 
L 281.332364 245.652849 
L 282.146035 243.73925 
L 282.959705 244.439752 
L 283.773376 247.617968 
L 284.587046 248.404302 
L 285.400717 249.881843 
L 287.028058 254.04696 
L 288.655399 258.492497 
L 289.46907 260.314386 
L 290.28274 261.598083 
L 291.096411 262.138775 
L 291.910081 263.108782 
L 292.723752 262.869531 
L 293.537422 261.446754 
L 294.351093 259.296304 
L 296.792104 252.040249 
L 297.605775 250.419312 
L 298.419445 249.701934 
L 299.233116 250.180387 
L 300.046787 252.391846 
L 300.860457 252.456439 
L 303.301469 252.343138 
L 304.115139 252.472871 
L 304.92881 252.761352 
L 305.74248 253.222514 
L 306.556151 253.856873 
L 307.369821 254.655399 
L 309.810833 256.612364 
L 313.879186 261.509352 
L 314.692856 262.061561 
L 315.506527 262.278263 
L 316.320197 261.336968 
L 317.133868 261.604354 
L 317.947538 262.644909 
L 318.761209 264.26538 
L 322.015891 272.107159 
L 322.829562 273.260066 
L 323.643232 273.631461 
L 324.456903 273.81793 
L 325.270573 273.488691 
L 326.084244 272.44751 
L 329.338926 266.71289 
L 330.152597 265.96637 
L 330.966267 265.84022 
L 331.779938 266.475326 
L 332.593608 268.589102 
L 333.407279 268.781137 
L 334.220949 268.413376 
L 335.84829 266.860281 
L 337.475631 265.345046 
L 338.289302 264.949656 
L 339.102972 264.954368 
L 339.916643 265.465845 
L 340.730314 269.045697 
L 341.543984 268.609658 
L 342.357655 265.856065 
L 343.171325 261.538706 
L 345.612337 246.040429 
L 346.426007 242.177183 
L 347.239678 240.005065 
L 348.053348 240.135082 
L 348.867019 242.725296 
L 349.68069 243.1422 
L 350.49436 244.007006 
L 352.121701 246.515108 
L 353.749042 249.195424 
L 354.562713 250.278426 
L 355.376383 251.020889 
L 356.190054 251.29844 
L 357.003724 250.0435 
L 357.817395 250.384375 
L 358.631065 251.644744 
L 359.444736 253.559554 
L 362.699418 262.517368 
L 363.513089 263.764514 
L 365.14043 264.528677 
L 365.9541 264.205008 
L 366.767771 262.657786 
L 367.581441 260.29279 
L 370.022453 251.907873 
L 370.836124 249.816649 
L 371.649794 248.626083 
L 372.463465 248.659325 
L 373.277135 249.409513 
L 374.090806 249.660327 
L 374.904476 250.796413 
L 375.718147 252.6147 
L 378.972829 261.759344 
L 379.786499 263.185901 
L 380.60017 263.726528 
L 382.227511 262.614062 
L 383.041182 262.335538 
L 383.854852 262.732218 
L 384.668523 264.171646 
L 384.668523 264.171646 
" style="fill:none;stroke:#ff7f0e;stroke-linecap:square;stroke-width:1.5;"/>
   </g>
   <g id="line2d_20">
    <path clip-path="url(#p5f98d96eea)" d="M 60.013977 41.664079 
L 60.827648 45.922906 
L 61.641318 45.692023 
L 62.454989 42.649568 
L 64.08233 34.842508 
L 64.896001 37.74152 
L 65.709671 43.099298 
L 66.523342 50.128562 
L 68.150683 69.630491 
L 68.964353 79.697764 
L 69.778024 87.196538 
L 70.591694 91.358186 
L 71.405365 89.94068 
L 72.219035 83.146151 
L 73.846376 87.206098 
L 74.660047 91.436441 
L 77.101059 112.293986 
L 77.914729 116.739765 
L 78.7284 118.469082 
L 79.54207 119.206775 
L 80.355741 116.49751 
L 81.169411 117.211657 
L 81.983082 119.151514 
L 82.796752 123.0944 
L 83.610423 128.880508 
L 84.424093 133.136703 
L 85.237764 139.470023 
L 86.051435 143.256879 
L 87.678776 148.28933 
L 88.492446 148.10998 
L 89.306117 147.183776 
L 90.119787 146.605033 
L 92.560799 140.055032 
L 94.18814 137.576 
L 95.00181 137.902243 
L 95.815481 139.1709 
L 96.629152 139.15813 
L 98.256493 143.359832 
L 99.883834 149.892346 
L 100.697504 153.329891 
L 102.324845 160.901138 
L 103.138516 163.681253 
L 103.952186 165.803757 
L 104.765857 166.211991 
L 105.579528 167.846289 
L 106.393198 167.749145 
L 107.206869 168.871645 
L 108.83421 169.552457 
L 109.64788 170.353042 
L 110.461551 170.83331 
L 111.275221 171.569944 
L 112.088892 173.171784 
L 112.902562 173.709112 
L 113.716233 175.269978 
L 114.529903 176.247119 
L 116.157245 174.105734 
L 116.970915 172.142467 
L 117.784586 170.49757 
L 118.598256 168.567078 
L 119.411927 167.145502 
L 120.225597 166.274457 
L 121.039268 164.995986 
L 121.852938 166.44356 
L 123.480279 170.848573 
L 126.734962 186.76204 
L 127.548632 189.303604 
L 129.175973 192.967273 
L 129.989644 192.877396 
L 130.803314 191.194124 
L 132.430655 181.235796 
L 134.057996 169.319735 
L 134.871667 165.601173 
L 135.685337 162.815341 
L 136.499008 162.990675 
L 137.312679 163.411605 
L 138.126349 165.219098 
L 138.94002 168.08752 
L 139.75369 172.536639 
L 140.567361 178.688938 
L 141.381031 183.921951 
L 142.194702 190.186674 
L 143.008372 195.319723 
L 143.822043 198.368934 
L 144.635713 199.203812 
L 145.449384 197.906565 
L 146.263055 197.695663 
L 147.076725 197.627306 
L 147.890396 197.287421 
L 148.704066 196.547297 
L 149.517737 194.872833 
L 150.331407 194.485854 
L 151.145078 192.650325 
L 151.958748 191.507211 
L 152.772419 190.964821 
L 153.586089 188.678683 
L 154.39976 189.421257 
L 155.21343 193.484282 
L 156.840772 203.546402 
L 158.468113 214.341283 
L 160.095454 219.500448 
L 160.909124 219.557361 
L 161.722795 215.673359 
L 162.536465 216.734001 
L 163.350136 218.303241 
L 164.977477 224.556121 
L 165.791147 228.231498 
L 166.604818 232.857142 
L 168.232159 239.540124 
L 169.8595 244.280453 
L 170.673171 245.459695 
L 171.486841 243.230674 
L 172.300512 240.043398 
L 173.114182 234.701552 
L 175.555194 216.585524 
L 176.368864 211.684509 
L 177.182535 209.367017 
L 177.996206 211.910415 
L 178.809876 210.091935 
L 179.623547 206.510319 
L 180.437217 201.704778 
L 182.064558 191.029345 
L 182.878229 185.87544 
L 183.691899 181.953838 
L 184.50557 179.389874 
L 185.31924 179.034544 
L 186.132911 178.036828 
L 186.946582 178.355853 
L 187.760252 181.658889 
L 188.573923 187.265189 
L 191.014934 208.599929 
L 191.828605 214.435164 
L 192.642275 218.747179 
L 193.455946 219.466991 
L 194.269616 213.917486 
L 195.083287 214.075323 
L 195.896957 216.315471 
L 196.710628 221.921797 
L 197.524299 228.334124 
L 199.96531 243.823986 
L 200.778981 247.374134 
L 201.592651 248.145711 
L 202.406322 245.381723 
L 203.219992 245.347974 
L 204.033663 245.895749 
L 206.474674 253.740777 
L 207.288345 255.736848 
L 208.102016 258.113829 
L 208.915686 259.343661 
L 209.729357 259.597206 
L 210.543027 258.317945 
L 212.170368 257.700362 
L 213.797709 257.630237 
L 214.61138 258.201135 
L 215.42505 257.763109 
L 216.238721 257.548622 
L 217.866062 256.649397 
L 218.679733 258.049896 
L 219.493403 258.860164 
L 220.307074 256.556561 
L 221.120744 252.192982 
L 224.375426 229.400849 
L 225.189097 226.46965 
L 226.002767 224.99087 
L 226.816438 226.785614 
L 227.630109 227.73301 
L 228.443779 226.918178 
L 230.07112 224.662761 
L 230.884791 223.627527 
L 232.512132 223.060933 
L 233.325802 223.801764 
L 234.139473 224.280265 
L 234.953143 226.720656 
L 236.580484 225.761045 
L 237.394155 223.404621 
L 238.207826 221.691757 
L 239.021496 217.92257 
L 240.648837 212.249749 
L 241.462508 211.253044 
L 242.276178 209.545842 
L 243.089849 210.162245 
L 243.903519 209.777624 
L 244.71719 211.525321 
L 245.53086 211.576445 
L 246.344531 212.796123 
L 247.158201 212.693214 
L 247.971872 213.603968 
L 248.785543 213.748348 
L 249.599213 214.798966 
L 250.412884 213.29017 
L 251.226554 212.426285 
L 252.040225 213.062475 
L 253.667566 217.549195 
L 256.108577 225.606851 
L 256.922248 227.252864 
L 257.735918 228.231598 
L 258.549589 227.299461 
L 259.36326 225.22591 
L 260.17693 224.542074 
L 260.990601 225.757954 
L 261.804271 228.278786 
L 263.431612 235.665739 
L 264.245283 238.426472 
L 265.058953 240.354185 
L 265.872624 241.86573 
L 266.686294 241.890658 
L 267.499965 241.749964 
L 268.313636 240.189584 
L 269.127306 239.088666 
L 269.940977 238.328297 
L 270.754647 237.213525 
L 273.195659 230.871063 
L 274.009329 230.076413 
L 274.823 229.750256 
L 276.450341 231.488825 
L 277.264011 233.413007 
L 278.077682 233.57321 
L 278.891353 233.075191 
L 279.705023 231.226923 
L 280.518694 230.075036 
L 282.959705 224.838823 
L 283.773376 222.276609 
L 284.587046 222.148514 
L 285.400717 224.415135 
L 286.214387 225.988678 
L 287.028058 228.372187 
L 287.841728 230.401792 
L 288.655399 233.513821 
L 289.46907 235.382448 
L 290.28274 236.218993 
L 291.096411 235.732061 
L 292.723752 233.132677 
L 293.537422 232.738691 
L 294.351093 232.694642 
L 295.164763 232.307788 
L 295.978434 232.633741 
L 296.792104 232.338098 
L 298.419445 232.041532 
L 299.233116 232.062157 
L 300.046787 232.571556 
L 300.860457 231.544047 
L 301.674128 230.827618 
L 302.487798 231.333578 
L 303.301469 231.589629 
L 304.115139 232.608304 
L 304.92881 233.347792 
L 306.556151 237.161781 
L 307.369821 239.142359 
L 308.183492 238.91527 
L 308.997163 240.135425 
L 309.810833 242.762253 
L 311.438174 252.666424 
L 313.879186 268.931607 
L 314.692856 272.255635 
L 315.506527 273.071412 
L 316.320197 273.053549 
L 317.133868 272.716644 
L 317.947538 270.828486 
L 318.761209 268.167979 
L 321.202221 256.93535 
L 322.829562 250.356812 
L 323.643232 249.019246 
L 324.456903 248.740392 
L 325.270573 248.216615 
L 326.084244 248.733468 
L 326.897914 250.703954 
L 327.711585 253.029453 
L 329.338926 259.268714 
L 330.152597 261.125096 
L 331.779938 262.73435 
L 332.593608 261.038233 
L 333.407279 260.350251 
L 334.220949 260.511593 
L 335.03462 261.258733 
L 335.84829 261.7991 
L 336.661961 262.96239 
L 337.475631 263.635386 
L 339.102972 264.537155 
L 339.916643 265.306525 
L 340.730314 266.370294 
L 341.543984 265.15402 
L 342.357655 263.051085 
L 345.612337 248.572665 
L 346.426007 246.461956 
L 347.239678 245.807638 
L 348.053348 246.588206 
L 348.867019 250.334612 
L 349.68069 250.16927 
L 351.308031 246.667016 
L 352.935372 242.663477 
L 353.749042 241.245 
L 354.562713 240.677357 
L 355.376383 240.707958 
L 357.003724 241.8417 
L 357.817395 241.631782 
L 358.631065 242.322579 
L 360.258407 246.490505 
L 362.699418 255.09018 
L 363.513089 257.036578 
L 364.326759 257.851749 
L 365.14043 257.304038 
L 365.9541 257.152349 
L 366.767771 256.780761 
L 367.581441 256.535938 
L 368.395112 256.737963 
L 369.208782 257.097244 
L 370.022453 257.929377 
L 370.836124 258.226413 
L 371.649794 258.778628 
L 372.463465 259.102011 
L 373.277135 258.919913 
L 374.090806 258.606304 
L 374.904476 259.327887 
L 375.718147 260.566744 
L 376.531817 262.162683 
L 378.159158 266.206728 
L 378.972829 267.022598 
L 379.786499 268.037015 
L 380.60017 268.250216 
L 383.041182 266.844725 
L 383.854852 266.767466 
L 384.668523 267.243883 
L 384.668523 267.243883 
" style="fill:none;stroke:#008000;stroke-linecap:square;stroke-width:1.5;"/>
   </g>
   <g id="patch_3">
    <path d="M 43.78125 288.430125 
L 43.78125 22.318125 
" style="fill:none;stroke:#000000;stroke-linecap:square;stroke-linejoin:miter;stroke-width:0.8;"/>
   </g>
   <g id="patch_4">
    <path d="M 400.90125 288.430125 
L 400.90125 22.318125 
" style="fill:none;stroke:#000000;stroke-linecap:square;stroke-linejoin:miter;stroke-width:0.8;"/>
   </g>
   <g id="patch_5">
    <path d="M 43.78125 288.430125 
L 400.90125 288.430125 
" style="fill:none;stroke:#000000;stroke-linecap:square;stroke-linejoin:miter;stroke-width:0.8;"/>
   </g>
   <g id="patch_6">
    <path d="M 43.78125 22.318125 
L 400.90125 22.318125 
" style="fill:none;stroke:#000000;stroke-linecap:square;stroke-linejoin:miter;stroke-width:0.8;"/>
   </g>
   <g id="text_18">
    <!-- Entropy and Loss. -->
    <defs>
     <path d="M 9.1875 72.90625 
L 59.90625 72.90625 
L 59.90625 58.6875 
L 27.984375 58.6875 
L 27.984375 45.125 
L 58.015625 45.125 
L 58.015625 30.90625 
L 27.984375 30.90625 
L 27.984375 14.203125 
L 60.984375 14.203125 
L 60.984375 0 
L 9.1875 0 
z
" id="DejaVuSans-Bold-69"/>
     <path d="M 63.375 33.296875 
L 63.375 0 
L 45.796875 0 
L 45.796875 5.421875 
L 45.796875 25.484375 
Q 45.796875 32.5625 45.484375 35.25 
Q 45.171875 37.9375 44.390625 39.203125 
Q 43.359375 40.921875 41.59375 41.875 
Q 39.84375 42.828125 37.59375 42.828125 
Q 32.125 42.828125 29 38.59375 
Q 25.875 34.375 25.875 26.90625 
L 25.875 0 
L 8.40625 0 
L 8.40625 54.6875 
L 25.875 54.6875 
L 25.875 46.6875 
Q 29.828125 51.46875 34.265625 53.734375 
Q 38.71875 56 44.09375 56 
Q 53.5625 56 58.46875 50.1875 
Q 63.375 44.390625 63.375 33.296875 
z
" id="DejaVuSans-Bold-110"/>
     <path d="M 27.484375 70.21875 
L 27.484375 54.6875 
L 45.515625 54.6875 
L 45.515625 42.1875 
L 27.484375 42.1875 
L 27.484375 19 
Q 27.484375 15.1875 29 13.84375 
Q 30.515625 12.5 35.015625 12.5 
L 44 12.5 
L 44 0 
L 29 0 
Q 18.65625 0 14.328125 4.3125 
Q 10.015625 8.640625 10.015625 19 
L 10.015625 42.1875 
L 1.3125 42.1875 
L 1.3125 54.6875 
L 10.015625 54.6875 
L 10.015625 70.21875 
z
" id="DejaVuSans-Bold-116"/>
     <path d="M 49.03125 39.796875 
Q 46.734375 40.875 44.453125 41.375 
Q 42.1875 41.890625 39.890625 41.890625 
Q 33.15625 41.890625 29.515625 37.5625 
Q 25.875 33.25 25.875 25.203125 
L 25.875 0 
L 8.40625 0 
L 8.40625 54.6875 
L 25.875 54.6875 
L 25.875 45.703125 
Q 29.25 51.078125 33.609375 53.53125 
Q 37.984375 56 44.09375 56 
Q 44.96875 56 45.984375 55.921875 
Q 47.015625 55.859375 48.96875 55.609375 
z
" id="DejaVuSans-Bold-114"/>
     <path d="M 34.421875 43.5 
Q 28.609375 43.5 25.5625 39.328125 
Q 22.515625 35.15625 22.515625 27.296875 
Q 22.515625 19.4375 25.5625 15.25 
Q 28.609375 11.078125 34.421875 11.078125 
Q 40.140625 11.078125 43.15625 15.25 
Q 46.1875 19.4375 46.1875 27.296875 
Q 46.1875 35.15625 43.15625 39.328125 
Q 40.140625 43.5 34.421875 43.5 
z
M 34.421875 56 
Q 48.53125 56 56.46875 48.375 
Q 64.40625 40.765625 64.40625 27.296875 
Q 64.40625 13.8125 56.46875 6.1875 
Q 48.53125 -1.421875 34.421875 -1.421875 
Q 20.265625 -1.421875 12.28125 6.1875 
Q 4.296875 13.8125 4.296875 27.296875 
Q 4.296875 40.765625 12.28125 48.375 
Q 20.265625 56 34.421875 56 
z
" id="DejaVuSans-Bold-111"/>
     <path d="M 25.875 7.90625 
L 25.875 -20.796875 
L 8.40625 -20.796875 
L 8.40625 54.6875 
L 25.875 54.6875 
L 25.875 46.6875 
Q 29.5 51.46875 33.890625 53.734375 
Q 38.28125 56 44 56 
Q 54.109375 56 60.59375 47.96875 
Q 67.09375 39.9375 67.09375 27.296875 
Q 67.09375 14.65625 60.59375 6.609375 
Q 54.109375 -1.421875 44 -1.421875 
Q 38.28125 -1.421875 33.890625 0.84375 
Q 29.5 3.125 25.875 7.90625 
z
M 37.5 43.3125 
Q 31.890625 43.3125 28.875 39.1875 
Q 25.875 35.0625 25.875 27.296875 
Q 25.875 19.53125 28.875 15.40625 
Q 31.890625 11.28125 37.5 11.28125 
Q 43.109375 11.28125 46.0625 15.375 
Q 49.03125 19.484375 49.03125 27.296875 
Q 49.03125 35.109375 46.0625 39.203125 
Q 43.109375 43.3125 37.5 43.3125 
z
" id="DejaVuSans-Bold-112"/>
     <path d="M 1.21875 54.6875 
L 18.703125 54.6875 
L 33.40625 17.578125 
L 45.90625 54.6875 
L 63.375 54.6875 
L 40.375 -5.171875 
Q 36.921875 -14.3125 32.296875 -17.9375 
Q 27.6875 -21.578125 20.125 -21.578125 
L 10.015625 -21.578125 
L 10.015625 -10.109375 
L 15.484375 -10.109375 
Q 19.921875 -10.109375 21.9375 -8.6875 
Q 23.96875 -7.28125 25.09375 -3.609375 
L 25.59375 -2.09375 
z
" id="DejaVuSans-Bold-121"/>
     <path id="DejaVuSans-Bold-32"/>
     <path d="M 32.90625 24.609375 
Q 27.4375 24.609375 24.671875 22.75 
Q 21.921875 20.90625 21.921875 17.28125 
Q 21.921875 13.96875 24.140625 12.078125 
Q 26.375 10.203125 30.328125 10.203125 
Q 35.25 10.203125 38.625 13.734375 
Q 42 17.28125 42 22.609375 
L 42 24.609375 
z
M 59.625 31.203125 
L 59.625 0 
L 42 0 
L 42 8.109375 
Q 38.484375 3.125 34.078125 0.84375 
Q 29.6875 -1.421875 23.390625 -1.421875 
Q 14.890625 -1.421875 9.59375 3.53125 
Q 4.296875 8.5 4.296875 16.40625 
Q 4.296875 26.03125 10.90625 30.515625 
Q 17.53125 35.015625 31.6875 35.015625 
L 42 35.015625 
L 42 36.375 
Q 42 40.53125 38.71875 42.453125 
Q 35.453125 44.390625 28.515625 44.390625 
Q 22.90625 44.390625 18.0625 43.265625 
Q 13.234375 42.140625 9.078125 39.890625 
L 9.078125 53.21875 
Q 14.703125 54.59375 20.359375 55.296875 
Q 26.03125 56 31.6875 56 
Q 46.484375 56 53.046875 50.171875 
Q 59.625 44.34375 59.625 31.203125 
z
" id="DejaVuSans-Bold-97"/>
     <path d="M 45.609375 46.6875 
L 45.609375 75.984375 
L 63.1875 75.984375 
L 63.1875 0 
L 45.609375 0 
L 45.609375 7.90625 
Q 42 3.078125 37.640625 0.828125 
Q 33.296875 -1.421875 27.59375 -1.421875 
Q 17.484375 -1.421875 10.984375 6.609375 
Q 4.5 14.65625 4.5 27.296875 
Q 4.5 39.9375 10.984375 47.96875 
Q 17.484375 56 27.59375 56 
Q 33.25 56 37.625 53.734375 
Q 42 51.46875 45.609375 46.6875 
z
M 34.078125 11.28125 
Q 39.703125 11.28125 42.65625 15.375 
Q 45.609375 19.484375 45.609375 27.296875 
Q 45.609375 35.109375 42.65625 39.203125 
Q 39.703125 43.3125 34.078125 43.3125 
Q 28.515625 43.3125 25.5625 39.203125 
Q 22.609375 35.109375 22.609375 27.296875 
Q 22.609375 19.484375 25.5625 15.375 
Q 28.515625 11.28125 34.078125 11.28125 
z
" id="DejaVuSans-Bold-100"/>
     <path d="M 9.1875 72.90625 
L 27.984375 72.90625 
L 27.984375 14.203125 
L 60.984375 14.203125 
L 60.984375 0 
L 9.1875 0 
z
" id="DejaVuSans-Bold-76"/>
     <path d="M 51.125 52.984375 
L 51.125 39.703125 
Q 45.515625 42.046875 40.28125 43.21875 
Q 35.0625 44.390625 30.421875 44.390625 
Q 25.4375 44.390625 23.015625 43.140625 
Q 20.609375 41.890625 20.609375 39.3125 
Q 20.609375 37.203125 22.4375 36.078125 
Q 24.265625 34.96875 29 34.421875 
L 32.078125 33.984375 
Q 45.515625 32.28125 50.140625 28.375 
Q 54.78125 24.46875 54.78125 16.109375 
Q 54.78125 7.375 48.328125 2.96875 
Q 41.890625 -1.421875 29.109375 -1.421875 
Q 23.6875 -1.421875 17.890625 -0.5625 
Q 12.109375 0.296875 6 2 
L 6 15.28125 
Q 11.234375 12.75 16.71875 11.46875 
Q 22.21875 10.203125 27.875 10.203125 
Q 33.015625 10.203125 35.59375 11.609375 
Q 38.1875 13.03125 38.1875 15.828125 
Q 38.1875 18.171875 36.40625 19.3125 
Q 34.625 20.453125 29.296875 21.09375 
L 26.21875 21.484375 
Q 14.546875 22.953125 9.859375 26.90625 
Q 5.171875 30.859375 5.171875 38.921875 
Q 5.171875 47.609375 11.125 51.796875 
Q 17.09375 56 29.390625 56 
Q 34.234375 56 39.546875 55.265625 
Q 44.875 54.546875 51.125 52.984375 
z
" id="DejaVuSans-Bold-115"/>
     <path d="M 10.203125 18.890625 
L 27.78125 18.890625 
L 27.78125 0 
L 10.203125 0 
z
" id="DejaVuSans-Bold-46"/>
    </defs>
    <g transform="translate(161.657813 16.318125)scale(0.12 -0.12)">
     <use xlink:href="#DejaVuSans-Bold-69"/>
     <use x="68.310547" xlink:href="#DejaVuSans-Bold-110"/>
     <use x="139.501953" xlink:href="#DejaVuSans-Bold-116"/>
     <use x="187.304688" xlink:href="#DejaVuSans-Bold-114"/>
     <use x="236.621094" xlink:href="#DejaVuSans-Bold-111"/>
     <use x="305.322266" xlink:href="#DejaVuSans-Bold-112"/>
     <use x="376.904297" xlink:href="#DejaVuSans-Bold-121"/>
     <use x="442.089844" xlink:href="#DejaVuSans-Bold-32"/>
     <use x="476.904297" xlink:href="#DejaVuSans-Bold-97"/>
     <use x="544.384766" xlink:href="#DejaVuSans-Bold-110"/>
     <use x="615.576172" xlink:href="#DejaVuSans-Bold-100"/>
     <use x="687.158203" xlink:href="#DejaVuSans-Bold-32"/>
     <use x="721.972656" xlink:href="#DejaVuSans-Bold-76"/>
     <use x="785.693359" xlink:href="#DejaVuSans-Bold-111"/>
     <use x="854.394531" xlink:href="#DejaVuSans-Bold-115"/>
     <use x="913.916016" xlink:href="#DejaVuSans-Bold-115"/>
     <use x="973.4375" xlink:href="#DejaVuSans-Bold-46"/>
    </g>
   </g>
   <g id="legend_1">
    <g id="patch_7">
     <path d="M 18.982656 353.02505 
L 429.699844 353.02505 
Q 431.699844 353.02505 431.699844 351.02505 
L 431.699844 337.346925 
Q 431.699844 335.346925 429.699844 335.346925 
L 18.982656 335.346925 
Q 16.982656 335.346925 16.982656 337.346925 
L 16.982656 351.02505 
Q 16.982656 353.02505 18.982656 353.02505 
z
" style="fill:#4c4c4c;opacity:0.5;stroke:#4c4c4c;stroke-linejoin:miter;"/>
    </g>
    <g id="patch_8">
     <path d="M 16.982656 351.02505 
L 427.699844 351.02505 
Q 429.699844 351.02505 429.699844 349.02505 
L 429.699844 335.346925 
Q 429.699844 333.346925 427.699844 333.346925 
L 16.982656 333.346925 
Q 14.982656 333.346925 14.982656 335.346925 
L 14.982656 349.02505 
Q 14.982656 351.02505 16.982656 351.02505 
z
" style="fill:#ffffff;stroke:#cccccc;stroke-linejoin:miter;"/>
    </g>
    <g id="line2d_21">
     <path d="M 18.982656 341.445362 
L 38.982656 341.445362 
" style="fill:none;stroke:#1f77b4;stroke-linecap:square;stroke-width:1.5;"/>
    </g>
    <g id="line2d_22"/>
    <g id="text_19">
     <!-- Policy Loss (Normalized) -->
     <defs>
      <path d="M 19.671875 64.796875 
L 19.671875 37.40625 
L 32.078125 37.40625 
Q 38.96875 37.40625 42.71875 40.96875 
Q 46.484375 44.53125 46.484375 51.125 
Q 46.484375 57.671875 42.71875 61.234375 
Q 38.96875 64.796875 32.078125 64.796875 
z
M 9.8125 72.90625 
L 32.078125 72.90625 
Q 44.34375 72.90625 50.609375 67.359375 
Q 56.890625 61.8125 56.890625 51.125 
Q 56.890625 40.328125 50.609375 34.8125 
Q 44.34375 29.296875 32.078125 29.296875 
L 19.671875 29.296875 
L 19.671875 0 
L 9.8125 0 
z
" id="DejaVuSans-80"/>
      <path d="M 9.421875 75.984375 
L 18.40625 75.984375 
L 18.40625 0 
L 9.421875 0 
z
" id="DejaVuSans-108"/>
      <path d="M 9.421875 54.6875 
L 18.40625 54.6875 
L 18.40625 0 
L 9.421875 0 
z
M 9.421875 75.984375 
L 18.40625 75.984375 
L 18.40625 64.59375 
L 9.421875 64.59375 
z
" id="DejaVuSans-105"/>
      <path d="M 32.171875 -5.078125 
Q 28.375 -14.84375 24.75 -17.8125 
Q 21.140625 -20.796875 15.09375 -20.796875 
L 7.90625 -20.796875 
L 7.90625 -13.28125 
L 13.1875 -13.28125 
Q 16.890625 -13.28125 18.9375 -11.515625 
Q 21 -9.765625 23.484375 -3.21875 
L 25.09375 0.875 
L 2.984375 54.6875 
L 12.5 54.6875 
L 29.59375 11.921875 
L 46.6875 54.6875 
L 56.203125 54.6875 
z
" id="DejaVuSans-121"/>
      <path id="DejaVuSans-32"/>
      <path d="M 31 75.875 
Q 24.46875 64.65625 21.28125 53.65625 
Q 18.109375 42.671875 18.109375 31.390625 
Q 18.109375 20.125 21.3125 9.0625 
Q 24.515625 -2 31 -13.1875 
L 23.1875 -13.1875 
Q 15.875 -1.703125 12.234375 9.375 
Q 8.59375 20.453125 8.59375 31.390625 
Q 8.59375 42.28125 12.203125 53.3125 
Q 15.828125 64.359375 23.1875 75.875 
z
" id="DejaVuSans-40"/>
      <path d="M 9.8125 72.90625 
L 23.09375 72.90625 
L 55.421875 11.921875 
L 55.421875 72.90625 
L 64.984375 72.90625 
L 64.984375 0 
L 51.703125 0 
L 19.390625 60.984375 
L 19.390625 0 
L 9.8125 0 
z
" id="DejaVuSans-78"/>
      <path d="M 41.109375 46.296875 
Q 39.59375 47.171875 37.8125 47.578125 
Q 36.03125 48 33.890625 48 
Q 26.265625 48 22.1875 43.046875 
Q 18.109375 38.09375 18.109375 28.8125 
L 18.109375 0 
L 9.078125 0 
L 9.078125 54.6875 
L 18.109375 54.6875 
L 18.109375 46.1875 
Q 20.953125 51.171875 25.484375 53.578125 
Q 30.03125 56 36.53125 56 
Q 37.453125 56 38.578125 55.875 
Q 39.703125 55.765625 41.0625 55.515625 
z
" id="DejaVuSans-114"/>
      <path d="M 52 44.1875 
Q 55.375 50.25 60.0625 53.125 
Q 64.75 56 71.09375 56 
Q 79.640625 56 84.28125 50.015625 
Q 88.921875 44.046875 88.921875 33.015625 
L 88.921875 0 
L 79.890625 0 
L 79.890625 32.71875 
Q 79.890625 40.578125 77.09375 44.375 
Q 74.3125 48.1875 68.609375 48.1875 
Q 61.625 48.1875 57.5625 43.546875 
Q 53.515625 38.921875 53.515625 30.90625 
L 53.515625 0 
L 44.484375 0 
L 44.484375 32.71875 
Q 44.484375 40.625 41.703125 44.40625 
Q 38.921875 48.1875 33.109375 48.1875 
Q 26.21875 48.1875 22.15625 43.53125 
Q 18.109375 38.875 18.109375 30.90625 
L 18.109375 0 
L 9.078125 0 
L 9.078125 54.6875 
L 18.109375 54.6875 
L 18.109375 46.1875 
Q 21.1875 51.21875 25.484375 53.609375 
Q 29.78125 56 35.6875 56 
Q 41.65625 56 45.828125 52.96875 
Q 50 49.953125 52 44.1875 
z
" id="DejaVuSans-109"/>
      <path d="M 34.28125 27.484375 
Q 23.390625 27.484375 19.1875 25 
Q 14.984375 22.515625 14.984375 16.5 
Q 14.984375 11.71875 18.140625 8.90625 
Q 21.296875 6.109375 26.703125 6.109375 
Q 34.1875 6.109375 38.703125 11.40625 
Q 43.21875 16.703125 43.21875 25.484375 
L 43.21875 27.484375 
z
M 52.203125 31.203125 
L 52.203125 0 
L 43.21875 0 
L 43.21875 8.296875 
Q 40.140625 3.328125 35.546875 0.953125 
Q 30.953125 -1.421875 24.3125 -1.421875 
Q 15.921875 -1.421875 10.953125 3.296875 
Q 6 8.015625 6 15.921875 
Q 6 25.140625 12.171875 29.828125 
Q 18.359375 34.515625 30.609375 34.515625 
L 43.21875 34.515625 
L 43.21875 35.40625 
Q 43.21875 41.609375 39.140625 45 
Q 35.0625 48.390625 27.6875 48.390625 
Q 23 48.390625 18.546875 47.265625 
Q 14.109375 46.140625 10.015625 43.890625 
L 10.015625 52.203125 
Q 14.9375 54.109375 19.578125 55.046875 
Q 24.21875 56 28.609375 56 
Q 40.484375 56 46.34375 49.84375 
Q 52.203125 43.703125 52.203125 31.203125 
z
" id="DejaVuSans-97"/>
      <path d="M 5.515625 54.6875 
L 48.1875 54.6875 
L 48.1875 46.484375 
L 14.40625 7.171875 
L 48.1875 7.171875 
L 48.1875 0 
L 4.296875 0 
L 4.296875 8.203125 
L 38.09375 47.515625 
L 5.515625 47.515625 
z
" id="DejaVuSans-122"/>
      <path d="M 56.203125 29.59375 
L 56.203125 25.203125 
L 14.890625 25.203125 
Q 15.484375 15.921875 20.484375 11.0625 
Q 25.484375 6.203125 34.421875 6.203125 
Q 39.59375 6.203125 44.453125 7.46875 
Q 49.3125 8.734375 54.109375 11.28125 
L 54.109375 2.78125 
Q 49.265625 0.734375 44.1875 -0.34375 
Q 39.109375 -1.421875 33.890625 -1.421875 
Q 20.796875 -1.421875 13.15625 6.1875 
Q 5.515625 13.8125 5.515625 26.8125 
Q 5.515625 40.234375 12.765625 48.109375 
Q 20.015625 56 32.328125 56 
Q 43.359375 56 49.78125 48.890625 
Q 56.203125 41.796875 56.203125 29.59375 
z
M 47.21875 32.234375 
Q 47.125 39.59375 43.09375 43.984375 
Q 39.0625 48.390625 32.421875 48.390625 
Q 24.90625 48.390625 20.390625 44.140625 
Q 15.875 39.890625 15.1875 32.171875 
z
" id="DejaVuSans-101"/>
      <path d="M 45.40625 46.390625 
L 45.40625 75.984375 
L 54.390625 75.984375 
L 54.390625 0 
L 45.40625 0 
L 45.40625 8.203125 
Q 42.578125 3.328125 38.25 0.953125 
Q 33.9375 -1.421875 27.875 -1.421875 
Q 17.96875 -1.421875 11.734375 6.484375 
Q 5.515625 14.40625 5.515625 27.296875 
Q 5.515625 40.1875 11.734375 48.09375 
Q 17.96875 56 27.875 56 
Q 33.9375 56 38.25 53.625 
Q 42.578125 51.265625 45.40625 46.390625 
z
M 14.796875 27.296875 
Q 14.796875 17.390625 18.875 11.75 
Q 22.953125 6.109375 30.078125 6.109375 
Q 37.203125 6.109375 41.296875 11.75 
Q 45.40625 17.390625 45.40625 27.296875 
Q 45.40625 37.203125 41.296875 42.84375 
Q 37.203125 48.484375 30.078125 48.484375 
Q 22.953125 48.484375 18.875 42.84375 
Q 14.796875 37.203125 14.796875 27.296875 
z
" id="DejaVuSans-100"/>
      <path d="M 8.015625 75.875 
L 15.828125 75.875 
Q 23.140625 64.359375 26.78125 53.3125 
Q 30.421875 42.28125 30.421875 31.390625 
Q 30.421875 20.453125 26.78125 9.375 
Q 23.140625 -1.703125 15.828125 -13.1875 
L 8.015625 -13.1875 
Q 14.5 -2 17.703125 9.0625 
Q 20.90625 20.125 20.90625 31.390625 
Q 20.90625 42.671875 17.703125 53.65625 
Q 14.5 64.65625 8.015625 75.875 
z
" id="DejaVuSans-41"/>
     </defs>
     <g transform="translate(46.982656 344.945362)scale(0.1 -0.1)">
      <use xlink:href="#DejaVuSans-80"/>
      <use x="60.255859" xlink:href="#DejaVuSans-111"/>
      <use x="121.4375" xlink:href="#DejaVuSans-108"/>
      <use x="149.220703" xlink:href="#DejaVuSans-105"/>
      <use x="177.003906" xlink:href="#DejaVuSans-99"/>
      <use x="231.984375" xlink:href="#DejaVuSans-121"/>
      <use x="291.164062" xlink:href="#DejaVuSans-32"/>
      <use x="322.951172" xlink:href="#DejaVuSans-76"/>
      <use x="378.648438" xlink:href="#DejaVuSans-111"/>
      <use x="439.830078" xlink:href="#DejaVuSans-115"/>
      <use x="491.929688" xlink:href="#DejaVuSans-115"/>
      <use x="544.029297" xlink:href="#DejaVuSans-32"/>
      <use x="575.816406" xlink:href="#DejaVuSans-40"/>
      <use x="614.830078" xlink:href="#DejaVuSans-78"/>
      <use x="689.634766" xlink:href="#DejaVuSans-111"/>
      <use x="750.816406" xlink:href="#DejaVuSans-114"/>
      <use x="791.914062" xlink:href="#DejaVuSans-109"/>
      <use x="889.326172" xlink:href="#DejaVuSans-97"/>
      <use x="950.605469" xlink:href="#DejaVuSans-108"/>
      <use x="978.388672" xlink:href="#DejaVuSans-105"/>
      <use x="1006.171875" xlink:href="#DejaVuSans-122"/>
      <use x="1058.662109" xlink:href="#DejaVuSans-101"/>
      <use x="1120.185547" xlink:href="#DejaVuSans-100"/>
      <use x="1183.662109" xlink:href="#DejaVuSans-41"/>
     </g>
    </g>
    <g id="line2d_23">
     <path d="M 189.251406 341.445362 
L 209.251406 341.445362 
" style="fill:none;stroke:#ff7f0e;stroke-linecap:square;stroke-width:1.5;"/>
    </g>
    <g id="line2d_24"/>
    <g id="text_20">
     <!-- Value Loss (Normalized) -->
     <defs>
      <path d="M 28.609375 0 
L 0.78125 72.90625 
L 11.078125 72.90625 
L 34.1875 11.53125 
L 57.328125 72.90625 
L 67.578125 72.90625 
L 39.796875 0 
z
" id="DejaVuSans-86"/>
      <path d="M 8.5 21.578125 
L 8.5 54.6875 
L 17.484375 54.6875 
L 17.484375 21.921875 
Q 17.484375 14.15625 20.5 10.265625 
Q 23.53125 6.390625 29.59375 6.390625 
Q 36.859375 6.390625 41.078125 11.03125 
Q 45.3125 15.671875 45.3125 23.6875 
L 45.3125 54.6875 
L 54.296875 54.6875 
L 54.296875 0 
L 45.3125 0 
L 45.3125 8.40625 
Q 42.046875 3.421875 37.71875 1 
Q 33.40625 -1.421875 27.6875 -1.421875 
Q 18.265625 -1.421875 13.375 4.4375 
Q 8.5 10.296875 8.5 21.578125 
z
M 31.109375 56 
z
" id="DejaVuSans-117"/>
     </defs>
     <g transform="translate(217.251406 344.945362)scale(0.1 -0.1)">
      <use xlink:href="#DejaVuSans-86"/>
      <use x="68.298828" xlink:href="#DejaVuSans-97"/>
      <use x="129.578125" xlink:href="#DejaVuSans-108"/>
      <use x="157.361328" xlink:href="#DejaVuSans-117"/>
      <use x="220.740234" xlink:href="#DejaVuSans-101"/>
      <use x="282.263672" xlink:href="#DejaVuSans-32"/>
      <use x="314.050781" xlink:href="#DejaVuSans-76"/>
      <use x="369.748047" xlink:href="#DejaVuSans-111"/>
      <use x="430.929688" xlink:href="#DejaVuSans-115"/>
      <use x="483.029297" xlink:href="#DejaVuSans-115"/>
      <use x="535.128906" xlink:href="#DejaVuSans-32"/>
      <use x="566.916016" xlink:href="#DejaVuSans-40"/>
      <use x="605.929688" xlink:href="#DejaVuSans-78"/>
      <use x="680.734375" xlink:href="#DejaVuSans-111"/>
      <use x="741.916016" xlink:href="#DejaVuSans-114"/>
      <use x="783.013672" xlink:href="#DejaVuSans-109"/>
      <use x="880.425781" xlink:href="#DejaVuSans-97"/>
      <use x="941.705078" xlink:href="#DejaVuSans-108"/>
      <use x="969.488281" xlink:href="#DejaVuSans-105"/>
      <use x="997.271484" xlink:href="#DejaVuSans-122"/>
      <use x="1049.761719" xlink:href="#DejaVuSans-101"/>
      <use x="1111.285156" xlink:href="#DejaVuSans-100"/>
      <use x="1174.761719" xlink:href="#DejaVuSans-41"/>
     </g>
    </g>
    <g id="line2d_25">
     <path d="M 358.629531 341.445362 
L 378.629531 341.445362 
" style="fill:none;stroke:#008000;stroke-linecap:square;stroke-width:1.5;"/>
    </g>
    <g id="line2d_26"/>
    <g id="text_21">
     <!-- Entropy -->
     <defs>
      <path d="M 54.890625 33.015625 
L 54.890625 0 
L 45.90625 0 
L 45.90625 32.71875 
Q 45.90625 40.484375 42.875 44.328125 
Q 39.84375 48.1875 33.796875 48.1875 
Q 26.515625 48.1875 22.3125 43.546875 
Q 18.109375 38.921875 18.109375 30.90625 
L 18.109375 0 
L 9.078125 0 
L 9.078125 54.6875 
L 18.109375 54.6875 
L 18.109375 46.1875 
Q 21.34375 51.125 25.703125 53.5625 
Q 30.078125 56 35.796875 56 
Q 45.21875 56 50.046875 50.171875 
Q 54.890625 44.34375 54.890625 33.015625 
z
" id="DejaVuSans-110"/>
      <path d="M 18.3125 70.21875 
L 18.3125 54.6875 
L 36.8125 54.6875 
L 36.8125 47.703125 
L 18.3125 47.703125 
L 18.3125 18.015625 
Q 18.3125 11.328125 20.140625 9.421875 
Q 21.96875 7.515625 27.59375 7.515625 
L 36.8125 7.515625 
L 36.8125 0 
L 27.59375 0 
Q 17.1875 0 13.234375 3.875 
Q 9.28125 7.765625 9.28125 18.015625 
L 9.28125 47.703125 
L 2.6875 47.703125 
L 2.6875 54.6875 
L 9.28125 54.6875 
L 9.28125 70.21875 
z
" id="DejaVuSans-116"/>
     </defs>
     <g transform="translate(386.629531 344.945362)scale(0.1 -0.1)">
      <use xlink:href="#DejaVuSans-69"/>
      <use x="63.183594" xlink:href="#DejaVuSans-110"/>
      <use x="126.5625" xlink:href="#DejaVuSans-116"/>
      <use x="165.771484" xlink:href="#DejaVuSans-114"/>
      <use x="206.853516" xlink:href="#DejaVuSans-111"/>
      <use x="268.035156" xlink:href="#DejaVuSans-112"/>
      <use x="331.511719" xlink:href="#DejaVuSans-121"/>
     </g>
    </g>
   </g>
  </g>
  <g id="axes_2">
   <g id="matplotlib.axis_3">
    <g id="ytick_7">
     <g id="line2d_27">
      <defs>
       <path d="M 0 0 
L 3.5 0 
" id="m58f8d30701" style="stroke:#000000;stroke-width:0.8;"/>
      </defs>
      <g>
       <use style="stroke:#000000;stroke-width:0.8;" x="400.90125" xlink:href="#m58f8d30701" y="288.25556"/>
      </g>
     </g>
     <g id="text_22">
      <!-- 2.2 -->
      <g transform="translate(407.90125 292.054779)scale(0.1 -0.1)">
       <use xlink:href="#DejaVuSans-50"/>
       <use x="63.623047" xlink:href="#DejaVuSans-46"/>
       <use x="95.410156" xlink:href="#DejaVuSans-50"/>
      </g>
     </g>
    </g>
    <g id="ytick_8">
     <g id="line2d_28">
      <g>
       <use style="stroke:#000000;stroke-width:0.8;" x="400.90125" xlink:href="#m58f8d30701" y="243.892474"/>
      </g>
     </g>
     <g id="text_23">
      <!-- 2.4 -->
      <g transform="translate(407.90125 247.691693)scale(0.1 -0.1)">
       <use xlink:href="#DejaVuSans-50"/>
       <use x="63.623047" xlink:href="#DejaVuSans-46"/>
       <use x="95.410156" xlink:href="#DejaVuSans-52"/>
      </g>
     </g>
    </g>
    <g id="ytick_9">
     <g id="line2d_29">
      <g>
       <use style="stroke:#000000;stroke-width:0.8;" x="400.90125" xlink:href="#m58f8d30701" y="199.529389"/>
      </g>
     </g>
     <g id="text_24">
      <!-- 2.6 -->
      <g transform="translate(407.90125 203.328607)scale(0.1 -0.1)">
       <use xlink:href="#DejaVuSans-50"/>
       <use x="63.623047" xlink:href="#DejaVuSans-46"/>
       <use x="95.410156" xlink:href="#DejaVuSans-54"/>
      </g>
     </g>
    </g>
    <g id="ytick_10">
     <g id="line2d_30">
      <g>
       <use style="stroke:#000000;stroke-width:0.8;" x="400.90125" xlink:href="#m58f8d30701" y="155.166303"/>
      </g>
     </g>
     <g id="text_25">
      <!-- 2.8 -->
      <g transform="translate(407.90125 158.965522)scale(0.1 -0.1)">
       <use xlink:href="#DejaVuSans-50"/>
       <use x="63.623047" xlink:href="#DejaVuSans-46"/>
       <use x="95.410156" xlink:href="#DejaVuSans-56"/>
      </g>
     </g>
    </g>
    <g id="ytick_11">
     <g id="line2d_31">
      <g>
       <use style="stroke:#000000;stroke-width:0.8;" x="400.90125" xlink:href="#m58f8d30701" y="110.803218"/>
      </g>
     </g>
     <g id="text_26">
      <!-- 3.0 -->
      <g transform="translate(407.90125 114.602436)scale(0.1 -0.1)">
       <use xlink:href="#DejaVuSans-51"/>
       <use x="63.623047" xlink:href="#DejaVuSans-46"/>
       <use x="95.410156" xlink:href="#DejaVuSans-48"/>
      </g>
     </g>
    </g>
    <g id="ytick_12">
     <g id="line2d_32">
      <g>
       <use style="stroke:#000000;stroke-width:0.8;" x="400.90125" xlink:href="#m58f8d30701" y="66.440132"/>
      </g>
     </g>
     <g id="text_27">
      <!-- 3.2 -->
      <g transform="translate(407.90125 70.239351)scale(0.1 -0.1)">
       <use xlink:href="#DejaVuSans-51"/>
       <use x="63.623047" xlink:href="#DejaVuSans-46"/>
       <use x="95.410156" xlink:href="#DejaVuSans-50"/>
      </g>
     </g>
    </g>
    <g id="text_28">
     <!-- Entropy -->
     <g transform="translate(435.402812 174.909281)rotate(-90)scale(0.1 -0.1)">
      <use xlink:href="#DejaVuSans-69"/>
      <use x="63.183594" xlink:href="#DejaVuSans-110"/>
      <use x="126.5625" xlink:href="#DejaVuSans-116"/>
      <use x="165.771484" xlink:href="#DejaVuSans-114"/>
      <use x="206.853516" xlink:href="#DejaVuSans-111"/>
      <use x="268.035156" xlink:href="#DejaVuSans-112"/>
      <use x="331.511719" xlink:href="#DejaVuSans-121"/>
     </g>
    </g>
   </g>
   <g id="line2d_33">
    <path clip-path="url(#p5f98d96eea)" d="M 60.013977 47.808077 
L 60.827648 42.4227 
L 61.641318 36.121673 
L 62.454989 42.374099 
L 63.268659 41.870052 
L 64.08233 37.279694 
L 64.896001 43.176257 
L 65.709671 40.797546 
L 66.523342 34.414125 
L 67.337012 45.611396 
L 68.150683 95.160916 
L 68.964353 82.843278 
L 69.778024 88.611754 
L 70.591694 89.314118 
L 71.405365 90.647611 
L 72.219035 91.226225 
L 73.032706 78.741365 
L 73.846376 85.055507 
L 74.660047 86.742272 
L 75.473718 91.522169 
L 76.287388 119.991549 
L 77.101059 112.908936 
L 77.914729 119.365603 
L 78.7284 122.342601 
L 79.54207 112.954312 
L 80.355741 123.565882 
L 81.169411 115.80777 
L 81.983082 116.132378 
L 82.796752 127.465563 
L 83.610423 121.483274 
L 84.424093 136.714713 
L 85.237764 147.0003 
L 86.051435 145.626086 
L 86.865105 147.094541 
L 87.678776 146.099565 
L 88.492446 150.952073 
L 89.306117 145.379378 
L 90.119787 150.765178 
L 90.933458 148.310313 
L 91.747128 144.825197 
L 92.560799 138.585834 
L 93.374469 138.601012 
L 94.18814 135.68774 
L 95.00181 141.846771 
L 95.815481 140.31644 
L 96.629152 142.398625 
L 97.442822 144.157842 
L 98.256493 143.705464 
L 99.070163 144.644224 
L 99.883834 144.205861 
L 100.697504 164.699561 
L 101.511175 157.006021 
L 102.324845 166.457667 
L 103.138516 160.622239 
L 103.952186 167.14808 
L 104.765857 169.605589 
L 105.579528 167.265854 
L 106.393198 171.156439 
L 107.206869 172.563231 
L 108.83421 167.552438 
L 110.461551 174.890485 
L 111.275221 174.819778 
L 112.088892 172.890218 
L 112.902562 175.596921 
L 113.716233 176.137405 
L 114.529903 176.092982 
L 115.343574 178.748968 
L 116.157245 175.677412 
L 116.970915 182.727342 
L 117.784586 167.829978 
L 118.598256 161.692471 
L 119.411927 171.223074 
L 120.225597 169.075894 
L 121.039268 170.064577 
L 121.852938 167.896401 
L 122.666609 170.497282 
L 123.480279 168.404943 
L 124.29395 171.507912 
L 125.10762 182.494331 
L 125.921291 191.47895 
L 126.734962 189.376034 
L 127.548632 190.895947 
L 128.362303 191.420618 
L 129.175973 188.353399 
L 129.989644 197.756126 
L 130.803314 190.728196 
L 131.616985 197.52835 
L 132.430655 191.694774 
L 133.244326 169.329318 
L 134.057996 163.76868 
L 134.871667 161.83727 
L 135.685337 168.248721 
L 136.499008 166.034006 
L 137.312679 170.434084 
L 138.126349 167.501086 
L 138.94002 168.682747 
L 139.75369 167.344336 
L 140.567361 170.213766 
L 141.381031 196.254247 
L 142.194702 196.352507 
L 143.008372 201.330512 
L 143.822043 197.890771 
L 144.635713 195.842168 
L 145.449384 202.612389 
L 146.263055 199.376202 
L 147.076725 197.42972 
L 147.890396 201.597633 
L 148.704066 199.998922 
L 149.517737 194.487362 
L 150.331407 197.957617 
L 151.145078 191.845284 
L 151.958748 195.124836 
L 152.772419 193.017796 
L 153.586089 193.747079 
L 154.39976 188.542674 
L 155.21343 197.337489 
L 156.027101 192.63401 
L 156.840772 195.664527 
L 157.654442 225.035013 
L 158.468113 222.440162 
L 159.281783 218.881906 
L 160.095454 217.128823 
L 160.909124 220.926489 
L 161.722795 219.199374 
L 162.536465 218.199056 
L 163.350136 222.746841 
L 164.163806 221.202919 
L 164.977477 219.36062 
L 165.791147 237.094308 
L 166.604818 234.477034 
L 167.418489 242.801173 
L 168.232159 239.925397 
L 169.04583 242.366776 
L 169.8595 248.609206 
L 170.673171 242.913342 
L 171.486841 245.565468 
L 172.300512 249.194536 
L 173.114182 248.093843 
L 173.927853 221.543604 
L 174.741523 218.831771 
L 175.555194 218.112324 
L 176.368864 214.954672 
L 177.182535 213.54037 
L 177.996206 210.393347 
L 178.809876 212.457922 
L 179.623547 208.689712 
L 180.437217 209.001205 
L 181.250888 207.938641 
L 182.064558 182.839458 
L 182.878229 182.721736 
L 183.691899 181.566148 
L 184.50557 183.387769 
L 185.31924 184.612002 
L 186.132911 181.566994 
L 186.946582 181.727659 
L 187.760252 183.241119 
L 189.387593 180.835067 
L 190.201264 216.89026 
L 191.014934 219.536304 
L 191.828605 220.728012 
L 192.642275 218.588606 
L 193.455946 214.223696 
L 195.083287 221.878365 
L 196.710628 215.460569 
L 197.524299 218.52123 
L 198.337969 246.427016 
L 199.15164 246.710902 
L 199.96531 253.491172 
L 200.778981 246.082999 
L 201.592651 244.586197 
L 202.406322 247.298824 
L 203.219992 251.565632 
L 204.033663 249.62888 
L 204.847333 249.539029 
L 205.661004 248.624913 
L 206.474674 257.327021 
L 208.102016 263.225805 
L 208.915686 262.985971 
L 209.729357 261.80209 
L 210.543027 259.549139 
L 211.356698 260.901407 
L 212.170368 258.617201 
L 212.984039 260.14822 
L 213.797709 260.745555 
L 214.61138 263.632542 
L 215.42505 259.09343 
L 216.238721 259.245315 
L 217.052391 259.911718 
L 217.866062 261.078624 
L 218.679733 256.265197 
L 219.493403 260.009132 
L 220.307074 260.154619 
L 221.120744 259.092531 
L 221.934415 259.720486 
L 222.748085 238.970083 
L 223.561756 228.735741 
L 224.375426 228.629865 
L 225.189097 229.038877 
L 226.002767 230.178653 
L 226.816438 230.57841 
L 227.630109 228.364119 
L 228.443779 232.162684 
L 229.25745 226.183568 
L 230.07112 229.097209 
L 230.884791 225.483742 
L 231.698461 222.471469 
L 232.512132 225.352481 
L 233.325802 227.10678 
L 234.139473 226.20414 
L 234.953143 229.193989 
L 235.766814 227.575182 
L 236.580484 228.366181 
L 237.394155 228.853304 
L 238.207826 227.930515 
L 239.021496 211.635826 
L 239.835167 222.076525 
L 240.648837 210.331631 
L 241.462508 216.808288 
L 242.276178 206.760629 
L 243.089849 215.534925 
L 243.903519 212.510754 
L 244.71719 215.416516 
L 245.53086 205.823244 
L 246.344531 219.610977 
L 247.158201 217.623879 
L 248.785543 213.270657 
L 249.599213 216.659999 
L 250.412884 217.036645 
L 252.040225 215.161028 
L 252.853895 217.962501 
L 253.667566 213.729592 
L 254.481236 218.133796 
L 255.294907 231.652979 
L 256.108577 233.358729 
L 256.922248 229.029675 
L 257.735918 228.068333 
L 258.549589 228.524836 
L 259.36326 228.20832 
L 260.17693 228.359306 
L 260.990601 227.506114 
L 261.804271 228.782703 
L 262.617942 230.49866 
L 263.431612 236.265337 
L 264.245283 245.053118 
L 265.058953 248.187079 
L 265.872624 246.51343 
L 266.686294 240.408024 
L 267.499965 239.34086 
L 269.127306 245.197759 
L 269.940977 241.036932 
L 270.754647 243.748976 
L 271.568318 233.57873 
L 272.381988 234.998215 
L 273.195659 232.725326 
L 274.009329 230.972456 
L 274.823 232.339002 
L 275.63667 234.872666 
L 276.450341 232.736802 
L 277.264011 234.754151 
L 278.077682 235.767479 
L 278.891353 235.649915 
L 279.705023 238.069506 
L 280.518694 234.848339 
L 281.332364 224.301235 
L 282.146035 228.468672 
L 282.959705 224.693588 
L 283.773376 230.447203 
L 284.587046 225.87509 
L 285.400717 224.818079 
L 286.214387 224.055849 
L 287.028058 224.474274 
L 287.841728 239.137253 
L 288.655399 241.49592 
L 289.46907 236.419497 
L 290.28274 236.94586 
L 291.096411 237.720889 
L 291.910081 237.434517 
L 292.723752 234.170354 
L 293.537422 235.620353 
L 295.164763 236.272159 
L 295.978434 228.731933 
L 296.792104 237.349425 
L 297.605775 237.992188 
L 298.419445 232.772817 
L 299.233116 235.352808 
L 300.046787 231.020528 
L 300.860457 236.522781 
L 301.674128 233.237094 
L 302.487798 234.527856 
L 303.301469 234.760973 
L 304.115139 232.581268 
L 304.92881 233.122016 
L 305.74248 240.308654 
L 306.556151 239.67102 
L 308.183492 243.264656 
L 308.997163 244.532625 
L 309.810833 246.311832 
L 310.624504 243.765529 
L 311.438174 244.660924 
L 312.251845 269.384941 
L 313.065515 272.447982 
L 313.879186 273.15241 
L 314.692856 272.940976 
L 315.506527 274.846366 
L 316.320197 275.677241 
L 317.133868 273.608383 
L 317.947538 271.925427 
L 318.761209 274.911574 
L 319.57488 276.334125 
L 320.38855 255.499371 
L 321.202221 255.219186 
L 322.015891 256.323265 
L 322.829562 252.918322 
L 323.643232 254.495668 
L 326.084244 249.234517 
L 326.897914 252.009019 
L 327.711585 250.215268 
L 328.525255 263.931078 
L 329.338926 263.678711 
L 330.152597 265.393293 
L 330.966267 264.992055 
L 331.779938 265.106604 
L 332.593608 261.893422 
L 333.407279 261.897388 
L 334.220949 264.90067 
L 335.03462 265.411432 
L 335.84829 260.281595 
L 336.661961 265.712982 
L 337.475631 270.006286 
L 338.289302 266.732551 
L 339.102972 265.373197 
L 339.916643 268.771106 
L 340.730314 266.996341 
L 341.543984 267.172289 
L 342.357655 266.877667 
L 343.171325 267.44581 
L 343.984996 264.835304 
L 344.798666 244.47149 
L 345.612337 247.291314 
L 346.426007 248.155242 
L 347.239678 251.140649 
L 348.053348 250.66278 
L 348.867019 251.234942 
L 349.68069 252.822495 
L 350.49436 252.351713 
L 351.308031 250.737348 
L 352.121701 253.130073 
L 352.935372 237.526907 
L 353.749042 239.740564 
L 354.562713 245.935027 
L 355.376383 242.689163 
L 356.190054 245.436375 
L 357.003724 246.289832 
L 358.631065 244.0363 
L 359.444736 243.876429 
L 360.258407 242.671182 
L 361.072077 256.872581 
L 361.885748 258.38583 
L 362.699418 257.679975 
L 363.513089 259.361927 
L 364.326759 259.455004 
L 365.14043 259.978406 
L 365.9541 259.679765 
L 367.581441 259.849155 
L 368.395112 260.239922 
L 369.208782 256.589012 
L 370.022453 259.387576 
L 370.836124 262.81399 
L 371.649794 262.767398 
L 372.463465 262.334165 
L 373.277135 262.458815 
L 374.090806 259.36383 
L 374.904476 262.587272 
L 375.718147 261.015215 
L 376.531817 262.525714 
L 377.345488 269.88079 
L 378.159158 271.665762 
L 378.972829 268.646033 
L 379.786499 270.549044 
L 380.60017 271.598333 
L 381.413841 269.161026 
L 382.227511 269.258123 
L 383.041182 271.943143 
L 384.668523 268.851226 
L 384.668523 268.851226 
" style="fill:none;stroke:#008000;stroke-linecap:square;stroke-opacity:0.3;stroke-width:1.5;"/>
   </g>
   <g id="patch_9">
    <path d="M 43.78125 288.430125 
L 43.78125 22.318125 
" style="fill:none;stroke:#000000;stroke-linecap:square;stroke-linejoin:miter;stroke-width:0.8;"/>
   </g>
   <g id="patch_10">
    <path d="M 400.90125 288.430125 
L 400.90125 22.318125 
" style="fill:none;stroke:#000000;stroke-linecap:square;stroke-linejoin:miter;stroke-width:0.8;"/>
   </g>
   <g id="patch_11">
    <path d="M 43.78125 288.430125 
L 400.90125 288.430125 
" style="fill:none;stroke:#000000;stroke-linecap:square;stroke-linejoin:miter;stroke-width:0.8;"/>
   </g>
   <g id="patch_12">
    <path d="M 43.78125 22.318125 
L 400.90125 22.318125 
" style="fill:none;stroke:#000000;stroke-linecap:square;stroke-linejoin:miter;stroke-width:0.8;"/>
   </g>
  </g>
 </g>
 <defs>
  <clipPath id="p5f98d96eea">
   <rect height="266.112" width="357.12" x="43.78125" y="22.318125"/>
  </clipPath>
 </defs>
</svg>
