<?xml version="1.0" encoding="utf-8" standalone="no"?>
<!DOCTYPE svg PUBLIC "-//W3C//DTD SVG 1.1//EN"
  "http://www.w3.org/Graphics/SVG/1.1/DTD/svg11.dtd">
<!-- Created with matplotlib (https://matplotlib.org/) -->
<svg height="358.22505pt" version="1.1" viewBox="0 0 451.045 358.22505" width="451.045pt" xmlns="http://www.w3.org/2000/svg" xmlns:xlink="http://www.w3.org/1999/xlink">
 <defs>
  <style type="text/css">
*{stroke-linecap:butt;stroke-linejoin:round;}
  </style>
 </defs>
 <g id="figure_1">
  <g id="patch_1">
   <path d="M 0 358.22505 
L 451.045 358.22505 
L 451.045 0 
L 0 0 
z
" style="fill:#ffffff;"/>
  </g>
  <g id="axes_1">
   <g id="patch_2">
    <path d="M 43.78125 288.430125 
L 400.90125 288.430125 
L 400.90125 22.318125 
L 43.78125 22.318125 
z
" style="fill:#ffffff;"/>
   </g>
   <g id="matplotlib.axis_1">
    <g id="xtick_1">
     <g id="line2d_1">
      <defs>
       <path d="M 0 0 
L 0 3.5 
" id="m671ef7dcf6" style="stroke:#000000;stroke-width:0.8;"/>
      </defs>
      <g>
       <use style="stroke:#000000;stroke-width:0.8;" x="60.013977" xlink:href="#m671ef7dcf6" y="288.430125"/>
      </g>
     </g>
     <g id="text_1">
      <!-- 0 -->
      <defs>
       <path d="M 31.78125 66.40625 
Q 24.171875 66.40625 20.328125 58.90625 
Q 16.5 51.421875 16.5 36.375 
Q 16.5 21.390625 20.328125 13.890625 
Q 24.171875 6.390625 31.78125 6.390625 
Q 39.453125 6.390625 43.28125 13.890625 
Q 47.125 21.390625 47.125 36.375 
Q 47.125 51.421875 43.28125 58.90625 
Q 39.453125 66.40625 31.78125 66.40625 
z
M 31.78125 74.21875 
Q 44.046875 74.21875 50.515625 64.515625 
Q 56.984375 54.828125 56.984375 36.375 
Q 56.984375 17.96875 50.515625 8.265625 
Q 44.046875 -1.421875 31.78125 -1.421875 
Q 19.53125 -1.421875 13.0625 8.265625 
Q 6.59375 17.96875 6.59375 36.375 
Q 6.59375 54.828125 13.0625 64.515625 
Q 19.53125 74.21875 31.78125 74.21875 
z
" id="DejaVuSans-48"/>
      </defs>
      <g transform="translate(56.832727 303.028562)scale(0.1 -0.1)">
       <use xlink:href="#DejaVuSans-48"/>
      </g>
     </g>
    </g>
    <g id="xtick_2">
     <g id="line2d_2">
      <g>
       <use style="stroke:#000000;stroke-width:0.8;" x="128.79672" xlink:href="#m671ef7dcf6" y="288.430125"/>
      </g>
     </g>
     <g id="text_2">
      <!-- 50 -->
      <defs>
       <path d="M 10.796875 72.90625 
L 49.515625 72.90625 
L 49.515625 64.59375 
L 19.828125 64.59375 
L 19.828125 46.734375 
Q 21.96875 47.46875 24.109375 47.828125 
Q 26.265625 48.1875 28.421875 48.1875 
Q 40.625 48.1875 47.75 41.5 
Q 54.890625 34.8125 54.890625 23.390625 
Q 54.890625 11.625 47.5625 5.09375 
Q 40.234375 -1.421875 26.90625 -1.421875 
Q 22.3125 -1.421875 17.546875 -0.640625 
Q 12.796875 0.140625 7.71875 1.703125 
L 7.71875 11.625 
Q 12.109375 9.234375 16.796875 8.0625 
Q 21.484375 6.890625 26.703125 6.890625 
Q 35.15625 6.890625 40.078125 11.328125 
Q 45.015625 15.765625 45.015625 23.390625 
Q 45.015625 31 40.078125 35.4375 
Q 35.15625 39.890625 26.703125 39.890625 
Q 22.75 39.890625 18.8125 39.015625 
Q 14.890625 38.140625 10.796875 36.28125 
z
" id="DejaVuSans-53"/>
      </defs>
      <g transform="translate(122.43422 303.028562)scale(0.1 -0.1)">
       <use xlink:href="#DejaVuSans-53"/>
       <use x="63.623047" xlink:href="#DejaVuSans-48"/>
      </g>
     </g>
    </g>
    <g id="xtick_3">
     <g id="line2d_3">
      <g>
       <use style="stroke:#000000;stroke-width:0.8;" x="197.579463" xlink:href="#m671ef7dcf6" y="288.430125"/>
      </g>
     </g>
     <g id="text_3">
      <!-- 100 -->
      <defs>
       <path d="M 12.40625 8.296875 
L 28.515625 8.296875 
L 28.515625 63.921875 
L 10.984375 60.40625 
L 10.984375 69.390625 
L 28.421875 72.90625 
L 38.28125 72.90625 
L 38.28125 8.296875 
L 54.390625 8.296875 
L 54.390625 0 
L 12.40625 0 
z
" id="DejaVuSans-49"/>
      </defs>
      <g transform="translate(188.035713 303.028562)scale(0.1 -0.1)">
       <use xlink:href="#DejaVuSans-49"/>
       <use x="63.623047" xlink:href="#DejaVuSans-48"/>
       <use x="127.246094" xlink:href="#DejaVuSans-48"/>
      </g>
     </g>
    </g>
    <g id="xtick_4">
     <g id="line2d_4">
      <g>
       <use style="stroke:#000000;stroke-width:0.8;" x="266.362205" xlink:href="#m671ef7dcf6" y="288.430125"/>
      </g>
     </g>
     <g id="text_4">
      <!-- 150 -->
      <g transform="translate(256.818455 303.028562)scale(0.1 -0.1)">
       <use xlink:href="#DejaVuSans-49"/>
       <use x="63.623047" xlink:href="#DejaVuSans-53"/>
       <use x="127.246094" xlink:href="#DejaVuSans-48"/>
      </g>
     </g>
    </g>
    <g id="xtick_5">
     <g id="line2d_5">
      <g>
       <use style="stroke:#000000;stroke-width:0.8;" x="335.144948" xlink:href="#m671ef7dcf6" y="288.430125"/>
      </g>
     </g>
     <g id="text_5">
      <!-- 200 -->
      <defs>
       <path d="M 19.1875 8.296875 
L 53.609375 8.296875 
L 53.609375 0 
L 7.328125 0 
L 7.328125 8.296875 
Q 12.9375 14.109375 22.625 23.890625 
Q 32.328125 33.6875 34.8125 36.53125 
Q 39.546875 41.84375 41.421875 45.53125 
Q 43.3125 49.21875 43.3125 52.78125 
Q 43.3125 58.59375 39.234375 62.25 
Q 35.15625 65.921875 28.609375 65.921875 
Q 23.96875 65.921875 18.8125 64.3125 
Q 13.671875 62.703125 7.8125 59.421875 
L 7.8125 69.390625 
Q 13.765625 71.78125 18.9375 73 
Q 24.125 74.21875 28.421875 74.21875 
Q 39.75 74.21875 46.484375 68.546875 
Q 53.21875 62.890625 53.21875 53.421875 
Q 53.21875 48.921875 51.53125 44.890625 
Q 49.859375 40.875 45.40625 35.40625 
Q 44.1875 33.984375 37.640625 27.21875 
Q 31.109375 20.453125 19.1875 8.296875 
z
" id="DejaVuSans-50"/>
      </defs>
      <g transform="translate(325.601198 303.028562)scale(0.1 -0.1)">
       <use xlink:href="#DejaVuSans-50"/>
       <use x="63.623047" xlink:href="#DejaVuSans-48"/>
       <use x="127.246094" xlink:href="#DejaVuSans-48"/>
      </g>
     </g>
    </g>
    <g id="text_6">
     <!-- Epoch -->
     <defs>
      <path d="M 9.8125 72.90625 
L 55.90625 72.90625 
L 55.90625 64.59375 
L 19.671875 64.59375 
L 19.671875 43.015625 
L 54.390625 43.015625 
L 54.390625 34.71875 
L 19.671875 34.71875 
L 19.671875 8.296875 
L 56.78125 8.296875 
L 56.78125 0 
L 9.8125 0 
z
" id="DejaVuSans-69"/>
      <path d="M 18.109375 8.203125 
L 18.109375 -20.796875 
L 9.078125 -20.796875 
L 9.078125 54.6875 
L 18.109375 54.6875 
L 18.109375 46.390625 
Q 20.953125 51.265625 25.265625 53.625 
Q 29.59375 56 35.59375 56 
Q 45.5625 56 51.78125 48.09375 
Q 58.015625 40.1875 58.015625 27.296875 
Q 58.015625 14.40625 51.78125 6.484375 
Q 45.5625 -1.421875 35.59375 -1.421875 
Q 29.59375 -1.421875 25.265625 0.953125 
Q 20.953125 3.328125 18.109375 8.203125 
z
M 48.6875 27.296875 
Q 48.6875 37.203125 44.609375 42.84375 
Q 40.53125 48.484375 33.40625 48.484375 
Q 26.265625 48.484375 22.1875 42.84375 
Q 18.109375 37.203125 18.109375 27.296875 
Q 18.109375 17.390625 22.1875 11.75 
Q 26.265625 6.109375 33.40625 6.109375 
Q 40.53125 6.109375 44.609375 11.75 
Q 48.6875 17.390625 48.6875 27.296875 
z
" id="DejaVuSans-112"/>
      <path d="M 30.609375 48.390625 
Q 23.390625 48.390625 19.1875 42.75 
Q 14.984375 37.109375 14.984375 27.296875 
Q 14.984375 17.484375 19.15625 11.84375 
Q 23.34375 6.203125 30.609375 6.203125 
Q 37.796875 6.203125 41.984375 11.859375 
Q 46.1875 17.53125 46.1875 27.296875 
Q 46.1875 37.015625 41.984375 42.703125 
Q 37.796875 48.390625 30.609375 48.390625 
z
M 30.609375 56 
Q 42.328125 56 49.015625 48.375 
Q 55.71875 40.765625 55.71875 27.296875 
Q 55.71875 13.875 49.015625 6.21875 
Q 42.328125 -1.421875 30.609375 -1.421875 
Q 18.84375 -1.421875 12.171875 6.21875 
Q 5.515625 13.875 5.515625 27.296875 
Q 5.515625 40.765625 12.171875 48.375 
Q 18.84375 56 30.609375 56 
z
" id="DejaVuSans-111"/>
      <path d="M 48.78125 52.59375 
L 48.78125 44.1875 
Q 44.96875 46.296875 41.140625 47.34375 
Q 37.3125 48.390625 33.40625 48.390625 
Q 24.65625 48.390625 19.8125 42.84375 
Q 14.984375 37.3125 14.984375 27.296875 
Q 14.984375 17.28125 19.8125 11.734375 
Q 24.65625 6.203125 33.40625 6.203125 
Q 37.3125 6.203125 41.140625 7.25 
Q 44.96875 8.296875 48.78125 10.40625 
L 48.78125 2.09375 
Q 45.015625 0.34375 40.984375 -0.53125 
Q 36.96875 -1.421875 32.421875 -1.421875 
Q 20.0625 -1.421875 12.78125 6.34375 
Q 5.515625 14.109375 5.515625 27.296875 
Q 5.515625 40.671875 12.859375 48.328125 
Q 20.21875 56 33.015625 56 
Q 37.15625 56 41.109375 55.140625 
Q 45.0625 54.296875 48.78125 52.59375 
z
" id="DejaVuSans-99"/>
      <path d="M 54.890625 33.015625 
L 54.890625 0 
L 45.90625 0 
L 45.90625 32.71875 
Q 45.90625 40.484375 42.875 44.328125 
Q 39.84375 48.1875 33.796875 48.1875 
Q 26.515625 48.1875 22.3125 43.546875 
Q 18.109375 38.921875 18.109375 30.90625 
L 18.109375 0 
L 9.078125 0 
L 9.078125 75.984375 
L 18.109375 75.984375 
L 18.109375 46.1875 
Q 21.34375 51.125 25.703125 53.5625 
Q 30.078125 56 35.796875 56 
Q 45.21875 56 50.046875 50.171875 
Q 54.890625 44.34375 54.890625 33.015625 
z
" id="DejaVuSans-104"/>
     </defs>
     <g transform="translate(207.030313 316.706687)scale(0.1 -0.1)">
      <use xlink:href="#DejaVuSans-69"/>
      <use x="63.183594" xlink:href="#DejaVuSans-112"/>
      <use x="126.660156" xlink:href="#DejaVuSans-111"/>
      <use x="187.841797" xlink:href="#DejaVuSans-99"/>
      <use x="242.822266" xlink:href="#DejaVuSans-104"/>
     </g>
    </g>
   </g>
   <g id="matplotlib.axis_2">
    <g id="ytick_1">
     <g id="line2d_6">
      <defs>
       <path d="M 0 0 
L -3.5 0 
" id="m255d233ccf" style="stroke:#000000;stroke-width:0.8;"/>
      </defs>
      <g>
       <use style="stroke:#000000;stroke-width:0.8;" x="43.78125" xlink:href="#m255d233ccf" y="275.007006"/>
      </g>
     </g>
     <g id="text_7">
      <!-- 0.0 -->
      <defs>
       <path d="M 10.6875 12.40625 
L 21 12.40625 
L 21 0 
L 10.6875 0 
z
" id="DejaVuSans-46"/>
      </defs>
      <g transform="translate(20.878125 278.806224)scale(0.1 -0.1)">
       <use xlink:href="#DejaVuSans-48"/>
       <use x="63.623047" xlink:href="#DejaVuSans-46"/>
       <use x="95.410156" xlink:href="#DejaVuSans-48"/>
      </g>
     </g>
    </g>
    <g id="ytick_2">
     <g id="line2d_7">
      <g>
       <use style="stroke:#000000;stroke-width:0.8;" x="43.78125" xlink:href="#m255d233ccf" y="226.888429"/>
      </g>
     </g>
     <g id="text_8">
      <!-- 0.2 -->
      <g transform="translate(20.878125 230.687648)scale(0.1 -0.1)">
       <use xlink:href="#DejaVuSans-48"/>
       <use x="63.623047" xlink:href="#DejaVuSans-46"/>
       <use x="95.410156" xlink:href="#DejaVuSans-50"/>
      </g>
     </g>
    </g>
    <g id="ytick_3">
     <g id="line2d_8">
      <g>
       <use style="stroke:#000000;stroke-width:0.8;" x="43.78125" xlink:href="#m255d233ccf" y="178.769853"/>
      </g>
     </g>
     <g id="text_9">
      <!-- 0.4 -->
      <defs>
       <path d="M 37.796875 64.3125 
L 12.890625 25.390625 
L 37.796875 25.390625 
z
M 35.203125 72.90625 
L 47.609375 72.90625 
L 47.609375 25.390625 
L 58.015625 25.390625 
L 58.015625 17.1875 
L 47.609375 17.1875 
L 47.609375 0 
L 37.796875 0 
L 37.796875 17.1875 
L 4.890625 17.1875 
L 4.890625 26.703125 
z
" id="DejaVuSans-52"/>
      </defs>
      <g transform="translate(20.878125 182.569072)scale(0.1 -0.1)">
       <use xlink:href="#DejaVuSans-48"/>
       <use x="63.623047" xlink:href="#DejaVuSans-46"/>
       <use x="95.410156" xlink:href="#DejaVuSans-52"/>
      </g>
     </g>
    </g>
    <g id="ytick_4">
     <g id="line2d_9">
      <g>
       <use style="stroke:#000000;stroke-width:0.8;" x="43.78125" xlink:href="#m255d233ccf" y="130.651277"/>
      </g>
     </g>
     <g id="text_10">
      <!-- 0.6 -->
      <defs>
       <path d="M 33.015625 40.375 
Q 26.375 40.375 22.484375 35.828125 
Q 18.609375 31.296875 18.609375 23.390625 
Q 18.609375 15.53125 22.484375 10.953125 
Q 26.375 6.390625 33.015625 6.390625 
Q 39.65625 6.390625 43.53125 10.953125 
Q 47.40625 15.53125 47.40625 23.390625 
Q 47.40625 31.296875 43.53125 35.828125 
Q 39.65625 40.375 33.015625 40.375 
z
M 52.59375 71.296875 
L 52.59375 62.3125 
Q 48.875 64.0625 45.09375 64.984375 
Q 41.3125 65.921875 37.59375 65.921875 
Q 27.828125 65.921875 22.671875 59.328125 
Q 17.53125 52.734375 16.796875 39.40625 
Q 19.671875 43.65625 24.015625 45.921875 
Q 28.375 48.1875 33.59375 48.1875 
Q 44.578125 48.1875 50.953125 41.515625 
Q 57.328125 34.859375 57.328125 23.390625 
Q 57.328125 12.15625 50.6875 5.359375 
Q 44.046875 -1.421875 33.015625 -1.421875 
Q 20.359375 -1.421875 13.671875 8.265625 
Q 6.984375 17.96875 6.984375 36.375 
Q 6.984375 53.65625 15.1875 63.9375 
Q 23.390625 74.21875 37.203125 74.21875 
Q 40.921875 74.21875 44.703125 73.484375 
Q 48.484375 72.75 52.59375 71.296875 
z
" id="DejaVuSans-54"/>
      </defs>
      <g transform="translate(20.878125 134.450496)scale(0.1 -0.1)">
       <use xlink:href="#DejaVuSans-48"/>
       <use x="63.623047" xlink:href="#DejaVuSans-46"/>
       <use x="95.410156" xlink:href="#DejaVuSans-54"/>
      </g>
     </g>
    </g>
    <g id="ytick_5">
     <g id="line2d_10">
      <g>
       <use style="stroke:#000000;stroke-width:0.8;" x="43.78125" xlink:href="#m255d233ccf" y="82.532701"/>
      </g>
     </g>
     <g id="text_11">
      <!-- 0.8 -->
      <defs>
       <path d="M 31.78125 34.625 
Q 24.75 34.625 20.71875 30.859375 
Q 16.703125 27.09375 16.703125 20.515625 
Q 16.703125 13.921875 20.71875 10.15625 
Q 24.75 6.390625 31.78125 6.390625 
Q 38.8125 6.390625 42.859375 10.171875 
Q 46.921875 13.96875 46.921875 20.515625 
Q 46.921875 27.09375 42.890625 30.859375 
Q 38.875 34.625 31.78125 34.625 
z
M 21.921875 38.8125 
Q 15.578125 40.375 12.03125 44.71875 
Q 8.5 49.078125 8.5 55.328125 
Q 8.5 64.0625 14.71875 69.140625 
Q 20.953125 74.21875 31.78125 74.21875 
Q 42.671875 74.21875 48.875 69.140625 
Q 55.078125 64.0625 55.078125 55.328125 
Q 55.078125 49.078125 51.53125 44.71875 
Q 48 40.375 41.703125 38.8125 
Q 48.828125 37.15625 52.796875 32.3125 
Q 56.78125 27.484375 56.78125 20.515625 
Q 56.78125 9.90625 50.3125 4.234375 
Q 43.84375 -1.421875 31.78125 -1.421875 
Q 19.734375 -1.421875 13.25 4.234375 
Q 6.78125 9.90625 6.78125 20.515625 
Q 6.78125 27.484375 10.78125 32.3125 
Q 14.796875 37.15625 21.921875 38.8125 
z
M 18.3125 54.390625 
Q 18.3125 48.734375 21.84375 45.5625 
Q 25.390625 42.390625 31.78125 42.390625 
Q 38.140625 42.390625 41.71875 45.5625 
Q 45.3125 48.734375 45.3125 54.390625 
Q 45.3125 60.0625 41.71875 63.234375 
Q 38.140625 66.40625 31.78125 66.40625 
Q 25.390625 66.40625 21.84375 63.234375 
Q 18.3125 60.0625 18.3125 54.390625 
z
" id="DejaVuSans-56"/>
      </defs>
      <g transform="translate(20.878125 86.33192)scale(0.1 -0.1)">
       <use xlink:href="#DejaVuSans-48"/>
       <use x="63.623047" xlink:href="#DejaVuSans-46"/>
       <use x="95.410156" xlink:href="#DejaVuSans-56"/>
      </g>
     </g>
    </g>
    <g id="ytick_6">
     <g id="line2d_11">
      <g>
       <use style="stroke:#000000;stroke-width:0.8;" x="43.78125" xlink:href="#m255d233ccf" y="34.414125"/>
      </g>
     </g>
     <g id="text_12">
      <!-- 1.0 -->
      <g transform="translate(20.878125 38.213344)scale(0.1 -0.1)">
       <use xlink:href="#DejaVuSans-49"/>
       <use x="63.623047" xlink:href="#DejaVuSans-46"/>
       <use x="95.410156" xlink:href="#DejaVuSans-48"/>
      </g>
     </g>
    </g>
    <g id="text_13">
     <!-- Loss -->
     <defs>
      <path d="M 9.8125 72.90625 
L 19.671875 72.90625 
L 19.671875 8.296875 
L 55.171875 8.296875 
L 55.171875 0 
L 9.8125 0 
z
" id="DejaVuSans-76"/>
      <path d="M 44.28125 53.078125 
L 44.28125 44.578125 
Q 40.484375 46.53125 36.375 47.5 
Q 32.28125 48.484375 27.875 48.484375 
Q 21.1875 48.484375 17.84375 46.4375 
Q 14.5 44.390625 14.5 40.28125 
Q 14.5 37.15625 16.890625 35.375 
Q 19.28125 33.59375 26.515625 31.984375 
L 29.59375 31.296875 
Q 39.15625 29.25 43.1875 25.515625 
Q 47.21875 21.78125 47.21875 15.09375 
Q 47.21875 7.46875 41.1875 3.015625 
Q 35.15625 -1.421875 24.609375 -1.421875 
Q 20.21875 -1.421875 15.453125 -0.5625 
Q 10.6875 0.296875 5.421875 2 
L 5.421875 11.28125 
Q 10.40625 8.6875 15.234375 7.390625 
Q 20.0625 6.109375 24.8125 6.109375 
Q 31.15625 6.109375 34.5625 8.28125 
Q 37.984375 10.453125 37.984375 14.40625 
Q 37.984375 18.0625 35.515625 20.015625 
Q 33.0625 21.96875 24.703125 23.78125 
L 21.578125 24.515625 
Q 13.234375 26.265625 9.515625 29.90625 
Q 5.8125 33.546875 5.8125 39.890625 
Q 5.8125 47.609375 11.28125 51.796875 
Q 16.75 56 26.8125 56 
Q 31.78125 56 36.171875 55.265625 
Q 40.578125 54.546875 44.28125 53.078125 
z
" id="DejaVuSans-115"/>
     </defs>
     <g transform="translate(14.798438 166.428031)rotate(-90)scale(0.1 -0.1)">
      <use xlink:href="#DejaVuSans-76"/>
      <use x="55.697266" xlink:href="#DejaVuSans-111"/>
      <use x="116.878906" xlink:href="#DejaVuSans-115"/>
      <use x="168.978516" xlink:href="#DejaVuSans-115"/>
     </g>
    </g>
   </g>
   <g id="line2d_12">
    <path clip-path="url(#p6fc77b1699)" d="M 60.013977 155.304942 
L 62.765287 155.304942 
L 64.140942 172.689703 
L 66.892252 172.689703 
L 68.267906 130.166669 
L 71.019216 130.166669 
L 72.394871 91.789276 
L 75.146181 91.789276 
L 76.521836 77.350848 
L 79.273145 77.350848 
L 80.6488 176.614024 
L 83.40011 176.614024 
L 84.775765 142.57615 
L 87.527074 142.57615 
L 88.902729 99.254081 
L 91.654039 99.254081 
L 93.029694 151.419668 
L 95.781003 151.419668 
L 97.156658 37.272111 
L 99.907968 37.272111 
L 101.283623 211.013877 
L 104.034933 211.013877 
L 105.410587 110.430332 
L 108.161897 110.430332 
L 109.537552 183.473069 
L 112.288862 183.473069 
L 113.664517 109.130315 
L 116.415826 109.130315 
L 117.791481 124.486429 
L 120.542791 124.486429 
L 121.918446 170.649447 
L 124.669755 170.649447 
L 126.04541 75.627342 
L 128.79672 75.627342 
L 130.172375 67.439033 
L 132.923685 67.439033 
L 134.299339 82.037118 
L 137.050649 82.037118 
L 138.426304 158.770648 
L 141.177614 158.770648 
L 142.553268 82.046465 
L 145.304578 82.046465 
L 146.680233 75.350846 
L 149.431543 75.350846 
L 150.807198 88.058532 
L 153.558507 88.058532 
L 154.934162 184.256124 
L 157.685472 184.256124 
L 159.061127 197.154524 
L 161.812436 197.154524 
L 163.188091 175.716993 
L 165.939401 175.716993 
L 167.315056 52.487413 
L 170.066366 52.487413 
L 171.44202 202.276043 
L 174.19333 202.276043 
L 175.568985 84.079032 
L 178.320295 84.079032 
L 179.69595 161.55868 
L 182.447259 161.55868 
L 183.822914 115.663565 
L 186.574224 115.663565 
L 187.949879 174.05319 
L 190.701188 174.05319 
L 192.076843 151.816472 
L 194.828153 151.816472 
L 196.203808 81.15848 
L 198.955117 81.15848 
L 200.330772 215.634416 
L 203.082082 215.634416 
L 204.457737 149.614601 
L 207.209047 149.614601 
L 208.584701 85.348142 
L 211.336011 85.348142 
L 212.711666 111.040011 
L 215.462976 111.040011 
L 216.838631 94.240959 
L 219.58994 94.240959 
L 220.965595 275.007006 
L 223.716905 275.007006 
L 225.09256 210.696374 
L 227.843869 210.696374 
L 229.219524 225.638647 
L 231.970834 225.638647 
L 233.346489 151.605406 
L 236.097799 151.605406 
L 237.473453 147.416046 
L 240.224763 147.416046 
L 241.600418 124.027812 
L 244.351728 124.027812 
L 245.727383 132.306729 
L 248.478692 132.306729 
L 249.854347 181.144407 
L 252.605657 181.144407 
L 253.981312 148.677166 
L 256.732621 148.677166 
L 258.108276 146.018487 
L 260.859586 146.018487 
L 262.235241 203.318257 
L 264.98655 203.318257 
L 266.362205 34.414125 
L 269.113515 34.414125 
L 270.48917 83.342562 
L 273.24048 83.342562 
L 274.616134 133.942039 
L 277.367444 133.942039 
L 278.743099 152.468365 
L 281.494409 152.468365 
L 282.870064 164.738843 
L 285.621373 164.738843 
L 286.997028 97.753401 
L 289.748338 97.753401 
L 291.123993 136.887014 
L 293.875302 136.887014 
L 295.250957 142.390261 
L 298.002267 142.390261 
L 299.377922 245.379055 
L 302.129232 245.379055 
L 303.504886 157.62878 
L 306.256196 157.62878 
L 307.631851 89.564036 
L 310.383161 89.564036 
L 311.758815 132.240695 
L 314.510125 132.240695 
L 315.88578 231.178679 
L 318.63709 231.178679 
L 320.012745 192.691531 
L 322.764054 192.691531 
L 324.139709 157.081667 
L 326.891019 157.081667 
L 328.266674 159.315047 
L 331.017983 159.315047 
L 332.393638 46.059094 
L 335.144948 46.059094 
L 336.520603 126.003692 
L 339.271913 126.003692 
L 340.647567 139.779222 
L 343.398877 139.779222 
L 344.774532 145.701737 
L 347.525842 145.701737 
L 348.901497 165.050618 
L 351.652806 165.050618 
L 353.028461 149.521732 
L 355.779771 149.521732 
L 357.155426 204.374944 
L 359.906735 204.374944 
L 361.28239 210.882564 
L 364.0337 210.882564 
L 365.409355 166.118461 
L 368.160664 166.118461 
L 369.536319 165.259573 
L 372.287629 165.259573 
L 373.663284 191.160699 
L 376.414594 191.160699 
L 377.790248 163.459782 
L 380.541558 163.459782 
L 381.917213 246.517455 
L 384.668523 246.517455 
L 384.668523 246.517455 
" style="fill:none;stroke:#1f77b4;stroke-linecap:square;stroke-opacity:0.3;stroke-width:1.5;"/>
   </g>
   <g id="line2d_13">
    <path clip-path="url(#p6fc77b1699)" d="M 60.013977 148.757112 
L 61.389632 161.098112 
L 62.765287 167.447801 
L 64.140942 168.507833 
L 65.516597 164.979861 
L 66.892252 157.565537 
L 68.267906 146.590652 
L 69.643561 133.668207 
L 71.019216 117.552619 
L 72.394871 103.748674 
L 73.770526 84.690086 
L 75.146181 81.341204 
L 76.521836 84.590515 
L 77.89749 99.780021 
L 79.273145 119.400302 
L 80.6488 135.021433 
L 82.024455 152.315471 
L 83.40011 161.91888 
L 84.775765 160.594959 
L 86.151419 144.667228 
L 87.527074 123.474567 
L 88.902729 116.346258 
L 90.278384 125.118619 
L 91.654039 128.826596 
L 93.029694 123.498096 
L 94.405349 99.864357 
L 95.781003 93.184406 
L 97.156658 92.673429 
L 98.532313 107.802299 
L 99.907968 116.974592 
L 101.283623 130.995218 
L 102.659278 140.312648 
L 104.034933 159.673629 
L 105.410587 164.117877 
L 106.786242 166.054814 
L 108.161897 148.039749 
L 109.537552 145.251978 
L 110.913207 144.198057 
L 112.288862 150.1523 
L 113.664517 143.79576 
L 116.415826 115.256107 
L 117.791481 115.551645 
L 120.542791 148.151361 
L 121.918446 149.557434 
L 123.294101 144.322358 
L 124.669755 131.681044 
L 126.04541 115.862676 
L 128.79672 75.229242 
L 130.172375 65.281884 
L 131.54803 57.593875 
L 132.923685 68.718917 
L 134.299339 78.777704 
L 135.674994 100.244437 
L 137.050649 116.69466 
L 138.426304 126.24183 
L 139.801959 129.794447 
L 141.177614 125.747805 
L 142.553268 117.014043 
L 143.928923 101.457623 
L 145.304578 81.633757 
L 146.680233 73.678895 
L 148.055888 64.729634 
L 149.431543 74.597459 
L 150.807198 86.413475 
L 152.182852 103.151183 
L 154.934162 147.446776 
L 156.309817 170.422785 
L 157.685472 186.904568 
L 159.061127 197.248158 
L 160.436782 208.6848 
L 161.812436 195.904048 
L 163.188091 180.140616 
L 164.563746 143.823836 
L 165.939401 118.307008 
L 167.315056 105.906112 
L 170.066366 124.166409 
L 171.44202 130.479737 
L 172.817675 131.711247 
L 174.19333 144.626045 
L 175.568985 143.414554 
L 176.94464 139.726602 
L 178.320295 122.354224 
L 179.69595 121.598129 
L 181.071604 122.007751 
L 182.447259 136.626644 
L 183.822914 141.04059 
L 185.198569 144.936937 
L 186.574224 142.019846 
L 187.949879 147.145431 
L 189.325534 159.968337 
L 190.701188 167.374635 
L 192.076843 161.503129 
L 193.452498 135.724778 
L 194.828153 116.234456 
L 196.203808 113.08752 
L 197.579463 125.955005 
L 198.955117 141.402373 
L 200.330772 155.282407 
L 201.706427 174.905442 
L 203.082082 188.188576 
L 204.457737 181.69313 
L 205.833392 159.094822 
L 207.209047 125.146905 
L 208.584701 107.678036 
L 209.960356 99.251332 
L 211.336011 99.133042 
L 212.711666 96.148645 
L 214.087321 81.959849 
L 215.462976 91.988067 
L 216.838631 109.67812 
L 219.58994 170.586411 
L 220.965595 199.76905 
L 222.34125 223.213807 
L 223.716905 241.41896 
L 225.09256 248.149775 
L 226.468215 247.965661 
L 227.843869 223.825429 
L 229.219524 212.736226 
L 230.595179 202.756922 
L 231.970834 195.973013 
L 233.346489 181.716999 
L 234.722144 168.823289 
L 236.097799 154.350992 
L 237.473453 143.489924 
L 238.849108 136.660007 
L 240.224763 137.792942 
L 241.600418 133.36028 
L 242.976073 125.926184 
L 244.351728 125.161608 
L 245.727383 129.489345 
L 248.478692 153.374979 
L 249.854347 161.025951 
L 251.230002 165.763359 
L 252.605657 166.510637 
L 253.981312 164.511317 
L 255.356966 153.942669 
L 256.732621 145.303911 
L 258.108276 147.29927 
L 259.483931 169.487379 
L 260.859586 179.460375 
L 262.235241 173.751554 
L 263.610896 153.643031 
L 266.362205 106.891001 
L 267.73786 78.644455 
L 269.113515 57.311604 
L 270.48917 55.328448 
L 271.864825 67.949119 
L 273.24048 100.288755 
L 274.616134 117.70452 
L 275.991789 130.588648 
L 277.367444 138.506098 
L 278.743099 148.797756 
L 280.118754 161.081545 
L 281.494409 160.812516 
L 282.870064 158.387974 
L 285.621373 135.245298 
L 286.997028 126.620765 
L 288.372683 119.594564 
L 289.748338 115.56897 
L 291.123993 117.381732 
L 292.499648 115.88169 
L 295.250957 146.753583 
L 296.626612 172.580417 
L 298.002267 188.506338 
L 299.377922 201.436719 
L 300.753577 213.315856 
L 302.129232 210.808873 
L 303.504886 196.186224 
L 304.880541 166.636222 
L 306.256196 131.448077 
L 307.631851 112.704484 
L 309.007506 96.097797 
L 310.383161 102.945871 
L 311.758815 114.966023 
L 313.13447 141.037153 
L 314.510125 172.178008 
L 315.88578 193.133297 
L 317.261435 210.199084 
L 318.63709 214.247923 
L 320.012745 212.758601 
L 321.388399 201.383401 
L 322.764054 179.964966 
L 324.139709 168.859036 
L 325.515364 170.942264 
L 326.891019 166.5058 
L 328.266674 151.700846 
L 329.642329 126.466461 
L 331.017983 109.315085 
L 332.393638 94.247605 
L 333.769293 83.820702 
L 335.144948 81.359778 
L 336.520603 87.741901 
L 337.896258 102.73804 
L 339.271913 127.921814 
L 340.647567 139.586558 
L 342.023222 143.289913 
L 343.398877 140.362494 
L 344.774532 144.98855 
L 346.150187 150.852381 
L 348.901497 157.140611 
L 350.277151 153.952732 
L 351.652806 154.677941 
L 353.028461 159.066802 
L 354.404116 164.708552 
L 355.779771 171.464229 
L 357.155426 181.918775 
L 358.531081 197.136592 
L 359.906735 207.597372 
L 361.28239 209.982218 
L 362.658045 205.279458 
L 364.0337 192.940054 
L 365.409355 184.232685 
L 366.78501 173.292546 
L 368.160664 165.921837 
L 369.536319 163.808989 
L 370.911974 169.192176 
L 372.287629 177.300872 
L 373.663284 179.745089 
L 375.038939 173.373352 
L 376.414594 173.929855 
L 377.790248 179.358306 
L 379.165903 182.489793 
L 380.541558 190.596505 
L 381.917213 205.726548 
L 383.292868 229.928027 
L 384.668523 265.249048 
L 384.668523 265.249048 
" style="fill:none;stroke:#1f77b4;stroke-linecap:square;stroke-width:1.5;"/>
   </g>
   <g id="line2d_14">
    <path clip-path="url(#p6fc77b1699)" d="M 60.013977 169.205753 
L 62.765287 176.242895 
L 64.140942 208.80984 
L 66.892252 212.249337 
L 68.267906 154.459716 
L 69.643561 156.459209 
L 71.019216 158.218852 
L 72.394871 169.494414 
L 75.146181 175.322929 
L 76.521836 162.693501 
L 79.273145 168.436944 
L 80.6488 170.77294 
L 83.40011 172.434292 
L 84.775765 198.84809 
L 87.527074 199.130596 
L 88.902729 210.561375 
L 91.654039 212.342264 
L 93.029694 79.91422 
L 94.405349 81.378957 
L 95.781003 82.582188 
L 97.156658 191.594862 
L 99.907968 193.236726 
L 101.283623 238.106538 
L 104.034933 238.032942 
L 105.410587 131.632585 
L 108.161897 132.475869 
L 109.537552 231.733303 
L 112.288862 232.166429 
L 113.664517 212.705251 
L 116.415826 213.668968 
L 117.791481 34.414125 
L 120.542791 37.352482 
L 121.918446 182.326492 
L 124.669755 182.664456 
L 126.04541 152.520911 
L 128.79672 156.245173 
L 130.172375 153.618533 
L 132.923685 153.890323 
L 134.299339 193.398718 
L 137.050649 193.797386 
L 138.426304 237.078704 
L 141.177614 237.126792 
L 142.553268 121.415238 
L 145.304578 122.070151 
L 146.680233 206.070682 
L 149.431543 206.036925 
L 150.807198 203.602353 
L 153.558507 203.73409 
L 154.934162 258.447544 
L 157.685472 258.528152 
L 159.061127 236.611158 
L 161.812436 237.140593 
L 163.188091 210.058998 
L 165.939401 210.422745 
L 167.315056 89.754211 
L 170.066366 91.481289 
L 171.44202 265.236884 
L 174.19333 265.613829 
L 175.568985 221.984449 
L 178.320295 222.51893 
L 179.69595 251.416886 
L 182.447259 252.442304 
L 183.822914 199.470422 
L 185.198569 202.157162 
L 186.574224 204.372228 
L 187.949879 228.485598 
L 190.701188 228.872774 
L 192.076843 213.628801 
L 194.828153 214.017021 
L 196.203808 206.776417 
L 198.955117 207.131677 
L 200.330772 242.416281 
L 203.082082 242.733655 
L 204.457737 203.337896 
L 207.209047 203.942433 
L 208.584701 47.266487 
L 211.336011 48.346224 
L 212.711666 205.841332 
L 214.087321 206.447337 
L 215.462976 206.931285 
L 216.838631 218.659422 
L 219.58994 220.120314 
L 220.965595 252.463349 
L 223.716905 252.868586 
L 225.09256 240.425275 
L 227.843869 241.352916 
L 229.219524 243.86165 
L 231.970834 244.076693 
L 233.346489 236.523485 
L 236.097799 236.945775 
L 237.473453 231.446684 
L 240.224763 231.794275 
L 241.600418 186.159903 
L 244.351728 186.933541 
L 245.727383 238.663702 
L 248.478692 239.106948 
L 249.854347 258.163451 
L 252.605657 258.379231 
L 253.981312 107.307272 
L 255.356966 110.549015 
L 256.732621 114.180112 
L 258.108276 73.910135 
L 260.859586 74.633904 
L 262.235241 212.661292 
L 264.98655 212.894346 
L 266.362205 160.406539 
L 269.113515 162.871232 
L 270.48917 208.4616 
L 271.864825 208.810861 
L 273.24048 209.030896 
L 274.616134 239.683569 
L 277.367444 239.954778 
L 278.743099 212.275747 
L 281.494409 212.571264 
L 282.870064 243.849966 
L 285.621373 244.48791 
L 286.997028 203.559236 
L 289.748338 204.070227 
L 291.123993 246.998328 
L 293.875302 247.209511 
L 295.250957 91.605797 
L 298.002267 94.662105 
L 299.377922 249.457976 
L 302.129232 250.612024 
L 303.504886 220.466006 
L 306.256196 220.82593 
L 307.631851 227.990322 
L 310.383161 228.874667 
L 311.758815 214.771299 
L 314.510125 214.809617 
L 315.88578 246.791784 
L 318.63709 247.231718 
L 320.012745 252.609882 
L 322.764054 253.385379 
L 324.139709 251.822275 
L 326.891019 252.162079 
L 328.266674 209.188752 
L 331.017983 209.322173 
L 332.393638 181.66216 
L 335.144948 183.989222 
L 336.520603 221.530726 
L 339.271913 221.75378 
L 340.647567 213.895457 
L 343.398877 214.440541 
L 344.774532 229.272858 
L 347.525842 229.489115 
L 348.901497 178.76695 
L 351.652806 183.440873 
L 354.404116 184.022368 
L 355.779771 184.354243 
L 357.155426 265.523529 
L 359.906735 266.107122 
L 361.28239 144.124762 
L 362.658045 144.615074 
L 364.0337 144.82683 
L 365.409355 247.93714 
L 368.160664 248.032958 
L 369.536319 170.379772 
L 372.287629 170.452102 
L 373.663284 249.401251 
L 376.414594 250.20893 
L 377.790248 268.490767 
L 380.541558 268.773925 
L 381.917213 274.84011 
L 384.668523 275.007006 
L 384.668523 275.007006 
" style="fill:none;stroke:#ff7f0e;stroke-linecap:square;stroke-opacity:0.3;stroke-width:1.5;"/>
   </g>
   <g id="line2d_15">
    <path clip-path="url(#p6fc77b1699)" d="M 60.013977 157.195224 
L 61.389632 184.198388 
L 62.765287 197.772588 
L 64.140942 200.83425 
L 65.516597 196.299796 
L 66.892252 187.085651 
L 69.643561 173.981465 
L 71.019216 165.38029 
L 72.394871 161.908706 
L 73.770526 162.56147 
L 75.146181 168.885599 
L 76.521836 169.546973 
L 77.89749 167.354167 
L 79.273145 167.114639 
L 80.6488 170.143501 
L 82.024455 174.486568 
L 84.775765 188.977908 
L 86.151419 207.293553 
L 87.527074 211.071977 
L 88.902729 202.810655 
L 90.278384 175.658518 
L 91.654039 152.30321 
L 93.029694 137.921392 
L 94.405349 126.867317 
L 95.781003 127.762787 
L 97.156658 142.116329 
L 99.907968 213.061427 
L 101.283623 222.797255 
L 102.659278 208.582166 
L 104.034933 188.080088 
L 105.410587 180.860137 
L 106.786242 178.683036 
L 108.161897 177.010773 
L 109.537552 184.889689 
L 110.913207 214.266287 
L 112.288862 231.72511 
L 113.664517 219.614629 
L 116.415826 134.370689 
L 117.791481 110.731495 
L 119.167136 101.79614 
L 120.542791 102.896204 
L 121.918446 111.928024 
L 123.294101 132.565744 
L 124.669755 165.692387 
L 126.04541 174.653273 
L 127.421065 168.744133 
L 128.79672 152.83159 
L 130.172375 153.936206 
L 131.54803 156.07303 
L 132.923685 167.163658 
L 134.299339 179.534842 
L 135.674994 203.847858 
L 137.050649 216.546306 
L 138.426304 217.761913 
L 141.177614 184.363642 
L 142.553268 173.52991 
L 143.928923 165.620846 
L 145.304578 159.902158 
L 146.680233 165.318468 
L 148.055888 174.441227 
L 149.431543 198.379603 
L 150.807198 212.093964 
L 152.182852 224.016529 
L 153.558507 226.839166 
L 156.309817 245.189624 
L 157.685472 249.414606 
L 159.061127 247.791968 
L 160.436782 250.551097 
L 161.812436 234.690659 
L 163.188091 214.544269 
L 164.563746 175.034944 
L 165.939401 152.848971 
L 167.315056 143.205826 
L 168.690711 151.01812 
L 170.066366 167.390169 
L 171.44202 186.940214 
L 172.817675 209.312445 
L 174.19333 239.660825 
L 175.568985 251.478794 
L 176.94464 255.819185 
L 178.320295 238.807851 
L 179.69595 235.029317 
L 181.071604 229.814325 
L 182.447259 229.136212 
L 183.822914 224.619958 
L 185.198569 221.140897 
L 186.574224 215.680791 
L 187.949879 214.574027 
L 189.325534 217.033288 
L 190.701188 222.618893 
L 192.076843 221.131794 
L 193.452498 214.489429 
L 194.828153 209.465556 
L 196.203808 210.130464 
L 197.579463 217.505917 
L 198.955117 223.818495 
L 200.330772 226.446675 
L 201.706427 240.147518 
L 203.082082 235.550499 
L 204.457737 215.047085 
L 205.833392 169.869025 
L 207.209047 133.427606 
L 208.584701 113.294766 
L 209.960356 106.497701 
L 211.336011 116.029926 
L 212.711666 134.160843 
L 214.087321 161.310977 
L 215.462976 203.224801 
L 216.838631 225.534858 
L 218.214285 237.796659 
L 219.58994 232.908198 
L 220.965595 239.810867 
L 222.34125 244.471362 
L 223.716905 246.592294 
L 225.09256 247.771902 
L 226.468215 247.243148 
L 227.843869 243.080269 
L 229.219524 241.728346 
L 230.595179 241.380877 
L 231.970834 241.37513 
L 233.346489 239.573028 
L 234.722144 241.190109 
L 236.097799 237.841699 
L 237.473453 231.35114 
L 238.849108 218.598656 
L 240.224763 210.674692 
L 241.600418 206.120399 
L 242.976073 204.004982 
L 244.351728 207.883711 
L 245.727383 216.087884 
L 247.103037 241.190935 
L 248.478692 253.79513 
L 249.854347 247.41508 
L 251.230002 231.790283 
L 253.981312 168.726178 
L 255.356966 122.927949 
L 256.732621 93.530412 
L 258.108276 85.188489 
L 259.483931 101.806571 
L 260.859586 134.439901 
L 262.235241 153.464983 
L 263.610896 167.372405 
L 264.98655 184.019398 
L 266.362205 192.408912 
L 267.73786 190.328602 
L 269.113515 180.450005 
L 270.48917 188.194232 
L 271.864825 203.717299 
L 273.24048 221.159441 
L 274.616134 229.410747 
L 275.991789 229.340169 
L 277.367444 225.774043 
L 278.743099 226.445373 
L 280.118754 230.254044 
L 281.494409 228.63696 
L 282.870064 228.230769 
L 284.245718 223.77758 
L 285.621373 224.2204 
L 286.997028 223.527069 
L 288.372683 236.317845 
L 289.748338 232.288019 
L 291.123993 221.046365 
L 292.499648 190.854387 
L 293.875302 174.39764 
L 295.250957 162.933103 
L 296.626612 161.490944 
L 298.002267 163.308703 
L 299.377922 177.102896 
L 300.753577 199.345977 
L 302.129232 231.97424 
L 303.504886 242.476206 
L 304.880541 242.308331 
L 306.256196 225.831639 
L 307.631851 222.960472 
L 309.007506 218.96569 
L 310.383161 220.742831 
L 311.758815 221.976097 
L 313.13447 224.193716 
L 314.510125 227.7869 
L 315.88578 233.556642 
L 318.63709 248.146326 
L 320.012745 252.58929 
L 321.388399 257.904585 
L 322.764054 255.100197 
L 324.139709 251.099886 
L 325.515364 246.481197 
L 326.891019 236.820873 
L 328.266674 224.894319 
L 329.642329 209.027264 
L 331.017983 197.958614 
L 332.393638 192.079096 
L 333.769293 192.949565 
L 335.144948 199.77694 
L 337.896258 208.996193 
L 339.271913 216.375873 
L 340.647567 220.17804 
L 342.023222 226.126585 
L 343.398877 223.513451 
L 344.774532 220.56129 
L 346.150187 215.515854 
L 347.525842 209.295999 
L 348.901497 201.150974 
L 350.277151 185.744251 
L 351.652806 179.108545 
L 353.028461 183.206997 
L 354.404116 206.265233 
L 355.779771 224.357791 
L 357.155426 228.784218 
L 358.531081 216.472493 
L 359.906735 208.042247 
L 361.28239 201.844969 
L 362.658045 202.96144 
L 364.0337 195.275406 
L 365.409355 196.308478 
L 366.78501 194.908467 
L 368.160664 208.207751 
L 369.536319 210.739033 
L 370.911974 208.921047 
L 372.287629 203.735353 
L 373.663284 214.170753 
L 375.038939 230.617477 
L 376.414594 253.735914 
L 377.790248 266.435109 
L 379.165903 270.185849 
L 380.541558 271.586474 
L 381.917213 272.101629 
L 383.292868 273.195964 
L 384.668523 276.334125 
L 384.668523 276.334125 
" style="fill:none;stroke:#ff7f0e;stroke-linecap:square;stroke-width:1.5;"/>
   </g>
   <g id="line2d_16">
    <path clip-path="url(#p6fc77b1699)" d="M 60.013977 163.683397 
L 61.389632 159.895046 
L 62.765287 149.67699 
L 64.140942 135.322502 
L 66.892252 103.377327 
L 69.643561 83.838806 
L 71.019216 87.109947 
L 72.394871 94.288509 
L 73.770526 110.704045 
L 75.146181 128.942588 
L 76.521836 140.152236 
L 77.89749 154.266975 
L 79.273145 152.826137 
L 80.6488 142.333479 
L 83.40011 90.013121 
L 84.775765 73.910057 
L 86.151419 60.786379 
L 87.527074 62.196223 
L 88.902729 71.17633 
L 91.654039 122.652722 
L 93.029694 132.769576 
L 94.405349 130.766671 
L 95.781003 120.697475 
L 97.156658 114.097477 
L 98.532313 109.138167 
L 99.907968 97.528532 
L 101.283623 91.384294 
L 102.659278 82.477597 
L 104.034933 85.866342 
L 105.410587 86.813584 
L 106.786242 89.770735 
L 108.161897 94.204829 
L 109.537552 104.500242 
L 110.913207 111.563439 
L 112.288862 128.512827 
L 113.664517 143.862309 
L 115.040171 163.860683 
L 117.791481 179.646198 
L 119.167136 187.66011 
L 120.542791 183.68437 
L 121.918446 169.847089 
L 124.669755 112.421594 
L 126.04541 100.1608 
L 127.421065 101.385074 
L 128.79672 112.198109 
L 130.172375 119.242652 
L 131.54803 128.406446 
L 132.923685 140.927792 
L 134.299339 143.771329 
L 135.674994 146.98204 
L 137.050649 135.456271 
L 138.426304 126.202981 
L 139.801959 110.505023 
L 142.553268 91.136054 
L 143.928923 83.474447 
L 145.304578 81.948749 
L 146.680233 87.510057 
L 148.055888 97.669815 
L 149.431543 116.984022 
L 150.807198 129.361421 
L 152.182852 143.863019 
L 153.558507 146.457701 
L 154.934162 147.357564 
L 157.685472 129.002111 
L 159.061127 124.205155 
L 160.436782 128.279114 
L 161.812436 125.232492 
L 163.188091 121.741791 
L 164.563746 116.036754 
L 165.939401 114.343942 
L 167.315056 105.06263 
L 168.690711 89.356183 
L 170.066366 76.801809 
L 171.44202 77.99003 
L 172.817675 84.06907 
L 174.19333 105.432203 
L 175.568985 123.553271 
L 176.94464 155.240599 
L 178.320295 168.762589 
L 179.69595 169.385898 
L 181.071604 152.579677 
L 182.447259 128.112057 
L 183.822914 106.659163 
L 185.198569 82.730969 
L 186.574224 63.268351 
L 187.949879 60.200288 
L 189.325534 70.55937 
L 190.701188 96.68734 
L 192.076843 107.941613 
L 193.452498 115.51186 
L 194.828153 117.053189 
L 196.203808 120.484938 
L 197.579463 110.538004 
L 198.955117 110.631545 
L 200.330772 123.48295 
L 201.706427 153.787678 
L 203.082082 175.578162 
L 204.457737 189.330397 
L 205.833392 194.317701 
L 207.209047 191.363735 
L 208.584701 179.708478 
L 209.960356 157.94727 
L 211.336011 128.925609 
L 214.087321 109.180316 
L 216.838631 143.403431 
L 218.214285 173.220747 
L 219.58994 199.650789 
L 222.34125 243.367334 
L 223.716905 248.577873 
L 225.09256 240.663844 
L 226.468215 216.320841 
L 227.843869 180.650846 
L 229.219524 160.986515 
L 230.595179 150.250591 
L 231.970834 148.417753 
L 233.346489 144.59214 
L 234.722144 139.640959 
L 236.097799 148.815461 
L 237.473453 155.966685 
L 238.849108 172.713127 
L 240.224763 180.703801 
L 241.600418 185.462035 
L 242.976073 178.639899 
L 245.727383 174.127086 
L 247.103037 171.867632 
L 248.478692 167.73429 
L 249.854347 175.641131 
L 251.230002 201.919394 
L 252.605657 219.03331 
L 253.981312 212.140126 
L 255.356966 175.2141 
L 256.732621 143.207545 
L 258.108276 130.83217 
L 259.483931 148.04527 
L 260.859586 154.829837 
L 262.235241 155.136212 
L 263.610896 147.438784 
L 264.98655 148.852656 
L 266.362205 130.825874 
L 267.73786 101.260393 
L 269.113515 67.233565 
L 270.48917 64.430373 
L 271.864825 76.166998 
L 273.24048 113.962554 
L 274.616134 134.759514 
L 275.991789 157.564785 
L 277.367444 166.846768 
L 278.743099 174.907063 
L 280.118754 176.431135 
L 281.494409 168.250526 
L 282.870064 158.937651 
L 284.245718 145.647442 
L 285.621373 128.867697 
L 288.372683 111.084623 
L 291.123993 119.1949 
L 292.499648 125.059955 
L 293.875302 137.186806 
L 295.250957 151.175483 
L 296.626612 171.403138 
L 298.002267 184.36265 
L 299.377922 189.436542 
L 302.129232 169.235916 
L 303.504886 167.453035 
L 304.880541 180.418668 
L 306.256196 180.640874 
L 307.631851 176.314425 
L 309.007506 163.811207 
L 310.383161 155.258025 
L 311.758815 139.327248 
L 313.13447 114.442128 
L 314.510125 96.682303 
L 315.88578 101.086541 
L 317.261435 126.87325 
L 318.63709 161.480449 
L 320.012745 176.954648 
L 321.388399 180.44542 
L 322.764054 177.349579 
L 324.139709 175.700496 
L 325.515364 181.253987 
L 328.266674 154.899447 
L 329.642329 131.518598 
L 331.017983 119.118779 
L 332.393638 105.018349 
L 333.769293 93.059672 
L 335.144948 87.488722 
L 336.520603 95.610147 
L 337.896258 117.109643 
L 339.271913 147.027899 
L 340.647567 158.334934 
L 342.023222 156.150886 
L 343.398877 147.315845 
L 344.774532 148.546567 
L 346.150187 150.111207 
L 347.525842 153.132811 
L 348.901497 161.115082 
L 350.277151 171.785217 
L 351.652806 183.808317 
L 353.028461 190.566089 
L 354.404116 194.173677 
L 355.779771 191.077779 
L 357.155426 190.262597 
L 359.906735 183.191306 
L 361.28239 181.739047 
L 362.658045 183.745901 
L 364.0337 184.203382 
L 365.409355 183.056032 
L 366.78501 177.672011 
L 368.160664 176.521031 
L 369.536319 176.655133 
L 370.911974 184.77848 
L 372.287629 185.914852 
L 373.663284 184.060808 
L 375.038939 170.920991 
L 376.414594 167.184494 
L 377.790248 166.214505 
L 379.165903 159.639391 
L 380.541558 161.159354 
L 381.917213 175.271449 
L 383.292868 206.472731 
L 384.668523 259.260254 
L 384.668523 259.260254 
" style="fill:none;stroke:#008000;stroke-linecap:square;stroke-width:1.5;"/>
   </g>
   <g id="patch_3">
    <path d="M 43.78125 288.430125 
L 43.78125 22.318125 
" style="fill:none;stroke:#000000;stroke-linecap:square;stroke-linejoin:miter;stroke-width:0.8;"/>
   </g>
   <g id="patch_4">
    <path d="M 400.90125 288.430125 
L 400.90125 22.318125 
" style="fill:none;stroke:#000000;stroke-linecap:square;stroke-linejoin:miter;stroke-width:0.8;"/>
   </g>
   <g id="patch_5">
    <path d="M 43.78125 288.430125 
L 400.90125 288.430125 
" style="fill:none;stroke:#000000;stroke-linecap:square;stroke-linejoin:miter;stroke-width:0.8;"/>
   </g>
   <g id="patch_6">
    <path d="M 43.78125 22.318125 
L 400.90125 22.318125 
" style="fill:none;stroke:#000000;stroke-linecap:square;stroke-linejoin:miter;stroke-width:0.8;"/>
   </g>
   <g id="text_14">
    <!-- Entropy and Loss. -->
    <defs>
     <path d="M 9.1875 72.90625 
L 59.90625 72.90625 
L 59.90625 58.6875 
L 27.984375 58.6875 
L 27.984375 45.125 
L 58.015625 45.125 
L 58.015625 30.90625 
L 27.984375 30.90625 
L 27.984375 14.203125 
L 60.984375 14.203125 
L 60.984375 0 
L 9.1875 0 
z
" id="DejaVuSans-Bold-69"/>
     <path d="M 63.375 33.296875 
L 63.375 0 
L 45.796875 0 
L 45.796875 5.421875 
L 45.796875 25.484375 
Q 45.796875 32.5625 45.484375 35.25 
Q 45.171875 37.9375 44.390625 39.203125 
Q 43.359375 40.921875 41.59375 41.875 
Q 39.84375 42.828125 37.59375 42.828125 
Q 32.125 42.828125 29 38.59375 
Q 25.875 34.375 25.875 26.90625 
L 25.875 0 
L 8.40625 0 
L 8.40625 54.6875 
L 25.875 54.6875 
L 25.875 46.6875 
Q 29.828125 51.46875 34.265625 53.734375 
Q 38.71875 56 44.09375 56 
Q 53.5625 56 58.46875 50.1875 
Q 63.375 44.390625 63.375 33.296875 
z
" id="DejaVuSans-Bold-110"/>
     <path d="M 27.484375 70.21875 
L 27.484375 54.6875 
L 45.515625 54.6875 
L 45.515625 42.1875 
L 27.484375 42.1875 
L 27.484375 19 
Q 27.484375 15.1875 29 13.84375 
Q 30.515625 12.5 35.015625 12.5 
L 44 12.5 
L 44 0 
L 29 0 
Q 18.65625 0 14.328125 4.3125 
Q 10.015625 8.640625 10.015625 19 
L 10.015625 42.1875 
L 1.3125 42.1875 
L 1.3125 54.6875 
L 10.015625 54.6875 
L 10.015625 70.21875 
z
" id="DejaVuSans-Bold-116"/>
     <path d="M 49.03125 39.796875 
Q 46.734375 40.875 44.453125 41.375 
Q 42.1875 41.890625 39.890625 41.890625 
Q 33.15625 41.890625 29.515625 37.5625 
Q 25.875 33.25 25.875 25.203125 
L 25.875 0 
L 8.40625 0 
L 8.40625 54.6875 
L 25.875 54.6875 
L 25.875 45.703125 
Q 29.25 51.078125 33.609375 53.53125 
Q 37.984375 56 44.09375 56 
Q 44.96875 56 45.984375 55.921875 
Q 47.015625 55.859375 48.96875 55.609375 
z
" id="DejaVuSans-Bold-114"/>
     <path d="M 34.421875 43.5 
Q 28.609375 43.5 25.5625 39.328125 
Q 22.515625 35.15625 22.515625 27.296875 
Q 22.515625 19.4375 25.5625 15.25 
Q 28.609375 11.078125 34.421875 11.078125 
Q 40.140625 11.078125 43.15625 15.25 
Q 46.1875 19.4375 46.1875 27.296875 
Q 46.1875 35.15625 43.15625 39.328125 
Q 40.140625 43.5 34.421875 43.5 
z
M 34.421875 56 
Q 48.53125 56 56.46875 48.375 
Q 64.40625 40.765625 64.40625 27.296875 
Q 64.40625 13.8125 56.46875 6.1875 
Q 48.53125 -1.421875 34.421875 -1.421875 
Q 20.265625 -1.421875 12.28125 6.1875 
Q 4.296875 13.8125 4.296875 27.296875 
Q 4.296875 40.765625 12.28125 48.375 
Q 20.265625 56 34.421875 56 
z
" id="DejaVuSans-Bold-111"/>
     <path d="M 25.875 7.90625 
L 25.875 -20.796875 
L 8.40625 -20.796875 
L 8.40625 54.6875 
L 25.875 54.6875 
L 25.875 46.6875 
Q 29.5 51.46875 33.890625 53.734375 
Q 38.28125 56 44 56 
Q 54.109375 56 60.59375 47.96875 
Q 67.09375 39.9375 67.09375 27.296875 
Q 67.09375 14.65625 60.59375 6.609375 
Q 54.109375 -1.421875 44 -1.421875 
Q 38.28125 -1.421875 33.890625 0.84375 
Q 29.5 3.125 25.875 7.90625 
z
M 37.5 43.3125 
Q 31.890625 43.3125 28.875 39.1875 
Q 25.875 35.0625 25.875 27.296875 
Q 25.875 19.53125 28.875 15.40625 
Q 31.890625 11.28125 37.5 11.28125 
Q 43.109375 11.28125 46.0625 15.375 
Q 49.03125 19.484375 49.03125 27.296875 
Q 49.03125 35.109375 46.0625 39.203125 
Q 43.109375 43.3125 37.5 43.3125 
z
" id="DejaVuSans-Bold-112"/>
     <path d="M 1.21875 54.6875 
L 18.703125 54.6875 
L 33.40625 17.578125 
L 45.90625 54.6875 
L 63.375 54.6875 
L 40.375 -5.171875 
Q 36.921875 -14.3125 32.296875 -17.9375 
Q 27.6875 -21.578125 20.125 -21.578125 
L 10.015625 -21.578125 
L 10.015625 -10.109375 
L 15.484375 -10.109375 
Q 19.921875 -10.109375 21.9375 -8.6875 
Q 23.96875 -7.28125 25.09375 -3.609375 
L 25.59375 -2.09375 
z
" id="DejaVuSans-Bold-121"/>
     <path id="DejaVuSans-Bold-32"/>
     <path d="M 32.90625 24.609375 
Q 27.4375 24.609375 24.671875 22.75 
Q 21.921875 20.90625 21.921875 17.28125 
Q 21.921875 13.96875 24.140625 12.078125 
Q 26.375 10.203125 30.328125 10.203125 
Q 35.25 10.203125 38.625 13.734375 
Q 42 17.28125 42 22.609375 
L 42 24.609375 
z
M 59.625 31.203125 
L 59.625 0 
L 42 0 
L 42 8.109375 
Q 38.484375 3.125 34.078125 0.84375 
Q 29.6875 -1.421875 23.390625 -1.421875 
Q 14.890625 -1.421875 9.59375 3.53125 
Q 4.296875 8.5 4.296875 16.40625 
Q 4.296875 26.03125 10.90625 30.515625 
Q 17.53125 35.015625 31.6875 35.015625 
L 42 35.015625 
L 42 36.375 
Q 42 40.53125 38.71875 42.453125 
Q 35.453125 44.390625 28.515625 44.390625 
Q 22.90625 44.390625 18.0625 43.265625 
Q 13.234375 42.140625 9.078125 39.890625 
L 9.078125 53.21875 
Q 14.703125 54.59375 20.359375 55.296875 
Q 26.03125 56 31.6875 56 
Q 46.484375 56 53.046875 50.171875 
Q 59.625 44.34375 59.625 31.203125 
z
" id="DejaVuSans-Bold-97"/>
     <path d="M 45.609375 46.6875 
L 45.609375 75.984375 
L 63.1875 75.984375 
L 63.1875 0 
L 45.609375 0 
L 45.609375 7.90625 
Q 42 3.078125 37.640625 0.828125 
Q 33.296875 -1.421875 27.59375 -1.421875 
Q 17.484375 -1.421875 10.984375 6.609375 
Q 4.5 14.65625 4.5 27.296875 
Q 4.5 39.9375 10.984375 47.96875 
Q 17.484375 56 27.59375 56 
Q 33.25 56 37.625 53.734375 
Q 42 51.46875 45.609375 46.6875 
z
M 34.078125 11.28125 
Q 39.703125 11.28125 42.65625 15.375 
Q 45.609375 19.484375 45.609375 27.296875 
Q 45.609375 35.109375 42.65625 39.203125 
Q 39.703125 43.3125 34.078125 43.3125 
Q 28.515625 43.3125 25.5625 39.203125 
Q 22.609375 35.109375 22.609375 27.296875 
Q 22.609375 19.484375 25.5625 15.375 
Q 28.515625 11.28125 34.078125 11.28125 
z
" id="DejaVuSans-Bold-100"/>
     <path d="M 9.1875 72.90625 
L 27.984375 72.90625 
L 27.984375 14.203125 
L 60.984375 14.203125 
L 60.984375 0 
L 9.1875 0 
z
" id="DejaVuSans-Bold-76"/>
     <path d="M 51.125 52.984375 
L 51.125 39.703125 
Q 45.515625 42.046875 40.28125 43.21875 
Q 35.0625 44.390625 30.421875 44.390625 
Q 25.4375 44.390625 23.015625 43.140625 
Q 20.609375 41.890625 20.609375 39.3125 
Q 20.609375 37.203125 22.4375 36.078125 
Q 24.265625 34.96875 29 34.421875 
L 32.078125 33.984375 
Q 45.515625 32.28125 50.140625 28.375 
Q 54.78125 24.46875 54.78125 16.109375 
Q 54.78125 7.375 48.328125 2.96875 
Q 41.890625 -1.421875 29.109375 -1.421875 
Q 23.6875 -1.421875 17.890625 -0.5625 
Q 12.109375 0.296875 6 2 
L 6 15.28125 
Q 11.234375 12.75 16.71875 11.46875 
Q 22.21875 10.203125 27.875 10.203125 
Q 33.015625 10.203125 35.59375 11.609375 
Q 38.1875 13.03125 38.1875 15.828125 
Q 38.1875 18.171875 36.40625 19.3125 
Q 34.625 20.453125 29.296875 21.09375 
L 26.21875 21.484375 
Q 14.546875 22.953125 9.859375 26.90625 
Q 5.171875 30.859375 5.171875 38.921875 
Q 5.171875 47.609375 11.125 51.796875 
Q 17.09375 56 29.390625 56 
Q 34.234375 56 39.546875 55.265625 
Q 44.875 54.546875 51.125 52.984375 
z
" id="DejaVuSans-Bold-115"/>
     <path d="M 10.203125 18.890625 
L 27.78125 18.890625 
L 27.78125 0 
L 10.203125 0 
z
" id="DejaVuSans-Bold-46"/>
    </defs>
    <g transform="translate(161.657813 16.318125)scale(0.12 -0.12)">
     <use xlink:href="#DejaVuSans-Bold-69"/>
     <use x="68.310547" xlink:href="#DejaVuSans-Bold-110"/>
     <use x="139.501953" xlink:href="#DejaVuSans-Bold-116"/>
     <use x="187.304688" xlink:href="#DejaVuSans-Bold-114"/>
     <use x="236.621094" xlink:href="#DejaVuSans-Bold-111"/>
     <use x="305.322266" xlink:href="#DejaVuSans-Bold-112"/>
     <use x="376.904297" xlink:href="#DejaVuSans-Bold-121"/>
     <use x="442.089844" xlink:href="#DejaVuSans-Bold-32"/>
     <use x="476.904297" xlink:href="#DejaVuSans-Bold-97"/>
     <use x="544.384766" xlink:href="#DejaVuSans-Bold-110"/>
     <use x="615.576172" xlink:href="#DejaVuSans-Bold-100"/>
     <use x="687.158203" xlink:href="#DejaVuSans-Bold-32"/>
     <use x="721.972656" xlink:href="#DejaVuSans-Bold-76"/>
     <use x="785.693359" xlink:href="#DejaVuSans-Bold-111"/>
     <use x="854.394531" xlink:href="#DejaVuSans-Bold-115"/>
     <use x="913.916016" xlink:href="#DejaVuSans-Bold-115"/>
     <use x="973.4375" xlink:href="#DejaVuSans-Bold-46"/>
    </g>
   </g>
   <g id="legend_1">
    <g id="patch_7">
     <path d="M 18.982656 353.02505 
L 429.699844 353.02505 
Q 431.699844 353.02505 431.699844 351.02505 
L 431.699844 337.346925 
Q 431.699844 335.346925 429.699844 335.346925 
L 18.982656 335.346925 
Q 16.982656 335.346925 16.982656 337.346925 
L 16.982656 351.02505 
Q 16.982656 353.02505 18.982656 353.02505 
z
" style="fill:#4c4c4c;opacity:0.5;stroke:#4c4c4c;stroke-linejoin:miter;"/>
    </g>
    <g id="patch_8">
     <path d="M 16.982656 351.02505 
L 427.699844 351.02505 
Q 429.699844 351.02505 429.699844 349.02505 
L 429.699844 335.346925 
Q 429.699844 333.346925 427.699844 333.346925 
L 16.982656 333.346925 
Q 14.982656 333.346925 14.982656 335.346925 
L 14.982656 349.02505 
Q 14.982656 351.02505 16.982656 351.02505 
z
" style="fill:#ffffff;stroke:#cccccc;stroke-linejoin:miter;"/>
    </g>
    <g id="line2d_17">
     <path d="M 18.982656 341.445362 
L 38.982656 341.445362 
" style="fill:none;stroke:#1f77b4;stroke-linecap:square;stroke-width:1.5;"/>
    </g>
    <g id="line2d_18"/>
    <g id="text_15">
     <!-- Policy Loss (Normalized) -->
     <defs>
      <path d="M 19.671875 64.796875 
L 19.671875 37.40625 
L 32.078125 37.40625 
Q 38.96875 37.40625 42.71875 40.96875 
Q 46.484375 44.53125 46.484375 51.125 
Q 46.484375 57.671875 42.71875 61.234375 
Q 38.96875 64.796875 32.078125 64.796875 
z
M 9.8125 72.90625 
L 32.078125 72.90625 
Q 44.34375 72.90625 50.609375 67.359375 
Q 56.890625 61.8125 56.890625 51.125 
Q 56.890625 40.328125 50.609375 34.8125 
Q 44.34375 29.296875 32.078125 29.296875 
L 19.671875 29.296875 
L 19.671875 0 
L 9.8125 0 
z
" id="DejaVuSans-80"/>
      <path d="M 9.421875 75.984375 
L 18.40625 75.984375 
L 18.40625 0 
L 9.421875 0 
z
" id="DejaVuSans-108"/>
      <path d="M 9.421875 54.6875 
L 18.40625 54.6875 
L 18.40625 0 
L 9.421875 0 
z
M 9.421875 75.984375 
L 18.40625 75.984375 
L 18.40625 64.59375 
L 9.421875 64.59375 
z
" id="DejaVuSans-105"/>
      <path d="M 32.171875 -5.078125 
Q 28.375 -14.84375 24.75 -17.8125 
Q 21.140625 -20.796875 15.09375 -20.796875 
L 7.90625 -20.796875 
L 7.90625 -13.28125 
L 13.1875 -13.28125 
Q 16.890625 -13.28125 18.9375 -11.515625 
Q 21 -9.765625 23.484375 -3.21875 
L 25.09375 0.875 
L 2.984375 54.6875 
L 12.5 54.6875 
L 29.59375 11.921875 
L 46.6875 54.6875 
L 56.203125 54.6875 
z
" id="DejaVuSans-121"/>
      <path id="DejaVuSans-32"/>
      <path d="M 31 75.875 
Q 24.46875 64.65625 21.28125 53.65625 
Q 18.109375 42.671875 18.109375 31.390625 
Q 18.109375 20.125 21.3125 9.0625 
Q 24.515625 -2 31 -13.1875 
L 23.1875 -13.1875 
Q 15.875 -1.703125 12.234375 9.375 
Q 8.59375 20.453125 8.59375 31.390625 
Q 8.59375 42.28125 12.203125 53.3125 
Q 15.828125 64.359375 23.1875 75.875 
z
" id="DejaVuSans-40"/>
      <path d="M 9.8125 72.90625 
L 23.09375 72.90625 
L 55.421875 11.921875 
L 55.421875 72.90625 
L 64.984375 72.90625 
L 64.984375 0 
L 51.703125 0 
L 19.390625 60.984375 
L 19.390625 0 
L 9.8125 0 
z
" id="DejaVuSans-78"/>
      <path d="M 41.109375 46.296875 
Q 39.59375 47.171875 37.8125 47.578125 
Q 36.03125 48 33.890625 48 
Q 26.265625 48 22.1875 43.046875 
Q 18.109375 38.09375 18.109375 28.8125 
L 18.109375 0 
L 9.078125 0 
L 9.078125 54.6875 
L 18.109375 54.6875 
L 18.109375 46.1875 
Q 20.953125 51.171875 25.484375 53.578125 
Q 30.03125 56 36.53125 56 
Q 37.453125 56 38.578125 55.875 
Q 39.703125 55.765625 41.0625 55.515625 
z
" id="DejaVuSans-114"/>
      <path d="M 52 44.1875 
Q 55.375 50.25 60.0625 53.125 
Q 64.75 56 71.09375 56 
Q 79.640625 56 84.28125 50.015625 
Q 88.921875 44.046875 88.921875 33.015625 
L 88.921875 0 
L 79.890625 0 
L 79.890625 32.71875 
Q 79.890625 40.578125 77.09375 44.375 
Q 74.3125 48.1875 68.609375 48.1875 
Q 61.625 48.1875 57.5625 43.546875 
Q 53.515625 38.921875 53.515625 30.90625 
L 53.515625 0 
L 44.484375 0 
L 44.484375 32.71875 
Q 44.484375 40.625 41.703125 44.40625 
Q 38.921875 48.1875 33.109375 48.1875 
Q 26.21875 48.1875 22.15625 43.53125 
Q 18.109375 38.875 18.109375 30.90625 
L 18.109375 0 
L 9.078125 0 
L 9.078125 54.6875 
L 18.109375 54.6875 
L 18.109375 46.1875 
Q 21.1875 51.21875 25.484375 53.609375 
Q 29.78125 56 35.6875 56 
Q 41.65625 56 45.828125 52.96875 
Q 50 49.953125 52 44.1875 
z
" id="DejaVuSans-109"/>
      <path d="M 34.28125 27.484375 
Q 23.390625 27.484375 19.1875 25 
Q 14.984375 22.515625 14.984375 16.5 
Q 14.984375 11.71875 18.140625 8.90625 
Q 21.296875 6.109375 26.703125 6.109375 
Q 34.1875 6.109375 38.703125 11.40625 
Q 43.21875 16.703125 43.21875 25.484375 
L 43.21875 27.484375 
z
M 52.203125 31.203125 
L 52.203125 0 
L 43.21875 0 
L 43.21875 8.296875 
Q 40.140625 3.328125 35.546875 0.953125 
Q 30.953125 -1.421875 24.3125 -1.421875 
Q 15.921875 -1.421875 10.953125 3.296875 
Q 6 8.015625 6 15.921875 
Q 6 25.140625 12.171875 29.828125 
Q 18.359375 34.515625 30.609375 34.515625 
L 43.21875 34.515625 
L 43.21875 35.40625 
Q 43.21875 41.609375 39.140625 45 
Q 35.0625 48.390625 27.6875 48.390625 
Q 23 48.390625 18.546875 47.265625 
Q 14.109375 46.140625 10.015625 43.890625 
L 10.015625 52.203125 
Q 14.9375 54.109375 19.578125 55.046875 
Q 24.21875 56 28.609375 56 
Q 40.484375 56 46.34375 49.84375 
Q 52.203125 43.703125 52.203125 31.203125 
z
" id="DejaVuSans-97"/>
      <path d="M 5.515625 54.6875 
L 48.1875 54.6875 
L 48.1875 46.484375 
L 14.40625 7.171875 
L 48.1875 7.171875 
L 48.1875 0 
L 4.296875 0 
L 4.296875 8.203125 
L 38.09375 47.515625 
L 5.515625 47.515625 
z
" id="DejaVuSans-122"/>
      <path d="M 56.203125 29.59375 
L 56.203125 25.203125 
L 14.890625 25.203125 
Q 15.484375 15.921875 20.484375 11.0625 
Q 25.484375 6.203125 34.421875 6.203125 
Q 39.59375 6.203125 44.453125 7.46875 
Q 49.3125 8.734375 54.109375 11.28125 
L 54.109375 2.78125 
Q 49.265625 0.734375 44.1875 -0.34375 
Q 39.109375 -1.421875 33.890625 -1.421875 
Q 20.796875 -1.421875 13.15625 6.1875 
Q 5.515625 13.8125 5.515625 26.8125 
Q 5.515625 40.234375 12.765625 48.109375 
Q 20.015625 56 32.328125 56 
Q 43.359375 56 49.78125 48.890625 
Q 56.203125 41.796875 56.203125 29.59375 
z
M 47.21875 32.234375 
Q 47.125 39.59375 43.09375 43.984375 
Q 39.0625 48.390625 32.421875 48.390625 
Q 24.90625 48.390625 20.390625 44.140625 
Q 15.875 39.890625 15.1875 32.171875 
z
" id="DejaVuSans-101"/>
      <path d="M 45.40625 46.390625 
L 45.40625 75.984375 
L 54.390625 75.984375 
L 54.390625 0 
L 45.40625 0 
L 45.40625 8.203125 
Q 42.578125 3.328125 38.25 0.953125 
Q 33.9375 -1.421875 27.875 -1.421875 
Q 17.96875 -1.421875 11.734375 6.484375 
Q 5.515625 14.40625 5.515625 27.296875 
Q 5.515625 40.1875 11.734375 48.09375 
Q 17.96875 56 27.875 56 
Q 33.9375 56 38.25 53.625 
Q 42.578125 51.265625 45.40625 46.390625 
z
M 14.796875 27.296875 
Q 14.796875 17.390625 18.875 11.75 
Q 22.953125 6.109375 30.078125 6.109375 
Q 37.203125 6.109375 41.296875 11.75 
Q 45.40625 17.390625 45.40625 27.296875 
Q 45.40625 37.203125 41.296875 42.84375 
Q 37.203125 48.484375 30.078125 48.484375 
Q 22.953125 48.484375 18.875 42.84375 
Q 14.796875 37.203125 14.796875 27.296875 
z
" id="DejaVuSans-100"/>
      <path d="M 8.015625 75.875 
L 15.828125 75.875 
Q 23.140625 64.359375 26.78125 53.3125 
Q 30.421875 42.28125 30.421875 31.390625 
Q 30.421875 20.453125 26.78125 9.375 
Q 23.140625 -1.703125 15.828125 -13.1875 
L 8.015625 -13.1875 
Q 14.5 -2 17.703125 9.0625 
Q 20.90625 20.125 20.90625 31.390625 
Q 20.90625 42.671875 17.703125 53.65625 
Q 14.5 64.65625 8.015625 75.875 
z
" id="DejaVuSans-41"/>
     </defs>
     <g transform="translate(46.982656 344.945362)scale(0.1 -0.1)">
      <use xlink:href="#DejaVuSans-80"/>
      <use x="60.255859" xlink:href="#DejaVuSans-111"/>
      <use x="121.4375" xlink:href="#DejaVuSans-108"/>
      <use x="149.220703" xlink:href="#DejaVuSans-105"/>
      <use x="177.003906" xlink:href="#DejaVuSans-99"/>
      <use x="231.984375" xlink:href="#DejaVuSans-121"/>
      <use x="291.164062" xlink:href="#DejaVuSans-32"/>
      <use x="322.951172" xlink:href="#DejaVuSans-76"/>
      <use x="378.648438" xlink:href="#DejaVuSans-111"/>
      <use x="439.830078" xlink:href="#DejaVuSans-115"/>
      <use x="491.929688" xlink:href="#DejaVuSans-115"/>
      <use x="544.029297" xlink:href="#DejaVuSans-32"/>
      <use x="575.816406" xlink:href="#DejaVuSans-40"/>
      <use x="614.830078" xlink:href="#DejaVuSans-78"/>
      <use x="689.634766" xlink:href="#DejaVuSans-111"/>
      <use x="750.816406" xlink:href="#DejaVuSans-114"/>
      <use x="791.914062" xlink:href="#DejaVuSans-109"/>
      <use x="889.326172" xlink:href="#DejaVuSans-97"/>
      <use x="950.605469" xlink:href="#DejaVuSans-108"/>
      <use x="978.388672" xlink:href="#DejaVuSans-105"/>
      <use x="1006.171875" xlink:href="#DejaVuSans-122"/>
      <use x="1058.662109" xlink:href="#DejaVuSans-101"/>
      <use x="1120.185547" xlink:href="#DejaVuSans-100"/>
      <use x="1183.662109" xlink:href="#DejaVuSans-41"/>
     </g>
    </g>
    <g id="line2d_19">
     <path d="M 189.251406 341.445362 
L 209.251406 341.445362 
" style="fill:none;stroke:#ff7f0e;stroke-linecap:square;stroke-width:1.5;"/>
    </g>
    <g id="line2d_20"/>
    <g id="text_16">
     <!-- Value Loss (Normalized) -->
     <defs>
      <path d="M 28.609375 0 
L 0.78125 72.90625 
L 11.078125 72.90625 
L 34.1875 11.53125 
L 57.328125 72.90625 
L 67.578125 72.90625 
L 39.796875 0 
z
" id="DejaVuSans-86"/>
      <path d="M 8.5 21.578125 
L 8.5 54.6875 
L 17.484375 54.6875 
L 17.484375 21.921875 
Q 17.484375 14.15625 20.5 10.265625 
Q 23.53125 6.390625 29.59375 6.390625 
Q 36.859375 6.390625 41.078125 11.03125 
Q 45.3125 15.671875 45.3125 23.6875 
L 45.3125 54.6875 
L 54.296875 54.6875 
L 54.296875 0 
L 45.3125 0 
L 45.3125 8.40625 
Q 42.046875 3.421875 37.71875 1 
Q 33.40625 -1.421875 27.6875 -1.421875 
Q 18.265625 -1.421875 13.375 4.4375 
Q 8.5 10.296875 8.5 21.578125 
z
M 31.109375 56 
z
" id="DejaVuSans-117"/>
     </defs>
     <g transform="translate(217.251406 344.945362)scale(0.1 -0.1)">
      <use xlink:href="#DejaVuSans-86"/>
      <use x="68.298828" xlink:href="#DejaVuSans-97"/>
      <use x="129.578125" xlink:href="#DejaVuSans-108"/>
      <use x="157.361328" xlink:href="#DejaVuSans-117"/>
      <use x="220.740234" xlink:href="#DejaVuSans-101"/>
      <use x="282.263672" xlink:href="#DejaVuSans-32"/>
      <use x="314.050781" xlink:href="#DejaVuSans-76"/>
      <use x="369.748047" xlink:href="#DejaVuSans-111"/>
      <use x="430.929688" xlink:href="#DejaVuSans-115"/>
      <use x="483.029297" xlink:href="#DejaVuSans-115"/>
      <use x="535.128906" xlink:href="#DejaVuSans-32"/>
      <use x="566.916016" xlink:href="#DejaVuSans-40"/>
      <use x="605.929688" xlink:href="#DejaVuSans-78"/>
      <use x="680.734375" xlink:href="#DejaVuSans-111"/>
      <use x="741.916016" xlink:href="#DejaVuSans-114"/>
      <use x="783.013672" xlink:href="#DejaVuSans-109"/>
      <use x="880.425781" xlink:href="#DejaVuSans-97"/>
      <use x="941.705078" xlink:href="#DejaVuSans-108"/>
      <use x="969.488281" xlink:href="#DejaVuSans-105"/>
      <use x="997.271484" xlink:href="#DejaVuSans-122"/>
      <use x="1049.761719" xlink:href="#DejaVuSans-101"/>
      <use x="1111.285156" xlink:href="#DejaVuSans-100"/>
      <use x="1174.761719" xlink:href="#DejaVuSans-41"/>
     </g>
    </g>
    <g id="line2d_21">
     <path d="M 358.629531 341.445362 
L 378.629531 341.445362 
" style="fill:none;stroke:#008000;stroke-linecap:square;stroke-width:1.5;"/>
    </g>
    <g id="line2d_22"/>
    <g id="text_17">
     <!-- Entropy -->
     <defs>
      <path d="M 54.890625 33.015625 
L 54.890625 0 
L 45.90625 0 
L 45.90625 32.71875 
Q 45.90625 40.484375 42.875 44.328125 
Q 39.84375 48.1875 33.796875 48.1875 
Q 26.515625 48.1875 22.3125 43.546875 
Q 18.109375 38.921875 18.109375 30.90625 
L 18.109375 0 
L 9.078125 0 
L 9.078125 54.6875 
L 18.109375 54.6875 
L 18.109375 46.1875 
Q 21.34375 51.125 25.703125 53.5625 
Q 30.078125 56 35.796875 56 
Q 45.21875 56 50.046875 50.171875 
Q 54.890625 44.34375 54.890625 33.015625 
z
" id="DejaVuSans-110"/>
      <path d="M 18.3125 70.21875 
L 18.3125 54.6875 
L 36.8125 54.6875 
L 36.8125 47.703125 
L 18.3125 47.703125 
L 18.3125 18.015625 
Q 18.3125 11.328125 20.140625 9.421875 
Q 21.96875 7.515625 27.59375 7.515625 
L 36.8125 7.515625 
L 36.8125 0 
L 27.59375 0 
Q 17.1875 0 13.234375 3.875 
Q 9.28125 7.765625 9.28125 18.015625 
L 9.28125 47.703125 
L 2.6875 47.703125 
L 2.6875 54.6875 
L 9.28125 54.6875 
L 9.28125 70.21875 
z
" id="DejaVuSans-116"/>
     </defs>
     <g transform="translate(386.629531 344.945362)scale(0.1 -0.1)">
      <use xlink:href="#DejaVuSans-69"/>
      <use x="63.183594" xlink:href="#DejaVuSans-110"/>
      <use x="126.5625" xlink:href="#DejaVuSans-116"/>
      <use x="165.771484" xlink:href="#DejaVuSans-114"/>
      <use x="206.853516" xlink:href="#DejaVuSans-111"/>
      <use x="268.035156" xlink:href="#DejaVuSans-112"/>
      <use x="331.511719" xlink:href="#DejaVuSans-121"/>
     </g>
    </g>
   </g>
  </g>
  <g id="axes_2">
   <g id="matplotlib.axis_3">
    <g id="ytick_7">
     <g id="line2d_23">
      <defs>
       <path d="M 0 0 
L 3.5 0 
" id="mbd2416b242" style="stroke:#000000;stroke-width:0.8;"/>
      </defs>
      <g>
       <use style="stroke:#000000;stroke-width:0.8;" x="400.90125" xlink:href="#mbd2416b242" y="267.737665"/>
      </g>
     </g>
     <g id="text_18">
      <!-- 2.26 -->
      <g transform="translate(407.90125 271.536884)scale(0.1 -0.1)">
       <use xlink:href="#DejaVuSans-50"/>
       <use x="63.623047" xlink:href="#DejaVuSans-46"/>
       <use x="95.410156" xlink:href="#DejaVuSans-50"/>
       <use x="159.033203" xlink:href="#DejaVuSans-54"/>
      </g>
     </g>
    </g>
    <g id="ytick_8">
     <g id="line2d_24">
      <g>
       <use style="stroke:#000000;stroke-width:0.8;" x="400.90125" xlink:href="#mbd2416b242" y="233.383801"/>
      </g>
     </g>
     <g id="text_19">
      <!-- 2.28 -->
      <g transform="translate(407.90125 237.18302)scale(0.1 -0.1)">
       <use xlink:href="#DejaVuSans-50"/>
       <use x="63.623047" xlink:href="#DejaVuSans-46"/>
       <use x="95.410156" xlink:href="#DejaVuSans-50"/>
       <use x="159.033203" xlink:href="#DejaVuSans-56"/>
      </g>
     </g>
    </g>
    <g id="ytick_9">
     <g id="line2d_25">
      <g>
       <use style="stroke:#000000;stroke-width:0.8;" x="400.90125" xlink:href="#mbd2416b242" y="199.029938"/>
      </g>
     </g>
     <g id="text_20">
      <!-- 2.30 -->
      <defs>
       <path d="M 40.578125 39.3125 
Q 47.65625 37.796875 51.625 33 
Q 55.609375 28.21875 55.609375 21.1875 
Q 55.609375 10.40625 48.1875 4.484375 
Q 40.765625 -1.421875 27.09375 -1.421875 
Q 22.515625 -1.421875 17.65625 -0.515625 
Q 12.796875 0.390625 7.625 2.203125 
L 7.625 11.71875 
Q 11.71875 9.328125 16.59375 8.109375 
Q 21.484375 6.890625 26.8125 6.890625 
Q 36.078125 6.890625 40.9375 10.546875 
Q 45.796875 14.203125 45.796875 21.1875 
Q 45.796875 27.640625 41.28125 31.265625 
Q 36.765625 34.90625 28.71875 34.90625 
L 20.21875 34.90625 
L 20.21875 43.015625 
L 29.109375 43.015625 
Q 36.375 43.015625 40.234375 45.921875 
Q 44.09375 48.828125 44.09375 54.296875 
Q 44.09375 59.90625 40.109375 62.90625 
Q 36.140625 65.921875 28.71875 65.921875 
Q 24.65625 65.921875 20.015625 65.03125 
Q 15.375 64.15625 9.8125 62.3125 
L 9.8125 71.09375 
Q 15.4375 72.65625 20.34375 73.4375 
Q 25.25 74.21875 29.59375 74.21875 
Q 40.828125 74.21875 47.359375 69.109375 
Q 53.90625 64.015625 53.90625 55.328125 
Q 53.90625 49.265625 50.4375 45.09375 
Q 46.96875 40.921875 40.578125 39.3125 
z
" id="DejaVuSans-51"/>
      </defs>
      <g transform="translate(407.90125 202.829156)scale(0.1 -0.1)">
       <use xlink:href="#DejaVuSans-50"/>
       <use x="63.623047" xlink:href="#DejaVuSans-46"/>
       <use x="95.410156" xlink:href="#DejaVuSans-51"/>
       <use x="159.033203" xlink:href="#DejaVuSans-48"/>
      </g>
     </g>
    </g>
    <g id="ytick_10">
     <g id="line2d_26">
      <g>
       <use style="stroke:#000000;stroke-width:0.8;" x="400.90125" xlink:href="#mbd2416b242" y="164.676074"/>
      </g>
     </g>
     <g id="text_21">
      <!-- 2.32 -->
      <g transform="translate(407.90125 168.475293)scale(0.1 -0.1)">
       <use xlink:href="#DejaVuSans-50"/>
       <use x="63.623047" xlink:href="#DejaVuSans-46"/>
       <use x="95.410156" xlink:href="#DejaVuSans-51"/>
       <use x="159.033203" xlink:href="#DejaVuSans-50"/>
      </g>
     </g>
    </g>
    <g id="ytick_11">
     <g id="line2d_27">
      <g>
       <use style="stroke:#000000;stroke-width:0.8;" x="400.90125" xlink:href="#mbd2416b242" y="130.32221"/>
      </g>
     </g>
     <g id="text_22">
      <!-- 2.34 -->
      <g transform="translate(407.90125 134.121429)scale(0.1 -0.1)">
       <use xlink:href="#DejaVuSans-50"/>
       <use x="63.623047" xlink:href="#DejaVuSans-46"/>
       <use x="95.410156" xlink:href="#DejaVuSans-51"/>
       <use x="159.033203" xlink:href="#DejaVuSans-52"/>
      </g>
     </g>
    </g>
    <g id="ytick_12">
     <g id="line2d_28">
      <g>
       <use style="stroke:#000000;stroke-width:0.8;" x="400.90125" xlink:href="#mbd2416b242" y="95.968347"/>
      </g>
     </g>
     <g id="text_23">
      <!-- 2.36 -->
      <g transform="translate(407.90125 99.767565)scale(0.1 -0.1)">
       <use xlink:href="#DejaVuSans-50"/>
       <use x="63.623047" xlink:href="#DejaVuSans-46"/>
       <use x="95.410156" xlink:href="#DejaVuSans-51"/>
       <use x="159.033203" xlink:href="#DejaVuSans-54"/>
      </g>
     </g>
    </g>
    <g id="ytick_13">
     <g id="line2d_29">
      <g>
       <use style="stroke:#000000;stroke-width:0.8;" x="400.90125" xlink:href="#mbd2416b242" y="61.614483"/>
      </g>
     </g>
     <g id="text_24">
      <!-- 2.38 -->
      <g transform="translate(407.90125 65.413702)scale(0.1 -0.1)">
       <use xlink:href="#DejaVuSans-50"/>
       <use x="63.623047" xlink:href="#DejaVuSans-46"/>
       <use x="95.410156" xlink:href="#DejaVuSans-51"/>
       <use x="159.033203" xlink:href="#DejaVuSans-56"/>
      </g>
     </g>
    </g>
    <g id="ytick_14">
     <g id="line2d_30">
      <g>
       <use style="stroke:#000000;stroke-width:0.8;" x="400.90125" xlink:href="#mbd2416b242" y="27.260619"/>
      </g>
     </g>
     <g id="text_25">
      <!-- 2.40 -->
      <g transform="translate(407.90125 31.059838)scale(0.1 -0.1)">
       <use xlink:href="#DejaVuSans-50"/>
       <use x="63.623047" xlink:href="#DejaVuSans-46"/>
       <use x="95.410156" xlink:href="#DejaVuSans-52"/>
       <use x="159.033203" xlink:href="#DejaVuSans-48"/>
      </g>
     </g>
    </g>
    <g id="text_26">
     <!-- Entropy -->
     <g transform="translate(441.765312 174.909281)rotate(-90)scale(0.1 -0.1)">
      <use xlink:href="#DejaVuSans-69"/>
      <use x="63.183594" xlink:href="#DejaVuSans-110"/>
      <use x="126.5625" xlink:href="#DejaVuSans-116"/>
      <use x="165.771484" xlink:href="#DejaVuSans-114"/>
      <use x="206.853516" xlink:href="#DejaVuSans-111"/>
      <use x="268.035156" xlink:href="#DejaVuSans-112"/>
      <use x="331.511719" xlink:href="#DejaVuSans-121"/>
     </g>
    </g>
   </g>
   <g id="line2d_31">
    <path clip-path="url(#p6fc77b1699)" d="M 60.013977 161.814803 
L 62.765287 161.814803 
L 64.140942 119.968212 
L 66.892252 119.968212 
L 68.267906 79.043882 
L 71.019216 79.043882 
L 72.394871 105.286562 
L 75.146181 105.286562 
L 76.521836 163.506162 
L 79.273145 163.506162 
L 80.6488 129.398049 
L 83.40011 129.398049 
L 84.775765 37.30213 
L 87.527074 37.30213 
L 88.902729 99.824252 
L 91.654039 99.824252 
L 93.029694 153.493973 
L 95.781003 153.493973 
L 97.156658 81.596073 
L 99.907968 81.596073 
L 101.283623 108.65126 
L 104.034933 108.65126 
L 105.410587 65.587137 
L 108.161897 65.587137 
L 109.537552 134.925475 
L 112.288862 134.925475 
L 113.664517 138.671036 
L 116.415826 138.671036 
L 117.791481 212.239409 
L 120.542791 212.239409 
L 121.918446 139.691175 
L 124.669755 139.691175 
L 126.04541 77.210416 
L 128.79672 77.210416 
L 130.172375 155.938048 
L 132.923685 155.938048 
L 134.299339 128.237441 
L 137.050649 128.237441 
L 138.426304 133.417995 
L 141.177614 133.417995 
L 142.553268 59.922518 
L 145.304578 59.922518 
L 146.680233 112.318192 
L 149.431543 112.318192 
L 150.807198 134.353361 
L 153.558507 134.353361 
L 154.934162 158.731861 
L 157.685472 158.731861 
L 159.061127 96.207692 
L 161.812436 96.207692 
L 163.188091 151.270225 
L 165.939401 151.270225 
L 167.315056 68.195843 
L 170.066366 68.195843 
L 171.44202 90.178183 
L 174.19333 90.178183 
L 175.568985 140.437338 
L 178.320295 140.437338 
L 179.69595 194.449427 
L 182.447259 194.449427 
L 183.822914 41.04933 
L 186.574224 41.04933 
L 187.949879 87.004325 
L 190.701188 87.004325 
L 192.076843 117.371382 
L 194.828153 117.371382 
L 196.203808 120.32655 
L 198.955117 120.32655 
L 200.330772 117.62611 
L 203.082082 117.62611 
L 204.457737 246.125556 
L 207.209047 246.125556 
L 208.584701 123.730563 
L 211.336011 123.730563 
L 212.711666 128.537217 
L 215.462976 128.537217 
L 216.838631 145.037998 
L 219.58994 145.037998 
L 220.965595 276.334125 
L 223.716905 276.334125 
L 225.09256 210.405534 
L 227.843869 210.405534 
L 229.219524 134.87756 
L 231.970834 134.87756 
L 233.346489 160.793845 
L 236.097799 160.793845 
L 237.473453 146.394771 
L 240.224763 146.394771 
L 241.600418 219.712921 
L 244.351728 219.712921 
L 245.727383 132.458057 
L 248.478692 132.458057 
L 249.854347 214.441042 
L 252.605657 214.441042 
L 253.981312 213.383635 
L 256.732621 213.383635 
L 258.108276 65.960218 
L 260.859586 65.960218 
L 262.235241 243.889523 
L 264.98655 243.889523 
L 266.362205 34.414125 
L 269.113515 34.414125 
L 270.48917 103.465792 
L 273.24048 103.465792 
L 274.616134 145.786619 
L 277.367444 145.786619 
L 278.743099 195.020312 
L 281.494409 195.020312 
L 282.870064 132.134528 
L 285.621373 132.134528 
L 286.997028 118.800232 
L 289.748338 118.800232 
L 291.123993 118.066354 
L 293.875302 118.066354 
L 295.250957 172.186149 
L 298.002267 172.186149 
L 299.377922 200.592376 
L 302.129232 200.592376 
L 303.504886 138.757856 
L 306.256196 138.757856 
L 307.631851 217.947028 
L 310.383161 217.947028 
L 311.758815 77.187892 
L 314.510125 77.187892 
L 315.88578 126.534206 
L 318.63709 126.534206 
L 320.012745 210.657394 
L 322.764054 210.657394 
L 324.139709 142.85848 
L 326.891019 142.85848 
L 328.266674 179.706758 
L 331.017983 179.706758 
L 332.393638 46.621804 
L 335.144948 46.621804 
L 336.520603 140.730562 
L 339.271913 140.730562 
L 340.647567 163.079841 
L 343.398877 163.079841 
L 344.774532 134.61628 
L 347.525842 134.61628 
L 348.901497 181.906753 
L 351.652806 181.906753 
L 353.028461 192.971024 
L 355.779771 192.971024 
L 357.155426 189.552268 
L 359.906735 189.552268 
L 361.28239 177.411342 
L 364.0337 177.411342 
L 365.409355 191.150253 
L 368.160664 191.150253 
L 369.536319 164.252735 
L 372.287629 164.252735 
L 373.663284 206.23488 
L 376.414594 206.23488 
L 377.790248 130.037325 
L 380.541558 130.037325 
L 381.917213 232.672497 
L 384.668523 232.672497 
L 384.668523 232.672497 
" style="fill:none;stroke:#008000;stroke-linecap:square;stroke-opacity:0.3;stroke-width:1.5;"/>
   </g>
   <g id="patch_9">
    <path d="M 43.78125 288.430125 
L 43.78125 22.318125 
" style="fill:none;stroke:#000000;stroke-linecap:square;stroke-linejoin:miter;stroke-width:0.8;"/>
   </g>
   <g id="patch_10">
    <path d="M 400.90125 288.430125 
L 400.90125 22.318125 
" style="fill:none;stroke:#000000;stroke-linecap:square;stroke-linejoin:miter;stroke-width:0.8;"/>
   </g>
   <g id="patch_11">
    <path d="M 43.78125 288.430125 
L 400.90125 288.430125 
" style="fill:none;stroke:#000000;stroke-linecap:square;stroke-linejoin:miter;stroke-width:0.8;"/>
   </g>
   <g id="patch_12">
    <path d="M 43.78125 22.318125 
L 400.90125 22.318125 
" style="fill:none;stroke:#000000;stroke-linecap:square;stroke-linejoin:miter;stroke-width:0.8;"/>
   </g>
  </g>
 </g>
 <defs>
  <clipPath id="p6fc77b1699">
   <rect height="266.112" width="357.12" x="43.78125" y="22.318125"/>
  </clipPath>
 </defs>
</svg>
