<?xml version="1.0" encoding="utf-8" standalone="no"?>
<!DOCTYPE svg PUBLIC "-//W3C//DTD SVG 1.1//EN"
  "http://www.w3.org/Graphics/SVG/1.1/DTD/svg11.dtd">
<!-- Created with matplotlib (https://matplotlib.org/) -->
<svg height="358.22505pt" version="1.1" viewBox="0 0 444.6825 358.22505" width="444.6825pt" xmlns="http://www.w3.org/2000/svg" xmlns:xlink="http://www.w3.org/1999/xlink">
 <defs>
  <style type="text/css">
*{stroke-linecap:butt;stroke-linejoin:round;}
  </style>
 </defs>
 <g id="figure_1">
  <g id="patch_1">
   <path d="M 0 358.22505 
L 444.6825 358.22505 
L 444.6825 0 
L 0 0 
z
" style="fill:#ffffff;"/>
  </g>
  <g id="axes_1">
   <g id="patch_2">
    <path d="M 43.78125 288.430125 
L 400.90125 288.430125 
L 400.90125 22.318125 
L 43.78125 22.318125 
z
" style="fill:#ffffff;"/>
   </g>
   <g id="matplotlib.axis_1">
    <g id="xtick_1">
     <g id="line2d_1">
      <defs>
       <path d="M 0 0 
L 0 3.5 
" id="m9c12d30949" style="stroke:#000000;stroke-width:0.8;"/>
      </defs>
      <g>
       <use style="stroke:#000000;stroke-width:0.8;" x="60.013977" xlink:href="#m9c12d30949" y="288.430125"/>
      </g>
     </g>
     <g id="text_1">
      <!-- 0 -->
      <defs>
       <path d="M 31.78125 66.40625 
Q 24.171875 66.40625 20.328125 58.90625 
Q 16.5 51.421875 16.5 36.375 
Q 16.5 21.390625 20.328125 13.890625 
Q 24.171875 6.390625 31.78125 6.390625 
Q 39.453125 6.390625 43.28125 13.890625 
Q 47.125 21.390625 47.125 36.375 
Q 47.125 51.421875 43.28125 58.90625 
Q 39.453125 66.40625 31.78125 66.40625 
z
M 31.78125 74.21875 
Q 44.046875 74.21875 50.515625 64.515625 
Q 56.984375 54.828125 56.984375 36.375 
Q 56.984375 17.96875 50.515625 8.265625 
Q 44.046875 -1.421875 31.78125 -1.421875 
Q 19.53125 -1.421875 13.0625 8.265625 
Q 6.59375 17.96875 6.59375 36.375 
Q 6.59375 54.828125 13.0625 64.515625 
Q 19.53125 74.21875 31.78125 74.21875 
z
" id="DejaVuSans-48"/>
      </defs>
      <g transform="translate(56.832727 303.028562)scale(0.1 -0.1)">
       <use xlink:href="#DejaVuSans-48"/>
      </g>
     </g>
    </g>
    <g id="xtick_2">
     <g id="line2d_2">
      <g>
       <use style="stroke:#000000;stroke-width:0.8;" x="105.99904" xlink:href="#m9c12d30949" y="288.430125"/>
      </g>
     </g>
     <g id="text_2">
      <!-- 50 -->
      <defs>
       <path d="M 10.796875 72.90625 
L 49.515625 72.90625 
L 49.515625 64.59375 
L 19.828125 64.59375 
L 19.828125 46.734375 
Q 21.96875 47.46875 24.109375 47.828125 
Q 26.265625 48.1875 28.421875 48.1875 
Q 40.625 48.1875 47.75 41.5 
Q 54.890625 34.8125 54.890625 23.390625 
Q 54.890625 11.625 47.5625 5.09375 
Q 40.234375 -1.421875 26.90625 -1.421875 
Q 22.3125 -1.421875 17.546875 -0.640625 
Q 12.796875 0.140625 7.71875 1.703125 
L 7.71875 11.625 
Q 12.109375 9.234375 16.796875 8.0625 
Q 21.484375 6.890625 26.703125 6.890625 
Q 35.15625 6.890625 40.078125 11.328125 
Q 45.015625 15.765625 45.015625 23.390625 
Q 45.015625 31 40.078125 35.4375 
Q 35.15625 39.890625 26.703125 39.890625 
Q 22.75 39.890625 18.8125 39.015625 
Q 14.890625 38.140625 10.796875 36.28125 
z
" id="DejaVuSans-53"/>
      </defs>
      <g transform="translate(99.63654 303.028562)scale(0.1 -0.1)">
       <use xlink:href="#DejaVuSans-53"/>
       <use x="63.623047" xlink:href="#DejaVuSans-48"/>
      </g>
     </g>
    </g>
    <g id="xtick_3">
     <g id="line2d_3">
      <g>
       <use style="stroke:#000000;stroke-width:0.8;" x="151.984103" xlink:href="#m9c12d30949" y="288.430125"/>
      </g>
     </g>
     <g id="text_3">
      <!-- 100 -->
      <defs>
       <path d="M 12.40625 8.296875 
L 28.515625 8.296875 
L 28.515625 63.921875 
L 10.984375 60.40625 
L 10.984375 69.390625 
L 28.421875 72.90625 
L 38.28125 72.90625 
L 38.28125 8.296875 
L 54.390625 8.296875 
L 54.390625 0 
L 12.40625 0 
z
" id="DejaVuSans-49"/>
      </defs>
      <g transform="translate(142.440353 303.028562)scale(0.1 -0.1)">
       <use xlink:href="#DejaVuSans-49"/>
       <use x="63.623047" xlink:href="#DejaVuSans-48"/>
       <use x="127.246094" xlink:href="#DejaVuSans-48"/>
      </g>
     </g>
    </g>
    <g id="xtick_4">
     <g id="line2d_4">
      <g>
       <use style="stroke:#000000;stroke-width:0.8;" x="197.969167" xlink:href="#m9c12d30949" y="288.430125"/>
      </g>
     </g>
     <g id="text_4">
      <!-- 150 -->
      <g transform="translate(188.425417 303.028562)scale(0.1 -0.1)">
       <use xlink:href="#DejaVuSans-49"/>
       <use x="63.623047" xlink:href="#DejaVuSans-53"/>
       <use x="127.246094" xlink:href="#DejaVuSans-48"/>
      </g>
     </g>
    </g>
    <g id="xtick_5">
     <g id="line2d_5">
      <g>
       <use style="stroke:#000000;stroke-width:0.8;" x="243.95423" xlink:href="#m9c12d30949" y="288.430125"/>
      </g>
     </g>
     <g id="text_5">
      <!-- 200 -->
      <defs>
       <path d="M 19.1875 8.296875 
L 53.609375 8.296875 
L 53.609375 0 
L 7.328125 0 
L 7.328125 8.296875 
Q 12.9375 14.109375 22.625 23.890625 
Q 32.328125 33.6875 34.8125 36.53125 
Q 39.546875 41.84375 41.421875 45.53125 
Q 43.3125 49.21875 43.3125 52.78125 
Q 43.3125 58.59375 39.234375 62.25 
Q 35.15625 65.921875 28.609375 65.921875 
Q 23.96875 65.921875 18.8125 64.3125 
Q 13.671875 62.703125 7.8125 59.421875 
L 7.8125 69.390625 
Q 13.765625 71.78125 18.9375 73 
Q 24.125 74.21875 28.421875 74.21875 
Q 39.75 74.21875 46.484375 68.546875 
Q 53.21875 62.890625 53.21875 53.421875 
Q 53.21875 48.921875 51.53125 44.890625 
Q 49.859375 40.875 45.40625 35.40625 
Q 44.1875 33.984375 37.640625 27.21875 
Q 31.109375 20.453125 19.1875 8.296875 
z
" id="DejaVuSans-50"/>
      </defs>
      <g transform="translate(234.41048 303.028562)scale(0.1 -0.1)">
       <use xlink:href="#DejaVuSans-50"/>
       <use x="63.623047" xlink:href="#DejaVuSans-48"/>
       <use x="127.246094" xlink:href="#DejaVuSans-48"/>
      </g>
     </g>
    </g>
    <g id="xtick_6">
     <g id="line2d_6">
      <g>
       <use style="stroke:#000000;stroke-width:0.8;" x="289.939293" xlink:href="#m9c12d30949" y="288.430125"/>
      </g>
     </g>
     <g id="text_6">
      <!-- 250 -->
      <g transform="translate(280.395543 303.028562)scale(0.1 -0.1)">
       <use xlink:href="#DejaVuSans-50"/>
       <use x="63.623047" xlink:href="#DejaVuSans-53"/>
       <use x="127.246094" xlink:href="#DejaVuSans-48"/>
      </g>
     </g>
    </g>
    <g id="xtick_7">
     <g id="line2d_7">
      <g>
       <use style="stroke:#000000;stroke-width:0.8;" x="335.924356" xlink:href="#m9c12d30949" y="288.430125"/>
      </g>
     </g>
     <g id="text_7">
      <!-- 300 -->
      <defs>
       <path d="M 40.578125 39.3125 
Q 47.65625 37.796875 51.625 33 
Q 55.609375 28.21875 55.609375 21.1875 
Q 55.609375 10.40625 48.1875 4.484375 
Q 40.765625 -1.421875 27.09375 -1.421875 
Q 22.515625 -1.421875 17.65625 -0.515625 
Q 12.796875 0.390625 7.625 2.203125 
L 7.625 11.71875 
Q 11.71875 9.328125 16.59375 8.109375 
Q 21.484375 6.890625 26.8125 6.890625 
Q 36.078125 6.890625 40.9375 10.546875 
Q 45.796875 14.203125 45.796875 21.1875 
Q 45.796875 27.640625 41.28125 31.265625 
Q 36.765625 34.90625 28.71875 34.90625 
L 20.21875 34.90625 
L 20.21875 43.015625 
L 29.109375 43.015625 
Q 36.375 43.015625 40.234375 45.921875 
Q 44.09375 48.828125 44.09375 54.296875 
Q 44.09375 59.90625 40.109375 62.90625 
Q 36.140625 65.921875 28.71875 65.921875 
Q 24.65625 65.921875 20.015625 65.03125 
Q 15.375 64.15625 9.8125 62.3125 
L 9.8125 71.09375 
Q 15.4375 72.65625 20.34375 73.4375 
Q 25.25 74.21875 29.59375 74.21875 
Q 40.828125 74.21875 47.359375 69.109375 
Q 53.90625 64.015625 53.90625 55.328125 
Q 53.90625 49.265625 50.4375 45.09375 
Q 46.96875 40.921875 40.578125 39.3125 
z
" id="DejaVuSans-51"/>
      </defs>
      <g transform="translate(326.380606 303.028562)scale(0.1 -0.1)">
       <use xlink:href="#DejaVuSans-51"/>
       <use x="63.623047" xlink:href="#DejaVuSans-48"/>
       <use x="127.246094" xlink:href="#DejaVuSans-48"/>
      </g>
     </g>
    </g>
    <g id="xtick_8">
     <g id="line2d_8">
      <g>
       <use style="stroke:#000000;stroke-width:0.8;" x="381.909419" xlink:href="#m9c12d30949" y="288.430125"/>
      </g>
     </g>
     <g id="text_8">
      <!-- 350 -->
      <g transform="translate(372.365669 303.028562)scale(0.1 -0.1)">
       <use xlink:href="#DejaVuSans-51"/>
       <use x="63.623047" xlink:href="#DejaVuSans-53"/>
       <use x="127.246094" xlink:href="#DejaVuSans-48"/>
      </g>
     </g>
    </g>
    <g id="text_9">
     <!-- Epoch -->
     <defs>
      <path d="M 9.8125 72.90625 
L 55.90625 72.90625 
L 55.90625 64.59375 
L 19.671875 64.59375 
L 19.671875 43.015625 
L 54.390625 43.015625 
L 54.390625 34.71875 
L 19.671875 34.71875 
L 19.671875 8.296875 
L 56.78125 8.296875 
L 56.78125 0 
L 9.8125 0 
z
" id="DejaVuSans-69"/>
      <path d="M 18.109375 8.203125 
L 18.109375 -20.796875 
L 9.078125 -20.796875 
L 9.078125 54.6875 
L 18.109375 54.6875 
L 18.109375 46.390625 
Q 20.953125 51.265625 25.265625 53.625 
Q 29.59375 56 35.59375 56 
Q 45.5625 56 51.78125 48.09375 
Q 58.015625 40.1875 58.015625 27.296875 
Q 58.015625 14.40625 51.78125 6.484375 
Q 45.5625 -1.421875 35.59375 -1.421875 
Q 29.59375 -1.421875 25.265625 0.953125 
Q 20.953125 3.328125 18.109375 8.203125 
z
M 48.6875 27.296875 
Q 48.6875 37.203125 44.609375 42.84375 
Q 40.53125 48.484375 33.40625 48.484375 
Q 26.265625 48.484375 22.1875 42.84375 
Q 18.109375 37.203125 18.109375 27.296875 
Q 18.109375 17.390625 22.1875 11.75 
Q 26.265625 6.109375 33.40625 6.109375 
Q 40.53125 6.109375 44.609375 11.75 
Q 48.6875 17.390625 48.6875 27.296875 
z
" id="DejaVuSans-112"/>
      <path d="M 30.609375 48.390625 
Q 23.390625 48.390625 19.1875 42.75 
Q 14.984375 37.109375 14.984375 27.296875 
Q 14.984375 17.484375 19.15625 11.84375 
Q 23.34375 6.203125 30.609375 6.203125 
Q 37.796875 6.203125 41.984375 11.859375 
Q 46.1875 17.53125 46.1875 27.296875 
Q 46.1875 37.015625 41.984375 42.703125 
Q 37.796875 48.390625 30.609375 48.390625 
z
M 30.609375 56 
Q 42.328125 56 49.015625 48.375 
Q 55.71875 40.765625 55.71875 27.296875 
Q 55.71875 13.875 49.015625 6.21875 
Q 42.328125 -1.421875 30.609375 -1.421875 
Q 18.84375 -1.421875 12.171875 6.21875 
Q 5.515625 13.875 5.515625 27.296875 
Q 5.515625 40.765625 12.171875 48.375 
Q 18.84375 56 30.609375 56 
z
" id="DejaVuSans-111"/>
      <path d="M 48.78125 52.59375 
L 48.78125 44.1875 
Q 44.96875 46.296875 41.140625 47.34375 
Q 37.3125 48.390625 33.40625 48.390625 
Q 24.65625 48.390625 19.8125 42.84375 
Q 14.984375 37.3125 14.984375 27.296875 
Q 14.984375 17.28125 19.8125 11.734375 
Q 24.65625 6.203125 33.40625 6.203125 
Q 37.3125 6.203125 41.140625 7.25 
Q 44.96875 8.296875 48.78125 10.40625 
L 48.78125 2.09375 
Q 45.015625 0.34375 40.984375 -0.53125 
Q 36.96875 -1.421875 32.421875 -1.421875 
Q 20.0625 -1.421875 12.78125 6.34375 
Q 5.515625 14.109375 5.515625 27.296875 
Q 5.515625 40.671875 12.859375 48.328125 
Q 20.21875 56 33.015625 56 
Q 37.15625 56 41.109375 55.140625 
Q 45.0625 54.296875 48.78125 52.59375 
z
" id="DejaVuSans-99"/>
      <path d="M 54.890625 33.015625 
L 54.890625 0 
L 45.90625 0 
L 45.90625 32.71875 
Q 45.90625 40.484375 42.875 44.328125 
Q 39.84375 48.1875 33.796875 48.1875 
Q 26.515625 48.1875 22.3125 43.546875 
Q 18.109375 38.921875 18.109375 30.90625 
L 18.109375 0 
L 9.078125 0 
L 9.078125 75.984375 
L 18.109375 75.984375 
L 18.109375 46.1875 
Q 21.34375 51.125 25.703125 53.5625 
Q 30.078125 56 35.796875 56 
Q 45.21875 56 50.046875 50.171875 
Q 54.890625 44.34375 54.890625 33.015625 
z
" id="DejaVuSans-104"/>
     </defs>
     <g transform="translate(207.030313 316.706687)scale(0.1 -0.1)">
      <use xlink:href="#DejaVuSans-69"/>
      <use x="63.183594" xlink:href="#DejaVuSans-112"/>
      <use x="126.660156" xlink:href="#DejaVuSans-111"/>
      <use x="187.841797" xlink:href="#DejaVuSans-99"/>
      <use x="242.822266" xlink:href="#DejaVuSans-104"/>
     </g>
    </g>
   </g>
   <g id="matplotlib.axis_2">
    <g id="ytick_1">
     <g id="line2d_9">
      <defs>
       <path d="M 0 0 
L -3.5 0 
" id="mcf3b51f1ea" style="stroke:#000000;stroke-width:0.8;"/>
      </defs>
      <g>
       <use style="stroke:#000000;stroke-width:0.8;" x="43.78125" xlink:href="#mcf3b51f1ea" y="276.318262"/>
      </g>
     </g>
     <g id="text_10">
      <!-- 0.0 -->
      <defs>
       <path d="M 10.6875 12.40625 
L 21 12.40625 
L 21 0 
L 10.6875 0 
z
" id="DejaVuSans-46"/>
      </defs>
      <g transform="translate(20.878125 280.117481)scale(0.1 -0.1)">
       <use xlink:href="#DejaVuSans-48"/>
       <use x="63.623047" xlink:href="#DejaVuSans-46"/>
       <use x="95.410156" xlink:href="#DejaVuSans-48"/>
      </g>
     </g>
    </g>
    <g id="ytick_2">
     <g id="line2d_10">
      <g>
       <use style="stroke:#000000;stroke-width:0.8;" x="43.78125" xlink:href="#mcf3b51f1ea" y="228.088724"/>
      </g>
     </g>
     <g id="text_11">
      <!-- 0.2 -->
      <g transform="translate(20.878125 231.887942)scale(0.1 -0.1)">
       <use xlink:href="#DejaVuSans-48"/>
       <use x="63.623047" xlink:href="#DejaVuSans-46"/>
       <use x="95.410156" xlink:href="#DejaVuSans-50"/>
      </g>
     </g>
    </g>
    <g id="ytick_3">
     <g id="line2d_11">
      <g>
       <use style="stroke:#000000;stroke-width:0.8;" x="43.78125" xlink:href="#mcf3b51f1ea" y="179.859185"/>
      </g>
     </g>
     <g id="text_12">
      <!-- 0.4 -->
      <defs>
       <path d="M 37.796875 64.3125 
L 12.890625 25.390625 
L 37.796875 25.390625 
z
M 35.203125 72.90625 
L 47.609375 72.90625 
L 47.609375 25.390625 
L 58.015625 25.390625 
L 58.015625 17.1875 
L 47.609375 17.1875 
L 47.609375 0 
L 37.796875 0 
L 37.796875 17.1875 
L 4.890625 17.1875 
L 4.890625 26.703125 
z
" id="DejaVuSans-52"/>
      </defs>
      <g transform="translate(20.878125 183.658404)scale(0.1 -0.1)">
       <use xlink:href="#DejaVuSans-48"/>
       <use x="63.623047" xlink:href="#DejaVuSans-46"/>
       <use x="95.410156" xlink:href="#DejaVuSans-52"/>
      </g>
     </g>
    </g>
    <g id="ytick_4">
     <g id="line2d_12">
      <g>
       <use style="stroke:#000000;stroke-width:0.8;" x="43.78125" xlink:href="#mcf3b51f1ea" y="131.629646"/>
      </g>
     </g>
     <g id="text_13">
      <!-- 0.6 -->
      <defs>
       <path d="M 33.015625 40.375 
Q 26.375 40.375 22.484375 35.828125 
Q 18.609375 31.296875 18.609375 23.390625 
Q 18.609375 15.53125 22.484375 10.953125 
Q 26.375 6.390625 33.015625 6.390625 
Q 39.65625 6.390625 43.53125 10.953125 
Q 47.40625 15.53125 47.40625 23.390625 
Q 47.40625 31.296875 43.53125 35.828125 
Q 39.65625 40.375 33.015625 40.375 
z
M 52.59375 71.296875 
L 52.59375 62.3125 
Q 48.875 64.0625 45.09375 64.984375 
Q 41.3125 65.921875 37.59375 65.921875 
Q 27.828125 65.921875 22.671875 59.328125 
Q 17.53125 52.734375 16.796875 39.40625 
Q 19.671875 43.65625 24.015625 45.921875 
Q 28.375 48.1875 33.59375 48.1875 
Q 44.578125 48.1875 50.953125 41.515625 
Q 57.328125 34.859375 57.328125 23.390625 
Q 57.328125 12.15625 50.6875 5.359375 
Q 44.046875 -1.421875 33.015625 -1.421875 
Q 20.359375 -1.421875 13.671875 8.265625 
Q 6.984375 17.96875 6.984375 36.375 
Q 6.984375 53.65625 15.1875 63.9375 
Q 23.390625 74.21875 37.203125 74.21875 
Q 40.921875 74.21875 44.703125 73.484375 
Q 48.484375 72.75 52.59375 71.296875 
z
" id="DejaVuSans-54"/>
      </defs>
      <g transform="translate(20.878125 135.428865)scale(0.1 -0.1)">
       <use xlink:href="#DejaVuSans-48"/>
       <use x="63.623047" xlink:href="#DejaVuSans-46"/>
       <use x="95.410156" xlink:href="#DejaVuSans-54"/>
      </g>
     </g>
    </g>
    <g id="ytick_5">
     <g id="line2d_13">
      <g>
       <use style="stroke:#000000;stroke-width:0.8;" x="43.78125" xlink:href="#mcf3b51f1ea" y="83.400108"/>
      </g>
     </g>
     <g id="text_14">
      <!-- 0.8 -->
      <defs>
       <path d="M 31.78125 34.625 
Q 24.75 34.625 20.71875 30.859375 
Q 16.703125 27.09375 16.703125 20.515625 
Q 16.703125 13.921875 20.71875 10.15625 
Q 24.75 6.390625 31.78125 6.390625 
Q 38.8125 6.390625 42.859375 10.171875 
Q 46.921875 13.96875 46.921875 20.515625 
Q 46.921875 27.09375 42.890625 30.859375 
Q 38.875 34.625 31.78125 34.625 
z
M 21.921875 38.8125 
Q 15.578125 40.375 12.03125 44.71875 
Q 8.5 49.078125 8.5 55.328125 
Q 8.5 64.0625 14.71875 69.140625 
Q 20.953125 74.21875 31.78125 74.21875 
Q 42.671875 74.21875 48.875 69.140625 
Q 55.078125 64.0625 55.078125 55.328125 
Q 55.078125 49.078125 51.53125 44.71875 
Q 48 40.375 41.703125 38.8125 
Q 48.828125 37.15625 52.796875 32.3125 
Q 56.78125 27.484375 56.78125 20.515625 
Q 56.78125 9.90625 50.3125 4.234375 
Q 43.84375 -1.421875 31.78125 -1.421875 
Q 19.734375 -1.421875 13.25 4.234375 
Q 6.78125 9.90625 6.78125 20.515625 
Q 6.78125 27.484375 10.78125 32.3125 
Q 14.796875 37.15625 21.921875 38.8125 
z
M 18.3125 54.390625 
Q 18.3125 48.734375 21.84375 45.5625 
Q 25.390625 42.390625 31.78125 42.390625 
Q 38.140625 42.390625 41.71875 45.5625 
Q 45.3125 48.734375 45.3125 54.390625 
Q 45.3125 60.0625 41.71875 63.234375 
Q 38.140625 66.40625 31.78125 66.40625 
Q 25.390625 66.40625 21.84375 63.234375 
Q 18.3125 60.0625 18.3125 54.390625 
z
" id="DejaVuSans-56"/>
      </defs>
      <g transform="translate(20.878125 87.199327)scale(0.1 -0.1)">
       <use xlink:href="#DejaVuSans-48"/>
       <use x="63.623047" xlink:href="#DejaVuSans-46"/>
       <use x="95.410156" xlink:href="#DejaVuSans-56"/>
      </g>
     </g>
    </g>
    <g id="ytick_6">
     <g id="line2d_14">
      <g>
       <use style="stroke:#000000;stroke-width:0.8;" x="43.78125" xlink:href="#mcf3b51f1ea" y="35.170569"/>
      </g>
     </g>
     <g id="text_15">
      <!-- 1.0 -->
      <g transform="translate(20.878125 38.969788)scale(0.1 -0.1)">
       <use xlink:href="#DejaVuSans-49"/>
       <use x="63.623047" xlink:href="#DejaVuSans-46"/>
       <use x="95.410156" xlink:href="#DejaVuSans-48"/>
      </g>
     </g>
    </g>
    <g id="text_16">
     <!-- Loss -->
     <defs>
      <path d="M 9.8125 72.90625 
L 19.671875 72.90625 
L 19.671875 8.296875 
L 55.171875 8.296875 
L 55.171875 0 
L 9.8125 0 
z
" id="DejaVuSans-76"/>
      <path d="M 44.28125 53.078125 
L 44.28125 44.578125 
Q 40.484375 46.53125 36.375 47.5 
Q 32.28125 48.484375 27.875 48.484375 
Q 21.1875 48.484375 17.84375 46.4375 
Q 14.5 44.390625 14.5 40.28125 
Q 14.5 37.15625 16.890625 35.375 
Q 19.28125 33.59375 26.515625 31.984375 
L 29.59375 31.296875 
Q 39.15625 29.25 43.1875 25.515625 
Q 47.21875 21.78125 47.21875 15.09375 
Q 47.21875 7.46875 41.1875 3.015625 
Q 35.15625 -1.421875 24.609375 -1.421875 
Q 20.21875 -1.421875 15.453125 -0.5625 
Q 10.6875 0.296875 5.421875 2 
L 5.421875 11.28125 
Q 10.40625 8.6875 15.234375 7.390625 
Q 20.0625 6.109375 24.8125 6.109375 
Q 31.15625 6.109375 34.5625 8.28125 
Q 37.984375 10.453125 37.984375 14.40625 
Q 37.984375 18.0625 35.515625 20.015625 
Q 33.0625 21.96875 24.703125 23.78125 
L 21.578125 24.515625 
Q 13.234375 26.265625 9.515625 29.90625 
Q 5.8125 33.546875 5.8125 39.890625 
Q 5.8125 47.609375 11.28125 51.796875 
Q 16.75 56 26.8125 56 
Q 31.78125 56 36.171875 55.265625 
Q 40.578125 54.546875 44.28125 53.078125 
z
" id="DejaVuSans-115"/>
     </defs>
     <g transform="translate(14.798438 166.428031)rotate(-90)scale(0.1 -0.1)">
      <use xlink:href="#DejaVuSans-76"/>
      <use x="55.697266" xlink:href="#DejaVuSans-111"/>
      <use x="116.878906" xlink:href="#DejaVuSans-115"/>
      <use x="168.978516" xlink:href="#DejaVuSans-115"/>
     </g>
    </g>
   </g>
   <g id="line2d_15">
    <path clip-path="url(#p29ad8dc7eb)" d="M 60.013977 221.183464 
L 60.933679 263.769633 
L 61.85338 276.318262 
L 62.773081 231.300026 
L 63.692782 265.224393 
L 64.612484 273.519004 
L 65.532185 194.942835 
L 66.451886 227.52795 
L 67.371587 234.913572 
L 68.291289 200.695864 
L 69.21099 232.494883 
L 70.130691 238.976197 
L 71.050392 204.37812 
L 71.970094 232.691731 
L 72.889795 240.127083 
L 73.809496 211.504743 
L 74.729197 231.886543 
L 75.648899 237.689492 
L 76.5686 199.882629 
L 77.488301 224.962926 
L 78.408003 234.283668 
L 79.327704 164.936672 
L 80.247405 200.896844 
L 81.167106 210.694909 
L 82.086808 179.030691 
L 83.006509 195.781296 
L 83.92621 205.102873 
L 84.845911 138.364209 
L 86.685314 178.403562 
L 87.605015 134.725318 
L 88.524716 160.405509 
L 89.444418 164.956282 
L 90.364119 122.980325 
L 91.28382 133.366433 
L 92.203521 135.267611 
L 93.123223 80.079386 
L 94.042924 106.294298 
L 94.962625 123.812988 
L 95.882326 79.987251 
L 96.802028 100.442832 
L 97.721729 98.004963 
L 99.561132 111.664482 
L 100.480833 120.790229 
L 101.400534 105.520237 
L 102.320235 108.05683 
L 103.239937 103.622886 
L 104.159638 143.614621 
L 105.079339 151.252188 
L 105.99904 114.222378 
L 106.918742 121.90265 
L 107.838443 122.12201 
L 108.758144 86.622077 
L 109.677845 101.755624 
L 110.597547 83.007148 
L 111.517248 35.170569 
L 112.436949 101.594596 
L 113.35665 94.709201 
L 114.276352 83.029982 
L 115.196053 103.772979 
L 116.115754 98.800966 
L 117.035456 95.559326 
L 117.955157 104.629707 
L 118.874858 98.886064 
L 119.794559 82.669219 
L 120.714261 96.72172 
L 122.553663 82.072099 
L 123.473364 99.176882 
L 124.393066 99.541055 
L 125.312767 93.40496 
L 126.232468 107.191347 
L 127.152169 99.387056 
L 128.071871 102.860103 
L 128.991572 104.528056 
L 129.911273 102.925916 
L 130.830974 105.7365 
L 131.750676 100.54992 
L 132.670377 103.590606 
L 133.590078 102.570616 
L 134.509779 106.28957 
L 135.429481 102.786879 
L 136.349182 100.711365 
L 137.268883 105.688397 
L 139.108286 95.533413 
L 140.027987 113.606535 
L 140.947688 114.535512 
L 141.86739 112.033039 
L 142.787091 106.204629 
L 143.706792 107.134041 
L 144.626493 98.864857 
L 145.546195 103.385842 
L 146.465896 101.454028 
L 147.385597 98.280594 
L 148.305298 106.847651 
L 149.225 108.472581 
L 150.144701 105.948431 
L 151.064402 92.257736 
L 151.984103 94.393757 
L 152.903805 97.560068 
L 153.823506 101.469772 
L 154.743207 96.829547 
L 155.662909 89.676829 
L 156.58261 107.026632 
L 157.502311 107.590384 
L 158.422012 105.773947 
L 160.261415 104.994089 
L 161.181116 105.32492 
L 162.100817 100.034253 
L 163.020519 98.769599 
L 163.94022 93.043458 
L 164.859921 107.406279 
L 165.779622 104.855164 
L 166.699324 98.826696 
L 167.619025 104.420751 
L 168.538726 107.814728 
L 169.458427 107.98989 
L 170.378129 101.575703 
L 171.29783 99.291085 
L 172.217531 99.94211 
L 173.137232 100.19635 
L 174.056934 99.845904 
L 175.896336 100.911805 
L 176.816038 99.068664 
L 177.735739 96.691441 
L 178.65544 110.703242 
L 179.575141 108.640967 
L 180.494843 98.240911 
L 181.414544 103.38566 
L 182.334245 102.66563 
L 183.253946 100.991962 
L 184.173648 97.716476 
L 185.093349 97.291788 
L 186.01305 92.969598 
L 186.932751 106.859237 
L 187.852453 107.648708 
L 188.772154 108.795836 
L 189.691855 97.458312 
L 190.611556 95.890758 
L 191.531258 96.018505 
L 192.450959 104.655307 
L 193.37066 104.937679 
L 194.290362 103.972446 
L 195.210063 100.125483 
L 197.049465 98.992525 
L 197.969167 104.710273 
L 198.888868 98.908811 
L 199.808569 102.636177 
L 200.72827 101.177084 
L 201.647972 104.341211 
L 202.567673 101.414589 
L 203.487374 102.964712 
L 204.407075 105.115755 
L 205.326777 104.858809 
L 206.246478 98.529137 
L 207.166179 99.545752 
L 208.08588 95.094659 
L 209.925283 106.431426 
L 210.844984 107.078875 
L 211.764685 105.679846 
L 212.684387 104.485938 
L 213.604088 96.044409 
L 214.523789 99.856203 
L 215.443491 102.647928 
L 216.363192 103.257435 
L 217.282893 100.565951 
L 218.202594 96.308183 
L 219.122296 95.171789 
L 220.041997 104.489034 
L 220.961698 103.129279 
L 221.881399 104.063902 
L 222.801101 97.658257 
L 223.720802 99.050875 
L 224.640503 101.165837 
L 225.560204 109.82536 
L 226.479906 103.998837 
L 227.399607 102.469347 
L 228.319308 103.198276 
L 229.239009 115.505277 
L 230.158711 115.353801 
L 231.078412 103.943271 
L 231.998113 106.615878 
L 232.917815 105.233394 
L 233.837516 75.704527 
L 234.757217 91.127823 
L 235.676918 89.345153 
L 236.59662 104.162378 
L 237.516321 102.130157 
L 238.436022 103.612883 
L 239.355723 104.301068 
L 240.275425 103.513433 
L 241.195126 108.967719 
L 242.114827 97.88421 
L 243.034528 102.119979 
L 243.95423 99.922033 
L 244.873931 87.066729 
L 245.793632 93.922027 
L 246.713333 87.774824 
L 247.633035 99.759484 
L 248.552736 103.414147 
L 249.472437 103.224267 
L 250.392138 107.770183 
L 251.31184 102.089265 
L 252.231541 102.921349 
L 253.151242 107.691122 
L 254.070944 106.607597 
L 254.990645 101.859162 
L 255.910346 102.1026 
L 256.830047 96.742562 
L 257.749749 96.537103 
L 258.66945 96.84022 
L 259.589151 98.228637 
L 260.508852 97.340499 
L 261.428554 105.303156 
L 262.348255 98.61634 
L 263.267956 97.974266 
L 264.187657 103.578593 
L 265.107359 105.30153 
L 266.02706 106.670844 
L 266.946761 97.258368 
L 267.866462 98.089548 
L 268.786164 97.000813 
L 269.705865 98.460662 
L 270.625566 93.860615 
L 271.545268 98.319154 
L 272.464969 105.344613 
L 273.38467 106.093723 
L 274.304371 107.278063 
L 275.224073 95.856747 
L 276.143774 96.612945 
L 277.063475 95.269943 
L 277.983176 109.580426 
L 278.902878 106.047003 
L 279.822579 110.517946 
L 280.74228 102.164542 
L 281.661981 104.641346 
L 282.581683 103.354041 
L 283.501384 92.986204 
L 284.421085 92.22336 
L 285.340786 91.090845 
L 286.260488 87.480092 
L 287.180189 87.060761 
L 288.09989 94.959684 
L 289.019591 101.67872 
L 289.939293 101.465319 
L 290.858994 101.896305 
L 291.778695 104.869656 
L 292.698397 102.878822 
L 293.618098 105.20816 
L 294.537799 98.655161 
L 295.4575 98.22354 
L 296.377202 99.86384 
L 297.296903 102.637473 
L 298.216604 102.104861 
L 299.136305 102.920549 
L 300.056007 97.498734 
L 300.975708 100.200517 
L 301.895409 98.694827 
L 302.81511 107.137912 
L 303.734812 105.140337 
L 304.654513 104.482884 
L 305.574214 102.894071 
L 306.493915 103.845951 
L 307.413617 102.67559 
L 308.333318 104.048332 
L 309.253019 107.153535 
L 310.172721 104.589415 
L 311.092422 88.28542 
L 312.012123 88.254009 
L 312.931824 93.941007 
L 313.851526 105.406364 
L 314.771227 103.210315 
L 315.690928 102.450628 
L 316.610629 94.751267 
L 317.530331 96.877894 
L 318.450032 96.040381 
L 319.369733 100.892625 
L 320.289434 96.857931 
L 321.209136 83.929315 
L 322.128837 97.282063 
L 323.048538 97.307436 
L 323.968239 97.467689 
L 324.887941 99.975842 
L 325.807642 99.776576 
L 326.727343 99.333099 
L 327.647044 99.40461 
L 328.566746 103.495061 
L 329.486447 102.310103 
L 330.406148 101.671435 
L 331.32585 103.291381 
L 332.245551 104.203374 
L 333.165252 104.453414 
L 334.084953 103.467565 
L 335.004655 105.600463 
L 335.924356 95.596339 
L 336.844057 102.688942 
L 337.763758 102.522939 
L 338.68346 96.608909 
L 339.603161 94.491468 
L 340.522862 94.373681 
L 341.442563 98.785187 
L 342.362265 86.649938 
L 343.281966 88.258619 
L 344.201667 98.74045 
L 345.121368 106.194217 
L 346.04107 101.626816 
L 346.960771 96.340472 
L 347.880472 101.483716 
L 348.800174 94.089265 
L 349.719875 102.033429 
L 350.639576 102.776806 
L 351.559277 101.778753 
L 352.478979 100.321809 
L 353.39868 98.566367 
L 354.318381 98.719113 
L 355.238082 101.572276 
L 356.157784 103.560883 
L 357.077485 104.753391 
L 357.997186 99.197228 
L 358.916887 101.397518 
L 359.836589 101.972674 
L 360.75629 90.410306 
L 361.675991 94.543494 
L 362.595692 91.413743 
L 363.515394 95.898317 
L 364.435095 94.433057 
L 366.274497 99.979357 
L 367.194199 97.875346 
L 368.1139 96.227896 
L 369.033601 108.038715 
L 369.953303 96.301755 
L 370.873004 94.773179 
L 371.792705 103.182244 
L 372.712406 103.775615 
L 373.632108 101.881561 
L 374.551809 94.383928 
L 375.47151 92.103198 
L 376.391211 98.872973 
L 377.310913 102.262774 
L 378.230614 95.135281 
L 379.150315 99.238259 
L 380.070016 95.422994 
L 380.989718 102.482726 
L 381.909419 97.385954 
L 382.82912 100.717801 
L 383.748821 94.296134 
L 384.668523 95.484493 
L 384.668523 95.484493 
" style="fill:none;stroke:#1f77b4;stroke-linecap:square;stroke-opacity:0.3;stroke-width:1.5;"/>
   </g>
   <g id="line2d_16">
    <path clip-path="url(#p29ad8dc7eb)" d="M 60.013977 227.960976 
L 60.933679 252.754992 
L 61.85338 263.6849 
L 62.773081 263.89684 
L 63.692782 256.53695 
L 65.532185 231.784764 
L 67.371587 224.810767 
L 68.291289 217.357561 
L 69.21099 220.606212 
L 70.130691 226.939821 
L 71.050392 223.801571 
L 71.970094 228.104367 
L 72.889795 229.200577 
L 73.809496 223.981977 
L 74.729197 229.078755 
L 75.648899 227.044462 
L 76.5686 217.689557 
L 77.488301 214.511563 
L 78.408003 209.840251 
L 79.327704 200.784899 
L 80.247405 201.797773 
L 81.167106 198.825843 
L 82.086808 187.50783 
L 83.006509 184.958922 
L 83.92621 181.734983 
L 84.845911 169.131417 
L 86.685314 160.690504 
L 87.605015 152.261817 
L 88.524716 152.061596 
L 89.444418 149.452068 
L 90.364119 135.888186 
L 92.203521 121.658612 
L 93.123223 109.976769 
L 94.042924 102.569739 
L 94.962625 100.42881 
L 95.882326 96.185511 
L 96.802028 98.83363 
L 97.721729 105.102029 
L 98.64143 104.669006 
L 99.561132 102.881194 
L 102.320235 119.003538 
L 103.239937 122.030383 
L 104.159638 127.233039 
L 105.079339 127.10143 
L 105.99904 128.015688 
L 106.918742 126.888959 
L 108.758144 95.391877 
L 109.677845 87.268994 
L 110.597547 82.549 
L 111.517248 78.660176 
L 112.436949 79.915896 
L 113.35665 84.883486 
L 114.276352 88.827999 
L 115.196053 97.795228 
L 116.115754 102.364013 
L 117.035456 97.206748 
L 117.955157 98.320635 
L 118.874858 96.062308 
L 119.794559 92.025737 
L 120.714261 91.798319 
L 121.633962 90.367895 
L 122.553663 90.847789 
L 123.473364 93.397921 
L 124.393066 96.676781 
L 125.312767 98.083153 
L 126.232468 100.910842 
L 127.152169 103.322896 
L 128.071871 102.668819 
L 128.991572 103.450125 
L 129.911273 103.701148 
L 130.830974 103.015225 
L 131.750676 104.044139 
L 132.670377 103.26867 
L 133.590078 103.407208 
L 134.509779 103.95009 
L 135.429481 102.012881 
L 136.349182 101.832982 
L 137.268883 102.276304 
L 138.188585 104.113677 
L 139.108286 105.498321 
L 140.027987 108.089391 
L 140.947688 108.87143 
L 141.86739 108.805254 
L 142.787091 108.959979 
L 143.706792 106.642133 
L 144.626493 102.709767 
L 145.546195 101.685699 
L 146.465896 103.042315 
L 147.385597 103.606792 
L 149.225 102.30733 
L 150.144701 101.193388 
L 151.064402 100.925833 
L 151.984103 98.061888 
L 152.903805 95.593567 
L 153.823506 95.659427 
L 154.743207 97.556391 
L 155.662909 100.638874 
L 156.58261 102.123114 
L 157.502311 103.820628 
L 158.422012 105.076194 
L 159.341714 106.637498 
L 160.261415 104.968674 
L 161.181116 101.956063 
L 162.100817 101.491086 
L 163.020519 100.680344 
L 163.94022 100.066917 
L 164.859921 100.381448 
L 165.779622 102.084418 
L 166.699324 104.190828 
L 167.619025 105.152056 
L 168.538726 105.262722 
L 169.458427 103.464395 
L 170.378129 103.009141 
L 171.29783 102.374503 
L 172.217531 100.861793 
L 173.137232 99.966391 
L 174.056934 98.438895 
L 174.976635 99.109579 
L 175.896336 101.023263 
L 177.735739 102.446442 
L 179.575141 103.936514 
L 180.494843 103.985866 
L 181.414544 103.834696 
L 183.253946 98.273239 
L 184.173648 98.199276 
L 185.093349 100.551572 
L 186.932751 102.073338 
L 187.852453 101.808 
L 189.691855 102.011176 
L 190.611556 102.131287 
L 191.531258 100.599532 
L 193.37066 100.420004 
L 194.290362 102.300702 
L 195.210063 102.329338 
L 196.129764 101.917201 
L 197.049465 100.524681 
L 197.969167 100.695875 
L 198.888868 101.090574 
L 200.72827 102.164224 
L 201.647972 103.130425 
L 202.567673 103.093953 
L 203.487374 103.892298 
L 206.246478 100.177841 
L 207.166179 100.358209 
L 208.08588 100.662668 
L 209.005582 102.049157 
L 210.844984 103.66115 
L 211.764685 103.620012 
L 212.684387 103.763016 
L 213.604088 102.823273 
L 214.523789 101.536676 
L 215.443491 99.742395 
L 216.363192 99.236315 
L 217.282893 99.392544 
L 218.202594 100.848688 
L 219.122296 100.597823 
L 220.041997 100.204737 
L 220.961698 99.63317 
L 222.801101 102.368221 
L 223.720802 102.820632 
L 224.640503 101.371372 
L 225.560204 102.241501 
L 226.479906 105.032859 
L 227.399607 107.394139 
L 228.319308 108.511582 
L 229.239009 111.226242 
L 231.078412 106.71582 
L 232.917815 97.278627 
L 233.837516 93.191391 
L 234.757217 92.233364 
L 236.59662 95.17353 
L 238.436022 104.700682 
L 239.355723 104.854546 
L 240.275425 106.06879 
L 241.195126 103.463522 
L 242.114827 102.1947 
L 243.034528 98.660181 
L 243.95423 95.635793 
L 244.873931 93.938889 
L 245.793632 92.947993 
L 246.713333 95.227949 
L 247.633035 96.855478 
L 248.552736 99.317985 
L 249.472437 102.766623 
L 250.392138 104.671743 
L 251.31184 106.193782 
L 252.231541 105.76426 
L 253.151242 105.112452 
L 254.070944 104.013979 
L 254.990645 102.222904 
L 255.910346 101.204937 
L 256.830047 98.760087 
L 257.749749 97.71684 
L 259.589151 97.858348 
L 260.508852 98.231514 
L 261.428554 99.492887 
L 262.348255 101.458893 
L 263.267956 102.457384 
L 264.187657 102.801386 
L 265.107359 102.402782 
L 266.946761 101.028654 
L 268.786164 97.19737 
L 269.705865 96.792788 
L 270.625566 98.785157 
L 271.545268 101.054351 
L 272.464969 101.996432 
L 273.38467 101.13816 
L 275.224073 101.37659 
L 276.143774 101.808792 
L 277.063475 101.698091 
L 277.983176 102.646631 
L 278.902878 104.867129 
L 279.822579 106.718259 
L 280.74228 105.962079 
L 281.661981 103.891289 
L 283.501384 95.795166 
L 284.421085 91.85976 
L 285.340786 90.623369 
L 286.260488 90.068458 
L 287.180189 91.269558 
L 288.09989 94.538211 
L 289.019591 97.176515 
L 289.939293 100.651794 
L 290.858994 103.284096 
L 291.778695 104.007073 
L 293.618098 101.827445 
L 294.537799 101.319927 
L 295.4575 101.3287 
L 296.377202 100.678749 
L 297.296903 100.703604 
L 298.216604 99.847492 
L 299.136305 100.630883 
L 300.975708 101.575119 
L 301.895409 101.910727 
L 302.81511 102.766127 
L 304.654513 104.109114 
L 305.574214 104.356377 
L 306.493915 105.860099 
L 307.413617 104.896121 
L 308.333318 103.141234 
L 309.253019 100.015026 
L 310.172721 98.155792 
L 311.092422 96.909269 
L 312.012123 97.105987 
L 312.931824 96.818153 
L 313.851526 97.091693 
L 314.771227 98.071923 
L 315.690928 100.468142 
L 316.610629 101.446394 
L 318.450032 95.778098 
L 319.369733 94.828625 
L 320.289434 94.338973 
L 321.209136 94.956431 
L 322.128837 95.16883 
L 323.048538 95.866496 
L 323.968239 96.306336 
L 325.807642 100.59736 
L 326.727343 100.167241 
L 330.406148 102.684988 
L 331.32585 104.165597 
L 332.245551 103.83164 
L 333.165252 103.1757 
L 334.084953 103.447828 
L 335.004655 103.137127 
L 335.924356 101.950542 
L 336.844057 100.060221 
L 337.763758 99.582835 
L 338.68346 98.194923 
L 339.603161 95.505528 
L 340.522862 93.757926 
L 341.442563 92.601587 
L 342.362265 93.714704 
L 343.281966 95.061919 
L 344.201667 97.1384 
L 345.121368 97.814844 
L 346.04107 98.690894 
L 346.960771 100.757771 
L 347.880472 100.911907 
L 348.800174 100.032449 
L 349.719875 99.582365 
L 351.559277 100.406999 
L 352.478979 100.172065 
L 353.39868 101.409536 
L 354.318381 100.809369 
L 355.238082 100.925311 
L 356.157784 102.342092 
L 357.077485 102.274421 
L 357.997186 101.805031 
L 359.836589 97.729207 
L 360.75629 95.599927 
L 361.675991 94.063344 
L 362.595692 94.084758 
L 363.515394 94.23779 
L 364.435095 94.184056 
L 365.354796 97.196359 
L 366.274497 98.544613 
L 367.194199 98.944226 
L 368.1139 98.917048 
L 369.033601 99.673643 
L 369.953303 100.614802 
L 370.873004 101.022926 
L 371.792705 100.360382 
L 372.712406 99.113261 
L 373.632108 98.323552 
L 374.551809 98.804099 
L 375.47151 98.469756 
L 376.391211 96.599959 
L 377.310913 96.852232 
L 378.230614 97.421168 
L 379.150315 99.172119 
L 380.070016 99.388543 
L 380.989718 99.00903 
L 381.909419 98.344793 
L 383.748821 96.468452 
L 384.668523 95.409497 
L 384.668523 95.409497 
" style="fill:none;stroke:#1f77b4;stroke-linecap:square;stroke-width:1.5;"/>
   </g>
   <g id="line2d_17">
    <path clip-path="url(#p29ad8dc7eb)" d="M 60.013977 162.513844 
L 61.85338 276.318262 
L 62.773081 233.947346 
L 63.692782 250.15863 
L 64.612484 255.267761 
L 65.532185 210.234124 
L 66.451886 224.798953 
L 67.371587 230.697845 
L 68.291289 187.270103 
L 69.21099 204.929843 
L 70.130691 216.783907 
L 71.050392 194.753164 
L 71.970094 216.485337 
L 72.889795 229.679541 
L 73.809496 214.209561 
L 74.729197 236.209685 
L 75.648899 247.530583 
L 76.5686 235.050371 
L 77.488301 258.787395 
L 78.408003 270.632769 
L 79.327704 216.809045 
L 80.247405 236.333467 
L 81.167106 248.165809 
L 82.086808 207.152795 
L 83.006509 229.244219 
L 83.92621 243.196742 
L 84.845911 194.201557 
L 85.765613 211.627574 
L 86.685314 219.936159 
L 87.605015 213.985064 
L 88.524716 239.778556 
L 89.444418 253.625396 
L 90.364119 135.644617 
L 91.28382 145.462405 
L 92.203521 148.312451 
L 93.123223 181.321502 
L 94.042924 192.271189 
L 94.962625 193.774182 
L 95.882326 155.998731 
L 96.802028 158.743364 
L 97.721729 156.251282 
L 98.64143 142.401948 
L 99.561132 141.741481 
L 100.480833 136.528491 
L 101.400534 165.871314 
L 102.320235 168.111511 
L 103.239937 165.341479 
L 104.159638 230.021907 
L 105.079339 229.555498 
L 105.99904 231.057726 
L 106.918742 142.715522 
L 107.838443 135.03457 
L 108.758144 131.889743 
L 109.677845 79.00944 
L 110.597547 69.459593 
L 111.517248 66.847248 
L 112.436949 66.838553 
L 113.35665 59.121816 
L 114.276352 58.551137 
L 115.196053 57.839206 
L 116.115754 52.643244 
L 117.035456 52.633524 
L 117.955157 51.350176 
L 118.874858 48.196583 
L 119.794559 48.182669 
L 120.714261 46.929418 
L 121.633962 44.892594 
L 122.553663 44.894826 
L 124.393066 42.259619 
L 125.312767 42.27474 
L 126.232468 41.045449 
L 127.152169 40.33458 
L 128.071871 40.336632 
L 128.991572 39.41852 
L 129.911273 38.92177 
L 130.830974 38.931527 
L 131.750676 38.221144 
L 132.670377 37.89065 
L 133.590078 37.890902 
L 134.509779 37.365207 
L 135.429481 37.118884 
L 136.349182 37.127308 
L 137.268883 36.660584 
L 139.108286 36.558124 
L 140.027987 36.195354 
L 141.86739 36.122685 
L 142.787091 35.783262 
L 144.626493 35.74276 
L 145.546195 35.532943 
L 150.144701 35.381971 
L 151.064402 35.22126 
L 156.58261 35.300175 
L 158.422012 35.531251 
L 159.341714 35.170569 
L 163.94022 35.643612 
L 165.779622 36.091975 
L 166.699324 36.3851 
L 167.619025 36.067818 
L 169.458427 36.184607 
L 170.378129 36.564154 
L 172.217531 36.798938 
L 173.137232 38.058435 
L 174.976635 38.749611 
L 175.896336 39.738286 
L 177.735739 39.803917 
L 178.65544 42.651892 
L 179.575141 43.658028 
L 180.494843 43.631333 
L 181.414544 42.810533 
L 182.334245 42.806087 
L 183.253946 42.924802 
L 184.173648 45.281501 
L 185.093349 46.122911 
L 186.01305 46.552086 
L 186.932751 42.639616 
L 188.772154 42.762003 
L 189.691855 43.55699 
L 190.611556 42.842017 
L 191.531258 42.45329 
L 192.450959 44.551713 
L 193.37066 45.401062 
L 194.290362 45.54901 
L 195.210063 45.382611 
L 196.129764 45.058615 
L 197.049465 44.891118 
L 197.969167 45.652335 
L 198.888868 45.899503 
L 200.72827 46.025527 
L 201.647972 45.780968 
L 202.567673 45.676636 
L 203.487374 42.54414 
L 204.407075 42.115505 
L 205.326777 42.05063 
L 206.246478 43.823815 
L 207.166179 43.879636 
L 208.08588 43.821187 
L 209.005582 46.919086 
L 209.925283 47.326804 
L 210.844984 47.51394 
L 211.764685 43.392373 
L 213.604088 43.130479 
L 214.523789 44.476344 
L 215.443491 45.034872 
L 216.363192 45.355322 
L 217.282893 42.279456 
L 218.202594 42.51181 
L 219.122296 42.5987 
L 220.041997 43.820611 
L 221.881399 44.06067 
L 222.801101 48.223188 
L 223.720802 49.206661 
L 224.640503 49.485421 
L 225.560204 46.2415 
L 226.479906 45.665691 
L 227.399607 45.686572 
L 228.319308 48.408921 
L 229.239009 48.785641 
L 230.158711 48.876509 
L 231.078412 51.556087 
L 231.998113 50.475896 
L 232.917815 50.05394 
L 233.837516 48.661904 
L 234.757217 48.845043 
L 235.676918 48.893898 
L 236.59662 47.004428 
L 237.516321 47.061454 
L 238.436022 46.992277 
L 240.275425 48.599981 
L 241.195126 49.185672 
L 242.114827 45.12106 
L 243.034528 45.521199 
L 243.95423 45.792741 
L 244.873931 44.254934 
L 245.793632 43.912091 
L 246.713333 43.692752 
L 247.633035 41.98698 
L 248.552736 42.135378 
L 249.472437 42.091456 
L 250.392138 45.471823 
L 251.31184 46.212177 
L 252.231541 46.487499 
L 253.151242 44.265555 
L 254.990645 44.852884 
L 255.910346 42.739952 
L 256.830047 42.27411 
L 257.749749 42.015331 
L 258.66945 44.855998 
L 260.508852 44.993326 
L 261.428554 45.024845 
L 263.267956 45.230054 
L 264.187657 42.81543 
L 266.02706 42.74258 
L 267.866462 43.513554 
L 268.786164 43.604746 
L 269.705865 40.937714 
L 271.545268 41.039148 
L 272.464969 46.073967 
L 273.38467 46.761309 
L 274.304371 47.14721 
L 275.224073 46.729142 
L 277.063475 46.944647 
L 277.983176 46.431481 
L 278.902878 46.492431 
L 279.822579 46.433713 
L 280.74228 43.010126 
L 282.581683 43.164735 
L 283.501384 45.423977 
L 285.340786 45.758143 
L 286.260488 42.535139 
L 287.180189 42.888765 
L 288.09989 43.036101 
L 289.019591 43.772225 
L 290.858994 43.649928 
L 291.778695 41.103249 
L 293.618098 41.428775 
L 294.537799 45.336889 
L 296.377202 45.776936 
L 297.296903 44.915275 
L 298.216604 45.68254 
L 299.136305 46.130796 
L 300.056007 45.342793 
L 301.895409 45.12421 
L 302.81511 43.616428 
L 303.734812 43.419014 
L 304.654513 43.33531 
L 305.574214 47.165877 
L 306.493915 47.306283 
L 307.413617 47.328892 
L 308.333318 49.420402 
L 309.253019 49.532691 
L 310.172721 49.480561 
L 311.092422 48.318179 
L 312.012123 48.888281 
L 312.931824 49.165367 
L 313.851526 48.26459 
L 315.690928 47.854082 
L 316.610629 45.411088 
L 317.530331 45.868092 
L 318.450032 46.068567 
L 319.369733 47.779397 
L 320.289434 48.292527 
L 321.209136 48.501589 
L 323.048538 48.719794 
L 323.968239 48.894978 
L 324.887941 46.403795 
L 325.807642 45.834953 
L 326.727343 45.619825 
L 327.647044 43.552058 
L 328.566746 43.203256 
L 329.486447 43.05178 
L 330.406148 47.263621 
L 331.32585 47.672347 
L 332.245551 47.781575 
L 333.165252 45.318258 
L 334.084953 45.171066 
L 335.004655 45.140321 
L 335.924356 43.396945 
L 336.844057 43.007876 
L 337.763758 42.892707 
L 338.68346 44.33574 
L 340.522862 44.795426 
L 341.442563 45.685024 
L 343.281966 45.476629 
L 344.201667 52.627674 
L 345.121368 53.324376 
L 346.04107 53.840386 
L 346.960771 51.407221 
L 349.719875 52.531478 
L 350.639576 52.386229 
L 351.559277 52.357068 
L 352.478979 55.564771 
L 353.39868 56.355024 
L 354.318381 56.68343 
L 355.238082 59.076022 
L 356.157784 57.839746 
L 357.077485 57.559096 
L 357.997186 52.459042 
L 358.916887 51.753916 
L 359.836589 51.498827 
L 360.75629 49.022729 
L 361.675991 48.423357 
L 362.595692 48.07983 
L 363.515394 53.732886 
L 365.354796 54.127031 
L 366.274497 49.447152 
L 367.194199 49.918178 
L 368.1139 50.058584 
L 369.033601 46.553886 
L 369.953303 46.165861 
L 370.873004 45.943515 
L 371.792705 46.448113 
L 372.712406 45.636602 
L 373.632108 45.241989 
L 374.551809 48.86641 
L 375.47151 49.469239 
L 376.391211 49.672845 
L 377.310913 50.813519 
L 378.230614 51.109488 
L 379.150315 51.117678 
L 380.070016 46.947455 
L 381.909419 47.883046 
L 382.82912 48.107029 
L 383.748821 47.611216 
L 384.668523 47.34007 
L 384.668523 47.34007 
" style="fill:none;stroke:#ff7f0e;stroke-linecap:square;stroke-opacity:0.3;stroke-width:1.5;"/>
   </g>
   <g id="line2d_18">
    <path clip-path="url(#p29ad8dc7eb)" d="M 60.013977 170.371202 
L 60.933679 217.589062 
L 61.85338 245.049046 
L 62.773081 256.520192 
L 63.692782 255.771536 
L 64.612484 246.572114 
L 65.532185 231.711665 
L 66.451886 220.751533 
L 67.371587 215.270689 
L 68.291289 206.340388 
L 69.21099 205.151423 
L 70.130691 207.137459 
L 71.050392 206.478101 
L 71.970094 212.621214 
L 72.889795 220.717661 
L 73.809496 224.446824 
L 74.729197 236.285141 
L 75.648899 243.932702 
L 76.5686 244.414492 
L 77.488301 248.895593 
L 78.408003 248.015081 
L 79.327704 240.909606 
L 80.247405 239.93946 
L 81.167106 234.783849 
L 82.086808 225.681555 
L 83.006509 221.329127 
L 83.92621 219.864803 
L 84.845911 213.905998 
L 85.765613 224.090437 
L 86.685314 227.786559 
L 87.605015 219.539127 
L 88.524716 206.681986 
L 89.444418 197.521081 
L 90.364119 183.876264 
L 93.123223 164.197007 
L 94.042924 166.37011 
L 94.962625 177.087961 
L 95.882326 173.06773 
L 97.721729 151.337195 
L 99.561132 140.532925 
L 100.480833 147.284279 
L 101.400534 157.032874 
L 102.320235 179.51323 
L 103.239937 196.245316 
L 104.159638 203.629691 
L 105.079339 206.7039 
L 105.99904 195.464219 
L 106.918742 176.329206 
L 107.838443 149.06657 
L 108.758144 115.907129 
L 109.677845 91.690411 
L 110.597547 74.82543 
L 111.517248 69.9577 
L 112.436949 61.279391 
L 113.35665 56.779989 
L 114.276352 58.380061 
L 115.196053 56.409587 
L 116.115754 54.101141 
L 117.035456 52.132232 
L 117.955157 50.799759 
L 118.874858 49.092191 
L 119.794559 47.722714 
L 120.714261 46.692439 
L 121.633962 45.428109 
L 123.473364 43.571203 
L 124.393066 42.6159 
L 127.152169 40.524172 
L 129.911273 39.04715 
L 134.509779 37.435068 
L 137.268883 36.773467 
L 140.947688 36.128722 
L 146.465896 35.524876 
L 154.743207 35.258363 
L 158.422012 35.336483 
L 162.100817 35.394264 
L 166.699324 36.074614 
L 170.378129 36.475083 
L 171.29783 36.743401 
L 174.976635 38.648066 
L 175.896336 39.424419 
L 177.735739 41.179582 
L 178.65544 41.960355 
L 181.414544 43.308633 
L 182.334245 44.129896 
L 184.173648 44.526286 
L 186.01305 44.607144 
L 186.932751 44.381659 
L 188.772154 42.938201 
L 189.691855 42.67891 
L 190.611556 42.947729 
L 191.531258 43.774236 
L 192.450959 44.272639 
L 195.210063 45.32879 
L 196.129764 45.531623 
L 197.969167 45.542488 
L 198.888868 45.926158 
L 199.808569 46.033054 
L 200.72827 45.81002 
L 204.407075 42.979788 
L 205.326777 42.741656 
L 206.246478 43.037039 
L 208.08588 45.314568 
L 209.005582 45.860979 
L 209.925283 45.831271 
L 211.764685 45.064474 
L 212.684387 44.884413 
L 213.604088 44.239317 
L 215.443491 43.6008 
L 216.363192 43.785651 
L 217.282893 43.630843 
L 218.202594 43.100465 
L 219.122296 42.877401 
L 220.041997 43.297128 
L 220.961698 44.579768 
L 221.881399 46.078515 
L 222.801101 46.982893 
L 223.720802 47.296864 
L 225.560204 47.555536 
L 227.399607 47.102256 
L 228.319308 47.545072 
L 230.158711 49.510914 
L 231.078412 50.05077 
L 231.998113 50.331811 
L 233.837516 49.526898 
L 234.757217 48.800936 
L 235.676918 47.918669 
L 236.59662 47.558745 
L 237.516321 47.78775 
L 238.436022 47.835878 
L 239.355723 47.611006 
L 241.195126 47.374389 
L 243.034528 46.215961 
L 245.793632 43.325675 
L 247.633035 42.76074 
L 248.552736 43.135301 
L 252.231541 45.474412 
L 253.151242 45.421168 
L 254.070944 44.668396 
L 254.990645 43.725237 
L 255.910346 43.263233 
L 256.830047 43.172575 
L 258.66945 43.722902 
L 260.508852 44.991796 
L 261.428554 45.138485 
L 262.348255 44.855348 
L 263.267956 44.164835 
L 264.187657 43.723626 
L 265.107359 43.586488 
L 266.946761 42.898141 
L 267.866462 42.159661 
L 268.786164 42.051451 
L 269.705865 42.134794 
L 270.625566 42.617787 
L 271.545268 43.307671 
L 272.464969 44.219354 
L 274.304371 46.554724 
L 275.224073 47.163266 
L 276.143774 47.566276 
L 277.983176 46.484362 
L 278.902878 45.64193 
L 280.74228 44.465752 
L 282.581683 44.36552 
L 284.421085 44.148156 
L 285.340786 44.340144 
L 287.180189 44.002286 
L 288.09989 43.472013 
L 289.019591 43.078578 
L 289.939293 42.458909 
L 291.778695 42.401866 
L 293.618098 43.018596 
L 294.537799 43.603249 
L 296.377202 45.407834 
L 297.296903 45.839332 
L 298.216604 46.028523 
L 299.136305 45.631642 
L 300.056007 45.384804 
L 300.975708 44.714228 
L 301.895409 44.411321 
L 302.81511 44.267097 
L 303.734812 44.28964 
L 304.654513 44.856749 
L 305.574214 45.712553 
L 307.413617 47.992722 
L 308.333318 48.744415 
L 309.253019 49.22537 
L 310.172721 49.14733 
L 312.012123 49.219374 
L 313.851526 48.201621 
L 314.771227 47.540121 
L 316.610629 46.63477 
L 317.530331 46.520681 
L 318.450032 46.736431 
L 319.369733 47.095544 
L 321.209136 48.567296 
L 322.128837 48.654379 
L 323.048538 48.548479 
L 323.968239 47.898411 
L 324.887941 47.055768 
L 325.807642 45.710458 
L 326.727343 44.746875 
L 327.647044 44.25846 
L 328.566746 44.520007 
L 329.486447 45.125071 
L 332.245551 46.586156 
L 333.165252 46.409249 
L 334.084953 45.607108 
L 335.004655 44.437107 
L 335.924356 43.800131 
L 336.844057 43.46063 
L 338.68346 43.879176 
L 339.603161 43.695816 
L 340.522862 44.387822 
L 341.442563 45.501682 
L 343.281966 48.662162 
L 344.201667 50.133082 
L 345.121368 51.366635 
L 346.04107 52.307384 
L 346.960771 52.919617 
L 347.880472 52.685248 
L 348.800174 51.960011 
L 349.719875 52.159813 
L 350.639576 52.606698 
L 354.318381 57.323052 
L 355.238082 57.54772 
L 356.157784 57.218207 
L 357.077485 55.943986 
L 357.997186 54.401307 
L 358.916887 52.115845 
L 359.836589 50.331786 
L 360.75629 49.627892 
L 361.675991 50.083755 
L 362.595692 50.906989 
L 363.515394 51.305557 
L 364.435095 51.937703 
L 365.354796 52.218842 
L 366.274497 51.705807 
L 367.194199 50.461514 
L 368.1139 48.684566 
L 369.953303 46.355138 
L 371.792705 45.787227 
L 372.712406 46.032868 
L 374.551809 47.860109 
L 375.47151 49.1812 
L 376.391211 49.966083 
L 377.310913 50.377658 
L 378.230614 50.239453 
L 381.909419 47.571311 
L 382.82912 47.185188 
L 383.748821 47.233908 
L 384.668523 47.87305 
L 384.668523 47.87305 
" style="fill:none;stroke:#ff7f0e;stroke-linecap:square;stroke-width:1.5;"/>
   </g>
   <g id="line2d_19">
    <path clip-path="url(#p29ad8dc7eb)" d="M 60.013977 34.414125 
L 67.371587 49.863248 
L 68.291289 52.122943 
L 71.970094 59.594113 
L 73.809496 61.576737 
L 74.729197 61.63495 
L 76.5686 62.354588 
L 78.408003 62.684219 
L 80.247405 63.915694 
L 81.167106 64.853602 
L 82.086808 65.478472 
L 83.006509 66.494119 
L 84.845911 67.006292 
L 85.765613 65.495804 
L 86.685314 64.85276 
L 87.605015 65.148846 
L 88.524716 67.210313 
L 90.364119 69.514077 
L 91.28382 70.042848 
L 92.203521 72.291648 
L 93.123223 73.987874 
L 94.042924 73.913696 
L 94.962625 72.471676 
L 95.882326 72.82811 
L 96.802028 73.958908 
L 97.721729 75.293745 
L 98.64143 74.141357 
L 99.561132 73.538653 
L 100.480833 72.72113 
L 101.400534 73.296415 
L 102.320235 73.286456 
L 103.239937 73.715101 
L 104.159638 74.864656 
L 105.079339 77.763038 
L 105.99904 79.616302 
L 106.918742 79.168816 
L 107.838443 81.319121 
L 109.677845 91.728637 
L 112.436949 110.736256 
L 113.35665 117.699944 
L 114.276352 122.551477 
L 115.196053 124.394462 
L 116.115754 125.560618 
L 117.035456 128.37163 
L 117.955157 131.722616 
L 120.714261 145.271631 
L 122.553663 155.937795 
L 123.473364 158.935289 
L 124.393066 161.284698 
L 125.312767 162.914302 
L 126.232468 162.765547 
L 127.152169 162.775949 
L 128.071871 163.221871 
L 128.991572 162.693883 
L 129.911273 162.625763 
L 131.750676 165.156177 
L 133.590078 166.682395 
L 134.509779 167.332584 
L 136.349182 169.724887 
L 138.188585 173.350025 
L 139.108286 174.339672 
L 140.027987 175.03552 
L 140.947688 175.409998 
L 141.86739 175.432614 
L 142.787091 175.594468 
L 143.706792 177.00403 
L 145.546195 180.873885 
L 146.465896 183.868712 
L 147.385597 187.39456 
L 148.305298 190.148449 
L 149.225 192.348244 
L 151.064402 196.125182 
L 151.984103 198.664687 
L 152.903805 201.564323 
L 154.743207 205.441342 
L 156.58261 208.644853 
L 157.502311 209.616995 
L 158.422012 209.675718 
L 159.341714 209.420345 
L 160.261415 209.949646 
L 161.181116 210.787059 
L 162.100817 211.385876 
L 164.859921 214.191317 
L 165.779622 214.177137 
L 166.699324 214.453563 
L 167.619025 215.257189 
L 169.458427 219.24279 
L 170.378129 220.550953 
L 171.29783 221.615012 
L 172.217531 222.440052 
L 173.137232 222.594623 
L 174.056934 222.249136 
L 174.976635 221.01221 
L 175.896336 220.532382 
L 176.816038 221.23625 
L 177.735739 222.520358 
L 178.65544 222.994868 
L 179.575141 223.758766 
L 180.494843 223.941205 
L 181.414544 223.542134 
L 182.334245 222.430729 
L 183.253946 222.101601 
L 184.173648 222.216619 
L 185.093349 223.136042 
L 186.01305 224.468818 
L 186.932751 225.545719 
L 187.852453 227.309352 
L 188.772154 228.629393 
L 189.691855 228.714027 
L 190.611556 227.634643 
L 191.531258 226.335398 
L 192.450959 226.132026 
L 194.290362 227.516757 
L 195.210063 227.804281 
L 196.129764 227.761674 
L 197.049465 228.401149 
L 198.888868 228.518128 
L 199.808569 228.287561 
L 200.72827 228.743253 
L 202.567673 230.865487 
L 203.487374 231.180681 
L 204.407075 230.764413 
L 205.326777 230.154956 
L 206.246478 230.111704 
L 207.166179 230.517752 
L 209.005582 231.579279 
L 209.925283 231.885903 
L 211.764685 233.080464 
L 212.684387 234.026139 
L 213.604088 234.390081 
L 216.363192 235.983326 
L 217.282893 236.363951 
L 218.202594 237.015905 
L 219.122296 237.040734 
L 220.041997 237.177453 
L 220.961698 237.510168 
L 221.881399 237.699275 
L 222.801101 237.208205 
L 223.720802 236.31861 
L 224.640503 235.838434 
L 225.560204 236.020087 
L 226.479906 236.353597 
L 228.319308 239.592921 
L 230.158711 243.833001 
L 231.998113 247.16344 
L 232.917815 247.71208 
L 233.837516 247.839459 
L 234.757217 246.871022 
L 235.676918 245.63756 
L 236.59662 245.160263 
L 237.516321 244.827118 
L 238.436022 245.007717 
L 239.355723 245.605686 
L 241.195126 248.746012 
L 242.114827 249.220947 
L 243.034528 248.217697 
L 243.95423 247.6207 
L 244.873931 248.009704 
L 245.793632 249.953038 
L 246.713333 250.804358 
L 247.633035 251.185977 
L 248.552736 250.6031 
L 249.472437 250.423689 
L 250.392138 249.6293 
L 251.31184 248.679672 
L 252.231541 247.27157 
L 253.151242 247.406197 
L 254.070944 248.765557 
L 254.990645 250.709502 
L 255.910346 250.783132 
L 256.830047 249.848114 
L 257.749749 248.490202 
L 258.66945 247.976188 
L 259.589151 247.127721 
L 260.508852 247.775105 
L 261.428554 249.399488 
L 262.348255 252.036887 
L 263.267956 255.147931 
L 265.107359 259.926525 
L 266.02706 260.920974 
L 266.946761 261.073485 
L 267.866462 259.556727 
L 268.786164 257.669406 
L 269.705865 257.200947 
L 270.625566 256.949414 
L 271.545268 257.762042 
L 272.464969 259.161558 
L 274.304371 263.857945 
L 275.224073 265.127629 
L 276.143774 265.552514 
L 277.063475 265.079281 
L 277.983176 264.940896 
L 278.902878 265.073619 
L 280.74228 263.400326 
L 281.661981 262.324659 
L 282.581683 261.636954 
L 284.421085 259.849483 
L 285.340786 259.454574 
L 286.260488 259.639961 
L 287.180189 260.588505 
L 288.09989 261.974042 
L 289.019591 262.516748 
L 289.939293 262.631821 
L 290.858994 262.607789 
L 291.778695 262.792228 
L 292.698397 262.862589 
L 293.618098 263.10369 
L 294.537799 263.672114 
L 295.4575 264.697452 
L 296.377202 265.556323 
L 297.296903 265.854693 
L 298.216604 265.63175 
L 299.136305 265.27674 
L 301.895409 264.648684 
L 302.81511 264.926833 
L 303.734812 265.625619 
L 304.654513 266.495389 
L 305.574214 266.918312 
L 306.493915 267.010555 
L 307.413617 266.965103 
L 308.333318 267.119738 
L 309.253019 267.805817 
L 310.172721 267.847074 
L 311.092422 267.552874 
L 312.012123 266.556212 
L 313.851526 265.425308 
L 314.771227 265.214128 
L 315.690928 265.149903 
L 317.530331 265.964965 
L 318.450032 267.261443 
L 319.369733 268.049165 
L 320.289434 268.485778 
L 321.209136 268.756443 
L 322.128837 269.694286 
L 323.048538 271.020959 
L 323.968239 272.063894 
L 324.887941 272.593357 
L 325.807642 272.557958 
L 326.727343 272.065719 
L 327.647044 271.800834 
L 329.486447 270.939699 
L 330.406148 270.940529 
L 331.32585 271.796275 
L 332.245551 272.33031 
L 333.165252 272.063407 
L 334.084953 270.974156 
L 335.004655 270.071406 
L 335.924356 269.51476 
L 336.844057 269.113712 
L 337.763758 269.105631 
L 338.68346 269.685824 
L 339.603161 270.829969 
L 340.522862 272.47575 
L 342.362265 273.999347 
L 344.201667 273.400046 
L 347.880472 270.090306 
L 348.800174 269.871116 
L 349.719875 270.226264 
L 350.639576 271.156892 
L 351.559277 272.661731 
L 353.39868 274.736688 
L 354.318381 275.240937 
L 355.238082 275.510423 
L 356.157784 275.268265 
L 357.077485 274.630517 
L 357.997186 274.385768 
L 358.916887 274.495329 
L 359.836589 274.356252 
L 362.595692 273.399226 
L 365.354796 271.879917 
L 367.194199 271.612991 
L 369.033601 272.681549 
L 370.873004 274.095791 
L 372.712406 275.324046 
L 373.632108 275.602081 
L 374.551809 275.639742 
L 375.47151 275.268829 
L 376.391211 274.691114 
L 378.230614 274.409127 
L 380.070016 274.779405 
L 382.82912 276.020353 
L 383.748821 276.275857 
L 384.668523 276.334125 
L 384.668523 276.334125 
" style="fill:none;stroke:#008000;stroke-linecap:square;stroke-width:1.5;"/>
   </g>
   <g id="patch_3">
    <path d="M 43.78125 288.430125 
L 43.78125 22.318125 
" style="fill:none;stroke:#000000;stroke-linecap:square;stroke-linejoin:miter;stroke-width:0.8;"/>
   </g>
   <g id="patch_4">
    <path d="M 400.90125 288.430125 
L 400.90125 22.318125 
" style="fill:none;stroke:#000000;stroke-linecap:square;stroke-linejoin:miter;stroke-width:0.8;"/>
   </g>
   <g id="patch_5">
    <path d="M 43.78125 288.430125 
L 400.90125 288.430125 
" style="fill:none;stroke:#000000;stroke-linecap:square;stroke-linejoin:miter;stroke-width:0.8;"/>
   </g>
   <g id="patch_6">
    <path d="M 43.78125 22.318125 
L 400.90125 22.318125 
" style="fill:none;stroke:#000000;stroke-linecap:square;stroke-linejoin:miter;stroke-width:0.8;"/>
   </g>
   <g id="text_17">
    <!-- Entropy and Loss. -->
    <defs>
     <path d="M 9.1875 72.90625 
L 59.90625 72.90625 
L 59.90625 58.6875 
L 27.984375 58.6875 
L 27.984375 45.125 
L 58.015625 45.125 
L 58.015625 30.90625 
L 27.984375 30.90625 
L 27.984375 14.203125 
L 60.984375 14.203125 
L 60.984375 0 
L 9.1875 0 
z
" id="DejaVuSans-Bold-69"/>
     <path d="M 63.375 33.296875 
L 63.375 0 
L 45.796875 0 
L 45.796875 5.421875 
L 45.796875 25.484375 
Q 45.796875 32.5625 45.484375 35.25 
Q 45.171875 37.9375 44.390625 39.203125 
Q 43.359375 40.921875 41.59375 41.875 
Q 39.84375 42.828125 37.59375 42.828125 
Q 32.125 42.828125 29 38.59375 
Q 25.875 34.375 25.875 26.90625 
L 25.875 0 
L 8.40625 0 
L 8.40625 54.6875 
L 25.875 54.6875 
L 25.875 46.6875 
Q 29.828125 51.46875 34.265625 53.734375 
Q 38.71875 56 44.09375 56 
Q 53.5625 56 58.46875 50.1875 
Q 63.375 44.390625 63.375 33.296875 
z
" id="DejaVuSans-Bold-110"/>
     <path d="M 27.484375 70.21875 
L 27.484375 54.6875 
L 45.515625 54.6875 
L 45.515625 42.1875 
L 27.484375 42.1875 
L 27.484375 19 
Q 27.484375 15.1875 29 13.84375 
Q 30.515625 12.5 35.015625 12.5 
L 44 12.5 
L 44 0 
L 29 0 
Q 18.65625 0 14.328125 4.3125 
Q 10.015625 8.640625 10.015625 19 
L 10.015625 42.1875 
L 1.3125 42.1875 
L 1.3125 54.6875 
L 10.015625 54.6875 
L 10.015625 70.21875 
z
" id="DejaVuSans-Bold-116"/>
     <path d="M 49.03125 39.796875 
Q 46.734375 40.875 44.453125 41.375 
Q 42.1875 41.890625 39.890625 41.890625 
Q 33.15625 41.890625 29.515625 37.5625 
Q 25.875 33.25 25.875 25.203125 
L 25.875 0 
L 8.40625 0 
L 8.40625 54.6875 
L 25.875 54.6875 
L 25.875 45.703125 
Q 29.25 51.078125 33.609375 53.53125 
Q 37.984375 56 44.09375 56 
Q 44.96875 56 45.984375 55.921875 
Q 47.015625 55.859375 48.96875 55.609375 
z
" id="DejaVuSans-Bold-114"/>
     <path d="M 34.421875 43.5 
Q 28.609375 43.5 25.5625 39.328125 
Q 22.515625 35.15625 22.515625 27.296875 
Q 22.515625 19.4375 25.5625 15.25 
Q 28.609375 11.078125 34.421875 11.078125 
Q 40.140625 11.078125 43.15625 15.25 
Q 46.1875 19.4375 46.1875 27.296875 
Q 46.1875 35.15625 43.15625 39.328125 
Q 40.140625 43.5 34.421875 43.5 
z
M 34.421875 56 
Q 48.53125 56 56.46875 48.375 
Q 64.40625 40.765625 64.40625 27.296875 
Q 64.40625 13.8125 56.46875 6.1875 
Q 48.53125 -1.421875 34.421875 -1.421875 
Q 20.265625 -1.421875 12.28125 6.1875 
Q 4.296875 13.8125 4.296875 27.296875 
Q 4.296875 40.765625 12.28125 48.375 
Q 20.265625 56 34.421875 56 
z
" id="DejaVuSans-Bold-111"/>
     <path d="M 25.875 7.90625 
L 25.875 -20.796875 
L 8.40625 -20.796875 
L 8.40625 54.6875 
L 25.875 54.6875 
L 25.875 46.6875 
Q 29.5 51.46875 33.890625 53.734375 
Q 38.28125 56 44 56 
Q 54.109375 56 60.59375 47.96875 
Q 67.09375 39.9375 67.09375 27.296875 
Q 67.09375 14.65625 60.59375 6.609375 
Q 54.109375 -1.421875 44 -1.421875 
Q 38.28125 -1.421875 33.890625 0.84375 
Q 29.5 3.125 25.875 7.90625 
z
M 37.5 43.3125 
Q 31.890625 43.3125 28.875 39.1875 
Q 25.875 35.0625 25.875 27.296875 
Q 25.875 19.53125 28.875 15.40625 
Q 31.890625 11.28125 37.5 11.28125 
Q 43.109375 11.28125 46.0625 15.375 
Q 49.03125 19.484375 49.03125 27.296875 
Q 49.03125 35.109375 46.0625 39.203125 
Q 43.109375 43.3125 37.5 43.3125 
z
" id="DejaVuSans-Bold-112"/>
     <path d="M 1.21875 54.6875 
L 18.703125 54.6875 
L 33.40625 17.578125 
L 45.90625 54.6875 
L 63.375 54.6875 
L 40.375 -5.171875 
Q 36.921875 -14.3125 32.296875 -17.9375 
Q 27.6875 -21.578125 20.125 -21.578125 
L 10.015625 -21.578125 
L 10.015625 -10.109375 
L 15.484375 -10.109375 
Q 19.921875 -10.109375 21.9375 -8.6875 
Q 23.96875 -7.28125 25.09375 -3.609375 
L 25.59375 -2.09375 
z
" id="DejaVuSans-Bold-121"/>
     <path id="DejaVuSans-Bold-32"/>
     <path d="M 32.90625 24.609375 
Q 27.4375 24.609375 24.671875 22.75 
Q 21.921875 20.90625 21.921875 17.28125 
Q 21.921875 13.96875 24.140625 12.078125 
Q 26.375 10.203125 30.328125 10.203125 
Q 35.25 10.203125 38.625 13.734375 
Q 42 17.28125 42 22.609375 
L 42 24.609375 
z
M 59.625 31.203125 
L 59.625 0 
L 42 0 
L 42 8.109375 
Q 38.484375 3.125 34.078125 0.84375 
Q 29.6875 -1.421875 23.390625 -1.421875 
Q 14.890625 -1.421875 9.59375 3.53125 
Q 4.296875 8.5 4.296875 16.40625 
Q 4.296875 26.03125 10.90625 30.515625 
Q 17.53125 35.015625 31.6875 35.015625 
L 42 35.015625 
L 42 36.375 
Q 42 40.53125 38.71875 42.453125 
Q 35.453125 44.390625 28.515625 44.390625 
Q 22.90625 44.390625 18.0625 43.265625 
Q 13.234375 42.140625 9.078125 39.890625 
L 9.078125 53.21875 
Q 14.703125 54.59375 20.359375 55.296875 
Q 26.03125 56 31.6875 56 
Q 46.484375 56 53.046875 50.171875 
Q 59.625 44.34375 59.625 31.203125 
z
" id="DejaVuSans-Bold-97"/>
     <path d="M 45.609375 46.6875 
L 45.609375 75.984375 
L 63.1875 75.984375 
L 63.1875 0 
L 45.609375 0 
L 45.609375 7.90625 
Q 42 3.078125 37.640625 0.828125 
Q 33.296875 -1.421875 27.59375 -1.421875 
Q 17.484375 -1.421875 10.984375 6.609375 
Q 4.5 14.65625 4.5 27.296875 
Q 4.5 39.9375 10.984375 47.96875 
Q 17.484375 56 27.59375 56 
Q 33.25 56 37.625 53.734375 
Q 42 51.46875 45.609375 46.6875 
z
M 34.078125 11.28125 
Q 39.703125 11.28125 42.65625 15.375 
Q 45.609375 19.484375 45.609375 27.296875 
Q 45.609375 35.109375 42.65625 39.203125 
Q 39.703125 43.3125 34.078125 43.3125 
Q 28.515625 43.3125 25.5625 39.203125 
Q 22.609375 35.109375 22.609375 27.296875 
Q 22.609375 19.484375 25.5625 15.375 
Q 28.515625 11.28125 34.078125 11.28125 
z
" id="DejaVuSans-Bold-100"/>
     <path d="M 9.1875 72.90625 
L 27.984375 72.90625 
L 27.984375 14.203125 
L 60.984375 14.203125 
L 60.984375 0 
L 9.1875 0 
z
" id="DejaVuSans-Bold-76"/>
     <path d="M 51.125 52.984375 
L 51.125 39.703125 
Q 45.515625 42.046875 40.28125 43.21875 
Q 35.0625 44.390625 30.421875 44.390625 
Q 25.4375 44.390625 23.015625 43.140625 
Q 20.609375 41.890625 20.609375 39.3125 
Q 20.609375 37.203125 22.4375 36.078125 
Q 24.265625 34.96875 29 34.421875 
L 32.078125 33.984375 
Q 45.515625 32.28125 50.140625 28.375 
Q 54.78125 24.46875 54.78125 16.109375 
Q 54.78125 7.375 48.328125 2.96875 
Q 41.890625 -1.421875 29.109375 -1.421875 
Q 23.6875 -1.421875 17.890625 -0.5625 
Q 12.109375 0.296875 6 2 
L 6 15.28125 
Q 11.234375 12.75 16.71875 11.46875 
Q 22.21875 10.203125 27.875 10.203125 
Q 33.015625 10.203125 35.59375 11.609375 
Q 38.1875 13.03125 38.1875 15.828125 
Q 38.1875 18.171875 36.40625 19.3125 
Q 34.625 20.453125 29.296875 21.09375 
L 26.21875 21.484375 
Q 14.546875 22.953125 9.859375 26.90625 
Q 5.171875 30.859375 5.171875 38.921875 
Q 5.171875 47.609375 11.125 51.796875 
Q 17.09375 56 29.390625 56 
Q 34.234375 56 39.546875 55.265625 
Q 44.875 54.546875 51.125 52.984375 
z
" id="DejaVuSans-Bold-115"/>
     <path d="M 10.203125 18.890625 
L 27.78125 18.890625 
L 27.78125 0 
L 10.203125 0 
z
" id="DejaVuSans-Bold-46"/>
    </defs>
    <g transform="translate(161.657813 16.318125)scale(0.12 -0.12)">
     <use xlink:href="#DejaVuSans-Bold-69"/>
     <use x="68.310547" xlink:href="#DejaVuSans-Bold-110"/>
     <use x="139.501953" xlink:href="#DejaVuSans-Bold-116"/>
     <use x="187.304688" xlink:href="#DejaVuSans-Bold-114"/>
     <use x="236.621094" xlink:href="#DejaVuSans-Bold-111"/>
     <use x="305.322266" xlink:href="#DejaVuSans-Bold-112"/>
     <use x="376.904297" xlink:href="#DejaVuSans-Bold-121"/>
     <use x="442.089844" xlink:href="#DejaVuSans-Bold-32"/>
     <use x="476.904297" xlink:href="#DejaVuSans-Bold-97"/>
     <use x="544.384766" xlink:href="#DejaVuSans-Bold-110"/>
     <use x="615.576172" xlink:href="#DejaVuSans-Bold-100"/>
     <use x="687.158203" xlink:href="#DejaVuSans-Bold-32"/>
     <use x="721.972656" xlink:href="#DejaVuSans-Bold-76"/>
     <use x="785.693359" xlink:href="#DejaVuSans-Bold-111"/>
     <use x="854.394531" xlink:href="#DejaVuSans-Bold-115"/>
     <use x="913.916016" xlink:href="#DejaVuSans-Bold-115"/>
     <use x="973.4375" xlink:href="#DejaVuSans-Bold-46"/>
    </g>
   </g>
   <g id="legend_1">
    <g id="patch_7">
     <path d="M 18.982656 353.02505 
L 429.699844 353.02505 
Q 431.699844 353.02505 431.699844 351.02505 
L 431.699844 337.346925 
Q 431.699844 335.346925 429.699844 335.346925 
L 18.982656 335.346925 
Q 16.982656 335.346925 16.982656 337.346925 
L 16.982656 351.02505 
Q 16.982656 353.02505 18.982656 353.02505 
z
" style="fill:#4c4c4c;opacity:0.5;stroke:#4c4c4c;stroke-linejoin:miter;"/>
    </g>
    <g id="patch_8">
     <path d="M 16.982656 351.02505 
L 427.699844 351.02505 
Q 429.699844 351.02505 429.699844 349.02505 
L 429.699844 335.346925 
Q 429.699844 333.346925 427.699844 333.346925 
L 16.982656 333.346925 
Q 14.982656 333.346925 14.982656 335.346925 
L 14.982656 349.02505 
Q 14.982656 351.02505 16.982656 351.02505 
z
" style="fill:#ffffff;stroke:#cccccc;stroke-linejoin:miter;"/>
    </g>
    <g id="line2d_20">
     <path d="M 18.982656 341.445362 
L 38.982656 341.445362 
" style="fill:none;stroke:#1f77b4;stroke-linecap:square;stroke-width:1.5;"/>
    </g>
    <g id="line2d_21"/>
    <g id="text_18">
     <!-- Policy Loss (Normalized) -->
     <defs>
      <path d="M 19.671875 64.796875 
L 19.671875 37.40625 
L 32.078125 37.40625 
Q 38.96875 37.40625 42.71875 40.96875 
Q 46.484375 44.53125 46.484375 51.125 
Q 46.484375 57.671875 42.71875 61.234375 
Q 38.96875 64.796875 32.078125 64.796875 
z
M 9.8125 72.90625 
L 32.078125 72.90625 
Q 44.34375 72.90625 50.609375 67.359375 
Q 56.890625 61.8125 56.890625 51.125 
Q 56.890625 40.328125 50.609375 34.8125 
Q 44.34375 29.296875 32.078125 29.296875 
L 19.671875 29.296875 
L 19.671875 0 
L 9.8125 0 
z
" id="DejaVuSans-80"/>
      <path d="M 9.421875 75.984375 
L 18.40625 75.984375 
L 18.40625 0 
L 9.421875 0 
z
" id="DejaVuSans-108"/>
      <path d="M 9.421875 54.6875 
L 18.40625 54.6875 
L 18.40625 0 
L 9.421875 0 
z
M 9.421875 75.984375 
L 18.40625 75.984375 
L 18.40625 64.59375 
L 9.421875 64.59375 
z
" id="DejaVuSans-105"/>
      <path d="M 32.171875 -5.078125 
Q 28.375 -14.84375 24.75 -17.8125 
Q 21.140625 -20.796875 15.09375 -20.796875 
L 7.90625 -20.796875 
L 7.90625 -13.28125 
L 13.1875 -13.28125 
Q 16.890625 -13.28125 18.9375 -11.515625 
Q 21 -9.765625 23.484375 -3.21875 
L 25.09375 0.875 
L 2.984375 54.6875 
L 12.5 54.6875 
L 29.59375 11.921875 
L 46.6875 54.6875 
L 56.203125 54.6875 
z
" id="DejaVuSans-121"/>
      <path id="DejaVuSans-32"/>
      <path d="M 31 75.875 
Q 24.46875 64.65625 21.28125 53.65625 
Q 18.109375 42.671875 18.109375 31.390625 
Q 18.109375 20.125 21.3125 9.0625 
Q 24.515625 -2 31 -13.1875 
L 23.1875 -13.1875 
Q 15.875 -1.703125 12.234375 9.375 
Q 8.59375 20.453125 8.59375 31.390625 
Q 8.59375 42.28125 12.203125 53.3125 
Q 15.828125 64.359375 23.1875 75.875 
z
" id="DejaVuSans-40"/>
      <path d="M 9.8125 72.90625 
L 23.09375 72.90625 
L 55.421875 11.921875 
L 55.421875 72.90625 
L 64.984375 72.90625 
L 64.984375 0 
L 51.703125 0 
L 19.390625 60.984375 
L 19.390625 0 
L 9.8125 0 
z
" id="DejaVuSans-78"/>
      <path d="M 41.109375 46.296875 
Q 39.59375 47.171875 37.8125 47.578125 
Q 36.03125 48 33.890625 48 
Q 26.265625 48 22.1875 43.046875 
Q 18.109375 38.09375 18.109375 28.8125 
L 18.109375 0 
L 9.078125 0 
L 9.078125 54.6875 
L 18.109375 54.6875 
L 18.109375 46.1875 
Q 20.953125 51.171875 25.484375 53.578125 
Q 30.03125 56 36.53125 56 
Q 37.453125 56 38.578125 55.875 
Q 39.703125 55.765625 41.0625 55.515625 
z
" id="DejaVuSans-114"/>
      <path d="M 52 44.1875 
Q 55.375 50.25 60.0625 53.125 
Q 64.75 56 71.09375 56 
Q 79.640625 56 84.28125 50.015625 
Q 88.921875 44.046875 88.921875 33.015625 
L 88.921875 0 
L 79.890625 0 
L 79.890625 32.71875 
Q 79.890625 40.578125 77.09375 44.375 
Q 74.3125 48.1875 68.609375 48.1875 
Q 61.625 48.1875 57.5625 43.546875 
Q 53.515625 38.921875 53.515625 30.90625 
L 53.515625 0 
L 44.484375 0 
L 44.484375 32.71875 
Q 44.484375 40.625 41.703125 44.40625 
Q 38.921875 48.1875 33.109375 48.1875 
Q 26.21875 48.1875 22.15625 43.53125 
Q 18.109375 38.875 18.109375 30.90625 
L 18.109375 0 
L 9.078125 0 
L 9.078125 54.6875 
L 18.109375 54.6875 
L 18.109375 46.1875 
Q 21.1875 51.21875 25.484375 53.609375 
Q 29.78125 56 35.6875 56 
Q 41.65625 56 45.828125 52.96875 
Q 50 49.953125 52 44.1875 
z
" id="DejaVuSans-109"/>
      <path d="M 34.28125 27.484375 
Q 23.390625 27.484375 19.1875 25 
Q 14.984375 22.515625 14.984375 16.5 
Q 14.984375 11.71875 18.140625 8.90625 
Q 21.296875 6.109375 26.703125 6.109375 
Q 34.1875 6.109375 38.703125 11.40625 
Q 43.21875 16.703125 43.21875 25.484375 
L 43.21875 27.484375 
z
M 52.203125 31.203125 
L 52.203125 0 
L 43.21875 0 
L 43.21875 8.296875 
Q 40.140625 3.328125 35.546875 0.953125 
Q 30.953125 -1.421875 24.3125 -1.421875 
Q 15.921875 -1.421875 10.953125 3.296875 
Q 6 8.015625 6 15.921875 
Q 6 25.140625 12.171875 29.828125 
Q 18.359375 34.515625 30.609375 34.515625 
L 43.21875 34.515625 
L 43.21875 35.40625 
Q 43.21875 41.609375 39.140625 45 
Q 35.0625 48.390625 27.6875 48.390625 
Q 23 48.390625 18.546875 47.265625 
Q 14.109375 46.140625 10.015625 43.890625 
L 10.015625 52.203125 
Q 14.9375 54.109375 19.578125 55.046875 
Q 24.21875 56 28.609375 56 
Q 40.484375 56 46.34375 49.84375 
Q 52.203125 43.703125 52.203125 31.203125 
z
" id="DejaVuSans-97"/>
      <path d="M 5.515625 54.6875 
L 48.1875 54.6875 
L 48.1875 46.484375 
L 14.40625 7.171875 
L 48.1875 7.171875 
L 48.1875 0 
L 4.296875 0 
L 4.296875 8.203125 
L 38.09375 47.515625 
L 5.515625 47.515625 
z
" id="DejaVuSans-122"/>
      <path d="M 56.203125 29.59375 
L 56.203125 25.203125 
L 14.890625 25.203125 
Q 15.484375 15.921875 20.484375 11.0625 
Q 25.484375 6.203125 34.421875 6.203125 
Q 39.59375 6.203125 44.453125 7.46875 
Q 49.3125 8.734375 54.109375 11.28125 
L 54.109375 2.78125 
Q 49.265625 0.734375 44.1875 -0.34375 
Q 39.109375 -1.421875 33.890625 -1.421875 
Q 20.796875 -1.421875 13.15625 6.1875 
Q 5.515625 13.8125 5.515625 26.8125 
Q 5.515625 40.234375 12.765625 48.109375 
Q 20.015625 56 32.328125 56 
Q 43.359375 56 49.78125 48.890625 
Q 56.203125 41.796875 56.203125 29.59375 
z
M 47.21875 32.234375 
Q 47.125 39.59375 43.09375 43.984375 
Q 39.0625 48.390625 32.421875 48.390625 
Q 24.90625 48.390625 20.390625 44.140625 
Q 15.875 39.890625 15.1875 32.171875 
z
" id="DejaVuSans-101"/>
      <path d="M 45.40625 46.390625 
L 45.40625 75.984375 
L 54.390625 75.984375 
L 54.390625 0 
L 45.40625 0 
L 45.40625 8.203125 
Q 42.578125 3.328125 38.25 0.953125 
Q 33.9375 -1.421875 27.875 -1.421875 
Q 17.96875 -1.421875 11.734375 6.484375 
Q 5.515625 14.40625 5.515625 27.296875 
Q 5.515625 40.1875 11.734375 48.09375 
Q 17.96875 56 27.875 56 
Q 33.9375 56 38.25 53.625 
Q 42.578125 51.265625 45.40625 46.390625 
z
M 14.796875 27.296875 
Q 14.796875 17.390625 18.875 11.75 
Q 22.953125 6.109375 30.078125 6.109375 
Q 37.203125 6.109375 41.296875 11.75 
Q 45.40625 17.390625 45.40625 27.296875 
Q 45.40625 37.203125 41.296875 42.84375 
Q 37.203125 48.484375 30.078125 48.484375 
Q 22.953125 48.484375 18.875 42.84375 
Q 14.796875 37.203125 14.796875 27.296875 
z
" id="DejaVuSans-100"/>
      <path d="M 8.015625 75.875 
L 15.828125 75.875 
Q 23.140625 64.359375 26.78125 53.3125 
Q 30.421875 42.28125 30.421875 31.390625 
Q 30.421875 20.453125 26.78125 9.375 
Q 23.140625 -1.703125 15.828125 -13.1875 
L 8.015625 -13.1875 
Q 14.5 -2 17.703125 9.0625 
Q 20.90625 20.125 20.90625 31.390625 
Q 20.90625 42.671875 17.703125 53.65625 
Q 14.5 64.65625 8.015625 75.875 
z
" id="DejaVuSans-41"/>
     </defs>
     <g transform="translate(46.982656 344.945362)scale(0.1 -0.1)">
      <use xlink:href="#DejaVuSans-80"/>
      <use x="60.255859" xlink:href="#DejaVuSans-111"/>
      <use x="121.4375" xlink:href="#DejaVuSans-108"/>
      <use x="149.220703" xlink:href="#DejaVuSans-105"/>
      <use x="177.003906" xlink:href="#DejaVuSans-99"/>
      <use x="231.984375" xlink:href="#DejaVuSans-121"/>
      <use x="291.164062" xlink:href="#DejaVuSans-32"/>
      <use x="322.951172" xlink:href="#DejaVuSans-76"/>
      <use x="378.648438" xlink:href="#DejaVuSans-111"/>
      <use x="439.830078" xlink:href="#DejaVuSans-115"/>
      <use x="491.929688" xlink:href="#DejaVuSans-115"/>
      <use x="544.029297" xlink:href="#DejaVuSans-32"/>
      <use x="575.816406" xlink:href="#DejaVuSans-40"/>
      <use x="614.830078" xlink:href="#DejaVuSans-78"/>
      <use x="689.634766" xlink:href="#DejaVuSans-111"/>
      <use x="750.816406" xlink:href="#DejaVuSans-114"/>
      <use x="791.914062" xlink:href="#DejaVuSans-109"/>
      <use x="889.326172" xlink:href="#DejaVuSans-97"/>
      <use x="950.605469" xlink:href="#DejaVuSans-108"/>
      <use x="978.388672" xlink:href="#DejaVuSans-105"/>
      <use x="1006.171875" xlink:href="#DejaVuSans-122"/>
      <use x="1058.662109" xlink:href="#DejaVuSans-101"/>
      <use x="1120.185547" xlink:href="#DejaVuSans-100"/>
      <use x="1183.662109" xlink:href="#DejaVuSans-41"/>
     </g>
    </g>
    <g id="line2d_22">
     <path d="M 189.251406 341.445362 
L 209.251406 341.445362 
" style="fill:none;stroke:#ff7f0e;stroke-linecap:square;stroke-width:1.5;"/>
    </g>
    <g id="line2d_23"/>
    <g id="text_19">
     <!-- Value Loss (Normalized) -->
     <defs>
      <path d="M 28.609375 0 
L 0.78125 72.90625 
L 11.078125 72.90625 
L 34.1875 11.53125 
L 57.328125 72.90625 
L 67.578125 72.90625 
L 39.796875 0 
z
" id="DejaVuSans-86"/>
      <path d="M 8.5 21.578125 
L 8.5 54.6875 
L 17.484375 54.6875 
L 17.484375 21.921875 
Q 17.484375 14.15625 20.5 10.265625 
Q 23.53125 6.390625 29.59375 6.390625 
Q 36.859375 6.390625 41.078125 11.03125 
Q 45.3125 15.671875 45.3125 23.6875 
L 45.3125 54.6875 
L 54.296875 54.6875 
L 54.296875 0 
L 45.3125 0 
L 45.3125 8.40625 
Q 42.046875 3.421875 37.71875 1 
Q 33.40625 -1.421875 27.6875 -1.421875 
Q 18.265625 -1.421875 13.375 4.4375 
Q 8.5 10.296875 8.5 21.578125 
z
M 31.109375 56 
z
" id="DejaVuSans-117"/>
     </defs>
     <g transform="translate(217.251406 344.945362)scale(0.1 -0.1)">
      <use xlink:href="#DejaVuSans-86"/>
      <use x="68.298828" xlink:href="#DejaVuSans-97"/>
      <use x="129.578125" xlink:href="#DejaVuSans-108"/>
      <use x="157.361328" xlink:href="#DejaVuSans-117"/>
      <use x="220.740234" xlink:href="#DejaVuSans-101"/>
      <use x="282.263672" xlink:href="#DejaVuSans-32"/>
      <use x="314.050781" xlink:href="#DejaVuSans-76"/>
      <use x="369.748047" xlink:href="#DejaVuSans-111"/>
      <use x="430.929688" xlink:href="#DejaVuSans-115"/>
      <use x="483.029297" xlink:href="#DejaVuSans-115"/>
      <use x="535.128906" xlink:href="#DejaVuSans-32"/>
      <use x="566.916016" xlink:href="#DejaVuSans-40"/>
      <use x="605.929688" xlink:href="#DejaVuSans-78"/>
      <use x="680.734375" xlink:href="#DejaVuSans-111"/>
      <use x="741.916016" xlink:href="#DejaVuSans-114"/>
      <use x="783.013672" xlink:href="#DejaVuSans-109"/>
      <use x="880.425781" xlink:href="#DejaVuSans-97"/>
      <use x="941.705078" xlink:href="#DejaVuSans-108"/>
      <use x="969.488281" xlink:href="#DejaVuSans-105"/>
      <use x="997.271484" xlink:href="#DejaVuSans-122"/>
      <use x="1049.761719" xlink:href="#DejaVuSans-101"/>
      <use x="1111.285156" xlink:href="#DejaVuSans-100"/>
      <use x="1174.761719" xlink:href="#DejaVuSans-41"/>
     </g>
    </g>
    <g id="line2d_24">
     <path d="M 358.629531 341.445362 
L 378.629531 341.445362 
" style="fill:none;stroke:#008000;stroke-linecap:square;stroke-width:1.5;"/>
    </g>
    <g id="line2d_25"/>
    <g id="text_20">
     <!-- Entropy -->
     <defs>
      <path d="M 54.890625 33.015625 
L 54.890625 0 
L 45.90625 0 
L 45.90625 32.71875 
Q 45.90625 40.484375 42.875 44.328125 
Q 39.84375 48.1875 33.796875 48.1875 
Q 26.515625 48.1875 22.3125 43.546875 
Q 18.109375 38.921875 18.109375 30.90625 
L 18.109375 0 
L 9.078125 0 
L 9.078125 54.6875 
L 18.109375 54.6875 
L 18.109375 46.1875 
Q 21.34375 51.125 25.703125 53.5625 
Q 30.078125 56 35.796875 56 
Q 45.21875 56 50.046875 50.171875 
Q 54.890625 44.34375 54.890625 33.015625 
z
" id="DejaVuSans-110"/>
      <path d="M 18.3125 70.21875 
L 18.3125 54.6875 
L 36.8125 54.6875 
L 36.8125 47.703125 
L 18.3125 47.703125 
L 18.3125 18.015625 
Q 18.3125 11.328125 20.140625 9.421875 
Q 21.96875 7.515625 27.59375 7.515625 
L 36.8125 7.515625 
L 36.8125 0 
L 27.59375 0 
Q 17.1875 0 13.234375 3.875 
Q 9.28125 7.765625 9.28125 18.015625 
L 9.28125 47.703125 
L 2.6875 47.703125 
L 2.6875 54.6875 
L 9.28125 54.6875 
L 9.28125 70.21875 
z
" id="DejaVuSans-116"/>
     </defs>
     <g transform="translate(386.629531 344.945362)scale(0.1 -0.1)">
      <use xlink:href="#DejaVuSans-69"/>
      <use x="63.183594" xlink:href="#DejaVuSans-110"/>
      <use x="126.5625" xlink:href="#DejaVuSans-116"/>
      <use x="165.771484" xlink:href="#DejaVuSans-114"/>
      <use x="206.853516" xlink:href="#DejaVuSans-111"/>
      <use x="268.035156" xlink:href="#DejaVuSans-112"/>
      <use x="331.511719" xlink:href="#DejaVuSans-121"/>
     </g>
    </g>
   </g>
  </g>
  <g id="axes_2">
   <g id="matplotlib.axis_3">
    <g id="ytick_7">
     <g id="line2d_26">
      <defs>
       <path d="M 0 0 
L 3.5 0 
" id="m7a02fdbe43" style="stroke:#000000;stroke-width:0.8;"/>
      </defs>
      <g>
       <use style="stroke:#000000;stroke-width:0.8;" x="400.90125" xlink:href="#m7a02fdbe43" y="286.775602"/>
      </g>
     </g>
     <g id="text_21">
      <!-- 0.0 -->
      <g transform="translate(407.90125 290.57482)scale(0.1 -0.1)">
       <use xlink:href="#DejaVuSans-48"/>
       <use x="63.623047" xlink:href="#DejaVuSans-46"/>
       <use x="95.410156" xlink:href="#DejaVuSans-48"/>
      </g>
     </g>
    </g>
    <g id="ytick_8">
     <g id="line2d_27">
      <g>
       <use style="stroke:#000000;stroke-width:0.8;" x="400.90125" xlink:href="#m7a02fdbe43" y="249.431507"/>
      </g>
     </g>
     <g id="text_22">
      <!-- 0.1 -->
      <g transform="translate(407.90125 253.230725)scale(0.1 -0.1)">
       <use xlink:href="#DejaVuSans-48"/>
       <use x="63.623047" xlink:href="#DejaVuSans-46"/>
       <use x="95.410156" xlink:href="#DejaVuSans-49"/>
      </g>
     </g>
    </g>
    <g id="ytick_9">
     <g id="line2d_28">
      <g>
       <use style="stroke:#000000;stroke-width:0.8;" x="400.90125" xlink:href="#m7a02fdbe43" y="212.087411"/>
      </g>
     </g>
     <g id="text_23">
      <!-- 0.2 -->
      <g transform="translate(407.90125 215.88663)scale(0.1 -0.1)">
       <use xlink:href="#DejaVuSans-48"/>
       <use x="63.623047" xlink:href="#DejaVuSans-46"/>
       <use x="95.410156" xlink:href="#DejaVuSans-50"/>
      </g>
     </g>
    </g>
    <g id="ytick_10">
     <g id="line2d_29">
      <g>
       <use style="stroke:#000000;stroke-width:0.8;" x="400.90125" xlink:href="#m7a02fdbe43" y="174.743316"/>
      </g>
     </g>
     <g id="text_24">
      <!-- 0.3 -->
      <g transform="translate(407.90125 178.542535)scale(0.1 -0.1)">
       <use xlink:href="#DejaVuSans-48"/>
       <use x="63.623047" xlink:href="#DejaVuSans-46"/>
       <use x="95.410156" xlink:href="#DejaVuSans-51"/>
      </g>
     </g>
    </g>
    <g id="ytick_11">
     <g id="line2d_30">
      <g>
       <use style="stroke:#000000;stroke-width:0.8;" x="400.90125" xlink:href="#m7a02fdbe43" y="137.399221"/>
      </g>
     </g>
     <g id="text_25">
      <!-- 0.4 -->
      <g transform="translate(407.90125 141.19844)scale(0.1 -0.1)">
       <use xlink:href="#DejaVuSans-48"/>
       <use x="63.623047" xlink:href="#DejaVuSans-46"/>
       <use x="95.410156" xlink:href="#DejaVuSans-52"/>
      </g>
     </g>
    </g>
    <g id="ytick_12">
     <g id="line2d_31">
      <g>
       <use style="stroke:#000000;stroke-width:0.8;" x="400.90125" xlink:href="#m7a02fdbe43" y="100.055126"/>
      </g>
     </g>
     <g id="text_26">
      <!-- 0.5 -->
      <g transform="translate(407.90125 103.854345)scale(0.1 -0.1)">
       <use xlink:href="#DejaVuSans-48"/>
       <use x="63.623047" xlink:href="#DejaVuSans-46"/>
       <use x="95.410156" xlink:href="#DejaVuSans-53"/>
      </g>
     </g>
    </g>
    <g id="ytick_13">
     <g id="line2d_32">
      <g>
       <use style="stroke:#000000;stroke-width:0.8;" x="400.90125" xlink:href="#m7a02fdbe43" y="62.711031"/>
      </g>
     </g>
     <g id="text_27">
      <!-- 0.6 -->
      <g transform="translate(407.90125 66.51025)scale(0.1 -0.1)">
       <use xlink:href="#DejaVuSans-48"/>
       <use x="63.623047" xlink:href="#DejaVuSans-46"/>
       <use x="95.410156" xlink:href="#DejaVuSans-54"/>
      </g>
     </g>
    </g>
    <g id="ytick_14">
     <g id="line2d_33">
      <g>
       <use style="stroke:#000000;stroke-width:0.8;" x="400.90125" xlink:href="#m7a02fdbe43" y="25.366936"/>
      </g>
     </g>
     <g id="text_28">
      <!-- 0.7 -->
      <defs>
       <path d="M 8.203125 72.90625 
L 55.078125 72.90625 
L 55.078125 68.703125 
L 28.609375 0 
L 18.3125 0 
L 43.21875 64.59375 
L 8.203125 64.59375 
z
" id="DejaVuSans-55"/>
      </defs>
      <g transform="translate(407.90125 29.166155)scale(0.1 -0.1)">
       <use xlink:href="#DejaVuSans-48"/>
       <use x="63.623047" xlink:href="#DejaVuSans-46"/>
       <use x="95.410156" xlink:href="#DejaVuSans-55"/>
      </g>
     </g>
    </g>
    <g id="text_29">
     <!-- Entropy -->
     <g transform="translate(435.402812 174.909281)rotate(-90)scale(0.1 -0.1)">
      <use xlink:href="#DejaVuSans-69"/>
      <use x="63.183594" xlink:href="#DejaVuSans-110"/>
      <use x="126.5625" xlink:href="#DejaVuSans-116"/>
      <use x="165.771484" xlink:href="#DejaVuSans-114"/>
      <use x="206.853516" xlink:href="#DejaVuSans-111"/>
      <use x="268.035156" xlink:href="#DejaVuSans-112"/>
      <use x="331.511719" xlink:href="#DejaVuSans-121"/>
     </g>
    </g>
   </g>
   <g id="line2d_34">
    <path clip-path="url(#p29ad8dc7eb)" d="M 60.013977 34.414125 
L 60.933679 34.799292 
L 61.85338 35.80933 
L 62.773081 41.116677 
L 64.612484 42.317785 
L 65.532185 46.006805 
L 66.451886 46.941765 
L 67.371587 47.478825 
L 68.291289 53.114602 
L 69.21099 53.954805 
L 70.130691 54.26585 
L 71.050392 56.982271 
L 71.970094 58.30164 
L 72.889795 58.476461 
L 73.809496 61.986297 
L 74.729197 63.248706 
L 75.648899 63.077269 
L 76.5686 59.091806 
L 77.488301 59.66359 
L 78.408003 60.52514 
L 79.327704 66.330884 
L 80.247405 63.298499 
L 81.167106 63.608809 
L 82.086808 65.633783 
L 83.006509 64.250286 
L 83.92621 64.262617 
L 84.845911 66.952039 
L 85.765613 68.500852 
L 86.685314 68.158066 
L 87.605015 61.789997 
L 88.524716 60.558728 
L 89.444418 61.875627 
L 90.364119 74.385259 
L 91.28382 75.156326 
L 92.203521 77.849176 
L 93.123223 65.863093 
L 94.962625 69.794823 
L 95.882326 80.663692 
L 96.802028 74.889287 
L 97.721729 69.837405 
L 98.64143 72.646623 
L 99.561132 76.137495 
L 100.480833 73.452147 
L 101.400534 68.605646 
L 102.320235 71.028429 
L 103.239937 78.229913 
L 104.159638 73.961941 
L 105.079339 73.209214 
L 105.99904 76.771515 
L 106.918742 85.039374 
L 107.838443 83.883674 
L 108.758144 85.838599 
L 109.677845 80.842141 
L 110.597547 90.027664 
L 111.517248 114.087662 
L 112.436949 114.681616 
L 113.35665 115.933875 
L 114.276352 122.486158 
L 115.196053 121.688892 
L 116.115754 125.739417 
L 117.035456 130.625583 
L 117.955157 125.928083 
L 118.874858 135.588197 
L 119.794559 142.318862 
L 120.714261 142.595729 
L 121.633962 152.570805 
L 122.553663 157.74588 
L 123.473364 154.772636 
L 125.312767 166.681748 
L 126.232468 162.870171 
L 127.152169 161.122809 
L 128.071871 161.733724 
L 128.991572 161.49491 
L 129.911273 161.90583 
L 130.830974 164.127749 
L 131.750676 165.53839 
L 132.670377 165.304539 
L 134.509779 168.213633 
L 135.429481 167.213622 
L 136.349182 167.923367 
L 137.268883 170.247966 
L 139.108286 176.645495 
L 140.027987 173.850377 
L 140.947688 177.550416 
L 141.86739 175.430297 
L 142.787091 171.579188 
L 143.706792 175.779215 
L 144.626493 179.111549 
L 145.546195 180.868448 
L 147.385597 188.939561 
L 148.305298 186.824918 
L 149.225 191.700957 
L 150.144701 195.348509 
L 151.064402 198.5027 
L 151.984103 197.776261 
L 152.903805 197.695055 
L 153.823506 202.098684 
L 154.743207 207.142091 
L 155.662909 209.785732 
L 156.58261 208.223759 
L 157.502311 208.282906 
L 158.422012 209.411172 
L 159.341714 208.440443 
L 160.261415 210.110716 
L 161.181116 210.650409 
L 162.100817 210.891912 
L 163.020519 211.868111 
L 163.94022 214.446539 
L 164.859921 212.74365 
L 165.779622 214.219504 
L 166.699324 216.662343 
L 167.619025 215.174135 
L 168.538726 214.84599 
L 169.458427 214.266654 
L 170.378129 222.06887 
L 171.29783 225.278274 
L 172.217531 226.569981 
L 173.137232 219.426843 
L 174.056934 220.125564 
L 174.976635 220.519267 
L 175.896336 219.887189 
L 177.735739 222.709729 
L 178.65544 222.666558 
L 180.494843 225.025452 
L 181.414544 222.189691 
L 182.334245 223.149418 
L 183.253946 223.792859 
L 184.173648 219.977704 
L 185.093349 221.08222 
L 186.01305 221.726974 
L 186.932751 228.747944 
L 187.852453 228.535935 
L 188.772154 228.958418 
L 189.691855 227.202771 
L 190.611556 228.043948 
L 191.531258 229.066329 
L 192.450959 223.73354 
L 193.37066 224.270756 
L 194.290362 224.674681 
L 195.210063 230.144679 
L 196.129764 230.692324 
L 197.049465 230.959564 
L 197.969167 225.853052 
L 198.888868 225.688787 
L 199.808569 226.150947 
L 200.72827 230.603595 
L 201.647972 230.790224 
L 202.567673 231.517459 
L 203.487374 230.527514 
L 204.407075 230.637818 
L 205.326777 230.886421 
L 206.246478 228.940683 
L 207.166179 229.620857 
L 208.08588 229.7077 
L 209.005582 232.623688 
L 209.925283 232.965828 
L 210.844984 233.652379 
L 211.764685 231.957638 
L 212.684387 232.298275 
L 213.604088 232.953258 
L 214.523789 236.133948 
L 216.363192 237.529587 
L 217.282893 234.101395 
L 218.202594 235.652301 
L 219.122296 236.241491 
L 220.041997 238.008051 
L 220.961698 238.528919 
L 221.881399 239.233705 
L 222.801101 235.206495 
L 223.720802 236.27464 
L 224.640503 236.602357 
L 225.560204 234.777741 
L 226.479906 235.991536 
L 227.399607 236.498213 
L 228.319308 241.094631 
L 230.158711 241.861659 
L 231.078412 247.399621 
L 231.998113 247.533271 
L 232.917815 247.360863 
L 233.837516 247.00995 
L 234.757217 247.924618 
L 235.676918 248.238203 
L 236.59662 242.959291 
L 237.516321 242.863531 
L 238.436022 243.063557 
L 239.355723 247.467205 
L 241.195126 247.683708 
L 242.114827 249.985751 
L 243.95423 250.181447 
L 244.873931 245.164533 
L 246.713333 246.008698 
L 247.633035 256.1035 
L 248.552736 256.016404 
L 249.472437 256.198851 
L 250.392138 243.319352 
L 252.231541 244.158657 
L 253.151242 250.839318 
L 254.070944 251.143022 
L 254.990645 251.091543 
L 255.910346 249.924617 
L 256.830047 250.01176 
L 257.749749 250.30002 
L 258.66945 246.127385 
L 260.508852 246.835886 
L 261.428554 250.267597 
L 262.348255 250.778827 
L 263.267956 251.551909 
L 264.187657 261.482159 
L 265.107359 261.39683 
L 266.02706 261.623088 
L 266.946761 259.902089 
L 267.866462 259.894076 
L 268.786164 260.03099 
L 269.705865 254.970114 
L 270.625566 254.986953 
L 271.545268 255.154834 
L 272.464969 261.972801 
L 274.304371 262.150755 
L 275.224073 266.531653 
L 277.063475 266.87035 
L 277.983176 262.903768 
L 279.822579 263.540659 
L 280.74228 264.179095 
L 282.581683 264.341394 
L 283.501384 257.877561 
L 285.340786 258.282866 
L 286.260488 260.781301 
L 287.180189 261.244126 
L 288.09989 261.556637 
L 289.019591 262.938547 
L 290.858994 263.410176 
L 291.778695 261.724794 
L 293.618098 262.618196 
L 294.537799 264.530431 
L 295.4575 264.509512 
L 296.377202 264.661011 
L 297.296903 266.493773 
L 299.136305 266.745509 
L 300.056007 263.681686 
L 300.975708 263.689846 
L 301.895409 263.82238 
L 302.81511 265.773614 
L 304.654513 266.073425 
L 305.574214 267.263323 
L 307.413617 267.59418 
L 308.333318 266.389934 
L 310.172721 266.921732 
L 311.092422 268.325412 
L 312.012123 268.605714 
L 312.931824 268.747166 
L 313.851526 262.745372 
L 315.690928 262.837136 
L 316.610629 267.932051 
L 317.530331 267.89399 
L 318.450032 268.00883 
L 319.369733 267.215253 
L 321.209136 267.421997 
L 322.128837 271.180159 
L 323.968239 271.236753 
L 324.887941 273.209926 
L 326.727343 273.455865 
L 327.647044 270.448054 
L 329.486447 270.578901 
L 330.406148 271.461803 
L 332.245551 271.539272 
L 333.165252 272.535736 
L 334.084953 272.851253 
L 335.004655 273.021782 
L 335.924356 266.675887 
L 337.763758 267.064964 
L 338.68346 271.978754 
L 340.522862 272.109149 
L 341.442563 273.442399 
L 342.362265 273.621844 
L 343.281966 273.603038 
L 344.201667 273.350915 
L 346.04107 273.554711 
L 346.960771 269.136203 
L 348.800174 269.294398 
L 349.719875 271.074841 
L 351.559277 271.043614 
L 352.478979 275.228835 
L 355.238082 275.424129 
L 356.157784 275.271654 
L 357.077485 275.387857 
L 357.997186 273.594897 
L 359.836589 273.820679 
L 360.75629 274.703311 
L 362.595692 274.750914 
L 363.515394 271.47357 
L 365.354796 271.680551 
L 366.274497 272.067939 
L 368.1139 272.211884 
L 369.033601 272.687525 
L 370.873004 272.833496 
L 371.792705 276.029676 
L 373.632108 276.050891 
L 374.551809 275.009575 
L 375.47151 275.190793 
L 376.391211 275.201516 
L 377.310913 274.06494 
L 378.230614 274.18109 
L 379.150315 274.115835 
L 380.070016 275.312228 
L 381.909419 275.264407 
L 382.82912 276.230398 
L 384.668523 276.334125 
L 384.668523 276.334125 
" style="fill:none;stroke:#008000;stroke-linecap:square;stroke-opacity:0.3;stroke-width:1.5;"/>
   </g>
   <g id="patch_9">
    <path d="M 43.78125 288.430125 
L 43.78125 22.318125 
" style="fill:none;stroke:#000000;stroke-linecap:square;stroke-linejoin:miter;stroke-width:0.8;"/>
   </g>
   <g id="patch_10">
    <path d="M 400.90125 288.430125 
L 400.90125 22.318125 
" style="fill:none;stroke:#000000;stroke-linecap:square;stroke-linejoin:miter;stroke-width:0.8;"/>
   </g>
   <g id="patch_11">
    <path d="M 43.78125 288.430125 
L 400.90125 288.430125 
" style="fill:none;stroke:#000000;stroke-linecap:square;stroke-linejoin:miter;stroke-width:0.8;"/>
   </g>
   <g id="patch_12">
    <path d="M 43.78125 22.318125 
L 400.90125 22.318125 
" style="fill:none;stroke:#000000;stroke-linecap:square;stroke-linejoin:miter;stroke-width:0.8;"/>
   </g>
  </g>
 </g>
 <defs>
  <clipPath id="p29ad8dc7eb">
   <rect height="266.112" width="357.12" x="43.78125" y="22.318125"/>
  </clipPath>
 </defs>
</svg>
