<?xml version="1.0" encoding="utf-8" standalone="no"?>
<!DOCTYPE svg PUBLIC "-//W3C//DTD SVG 1.1//EN"
  "http://www.w3.org/Graphics/SVG/1.1/DTD/svg11.dtd">
<!-- Created with matplotlib (https://matplotlib.org/) -->
<svg height="358.22505pt" version="1.1" viewBox="0 0 453.062187 358.22505" width="453.062187pt" xmlns="http://www.w3.org/2000/svg" xmlns:xlink="http://www.w3.org/1999/xlink">
 <defs>
  <style type="text/css">
*{stroke-linecap:butt;stroke-linejoin:round;}
  </style>
 </defs>
 <g id="figure_1">
  <g id="patch_1">
   <path d="M 0 358.22505 
L 453.062187 358.22505 
L 453.062187 0 
L 0 0 
z
" style="fill:#ffffff;"/>
  </g>
  <g id="axes_1">
   <g id="patch_2">
    <path d="M 43.78125 288.430125 
L 400.90125 288.430125 
L 400.90125 22.318125 
L 43.78125 22.318125 
z
" style="fill:#ffffff;"/>
   </g>
   <g id="matplotlib.axis_1">
    <g id="xtick_1">
     <g id="line2d_1">
      <defs>
       <path d="M 0 0 
L 0 3.5 
" id="m0c4f107ab4" style="stroke:#000000;stroke-width:0.8;"/>
      </defs>
      <g>
       <use style="stroke:#000000;stroke-width:0.8;" x="60.013977" xlink:href="#m0c4f107ab4" y="288.430125"/>
      </g>
     </g>
     <g id="text_1">
      <!-- 0 -->
      <defs>
       <path d="M 31.78125 66.40625 
Q 24.171875 66.40625 20.328125 58.90625 
Q 16.5 51.421875 16.5 36.375 
Q 16.5 21.390625 20.328125 13.890625 
Q 24.171875 6.390625 31.78125 6.390625 
Q 39.453125 6.390625 43.28125 13.890625 
Q 47.125 21.390625 47.125 36.375 
Q 47.125 51.421875 43.28125 58.90625 
Q 39.453125 66.40625 31.78125 66.40625 
z
M 31.78125 74.21875 
Q 44.046875 74.21875 50.515625 64.515625 
Q 56.984375 54.828125 56.984375 36.375 
Q 56.984375 17.96875 50.515625 8.265625 
Q 44.046875 -1.421875 31.78125 -1.421875 
Q 19.53125 -1.421875 13.0625 8.265625 
Q 6.59375 17.96875 6.59375 36.375 
Q 6.59375 54.828125 13.0625 64.515625 
Q 19.53125 74.21875 31.78125 74.21875 
z
" id="DejaVuSans-48"/>
      </defs>
      <g transform="translate(56.832727 303.028562)scale(0.1 -0.1)">
       <use xlink:href="#DejaVuSans-48"/>
      </g>
     </g>
    </g>
    <g id="xtick_2">
     <g id="line2d_2">
      <g>
       <use style="stroke:#000000;stroke-width:0.8;" x="107.617283" xlink:href="#m0c4f107ab4" y="288.430125"/>
      </g>
     </g>
     <g id="text_2">
      <!-- 50 -->
      <defs>
       <path d="M 10.796875 72.90625 
L 49.515625 72.90625 
L 49.515625 64.59375 
L 19.828125 64.59375 
L 19.828125 46.734375 
Q 21.96875 47.46875 24.109375 47.828125 
Q 26.265625 48.1875 28.421875 48.1875 
Q 40.625 48.1875 47.75 41.5 
Q 54.890625 34.8125 54.890625 23.390625 
Q 54.890625 11.625 47.5625 5.09375 
Q 40.234375 -1.421875 26.90625 -1.421875 
Q 22.3125 -1.421875 17.546875 -0.640625 
Q 12.796875 0.140625 7.71875 1.703125 
L 7.71875 11.625 
Q 12.109375 9.234375 16.796875 8.0625 
Q 21.484375 6.890625 26.703125 6.890625 
Q 35.15625 6.890625 40.078125 11.328125 
Q 45.015625 15.765625 45.015625 23.390625 
Q 45.015625 31 40.078125 35.4375 
Q 35.15625 39.890625 26.703125 39.890625 
Q 22.75 39.890625 18.8125 39.015625 
Q 14.890625 38.140625 10.796875 36.28125 
z
" id="DejaVuSans-53"/>
      </defs>
      <g transform="translate(101.254783 303.028562)scale(0.1 -0.1)">
       <use xlink:href="#DejaVuSans-53"/>
       <use x="63.623047" xlink:href="#DejaVuSans-48"/>
      </g>
     </g>
    </g>
    <g id="xtick_3">
     <g id="line2d_3">
      <g>
       <use style="stroke:#000000;stroke-width:0.8;" x="155.220589" xlink:href="#m0c4f107ab4" y="288.430125"/>
      </g>
     </g>
     <g id="text_3">
      <!-- 100 -->
      <defs>
       <path d="M 12.40625 8.296875 
L 28.515625 8.296875 
L 28.515625 63.921875 
L 10.984375 60.40625 
L 10.984375 69.390625 
L 28.421875 72.90625 
L 38.28125 72.90625 
L 38.28125 8.296875 
L 54.390625 8.296875 
L 54.390625 0 
L 12.40625 0 
z
" id="DejaVuSans-49"/>
      </defs>
      <g transform="translate(145.676839 303.028562)scale(0.1 -0.1)">
       <use xlink:href="#DejaVuSans-49"/>
       <use x="63.623047" xlink:href="#DejaVuSans-48"/>
       <use x="127.246094" xlink:href="#DejaVuSans-48"/>
      </g>
     </g>
    </g>
    <g id="xtick_4">
     <g id="line2d_4">
      <g>
       <use style="stroke:#000000;stroke-width:0.8;" x="202.823895" xlink:href="#m0c4f107ab4" y="288.430125"/>
      </g>
     </g>
     <g id="text_4">
      <!-- 150 -->
      <g transform="translate(193.280145 303.028562)scale(0.1 -0.1)">
       <use xlink:href="#DejaVuSans-49"/>
       <use x="63.623047" xlink:href="#DejaVuSans-53"/>
       <use x="127.246094" xlink:href="#DejaVuSans-48"/>
      </g>
     </g>
    </g>
    <g id="xtick_5">
     <g id="line2d_5">
      <g>
       <use style="stroke:#000000;stroke-width:0.8;" x="250.4272" xlink:href="#m0c4f107ab4" y="288.430125"/>
      </g>
     </g>
     <g id="text_5">
      <!-- 200 -->
      <defs>
       <path d="M 19.1875 8.296875 
L 53.609375 8.296875 
L 53.609375 0 
L 7.328125 0 
L 7.328125 8.296875 
Q 12.9375 14.109375 22.625 23.890625 
Q 32.328125 33.6875 34.8125 36.53125 
Q 39.546875 41.84375 41.421875 45.53125 
Q 43.3125 49.21875 43.3125 52.78125 
Q 43.3125 58.59375 39.234375 62.25 
Q 35.15625 65.921875 28.609375 65.921875 
Q 23.96875 65.921875 18.8125 64.3125 
Q 13.671875 62.703125 7.8125 59.421875 
L 7.8125 69.390625 
Q 13.765625 71.78125 18.9375 73 
Q 24.125 74.21875 28.421875 74.21875 
Q 39.75 74.21875 46.484375 68.546875 
Q 53.21875 62.890625 53.21875 53.421875 
Q 53.21875 48.921875 51.53125 44.890625 
Q 49.859375 40.875 45.40625 35.40625 
Q 44.1875 33.984375 37.640625 27.21875 
Q 31.109375 20.453125 19.1875 8.296875 
z
" id="DejaVuSans-50"/>
      </defs>
      <g transform="translate(240.88345 303.028562)scale(0.1 -0.1)">
       <use xlink:href="#DejaVuSans-50"/>
       <use x="63.623047" xlink:href="#DejaVuSans-48"/>
       <use x="127.246094" xlink:href="#DejaVuSans-48"/>
      </g>
     </g>
    </g>
    <g id="xtick_6">
     <g id="line2d_6">
      <g>
       <use style="stroke:#000000;stroke-width:0.8;" x="298.030506" xlink:href="#m0c4f107ab4" y="288.430125"/>
      </g>
     </g>
     <g id="text_6">
      <!-- 250 -->
      <g transform="translate(288.486756 303.028562)scale(0.1 -0.1)">
       <use xlink:href="#DejaVuSans-50"/>
       <use x="63.623047" xlink:href="#DejaVuSans-53"/>
       <use x="127.246094" xlink:href="#DejaVuSans-48"/>
      </g>
     </g>
    </g>
    <g id="xtick_7">
     <g id="line2d_7">
      <g>
       <use style="stroke:#000000;stroke-width:0.8;" x="345.633812" xlink:href="#m0c4f107ab4" y="288.430125"/>
      </g>
     </g>
     <g id="text_7">
      <!-- 300 -->
      <defs>
       <path d="M 40.578125 39.3125 
Q 47.65625 37.796875 51.625 33 
Q 55.609375 28.21875 55.609375 21.1875 
Q 55.609375 10.40625 48.1875 4.484375 
Q 40.765625 -1.421875 27.09375 -1.421875 
Q 22.515625 -1.421875 17.65625 -0.515625 
Q 12.796875 0.390625 7.625 2.203125 
L 7.625 11.71875 
Q 11.71875 9.328125 16.59375 8.109375 
Q 21.484375 6.890625 26.8125 6.890625 
Q 36.078125 6.890625 40.9375 10.546875 
Q 45.796875 14.203125 45.796875 21.1875 
Q 45.796875 27.640625 41.28125 31.265625 
Q 36.765625 34.90625 28.71875 34.90625 
L 20.21875 34.90625 
L 20.21875 43.015625 
L 29.109375 43.015625 
Q 36.375 43.015625 40.234375 45.921875 
Q 44.09375 48.828125 44.09375 54.296875 
Q 44.09375 59.90625 40.109375 62.90625 
Q 36.140625 65.921875 28.71875 65.921875 
Q 24.65625 65.921875 20.015625 65.03125 
Q 15.375 64.15625 9.8125 62.3125 
L 9.8125 71.09375 
Q 15.4375 72.65625 20.34375 73.4375 
Q 25.25 74.21875 29.59375 74.21875 
Q 40.828125 74.21875 47.359375 69.109375 
Q 53.90625 64.015625 53.90625 55.328125 
Q 53.90625 49.265625 50.4375 45.09375 
Q 46.96875 40.921875 40.578125 39.3125 
z
" id="DejaVuSans-51"/>
      </defs>
      <g transform="translate(336.090062 303.028562)scale(0.1 -0.1)">
       <use xlink:href="#DejaVuSans-51"/>
       <use x="63.623047" xlink:href="#DejaVuSans-48"/>
       <use x="127.246094" xlink:href="#DejaVuSans-48"/>
      </g>
     </g>
    </g>
    <g id="xtick_8">
     <g id="line2d_8">
      <g>
       <use style="stroke:#000000;stroke-width:0.8;" x="393.237118" xlink:href="#m0c4f107ab4" y="288.430125"/>
      </g>
     </g>
     <g id="text_8">
      <!-- 350 -->
      <g transform="translate(383.693368 303.028562)scale(0.1 -0.1)">
       <use xlink:href="#DejaVuSans-51"/>
       <use x="63.623047" xlink:href="#DejaVuSans-53"/>
       <use x="127.246094" xlink:href="#DejaVuSans-48"/>
      </g>
     </g>
    </g>
    <g id="text_9">
     <!-- Epoch -->
     <defs>
      <path d="M 9.8125 72.90625 
L 55.90625 72.90625 
L 55.90625 64.59375 
L 19.671875 64.59375 
L 19.671875 43.015625 
L 54.390625 43.015625 
L 54.390625 34.71875 
L 19.671875 34.71875 
L 19.671875 8.296875 
L 56.78125 8.296875 
L 56.78125 0 
L 9.8125 0 
z
" id="DejaVuSans-69"/>
      <path d="M 18.109375 8.203125 
L 18.109375 -20.796875 
L 9.078125 -20.796875 
L 9.078125 54.6875 
L 18.109375 54.6875 
L 18.109375 46.390625 
Q 20.953125 51.265625 25.265625 53.625 
Q 29.59375 56 35.59375 56 
Q 45.5625 56 51.78125 48.09375 
Q 58.015625 40.1875 58.015625 27.296875 
Q 58.015625 14.40625 51.78125 6.484375 
Q 45.5625 -1.421875 35.59375 -1.421875 
Q 29.59375 -1.421875 25.265625 0.953125 
Q 20.953125 3.328125 18.109375 8.203125 
z
M 48.6875 27.296875 
Q 48.6875 37.203125 44.609375 42.84375 
Q 40.53125 48.484375 33.40625 48.484375 
Q 26.265625 48.484375 22.1875 42.84375 
Q 18.109375 37.203125 18.109375 27.296875 
Q 18.109375 17.390625 22.1875 11.75 
Q 26.265625 6.109375 33.40625 6.109375 
Q 40.53125 6.109375 44.609375 11.75 
Q 48.6875 17.390625 48.6875 27.296875 
z
" id="DejaVuSans-112"/>
      <path d="M 30.609375 48.390625 
Q 23.390625 48.390625 19.1875 42.75 
Q 14.984375 37.109375 14.984375 27.296875 
Q 14.984375 17.484375 19.15625 11.84375 
Q 23.34375 6.203125 30.609375 6.203125 
Q 37.796875 6.203125 41.984375 11.859375 
Q 46.1875 17.53125 46.1875 27.296875 
Q 46.1875 37.015625 41.984375 42.703125 
Q 37.796875 48.390625 30.609375 48.390625 
z
M 30.609375 56 
Q 42.328125 56 49.015625 48.375 
Q 55.71875 40.765625 55.71875 27.296875 
Q 55.71875 13.875 49.015625 6.21875 
Q 42.328125 -1.421875 30.609375 -1.421875 
Q 18.84375 -1.421875 12.171875 6.21875 
Q 5.515625 13.875 5.515625 27.296875 
Q 5.515625 40.765625 12.171875 48.375 
Q 18.84375 56 30.609375 56 
z
" id="DejaVuSans-111"/>
      <path d="M 48.78125 52.59375 
L 48.78125 44.1875 
Q 44.96875 46.296875 41.140625 47.34375 
Q 37.3125 48.390625 33.40625 48.390625 
Q 24.65625 48.390625 19.8125 42.84375 
Q 14.984375 37.3125 14.984375 27.296875 
Q 14.984375 17.28125 19.8125 11.734375 
Q 24.65625 6.203125 33.40625 6.203125 
Q 37.3125 6.203125 41.140625 7.25 
Q 44.96875 8.296875 48.78125 10.40625 
L 48.78125 2.09375 
Q 45.015625 0.34375 40.984375 -0.53125 
Q 36.96875 -1.421875 32.421875 -1.421875 
Q 20.0625 -1.421875 12.78125 6.34375 
Q 5.515625 14.109375 5.515625 27.296875 
Q 5.515625 40.671875 12.859375 48.328125 
Q 20.21875 56 33.015625 56 
Q 37.15625 56 41.109375 55.140625 
Q 45.0625 54.296875 48.78125 52.59375 
z
" id="DejaVuSans-99"/>
      <path d="M 54.890625 33.015625 
L 54.890625 0 
L 45.90625 0 
L 45.90625 32.71875 
Q 45.90625 40.484375 42.875 44.328125 
Q 39.84375 48.1875 33.796875 48.1875 
Q 26.515625 48.1875 22.3125 43.546875 
Q 18.109375 38.921875 18.109375 30.90625 
L 18.109375 0 
L 9.078125 0 
L 9.078125 75.984375 
L 18.109375 75.984375 
L 18.109375 46.1875 
Q 21.34375 51.125 25.703125 53.5625 
Q 30.078125 56 35.796875 56 
Q 45.21875 56 50.046875 50.171875 
Q 54.890625 44.34375 54.890625 33.015625 
z
" id="DejaVuSans-104"/>
     </defs>
     <g transform="translate(207.030313 316.706687)scale(0.1 -0.1)">
      <use xlink:href="#DejaVuSans-69"/>
      <use x="63.183594" xlink:href="#DejaVuSans-112"/>
      <use x="126.660156" xlink:href="#DejaVuSans-111"/>
      <use x="187.841797" xlink:href="#DejaVuSans-99"/>
      <use x="242.822266" xlink:href="#DejaVuSans-104"/>
     </g>
    </g>
   </g>
   <g id="matplotlib.axis_2">
    <g id="ytick_1">
     <g id="line2d_9">
      <defs>
       <path d="M 0 0 
L -3.5 0 
" id="m8f7c5521af" style="stroke:#000000;stroke-width:0.8;"/>
      </defs>
      <g>
       <use style="stroke:#000000;stroke-width:0.8;" x="43.78125" xlink:href="#m8f7c5521af" y="276.334125"/>
      </g>
     </g>
     <g id="text_10">
      <!-- 0.0 -->
      <defs>
       <path d="M 10.6875 12.40625 
L 21 12.40625 
L 21 0 
L 10.6875 0 
z
" id="DejaVuSans-46"/>
      </defs>
      <g transform="translate(20.878125 280.133344)scale(0.1 -0.1)">
       <use xlink:href="#DejaVuSans-48"/>
       <use x="63.623047" xlink:href="#DejaVuSans-46"/>
       <use x="95.410156" xlink:href="#DejaVuSans-48"/>
      </g>
     </g>
    </g>
    <g id="ytick_2">
     <g id="line2d_10">
      <g>
       <use style="stroke:#000000;stroke-width:0.8;" x="43.78125" xlink:href="#m8f7c5521af" y="227.950125"/>
      </g>
     </g>
     <g id="text_11">
      <!-- 0.2 -->
      <g transform="translate(20.878125 231.749344)scale(0.1 -0.1)">
       <use xlink:href="#DejaVuSans-48"/>
       <use x="63.623047" xlink:href="#DejaVuSans-46"/>
       <use x="95.410156" xlink:href="#DejaVuSans-50"/>
      </g>
     </g>
    </g>
    <g id="ytick_3">
     <g id="line2d_11">
      <g>
       <use style="stroke:#000000;stroke-width:0.8;" x="43.78125" xlink:href="#m8f7c5521af" y="179.566125"/>
      </g>
     </g>
     <g id="text_12">
      <!-- 0.4 -->
      <defs>
       <path d="M 37.796875 64.3125 
L 12.890625 25.390625 
L 37.796875 25.390625 
z
M 35.203125 72.90625 
L 47.609375 72.90625 
L 47.609375 25.390625 
L 58.015625 25.390625 
L 58.015625 17.1875 
L 47.609375 17.1875 
L 47.609375 0 
L 37.796875 0 
L 37.796875 17.1875 
L 4.890625 17.1875 
L 4.890625 26.703125 
z
" id="DejaVuSans-52"/>
      </defs>
      <g transform="translate(20.878125 183.365344)scale(0.1 -0.1)">
       <use xlink:href="#DejaVuSans-48"/>
       <use x="63.623047" xlink:href="#DejaVuSans-46"/>
       <use x="95.410156" xlink:href="#DejaVuSans-52"/>
      </g>
     </g>
    </g>
    <g id="ytick_4">
     <g id="line2d_12">
      <g>
       <use style="stroke:#000000;stroke-width:0.8;" x="43.78125" xlink:href="#m8f7c5521af" y="131.182125"/>
      </g>
     </g>
     <g id="text_13">
      <!-- 0.6 -->
      <defs>
       <path d="M 33.015625 40.375 
Q 26.375 40.375 22.484375 35.828125 
Q 18.609375 31.296875 18.609375 23.390625 
Q 18.609375 15.53125 22.484375 10.953125 
Q 26.375 6.390625 33.015625 6.390625 
Q 39.65625 6.390625 43.53125 10.953125 
Q 47.40625 15.53125 47.40625 23.390625 
Q 47.40625 31.296875 43.53125 35.828125 
Q 39.65625 40.375 33.015625 40.375 
z
M 52.59375 71.296875 
L 52.59375 62.3125 
Q 48.875 64.0625 45.09375 64.984375 
Q 41.3125 65.921875 37.59375 65.921875 
Q 27.828125 65.921875 22.671875 59.328125 
Q 17.53125 52.734375 16.796875 39.40625 
Q 19.671875 43.65625 24.015625 45.921875 
Q 28.375 48.1875 33.59375 48.1875 
Q 44.578125 48.1875 50.953125 41.515625 
Q 57.328125 34.859375 57.328125 23.390625 
Q 57.328125 12.15625 50.6875 5.359375 
Q 44.046875 -1.421875 33.015625 -1.421875 
Q 20.359375 -1.421875 13.671875 8.265625 
Q 6.984375 17.96875 6.984375 36.375 
Q 6.984375 53.65625 15.1875 63.9375 
Q 23.390625 74.21875 37.203125 74.21875 
Q 40.921875 74.21875 44.703125 73.484375 
Q 48.484375 72.75 52.59375 71.296875 
z
" id="DejaVuSans-54"/>
      </defs>
      <g transform="translate(20.878125 134.981344)scale(0.1 -0.1)">
       <use xlink:href="#DejaVuSans-48"/>
       <use x="63.623047" xlink:href="#DejaVuSans-46"/>
       <use x="95.410156" xlink:href="#DejaVuSans-54"/>
      </g>
     </g>
    </g>
    <g id="ytick_5">
     <g id="line2d_13">
      <g>
       <use style="stroke:#000000;stroke-width:0.8;" x="43.78125" xlink:href="#m8f7c5521af" y="82.798125"/>
      </g>
     </g>
     <g id="text_14">
      <!-- 0.8 -->
      <defs>
       <path d="M 31.78125 34.625 
Q 24.75 34.625 20.71875 30.859375 
Q 16.703125 27.09375 16.703125 20.515625 
Q 16.703125 13.921875 20.71875 10.15625 
Q 24.75 6.390625 31.78125 6.390625 
Q 38.8125 6.390625 42.859375 10.171875 
Q 46.921875 13.96875 46.921875 20.515625 
Q 46.921875 27.09375 42.890625 30.859375 
Q 38.875 34.625 31.78125 34.625 
z
M 21.921875 38.8125 
Q 15.578125 40.375 12.03125 44.71875 
Q 8.5 49.078125 8.5 55.328125 
Q 8.5 64.0625 14.71875 69.140625 
Q 20.953125 74.21875 31.78125 74.21875 
Q 42.671875 74.21875 48.875 69.140625 
Q 55.078125 64.0625 55.078125 55.328125 
Q 55.078125 49.078125 51.53125 44.71875 
Q 48 40.375 41.703125 38.8125 
Q 48.828125 37.15625 52.796875 32.3125 
Q 56.78125 27.484375 56.78125 20.515625 
Q 56.78125 9.90625 50.3125 4.234375 
Q 43.84375 -1.421875 31.78125 -1.421875 
Q 19.734375 -1.421875 13.25 4.234375 
Q 6.78125 9.90625 6.78125 20.515625 
Q 6.78125 27.484375 10.78125 32.3125 
Q 14.796875 37.15625 21.921875 38.8125 
z
M 18.3125 54.390625 
Q 18.3125 48.734375 21.84375 45.5625 
Q 25.390625 42.390625 31.78125 42.390625 
Q 38.140625 42.390625 41.71875 45.5625 
Q 45.3125 48.734375 45.3125 54.390625 
Q 45.3125 60.0625 41.71875 63.234375 
Q 38.140625 66.40625 31.78125 66.40625 
Q 25.390625 66.40625 21.84375 63.234375 
Q 18.3125 60.0625 18.3125 54.390625 
z
" id="DejaVuSans-56"/>
      </defs>
      <g transform="translate(20.878125 86.597344)scale(0.1 -0.1)">
       <use xlink:href="#DejaVuSans-48"/>
       <use x="63.623047" xlink:href="#DejaVuSans-46"/>
       <use x="95.410156" xlink:href="#DejaVuSans-56"/>
      </g>
     </g>
    </g>
    <g id="ytick_6">
     <g id="line2d_14">
      <g>
       <use style="stroke:#000000;stroke-width:0.8;" x="43.78125" xlink:href="#m8f7c5521af" y="34.414125"/>
      </g>
     </g>
     <g id="text_15">
      <!-- 1.0 -->
      <g transform="translate(20.878125 38.213344)scale(0.1 -0.1)">
       <use xlink:href="#DejaVuSans-49"/>
       <use x="63.623047" xlink:href="#DejaVuSans-46"/>
       <use x="95.410156" xlink:href="#DejaVuSans-48"/>
      </g>
     </g>
    </g>
    <g id="text_16">
     <!-- Loss -->
     <defs>
      <path d="M 9.8125 72.90625 
L 19.671875 72.90625 
L 19.671875 8.296875 
L 55.171875 8.296875 
L 55.171875 0 
L 9.8125 0 
z
" id="DejaVuSans-76"/>
      <path d="M 44.28125 53.078125 
L 44.28125 44.578125 
Q 40.484375 46.53125 36.375 47.5 
Q 32.28125 48.484375 27.875 48.484375 
Q 21.1875 48.484375 17.84375 46.4375 
Q 14.5 44.390625 14.5 40.28125 
Q 14.5 37.15625 16.890625 35.375 
Q 19.28125 33.59375 26.515625 31.984375 
L 29.59375 31.296875 
Q 39.15625 29.25 43.1875 25.515625 
Q 47.21875 21.78125 47.21875 15.09375 
Q 47.21875 7.46875 41.1875 3.015625 
Q 35.15625 -1.421875 24.609375 -1.421875 
Q 20.21875 -1.421875 15.453125 -0.5625 
Q 10.6875 0.296875 5.421875 2 
L 5.421875 11.28125 
Q 10.40625 8.6875 15.234375 7.390625 
Q 20.0625 6.109375 24.8125 6.109375 
Q 31.15625 6.109375 34.5625 8.28125 
Q 37.984375 10.453125 37.984375 14.40625 
Q 37.984375 18.0625 35.515625 20.015625 
Q 33.0625 21.96875 24.703125 23.78125 
L 21.578125 24.515625 
Q 13.234375 26.265625 9.515625 29.90625 
Q 5.8125 33.546875 5.8125 39.890625 
Q 5.8125 47.609375 11.28125 51.796875 
Q 16.75 56 26.8125 56 
Q 31.78125 56 36.171875 55.265625 
Q 40.578125 54.546875 44.28125 53.078125 
z
" id="DejaVuSans-115"/>
     </defs>
     <g transform="translate(14.798438 166.428031)rotate(-90)scale(0.1 -0.1)">
      <use xlink:href="#DejaVuSans-76"/>
      <use x="55.697266" xlink:href="#DejaVuSans-111"/>
      <use x="116.878906" xlink:href="#DejaVuSans-115"/>
      <use x="168.978516" xlink:href="#DejaVuSans-115"/>
     </g>
    </g>
   </g>
   <g id="line2d_15">
    <path clip-path="url(#p112a08d06a)" d="M 60.013977 252.319275 
L 60.966043 260.175208 
L 61.91811 260.349649 
L 62.870176 257.141295 
L 63.822242 263.459999 
L 64.774308 263.968449 
L 65.726374 265.4294 
L 66.67844 275.42255 
L 67.630506 276.334125 
L 68.582572 264.578997 
L 69.534638 273.23713 
L 70.486705 274.690916 
L 71.438771 263.463548 
L 72.390837 274.067011 
L 73.342903 275.849696 
L 74.294969 256.583994 
L 75.247035 261.539911 
L 76.199101 262.859972 
L 77.151167 255.132061 
L 78.103233 258.824954 
L 79.0553 260.698659 
L 80.007366 247.960496 
L 80.959432 254.269224 
L 81.911498 255.551042 
L 82.863564 245.337511 
L 84.767696 249.190583 
L 85.719762 239.842886 
L 86.671829 239.454585 
L 87.623895 244.03512 
L 88.575961 238.431087 
L 89.528027 240.070784 
L 90.480093 240.011826 
L 91.432159 236.571595 
L 92.384225 240.528897 
L 93.336291 242.390962 
L 94.288357 239.140612 
L 95.240424 238.843484 
L 96.19249 240.657043 
L 97.144556 235.853662 
L 98.096622 240.096708 
L 99.048688 239.178359 
L 100.000754 238.454128 
L 100.95282 241.885049 
L 101.904886 243.668518 
L 102.856952 237.312549 
L 104.761085 241.777715 
L 105.713151 235.569381 
L 106.665217 238.791336 
L 107.617283 240.271323 
L 108.569349 232.959557 
L 109.521415 234.789849 
L 110.473481 237.128606 
L 112.377614 238.2461 
L 113.32968 239.44893 
L 114.281746 235.438665 
L 115.233812 237.142295 
L 116.185878 235.801098 
L 117.137944 233.789413 
L 118.09001 233.978988 
L 119.042076 234.717356 
L 119.994143 231.532826 
L 120.946209 227.070732 
L 121.898275 219.545571 
L 122.850341 232.774256 
L 123.802407 235.012506 
L 124.754473 234.164216 
L 125.706539 230.234219 
L 126.658605 233.32309 
L 127.610671 232.400945 
L 128.562738 235.823576 
L 129.514804 235.524256 
L 130.46687 234.99137 
L 131.418936 226.391634 
L 132.371002 223.82929 
L 133.323068 226.0729 
L 134.275134 231.466427 
L 135.2272 231.986725 
L 136.179267 231.389077 
L 137.131333 226.61505 
L 138.083399 227.2003 
L 139.035465 232.59107 
L 139.987531 227.824226 
L 140.939597 228.770581 
L 141.891663 224.643647 
L 142.843729 224.75205 
L 143.795795 223.999674 
L 144.747862 224.570706 
L 145.699928 229.070377 
L 146.651994 231.357638 
L 147.60406 234.296537 
L 148.556126 233.985582 
L 149.508192 231.126153 
L 150.460258 235.061249 
L 151.412324 229.032992 
L 152.36439 219.758911 
L 153.316457 222.825213 
L 154.268523 223.510488 
L 155.220589 223.426419 
L 156.172655 226.028645 
L 157.124721 198.94352 
L 158.076787 206.075643 
L 159.028853 211.892481 
L 159.980919 224.777125 
L 160.932986 226.469032 
L 161.885052 219.751002 
L 162.837118 228.093076 
L 163.789184 209.770047 
L 164.74125 209.354382 
L 165.693316 219.448388 
L 166.645382 222.306698 
L 167.597448 221.440347 
L 168.549514 229.914519 
L 169.501581 230.558207 
L 170.453647 228.075036 
L 171.405713 222.56466 
L 172.357779 218.597145 
L 173.309845 227.642184 
L 174.261911 229.8126 
L 175.213977 213.497403 
L 176.166043 217.545993 
L 177.11811 230.961857 
L 178.070176 230.863311 
L 179.022242 230.548814 
L 179.974308 237.084982 
L 180.926374 232.138885 
L 181.87844 232.415534 
L 182.830506 227.968805 
L 184.734638 229.014011 
L 185.686705 231.574381 
L 187.590837 232.688853 
L 188.542903 232.743891 
L 189.494969 231.900573 
L 190.447035 222.173953 
L 191.399101 231.301126 
L 192.351167 219.667042 
L 193.303233 224.789083 
L 194.2553 227.707715 
L 195.207366 231.421113 
L 196.159432 233.477648 
L 197.111498 226.294335 
L 198.063564 231.329766 
L 199.01563 229.214996 
L 199.967696 224.841298 
L 201.871829 34.414125 
L 202.823895 236.481128 
L 203.775961 230.759677 
L 204.728027 150.269553 
L 205.680093 241.971364 
L 206.632159 251.460935 
L 207.584225 251.777487 
L 208.536291 250.529392 
L 209.488357 252.843334 
L 210.440424 251.377701 
L 211.39249 232.650315 
L 212.344556 240.385285 
L 213.296622 236.686274 
L 214.248688 237.792818 
L 215.200754 213.962721 
L 216.15282 234.840102 
L 217.104886 242.037728 
L 218.056952 246.665399 
L 219.009019 247.620745 
L 219.961085 238.984635 
L 220.913151 245.001921 
L 221.865217 245.472344 
L 222.817283 242.434979 
L 223.769349 244.266401 
L 224.721415 245.016622 
L 225.673481 243.23255 
L 226.625548 245.444206 
L 227.577614 246.280238 
L 228.52968 239.595752 
L 229.481746 243.977683 
L 230.433812 244.519861 
L 231.385878 241.091422 
L 232.337944 242.703929 
L 233.29001 243.77478 
L 234.242076 241.672081 
L 235.194143 243.749621 
L 236.146209 244.432503 
L 237.098275 241.385217 
L 238.050341 244.512041 
L 239.002407 245.325276 
L 239.954473 242.042048 
L 240.906539 242.795153 
L 241.858605 243.248713 
L 242.810671 239.55787 
L 244.714804 239.833534 
L 245.66687 237.854891 
L 246.618936 239.538717 
L 247.571002 239.731939 
L 248.523068 235.28391 
L 249.475134 238.309199 
L 250.4272 240.400522 
L 251.379267 229.232882 
L 254.235465 234.481196 
L 255.187531 235.492749 
L 256.139597 235.948831 
L 257.091663 235.499912 
L 258.043729 239.967998 
L 258.995795 239.596022 
L 259.947862 235.035754 
L 260.899928 236.812089 
L 261.851994 237.387263 
L 262.80406 236.926661 
L 263.756126 236.093934 
L 264.708192 236.848495 
L 265.660258 234.686534 
L 266.612324 235.737589 
L 267.56439 236.969954 
L 268.516457 237.425312 
L 269.468523 238.886099 
L 270.420589 239.37579 
L 271.372655 236.215973 
L 272.324721 234.731228 
L 273.276787 234.091567 
L 274.228853 233.234834 
L 275.180919 235.482866 
L 276.132986 235.632501 
L 277.085052 235.467427 
L 278.037118 238.424748 
L 278.989184 239.012028 
L 279.94125 234.453017 
L 280.893316 235.842278 
L 281.845382 234.18719 
L 282.797448 236.999305 
L 285.653647 238.826434 
L 286.605713 240.586253 
L 287.557779 240.548488 
L 288.509845 235.130057 
L 289.461911 236.352694 
L 290.413977 235.972134 
L 291.366043 228.998747 
L 292.31811 229.200673 
L 293.270176 231.505153 
L 294.222242 234.808992 
L 295.174308 233.661969 
L 296.126374 233.464278 
L 297.07844 237.311878 
L 298.030506 237.155923 
L 298.982572 236.097001 
L 299.934638 235.915673 
L 300.886705 238.73498 
L 301.838771 238.838967 
L 302.790837 236.938748 
L 303.742903 239.053065 
L 304.694969 238.201192 
L 305.647035 235.297707 
L 306.599101 235.34327 
L 307.551167 231.261235 
L 308.503233 229.128507 
L 309.4553 219.802223 
L 310.407366 233.928174 
L 311.359432 236.740184 
L 312.311498 234.475984 
L 313.263564 233.56643 
L 314.21563 235.835166 
L 315.167696 236.595828 
L 316.119762 237.648256 
L 318.023895 231.330715 
L 318.975961 233.169462 
L 319.928027 230.051477 
L 320.880093 230.268708 
L 321.832159 228.707846 
L 322.784225 90.170997 
L 323.736291 72.568183 
L 324.688357 80.595679 
L 325.640424 239.512334 
L 327.544556 240.337228 
L 328.496622 239.385488 
L 329.448688 237.148039 
L 330.400754 236.857588 
L 331.35282 239.066084 
L 332.304886 239.522444 
L 333.256952 239.566346 
L 334.209019 233.234654 
L 335.161085 235.63346 
L 336.113151 238.81521 
L 337.065217 235.492428 
L 338.017283 232.637441 
L 338.969349 231.654382 
L 339.921415 234.563102 
L 340.873481 239.613225 
L 341.825548 239.172031 
L 342.777614 239.29472 
L 343.72968 240.865846 
L 344.681746 241.418943 
L 345.633812 238.377562 
L 346.585878 239.319905 
L 347.537944 239.165445 
L 349.442076 239.624824 
L 350.394143 240.506728 
L 351.346209 238.233257 
L 352.298275 236.972535 
L 353.250341 237.538738 
L 354.202407 239.544383 
L 356.106539 239.242599 
L 357.058605 240.258484 
L 358.010671 241.578885 
L 358.962738 241.565959 
L 359.914804 238.230123 
L 360.86687 238.067761 
L 361.818936 238.31329 
L 362.771002 237.346021 
L 363.723068 239.57125 
L 364.675134 238.312251 
L 365.6272 239.12469 
L 366.579267 240.21826 
L 367.531333 240.637576 
L 368.483399 237.392513 
L 370.387531 237.791809 
L 371.339597 236.57129 
L 372.291663 238.480215 
L 373.243729 236.17614 
L 374.195795 231.424944 
L 375.147862 232.094282 
L 376.099928 230.716101 
L 377.051994 234.81797 
L 378.00406 236.387339 
L 378.956126 236.720296 
L 379.908192 233.968041 
L 380.860258 235.952681 
L 381.812324 236.70065 
L 382.76439 235.914439 
L 383.716457 235.779724 
L 384.668523 235.09284 
L 384.668523 235.09284 
" style="fill:none;stroke:#1f77b4;stroke-linecap:square;stroke-width:1.5;"/>
   </g>
   <g id="line2d_16">
    <path clip-path="url(#p112a08d06a)" d="M 60.013977 272.840449 
L 61.91811 274.699359 
L 62.870176 275.037361 
L 63.822242 275.499594 
L 64.774308 275.786258 
L 65.726374 275.473578 
L 67.630506 275.859975 
L 68.582572 275.006995 
L 70.486705 275.366978 
L 71.438771 274.273573 
L 73.342903 274.678665 
L 74.294969 272.012844 
L 76.199101 272.58662 
L 77.151167 270.291332 
L 79.0553 270.944874 
L 80.007366 269.759406 
L 81.911498 270.463597 
L 82.863564 268.269963 
L 84.767696 269.112574 
L 85.719762 264.293278 
L 87.623895 265.297781 
L 88.575961 264.993324 
L 90.480093 265.959748 
L 91.432159 261.791801 
L 93.336291 262.917706 
L 94.288357 259.48673 
L 96.19249 260.72218 
L 97.144556 259.208567 
L 99.048688 260.477415 
L 100.000754 255.131406 
L 101.904886 256.473049 
L 102.856952 246.682744 
L 104.761085 248.289742 
L 105.713151 240.891708 
L 107.617283 242.763928 
L 108.569349 238.205234 
L 110.473481 240.271735 
L 111.425548 234.735522 
L 113.32968 236.849839 
L 114.281746 228.933385 
L 116.185878 231.176431 
L 117.137944 226.923784 
L 119.042076 229.178033 
L 119.994143 227.729368 
L 121.898275 229.773838 
L 122.850341 244.19723 
L 124.754473 245.739622 
L 125.706539 242.400057 
L 127.610671 244.056484 
L 128.562738 225.489473 
L 130.46687 227.878298 
L 131.418936 207.438184 
L 133.323068 210.349652 
L 134.275134 217.362969 
L 136.179267 219.885025 
L 137.131333 231.302514 
L 139.035465 233.303837 
L 139.987531 231.545886 
L 141.891663 233.449731 
L 142.843729 222.514363 
L 144.747862 224.684566 
L 145.699928 229.711656 
L 147.60406 231.711415 
L 148.556126 243.786867 
L 150.460258 245.130337 
L 151.412324 247.5949 
L 153.316457 249.029038 
L 154.268523 253.508539 
L 156.172655 254.599168 
L 157.124721 255.446433 
L 159.028853 256.396296 
L 159.980919 249.042715 
L 161.885052 250.154695 
L 162.837118 258.859359 
L 164.74125 259.659717 
L 165.693316 243.695709 
L 167.597448 245.167726 
L 168.549514 244.623312 
L 170.453647 245.847682 
L 171.405713 244.08146 
L 173.309845 245.491249 
L 174.261911 240.641604 
L 176.166043 241.957353 
L 177.11811 178.931854 
L 179.022242 182.417242 
L 179.974308 135.451129 
L 181.87844 139.911816 
L 182.830506 105.39441 
L 184.734638 110.903669 
L 185.686705 117.699054 
L 187.590837 122.573337 
L 188.542903 98.138517 
L 190.447035 103.420539 
L 191.399101 77.372403 
L 193.303233 83.255621 
L 194.2553 70.435407 
L 196.159432 76.514614 
L 197.111498 69.545463 
L 199.01563 75.366249 
L 199.967696 34.414125 
L 201.871829 41.717981 
L 202.823895 251.874577 
L 203.775961 271.450195 
L 204.728027 276.027049 
L 205.680093 275.9195 
L 206.632159 276.278821 
L 207.584225 276.326421 
L 208.536291 276.20765 
L 213.296622 276.334125 
L 214.248688 275.162936 
L 216.15282 275.358221 
L 217.104886 272.927821 
L 218.056952 273.267265 
L 219.009019 273.417763 
L 219.961085 271.720569 
L 220.913151 272.098204 
L 221.865217 272.229849 
L 222.817283 269.330527 
L 223.769349 269.878662 
L 224.721415 270.115932 
L 225.673481 266.466451 
L 226.625548 266.992278 
L 227.577614 267.30872 
L 228.52968 268.470571 
L 230.433812 268.940831 
L 231.385878 266.163451 
L 232.337944 266.785468 
L 233.29001 267.149545 
L 234.242076 266.286707 
L 235.194143 266.701229 
L 236.146209 266.969619 
L 237.098275 264.052248 
L 238.050341 265.165794 
L 239.002407 265.855387 
L 239.954473 264.592363 
L 240.906539 265.562645 
L 241.858605 266.1356 
L 242.810671 263.799552 
L 243.762738 264.603093 
L 244.714804 265.033266 
L 245.66687 263.72733 
L 246.618936 264.493261 
L 247.571002 264.934422 
L 248.523068 260.103553 
L 250.4272 260.719733 
L 251.379267 256.586437 
L 252.331333 257.037822 
L 253.283399 257.342434 
L 254.235465 260.837774 
L 256.139597 261.436362 
L 257.091663 259.008856 
L 258.995795 259.747769 
L 259.947862 257.17628 
L 261.851994 257.589944 
L 262.80406 262.478749 
L 264.708192 263.067405 
L 265.660258 257.964729 
L 267.56439 258.548875 
L 268.516457 251.065697 
L 270.420589 251.794025 
L 271.372655 242.748797 
L 272.324721 243.501188 
L 273.276787 244.044354 
L 274.228853 242.891551 
L 275.180919 243.566188 
L 276.132986 244.05128 
L 277.085052 225.088743 
L 278.037118 226.138923 
L 278.989184 226.933773 
L 279.94125 248.955073 
L 281.845382 249.548899 
L 282.797448 234.635052 
L 283.749514 235.149815 
L 284.701581 235.508146 
L 285.653647 204.699171 
L 286.605713 206.251184 
L 287.557779 207.25875 
L 288.509845 213.168469 
L 290.413977 214.370142 
L 291.366043 215.22105 
L 293.270176 216.436071 
L 294.222242 174.705075 
L 295.174308 177.171181 
L 296.126374 178.760157 
L 297.07844 189.23227 
L 298.982572 190.260308 
L 299.934638 160.249911 
L 300.886705 162.915962 
L 301.838771 164.831747 
L 302.790837 161.399702 
L 303.742903 163.52792 
L 304.694969 165.268536 
L 305.647035 151.88985 
L 306.599101 155.006795 
L 307.551167 157.400248 
L 308.503233 147.711121 
L 309.4553 150.274091 
L 310.407366 152.153183 
L 311.359432 133.868027 
L 313.263564 138.225386 
L 314.21563 151.667054 
L 316.119762 155.132997 
L 317.071829 113.103234 
L 318.975961 119.038124 
L 319.928027 124.32126 
L 321.832159 129.077428 
L 322.784225 96.508057 
L 324.688357 103.006878 
L 325.640424 194.768496 
L 326.59249 231.679613 
L 327.544556 252.183537 
L 329.448688 262.162952 
L 330.400754 264.403376 
L 331.35282 267.22419 
L 332.304886 268.386331 
L 333.256952 269.114757 
L 334.209019 268.759573 
L 335.161085 269.489055 
L 336.113151 269.998981 
L 337.065217 269.842321 
L 338.017283 270.170731 
L 338.969349 270.378594 
L 339.921415 266.559914 
L 340.873481 266.934225 
L 341.825548 267.180673 
L 342.777614 266.943089 
L 343.72968 267.326397 
L 344.681746 267.508951 
L 345.633812 265.876111 
L 346.585878 266.260716 
L 347.537944 266.49527 
L 348.49001 265.576108 
L 349.442076 265.944058 
L 350.394143 266.143607 
L 351.346209 263.16104 
L 352.298275 263.654922 
L 353.250341 263.969828 
L 354.202407 259.21774 
L 356.106539 259.71235 
L 357.058605 258.97637 
L 358.010671 259.912936 
L 358.962738 260.396633 
L 359.914804 259.423099 
L 360.86687 259.963147 
L 361.818936 260.362999 
L 362.771002 262.805771 
L 364.675134 263.334088 
L 365.6272 258.991328 
L 366.579267 259.645074 
L 367.531333 260.078562 
L 368.483399 257.754126 
L 369.435465 258.263174 
L 370.387531 258.62375 
L 371.339597 258.090609 
L 372.291663 258.59876 
L 373.243729 258.948226 
L 374.195795 250.434515 
L 375.147862 252.118712 
L 376.099928 253.540995 
L 377.051994 249.143471 
L 378.00406 251.500115 
L 378.956126 252.860701 
L 379.908192 244.404076 
L 380.860258 246.48104 
L 381.812324 247.528673 
L 382.76439 250.960079 
L 383.716457 251.45806 
L 384.668523 251.746884 
L 384.668523 251.746884 
" style="fill:none;stroke:#ff7f0e;stroke-linecap:square;stroke-width:1.5;"/>
   </g>
   <g id="patch_3">
    <path d="M 43.78125 288.430125 
L 43.78125 22.318125 
" style="fill:none;stroke:#000000;stroke-linecap:square;stroke-linejoin:miter;stroke-width:0.8;"/>
   </g>
   <g id="patch_4">
    <path d="M 400.90125 288.430125 
L 400.90125 22.318125 
" style="fill:none;stroke:#000000;stroke-linecap:square;stroke-linejoin:miter;stroke-width:0.8;"/>
   </g>
   <g id="patch_5">
    <path d="M 43.78125 288.430125 
L 400.90125 288.430125 
" style="fill:none;stroke:#000000;stroke-linecap:square;stroke-linejoin:miter;stroke-width:0.8;"/>
   </g>
   <g id="patch_6">
    <path d="M 43.78125 22.318125 
L 400.90125 22.318125 
" style="fill:none;stroke:#000000;stroke-linecap:square;stroke-linejoin:miter;stroke-width:0.8;"/>
   </g>
   <g id="text_17">
    <!-- Entropy and Loss. -->
    <defs>
     <path d="M 54.890625 33.015625 
L 54.890625 0 
L 45.90625 0 
L 45.90625 32.71875 
Q 45.90625 40.484375 42.875 44.328125 
Q 39.84375 48.1875 33.796875 48.1875 
Q 26.515625 48.1875 22.3125 43.546875 
Q 18.109375 38.921875 18.109375 30.90625 
L 18.109375 0 
L 9.078125 0 
L 9.078125 54.6875 
L 18.109375 54.6875 
L 18.109375 46.1875 
Q 21.34375 51.125 25.703125 53.5625 
Q 30.078125 56 35.796875 56 
Q 45.21875 56 50.046875 50.171875 
Q 54.890625 44.34375 54.890625 33.015625 
z
" id="DejaVuSans-110"/>
     <path d="M 18.3125 70.21875 
L 18.3125 54.6875 
L 36.8125 54.6875 
L 36.8125 47.703125 
L 18.3125 47.703125 
L 18.3125 18.015625 
Q 18.3125 11.328125 20.140625 9.421875 
Q 21.96875 7.515625 27.59375 7.515625 
L 36.8125 7.515625 
L 36.8125 0 
L 27.59375 0 
Q 17.1875 0 13.234375 3.875 
Q 9.28125 7.765625 9.28125 18.015625 
L 9.28125 47.703125 
L 2.6875 47.703125 
L 2.6875 54.6875 
L 9.28125 54.6875 
L 9.28125 70.21875 
z
" id="DejaVuSans-116"/>
     <path d="M 41.109375 46.296875 
Q 39.59375 47.171875 37.8125 47.578125 
Q 36.03125 48 33.890625 48 
Q 26.265625 48 22.1875 43.046875 
Q 18.109375 38.09375 18.109375 28.8125 
L 18.109375 0 
L 9.078125 0 
L 9.078125 54.6875 
L 18.109375 54.6875 
L 18.109375 46.1875 
Q 20.953125 51.171875 25.484375 53.578125 
Q 30.03125 56 36.53125 56 
Q 37.453125 56 38.578125 55.875 
Q 39.703125 55.765625 41.0625 55.515625 
z
" id="DejaVuSans-114"/>
     <path d="M 32.171875 -5.078125 
Q 28.375 -14.84375 24.75 -17.8125 
Q 21.140625 -20.796875 15.09375 -20.796875 
L 7.90625 -20.796875 
L 7.90625 -13.28125 
L 13.1875 -13.28125 
Q 16.890625 -13.28125 18.9375 -11.515625 
Q 21 -9.765625 23.484375 -3.21875 
L 25.09375 0.875 
L 2.984375 54.6875 
L 12.5 54.6875 
L 29.59375 11.921875 
L 46.6875 54.6875 
L 56.203125 54.6875 
z
" id="DejaVuSans-121"/>
     <path id="DejaVuSans-32"/>
     <path d="M 34.28125 27.484375 
Q 23.390625 27.484375 19.1875 25 
Q 14.984375 22.515625 14.984375 16.5 
Q 14.984375 11.71875 18.140625 8.90625 
Q 21.296875 6.109375 26.703125 6.109375 
Q 34.1875 6.109375 38.703125 11.40625 
Q 43.21875 16.703125 43.21875 25.484375 
L 43.21875 27.484375 
z
M 52.203125 31.203125 
L 52.203125 0 
L 43.21875 0 
L 43.21875 8.296875 
Q 40.140625 3.328125 35.546875 0.953125 
Q 30.953125 -1.421875 24.3125 -1.421875 
Q 15.921875 -1.421875 10.953125 3.296875 
Q 6 8.015625 6 15.921875 
Q 6 25.140625 12.171875 29.828125 
Q 18.359375 34.515625 30.609375 34.515625 
L 43.21875 34.515625 
L 43.21875 35.40625 
Q 43.21875 41.609375 39.140625 45 
Q 35.0625 48.390625 27.6875 48.390625 
Q 23 48.390625 18.546875 47.265625 
Q 14.109375 46.140625 10.015625 43.890625 
L 10.015625 52.203125 
Q 14.9375 54.109375 19.578125 55.046875 
Q 24.21875 56 28.609375 56 
Q 40.484375 56 46.34375 49.84375 
Q 52.203125 43.703125 52.203125 31.203125 
z
" id="DejaVuSans-97"/>
     <path d="M 45.40625 46.390625 
L 45.40625 75.984375 
L 54.390625 75.984375 
L 54.390625 0 
L 45.40625 0 
L 45.40625 8.203125 
Q 42.578125 3.328125 38.25 0.953125 
Q 33.9375 -1.421875 27.875 -1.421875 
Q 17.96875 -1.421875 11.734375 6.484375 
Q 5.515625 14.40625 5.515625 27.296875 
Q 5.515625 40.1875 11.734375 48.09375 
Q 17.96875 56 27.875 56 
Q 33.9375 56 38.25 53.625 
Q 42.578125 51.265625 45.40625 46.390625 
z
M 14.796875 27.296875 
Q 14.796875 17.390625 18.875 11.75 
Q 22.953125 6.109375 30.078125 6.109375 
Q 37.203125 6.109375 41.296875 11.75 
Q 45.40625 17.390625 45.40625 27.296875 
Q 45.40625 37.203125 41.296875 42.84375 
Q 37.203125 48.484375 30.078125 48.484375 
Q 22.953125 48.484375 18.875 42.84375 
Q 14.796875 37.203125 14.796875 27.296875 
z
" id="DejaVuSans-100"/>
    </defs>
    <g transform="translate(168.625313 16.318125)scale(0.12 -0.12)">
     <use xlink:href="#DejaVuSans-69"/>
     <use x="63.183594" xlink:href="#DejaVuSans-110"/>
     <use x="126.5625" xlink:href="#DejaVuSans-116"/>
     <use x="165.771484" xlink:href="#DejaVuSans-114"/>
     <use x="206.853516" xlink:href="#DejaVuSans-111"/>
     <use x="268.035156" xlink:href="#DejaVuSans-112"/>
     <use x="331.511719" xlink:href="#DejaVuSans-121"/>
     <use x="390.691406" xlink:href="#DejaVuSans-32"/>
     <use x="422.478516" xlink:href="#DejaVuSans-97"/>
     <use x="483.757812" xlink:href="#DejaVuSans-110"/>
     <use x="547.136719" xlink:href="#DejaVuSans-100"/>
     <use x="610.613281" xlink:href="#DejaVuSans-32"/>
     <use x="642.400391" xlink:href="#DejaVuSans-76"/>
     <use x="698.097656" xlink:href="#DejaVuSans-111"/>
     <use x="759.279297" xlink:href="#DejaVuSans-115"/>
     <use x="811.378906" xlink:href="#DejaVuSans-115"/>
     <use x="863.478516" xlink:href="#DejaVuSans-46"/>
    </g>
   </g>
   <g id="legend_1">
    <g id="patch_7">
     <path d="M 20.061562 353.02505 
L 428.620938 353.02505 
Q 430.620938 353.02505 430.620938 351.02505 
L 430.620938 337.346925 
Q 430.620938 335.346925 428.620938 335.346925 
L 20.061562 335.346925 
Q 18.061562 335.346925 18.061562 337.346925 
L 18.061562 351.02505 
Q 18.061562 353.02505 20.061562 353.02505 
z
" style="fill:#4c4c4c;opacity:0.5;stroke:#4c4c4c;stroke-linejoin:miter;"/>
    </g>
    <g id="patch_8">
     <path d="M 18.061562 351.02505 
L 426.620938 351.02505 
Q 428.620938 351.02505 428.620938 349.02505 
L 428.620938 335.346925 
Q 428.620938 333.346925 426.620938 333.346925 
L 18.061562 333.346925 
Q 16.061562 333.346925 16.061562 335.346925 
L 16.061562 349.02505 
Q 16.061562 351.02505 18.061562 351.02505 
z
" style="fill:#ffffff;stroke:#cccccc;stroke-linejoin:miter;"/>
    </g>
    <g id="line2d_17">
     <path d="M 20.061562 341.445362 
L 40.061562 341.445362 
" style="fill:none;stroke:#1f77b4;stroke-linecap:square;stroke-width:1.5;"/>
    </g>
    <g id="line2d_18"/>
    <g id="text_18">
     <!-- Policy Loss (Normalized) -->
     <defs>
      <path d="M 19.671875 64.796875 
L 19.671875 37.40625 
L 32.078125 37.40625 
Q 38.96875 37.40625 42.71875 40.96875 
Q 46.484375 44.53125 46.484375 51.125 
Q 46.484375 57.671875 42.71875 61.234375 
Q 38.96875 64.796875 32.078125 64.796875 
z
M 9.8125 72.90625 
L 32.078125 72.90625 
Q 44.34375 72.90625 50.609375 67.359375 
Q 56.890625 61.8125 56.890625 51.125 
Q 56.890625 40.328125 50.609375 34.8125 
Q 44.34375 29.296875 32.078125 29.296875 
L 19.671875 29.296875 
L 19.671875 0 
L 9.8125 0 
z
" id="DejaVuSans-80"/>
      <path d="M 9.421875 75.984375 
L 18.40625 75.984375 
L 18.40625 0 
L 9.421875 0 
z
" id="DejaVuSans-108"/>
      <path d="M 9.421875 54.6875 
L 18.40625 54.6875 
L 18.40625 0 
L 9.421875 0 
z
M 9.421875 75.984375 
L 18.40625 75.984375 
L 18.40625 64.59375 
L 9.421875 64.59375 
z
" id="DejaVuSans-105"/>
      <path d="M 31 75.875 
Q 24.46875 64.65625 21.28125 53.65625 
Q 18.109375 42.671875 18.109375 31.390625 
Q 18.109375 20.125 21.3125 9.0625 
Q 24.515625 -2 31 -13.1875 
L 23.1875 -13.1875 
Q 15.875 -1.703125 12.234375 9.375 
Q 8.59375 20.453125 8.59375 31.390625 
Q 8.59375 42.28125 12.203125 53.3125 
Q 15.828125 64.359375 23.1875 75.875 
z
" id="DejaVuSans-40"/>
      <path d="M 9.8125 72.90625 
L 23.09375 72.90625 
L 55.421875 11.921875 
L 55.421875 72.90625 
L 64.984375 72.90625 
L 64.984375 0 
L 51.703125 0 
L 19.390625 60.984375 
L 19.390625 0 
L 9.8125 0 
z
" id="DejaVuSans-78"/>
      <path d="M 52 44.1875 
Q 55.375 50.25 60.0625 53.125 
Q 64.75 56 71.09375 56 
Q 79.640625 56 84.28125 50.015625 
Q 88.921875 44.046875 88.921875 33.015625 
L 88.921875 0 
L 79.890625 0 
L 79.890625 32.71875 
Q 79.890625 40.578125 77.09375 44.375 
Q 74.3125 48.1875 68.609375 48.1875 
Q 61.625 48.1875 57.5625 43.546875 
Q 53.515625 38.921875 53.515625 30.90625 
L 53.515625 0 
L 44.484375 0 
L 44.484375 32.71875 
Q 44.484375 40.625 41.703125 44.40625 
Q 38.921875 48.1875 33.109375 48.1875 
Q 26.21875 48.1875 22.15625 43.53125 
Q 18.109375 38.875 18.109375 30.90625 
L 18.109375 0 
L 9.078125 0 
L 9.078125 54.6875 
L 18.109375 54.6875 
L 18.109375 46.1875 
Q 21.1875 51.21875 25.484375 53.609375 
Q 29.78125 56 35.6875 56 
Q 41.65625 56 45.828125 52.96875 
Q 50 49.953125 52 44.1875 
z
" id="DejaVuSans-109"/>
      <path d="M 5.515625 54.6875 
L 48.1875 54.6875 
L 48.1875 46.484375 
L 14.40625 7.171875 
L 48.1875 7.171875 
L 48.1875 0 
L 4.296875 0 
L 4.296875 8.203125 
L 38.09375 47.515625 
L 5.515625 47.515625 
z
" id="DejaVuSans-122"/>
      <path d="M 56.203125 29.59375 
L 56.203125 25.203125 
L 14.890625 25.203125 
Q 15.484375 15.921875 20.484375 11.0625 
Q 25.484375 6.203125 34.421875 6.203125 
Q 39.59375 6.203125 44.453125 7.46875 
Q 49.3125 8.734375 54.109375 11.28125 
L 54.109375 2.78125 
Q 49.265625 0.734375 44.1875 -0.34375 
Q 39.109375 -1.421875 33.890625 -1.421875 
Q 20.796875 -1.421875 13.15625 6.1875 
Q 5.515625 13.8125 5.515625 26.8125 
Q 5.515625 40.234375 12.765625 48.109375 
Q 20.015625 56 32.328125 56 
Q 43.359375 56 49.78125 48.890625 
Q 56.203125 41.796875 56.203125 29.59375 
z
M 47.21875 32.234375 
Q 47.125 39.59375 43.09375 43.984375 
Q 39.0625 48.390625 32.421875 48.390625 
Q 24.90625 48.390625 20.390625 44.140625 
Q 15.875 39.890625 15.1875 32.171875 
z
" id="DejaVuSans-101"/>
      <path d="M 8.015625 75.875 
L 15.828125 75.875 
Q 23.140625 64.359375 26.78125 53.3125 
Q 30.421875 42.28125 30.421875 31.390625 
Q 30.421875 20.453125 26.78125 9.375 
Q 23.140625 -1.703125 15.828125 -13.1875 
L 8.015625 -13.1875 
Q 14.5 -2 17.703125 9.0625 
Q 20.90625 20.125 20.90625 31.390625 
Q 20.90625 42.671875 17.703125 53.65625 
Q 14.5 64.65625 8.015625 75.875 
z
" id="DejaVuSans-41"/>
     </defs>
     <g transform="translate(48.061562 344.945362)scale(0.1 -0.1)">
      <use xlink:href="#DejaVuSans-80"/>
      <use x="60.255859" xlink:href="#DejaVuSans-111"/>
      <use x="121.4375" xlink:href="#DejaVuSans-108"/>
      <use x="149.220703" xlink:href="#DejaVuSans-105"/>
      <use x="177.003906" xlink:href="#DejaVuSans-99"/>
      <use x="231.984375" xlink:href="#DejaVuSans-121"/>
      <use x="291.164062" xlink:href="#DejaVuSans-32"/>
      <use x="322.951172" xlink:href="#DejaVuSans-76"/>
      <use x="378.648438" xlink:href="#DejaVuSans-111"/>
      <use x="439.830078" xlink:href="#DejaVuSans-115"/>
      <use x="491.929688" xlink:href="#DejaVuSans-115"/>
      <use x="544.029297" xlink:href="#DejaVuSans-32"/>
      <use x="575.816406" xlink:href="#DejaVuSans-40"/>
      <use x="614.830078" xlink:href="#DejaVuSans-78"/>
      <use x="689.634766" xlink:href="#DejaVuSans-111"/>
      <use x="750.816406" xlink:href="#DejaVuSans-114"/>
      <use x="791.914062" xlink:href="#DejaVuSans-109"/>
      <use x="889.326172" xlink:href="#DejaVuSans-97"/>
      <use x="950.605469" xlink:href="#DejaVuSans-108"/>
      <use x="978.388672" xlink:href="#DejaVuSans-105"/>
      <use x="1006.171875" xlink:href="#DejaVuSans-122"/>
      <use x="1058.662109" xlink:href="#DejaVuSans-101"/>
      <use x="1120.185547" xlink:href="#DejaVuSans-100"/>
      <use x="1183.662109" xlink:href="#DejaVuSans-41"/>
     </g>
    </g>
    <g id="line2d_19">
     <path d="M 190.330312 341.445362 
L 210.330312 341.445362 
" style="fill:none;stroke:#ff7f0e;stroke-linecap:square;stroke-width:1.5;"/>
    </g>
    <g id="line2d_20"/>
    <g id="text_19">
     <!-- Critic Loss (Normalized) -->
     <defs>
      <path d="M 64.40625 67.28125 
L 64.40625 56.890625 
Q 59.421875 61.53125 53.78125 63.8125 
Q 48.140625 66.109375 41.796875 66.109375 
Q 29.296875 66.109375 22.65625 58.46875 
Q 16.015625 50.828125 16.015625 36.375 
Q 16.015625 21.96875 22.65625 14.328125 
Q 29.296875 6.6875 41.796875 6.6875 
Q 48.140625 6.6875 53.78125 8.984375 
Q 59.421875 11.28125 64.40625 15.921875 
L 64.40625 5.609375 
Q 59.234375 2.09375 53.4375 0.328125 
Q 47.65625 -1.421875 41.21875 -1.421875 
Q 24.65625 -1.421875 15.125 8.703125 
Q 5.609375 18.84375 5.609375 36.375 
Q 5.609375 53.953125 15.125 64.078125 
Q 24.65625 74.21875 41.21875 74.21875 
Q 47.75 74.21875 53.53125 72.484375 
Q 59.328125 70.75 64.40625 67.28125 
z
" id="DejaVuSans-67"/>
     </defs>
     <g transform="translate(218.330312 344.945362)scale(0.1 -0.1)">
      <use xlink:href="#DejaVuSans-67"/>
      <use x="69.824219" xlink:href="#DejaVuSans-114"/>
      <use x="110.9375" xlink:href="#DejaVuSans-105"/>
      <use x="138.720703" xlink:href="#DejaVuSans-116"/>
      <use x="177.929688" xlink:href="#DejaVuSans-105"/>
      <use x="205.712891" xlink:href="#DejaVuSans-99"/>
      <use x="260.693359" xlink:href="#DejaVuSans-32"/>
      <use x="292.480469" xlink:href="#DejaVuSans-76"/>
      <use x="348.177734" xlink:href="#DejaVuSans-111"/>
      <use x="409.359375" xlink:href="#DejaVuSans-115"/>
      <use x="461.458984" xlink:href="#DejaVuSans-115"/>
      <use x="513.558594" xlink:href="#DejaVuSans-32"/>
      <use x="545.345703" xlink:href="#DejaVuSans-40"/>
      <use x="584.359375" xlink:href="#DejaVuSans-78"/>
      <use x="659.164062" xlink:href="#DejaVuSans-111"/>
      <use x="720.345703" xlink:href="#DejaVuSans-114"/>
      <use x="761.443359" xlink:href="#DejaVuSans-109"/>
      <use x="858.855469" xlink:href="#DejaVuSans-97"/>
      <use x="920.134766" xlink:href="#DejaVuSans-108"/>
      <use x="947.917969" xlink:href="#DejaVuSans-105"/>
      <use x="975.701172" xlink:href="#DejaVuSans-122"/>
      <use x="1028.191406" xlink:href="#DejaVuSans-101"/>
      <use x="1089.714844" xlink:href="#DejaVuSans-100"/>
      <use x="1153.191406" xlink:href="#DejaVuSans-41"/>
     </g>
    </g>
    <g id="line2d_21">
     <path d="M 357.550625 341.445362 
L 377.550625 341.445362 
" style="fill:none;stroke:#008000;stroke-linecap:square;stroke-width:1.5;"/>
    </g>
    <g id="line2d_22"/>
    <g id="text_20">
     <!-- Entropy -->
     <g transform="translate(385.550625 344.945362)scale(0.1 -0.1)">
      <use xlink:href="#DejaVuSans-69"/>
      <use x="63.183594" xlink:href="#DejaVuSans-110"/>
      <use x="126.5625" xlink:href="#DejaVuSans-116"/>
      <use x="165.771484" xlink:href="#DejaVuSans-114"/>
      <use x="206.853516" xlink:href="#DejaVuSans-111"/>
      <use x="268.035156" xlink:href="#DejaVuSans-112"/>
      <use x="331.511719" xlink:href="#DejaVuSans-121"/>
     </g>
    </g>
   </g>
  </g>
  <g id="axes_2">
   <g id="matplotlib.axis_3">
    <g id="ytick_7">
     <g id="line2d_23">
      <defs>
       <path d="M 0 0 
L 3.5 0 
" id="m57d3801982" style="stroke:#000000;stroke-width:0.8;"/>
      </defs>
      <g>
       <use style="stroke:#000000;stroke-width:0.8;" x="400.90125" xlink:href="#m57d3801982" y="258.3697"/>
      </g>
     </g>
     <g id="text_21">
      <!-- −1.5 -->
      <defs>
       <path d="M 10.59375 35.5 
L 73.1875 35.5 
L 73.1875 27.203125 
L 10.59375 27.203125 
z
" id="DejaVuSans-8722"/>
      </defs>
      <g transform="translate(407.90125 262.168918)scale(0.1 -0.1)">
       <use xlink:href="#DejaVuSans-8722"/>
       <use x="83.789062" xlink:href="#DejaVuSans-49"/>
       <use x="147.412109" xlink:href="#DejaVuSans-46"/>
       <use x="179.199219" xlink:href="#DejaVuSans-53"/>
      </g>
     </g>
    </g>
    <g id="ytick_8">
     <g id="line2d_24">
      <g>
       <use style="stroke:#000000;stroke-width:0.8;" x="400.90125" xlink:href="#m57d3801982" y="215.801888"/>
      </g>
     </g>
     <g id="text_22">
      <!-- −1.0 -->
      <g transform="translate(407.90125 219.601107)scale(0.1 -0.1)">
       <use xlink:href="#DejaVuSans-8722"/>
       <use x="83.789062" xlink:href="#DejaVuSans-49"/>
       <use x="147.412109" xlink:href="#DejaVuSans-46"/>
       <use x="179.199219" xlink:href="#DejaVuSans-48"/>
      </g>
     </g>
    </g>
    <g id="ytick_9">
     <g id="line2d_25">
      <g>
       <use style="stroke:#000000;stroke-width:0.8;" x="400.90125" xlink:href="#m57d3801982" y="173.234077"/>
      </g>
     </g>
     <g id="text_23">
      <!-- −0.5 -->
      <g transform="translate(407.90125 177.033296)scale(0.1 -0.1)">
       <use xlink:href="#DejaVuSans-8722"/>
       <use x="83.789062" xlink:href="#DejaVuSans-48"/>
       <use x="147.412109" xlink:href="#DejaVuSans-46"/>
       <use x="179.199219" xlink:href="#DejaVuSans-53"/>
      </g>
     </g>
    </g>
    <g id="ytick_10">
     <g id="line2d_26">
      <g>
       <use style="stroke:#000000;stroke-width:0.8;" x="400.90125" xlink:href="#m57d3801982" y="130.666266"/>
      </g>
     </g>
     <g id="text_24">
      <!-- 0.0 -->
      <g transform="translate(407.90125 134.465484)scale(0.1 -0.1)">
       <use xlink:href="#DejaVuSans-48"/>
       <use x="63.623047" xlink:href="#DejaVuSans-46"/>
       <use x="95.410156" xlink:href="#DejaVuSans-48"/>
      </g>
     </g>
    </g>
    <g id="ytick_11">
     <g id="line2d_27">
      <g>
       <use style="stroke:#000000;stroke-width:0.8;" x="400.90125" xlink:href="#m57d3801982" y="88.098454"/>
      </g>
     </g>
     <g id="text_25">
      <!-- 0.5 -->
      <g transform="translate(407.90125 91.897673)scale(0.1 -0.1)">
       <use xlink:href="#DejaVuSans-48"/>
       <use x="63.623047" xlink:href="#DejaVuSans-46"/>
       <use x="95.410156" xlink:href="#DejaVuSans-53"/>
      </g>
     </g>
    </g>
    <g id="ytick_12">
     <g id="line2d_28">
      <g>
       <use style="stroke:#000000;stroke-width:0.8;" x="400.90125" xlink:href="#m57d3801982" y="45.530643"/>
      </g>
     </g>
     <g id="text_26">
      <!-- 1.0 -->
      <g transform="translate(407.90125 49.329862)scale(0.1 -0.1)">
       <use xlink:href="#DejaVuSans-49"/>
       <use x="63.623047" xlink:href="#DejaVuSans-46"/>
       <use x="95.410156" xlink:href="#DejaVuSans-48"/>
      </g>
     </g>
    </g>
    <g id="text_27">
     <!-- Entropy -->
     <g transform="translate(443.7825 174.909281)rotate(-90)scale(0.1 -0.1)">
      <use xlink:href="#DejaVuSans-69"/>
      <use x="63.183594" xlink:href="#DejaVuSans-110"/>
      <use x="126.5625" xlink:href="#DejaVuSans-116"/>
      <use x="165.771484" xlink:href="#DejaVuSans-114"/>
      <use x="206.853516" xlink:href="#DejaVuSans-111"/>
      <use x="268.035156" xlink:href="#DejaVuSans-112"/>
      <use x="331.511719" xlink:href="#DejaVuSans-121"/>
     </g>
    </g>
   </g>
   <g id="line2d_29">
    <path clip-path="url(#p112a08d06a)" d="M 60.013977 41.492495 
L 60.966043 40.08385 
L 61.91811 37.318391 
L 62.870176 41.582902 
L 64.774308 36.864895 
L 65.726374 41.269441 
L 66.67844 36.511681 
L 67.630506 34.414125 
L 68.582572 41.73674 
L 69.534638 38.796262 
L 70.486705 36.796106 
L 71.438771 46.888289 
L 72.390837 44.202469 
L 73.342903 42.606566 
L 74.294969 58.483432 
L 75.247035 58.555119 
L 76.199101 57.608922 
L 77.151167 75.95544 
L 78.103233 77.013205 
L 79.0553 76.352919 
L 80.007366 88.312202 
L 80.959432 89.939232 
L 81.911498 89.614188 
L 82.863564 107.015781 
L 83.81563 106.920345 
L 84.767696 106.480322 
L 85.719762 121.920175 
L 86.671829 125.218686 
L 87.623895 123.526587 
L 88.575961 133.463299 
L 89.528027 133.947429 
L 90.480093 133.441296 
L 91.432159 150.477493 
L 92.384225 149.276477 
L 93.336291 148.957683 
L 94.288357 156.297579 
L 95.240424 155.97777 
L 96.19249 156.316902 
L 97.144556 153.572675 
L 98.096622 155.409004 
L 99.048688 155.516918 
L 100.000754 156.626034 
L 100.95282 157.462588 
L 101.904886 157.547643 
L 102.856952 167.96232 
L 103.809019 168.873078 
L 104.761085 168.267824 
L 105.713151 178.518213 
L 106.665217 179.747718 
L 107.617283 179.622176 
L 108.569349 185.977676 
L 109.521415 186.544739 
L 110.473481 186.09172 
L 111.425548 183.554267 
L 112.377614 182.796775 
L 113.32968 182.935942 
L 114.281746 181.650901 
L 115.233812 183.118938 
L 116.185878 182.817123 
L 117.137944 189.816011 
L 118.09001 189.912031 
L 119.042076 189.657921 
L 119.994143 189.250035 
L 120.946209 190.903822 
L 122.850341 189.340066 
L 123.802407 187.163942 
L 124.754473 187.513112 
L 125.706539 189.638222 
L 127.610671 186.67839 
L 128.562738 196.34104 
L 129.514804 195.108743 
L 130.46687 194.456784 
L 131.418936 203.898714 
L 132.371002 201.228996 
L 133.323068 200.60283 
L 134.275134 199.365693 
L 135.2272 197.422508 
L 136.179267 196.962471 
L 137.131333 188.498575 
L 138.083399 185.036989 
L 139.035465 183.811564 
L 140.939597 183.75201 
L 141.891663 185.162547 
L 142.843729 185.419909 
L 143.795795 186.742968 
L 144.747862 187.37978 
L 145.699928 188.609006 
L 146.651994 189.4797 
L 147.60406 188.79048 
L 148.556126 183.484265 
L 149.508192 182.911879 
L 150.460258 183.557079 
L 151.412324 181.097215 
L 152.36439 179.624424 
L 153.316457 179.439028 
L 154.268523 177.694462 
L 155.220589 177.811795 
L 156.172655 175.637594 
L 157.124721 172.637618 
L 158.076787 172.192647 
L 159.028853 172.405394 
L 159.980919 183.458319 
L 160.932986 185.068766 
L 161.885052 183.591758 
L 162.837118 175.809755 
L 163.789184 173.163354 
L 164.74125 172.559445 
L 165.693316 181.953559 
L 166.645382 181.734174 
L 167.597448 180.617839 
L 168.549514 179.31247 
L 169.501581 181.335523 
L 170.453647 179.880071 
L 171.405713 183.223538 
L 173.309845 179.7247 
L 174.261911 183.932499 
L 175.213977 182.590522 
L 176.166043 182.203685 
L 177.11811 208.823369 
L 178.070176 208.801625 
L 179.022242 207.813462 
L 179.974308 229.006798 
L 180.926374 228.786444 
L 181.87844 228.75687 
L 182.830506 239.950357 
L 183.782572 239.681481 
L 184.734638 239.103315 
L 185.686705 220.917125 
L 186.638771 222.640053 
L 187.590837 222.306335 
L 188.542903 242.130881 
L 189.494969 241.978799 
L 190.447035 240.464524 
L 191.399101 251.566915 
L 192.351167 250.776392 
L 193.303233 249.417467 
L 194.2553 252.312061 
L 195.207366 252.460581 
L 196.159432 252.35561 
L 197.111498 251.886455 
L 198.063564 252.086074 
L 199.01563 253.952823 
L 199.967696 262.543509 
L 200.919762 276.334125 
L 201.871829 250.790347 
L 202.823895 187.372883 
L 203.775961 188.196299 
L 204.728027 166.30254 
L 205.680093 125.392249 
L 206.632159 128.984497 
L 207.584225 129.853111 
L 208.536291 138.877916 
L 209.488357 138.418608 
L 210.440424 137.146769 
L 211.39249 138.382957 
L 212.344556 138.583453 
L 213.296622 138.660748 
L 214.248688 138.967431 
L 215.200754 130.436077 
L 216.15282 123.44618 
L 217.104886 131.105461 
L 218.056952 130.832691 
L 219.009019 131.125314 
L 220.913151 133.107572 
L 221.865217 133.009242 
L 222.817283 137.103093 
L 224.721415 136.462742 
L 225.673481 135.255764 
L 226.625548 136.182159 
L 227.577614 136.666793 
L 228.52968 144.024465 
L 230.433812 143.625132 
L 231.385878 143.654935 
L 232.337944 144.505292 
L 233.29001 144.1239 
L 234.242076 142.683331 
L 235.194143 142.564085 
L 236.146209 142.226029 
L 237.098275 144.712117 
L 238.050341 145.80004 
L 239.002407 145.047748 
L 239.954473 145.915185 
L 240.906539 145.371341 
L 241.858605 144.973424 
L 242.810671 146.483412 
L 244.714804 147.518076 
L 245.66687 150.973494 
L 246.618936 150.400507 
L 247.571002 150.510549 
L 249.475134 148.101252 
L 250.4272 147.389496 
L 251.379267 147.48663 
L 252.331333 147.944094 
L 253.283399 147.464221 
L 254.235465 153.45514 
L 255.187531 152.151938 
L 256.139597 152.151664 
L 257.091663 143.461463 
L 258.043729 144.480694 
L 258.995795 143.496316 
L 259.947862 145.062983 
L 261.851994 142.843433 
L 262.80406 138.040186 
L 263.756126 136.651795 
L 264.708192 136.708136 
L 265.660258 134.532914 
L 266.612324 130.799323 
L 267.56439 130.361789 
L 268.516457 129.20595 
L 269.468523 130.819685 
L 270.420589 130.67739 
L 271.372655 132.917077 
L 272.324721 134.020684 
L 273.276787 134.648092 
L 275.180919 136.885484 
L 276.132986 136.892751 
L 277.085052 140.53751 
L 278.037118 142.212938 
L 278.989184 141.792372 
L 279.94125 136.18368 
L 280.893316 135.56693 
L 281.845382 134.603111 
L 282.797448 135.117714 
L 283.749514 135.481643 
L 284.701581 136.023729 
L 285.653647 139.8902 
L 287.557779 139.555551 
L 288.509845 140.999032 
L 289.461911 141.393533 
L 290.413977 141.213446 
L 291.366043 137.073841 
L 292.31811 136.594804 
L 293.270176 136.777399 
L 294.222242 146.146493 
L 295.174308 148.514899 
L 296.126374 148.097242 
L 297.07844 147.115124 
L 298.030506 147.715758 
L 298.982572 147.289714 
L 299.934638 154.868215 
L 300.886705 156.104769 
L 301.838771 156.648545 
L 302.790837 159.209771 
L 304.694969 160.035711 
L 306.599101 163.682726 
L 307.551167 163.941286 
L 308.503233 157.99316 
L 309.4553 158.982237 
L 310.407366 158.594374 
L 311.359432 164.735036 
L 312.311498 166.850611 
L 313.263564 167.29018 
L 314.21563 173.43049 
L 315.167696 173.255791 
L 316.119762 173.676287 
L 317.071829 185.334389 
L 318.023895 188.741653 
L 318.975961 185.196927 
L 319.928027 189.869689 
L 320.880093 190.158737 
L 321.832159 190.068259 
L 322.784225 170.771438 
L 323.736291 147.107987 
L 324.688357 136.675515 
L 325.640424 105.95081 
L 326.59249 106.971523 
L 327.544556 107.614188 
L 328.496622 108.065756 
L 329.448688 106.61413 
L 330.400754 105.721738 
L 331.35282 108.074545 
L 332.304886 107.696035 
L 333.256952 106.932874 
L 334.209019 105.744142 
L 335.161085 104.241015 
L 336.113151 104.255696 
L 337.065217 103.575233 
L 338.017283 100.872175 
L 338.969349 100.23852 
L 339.921415 95.148044 
L 340.873481 97.482383 
L 342.777614 97.328048 
L 343.72968 97.266987 
L 344.681746 96.983199 
L 346.585878 99.716445 
L 348.49001 98.87792 
L 349.442076 97.059694 
L 350.394143 97.146539 
L 351.346209 95.675848 
L 352.298275 97.405213 
L 353.250341 97.470945 
L 354.202407 99.880315 
L 355.154473 97.815304 
L 356.106539 97.816763 
L 357.058605 96.418455 
L 358.010671 97.608707 
L 358.962738 97.446636 
L 359.914804 100.813162 
L 360.86687 101.228559 
L 361.818936 100.698517 
L 363.723068 100.059386 
L 364.675134 99.159975 
L 366.579267 99.508079 
L 367.531333 99.221427 
L 368.483399 98.656496 
L 369.435465 99.38006 
L 370.387531 99.076282 
L 371.339597 101.031281 
L 372.291663 104.149124 
L 373.243729 102.851851 
L 374.195795 109.931662 
L 375.147862 111.854293 
L 376.099928 111.646774 
L 377.051994 112.477992 
L 378.00406 115.357654 
L 378.956126 115.965812 
L 379.908192 117.663578 
L 380.860258 117.931037 
L 381.812324 117.521375 
L 382.76439 116.862811 
L 383.716457 117.808456 
L 384.668523 118.217768 
L 384.668523 118.217768 
" style="fill:none;stroke:#008000;stroke-linecap:square;stroke-width:1.5;"/>
   </g>
   <g id="patch_9">
    <path d="M 43.78125 288.430125 
L 43.78125 22.318125 
" style="fill:none;stroke:#000000;stroke-linecap:square;stroke-linejoin:miter;stroke-width:0.8;"/>
   </g>
   <g id="patch_10">
    <path d="M 400.90125 288.430125 
L 400.90125 22.318125 
" style="fill:none;stroke:#000000;stroke-linecap:square;stroke-linejoin:miter;stroke-width:0.8;"/>
   </g>
   <g id="patch_11">
    <path d="M 43.78125 288.430125 
L 400.90125 288.430125 
" style="fill:none;stroke:#000000;stroke-linecap:square;stroke-linejoin:miter;stroke-width:0.8;"/>
   </g>
   <g id="patch_12">
    <path d="M 43.78125 22.318125 
L 400.90125 22.318125 
" style="fill:none;stroke:#000000;stroke-linecap:square;stroke-linejoin:miter;stroke-width:0.8;"/>
   </g>
  </g>
 </g>
 <defs>
  <clipPath id="p112a08d06a">
   <rect height="266.112" width="357.12" x="43.78125" y="22.318125"/>
  </clipPath>
 </defs>
</svg>
