<?xml version="1.0" encoding="utf-8" standalone="no"?>
<!DOCTYPE svg PUBLIC "-//W3C//DTD SVG 1.1//EN"
  "http://www.w3.org/Graphics/SVG/1.1/DTD/svg11.dtd">
<!-- Created with matplotlib (https://matplotlib.org/) -->
<svg height="358.22505pt" version="1.1" viewBox="0 0 451.045 358.22505" width="451.045pt" xmlns="http://www.w3.org/2000/svg" xmlns:xlink="http://www.w3.org/1999/xlink">
 <defs>
  <style type="text/css">
*{stroke-linecap:butt;stroke-linejoin:round;}
  </style>
 </defs>
 <g id="figure_1">
  <g id="patch_1">
   <path d="M 0 358.22505 
L 451.045 358.22505 
L 451.045 0 
L 0 0 
z
" style="fill:#ffffff;"/>
  </g>
  <g id="axes_1">
   <g id="patch_2">
    <path d="M 43.78125 288.430125 
L 400.90125 288.430125 
L 400.90125 22.318125 
L 43.78125 22.318125 
z
" style="fill:#ffffff;"/>
   </g>
   <g id="matplotlib.axis_1">
    <g id="xtick_1">
     <g id="line2d_1">
      <defs>
       <path d="M 0 0 
L 0 3.5 
" id="m278e88ba05" style="stroke:#000000;stroke-width:0.8;"/>
      </defs>
      <g>
       <use style="stroke:#000000;stroke-width:0.8;" x="60.013977" xlink:href="#m278e88ba05" y="288.430125"/>
      </g>
     </g>
     <g id="text_1">
      <!-- 0 -->
      <defs>
       <path d="M 31.78125 66.40625 
Q 24.171875 66.40625 20.328125 58.90625 
Q 16.5 51.421875 16.5 36.375 
Q 16.5 21.390625 20.328125 13.890625 
Q 24.171875 6.390625 31.78125 6.390625 
Q 39.453125 6.390625 43.28125 13.890625 
Q 47.125 21.390625 47.125 36.375 
Q 47.125 51.421875 43.28125 58.90625 
Q 39.453125 66.40625 31.78125 66.40625 
z
M 31.78125 74.21875 
Q 44.046875 74.21875 50.515625 64.515625 
Q 56.984375 54.828125 56.984375 36.375 
Q 56.984375 17.96875 50.515625 8.265625 
Q 44.046875 -1.421875 31.78125 -1.421875 
Q 19.53125 -1.421875 13.0625 8.265625 
Q 6.59375 17.96875 6.59375 36.375 
Q 6.59375 54.828125 13.0625 64.515625 
Q 19.53125 74.21875 31.78125 74.21875 
z
" id="DejaVuSans-48"/>
      </defs>
      <g transform="translate(56.832727 303.028562)scale(0.1 -0.1)">
       <use xlink:href="#DejaVuSans-48"/>
      </g>
     </g>
    </g>
    <g id="xtick_2">
     <g id="line2d_2">
      <g>
       <use style="stroke:#000000;stroke-width:0.8;" x="108.039798" xlink:href="#m278e88ba05" y="288.430125"/>
      </g>
     </g>
     <g id="text_2">
      <!-- 25 -->
      <defs>
       <path d="M 19.1875 8.296875 
L 53.609375 8.296875 
L 53.609375 0 
L 7.328125 0 
L 7.328125 8.296875 
Q 12.9375 14.109375 22.625 23.890625 
Q 32.328125 33.6875 34.8125 36.53125 
Q 39.546875 41.84375 41.421875 45.53125 
Q 43.3125 49.21875 43.3125 52.78125 
Q 43.3125 58.59375 39.234375 62.25 
Q 35.15625 65.921875 28.609375 65.921875 
Q 23.96875 65.921875 18.8125 64.3125 
Q 13.671875 62.703125 7.8125 59.421875 
L 7.8125 69.390625 
Q 13.765625 71.78125 18.9375 73 
Q 24.125 74.21875 28.421875 74.21875 
Q 39.75 74.21875 46.484375 68.546875 
Q 53.21875 62.890625 53.21875 53.421875 
Q 53.21875 48.921875 51.53125 44.890625 
Q 49.859375 40.875 45.40625 35.40625 
Q 44.1875 33.984375 37.640625 27.21875 
Q 31.109375 20.453125 19.1875 8.296875 
z
" id="DejaVuSans-50"/>
       <path d="M 10.796875 72.90625 
L 49.515625 72.90625 
L 49.515625 64.59375 
L 19.828125 64.59375 
L 19.828125 46.734375 
Q 21.96875 47.46875 24.109375 47.828125 
Q 26.265625 48.1875 28.421875 48.1875 
Q 40.625 48.1875 47.75 41.5 
Q 54.890625 34.8125 54.890625 23.390625 
Q 54.890625 11.625 47.5625 5.09375 
Q 40.234375 -1.421875 26.90625 -1.421875 
Q 22.3125 -1.421875 17.546875 -0.640625 
Q 12.796875 0.140625 7.71875 1.703125 
L 7.71875 11.625 
Q 12.109375 9.234375 16.796875 8.0625 
Q 21.484375 6.890625 26.703125 6.890625 
Q 35.15625 6.890625 40.078125 11.328125 
Q 45.015625 15.765625 45.015625 23.390625 
Q 45.015625 31 40.078125 35.4375 
Q 35.15625 39.890625 26.703125 39.890625 
Q 22.75 39.890625 18.8125 39.015625 
Q 14.890625 38.140625 10.796875 36.28125 
z
" id="DejaVuSans-53"/>
      </defs>
      <g transform="translate(101.677298 303.028562)scale(0.1 -0.1)">
       <use xlink:href="#DejaVuSans-50"/>
       <use x="63.623047" xlink:href="#DejaVuSans-53"/>
      </g>
     </g>
    </g>
    <g id="xtick_3">
     <g id="line2d_3">
      <g>
       <use style="stroke:#000000;stroke-width:0.8;" x="156.065618" xlink:href="#m278e88ba05" y="288.430125"/>
      </g>
     </g>
     <g id="text_3">
      <!-- 50 -->
      <g transform="translate(149.703118 303.028562)scale(0.1 -0.1)">
       <use xlink:href="#DejaVuSans-53"/>
       <use x="63.623047" xlink:href="#DejaVuSans-48"/>
      </g>
     </g>
    </g>
    <g id="xtick_4">
     <g id="line2d_4">
      <g>
       <use style="stroke:#000000;stroke-width:0.8;" x="204.091438" xlink:href="#m278e88ba05" y="288.430125"/>
      </g>
     </g>
     <g id="text_4">
      <!-- 75 -->
      <defs>
       <path d="M 8.203125 72.90625 
L 55.078125 72.90625 
L 55.078125 68.703125 
L 28.609375 0 
L 18.3125 0 
L 43.21875 64.59375 
L 8.203125 64.59375 
z
" id="DejaVuSans-55"/>
      </defs>
      <g transform="translate(197.728938 303.028562)scale(0.1 -0.1)">
       <use xlink:href="#DejaVuSans-55"/>
       <use x="63.623047" xlink:href="#DejaVuSans-53"/>
      </g>
     </g>
    </g>
    <g id="xtick_5">
     <g id="line2d_5">
      <g>
       <use style="stroke:#000000;stroke-width:0.8;" x="252.117259" xlink:href="#m278e88ba05" y="288.430125"/>
      </g>
     </g>
     <g id="text_5">
      <!-- 100 -->
      <defs>
       <path d="M 12.40625 8.296875 
L 28.515625 8.296875 
L 28.515625 63.921875 
L 10.984375 60.40625 
L 10.984375 69.390625 
L 28.421875 72.90625 
L 38.28125 72.90625 
L 38.28125 8.296875 
L 54.390625 8.296875 
L 54.390625 0 
L 12.40625 0 
z
" id="DejaVuSans-49"/>
      </defs>
      <g transform="translate(242.573509 303.028562)scale(0.1 -0.1)">
       <use xlink:href="#DejaVuSans-49"/>
       <use x="63.623047" xlink:href="#DejaVuSans-48"/>
       <use x="127.246094" xlink:href="#DejaVuSans-48"/>
      </g>
     </g>
    </g>
    <g id="xtick_6">
     <g id="line2d_6">
      <g>
       <use style="stroke:#000000;stroke-width:0.8;" x="300.143079" xlink:href="#m278e88ba05" y="288.430125"/>
      </g>
     </g>
     <g id="text_6">
      <!-- 125 -->
      <g transform="translate(290.599329 303.028562)scale(0.1 -0.1)">
       <use xlink:href="#DejaVuSans-49"/>
       <use x="63.623047" xlink:href="#DejaVuSans-50"/>
       <use x="127.246094" xlink:href="#DejaVuSans-53"/>
      </g>
     </g>
    </g>
    <g id="xtick_7">
     <g id="line2d_7">
      <g>
       <use style="stroke:#000000;stroke-width:0.8;" x="348.168899" xlink:href="#m278e88ba05" y="288.430125"/>
      </g>
     </g>
     <g id="text_7">
      <!-- 150 -->
      <g transform="translate(338.625149 303.028562)scale(0.1 -0.1)">
       <use xlink:href="#DejaVuSans-49"/>
       <use x="63.623047" xlink:href="#DejaVuSans-53"/>
       <use x="127.246094" xlink:href="#DejaVuSans-48"/>
      </g>
     </g>
    </g>
    <g id="xtick_8">
     <g id="line2d_8">
      <g>
       <use style="stroke:#000000;stroke-width:0.8;" x="396.19472" xlink:href="#m278e88ba05" y="288.430125"/>
      </g>
     </g>
     <g id="text_8">
      <!-- 175 -->
      <g transform="translate(386.65097 303.028562)scale(0.1 -0.1)">
       <use xlink:href="#DejaVuSans-49"/>
       <use x="63.623047" xlink:href="#DejaVuSans-55"/>
       <use x="127.246094" xlink:href="#DejaVuSans-53"/>
      </g>
     </g>
    </g>
    <g id="text_9">
     <!-- Epoch -->
     <defs>
      <path d="M 9.8125 72.90625 
L 55.90625 72.90625 
L 55.90625 64.59375 
L 19.671875 64.59375 
L 19.671875 43.015625 
L 54.390625 43.015625 
L 54.390625 34.71875 
L 19.671875 34.71875 
L 19.671875 8.296875 
L 56.78125 8.296875 
L 56.78125 0 
L 9.8125 0 
z
" id="DejaVuSans-69"/>
      <path d="M 18.109375 8.203125 
L 18.109375 -20.796875 
L 9.078125 -20.796875 
L 9.078125 54.6875 
L 18.109375 54.6875 
L 18.109375 46.390625 
Q 20.953125 51.265625 25.265625 53.625 
Q 29.59375 56 35.59375 56 
Q 45.5625 56 51.78125 48.09375 
Q 58.015625 40.1875 58.015625 27.296875 
Q 58.015625 14.40625 51.78125 6.484375 
Q 45.5625 -1.421875 35.59375 -1.421875 
Q 29.59375 -1.421875 25.265625 0.953125 
Q 20.953125 3.328125 18.109375 8.203125 
z
M 48.6875 27.296875 
Q 48.6875 37.203125 44.609375 42.84375 
Q 40.53125 48.484375 33.40625 48.484375 
Q 26.265625 48.484375 22.1875 42.84375 
Q 18.109375 37.203125 18.109375 27.296875 
Q 18.109375 17.390625 22.1875 11.75 
Q 26.265625 6.109375 33.40625 6.109375 
Q 40.53125 6.109375 44.609375 11.75 
Q 48.6875 17.390625 48.6875 27.296875 
z
" id="DejaVuSans-112"/>
      <path d="M 30.609375 48.390625 
Q 23.390625 48.390625 19.1875 42.75 
Q 14.984375 37.109375 14.984375 27.296875 
Q 14.984375 17.484375 19.15625 11.84375 
Q 23.34375 6.203125 30.609375 6.203125 
Q 37.796875 6.203125 41.984375 11.859375 
Q 46.1875 17.53125 46.1875 27.296875 
Q 46.1875 37.015625 41.984375 42.703125 
Q 37.796875 48.390625 30.609375 48.390625 
z
M 30.609375 56 
Q 42.328125 56 49.015625 48.375 
Q 55.71875 40.765625 55.71875 27.296875 
Q 55.71875 13.875 49.015625 6.21875 
Q 42.328125 -1.421875 30.609375 -1.421875 
Q 18.84375 -1.421875 12.171875 6.21875 
Q 5.515625 13.875 5.515625 27.296875 
Q 5.515625 40.765625 12.171875 48.375 
Q 18.84375 56 30.609375 56 
z
" id="DejaVuSans-111"/>
      <path d="M 48.78125 52.59375 
L 48.78125 44.1875 
Q 44.96875 46.296875 41.140625 47.34375 
Q 37.3125 48.390625 33.40625 48.390625 
Q 24.65625 48.390625 19.8125 42.84375 
Q 14.984375 37.3125 14.984375 27.296875 
Q 14.984375 17.28125 19.8125 11.734375 
Q 24.65625 6.203125 33.40625 6.203125 
Q 37.3125 6.203125 41.140625 7.25 
Q 44.96875 8.296875 48.78125 10.40625 
L 48.78125 2.09375 
Q 45.015625 0.34375 40.984375 -0.53125 
Q 36.96875 -1.421875 32.421875 -1.421875 
Q 20.0625 -1.421875 12.78125 6.34375 
Q 5.515625 14.109375 5.515625 27.296875 
Q 5.515625 40.671875 12.859375 48.328125 
Q 20.21875 56 33.015625 56 
Q 37.15625 56 41.109375 55.140625 
Q 45.0625 54.296875 48.78125 52.59375 
z
" id="DejaVuSans-99"/>
      <path d="M 54.890625 33.015625 
L 54.890625 0 
L 45.90625 0 
L 45.90625 32.71875 
Q 45.90625 40.484375 42.875 44.328125 
Q 39.84375 48.1875 33.796875 48.1875 
Q 26.515625 48.1875 22.3125 43.546875 
Q 18.109375 38.921875 18.109375 30.90625 
L 18.109375 0 
L 9.078125 0 
L 9.078125 75.984375 
L 18.109375 75.984375 
L 18.109375 46.1875 
Q 21.34375 51.125 25.703125 53.5625 
Q 30.078125 56 35.796875 56 
Q 45.21875 56 50.046875 50.171875 
Q 54.890625 44.34375 54.890625 33.015625 
z
" id="DejaVuSans-104"/>
     </defs>
     <g transform="translate(207.030313 316.706687)scale(0.1 -0.1)">
      <use xlink:href="#DejaVuSans-69"/>
      <use x="63.183594" xlink:href="#DejaVuSans-112"/>
      <use x="126.660156" xlink:href="#DejaVuSans-111"/>
      <use x="187.841797" xlink:href="#DejaVuSans-99"/>
      <use x="242.822266" xlink:href="#DejaVuSans-104"/>
     </g>
    </g>
   </g>
   <g id="matplotlib.axis_2">
    <g id="ytick_1">
     <g id="line2d_9">
      <defs>
       <path d="M 0 0 
L -3.5 0 
" id="m5408c3cf23" style="stroke:#000000;stroke-width:0.8;"/>
      </defs>
      <g>
       <use style="stroke:#000000;stroke-width:0.8;" x="43.78125" xlink:href="#m5408c3cf23" y="270.954482"/>
      </g>
     </g>
     <g id="text_10">
      <!-- 0.0 -->
      <defs>
       <path d="M 10.6875 12.40625 
L 21 12.40625 
L 21 0 
L 10.6875 0 
z
" id="DejaVuSans-46"/>
      </defs>
      <g transform="translate(20.878125 274.753701)scale(0.1 -0.1)">
       <use xlink:href="#DejaVuSans-48"/>
       <use x="63.623047" xlink:href="#DejaVuSans-46"/>
       <use x="95.410156" xlink:href="#DejaVuSans-48"/>
      </g>
     </g>
    </g>
    <g id="ytick_2">
     <g id="line2d_10">
      <g>
       <use style="stroke:#000000;stroke-width:0.8;" x="43.78125" xlink:href="#m5408c3cf23" y="223.646411"/>
      </g>
     </g>
     <g id="text_11">
      <!-- 0.2 -->
      <g transform="translate(20.878125 227.445629)scale(0.1 -0.1)">
       <use xlink:href="#DejaVuSans-48"/>
       <use x="63.623047" xlink:href="#DejaVuSans-46"/>
       <use x="95.410156" xlink:href="#DejaVuSans-50"/>
      </g>
     </g>
    </g>
    <g id="ytick_3">
     <g id="line2d_11">
      <g>
       <use style="stroke:#000000;stroke-width:0.8;" x="43.78125" xlink:href="#m5408c3cf23" y="176.338339"/>
      </g>
     </g>
     <g id="text_12">
      <!-- 0.4 -->
      <defs>
       <path d="M 37.796875 64.3125 
L 12.890625 25.390625 
L 37.796875 25.390625 
z
M 35.203125 72.90625 
L 47.609375 72.90625 
L 47.609375 25.390625 
L 58.015625 25.390625 
L 58.015625 17.1875 
L 47.609375 17.1875 
L 47.609375 0 
L 37.796875 0 
L 37.796875 17.1875 
L 4.890625 17.1875 
L 4.890625 26.703125 
z
" id="DejaVuSans-52"/>
      </defs>
      <g transform="translate(20.878125 180.137558)scale(0.1 -0.1)">
       <use xlink:href="#DejaVuSans-48"/>
       <use x="63.623047" xlink:href="#DejaVuSans-46"/>
       <use x="95.410156" xlink:href="#DejaVuSans-52"/>
      </g>
     </g>
    </g>
    <g id="ytick_4">
     <g id="line2d_12">
      <g>
       <use style="stroke:#000000;stroke-width:0.8;" x="43.78125" xlink:href="#m5408c3cf23" y="129.030268"/>
      </g>
     </g>
     <g id="text_13">
      <!-- 0.6 -->
      <defs>
       <path d="M 33.015625 40.375 
Q 26.375 40.375 22.484375 35.828125 
Q 18.609375 31.296875 18.609375 23.390625 
Q 18.609375 15.53125 22.484375 10.953125 
Q 26.375 6.390625 33.015625 6.390625 
Q 39.65625 6.390625 43.53125 10.953125 
Q 47.40625 15.53125 47.40625 23.390625 
Q 47.40625 31.296875 43.53125 35.828125 
Q 39.65625 40.375 33.015625 40.375 
z
M 52.59375 71.296875 
L 52.59375 62.3125 
Q 48.875 64.0625 45.09375 64.984375 
Q 41.3125 65.921875 37.59375 65.921875 
Q 27.828125 65.921875 22.671875 59.328125 
Q 17.53125 52.734375 16.796875 39.40625 
Q 19.671875 43.65625 24.015625 45.921875 
Q 28.375 48.1875 33.59375 48.1875 
Q 44.578125 48.1875 50.953125 41.515625 
Q 57.328125 34.859375 57.328125 23.390625 
Q 57.328125 12.15625 50.6875 5.359375 
Q 44.046875 -1.421875 33.015625 -1.421875 
Q 20.359375 -1.421875 13.671875 8.265625 
Q 6.984375 17.96875 6.984375 36.375 
Q 6.984375 53.65625 15.1875 63.9375 
Q 23.390625 74.21875 37.203125 74.21875 
Q 40.921875 74.21875 44.703125 73.484375 
Q 48.484375 72.75 52.59375 71.296875 
z
" id="DejaVuSans-54"/>
      </defs>
      <g transform="translate(20.878125 132.829487)scale(0.1 -0.1)">
       <use xlink:href="#DejaVuSans-48"/>
       <use x="63.623047" xlink:href="#DejaVuSans-46"/>
       <use x="95.410156" xlink:href="#DejaVuSans-54"/>
      </g>
     </g>
    </g>
    <g id="ytick_5">
     <g id="line2d_13">
      <g>
       <use style="stroke:#000000;stroke-width:0.8;" x="43.78125" xlink:href="#m5408c3cf23" y="81.722196"/>
      </g>
     </g>
     <g id="text_14">
      <!-- 0.8 -->
      <defs>
       <path d="M 31.78125 34.625 
Q 24.75 34.625 20.71875 30.859375 
Q 16.703125 27.09375 16.703125 20.515625 
Q 16.703125 13.921875 20.71875 10.15625 
Q 24.75 6.390625 31.78125 6.390625 
Q 38.8125 6.390625 42.859375 10.171875 
Q 46.921875 13.96875 46.921875 20.515625 
Q 46.921875 27.09375 42.890625 30.859375 
Q 38.875 34.625 31.78125 34.625 
z
M 21.921875 38.8125 
Q 15.578125 40.375 12.03125 44.71875 
Q 8.5 49.078125 8.5 55.328125 
Q 8.5 64.0625 14.71875 69.140625 
Q 20.953125 74.21875 31.78125 74.21875 
Q 42.671875 74.21875 48.875 69.140625 
Q 55.078125 64.0625 55.078125 55.328125 
Q 55.078125 49.078125 51.53125 44.71875 
Q 48 40.375 41.703125 38.8125 
Q 48.828125 37.15625 52.796875 32.3125 
Q 56.78125 27.484375 56.78125 20.515625 
Q 56.78125 9.90625 50.3125 4.234375 
Q 43.84375 -1.421875 31.78125 -1.421875 
Q 19.734375 -1.421875 13.25 4.234375 
Q 6.78125 9.90625 6.78125 20.515625 
Q 6.78125 27.484375 10.78125 32.3125 
Q 14.796875 37.15625 21.921875 38.8125 
z
M 18.3125 54.390625 
Q 18.3125 48.734375 21.84375 45.5625 
Q 25.390625 42.390625 31.78125 42.390625 
Q 38.140625 42.390625 41.71875 45.5625 
Q 45.3125 48.734375 45.3125 54.390625 
Q 45.3125 60.0625 41.71875 63.234375 
Q 38.140625 66.40625 31.78125 66.40625 
Q 25.390625 66.40625 21.84375 63.234375 
Q 18.3125 60.0625 18.3125 54.390625 
z
" id="DejaVuSans-56"/>
      </defs>
      <g transform="translate(20.878125 85.521415)scale(0.1 -0.1)">
       <use xlink:href="#DejaVuSans-48"/>
       <use x="63.623047" xlink:href="#DejaVuSans-46"/>
       <use x="95.410156" xlink:href="#DejaVuSans-56"/>
      </g>
     </g>
    </g>
    <g id="ytick_6">
     <g id="line2d_14">
      <g>
       <use style="stroke:#000000;stroke-width:0.8;" x="43.78125" xlink:href="#m5408c3cf23" y="34.414125"/>
      </g>
     </g>
     <g id="text_15">
      <!-- 1.0 -->
      <g transform="translate(20.878125 38.213344)scale(0.1 -0.1)">
       <use xlink:href="#DejaVuSans-49"/>
       <use x="63.623047" xlink:href="#DejaVuSans-46"/>
       <use x="95.410156" xlink:href="#DejaVuSans-48"/>
      </g>
     </g>
    </g>
    <g id="text_16">
     <!-- Loss -->
     <defs>
      <path d="M 9.8125 72.90625 
L 19.671875 72.90625 
L 19.671875 8.296875 
L 55.171875 8.296875 
L 55.171875 0 
L 9.8125 0 
z
" id="DejaVuSans-76"/>
      <path d="M 44.28125 53.078125 
L 44.28125 44.578125 
Q 40.484375 46.53125 36.375 47.5 
Q 32.28125 48.484375 27.875 48.484375 
Q 21.1875 48.484375 17.84375 46.4375 
Q 14.5 44.390625 14.5 40.28125 
Q 14.5 37.15625 16.890625 35.375 
Q 19.28125 33.59375 26.515625 31.984375 
L 29.59375 31.296875 
Q 39.15625 29.25 43.1875 25.515625 
Q 47.21875 21.78125 47.21875 15.09375 
Q 47.21875 7.46875 41.1875 3.015625 
Q 35.15625 -1.421875 24.609375 -1.421875 
Q 20.21875 -1.421875 15.453125 -0.5625 
Q 10.6875 0.296875 5.421875 2 
L 5.421875 11.28125 
Q 10.40625 8.6875 15.234375 7.390625 
Q 20.0625 6.109375 24.8125 6.109375 
Q 31.15625 6.109375 34.5625 8.28125 
Q 37.984375 10.453125 37.984375 14.40625 
Q 37.984375 18.0625 35.515625 20.015625 
Q 33.0625 21.96875 24.703125 23.78125 
L 21.578125 24.515625 
Q 13.234375 26.265625 9.515625 29.90625 
Q 5.8125 33.546875 5.8125 39.890625 
Q 5.8125 47.609375 11.28125 51.796875 
Q 16.75 56 26.8125 56 
Q 31.78125 56 36.171875 55.265625 
Q 40.578125 54.546875 44.28125 53.078125 
z
" id="DejaVuSans-115"/>
     </defs>
     <g transform="translate(14.798438 166.428031)rotate(-90)scale(0.1 -0.1)">
      <use xlink:href="#DejaVuSans-76"/>
      <use x="55.697266" xlink:href="#DejaVuSans-111"/>
      <use x="116.878906" xlink:href="#DejaVuSans-115"/>
      <use x="168.978516" xlink:href="#DejaVuSans-115"/>
     </g>
    </g>
   </g>
   <g id="line2d_15">
    <path clip-path="url(#p833fc99c7f)" d="M 60.013977 186.403023 
L 61.93501 238.209013 
L 63.856043 241.027823 
L 65.777076 238.546961 
L 67.698109 243.035058 
L 69.619141 246.364737 
L 71.540174 246.241311 
L 73.461207 249.770349 
L 75.38224 246.967326 
L 77.303273 251.883645 
L 79.224305 150.838066 
L 81.145338 193.924408 
L 83.066371 199.074994 
L 84.987404 201.789033 
L 86.908437 206.031634 
L 88.829469 194.275053 
L 90.750502 190.008305 
L 92.671535 129.120951 
L 94.592568 189.181788 
L 96.513601 180.664346 
L 98.434634 212.954633 
L 102.276699 256.255175 
L 104.197732 265.091033 
L 106.118765 263.185723 
L 108.039798 250.157915 
L 109.96083 245.669996 
L 111.881863 243.499401 
L 113.802896 250.045818 
L 115.723929 249.047792 
L 117.644962 117.923711 
L 119.565994 183.355727 
L 121.487027 236.335098 
L 123.40806 243.157628 
L 125.329093 243.501435 
L 127.250126 249.979113 
L 129.171159 250.318718 
L 131.092191 252.537207 
L 133.013224 251.111449 
L 134.934257 253.239286 
L 136.85529 157.501383 
L 138.776323 201.789278 
L 140.697355 201.975607 
L 142.618388 206.419367 
L 144.539421 204.101777 
L 146.460454 207.869929 
L 148.381487 206.218363 
L 150.302519 205.519253 
L 152.223552 207.393657 
L 154.144585 208.509183 
L 156.065618 127.775427 
L 157.986651 150.672994 
L 159.907684 170.763002 
L 161.828716 179.089846 
L 163.749749 184.452909 
L 165.670782 187.745012 
L 167.591815 187.35559 
L 169.512848 190.208063 
L 171.43388 191.973872 
L 173.354913 192.408742 
L 175.275946 141.783605 
L 177.196979 175.779378 
L 179.118012 193.753555 
L 181.039045 196.758694 
L 182.960077 201.99504 
L 184.88111 204.548698 
L 186.802143 206.363246 
L 188.723176 208.732421 
L 192.565241 209.803233 
L 194.486274 143.644891 
L 196.407307 186.245144 
L 198.32834 184.16131 
L 200.249373 186.084308 
L 202.170405 167.285749 
L 204.091438 187.679308 
L 206.012471 154.682406 
L 207.933504 184.299655 
L 209.854537 159.134282 
L 211.77557 184.306837 
L 213.696602 157.596748 
L 215.617635 216.292084 
L 217.538668 225.914479 
L 219.459701 233.089922 
L 221.380734 232.386287 
L 223.301766 234.644443 
L 225.222799 235.14444 
L 229.064865 235.865541 
L 230.985898 235.994081 
L 232.90693 165.003312 
L 234.827963 249.242715 
L 236.748996 259.486832 
L 238.670029 257.433637 
L 240.591062 261.978911 
L 242.512095 262.466256 
L 244.433127 263.568864 
L 248.275193 266.14071 
L 250.196226 267.019134 
L 252.117259 189.707878 
L 254.038291 246.782754 
L 255.959324 242.442342 
L 257.880357 246.772993 
L 259.80139 255.695789 
L 261.722423 261.368262 
L 263.643455 265.705084 
L 265.564488 269.374335 
L 267.485521 270.750443 
L 269.406554 270.954482 
L 271.327587 153.693652 
L 273.24862 209.501038 
L 275.169652 214.189772 
L 277.090685 217.555705 
L 280.932751 220.799558 
L 282.853784 223.525548 
L 284.774816 223.374618 
L 286.695849 222.833364 
L 288.616882 225.600656 
L 290.537915 134.13736 
L 292.458948 159.647442 
L 294.379981 165.317569 
L 296.301013 168.872333 
L 298.222046 170.779133 
L 300.143079 171.904676 
L 302.064112 172.266827 
L 303.985145 175.241104 
L 305.906177 174.948103 
L 307.82721 177.18706 
L 309.748243 141.46031 
L 311.669276 164.597502 
L 313.590309 170.95818 
L 315.511341 175.358915 
L 317.432374 179.151926 
L 319.353407 175.847394 
L 321.27444 181.712122 
L 323.195473 177.324505 
L 325.116506 181.785319 
L 327.037538 177.838999 
L 328.958571 136.262785 
L 332.800637 161.719681 
L 334.72167 172.313532 
L 336.642702 173.412559 
L 338.563735 174.651867 
L 340.484768 177.346073 
L 342.405801 151.964843 
L 344.326834 181.624361 
L 346.247866 34.414125 
L 348.168899 131.286343 
L 350.089932 151.948678 
L 352.010965 158.436494 
L 353.931998 158.781647 
L 355.853031 161.89447 
L 357.774063 165.226639 
L 359.695096 166.713355 
L 361.616129 165.802213 
L 363.537162 167.544741 
L 365.458195 171.396608 
L 367.379227 154.188046 
L 369.30026 200.247998 
L 371.221293 199.160265 
L 375.063359 205.272067 
L 376.984391 205.579598 
L 378.905424 206.416699 
L 380.826457 207.858833 
L 382.74749 207.231631 
L 384.668523 209.652814 
L 384.668523 209.652814 
" style="fill:none;stroke:#1f77b4;stroke-linecap:square;stroke-opacity:0.3;stroke-width:1.5;"/>
   </g>
   <g id="line2d_16">
    <path clip-path="url(#p833fc99c7f)" d="M 60.013977 205.570128 
L 61.93501 215.542237 
L 65.777076 239.792324 
L 67.698109 250.381043 
L 69.619141 257.486043 
L 73.461207 241.065696 
L 75.38224 230.809141 
L 77.303273 218.902415 
L 79.224305 209.150166 
L 81.145338 200.882892 
L 83.066371 199.313029 
L 84.987404 189.974026 
L 86.908437 186.842408 
L 88.829469 188.22537 
L 90.750502 178.183294 
L 92.671535 175.266131 
L 94.592568 179.264867 
L 96.513601 190.818317 
L 98.434634 209.8566 
L 102.276699 249.705435 
L 104.197732 253.815525 
L 106.118765 258.947922 
L 108.039798 267.652066 
L 109.96083 255.64965 
L 111.881863 235.03113 
L 113.802896 219.089379 
L 115.723929 209.638751 
L 117.644962 205.56622 
L 119.565994 205.921598 
L 121.487027 210.728269 
L 123.40806 220.332569 
L 125.329093 235.646849 
L 127.250126 264.320926 
L 129.171159 256.733795 
L 131.092191 245.192251 
L 134.934257 224.021265 
L 136.85529 212.830623 
L 138.776323 204.217881 
L 140.697355 198.439894 
L 142.618388 196.677438 
L 144.539421 199.798202 
L 146.460454 216.377736 
L 148.381487 209.807189 
L 150.302519 200.845268 
L 152.223552 190.101015 
L 154.144585 180.35113 
L 156.065618 172.104497 
L 157.986651 167.467185 
L 159.907684 165.92887 
L 161.828716 168.30994 
L 163.749749 175.720477 
L 165.670782 192.929624 
L 167.591815 190.682344 
L 169.512848 185.194487 
L 171.43388 181.362412 
L 173.354913 178.858623 
L 175.275946 178.48451 
L 177.196979 180.409333 
L 179.118012 184.026328 
L 181.039045 189.934023 
L 182.960077 197.887259 
L 184.88111 213.083485 
L 186.802143 208.275795 
L 190.644209 197.71292 
L 192.565241 193.412179 
L 194.486274 186.042996 
L 196.407307 183.136219 
L 198.32834 176.540136 
L 200.249373 175.513559 
L 202.170405 173.673224 
L 204.091438 179.255365 
L 206.012471 168.805692 
L 207.933504 166.862014 
L 209.854537 169.921746 
L 213.696602 188.55452 
L 215.617635 203.330887 
L 217.538668 213.594579 
L 219.459701 226.564033 
L 221.380734 233.275757 
L 223.301766 245.374094 
L 225.222799 233.403161 
L 227.143832 226.927939 
L 229.064865 224.40248 
L 230.985898 224.989713 
L 232.90693 228.188096 
L 234.827963 233.845366 
L 236.748996 241.330364 
L 238.670029 250.151908 
L 240.591062 259.837736 
L 242.512095 276.334125 
L 244.433127 264.461715 
L 248.275193 252.761782 
L 250.196226 246.08367 
L 252.117259 241.1708 
L 254.038291 238.598682 
L 255.959324 239.096833 
L 257.880357 243.371677 
L 259.80139 251.727155 
L 261.722423 274.0123 
L 265.564488 259.784837 
L 267.485521 248.611443 
L 271.327587 223.609249 
L 273.24862 213.541924 
L 275.169652 207.477718 
L 277.090685 206.831158 
L 279.011718 212.324075 
L 280.932751 233.198958 
L 282.853784 226.212375 
L 284.774816 217.838958 
L 286.695849 206.324518 
L 290.537915 181.239476 
L 292.458948 170.651307 
L 294.379981 163.273037 
L 296.301013 160.624904 
L 298.222046 163.483548 
L 300.143079 177.018387 
L 302.064112 174.037223 
L 305.906177 168.556937 
L 307.82721 166.495509 
L 309.748243 166.054777 
L 311.669276 166.002235 
L 313.590309 167.703863 
L 315.511341 170.337245 
L 317.432374 174.715485 
L 319.353407 183.92253 
L 321.27444 181.274333 
L 323.195473 176.082397 
L 325.116506 169.671901 
L 327.037538 164.565934 
L 328.958571 161.374279 
L 330.879604 159.219373 
L 332.800637 162.289011 
L 334.72167 161.980942 
L 336.642702 178.154081 
L 338.563735 173.676671 
L 342.405801 146.628042 
L 344.326834 136.488758 
L 346.247866 130.586645 
L 348.168899 128.889378 
L 350.089932 132.340493 
L 353.931998 152.140584 
L 355.853031 170.913697 
L 359.695096 163.257812 
L 361.616129 163.931224 
L 363.537162 167.157723 
L 365.458195 171.85382 
L 367.379227 178.176773 
L 373.142326 199.918382 
L 375.063359 205.141339 
L 376.984391 206.920488 
L 378.905424 207.635972 
L 382.74749 207.968462 
L 384.668523 208.631725 
L 384.668523 208.631725 
" style="fill:none;stroke:#1f77b4;stroke-linecap:square;stroke-width:1.5;"/>
   </g>
   <g id="line2d_17">
    <path clip-path="url(#p833fc99c7f)" d="M 60.013977 139.540626 
L 63.856043 148.463766 
L 65.777076 153.502914 
L 67.698109 159.28733 
L 69.619141 166.036955 
L 71.540174 173.886391 
L 73.461207 182.883695 
L 75.38224 192.957183 
L 77.303273 204.022023 
L 79.224305 34.414125 
L 83.066371 83.428056 
L 86.908437 133.315399 
L 88.829469 157.016899 
L 90.750502 179.08664 
L 92.671535 197.783699 
L 94.592568 213.156593 
L 96.513601 225.720496 
L 98.434634 193.987348 
L 100.355666 210.439828 
L 102.276699 225.162336 
L 104.197732 237.734236 
L 106.118765 248.036787 
L 108.039798 256.073597 
L 109.96083 261.981884 
L 111.881863 266.117505 
L 113.802896 268.955629 
L 115.723929 270.954482 
L 117.644962 173.96546 
L 119.565994 184.745075 
L 121.487027 193.688055 
L 123.40806 199.602951 
L 125.329093 203.206406 
L 127.250126 205.346373 
L 129.171159 206.726111 
L 131.092191 207.721595 
L 133.013224 208.504816 
L 134.934257 209.160828 
L 136.85529 115.965073 
L 138.776323 125.455622 
L 140.697355 134.116408 
L 142.618388 140.905334 
L 144.539421 146.144138 
L 146.460454 150.218508 
L 148.381487 153.438481 
L 150.302519 156.034788 
L 152.223552 158.172951 
L 154.144585 159.971977 
L 156.065618 36.342275 
L 157.986651 56.719946 
L 159.907684 78.3724 
L 161.828716 97.924739 
L 163.749749 115.087126 
L 165.670782 130.047501 
L 167.591815 143.101541 
L 169.512848 154.55396 
L 171.43388 164.661476 
L 173.354913 173.626632 
L 175.275946 99.37908 
L 177.196979 100.942996 
L 179.118012 102.145926 
L 182.960077 104.182964 
L 186.802143 105.925871 
L 190.644209 107.459177 
L 192.565241 108.163974 
L 194.486274 80.530214 
L 198.32834 93.340178 
L 200.249373 99.117259 
L 202.170405 104.210311 
L 204.091438 108.681122 
L 206.012471 112.572293 
L 207.933504 115.96442 
L 209.854537 118.948648 
L 211.77557 121.600851 
L 213.696602 90.354558 
L 215.617635 91.749619 
L 217.538668 92.351299 
L 229.064865 95.193794 
L 230.985898 95.720219 
L 232.90693 110.056463 
L 234.827963 113.391509 
L 246.35416 140.015484 
L 250.196226 148.037933 
L 252.117259 77.310395 
L 255.959324 88.789079 
L 261.722423 105.938857 
L 265.564488 116.591848 
L 269.406554 126.272347 
L 271.327587 76.841619 
L 273.24862 84.791476 
L 275.169652 93.560223 
L 277.090685 100.860441 
L 279.011718 106.711024 
L 280.932751 111.428214 
L 282.853784 115.276097 
L 284.774816 118.465752 
L 286.695849 121.158648 
L 288.616882 123.477897 
L 290.537915 114.257483 
L 292.458948 123.560522 
L 296.301013 143.470412 
L 300.143079 161.809825 
L 303.985145 178.467826 
L 307.82721 193.659153 
L 309.748243 68.389163 
L 313.590309 81.540222 
L 315.511341 87.621776 
L 317.432374 93.327278 
L 319.353407 98.674215 
L 321.27444 103.668599 
L 323.195473 108.328638 
L 325.116506 112.662853 
L 327.037538 116.680141 
L 328.958571 150.950909 
L 332.800637 168.342342 
L 336.642702 184.408317 
L 340.484768 198.543206 
L 344.326834 211.272761 
L 346.247866 217.072997 
L 348.168899 81.310249 
L 355.853031 95.360486 
L 359.695096 101.493057 
L 363.537162 106.929781 
L 365.458195 109.402134 
L 367.379227 94.479636 
L 371.221293 106.754518 
L 375.063359 118.793723 
L 376.984391 124.325148 
L 378.905424 129.314224 
L 380.826457 133.483225 
L 382.74749 136.606471 
L 384.668523 139.12632 
L 384.668523 139.12632 
" style="fill:none;stroke:#ff7f0e;stroke-linecap:square;stroke-opacity:0.3;stroke-width:1.5;"/>
   </g>
   <g id="line2d_18">
    <path clip-path="url(#p833fc99c7f)" d="M 60.013977 154.998356 
L 61.93501 133.547524 
L 63.856043 131.735589 
L 65.777076 143.299869 
L 69.619141 181.506358 
L 71.540174 184.582696 
L 73.461207 174.141774 
L 75.38224 155.398895 
L 79.224305 112.195592 
L 81.145338 96.434317 
L 83.066371 89.865157 
L 84.987404 95.856901 
L 86.908437 117.292271 
L 88.829469 160.237306 
L 90.750502 179.908062 
L 92.671535 193.761448 
L 94.592568 203.293842 
L 96.513601 209.947961 
L 100.355666 220.081241 
L 102.276699 226.0151 
L 104.197732 233.635543 
L 106.118765 243.409775 
L 108.039798 263.928501 
L 109.96083 267.134532 
L 111.881863 260.932273 
L 113.802896 248.855177 
L 117.644962 218.534682 
L 119.565994 204.984817 
L 121.487027 195.171318 
L 123.40806 190.885886 
L 125.329093 193.837542 
L 127.250126 213.565717 
L 129.171159 212.376846 
L 131.092191 203.113586 
L 133.013224 189.215941 
L 136.85529 158.006105 
L 138.776323 144.958157 
L 140.697355 136.063326 
L 142.618388 132.969913 
L 144.539421 137.218083 
L 146.460454 160.768698 
L 148.381487 159.891819 
L 150.302519 148.307768 
L 152.223552 131.106973 
L 154.144585 112.553623 
L 156.065618 96.176193 
L 157.986651 84.852505 
L 159.907684 80.897572 
L 161.828716 86.147034 
L 163.749749 102.027179 
L 165.670782 136.51223 
L 167.591815 148.758441 
L 169.512848 152.187818 
L 171.43388 148.79034 
L 173.354913 140.461408 
L 175.275946 129.185744 
L 177.196979 117.050412 
L 179.118012 106.243517 
L 181.039045 99.05203 
L 182.960077 97.855419 
L 184.88111 107.492578 
L 186.802143 107.235941 
L 188.723176 104.748164 
L 192.565241 97.622806 
L 194.486274 94.77763 
L 196.407307 93.303714 
L 198.32834 93.670022 
L 200.249373 96.20848 
L 202.170405 101.13601 
L 204.091438 111.394678 
L 206.012471 114.733702 
L 207.933504 114.806087 
L 209.854537 112.406466 
L 211.77557 108.292149 
L 215.617635 98.108132 
L 217.538668 93.708677 
L 219.459701 90.92483 
L 221.380734 90.65288 
L 223.301766 92.655068 
L 225.222799 93.111089 
L 227.143832 94.73486 
L 229.064865 97.492291 
L 230.985898 101.318854 
L 232.90693 106.059551 
L 236.748996 117.182178 
L 238.670029 122.770778 
L 240.591062 127.687572 
L 242.512095 137.5341 
L 244.433127 140.259705 
L 246.35416 136.708784 
L 248.275193 128.870966 
L 254.038291 98.254039 
L 255.959324 91.634729 
L 257.880357 89.646536 
L 259.80139 93.895398 
L 261.722423 110.427657 
L 263.643455 114.419629 
L 265.564488 113.780333 
L 267.485521 110.273349 
L 271.327587 100.506953 
L 273.24862 96.665484 
L 275.169652 94.90698 
L 277.090685 96.168329 
L 279.011718 101.336937 
L 280.932751 112.214507 
L 282.853784 115.464446 
L 284.774816 116.959146 
L 286.695849 118.067621 
L 288.616882 119.735235 
L 290.537915 122.618886 
L 292.458948 127.127067 
L 294.379981 133.432755 
L 296.301013 141.490087 
L 298.222046 151.047632 
L 300.143079 172.768266 
L 302.064112 178.650817 
L 303.985145 173.235811 
L 305.906177 159.719048 
L 307.82721 141.222247 
L 309.748243 120.84302 
L 311.669276 101.670154 
L 313.590309 86.784452 
L 315.511341 79.265983 
L 317.432374 82.19609 
L 319.353407 96.095271 
L 321.27444 101.295838 
L 323.195473 108.744169 
L 325.116506 118.212082 
L 327.037538 129.303812 
L 334.72167 177.587071 
L 336.642702 186.314957 
L 338.563735 203.40912 
L 340.484768 207.532276 
L 342.405801 199.656995 
L 344.326834 183.006196 
L 346.247866 160.8384 
L 350.089932 113.194914 
L 352.010965 94.37615 
L 353.931998 83.362207 
L 355.853031 83.593747 
L 357.774063 99.921159 
L 359.695096 102.247664 
L 361.616129 103.015752 
L 365.458195 102.894484 
L 367.379227 103.266229 
L 369.30026 104.584606 
L 371.221293 107.207697 
L 373.142326 111.357659 
L 375.063359 117.054408 
L 376.984391 124.014313 
L 378.905424 130.410584 
L 380.826457 135.350831 
L 382.74749 137.942668 
L 384.668523 137.293708 
L 384.668523 137.293708 
" style="fill:none;stroke:#ff7f0e;stroke-linecap:square;stroke-width:1.5;"/>
   </g>
   <g id="line2d_19">
    <path clip-path="url(#p833fc99c7f)" d="M 60.013977 47.306704 
L 61.93501 47.757846 
L 63.856043 49.116833 
L 67.698109 52.825021 
L 69.619141 54.307557 
L 71.540174 51.772277 
L 73.461207 50.677393 
L 75.38224 51.761764 
L 77.303273 52.488241 
L 79.224305 54.543579 
L 81.145338 54.518748 
L 83.066371 58.875704 
L 84.987404 58.415126 
L 86.908437 58.622571 
L 88.829469 57.859569 
L 90.750502 52.769254 
L 92.671535 53.885038 
L 94.592568 56.138793 
L 96.513601 57.436182 
L 98.434634 59.402029 
L 100.355666 60.132795 
L 102.276699 64.629521 
L 104.197732 61.628081 
L 108.039798 61.933736 
L 109.96083 60.639462 
L 111.881863 61.808998 
L 113.802896 65.891803 
L 117.644962 79.838253 
L 121.487027 96.305204 
L 125.329093 109.218916 
L 127.250126 111.871097 
L 129.171159 111.287406 
L 131.092191 113.072668 
L 133.013224 119.058596 
L 134.934257 126.012146 
L 138.776323 137.862304 
L 140.697355 142.352817 
L 142.618388 145.157294 
L 144.539421 144.907765 
L 146.460454 147.380021 
L 148.381487 143.043281 
L 150.302519 135.184208 
L 156.065618 106.367207 
L 157.986651 98.676921 
L 159.907684 92.314355 
L 161.828716 89.460075 
L 163.749749 90.940713 
L 165.670782 94.269133 
L 167.591815 93.529424 
L 169.512848 95.413935 
L 171.43388 103.28092 
L 173.354913 115.559342 
L 177.196979 143.310952 
L 179.118012 155.423174 
L 181.039045 164.888001 
L 182.960077 169.976947 
L 184.88111 170.228019 
L 186.802143 167.141327 
L 188.723176 164.898941 
L 190.644209 163.638899 
L 192.565241 164.670928 
L 194.486274 163.047406 
L 196.407307 163.23945 
L 198.32834 160.654548 
L 200.249373 158.807193 
L 202.170405 155.339183 
L 204.091438 152.62096 
L 206.012471 144.06438 
L 207.933504 143.460768 
L 209.854537 146.076175 
L 211.77557 151.763294 
L 213.696602 157.871517 
L 215.617635 166.200137 
L 219.459701 177.367469 
L 221.380734 179.138544 
L 223.301766 181.17269 
L 225.222799 175.574621 
L 227.143832 175.457472 
L 229.064865 176.033386 
L 230.985898 176.46035 
L 232.90693 178.011979 
L 234.827963 178.999832 
L 238.670029 181.259009 
L 240.591062 182.775237 
L 242.512095 183.466778 
L 244.433127 178.988762 
L 246.35416 182.089909 
L 248.275193 188.167572 
L 254.038291 210.282168 
L 255.959324 215.514889 
L 257.880357 218.387986 
L 259.80139 218.456723 
L 261.722423 216.733991 
L 263.643455 209.101108 
L 265.564488 205.318955 
L 267.485521 205.028934 
L 269.406554 208.501675 
L 271.327587 215.82763 
L 273.24862 225.834717 
L 277.090685 247.219398 
L 280.932751 264.360411 
L 282.853784 259.067429 
L 284.774816 250.894102 
L 286.695849 243.855285 
L 288.616882 239.681739 
L 290.537915 237.291247 
L 292.458948 236.702499 
L 294.379981 238.454756 
L 296.301013 241.707132 
L 298.222046 246.041374 
L 300.143079 250.701927 
L 303.985145 244.347292 
L 305.906177 244.770588 
L 309.748243 252.21885 
L 313.590309 261.986129 
L 315.511341 265.912883 
L 317.432374 268.057353 
L 319.353407 272.176907 
L 321.27444 269.844834 
L 323.195473 262.850817 
L 325.116506 252.836366 
L 330.879604 215.596222 
L 332.800637 205.918704 
L 334.72167 200.834177 
L 336.642702 203.82324 
L 338.563735 207.911886 
L 340.484768 205.988824 
L 342.405801 201.468314 
L 344.326834 195.211999 
L 346.247866 188.441635 
L 348.168899 182.974369 
L 350.089932 179.539808 
L 352.010965 180.660845 
L 353.931998 186.346922 
L 355.853031 194.88064 
L 357.774063 202.58617 
L 359.695096 204.416373 
L 361.616129 202.224881 
L 363.537162 197.958675 
L 367.379227 187.095865 
L 369.30026 182.975816 
L 371.221293 181.5515 
L 373.142326 182.173103 
L 375.063359 185.331766 
L 376.984391 191.305737 
L 378.905424 196.299416 
L 380.826457 198.698221 
L 382.74749 196.887568 
L 384.668523 189.252876 
L 384.668523 189.252876 
" style="fill:none;stroke:#008000;stroke-linecap:square;stroke-width:1.5;"/>
   </g>
   <g id="patch_3">
    <path d="M 43.78125 288.430125 
L 43.78125 22.318125 
" style="fill:none;stroke:#000000;stroke-linecap:square;stroke-linejoin:miter;stroke-width:0.8;"/>
   </g>
   <g id="patch_4">
    <path d="M 400.90125 288.430125 
L 400.90125 22.318125 
" style="fill:none;stroke:#000000;stroke-linecap:square;stroke-linejoin:miter;stroke-width:0.8;"/>
   </g>
   <g id="patch_5">
    <path d="M 43.78125 288.430125 
L 400.90125 288.430125 
" style="fill:none;stroke:#000000;stroke-linecap:square;stroke-linejoin:miter;stroke-width:0.8;"/>
   </g>
   <g id="patch_6">
    <path d="M 43.78125 22.318125 
L 400.90125 22.318125 
" style="fill:none;stroke:#000000;stroke-linecap:square;stroke-linejoin:miter;stroke-width:0.8;"/>
   </g>
   <g id="text_17">
    <!-- Entropy and Loss. -->
    <defs>
     <path d="M 9.1875 72.90625 
L 59.90625 72.90625 
L 59.90625 58.6875 
L 27.984375 58.6875 
L 27.984375 45.125 
L 58.015625 45.125 
L 58.015625 30.90625 
L 27.984375 30.90625 
L 27.984375 14.203125 
L 60.984375 14.203125 
L 60.984375 0 
L 9.1875 0 
z
" id="DejaVuSans-Bold-69"/>
     <path d="M 63.375 33.296875 
L 63.375 0 
L 45.796875 0 
L 45.796875 5.421875 
L 45.796875 25.484375 
Q 45.796875 32.5625 45.484375 35.25 
Q 45.171875 37.9375 44.390625 39.203125 
Q 43.359375 40.921875 41.59375 41.875 
Q 39.84375 42.828125 37.59375 42.828125 
Q 32.125 42.828125 29 38.59375 
Q 25.875 34.375 25.875 26.90625 
L 25.875 0 
L 8.40625 0 
L 8.40625 54.6875 
L 25.875 54.6875 
L 25.875 46.6875 
Q 29.828125 51.46875 34.265625 53.734375 
Q 38.71875 56 44.09375 56 
Q 53.5625 56 58.46875 50.1875 
Q 63.375 44.390625 63.375 33.296875 
z
" id="DejaVuSans-Bold-110"/>
     <path d="M 27.484375 70.21875 
L 27.484375 54.6875 
L 45.515625 54.6875 
L 45.515625 42.1875 
L 27.484375 42.1875 
L 27.484375 19 
Q 27.484375 15.1875 29 13.84375 
Q 30.515625 12.5 35.015625 12.5 
L 44 12.5 
L 44 0 
L 29 0 
Q 18.65625 0 14.328125 4.3125 
Q 10.015625 8.640625 10.015625 19 
L 10.015625 42.1875 
L 1.3125 42.1875 
L 1.3125 54.6875 
L 10.015625 54.6875 
L 10.015625 70.21875 
z
" id="DejaVuSans-Bold-116"/>
     <path d="M 49.03125 39.796875 
Q 46.734375 40.875 44.453125 41.375 
Q 42.1875 41.890625 39.890625 41.890625 
Q 33.15625 41.890625 29.515625 37.5625 
Q 25.875 33.25 25.875 25.203125 
L 25.875 0 
L 8.40625 0 
L 8.40625 54.6875 
L 25.875 54.6875 
L 25.875 45.703125 
Q 29.25 51.078125 33.609375 53.53125 
Q 37.984375 56 44.09375 56 
Q 44.96875 56 45.984375 55.921875 
Q 47.015625 55.859375 48.96875 55.609375 
z
" id="DejaVuSans-Bold-114"/>
     <path d="M 34.421875 43.5 
Q 28.609375 43.5 25.5625 39.328125 
Q 22.515625 35.15625 22.515625 27.296875 
Q 22.515625 19.4375 25.5625 15.25 
Q 28.609375 11.078125 34.421875 11.078125 
Q 40.140625 11.078125 43.15625 15.25 
Q 46.1875 19.4375 46.1875 27.296875 
Q 46.1875 35.15625 43.15625 39.328125 
Q 40.140625 43.5 34.421875 43.5 
z
M 34.421875 56 
Q 48.53125 56 56.46875 48.375 
Q 64.40625 40.765625 64.40625 27.296875 
Q 64.40625 13.8125 56.46875 6.1875 
Q 48.53125 -1.421875 34.421875 -1.421875 
Q 20.265625 -1.421875 12.28125 6.1875 
Q 4.296875 13.8125 4.296875 27.296875 
Q 4.296875 40.765625 12.28125 48.375 
Q 20.265625 56 34.421875 56 
z
" id="DejaVuSans-Bold-111"/>
     <path d="M 25.875 7.90625 
L 25.875 -20.796875 
L 8.40625 -20.796875 
L 8.40625 54.6875 
L 25.875 54.6875 
L 25.875 46.6875 
Q 29.5 51.46875 33.890625 53.734375 
Q 38.28125 56 44 56 
Q 54.109375 56 60.59375 47.96875 
Q 67.09375 39.9375 67.09375 27.296875 
Q 67.09375 14.65625 60.59375 6.609375 
Q 54.109375 -1.421875 44 -1.421875 
Q 38.28125 -1.421875 33.890625 0.84375 
Q 29.5 3.125 25.875 7.90625 
z
M 37.5 43.3125 
Q 31.890625 43.3125 28.875 39.1875 
Q 25.875 35.0625 25.875 27.296875 
Q 25.875 19.53125 28.875 15.40625 
Q 31.890625 11.28125 37.5 11.28125 
Q 43.109375 11.28125 46.0625 15.375 
Q 49.03125 19.484375 49.03125 27.296875 
Q 49.03125 35.109375 46.0625 39.203125 
Q 43.109375 43.3125 37.5 43.3125 
z
" id="DejaVuSans-Bold-112"/>
     <path d="M 1.21875 54.6875 
L 18.703125 54.6875 
L 33.40625 17.578125 
L 45.90625 54.6875 
L 63.375 54.6875 
L 40.375 -5.171875 
Q 36.921875 -14.3125 32.296875 -17.9375 
Q 27.6875 -21.578125 20.125 -21.578125 
L 10.015625 -21.578125 
L 10.015625 -10.109375 
L 15.484375 -10.109375 
Q 19.921875 -10.109375 21.9375 -8.6875 
Q 23.96875 -7.28125 25.09375 -3.609375 
L 25.59375 -2.09375 
z
" id="DejaVuSans-Bold-121"/>
     <path id="DejaVuSans-Bold-32"/>
     <path d="M 32.90625 24.609375 
Q 27.4375 24.609375 24.671875 22.75 
Q 21.921875 20.90625 21.921875 17.28125 
Q 21.921875 13.96875 24.140625 12.078125 
Q 26.375 10.203125 30.328125 10.203125 
Q 35.25 10.203125 38.625 13.734375 
Q 42 17.28125 42 22.609375 
L 42 24.609375 
z
M 59.625 31.203125 
L 59.625 0 
L 42 0 
L 42 8.109375 
Q 38.484375 3.125 34.078125 0.84375 
Q 29.6875 -1.421875 23.390625 -1.421875 
Q 14.890625 -1.421875 9.59375 3.53125 
Q 4.296875 8.5 4.296875 16.40625 
Q 4.296875 26.03125 10.90625 30.515625 
Q 17.53125 35.015625 31.6875 35.015625 
L 42 35.015625 
L 42 36.375 
Q 42 40.53125 38.71875 42.453125 
Q 35.453125 44.390625 28.515625 44.390625 
Q 22.90625 44.390625 18.0625 43.265625 
Q 13.234375 42.140625 9.078125 39.890625 
L 9.078125 53.21875 
Q 14.703125 54.59375 20.359375 55.296875 
Q 26.03125 56 31.6875 56 
Q 46.484375 56 53.046875 50.171875 
Q 59.625 44.34375 59.625 31.203125 
z
" id="DejaVuSans-Bold-97"/>
     <path d="M 45.609375 46.6875 
L 45.609375 75.984375 
L 63.1875 75.984375 
L 63.1875 0 
L 45.609375 0 
L 45.609375 7.90625 
Q 42 3.078125 37.640625 0.828125 
Q 33.296875 -1.421875 27.59375 -1.421875 
Q 17.484375 -1.421875 10.984375 6.609375 
Q 4.5 14.65625 4.5 27.296875 
Q 4.5 39.9375 10.984375 47.96875 
Q 17.484375 56 27.59375 56 
Q 33.25 56 37.625 53.734375 
Q 42 51.46875 45.609375 46.6875 
z
M 34.078125 11.28125 
Q 39.703125 11.28125 42.65625 15.375 
Q 45.609375 19.484375 45.609375 27.296875 
Q 45.609375 35.109375 42.65625 39.203125 
Q 39.703125 43.3125 34.078125 43.3125 
Q 28.515625 43.3125 25.5625 39.203125 
Q 22.609375 35.109375 22.609375 27.296875 
Q 22.609375 19.484375 25.5625 15.375 
Q 28.515625 11.28125 34.078125 11.28125 
z
" id="DejaVuSans-Bold-100"/>
     <path d="M 9.1875 72.90625 
L 27.984375 72.90625 
L 27.984375 14.203125 
L 60.984375 14.203125 
L 60.984375 0 
L 9.1875 0 
z
" id="DejaVuSans-Bold-76"/>
     <path d="M 51.125 52.984375 
L 51.125 39.703125 
Q 45.515625 42.046875 40.28125 43.21875 
Q 35.0625 44.390625 30.421875 44.390625 
Q 25.4375 44.390625 23.015625 43.140625 
Q 20.609375 41.890625 20.609375 39.3125 
Q 20.609375 37.203125 22.4375 36.078125 
Q 24.265625 34.96875 29 34.421875 
L 32.078125 33.984375 
Q 45.515625 32.28125 50.140625 28.375 
Q 54.78125 24.46875 54.78125 16.109375 
Q 54.78125 7.375 48.328125 2.96875 
Q 41.890625 -1.421875 29.109375 -1.421875 
Q 23.6875 -1.421875 17.890625 -0.5625 
Q 12.109375 0.296875 6 2 
L 6 15.28125 
Q 11.234375 12.75 16.71875 11.46875 
Q 22.21875 10.203125 27.875 10.203125 
Q 33.015625 10.203125 35.59375 11.609375 
Q 38.1875 13.03125 38.1875 15.828125 
Q 38.1875 18.171875 36.40625 19.3125 
Q 34.625 20.453125 29.296875 21.09375 
L 26.21875 21.484375 
Q 14.546875 22.953125 9.859375 26.90625 
Q 5.171875 30.859375 5.171875 38.921875 
Q 5.171875 47.609375 11.125 51.796875 
Q 17.09375 56 29.390625 56 
Q 34.234375 56 39.546875 55.265625 
Q 44.875 54.546875 51.125 52.984375 
z
" id="DejaVuSans-Bold-115"/>
     <path d="M 10.203125 18.890625 
L 27.78125 18.890625 
L 27.78125 0 
L 10.203125 0 
z
" id="DejaVuSans-Bold-46"/>
    </defs>
    <g transform="translate(161.657813 16.318125)scale(0.12 -0.12)">
     <use xlink:href="#DejaVuSans-Bold-69"/>
     <use x="68.310547" xlink:href="#DejaVuSans-Bold-110"/>
     <use x="139.501953" xlink:href="#DejaVuSans-Bold-116"/>
     <use x="187.304688" xlink:href="#DejaVuSans-Bold-114"/>
     <use x="236.621094" xlink:href="#DejaVuSans-Bold-111"/>
     <use x="305.322266" xlink:href="#DejaVuSans-Bold-112"/>
     <use x="376.904297" xlink:href="#DejaVuSans-Bold-121"/>
     <use x="442.089844" xlink:href="#DejaVuSans-Bold-32"/>
     <use x="476.904297" xlink:href="#DejaVuSans-Bold-97"/>
     <use x="544.384766" xlink:href="#DejaVuSans-Bold-110"/>
     <use x="615.576172" xlink:href="#DejaVuSans-Bold-100"/>
     <use x="687.158203" xlink:href="#DejaVuSans-Bold-32"/>
     <use x="721.972656" xlink:href="#DejaVuSans-Bold-76"/>
     <use x="785.693359" xlink:href="#DejaVuSans-Bold-111"/>
     <use x="854.394531" xlink:href="#DejaVuSans-Bold-115"/>
     <use x="913.916016" xlink:href="#DejaVuSans-Bold-115"/>
     <use x="973.4375" xlink:href="#DejaVuSans-Bold-46"/>
    </g>
   </g>
   <g id="legend_1">
    <g id="patch_7">
     <path d="M 18.982656 353.02505 
L 429.699844 353.02505 
Q 431.699844 353.02505 431.699844 351.02505 
L 431.699844 337.346925 
Q 431.699844 335.346925 429.699844 335.346925 
L 18.982656 335.346925 
Q 16.982656 335.346925 16.982656 337.346925 
L 16.982656 351.02505 
Q 16.982656 353.02505 18.982656 353.02505 
z
" style="fill:#4c4c4c;opacity:0.5;stroke:#4c4c4c;stroke-linejoin:miter;"/>
    </g>
    <g id="patch_8">
     <path d="M 16.982656 351.02505 
L 427.699844 351.02505 
Q 429.699844 351.02505 429.699844 349.02505 
L 429.699844 335.346925 
Q 429.699844 333.346925 427.699844 333.346925 
L 16.982656 333.346925 
Q 14.982656 333.346925 14.982656 335.346925 
L 14.982656 349.02505 
Q 14.982656 351.02505 16.982656 351.02505 
z
" style="fill:#ffffff;stroke:#cccccc;stroke-linejoin:miter;"/>
    </g>
    <g id="line2d_20">
     <path d="M 18.982656 341.445362 
L 38.982656 341.445362 
" style="fill:none;stroke:#1f77b4;stroke-linecap:square;stroke-width:1.5;"/>
    </g>
    <g id="line2d_21"/>
    <g id="text_18">
     <!-- Policy Loss (Normalized) -->
     <defs>
      <path d="M 19.671875 64.796875 
L 19.671875 37.40625 
L 32.078125 37.40625 
Q 38.96875 37.40625 42.71875 40.96875 
Q 46.484375 44.53125 46.484375 51.125 
Q 46.484375 57.671875 42.71875 61.234375 
Q 38.96875 64.796875 32.078125 64.796875 
z
M 9.8125 72.90625 
L 32.078125 72.90625 
Q 44.34375 72.90625 50.609375 67.359375 
Q 56.890625 61.8125 56.890625 51.125 
Q 56.890625 40.328125 50.609375 34.8125 
Q 44.34375 29.296875 32.078125 29.296875 
L 19.671875 29.296875 
L 19.671875 0 
L 9.8125 0 
z
" id="DejaVuSans-80"/>
      <path d="M 9.421875 75.984375 
L 18.40625 75.984375 
L 18.40625 0 
L 9.421875 0 
z
" id="DejaVuSans-108"/>
      <path d="M 9.421875 54.6875 
L 18.40625 54.6875 
L 18.40625 0 
L 9.421875 0 
z
M 9.421875 75.984375 
L 18.40625 75.984375 
L 18.40625 64.59375 
L 9.421875 64.59375 
z
" id="DejaVuSans-105"/>
      <path d="M 32.171875 -5.078125 
Q 28.375 -14.84375 24.75 -17.8125 
Q 21.140625 -20.796875 15.09375 -20.796875 
L 7.90625 -20.796875 
L 7.90625 -13.28125 
L 13.1875 -13.28125 
Q 16.890625 -13.28125 18.9375 -11.515625 
Q 21 -9.765625 23.484375 -3.21875 
L 25.09375 0.875 
L 2.984375 54.6875 
L 12.5 54.6875 
L 29.59375 11.921875 
L 46.6875 54.6875 
L 56.203125 54.6875 
z
" id="DejaVuSans-121"/>
      <path id="DejaVuSans-32"/>
      <path d="M 31 75.875 
Q 24.46875 64.65625 21.28125 53.65625 
Q 18.109375 42.671875 18.109375 31.390625 
Q 18.109375 20.125 21.3125 9.0625 
Q 24.515625 -2 31 -13.1875 
L 23.1875 -13.1875 
Q 15.875 -1.703125 12.234375 9.375 
Q 8.59375 20.453125 8.59375 31.390625 
Q 8.59375 42.28125 12.203125 53.3125 
Q 15.828125 64.359375 23.1875 75.875 
z
" id="DejaVuSans-40"/>
      <path d="M 9.8125 72.90625 
L 23.09375 72.90625 
L 55.421875 11.921875 
L 55.421875 72.90625 
L 64.984375 72.90625 
L 64.984375 0 
L 51.703125 0 
L 19.390625 60.984375 
L 19.390625 0 
L 9.8125 0 
z
" id="DejaVuSans-78"/>
      <path d="M 41.109375 46.296875 
Q 39.59375 47.171875 37.8125 47.578125 
Q 36.03125 48 33.890625 48 
Q 26.265625 48 22.1875 43.046875 
Q 18.109375 38.09375 18.109375 28.8125 
L 18.109375 0 
L 9.078125 0 
L 9.078125 54.6875 
L 18.109375 54.6875 
L 18.109375 46.1875 
Q 20.953125 51.171875 25.484375 53.578125 
Q 30.03125 56 36.53125 56 
Q 37.453125 56 38.578125 55.875 
Q 39.703125 55.765625 41.0625 55.515625 
z
" id="DejaVuSans-114"/>
      <path d="M 52 44.1875 
Q 55.375 50.25 60.0625 53.125 
Q 64.75 56 71.09375 56 
Q 79.640625 56 84.28125 50.015625 
Q 88.921875 44.046875 88.921875 33.015625 
L 88.921875 0 
L 79.890625 0 
L 79.890625 32.71875 
Q 79.890625 40.578125 77.09375 44.375 
Q 74.3125 48.1875 68.609375 48.1875 
Q 61.625 48.1875 57.5625 43.546875 
Q 53.515625 38.921875 53.515625 30.90625 
L 53.515625 0 
L 44.484375 0 
L 44.484375 32.71875 
Q 44.484375 40.625 41.703125 44.40625 
Q 38.921875 48.1875 33.109375 48.1875 
Q 26.21875 48.1875 22.15625 43.53125 
Q 18.109375 38.875 18.109375 30.90625 
L 18.109375 0 
L 9.078125 0 
L 9.078125 54.6875 
L 18.109375 54.6875 
L 18.109375 46.1875 
Q 21.1875 51.21875 25.484375 53.609375 
Q 29.78125 56 35.6875 56 
Q 41.65625 56 45.828125 52.96875 
Q 50 49.953125 52 44.1875 
z
" id="DejaVuSans-109"/>
      <path d="M 34.28125 27.484375 
Q 23.390625 27.484375 19.1875 25 
Q 14.984375 22.515625 14.984375 16.5 
Q 14.984375 11.71875 18.140625 8.90625 
Q 21.296875 6.109375 26.703125 6.109375 
Q 34.1875 6.109375 38.703125 11.40625 
Q 43.21875 16.703125 43.21875 25.484375 
L 43.21875 27.484375 
z
M 52.203125 31.203125 
L 52.203125 0 
L 43.21875 0 
L 43.21875 8.296875 
Q 40.140625 3.328125 35.546875 0.953125 
Q 30.953125 -1.421875 24.3125 -1.421875 
Q 15.921875 -1.421875 10.953125 3.296875 
Q 6 8.015625 6 15.921875 
Q 6 25.140625 12.171875 29.828125 
Q 18.359375 34.515625 30.609375 34.515625 
L 43.21875 34.515625 
L 43.21875 35.40625 
Q 43.21875 41.609375 39.140625 45 
Q 35.0625 48.390625 27.6875 48.390625 
Q 23 48.390625 18.546875 47.265625 
Q 14.109375 46.140625 10.015625 43.890625 
L 10.015625 52.203125 
Q 14.9375 54.109375 19.578125 55.046875 
Q 24.21875 56 28.609375 56 
Q 40.484375 56 46.34375 49.84375 
Q 52.203125 43.703125 52.203125 31.203125 
z
" id="DejaVuSans-97"/>
      <path d="M 5.515625 54.6875 
L 48.1875 54.6875 
L 48.1875 46.484375 
L 14.40625 7.171875 
L 48.1875 7.171875 
L 48.1875 0 
L 4.296875 0 
L 4.296875 8.203125 
L 38.09375 47.515625 
L 5.515625 47.515625 
z
" id="DejaVuSans-122"/>
      <path d="M 56.203125 29.59375 
L 56.203125 25.203125 
L 14.890625 25.203125 
Q 15.484375 15.921875 20.484375 11.0625 
Q 25.484375 6.203125 34.421875 6.203125 
Q 39.59375 6.203125 44.453125 7.46875 
Q 49.3125 8.734375 54.109375 11.28125 
L 54.109375 2.78125 
Q 49.265625 0.734375 44.1875 -0.34375 
Q 39.109375 -1.421875 33.890625 -1.421875 
Q 20.796875 -1.421875 13.15625 6.1875 
Q 5.515625 13.8125 5.515625 26.8125 
Q 5.515625 40.234375 12.765625 48.109375 
Q 20.015625 56 32.328125 56 
Q 43.359375 56 49.78125 48.890625 
Q 56.203125 41.796875 56.203125 29.59375 
z
M 47.21875 32.234375 
Q 47.125 39.59375 43.09375 43.984375 
Q 39.0625 48.390625 32.421875 48.390625 
Q 24.90625 48.390625 20.390625 44.140625 
Q 15.875 39.890625 15.1875 32.171875 
z
" id="DejaVuSans-101"/>
      <path d="M 45.40625 46.390625 
L 45.40625 75.984375 
L 54.390625 75.984375 
L 54.390625 0 
L 45.40625 0 
L 45.40625 8.203125 
Q 42.578125 3.328125 38.25 0.953125 
Q 33.9375 -1.421875 27.875 -1.421875 
Q 17.96875 -1.421875 11.734375 6.484375 
Q 5.515625 14.40625 5.515625 27.296875 
Q 5.515625 40.1875 11.734375 48.09375 
Q 17.96875 56 27.875 56 
Q 33.9375 56 38.25 53.625 
Q 42.578125 51.265625 45.40625 46.390625 
z
M 14.796875 27.296875 
Q 14.796875 17.390625 18.875 11.75 
Q 22.953125 6.109375 30.078125 6.109375 
Q 37.203125 6.109375 41.296875 11.75 
Q 45.40625 17.390625 45.40625 27.296875 
Q 45.40625 37.203125 41.296875 42.84375 
Q 37.203125 48.484375 30.078125 48.484375 
Q 22.953125 48.484375 18.875 42.84375 
Q 14.796875 37.203125 14.796875 27.296875 
z
" id="DejaVuSans-100"/>
      <path d="M 8.015625 75.875 
L 15.828125 75.875 
Q 23.140625 64.359375 26.78125 53.3125 
Q 30.421875 42.28125 30.421875 31.390625 
Q 30.421875 20.453125 26.78125 9.375 
Q 23.140625 -1.703125 15.828125 -13.1875 
L 8.015625 -13.1875 
Q 14.5 -2 17.703125 9.0625 
Q 20.90625 20.125 20.90625 31.390625 
Q 20.90625 42.671875 17.703125 53.65625 
Q 14.5 64.65625 8.015625 75.875 
z
" id="DejaVuSans-41"/>
     </defs>
     <g transform="translate(46.982656 344.945362)scale(0.1 -0.1)">
      <use xlink:href="#DejaVuSans-80"/>
      <use x="60.255859" xlink:href="#DejaVuSans-111"/>
      <use x="121.4375" xlink:href="#DejaVuSans-108"/>
      <use x="149.220703" xlink:href="#DejaVuSans-105"/>
      <use x="177.003906" xlink:href="#DejaVuSans-99"/>
      <use x="231.984375" xlink:href="#DejaVuSans-121"/>
      <use x="291.164062" xlink:href="#DejaVuSans-32"/>
      <use x="322.951172" xlink:href="#DejaVuSans-76"/>
      <use x="378.648438" xlink:href="#DejaVuSans-111"/>
      <use x="439.830078" xlink:href="#DejaVuSans-115"/>
      <use x="491.929688" xlink:href="#DejaVuSans-115"/>
      <use x="544.029297" xlink:href="#DejaVuSans-32"/>
      <use x="575.816406" xlink:href="#DejaVuSans-40"/>
      <use x="614.830078" xlink:href="#DejaVuSans-78"/>
      <use x="689.634766" xlink:href="#DejaVuSans-111"/>
      <use x="750.816406" xlink:href="#DejaVuSans-114"/>
      <use x="791.914062" xlink:href="#DejaVuSans-109"/>
      <use x="889.326172" xlink:href="#DejaVuSans-97"/>
      <use x="950.605469" xlink:href="#DejaVuSans-108"/>
      <use x="978.388672" xlink:href="#DejaVuSans-105"/>
      <use x="1006.171875" xlink:href="#DejaVuSans-122"/>
      <use x="1058.662109" xlink:href="#DejaVuSans-101"/>
      <use x="1120.185547" xlink:href="#DejaVuSans-100"/>
      <use x="1183.662109" xlink:href="#DejaVuSans-41"/>
     </g>
    </g>
    <g id="line2d_22">
     <path d="M 189.251406 341.445362 
L 209.251406 341.445362 
" style="fill:none;stroke:#ff7f0e;stroke-linecap:square;stroke-width:1.5;"/>
    </g>
    <g id="line2d_23"/>
    <g id="text_19">
     <!-- Value Loss (Normalized) -->
     <defs>
      <path d="M 28.609375 0 
L 0.78125 72.90625 
L 11.078125 72.90625 
L 34.1875 11.53125 
L 57.328125 72.90625 
L 67.578125 72.90625 
L 39.796875 0 
z
" id="DejaVuSans-86"/>
      <path d="M 8.5 21.578125 
L 8.5 54.6875 
L 17.484375 54.6875 
L 17.484375 21.921875 
Q 17.484375 14.15625 20.5 10.265625 
Q 23.53125 6.390625 29.59375 6.390625 
Q 36.859375 6.390625 41.078125 11.03125 
Q 45.3125 15.671875 45.3125 23.6875 
L 45.3125 54.6875 
L 54.296875 54.6875 
L 54.296875 0 
L 45.3125 0 
L 45.3125 8.40625 
Q 42.046875 3.421875 37.71875 1 
Q 33.40625 -1.421875 27.6875 -1.421875 
Q 18.265625 -1.421875 13.375 4.4375 
Q 8.5 10.296875 8.5 21.578125 
z
M 31.109375 56 
z
" id="DejaVuSans-117"/>
     </defs>
     <g transform="translate(217.251406 344.945362)scale(0.1 -0.1)">
      <use xlink:href="#DejaVuSans-86"/>
      <use x="68.298828" xlink:href="#DejaVuSans-97"/>
      <use x="129.578125" xlink:href="#DejaVuSans-108"/>
      <use x="157.361328" xlink:href="#DejaVuSans-117"/>
      <use x="220.740234" xlink:href="#DejaVuSans-101"/>
      <use x="282.263672" xlink:href="#DejaVuSans-32"/>
      <use x="314.050781" xlink:href="#DejaVuSans-76"/>
      <use x="369.748047" xlink:href="#DejaVuSans-111"/>
      <use x="430.929688" xlink:href="#DejaVuSans-115"/>
      <use x="483.029297" xlink:href="#DejaVuSans-115"/>
      <use x="535.128906" xlink:href="#DejaVuSans-32"/>
      <use x="566.916016" xlink:href="#DejaVuSans-40"/>
      <use x="605.929688" xlink:href="#DejaVuSans-78"/>
      <use x="680.734375" xlink:href="#DejaVuSans-111"/>
      <use x="741.916016" xlink:href="#DejaVuSans-114"/>
      <use x="783.013672" xlink:href="#DejaVuSans-109"/>
      <use x="880.425781" xlink:href="#DejaVuSans-97"/>
      <use x="941.705078" xlink:href="#DejaVuSans-108"/>
      <use x="969.488281" xlink:href="#DejaVuSans-105"/>
      <use x="997.271484" xlink:href="#DejaVuSans-122"/>
      <use x="1049.761719" xlink:href="#DejaVuSans-101"/>
      <use x="1111.285156" xlink:href="#DejaVuSans-100"/>
      <use x="1174.761719" xlink:href="#DejaVuSans-41"/>
     </g>
    </g>
    <g id="line2d_24">
     <path d="M 358.629531 341.445362 
L 378.629531 341.445362 
" style="fill:none;stroke:#008000;stroke-linecap:square;stroke-width:1.5;"/>
    </g>
    <g id="line2d_25"/>
    <g id="text_20">
     <!-- Entropy -->
     <defs>
      <path d="M 54.890625 33.015625 
L 54.890625 0 
L 45.90625 0 
L 45.90625 32.71875 
Q 45.90625 40.484375 42.875 44.328125 
Q 39.84375 48.1875 33.796875 48.1875 
Q 26.515625 48.1875 22.3125 43.546875 
Q 18.109375 38.921875 18.109375 30.90625 
L 18.109375 0 
L 9.078125 0 
L 9.078125 54.6875 
L 18.109375 54.6875 
L 18.109375 46.1875 
Q 21.34375 51.125 25.703125 53.5625 
Q 30.078125 56 35.796875 56 
Q 45.21875 56 50.046875 50.171875 
Q 54.890625 44.34375 54.890625 33.015625 
z
" id="DejaVuSans-110"/>
      <path d="M 18.3125 70.21875 
L 18.3125 54.6875 
L 36.8125 54.6875 
L 36.8125 47.703125 
L 18.3125 47.703125 
L 18.3125 18.015625 
Q 18.3125 11.328125 20.140625 9.421875 
Q 21.96875 7.515625 27.59375 7.515625 
L 36.8125 7.515625 
L 36.8125 0 
L 27.59375 0 
Q 17.1875 0 13.234375 3.875 
Q 9.28125 7.765625 9.28125 18.015625 
L 9.28125 47.703125 
L 2.6875 47.703125 
L 2.6875 54.6875 
L 9.28125 54.6875 
L 9.28125 70.21875 
z
" id="DejaVuSans-116"/>
     </defs>
     <g transform="translate(386.629531 344.945362)scale(0.1 -0.1)">
      <use xlink:href="#DejaVuSans-69"/>
      <use x="63.183594" xlink:href="#DejaVuSans-110"/>
      <use x="126.5625" xlink:href="#DejaVuSans-116"/>
      <use x="165.771484" xlink:href="#DejaVuSans-114"/>
      <use x="206.853516" xlink:href="#DejaVuSans-111"/>
      <use x="268.035156" xlink:href="#DejaVuSans-112"/>
      <use x="331.511719" xlink:href="#DejaVuSans-121"/>
     </g>
    </g>
   </g>
  </g>
  <g id="axes_2">
   <g id="matplotlib.axis_3">
    <g id="ytick_7">
     <g id="line2d_26">
      <defs>
       <path d="M 0 0 
L 3.5 0 
" id="m5e6aeb3a03" style="stroke:#000000;stroke-width:0.8;"/>
      </defs>
      <g>
       <use style="stroke:#000000;stroke-width:0.8;" x="400.90125" xlink:href="#m5e6aeb3a03" y="259.247581"/>
      </g>
     </g>
     <g id="text_21">
      <!-- 0.61 -->
      <g transform="translate(407.90125 263.0468)scale(0.1 -0.1)">
       <use xlink:href="#DejaVuSans-48"/>
       <use x="63.623047" xlink:href="#DejaVuSans-46"/>
       <use x="95.410156" xlink:href="#DejaVuSans-54"/>
       <use x="159.033203" xlink:href="#DejaVuSans-49"/>
      </g>
     </g>
    </g>
    <g id="ytick_8">
     <g id="line2d_27">
      <g>
       <use style="stroke:#000000;stroke-width:0.8;" x="400.90125" xlink:href="#m5e6aeb3a03" y="225.519854"/>
      </g>
     </g>
     <g id="text_22">
      <!-- 0.62 -->
      <g transform="translate(407.90125 229.319073)scale(0.1 -0.1)">
       <use xlink:href="#DejaVuSans-48"/>
       <use x="63.623047" xlink:href="#DejaVuSans-46"/>
       <use x="95.410156" xlink:href="#DejaVuSans-54"/>
       <use x="159.033203" xlink:href="#DejaVuSans-50"/>
      </g>
     </g>
    </g>
    <g id="ytick_9">
     <g id="line2d_28">
      <g>
       <use style="stroke:#000000;stroke-width:0.8;" x="400.90125" xlink:href="#m5e6aeb3a03" y="191.792127"/>
      </g>
     </g>
     <g id="text_23">
      <!-- 0.63 -->
      <defs>
       <path d="M 40.578125 39.3125 
Q 47.65625 37.796875 51.625 33 
Q 55.609375 28.21875 55.609375 21.1875 
Q 55.609375 10.40625 48.1875 4.484375 
Q 40.765625 -1.421875 27.09375 -1.421875 
Q 22.515625 -1.421875 17.65625 -0.515625 
Q 12.796875 0.390625 7.625 2.203125 
L 7.625 11.71875 
Q 11.71875 9.328125 16.59375 8.109375 
Q 21.484375 6.890625 26.8125 6.890625 
Q 36.078125 6.890625 40.9375 10.546875 
Q 45.796875 14.203125 45.796875 21.1875 
Q 45.796875 27.640625 41.28125 31.265625 
Q 36.765625 34.90625 28.71875 34.90625 
L 20.21875 34.90625 
L 20.21875 43.015625 
L 29.109375 43.015625 
Q 36.375 43.015625 40.234375 45.921875 
Q 44.09375 48.828125 44.09375 54.296875 
Q 44.09375 59.90625 40.109375 62.90625 
Q 36.140625 65.921875 28.71875 65.921875 
Q 24.65625 65.921875 20.015625 65.03125 
Q 15.375 64.15625 9.8125 62.3125 
L 9.8125 71.09375 
Q 15.4375 72.65625 20.34375 73.4375 
Q 25.25 74.21875 29.59375 74.21875 
Q 40.828125 74.21875 47.359375 69.109375 
Q 53.90625 64.015625 53.90625 55.328125 
Q 53.90625 49.265625 50.4375 45.09375 
Q 46.96875 40.921875 40.578125 39.3125 
z
" id="DejaVuSans-51"/>
      </defs>
      <g transform="translate(407.90125 195.591346)scale(0.1 -0.1)">
       <use xlink:href="#DejaVuSans-48"/>
       <use x="63.623047" xlink:href="#DejaVuSans-46"/>
       <use x="95.410156" xlink:href="#DejaVuSans-54"/>
       <use x="159.033203" xlink:href="#DejaVuSans-51"/>
      </g>
     </g>
    </g>
    <g id="ytick_10">
     <g id="line2d_29">
      <g>
       <use style="stroke:#000000;stroke-width:0.8;" x="400.90125" xlink:href="#m5e6aeb3a03" y="158.0644"/>
      </g>
     </g>
     <g id="text_24">
      <!-- 0.64 -->
      <g transform="translate(407.90125 161.863619)scale(0.1 -0.1)">
       <use xlink:href="#DejaVuSans-48"/>
       <use x="63.623047" xlink:href="#DejaVuSans-46"/>
       <use x="95.410156" xlink:href="#DejaVuSans-54"/>
       <use x="159.033203" xlink:href="#DejaVuSans-52"/>
      </g>
     </g>
    </g>
    <g id="ytick_11">
     <g id="line2d_30">
      <g>
       <use style="stroke:#000000;stroke-width:0.8;" x="400.90125" xlink:href="#m5e6aeb3a03" y="124.336673"/>
      </g>
     </g>
     <g id="text_25">
      <!-- 0.65 -->
      <g transform="translate(407.90125 128.135891)scale(0.1 -0.1)">
       <use xlink:href="#DejaVuSans-48"/>
       <use x="63.623047" xlink:href="#DejaVuSans-46"/>
       <use x="95.410156" xlink:href="#DejaVuSans-54"/>
       <use x="159.033203" xlink:href="#DejaVuSans-53"/>
      </g>
     </g>
    </g>
    <g id="ytick_12">
     <g id="line2d_31">
      <g>
       <use style="stroke:#000000;stroke-width:0.8;" x="400.90125" xlink:href="#m5e6aeb3a03" y="90.608945"/>
      </g>
     </g>
     <g id="text_26">
      <!-- 0.66 -->
      <g transform="translate(407.90125 94.408164)scale(0.1 -0.1)">
       <use xlink:href="#DejaVuSans-48"/>
       <use x="63.623047" xlink:href="#DejaVuSans-46"/>
       <use x="95.410156" xlink:href="#DejaVuSans-54"/>
       <use x="159.033203" xlink:href="#DejaVuSans-54"/>
      </g>
     </g>
    </g>
    <g id="ytick_13">
     <g id="line2d_32">
      <g>
       <use style="stroke:#000000;stroke-width:0.8;" x="400.90125" xlink:href="#m5e6aeb3a03" y="56.881218"/>
      </g>
     </g>
     <g id="text_27">
      <!-- 0.67 -->
      <g transform="translate(407.90125 60.680437)scale(0.1 -0.1)">
       <use xlink:href="#DejaVuSans-48"/>
       <use x="63.623047" xlink:href="#DejaVuSans-46"/>
       <use x="95.410156" xlink:href="#DejaVuSans-54"/>
       <use x="159.033203" xlink:href="#DejaVuSans-55"/>
      </g>
     </g>
    </g>
    <g id="ytick_14">
     <g id="line2d_33">
      <g>
       <use style="stroke:#000000;stroke-width:0.8;" x="400.90125" xlink:href="#m5e6aeb3a03" y="23.153491"/>
      </g>
     </g>
     <g id="text_28">
      <!-- 0.68 -->
      <g transform="translate(407.90125 26.95271)scale(0.1 -0.1)">
       <use xlink:href="#DejaVuSans-48"/>
       <use x="63.623047" xlink:href="#DejaVuSans-46"/>
       <use x="95.410156" xlink:href="#DejaVuSans-54"/>
       <use x="159.033203" xlink:href="#DejaVuSans-56"/>
      </g>
     </g>
    </g>
    <g id="text_29">
     <!-- Entropy -->
     <g transform="translate(441.765312 174.909281)rotate(-90)scale(0.1 -0.1)">
      <use xlink:href="#DejaVuSans-69"/>
      <use x="63.183594" xlink:href="#DejaVuSans-110"/>
      <use x="126.5625" xlink:href="#DejaVuSans-116"/>
      <use x="165.771484" xlink:href="#DejaVuSans-114"/>
      <use x="206.853516" xlink:href="#DejaVuSans-111"/>
      <use x="268.035156" xlink:href="#DejaVuSans-112"/>
      <use x="331.511719" xlink:href="#DejaVuSans-121"/>
     </g>
    </g>
   </g>
   <g id="line2d_34">
    <path clip-path="url(#p833fc99c7f)" d="M 60.013977 45.867976 
L 61.93501 49.120487 
L 63.856043 51.307524 
L 65.777076 53.098728 
L 67.698109 52.886035 
L 69.619141 51.582537 
L 71.540174 53.866874 
L 73.461207 52.885231 
L 75.38224 55.407792 
L 77.303273 52.694249 
L 79.224305 37.208483 
L 81.145338 65.145826 
L 83.066371 65.637955 
L 84.987404 55.564597 
L 86.908437 62.181596 
L 88.829469 53.498381 
L 90.750502 69.844971 
L 92.671535 34.414125 
L 94.592568 57.609102 
L 96.513601 55.430508 
L 98.434634 60.504579 
L 100.355666 75.642559 
L 102.276699 60.959115 
L 104.197732 60.081003 
L 106.118765 58.974719 
L 108.039798 62.227834 
L 109.96083 65.071645 
L 111.881863 58.098014 
L 113.802896 75.109018 
L 115.723929 71.282557 
L 117.644962 66.822441 
L 119.565994 85.756123 
L 121.487027 111.884774 
L 123.40806 110.132571 
L 125.329093 106.866791 
L 127.250126 112.683478 
L 129.171159 114.65742 
L 131.092191 116.362179 
L 133.013224 115.032346 
L 134.934257 117.723976 
L 136.85529 136.851052 
L 138.776323 151.115142 
L 140.697355 147.767341 
L 142.618388 146.868925 
L 144.539421 143.725574 
L 146.460454 144.999721 
L 148.381487 140.88317 
L 150.302519 141.480438 
L 152.223552 140.213127 
L 154.144585 141.990459 
L 156.065618 76.734972 
L 157.986651 84.984961 
L 159.907684 97.118906 
L 161.828716 99.492703 
L 163.749749 98.21936 
L 165.670782 96.456905 
L 167.591815 95.305589 
L 169.512848 98.939862 
L 171.43388 98.827686 
L 173.354913 96.516611 
L 175.275946 138.885103 
L 177.196979 152.218411 
L 179.118012 169.499804 
L 181.039045 171.199537 
L 182.960077 167.931948 
L 184.88111 168.95219 
L 186.802143 169.409942 
L 188.723176 169.408334 
L 190.644209 170.343137 
L 192.565241 170.020278 
L 194.486274 149.329367 
L 196.407307 173.483472 
L 198.32834 165.294396 
L 200.249373 169.629872 
L 202.170405 151.605461 
L 204.091438 161.827181 
L 206.012471 140.715106 
L 207.933504 151.301098 
L 209.854537 139.794978 
L 211.77557 150.041626 
L 213.696602 150.941048 
L 215.617635 186.829444 
L 217.538668 180.793431 
L 219.459701 176.346784 
L 221.380734 182.980066 
L 223.301766 178.446774 
L 225.222799 181.465082 
L 227.143832 180.531686 
L 230.985898 182.689775 
L 232.90693 161.208201 
L 234.827963 192.057909 
L 236.748996 188.617431 
L 238.670029 186.630824 
L 240.591062 185.045679 
L 242.512095 184.31412 
L 244.433127 184.580087 
L 246.35416 187.114509 
L 248.275193 188.296985 
L 250.196226 188.146411 
L 252.117259 202.27802 
L 254.038291 230.15807 
L 257.880357 221.197228 
L 259.80139 220.110243 
L 261.722423 217.512094 
L 263.643455 214.092725 
L 265.564488 212.373893 
L 269.406554 213.935919 
L 271.327587 194.75175 
L 273.24862 230.49299 
L 275.169652 250.38178 
L 277.090685 259.919385 
L 279.011718 264.738546 
L 280.932751 265.343454 
L 282.853784 263.11219 
L 286.695849 255.919634 
L 288.616882 250.851393 
L 290.537915 214.83534 
L 292.458948 234.84475 
L 294.379981 252.77166 
L 296.301013 257.499753 
L 298.222046 250.600303 
L 300.143079 251.58255 
L 302.064112 254.202009 
L 303.985145 251.100875 
L 305.906177 249.762398 
L 307.82721 248.980983 
L 309.748243 248.837445 
L 313.590309 274.955441 
L 315.511341 276.334125 
L 317.432374 272.19546 
L 319.353407 273.409096 
L 321.27444 268.719802 
L 323.195473 268.036089 
L 325.116506 266.741638 
L 327.037538 267.878077 
L 328.958571 219.28822 
L 330.879604 207.83256 
L 332.800637 202.093673 
L 334.72167 203.518393 
L 336.642702 209.386745 
L 338.563735 210.706124 
L 340.484768 215.15056 
L 342.405801 218.093682 
L 344.326834 212.817573 
L 346.247866 169.810399 
L 348.168899 177.187302 
L 350.089932 183.735749 
L 352.010965 188.185009 
L 353.931998 191.337005 
L 355.853031 196.742378 
L 357.774063 203.550559 
L 359.695096 210.955807 
L 361.616129 208.772188 
L 363.537162 207.904328 
L 365.458195 213.192097 
L 367.379227 167.817761 
L 371.221293 186.334903 
L 373.142326 190.5771 
L 376.984391 195.152609 
L 378.905424 196.595021 
L 382.74749 198.180567 
L 384.668523 197.111072 
L 384.668523 197.111072 
" style="fill:none;stroke:#008000;stroke-linecap:square;stroke-opacity:0.3;stroke-width:1.5;"/>
   </g>
   <g id="patch_9">
    <path d="M 43.78125 288.430125 
L 43.78125 22.318125 
" style="fill:none;stroke:#000000;stroke-linecap:square;stroke-linejoin:miter;stroke-width:0.8;"/>
   </g>
   <g id="patch_10">
    <path d="M 400.90125 288.430125 
L 400.90125 22.318125 
" style="fill:none;stroke:#000000;stroke-linecap:square;stroke-linejoin:miter;stroke-width:0.8;"/>
   </g>
   <g id="patch_11">
    <path d="M 43.78125 288.430125 
L 400.90125 288.430125 
" style="fill:none;stroke:#000000;stroke-linecap:square;stroke-linejoin:miter;stroke-width:0.8;"/>
   </g>
   <g id="patch_12">
    <path d="M 43.78125 22.318125 
L 400.90125 22.318125 
" style="fill:none;stroke:#000000;stroke-linecap:square;stroke-linejoin:miter;stroke-width:0.8;"/>
   </g>
  </g>
 </g>
 <defs>
  <clipPath id="p833fc99c7f">
   <rect height="266.112" width="357.12" x="43.78125" y="22.318125"/>
  </clipPath>
 </defs>
</svg>
