<?xml version="1.0" encoding="utf-8" standalone="no"?>
<!DOCTYPE svg PUBLIC "-//W3C//DTD SVG 1.1//EN"
  "http://www.w3.org/Graphics/SVG/1.1/DTD/svg11.dtd">
<!-- Created with matplotlib (https://matplotlib.org/) -->
<svg height="358.22505pt" version="1.1" viewBox="0 0 451.045 358.22505" width="451.045pt" xmlns="http://www.w3.org/2000/svg" xmlns:xlink="http://www.w3.org/1999/xlink">
 <defs>
  <style type="text/css">
*{stroke-linecap:butt;stroke-linejoin:round;}
  </style>
 </defs>
 <g id="figure_1">
  <g id="patch_1">
   <path d="M 0 358.22505 
L 451.045 358.22505 
L 451.045 0 
L 0 0 
z
" style="fill:#ffffff;"/>
  </g>
  <g id="axes_1">
   <g id="patch_2">
    <path d="M 43.78125 288.430125 
L 400.90125 288.430125 
L 400.90125 22.318125 
L 43.78125 22.318125 
z
" style="fill:#ffffff;"/>
   </g>
   <g id="matplotlib.axis_1">
    <g id="xtick_1">
     <g id="line2d_1">
      <defs>
       <path d="M 0 0 
L 0 3.5 
" id="md1304f636e" style="stroke:#000000;stroke-width:0.8;"/>
      </defs>
      <g>
       <use style="stroke:#000000;stroke-width:0.8;" x="60.013977" xlink:href="#md1304f636e" y="288.430125"/>
      </g>
     </g>
     <g id="text_1">
      <!-- 0 -->
      <defs>
       <path d="M 31.78125 66.40625 
Q 24.171875 66.40625 20.328125 58.90625 
Q 16.5 51.421875 16.5 36.375 
Q 16.5 21.390625 20.328125 13.890625 
Q 24.171875 6.390625 31.78125 6.390625 
Q 39.453125 6.390625 43.28125 13.890625 
Q 47.125 21.390625 47.125 36.375 
Q 47.125 51.421875 43.28125 58.90625 
Q 39.453125 66.40625 31.78125 66.40625 
z
M 31.78125 74.21875 
Q 44.046875 74.21875 50.515625 64.515625 
Q 56.984375 54.828125 56.984375 36.375 
Q 56.984375 17.96875 50.515625 8.265625 
Q 44.046875 -1.421875 31.78125 -1.421875 
Q 19.53125 -1.421875 13.0625 8.265625 
Q 6.59375 17.96875 6.59375 36.375 
Q 6.59375 54.828125 13.0625 64.515625 
Q 19.53125 74.21875 31.78125 74.21875 
z
" id="DejaVuSans-48"/>
      </defs>
      <g transform="translate(56.832727 303.028562)scale(0.1 -0.1)">
       <use xlink:href="#DejaVuSans-48"/>
      </g>
     </g>
    </g>
    <g id="xtick_2">
     <g id="line2d_2">
      <g>
       <use style="stroke:#000000;stroke-width:0.8;" x="100.193995" xlink:href="#md1304f636e" y="288.430125"/>
      </g>
     </g>
     <g id="text_2">
      <!-- 50 -->
      <defs>
       <path d="M 10.796875 72.90625 
L 49.515625 72.90625 
L 49.515625 64.59375 
L 19.828125 64.59375 
L 19.828125 46.734375 
Q 21.96875 47.46875 24.109375 47.828125 
Q 26.265625 48.1875 28.421875 48.1875 
Q 40.625 48.1875 47.75 41.5 
Q 54.890625 34.8125 54.890625 23.390625 
Q 54.890625 11.625 47.5625 5.09375 
Q 40.234375 -1.421875 26.90625 -1.421875 
Q 22.3125 -1.421875 17.546875 -0.640625 
Q 12.796875 0.140625 7.71875 1.703125 
L 7.71875 11.625 
Q 12.109375 9.234375 16.796875 8.0625 
Q 21.484375 6.890625 26.703125 6.890625 
Q 35.15625 6.890625 40.078125 11.328125 
Q 45.015625 15.765625 45.015625 23.390625 
Q 45.015625 31 40.078125 35.4375 
Q 35.15625 39.890625 26.703125 39.890625 
Q 22.75 39.890625 18.8125 39.015625 
Q 14.890625 38.140625 10.796875 36.28125 
z
" id="DejaVuSans-53"/>
      </defs>
      <g transform="translate(93.831495 303.028562)scale(0.1 -0.1)">
       <use xlink:href="#DejaVuSans-53"/>
       <use x="63.623047" xlink:href="#DejaVuSans-48"/>
      </g>
     </g>
    </g>
    <g id="xtick_3">
     <g id="line2d_3">
      <g>
       <use style="stroke:#000000;stroke-width:0.8;" x="140.374013" xlink:href="#md1304f636e" y="288.430125"/>
      </g>
     </g>
     <g id="text_3">
      <!-- 100 -->
      <defs>
       <path d="M 12.40625 8.296875 
L 28.515625 8.296875 
L 28.515625 63.921875 
L 10.984375 60.40625 
L 10.984375 69.390625 
L 28.421875 72.90625 
L 38.28125 72.90625 
L 38.28125 8.296875 
L 54.390625 8.296875 
L 54.390625 0 
L 12.40625 0 
z
" id="DejaVuSans-49"/>
      </defs>
      <g transform="translate(130.830263 303.028562)scale(0.1 -0.1)">
       <use xlink:href="#DejaVuSans-49"/>
       <use x="63.623047" xlink:href="#DejaVuSans-48"/>
       <use x="127.246094" xlink:href="#DejaVuSans-48"/>
      </g>
     </g>
    </g>
    <g id="xtick_4">
     <g id="line2d_4">
      <g>
       <use style="stroke:#000000;stroke-width:0.8;" x="180.554031" xlink:href="#md1304f636e" y="288.430125"/>
      </g>
     </g>
     <g id="text_4">
      <!-- 150 -->
      <g transform="translate(171.010281 303.028562)scale(0.1 -0.1)">
       <use xlink:href="#DejaVuSans-49"/>
       <use x="63.623047" xlink:href="#DejaVuSans-53"/>
       <use x="127.246094" xlink:href="#DejaVuSans-48"/>
      </g>
     </g>
    </g>
    <g id="xtick_5">
     <g id="line2d_5">
      <g>
       <use style="stroke:#000000;stroke-width:0.8;" x="220.734049" xlink:href="#md1304f636e" y="288.430125"/>
      </g>
     </g>
     <g id="text_5">
      <!-- 200 -->
      <defs>
       <path d="M 19.1875 8.296875 
L 53.609375 8.296875 
L 53.609375 0 
L 7.328125 0 
L 7.328125 8.296875 
Q 12.9375 14.109375 22.625 23.890625 
Q 32.328125 33.6875 34.8125 36.53125 
Q 39.546875 41.84375 41.421875 45.53125 
Q 43.3125 49.21875 43.3125 52.78125 
Q 43.3125 58.59375 39.234375 62.25 
Q 35.15625 65.921875 28.609375 65.921875 
Q 23.96875 65.921875 18.8125 64.3125 
Q 13.671875 62.703125 7.8125 59.421875 
L 7.8125 69.390625 
Q 13.765625 71.78125 18.9375 73 
Q 24.125 74.21875 28.421875 74.21875 
Q 39.75 74.21875 46.484375 68.546875 
Q 53.21875 62.890625 53.21875 53.421875 
Q 53.21875 48.921875 51.53125 44.890625 
Q 49.859375 40.875 45.40625 35.40625 
Q 44.1875 33.984375 37.640625 27.21875 
Q 31.109375 20.453125 19.1875 8.296875 
z
" id="DejaVuSans-50"/>
      </defs>
      <g transform="translate(211.190299 303.028562)scale(0.1 -0.1)">
       <use xlink:href="#DejaVuSans-50"/>
       <use x="63.623047" xlink:href="#DejaVuSans-48"/>
       <use x="127.246094" xlink:href="#DejaVuSans-48"/>
      </g>
     </g>
    </g>
    <g id="xtick_6">
     <g id="line2d_6">
      <g>
       <use style="stroke:#000000;stroke-width:0.8;" x="260.914067" xlink:href="#md1304f636e" y="288.430125"/>
      </g>
     </g>
     <g id="text_6">
      <!-- 250 -->
      <g transform="translate(251.370317 303.028562)scale(0.1 -0.1)">
       <use xlink:href="#DejaVuSans-50"/>
       <use x="63.623047" xlink:href="#DejaVuSans-53"/>
       <use x="127.246094" xlink:href="#DejaVuSans-48"/>
      </g>
     </g>
    </g>
    <g id="xtick_7">
     <g id="line2d_7">
      <g>
       <use style="stroke:#000000;stroke-width:0.8;" x="301.094085" xlink:href="#md1304f636e" y="288.430125"/>
      </g>
     </g>
     <g id="text_7">
      <!-- 300 -->
      <defs>
       <path d="M 40.578125 39.3125 
Q 47.65625 37.796875 51.625 33 
Q 55.609375 28.21875 55.609375 21.1875 
Q 55.609375 10.40625 48.1875 4.484375 
Q 40.765625 -1.421875 27.09375 -1.421875 
Q 22.515625 -1.421875 17.65625 -0.515625 
Q 12.796875 0.390625 7.625 2.203125 
L 7.625 11.71875 
Q 11.71875 9.328125 16.59375 8.109375 
Q 21.484375 6.890625 26.8125 6.890625 
Q 36.078125 6.890625 40.9375 10.546875 
Q 45.796875 14.203125 45.796875 21.1875 
Q 45.796875 27.640625 41.28125 31.265625 
Q 36.765625 34.90625 28.71875 34.90625 
L 20.21875 34.90625 
L 20.21875 43.015625 
L 29.109375 43.015625 
Q 36.375 43.015625 40.234375 45.921875 
Q 44.09375 48.828125 44.09375 54.296875 
Q 44.09375 59.90625 40.109375 62.90625 
Q 36.140625 65.921875 28.71875 65.921875 
Q 24.65625 65.921875 20.015625 65.03125 
Q 15.375 64.15625 9.8125 62.3125 
L 9.8125 71.09375 
Q 15.4375 72.65625 20.34375 73.4375 
Q 25.25 74.21875 29.59375 74.21875 
Q 40.828125 74.21875 47.359375 69.109375 
Q 53.90625 64.015625 53.90625 55.328125 
Q 53.90625 49.265625 50.4375 45.09375 
Q 46.96875 40.921875 40.578125 39.3125 
z
" id="DejaVuSans-51"/>
      </defs>
      <g transform="translate(291.550335 303.028562)scale(0.1 -0.1)">
       <use xlink:href="#DejaVuSans-51"/>
       <use x="63.623047" xlink:href="#DejaVuSans-48"/>
       <use x="127.246094" xlink:href="#DejaVuSans-48"/>
      </g>
     </g>
    </g>
    <g id="xtick_8">
     <g id="line2d_8">
      <g>
       <use style="stroke:#000000;stroke-width:0.8;" x="341.274103" xlink:href="#md1304f636e" y="288.430125"/>
      </g>
     </g>
     <g id="text_8">
      <!-- 350 -->
      <g transform="translate(331.730353 303.028562)scale(0.1 -0.1)">
       <use xlink:href="#DejaVuSans-51"/>
       <use x="63.623047" xlink:href="#DejaVuSans-53"/>
       <use x="127.246094" xlink:href="#DejaVuSans-48"/>
      </g>
     </g>
    </g>
    <g id="xtick_9">
     <g id="line2d_9">
      <g>
       <use style="stroke:#000000;stroke-width:0.8;" x="381.454121" xlink:href="#md1304f636e" y="288.430125"/>
      </g>
     </g>
     <g id="text_9">
      <!-- 400 -->
      <defs>
       <path d="M 37.796875 64.3125 
L 12.890625 25.390625 
L 37.796875 25.390625 
z
M 35.203125 72.90625 
L 47.609375 72.90625 
L 47.609375 25.390625 
L 58.015625 25.390625 
L 58.015625 17.1875 
L 47.609375 17.1875 
L 47.609375 0 
L 37.796875 0 
L 37.796875 17.1875 
L 4.890625 17.1875 
L 4.890625 26.703125 
z
" id="DejaVuSans-52"/>
      </defs>
      <g transform="translate(371.910371 303.028562)scale(0.1 -0.1)">
       <use xlink:href="#DejaVuSans-52"/>
       <use x="63.623047" xlink:href="#DejaVuSans-48"/>
       <use x="127.246094" xlink:href="#DejaVuSans-48"/>
      </g>
     </g>
    </g>
    <g id="text_10">
     <!-- Epoch -->
     <defs>
      <path d="M 9.8125 72.90625 
L 55.90625 72.90625 
L 55.90625 64.59375 
L 19.671875 64.59375 
L 19.671875 43.015625 
L 54.390625 43.015625 
L 54.390625 34.71875 
L 19.671875 34.71875 
L 19.671875 8.296875 
L 56.78125 8.296875 
L 56.78125 0 
L 9.8125 0 
z
" id="DejaVuSans-69"/>
      <path d="M 18.109375 8.203125 
L 18.109375 -20.796875 
L 9.078125 -20.796875 
L 9.078125 54.6875 
L 18.109375 54.6875 
L 18.109375 46.390625 
Q 20.953125 51.265625 25.265625 53.625 
Q 29.59375 56 35.59375 56 
Q 45.5625 56 51.78125 48.09375 
Q 58.015625 40.1875 58.015625 27.296875 
Q 58.015625 14.40625 51.78125 6.484375 
Q 45.5625 -1.421875 35.59375 -1.421875 
Q 29.59375 -1.421875 25.265625 0.953125 
Q 20.953125 3.328125 18.109375 8.203125 
z
M 48.6875 27.296875 
Q 48.6875 37.203125 44.609375 42.84375 
Q 40.53125 48.484375 33.40625 48.484375 
Q 26.265625 48.484375 22.1875 42.84375 
Q 18.109375 37.203125 18.109375 27.296875 
Q 18.109375 17.390625 22.1875 11.75 
Q 26.265625 6.109375 33.40625 6.109375 
Q 40.53125 6.109375 44.609375 11.75 
Q 48.6875 17.390625 48.6875 27.296875 
z
" id="DejaVuSans-112"/>
      <path d="M 30.609375 48.390625 
Q 23.390625 48.390625 19.1875 42.75 
Q 14.984375 37.109375 14.984375 27.296875 
Q 14.984375 17.484375 19.15625 11.84375 
Q 23.34375 6.203125 30.609375 6.203125 
Q 37.796875 6.203125 41.984375 11.859375 
Q 46.1875 17.53125 46.1875 27.296875 
Q 46.1875 37.015625 41.984375 42.703125 
Q 37.796875 48.390625 30.609375 48.390625 
z
M 30.609375 56 
Q 42.328125 56 49.015625 48.375 
Q 55.71875 40.765625 55.71875 27.296875 
Q 55.71875 13.875 49.015625 6.21875 
Q 42.328125 -1.421875 30.609375 -1.421875 
Q 18.84375 -1.421875 12.171875 6.21875 
Q 5.515625 13.875 5.515625 27.296875 
Q 5.515625 40.765625 12.171875 48.375 
Q 18.84375 56 30.609375 56 
z
" id="DejaVuSans-111"/>
      <path d="M 48.78125 52.59375 
L 48.78125 44.1875 
Q 44.96875 46.296875 41.140625 47.34375 
Q 37.3125 48.390625 33.40625 48.390625 
Q 24.65625 48.390625 19.8125 42.84375 
Q 14.984375 37.3125 14.984375 27.296875 
Q 14.984375 17.28125 19.8125 11.734375 
Q 24.65625 6.203125 33.40625 6.203125 
Q 37.3125 6.203125 41.140625 7.25 
Q 44.96875 8.296875 48.78125 10.40625 
L 48.78125 2.09375 
Q 45.015625 0.34375 40.984375 -0.53125 
Q 36.96875 -1.421875 32.421875 -1.421875 
Q 20.0625 -1.421875 12.78125 6.34375 
Q 5.515625 14.109375 5.515625 27.296875 
Q 5.515625 40.671875 12.859375 48.328125 
Q 20.21875 56 33.015625 56 
Q 37.15625 56 41.109375 55.140625 
Q 45.0625 54.296875 48.78125 52.59375 
z
" id="DejaVuSans-99"/>
      <path d="M 54.890625 33.015625 
L 54.890625 0 
L 45.90625 0 
L 45.90625 32.71875 
Q 45.90625 40.484375 42.875 44.328125 
Q 39.84375 48.1875 33.796875 48.1875 
Q 26.515625 48.1875 22.3125 43.546875 
Q 18.109375 38.921875 18.109375 30.90625 
L 18.109375 0 
L 9.078125 0 
L 9.078125 75.984375 
L 18.109375 75.984375 
L 18.109375 46.1875 
Q 21.34375 51.125 25.703125 53.5625 
Q 30.078125 56 35.796875 56 
Q 45.21875 56 50.046875 50.171875 
Q 54.890625 44.34375 54.890625 33.015625 
z
" id="DejaVuSans-104"/>
     </defs>
     <g transform="translate(207.030313 316.706687)scale(0.1 -0.1)">
      <use xlink:href="#DejaVuSans-69"/>
      <use x="63.183594" xlink:href="#DejaVuSans-112"/>
      <use x="126.660156" xlink:href="#DejaVuSans-111"/>
      <use x="187.841797" xlink:href="#DejaVuSans-99"/>
      <use x="242.822266" xlink:href="#DejaVuSans-104"/>
     </g>
    </g>
   </g>
   <g id="matplotlib.axis_2">
    <g id="ytick_1">
     <g id="line2d_10">
      <defs>
       <path d="M 0 0 
L -3.5 0 
" id="me3d8eccce1" style="stroke:#000000;stroke-width:0.8;"/>
      </defs>
      <g>
       <use style="stroke:#000000;stroke-width:0.8;" x="43.78125" xlink:href="#me3d8eccce1" y="261.267788"/>
      </g>
     </g>
     <g id="text_11">
      <!-- 0.0 -->
      <defs>
       <path d="M 10.6875 12.40625 
L 21 12.40625 
L 21 0 
L 10.6875 0 
z
" id="DejaVuSans-46"/>
      </defs>
      <g transform="translate(20.878125 265.067006)scale(0.1 -0.1)">
       <use xlink:href="#DejaVuSans-48"/>
       <use x="63.623047" xlink:href="#DejaVuSans-46"/>
       <use x="95.410156" xlink:href="#DejaVuSans-48"/>
      </g>
     </g>
    </g>
    <g id="ytick_2">
     <g id="line2d_11">
      <g>
       <use style="stroke:#000000;stroke-width:0.8;" x="43.78125" xlink:href="#me3d8eccce1" y="223.629696"/>
      </g>
     </g>
     <g id="text_12">
      <!-- 0.2 -->
      <g transform="translate(20.878125 227.428914)scale(0.1 -0.1)">
       <use xlink:href="#DejaVuSans-48"/>
       <use x="63.623047" xlink:href="#DejaVuSans-46"/>
       <use x="95.410156" xlink:href="#DejaVuSans-50"/>
      </g>
     </g>
    </g>
    <g id="ytick_3">
     <g id="line2d_12">
      <g>
       <use style="stroke:#000000;stroke-width:0.8;" x="43.78125" xlink:href="#me3d8eccce1" y="185.991604"/>
      </g>
     </g>
     <g id="text_13">
      <!-- 0.4 -->
      <g transform="translate(20.878125 189.790823)scale(0.1 -0.1)">
       <use xlink:href="#DejaVuSans-48"/>
       <use x="63.623047" xlink:href="#DejaVuSans-46"/>
       <use x="95.410156" xlink:href="#DejaVuSans-52"/>
      </g>
     </g>
    </g>
    <g id="ytick_4">
     <g id="line2d_13">
      <g>
       <use style="stroke:#000000;stroke-width:0.8;" x="43.78125" xlink:href="#me3d8eccce1" y="148.353512"/>
      </g>
     </g>
     <g id="text_14">
      <!-- 0.6 -->
      <defs>
       <path d="M 33.015625 40.375 
Q 26.375 40.375 22.484375 35.828125 
Q 18.609375 31.296875 18.609375 23.390625 
Q 18.609375 15.53125 22.484375 10.953125 
Q 26.375 6.390625 33.015625 6.390625 
Q 39.65625 6.390625 43.53125 10.953125 
Q 47.40625 15.53125 47.40625 23.390625 
Q 47.40625 31.296875 43.53125 35.828125 
Q 39.65625 40.375 33.015625 40.375 
z
M 52.59375 71.296875 
L 52.59375 62.3125 
Q 48.875 64.0625 45.09375 64.984375 
Q 41.3125 65.921875 37.59375 65.921875 
Q 27.828125 65.921875 22.671875 59.328125 
Q 17.53125 52.734375 16.796875 39.40625 
Q 19.671875 43.65625 24.015625 45.921875 
Q 28.375 48.1875 33.59375 48.1875 
Q 44.578125 48.1875 50.953125 41.515625 
Q 57.328125 34.859375 57.328125 23.390625 
Q 57.328125 12.15625 50.6875 5.359375 
Q 44.046875 -1.421875 33.015625 -1.421875 
Q 20.359375 -1.421875 13.671875 8.265625 
Q 6.984375 17.96875 6.984375 36.375 
Q 6.984375 53.65625 15.1875 63.9375 
Q 23.390625 74.21875 37.203125 74.21875 
Q 40.921875 74.21875 44.703125 73.484375 
Q 48.484375 72.75 52.59375 71.296875 
z
" id="DejaVuSans-54"/>
      </defs>
      <g transform="translate(20.878125 152.152731)scale(0.1 -0.1)">
       <use xlink:href="#DejaVuSans-48"/>
       <use x="63.623047" xlink:href="#DejaVuSans-46"/>
       <use x="95.410156" xlink:href="#DejaVuSans-54"/>
      </g>
     </g>
    </g>
    <g id="ytick_5">
     <g id="line2d_14">
      <g>
       <use style="stroke:#000000;stroke-width:0.8;" x="43.78125" xlink:href="#me3d8eccce1" y="110.71542"/>
      </g>
     </g>
     <g id="text_15">
      <!-- 0.8 -->
      <defs>
       <path d="M 31.78125 34.625 
Q 24.75 34.625 20.71875 30.859375 
Q 16.703125 27.09375 16.703125 20.515625 
Q 16.703125 13.921875 20.71875 10.15625 
Q 24.75 6.390625 31.78125 6.390625 
Q 38.8125 6.390625 42.859375 10.171875 
Q 46.921875 13.96875 46.921875 20.515625 
Q 46.921875 27.09375 42.890625 30.859375 
Q 38.875 34.625 31.78125 34.625 
z
M 21.921875 38.8125 
Q 15.578125 40.375 12.03125 44.71875 
Q 8.5 49.078125 8.5 55.328125 
Q 8.5 64.0625 14.71875 69.140625 
Q 20.953125 74.21875 31.78125 74.21875 
Q 42.671875 74.21875 48.875 69.140625 
Q 55.078125 64.0625 55.078125 55.328125 
Q 55.078125 49.078125 51.53125 44.71875 
Q 48 40.375 41.703125 38.8125 
Q 48.828125 37.15625 52.796875 32.3125 
Q 56.78125 27.484375 56.78125 20.515625 
Q 56.78125 9.90625 50.3125 4.234375 
Q 43.84375 -1.421875 31.78125 -1.421875 
Q 19.734375 -1.421875 13.25 4.234375 
Q 6.78125 9.90625 6.78125 20.515625 
Q 6.78125 27.484375 10.78125 32.3125 
Q 14.796875 37.15625 21.921875 38.8125 
z
M 18.3125 54.390625 
Q 18.3125 48.734375 21.84375 45.5625 
Q 25.390625 42.390625 31.78125 42.390625 
Q 38.140625 42.390625 41.71875 45.5625 
Q 45.3125 48.734375 45.3125 54.390625 
Q 45.3125 60.0625 41.71875 63.234375 
Q 38.140625 66.40625 31.78125 66.40625 
Q 25.390625 66.40625 21.84375 63.234375 
Q 18.3125 60.0625 18.3125 54.390625 
z
" id="DejaVuSans-56"/>
      </defs>
      <g transform="translate(20.878125 114.514639)scale(0.1 -0.1)">
       <use xlink:href="#DejaVuSans-48"/>
       <use x="63.623047" xlink:href="#DejaVuSans-46"/>
       <use x="95.410156" xlink:href="#DejaVuSans-56"/>
      </g>
     </g>
    </g>
    <g id="ytick_6">
     <g id="line2d_15">
      <g>
       <use style="stroke:#000000;stroke-width:0.8;" x="43.78125" xlink:href="#me3d8eccce1" y="73.077328"/>
      </g>
     </g>
     <g id="text_16">
      <!-- 1.0 -->
      <g transform="translate(20.878125 76.876547)scale(0.1 -0.1)">
       <use xlink:href="#DejaVuSans-49"/>
       <use x="63.623047" xlink:href="#DejaVuSans-46"/>
       <use x="95.410156" xlink:href="#DejaVuSans-48"/>
      </g>
     </g>
    </g>
    <g id="ytick_7">
     <g id="line2d_16">
      <g>
       <use style="stroke:#000000;stroke-width:0.8;" x="43.78125" xlink:href="#me3d8eccce1" y="35.439236"/>
      </g>
     </g>
     <g id="text_17">
      <!-- 1.2 -->
      <g transform="translate(20.878125 39.238455)scale(0.1 -0.1)">
       <use xlink:href="#DejaVuSans-49"/>
       <use x="63.623047" xlink:href="#DejaVuSans-46"/>
       <use x="95.410156" xlink:href="#DejaVuSans-50"/>
      </g>
     </g>
    </g>
    <g id="text_18">
     <!-- Loss -->
     <defs>
      <path d="M 9.8125 72.90625 
L 19.671875 72.90625 
L 19.671875 8.296875 
L 55.171875 8.296875 
L 55.171875 0 
L 9.8125 0 
z
" id="DejaVuSans-76"/>
      <path d="M 44.28125 53.078125 
L 44.28125 44.578125 
Q 40.484375 46.53125 36.375 47.5 
Q 32.28125 48.484375 27.875 48.484375 
Q 21.1875 48.484375 17.84375 46.4375 
Q 14.5 44.390625 14.5 40.28125 
Q 14.5 37.15625 16.890625 35.375 
Q 19.28125 33.59375 26.515625 31.984375 
L 29.59375 31.296875 
Q 39.15625 29.25 43.1875 25.515625 
Q 47.21875 21.78125 47.21875 15.09375 
Q 47.21875 7.46875 41.1875 3.015625 
Q 35.15625 -1.421875 24.609375 -1.421875 
Q 20.21875 -1.421875 15.453125 -0.5625 
Q 10.6875 0.296875 5.421875 2 
L 5.421875 11.28125 
Q 10.40625 8.6875 15.234375 7.390625 
Q 20.0625 6.109375 24.8125 6.109375 
Q 31.15625 6.109375 34.5625 8.28125 
Q 37.984375 10.453125 37.984375 14.40625 
Q 37.984375 18.0625 35.515625 20.015625 
Q 33.0625 21.96875 24.703125 23.78125 
L 21.578125 24.515625 
Q 13.234375 26.265625 9.515625 29.90625 
Q 5.8125 33.546875 5.8125 39.890625 
Q 5.8125 47.609375 11.28125 51.796875 
Q 16.75 56 26.8125 56 
Q 31.78125 56 36.171875 55.265625 
Q 40.578125 54.546875 44.28125 53.078125 
z
" id="DejaVuSans-115"/>
     </defs>
     <g transform="translate(14.798438 166.428031)rotate(-90)scale(0.1 -0.1)">
      <use xlink:href="#DejaVuSans-76"/>
      <use x="55.697266" xlink:href="#DejaVuSans-111"/>
      <use x="116.878906" xlink:href="#DejaVuSans-115"/>
      <use x="168.978516" xlink:href="#DejaVuSans-115"/>
     </g>
    </g>
   </g>
   <g id="line2d_17">
    <path clip-path="url(#pc7f8d6e2f0)" d="M 60.013977 74.187547 
L 60.817578 74.838666 
L 61.621178 74.235199 
L 62.424778 208.690267 
L 63.228379 208.725488 
L 64.031979 208.551131 
L 64.835579 81.913922 
L 65.63918 82.296616 
L 66.44278 82.422892 
L 67.246381 163.397677 
L 68.049981 163.842049 
L 68.853581 164.102206 
L 69.657182 99.573548 
L 70.460782 99.742586 
L 71.264382 100.046792 
L 72.067983 74.931941 
L 73.675183 76.717036 
L 74.478784 125.827395 
L 75.282384 126.11893 
L 76.085984 126.67122 
L 76.889585 192.244391 
L 78.496786 191.921664 
L 79.300386 132.759496 
L 80.907587 133.055375 
L 81.711187 215.378647 
L 83.318388 215.559975 
L 84.121988 261.25602 
L 85.729189 261.261871 
L 86.532789 143.245686 
L 88.13999 145.767301 
L 88.94359 173.831574 
L 90.550791 176.804866 
L 91.354391 150.295435 
L 92.157992 151.833711 
L 92.961592 152.0329 
L 93.765192 210.459626 
L 95.372393 210.570633 
L 96.175993 196.479497 
L 97.783194 196.069301 
L 98.586795 131.363515 
L 100.193995 131.662234 
L 100.997596 161.095304 
L 101.801196 161.588802 
L 102.604796 162.419107 
L 103.408397 118.865699 
L 104.211997 122.416581 
L 105.015597 128.44435 
L 105.819198 186.761696 
L 106.622798 186.746372 
L 107.426399 187.036135 
L 108.229999 200.398392 
L 109.033599 200.721031 
L 109.8372 201.163813 
L 110.6408 100.089429 
L 111.4444 101.568835 
L 112.248001 102.600854 
L 113.051601 150.087746 
L 114.658802 151.958728 
L 115.462402 121.037798 
L 117.069603 122.297372 
L 117.873203 153.839593 
L 118.676804 155.603904 
L 119.480404 154.453605 
L 120.284004 140.704066 
L 121.891205 144.853437 
L 122.694805 110.681804 
L 123.498406 111.044365 
L 124.302006 111.90893 
L 125.105606 173.682405 
L 125.909207 174.153134 
L 126.712807 174.96586 
L 127.516408 178.730784 
L 129.123608 178.759344 
L 129.927209 111.366466 
L 130.730809 111.845697 
L 131.534409 112.549559 
L 132.33801 87.107778 
L 133.14161 87.29455 
L 133.94521 87.636928 
L 134.748811 205.115975 
L 136.356011 205.06349 
L 137.159612 181.10888 
L 138.766813 181.417982 
L 139.570413 197.35816 
L 141.177614 197.568188 
L 141.981214 144.29935 
L 142.784814 145.691986 
L 143.588415 145.946204 
L 144.392015 144.008965 
L 145.999216 144.004348 
L 146.802816 123.876207 
L 147.606417 124.990665 
L 148.410017 126.535398 
L 149.213617 208.404735 
L 150.820818 208.62422 
L 151.624418 203.664128 
L 153.231619 203.678141 
L 154.035219 158.997562 
L 154.83882 160.204367 
L 155.64242 161.883463 
L 156.44602 221.141142 
L 158.053221 221.047759 
L 158.856822 203.450434 
L 160.464022 202.958957 
L 161.267623 226.668073 
L 162.874823 226.852735 
L 163.678424 203.752339 
L 165.285624 202.835226 
L 166.089225 215.6414 
L 167.696426 215.709291 
L 168.500026 204.339162 
L 170.107227 204.354731 
L 170.910827 193.34458 
L 171.714427 193.197409 
L 172.518028 193.176216 
L 173.321628 73.142989 
L 174.928829 73.083538 
L 175.732429 216.406081 
L 177.33963 216.334259 
L 178.14323 229.932847 
L 178.946831 230.151103 
L 179.750431 229.77215 
L 180.554031 217.758978 
L 182.161232 217.801468 
L 182.964832 146.568364 
L 183.768433 148.228337 
L 184.572033 150.616024 
L 185.375633 162.124129 
L 186.179234 164.491151 
L 186.982834 167.608841 
L 187.786435 227.963307 
L 189.393635 228.343821 
L 190.197236 227.676367 
L 191.804436 227.371297 
L 192.608037 226.011614 
L 193.411637 225.714603 
L 194.215237 225.612797 
L 195.018838 216.777775 
L 196.626038 216.864306 
L 197.429639 217.820316 
L 199.03684 217.837189 
L 199.84044 225.990646 
L 201.447641 226.093725 
L 202.251241 193.756217 
L 203.858442 193.795689 
L 204.662042 205.851287 
L 206.269243 205.907818 
L 207.072843 232.278849 
L 208.680044 232.184792 
L 209.483644 208.314805 
L 211.090845 208.618342 
L 211.894445 185.050439 
L 213.501646 185.332339 
L 214.305246 200.48116 
L 215.912447 200.536049 
L 216.716047 149.948178 
L 217.519648 154.889726 
L 218.323248 154.487936 
L 219.126849 219.459527 
L 220.734049 219.418227 
L 221.53765 203.013069 
L 223.14485 202.995195 
L 223.948451 163.187831 
L 224.752051 164.704043 
L 225.555651 166.70659 
L 226.359252 117.006152 
L 227.162852 117.948972 
L 227.966453 117.97569 
L 228.770053 232.599983 
L 229.573653 232.600543 
L 230.377254 232.718586 
L 231.180854 236.373052 
L 232.788055 236.798346 
L 233.591655 208.852177 
L 235.198856 208.885135 
L 236.002456 222.309992 
L 237.609657 222.600869 
L 238.413257 223.780197 
L 240.020458 223.963205 
L 240.824058 204.847735 
L 241.627659 204.647598 
L 242.431259 204.57887 
L 243.234859 220.000548 
L 244.03846 220.235514 
L 244.84206 220.603162 
L 245.64566 229.726081 
L 247.252861 231.937308 
L 248.056462 213.14395 
L 249.663662 212.956744 
L 250.467263 219.815495 
L 252.074463 219.955262 
L 252.878064 217.435321 
L 254.485264 217.305859 
L 255.288865 219.967247 
L 256.896065 219.95841 
L 257.699666 220.708437 
L 259.306867 220.882185 
L 260.110467 219.887545 
L 261.717668 219.978432 
L 262.521268 204.909688 
L 264.128469 205.201979 
L 264.932069 219.357895 
L 266.53927 219.356014 
L 267.34287 218.335447 
L 268.950071 218.29449 
L 269.753671 222.691065 
L 270.557272 223.01979 
L 271.360872 223.044602 
L 272.164472 216.261284 
L 273.771673 216.250534 
L 274.575273 146.83292 
L 275.378874 148.038349 
L 276.182474 148.937491 
L 276.986074 218.564236 
L 277.789675 218.098365 
L 278.593275 218.474861 
L 279.396876 219.811052 
L 281.004076 219.788529 
L 281.807677 220.131244 
L 283.414877 220.166965 
L 284.218478 222.631745 
L 285.825678 222.575882 
L 286.629279 221.400867 
L 288.23648 221.927167 
L 289.04008 224.266383 
L 290.647281 224.172543 
L 291.450881 196.176276 
L 293.058082 195.981538 
L 293.861682 216.807759 
L 295.468883 216.985183 
L 296.272483 218.630479 
L 297.879684 218.928387 
L 298.683284 217.691027 
L 300.290485 217.649124 
L 301.094085 198.047305 
L 302.701286 198.197681 
L 303.504886 219.409016 
L 304.308487 219.826664 
L 305.112087 220.449131 
L 305.915687 206.983453 
L 307.522888 206.866335 
L 308.326489 228.928403 
L 309.933689 228.637912 
L 310.73729 210.506217 
L 312.34449 211.814795 
L 313.148091 208.706118 
L 313.951691 206.35998 
L 314.755291 208.312103 
L 315.558892 223.913025 
L 316.362492 223.890404 
L 317.166092 223.349803 
L 317.969693 224.030612 
L 319.576894 224.179683 
L 320.380494 225.517859 
L 321.184094 225.894099 
L 321.987695 226.040326 
L 322.791295 142.031124 
L 323.594895 143.724826 
L 324.398496 145.679159 
L 325.202096 122.701784 
L 326.005696 128.95089 
L 326.809297 128.558867 
L 327.612897 228.168953 
L 328.416498 228.336464 
L 330.023698 228.29344 
L 331.630899 228.633546 
L 332.434499 219.248384 
L 334.0417 219.564666 
L 334.8453 221.381383 
L 336.452501 221.469932 
L 337.256101 216.140506 
L 338.863302 216.102583 
L 339.666903 217.305408 
L 340.470503 217.294081 
L 341.274103 217.406066 
L 342.077704 218.558417 
L 343.684904 218.977909 
L 344.488505 220.452078 
L 346.095705 220.608817 
L 346.899306 217.487143 
L 348.506507 217.477285 
L 349.310107 151.832654 
L 350.113707 152.146886 
L 350.917308 152.760358 
L 351.720908 114.956462 
L 352.524508 119.262308 
L 353.328109 119.654358 
L 354.131709 215.702836 
L 355.73891 215.646653 
L 356.54251 217.792181 
L 358.149711 218.331205 
L 358.953311 214.417901 
L 360.560512 214.593617 
L 361.364112 216.133388 
L 362.971313 216.169179 
L 363.774913 214.970738 
L 365.382114 215.146764 
L 366.185714 211.160735 
L 367.792915 211.114562 
L 368.596516 214.814782 
L 370.203716 214.708822 
L 371.007317 215.88393 
L 372.614517 216.092931 
L 373.418118 214.842548 
L 375.025318 214.884299 
L 375.828919 214.404334 
L 377.436119 214.874076 
L 379.04332 214.791813 
L 379.846921 214.786006 
L 380.650521 200.988314 
L 382.257722 201.049679 
L 383.061322 215.721678 
L 384.668523 215.782184 
L 384.668523 215.782184 
" style="fill:none;stroke:#1f77b4;stroke-linecap:square;stroke-opacity:0.3;stroke-width:1.5;"/>
   </g>
   <g id="line2d_18">
    <path clip-path="url(#pc7f8d6e2f0)" d="M 60.013977 34.414125 
L 60.817578 111.199935 
L 61.621178 153.195258 
L 62.424778 168.162995 
L 63.228379 163.866044 
L 64.031979 148.067304 
L 64.835579 143.877579 
L 65.63918 140.522489 
L 66.44278 123.540735 
L 67.246381 120.919481 
L 68.049981 126.087803 
L 68.853581 136.722085 
L 69.657182 129.183191 
L 71.264382 89.650023 
L 72.067983 83.191413 
L 72.871583 79.762167 
L 73.675183 92.636952 
L 74.478784 107.44667 
L 76.085984 154.242994 
L 76.889585 166.85059 
L 77.693185 164.295212 
L 78.496786 160.889033 
L 79.300386 163.764161 
L 80.103986 162.944703 
L 80.907587 165.065409 
L 81.711187 180.85494 
L 82.514787 213.080361 
L 83.318388 237.710746 
L 84.121988 243.466691 
L 84.925588 232.967103 
L 85.729189 211.110896 
L 88.13999 162.682339 
L 88.94359 154.673903 
L 89.747191 149.622375 
L 90.550791 161.098096 
L 91.354391 165.259953 
L 92.157992 171.890869 
L 92.961592 176.982773 
L 93.765192 185.177611 
L 94.568793 199.279386 
L 95.372393 206.79158 
L 96.175993 203.039345 
L 96.979594 188.564247 
L 97.783194 169.26553 
L 98.586795 157.332283 
L 100.997596 143.216444 
L 101.801196 136.53477 
L 102.604796 140.870008 
L 103.408397 142.704508 
L 104.211997 145.147653 
L 105.015597 149.413246 
L 105.819198 160.155795 
L 106.622798 182.651765 
L 107.426399 196.905255 
L 108.229999 195.253618 
L 109.033599 178.718036 
L 109.8372 157.629322 
L 110.6408 143.443301 
L 112.248001 126.894492 
L 113.051601 123.917998 
L 113.855201 124.206315 
L 114.658802 135.461819 
L 115.462402 137.740113 
L 116.266002 139.47935 
L 117.069603 136.77267 
L 117.873203 138.931712 
L 118.676804 145.60109 
L 119.480404 150.564462 
L 120.284004 148.141697 
L 121.087605 136.261327 
L 121.891205 126.871303 
L 122.694805 125.427608 
L 123.498406 129.021595 
L 124.302006 137.521772 
L 125.105606 147.536441 
L 125.909207 165.433197 
L 126.712807 177.878745 
L 127.516408 178.261175 
L 128.320008 171.765685 
L 129.927209 137.652052 
L 130.730809 110.785502 
L 131.534409 97.423487 
L 132.33801 97.593481 
L 133.14161 112.3657 
L 133.94521 136.60457 
L 135.552411 173.255286 
L 136.356011 189.987692 
L 137.159612 198.728951 
L 137.963212 203.574306 
L 138.766813 191.835611 
L 139.570413 187.324743 
L 141.177614 176.193989 
L 145.195615 129.046819 
L 145.999216 131.365446 
L 146.802816 135.733508 
L 147.606417 145.859265 
L 149.213617 174.2059 
L 150.017218 193.174471 
L 150.820818 206.249478 
L 151.624418 208.900012 
L 152.428019 197.549097 
L 153.231619 182.7645 
L 154.035219 179.568895 
L 154.83882 182.287772 
L 155.64242 187.341032 
L 157.249621 199.965146 
L 158.053221 210.404742 
L 158.856822 215.090881 
L 159.660422 218.401962 
L 160.464022 214.711004 
L 161.267623 215.439668 
L 162.071223 214.84417 
L 162.874823 215.763165 
L 164.482024 213.451146 
L 165.285624 209.849143 
L 166.089225 208.807073 
L 166.892825 209.807591 
L 167.696426 211.31397 
L 168.500026 209.174784 
L 169.303626 215.559093 
L 170.107227 207.969022 
L 170.910827 192.174898 
L 171.714427 158.406154 
L 172.518028 137.059183 
L 173.321628 125.686797 
L 174.125228 123.822449 
L 174.928829 133.741538 
L 175.732429 152.583297 
L 176.536029 181.319027 
L 177.33963 216.833495 
L 178.14323 233.097789 
L 178.946831 242.779495 
L 179.750431 228.923012 
L 180.554031 220.329695 
L 181.357632 206.029603 
L 182.964832 175.185843 
L 183.768433 158.929429 
L 184.572033 153.504567 
L 185.375633 156.464738 
L 186.179234 168.667428 
L 186.982834 189.75489 
L 188.590035 217.034631 
L 189.393635 226.047143 
L 190.197236 231.840675 
L 191.000836 233.191488 
L 191.804436 227.4647 
L 192.608037 226.06298 
L 195.018838 220.277988 
L 195.822438 217.97201 
L 196.626038 217.022143 
L 197.429639 217.186456 
L 198.233239 221.241203 
L 199.03684 223.074031 
L 199.84044 221.562428 
L 202.251241 207.555225 
L 203.054841 201.143661 
L 203.858442 198.198539 
L 204.662042 200.10527 
L 205.465642 208.037429 
L 206.269243 217.344478 
L 207.072843 221.583918 
L 207.876444 225.142075 
L 208.680044 223.218831 
L 209.483644 218.576762 
L 211.090845 199.192621 
L 211.894445 193.515018 
L 212.698046 195.186913 
L 213.501646 194.975692 
L 214.305246 190.705392 
L 215.108847 180.122328 
L 215.912447 176.780796 
L 216.716047 175.413284 
L 217.519648 178.588474 
L 218.323248 182.440474 
L 219.126849 189.756178 
L 219.930449 202.550155 
L 220.734049 213.122808 
L 221.53765 211.730462 
L 222.34125 207.871268 
L 223.948451 176.901967 
L 224.752051 151.954223 
L 225.555651 140.466455 
L 226.359252 138.64401 
L 227.162852 146.889019 
L 228.770053 184.313644 
L 230.377254 231.47568 
L 231.180854 241.144504 
L 231.984454 238.748066 
L 232.788055 224.617112 
L 233.591655 220.642441 
L 234.395255 217.373755 
L 235.198856 215.284528 
L 236.002456 215.35671 
L 237.609657 223.689621 
L 238.413257 223.436698 
L 239.216858 219.632858 
L 240.020458 215.273912 
L 241.627659 210.944429 
L 242.431259 210.91968 
L 243.234859 213.08288 
L 244.84206 224.857653 
L 245.64566 226.928613 
L 246.449261 225.961941 
L 247.252861 223.055784 
L 248.860062 219.192253 
L 249.663662 216.813359 
L 250.467263 215.973172 
L 251.270863 216.200795 
L 252.074463 218.445539 
L 252.878064 218.910049 
L 253.681664 218.923597 
L 254.485264 218.456868 
L 255.288865 218.789996 
L 256.896065 220.218983 
L 257.699666 220.573181 
L 258.503266 221.923927 
L 259.306867 221.346764 
L 260.110467 219.707299 
L 260.914067 215.975486 
L 261.717668 213.167171 
L 262.521268 211.45722 
L 263.324868 210.909952 
L 264.128469 211.388956 
L 264.932069 212.72752 
L 265.735669 214.681716 
L 266.53927 218.102122 
L 267.34287 219.784041 
L 268.146471 221.167859 
L 268.950071 220.581149 
L 269.753671 220.754603 
L 270.557272 226.396817 
L 271.360872 224.370633 
L 272.164472 216.30276 
L 272.968073 198.237837 
L 273.771673 184.978725 
L 274.575273 177.333015 
L 275.378874 175.067508 
L 276.182474 178.518666 
L 276.986074 186.320986 
L 277.789675 198.929186 
L 278.593275 216.323456 
L 279.396876 223.686932 
L 280.200476 225.191346 
L 281.004076 219.712382 
L 283.414877 221.161061 
L 284.218478 221.567198 
L 285.022078 221.699499 
L 286.629279 222.28615 
L 287.432879 224.919087 
L 288.23648 224.489072 
L 289.04008 222.065659 
L 289.84368 216.289343 
L 290.647281 211.698297 
L 291.450881 208.198287 
L 292.254481 205.919578 
L 293.058082 205.308116 
L 293.861682 206.91855 
L 294.665282 210.80252 
L 295.468883 216.860033 
L 297.076083 221.590522 
L 298.683284 217.445322 
L 299.486885 212.341423 
L 300.290485 208.608662 
L 301.094085 206.56137 
L 301.897686 207.303775 
L 302.701286 208.288383 
L 303.504886 209.514182 
L 304.308487 209.463698 
L 305.112087 212.563311 
L 305.915687 214.385513 
L 306.719288 217.360258 
L 307.522888 217.315736 
L 309.130089 219.841868 
L 309.933689 221.203159 
L 310.73729 219.352838 
L 312.34449 209.506514 
L 313.148091 208.743078 
L 313.951691 210.277963 
L 314.755291 214.337616 
L 317.166092 223.04147 
L 317.969693 225.069135 
L 318.773293 232.612827 
L 319.576894 229.820757 
L 320.380494 221.539198 
L 321.184094 210.620544 
L 322.791295 175.163267 
L 323.594895 148.106522 
L 324.398496 133.78372 
L 325.202096 132.410673 
L 326.005696 143.882754 
L 326.809297 168.128938 
L 329.220098 225.446613 
L 330.023698 234.236899 
L 330.827299 234.795862 
L 331.630899 224.743386 
L 332.434499 223.081595 
L 333.2381 222.100786 
L 334.8453 219.865402 
L 335.648901 219.105796 
L 336.452501 219.199008 
L 338.863302 216.718109 
L 339.666903 216.530351 
L 340.470503 216.751032 
L 341.274103 217.715606 
L 342.077704 218.32204 
L 342.881304 219.182513 
L 343.684904 219.606318 
L 344.488505 219.819067 
L 345.292105 225.218172 
L 346.095705 223.403258 
L 347.702906 208.223192 
L 348.506507 193.710316 
L 349.310107 176.104494 
L 350.113707 149.671832 
L 350.917308 134.911782 
L 351.720908 131.263402 
L 352.524508 138.850279 
L 355.73891 213.389844 
L 356.54251 223.005682 
L 357.34611 224.757617 
L 358.149711 216.435193 
L 361.364112 215.223957 
L 362.971313 215.908817 
L 363.774913 215.446916 
L 365.382114 213.329764 
L 366.185714 212.784054 
L 366.989315 212.479016 
L 367.792915 212.666286 
L 368.596516 213.105604 
L 369.400116 214.019212 
L 370.203716 215.154818 
L 371.007317 215.670659 
L 371.810917 215.849839 
L 372.614517 215.49957 
L 374.221718 215.11698 
L 375.025318 214.801871 
L 375.828919 214.649038 
L 376.632519 215.763085 
L 377.436119 215.576188 
L 378.23972 214.178975 
L 379.04332 210.771165 
L 379.846921 208.446765 
L 381.454121 205.541168 
L 382.257722 205.452163 
L 383.061322 207.413161 
L 383.864922 212.028203 
L 384.668523 219.901325 
L 384.668523 219.901325 
" style="fill:none;stroke:#1f77b4;stroke-linecap:square;stroke-width:1.5;"/>
   </g>
   <g id="line2d_19">
    <path clip-path="url(#pc7f8d6e2f0)" d="M 60.013977 259.688369 
L 61.621178 261.267788 
L 62.424778 193.819994 
L 63.228379 196.553791 
L 64.031979 199.854459 
L 64.835579 228.808005 
L 65.63918 231.774604 
L 66.44278 235.286767 
L 67.246381 182.193619 
L 68.853581 195.886495 
L 69.657182 225.263564 
L 71.264382 234.394009 
L 72.067983 230.57726 
L 73.675183 236.456946 
L 74.478784 209.637977 
L 76.085984 216.343285 
L 76.889585 160.097363 
L 78.496786 166.260091 
L 79.300386 182.467428 
L 80.907587 187.678432 
L 81.711187 132.430402 
L 83.318388 138.548235 
L 84.121988 80.232928 
L 85.729189 86.502826 
L 86.532789 129.602025 
L 88.13999 133.694328 
L 88.94359 102.550034 
L 90.550791 106.720676 
L 91.354391 125.878207 
L 92.961592 129.767752 
L 93.765192 81.113426 
L 95.372393 85.552623 
L 96.175993 82.958845 
L 97.783194 87.286725 
L 98.586795 115.000519 
L 100.193995 118.575668 
L 100.997596 105.079456 
L 102.604796 108.666922 
L 103.408397 120.719482 
L 105.015597 123.99691 
L 105.819198 103.576686 
L 107.426399 107.188946 
L 108.229999 98.323365 
L 109.8372 101.709803 
L 110.6408 127.230915 
L 112.248001 130.038438 
L 113.051601 110.024323 
L 114.658802 113.251953 
L 115.462402 117.304006 
L 117.069603 120.269904 
L 117.873203 118.373054 
L 119.480404 121.401482 
L 120.284004 102.832332 
L 121.891205 105.978837 
L 122.694805 140.762813 
L 124.302006 143.518393 
L 125.105606 111.628864 
L 126.712807 114.786565 
L 127.516408 108.851805 
L 129.123608 112.0343 
L 129.927209 148.993547 
L 131.534409 151.566359 
L 132.33801 154.86842 
L 133.94521 157.37537 
L 134.748811 103.097043 
L 136.356011 106.414753 
L 137.159612 103.312983 
L 138.766813 106.447556 
L 139.570413 111.822236 
L 141.177614 115.031319 
L 141.981214 134.906247 
L 143.588415 137.686446 
L 144.392015 111.40711 
L 145.999216 114.332373 
L 146.802816 116.312495 
L 148.410017 119.086831 
L 149.213617 89.553005 
L 150.820818 92.926822 
L 151.624418 98.55915 
L 153.231619 101.825525 
L 154.035219 97.537752 
L 155.64242 100.498269 
L 156.44602 79.865036 
L 158.053221 83.293583 
L 158.856822 94.722429 
L 160.464022 97.999199 
L 161.267623 73.077328 
L 162.874823 76.547407 
L 163.678424 79.463204 
L 165.285624 82.716622 
L 166.089225 92.679969 
L 167.696426 95.975495 
L 168.500026 99.132283 
L 170.107227 102.356806 
L 170.910827 116.585824 
L 172.518028 119.63469 
L 173.321628 149.031219 
L 174.928829 151.142728 
L 175.732429 104.332684 
L 177.33963 107.504928 
L 178.14323 97.968495 
L 179.750431 101.194059 
L 180.554031 90.351143 
L 182.161232 93.631918 
L 182.964832 106.220564 
L 184.572033 109.016891 
L 185.375633 100.075807 
L 186.982834 102.857991 
L 187.786435 91.172634 
L 189.393635 94.439875 
L 190.197236 87.184938 
L 191.804436 90.477533 
L 192.608037 88.817637 
L 194.215237 92.091188 
L 195.018838 100.059149 
L 196.626038 103.238601 
L 197.429639 104.034577 
L 199.03684 107.17514 
L 199.84044 101.449865 
L 201.447641 104.604651 
L 202.251241 116.649107 
L 203.858442 119.593206 
L 204.662042 117.970133 
L 206.269243 120.968177 
L 207.072843 97.607442 
L 208.680044 100.787053 
L 209.483644 117.106165 
L 211.090845 120.087744 
L 211.894445 129.480041 
L 213.501646 132.32437 
L 214.305246 126.536342 
L 215.912447 129.446005 
L 216.716047 128.115769 
L 218.323248 130.651789 
L 219.126849 114.624842 
L 220.734049 117.644942 
L 221.53765 122.980781 
L 223.14485 125.874427 
L 223.948451 122.848497 
L 225.555651 125.332864 
L 226.359252 173.697901 
L 227.966453 175.903581 
L 228.770053 110.414655 
L 230.377254 113.463697 
L 231.180854 109.490191 
L 232.788055 112.542741 
L 233.591655 126.406541 
L 235.198856 129.266888 
L 236.002456 115.876051 
L 237.609657 118.868329 
L 238.413257 110.76456 
L 240.020458 113.798242 
L 240.824058 125.432649 
L 242.431259 128.330555 
L 243.234859 113.359603 
L 244.84206 116.367001 
L 245.64566 114.926136 
L 247.252861 117.91787 
L 248.056462 124.308486 
L 249.663662 127.210061 
L 250.467263 116.4492 
L 252.074463 119.423363 
L 252.878064 118.074931 
L 254.485264 121.033126 
L 255.288865 118.768367 
L 256.896065 121.718553 
L 257.699666 121.078245 
L 259.306867 124.006728 
L 260.110467 121.045394 
L 261.717668 123.972083 
L 262.521268 135.177942 
L 264.128469 137.957692 
L 264.932069 124.101292 
L 266.53927 126.997597 
L 267.34287 124.91596 
L 268.950071 127.803247 
L 269.753671 125.906813 
L 271.360872 128.78369 
L 272.164472 136.151434 
L 273.771673 138.935188 
L 274.575273 129.241421 
L 276.182474 131.562526 
L 276.986074 143.109513 
L 278.593275 145.809867 
L 279.396876 133.288636 
L 281.004076 136.093324 
L 281.807677 137.153291 
L 283.414877 139.920131 
L 284.218478 134.039797 
L 285.825678 136.834603 
L 286.629279 134.422905 
L 288.23648 137.212538 
L 289.04008 135.626255 
L 290.647281 138.403619 
L 291.450881 151.374781 
L 293.058082 153.962824 
L 293.861682 140.357297 
L 295.468883 143.088691 
L 296.272483 137.133174 
L 297.879684 139.891845 
L 298.683284 138.154396 
L 300.290485 140.902384 
L 301.094085 155.753306 
L 302.701286 158.28308 
L 303.504886 140.588981 
L 305.112087 143.312063 
L 305.915687 153.402905 
L 307.522888 155.992182 
L 308.326489 142.560374 
L 309.933689 145.262522 
L 310.73729 152.9774 
L 312.34449 155.571562 
L 313.148091 158.228638 
L 314.755291 160.761151 
L 315.558892 154.742655 
L 317.166092 157.32788 
L 317.969693 147.645276 
L 319.576894 150.295401 
L 320.380494 152.18884 
L 321.987695 154.79455 
L 322.791295 137.60729 
L 324.398496 139.599537 
L 325.202096 148.446955 
L 326.809297 150.427413 
L 327.612897 157.41019 
L 329.220098 159.962965 
L 330.023698 155.37087 
L 331.630899 157.942096 
L 332.434499 155.762083 
L 334.0417 158.327719 
L 334.8453 153.387337 
L 336.452501 155.974323 
L 337.256101 155.498621 
L 338.863302 158.064625 
L 339.666903 155.372103 
L 341.274103 157.937867 
L 342.077704 156.264277 
L 343.684904 158.820399 
L 344.488505 158.066387 
L 346.095705 160.604314 
L 346.899306 158.184656 
L 348.506507 160.7201 
L 349.310107 173.094128 
L 350.917308 175.194632 
L 351.720908 140.833799 
L 353.328109 142.657837 
L 354.131709 162.159731 
L 355.73891 164.653595 
L 356.54251 162.112898 
L 358.149711 164.605929 
L 358.953311 162.943238 
L 360.560512 165.427068 
L 361.364112 163.884063 
L 362.971313 166.357554 
L 363.774913 164.821356 
L 365.382114 167.284676 
L 366.185714 169.041122 
L 367.792915 171.461348 
L 368.596516 166.683113 
L 370.203716 169.12598 
L 371.007317 168.094635 
L 372.614517 170.522686 
L 373.418118 168.52975 
L 375.025318 170.952259 
L 375.828919 169.447295 
L 377.436119 171.859681 
L 378.23972 170.360995 
L 379.846921 172.76329 
L 380.650521 180.870471 
L 382.257722 183.146593 
L 383.061322 172.17708 
L 384.668523 174.559218 
L 384.668523 174.559218 
" style="fill:none;stroke:#ff7f0e;stroke-linecap:square;stroke-opacity:0.3;stroke-width:1.5;"/>
   </g>
   <g id="line2d_20">
    <path clip-path="url(#pc7f8d6e2f0)" d="M 60.013977 276.334125 
L 60.817578 245.014463 
L 61.621178 226.106547 
L 62.424778 216.802703 
L 63.228379 214.295259 
L 64.031979 215.776541 
L 64.835579 211.157858 
L 65.63918 207.279566 
L 66.44278 210.903947 
L 67.246381 209.058005 
L 68.049981 208.255984 
L 68.853581 207.102253 
L 69.657182 211.108851 
L 71.264382 232.188545 
L 72.067983 233.727806 
L 72.871583 236.211608 
L 73.675183 229.047036 
L 74.478784 219.062476 
L 76.085984 193.100345 
L 76.889585 182.271138 
L 77.693185 180.151891 
L 78.496786 177.43291 
L 79.300386 170.979743 
L 80.103986 170.959354 
L 80.907587 168.209297 
L 81.711187 154.059322 
L 83.318388 114.094739 
L 84.121988 102.665075 
L 84.925588 101.738536 
L 85.729189 106.774346 
L 86.532789 108.051617 
L 87.33639 110.311835 
L 88.13999 118.0307 
L 88.94359 119.101206 
L 89.747191 122.436646 
L 90.550791 117.956213 
L 92.157992 111.842504 
L 92.961592 109.397916 
L 93.765192 102.218474 
L 94.568793 91.853272 
L 95.372393 84.045523 
L 96.175993 82.686603 
L 96.979594 88.265897 
L 97.783194 98.540742 
L 98.586795 103.794692 
L 100.193995 110.918642 
L 100.997596 113.234373 
L 101.801196 116.041648 
L 102.604796 114.699747 
L 103.408397 114.718452 
L 104.211997 115.46327 
L 105.015597 115.565207 
L 105.819198 112.665074 
L 106.622798 106.571035 
L 107.426399 102.332778 
L 108.229999 102.072484 
L 109.033599 106.888119 
L 109.8372 112.892734 
L 110.6408 116.114144 
L 112.248001 120.516199 
L 113.051601 120.273148 
L 113.855201 118.763226 
L 114.658802 115.243465 
L 115.462402 114.757682 
L 117.069603 120.111315 
L 117.873203 119.097431 
L 118.676804 113.966087 
L 119.480404 111.50692 
L 120.284004 111.94856 
L 121.087605 117.623151 
L 121.891205 121.988798 
L 123.498406 127.716363 
L 124.302006 129.532332 
L 125.105606 126.730725 
L 125.909207 118.225238 
L 126.712807 110.90815 
L 127.516408 111.159921 
L 128.320008 116.09759 
L 129.123608 126.195 
L 129.927209 134.440423 
L 130.730809 147.599427 
L 131.534409 154.455479 
L 132.33801 154.065446 
L 133.14161 147.933887 
L 133.94521 135.639809 
L 135.552411 114.83571 
L 136.356011 106.435449 
L 137.159612 101.746938 
L 137.963212 100.360021 
L 138.766813 107.02764 
L 139.570413 110.802343 
L 140.374013 118.284608 
L 141.177614 123.833242 
L 141.981214 126.689746 
L 142.784814 127.334123 
L 143.588415 126.002854 
L 144.392015 123.621564 
L 145.195615 122.682932 
L 146.802816 113.050253 
L 147.606417 108.700804 
L 148.410017 106.606766 
L 149.213617 102.161912 
L 150.017218 98.811488 
L 150.820818 96.065111 
L 151.624418 94.768305 
L 152.428019 97.463248 
L 153.231619 100.687637 
L 154.035219 99.155862 
L 155.64242 91.404367 
L 156.44602 88.789653 
L 157.249621 89.736192 
L 158.053221 89.652 
L 159.660422 87.098743 
L 160.464022 87.042293 
L 161.267623 84.336088 
L 162.071223 80.517769 
L 162.874823 77.522067 
L 163.678424 77.584892 
L 164.482024 80.150122 
L 165.285624 85.896138 
L 166.089225 89.543091 
L 166.892825 92.01584 
L 167.696426 95.45201 
L 168.500026 99.552525 
L 169.303626 101.337885 
L 170.107227 105.578594 
L 170.910827 112.817827 
L 171.714427 125.358401 
L 172.518028 133.114452 
L 173.321628 136.590283 
L 174.125228 136.804532 
L 174.928829 131.869007 
L 175.732429 124.939528 
L 176.536029 116.756218 
L 177.33963 105.722525 
L 178.14323 98.802186 
L 178.946831 94.335183 
L 179.750431 96.031128 
L 180.554031 95.067071 
L 181.357632 96.645351 
L 182.161232 99.09083 
L 182.964832 100.567918 
L 183.768433 103.380732 
L 184.572033 105.314895 
L 185.375633 104.341329 
L 186.179234 102.577945 
L 186.982834 98.668664 
L 187.786435 95.470463 
L 188.590035 93.078954 
L 189.393635 91.620932 
L 190.197236 89.726289 
L 191.000836 88.305074 
L 192.608037 89.820718 
L 193.411637 91.711691 
L 194.215237 94.780344 
L 195.018838 97.293014 
L 195.822438 100.555316 
L 196.626038 103.136028 
L 197.429639 104.45588 
L 198.233239 103.957251 
L 199.03684 103.669458 
L 199.84044 104.728557 
L 200.64404 106.796245 
L 202.251241 111.863972 
L 203.054841 116.864465 
L 203.858442 119.523754 
L 204.662042 118.886662 
L 206.269243 110.327546 
L 207.072843 107.903556 
L 207.876444 106.22898 
L 208.680044 107.099474 
L 209.483644 109.967176 
L 210.287245 115.739059 
L 211.090845 123.091472 
L 211.894445 126.967361 
L 212.698046 129.342385 
L 213.501646 129.356459 
L 214.305246 129.834978 
L 215.108847 131.022895 
L 215.912447 129.676337 
L 216.716047 127.949465 
L 217.519648 125.504218 
L 218.323248 123.71678 
L 219.126849 121.610829 
L 219.930449 120.556936 
L 220.734049 120.114169 
L 221.53765 120.163566 
L 222.34125 117.355475 
L 223.14485 120.985034 
L 223.948451 126.6596 
L 224.752051 140.345559 
L 225.555651 148.349107 
L 226.359252 152.005036 
L 227.162852 152.051156 
L 227.966453 148.048989 
L 228.770053 139.778492 
L 230.377254 113.11135 
L 231.180854 107.920772 
L 231.984454 110.223978 
L 232.788055 118.568715 
L 234.395255 122.721774 
L 235.198856 123.524762 
L 236.002456 122.189597 
L 237.609657 115.016252 
L 238.413257 114.048252 
L 239.216858 116.373309 
L 240.020458 119.2092 
L 241.627659 120.99068 
L 242.431259 121.622245 
L 243.234859 120.425309 
L 244.84206 115.540933 
L 245.64566 115.249252 
L 246.449261 117.641265 
L 247.252861 120.737333 
L 248.056462 121.674337 
L 248.860062 122.314802 
L 249.663662 122.365304 
L 251.270863 120.550192 
L 252.074463 119.015949 
L 252.878064 118.273965 
L 253.681664 118.52271 
L 254.485264 119.797418 
L 255.288865 119.991442 
L 256.896065 121.307643 
L 257.699666 121.501894 
L 258.503266 120.948432 
L 259.306867 121.731877 
L 260.110467 123.064953 
L 260.914067 126.46091 
L 261.717668 128.956999 
L 262.521268 130.39114 
L 263.324868 131.471562 
L 264.128469 131.766783 
L 264.932069 130.657166 
L 265.735669 129.009469 
L 266.53927 126.40795 
L 267.34287 125.213747 
L 268.146471 124.617245 
L 268.950071 126.251227 
L 269.753671 127.249091 
L 270.557272 129.843726 
L 271.360872 131.979934 
L 272.164472 133.165212 
L 272.968073 133.002747 
L 274.575273 134.285795 
L 275.378874 136.331334 
L 276.986074 137.866371 
L 277.789675 138.728107 
L 278.593275 139.910072 
L 280.200476 138.876532 
L 281.004076 136.956899 
L 281.807677 136.110054 
L 282.611277 136.298494 
L 283.414877 137.299508 
L 284.218478 136.756655 
L 285.022078 136.355657 
L 286.629279 135.355567 
L 287.432879 134.402766 
L 288.23648 135.461783 
L 289.04008 137.039038 
L 289.84368 140.87622 
L 290.647281 144.036028 
L 292.254481 147.709571 
L 293.058082 148.076992 
L 293.861682 146.748313 
L 294.665282 144.490177 
L 295.468883 140.969067 
L 297.076083 136.971259 
L 297.879684 138.106814 
L 298.683284 139.475101 
L 299.486885 143.842832 
L 300.290485 147.542841 
L 301.094085 149.399457 
L 302.701286 149.713999 
L 303.504886 149.370063 
L 304.308487 149.894449 
L 305.112087 148.428945 
L 306.719288 147.851374 
L 307.522888 149.427989 
L 308.326489 149.243909 
L 309.933689 148.274705 
L 310.73729 149.553399 
L 311.54089 152.641741 
L 312.34449 156.318416 
L 313.951691 159.217069 
L 314.755291 158.515242 
L 315.558892 157.293659 
L 317.969693 151.574672 
L 318.773293 152.229242 
L 319.576894 152.140375 
L 320.380494 150.570479 
L 321.184094 148.120649 
L 321.987695 146.925998 
L 323.594895 143.403976 
L 324.398496 143.075562 
L 325.202096 144.410514 
L 326.005696 148.001192 
L 326.809297 152.887748 
L 327.612897 155.437604 
L 328.416498 157.285981 
L 330.827299 158.141703 
L 331.630899 157.191762 
L 332.434499 156.516079 
L 333.2381 156.147205 
L 334.0417 156.113415 
L 334.8453 155.573266 
L 337.256101 155.644714 
L 338.059702 156.064613 
L 338.863302 156.747852 
L 339.666903 156.72208 
L 342.077704 157.105005 
L 343.684904 158.365135 
L 344.488505 158.536738 
L 345.292105 157.824137 
L 346.095705 158.544134 
L 346.899306 159.992145 
L 347.702906 165.244573 
L 348.506507 167.488462 
L 349.310107 166.972643 
L 350.113707 162.945684 
L 351.720908 156.217867 
L 353.328109 151.713061 
L 354.131709 152.599514 
L 354.935309 156.237422 
L 355.73891 162.564428 
L 356.54251 164.620707 
L 357.34611 165.302794 
L 358.149711 163.779401 
L 358.953311 163.746787 
L 360.560512 164.614616 
L 362.167713 164.836749 
L 363.774913 165.768047 
L 364.578514 166.986453 
L 365.382114 167.977897 
L 367.792915 169.214213 
L 368.596516 169.010558 
L 369.400116 168.971466 
L 371.007317 168.47938 
L 371.810917 168.842704 
L 372.614517 169.513938 
L 373.418118 169.552525 
L 375.025318 170.17437 
L 375.828919 170.214194 
L 376.632519 169.80867 
L 377.436119 170.467064 
L 378.23972 171.543992 
L 379.04332 174.284848 
L 379.846921 176.360238 
L 380.650521 177.446737 
L 381.454121 178.833232 
L 382.257722 179.318188 
L 383.061322 178.519563 
L 383.864922 176.055318 
L 384.668523 171.543411 
L 384.668523 171.543411 
" style="fill:none;stroke:#ff7f0e;stroke-linecap:square;stroke-width:1.5;"/>
   </g>
   <g id="line2d_21">
    <path clip-path="url(#pc7f8d6e2f0)" d="M 60.013977 73.628471 
L 60.817578 74.826815 
L 61.621178 77.743533 
L 62.424778 81.870523 
L 64.031979 91.722905 
L 64.835579 95.399836 
L 65.63918 99.930481 
L 66.44278 102.749984 
L 67.246381 103.427505 
L 68.049981 101.807395 
L 68.853581 100.731628 
L 69.657182 100.325503 
L 70.460782 101.115085 
L 72.067983 108.630494 
L 73.675183 119.886253 
L 74.478784 122.755184 
L 75.282384 122.858705 
L 76.085984 122.234651 
L 76.889585 123.111399 
L 77.693185 126.44042 
L 80.103986 132.198634 
L 80.907587 132.433927 
L 81.711187 129.773097 
L 83.318388 118.351704 
L 84.121988 116.098563 
L 84.925588 115.843485 
L 86.532789 123.652057 
L 88.13999 141.353485 
L 88.94359 145.816573 
L 89.747191 149.530014 
L 90.550791 147.666394 
L 91.354391 144.209315 
L 92.157992 135.428783 
L 92.961592 128.758458 
L 93.765192 126.342505 
L 94.568793 130.611866 
L 95.372393 138.248419 
L 96.175993 142.720472 
L 97.783194 153.80775 
L 98.586795 153.365671 
L 99.390395 147.265721 
L 100.193995 138.472178 
L 100.997596 134.021447 
L 101.801196 132.011249 
L 102.604796 133.911978 
L 103.408397 136.236904 
L 104.211997 140.599007 
L 105.015597 146.643659 
L 106.622798 155.210188 
L 107.426399 155.444983 
L 108.229999 155.379904 
L 109.033599 155.814576 
L 109.8372 154.816317 
L 110.6408 153.63466 
L 111.4444 155.781658 
L 112.248001 156.902162 
L 113.051601 156.978148 
L 113.855201 156.936177 
L 114.658802 156.048024 
L 115.462402 152.650031 
L 116.266002 147.528576 
L 117.069603 145.616867 
L 117.873203 143.995249 
L 118.676804 146.357234 
L 119.480404 149.276875 
L 120.284004 148.955441 
L 121.087605 143.583661 
L 121.891205 142.49182 
L 122.694805 143.620104 
L 123.498406 147.729549 
L 124.302006 151.234868 
L 125.105606 157.247467 
L 125.909207 161.803331 
L 126.712807 168.642281 
L 128.320008 174.55522 
L 129.123608 170.98805 
L 129.927209 170.5177 
L 130.730809 167.961005 
L 131.534409 167.344087 
L 132.33801 165.289298 
L 133.14161 164.690315 
L 133.94521 160.468475 
L 134.748811 157.672959 
L 135.552411 156.764538 
L 136.356011 156.148532 
L 137.159612 151.412523 
L 138.766813 138.042696 
L 139.570413 136.485253 
L 140.374013 136.209496 
L 141.177614 143.122326 
L 141.981214 151.483086 
L 143.588415 176.961778 
L 145.195615 195.285686 
L 145.999216 197.683652 
L 146.802816 195.874176 
L 147.606417 190.924353 
L 148.410017 180.776178 
L 149.213617 172.463439 
L 150.017218 160.855486 
L 150.820818 156.32748 
L 151.624418 155.045171 
L 153.231619 172.037068 
L 154.035219 174.118647 
L 154.83882 172.441991 
L 155.64242 170.126699 
L 156.44602 164.839563 
L 157.249621 154.632779 
L 158.053221 147.134904 
L 158.856822 150.841019 
L 159.660422 162.500616 
L 160.464022 179.484299 
L 161.267623 189.729412 
L 162.071223 198.461876 
L 162.874823 201.908383 
L 163.678424 202.26698 
L 164.482024 199.184675 
L 165.285624 190.801387 
L 166.089225 185.697788 
L 167.696426 179.532292 
L 169.303626 170.71821 
L 170.910827 166.137942 
L 171.714427 167.901996 
L 172.518028 168.065029 
L 173.321628 165.513207 
L 174.125228 161.436129 
L 174.928829 158.774535 
L 175.732429 155.130903 
L 176.536029 149.811927 
L 177.33963 147.963148 
L 178.14323 150.790686 
L 178.946831 154.719511 
L 181.357632 188.196978 
L 182.161232 197.481885 
L 182.964832 205.146537 
L 183.768433 214.338371 
L 184.572033 214.541207 
L 185.375633 211.331529 
L 186.179234 203.492173 
L 186.982834 190.616096 
L 188.590035 169.378846 
L 189.393635 161.727219 
L 190.197236 156.572705 
L 191.000836 159.226675 
L 191.804436 165.313374 
L 192.608037 165.167715 
L 193.411637 160.781986 
L 194.215237 159.385853 
L 195.018838 159.441662 
L 195.822438 161.579225 
L 196.626038 162.872695 
L 197.429639 165.532367 
L 198.233239 169.800236 
L 199.03684 174.849852 
L 199.84044 174.427445 
L 201.447641 161.663695 
L 202.251241 162.110628 
L 203.054841 166.581834 
L 204.662042 178.909801 
L 205.465642 187.366479 
L 206.269243 191.360479 
L 207.072843 190.238533 
L 208.680044 170.072469 
L 209.483644 167.855136 
L 210.287245 171.600664 
L 211.894445 180.608392 
L 212.698046 182.533302 
L 213.501646 189.305957 
L 214.305246 193.648332 
L 215.108847 201.239303 
L 215.912447 200.212404 
L 216.716047 202.040449 
L 217.519648 203.544161 
L 218.323248 203.220174 
L 219.126849 196.796207 
L 219.930449 186.633324 
L 220.734049 173.06464 
L 221.53765 164.848473 
L 222.34125 160.263027 
L 223.948451 166.916983 
L 224.752051 173.386444 
L 226.359252 191.235018 
L 227.162852 199.011754 
L 227.966453 204.469926 
L 228.770053 207.219155 
L 229.573653 206.52362 
L 230.377254 204.667158 
L 231.180854 204.765306 
L 231.984454 210.988529 
L 232.788055 212.555799 
L 233.591655 210.145545 
L 234.395255 199.931469 
L 235.198856 191.764247 
L 236.806056 180.003468 
L 237.609657 178.121792 
L 238.413257 181.820916 
L 240.020458 205.118893 
L 240.824058 207.7607 
L 241.627659 201.31065 
L 242.431259 192.504425 
L 243.234859 190.357276 
L 244.03846 191.499861 
L 244.84206 190.641959 
L 245.64566 191.142806 
L 246.449261 191.962229 
L 247.252861 195.433056 
L 248.056462 193.986801 
L 248.860062 191.710828 
L 249.663662 185.231368 
L 251.270863 180.547494 
L 252.074463 180.712027 
L 253.681664 177.127102 
L 254.485264 176.360062 
L 255.288865 178.208376 
L 256.092465 183.675063 
L 256.896065 187.884814 
L 257.699666 187.939284 
L 259.306867 179.164924 
L 260.110467 176.737571 
L 260.914067 171.556283 
L 261.717668 171.771553 
L 262.521268 177.378987 
L 263.324868 191.354185 
L 264.128469 203.238232 
L 264.932069 208.205884 
L 265.735669 209.060779 
L 266.53927 204.163228 
L 267.34287 197.866202 
L 268.146471 187.877385 
L 268.950071 174.900529 
L 269.753671 168.233218 
L 270.557272 163.218469 
L 271.360872 164.495431 
L 272.164472 167.613158 
L 272.968073 174.278264 
L 274.575273 192.749212 
L 275.378874 201.032421 
L 276.182474 207.221083 
L 276.986074 211.262142 
L 277.789675 212.993468 
L 279.396876 205.638082 
L 281.004076 202.501039 
L 281.807677 201.71973 
L 282.611277 203.678734 
L 283.414877 203.708173 
L 285.022078 200.520313 
L 285.825678 196.890688 
L 286.629279 189.939579 
L 287.432879 177.433353 
L 288.23648 169.349448 
L 289.04008 167.507297 
L 290.647281 184.536972 
L 291.450881 188.150061 
L 292.254481 189.151928 
L 293.058082 187.754288 
L 293.861682 181.17499 
L 295.468883 154.697009 
L 296.272483 153.406135 
L 297.076083 161.339267 
L 297.879684 175.723466 
L 298.683284 185.006455 
L 299.486885 192.630382 
L 300.290485 197.295635 
L 301.094085 198.274563 
L 301.897686 195.776971 
L 302.701286 188.001659 
L 303.504886 184.2903 
L 304.308487 179.198463 
L 305.112087 178.533088 
L 305.915687 178.627997 
L 306.719288 180.375479 
L 307.522888 184.110175 
L 309.130089 193.050666 
L 309.933689 196.017668 
L 310.73729 198.32429 
L 311.54089 198.986193 
L 312.34449 196.921704 
L 313.148091 196.914703 
L 313.951691 196.426338 
L 314.755291 197.361832 
L 315.558892 199.932368 
L 316.362492 204.805821 
L 317.166092 206.666597 
L 317.969693 205.494384 
L 318.773293 201.692616 
L 319.576894 198.626051 
L 320.380494 196.460191 
L 321.184094 197.720473 
L 321.987695 197.47352 
L 323.594895 202.754706 
L 324.398496 210.234437 
L 325.202096 216.347869 
L 326.005696 224.643564 
L 326.809297 226.514799 
L 327.612897 227.389601 
L 328.416498 225.432286 
L 329.220098 224.670691 
L 330.023698 220.440406 
L 330.827299 217.523705 
L 331.630899 214.178145 
L 332.434499 215.122216 
L 333.2381 219.87435 
L 334.0417 225.532557 
L 335.648901 224.061713 
L 336.452501 217.657959 
L 337.256101 209.623818 
L 338.059702 196.22158 
L 338.863302 187.676101 
L 339.666903 183.256832 
L 340.470503 182.877058 
L 341.274103 187.600002 
L 342.077704 193.531205 
L 342.881304 201.416861 
L 343.684904 211.552969 
L 344.488505 216.668912 
L 345.292105 219.230994 
L 346.095705 216.434693 
L 346.899306 217.112843 
L 347.702906 214.682979 
L 348.506507 214.816233 
L 349.310107 219.163399 
L 350.113707 227.978138 
L 350.917308 234.978132 
L 352.524508 246.823523 
L 353.328109 248.310316 
L 354.131709 243.851457 
L 354.935309 236.068374 
L 355.73891 222.430484 
L 357.34611 199.618537 
L 358.149711 194.302659 
L 358.953311 190.468943 
L 359.756912 190.487032 
L 360.560512 195.341181 
L 362.167713 202.958267 
L 362.971313 209.064939 
L 363.774913 213.488589 
L 364.578514 220.382496 
L 365.382114 220.233022 
L 366.185714 218.60319 
L 366.989315 209.423324 
L 367.792915 202.916831 
L 368.596516 199.202478 
L 369.400116 200.131895 
L 370.203716 199.177634 
L 371.007317 200.164892 
L 371.810917 199.346536 
L 372.614517 204.698254 
L 373.418118 206.259612 
L 374.221718 208.651947 
L 375.025318 204.449745 
L 375.828919 203.947805 
L 376.632519 200.604842 
L 377.436119 201.270684 
L 378.23972 200.534807 
L 379.04332 204.154087 
L 379.846921 200.826504 
L 380.650521 198.90296 
L 381.454121 201.420206 
L 382.257722 199.859338 
L 383.061322 191.452875 
L 383.864922 173.433334 
L 384.668523 143.033232 
L 384.668523 143.033232 
" style="fill:none;stroke:#008000;stroke-linecap:square;stroke-width:1.5;"/>
   </g>
   <g id="patch_3">
    <path d="M 43.78125 288.430125 
L 43.78125 22.318125 
" style="fill:none;stroke:#000000;stroke-linecap:square;stroke-linejoin:miter;stroke-width:0.8;"/>
   </g>
   <g id="patch_4">
    <path d="M 400.90125 288.430125 
L 400.90125 22.318125 
" style="fill:none;stroke:#000000;stroke-linecap:square;stroke-linejoin:miter;stroke-width:0.8;"/>
   </g>
   <g id="patch_5">
    <path d="M 43.78125 288.430125 
L 400.90125 288.430125 
" style="fill:none;stroke:#000000;stroke-linecap:square;stroke-linejoin:miter;stroke-width:0.8;"/>
   </g>
   <g id="patch_6">
    <path d="M 43.78125 22.318125 
L 400.90125 22.318125 
" style="fill:none;stroke:#000000;stroke-linecap:square;stroke-linejoin:miter;stroke-width:0.8;"/>
   </g>
   <g id="text_19">
    <!-- Entropy and Loss. -->
    <defs>
     <path d="M 9.1875 72.90625 
L 59.90625 72.90625 
L 59.90625 58.6875 
L 27.984375 58.6875 
L 27.984375 45.125 
L 58.015625 45.125 
L 58.015625 30.90625 
L 27.984375 30.90625 
L 27.984375 14.203125 
L 60.984375 14.203125 
L 60.984375 0 
L 9.1875 0 
z
" id="DejaVuSans-Bold-69"/>
     <path d="M 63.375 33.296875 
L 63.375 0 
L 45.796875 0 
L 45.796875 5.421875 
L 45.796875 25.484375 
Q 45.796875 32.5625 45.484375 35.25 
Q 45.171875 37.9375 44.390625 39.203125 
Q 43.359375 40.921875 41.59375 41.875 
Q 39.84375 42.828125 37.59375 42.828125 
Q 32.125 42.828125 29 38.59375 
Q 25.875 34.375 25.875 26.90625 
L 25.875 0 
L 8.40625 0 
L 8.40625 54.6875 
L 25.875 54.6875 
L 25.875 46.6875 
Q 29.828125 51.46875 34.265625 53.734375 
Q 38.71875 56 44.09375 56 
Q 53.5625 56 58.46875 50.1875 
Q 63.375 44.390625 63.375 33.296875 
z
" id="DejaVuSans-Bold-110"/>
     <path d="M 27.484375 70.21875 
L 27.484375 54.6875 
L 45.515625 54.6875 
L 45.515625 42.1875 
L 27.484375 42.1875 
L 27.484375 19 
Q 27.484375 15.1875 29 13.84375 
Q 30.515625 12.5 35.015625 12.5 
L 44 12.5 
L 44 0 
L 29 0 
Q 18.65625 0 14.328125 4.3125 
Q 10.015625 8.640625 10.015625 19 
L 10.015625 42.1875 
L 1.3125 42.1875 
L 1.3125 54.6875 
L 10.015625 54.6875 
L 10.015625 70.21875 
z
" id="DejaVuSans-Bold-116"/>
     <path d="M 49.03125 39.796875 
Q 46.734375 40.875 44.453125 41.375 
Q 42.1875 41.890625 39.890625 41.890625 
Q 33.15625 41.890625 29.515625 37.5625 
Q 25.875 33.25 25.875 25.203125 
L 25.875 0 
L 8.40625 0 
L 8.40625 54.6875 
L 25.875 54.6875 
L 25.875 45.703125 
Q 29.25 51.078125 33.609375 53.53125 
Q 37.984375 56 44.09375 56 
Q 44.96875 56 45.984375 55.921875 
Q 47.015625 55.859375 48.96875 55.609375 
z
" id="DejaVuSans-Bold-114"/>
     <path d="M 34.421875 43.5 
Q 28.609375 43.5 25.5625 39.328125 
Q 22.515625 35.15625 22.515625 27.296875 
Q 22.515625 19.4375 25.5625 15.25 
Q 28.609375 11.078125 34.421875 11.078125 
Q 40.140625 11.078125 43.15625 15.25 
Q 46.1875 19.4375 46.1875 27.296875 
Q 46.1875 35.15625 43.15625 39.328125 
Q 40.140625 43.5 34.421875 43.5 
z
M 34.421875 56 
Q 48.53125 56 56.46875 48.375 
Q 64.40625 40.765625 64.40625 27.296875 
Q 64.40625 13.8125 56.46875 6.1875 
Q 48.53125 -1.421875 34.421875 -1.421875 
Q 20.265625 -1.421875 12.28125 6.1875 
Q 4.296875 13.8125 4.296875 27.296875 
Q 4.296875 40.765625 12.28125 48.375 
Q 20.265625 56 34.421875 56 
z
" id="DejaVuSans-Bold-111"/>
     <path d="M 25.875 7.90625 
L 25.875 -20.796875 
L 8.40625 -20.796875 
L 8.40625 54.6875 
L 25.875 54.6875 
L 25.875 46.6875 
Q 29.5 51.46875 33.890625 53.734375 
Q 38.28125 56 44 56 
Q 54.109375 56 60.59375 47.96875 
Q 67.09375 39.9375 67.09375 27.296875 
Q 67.09375 14.65625 60.59375 6.609375 
Q 54.109375 -1.421875 44 -1.421875 
Q 38.28125 -1.421875 33.890625 0.84375 
Q 29.5 3.125 25.875 7.90625 
z
M 37.5 43.3125 
Q 31.890625 43.3125 28.875 39.1875 
Q 25.875 35.0625 25.875 27.296875 
Q 25.875 19.53125 28.875 15.40625 
Q 31.890625 11.28125 37.5 11.28125 
Q 43.109375 11.28125 46.0625 15.375 
Q 49.03125 19.484375 49.03125 27.296875 
Q 49.03125 35.109375 46.0625 39.203125 
Q 43.109375 43.3125 37.5 43.3125 
z
" id="DejaVuSans-Bold-112"/>
     <path d="M 1.21875 54.6875 
L 18.703125 54.6875 
L 33.40625 17.578125 
L 45.90625 54.6875 
L 63.375 54.6875 
L 40.375 -5.171875 
Q 36.921875 -14.3125 32.296875 -17.9375 
Q 27.6875 -21.578125 20.125 -21.578125 
L 10.015625 -21.578125 
L 10.015625 -10.109375 
L 15.484375 -10.109375 
Q 19.921875 -10.109375 21.9375 -8.6875 
Q 23.96875 -7.28125 25.09375 -3.609375 
L 25.59375 -2.09375 
z
" id="DejaVuSans-Bold-121"/>
     <path id="DejaVuSans-Bold-32"/>
     <path d="M 32.90625 24.609375 
Q 27.4375 24.609375 24.671875 22.75 
Q 21.921875 20.90625 21.921875 17.28125 
Q 21.921875 13.96875 24.140625 12.078125 
Q 26.375 10.203125 30.328125 10.203125 
Q 35.25 10.203125 38.625 13.734375 
Q 42 17.28125 42 22.609375 
L 42 24.609375 
z
M 59.625 31.203125 
L 59.625 0 
L 42 0 
L 42 8.109375 
Q 38.484375 3.125 34.078125 0.84375 
Q 29.6875 -1.421875 23.390625 -1.421875 
Q 14.890625 -1.421875 9.59375 3.53125 
Q 4.296875 8.5 4.296875 16.40625 
Q 4.296875 26.03125 10.90625 30.515625 
Q 17.53125 35.015625 31.6875 35.015625 
L 42 35.015625 
L 42 36.375 
Q 42 40.53125 38.71875 42.453125 
Q 35.453125 44.390625 28.515625 44.390625 
Q 22.90625 44.390625 18.0625 43.265625 
Q 13.234375 42.140625 9.078125 39.890625 
L 9.078125 53.21875 
Q 14.703125 54.59375 20.359375 55.296875 
Q 26.03125 56 31.6875 56 
Q 46.484375 56 53.046875 50.171875 
Q 59.625 44.34375 59.625 31.203125 
z
" id="DejaVuSans-Bold-97"/>
     <path d="M 45.609375 46.6875 
L 45.609375 75.984375 
L 63.1875 75.984375 
L 63.1875 0 
L 45.609375 0 
L 45.609375 7.90625 
Q 42 3.078125 37.640625 0.828125 
Q 33.296875 -1.421875 27.59375 -1.421875 
Q 17.484375 -1.421875 10.984375 6.609375 
Q 4.5 14.65625 4.5 27.296875 
Q 4.5 39.9375 10.984375 47.96875 
Q 17.484375 56 27.59375 56 
Q 33.25 56 37.625 53.734375 
Q 42 51.46875 45.609375 46.6875 
z
M 34.078125 11.28125 
Q 39.703125 11.28125 42.65625 15.375 
Q 45.609375 19.484375 45.609375 27.296875 
Q 45.609375 35.109375 42.65625 39.203125 
Q 39.703125 43.3125 34.078125 43.3125 
Q 28.515625 43.3125 25.5625 39.203125 
Q 22.609375 35.109375 22.609375 27.296875 
Q 22.609375 19.484375 25.5625 15.375 
Q 28.515625 11.28125 34.078125 11.28125 
z
" id="DejaVuSans-Bold-100"/>
     <path d="M 9.1875 72.90625 
L 27.984375 72.90625 
L 27.984375 14.203125 
L 60.984375 14.203125 
L 60.984375 0 
L 9.1875 0 
z
" id="DejaVuSans-Bold-76"/>
     <path d="M 51.125 52.984375 
L 51.125 39.703125 
Q 45.515625 42.046875 40.28125 43.21875 
Q 35.0625 44.390625 30.421875 44.390625 
Q 25.4375 44.390625 23.015625 43.140625 
Q 20.609375 41.890625 20.609375 39.3125 
Q 20.609375 37.203125 22.4375 36.078125 
Q 24.265625 34.96875 29 34.421875 
L 32.078125 33.984375 
Q 45.515625 32.28125 50.140625 28.375 
Q 54.78125 24.46875 54.78125 16.109375 
Q 54.78125 7.375 48.328125 2.96875 
Q 41.890625 -1.421875 29.109375 -1.421875 
Q 23.6875 -1.421875 17.890625 -0.5625 
Q 12.109375 0.296875 6 2 
L 6 15.28125 
Q 11.234375 12.75 16.71875 11.46875 
Q 22.21875 10.203125 27.875 10.203125 
Q 33.015625 10.203125 35.59375 11.609375 
Q 38.1875 13.03125 38.1875 15.828125 
Q 38.1875 18.171875 36.40625 19.3125 
Q 34.625 20.453125 29.296875 21.09375 
L 26.21875 21.484375 
Q 14.546875 22.953125 9.859375 26.90625 
Q 5.171875 30.859375 5.171875 38.921875 
Q 5.171875 47.609375 11.125 51.796875 
Q 17.09375 56 29.390625 56 
Q 34.234375 56 39.546875 55.265625 
Q 44.875 54.546875 51.125 52.984375 
z
" id="DejaVuSans-Bold-115"/>
     <path d="M 10.203125 18.890625 
L 27.78125 18.890625 
L 27.78125 0 
L 10.203125 0 
z
" id="DejaVuSans-Bold-46"/>
    </defs>
    <g transform="translate(161.657813 16.318125)scale(0.12 -0.12)">
     <use xlink:href="#DejaVuSans-Bold-69"/>
     <use x="68.310547" xlink:href="#DejaVuSans-Bold-110"/>
     <use x="139.501953" xlink:href="#DejaVuSans-Bold-116"/>
     <use x="187.304688" xlink:href="#DejaVuSans-Bold-114"/>
     <use x="236.621094" xlink:href="#DejaVuSans-Bold-111"/>
     <use x="305.322266" xlink:href="#DejaVuSans-Bold-112"/>
     <use x="376.904297" xlink:href="#DejaVuSans-Bold-121"/>
     <use x="442.089844" xlink:href="#DejaVuSans-Bold-32"/>
     <use x="476.904297" xlink:href="#DejaVuSans-Bold-97"/>
     <use x="544.384766" xlink:href="#DejaVuSans-Bold-110"/>
     <use x="615.576172" xlink:href="#DejaVuSans-Bold-100"/>
     <use x="687.158203" xlink:href="#DejaVuSans-Bold-32"/>
     <use x="721.972656" xlink:href="#DejaVuSans-Bold-76"/>
     <use x="785.693359" xlink:href="#DejaVuSans-Bold-111"/>
     <use x="854.394531" xlink:href="#DejaVuSans-Bold-115"/>
     <use x="913.916016" xlink:href="#DejaVuSans-Bold-115"/>
     <use x="973.4375" xlink:href="#DejaVuSans-Bold-46"/>
    </g>
   </g>
   <g id="legend_1">
    <g id="patch_7">
     <path d="M 18.982656 353.02505 
L 429.699844 353.02505 
Q 431.699844 353.02505 431.699844 351.02505 
L 431.699844 337.346925 
Q 431.699844 335.346925 429.699844 335.346925 
L 18.982656 335.346925 
Q 16.982656 335.346925 16.982656 337.346925 
L 16.982656 351.02505 
Q 16.982656 353.02505 18.982656 353.02505 
z
" style="fill:#4c4c4c;opacity:0.5;stroke:#4c4c4c;stroke-linejoin:miter;"/>
    </g>
    <g id="patch_8">
     <path d="M 16.982656 351.02505 
L 427.699844 351.02505 
Q 429.699844 351.02505 429.699844 349.02505 
L 429.699844 335.346925 
Q 429.699844 333.346925 427.699844 333.346925 
L 16.982656 333.346925 
Q 14.982656 333.346925 14.982656 335.346925 
L 14.982656 349.02505 
Q 14.982656 351.02505 16.982656 351.02505 
z
" style="fill:#ffffff;stroke:#cccccc;stroke-linejoin:miter;"/>
    </g>
    <g id="line2d_22">
     <path d="M 18.982656 341.445362 
L 38.982656 341.445362 
" style="fill:none;stroke:#1f77b4;stroke-linecap:square;stroke-width:1.5;"/>
    </g>
    <g id="line2d_23"/>
    <g id="text_20">
     <!-- Policy Loss (Normalized) -->
     <defs>
      <path d="M 19.671875 64.796875 
L 19.671875 37.40625 
L 32.078125 37.40625 
Q 38.96875 37.40625 42.71875 40.96875 
Q 46.484375 44.53125 46.484375 51.125 
Q 46.484375 57.671875 42.71875 61.234375 
Q 38.96875 64.796875 32.078125 64.796875 
z
M 9.8125 72.90625 
L 32.078125 72.90625 
Q 44.34375 72.90625 50.609375 67.359375 
Q 56.890625 61.8125 56.890625 51.125 
Q 56.890625 40.328125 50.609375 34.8125 
Q 44.34375 29.296875 32.078125 29.296875 
L 19.671875 29.296875 
L 19.671875 0 
L 9.8125 0 
z
" id="DejaVuSans-80"/>
      <path d="M 9.421875 75.984375 
L 18.40625 75.984375 
L 18.40625 0 
L 9.421875 0 
z
" id="DejaVuSans-108"/>
      <path d="M 9.421875 54.6875 
L 18.40625 54.6875 
L 18.40625 0 
L 9.421875 0 
z
M 9.421875 75.984375 
L 18.40625 75.984375 
L 18.40625 64.59375 
L 9.421875 64.59375 
z
" id="DejaVuSans-105"/>
      <path d="M 32.171875 -5.078125 
Q 28.375 -14.84375 24.75 -17.8125 
Q 21.140625 -20.796875 15.09375 -20.796875 
L 7.90625 -20.796875 
L 7.90625 -13.28125 
L 13.1875 -13.28125 
Q 16.890625 -13.28125 18.9375 -11.515625 
Q 21 -9.765625 23.484375 -3.21875 
L 25.09375 0.875 
L 2.984375 54.6875 
L 12.5 54.6875 
L 29.59375 11.921875 
L 46.6875 54.6875 
L 56.203125 54.6875 
z
" id="DejaVuSans-121"/>
      <path id="DejaVuSans-32"/>
      <path d="M 31 75.875 
Q 24.46875 64.65625 21.28125 53.65625 
Q 18.109375 42.671875 18.109375 31.390625 
Q 18.109375 20.125 21.3125 9.0625 
Q 24.515625 -2 31 -13.1875 
L 23.1875 -13.1875 
Q 15.875 -1.703125 12.234375 9.375 
Q 8.59375 20.453125 8.59375 31.390625 
Q 8.59375 42.28125 12.203125 53.3125 
Q 15.828125 64.359375 23.1875 75.875 
z
" id="DejaVuSans-40"/>
      <path d="M 9.8125 72.90625 
L 23.09375 72.90625 
L 55.421875 11.921875 
L 55.421875 72.90625 
L 64.984375 72.90625 
L 64.984375 0 
L 51.703125 0 
L 19.390625 60.984375 
L 19.390625 0 
L 9.8125 0 
z
" id="DejaVuSans-78"/>
      <path d="M 41.109375 46.296875 
Q 39.59375 47.171875 37.8125 47.578125 
Q 36.03125 48 33.890625 48 
Q 26.265625 48 22.1875 43.046875 
Q 18.109375 38.09375 18.109375 28.8125 
L 18.109375 0 
L 9.078125 0 
L 9.078125 54.6875 
L 18.109375 54.6875 
L 18.109375 46.1875 
Q 20.953125 51.171875 25.484375 53.578125 
Q 30.03125 56 36.53125 56 
Q 37.453125 56 38.578125 55.875 
Q 39.703125 55.765625 41.0625 55.515625 
z
" id="DejaVuSans-114"/>
      <path d="M 52 44.1875 
Q 55.375 50.25 60.0625 53.125 
Q 64.75 56 71.09375 56 
Q 79.640625 56 84.28125 50.015625 
Q 88.921875 44.046875 88.921875 33.015625 
L 88.921875 0 
L 79.890625 0 
L 79.890625 32.71875 
Q 79.890625 40.578125 77.09375 44.375 
Q 74.3125 48.1875 68.609375 48.1875 
Q 61.625 48.1875 57.5625 43.546875 
Q 53.515625 38.921875 53.515625 30.90625 
L 53.515625 0 
L 44.484375 0 
L 44.484375 32.71875 
Q 44.484375 40.625 41.703125 44.40625 
Q 38.921875 48.1875 33.109375 48.1875 
Q 26.21875 48.1875 22.15625 43.53125 
Q 18.109375 38.875 18.109375 30.90625 
L 18.109375 0 
L 9.078125 0 
L 9.078125 54.6875 
L 18.109375 54.6875 
L 18.109375 46.1875 
Q 21.1875 51.21875 25.484375 53.609375 
Q 29.78125 56 35.6875 56 
Q 41.65625 56 45.828125 52.96875 
Q 50 49.953125 52 44.1875 
z
" id="DejaVuSans-109"/>
      <path d="M 34.28125 27.484375 
Q 23.390625 27.484375 19.1875 25 
Q 14.984375 22.515625 14.984375 16.5 
Q 14.984375 11.71875 18.140625 8.90625 
Q 21.296875 6.109375 26.703125 6.109375 
Q 34.1875 6.109375 38.703125 11.40625 
Q 43.21875 16.703125 43.21875 25.484375 
L 43.21875 27.484375 
z
M 52.203125 31.203125 
L 52.203125 0 
L 43.21875 0 
L 43.21875 8.296875 
Q 40.140625 3.328125 35.546875 0.953125 
Q 30.953125 -1.421875 24.3125 -1.421875 
Q 15.921875 -1.421875 10.953125 3.296875 
Q 6 8.015625 6 15.921875 
Q 6 25.140625 12.171875 29.828125 
Q 18.359375 34.515625 30.609375 34.515625 
L 43.21875 34.515625 
L 43.21875 35.40625 
Q 43.21875 41.609375 39.140625 45 
Q 35.0625 48.390625 27.6875 48.390625 
Q 23 48.390625 18.546875 47.265625 
Q 14.109375 46.140625 10.015625 43.890625 
L 10.015625 52.203125 
Q 14.9375 54.109375 19.578125 55.046875 
Q 24.21875 56 28.609375 56 
Q 40.484375 56 46.34375 49.84375 
Q 52.203125 43.703125 52.203125 31.203125 
z
" id="DejaVuSans-97"/>
      <path d="M 5.515625 54.6875 
L 48.1875 54.6875 
L 48.1875 46.484375 
L 14.40625 7.171875 
L 48.1875 7.171875 
L 48.1875 0 
L 4.296875 0 
L 4.296875 8.203125 
L 38.09375 47.515625 
L 5.515625 47.515625 
z
" id="DejaVuSans-122"/>
      <path d="M 56.203125 29.59375 
L 56.203125 25.203125 
L 14.890625 25.203125 
Q 15.484375 15.921875 20.484375 11.0625 
Q 25.484375 6.203125 34.421875 6.203125 
Q 39.59375 6.203125 44.453125 7.46875 
Q 49.3125 8.734375 54.109375 11.28125 
L 54.109375 2.78125 
Q 49.265625 0.734375 44.1875 -0.34375 
Q 39.109375 -1.421875 33.890625 -1.421875 
Q 20.796875 -1.421875 13.15625 6.1875 
Q 5.515625 13.8125 5.515625 26.8125 
Q 5.515625 40.234375 12.765625 48.109375 
Q 20.015625 56 32.328125 56 
Q 43.359375 56 49.78125 48.890625 
Q 56.203125 41.796875 56.203125 29.59375 
z
M 47.21875 32.234375 
Q 47.125 39.59375 43.09375 43.984375 
Q 39.0625 48.390625 32.421875 48.390625 
Q 24.90625 48.390625 20.390625 44.140625 
Q 15.875 39.890625 15.1875 32.171875 
z
" id="DejaVuSans-101"/>
      <path d="M 45.40625 46.390625 
L 45.40625 75.984375 
L 54.390625 75.984375 
L 54.390625 0 
L 45.40625 0 
L 45.40625 8.203125 
Q 42.578125 3.328125 38.25 0.953125 
Q 33.9375 -1.421875 27.875 -1.421875 
Q 17.96875 -1.421875 11.734375 6.484375 
Q 5.515625 14.40625 5.515625 27.296875 
Q 5.515625 40.1875 11.734375 48.09375 
Q 17.96875 56 27.875 56 
Q 33.9375 56 38.25 53.625 
Q 42.578125 51.265625 45.40625 46.390625 
z
M 14.796875 27.296875 
Q 14.796875 17.390625 18.875 11.75 
Q 22.953125 6.109375 30.078125 6.109375 
Q 37.203125 6.109375 41.296875 11.75 
Q 45.40625 17.390625 45.40625 27.296875 
Q 45.40625 37.203125 41.296875 42.84375 
Q 37.203125 48.484375 30.078125 48.484375 
Q 22.953125 48.484375 18.875 42.84375 
Q 14.796875 37.203125 14.796875 27.296875 
z
" id="DejaVuSans-100"/>
      <path d="M 8.015625 75.875 
L 15.828125 75.875 
Q 23.140625 64.359375 26.78125 53.3125 
Q 30.421875 42.28125 30.421875 31.390625 
Q 30.421875 20.453125 26.78125 9.375 
Q 23.140625 -1.703125 15.828125 -13.1875 
L 8.015625 -13.1875 
Q 14.5 -2 17.703125 9.0625 
Q 20.90625 20.125 20.90625 31.390625 
Q 20.90625 42.671875 17.703125 53.65625 
Q 14.5 64.65625 8.015625 75.875 
z
" id="DejaVuSans-41"/>
     </defs>
     <g transform="translate(46.982656 344.945362)scale(0.1 -0.1)">
      <use xlink:href="#DejaVuSans-80"/>
      <use x="60.255859" xlink:href="#DejaVuSans-111"/>
      <use x="121.4375" xlink:href="#DejaVuSans-108"/>
      <use x="149.220703" xlink:href="#DejaVuSans-105"/>
      <use x="177.003906" xlink:href="#DejaVuSans-99"/>
      <use x="231.984375" xlink:href="#DejaVuSans-121"/>
      <use x="291.164062" xlink:href="#DejaVuSans-32"/>
      <use x="322.951172" xlink:href="#DejaVuSans-76"/>
      <use x="378.648438" xlink:href="#DejaVuSans-111"/>
      <use x="439.830078" xlink:href="#DejaVuSans-115"/>
      <use x="491.929688" xlink:href="#DejaVuSans-115"/>
      <use x="544.029297" xlink:href="#DejaVuSans-32"/>
      <use x="575.816406" xlink:href="#DejaVuSans-40"/>
      <use x="614.830078" xlink:href="#DejaVuSans-78"/>
      <use x="689.634766" xlink:href="#DejaVuSans-111"/>
      <use x="750.816406" xlink:href="#DejaVuSans-114"/>
      <use x="791.914062" xlink:href="#DejaVuSans-109"/>
      <use x="889.326172" xlink:href="#DejaVuSans-97"/>
      <use x="950.605469" xlink:href="#DejaVuSans-108"/>
      <use x="978.388672" xlink:href="#DejaVuSans-105"/>
      <use x="1006.171875" xlink:href="#DejaVuSans-122"/>
      <use x="1058.662109" xlink:href="#DejaVuSans-101"/>
      <use x="1120.185547" xlink:href="#DejaVuSans-100"/>
      <use x="1183.662109" xlink:href="#DejaVuSans-41"/>
     </g>
    </g>
    <g id="line2d_24">
     <path d="M 189.251406 341.445362 
L 209.251406 341.445362 
" style="fill:none;stroke:#ff7f0e;stroke-linecap:square;stroke-width:1.5;"/>
    </g>
    <g id="line2d_25"/>
    <g id="text_21">
     <!-- Value Loss (Normalized) -->
     <defs>
      <path d="M 28.609375 0 
L 0.78125 72.90625 
L 11.078125 72.90625 
L 34.1875 11.53125 
L 57.328125 72.90625 
L 67.578125 72.90625 
L 39.796875 0 
z
" id="DejaVuSans-86"/>
      <path d="M 8.5 21.578125 
L 8.5 54.6875 
L 17.484375 54.6875 
L 17.484375 21.921875 
Q 17.484375 14.15625 20.5 10.265625 
Q 23.53125 6.390625 29.59375 6.390625 
Q 36.859375 6.390625 41.078125 11.03125 
Q 45.3125 15.671875 45.3125 23.6875 
L 45.3125 54.6875 
L 54.296875 54.6875 
L 54.296875 0 
L 45.3125 0 
L 45.3125 8.40625 
Q 42.046875 3.421875 37.71875 1 
Q 33.40625 -1.421875 27.6875 -1.421875 
Q 18.265625 -1.421875 13.375 4.4375 
Q 8.5 10.296875 8.5 21.578125 
z
M 31.109375 56 
z
" id="DejaVuSans-117"/>
     </defs>
     <g transform="translate(217.251406 344.945362)scale(0.1 -0.1)">
      <use xlink:href="#DejaVuSans-86"/>
      <use x="68.298828" xlink:href="#DejaVuSans-97"/>
      <use x="129.578125" xlink:href="#DejaVuSans-108"/>
      <use x="157.361328" xlink:href="#DejaVuSans-117"/>
      <use x="220.740234" xlink:href="#DejaVuSans-101"/>
      <use x="282.263672" xlink:href="#DejaVuSans-32"/>
      <use x="314.050781" xlink:href="#DejaVuSans-76"/>
      <use x="369.748047" xlink:href="#DejaVuSans-111"/>
      <use x="430.929688" xlink:href="#DejaVuSans-115"/>
      <use x="483.029297" xlink:href="#DejaVuSans-115"/>
      <use x="535.128906" xlink:href="#DejaVuSans-32"/>
      <use x="566.916016" xlink:href="#DejaVuSans-40"/>
      <use x="605.929688" xlink:href="#DejaVuSans-78"/>
      <use x="680.734375" xlink:href="#DejaVuSans-111"/>
      <use x="741.916016" xlink:href="#DejaVuSans-114"/>
      <use x="783.013672" xlink:href="#DejaVuSans-109"/>
      <use x="880.425781" xlink:href="#DejaVuSans-97"/>
      <use x="941.705078" xlink:href="#DejaVuSans-108"/>
      <use x="969.488281" xlink:href="#DejaVuSans-105"/>
      <use x="997.271484" xlink:href="#DejaVuSans-122"/>
      <use x="1049.761719" xlink:href="#DejaVuSans-101"/>
      <use x="1111.285156" xlink:href="#DejaVuSans-100"/>
      <use x="1174.761719" xlink:href="#DejaVuSans-41"/>
     </g>
    </g>
    <g id="line2d_26">
     <path d="M 358.629531 341.445362 
L 378.629531 341.445362 
" style="fill:none;stroke:#008000;stroke-linecap:square;stroke-width:1.5;"/>
    </g>
    <g id="line2d_27"/>
    <g id="text_22">
     <!-- Entropy -->
     <defs>
      <path d="M 54.890625 33.015625 
L 54.890625 0 
L 45.90625 0 
L 45.90625 32.71875 
Q 45.90625 40.484375 42.875 44.328125 
Q 39.84375 48.1875 33.796875 48.1875 
Q 26.515625 48.1875 22.3125 43.546875 
Q 18.109375 38.921875 18.109375 30.90625 
L 18.109375 0 
L 9.078125 0 
L 9.078125 54.6875 
L 18.109375 54.6875 
L 18.109375 46.1875 
Q 21.34375 51.125 25.703125 53.5625 
Q 30.078125 56 35.796875 56 
Q 45.21875 56 50.046875 50.171875 
Q 54.890625 44.34375 54.890625 33.015625 
z
" id="DejaVuSans-110"/>
      <path d="M 18.3125 70.21875 
L 18.3125 54.6875 
L 36.8125 54.6875 
L 36.8125 47.703125 
L 18.3125 47.703125 
L 18.3125 18.015625 
Q 18.3125 11.328125 20.140625 9.421875 
Q 21.96875 7.515625 27.59375 7.515625 
L 36.8125 7.515625 
L 36.8125 0 
L 27.59375 0 
Q 17.1875 0 13.234375 3.875 
Q 9.28125 7.765625 9.28125 18.015625 
L 9.28125 47.703125 
L 2.6875 47.703125 
L 2.6875 54.6875 
L 9.28125 54.6875 
L 9.28125 70.21875 
z
" id="DejaVuSans-116"/>
     </defs>
     <g transform="translate(386.629531 344.945362)scale(0.1 -0.1)">
      <use xlink:href="#DejaVuSans-69"/>
      <use x="63.183594" xlink:href="#DejaVuSans-110"/>
      <use x="126.5625" xlink:href="#DejaVuSans-116"/>
      <use x="165.771484" xlink:href="#DejaVuSans-114"/>
      <use x="206.853516" xlink:href="#DejaVuSans-111"/>
      <use x="268.035156" xlink:href="#DejaVuSans-112"/>
      <use x="331.511719" xlink:href="#DejaVuSans-121"/>
     </g>
    </g>
   </g>
  </g>
  <g id="axes_2">
   <g id="matplotlib.axis_3">
    <g id="ytick_8">
     <g id="line2d_28">
      <defs>
       <path d="M 0 0 
L 3.5 0 
" id="mdf81b6ea98" style="stroke:#000000;stroke-width:0.8;"/>
      </defs>
      <g>
       <use style="stroke:#000000;stroke-width:0.8;" x="400.90125" xlink:href="#mdf81b6ea98" y="260.457188"/>
      </g>
     </g>
     <g id="text_23">
      <!-- 0.45 -->
      <g transform="translate(407.90125 264.256407)scale(0.1 -0.1)">
       <use xlink:href="#DejaVuSans-48"/>
       <use x="63.623047" xlink:href="#DejaVuSans-46"/>
       <use x="95.410156" xlink:href="#DejaVuSans-52"/>
       <use x="159.033203" xlink:href="#DejaVuSans-53"/>
      </g>
     </g>
    </g>
    <g id="ytick_9">
     <g id="line2d_29">
      <g>
       <use style="stroke:#000000;stroke-width:0.8;" x="400.90125" xlink:href="#mdf81b6ea98" y="213.595274"/>
      </g>
     </g>
     <g id="text_24">
      <!-- 0.50 -->
      <g transform="translate(407.90125 217.394493)scale(0.1 -0.1)">
       <use xlink:href="#DejaVuSans-48"/>
       <use x="63.623047" xlink:href="#DejaVuSans-46"/>
       <use x="95.410156" xlink:href="#DejaVuSans-53"/>
       <use x="159.033203" xlink:href="#DejaVuSans-48"/>
      </g>
     </g>
    </g>
    <g id="ytick_10">
     <g id="line2d_30">
      <g>
       <use style="stroke:#000000;stroke-width:0.8;" x="400.90125" xlink:href="#mdf81b6ea98" y="166.73336"/>
      </g>
     </g>
     <g id="text_25">
      <!-- 0.55 -->
      <g transform="translate(407.90125 170.532579)scale(0.1 -0.1)">
       <use xlink:href="#DejaVuSans-48"/>
       <use x="63.623047" xlink:href="#DejaVuSans-46"/>
       <use x="95.410156" xlink:href="#DejaVuSans-53"/>
       <use x="159.033203" xlink:href="#DejaVuSans-53"/>
      </g>
     </g>
    </g>
    <g id="ytick_11">
     <g id="line2d_31">
      <g>
       <use style="stroke:#000000;stroke-width:0.8;" x="400.90125" xlink:href="#mdf81b6ea98" y="119.871446"/>
      </g>
     </g>
     <g id="text_26">
      <!-- 0.60 -->
      <g transform="translate(407.90125 123.670665)scale(0.1 -0.1)">
       <use xlink:href="#DejaVuSans-48"/>
       <use x="63.623047" xlink:href="#DejaVuSans-46"/>
       <use x="95.410156" xlink:href="#DejaVuSans-54"/>
       <use x="159.033203" xlink:href="#DejaVuSans-48"/>
      </g>
     </g>
    </g>
    <g id="ytick_12">
     <g id="line2d_32">
      <g>
       <use style="stroke:#000000;stroke-width:0.8;" x="400.90125" xlink:href="#mdf81b6ea98" y="73.009533"/>
      </g>
     </g>
     <g id="text_27">
      <!-- 0.65 -->
      <g transform="translate(407.90125 76.808751)scale(0.1 -0.1)">
       <use xlink:href="#DejaVuSans-48"/>
       <use x="63.623047" xlink:href="#DejaVuSans-46"/>
       <use x="95.410156" xlink:href="#DejaVuSans-54"/>
       <use x="159.033203" xlink:href="#DejaVuSans-53"/>
      </g>
     </g>
    </g>
    <g id="ytick_13">
     <g id="line2d_33">
      <g>
       <use style="stroke:#000000;stroke-width:0.8;" x="400.90125" xlink:href="#mdf81b6ea98" y="26.147619"/>
      </g>
     </g>
     <g id="text_28">
      <!-- 0.70 -->
      <defs>
       <path d="M 8.203125 72.90625 
L 55.078125 72.90625 
L 55.078125 68.703125 
L 28.609375 0 
L 18.3125 0 
L 43.21875 64.59375 
L 8.203125 64.59375 
z
" id="DejaVuSans-55"/>
      </defs>
      <g transform="translate(407.90125 29.946838)scale(0.1 -0.1)">
       <use xlink:href="#DejaVuSans-48"/>
       <use x="63.623047" xlink:href="#DejaVuSans-46"/>
       <use x="95.410156" xlink:href="#DejaVuSans-55"/>
       <use x="159.033203" xlink:href="#DejaVuSans-48"/>
      </g>
     </g>
    </g>
    <g id="text_29">
     <!-- Entropy -->
     <g transform="translate(441.765312 174.909281)rotate(-90)scale(0.1 -0.1)">
      <use xlink:href="#DejaVuSans-69"/>
      <use x="63.183594" xlink:href="#DejaVuSans-110"/>
      <use x="126.5625" xlink:href="#DejaVuSans-116"/>
      <use x="165.771484" xlink:href="#DejaVuSans-114"/>
      <use x="206.853516" xlink:href="#DejaVuSans-111"/>
      <use x="268.035156" xlink:href="#DejaVuSans-112"/>
      <use x="331.511719" xlink:href="#DejaVuSans-121"/>
     </g>
    </g>
   </g>
   <g id="line2d_34">
    <path clip-path="url(#pc7f8d6e2f0)" d="M 60.013977 34.414125 
L 60.817578 37.121115 
L 61.621178 42.799833 
L 62.424778 43.882026 
L 64.031979 58.335823 
L 64.835579 63.242113 
L 66.44278 77.853278 
L 67.246381 66.994816 
L 68.853581 79.810967 
L 69.657182 63.25066 
L 71.264382 67.140006 
L 72.067983 85.158246 
L 72.871583 89.167252 
L 73.675183 93.8645 
L 74.478784 103.105259 
L 75.282384 102.691867 
L 76.085984 100.39028 
L 76.889585 92.202107 
L 77.693185 94.397273 
L 78.496786 97.823006 
L 79.300386 115.589635 
L 80.907587 121.455608 
L 81.711187 95.975368 
L 82.514787 97.824347 
L 83.318388 99.993592 
L 84.121988 84.728933 
L 85.729189 85.561526 
L 86.532789 109.260327 
L 87.33639 110.982551 
L 88.13999 113.996792 
L 88.94359 129.816122 
L 89.747191 138.895658 
L 90.550791 149.590271 
L 91.354391 110.310454 
L 92.961592 119.418704 
L 93.765192 91.579393 
L 95.372393 96.680536 
L 96.175993 144.36768 
L 97.783194 150.751288 
L 98.586795 122.647909 
L 99.390395 124.906313 
L 100.193995 127.545093 
L 100.997596 110.319057 
L 102.604796 101.73034 
L 103.408397 121.607725 
L 104.211997 122.64506 
L 105.015597 128.275735 
L 105.819198 136.749205 
L 106.622798 143.203145 
L 107.426399 140.894407 
L 108.229999 139.092913 
L 109.8372 142.007158 
L 110.6408 131.756159 
L 111.4444 138.748569 
L 112.248001 148.36881 
L 113.051601 135.74835 
L 113.855201 143.009242 
L 114.658802 153.917366 
L 115.462402 130.761449 
L 117.069603 129.492783 
L 117.873203 121.616943 
L 118.676804 120.69804 
L 119.480404 122.303341 
L 120.284004 144.866767 
L 121.087605 141.956433 
L 121.891205 139.585073 
L 122.694805 106.918686 
L 123.498406 107.164822 
L 124.302006 109.525233 
L 125.105606 170.618282 
L 126.712807 169.299339 
L 127.516408 148.294288 
L 128.320008 147.432143 
L 129.123608 146.03918 
L 129.927209 172.996849 
L 130.730809 172.143419 
L 131.534409 171.900635 
L 132.33801 136.918025 
L 133.14161 136.012139 
L 133.94521 134.348237 
L 134.748811 156.845576 
L 136.356011 152.595741 
L 137.159612 120.607932 
L 137.963212 122.341831 
L 138.766813 125.495172 
L 139.570413 110.487542 
L 140.374013 114.346778 
L 141.177614 119.49736 
L 141.981214 139.412119 
L 142.784814 147.785425 
L 143.588415 153.070527 
L 144.392015 195.820377 
L 145.195615 198.835735 
L 145.999216 202.789213 
L 146.802816 180.471419 
L 147.606417 184.100217 
L 148.410017 189.977978 
L 149.213617 147.226843 
L 150.017218 149.254083 
L 150.820818 149.989138 
L 151.624418 133.813453 
L 152.428019 133.31878 
L 153.231619 132.581713 
L 154.035219 191.753328 
L 154.83882 191.334965 
L 155.64242 191.827962 
L 156.44602 118.619406 
L 157.249621 120.931327 
L 158.053221 122.116979 
L 158.856822 141.994141 
L 159.660422 146.297661 
L 160.464022 152.320109 
L 161.267623 207.166361 
L 162.071223 207.062343 
L 162.874823 206.284385 
L 163.678424 189.846698 
L 164.482024 190.653427 
L 165.285624 192.258169 
L 166.089225 174.85633 
L 166.892825 174.377466 
L 167.696426 174.037814 
L 168.500026 160.68688 
L 169.303626 162.356033 
L 170.107227 164.957384 
L 170.910827 149.105039 
L 171.714427 149.210565 
L 172.518028 148.921973 
L 173.321628 158.899519 
L 174.125228 159.832164 
L 174.928829 162.298717 
L 175.732429 122.782037 
L 177.33963 126.534629 
L 178.14323 140.295548 
L 178.946831 141.065462 
L 179.750431 143.703237 
L 180.554031 178.611268 
L 181.357632 179.024828 
L 182.161232 178.741431 
L 182.964832 219.659117 
L 183.768433 219.091039 
L 184.572033 218.874958 
L 185.375633 202.692233 
L 186.179234 207.360153 
L 186.982834 213.438073 
L 187.786435 148.45417 
L 188.590035 149.131518 
L 189.393635 149.51195 
L 190.197236 143.339732 
L 191.000836 142.755844 
L 191.804436 142.020118 
L 192.608037 157.647668 
L 193.411637 165.096038 
L 194.215237 166.601287 
L 195.018838 127.049023 
L 195.822438 127.10606 
L 196.626038 128.947497 
L 197.429639 175.197099 
L 198.233239 174.398806 
L 199.03684 173.040702 
L 199.84044 156.405649 
L 200.64404 154.10937 
L 201.447641 151.32607 
L 202.251241 145.539646 
L 203.858442 145.129718 
L 204.662042 188.526638 
L 206.269243 189.302027 
L 207.072843 179.154823 
L 207.876444 180.341201 
L 208.680044 181.324124 
L 209.483644 137.823856 
L 210.287245 136.058506 
L 211.090845 134.000988 
L 211.894445 205.971715 
L 212.698046 204.201337 
L 213.501646 201.929414 
L 214.305246 169.531732 
L 215.912447 172.125263 
L 216.716047 222.664922 
L 217.519648 228.708431 
L 218.323248 231.372517 
L 219.126849 164.164454 
L 219.930449 164.816384 
L 220.734049 166.136557 
L 221.53765 152.796292 
L 222.34125 152.411726 
L 223.14485 151.019154 
L 223.948451 151.937778 
L 224.752051 156.655807 
L 225.555651 165.08386 
L 226.359252 193.495942 
L 227.162852 208.955957 
L 227.966453 206.641689 
L 228.770053 205.988418 
L 229.573653 204.228543 
L 230.377254 201.157042 
L 231.180854 200.512653 
L 232.788055 206.028305 
L 233.591655 219.782436 
L 234.395255 218.614912 
L 235.198856 216.458543 
L 236.002456 151.409474 
L 237.609657 142.070619 
L 238.413257 202.667318 
L 240.020458 195.962997 
L 240.824058 211.736687 
L 241.627659 211.605854 
L 242.431259 211.020178 
L 243.234859 162.173582 
L 244.03846 162.288103 
L 244.84206 162.922827 
L 245.64566 212.849716 
L 246.449261 210.148201 
L 247.252861 204.218208 
L 248.056462 171.480372 
L 248.860062 172.200009 
L 249.663662 172.439105 
L 250.467263 183.789447 
L 251.270863 183.121261 
L 252.074463 182.235541 
L 252.878064 160.945808 
L 254.485264 160.503814 
L 255.288865 174.95655 
L 256.092465 176.86128 
L 256.896065 179.521959 
L 257.699666 186.225386 
L 258.503266 185.816799 
L 259.306867 184.375179 
L 260.110467 152.163803 
L 260.914067 152.453791 
L 261.717668 152.929136 
L 262.521268 181.759917 
L 263.324868 179.34867 
L 264.128469 175.928635 
L 264.932069 229.17629 
L 265.735669 229.206484 
L 266.53927 229.832968 
L 267.34287 165.984049 
L 268.146471 167.081324 
L 268.950071 168.594953 
L 269.753671 157.852465 
L 270.557272 155.228097 
L 271.360872 153.675196 
L 272.164472 157.741128 
L 272.968073 157.006408 
L 273.771673 155.994436 
L 275.378874 223.619382 
L 276.182474 211.601888 
L 277.789675 206.223996 
L 278.593275 206.442479 
L 279.396876 205.132586 
L 281.004076 207.960241 
L 281.807677 194.235858 
L 282.611277 194.529645 
L 283.414877 194.546292 
L 284.218478 206.277681 
L 285.825678 207.150664 
L 286.629279 172.886071 
L 288.23648 167.818391 
L 289.04008 146.072754 
L 289.84368 146.795687 
L 290.647281 147.357788 
L 291.450881 210.484277 
L 293.058082 214.460492 
L 293.861682 142.667411 
L 294.665282 140.341915 
L 295.468883 139.120621 
L 296.272483 139.015821 
L 297.076083 140.085165 
L 297.879684 140.755977 
L 298.683284 201.834725 
L 299.486885 204.544396 
L 300.290485 206.557391 
L 301.094085 184.811921 
L 301.897686 182.86736 
L 302.701286 180.285728 
L 303.504886 176.495037 
L 304.308487 176.017514 
L 305.112087 176.664528 
L 305.915687 167.435948 
L 307.522888 161.847002 
L 308.326489 194.842035 
L 309.130089 194.36373 
L 309.933689 195.723118 
L 310.73729 199.289572 
L 311.54089 194.035474 
L 312.34449 187.454221 
L 313.148091 186.588948 
L 313.951691 201.642944 
L 314.755291 197.525506 
L 315.558892 196.225724 
L 316.362492 196.181369 
L 317.166092 199.534535 
L 317.969693 211.395583 
L 319.576894 211.396365 
L 320.380494 181.00827 
L 321.184094 177.860012 
L 321.987695 177.272214 
L 322.791295 211.112577 
L 323.594895 217.016538 
L 324.398496 224.822827 
L 325.202096 199.112372 
L 326.005696 217.402445 
L 326.809297 219.68082 
L 327.612897 250.351222 
L 328.416498 248.104885 
L 329.220098 248.752122 
L 330.023698 199.640173 
L 330.827299 202.954458 
L 331.630899 207.1753 
L 332.434499 228.142643 
L 334.0417 232.496552 
L 334.8453 227.765199 
L 336.452501 226.287184 
L 337.256101 201.974831 
L 338.863302 201.341224 
L 339.666903 158.593441 
L 340.470503 158.036312 
L 341.274103 156.870827 
L 342.077704 215.160912 
L 343.684904 212.67598 
L 344.488505 218.212888 
L 345.292105 217.038492 
L 346.095705 215.64296 
L 346.899306 220.430484 
L 347.702906 222.259212 
L 348.506507 224.721714 
L 349.310107 216.135734 
L 350.917308 221.749734 
L 351.720908 266.475038 
L 352.524508 276.334125 
L 353.328109 273.468678 
L 354.131709 238.485314 
L 354.935309 237.982987 
L 355.73891 237.61289 
L 356.54251 200.522038 
L 358.149711 199.170582 
L 358.953311 177.456341 
L 360.560512 177.439694 
L 361.364112 211.893385 
L 362.167713 211.273688 
L 362.971313 210.412604 
L 363.774913 213.447123 
L 365.382114 211.251175 
L 366.185714 231.601112 
L 366.989315 231.043312 
L 367.792915 229.865397 
L 368.596516 170.258352 
L 370.203716 165.078162 
L 371.007317 228.948338 
L 371.810917 227.319546 
L 372.614517 225.218231 
L 373.418118 182.646642 
L 374.221718 181.364402 
L 375.025318 180.438292 
L 375.828919 227.951365 
L 376.632519 224.313881 
L 377.436119 219.749141 
L 378.23972 176.276666 
L 379.04332 174.372103 
L 379.846921 173.131425 
L 380.650521 217.718187 
L 381.454121 224.475634 
L 382.257722 219.136567 
L 383.061322 146.645581 
L 383.864922 145.124914 
L 384.668523 144.191821 
L 384.668523 144.191821 
" style="fill:none;stroke:#008000;stroke-linecap:square;stroke-opacity:0.3;stroke-width:1.5;"/>
   </g>
   <g id="patch_9">
    <path d="M 43.78125 288.430125 
L 43.78125 22.318125 
" style="fill:none;stroke:#000000;stroke-linecap:square;stroke-linejoin:miter;stroke-width:0.8;"/>
   </g>
   <g id="patch_10">
    <path d="M 400.90125 288.430125 
L 400.90125 22.318125 
" style="fill:none;stroke:#000000;stroke-linecap:square;stroke-linejoin:miter;stroke-width:0.8;"/>
   </g>
   <g id="patch_11">
    <path d="M 43.78125 288.430125 
L 400.90125 288.430125 
" style="fill:none;stroke:#000000;stroke-linecap:square;stroke-linejoin:miter;stroke-width:0.8;"/>
   </g>
   <g id="patch_12">
    <path d="M 43.78125 22.318125 
L 400.90125 22.318125 
" style="fill:none;stroke:#000000;stroke-linecap:square;stroke-linejoin:miter;stroke-width:0.8;"/>
   </g>
  </g>
 </g>
 <defs>
  <clipPath id="pc7f8d6e2f0">
   <rect height="266.112" width="357.12" x="43.78125" y="22.318125"/>
  </clipPath>
 </defs>
</svg>
