<?xml version="1.0" encoding="utf-8" standalone="no"?>
<!DOCTYPE svg PUBLIC "-//W3C//DTD SVG 1.1//EN"
  "http://www.w3.org/Graphics/SVG/1.1/DTD/svg11.dtd">
<!-- Created with matplotlib (https://matplotlib.org/) -->
<svg height="358.22505pt" version="1.1" viewBox="0 0 444.6825 358.22505" width="444.6825pt" xmlns="http://www.w3.org/2000/svg" xmlns:xlink="http://www.w3.org/1999/xlink">
 <defs>
  <style type="text/css">
*{stroke-linecap:butt;stroke-linejoin:round;}
  </style>
 </defs>
 <g id="figure_1">
  <g id="patch_1">
   <path d="M 0 358.22505 
L 444.6825 358.22505 
L 444.6825 0 
L 0 0 
z
" style="fill:#ffffff;"/>
  </g>
  <g id="axes_1">
   <g id="patch_2">
    <path d="M 43.78125 288.430125 
L 400.90125 288.430125 
L 400.90125 22.318125 
L 43.78125 22.318125 
z
" style="fill:#ffffff;"/>
   </g>
   <g id="matplotlib.axis_1">
    <g id="xtick_1">
     <g id="line2d_1">
      <defs>
       <path d="M 0 0 
L 0 3.5 
" id="m0e96ee9f9d" style="stroke:#000000;stroke-width:0.8;"/>
      </defs>
      <g>
       <use style="stroke:#000000;stroke-width:0.8;" x="60.013977" xlink:href="#m0e96ee9f9d" y="288.430125"/>
      </g>
     </g>
     <g id="text_1">
      <!-- 0 -->
      <defs>
       <path d="M 31.78125 66.40625 
Q 24.171875 66.40625 20.328125 58.90625 
Q 16.5 51.421875 16.5 36.375 
Q 16.5 21.390625 20.328125 13.890625 
Q 24.171875 6.390625 31.78125 6.390625 
Q 39.453125 6.390625 43.28125 13.890625 
Q 47.125 21.390625 47.125 36.375 
Q 47.125 51.421875 43.28125 58.90625 
Q 39.453125 66.40625 31.78125 66.40625 
z
M 31.78125 74.21875 
Q 44.046875 74.21875 50.515625 64.515625 
Q 56.984375 54.828125 56.984375 36.375 
Q 56.984375 17.96875 50.515625 8.265625 
Q 44.046875 -1.421875 31.78125 -1.421875 
Q 19.53125 -1.421875 13.0625 8.265625 
Q 6.59375 17.96875 6.59375 36.375 
Q 6.59375 54.828125 13.0625 64.515625 
Q 19.53125 74.21875 31.78125 74.21875 
z
" id="DejaVuSans-48"/>
      </defs>
      <g transform="translate(56.832727 303.028562)scale(0.1 -0.1)">
       <use xlink:href="#DejaVuSans-48"/>
      </g>
     </g>
    </g>
    <g id="xtick_2">
     <g id="line2d_2">
      <g>
       <use style="stroke:#000000;stroke-width:0.8;" x="123.796796" xlink:href="#m0e96ee9f9d" y="288.430125"/>
      </g>
     </g>
     <g id="text_2">
      <!-- 100 -->
      <defs>
       <path d="M 12.40625 8.296875 
L 28.515625 8.296875 
L 28.515625 63.921875 
L 10.984375 60.40625 
L 10.984375 69.390625 
L 28.421875 72.90625 
L 38.28125 72.90625 
L 38.28125 8.296875 
L 54.390625 8.296875 
L 54.390625 0 
L 12.40625 0 
z
" id="DejaVuSans-49"/>
      </defs>
      <g transform="translate(114.253046 303.028562)scale(0.1 -0.1)">
       <use xlink:href="#DejaVuSans-49"/>
       <use x="63.623047" xlink:href="#DejaVuSans-48"/>
       <use x="127.246094" xlink:href="#DejaVuSans-48"/>
      </g>
     </g>
    </g>
    <g id="xtick_3">
     <g id="line2d_3">
      <g>
       <use style="stroke:#000000;stroke-width:0.8;" x="187.579614" xlink:href="#m0e96ee9f9d" y="288.430125"/>
      </g>
     </g>
     <g id="text_3">
      <!-- 200 -->
      <defs>
       <path d="M 19.1875 8.296875 
L 53.609375 8.296875 
L 53.609375 0 
L 7.328125 0 
L 7.328125 8.296875 
Q 12.9375 14.109375 22.625 23.890625 
Q 32.328125 33.6875 34.8125 36.53125 
Q 39.546875 41.84375 41.421875 45.53125 
Q 43.3125 49.21875 43.3125 52.78125 
Q 43.3125 58.59375 39.234375 62.25 
Q 35.15625 65.921875 28.609375 65.921875 
Q 23.96875 65.921875 18.8125 64.3125 
Q 13.671875 62.703125 7.8125 59.421875 
L 7.8125 69.390625 
Q 13.765625 71.78125 18.9375 73 
Q 24.125 74.21875 28.421875 74.21875 
Q 39.75 74.21875 46.484375 68.546875 
Q 53.21875 62.890625 53.21875 53.421875 
Q 53.21875 48.921875 51.53125 44.890625 
Q 49.859375 40.875 45.40625 35.40625 
Q 44.1875 33.984375 37.640625 27.21875 
Q 31.109375 20.453125 19.1875 8.296875 
z
" id="DejaVuSans-50"/>
      </defs>
      <g transform="translate(178.035864 303.028562)scale(0.1 -0.1)">
       <use xlink:href="#DejaVuSans-50"/>
       <use x="63.623047" xlink:href="#DejaVuSans-48"/>
       <use x="127.246094" xlink:href="#DejaVuSans-48"/>
      </g>
     </g>
    </g>
    <g id="xtick_4">
     <g id="line2d_4">
      <g>
       <use style="stroke:#000000;stroke-width:0.8;" x="251.362432" xlink:href="#m0e96ee9f9d" y="288.430125"/>
      </g>
     </g>
     <g id="text_4">
      <!-- 300 -->
      <defs>
       <path d="M 40.578125 39.3125 
Q 47.65625 37.796875 51.625 33 
Q 55.609375 28.21875 55.609375 21.1875 
Q 55.609375 10.40625 48.1875 4.484375 
Q 40.765625 -1.421875 27.09375 -1.421875 
Q 22.515625 -1.421875 17.65625 -0.515625 
Q 12.796875 0.390625 7.625 2.203125 
L 7.625 11.71875 
Q 11.71875 9.328125 16.59375 8.109375 
Q 21.484375 6.890625 26.8125 6.890625 
Q 36.078125 6.890625 40.9375 10.546875 
Q 45.796875 14.203125 45.796875 21.1875 
Q 45.796875 27.640625 41.28125 31.265625 
Q 36.765625 34.90625 28.71875 34.90625 
L 20.21875 34.90625 
L 20.21875 43.015625 
L 29.109375 43.015625 
Q 36.375 43.015625 40.234375 45.921875 
Q 44.09375 48.828125 44.09375 54.296875 
Q 44.09375 59.90625 40.109375 62.90625 
Q 36.140625 65.921875 28.71875 65.921875 
Q 24.65625 65.921875 20.015625 65.03125 
Q 15.375 64.15625 9.8125 62.3125 
L 9.8125 71.09375 
Q 15.4375 72.65625 20.34375 73.4375 
Q 25.25 74.21875 29.59375 74.21875 
Q 40.828125 74.21875 47.359375 69.109375 
Q 53.90625 64.015625 53.90625 55.328125 
Q 53.90625 49.265625 50.4375 45.09375 
Q 46.96875 40.921875 40.578125 39.3125 
z
" id="DejaVuSans-51"/>
      </defs>
      <g transform="translate(241.818682 303.028562)scale(0.1 -0.1)">
       <use xlink:href="#DejaVuSans-51"/>
       <use x="63.623047" xlink:href="#DejaVuSans-48"/>
       <use x="127.246094" xlink:href="#DejaVuSans-48"/>
      </g>
     </g>
    </g>
    <g id="xtick_5">
     <g id="line2d_5">
      <g>
       <use style="stroke:#000000;stroke-width:0.8;" x="315.145251" xlink:href="#m0e96ee9f9d" y="288.430125"/>
      </g>
     </g>
     <g id="text_5">
      <!-- 400 -->
      <defs>
       <path d="M 37.796875 64.3125 
L 12.890625 25.390625 
L 37.796875 25.390625 
z
M 35.203125 72.90625 
L 47.609375 72.90625 
L 47.609375 25.390625 
L 58.015625 25.390625 
L 58.015625 17.1875 
L 47.609375 17.1875 
L 47.609375 0 
L 37.796875 0 
L 37.796875 17.1875 
L 4.890625 17.1875 
L 4.890625 26.703125 
z
" id="DejaVuSans-52"/>
      </defs>
      <g transform="translate(305.601501 303.028562)scale(0.1 -0.1)">
       <use xlink:href="#DejaVuSans-52"/>
       <use x="63.623047" xlink:href="#DejaVuSans-48"/>
       <use x="127.246094" xlink:href="#DejaVuSans-48"/>
      </g>
     </g>
    </g>
    <g id="xtick_6">
     <g id="line2d_6">
      <g>
       <use style="stroke:#000000;stroke-width:0.8;" x="378.928069" xlink:href="#m0e96ee9f9d" y="288.430125"/>
      </g>
     </g>
     <g id="text_6">
      <!-- 500 -->
      <defs>
       <path d="M 10.796875 72.90625 
L 49.515625 72.90625 
L 49.515625 64.59375 
L 19.828125 64.59375 
L 19.828125 46.734375 
Q 21.96875 47.46875 24.109375 47.828125 
Q 26.265625 48.1875 28.421875 48.1875 
Q 40.625 48.1875 47.75 41.5 
Q 54.890625 34.8125 54.890625 23.390625 
Q 54.890625 11.625 47.5625 5.09375 
Q 40.234375 -1.421875 26.90625 -1.421875 
Q 22.3125 -1.421875 17.546875 -0.640625 
Q 12.796875 0.140625 7.71875 1.703125 
L 7.71875 11.625 
Q 12.109375 9.234375 16.796875 8.0625 
Q 21.484375 6.890625 26.703125 6.890625 
Q 35.15625 6.890625 40.078125 11.328125 
Q 45.015625 15.765625 45.015625 23.390625 
Q 45.015625 31 40.078125 35.4375 
Q 35.15625 39.890625 26.703125 39.890625 
Q 22.75 39.890625 18.8125 39.015625 
Q 14.890625 38.140625 10.796875 36.28125 
z
" id="DejaVuSans-53"/>
      </defs>
      <g transform="translate(369.384319 303.028562)scale(0.1 -0.1)">
       <use xlink:href="#DejaVuSans-53"/>
       <use x="63.623047" xlink:href="#DejaVuSans-48"/>
       <use x="127.246094" xlink:href="#DejaVuSans-48"/>
      </g>
     </g>
    </g>
    <g id="text_7">
     <!-- Epoch -->
     <defs>
      <path d="M 9.8125 72.90625 
L 55.90625 72.90625 
L 55.90625 64.59375 
L 19.671875 64.59375 
L 19.671875 43.015625 
L 54.390625 43.015625 
L 54.390625 34.71875 
L 19.671875 34.71875 
L 19.671875 8.296875 
L 56.78125 8.296875 
L 56.78125 0 
L 9.8125 0 
z
" id="DejaVuSans-69"/>
      <path d="M 18.109375 8.203125 
L 18.109375 -20.796875 
L 9.078125 -20.796875 
L 9.078125 54.6875 
L 18.109375 54.6875 
L 18.109375 46.390625 
Q 20.953125 51.265625 25.265625 53.625 
Q 29.59375 56 35.59375 56 
Q 45.5625 56 51.78125 48.09375 
Q 58.015625 40.1875 58.015625 27.296875 
Q 58.015625 14.40625 51.78125 6.484375 
Q 45.5625 -1.421875 35.59375 -1.421875 
Q 29.59375 -1.421875 25.265625 0.953125 
Q 20.953125 3.328125 18.109375 8.203125 
z
M 48.6875 27.296875 
Q 48.6875 37.203125 44.609375 42.84375 
Q 40.53125 48.484375 33.40625 48.484375 
Q 26.265625 48.484375 22.1875 42.84375 
Q 18.109375 37.203125 18.109375 27.296875 
Q 18.109375 17.390625 22.1875 11.75 
Q 26.265625 6.109375 33.40625 6.109375 
Q 40.53125 6.109375 44.609375 11.75 
Q 48.6875 17.390625 48.6875 27.296875 
z
" id="DejaVuSans-112"/>
      <path d="M 30.609375 48.390625 
Q 23.390625 48.390625 19.1875 42.75 
Q 14.984375 37.109375 14.984375 27.296875 
Q 14.984375 17.484375 19.15625 11.84375 
Q 23.34375 6.203125 30.609375 6.203125 
Q 37.796875 6.203125 41.984375 11.859375 
Q 46.1875 17.53125 46.1875 27.296875 
Q 46.1875 37.015625 41.984375 42.703125 
Q 37.796875 48.390625 30.609375 48.390625 
z
M 30.609375 56 
Q 42.328125 56 49.015625 48.375 
Q 55.71875 40.765625 55.71875 27.296875 
Q 55.71875 13.875 49.015625 6.21875 
Q 42.328125 -1.421875 30.609375 -1.421875 
Q 18.84375 -1.421875 12.171875 6.21875 
Q 5.515625 13.875 5.515625 27.296875 
Q 5.515625 40.765625 12.171875 48.375 
Q 18.84375 56 30.609375 56 
z
" id="DejaVuSans-111"/>
      <path d="M 48.78125 52.59375 
L 48.78125 44.1875 
Q 44.96875 46.296875 41.140625 47.34375 
Q 37.3125 48.390625 33.40625 48.390625 
Q 24.65625 48.390625 19.8125 42.84375 
Q 14.984375 37.3125 14.984375 27.296875 
Q 14.984375 17.28125 19.8125 11.734375 
Q 24.65625 6.203125 33.40625 6.203125 
Q 37.3125 6.203125 41.140625 7.25 
Q 44.96875 8.296875 48.78125 10.40625 
L 48.78125 2.09375 
Q 45.015625 0.34375 40.984375 -0.53125 
Q 36.96875 -1.421875 32.421875 -1.421875 
Q 20.0625 -1.421875 12.78125 6.34375 
Q 5.515625 14.109375 5.515625 27.296875 
Q 5.515625 40.671875 12.859375 48.328125 
Q 20.21875 56 33.015625 56 
Q 37.15625 56 41.109375 55.140625 
Q 45.0625 54.296875 48.78125 52.59375 
z
" id="DejaVuSans-99"/>
      <path d="M 54.890625 33.015625 
L 54.890625 0 
L 45.90625 0 
L 45.90625 32.71875 
Q 45.90625 40.484375 42.875 44.328125 
Q 39.84375 48.1875 33.796875 48.1875 
Q 26.515625 48.1875 22.3125 43.546875 
Q 18.109375 38.921875 18.109375 30.90625 
L 18.109375 0 
L 9.078125 0 
L 9.078125 75.984375 
L 18.109375 75.984375 
L 18.109375 46.1875 
Q 21.34375 51.125 25.703125 53.5625 
Q 30.078125 56 35.796875 56 
Q 45.21875 56 50.046875 50.171875 
Q 54.890625 44.34375 54.890625 33.015625 
z
" id="DejaVuSans-104"/>
     </defs>
     <g transform="translate(207.030313 316.706687)scale(0.1 -0.1)">
      <use xlink:href="#DejaVuSans-69"/>
      <use x="63.183594" xlink:href="#DejaVuSans-112"/>
      <use x="126.660156" xlink:href="#DejaVuSans-111"/>
      <use x="187.841797" xlink:href="#DejaVuSans-99"/>
      <use x="242.822266" xlink:href="#DejaVuSans-104"/>
     </g>
    </g>
   </g>
   <g id="matplotlib.axis_2">
    <g id="ytick_1">
     <g id="line2d_7">
      <defs>
       <path d="M 0 0 
L -3.5 0 
" id="maec7db68f2" style="stroke:#000000;stroke-width:0.8;"/>
      </defs>
      <g>
       <use style="stroke:#000000;stroke-width:0.8;" x="43.78125" xlink:href="#maec7db68f2" y="276.334125"/>
      </g>
     </g>
     <g id="text_8">
      <!-- 0.0 -->
      <defs>
       <path d="M 10.6875 12.40625 
L 21 12.40625 
L 21 0 
L 10.6875 0 
z
" id="DejaVuSans-46"/>
      </defs>
      <g transform="translate(20.878125 280.133344)scale(0.1 -0.1)">
       <use xlink:href="#DejaVuSans-48"/>
       <use x="63.623047" xlink:href="#DejaVuSans-46"/>
       <use x="95.410156" xlink:href="#DejaVuSans-48"/>
      </g>
     </g>
    </g>
    <g id="ytick_2">
     <g id="line2d_8">
      <g>
       <use style="stroke:#000000;stroke-width:0.8;" x="43.78125" xlink:href="#maec7db68f2" y="227.950125"/>
      </g>
     </g>
     <g id="text_9">
      <!-- 0.2 -->
      <g transform="translate(20.878125 231.749344)scale(0.1 -0.1)">
       <use xlink:href="#DejaVuSans-48"/>
       <use x="63.623047" xlink:href="#DejaVuSans-46"/>
       <use x="95.410156" xlink:href="#DejaVuSans-50"/>
      </g>
     </g>
    </g>
    <g id="ytick_3">
     <g id="line2d_9">
      <g>
       <use style="stroke:#000000;stroke-width:0.8;" x="43.78125" xlink:href="#maec7db68f2" y="179.566125"/>
      </g>
     </g>
     <g id="text_10">
      <!-- 0.4 -->
      <g transform="translate(20.878125 183.365344)scale(0.1 -0.1)">
       <use xlink:href="#DejaVuSans-48"/>
       <use x="63.623047" xlink:href="#DejaVuSans-46"/>
       <use x="95.410156" xlink:href="#DejaVuSans-52"/>
      </g>
     </g>
    </g>
    <g id="ytick_4">
     <g id="line2d_10">
      <g>
       <use style="stroke:#000000;stroke-width:0.8;" x="43.78125" xlink:href="#maec7db68f2" y="131.182125"/>
      </g>
     </g>
     <g id="text_11">
      <!-- 0.6 -->
      <defs>
       <path d="M 33.015625 40.375 
Q 26.375 40.375 22.484375 35.828125 
Q 18.609375 31.296875 18.609375 23.390625 
Q 18.609375 15.53125 22.484375 10.953125 
Q 26.375 6.390625 33.015625 6.390625 
Q 39.65625 6.390625 43.53125 10.953125 
Q 47.40625 15.53125 47.40625 23.390625 
Q 47.40625 31.296875 43.53125 35.828125 
Q 39.65625 40.375 33.015625 40.375 
z
M 52.59375 71.296875 
L 52.59375 62.3125 
Q 48.875 64.0625 45.09375 64.984375 
Q 41.3125 65.921875 37.59375 65.921875 
Q 27.828125 65.921875 22.671875 59.328125 
Q 17.53125 52.734375 16.796875 39.40625 
Q 19.671875 43.65625 24.015625 45.921875 
Q 28.375 48.1875 33.59375 48.1875 
Q 44.578125 48.1875 50.953125 41.515625 
Q 57.328125 34.859375 57.328125 23.390625 
Q 57.328125 12.15625 50.6875 5.359375 
Q 44.046875 -1.421875 33.015625 -1.421875 
Q 20.359375 -1.421875 13.671875 8.265625 
Q 6.984375 17.96875 6.984375 36.375 
Q 6.984375 53.65625 15.1875 63.9375 
Q 23.390625 74.21875 37.203125 74.21875 
Q 40.921875 74.21875 44.703125 73.484375 
Q 48.484375 72.75 52.59375 71.296875 
z
" id="DejaVuSans-54"/>
      </defs>
      <g transform="translate(20.878125 134.981344)scale(0.1 -0.1)">
       <use xlink:href="#DejaVuSans-48"/>
       <use x="63.623047" xlink:href="#DejaVuSans-46"/>
       <use x="95.410156" xlink:href="#DejaVuSans-54"/>
      </g>
     </g>
    </g>
    <g id="ytick_5">
     <g id="line2d_11">
      <g>
       <use style="stroke:#000000;stroke-width:0.8;" x="43.78125" xlink:href="#maec7db68f2" y="82.798125"/>
      </g>
     </g>
     <g id="text_12">
      <!-- 0.8 -->
      <defs>
       <path d="M 31.78125 34.625 
Q 24.75 34.625 20.71875 30.859375 
Q 16.703125 27.09375 16.703125 20.515625 
Q 16.703125 13.921875 20.71875 10.15625 
Q 24.75 6.390625 31.78125 6.390625 
Q 38.8125 6.390625 42.859375 10.171875 
Q 46.921875 13.96875 46.921875 20.515625 
Q 46.921875 27.09375 42.890625 30.859375 
Q 38.875 34.625 31.78125 34.625 
z
M 21.921875 38.8125 
Q 15.578125 40.375 12.03125 44.71875 
Q 8.5 49.078125 8.5 55.328125 
Q 8.5 64.0625 14.71875 69.140625 
Q 20.953125 74.21875 31.78125 74.21875 
Q 42.671875 74.21875 48.875 69.140625 
Q 55.078125 64.0625 55.078125 55.328125 
Q 55.078125 49.078125 51.53125 44.71875 
Q 48 40.375 41.703125 38.8125 
Q 48.828125 37.15625 52.796875 32.3125 
Q 56.78125 27.484375 56.78125 20.515625 
Q 56.78125 9.90625 50.3125 4.234375 
Q 43.84375 -1.421875 31.78125 -1.421875 
Q 19.734375 -1.421875 13.25 4.234375 
Q 6.78125 9.90625 6.78125 20.515625 
Q 6.78125 27.484375 10.78125 32.3125 
Q 14.796875 37.15625 21.921875 38.8125 
z
M 18.3125 54.390625 
Q 18.3125 48.734375 21.84375 45.5625 
Q 25.390625 42.390625 31.78125 42.390625 
Q 38.140625 42.390625 41.71875 45.5625 
Q 45.3125 48.734375 45.3125 54.390625 
Q 45.3125 60.0625 41.71875 63.234375 
Q 38.140625 66.40625 31.78125 66.40625 
Q 25.390625 66.40625 21.84375 63.234375 
Q 18.3125 60.0625 18.3125 54.390625 
z
" id="DejaVuSans-56"/>
      </defs>
      <g transform="translate(20.878125 86.597344)scale(0.1 -0.1)">
       <use xlink:href="#DejaVuSans-48"/>
       <use x="63.623047" xlink:href="#DejaVuSans-46"/>
       <use x="95.410156" xlink:href="#DejaVuSans-56"/>
      </g>
     </g>
    </g>
    <g id="ytick_6">
     <g id="line2d_12">
      <g>
       <use style="stroke:#000000;stroke-width:0.8;" x="43.78125" xlink:href="#maec7db68f2" y="34.414125"/>
      </g>
     </g>
     <g id="text_13">
      <!-- 1.0 -->
      <g transform="translate(20.878125 38.213344)scale(0.1 -0.1)">
       <use xlink:href="#DejaVuSans-49"/>
       <use x="63.623047" xlink:href="#DejaVuSans-46"/>
       <use x="95.410156" xlink:href="#DejaVuSans-48"/>
      </g>
     </g>
    </g>
    <g id="text_14">
     <!-- Loss -->
     <defs>
      <path d="M 9.8125 72.90625 
L 19.671875 72.90625 
L 19.671875 8.296875 
L 55.171875 8.296875 
L 55.171875 0 
L 9.8125 0 
z
" id="DejaVuSans-76"/>
      <path d="M 44.28125 53.078125 
L 44.28125 44.578125 
Q 40.484375 46.53125 36.375 47.5 
Q 32.28125 48.484375 27.875 48.484375 
Q 21.1875 48.484375 17.84375 46.4375 
Q 14.5 44.390625 14.5 40.28125 
Q 14.5 37.15625 16.890625 35.375 
Q 19.28125 33.59375 26.515625 31.984375 
L 29.59375 31.296875 
Q 39.15625 29.25 43.1875 25.515625 
Q 47.21875 21.78125 47.21875 15.09375 
Q 47.21875 7.46875 41.1875 3.015625 
Q 35.15625 -1.421875 24.609375 -1.421875 
Q 20.21875 -1.421875 15.453125 -0.5625 
Q 10.6875 0.296875 5.421875 2 
L 5.421875 11.28125 
Q 10.40625 8.6875 15.234375 7.390625 
Q 20.0625 6.109375 24.8125 6.109375 
Q 31.15625 6.109375 34.5625 8.28125 
Q 37.984375 10.453125 37.984375 14.40625 
Q 37.984375 18.0625 35.515625 20.015625 
Q 33.0625 21.96875 24.703125 23.78125 
L 21.578125 24.515625 
Q 13.234375 26.265625 9.515625 29.90625 
Q 5.8125 33.546875 5.8125 39.890625 
Q 5.8125 47.609375 11.28125 51.796875 
Q 16.75 56 26.8125 56 
Q 31.78125 56 36.171875 55.265625 
Q 40.578125 54.546875 44.28125 53.078125 
z
" id="DejaVuSans-115"/>
     </defs>
     <g transform="translate(14.798438 166.428031)rotate(-90)scale(0.1 -0.1)">
      <use xlink:href="#DejaVuSans-76"/>
      <use x="55.697266" xlink:href="#DejaVuSans-111"/>
      <use x="116.878906" xlink:href="#DejaVuSans-115"/>
      <use x="168.978516" xlink:href="#DejaVuSans-115"/>
     </g>
    </g>
   </g>
   <g id="line2d_13">
    <path clip-path="url(#p6bef167d46)" d="M 60.013977 255.368325 
L 60.651805 268.442284 
L 61.289634 275.04014 
L 61.927462 261.8145 
L 62.56529 270.553559 
L 63.203118 274.984146 
L 63.840946 260.548018 
L 64.478775 268.009514 
L 65.116603 271.720929 
L 65.754431 254.879163 
L 66.392259 265.046182 
L 67.030087 269.646586 
L 67.667915 259.463091 
L 68.305744 267.517313 
L 68.943572 271.301068 
L 69.5814 253.484165 
L 70.219228 262.938679 
L 70.857056 262.134823 
L 71.494885 251.350459 
L 72.132713 259.498588 
L 72.770541 262.251726 
L 73.408369 256.230216 
L 74.046197 259.332793 
L 74.684025 265.044992 
L 75.321854 247.377969 
L 75.959682 240.849238 
L 76.59751 245.955367 
L 77.235338 230.274043 
L 77.873166 225.129621 
L 78.510995 215.402452 
L 79.148823 250.259947 
L 79.786651 245.988055 
L 80.424479 253.632721 
L 81.062307 233.918023 
L 81.700136 228.574058 
L 82.337964 213.169907 
L 82.975792 258.014304 
L 83.61362 253.011124 
L 84.251448 265.56663 
L 84.889276 235.130097 
L 85.527105 243.882308 
L 86.164933 254.986315 
L 86.802761 247.196509 
L 87.440589 34.414125 
L 88.078417 234.278971 
L 88.716246 255.305605 
L 89.354074 266.931423 
L 89.991902 273.576108 
L 90.62973 260.996769 
L 91.267558 267.399257 
L 91.905386 272.037537 
L 92.543215 257.936752 
L 93.818871 271.092396 
L 94.456699 261.229419 
L 95.094527 269.445856 
L 95.732356 274.312795 
L 96.370184 259.62506 
L 97.008012 269.021453 
L 97.64584 274.296161 
L 98.283668 262.152459 
L 98.921496 269.287725 
L 99.559325 273.189716 
L 100.197153 263.502034 
L 100.834981 270.055944 
L 101.472809 274.093017 
L 102.110637 263.168847 
L 102.748466 271.041664 
L 103.386294 274.859484 
L 104.024122 259.096364 
L 104.66195 267.798309 
L 105.299778 271.884468 
L 105.937606 260.058213 
L 106.575435 268.981907 
L 107.213263 272.095643 
L 107.851091 262.662572 
L 108.488919 269.420308 
L 109.126747 274.112255 
L 109.764576 262.419918 
L 110.402404 268.947686 
L 111.040232 272.500242 
L 111.67806 263.106602 
L 112.315888 269.497072 
L 112.953717 273.734919 
L 113.591545 260.115626 
L 114.229373 270.041844 
L 114.867201 274.576344 
L 115.505029 262.993077 
L 116.142857 270.019202 
L 116.780686 274.606862 
L 117.418514 263.169242 
L 118.056342 271.230254 
L 118.69417 275.360959 
L 119.331998 262.464212 
L 119.969827 270.296653 
L 120.607655 274.592705 
L 121.245483 262.038655 
L 121.883311 271.337415 
L 122.521139 275.857519 
L 123.158967 261.512748 
L 123.796796 269.09839 
L 124.434624 272.978292 
L 125.072452 261.50073 
L 125.71028 270.704704 
L 126.348108 275.643133 
L 126.985937 255.632099 
L 127.623765 264.24517 
L 128.261593 270.152882 
L 128.899421 262.393613 
L 129.537249 270.889929 
L 130.175077 275.641598 
L 130.812906 258.943788 
L 131.450734 267.466242 
L 132.088562 274.193146 
L 132.72639 256.847378 
L 133.364218 268.997127 
L 134.002047 274.149728 
L 134.639875 261.512699 
L 135.277703 269.426328 
L 135.915531 273.307122 
L 136.553359 261.999908 
L 137.191187 270.492212 
L 137.829016 274.408972 
L 138.466844 259.780958 
L 139.104672 268.58581 
L 139.7425 274.173665 
L 140.380328 247.566538 
L 141.018157 264.507254 
L 141.655985 270.393879 
L 142.293813 261.064741 
L 142.931641 268.851466 
L 143.569469 274.572045 
L 144.207298 260.234934 
L 144.845126 271.201972 
L 145.482954 276.267168 
L 146.120782 261.931641 
L 146.75861 270.155317 
L 147.396438 274.994692 
L 148.034267 260.839172 
L 148.672095 269.669463 
L 149.309923 273.660317 
L 149.947751 261.346149 
L 150.585579 270.050902 
L 151.223408 274.273451 
L 151.861236 260.601661 
L 152.499064 269.459394 
L 153.136892 274.817321 
L 153.77472 262.369656 
L 154.412548 269.395256 
L 155.050377 273.591107 
L 155.688205 262.620387 
L 156.326033 270.50553 
L 156.963861 275.197574 
L 157.601689 259.624057 
L 158.239518 267.099429 
L 158.877346 272.408095 
L 159.515174 260.856687 
L 160.153002 266.381446 
L 160.79083 269.935505 
L 161.428658 261.966667 
L 162.066487 270.075319 
L 162.704315 274.909923 
L 163.342143 262.669138 
L 163.979971 270.220836 
L 164.617799 274.765382 
L 165.255628 261.474217 
L 165.893456 270.053849 
L 166.531284 275.016186 
L 167.169112 261.820333 
L 167.80694 269.71187 
L 168.444768 273.550072 
L 169.082597 261.166453 
L 169.720425 270.281792 
L 170.358253 274.514605 
L 170.996081 261.277373 
L 172.271738 274.433287 
L 172.909566 259.714267 
L 173.547394 269.724316 
L 174.185222 274.654597 
L 174.82305 260.633734 
L 175.460879 264.646246 
L 176.098707 269.391128 
L 176.736535 259.284318 
L 177.374363 269.136168 
L 178.012191 274.221464 
L 178.650019 262.099359 
L 179.287848 268.992713 
L 179.925676 273.912078 
L 180.563504 259.912033 
L 181.201332 268.6373 
L 181.83916 273.201061 
L 182.476989 260.574558 
L 183.114817 267.144145 
L 183.752645 271.459774 
L 184.390473 259.320893 
L 185.028301 267.634372 
L 185.666129 273.144747 
L 186.303958 262.591977 
L 186.941786 269.850141 
L 187.579614 274.317489 
L 188.217442 261.487406 
L 188.85527 268.360562 
L 189.493099 271.951622 
L 190.130927 259.548437 
L 190.768755 267.860596 
L 191.406583 272.364771 
L 192.044411 260.246386 
L 192.682239 266.906728 
L 193.320068 270.874482 
L 193.957896 262.937696 
L 194.595724 268.310449 
L 195.233552 272.343929 
L 195.87138 259.672727 
L 197.147037 271.493369 
L 197.784865 262.716418 
L 198.422693 271.19127 
L 199.060521 274.939575 
L 199.698349 263.177415 
L 200.336178 270.947571 
L 200.974006 275.070111 
L 201.611834 262.81239 
L 202.249662 270.90452 
L 202.88749 275.882088 
L 203.525319 263.592252 
L 204.163147 271.369304 
L 204.800975 275.663062 
L 205.438803 262.302969 
L 206.076631 270.009953 
L 206.71446 271.928688 
L 207.352288 262.063334 
L 208.627944 271.917425 
L 209.265772 262.873908 
L 210.541429 268.714161 
L 211.179257 257.529495 
L 211.817085 261.428773 
L 212.454913 266.881994 
L 213.092741 261.973929 
L 213.73057 268.3012 
L 214.368398 272.377815 
L 215.006226 263.238478 
L 215.644054 270.951924 
L 216.281882 274.501133 
L 216.91971 263.398426 
L 217.557539 272.17879 
L 218.195367 276.334125 
L 218.833195 263.641417 
L 219.471023 271.406328 
L 220.108851 274.955388 
L 220.74668 261.985153 
L 221.384508 269.688836 
L 222.022336 273.47301 
L 222.660164 260.096387 
L 223.297992 264.97324 
L 223.93582 268.116031 
L 224.573649 256.800624 
L 225.211477 263.373478 
L 225.849305 268.016358 
L 226.487133 258.202123 
L 227.76279 267.703436 
L 228.400618 263.163119 
L 229.038446 268.529578 
L 229.676274 272.126093 
L 230.314102 263.574641 
L 231.589759 270.128352 
L 232.227587 260.569706 
L 233.503243 269.301636 
L 234.141071 258.922243 
L 234.7789 258.245973 
L 235.416728 264.821502 
L 236.054556 262.478447 
L 236.692384 269.24997 
L 237.330212 272.367097 
L 237.96804 263.355552 
L 238.605869 269.60684 
L 239.243697 272.45839 
L 239.881525 262.439984 
L 240.519353 267.88137 
L 241.157181 271.230152 
L 241.79501 261.713416 
L 242.432838 268.826638 
L 243.070666 271.975133 
L 243.708494 264.540521 
L 244.984151 268.755488 
L 245.621979 258.719075 
L 246.897635 269.045311 
L 247.535463 264.846004 
L 248.173291 253.78102 
L 248.81112 266.55305 
L 249.448948 260.347873 
L 250.086776 265.886316 
L 250.724604 270.089683 
L 251.362432 258.830936 
L 252.000261 264.615172 
L 252.638089 267.575697 
L 253.275917 262.744883 
L 253.913745 265.959383 
L 254.551573 269.849781 
L 255.189401 262.21449 
L 255.82723 267.24164 
L 256.465058 270.381024 
L 257.102886 264.043415 
L 257.740714 267.136483 
L 258.378542 269.107562 
L 259.016371 260.840197 
L 259.654199 265.932601 
L 260.292027 268.830248 
L 260.929855 262.457823 
L 261.567683 263.762587 
L 262.205511 267.363706 
L 262.84334 263.444599 
L 263.481168 267.622684 
L 264.118996 270.041302 
L 264.756824 259.618649 
L 265.394652 265.825708 
L 266.032481 268.223386 
L 266.670309 263.762595 
L 267.308137 267.535654 
L 267.945965 268.595077 
L 268.583793 261.064849 
L 269.221621 266.17097 
L 269.85945 268.881842 
L 270.497278 259.834665 
L 271.135106 266.988853 
L 271.772934 270.507005 
L 272.410762 261.469823 
L 273.048591 266.817476 
L 273.686419 268.772762 
L 274.324247 263.453141 
L 274.962075 269.628652 
L 275.599903 273.511142 
L 276.237732 262.519188 
L 276.87556 268.373126 
L 277.513388 270.178828 
L 278.151216 260.393531 
L 278.789044 262.909648 
L 279.426872 267.152201 
L 280.064701 261.312445 
L 280.702529 266.691269 
L 281.340357 269.045975 
L 281.978185 264.642972 
L 282.616013 270.103006 
L 283.253842 272.999281 
L 283.89167 261.748984 
L 284.529498 265.322325 
L 285.167326 267.781843 
L 285.805154 264.631675 
L 286.442982 271.25804 
L 287.080811 274.462413 
L 287.718639 264.743556 
L 288.356467 267.025248 
L 288.994295 270.244856 
L 289.632123 259.63871 
L 290.90778 265.905196 
L 291.545608 264.380164 
L 292.183436 268.466556 
L 292.821264 271.265549 
L 293.459092 262.910126 
L 294.096921 267.952979 
L 294.734749 271.639834 
L 295.372577 262.267917 
L 296.010405 261.707954 
L 296.648233 264.763362 
L 297.286062 259.760795 
L 298.561718 264.305175 
L 299.199546 256.980375 
L 299.837374 261.021846 
L 300.475202 266.567652 
L 301.113031 265.041109 
L 301.750859 267.458255 
L 302.388687 271.253246 
L 303.026515 263.998324 
L 303.664343 262.766131 
L 304.302172 264.362224 
L 304.94 262.774561 
L 305.577828 270.154284 
L 306.215656 273.479752 
L 306.853484 262.874533 
L 307.491313 268.182605 
L 308.129141 269.529807 
L 308.766969 262.979256 
L 309.404797 267.922597 
L 310.042625 270.626764 
L 310.680453 248.452396 
L 311.318282 238.18609 
L 311.95611 239.286197 
L 312.593938 263.675573 
L 313.231766 268.111761 
L 313.869594 270.189287 
L 314.507423 264.735005 
L 315.145251 269.360776 
L 315.783079 271.010585 
L 316.420907 263.458962 
L 317.058735 267.778991 
L 317.696563 270.459974 
L 318.334392 262.326426 
L 318.97222 261.159553 
L 319.610048 258.699041 
L 320.247876 247.147467 
L 320.885704 241.209337 
L 321.523533 253.189803 
L 322.161361 257.166015 
L 322.799189 259.498615 
L 323.437017 262.824554 
L 324.074845 261.673847 
L 324.712673 261.616471 
L 325.350502 265.250946 
L 325.98833 264.028328 
L 326.626158 267.341013 
L 327.263986 268.054536 
L 327.901814 256.639778 
L 328.539643 259.18681 
L 329.177471 258.291447 
L 329.815299 260.455796 
L 330.453127 261.908235 
L 331.090955 264.436079 
L 331.728783 260.014368 
L 332.366612 250.175108 
L 333.00444 262.248242 
L 334.280096 258.729783 
L 334.917924 263.142825 
L 335.555753 261.107002 
L 336.831409 265.932643 
L 337.469237 263.954631 
L 338.107065 264.688232 
L 338.744894 269.213962 
L 339.382722 264.749356 
L 340.02055 266.171028 
L 340.658378 269.167521 
L 341.296206 264.91989 
L 341.934034 269.183921 
L 342.571863 270.932151 
L 343.209691 264.352414 
L 343.847519 264.603618 
L 344.485347 264.996668 
L 345.123175 259.346199 
L 345.761004 262.506931 
L 346.398832 266.483786 
L 347.03666 260.912124 
L 347.674488 252.67967 
L 348.312316 264.375622 
L 348.950144 264.401725 
L 349.587973 267.852056 
L 350.225801 270.291944 
L 350.863629 265.154602 
L 351.501457 267.370552 
L 352.139285 268.333883 
L 352.777114 261.670256 
L 353.414942 261.838867 
L 354.05277 266.81654 
L 354.690598 263.80294 
L 355.328426 269.658203 
L 355.966254 272.946633 
L 356.604083 264.465573 
L 357.241911 269.367137 
L 357.879739 272.243467 
L 358.517567 264.141894 
L 359.155395 269.901582 
L 359.793224 273.562502 
L 360.431052 264.166388 
L 361.06888 269.870135 
L 361.706708 272.725631 
L 362.344536 263.575268 
L 362.982364 270.601481 
L 363.620193 274.211682 
L 364.258021 264.046435 
L 364.895849 268.029126 
L 365.533677 270.285043 
L 366.171505 263.261973 
L 366.809334 268.199149 
L 367.447162 270.978608 
L 368.08499 264.007653 
L 368.722818 267.310181 
L 369.360646 269.497075 
L 369.998475 264.363795 
L 370.636303 268.056586 
L 371.274131 270.503447 
L 371.911959 263.457895 
L 373.187615 270.389471 
L 373.825444 262.639046 
L 374.463272 268.626103 
L 375.1011 271.97903 
L 375.738928 261.401727 
L 376.376756 265.902599 
L 377.014585 269.24859 
L 377.652413 262.422026 
L 378.290241 268.258127 
L 378.928069 271.423015 
L 379.565897 263.076414 
L 380.203725 268.52178 
L 380.841554 271.266533 
L 381.479382 261.698741 
L 382.11721 268.127334 
L 382.755038 271.050844 
L 383.392866 260.994543 
L 384.030695 266.386544 
L 384.668523 268.863564 
L 384.668523 268.863564 
" style="fill:none;stroke:#1f77b4;stroke-linecap:square;stroke-width:1.5;"/>
   </g>
   <g id="line2d_14">
    <path clip-path="url(#p6bef167d46)" d="M 60.013977 43.765323 
L 60.651805 48.473669 
L 61.289634 56.293818 
L 61.927462 34.414125 
L 63.203118 61.069247 
L 63.840946 92.10198 
L 64.478775 99.559861 
L 65.116603 105.613529 
L 65.754431 144.116388 
L 67.030087 152.443204 
L 67.667915 46.078971 
L 68.943572 56.828065 
L 69.5814 205.318635 
L 70.857056 210.355615 
L 71.494885 89.417991 
L 72.770541 97.865277 
L 73.408369 153.553584 
L 74.684025 159.998509 
L 75.321854 153.725361 
L 76.59751 160.137514 
L 77.235338 133.915846 
L 78.510995 140.61565 
L 79.148823 163.242526 
L 80.424479 168.645565 
L 81.062307 99.801913 
L 82.337964 106.850812 
L 82.975792 107.161197 
L 84.251448 114.205958 
L 84.889276 77.520923 
L 86.164933 84.890508 
L 86.802761 115.450317 
L 88.078417 121.473856 
L 88.716246 203.528045 
L 89.991902 205.767382 
L 90.62973 139.882907 
L 91.905386 144.673199 
L 92.543215 113.499004 
L 93.818871 119.640731 
L 94.456699 123.559858 
L 95.732356 128.528412 
L 96.370184 178.322483 
L 97.64584 181.241143 
L 98.283668 150.860256 
L 99.559325 154.582626 
L 100.197153 129.696214 
L 101.472809 134.457474 
L 102.110637 202.01652 
L 103.386294 203.622497 
L 104.024122 134.389293 
L 105.299778 139.417043 
L 105.937606 163.27242 
L 107.213263 166.246679 
L 107.851091 121.730719 
L 109.126747 127.720969 
L 109.764576 223.07156 
L 111.040232 223.827357 
L 111.67806 151.595802 
L 112.953717 154.944413 
L 113.591545 188.945468 
L 114.867201 190.662548 
L 115.505029 186.647425 
L 116.780686 188.786864 
L 117.418514 213.210156 
L 118.056342 213.64166 
L 118.69417 213.925242 
L 119.331998 221.447385 
L 120.607655 222.073779 
L 121.245483 221.310458 
L 122.521139 221.700103 
L 123.158967 186.337327 
L 123.796796 187.822075 
L 124.434624 188.996844 
L 125.072452 243.034528 
L 126.348108 243.630285 
L 126.985937 149.21649 
L 128.261593 156.448262 
L 128.899421 151.584858 
L 130.175077 157.643323 
L 130.812906 170.509411 
L 132.088562 174.791768 
L 132.72639 198.510277 
L 134.002047 199.841167 
L 134.639875 183.375026 
L 135.915531 185.853637 
L 136.553359 212.455795 
L 137.191187 213.047212 
L 137.829016 213.43651 
L 138.466844 189.699626 
L 139.104672 191.773755 
L 139.7425 193.354509 
L 140.380328 177.385764 
L 141.655985 182.117189 
L 142.293813 179.850728 
L 143.569469 183.494127 
L 144.207298 236.337916 
L 144.845126 237.76593 
L 145.482954 238.601927 
L 146.120782 216.973069 
L 146.75861 218.034808 
L 147.396438 218.419209 
L 148.034267 195.237903 
L 148.672095 196.417232 
L 149.309923 197.286049 
L 149.947751 197.206316 
L 150.585579 198.200399 
L 151.223408 198.976023 
L 151.861236 204.947036 
L 153.136892 206.741493 
L 153.77472 197.153859 
L 155.050377 198.938985 
L 155.688205 184.737667 
L 156.963861 187.860236 
L 157.601689 212.892307 
L 158.239518 213.304591 
L 158.877346 213.572804 
L 159.515174 199.709441 
L 160.153002 201.024591 
L 160.79083 201.833748 
L 161.428658 225.730832 
L 162.066487 226.721764 
L 162.704315 227.176989 
L 163.342143 206.404129 
L 163.979971 207.492485 
L 164.617799 208.347394 
L 165.893456 209.161863 
L 166.531284 209.567104 
L 167.169112 214.649329 
L 167.80694 216.136805 
L 168.444768 216.757988 
L 169.082597 209.981525 
L 169.720425 210.858542 
L 170.358253 211.529708 
L 170.996081 203.461908 
L 172.271738 206.379614 
L 172.909566 217.573259 
L 173.547394 218.178204 
L 174.185222 218.566202 
L 174.82305 207.112138 
L 175.460879 208.944621 
L 176.098707 210.421431 
L 176.736535 206.895495 
L 178.012191 209.049898 
L 178.650019 195.411074 
L 179.287848 197.990418 
L 179.925676 199.856949 
L 180.563504 209.866891 
L 181.83916 211.831412 
L 182.476989 210.198159 
L 183.114817 211.986511 
L 183.752645 213.134553 
L 184.390473 210.845613 
L 185.028301 213.127713 
L 185.666129 214.42496 
L 186.303958 213.615786 
L 187.579614 215.820399 
L 188.217442 212.483974 
L 189.493099 214.871005 
L 190.130927 212.058053 
L 191.406583 214.28436 
L 192.044411 209.260047 
L 193.320068 212.695584 
L 193.957896 205.588326 
L 194.595724 207.223377 
L 195.233552 208.082103 
L 195.87138 214.336834 
L 196.509209 217.602274 
L 197.147037 219.49592 
L 197.784865 224.69196 
L 198.422693 231.433033 
L 199.060521 235.129884 
L 199.698349 240.303681 
L 200.336178 242.851047 
L 200.974006 244.099274 
L 201.611834 241.251167 
L 202.249662 242.051597 
L 202.88749 243.111048 
L 203.525319 237.516155 
L 204.163147 240.890369 
L 204.800975 242.408451 
L 205.438803 235.086961 
L 206.076631 238.160539 
L 206.71446 239.205588 
L 207.352288 229.982806 
L 208.627944 233.647627 
L 209.265772 225.573993 
L 209.9036 227.76352 
L 210.541429 229.509996 
L 211.179257 223.922796 
L 211.817085 226.410231 
L 212.454913 228.411021 
L 213.092741 232.140244 
L 213.73057 234.154464 
L 214.368398 234.938605 
L 215.006226 246.641438 
L 215.644054 247.903476 
L 216.281882 248.651271 
L 216.91971 251.134071 
L 218.195367 251.744428 
L 218.833195 245.82645 
L 219.471023 247.281334 
L 220.108851 248.076178 
L 220.74668 241.912107 
L 222.022336 243.854917 
L 222.660164 234.182344 
L 223.297992 237.735373 
L 223.93582 240.044867 
L 224.573649 232.528947 
L 225.849305 235.180758 
L 227.124961 237.298735 
L 227.76279 237.997874 
L 228.400618 244.133229 
L 229.038446 244.993108 
L 229.676274 245.577266 
L 230.314102 239.009778 
L 231.589759 241.382622 
L 232.227587 234.144314 
L 232.865415 237.552318 
L 233.503243 240.204484 
L 234.141071 235.756785 
L 234.7789 239.59742 
L 235.416728 240.576294 
L 236.054556 241.34637 
L 236.692384 242.330214 
L 237.330212 243.011973 
L 237.96804 237.985836 
L 238.605869 238.795707 
L 239.243697 239.405313 
L 239.881525 234.621739 
L 241.157181 236.346664 
L 241.79501 240.848763 
L 242.432838 241.868631 
L 243.070666 242.539708 
L 243.708494 236.135882 
L 244.346322 238.859336 
L 244.984151 240.286189 
L 245.621979 238.082859 
L 246.259807 239.724936 
L 246.897635 240.834576 
L 247.535463 237.268377 
L 248.173291 238.547646 
L 248.81112 239.306922 
L 249.448948 246.89223 
L 250.724604 248.503442 
L 251.362432 239.845358 
L 252.638089 242.204125 
L 253.275917 240.38517 
L 253.913745 241.271843 
L 254.551573 241.809051 
L 255.189401 244.668262 
L 255.82723 246.745765 
L 256.465058 248.091521 
L 257.102886 241.264357 
L 258.378542 242.507999 
L 259.016371 233.627914 
L 259.654199 235.233616 
L 260.292027 236.270698 
L 260.929855 237.979334 
L 262.205511 240.298429 
L 262.84334 237.130707 
L 263.481168 238.201128 
L 264.118996 238.998226 
L 264.756824 240.318218 
L 265.394652 241.294842 
L 266.032481 241.994044 
L 266.670309 244.888443 
L 267.308137 245.894905 
L 267.945965 246.641417 
L 268.583793 244.397203 
L 269.221621 245.823499 
L 269.85945 246.929702 
L 270.497278 249.918363 
L 271.772934 250.837011 
L 272.410762 245.911072 
L 273.686419 247.251572 
L 274.324247 238.880194 
L 274.962075 240.025816 
L 275.599903 240.85622 
L 276.237732 247.845851 
L 277.513388 248.584834 
L 278.789044 251.034337 
L 279.426872 251.929953 
L 280.064701 240.616122 
L 281.340357 242.01936 
L 281.978185 249.709612 
L 283.253842 250.439653 
L 283.89167 247.582409 
L 284.529498 249.065531 
L 285.167326 249.705157 
L 285.805154 252.177494 
L 287.080811 253.086777 
L 287.718639 245.673314 
L 288.356467 247.626649 
L 288.994295 248.441228 
L 289.632123 240.003172 
L 290.269952 241.236972 
L 290.90778 242.145858 
L 291.545608 246.713794 
L 292.183436 247.275313 
L 292.821264 247.661968 
L 293.459092 251.66774 
L 294.096921 251.957495 
L 294.734749 252.078825 
L 295.372577 263.207097 
L 296.010405 264.753329 
L 296.648233 265.93544 
L 297.286062 242.876828 
L 297.92389 244.621674 
L 298.561718 245.590828 
L 299.199546 256.078009 
L 299.837374 257.422786 
L 300.475202 258.071131 
L 301.113031 244.539796 
L 302.388687 245.408208 
L 303.026515 254.614651 
L 304.302172 255.937172 
L 304.94 253.931262 
L 306.215656 256.010344 
L 306.853484 258.915261 
L 307.491313 260.585162 
L 308.129141 261.785283 
L 308.766969 246.999255 
L 309.404797 248.081903 
L 310.042625 248.772863 
L 310.680453 252.8498 
L 311.318282 253.925059 
L 311.95611 254.638878 
L 312.593938 262.025304 
L 313.231766 263.448803 
L 313.869594 264.178102 
L 314.507423 255.406556 
L 315.145251 256.125839 
L 315.783079 256.537895 
L 316.420907 261.210475 
L 317.058735 261.959433 
L 317.696563 262.376296 
L 318.334392 251.73364 
L 318.97222 254.591074 
L 319.610048 255.583484 
L 320.247876 256.168162 
L 321.523533 256.9461 
L 322.161361 250.85645 
L 322.799189 252.249622 
L 323.437017 253.151449 
L 324.074845 258.40435 
L 325.350502 259.664965 
L 325.98833 243.140988 
L 327.263986 244.63437 
L 327.901814 262.307183 
L 328.539643 263.056984 
L 329.177471 263.54014 
L 329.815299 252.726511 
L 330.453127 254.123479 
L 331.090955 255.067583 
L 331.728783 249.541694 
L 332.366612 251.442522 
L 333.00444 252.655881 
L 333.642268 263.533796 
L 334.280096 264.131565 
L 334.917924 264.448479 
L 335.555753 257.937911 
L 336.831409 259.188583 
L 337.469237 257.439113 
L 338.107065 259.235631 
L 338.744894 260.219399 
L 339.382722 246.820258 
L 340.02055 248.1038 
L 340.658378 248.753255 
L 341.296206 263.403903 
L 341.934034 263.51826 
L 342.571863 263.80225 
L 343.209691 260.449162 
L 343.847519 261.2548 
L 344.485347 261.832768 
L 345.123175 263.839372 
L 345.761004 263.734838 
L 346.398832 264.060642 
L 347.03666 247.922928 
L 347.674488 249.558046 
L 348.312316 250.594381 
L 348.950144 253.443856 
L 349.587973 254.217875 
L 350.225801 254.815959 
L 350.863629 260.95443 
L 351.501457 263.326419 
L 352.139285 264.863924 
L 352.777114 258.692475 
L 354.05277 259.716963 
L 354.690598 262.299519 
L 355.328426 263.319784 
L 355.966254 263.76505 
L 357.241911 265.273227 
L 357.879739 265.651298 
L 358.517567 261.520919 
L 359.793224 262.685605 
L 360.431052 266.104101 
L 361.06888 267.858101 
L 361.706708 268.59529 
L 362.344536 275.355984 
L 362.982364 275.931822 
L 363.620193 276.334125 
L 364.258021 269.092918 
L 364.895849 270.379234 
L 365.533677 271.261957 
L 366.171505 268.952673 
L 366.809334 269.897479 
L 367.447162 270.34891 
L 368.08499 264.876118 
L 368.722818 266.341646 
L 369.360646 267.376108 
L 369.998475 273.791068 
L 371.274131 274.441469 
L 371.911959 267.088055 
L 372.549787 267.197127 
L 373.187615 267.620668 
L 373.825444 272.968714 
L 375.1011 273.631134 
L 375.738928 268.206342 
L 376.376756 269.530836 
L 377.014585 270.183715 
L 377.652413 271.533187 
L 378.928069 272.50079 
L 379.565897 269.379621 
L 380.841554 270.612574 
L 381.479382 273.305216 
L 382.11721 274.279293 
L 382.755038 274.85467 
L 383.392866 267.528547 
L 384.668523 268.34796 
L 384.668523 268.34796 
" style="fill:none;stroke:#ff7f0e;stroke-linecap:square;stroke-width:1.5;"/>
   </g>
   <g id="patch_3">
    <path d="M 43.78125 288.430125 
L 43.78125 22.318125 
" style="fill:none;stroke:#000000;stroke-linecap:square;stroke-linejoin:miter;stroke-width:0.8;"/>
   </g>
   <g id="patch_4">
    <path d="M 400.90125 288.430125 
L 400.90125 22.318125 
" style="fill:none;stroke:#000000;stroke-linecap:square;stroke-linejoin:miter;stroke-width:0.8;"/>
   </g>
   <g id="patch_5">
    <path d="M 43.78125 288.430125 
L 400.90125 288.430125 
" style="fill:none;stroke:#000000;stroke-linecap:square;stroke-linejoin:miter;stroke-width:0.8;"/>
   </g>
   <g id="patch_6">
    <path d="M 43.78125 22.318125 
L 400.90125 22.318125 
" style="fill:none;stroke:#000000;stroke-linecap:square;stroke-linejoin:miter;stroke-width:0.8;"/>
   </g>
   <g id="text_15">
    <!-- Entropy and Loss. -->
    <defs>
     <path d="M 54.890625 33.015625 
L 54.890625 0 
L 45.90625 0 
L 45.90625 32.71875 
Q 45.90625 40.484375 42.875 44.328125 
Q 39.84375 48.1875 33.796875 48.1875 
Q 26.515625 48.1875 22.3125 43.546875 
Q 18.109375 38.921875 18.109375 30.90625 
L 18.109375 0 
L 9.078125 0 
L 9.078125 54.6875 
L 18.109375 54.6875 
L 18.109375 46.1875 
Q 21.34375 51.125 25.703125 53.5625 
Q 30.078125 56 35.796875 56 
Q 45.21875 56 50.046875 50.171875 
Q 54.890625 44.34375 54.890625 33.015625 
z
" id="DejaVuSans-110"/>
     <path d="M 18.3125 70.21875 
L 18.3125 54.6875 
L 36.8125 54.6875 
L 36.8125 47.703125 
L 18.3125 47.703125 
L 18.3125 18.015625 
Q 18.3125 11.328125 20.140625 9.421875 
Q 21.96875 7.515625 27.59375 7.515625 
L 36.8125 7.515625 
L 36.8125 0 
L 27.59375 0 
Q 17.1875 0 13.234375 3.875 
Q 9.28125 7.765625 9.28125 18.015625 
L 9.28125 47.703125 
L 2.6875 47.703125 
L 2.6875 54.6875 
L 9.28125 54.6875 
L 9.28125 70.21875 
z
" id="DejaVuSans-116"/>
     <path d="M 41.109375 46.296875 
Q 39.59375 47.171875 37.8125 47.578125 
Q 36.03125 48 33.890625 48 
Q 26.265625 48 22.1875 43.046875 
Q 18.109375 38.09375 18.109375 28.8125 
L 18.109375 0 
L 9.078125 0 
L 9.078125 54.6875 
L 18.109375 54.6875 
L 18.109375 46.1875 
Q 20.953125 51.171875 25.484375 53.578125 
Q 30.03125 56 36.53125 56 
Q 37.453125 56 38.578125 55.875 
Q 39.703125 55.765625 41.0625 55.515625 
z
" id="DejaVuSans-114"/>
     <path d="M 32.171875 -5.078125 
Q 28.375 -14.84375 24.75 -17.8125 
Q 21.140625 -20.796875 15.09375 -20.796875 
L 7.90625 -20.796875 
L 7.90625 -13.28125 
L 13.1875 -13.28125 
Q 16.890625 -13.28125 18.9375 -11.515625 
Q 21 -9.765625 23.484375 -3.21875 
L 25.09375 0.875 
L 2.984375 54.6875 
L 12.5 54.6875 
L 29.59375 11.921875 
L 46.6875 54.6875 
L 56.203125 54.6875 
z
" id="DejaVuSans-121"/>
     <path id="DejaVuSans-32"/>
     <path d="M 34.28125 27.484375 
Q 23.390625 27.484375 19.1875 25 
Q 14.984375 22.515625 14.984375 16.5 
Q 14.984375 11.71875 18.140625 8.90625 
Q 21.296875 6.109375 26.703125 6.109375 
Q 34.1875 6.109375 38.703125 11.40625 
Q 43.21875 16.703125 43.21875 25.484375 
L 43.21875 27.484375 
z
M 52.203125 31.203125 
L 52.203125 0 
L 43.21875 0 
L 43.21875 8.296875 
Q 40.140625 3.328125 35.546875 0.953125 
Q 30.953125 -1.421875 24.3125 -1.421875 
Q 15.921875 -1.421875 10.953125 3.296875 
Q 6 8.015625 6 15.921875 
Q 6 25.140625 12.171875 29.828125 
Q 18.359375 34.515625 30.609375 34.515625 
L 43.21875 34.515625 
L 43.21875 35.40625 
Q 43.21875 41.609375 39.140625 45 
Q 35.0625 48.390625 27.6875 48.390625 
Q 23 48.390625 18.546875 47.265625 
Q 14.109375 46.140625 10.015625 43.890625 
L 10.015625 52.203125 
Q 14.9375 54.109375 19.578125 55.046875 
Q 24.21875 56 28.609375 56 
Q 40.484375 56 46.34375 49.84375 
Q 52.203125 43.703125 52.203125 31.203125 
z
" id="DejaVuSans-97"/>
     <path d="M 45.40625 46.390625 
L 45.40625 75.984375 
L 54.390625 75.984375 
L 54.390625 0 
L 45.40625 0 
L 45.40625 8.203125 
Q 42.578125 3.328125 38.25 0.953125 
Q 33.9375 -1.421875 27.875 -1.421875 
Q 17.96875 -1.421875 11.734375 6.484375 
Q 5.515625 14.40625 5.515625 27.296875 
Q 5.515625 40.1875 11.734375 48.09375 
Q 17.96875 56 27.875 56 
Q 33.9375 56 38.25 53.625 
Q 42.578125 51.265625 45.40625 46.390625 
z
M 14.796875 27.296875 
Q 14.796875 17.390625 18.875 11.75 
Q 22.953125 6.109375 30.078125 6.109375 
Q 37.203125 6.109375 41.296875 11.75 
Q 45.40625 17.390625 45.40625 27.296875 
Q 45.40625 37.203125 41.296875 42.84375 
Q 37.203125 48.484375 30.078125 48.484375 
Q 22.953125 48.484375 18.875 42.84375 
Q 14.796875 37.203125 14.796875 27.296875 
z
" id="DejaVuSans-100"/>
    </defs>
    <g transform="translate(168.625313 16.318125)scale(0.12 -0.12)">
     <use xlink:href="#DejaVuSans-69"/>
     <use x="63.183594" xlink:href="#DejaVuSans-110"/>
     <use x="126.5625" xlink:href="#DejaVuSans-116"/>
     <use x="165.771484" xlink:href="#DejaVuSans-114"/>
     <use x="206.853516" xlink:href="#DejaVuSans-111"/>
     <use x="268.035156" xlink:href="#DejaVuSans-112"/>
     <use x="331.511719" xlink:href="#DejaVuSans-121"/>
     <use x="390.691406" xlink:href="#DejaVuSans-32"/>
     <use x="422.478516" xlink:href="#DejaVuSans-97"/>
     <use x="483.757812" xlink:href="#DejaVuSans-110"/>
     <use x="547.136719" xlink:href="#DejaVuSans-100"/>
     <use x="610.613281" xlink:href="#DejaVuSans-32"/>
     <use x="642.400391" xlink:href="#DejaVuSans-76"/>
     <use x="698.097656" xlink:href="#DejaVuSans-111"/>
     <use x="759.279297" xlink:href="#DejaVuSans-115"/>
     <use x="811.378906" xlink:href="#DejaVuSans-115"/>
     <use x="863.478516" xlink:href="#DejaVuSans-46"/>
    </g>
   </g>
   <g id="legend_1">
    <g id="patch_7">
     <path d="M 20.061562 353.02505 
L 428.620938 353.02505 
Q 430.620938 353.02505 430.620938 351.02505 
L 430.620938 337.346925 
Q 430.620938 335.346925 428.620938 335.346925 
L 20.061562 335.346925 
Q 18.061562 335.346925 18.061562 337.346925 
L 18.061562 351.02505 
Q 18.061562 353.02505 20.061562 353.02505 
z
" style="fill:#4c4c4c;opacity:0.5;stroke:#4c4c4c;stroke-linejoin:miter;"/>
    </g>
    <g id="patch_8">
     <path d="M 18.061562 351.02505 
L 426.620938 351.02505 
Q 428.620938 351.02505 428.620938 349.02505 
L 428.620938 335.346925 
Q 428.620938 333.346925 426.620938 333.346925 
L 18.061562 333.346925 
Q 16.061562 333.346925 16.061562 335.346925 
L 16.061562 349.02505 
Q 16.061562 351.02505 18.061562 351.02505 
z
" style="fill:#ffffff;stroke:#cccccc;stroke-linejoin:miter;"/>
    </g>
    <g id="line2d_15">
     <path d="M 20.061562 341.445362 
L 40.061562 341.445362 
" style="fill:none;stroke:#1f77b4;stroke-linecap:square;stroke-width:1.5;"/>
    </g>
    <g id="line2d_16"/>
    <g id="text_16">
     <!-- Policy Loss (Normalized) -->
     <defs>
      <path d="M 19.671875 64.796875 
L 19.671875 37.40625 
L 32.078125 37.40625 
Q 38.96875 37.40625 42.71875 40.96875 
Q 46.484375 44.53125 46.484375 51.125 
Q 46.484375 57.671875 42.71875 61.234375 
Q 38.96875 64.796875 32.078125 64.796875 
z
M 9.8125 72.90625 
L 32.078125 72.90625 
Q 44.34375 72.90625 50.609375 67.359375 
Q 56.890625 61.8125 56.890625 51.125 
Q 56.890625 40.328125 50.609375 34.8125 
Q 44.34375 29.296875 32.078125 29.296875 
L 19.671875 29.296875 
L 19.671875 0 
L 9.8125 0 
z
" id="DejaVuSans-80"/>
      <path d="M 9.421875 75.984375 
L 18.40625 75.984375 
L 18.40625 0 
L 9.421875 0 
z
" id="DejaVuSans-108"/>
      <path d="M 9.421875 54.6875 
L 18.40625 54.6875 
L 18.40625 0 
L 9.421875 0 
z
M 9.421875 75.984375 
L 18.40625 75.984375 
L 18.40625 64.59375 
L 9.421875 64.59375 
z
" id="DejaVuSans-105"/>
      <path d="M 31 75.875 
Q 24.46875 64.65625 21.28125 53.65625 
Q 18.109375 42.671875 18.109375 31.390625 
Q 18.109375 20.125 21.3125 9.0625 
Q 24.515625 -2 31 -13.1875 
L 23.1875 -13.1875 
Q 15.875 -1.703125 12.234375 9.375 
Q 8.59375 20.453125 8.59375 31.390625 
Q 8.59375 42.28125 12.203125 53.3125 
Q 15.828125 64.359375 23.1875 75.875 
z
" id="DejaVuSans-40"/>
      <path d="M 9.8125 72.90625 
L 23.09375 72.90625 
L 55.421875 11.921875 
L 55.421875 72.90625 
L 64.984375 72.90625 
L 64.984375 0 
L 51.703125 0 
L 19.390625 60.984375 
L 19.390625 0 
L 9.8125 0 
z
" id="DejaVuSans-78"/>
      <path d="M 52 44.1875 
Q 55.375 50.25 60.0625 53.125 
Q 64.75 56 71.09375 56 
Q 79.640625 56 84.28125 50.015625 
Q 88.921875 44.046875 88.921875 33.015625 
L 88.921875 0 
L 79.890625 0 
L 79.890625 32.71875 
Q 79.890625 40.578125 77.09375 44.375 
Q 74.3125 48.1875 68.609375 48.1875 
Q 61.625 48.1875 57.5625 43.546875 
Q 53.515625 38.921875 53.515625 30.90625 
L 53.515625 0 
L 44.484375 0 
L 44.484375 32.71875 
Q 44.484375 40.625 41.703125 44.40625 
Q 38.921875 48.1875 33.109375 48.1875 
Q 26.21875 48.1875 22.15625 43.53125 
Q 18.109375 38.875 18.109375 30.90625 
L 18.109375 0 
L 9.078125 0 
L 9.078125 54.6875 
L 18.109375 54.6875 
L 18.109375 46.1875 
Q 21.1875 51.21875 25.484375 53.609375 
Q 29.78125 56 35.6875 56 
Q 41.65625 56 45.828125 52.96875 
Q 50 49.953125 52 44.1875 
z
" id="DejaVuSans-109"/>
      <path d="M 5.515625 54.6875 
L 48.1875 54.6875 
L 48.1875 46.484375 
L 14.40625 7.171875 
L 48.1875 7.171875 
L 48.1875 0 
L 4.296875 0 
L 4.296875 8.203125 
L 38.09375 47.515625 
L 5.515625 47.515625 
z
" id="DejaVuSans-122"/>
      <path d="M 56.203125 29.59375 
L 56.203125 25.203125 
L 14.890625 25.203125 
Q 15.484375 15.921875 20.484375 11.0625 
Q 25.484375 6.203125 34.421875 6.203125 
Q 39.59375 6.203125 44.453125 7.46875 
Q 49.3125 8.734375 54.109375 11.28125 
L 54.109375 2.78125 
Q 49.265625 0.734375 44.1875 -0.34375 
Q 39.109375 -1.421875 33.890625 -1.421875 
Q 20.796875 -1.421875 13.15625 6.1875 
Q 5.515625 13.8125 5.515625 26.8125 
Q 5.515625 40.234375 12.765625 48.109375 
Q 20.015625 56 32.328125 56 
Q 43.359375 56 49.78125 48.890625 
Q 56.203125 41.796875 56.203125 29.59375 
z
M 47.21875 32.234375 
Q 47.125 39.59375 43.09375 43.984375 
Q 39.0625 48.390625 32.421875 48.390625 
Q 24.90625 48.390625 20.390625 44.140625 
Q 15.875 39.890625 15.1875 32.171875 
z
" id="DejaVuSans-101"/>
      <path d="M 8.015625 75.875 
L 15.828125 75.875 
Q 23.140625 64.359375 26.78125 53.3125 
Q 30.421875 42.28125 30.421875 31.390625 
Q 30.421875 20.453125 26.78125 9.375 
Q 23.140625 -1.703125 15.828125 -13.1875 
L 8.015625 -13.1875 
Q 14.5 -2 17.703125 9.0625 
Q 20.90625 20.125 20.90625 31.390625 
Q 20.90625 42.671875 17.703125 53.65625 
Q 14.5 64.65625 8.015625 75.875 
z
" id="DejaVuSans-41"/>
     </defs>
     <g transform="translate(48.061562 344.945362)scale(0.1 -0.1)">
      <use xlink:href="#DejaVuSans-80"/>
      <use x="60.255859" xlink:href="#DejaVuSans-111"/>
      <use x="121.4375" xlink:href="#DejaVuSans-108"/>
      <use x="149.220703" xlink:href="#DejaVuSans-105"/>
      <use x="177.003906" xlink:href="#DejaVuSans-99"/>
      <use x="231.984375" xlink:href="#DejaVuSans-121"/>
      <use x="291.164062" xlink:href="#DejaVuSans-32"/>
      <use x="322.951172" xlink:href="#DejaVuSans-76"/>
      <use x="378.648438" xlink:href="#DejaVuSans-111"/>
      <use x="439.830078" xlink:href="#DejaVuSans-115"/>
      <use x="491.929688" xlink:href="#DejaVuSans-115"/>
      <use x="544.029297" xlink:href="#DejaVuSans-32"/>
      <use x="575.816406" xlink:href="#DejaVuSans-40"/>
      <use x="614.830078" xlink:href="#DejaVuSans-78"/>
      <use x="689.634766" xlink:href="#DejaVuSans-111"/>
      <use x="750.816406" xlink:href="#DejaVuSans-114"/>
      <use x="791.914062" xlink:href="#DejaVuSans-109"/>
      <use x="889.326172" xlink:href="#DejaVuSans-97"/>
      <use x="950.605469" xlink:href="#DejaVuSans-108"/>
      <use x="978.388672" xlink:href="#DejaVuSans-105"/>
      <use x="1006.171875" xlink:href="#DejaVuSans-122"/>
      <use x="1058.662109" xlink:href="#DejaVuSans-101"/>
      <use x="1120.185547" xlink:href="#DejaVuSans-100"/>
      <use x="1183.662109" xlink:href="#DejaVuSans-41"/>
     </g>
    </g>
    <g id="line2d_17">
     <path d="M 190.330312 341.445362 
L 210.330312 341.445362 
" style="fill:none;stroke:#ff7f0e;stroke-linecap:square;stroke-width:1.5;"/>
    </g>
    <g id="line2d_18"/>
    <g id="text_17">
     <!-- Critic Loss (Normalized) -->
     <defs>
      <path d="M 64.40625 67.28125 
L 64.40625 56.890625 
Q 59.421875 61.53125 53.78125 63.8125 
Q 48.140625 66.109375 41.796875 66.109375 
Q 29.296875 66.109375 22.65625 58.46875 
Q 16.015625 50.828125 16.015625 36.375 
Q 16.015625 21.96875 22.65625 14.328125 
Q 29.296875 6.6875 41.796875 6.6875 
Q 48.140625 6.6875 53.78125 8.984375 
Q 59.421875 11.28125 64.40625 15.921875 
L 64.40625 5.609375 
Q 59.234375 2.09375 53.4375 0.328125 
Q 47.65625 -1.421875 41.21875 -1.421875 
Q 24.65625 -1.421875 15.125 8.703125 
Q 5.609375 18.84375 5.609375 36.375 
Q 5.609375 53.953125 15.125 64.078125 
Q 24.65625 74.21875 41.21875 74.21875 
Q 47.75 74.21875 53.53125 72.484375 
Q 59.328125 70.75 64.40625 67.28125 
z
" id="DejaVuSans-67"/>
     </defs>
     <g transform="translate(218.330312 344.945362)scale(0.1 -0.1)">
      <use xlink:href="#DejaVuSans-67"/>
      <use x="69.824219" xlink:href="#DejaVuSans-114"/>
      <use x="110.9375" xlink:href="#DejaVuSans-105"/>
      <use x="138.720703" xlink:href="#DejaVuSans-116"/>
      <use x="177.929688" xlink:href="#DejaVuSans-105"/>
      <use x="205.712891" xlink:href="#DejaVuSans-99"/>
      <use x="260.693359" xlink:href="#DejaVuSans-32"/>
      <use x="292.480469" xlink:href="#DejaVuSans-76"/>
      <use x="348.177734" xlink:href="#DejaVuSans-111"/>
      <use x="409.359375" xlink:href="#DejaVuSans-115"/>
      <use x="461.458984" xlink:href="#DejaVuSans-115"/>
      <use x="513.558594" xlink:href="#DejaVuSans-32"/>
      <use x="545.345703" xlink:href="#DejaVuSans-40"/>
      <use x="584.359375" xlink:href="#DejaVuSans-78"/>
      <use x="659.164062" xlink:href="#DejaVuSans-111"/>
      <use x="720.345703" xlink:href="#DejaVuSans-114"/>
      <use x="761.443359" xlink:href="#DejaVuSans-109"/>
      <use x="858.855469" xlink:href="#DejaVuSans-97"/>
      <use x="920.134766" xlink:href="#DejaVuSans-108"/>
      <use x="947.917969" xlink:href="#DejaVuSans-105"/>
      <use x="975.701172" xlink:href="#DejaVuSans-122"/>
      <use x="1028.191406" xlink:href="#DejaVuSans-101"/>
      <use x="1089.714844" xlink:href="#DejaVuSans-100"/>
      <use x="1153.191406" xlink:href="#DejaVuSans-41"/>
     </g>
    </g>
    <g id="line2d_19">
     <path d="M 357.550625 341.445362 
L 377.550625 341.445362 
" style="fill:none;stroke:#008000;stroke-linecap:square;stroke-width:1.5;"/>
    </g>
    <g id="line2d_20"/>
    <g id="text_18">
     <!-- Entropy -->
     <g transform="translate(385.550625 344.945362)scale(0.1 -0.1)">
      <use xlink:href="#DejaVuSans-69"/>
      <use x="63.183594" xlink:href="#DejaVuSans-110"/>
      <use x="126.5625" xlink:href="#DejaVuSans-116"/>
      <use x="165.771484" xlink:href="#DejaVuSans-114"/>
      <use x="206.853516" xlink:href="#DejaVuSans-111"/>
      <use x="268.035156" xlink:href="#DejaVuSans-112"/>
      <use x="331.511719" xlink:href="#DejaVuSans-121"/>
     </g>
    </g>
   </g>
  </g>
  <g id="axes_2">
   <g id="matplotlib.axis_3">
    <g id="ytick_7">
     <g id="line2d_21">
      <defs>
       <path d="M 0 0 
L 3.5 0 
" id="m50e3ab0197" style="stroke:#000000;stroke-width:0.8;"/>
      </defs>
      <g>
       <use style="stroke:#000000;stroke-width:0.8;" x="400.90125" xlink:href="#m50e3ab0197" y="246.262092"/>
      </g>
     </g>
     <g id="text_19">
      <!-- 7.0 -->
      <defs>
       <path d="M 8.203125 72.90625 
L 55.078125 72.90625 
L 55.078125 68.703125 
L 28.609375 0 
L 18.3125 0 
L 43.21875 64.59375 
L 8.203125 64.59375 
z
" id="DejaVuSans-55"/>
      </defs>
      <g transform="translate(407.90125 250.061311)scale(0.1 -0.1)">
       <use xlink:href="#DejaVuSans-55"/>
       <use x="63.623047" xlink:href="#DejaVuSans-46"/>
       <use x="95.410156" xlink:href="#DejaVuSans-48"/>
      </g>
     </g>
    </g>
    <g id="ytick_8">
     <g id="line2d_22">
      <g>
       <use style="stroke:#000000;stroke-width:0.8;" x="400.90125" xlink:href="#m50e3ab0197" y="199.720158"/>
      </g>
     </g>
     <g id="text_20">
      <!-- 7.5 -->
      <g transform="translate(407.90125 203.519377)scale(0.1 -0.1)">
       <use xlink:href="#DejaVuSans-55"/>
       <use x="63.623047" xlink:href="#DejaVuSans-46"/>
       <use x="95.410156" xlink:href="#DejaVuSans-53"/>
      </g>
     </g>
    </g>
    <g id="ytick_9">
     <g id="line2d_23">
      <g>
       <use style="stroke:#000000;stroke-width:0.8;" x="400.90125" xlink:href="#m50e3ab0197" y="153.178224"/>
      </g>
     </g>
     <g id="text_21">
      <!-- 8.0 -->
      <g transform="translate(407.90125 156.977443)scale(0.1 -0.1)">
       <use xlink:href="#DejaVuSans-56"/>
       <use x="63.623047" xlink:href="#DejaVuSans-46"/>
       <use x="95.410156" xlink:href="#DejaVuSans-48"/>
      </g>
     </g>
    </g>
    <g id="ytick_10">
     <g id="line2d_24">
      <g>
       <use style="stroke:#000000;stroke-width:0.8;" x="400.90125" xlink:href="#m50e3ab0197" y="106.63629"/>
      </g>
     </g>
     <g id="text_22">
      <!-- 8.5 -->
      <g transform="translate(407.90125 110.435509)scale(0.1 -0.1)">
       <use xlink:href="#DejaVuSans-56"/>
       <use x="63.623047" xlink:href="#DejaVuSans-46"/>
       <use x="95.410156" xlink:href="#DejaVuSans-53"/>
      </g>
     </g>
    </g>
    <g id="ytick_11">
     <g id="line2d_25">
      <g>
       <use style="stroke:#000000;stroke-width:0.8;" x="400.90125" xlink:href="#m50e3ab0197" y="60.094356"/>
      </g>
     </g>
     <g id="text_23">
      <!-- 9.0 -->
      <defs>
       <path d="M 10.984375 1.515625 
L 10.984375 10.5 
Q 14.703125 8.734375 18.5 7.8125 
Q 22.3125 6.890625 25.984375 6.890625 
Q 35.75 6.890625 40.890625 13.453125 
Q 46.046875 20.015625 46.78125 33.40625 
Q 43.953125 29.203125 39.59375 26.953125 
Q 35.25 24.703125 29.984375 24.703125 
Q 19.046875 24.703125 12.671875 31.3125 
Q 6.296875 37.9375 6.296875 49.421875 
Q 6.296875 60.640625 12.9375 67.421875 
Q 19.578125 74.21875 30.609375 74.21875 
Q 43.265625 74.21875 49.921875 64.515625 
Q 56.59375 54.828125 56.59375 36.375 
Q 56.59375 19.140625 48.40625 8.859375 
Q 40.234375 -1.421875 26.421875 -1.421875 
Q 22.703125 -1.421875 18.890625 -0.6875 
Q 15.09375 0.046875 10.984375 1.515625 
z
M 30.609375 32.421875 
Q 37.25 32.421875 41.125 36.953125 
Q 45.015625 41.5 45.015625 49.421875 
Q 45.015625 57.28125 41.125 61.84375 
Q 37.25 66.40625 30.609375 66.40625 
Q 23.96875 66.40625 20.09375 61.84375 
Q 16.21875 57.28125 16.21875 49.421875 
Q 16.21875 41.5 20.09375 36.953125 
Q 23.96875 32.421875 30.609375 32.421875 
z
" id="DejaVuSans-57"/>
      </defs>
      <g transform="translate(407.90125 63.893575)scale(0.1 -0.1)">
       <use xlink:href="#DejaVuSans-57"/>
       <use x="63.623047" xlink:href="#DejaVuSans-46"/>
       <use x="95.410156" xlink:href="#DejaVuSans-48"/>
      </g>
     </g>
    </g>
    <g id="text_24">
     <!-- Entropy -->
     <g transform="translate(435.402812 174.909281)rotate(-90)scale(0.1 -0.1)">
      <use xlink:href="#DejaVuSans-69"/>
      <use x="63.183594" xlink:href="#DejaVuSans-110"/>
      <use x="126.5625" xlink:href="#DejaVuSans-116"/>
      <use x="165.771484" xlink:href="#DejaVuSans-114"/>
      <use x="206.853516" xlink:href="#DejaVuSans-111"/>
      <use x="268.035156" xlink:href="#DejaVuSans-112"/>
      <use x="331.511719" xlink:href="#DejaVuSans-121"/>
     </g>
    </g>
   </g>
   <g id="line2d_26">
    <path clip-path="url(#p6bef167d46)" d="M 60.013977 182.657617 
L 61.289634 185.548201 
L 61.927462 187.142762 
L 62.56529 189.969786 
L 63.203118 192.162092 
L 63.840946 195.963606 
L 64.478775 197.032373 
L 65.116603 197.539481 
L 65.754431 198.254892 
L 66.392259 198.771854 
L 67.030087 201.247653 
L 67.667915 195.25148 
L 68.305744 196.258506 
L 68.943572 196.932283 
L 69.5814 211.122971 
L 70.219228 212.1276 
L 70.857056 212.648779 
L 71.494885 203.620165 
L 72.132713 205.000831 
L 72.770541 205.412243 
L 73.408369 213.343906 
L 74.046197 213.126149 
L 74.684025 213.645774 
L 75.321854 216.664943 
L 75.959682 217.167081 
L 77.235338 215.630087 
L 77.873166 216.48416 
L 78.510995 216.388863 
L 79.148823 223.030096 
L 79.786651 224.379248 
L 80.424479 227.612224 
L 81.062307 222.069187 
L 81.700136 226.562899 
L 82.337964 226.404663 
L 82.975792 218.508732 
L 83.61362 220.593579 
L 84.251448 223.649989 
L 84.889276 224.848806 
L 85.527105 223.72975 
L 86.164933 225.922233 
L 86.802761 222.086719 
L 87.440589 222.090359 
L 88.078417 219.095335 
L 88.716246 236.998633 
L 89.354074 238.931769 
L 89.991902 241.645076 
L 90.62973 236.132576 
L 91.267558 236.166531 
L 91.905386 238.146628 
L 92.543215 233.147583 
L 93.181043 235.547792 
L 93.818871 236.282955 
L 94.456699 241.619688 
L 95.094527 242.232745 
L 95.732356 243.718162 
L 96.370184 248.52941 
L 97.008012 249.341849 
L 97.64584 250.615278 
L 98.283668 246.884692 
L 98.921496 248.370775 
L 99.559325 250.219179 
L 100.197153 253.745058 
L 100.834981 254.742008 
L 101.472809 255.317249 
L 102.110637 255.587425 
L 102.748466 254.679025 
L 103.386294 255.422044 
L 104.024122 247.918572 
L 104.66195 247.901617 
L 105.299778 248.893685 
L 105.937606 251.113953 
L 107.213263 254.231172 
L 107.851091 248.707664 
L 108.488919 249.173449 
L 109.126747 250.972806 
L 109.764576 267.177591 
L 110.402404 266.974126 
L 111.040232 266.958103 
L 111.67806 258.803446 
L 112.315888 259.6462 
L 112.953717 260.789402 
L 113.591545 263.91714 
L 114.229373 264.409246 
L 114.867201 265.227454 
L 115.505029 264.248569 
L 116.142857 265.56603 
L 116.780686 265.989382 
L 117.418514 271.322297 
L 118.056342 270.481674 
L 118.69417 270.151665 
L 119.331998 271.657987 
L 119.969827 271.465797 
L 120.607655 271.402991 
L 121.245483 274.916042 
L 122.521139 276.334125 
L 123.158967 264.679067 
L 123.796796 265.528124 
L 124.434624 266.902576 
L 125.072452 270.768406 
L 126.348108 272.111655 
L 126.985937 253.413717 
L 128.261593 252.526444 
L 128.899421 259.591428 
L 129.537249 259.113837 
L 130.175077 259.46342 
L 130.812906 260.507463 
L 131.450734 258.431094 
L 132.088562 258.448138 
L 132.72639 263.953137 
L 134.002047 266.057914 
L 134.639875 261.991637 
L 135.277703 260.820384 
L 135.915531 259.882866 
L 136.553359 267.764993 
L 137.191187 268.242319 
L 137.829016 268.265932 
L 138.466844 257.472626 
L 139.104672 256.123251 
L 139.7425 255.922938 
L 140.380328 251.560653 
L 141.018157 250.10098 
L 141.655985 250.658466 
L 142.293813 243.904094 
L 143.569469 240.576887 
L 144.207298 261.600687 
L 144.845126 262.003888 
L 145.482954 262.682858 
L 146.120782 261.446801 
L 146.75861 262.245036 
L 147.396438 262.536607 
L 148.034267 254.106181 
L 148.672095 254.580266 
L 149.309923 255.294523 
L 149.947751 254.736948 
L 150.585579 252.644022 
L 151.223408 251.784712 
L 151.861236 256.203279 
L 153.136892 253.115045 
L 153.77472 247.953947 
L 154.412548 247.1566 
L 155.050377 246.757616 
L 155.688205 238.955383 
L 156.326033 238.032867 
L 156.963861 237.934153 
L 157.601689 251.513559 
L 158.239518 250.453625 
L 158.877346 250.045764 
L 159.515174 243.709906 
L 160.153002 246.122898 
L 160.79083 245.59879 
L 161.428658 260.519625 
L 162.066487 260.687226 
L 162.704315 260.33791 
L 163.342143 247.120337 
L 163.979971 247.409644 
L 164.617799 247.38825 
L 165.255628 252.523071 
L 166.531284 252.01867 
L 167.169112 245.573756 
L 167.80694 244.049546 
L 168.444768 243.867564 
L 169.082597 244.477426 
L 169.720425 244.60721 
L 170.358253 243.728282 
L 170.996081 234.698203 
L 171.633909 234.606324 
L 172.271738 232.449927 
L 172.909566 244.591675 
L 173.547394 244.982315 
L 174.185222 244.955328 
L 174.82305 229.38717 
L 176.098707 223.385049 
L 177.374363 217.707256 
L 178.012191 216.052463 
L 178.650019 209.647053 
L 179.287848 209.197957 
L 179.925676 208.159417 
L 180.563504 212.810077 
L 181.201332 211.269577 
L 181.83916 211.586892 
L 182.476989 215.90963 
L 183.114817 210.202764 
L 183.752645 207.478183 
L 184.390473 208.728976 
L 185.028301 205.720858 
L 185.666129 204.335132 
L 186.303958 195.395512 
L 186.941786 195.546024 
L 187.579614 193.808096 
L 189.493099 184.689601 
L 190.130927 189.627172 
L 191.406583 188.012814 
L 192.044411 177.694081 
L 193.320068 174.004818 
L 193.957896 177.609348 
L 195.233552 173.173516 
L 195.87138 181.466612 
L 196.509209 181.231011 
L 197.147037 180.07223 
L 197.784865 190.008934 
L 198.422693 189.641952 
L 199.060521 189.979151 
L 199.698349 191.680461 
L 200.974006 189.886518 
L 201.611834 185.961167 
L 202.249662 186.810978 
L 202.88749 187.884406 
L 203.525319 185.63786 
L 204.163147 185.766668 
L 204.800975 185.487659 
L 205.438803 171.620277 
L 206.076631 171.391335 
L 206.71446 169.476973 
L 207.352288 171.680376 
L 208.627944 167.825909 
L 209.265772 158.224096 
L 209.9036 158.036921 
L 211.179257 152.15442 
L 211.817085 147.812153 
L 212.454913 141.931738 
L 213.092741 162.022859 
L 213.73057 161.200078 
L 214.368398 161.080458 
L 215.006226 165.048331 
L 216.281882 165.92979 
L 216.91971 166.955191 
L 217.557539 167.06367 
L 218.195367 167.024478 
L 218.833195 157.124836 
L 219.471023 157.197984 
L 220.108851 157.733987 
L 220.74668 152.804318 
L 221.384508 152.471069 
L 222.022336 151.739767 
L 222.660164 137.815572 
L 223.297992 139.060861 
L 223.93582 137.463504 
L 224.573649 146.704903 
L 225.211477 142.592111 
L 225.849305 139.284033 
L 226.487133 141.515221 
L 227.124961 143.179335 
L 227.76279 142.555537 
L 228.400618 146.765534 
L 229.038446 145.506752 
L 229.676274 143.998077 
L 230.314102 129.295265 
L 230.95193 132.465835 
L 231.589759 133.768115 
L 232.227587 120.480147 
L 232.865415 119.483862 
L 233.503243 118.734984 
L 234.141071 149.022466 
L 234.7789 146.691854 
L 235.416728 143.239878 
L 236.054556 137.246989 
L 236.692384 136.464112 
L 237.330212 135.164938 
L 237.96804 135.513545 
L 238.605869 134.365638 
L 239.243697 134.185875 
L 239.881525 126.19589 
L 240.519353 124.321831 
L 241.157181 123.419644 
L 241.79501 123.944107 
L 242.432838 124.782822 
L 243.070666 124.83573 
L 243.708494 115.338313 
L 244.346322 113.912817 
L 244.984151 111.380693 
L 245.621979 119.859721 
L 246.259807 118.057745 
L 246.897635 115.118869 
L 247.535463 114.168479 
L 248.173291 114.615001 
L 248.81112 114.338655 
L 249.448948 109.312756 
L 250.086776 108.691 
L 250.724604 106.255726 
L 251.362432 97.008467 
L 252.000261 96.066777 
L 252.638089 92.925413 
L 253.275917 102.30432 
L 253.913745 101.521442 
L 254.551573 98.351583 
L 255.189401 86.49852 
L 255.82723 86.681301 
L 256.465058 86.28893 
L 257.102886 100.246592 
L 257.740714 97.25543 
L 258.378542 92.626519 
L 259.016371 83.458799 
L 259.654199 81.89118 
L 260.292027 78.809737 
L 260.929855 79.409834 
L 262.205511 74.931124 
L 262.84334 81.583586 
L 263.481168 79.222881 
L 264.118996 76.137798 
L 264.756824 68.045636 
L 265.394652 65.111732 
L 266.032481 63.226576 
L 266.670309 67.034527 
L 267.308137 68.85772 
L 267.945965 69.437843 
L 268.583793 76.287378 
L 269.85945 69.448584 
L 270.497278 65.30632 
L 271.135106 66.342196 
L 271.772934 65.358606 
L 272.410762 66.162523 
L 273.048591 66.390932 
L 273.686419 65.034767 
L 274.324247 79.431938 
L 274.962075 79.345741 
L 275.599903 80.052008 
L 276.237732 66.335716 
L 276.87556 65.165173 
L 277.513388 62.930079 
L 278.151216 52.609127 
L 278.789044 51.408756 
L 279.426872 49.7339 
L 280.064701 60.244735 
L 280.702529 57.94182 
L 281.340357 55.171255 
L 281.978185 69.299448 
L 282.616013 72.343784 
L 283.253842 74.380385 
L 283.89167 63.921659 
L 284.529498 62.246981 
L 285.167326 59.104019 
L 285.805154 75.575962 
L 286.442982 78.302141 
L 287.080811 79.805223 
L 287.718639 55.909126 
L 288.356467 56.158396 
L 288.994295 57.681186 
L 289.632123 62.078847 
L 290.269952 60.652463 
L 290.90778 55.150216 
L 291.545608 53.29977 
L 292.183436 54.645727 
L 292.821264 54.797438 
L 293.459092 57.236617 
L 294.096921 56.59755 
L 294.734749 55.59949 
L 295.372577 42.632964 
L 296.010405 44.221711 
L 296.648233 43.525474 
L 297.286062 34.414125 
L 297.92389 37.814969 
L 298.561718 38.006715 
L 299.199546 66.489469 
L 299.837374 62.851427 
L 300.475202 58.030325 
L 301.113031 60.395469 
L 301.750859 60.470393 
L 302.388687 58.390472 
L 303.026515 46.718414 
L 303.664343 53.276157 
L 304.302172 54.839338 
L 304.94 80.47829 
L 305.577828 80.155605 
L 306.215656 80.661337 
L 306.853484 55.325097 
L 308.129141 59.305175 
L 308.766969 84.528321 
L 309.404797 84.378385 
L 310.042625 83.535765 
L 310.680453 59.992801 
L 311.318282 60.069589 
L 311.95611 61.516745 
L 312.593938 82.710188 
L 313.231766 79.689021 
L 313.869594 77.967205 
L 314.507423 80.193865 
L 315.145251 81.381453 
L 315.783079 82.148618 
L 316.420907 79.430429 
L 317.058735 81.03045 
L 317.696563 81.600542 
L 318.334392 59.433806 
L 318.97222 65.738638 
L 319.610048 65.585063 
L 320.247876 83.478596 
L 320.885704 85.254029 
L 321.523533 82.983427 
L 322.161361 88.915684 
L 322.799189 90.818772 
L 323.437017 93.191018 
L 324.074845 98.460328 
L 324.712673 96.179872 
L 325.350502 95.325533 
L 325.98833 84.454374 
L 326.626158 86.541485 
L 327.263986 88.080165 
L 327.901814 88.803654 
L 328.539643 91.880748 
L 329.177471 91.190193 
L 329.815299 108.727573 
L 330.453127 109.702819 
L 331.090955 109.316929 
L 331.728783 100.831686 
L 332.366612 103.709842 
L 333.00444 102.530688 
L 333.642268 98.172175 
L 334.917924 105.398635 
L 335.555753 112.558605 
L 336.193581 112.834596 
L 336.831409 115.0198 
L 337.469237 119.089805 
L 338.107065 120.184626 
L 338.744894 120.555159 
L 339.382722 100.439937 
L 340.02055 100.511576 
L 340.658378 101.807021 
L 341.296206 119.621813 
L 341.934034 121.559522 
L 342.571863 122.275022 
L 343.209691 119.254831 
L 343.847519 120.612505 
L 344.485347 120.903499 
L 345.123175 119.615244 
L 345.761004 123.354663 
L 346.398832 126.122742 
L 347.03666 136.229932 
L 347.674488 142.359085 
L 348.312316 141.748247 
L 348.950144 147.553383 
L 349.587973 149.217053 
L 350.225801 150.243165 
L 350.863629 123.968253 
L 352.139285 127.911669 
L 352.777114 145.214071 
L 353.414942 145.86681 
L 354.05277 146.96456 
L 354.690598 170.492344 
L 355.328426 172.340304 
L 355.966254 172.893086 
L 356.604083 159.938544 
L 357.241911 161.50856 
L 357.879739 162.505732 
L 358.517567 172.066 
L 359.155395 172.593037 
L 359.793224 172.402267 
L 360.431052 162.760685 
L 361.06888 163.849425 
L 361.706708 165.408922 
L 362.344536 173.122649 
L 363.620193 174.732702 
L 364.258021 154.520807 
L 364.895849 157.714502 
L 365.533677 159.485719 
L 366.171505 165.51243 
L 366.809334 165.95287 
L 367.447162 167.501404 
L 368.08499 162.306795 
L 369.360646 164.654495 
L 369.998475 163.62177 
L 370.636303 166.170894 
L 371.274131 167.294788 
L 371.911959 186.646928 
L 373.187615 190.789814 
L 373.825444 198.257778 
L 374.463272 201.037708 
L 375.1011 201.461149 
L 375.738928 192.991574 
L 376.376756 192.274965 
L 377.014585 194.082001 
L 377.652413 195.16404 
L 378.290241 198.160262 
L 378.928069 199.306393 
L 379.565897 192.515225 
L 380.841554 195.097416 
L 381.479382 203.886302 
L 382.11721 204.537398 
L 382.755038 205.483394 
L 383.392866 199.834363 
L 384.030695 201.68543 
L 384.668523 202.838175 
L 384.668523 202.838175 
" style="fill:none;stroke:#008000;stroke-linecap:square;stroke-width:1.5;"/>
   </g>
   <g id="patch_9">
    <path d="M 43.78125 288.430125 
L 43.78125 22.318125 
" style="fill:none;stroke:#000000;stroke-linecap:square;stroke-linejoin:miter;stroke-width:0.8;"/>
   </g>
   <g id="patch_10">
    <path d="M 400.90125 288.430125 
L 400.90125 22.318125 
" style="fill:none;stroke:#000000;stroke-linecap:square;stroke-linejoin:miter;stroke-width:0.8;"/>
   </g>
   <g id="patch_11">
    <path d="M 43.78125 288.430125 
L 400.90125 288.430125 
" style="fill:none;stroke:#000000;stroke-linecap:square;stroke-linejoin:miter;stroke-width:0.8;"/>
   </g>
   <g id="patch_12">
    <path d="M 43.78125 22.318125 
L 400.90125 22.318125 
" style="fill:none;stroke:#000000;stroke-linecap:square;stroke-linejoin:miter;stroke-width:0.8;"/>
   </g>
  </g>
 </g>
 <defs>
  <clipPath id="p6bef167d46">
   <rect height="266.112" width="357.12" x="43.78125" y="22.318125"/>
  </clipPath>
 </defs>
</svg>
