<?xml version="1.0" encoding="utf-8" standalone="no"?>
<!DOCTYPE svg PUBLIC "-//W3C//DTD SVG 1.1//EN"
  "http://www.w3.org/Graphics/SVG/1.1/DTD/svg11.dtd">
<!-- Created with matplotlib (https://matplotlib.org/) -->
<svg height="358.22505pt" version="1.1" viewBox="0 0 444.6825 358.22505" width="444.6825pt" xmlns="http://www.w3.org/2000/svg" xmlns:xlink="http://www.w3.org/1999/xlink">
 <defs>
  <style type="text/css">
*{stroke-linecap:butt;stroke-linejoin:round;}
  </style>
 </defs>
 <g id="figure_1">
  <g id="patch_1">
   <path d="M 0 358.22505 
L 444.6825 358.22505 
L 444.6825 0 
L 0 0 
z
" style="fill:#ffffff;"/>
  </g>
  <g id="axes_1">
   <g id="patch_2">
    <path d="M 43.78125 288.430125 
L 400.90125 288.430125 
L 400.90125 22.318125 
L 43.78125 22.318125 
z
" style="fill:#ffffff;"/>
   </g>
   <g id="matplotlib.axis_1">
    <g id="xtick_1">
     <g id="line2d_1">
      <defs>
       <path d="M 0 0 
L 0 3.5 
" id="m6ff91cae10" style="stroke:#000000;stroke-width:0.8;"/>
      </defs>
      <g>
       <use style="stroke:#000000;stroke-width:0.8;" x="60.013977" xlink:href="#m6ff91cae10" y="288.430125"/>
      </g>
     </g>
     <g id="text_1">
      <!-- 0 -->
      <defs>
       <path d="M 31.78125 66.40625 
Q 24.171875 66.40625 20.328125 58.90625 
Q 16.5 51.421875 16.5 36.375 
Q 16.5 21.390625 20.328125 13.890625 
Q 24.171875 6.390625 31.78125 6.390625 
Q 39.453125 6.390625 43.28125 13.890625 
Q 47.125 21.390625 47.125 36.375 
Q 47.125 51.421875 43.28125 58.90625 
Q 39.453125 66.40625 31.78125 66.40625 
z
M 31.78125 74.21875 
Q 44.046875 74.21875 50.515625 64.515625 
Q 56.984375 54.828125 56.984375 36.375 
Q 56.984375 17.96875 50.515625 8.265625 
Q 44.046875 -1.421875 31.78125 -1.421875 
Q 19.53125 -1.421875 13.0625 8.265625 
Q 6.59375 17.96875 6.59375 36.375 
Q 6.59375 54.828125 13.0625 64.515625 
Q 19.53125 74.21875 31.78125 74.21875 
z
" id="DejaVuSans-48"/>
      </defs>
      <g transform="translate(56.832727 303.028562)scale(0.1 -0.1)">
       <use xlink:href="#DejaVuSans-48"/>
      </g>
     </g>
    </g>
    <g id="xtick_2">
     <g id="line2d_2">
      <g>
       <use style="stroke:#000000;stroke-width:0.8;" x="119.042076" xlink:href="#m6ff91cae10" y="288.430125"/>
      </g>
     </g>
     <g id="text_2">
      <!-- 50 -->
      <defs>
       <path d="M 10.796875 72.90625 
L 49.515625 72.90625 
L 49.515625 64.59375 
L 19.828125 64.59375 
L 19.828125 46.734375 
Q 21.96875 47.46875 24.109375 47.828125 
Q 26.265625 48.1875 28.421875 48.1875 
Q 40.625 48.1875 47.75 41.5 
Q 54.890625 34.8125 54.890625 23.390625 
Q 54.890625 11.625 47.5625 5.09375 
Q 40.234375 -1.421875 26.90625 -1.421875 
Q 22.3125 -1.421875 17.546875 -0.640625 
Q 12.796875 0.140625 7.71875 1.703125 
L 7.71875 11.625 
Q 12.109375 9.234375 16.796875 8.0625 
Q 21.484375 6.890625 26.703125 6.890625 
Q 35.15625 6.890625 40.078125 11.328125 
Q 45.015625 15.765625 45.015625 23.390625 
Q 45.015625 31 40.078125 35.4375 
Q 35.15625 39.890625 26.703125 39.890625 
Q 22.75 39.890625 18.8125 39.015625 
Q 14.890625 38.140625 10.796875 36.28125 
z
" id="DejaVuSans-53"/>
      </defs>
      <g transform="translate(112.679576 303.028562)scale(0.1 -0.1)">
       <use xlink:href="#DejaVuSans-53"/>
       <use x="63.623047" xlink:href="#DejaVuSans-48"/>
      </g>
     </g>
    </g>
    <g id="xtick_3">
     <g id="line2d_3">
      <g>
       <use style="stroke:#000000;stroke-width:0.8;" x="178.070176" xlink:href="#m6ff91cae10" y="288.430125"/>
      </g>
     </g>
     <g id="text_3">
      <!-- 100 -->
      <defs>
       <path d="M 12.40625 8.296875 
L 28.515625 8.296875 
L 28.515625 63.921875 
L 10.984375 60.40625 
L 10.984375 69.390625 
L 28.421875 72.90625 
L 38.28125 72.90625 
L 38.28125 8.296875 
L 54.390625 8.296875 
L 54.390625 0 
L 12.40625 0 
z
" id="DejaVuSans-49"/>
      </defs>
      <g transform="translate(168.526426 303.028562)scale(0.1 -0.1)">
       <use xlink:href="#DejaVuSans-49"/>
       <use x="63.623047" xlink:href="#DejaVuSans-48"/>
       <use x="127.246094" xlink:href="#DejaVuSans-48"/>
      </g>
     </g>
    </g>
    <g id="xtick_4">
     <g id="line2d_4">
      <g>
       <use style="stroke:#000000;stroke-width:0.8;" x="237.098275" xlink:href="#m6ff91cae10" y="288.430125"/>
      </g>
     </g>
     <g id="text_4">
      <!-- 150 -->
      <g transform="translate(227.554525 303.028562)scale(0.1 -0.1)">
       <use xlink:href="#DejaVuSans-49"/>
       <use x="63.623047" xlink:href="#DejaVuSans-53"/>
       <use x="127.246094" xlink:href="#DejaVuSans-48"/>
      </g>
     </g>
    </g>
    <g id="xtick_5">
     <g id="line2d_5">
      <g>
       <use style="stroke:#000000;stroke-width:0.8;" x="296.126374" xlink:href="#m6ff91cae10" y="288.430125"/>
      </g>
     </g>
     <g id="text_5">
      <!-- 200 -->
      <defs>
       <path d="M 19.1875 8.296875 
L 53.609375 8.296875 
L 53.609375 0 
L 7.328125 0 
L 7.328125 8.296875 
Q 12.9375 14.109375 22.625 23.890625 
Q 32.328125 33.6875 34.8125 36.53125 
Q 39.546875 41.84375 41.421875 45.53125 
Q 43.3125 49.21875 43.3125 52.78125 
Q 43.3125 58.59375 39.234375 62.25 
Q 35.15625 65.921875 28.609375 65.921875 
Q 23.96875 65.921875 18.8125 64.3125 
Q 13.671875 62.703125 7.8125 59.421875 
L 7.8125 69.390625 
Q 13.765625 71.78125 18.9375 73 
Q 24.125 74.21875 28.421875 74.21875 
Q 39.75 74.21875 46.484375 68.546875 
Q 53.21875 62.890625 53.21875 53.421875 
Q 53.21875 48.921875 51.53125 44.890625 
Q 49.859375 40.875 45.40625 35.40625 
Q 44.1875 33.984375 37.640625 27.21875 
Q 31.109375 20.453125 19.1875 8.296875 
z
" id="DejaVuSans-50"/>
      </defs>
      <g transform="translate(286.582624 303.028562)scale(0.1 -0.1)">
       <use xlink:href="#DejaVuSans-50"/>
       <use x="63.623047" xlink:href="#DejaVuSans-48"/>
       <use x="127.246094" xlink:href="#DejaVuSans-48"/>
      </g>
     </g>
    </g>
    <g id="xtick_6">
     <g id="line2d_6">
      <g>
       <use style="stroke:#000000;stroke-width:0.8;" x="355.154473" xlink:href="#m6ff91cae10" y="288.430125"/>
      </g>
     </g>
     <g id="text_6">
      <!-- 250 -->
      <g transform="translate(345.610723 303.028562)scale(0.1 -0.1)">
       <use xlink:href="#DejaVuSans-50"/>
       <use x="63.623047" xlink:href="#DejaVuSans-53"/>
       <use x="127.246094" xlink:href="#DejaVuSans-48"/>
      </g>
     </g>
    </g>
    <g id="text_7">
     <!-- Epoch -->
     <defs>
      <path d="M 9.8125 72.90625 
L 55.90625 72.90625 
L 55.90625 64.59375 
L 19.671875 64.59375 
L 19.671875 43.015625 
L 54.390625 43.015625 
L 54.390625 34.71875 
L 19.671875 34.71875 
L 19.671875 8.296875 
L 56.78125 8.296875 
L 56.78125 0 
L 9.8125 0 
z
" id="DejaVuSans-69"/>
      <path d="M 18.109375 8.203125 
L 18.109375 -20.796875 
L 9.078125 -20.796875 
L 9.078125 54.6875 
L 18.109375 54.6875 
L 18.109375 46.390625 
Q 20.953125 51.265625 25.265625 53.625 
Q 29.59375 56 35.59375 56 
Q 45.5625 56 51.78125 48.09375 
Q 58.015625 40.1875 58.015625 27.296875 
Q 58.015625 14.40625 51.78125 6.484375 
Q 45.5625 -1.421875 35.59375 -1.421875 
Q 29.59375 -1.421875 25.265625 0.953125 
Q 20.953125 3.328125 18.109375 8.203125 
z
M 48.6875 27.296875 
Q 48.6875 37.203125 44.609375 42.84375 
Q 40.53125 48.484375 33.40625 48.484375 
Q 26.265625 48.484375 22.1875 42.84375 
Q 18.109375 37.203125 18.109375 27.296875 
Q 18.109375 17.390625 22.1875 11.75 
Q 26.265625 6.109375 33.40625 6.109375 
Q 40.53125 6.109375 44.609375 11.75 
Q 48.6875 17.390625 48.6875 27.296875 
z
" id="DejaVuSans-112"/>
      <path d="M 30.609375 48.390625 
Q 23.390625 48.390625 19.1875 42.75 
Q 14.984375 37.109375 14.984375 27.296875 
Q 14.984375 17.484375 19.15625 11.84375 
Q 23.34375 6.203125 30.609375 6.203125 
Q 37.796875 6.203125 41.984375 11.859375 
Q 46.1875 17.53125 46.1875 27.296875 
Q 46.1875 37.015625 41.984375 42.703125 
Q 37.796875 48.390625 30.609375 48.390625 
z
M 30.609375 56 
Q 42.328125 56 49.015625 48.375 
Q 55.71875 40.765625 55.71875 27.296875 
Q 55.71875 13.875 49.015625 6.21875 
Q 42.328125 -1.421875 30.609375 -1.421875 
Q 18.84375 -1.421875 12.171875 6.21875 
Q 5.515625 13.875 5.515625 27.296875 
Q 5.515625 40.765625 12.171875 48.375 
Q 18.84375 56 30.609375 56 
z
" id="DejaVuSans-111"/>
      <path d="M 48.78125 52.59375 
L 48.78125 44.1875 
Q 44.96875 46.296875 41.140625 47.34375 
Q 37.3125 48.390625 33.40625 48.390625 
Q 24.65625 48.390625 19.8125 42.84375 
Q 14.984375 37.3125 14.984375 27.296875 
Q 14.984375 17.28125 19.8125 11.734375 
Q 24.65625 6.203125 33.40625 6.203125 
Q 37.3125 6.203125 41.140625 7.25 
Q 44.96875 8.296875 48.78125 10.40625 
L 48.78125 2.09375 
Q 45.015625 0.34375 40.984375 -0.53125 
Q 36.96875 -1.421875 32.421875 -1.421875 
Q 20.0625 -1.421875 12.78125 6.34375 
Q 5.515625 14.109375 5.515625 27.296875 
Q 5.515625 40.671875 12.859375 48.328125 
Q 20.21875 56 33.015625 56 
Q 37.15625 56 41.109375 55.140625 
Q 45.0625 54.296875 48.78125 52.59375 
z
" id="DejaVuSans-99"/>
      <path d="M 54.890625 33.015625 
L 54.890625 0 
L 45.90625 0 
L 45.90625 32.71875 
Q 45.90625 40.484375 42.875 44.328125 
Q 39.84375 48.1875 33.796875 48.1875 
Q 26.515625 48.1875 22.3125 43.546875 
Q 18.109375 38.921875 18.109375 30.90625 
L 18.109375 0 
L 9.078125 0 
L 9.078125 75.984375 
L 18.109375 75.984375 
L 18.109375 46.1875 
Q 21.34375 51.125 25.703125 53.5625 
Q 30.078125 56 35.796875 56 
Q 45.21875 56 50.046875 50.171875 
Q 54.890625 44.34375 54.890625 33.015625 
z
" id="DejaVuSans-104"/>
     </defs>
     <g transform="translate(207.030313 316.706687)scale(0.1 -0.1)">
      <use xlink:href="#DejaVuSans-69"/>
      <use x="63.183594" xlink:href="#DejaVuSans-112"/>
      <use x="126.660156" xlink:href="#DejaVuSans-111"/>
      <use x="187.841797" xlink:href="#DejaVuSans-99"/>
      <use x="242.822266" xlink:href="#DejaVuSans-104"/>
     </g>
    </g>
   </g>
   <g id="matplotlib.axis_2">
    <g id="ytick_1">
     <g id="line2d_7">
      <defs>
       <path d="M 0 0 
L -3.5 0 
" id="mc7806db040" style="stroke:#000000;stroke-width:0.8;"/>
      </defs>
      <g>
       <use style="stroke:#000000;stroke-width:0.8;" x="43.78125" xlink:href="#mc7806db040" y="272.554934"/>
      </g>
     </g>
     <g id="text_8">
      <!-- 0.0 -->
      <defs>
       <path d="M 10.6875 12.40625 
L 21 12.40625 
L 21 0 
L 10.6875 0 
z
" id="DejaVuSans-46"/>
      </defs>
      <g transform="translate(20.878125 276.354153)scale(0.1 -0.1)">
       <use xlink:href="#DejaVuSans-48"/>
       <use x="63.623047" xlink:href="#DejaVuSans-46"/>
       <use x="95.410156" xlink:href="#DejaVuSans-48"/>
      </g>
     </g>
    </g>
    <g id="ytick_2">
     <g id="line2d_8">
      <g>
       <use style="stroke:#000000;stroke-width:0.8;" x="43.78125" xlink:href="#mc7806db040" y="224.926772"/>
      </g>
     </g>
     <g id="text_9">
      <!-- 0.2 -->
      <g transform="translate(20.878125 228.725991)scale(0.1 -0.1)">
       <use xlink:href="#DejaVuSans-48"/>
       <use x="63.623047" xlink:href="#DejaVuSans-46"/>
       <use x="95.410156" xlink:href="#DejaVuSans-50"/>
      </g>
     </g>
    </g>
    <g id="ytick_3">
     <g id="line2d_9">
      <g>
       <use style="stroke:#000000;stroke-width:0.8;" x="43.78125" xlink:href="#mc7806db040" y="177.29861"/>
      </g>
     </g>
     <g id="text_10">
      <!-- 0.4 -->
      <defs>
       <path d="M 37.796875 64.3125 
L 12.890625 25.390625 
L 37.796875 25.390625 
z
M 35.203125 72.90625 
L 47.609375 72.90625 
L 47.609375 25.390625 
L 58.015625 25.390625 
L 58.015625 17.1875 
L 47.609375 17.1875 
L 47.609375 0 
L 37.796875 0 
L 37.796875 17.1875 
L 4.890625 17.1875 
L 4.890625 26.703125 
z
" id="DejaVuSans-52"/>
      </defs>
      <g transform="translate(20.878125 181.097829)scale(0.1 -0.1)">
       <use xlink:href="#DejaVuSans-48"/>
       <use x="63.623047" xlink:href="#DejaVuSans-46"/>
       <use x="95.410156" xlink:href="#DejaVuSans-52"/>
      </g>
     </g>
    </g>
    <g id="ytick_4">
     <g id="line2d_10">
      <g>
       <use style="stroke:#000000;stroke-width:0.8;" x="43.78125" xlink:href="#mc7806db040" y="129.670449"/>
      </g>
     </g>
     <g id="text_11">
      <!-- 0.6 -->
      <defs>
       <path d="M 33.015625 40.375 
Q 26.375 40.375 22.484375 35.828125 
Q 18.609375 31.296875 18.609375 23.390625 
Q 18.609375 15.53125 22.484375 10.953125 
Q 26.375 6.390625 33.015625 6.390625 
Q 39.65625 6.390625 43.53125 10.953125 
Q 47.40625 15.53125 47.40625 23.390625 
Q 47.40625 31.296875 43.53125 35.828125 
Q 39.65625 40.375 33.015625 40.375 
z
M 52.59375 71.296875 
L 52.59375 62.3125 
Q 48.875 64.0625 45.09375 64.984375 
Q 41.3125 65.921875 37.59375 65.921875 
Q 27.828125 65.921875 22.671875 59.328125 
Q 17.53125 52.734375 16.796875 39.40625 
Q 19.671875 43.65625 24.015625 45.921875 
Q 28.375 48.1875 33.59375 48.1875 
Q 44.578125 48.1875 50.953125 41.515625 
Q 57.328125 34.859375 57.328125 23.390625 
Q 57.328125 12.15625 50.6875 5.359375 
Q 44.046875 -1.421875 33.015625 -1.421875 
Q 20.359375 -1.421875 13.671875 8.265625 
Q 6.984375 17.96875 6.984375 36.375 
Q 6.984375 53.65625 15.1875 63.9375 
Q 23.390625 74.21875 37.203125 74.21875 
Q 40.921875 74.21875 44.703125 73.484375 
Q 48.484375 72.75 52.59375 71.296875 
z
" id="DejaVuSans-54"/>
      </defs>
      <g transform="translate(20.878125 133.469667)scale(0.1 -0.1)">
       <use xlink:href="#DejaVuSans-48"/>
       <use x="63.623047" xlink:href="#DejaVuSans-46"/>
       <use x="95.410156" xlink:href="#DejaVuSans-54"/>
      </g>
     </g>
    </g>
    <g id="ytick_5">
     <g id="line2d_11">
      <g>
       <use style="stroke:#000000;stroke-width:0.8;" x="43.78125" xlink:href="#mc7806db040" y="82.042287"/>
      </g>
     </g>
     <g id="text_12">
      <!-- 0.8 -->
      <defs>
       <path d="M 31.78125 34.625 
Q 24.75 34.625 20.71875 30.859375 
Q 16.703125 27.09375 16.703125 20.515625 
Q 16.703125 13.921875 20.71875 10.15625 
Q 24.75 6.390625 31.78125 6.390625 
Q 38.8125 6.390625 42.859375 10.171875 
Q 46.921875 13.96875 46.921875 20.515625 
Q 46.921875 27.09375 42.890625 30.859375 
Q 38.875 34.625 31.78125 34.625 
z
M 21.921875 38.8125 
Q 15.578125 40.375 12.03125 44.71875 
Q 8.5 49.078125 8.5 55.328125 
Q 8.5 64.0625 14.71875 69.140625 
Q 20.953125 74.21875 31.78125 74.21875 
Q 42.671875 74.21875 48.875 69.140625 
Q 55.078125 64.0625 55.078125 55.328125 
Q 55.078125 49.078125 51.53125 44.71875 
Q 48 40.375 41.703125 38.8125 
Q 48.828125 37.15625 52.796875 32.3125 
Q 56.78125 27.484375 56.78125 20.515625 
Q 56.78125 9.90625 50.3125 4.234375 
Q 43.84375 -1.421875 31.78125 -1.421875 
Q 19.734375 -1.421875 13.25 4.234375 
Q 6.78125 9.90625 6.78125 20.515625 
Q 6.78125 27.484375 10.78125 32.3125 
Q 14.796875 37.15625 21.921875 38.8125 
z
M 18.3125 54.390625 
Q 18.3125 48.734375 21.84375 45.5625 
Q 25.390625 42.390625 31.78125 42.390625 
Q 38.140625 42.390625 41.71875 45.5625 
Q 45.3125 48.734375 45.3125 54.390625 
Q 45.3125 60.0625 41.71875 63.234375 
Q 38.140625 66.40625 31.78125 66.40625 
Q 25.390625 66.40625 21.84375 63.234375 
Q 18.3125 60.0625 18.3125 54.390625 
z
" id="DejaVuSans-56"/>
      </defs>
      <g transform="translate(20.878125 85.841506)scale(0.1 -0.1)">
       <use xlink:href="#DejaVuSans-48"/>
       <use x="63.623047" xlink:href="#DejaVuSans-46"/>
       <use x="95.410156" xlink:href="#DejaVuSans-56"/>
      </g>
     </g>
    </g>
    <g id="ytick_6">
     <g id="line2d_12">
      <g>
       <use style="stroke:#000000;stroke-width:0.8;" x="43.78125" xlink:href="#mc7806db040" y="34.414125"/>
      </g>
     </g>
     <g id="text_13">
      <!-- 1.0 -->
      <g transform="translate(20.878125 38.213344)scale(0.1 -0.1)">
       <use xlink:href="#DejaVuSans-49"/>
       <use x="63.623047" xlink:href="#DejaVuSans-46"/>
       <use x="95.410156" xlink:href="#DejaVuSans-48"/>
      </g>
     </g>
    </g>
    <g id="text_14">
     <!-- Loss -->
     <defs>
      <path d="M 9.8125 72.90625 
L 19.671875 72.90625 
L 19.671875 8.296875 
L 55.171875 8.296875 
L 55.171875 0 
L 9.8125 0 
z
" id="DejaVuSans-76"/>
      <path d="M 44.28125 53.078125 
L 44.28125 44.578125 
Q 40.484375 46.53125 36.375 47.5 
Q 32.28125 48.484375 27.875 48.484375 
Q 21.1875 48.484375 17.84375 46.4375 
Q 14.5 44.390625 14.5 40.28125 
Q 14.5 37.15625 16.890625 35.375 
Q 19.28125 33.59375 26.515625 31.984375 
L 29.59375 31.296875 
Q 39.15625 29.25 43.1875 25.515625 
Q 47.21875 21.78125 47.21875 15.09375 
Q 47.21875 7.46875 41.1875 3.015625 
Q 35.15625 -1.421875 24.609375 -1.421875 
Q 20.21875 -1.421875 15.453125 -0.5625 
Q 10.6875 0.296875 5.421875 2 
L 5.421875 11.28125 
Q 10.40625 8.6875 15.234375 7.390625 
Q 20.0625 6.109375 24.8125 6.109375 
Q 31.15625 6.109375 34.5625 8.28125 
Q 37.984375 10.453125 37.984375 14.40625 
Q 37.984375 18.0625 35.515625 20.015625 
Q 33.0625 21.96875 24.703125 23.78125 
L 21.578125 24.515625 
Q 13.234375 26.265625 9.515625 29.90625 
Q 5.8125 33.546875 5.8125 39.890625 
Q 5.8125 47.609375 11.28125 51.796875 
Q 16.75 56 26.8125 56 
Q 31.78125 56 36.171875 55.265625 
Q 40.578125 54.546875 44.28125 53.078125 
z
" id="DejaVuSans-115"/>
     </defs>
     <g transform="translate(14.798438 166.428031)rotate(-90)scale(0.1 -0.1)">
      <use xlink:href="#DejaVuSans-76"/>
      <use x="55.697266" xlink:href="#DejaVuSans-111"/>
      <use x="116.878906" xlink:href="#DejaVuSans-115"/>
      <use x="168.978516" xlink:href="#DejaVuSans-115"/>
     </g>
    </g>
   </g>
   <g id="line2d_13">
    <path clip-path="url(#p982f1c532a)" d="M 60.013977 266.868133 
L 61.194539 268.966842 
L 62.375101 270.253877 
L 63.555663 266.195574 
L 64.736225 270.901996 
L 65.916787 272.554934 
L 67.097349 265.535033 
L 68.277911 269.783641 
L 69.458473 271.414375 
L 70.639035 265.098625 
L 71.819597 270.823015 
L 73.000159 271.397177 
L 74.180721 264.183401 
L 75.361283 270.508801 
L 76.541845 271.511591 
L 77.722407 262.634728 
L 78.902969 266.360794 
L 80.083531 267.543118 
L 81.264093 262.848751 
L 82.444655 265.306145 
L 83.625217 266.548169 
L 84.805779 262.281702 
L 85.986341 265.494382 
L 87.166903 266.071308 
L 88.347465 257.867754 
L 89.528027 261.071682 
L 90.708589 262.390407 
L 91.889151 257.239765 
L 93.069713 259.447875 
L 94.250275 260.226783 
L 95.430837 256.417777 
L 96.611399 256.511921 
L 97.791961 256.03055 
L 98.972523 258.77387 
L 100.153085 260.386617 
L 101.333647 259.718979 
L 102.514209 258.462586 
L 103.694771 261.967445 
L 104.875333 262.530663 
L 106.055895 256.843733 
L 107.236457 256.467528 
L 108.417019 256.961844 
L 109.597581 255.83264 
L 110.778143 250.450827 
L 111.958705 248.561646 
L 113.139267 259.834601 
L 114.319829 259.017695 
L 115.50039 259.212568 
L 116.680952 260.791435 
L 117.861514 258.341017 
L 119.042076 259.930547 
L 120.222638 260.041773 
L 121.4032 260.640181 
L 122.583762 260.111996 
L 123.764324 257.256799 
L 124.944886 257.493156 
L 126.125448 256.943631 
L 127.30601 258.523254 
L 128.486572 257.699918 
L 129.667134 257.296831 
L 130.847696 256.505015 
L 132.028258 257.880019 
L 133.20882 257.043777 
L 134.389382 252.723404 
L 135.569944 258.34898 
L 136.750506 259.451409 
L 137.931068 258.386657 
L 139.11163 258.528149 
L 140.292192 259.233924 
L 141.472754 257.370802 
L 142.653316 253.176258 
L 143.833878 256.254346 
L 145.01444 240.324936 
L 146.195002 34.414125 
L 147.375564 117.280238 
L 148.556126 241.647873 
L 149.736688 264.436823 
L 150.91725 264.474801 
L 152.097812 235.830102 
L 153.278374 257.787531 
L 154.458936 258.420878 
L 155.639498 261.166739 
L 156.82006 260.736148 
L 158.000622 261.22269 
L 159.181184 255.42281 
L 160.361746 257.344571 
L 161.542308 252.424476 
L 162.72287 261.299037 
L 163.903432 256.291773 
L 165.083994 256.816568 
L 166.264556 190.632305 
L 167.445118 147.951635 
L 168.62568 234.6998 
L 169.806242 258.056772 
L 170.986804 254.337972 
L 172.167366 254.475897 
L 173.347928 260.602856 
L 174.52849 260.921086 
L 175.709052 259.914707 
L 176.889614 258.289333 
L 178.070176 258.540711 
L 179.250738 258.205557 
L 180.4313 255.503341 
L 181.611862 254.438773 
L 182.792424 252.447693 
L 183.972986 256.426321 
L 185.153548 251.898804 
L 186.33411 251.354916 
L 187.514671 250.612463 
L 188.695233 256.049026 
L 189.875795 255.115217 
L 191.056357 259.898706 
L 192.236919 262.901411 
L 193.417481 250.599169 
L 194.598043 251.278103 
L 195.778605 222.605214 
L 196.959167 221.34473 
L 198.139729 232.678025 
L 199.320291 254.02595 
L 200.500853 207.126294 
L 201.681415 258.2692 
L 202.861977 263.569499 
L 204.042539 266.151534 
L 205.223101 262.900649 
L 206.403663 265.084444 
L 207.584225 266.094969 
L 208.764787 260.475185 
L 209.945349 263.774322 
L 211.125911 264.566104 
L 212.306473 254.560562 
L 213.487035 229.013853 
L 214.667597 231.688356 
L 215.848159 260.369425 
L 217.028721 261.082612 
L 218.209283 261.205927 
L 219.389845 258.407831 
L 220.570407 258.718891 
L 221.750969 259.377486 
L 222.931531 253.604983 
L 224.112093 251.676796 
L 225.292655 241.291317 
L 226.473217 254.692582 
L 227.653779 257.360623 
L 228.834341 257.813639 
L 230.014903 257.956451 
L 232.376027 257.01336 
L 233.556589 237.477939 
L 234.737151 248.112535 
L 235.917713 238.804096 
L 237.098275 258.305253 
L 238.278837 246.843485 
L 239.459399 253.588207 
L 240.639961 246.095772 
L 241.820523 246.585188 
L 243.001085 249.734677 
L 244.181647 258.48966 
L 245.362209 237.430225 
L 247.723333 258.838823 
L 248.903895 260.773477 
L 250.084457 259.225555 
L 251.265019 260.019564 
L 252.445581 262.015983 
L 253.626143 262.28777 
L 254.806705 257.69515 
L 255.987267 257.39217 
L 257.167829 251.896068 
L 258.34839 260.28254 
L 259.528952 261.490308 
L 260.709514 261.853294 
L 261.890076 260.081401 
L 263.070638 259.538361 
L 264.2512 259.792057 
L 265.431762 256.774061 
L 266.612324 260.364004 
L 267.792886 260.726817 
L 268.973448 258.687125 
L 270.15401 259.59247 
L 271.334572 260.280259 
L 272.515134 249.501557 
L 273.695696 259.902489 
L 274.876258 259.172722 
L 276.05682 235.218559 
L 277.237382 240.140237 
L 278.417944 252.311772 
L 279.598506 251.697288 
L 280.779068 255.482142 
L 281.95963 255.45485 
L 283.140192 259.693339 
L 284.320754 259.531953 
L 285.501316 260.427354 
L 286.681878 260.16574 
L 287.86244 260.851683 
L 289.043002 261.313718 
L 290.223564 258.368724 
L 291.404126 258.567375 
L 292.584688 258.558662 
L 293.76525 260.334958 
L 294.945812 261.086204 
L 296.126374 261.234767 
L 297.306936 259.962684 
L 298.487498 261.11505 
L 299.66806 260.974458 
L 300.848622 259.503189 
L 302.029184 259.798602 
L 303.209746 259.761695 
L 304.390308 260.07904 
L 305.57087 260.818822 
L 306.751432 261.176112 
L 307.931994 259.014497 
L 309.112556 259.324883 
L 310.293118 259.248157 
L 311.47368 257.667361 
L 312.654242 255.617374 
L 313.834804 210.41179 
L 315.015366 259.476966 
L 316.195928 260.163028 
L 317.37649 260.62683 
L 318.557052 259.072971 
L 319.737614 259.094306 
L 320.918176 259.588985 
L 322.098738 259.42497 
L 323.2793 259.775712 
L 324.459862 259.922105 
L 325.640424 253.00415 
L 326.820986 252.371983 
L 328.001548 253.423824 
L 329.18211 260.164681 
L 331.543233 261.447302 
L 332.723795 250.586339 
L 333.904357 248.341214 
L 335.084919 250.482263 
L 336.265481 259.196788 
L 337.446043 255.773029 
L 338.626605 256.772752 
L 339.807167 260.202233 
L 342.168291 261.064217 
L 343.348853 260.475415 
L 344.529415 261.552399 
L 345.709977 261.456632 
L 346.890539 252.318842 
L 348.071101 259.234489 
L 349.251663 255.912448 
L 350.432225 261.101677 
L 351.612787 262.790008 
L 352.793349 263.026554 
L 353.973911 258.188345 
L 355.154473 256.668979 
L 356.335035 257.033619 
L 357.515597 259.922803 
L 358.696159 260.415657 
L 359.876721 260.589849 
L 361.057283 258.529257 
L 363.418407 258.792464 
L 364.598969 260.497932 
L 365.779531 260.868417 
L 366.960093 261.009056 
L 368.140655 260.387632 
L 369.321217 259.967212 
L 370.501779 261.075156 
L 371.682341 259.133371 
L 372.862903 258.97067 
L 374.043465 259.54711 
L 375.224027 259.979412 
L 376.404589 259.585176 
L 377.585151 260.069318 
L 378.765713 253.23669 
L 379.946275 259.551075 
L 381.126837 259.453521 
L 383.487961 261.025269 
L 384.668523 260.960951 
L 384.668523 260.960951 
" style="fill:none;stroke:#1f77b4;stroke-linecap:square;stroke-opacity:0.3;stroke-width:1.5;"/>
   </g>
   <g id="line2d_14">
    <path clip-path="url(#p982f1c532a)" d="M 60.013977 267.025854 
L 61.194539 268.460072 
L 62.375101 269.290235 
L 63.555663 269.643309 
L 64.736225 269.646259 
L 65.916787 269.426052 
L 67.097349 269.00331 
L 68.277911 269.57362 
L 69.458473 269.28438 
L 70.639035 268.418393 
L 71.819597 269.148255 
L 73.000159 269.426709 
L 74.180721 268.461523 
L 75.361283 268.340921 
L 76.541845 268.01395 
L 77.722407 266.563486 
L 78.902969 266.321482 
L 80.083531 265.953854 
L 81.264093 264.652886 
L 82.444655 265.132463 
L 83.625217 265.360148 
L 84.805779 264.181133 
L 85.986341 263.848356 
L 87.166903 263.234688 
L 88.347465 261.836865 
L 90.708589 260.520842 
L 91.889151 259.336279 
L 93.069713 258.415274 
L 94.250275 258.213845 
L 95.430837 257.474065 
L 96.611399 257.484625 
L 97.791961 257.756589 
L 98.972523 257.792786 
L 101.333647 260.145679 
L 102.514209 260.421267 
L 103.694771 260.320493 
L 104.875333 259.961273 
L 106.055895 259.112918 
L 107.236457 256.778647 
L 108.417019 255.154156 
L 109.597581 253.855673 
L 110.778143 253.623448 
L 111.958705 254.850791 
L 113.139267 255.728608 
L 114.319829 256.910208 
L 116.680952 260.068725 
L 117.861514 260.831116 
L 119.042076 259.976006 
L 120.222638 259.941219 
L 122.583762 258.955193 
L 123.764324 258.742526 
L 126.125448 257.62351 
L 127.30601 257.319259 
L 128.486572 257.657778 
L 129.667134 257.272832 
L 130.847696 256.744985 
L 133.20882 256.550957 
L 134.389382 256.804856 
L 135.569944 257.379996 
L 136.750506 258.224421 
L 137.931068 258.151991 
L 139.11163 259.516324 
L 140.292192 276.334125 
L 141.472754 262.316776 
L 142.653316 229.318528 
L 143.833878 201.959112 
L 145.01444 184.634782 
L 146.195002 179.734792 
L 147.375564 180.007343 
L 148.556126 189.636204 
L 149.736688 207.767416 
L 150.91725 235.838228 
L 152.097812 269.974735 
L 153.278374 267.938403 
L 154.458936 258.042859 
L 155.639498 257.270934 
L 156.82006 257.980627 
L 158.000622 260.643449 
L 159.181184 258.264624 
L 160.361746 263.081589 
L 161.542308 264.494009 
L 163.903432 234.155414 
L 165.083994 224.609058 
L 166.264556 218.723085 
L 167.445118 216.929026 
L 168.62568 219.218959 
L 169.806242 227.84214 
L 170.986804 240.946894 
L 172.167366 258.652296 
L 173.347928 266.91648 
L 174.52849 260.820426 
L 175.709052 259.355959 
L 176.889614 259.679172 
L 179.250738 257.08216 
L 181.611862 255.220737 
L 182.792424 253.79515 
L 183.972986 252.896471 
L 185.153548 252.188916 
L 186.33411 252.311346 
L 187.514671 254.27852 
L 188.695233 255.539158 
L 189.875795 258.384051 
L 191.056357 258.54351 
L 192.236919 254.322615 
L 193.417481 247.046559 
L 194.598043 245.005217 
L 195.778605 236.187642 
L 196.959167 230.291499 
L 198.139729 229.120394 
L 199.320291 233.584602 
L 200.500853 239.949764 
L 201.681415 249.433029 
L 202.861977 256.235859 
L 204.042539 260.145319 
L 205.223101 263.315554 
L 206.403663 269.588135 
L 208.764787 264.878086 
L 209.945349 258.138663 
L 211.125911 253.21541 
L 212.306473 249.461163 
L 213.487035 247.912419 
L 214.667597 248.13627 
L 215.848159 249.038494 
L 217.028721 252.440193 
L 219.389845 262.512594 
L 220.570407 260.159785 
L 221.750969 255.079754 
L 222.931531 253.061444 
L 224.112093 251.993018 
L 225.292655 251.980842 
L 226.473217 252.456022 
L 227.653779 255.284391 
L 230.014903 256.737796 
L 231.195465 254.192061 
L 233.556589 248.660903 
L 234.737151 247.78953 
L 235.917713 247.19422 
L 237.098275 246.968511 
L 238.278837 247.132206 
L 239.459399 251.217064 
L 241.820523 249.138145 
L 243.001085 246.986087 
L 244.181647 248.700431 
L 245.362209 249.797002 
L 246.542771 252.362087 
L 247.723333 254.444613 
L 248.903895 256.842743 
L 250.084457 258.97574 
L 251.265019 262.654874 
L 253.626143 259.085695 
L 254.806705 258.305563 
L 258.34839 258.300822 
L 259.528952 259.14824 
L 260.709514 259.851406 
L 261.890076 260.189218 
L 263.070638 260.660259 
L 264.2512 259.585293 
L 265.431762 259.159404 
L 266.612324 259.985479 
L 267.792886 259.159425 
L 268.973448 258.587896 
L 270.15401 260.180915 
L 271.334572 259.110566 
L 272.515134 255.196068 
L 273.695696 252.189606 
L 274.876258 249.62095 
L 276.05682 247.954386 
L 277.237382 247.266996 
L 278.417944 248.538968 
L 279.598506 249.334265 
L 280.779068 252.720857 
L 281.95963 257.551949 
L 283.140192 258.875188 
L 284.320754 259.481567 
L 285.501316 260.473646 
L 286.681878 260.596744 
L 287.86244 260.394427 
L 289.043002 259.743924 
L 290.223564 259.562221 
L 292.584688 259.569373 
L 293.76525 259.694703 
L 296.126374 260.760186 
L 297.306936 260.872952 
L 298.487498 260.740612 
L 299.66806 260.314646 
L 300.848622 260.046832 
L 303.209746 260.261469 
L 304.390308 260.110606 
L 306.751432 260.370234 
L 307.931994 263.754486 
L 309.112556 257.993462 
L 310.293118 253.412235 
L 311.47368 250.178469 
L 312.654242 248.638465 
L 313.834804 248.51523 
L 315.015366 249.3318 
L 316.195928 251.440712 
L 317.37649 254.733087 
L 318.557052 258.929861 
L 319.737614 264.287865 
L 320.918176 260.036582 
L 322.098738 259.176795 
L 323.2793 257.535227 
L 324.459862 256.524975 
L 325.640424 255.867699 
L 326.820986 256.680973 
L 328.001548 257.150821 
L 329.18211 256.807218 
L 330.362671 255.669656 
L 331.543233 255.889093 
L 332.723795 255.272371 
L 333.904357 254.102349 
L 335.084919 253.159527 
L 336.265481 253.687156 
L 337.446043 255.373688 
L 338.626605 258.081631 
L 340.987729 261.130379 
L 342.168291 260.430653 
L 343.348853 260.802506 
L 345.709977 258.53182 
L 346.890539 258.065101 
L 348.071101 258.529866 
L 349.251663 259.12514 
L 351.612787 259.679025 
L 352.793349 260.329419 
L 353.973911 259.578955 
L 355.154473 259.678465 
L 356.335035 258.914495 
L 357.515597 258.60879 
L 358.696159 258.630877 
L 359.876721 259.273361 
L 361.057283 259.607194 
L 362.237845 259.732322 
L 363.418407 259.670371 
L 364.598969 259.753064 
L 366.960093 260.679221 
L 368.140655 260.653071 
L 369.321217 260.390026 
L 371.682341 259.722488 
L 372.862903 260.144256 
L 374.043465 259.474308 
L 376.404589 258.468624 
L 378.765713 258.411357 
L 379.946275 258.469918 
L 381.126837 258.776339 
L 382.307399 259.394385 
L 383.487961 260.387823 
L 384.668523 261.820421 
L 384.668523 261.820421 
" style="fill:none;stroke:#1f77b4;stroke-linecap:square;stroke-width:1.5;"/>
   </g>
   <g id="line2d_15">
    <path clip-path="url(#p982f1c532a)" d="M 60.013977 261.741268 
L 61.194539 269.250936 
L 62.375101 272.554934 
L 63.555663 254.708101 
L 65.916787 260.057531 
L 67.097349 236.483132 
L 69.458473 242.248166 
L 70.639035 227.793955 
L 73.000159 233.741077 
L 74.180721 181.987625 
L 76.541845 189.523252 
L 77.722407 126.689538 
L 80.083531 136.053185 
L 81.264093 90.004072 
L 83.625217 100.523745 
L 84.805779 71.579525 
L 87.166903 82.601908 
L 88.347465 58.701882 
L 90.708589 70.061885 
L 91.889151 47.78604 
L 94.250275 59.430696 
L 95.430837 34.414125 
L 97.791961 46.392352 
L 98.972523 41.497959 
L 101.333647 53.187509 
L 102.514209 60.441969 
L 104.875333 71.481422 
L 106.055895 55.278455 
L 108.417019 66.422328 
L 109.597581 54.099556 
L 111.958705 65.228894 
L 113.139267 58.374091 
L 115.50039 69.328413 
L 116.680952 61.957244 
L 119.042076 72.741476 
L 120.222638 68.270735 
L 122.583762 78.786092 
L 123.764324 70.159232 
L 126.125448 80.579485 
L 127.30601 72.949608 
L 129.667134 83.207257 
L 130.847696 78.230928 
L 133.20882 88.293907 
L 134.389382 83.735353 
L 136.750506 93.568253 
L 137.931068 85.434812 
L 140.292192 95.167536 
L 141.472754 92.471045 
L 143.833878 101.913629 
L 145.01444 98.418508 
L 148.556126 111.824368 
L 150.91725 120.316351 
L 152.097812 101.53848 
L 156.82006 119.100873 
L 158.000622 123.304299 
L 159.181184 115.010962 
L 161.542308 123.425142 
L 162.72287 109.607982 
L 165.083994 118.083626 
L 166.264556 123.609607 
L 168.62568 131.39921 
L 169.806242 118.948901 
L 172.167366 127.138551 
L 173.347928 118.315192 
L 175.709052 126.526288 
L 176.889614 122.318997 
L 179.250738 130.36382 
L 180.4313 125.052567 
L 182.792424 132.96311 
L 183.972986 127.266868 
L 186.33411 135.043827 
L 187.514671 132.505257 
L 189.875795 140.066769 
L 191.056357 139.397127 
L 193.417481 146.453661 
L 194.598043 141.80599 
L 196.959167 148.705102 
L 198.139729 154.556608 
L 200.500853 160.405552 
L 201.681415 165.994937 
L 204.042539 170.106685 
L 205.223101 158.747122 
L 207.584225 164.393605 
L 208.764787 155.215105 
L 211.125911 160.716921 
L 212.306473 167.991279 
L 214.667597 173.130517 
L 215.848159 162.769216 
L 218.209283 168.282785 
L 219.389845 151.569074 
L 221.750969 157.346654 
L 222.931531 156.724881 
L 225.292655 162.872075 
L 226.473217 159.337486 
L 228.834341 165.014207 
L 230.014903 159.743885 
L 232.376027 165.571748 
L 233.556589 163.100032 
L 235.917713 168.544858 
L 237.098275 163.119845 
L 239.459399 168.580071 
L 240.639961 166.031113 
L 243.001085 171.229766 
L 244.181647 168.454716 
L 246.542771 173.043265 
L 247.723333 170.398288 
L 250.084457 174.759782 
L 251.265019 169.379981 
L 253.626143 174.003827 
L 254.806705 171.604256 
L 257.167829 176.317976 
L 258.34839 173.893226 
L 260.709514 178.365053 
L 261.890076 174.922922 
L 264.2512 178.985326 
L 265.431762 176.853472 
L 267.792886 180.967611 
L 268.973448 176.369015 
L 271.334572 180.527303 
L 272.515134 178.26923 
L 274.876258 182.126294 
L 276.05682 180.125062 
L 278.417944 183.907739 
L 279.598506 181.160257 
L 281.95963 184.994021 
L 283.140192 182.494298 
L 285.501316 186.415338 
L 286.681878 183.540588 
L 289.043002 187.232379 
L 290.223564 184.740191 
L 292.584688 188.543839 
L 293.76525 185.525433 
L 296.126374 189.055743 
L 297.306936 187.324752 
L 299.66806 191.005399 
L 300.848622 187.781373 
L 303.209746 191.211189 
L 304.390308 188.877423 
L 306.751432 192.253736 
L 307.931994 189.965741 
L 310.293118 193.291333 
L 311.47368 191.396106 
L 313.834804 194.603659 
L 315.015366 192.552522 
L 317.37649 195.768671 
L 318.557052 193.537372 
L 320.918176 196.704567 
L 322.098738 193.198058 
L 324.459862 196.308471 
L 325.640424 196.081551 
L 328.001548 199.095762 
L 329.18211 195.187219 
L 331.543233 198.207088 
L 332.723795 197.258219 
L 335.084919 200.302766 
L 336.265481 198.32192 
L 338.626605 201.377624 
L 339.807167 198.930684 
L 342.168291 201.827722 
L 343.348853 199.461449 
L 345.709977 202.380764 
L 346.890539 200.833885 
L 349.251663 203.698613 
L 350.432225 201.787608 
L 352.793349 204.608331 
L 353.973911 202.64113 
L 356.335035 205.362201 
L 357.515597 203.470241 
L 359.876721 206.151418 
L 361.057283 204.219344 
L 363.418407 206.85976 
L 364.598969 204.871221 
L 366.960093 207.4759 
L 368.140655 205.831783 
L 370.501779 208.3918 
L 371.682341 206.651178 
L 374.043465 209.171848 
L 375.224027 207.331976 
L 377.585151 209.816092 
L 378.765713 208.23444 
L 381.126837 210.676735 
L 382.307399 208.599578 
L 384.668523 211.013671 
L 384.668523 211.013671 
" style="fill:none;stroke:#ff7f0e;stroke-linecap:square;stroke-opacity:0.3;stroke-width:1.5;"/>
   </g>
   <g id="line2d_16">
    <path clip-path="url(#p982f1c532a)" d="M 60.013977 264.134322 
L 61.194539 266.866501 
L 62.375101 266.285258 
L 63.555663 263.128525 
L 64.736225 258.134232 
L 65.916787 252.040311 
L 67.097349 245.074366 
L 68.277911 244.058383 
L 69.458473 239.79912 
L 70.639035 230.752433 
L 71.819597 226.584518 
L 73.000159 216.934739 
L 74.180721 200.197917 
L 75.361283 186.164696 
L 76.541845 168.457578 
L 77.722407 147.886104 
L 78.902969 132.80588 
L 80.083531 120.690067 
L 81.264093 104.684986 
L 82.444655 95.424663 
L 83.625217 90.791412 
L 84.805779 80.801335 
L 85.986341 76.115029 
L 87.166903 74.051521 
L 88.347465 67.133375 
L 89.528027 64.388145 
L 90.708589 62.083849 
L 91.889151 55.823639 
L 93.069713 51.474114 
L 94.250275 49.027661 
L 95.430837 44.537955 
L 96.611399 41.975444 
L 97.791961 43.220941 
L 98.972523 43.890155 
L 100.153085 49.066146 
L 101.333647 55.537201 
L 102.514209 58.203546 
L 103.694771 61.905289 
L 104.875333 63.99565 
L 107.236457 62.827228 
L 109.597581 59.344279 
L 110.778143 60.037278 
L 111.958705 61.836227 
L 113.139267 61.641988 
L 114.319829 63.108423 
L 115.50039 65.373721 
L 116.680952 65.878009 
L 119.042076 70.227598 
L 120.222638 70.784619 
L 122.583762 74.510537 
L 123.764324 74.550641 
L 126.125448 76.693821 
L 127.30601 76.755286 
L 128.486572 78.28774 
L 129.667134 80.334965 
L 130.847696 81.038558 
L 133.20882 85.729552 
L 134.389382 86.357855 
L 136.750506 89.282894 
L 137.931068 89.726407 
L 139.11163 91.320324 
L 140.292192 93.221259 
L 141.472754 94.294215 
L 142.653316 96.008616 
L 143.833878 99.004926 
L 145.01444 101.17593 
L 146.195002 105.900754 
L 147.375564 109.174959 
L 148.556126 110.345204 
L 150.91725 111.272821 
L 152.097812 110.81681 
L 153.278374 111.691946 
L 154.458936 112.073015 
L 155.639498 112.775475 
L 158.000622 119.498151 
L 159.181184 119.281564 
L 161.542308 116.740827 
L 162.72287 116.091357 
L 165.083994 120.295027 
L 166.264556 121.125366 
L 168.62568 125.74877 
L 170.986804 124.595435 
L 172.167366 123.185553 
L 173.347928 122.071989 
L 174.52849 122.760596 
L 175.709052 124.336752 
L 176.889614 124.406253 
L 178.070176 125.872949 
L 179.250738 127.61864 
L 180.4313 127.842935 
L 181.611862 128.805321 
L 182.792424 129.931162 
L 183.972986 130.250441 
L 185.153548 131.414285 
L 186.33411 133.185979 
L 187.514671 134.270371 
L 189.875795 139.074737 
L 191.056357 140.343654 
L 192.236919 141.442619 
L 193.417481 143.309422 
L 194.598043 144.944929 
L 195.778605 146.861902 
L 198.139729 153.088744 
L 199.320291 158.03738 
L 200.500853 162.131084 
L 202.861977 165.926388 
L 204.042539 165.616558 
L 205.223101 164.272783 
L 206.403663 161.858194 
L 207.584225 159.815954 
L 208.764787 159.191537 
L 209.945349 161.196431 
L 211.125911 163.782138 
L 212.306473 164.833987 
L 213.487035 167.669041 
L 214.667597 169.08704 
L 215.848159 167.513597 
L 217.028721 164.917815 
L 218.209283 161.283812 
L 219.389845 158.347009 
L 220.570407 157.11234 
L 221.750969 157.17045 
L 222.931531 156.741043 
L 224.112093 158.266337 
L 225.292655 160.864417 
L 226.473217 161.270653 
L 227.653779 161.99966 
L 228.834341 162.460169 
L 230.014903 162.436589 
L 232.376027 164.250889 
L 233.556589 164.299348 
L 234.737151 165.015309 
L 235.917713 165.899023 
L 237.098275 165.859085 
L 239.459399 167.167837 
L 240.639961 167.390123 
L 241.820523 168.382521 
L 243.001085 169.636233 
L 244.181647 169.964519 
L 245.362209 171.046018 
L 246.542771 171.804708 
L 247.723333 171.701175 
L 250.084457 172.283196 
L 251.265019 171.952358 
L 252.445581 172.273761 
L 253.626143 172.742664 
L 254.806705 172.831079 
L 255.987267 173.801951 
L 257.167829 174.9733 
L 258.34839 175.235373 
L 260.709514 176.562332 
L 261.890076 176.624538 
L 263.070638 177.409033 
L 264.2512 178.006124 
L 265.431762 177.925463 
L 267.792886 178.784073 
L 268.973448 178.605605 
L 271.334572 179.309447 
L 272.515134 179.345453 
L 273.695696 180.104132 
L 274.876258 181.048291 
L 276.05682 181.230683 
L 278.417944 182.510739 
L 279.598506 182.592293 
L 281.95963 183.746689 
L 283.140192 183.798263 
L 285.501316 184.930822 
L 286.681878 184.939609 
L 289.043002 186.047082 
L 290.223564 186.027409 
L 292.584688 186.964097 
L 293.76525 186.980483 
L 296.126374 188.21923 
L 297.306936 188.278057 
L 299.66806 189.377654 
L 300.848622 189.342491 
L 303.209746 190.073861 
L 304.390308 190.01737 
L 305.57087 190.468496 
L 306.751432 191.069953 
L 307.931994 191.148663 
L 310.293118 192.270191 
L 311.47368 192.389818 
L 313.834804 193.551395 
L 315.015366 193.64341 
L 316.195928 194.264963 
L 317.37649 194.714969 
L 318.557052 194.62048 
L 319.737614 194.717251 
L 320.918176 194.958539 
L 322.098738 194.902272 
L 324.459862 196.145781 
L 325.640424 196.235595 
L 326.820986 196.640681 
L 328.001548 197.182018 
L 329.18211 197.132847 
L 331.543233 197.670741 
L 332.723795 197.760312 
L 335.084919 199.270723 
L 336.265481 199.413069 
L 337.446043 199.880664 
L 338.626605 200.17513 
L 339.807167 200.095391 
L 342.168291 200.677069 
L 343.348853 200.627343 
L 345.709977 201.55155 
L 346.890539 201.643433 
L 349.251663 202.713064 
L 350.432225 202.792417 
L 352.793349 203.608779 
L 353.973911 203.624265 
L 356.335035 204.420677 
L 357.515597 204.419657 
L 359.876721 205.195751 
L 361.057283 205.178269 
L 363.418407 205.868358 
L 364.598969 205.859274 
L 366.960093 206.63311 
L 368.140655 206.668132 
L 370.501779 207.510957 
L 371.682341 207.538348 
L 374.043465 208.245106 
L 375.224027 208.257679 
L 377.585151 209.030828 
L 378.765713 209.024064 
L 381.126837 209.444605 
L 383.487961 210.130143 
L 384.668523 210.624279 
L 384.668523 210.624279 
" style="fill:none;stroke:#ff7f0e;stroke-linecap:square;stroke-width:1.5;"/>
   </g>
   <g id="line2d_17">
    <path clip-path="url(#p982f1c532a)" d="M 60.013977 138.137483 
L 61.194539 131.791009 
L 62.375101 122.420372 
L 65.916787 89.596728 
L 67.097349 83.193065 
L 68.277911 81.423362 
L 69.458473 83.376302 
L 70.639035 85.974864 
L 71.819597 90.602792 
L 73.000159 93.665964 
L 74.180721 93.637518 
L 75.361283 92.917583 
L 76.541845 89.483551 
L 77.722407 87.468039 
L 78.902969 85.965545 
L 81.264093 85.758638 
L 82.444655 87.790971 
L 83.625217 90.647696 
L 85.986341 92.981194 
L 87.166903 94.847972 
L 88.347465 95.307085 
L 89.528027 97.182651 
L 90.708589 98.127983 
L 91.889151 97.848691 
L 93.069713 98.300979 
L 94.250275 96.829914 
L 95.430837 92.567127 
L 96.611399 86.841003 
L 97.791961 81.82718 
L 98.972523 77.877247 
L 100.153085 75.576464 
L 101.333647 75.431347 
L 102.514209 75.69853 
L 104.875333 80.181169 
L 106.055895 80.194677 
L 107.236457 79.842325 
L 108.417019 78.876117 
L 109.597581 78.670247 
L 110.778143 79.196933 
L 111.958705 79.479487 
L 114.319829 79.424888 
L 115.50039 79.616967 
L 116.680952 78.860251 
L 117.861514 78.796189 
L 119.042076 79.308839 
L 120.222638 80.145041 
L 121.4032 81.393567 
L 122.583762 82.873277 
L 123.764324 83.266053 
L 124.944886 83.259215 
L 126.125448 82.192922 
L 127.30601 80.950783 
L 128.486572 80.35669 
L 129.667134 80.308353 
L 130.847696 80.396013 
L 135.569944 82.221196 
L 136.750506 82.548 
L 137.931068 83.082793 
L 139.11163 83.10218 
L 140.292192 69.003983 
L 141.472754 83.612153 
L 142.653316 107.806654 
L 143.833878 125.951883 
L 145.01444 136.995629 
L 146.195002 139.003626 
L 147.375564 139.045948 
L 148.556126 133.241492 
L 149.736688 121.580116 
L 150.91725 102.387596 
L 152.097812 77.546053 
L 153.278374 84.897655 
L 154.458936 90.123517 
L 155.639498 88.22549 
L 156.82006 85.432408 
L 158.000622 81.840663 
L 159.181184 83.457266 
L 160.361746 81.30305 
L 161.542308 84.373693 
L 162.72287 89.483707 
L 163.903432 95.13076 
L 165.083994 99.038925 
L 166.264556 100.983662 
L 167.445118 101.848023 
L 168.62568 100.665715 
L 169.806242 97.078588 
L 170.986804 90.591114 
L 172.167366 82.565068 
L 173.347928 81.119585 
L 174.52849 80.946314 
L 175.709052 81.836969 
L 176.889614 82.516094 
L 178.070176 84.431016 
L 179.250738 86.775504 
L 180.4313 87.864982 
L 181.611862 86.647977 
L 182.792424 84.376537 
L 185.153548 78.768095 
L 187.514671 71.555097 
L 188.695233 69.114744 
L 189.875795 67.25833 
L 191.056357 66.87521 
L 192.236919 67.949881 
L 193.417481 67.868727 
L 194.598043 67.47065 
L 195.778605 64.228015 
L 196.959167 59.187903 
L 198.139729 52.988741 
L 199.320291 47.731417 
L 200.500853 43.236707 
L 201.681415 39.863793 
L 202.861977 39.23658 
L 204.042539 41.45485 
L 205.223101 45.261032 
L 206.403663 50.048726 
L 207.584225 51.775078 
L 208.764787 55.227447 
L 211.125911 66.787909 
L 212.306473 71.361244 
L 213.487035 76.728555 
L 214.667597 79.959305 
L 215.848159 81.966888 
L 217.028721 82.804883 
L 218.209283 82.645296 
L 219.389845 80.383579 
L 220.570407 80.600711 
L 221.750969 83.080221 
L 222.931531 86.357114 
L 226.473217 102.242873 
L 227.653779 104.832196 
L 228.834341 107.77289 
L 230.014903 111.784078 
L 231.195465 114.74036 
L 232.376027 118.722766 
L 233.556589 123.465243 
L 234.737151 127.516711 
L 235.917713 129.490103 
L 237.098275 130.076737 
L 238.278837 127.527581 
L 239.459399 124.067824 
L 240.639961 123.410036 
L 241.820523 123.331002 
L 243.001085 124.395844 
L 244.181647 127.248438 
L 245.362209 129.717706 
L 246.542771 131.510486 
L 247.723333 132.296074 
L 248.903895 133.60382 
L 250.084457 131.935886 
L 251.265019 131.636502 
L 252.445581 129.057951 
L 253.626143 124.853406 
L 255.987267 119.00373 
L 257.167829 117.283519 
L 258.34839 117.418834 
L 259.528952 120.087876 
L 260.709514 124.673032 
L 263.070638 136.231561 
L 264.2512 138.190009 
L 265.431762 139.208361 
L 266.612324 139.587339 
L 267.792886 140.831013 
L 268.973448 142.357711 
L 270.15401 143.043695 
L 271.334572 144.38098 
L 274.876258 150.502679 
L 276.05682 151.124664 
L 277.237382 151.510259 
L 278.417944 149.859666 
L 280.779068 148.241482 
L 281.95963 146.653876 
L 283.140192 146.651178 
L 284.320754 147.571856 
L 285.501316 149.783235 
L 286.681878 153.960823 
L 289.043002 163.197975 
L 290.223564 166.170846 
L 292.584688 173.350655 
L 293.76525 175.341463 
L 294.945812 176.611962 
L 296.126374 176.345164 
L 297.306936 174.872903 
L 299.66806 168.085447 
L 300.848622 165.36696 
L 302.029184 164.287833 
L 303.209746 163.463328 
L 304.390308 163.323314 
L 305.57087 163.511066 
L 306.751432 164.831923 
L 307.931994 163.751284 
L 309.112556 163.388749 
L 310.293118 160.602229 
L 311.47368 157.123992 
L 312.654242 154.058963 
L 313.834804 149.426332 
L 315.015366 142.804106 
L 316.195928 135.543681 
L 317.37649 129.473076 
L 319.737614 120.7463 
L 320.918176 120.383579 
L 322.098738 119.873663 
L 323.2793 121.044464 
L 324.459862 122.734321 
L 325.640424 122.566375 
L 326.820986 121.317976 
L 328.001548 119.019017 
L 329.18211 117.844021 
L 330.362671 115.941144 
L 331.543233 112.769709 
L 332.723795 111.865961 
L 333.904357 113.173851 
L 336.265481 121.088012 
L 337.446043 125.233255 
L 338.626605 128.78268 
L 339.807167 130.331561 
L 340.987729 130.206079 
L 342.168291 127.781657 
L 344.529415 118.911589 
L 345.709977 115.419819 
L 346.890539 114.342361 
L 348.071101 114.428272 
L 349.251663 116.534111 
L 350.432225 120.257505 
L 352.793349 129.70086 
L 353.973911 133.524568 
L 355.154473 134.824721 
L 356.335035 135.147385 
L 357.515597 133.210315 
L 358.696159 129.857254 
L 361.057283 119.598022 
L 362.237845 115.152187 
L 363.418407 112.079178 
L 364.598969 109.568722 
L 365.779531 108.499019 
L 366.960093 106.973443 
L 368.140655 105.996663 
L 369.321217 102.993783 
L 370.501779 100.98334 
L 371.682341 99.890399 
L 372.862903 99.511501 
L 374.043465 99.836349 
L 375.224027 100.405441 
L 376.404589 101.910357 
L 377.585151 102.998882 
L 378.765713 102.262341 
L 381.126837 97.590243 
L 382.307399 95.811996 
L 383.487961 95.178045 
L 384.668523 96.267711 
L 384.668523 96.267711 
" style="fill:none;stroke:#008000;stroke-linecap:square;stroke-width:1.5;"/>
   </g>
   <g id="patch_3">
    <path d="M 43.78125 288.430125 
L 43.78125 22.318125 
" style="fill:none;stroke:#000000;stroke-linecap:square;stroke-linejoin:miter;stroke-width:0.8;"/>
   </g>
   <g id="patch_4">
    <path d="M 400.90125 288.430125 
L 400.90125 22.318125 
" style="fill:none;stroke:#000000;stroke-linecap:square;stroke-linejoin:miter;stroke-width:0.8;"/>
   </g>
   <g id="patch_5">
    <path d="M 43.78125 288.430125 
L 400.90125 288.430125 
" style="fill:none;stroke:#000000;stroke-linecap:square;stroke-linejoin:miter;stroke-width:0.8;"/>
   </g>
   <g id="patch_6">
    <path d="M 43.78125 22.318125 
L 400.90125 22.318125 
" style="fill:none;stroke:#000000;stroke-linecap:square;stroke-linejoin:miter;stroke-width:0.8;"/>
   </g>
   <g id="text_15">
    <!-- Entropy and Loss. -->
    <defs>
     <path d="M 9.1875 72.90625 
L 59.90625 72.90625 
L 59.90625 58.6875 
L 27.984375 58.6875 
L 27.984375 45.125 
L 58.015625 45.125 
L 58.015625 30.90625 
L 27.984375 30.90625 
L 27.984375 14.203125 
L 60.984375 14.203125 
L 60.984375 0 
L 9.1875 0 
z
" id="DejaVuSans-Bold-69"/>
     <path d="M 63.375 33.296875 
L 63.375 0 
L 45.796875 0 
L 45.796875 5.421875 
L 45.796875 25.484375 
Q 45.796875 32.5625 45.484375 35.25 
Q 45.171875 37.9375 44.390625 39.203125 
Q 43.359375 40.921875 41.59375 41.875 
Q 39.84375 42.828125 37.59375 42.828125 
Q 32.125 42.828125 29 38.59375 
Q 25.875 34.375 25.875 26.90625 
L 25.875 0 
L 8.40625 0 
L 8.40625 54.6875 
L 25.875 54.6875 
L 25.875 46.6875 
Q 29.828125 51.46875 34.265625 53.734375 
Q 38.71875 56 44.09375 56 
Q 53.5625 56 58.46875 50.1875 
Q 63.375 44.390625 63.375 33.296875 
z
" id="DejaVuSans-Bold-110"/>
     <path d="M 27.484375 70.21875 
L 27.484375 54.6875 
L 45.515625 54.6875 
L 45.515625 42.1875 
L 27.484375 42.1875 
L 27.484375 19 
Q 27.484375 15.1875 29 13.84375 
Q 30.515625 12.5 35.015625 12.5 
L 44 12.5 
L 44 0 
L 29 0 
Q 18.65625 0 14.328125 4.3125 
Q 10.015625 8.640625 10.015625 19 
L 10.015625 42.1875 
L 1.3125 42.1875 
L 1.3125 54.6875 
L 10.015625 54.6875 
L 10.015625 70.21875 
z
" id="DejaVuSans-Bold-116"/>
     <path d="M 49.03125 39.796875 
Q 46.734375 40.875 44.453125 41.375 
Q 42.1875 41.890625 39.890625 41.890625 
Q 33.15625 41.890625 29.515625 37.5625 
Q 25.875 33.25 25.875 25.203125 
L 25.875 0 
L 8.40625 0 
L 8.40625 54.6875 
L 25.875 54.6875 
L 25.875 45.703125 
Q 29.25 51.078125 33.609375 53.53125 
Q 37.984375 56 44.09375 56 
Q 44.96875 56 45.984375 55.921875 
Q 47.015625 55.859375 48.96875 55.609375 
z
" id="DejaVuSans-Bold-114"/>
     <path d="M 34.421875 43.5 
Q 28.609375 43.5 25.5625 39.328125 
Q 22.515625 35.15625 22.515625 27.296875 
Q 22.515625 19.4375 25.5625 15.25 
Q 28.609375 11.078125 34.421875 11.078125 
Q 40.140625 11.078125 43.15625 15.25 
Q 46.1875 19.4375 46.1875 27.296875 
Q 46.1875 35.15625 43.15625 39.328125 
Q 40.140625 43.5 34.421875 43.5 
z
M 34.421875 56 
Q 48.53125 56 56.46875 48.375 
Q 64.40625 40.765625 64.40625 27.296875 
Q 64.40625 13.8125 56.46875 6.1875 
Q 48.53125 -1.421875 34.421875 -1.421875 
Q 20.265625 -1.421875 12.28125 6.1875 
Q 4.296875 13.8125 4.296875 27.296875 
Q 4.296875 40.765625 12.28125 48.375 
Q 20.265625 56 34.421875 56 
z
" id="DejaVuSans-Bold-111"/>
     <path d="M 25.875 7.90625 
L 25.875 -20.796875 
L 8.40625 -20.796875 
L 8.40625 54.6875 
L 25.875 54.6875 
L 25.875 46.6875 
Q 29.5 51.46875 33.890625 53.734375 
Q 38.28125 56 44 56 
Q 54.109375 56 60.59375 47.96875 
Q 67.09375 39.9375 67.09375 27.296875 
Q 67.09375 14.65625 60.59375 6.609375 
Q 54.109375 -1.421875 44 -1.421875 
Q 38.28125 -1.421875 33.890625 0.84375 
Q 29.5 3.125 25.875 7.90625 
z
M 37.5 43.3125 
Q 31.890625 43.3125 28.875 39.1875 
Q 25.875 35.0625 25.875 27.296875 
Q 25.875 19.53125 28.875 15.40625 
Q 31.890625 11.28125 37.5 11.28125 
Q 43.109375 11.28125 46.0625 15.375 
Q 49.03125 19.484375 49.03125 27.296875 
Q 49.03125 35.109375 46.0625 39.203125 
Q 43.109375 43.3125 37.5 43.3125 
z
" id="DejaVuSans-Bold-112"/>
     <path d="M 1.21875 54.6875 
L 18.703125 54.6875 
L 33.40625 17.578125 
L 45.90625 54.6875 
L 63.375 54.6875 
L 40.375 -5.171875 
Q 36.921875 -14.3125 32.296875 -17.9375 
Q 27.6875 -21.578125 20.125 -21.578125 
L 10.015625 -21.578125 
L 10.015625 -10.109375 
L 15.484375 -10.109375 
Q 19.921875 -10.109375 21.9375 -8.6875 
Q 23.96875 -7.28125 25.09375 -3.609375 
L 25.59375 -2.09375 
z
" id="DejaVuSans-Bold-121"/>
     <path id="DejaVuSans-Bold-32"/>
     <path d="M 32.90625 24.609375 
Q 27.4375 24.609375 24.671875 22.75 
Q 21.921875 20.90625 21.921875 17.28125 
Q 21.921875 13.96875 24.140625 12.078125 
Q 26.375 10.203125 30.328125 10.203125 
Q 35.25 10.203125 38.625 13.734375 
Q 42 17.28125 42 22.609375 
L 42 24.609375 
z
M 59.625 31.203125 
L 59.625 0 
L 42 0 
L 42 8.109375 
Q 38.484375 3.125 34.078125 0.84375 
Q 29.6875 -1.421875 23.390625 -1.421875 
Q 14.890625 -1.421875 9.59375 3.53125 
Q 4.296875 8.5 4.296875 16.40625 
Q 4.296875 26.03125 10.90625 30.515625 
Q 17.53125 35.015625 31.6875 35.015625 
L 42 35.015625 
L 42 36.375 
Q 42 40.53125 38.71875 42.453125 
Q 35.453125 44.390625 28.515625 44.390625 
Q 22.90625 44.390625 18.0625 43.265625 
Q 13.234375 42.140625 9.078125 39.890625 
L 9.078125 53.21875 
Q 14.703125 54.59375 20.359375 55.296875 
Q 26.03125 56 31.6875 56 
Q 46.484375 56 53.046875 50.171875 
Q 59.625 44.34375 59.625 31.203125 
z
" id="DejaVuSans-Bold-97"/>
     <path d="M 45.609375 46.6875 
L 45.609375 75.984375 
L 63.1875 75.984375 
L 63.1875 0 
L 45.609375 0 
L 45.609375 7.90625 
Q 42 3.078125 37.640625 0.828125 
Q 33.296875 -1.421875 27.59375 -1.421875 
Q 17.484375 -1.421875 10.984375 6.609375 
Q 4.5 14.65625 4.5 27.296875 
Q 4.5 39.9375 10.984375 47.96875 
Q 17.484375 56 27.59375 56 
Q 33.25 56 37.625 53.734375 
Q 42 51.46875 45.609375 46.6875 
z
M 34.078125 11.28125 
Q 39.703125 11.28125 42.65625 15.375 
Q 45.609375 19.484375 45.609375 27.296875 
Q 45.609375 35.109375 42.65625 39.203125 
Q 39.703125 43.3125 34.078125 43.3125 
Q 28.515625 43.3125 25.5625 39.203125 
Q 22.609375 35.109375 22.609375 27.296875 
Q 22.609375 19.484375 25.5625 15.375 
Q 28.515625 11.28125 34.078125 11.28125 
z
" id="DejaVuSans-Bold-100"/>
     <path d="M 9.1875 72.90625 
L 27.984375 72.90625 
L 27.984375 14.203125 
L 60.984375 14.203125 
L 60.984375 0 
L 9.1875 0 
z
" id="DejaVuSans-Bold-76"/>
     <path d="M 51.125 52.984375 
L 51.125 39.703125 
Q 45.515625 42.046875 40.28125 43.21875 
Q 35.0625 44.390625 30.421875 44.390625 
Q 25.4375 44.390625 23.015625 43.140625 
Q 20.609375 41.890625 20.609375 39.3125 
Q 20.609375 37.203125 22.4375 36.078125 
Q 24.265625 34.96875 29 34.421875 
L 32.078125 33.984375 
Q 45.515625 32.28125 50.140625 28.375 
Q 54.78125 24.46875 54.78125 16.109375 
Q 54.78125 7.375 48.328125 2.96875 
Q 41.890625 -1.421875 29.109375 -1.421875 
Q 23.6875 -1.421875 17.890625 -0.5625 
Q 12.109375 0.296875 6 2 
L 6 15.28125 
Q 11.234375 12.75 16.71875 11.46875 
Q 22.21875 10.203125 27.875 10.203125 
Q 33.015625 10.203125 35.59375 11.609375 
Q 38.1875 13.03125 38.1875 15.828125 
Q 38.1875 18.171875 36.40625 19.3125 
Q 34.625 20.453125 29.296875 21.09375 
L 26.21875 21.484375 
Q 14.546875 22.953125 9.859375 26.90625 
Q 5.171875 30.859375 5.171875 38.921875 
Q 5.171875 47.609375 11.125 51.796875 
Q 17.09375 56 29.390625 56 
Q 34.234375 56 39.546875 55.265625 
Q 44.875 54.546875 51.125 52.984375 
z
" id="DejaVuSans-Bold-115"/>
     <path d="M 10.203125 18.890625 
L 27.78125 18.890625 
L 27.78125 0 
L 10.203125 0 
z
" id="DejaVuSans-Bold-46"/>
    </defs>
    <g transform="translate(161.657813 16.318125)scale(0.12 -0.12)">
     <use xlink:href="#DejaVuSans-Bold-69"/>
     <use x="68.310547" xlink:href="#DejaVuSans-Bold-110"/>
     <use x="139.501953" xlink:href="#DejaVuSans-Bold-116"/>
     <use x="187.304688" xlink:href="#DejaVuSans-Bold-114"/>
     <use x="236.621094" xlink:href="#DejaVuSans-Bold-111"/>
     <use x="305.322266" xlink:href="#DejaVuSans-Bold-112"/>
     <use x="376.904297" xlink:href="#DejaVuSans-Bold-121"/>
     <use x="442.089844" xlink:href="#DejaVuSans-Bold-32"/>
     <use x="476.904297" xlink:href="#DejaVuSans-Bold-97"/>
     <use x="544.384766" xlink:href="#DejaVuSans-Bold-110"/>
     <use x="615.576172" xlink:href="#DejaVuSans-Bold-100"/>
     <use x="687.158203" xlink:href="#DejaVuSans-Bold-32"/>
     <use x="721.972656" xlink:href="#DejaVuSans-Bold-76"/>
     <use x="785.693359" xlink:href="#DejaVuSans-Bold-111"/>
     <use x="854.394531" xlink:href="#DejaVuSans-Bold-115"/>
     <use x="913.916016" xlink:href="#DejaVuSans-Bold-115"/>
     <use x="973.4375" xlink:href="#DejaVuSans-Bold-46"/>
    </g>
   </g>
   <g id="legend_1">
    <g id="patch_7">
     <path d="M 18.982656 353.02505 
L 429.699844 353.02505 
Q 431.699844 353.02505 431.699844 351.02505 
L 431.699844 337.346925 
Q 431.699844 335.346925 429.699844 335.346925 
L 18.982656 335.346925 
Q 16.982656 335.346925 16.982656 337.346925 
L 16.982656 351.02505 
Q 16.982656 353.02505 18.982656 353.02505 
z
" style="fill:#4c4c4c;opacity:0.5;stroke:#4c4c4c;stroke-linejoin:miter;"/>
    </g>
    <g id="patch_8">
     <path d="M 16.982656 351.02505 
L 427.699844 351.02505 
Q 429.699844 351.02505 429.699844 349.02505 
L 429.699844 335.346925 
Q 429.699844 333.346925 427.699844 333.346925 
L 16.982656 333.346925 
Q 14.982656 333.346925 14.982656 335.346925 
L 14.982656 349.02505 
Q 14.982656 351.02505 16.982656 351.02505 
z
" style="fill:#ffffff;stroke:#cccccc;stroke-linejoin:miter;"/>
    </g>
    <g id="line2d_18">
     <path d="M 18.982656 341.445362 
L 38.982656 341.445362 
" style="fill:none;stroke:#1f77b4;stroke-linecap:square;stroke-opacity:0.3;stroke-width:1.5;"/>
    </g>
    <g id="line2d_19"/>
    <g id="text_16">
     <!-- Policy Loss (Normalized) -->
     <defs>
      <path d="M 19.671875 64.796875 
L 19.671875 37.40625 
L 32.078125 37.40625 
Q 38.96875 37.40625 42.71875 40.96875 
Q 46.484375 44.53125 46.484375 51.125 
Q 46.484375 57.671875 42.71875 61.234375 
Q 38.96875 64.796875 32.078125 64.796875 
z
M 9.8125 72.90625 
L 32.078125 72.90625 
Q 44.34375 72.90625 50.609375 67.359375 
Q 56.890625 61.8125 56.890625 51.125 
Q 56.890625 40.328125 50.609375 34.8125 
Q 44.34375 29.296875 32.078125 29.296875 
L 19.671875 29.296875 
L 19.671875 0 
L 9.8125 0 
z
" id="DejaVuSans-80"/>
      <path d="M 9.421875 75.984375 
L 18.40625 75.984375 
L 18.40625 0 
L 9.421875 0 
z
" id="DejaVuSans-108"/>
      <path d="M 9.421875 54.6875 
L 18.40625 54.6875 
L 18.40625 0 
L 9.421875 0 
z
M 9.421875 75.984375 
L 18.40625 75.984375 
L 18.40625 64.59375 
L 9.421875 64.59375 
z
" id="DejaVuSans-105"/>
      <path d="M 32.171875 -5.078125 
Q 28.375 -14.84375 24.75 -17.8125 
Q 21.140625 -20.796875 15.09375 -20.796875 
L 7.90625 -20.796875 
L 7.90625 -13.28125 
L 13.1875 -13.28125 
Q 16.890625 -13.28125 18.9375 -11.515625 
Q 21 -9.765625 23.484375 -3.21875 
L 25.09375 0.875 
L 2.984375 54.6875 
L 12.5 54.6875 
L 29.59375 11.921875 
L 46.6875 54.6875 
L 56.203125 54.6875 
z
" id="DejaVuSans-121"/>
      <path id="DejaVuSans-32"/>
      <path d="M 31 75.875 
Q 24.46875 64.65625 21.28125 53.65625 
Q 18.109375 42.671875 18.109375 31.390625 
Q 18.109375 20.125 21.3125 9.0625 
Q 24.515625 -2 31 -13.1875 
L 23.1875 -13.1875 
Q 15.875 -1.703125 12.234375 9.375 
Q 8.59375 20.453125 8.59375 31.390625 
Q 8.59375 42.28125 12.203125 53.3125 
Q 15.828125 64.359375 23.1875 75.875 
z
" id="DejaVuSans-40"/>
      <path d="M 9.8125 72.90625 
L 23.09375 72.90625 
L 55.421875 11.921875 
L 55.421875 72.90625 
L 64.984375 72.90625 
L 64.984375 0 
L 51.703125 0 
L 19.390625 60.984375 
L 19.390625 0 
L 9.8125 0 
z
" id="DejaVuSans-78"/>
      <path d="M 41.109375 46.296875 
Q 39.59375 47.171875 37.8125 47.578125 
Q 36.03125 48 33.890625 48 
Q 26.265625 48 22.1875 43.046875 
Q 18.109375 38.09375 18.109375 28.8125 
L 18.109375 0 
L 9.078125 0 
L 9.078125 54.6875 
L 18.109375 54.6875 
L 18.109375 46.1875 
Q 20.953125 51.171875 25.484375 53.578125 
Q 30.03125 56 36.53125 56 
Q 37.453125 56 38.578125 55.875 
Q 39.703125 55.765625 41.0625 55.515625 
z
" id="DejaVuSans-114"/>
      <path d="M 52 44.1875 
Q 55.375 50.25 60.0625 53.125 
Q 64.75 56 71.09375 56 
Q 79.640625 56 84.28125 50.015625 
Q 88.921875 44.046875 88.921875 33.015625 
L 88.921875 0 
L 79.890625 0 
L 79.890625 32.71875 
Q 79.890625 40.578125 77.09375 44.375 
Q 74.3125 48.1875 68.609375 48.1875 
Q 61.625 48.1875 57.5625 43.546875 
Q 53.515625 38.921875 53.515625 30.90625 
L 53.515625 0 
L 44.484375 0 
L 44.484375 32.71875 
Q 44.484375 40.625 41.703125 44.40625 
Q 38.921875 48.1875 33.109375 48.1875 
Q 26.21875 48.1875 22.15625 43.53125 
Q 18.109375 38.875 18.109375 30.90625 
L 18.109375 0 
L 9.078125 0 
L 9.078125 54.6875 
L 18.109375 54.6875 
L 18.109375 46.1875 
Q 21.1875 51.21875 25.484375 53.609375 
Q 29.78125 56 35.6875 56 
Q 41.65625 56 45.828125 52.96875 
Q 50 49.953125 52 44.1875 
z
" id="DejaVuSans-109"/>
      <path d="M 34.28125 27.484375 
Q 23.390625 27.484375 19.1875 25 
Q 14.984375 22.515625 14.984375 16.5 
Q 14.984375 11.71875 18.140625 8.90625 
Q 21.296875 6.109375 26.703125 6.109375 
Q 34.1875 6.109375 38.703125 11.40625 
Q 43.21875 16.703125 43.21875 25.484375 
L 43.21875 27.484375 
z
M 52.203125 31.203125 
L 52.203125 0 
L 43.21875 0 
L 43.21875 8.296875 
Q 40.140625 3.328125 35.546875 0.953125 
Q 30.953125 -1.421875 24.3125 -1.421875 
Q 15.921875 -1.421875 10.953125 3.296875 
Q 6 8.015625 6 15.921875 
Q 6 25.140625 12.171875 29.828125 
Q 18.359375 34.515625 30.609375 34.515625 
L 43.21875 34.515625 
L 43.21875 35.40625 
Q 43.21875 41.609375 39.140625 45 
Q 35.0625 48.390625 27.6875 48.390625 
Q 23 48.390625 18.546875 47.265625 
Q 14.109375 46.140625 10.015625 43.890625 
L 10.015625 52.203125 
Q 14.9375 54.109375 19.578125 55.046875 
Q 24.21875 56 28.609375 56 
Q 40.484375 56 46.34375 49.84375 
Q 52.203125 43.703125 52.203125 31.203125 
z
" id="DejaVuSans-97"/>
      <path d="M 5.515625 54.6875 
L 48.1875 54.6875 
L 48.1875 46.484375 
L 14.40625 7.171875 
L 48.1875 7.171875 
L 48.1875 0 
L 4.296875 0 
L 4.296875 8.203125 
L 38.09375 47.515625 
L 5.515625 47.515625 
z
" id="DejaVuSans-122"/>
      <path d="M 56.203125 29.59375 
L 56.203125 25.203125 
L 14.890625 25.203125 
Q 15.484375 15.921875 20.484375 11.0625 
Q 25.484375 6.203125 34.421875 6.203125 
Q 39.59375 6.203125 44.453125 7.46875 
Q 49.3125 8.734375 54.109375 11.28125 
L 54.109375 2.78125 
Q 49.265625 0.734375 44.1875 -0.34375 
Q 39.109375 -1.421875 33.890625 -1.421875 
Q 20.796875 -1.421875 13.15625 6.1875 
Q 5.515625 13.8125 5.515625 26.8125 
Q 5.515625 40.234375 12.765625 48.109375 
Q 20.015625 56 32.328125 56 
Q 43.359375 56 49.78125 48.890625 
Q 56.203125 41.796875 56.203125 29.59375 
z
M 47.21875 32.234375 
Q 47.125 39.59375 43.09375 43.984375 
Q 39.0625 48.390625 32.421875 48.390625 
Q 24.90625 48.390625 20.390625 44.140625 
Q 15.875 39.890625 15.1875 32.171875 
z
" id="DejaVuSans-101"/>
      <path d="M 45.40625 46.390625 
L 45.40625 75.984375 
L 54.390625 75.984375 
L 54.390625 0 
L 45.40625 0 
L 45.40625 8.203125 
Q 42.578125 3.328125 38.25 0.953125 
Q 33.9375 -1.421875 27.875 -1.421875 
Q 17.96875 -1.421875 11.734375 6.484375 
Q 5.515625 14.40625 5.515625 27.296875 
Q 5.515625 40.1875 11.734375 48.09375 
Q 17.96875 56 27.875 56 
Q 33.9375 56 38.25 53.625 
Q 42.578125 51.265625 45.40625 46.390625 
z
M 14.796875 27.296875 
Q 14.796875 17.390625 18.875 11.75 
Q 22.953125 6.109375 30.078125 6.109375 
Q 37.203125 6.109375 41.296875 11.75 
Q 45.40625 17.390625 45.40625 27.296875 
Q 45.40625 37.203125 41.296875 42.84375 
Q 37.203125 48.484375 30.078125 48.484375 
Q 22.953125 48.484375 18.875 42.84375 
Q 14.796875 37.203125 14.796875 27.296875 
z
" id="DejaVuSans-100"/>
      <path d="M 8.015625 75.875 
L 15.828125 75.875 
Q 23.140625 64.359375 26.78125 53.3125 
Q 30.421875 42.28125 30.421875 31.390625 
Q 30.421875 20.453125 26.78125 9.375 
Q 23.140625 -1.703125 15.828125 -13.1875 
L 8.015625 -13.1875 
Q 14.5 -2 17.703125 9.0625 
Q 20.90625 20.125 20.90625 31.390625 
Q 20.90625 42.671875 17.703125 53.65625 
Q 14.5 64.65625 8.015625 75.875 
z
" id="DejaVuSans-41"/>
     </defs>
     <g transform="translate(46.982656 344.945362)scale(0.1 -0.1)">
      <use xlink:href="#DejaVuSans-80"/>
      <use x="60.255859" xlink:href="#DejaVuSans-111"/>
      <use x="121.4375" xlink:href="#DejaVuSans-108"/>
      <use x="149.220703" xlink:href="#DejaVuSans-105"/>
      <use x="177.003906" xlink:href="#DejaVuSans-99"/>
      <use x="231.984375" xlink:href="#DejaVuSans-121"/>
      <use x="291.164062" xlink:href="#DejaVuSans-32"/>
      <use x="322.951172" xlink:href="#DejaVuSans-76"/>
      <use x="378.648438" xlink:href="#DejaVuSans-111"/>
      <use x="439.830078" xlink:href="#DejaVuSans-115"/>
      <use x="491.929688" xlink:href="#DejaVuSans-115"/>
      <use x="544.029297" xlink:href="#DejaVuSans-32"/>
      <use x="575.816406" xlink:href="#DejaVuSans-40"/>
      <use x="614.830078" xlink:href="#DejaVuSans-78"/>
      <use x="689.634766" xlink:href="#DejaVuSans-111"/>
      <use x="750.816406" xlink:href="#DejaVuSans-114"/>
      <use x="791.914062" xlink:href="#DejaVuSans-109"/>
      <use x="889.326172" xlink:href="#DejaVuSans-97"/>
      <use x="950.605469" xlink:href="#DejaVuSans-108"/>
      <use x="978.388672" xlink:href="#DejaVuSans-105"/>
      <use x="1006.171875" xlink:href="#DejaVuSans-122"/>
      <use x="1058.662109" xlink:href="#DejaVuSans-101"/>
      <use x="1120.185547" xlink:href="#DejaVuSans-100"/>
      <use x="1183.662109" xlink:href="#DejaVuSans-41"/>
     </g>
    </g>
    <g id="line2d_20">
     <path d="M 189.251406 341.445362 
L 209.251406 341.445362 
" style="fill:none;stroke:#ff7f0e;stroke-linecap:square;stroke-opacity:0.3;stroke-width:1.5;"/>
    </g>
    <g id="line2d_21"/>
    <g id="text_17">
     <!-- Value Loss (Normalized) -->
     <defs>
      <path d="M 28.609375 0 
L 0.78125 72.90625 
L 11.078125 72.90625 
L 34.1875 11.53125 
L 57.328125 72.90625 
L 67.578125 72.90625 
L 39.796875 0 
z
" id="DejaVuSans-86"/>
      <path d="M 8.5 21.578125 
L 8.5 54.6875 
L 17.484375 54.6875 
L 17.484375 21.921875 
Q 17.484375 14.15625 20.5 10.265625 
Q 23.53125 6.390625 29.59375 6.390625 
Q 36.859375 6.390625 41.078125 11.03125 
Q 45.3125 15.671875 45.3125 23.6875 
L 45.3125 54.6875 
L 54.296875 54.6875 
L 54.296875 0 
L 45.3125 0 
L 45.3125 8.40625 
Q 42.046875 3.421875 37.71875 1 
Q 33.40625 -1.421875 27.6875 -1.421875 
Q 18.265625 -1.421875 13.375 4.4375 
Q 8.5 10.296875 8.5 21.578125 
z
M 31.109375 56 
z
" id="DejaVuSans-117"/>
     </defs>
     <g transform="translate(217.251406 344.945362)scale(0.1 -0.1)">
      <use xlink:href="#DejaVuSans-86"/>
      <use x="68.298828" xlink:href="#DejaVuSans-97"/>
      <use x="129.578125" xlink:href="#DejaVuSans-108"/>
      <use x="157.361328" xlink:href="#DejaVuSans-117"/>
      <use x="220.740234" xlink:href="#DejaVuSans-101"/>
      <use x="282.263672" xlink:href="#DejaVuSans-32"/>
      <use x="314.050781" xlink:href="#DejaVuSans-76"/>
      <use x="369.748047" xlink:href="#DejaVuSans-111"/>
      <use x="430.929688" xlink:href="#DejaVuSans-115"/>
      <use x="483.029297" xlink:href="#DejaVuSans-115"/>
      <use x="535.128906" xlink:href="#DejaVuSans-32"/>
      <use x="566.916016" xlink:href="#DejaVuSans-40"/>
      <use x="605.929688" xlink:href="#DejaVuSans-78"/>
      <use x="680.734375" xlink:href="#DejaVuSans-111"/>
      <use x="741.916016" xlink:href="#DejaVuSans-114"/>
      <use x="783.013672" xlink:href="#DejaVuSans-109"/>
      <use x="880.425781" xlink:href="#DejaVuSans-97"/>
      <use x="941.705078" xlink:href="#DejaVuSans-108"/>
      <use x="969.488281" xlink:href="#DejaVuSans-105"/>
      <use x="997.271484" xlink:href="#DejaVuSans-122"/>
      <use x="1049.761719" xlink:href="#DejaVuSans-101"/>
      <use x="1111.285156" xlink:href="#DejaVuSans-100"/>
      <use x="1174.761719" xlink:href="#DejaVuSans-41"/>
     </g>
    </g>
    <g id="line2d_22">
     <path d="M 358.629531 341.445362 
L 378.629531 341.445362 
" style="fill:none;stroke:#008000;stroke-linecap:square;stroke-opacity:0.3;stroke-width:1.5;"/>
    </g>
    <g id="line2d_23"/>
    <g id="text_18">
     <!-- Entropy -->
     <defs>
      <path d="M 54.890625 33.015625 
L 54.890625 0 
L 45.90625 0 
L 45.90625 32.71875 
Q 45.90625 40.484375 42.875 44.328125 
Q 39.84375 48.1875 33.796875 48.1875 
Q 26.515625 48.1875 22.3125 43.546875 
Q 18.109375 38.921875 18.109375 30.90625 
L 18.109375 0 
L 9.078125 0 
L 9.078125 54.6875 
L 18.109375 54.6875 
L 18.109375 46.1875 
Q 21.34375 51.125 25.703125 53.5625 
Q 30.078125 56 35.796875 56 
Q 45.21875 56 50.046875 50.171875 
Q 54.890625 44.34375 54.890625 33.015625 
z
" id="DejaVuSans-110"/>
      <path d="M 18.3125 70.21875 
L 18.3125 54.6875 
L 36.8125 54.6875 
L 36.8125 47.703125 
L 18.3125 47.703125 
L 18.3125 18.015625 
Q 18.3125 11.328125 20.140625 9.421875 
Q 21.96875 7.515625 27.59375 7.515625 
L 36.8125 7.515625 
L 36.8125 0 
L 27.59375 0 
Q 17.1875 0 13.234375 3.875 
Q 9.28125 7.765625 9.28125 18.015625 
L 9.28125 47.703125 
L 2.6875 47.703125 
L 2.6875 54.6875 
L 9.28125 54.6875 
L 9.28125 70.21875 
z
" id="DejaVuSans-116"/>
     </defs>
     <g transform="translate(386.629531 344.945362)scale(0.1 -0.1)">
      <use xlink:href="#DejaVuSans-69"/>
      <use x="63.183594" xlink:href="#DejaVuSans-110"/>
      <use x="126.5625" xlink:href="#DejaVuSans-116"/>
      <use x="165.771484" xlink:href="#DejaVuSans-114"/>
      <use x="206.853516" xlink:href="#DejaVuSans-111"/>
      <use x="268.035156" xlink:href="#DejaVuSans-112"/>
      <use x="331.511719" xlink:href="#DejaVuSans-121"/>
     </g>
    </g>
   </g>
  </g>
  <g id="axes_2">
   <g id="matplotlib.axis_3">
    <g id="ytick_7">
     <g id="line2d_24">
      <defs>
       <path d="M 0 0 
L 3.5 0 
" id="m1f4c4346b5" style="stroke:#000000;stroke-width:0.8;"/>
      </defs>
      <g>
       <use style="stroke:#000000;stroke-width:0.8;" x="400.90125" xlink:href="#m1f4c4346b5" y="246.091116"/>
      </g>
     </g>
     <g id="text_19">
      <!-- 0.4 -->
      <g transform="translate(407.90125 249.890335)scale(0.1 -0.1)">
       <use xlink:href="#DejaVuSans-48"/>
       <use x="63.623047" xlink:href="#DejaVuSans-46"/>
       <use x="95.410156" xlink:href="#DejaVuSans-52"/>
      </g>
     </g>
    </g>
    <g id="ytick_8">
     <g id="line2d_25">
      <g>
       <use style="stroke:#000000;stroke-width:0.8;" x="400.90125" xlink:href="#m1f4c4346b5" y="202.183217"/>
      </g>
     </g>
     <g id="text_20">
      <!-- 0.5 -->
      <g transform="translate(407.90125 205.982436)scale(0.1 -0.1)">
       <use xlink:href="#DejaVuSans-48"/>
       <use x="63.623047" xlink:href="#DejaVuSans-46"/>
       <use x="95.410156" xlink:href="#DejaVuSans-53"/>
      </g>
     </g>
    </g>
    <g id="ytick_9">
     <g id="line2d_26">
      <g>
       <use style="stroke:#000000;stroke-width:0.8;" x="400.90125" xlink:href="#m1f4c4346b5" y="158.275318"/>
      </g>
     </g>
     <g id="text_21">
      <!-- 0.6 -->
      <g transform="translate(407.90125 162.074537)scale(0.1 -0.1)">
       <use xlink:href="#DejaVuSans-48"/>
       <use x="63.623047" xlink:href="#DejaVuSans-46"/>
       <use x="95.410156" xlink:href="#DejaVuSans-54"/>
      </g>
     </g>
    </g>
    <g id="ytick_10">
     <g id="line2d_27">
      <g>
       <use style="stroke:#000000;stroke-width:0.8;" x="400.90125" xlink:href="#m1f4c4346b5" y="114.367419"/>
      </g>
     </g>
     <g id="text_22">
      <!-- 0.7 -->
      <defs>
       <path d="M 8.203125 72.90625 
L 55.078125 72.90625 
L 55.078125 68.703125 
L 28.609375 0 
L 18.3125 0 
L 43.21875 64.59375 
L 8.203125 64.59375 
z
" id="DejaVuSans-55"/>
      </defs>
      <g transform="translate(407.90125 118.166638)scale(0.1 -0.1)">
       <use xlink:href="#DejaVuSans-48"/>
       <use x="63.623047" xlink:href="#DejaVuSans-46"/>
       <use x="95.410156" xlink:href="#DejaVuSans-55"/>
      </g>
     </g>
    </g>
    <g id="ytick_11">
     <g id="line2d_28">
      <g>
       <use style="stroke:#000000;stroke-width:0.8;" x="400.90125" xlink:href="#m1f4c4346b5" y="70.45952"/>
      </g>
     </g>
     <g id="text_23">
      <!-- 0.8 -->
      <g transform="translate(407.90125 74.258739)scale(0.1 -0.1)">
       <use xlink:href="#DejaVuSans-48"/>
       <use x="63.623047" xlink:href="#DejaVuSans-46"/>
       <use x="95.410156" xlink:href="#DejaVuSans-56"/>
      </g>
     </g>
    </g>
    <g id="ytick_12">
     <g id="line2d_29">
      <g>
       <use style="stroke:#000000;stroke-width:0.8;" x="400.90125" xlink:href="#m1f4c4346b5" y="26.551621"/>
      </g>
     </g>
     <g id="text_24">
      <!-- 0.9 -->
      <defs>
       <path d="M 10.984375 1.515625 
L 10.984375 10.5 
Q 14.703125 8.734375 18.5 7.8125 
Q 22.3125 6.890625 25.984375 6.890625 
Q 35.75 6.890625 40.890625 13.453125 
Q 46.046875 20.015625 46.78125 33.40625 
Q 43.953125 29.203125 39.59375 26.953125 
Q 35.25 24.703125 29.984375 24.703125 
Q 19.046875 24.703125 12.671875 31.3125 
Q 6.296875 37.9375 6.296875 49.421875 
Q 6.296875 60.640625 12.9375 67.421875 
Q 19.578125 74.21875 30.609375 74.21875 
Q 43.265625 74.21875 49.921875 64.515625 
Q 56.59375 54.828125 56.59375 36.375 
Q 56.59375 19.140625 48.40625 8.859375 
Q 40.234375 -1.421875 26.421875 -1.421875 
Q 22.703125 -1.421875 18.890625 -0.6875 
Q 15.09375 0.046875 10.984375 1.515625 
z
M 30.609375 32.421875 
Q 37.25 32.421875 41.125 36.953125 
Q 45.015625 41.5 45.015625 49.421875 
Q 45.015625 57.28125 41.125 61.84375 
Q 37.25 66.40625 30.609375 66.40625 
Q 23.96875 66.40625 20.09375 61.84375 
Q 16.21875 57.28125 16.21875 49.421875 
Q 16.21875 41.5 20.09375 36.953125 
Q 23.96875 32.421875 30.609375 32.421875 
z
" id="DejaVuSans-57"/>
      </defs>
      <g transform="translate(407.90125 30.35084)scale(0.1 -0.1)">
       <use xlink:href="#DejaVuSans-48"/>
       <use x="63.623047" xlink:href="#DejaVuSans-46"/>
       <use x="95.410156" xlink:href="#DejaVuSans-57"/>
      </g>
     </g>
    </g>
    <g id="text_25">
     <!-- Entropy -->
     <g transform="translate(435.402812 174.909281)rotate(-90)scale(0.1 -0.1)">
      <use xlink:href="#DejaVuSans-69"/>
      <use x="63.183594" xlink:href="#DejaVuSans-110"/>
      <use x="126.5625" xlink:href="#DejaVuSans-116"/>
      <use x="165.771484" xlink:href="#DejaVuSans-114"/>
      <use x="206.853516" xlink:href="#DejaVuSans-111"/>
      <use x="268.035156" xlink:href="#DejaVuSans-112"/>
      <use x="331.511719" xlink:href="#DejaVuSans-121"/>
     </g>
    </g>
   </g>
   <g id="line2d_30">
    <path clip-path="url(#p982f1c532a)" d="M 60.013977 136.747864 
L 61.194539 133.746845 
L 62.375101 132.334728 
L 63.555663 110.906474 
L 64.736225 98.221528 
L 65.916787 89.055031 
L 67.097349 77.455874 
L 68.277911 79.204211 
L 69.458473 78.66875 
L 70.639035 95.359975 
L 71.819597 94.748512 
L 73.000159 97.651416 
L 74.180721 90.035219 
L 75.361283 93.388999 
L 76.541845 97.180858 
L 77.722407 83.190731 
L 78.902969 85.025748 
L 80.083531 89.113759 
L 81.264093 83.172176 
L 82.444655 88.434356 
L 83.625217 91.721924 
L 84.805779 93.76767 
L 85.986341 96.652515 
L 87.166903 98.350264 
L 88.347465 91.223991 
L 89.528027 95.700592 
L 90.708589 99.201009 
L 91.889151 100.299726 
L 93.069713 100.33087 
L 94.250275 103.211188 
L 95.430837 89.980652 
L 96.611399 87.563799 
L 97.791961 88.057021 
L 98.972523 72.455196 
L 100.153085 73.285449 
L 101.333647 73.147475 
L 102.514209 80.180971 
L 103.694771 80.30497 
L 104.875333 80.887932 
L 106.055895 79.648702 
L 107.236457 83.379111 
L 108.417019 83.098321 
L 109.597581 73.248103 
L 110.778143 77.686233 
L 111.958705 81.0252 
L 113.139267 81.511172 
L 115.50039 82.960975 
L 116.680952 77.531849 
L 117.861514 77.751713 
L 119.042076 76.875712 
L 120.222638 80.498767 
L 121.4032 85.211955 
L 122.583762 85.445088 
L 123.764324 83.844146 
L 124.944886 83.492406 
L 126.125448 82.872098 
L 127.30601 81.303373 
L 128.486572 80.761709 
L 129.667134 81.553464 
L 130.847696 80.102091 
L 133.20882 82.547576 
L 134.389382 83.362702 
L 135.569944 83.051265 
L 136.750506 83.60947 
L 137.931068 82.653045 
L 139.11163 84.654144 
L 141.472754 85.294133 
L 142.653316 88.832053 
L 143.833878 87.296984 
L 145.01444 94.741079 
L 146.195002 276.334125 
L 147.375564 163.961147 
L 148.556126 87.379319 
L 149.736688 83.598871 
L 150.91725 83.807664 
L 152.097812 113.445284 
L 153.278374 93.483059 
L 155.639498 82.945613 
L 158.000622 85.121979 
L 159.181184 84.124649 
L 160.361746 84.804994 
L 161.542308 87.810227 
L 162.72287 86.907872 
L 163.903432 86.849091 
L 165.083994 87.844642 
L 166.264556 126.07459 
L 167.445118 111.522909 
L 168.62568 98.623543 
L 169.806242 87.809599 
L 170.986804 88.776361 
L 172.167366 89.272042 
L 173.347928 81.122243 
L 174.52849 80.158307 
L 175.709052 78.8967 
L 176.889614 84.685497 
L 179.250738 87.218052 
L 180.4313 90.315486 
L 181.611862 88.502454 
L 182.792424 87.73543 
L 183.972986 81.553857 
L 185.153548 77.980737 
L 186.33411 71.381682 
L 187.514671 75.848547 
L 188.695233 70.954804 
L 189.875795 69.646875 
L 191.056357 63.79498 
L 192.236919 63.25541 
L 193.417481 69.757631 
L 194.598043 66.528687 
L 195.778605 72.585397 
L 196.959167 66.478805 
L 198.139729 52.567427 
L 199.320291 42.993812 
L 200.500853 34.414125 
L 201.681415 37.99795 
L 202.861977 45.12362 
L 204.042539 48.734715 
L 205.223101 41.101272 
L 206.403663 47.104933 
L 207.584225 49.560833 
L 208.764787 59.362399 
L 209.945349 65.110892 
L 211.125911 66.187363 
L 212.306473 62.177499 
L 213.487035 83.540614 
L 214.667597 83.579661 
L 215.848159 80.568513 
L 217.028721 86.066391 
L 218.209283 88.525327 
L 219.389845 77.745641 
L 220.570407 77.666395 
L 221.750969 80.921929 
L 222.931531 87.243177 
L 224.112093 91.964321 
L 225.292655 98.896979 
L 226.473217 108.77609 
L 227.653779 108.094567 
L 228.834341 109.64649 
L 230.014903 106.27282 
L 231.195465 115.496265 
L 232.376027 115.055883 
L 233.556589 130.7771 
L 234.737151 132.889871 
L 235.917713 127.812564 
L 237.098275 135.051372 
L 238.278837 128.991417 
L 239.459399 126.573962 
L 240.639961 121.483909 
L 241.820523 126.294114 
L 243.001085 115.380117 
L 244.181647 133.124076 
L 245.362209 135.805939 
L 246.542771 132.057759 
L 247.723333 138.760635 
L 248.903895 132.284899 
L 250.084457 130.254148 
L 251.265019 130.179011 
L 252.445581 133.157288 
L 253.626143 132.411384 
L 255.987267 120.554362 
L 257.167829 107.957692 
L 258.34839 116.300399 
L 259.528952 122.743526 
L 260.709514 128.094558 
L 261.890076 134.119862 
L 263.070638 138.483744 
L 264.2512 140.228679 
L 265.431762 141.241346 
L 266.612324 144.168484 
L 267.792886 140.91172 
L 268.973448 138.626429 
L 270.15401 144.1923 
L 271.334572 148.248592 
L 272.515134 153.931133 
L 273.695696 148.507241 
L 274.876258 146.04786 
L 276.05682 155.127102 
L 277.237382 155.439167 
L 278.417944 151.922393 
L 279.598506 154.380413 
L 280.779068 149.950999 
L 281.95963 147.011037 
L 283.140192 140.677514 
L 284.320754 152.119592 
L 285.501316 156.070153 
L 286.681878 154.361518 
L 289.043002 163.10781 
L 290.223564 171.137563 
L 291.404126 173.42589 
L 292.584688 174.789616 
L 293.76525 176.785009 
L 294.945812 178.487363 
L 296.126374 179.123872 
L 297.306936 177.97331 
L 298.487498 175.506025 
L 299.66806 173.350203 
L 300.848622 165.812651 
L 302.029184 160.688916 
L 303.209746 160.524299 
L 304.390308 168.192288 
L 305.57087 170.786372 
L 306.751432 170.102206 
L 307.931994 162.151909 
L 309.112556 163.2629 
L 310.293118 161.728277 
L 311.47368 161.593862 
L 312.654242 152.387166 
L 313.834804 160.829402 
L 315.015366 140.374453 
L 317.37649 133.766526 
L 318.557052 120.525365 
L 319.737614 120.671766 
L 320.918176 120.468678 
L 322.098738 125.932899 
L 324.459862 120.071897 
L 325.640424 125.307435 
L 326.820986 124.618166 
L 328.001548 124.186918 
L 329.18211 117.533819 
L 331.543233 113.059679 
L 332.723795 113.917516 
L 333.904357 116.940493 
L 335.084919 113.253083 
L 336.265481 116.981556 
L 337.446043 130.171186 
L 338.626605 134.054618 
L 339.807167 135.14195 
L 340.987729 131.455195 
L 342.168291 129.243916 
L 343.348853 125.441091 
L 344.529415 117.203801 
L 345.709977 116.547246 
L 346.890539 116.992024 
L 348.071101 113.319087 
L 349.251663 115.789905 
L 350.432225 121.18315 
L 351.612787 128.976028 
L 352.793349 128.990527 
L 353.973911 135.472937 
L 355.154473 138.470789 
L 356.335035 140.955295 
L 357.515597 133.684819 
L 358.696159 128.547711 
L 359.876721 125.723818 
L 361.057283 125.828791 
L 362.237845 113.821494 
L 363.418407 110.701187 
L 364.598969 109.816655 
L 365.779531 109.194933 
L 366.960093 108.936781 
L 368.140655 107.523539 
L 369.321217 107.805193 
L 370.501779 106.671825 
L 371.682341 94.964267 
L 372.862903 95.657959 
L 374.043465 96.690019 
L 375.224027 108.107312 
L 377.585151 104.203153 
L 378.765713 102.659997 
L 379.946275 100.668321 
L 381.126837 100.179025 
L 382.307399 94.735426 
L 383.487961 97.828751 
L 384.668523 96.696797 
L 384.668523 96.696797 
" style="fill:none;stroke:#008000;stroke-linecap:square;stroke-opacity:0.3;stroke-width:1.5;"/>
   </g>
   <g id="patch_9">
    <path d="M 43.78125 288.430125 
L 43.78125 22.318125 
" style="fill:none;stroke:#000000;stroke-linecap:square;stroke-linejoin:miter;stroke-width:0.8;"/>
   </g>
   <g id="patch_10">
    <path d="M 400.90125 288.430125 
L 400.90125 22.318125 
" style="fill:none;stroke:#000000;stroke-linecap:square;stroke-linejoin:miter;stroke-width:0.8;"/>
   </g>
   <g id="patch_11">
    <path d="M 43.78125 288.430125 
L 400.90125 288.430125 
" style="fill:none;stroke:#000000;stroke-linecap:square;stroke-linejoin:miter;stroke-width:0.8;"/>
   </g>
   <g id="patch_12">
    <path d="M 43.78125 22.318125 
L 400.90125 22.318125 
" style="fill:none;stroke:#000000;stroke-linecap:square;stroke-linejoin:miter;stroke-width:0.8;"/>
   </g>
  </g>
 </g>
 <defs>
  <clipPath id="p982f1c532a">
   <rect height="266.112" width="357.12" x="43.78125" y="22.318125"/>
  </clipPath>
 </defs>
</svg>
