<?xml version="1.0" encoding="utf-8" standalone="no"?>
<!DOCTYPE svg PUBLIC "-//W3C//DTD SVG 1.1//EN"
  "http://www.w3.org/Graphics/SVG/1.1/DTD/svg11.dtd">
<!-- Created with matplotlib (https://matplotlib.org/) -->
<svg height="358.22505pt" version="1.1" viewBox="0 0 444.6825 358.22505" width="444.6825pt" xmlns="http://www.w3.org/2000/svg" xmlns:xlink="http://www.w3.org/1999/xlink">
 <defs>
  <style type="text/css">
*{stroke-linecap:butt;stroke-linejoin:round;}
  </style>
 </defs>
 <g id="figure_1">
  <g id="patch_1">
   <path d="M 0 358.22505 
L 444.6825 358.22505 
L 444.6825 0 
L 0 0 
z
" style="fill:#ffffff;"/>
  </g>
  <g id="axes_1">
   <g id="patch_2">
    <path d="M 43.78125 288.430125 
L 400.90125 288.430125 
L 400.90125 22.318125 
L 43.78125 22.318125 
z
" style="fill:#ffffff;"/>
   </g>
   <g id="matplotlib.axis_1">
    <g id="xtick_1">
     <g id="line2d_1">
      <defs>
       <path d="M 0 0 
L 0 3.5 
" id="m7396eb4245" style="stroke:#000000;stroke-width:0.8;"/>
      </defs>
      <g>
       <use style="stroke:#000000;stroke-width:0.8;" x="60.013977" xlink:href="#m7396eb4245" y="288.430125"/>
      </g>
     </g>
     <g id="text_1">
      <!-- 0 -->
      <defs>
       <path d="M 31.78125 66.40625 
Q 24.171875 66.40625 20.328125 58.90625 
Q 16.5 51.421875 16.5 36.375 
Q 16.5 21.390625 20.328125 13.890625 
Q 24.171875 6.390625 31.78125 6.390625 
Q 39.453125 6.390625 43.28125 13.890625 
Q 47.125 21.390625 47.125 36.375 
Q 47.125 51.421875 43.28125 58.90625 
Q 39.453125 66.40625 31.78125 66.40625 
z
M 31.78125 74.21875 
Q 44.046875 74.21875 50.515625 64.515625 
Q 56.984375 54.828125 56.984375 36.375 
Q 56.984375 17.96875 50.515625 8.265625 
Q 44.046875 -1.421875 31.78125 -1.421875 
Q 19.53125 -1.421875 13.0625 8.265625 
Q 6.59375 17.96875 6.59375 36.375 
Q 6.59375 54.828125 13.0625 64.515625 
Q 19.53125 74.21875 31.78125 74.21875 
z
" id="DejaVuSans-48"/>
      </defs>
      <g transform="translate(56.832727 303.028562)scale(0.1 -0.1)">
       <use xlink:href="#DejaVuSans-48"/>
      </g>
     </g>
    </g>
    <g id="xtick_2">
     <g id="line2d_2">
      <g>
       <use style="stroke:#000000;stroke-width:0.8;" x="103.886213" xlink:href="#m7396eb4245" y="288.430125"/>
      </g>
     </g>
     <g id="text_2">
      <!-- 25 -->
      <defs>
       <path d="M 19.1875 8.296875 
L 53.609375 8.296875 
L 53.609375 0 
L 7.328125 0 
L 7.328125 8.296875 
Q 12.9375 14.109375 22.625 23.890625 
Q 32.328125 33.6875 34.8125 36.53125 
Q 39.546875 41.84375 41.421875 45.53125 
Q 43.3125 49.21875 43.3125 52.78125 
Q 43.3125 58.59375 39.234375 62.25 
Q 35.15625 65.921875 28.609375 65.921875 
Q 23.96875 65.921875 18.8125 64.3125 
Q 13.671875 62.703125 7.8125 59.421875 
L 7.8125 69.390625 
Q 13.765625 71.78125 18.9375 73 
Q 24.125 74.21875 28.421875 74.21875 
Q 39.75 74.21875 46.484375 68.546875 
Q 53.21875 62.890625 53.21875 53.421875 
Q 53.21875 48.921875 51.53125 44.890625 
Q 49.859375 40.875 45.40625 35.40625 
Q 44.1875 33.984375 37.640625 27.21875 
Q 31.109375 20.453125 19.1875 8.296875 
z
" id="DejaVuSans-50"/>
       <path d="M 10.796875 72.90625 
L 49.515625 72.90625 
L 49.515625 64.59375 
L 19.828125 64.59375 
L 19.828125 46.734375 
Q 21.96875 47.46875 24.109375 47.828125 
Q 26.265625 48.1875 28.421875 48.1875 
Q 40.625 48.1875 47.75 41.5 
Q 54.890625 34.8125 54.890625 23.390625 
Q 54.890625 11.625 47.5625 5.09375 
Q 40.234375 -1.421875 26.90625 -1.421875 
Q 22.3125 -1.421875 17.546875 -0.640625 
Q 12.796875 0.140625 7.71875 1.703125 
L 7.71875 11.625 
Q 12.109375 9.234375 16.796875 8.0625 
Q 21.484375 6.890625 26.703125 6.890625 
Q 35.15625 6.890625 40.078125 11.328125 
Q 45.015625 15.765625 45.015625 23.390625 
Q 45.015625 31 40.078125 35.4375 
Q 35.15625 39.890625 26.703125 39.890625 
Q 22.75 39.890625 18.8125 39.015625 
Q 14.890625 38.140625 10.796875 36.28125 
z
" id="DejaVuSans-53"/>
      </defs>
      <g transform="translate(97.523713 303.028562)scale(0.1 -0.1)">
       <use xlink:href="#DejaVuSans-50"/>
       <use x="63.623047" xlink:href="#DejaVuSans-53"/>
      </g>
     </g>
    </g>
    <g id="xtick_3">
     <g id="line2d_3">
      <g>
       <use style="stroke:#000000;stroke-width:0.8;" x="147.758449" xlink:href="#m7396eb4245" y="288.430125"/>
      </g>
     </g>
     <g id="text_3">
      <!-- 50 -->
      <g transform="translate(141.395949 303.028562)scale(0.1 -0.1)">
       <use xlink:href="#DejaVuSans-53"/>
       <use x="63.623047" xlink:href="#DejaVuSans-48"/>
      </g>
     </g>
    </g>
    <g id="xtick_4">
     <g id="line2d_4">
      <g>
       <use style="stroke:#000000;stroke-width:0.8;" x="191.630685" xlink:href="#m7396eb4245" y="288.430125"/>
      </g>
     </g>
     <g id="text_4">
      <!-- 75 -->
      <defs>
       <path d="M 8.203125 72.90625 
L 55.078125 72.90625 
L 55.078125 68.703125 
L 28.609375 0 
L 18.3125 0 
L 43.21875 64.59375 
L 8.203125 64.59375 
z
" id="DejaVuSans-55"/>
      </defs>
      <g transform="translate(185.268185 303.028562)scale(0.1 -0.1)">
       <use xlink:href="#DejaVuSans-55"/>
       <use x="63.623047" xlink:href="#DejaVuSans-53"/>
      </g>
     </g>
    </g>
    <g id="xtick_5">
     <g id="line2d_5">
      <g>
       <use style="stroke:#000000;stroke-width:0.8;" x="235.502921" xlink:href="#m7396eb4245" y="288.430125"/>
      </g>
     </g>
     <g id="text_5">
      <!-- 100 -->
      <defs>
       <path d="M 12.40625 8.296875 
L 28.515625 8.296875 
L 28.515625 63.921875 
L 10.984375 60.40625 
L 10.984375 69.390625 
L 28.421875 72.90625 
L 38.28125 72.90625 
L 38.28125 8.296875 
L 54.390625 8.296875 
L 54.390625 0 
L 12.40625 0 
z
" id="DejaVuSans-49"/>
      </defs>
      <g transform="translate(225.959171 303.028562)scale(0.1 -0.1)">
       <use xlink:href="#DejaVuSans-49"/>
       <use x="63.623047" xlink:href="#DejaVuSans-48"/>
       <use x="127.246094" xlink:href="#DejaVuSans-48"/>
      </g>
     </g>
    </g>
    <g id="xtick_6">
     <g id="line2d_6">
      <g>
       <use style="stroke:#000000;stroke-width:0.8;" x="279.375157" xlink:href="#m7396eb4245" y="288.430125"/>
      </g>
     </g>
     <g id="text_6">
      <!-- 125 -->
      <g transform="translate(269.831407 303.028562)scale(0.1 -0.1)">
       <use xlink:href="#DejaVuSans-49"/>
       <use x="63.623047" xlink:href="#DejaVuSans-50"/>
       <use x="127.246094" xlink:href="#DejaVuSans-53"/>
      </g>
     </g>
    </g>
    <g id="xtick_7">
     <g id="line2d_7">
      <g>
       <use style="stroke:#000000;stroke-width:0.8;" x="323.247393" xlink:href="#m7396eb4245" y="288.430125"/>
      </g>
     </g>
     <g id="text_7">
      <!-- 150 -->
      <g transform="translate(313.703643 303.028562)scale(0.1 -0.1)">
       <use xlink:href="#DejaVuSans-49"/>
       <use x="63.623047" xlink:href="#DejaVuSans-53"/>
       <use x="127.246094" xlink:href="#DejaVuSans-48"/>
      </g>
     </g>
    </g>
    <g id="xtick_8">
     <g id="line2d_8">
      <g>
       <use style="stroke:#000000;stroke-width:0.8;" x="367.119628" xlink:href="#m7396eb4245" y="288.430125"/>
      </g>
     </g>
     <g id="text_8">
      <!-- 175 -->
      <g transform="translate(357.575878 303.028562)scale(0.1 -0.1)">
       <use xlink:href="#DejaVuSans-49"/>
       <use x="63.623047" xlink:href="#DejaVuSans-55"/>
       <use x="127.246094" xlink:href="#DejaVuSans-53"/>
      </g>
     </g>
    </g>
    <g id="text_9">
     <!-- Epoch -->
     <defs>
      <path d="M 9.8125 72.90625 
L 55.90625 72.90625 
L 55.90625 64.59375 
L 19.671875 64.59375 
L 19.671875 43.015625 
L 54.390625 43.015625 
L 54.390625 34.71875 
L 19.671875 34.71875 
L 19.671875 8.296875 
L 56.78125 8.296875 
L 56.78125 0 
L 9.8125 0 
z
" id="DejaVuSans-69"/>
      <path d="M 18.109375 8.203125 
L 18.109375 -20.796875 
L 9.078125 -20.796875 
L 9.078125 54.6875 
L 18.109375 54.6875 
L 18.109375 46.390625 
Q 20.953125 51.265625 25.265625 53.625 
Q 29.59375 56 35.59375 56 
Q 45.5625 56 51.78125 48.09375 
Q 58.015625 40.1875 58.015625 27.296875 
Q 58.015625 14.40625 51.78125 6.484375 
Q 45.5625 -1.421875 35.59375 -1.421875 
Q 29.59375 -1.421875 25.265625 0.953125 
Q 20.953125 3.328125 18.109375 8.203125 
z
M 48.6875 27.296875 
Q 48.6875 37.203125 44.609375 42.84375 
Q 40.53125 48.484375 33.40625 48.484375 
Q 26.265625 48.484375 22.1875 42.84375 
Q 18.109375 37.203125 18.109375 27.296875 
Q 18.109375 17.390625 22.1875 11.75 
Q 26.265625 6.109375 33.40625 6.109375 
Q 40.53125 6.109375 44.609375 11.75 
Q 48.6875 17.390625 48.6875 27.296875 
z
" id="DejaVuSans-112"/>
      <path d="M 30.609375 48.390625 
Q 23.390625 48.390625 19.1875 42.75 
Q 14.984375 37.109375 14.984375 27.296875 
Q 14.984375 17.484375 19.15625 11.84375 
Q 23.34375 6.203125 30.609375 6.203125 
Q 37.796875 6.203125 41.984375 11.859375 
Q 46.1875 17.53125 46.1875 27.296875 
Q 46.1875 37.015625 41.984375 42.703125 
Q 37.796875 48.390625 30.609375 48.390625 
z
M 30.609375 56 
Q 42.328125 56 49.015625 48.375 
Q 55.71875 40.765625 55.71875 27.296875 
Q 55.71875 13.875 49.015625 6.21875 
Q 42.328125 -1.421875 30.609375 -1.421875 
Q 18.84375 -1.421875 12.171875 6.21875 
Q 5.515625 13.875 5.515625 27.296875 
Q 5.515625 40.765625 12.171875 48.375 
Q 18.84375 56 30.609375 56 
z
" id="DejaVuSans-111"/>
      <path d="M 48.78125 52.59375 
L 48.78125 44.1875 
Q 44.96875 46.296875 41.140625 47.34375 
Q 37.3125 48.390625 33.40625 48.390625 
Q 24.65625 48.390625 19.8125 42.84375 
Q 14.984375 37.3125 14.984375 27.296875 
Q 14.984375 17.28125 19.8125 11.734375 
Q 24.65625 6.203125 33.40625 6.203125 
Q 37.3125 6.203125 41.140625 7.25 
Q 44.96875 8.296875 48.78125 10.40625 
L 48.78125 2.09375 
Q 45.015625 0.34375 40.984375 -0.53125 
Q 36.96875 -1.421875 32.421875 -1.421875 
Q 20.0625 -1.421875 12.78125 6.34375 
Q 5.515625 14.109375 5.515625 27.296875 
Q 5.515625 40.671875 12.859375 48.328125 
Q 20.21875 56 33.015625 56 
Q 37.15625 56 41.109375 55.140625 
Q 45.0625 54.296875 48.78125 52.59375 
z
" id="DejaVuSans-99"/>
      <path d="M 54.890625 33.015625 
L 54.890625 0 
L 45.90625 0 
L 45.90625 32.71875 
Q 45.90625 40.484375 42.875 44.328125 
Q 39.84375 48.1875 33.796875 48.1875 
Q 26.515625 48.1875 22.3125 43.546875 
Q 18.109375 38.921875 18.109375 30.90625 
L 18.109375 0 
L 9.078125 0 
L 9.078125 75.984375 
L 18.109375 75.984375 
L 18.109375 46.1875 
Q 21.34375 51.125 25.703125 53.5625 
Q 30.078125 56 35.796875 56 
Q 45.21875 56 50.046875 50.171875 
Q 54.890625 44.34375 54.890625 33.015625 
z
" id="DejaVuSans-104"/>
     </defs>
     <g transform="translate(207.030313 316.706687)scale(0.1 -0.1)">
      <use xlink:href="#DejaVuSans-69"/>
      <use x="63.183594" xlink:href="#DejaVuSans-112"/>
      <use x="126.660156" xlink:href="#DejaVuSans-111"/>
      <use x="187.841797" xlink:href="#DejaVuSans-99"/>
      <use x="242.822266" xlink:href="#DejaVuSans-104"/>
     </g>
    </g>
   </g>
   <g id="matplotlib.axis_2">
    <g id="ytick_1">
     <g id="line2d_9">
      <defs>
       <path d="M 0 0 
L -3.5 0 
" id="m5bbb96e352" style="stroke:#000000;stroke-width:0.8;"/>
      </defs>
      <g>
       <use style="stroke:#000000;stroke-width:0.8;" x="43.78125" xlink:href="#m5bbb96e352" y="274.87194"/>
      </g>
     </g>
     <g id="text_10">
      <!-- 0.0 -->
      <defs>
       <path d="M 10.6875 12.40625 
L 21 12.40625 
L 21 0 
L 10.6875 0 
z
" id="DejaVuSans-46"/>
      </defs>
      <g transform="translate(20.878125 278.671159)scale(0.1 -0.1)">
       <use xlink:href="#DejaVuSans-48"/>
       <use x="63.623047" xlink:href="#DejaVuSans-46"/>
       <use x="95.410156" xlink:href="#DejaVuSans-48"/>
      </g>
     </g>
    </g>
    <g id="ytick_2">
     <g id="line2d_10">
      <g>
       <use style="stroke:#000000;stroke-width:0.8;" x="43.78125" xlink:href="#m5bbb96e352" y="227.702164"/>
      </g>
     </g>
     <g id="text_11">
      <!-- 0.2 -->
      <g transform="translate(20.878125 231.501383)scale(0.1 -0.1)">
       <use xlink:href="#DejaVuSans-48"/>
       <use x="63.623047" xlink:href="#DejaVuSans-46"/>
       <use x="95.410156" xlink:href="#DejaVuSans-50"/>
      </g>
     </g>
    </g>
    <g id="ytick_3">
     <g id="line2d_11">
      <g>
       <use style="stroke:#000000;stroke-width:0.8;" x="43.78125" xlink:href="#m5bbb96e352" y="180.532388"/>
      </g>
     </g>
     <g id="text_12">
      <!-- 0.4 -->
      <defs>
       <path d="M 37.796875 64.3125 
L 12.890625 25.390625 
L 37.796875 25.390625 
z
M 35.203125 72.90625 
L 47.609375 72.90625 
L 47.609375 25.390625 
L 58.015625 25.390625 
L 58.015625 17.1875 
L 47.609375 17.1875 
L 47.609375 0 
L 37.796875 0 
L 37.796875 17.1875 
L 4.890625 17.1875 
L 4.890625 26.703125 
z
" id="DejaVuSans-52"/>
      </defs>
      <g transform="translate(20.878125 184.331607)scale(0.1 -0.1)">
       <use xlink:href="#DejaVuSans-48"/>
       <use x="63.623047" xlink:href="#DejaVuSans-46"/>
       <use x="95.410156" xlink:href="#DejaVuSans-52"/>
      </g>
     </g>
    </g>
    <g id="ytick_4">
     <g id="line2d_12">
      <g>
       <use style="stroke:#000000;stroke-width:0.8;" x="43.78125" xlink:href="#m5bbb96e352" y="133.362612"/>
      </g>
     </g>
     <g id="text_13">
      <!-- 0.6 -->
      <defs>
       <path d="M 33.015625 40.375 
Q 26.375 40.375 22.484375 35.828125 
Q 18.609375 31.296875 18.609375 23.390625 
Q 18.609375 15.53125 22.484375 10.953125 
Q 26.375 6.390625 33.015625 6.390625 
Q 39.65625 6.390625 43.53125 10.953125 
Q 47.40625 15.53125 47.40625 23.390625 
Q 47.40625 31.296875 43.53125 35.828125 
Q 39.65625 40.375 33.015625 40.375 
z
M 52.59375 71.296875 
L 52.59375 62.3125 
Q 48.875 64.0625 45.09375 64.984375 
Q 41.3125 65.921875 37.59375 65.921875 
Q 27.828125 65.921875 22.671875 59.328125 
Q 17.53125 52.734375 16.796875 39.40625 
Q 19.671875 43.65625 24.015625 45.921875 
Q 28.375 48.1875 33.59375 48.1875 
Q 44.578125 48.1875 50.953125 41.515625 
Q 57.328125 34.859375 57.328125 23.390625 
Q 57.328125 12.15625 50.6875 5.359375 
Q 44.046875 -1.421875 33.015625 -1.421875 
Q 20.359375 -1.421875 13.671875 8.265625 
Q 6.984375 17.96875 6.984375 36.375 
Q 6.984375 53.65625 15.1875 63.9375 
Q 23.390625 74.21875 37.203125 74.21875 
Q 40.921875 74.21875 44.703125 73.484375 
Q 48.484375 72.75 52.59375 71.296875 
z
" id="DejaVuSans-54"/>
      </defs>
      <g transform="translate(20.878125 137.161831)scale(0.1 -0.1)">
       <use xlink:href="#DejaVuSans-48"/>
       <use x="63.623047" xlink:href="#DejaVuSans-46"/>
       <use x="95.410156" xlink:href="#DejaVuSans-54"/>
      </g>
     </g>
    </g>
    <g id="ytick_5">
     <g id="line2d_13">
      <g>
       <use style="stroke:#000000;stroke-width:0.8;" x="43.78125" xlink:href="#m5bbb96e352" y="86.192837"/>
      </g>
     </g>
     <g id="text_14">
      <!-- 0.8 -->
      <defs>
       <path d="M 31.78125 34.625 
Q 24.75 34.625 20.71875 30.859375 
Q 16.703125 27.09375 16.703125 20.515625 
Q 16.703125 13.921875 20.71875 10.15625 
Q 24.75 6.390625 31.78125 6.390625 
Q 38.8125 6.390625 42.859375 10.171875 
Q 46.921875 13.96875 46.921875 20.515625 
Q 46.921875 27.09375 42.890625 30.859375 
Q 38.875 34.625 31.78125 34.625 
z
M 21.921875 38.8125 
Q 15.578125 40.375 12.03125 44.71875 
Q 8.5 49.078125 8.5 55.328125 
Q 8.5 64.0625 14.71875 69.140625 
Q 20.953125 74.21875 31.78125 74.21875 
Q 42.671875 74.21875 48.875 69.140625 
Q 55.078125 64.0625 55.078125 55.328125 
Q 55.078125 49.078125 51.53125 44.71875 
Q 48 40.375 41.703125 38.8125 
Q 48.828125 37.15625 52.796875 32.3125 
Q 56.78125 27.484375 56.78125 20.515625 
Q 56.78125 9.90625 50.3125 4.234375 
Q 43.84375 -1.421875 31.78125 -1.421875 
Q 19.734375 -1.421875 13.25 4.234375 
Q 6.78125 9.90625 6.78125 20.515625 
Q 6.78125 27.484375 10.78125 32.3125 
Q 14.796875 37.15625 21.921875 38.8125 
z
M 18.3125 54.390625 
Q 18.3125 48.734375 21.84375 45.5625 
Q 25.390625 42.390625 31.78125 42.390625 
Q 38.140625 42.390625 41.71875 45.5625 
Q 45.3125 48.734375 45.3125 54.390625 
Q 45.3125 60.0625 41.71875 63.234375 
Q 38.140625 66.40625 31.78125 66.40625 
Q 25.390625 66.40625 21.84375 63.234375 
Q 18.3125 60.0625 18.3125 54.390625 
z
" id="DejaVuSans-56"/>
      </defs>
      <g transform="translate(20.878125 89.992055)scale(0.1 -0.1)">
       <use xlink:href="#DejaVuSans-48"/>
       <use x="63.623047" xlink:href="#DejaVuSans-46"/>
       <use x="95.410156" xlink:href="#DejaVuSans-56"/>
      </g>
     </g>
    </g>
    <g id="ytick_6">
     <g id="line2d_14">
      <g>
       <use style="stroke:#000000;stroke-width:0.8;" x="43.78125" xlink:href="#m5bbb96e352" y="39.023061"/>
      </g>
     </g>
     <g id="text_15">
      <!-- 1.0 -->
      <g transform="translate(20.878125 42.82228)scale(0.1 -0.1)">
       <use xlink:href="#DejaVuSans-49"/>
       <use x="63.623047" xlink:href="#DejaVuSans-46"/>
       <use x="95.410156" xlink:href="#DejaVuSans-48"/>
      </g>
     </g>
    </g>
    <g id="text_16">
     <!-- Loss -->
     <defs>
      <path d="M 9.8125 72.90625 
L 19.671875 72.90625 
L 19.671875 8.296875 
L 55.171875 8.296875 
L 55.171875 0 
L 9.8125 0 
z
" id="DejaVuSans-76"/>
      <path d="M 44.28125 53.078125 
L 44.28125 44.578125 
Q 40.484375 46.53125 36.375 47.5 
Q 32.28125 48.484375 27.875 48.484375 
Q 21.1875 48.484375 17.84375 46.4375 
Q 14.5 44.390625 14.5 40.28125 
Q 14.5 37.15625 16.890625 35.375 
Q 19.28125 33.59375 26.515625 31.984375 
L 29.59375 31.296875 
Q 39.15625 29.25 43.1875 25.515625 
Q 47.21875 21.78125 47.21875 15.09375 
Q 47.21875 7.46875 41.1875 3.015625 
Q 35.15625 -1.421875 24.609375 -1.421875 
Q 20.21875 -1.421875 15.453125 -0.5625 
Q 10.6875 0.296875 5.421875 2 
L 5.421875 11.28125 
Q 10.40625 8.6875 15.234375 7.390625 
Q 20.0625 6.109375 24.8125 6.109375 
Q 31.15625 6.109375 34.5625 8.28125 
Q 37.984375 10.453125 37.984375 14.40625 
Q 37.984375 18.0625 35.515625 20.015625 
Q 33.0625 21.96875 24.703125 23.78125 
L 21.578125 24.515625 
Q 13.234375 26.265625 9.515625 29.90625 
Q 5.8125 33.546875 5.8125 39.890625 
Q 5.8125 47.609375 11.28125 51.796875 
Q 16.75 56 26.8125 56 
Q 31.78125 56 36.171875 55.265625 
Q 40.578125 54.546875 44.28125 53.078125 
z
" id="DejaVuSans-115"/>
     </defs>
     <g transform="translate(14.798438 166.428031)rotate(-90)scale(0.1 -0.1)">
      <use xlink:href="#DejaVuSans-76"/>
      <use x="55.697266" xlink:href="#DejaVuSans-111"/>
      <use x="116.878906" xlink:href="#DejaVuSans-115"/>
      <use x="168.978516" xlink:href="#DejaVuSans-115"/>
     </g>
    </g>
   </g>
   <g id="line2d_15">
    <path clip-path="url(#p9c4634f6d4)" d="M 60.013977 258.681743 
L 61.768867 249.990536 
L 63.523756 253.057325 
L 65.278646 274.703575 
L 67.033535 274.87194 
L 68.788424 268.896121 
L 70.543314 239.965449 
L 72.298203 235.502951 
L 74.053093 270.349154 
L 75.807982 271.549026 
L 77.562872 271.766963 
L 79.317761 265.637425 
L 81.07265 270.765668 
L 82.82754 258.02093 
L 84.582429 186.324934 
L 86.337319 246.565615 
L 88.092208 257.896865 
L 89.847098 256.954122 
L 91.601987 167.648128 
L 93.356877 236.566358 
L 95.111766 240.673023 
L 96.866655 267.769879 
L 98.621545 269.839867 
L 100.376434 270.127169 
L 102.131324 232.875246 
L 103.886213 234.341426 
L 105.641103 196.462023 
L 107.395992 242.482631 
L 109.150881 209.224674 
L 110.905771 185.911385 
L 112.66066 237.545751 
L 114.41555 248.499839 
L 116.170439 263.037872 
L 117.925329 251.946062 
L 119.680218 193.684297 
L 121.435107 219.075316 
L 123.189997 267.664219 
L 124.944886 232.129404 
L 126.699776 228.265248 
L 128.454665 264.406299 
L 130.209555 260.078657 
L 131.964444 267.800904 
L 133.719334 262.887819 
L 135.474223 246.440481 
L 137.229112 214.045003 
L 138.984002 265.970301 
L 140.738891 268.560324 
L 142.493781 268.309163 
L 144.24867 262.935217 
L 146.00356 257.18268 
L 147.758449 266.78362 
L 149.513338 39.023061 
L 151.268228 231.344562 
L 153.023117 256.619821 
L 154.778007 208.400478 
L 156.532896 206.109795 
L 158.287786 207.91838 
L 160.042675 184.14204 
L 161.797564 260.186138 
L 163.552454 265.211793 
L 165.307343 223.463436 
L 167.062233 156.421313 
L 168.817122 118.988138 
L 170.572012 198.797683 
L 172.326901 186.060474 
L 174.081791 188.915542 
L 175.83668 196.788872 
L 177.591569 217.77407 
L 179.346459 220.807414 
L 181.101348 262.798863 
L 182.856238 241.350706 
L 184.611127 160.437521 
L 186.366017 222.533153 
L 188.120906 242.006912 
L 189.875795 229.0605 
L 191.630685 248.153751 
L 193.385574 238.956958 
L 195.140464 258.89108 
L 196.895353 251.430936 
L 198.650243 258.571385 
L 200.405132 247.461115 
L 202.160021 249.522854 
L 203.914911 241.92066 
L 205.6698 236.986839 
L 207.42469 262.120925 
L 209.179579 252.137005 
L 210.934469 230.314803 
L 212.689358 224.632215 
L 214.444248 241.312345 
L 216.199137 247.128063 
L 217.954026 241.080349 
L 219.708916 217.402989 
L 221.463805 231.554481 
L 223.218695 250.798107 
L 224.973584 245.350061 
L 226.728474 227.59566 
L 228.483363 266.384849 
L 230.238252 252.499574 
L 231.993142 254.143876 
L 233.748031 228.992061 
L 235.502921 250.068782 
L 237.25781 230.0923 
L 239.0127 244.210114 
L 240.767589 245.557118 
L 242.522479 237.394286 
L 244.277368 246.875095 
L 246.032257 225.132151 
L 247.787147 233.614869 
L 249.542036 266.665385 
L 251.296926 265.590293 
L 253.051815 234.471627 
L 254.806705 230.86965 
L 256.561594 213.563599 
L 258.316483 255.704078 
L 260.071373 238.980909 
L 261.826262 226.717551 
L 263.581152 205.425988 
L 265.336041 265.981725 
L 267.090931 263.485999 
L 268.84582 247.481319 
L 270.600709 239.715226 
L 272.355599 244.890521 
L 274.110488 227.766257 
L 275.865378 267.691923 
L 277.620267 225.609635 
L 279.375157 204.058442 
L 281.130046 221.180542 
L 282.884936 218.586559 
L 284.639825 238.523238 
L 286.394714 264.779912 
L 288.149604 257.009735 
L 289.904493 269.058033 
L 291.659383 239.051722 
L 293.414272 252.580628 
L 295.169162 258.300444 
L 296.924051 234.84115 
L 298.67894 234.917849 
L 300.43383 249.537356 
L 302.188719 225.279067 
L 303.943609 227.325952 
L 305.698498 227.763244 
L 307.453388 271.782255 
L 309.208277 270.613995 
L 310.963166 259.970137 
L 312.718056 268.883375 
L 314.472945 265.109027 
L 316.227835 267.321088 
L 317.982724 267.616948 
L 319.737614 263.542901 
L 321.492503 270.025777 
L 323.247393 273.262873 
L 325.002282 269.604178 
L 326.757171 264.889923 
L 328.512061 263.832147 
L 330.26695 252.495692 
L 332.02184 257.402792 
L 333.776729 272.503363 
L 335.531619 273.029629 
L 339.041397 265.914077 
L 340.796287 257.319761 
L 342.551176 208.044006 
L 344.306066 264.984575 
L 346.060955 271.32271 
L 347.815845 272.273073 
L 349.570734 273.686862 
L 351.325623 267.494358 
L 353.080513 274.013274 
L 354.835402 272.471038 
L 356.590292 265.023182 
L 358.345181 268.82595 
L 360.100071 271.326193 
L 361.85496 210.229255 
L 363.60985 261.379081 
L 365.364739 266.859837 
L 367.119628 268.137905 
L 368.874518 242.714329 
L 370.629407 270.793265 
L 372.384297 267.745246 
L 374.139186 266.532632 
L 375.894076 268.186871 
L 377.648965 268.716165 
L 379.403854 267.116649 
L 381.158744 271.645456 
L 382.913633 264.498361 
L 384.668523 264.730022 
L 384.668523 264.730022 
" style="fill:none;stroke:#1f77b4;stroke-linecap:square;stroke-opacity:0.3;stroke-width:1.5;"/>
   </g>
   <g id="line2d_16">
    <path clip-path="url(#p9c4634f6d4)" d="M 60.013977 250.970925 
L 61.768867 260.598674 
L 63.523756 264.708108 
L 65.278646 264.783017 
L 67.033535 262.307189 
L 68.788424 258.764414 
L 70.543314 260.006128 
L 72.298203 259.147919 
L 74.053093 259.24268 
L 75.807982 267.822001 
L 77.562872 264.901832 
L 79.317761 261.687721 
L 81.07265 255.283429 
L 82.82754 254.06834 
L 84.582429 242.663202 
L 86.337319 233.460259 
L 88.092208 225.722019 
L 89.847098 223.797274 
L 91.601987 229.60522 
L 93.356877 243.213947 
L 95.111766 243.04589 
L 96.866655 250.266256 
L 98.621545 251.494502 
L 100.376434 258.491911 
L 102.131324 248.408113 
L 105.641103 219.323292 
L 107.395992 211.745103 
L 109.150881 213.207989 
L 110.905771 226.552584 
L 112.66066 231.145471 
L 114.41555 232.053952 
L 116.170439 233.631891 
L 117.925329 240.775096 
L 119.680218 239.045901 
L 121.435107 233.033099 
L 123.189997 232.350948 
L 124.944886 236.335178 
L 126.699776 247.153035 
L 128.454665 260.848291 
L 130.209555 255.647512 
L 131.964444 250.937895 
L 133.719334 254.31244 
L 135.474223 254.538719 
L 137.229112 252.403724 
L 138.984002 253.198027 
L 140.738891 274.064752 
L 144.24867 241.956467 
L 146.00356 233.292898 
L 147.758449 217.074518 
L 149.513338 206.581585 
L 151.268228 201.738179 
L 153.023117 192.816681 
L 154.778007 194.596421 
L 156.532896 210.824463 
L 158.287786 241.576298 
L 161.797564 217.180582 
L 163.552454 213.418986 
L 165.307343 204.295331 
L 167.062233 193.76921 
L 168.817122 182.542862 
L 170.572012 169.388174 
L 172.326901 168.695939 
L 174.081791 185.7971 
L 175.83668 214.210724 
L 177.591569 222.314024 
L 179.346459 217.789112 
L 181.101348 223.056169 
L 182.856238 223.662194 
L 184.611127 224.656109 
L 186.366017 222.678334 
L 189.875795 227.316695 
L 193.385574 252.93628 
L 195.140464 251.441271 
L 196.895353 252.447257 
L 198.650243 251.381576 
L 200.405132 249.564284 
L 202.160021 251.307394 
L 203.914911 249.321576 
L 205.6698 246.33582 
L 207.42469 242.554817 
L 209.179579 241.960669 
L 210.934469 242.709236 
L 212.689358 240.660831 
L 214.444248 235.835683 
L 216.199137 232.157394 
L 217.954026 235.510752 
L 219.708916 235.452463 
L 221.463805 237.252478 
L 223.218695 237.936161 
L 224.973584 243.290098 
L 226.728474 246.33147 
L 228.483363 251.368017 
L 230.238252 248.718753 
L 231.993142 245.6292 
L 233.748031 245.638119 
L 235.502921 243.760356 
L 237.25781 240.48712 
L 239.0127 240.269749 
L 240.767589 236.697607 
L 242.522479 238.055412 
L 244.277368 240.986438 
L 246.032257 245.645751 
L 247.787147 247.162973 
L 249.542036 243.38718 
L 251.296926 243.493696 
L 253.051815 243.273021 
L 254.806705 244.85549 
L 256.561594 234.201559 
L 258.316483 227.037557 
L 260.071373 229.779721 
L 261.826262 237.130481 
L 263.581152 241.100628 
L 265.336041 245.829392 
L 267.090931 241.037569 
L 268.84582 247.855034 
L 270.600709 252.781633 
L 272.355599 249.425149 
L 274.110488 238.276988 
L 275.865378 231.43899 
L 277.620267 225.965852 
L 279.375157 224.863554 
L 281.130046 224.946418 
L 282.884936 232.353665 
L 284.639825 235.65442 
L 286.394714 246.566124 
L 288.149604 256.212648 
L 289.904493 258.35607 
L 291.659383 256.506967 
L 293.414272 253.15405 
L 295.169162 247.270523 
L 296.924051 243.411476 
L 298.67894 234.987047 
L 300.43383 234.296033 
L 302.188719 234.571521 
L 303.943609 237.707931 
L 305.698498 245.610661 
L 309.208277 257.583797 
L 310.963166 266.063463 
L 312.718056 269.01037 
L 314.472945 268.954831 
L 316.227835 265.740728 
L 319.737614 268.979158 
L 321.492503 269.464675 
L 323.247393 268.911102 
L 325.002282 265.811187 
L 326.757171 263.937511 
L 330.26695 262.944259 
L 332.02184 264.067505 
L 333.776729 269.560827 
L 335.531619 264.666085 
L 337.286508 260.344422 
L 339.041397 257.881819 
L 340.796287 254.84853 
L 342.551176 253.562346 
L 344.306066 254.718795 
L 346.060955 258.639352 
L 349.570734 271.07502 
L 351.325623 276.334125 
L 353.080513 276.223233 
L 354.835402 269.652487 
L 356.590292 263.662194 
L 358.345181 259.081438 
L 360.100071 258.631308 
L 361.85496 253.852417 
L 363.60985 252.782235 
L 365.364739 254.147896 
L 367.119628 256.241355 
L 368.874518 260.726993 
L 370.629407 268.065109 
L 372.384297 264.46473 
L 374.139186 266.031634 
L 375.894076 268.027911 
L 377.648965 269.320848 
L 379.403854 269.801842 
L 381.158744 269.158773 
L 382.913633 267.079517 
L 384.668523 263.251953 
L 384.668523 263.251953 
" style="fill:none;stroke:#1f77b4;stroke-linecap:square;stroke-width:1.5;"/>
   </g>
   <g id="line2d_17">
    <path clip-path="url(#p9c4634f6d4)" d="M 60.013977 97.857286 
L 61.768867 113.321348 
L 63.523756 124.790096 
L 65.278646 153.371639 
L 67.033535 160.51291 
L 68.788424 166.831101 
L 70.543314 159.485429 
L 72.298203 165.752637 
L 74.053093 171.51096 
L 75.807982 169.19648 
L 79.317761 179.397606 
L 81.07265 210.282329 
L 84.582429 218.395934 
L 86.337319 113.5442 
L 88.092208 119.978229 
L 89.847098 125.959929 
L 91.601987 139.953602 
L 95.111766 150.161422 
L 96.866655 147.391861 
L 100.376434 157.63166 
L 102.131324 145.263109 
L 105.641103 154.885045 
L 107.395992 143.928253 
L 110.905771 153.392607 
L 112.66066 139.774886 
L 116.170439 149.02643 
L 117.925329 137.801129 
L 121.435107 146.970293 
L 123.189997 186.873556 
L 126.699776 193.575015 
L 128.454665 90.133574 
L 131.964444 102.407393 
L 133.719334 69.035547 
L 137.229112 81.418744 
L 138.984002 68.210807 
L 142.493781 80.844215 
L 144.24867 39.023061 
L 147.758449 52.561998 
L 149.513338 67.442665 
L 153.023117 79.238706 
L 154.778007 55.563332 
L 158.287786 67.440425 
L 160.042675 121.026858 
L 163.552454 130.704714 
L 165.307343 148.055368 
L 168.817122 155.998252 
L 170.572012 200.396849 
L 174.081791 204.061269 
L 175.83668 188.3151 
L 179.346459 192.743623 
L 181.101348 206.515882 
L 184.611127 209.568261 
L 186.366017 227.750349 
L 189.875795 229.287158 
L 191.630685 237.175602 
L 193.385574 239.021352 
L 195.140464 240.544084 
L 196.895353 214.39741 
L 198.650243 215.780759 
L 200.405132 216.993843 
L 202.160021 249.196773 
L 205.6698 250.710362 
L 207.42469 233.17409 
L 209.179579 234.780125 
L 210.934469 236.195511 
L 212.689358 225.815465 
L 216.199137 228.308129 
L 217.954026 207.229182 
L 221.463805 211.311939 
L 223.218695 189.677875 
L 226.728474 193.575914 
L 228.483363 193.23017 
L 231.993142 196.350718 
L 233.748031 202.20299 
L 237.25781 204.404074 
L 239.0127 220.400507 
L 242.522479 222.673431 
L 244.277368 222.390357 
L 246.032257 223.676817 
L 247.787147 224.823988 
L 249.542036 156.278366 
L 253.051815 159.649829 
L 254.806705 75.083264 
L 258.316483 79.549802 
L 260.071373 181.577852 
L 263.581152 185.076661 
L 265.336041 108.493589 
L 268.84582 112.063533 
L 270.600709 161.910989 
L 274.110488 164.288776 
L 275.865378 221.781941 
L 277.620267 222.359098 
L 279.375157 222.798398 
L 281.130046 227.758392 
L 284.639825 228.676176 
L 286.394714 162.150397 
L 288.149604 163.436179 
L 289.904493 164.571421 
L 291.659383 203.287422 
L 295.169162 204.462082 
L 296.924051 237.544078 
L 300.43383 239.055416 
L 302.188719 222.891635 
L 305.698498 223.604002 
L 307.453388 259.563172 
L 309.208277 260.149698 
L 310.963166 260.548868 
L 312.718056 261.245726 
L 314.472945 261.396106 
L 316.227835 261.34132 
L 317.982724 264.912337 
L 321.492503 265.317001 
L 323.247393 261.679301 
L 326.757171 262.14553 
L 328.512061 263.504761 
L 332.02184 264.184251 
L 333.776729 263.769401 
L 337.286508 264.363119 
L 339.041397 273.196398 
L 340.796287 274.484128 
L 342.551176 274.87194 
L 344.306066 261.31986 
L 346.060955 261.363327 
L 347.815845 261.546491 
L 349.570734 259.996131 
L 351.325623 260.217908 
L 353.080513 260.554696 
L 354.835402 264.391527 
L 356.590292 264.485742 
L 358.345181 264.781891 
L 360.100071 263.878999 
L 363.60985 265.211442 
L 365.364739 260.365567 
L 368.874518 262.037265 
L 370.629407 258.245503 
L 374.139186 260.569589 
L 375.894076 260.165366 
L 377.648965 261.171421 
L 379.403854 261.990433 
L 381.158744 257.085939 
L 384.668523 259.127256 
L 384.668523 259.127256 
" style="fill:none;stroke:#ff7f0e;stroke-linecap:square;stroke-opacity:0.3;stroke-width:1.5;"/>
   </g>
   <g id="line2d_18">
    <path clip-path="url(#p9c4634f6d4)" d="M 60.013977 93.857145 
L 61.768867 116.707916 
L 63.523756 134.18034 
L 65.278646 147.047951 
L 67.033535 156.084283 
L 68.788424 162.062867 
L 70.543314 166.407877 
L 72.298203 166.460107 
L 74.053093 167.296419 
L 75.807982 172.478886 
L 77.562872 189.244863 
L 79.317761 196.648952 
L 81.07265 194.557756 
L 82.82754 185.793135 
L 84.582429 174.180922 
L 88.092208 146.44773 
L 89.847098 133.58194 
L 91.601987 128.898606 
L 93.356877 134.02146 
L 95.111766 148.017448 
L 96.866655 150.545753 
L 98.621545 152.728652 
L 100.376434 152.007354 
L 102.131324 150.952342 
L 103.886213 151.312759 
L 105.641103 150.546595 
L 107.395992 148.397679 
L 110.905771 147.765831 
L 112.66066 145.418557 
L 114.41555 140.657618 
L 116.170439 141.394678 
L 117.925329 144.540281 
L 119.680218 160.252258 
L 121.435107 168.011101 
L 123.189997 166.67968 
L 124.944886 163.354449 
L 126.699776 152.759205 
L 128.454665 134.666079 
L 130.209555 114.742052 
L 131.964444 91.923422 
L 133.719334 76.822794 
L 135.474223 74.126506 
L 137.229112 78.31722 
L 140.738891 64.761147 
L 142.493781 62.152474 
L 144.24867 57.553428 
L 146.00356 58.079025 
L 147.758449 59.433922 
L 149.513338 59.549185 
L 151.268228 57.654961 
L 153.023117 64.411002 
L 154.778007 70.011084 
L 156.532896 76.836932 
L 158.287786 86.692451 
L 160.042675 100.383197 
L 161.797564 112.963488 
L 163.552454 131.466344 
L 167.062233 163.366611 
L 168.817122 172.513958 
L 170.572012 183.513794 
L 172.326901 190.541303 
L 174.081791 195.11036 
L 175.83668 198.901495 
L 177.591569 198.674638 
L 179.346459 196.945762 
L 181.101348 201.215146 
L 182.856238 206.987988 
L 184.611127 215.182619 
L 186.366017 221.760283 
L 188.120906 229.822017 
L 189.875795 233.419722 
L 191.630685 234.9477 
L 193.385574 230.890818 
L 195.140464 227.241359 
L 196.895353 226.89791 
L 198.650243 229.586573 
L 200.405132 231.441293 
L 202.160021 234.165203 
L 205.6698 243.156909 
L 207.42469 242.403878 
L 209.179579 240.608619 
L 210.934469 233.462399 
L 212.689358 228.157904 
L 214.444248 225.277091 
L 216.199137 221.550734 
L 219.708916 208.3311 
L 223.218695 197.484688 
L 224.973584 193.676748 
L 226.728474 193.369055 
L 228.483363 192.729003 
L 230.238252 192.920685 
L 231.993142 197.218493 
L 233.748031 200.788779 
L 235.502921 205.363691 
L 237.25781 210.285627 
L 239.0127 214.799545 
L 240.767589 224.536358 
L 242.522479 225.892188 
L 244.277368 221.108762 
L 246.032257 218.373965 
L 247.787147 202.669597 
L 249.542036 180.573579 
L 251.296926 146.171151 
L 253.051815 122.017608 
L 254.806705 109.118237 
L 256.561594 115.425143 
L 258.316483 127.36131 
L 260.071373 133.197981 
L 261.826262 136.276562 
L 263.581152 147.176718 
L 265.336041 147.904418 
L 268.84582 130.67432 
L 270.600709 139.977584 
L 272.355599 157.836707 
L 274.110488 184.435992 
L 277.620267 221.562417 
L 279.375157 226.56518 
L 281.130046 226.864746 
L 282.884936 215.467184 
L 284.639825 199.740727 
L 288.149604 182.116151 
L 289.904493 179.907158 
L 291.659383 185.070576 
L 293.414272 198.543387 
L 295.169162 217.037727 
L 296.924051 226.591427 
L 298.67894 228.67511 
L 300.43383 228.759447 
L 302.188719 232.824645 
L 303.943609 236.441953 
L 305.698498 238.47924 
L 307.453388 244.61561 
L 309.208277 251.373136 
L 310.963166 258.961353 
L 312.718056 263.316362 
L 314.472945 265.233238 
L 316.227835 263.056512 
L 317.982724 263.528077 
L 319.737614 263.627561 
L 323.247393 263.442358 
L 325.002282 263.250074 
L 326.757171 262.801269 
L 328.512061 262.839275 
L 330.26695 262.442991 
L 332.02184 263.20748 
L 333.776729 264.373565 
L 335.531619 267.210364 
L 337.286508 268.880122 
L 339.041397 269.664644 
L 340.796287 269.734933 
L 342.551176 268.878837 
L 344.306066 267.090451 
L 347.815845 261.328751 
L 349.570734 260.028327 
L 351.325623 260.262535 
L 353.080513 262.007493 
L 354.835402 262.675149 
L 356.590292 263.874622 
L 358.345181 264.568675 
L 361.85496 264.361493 
L 365.364739 262.262072 
L 368.874518 260.538797 
L 370.629407 259.840114 
L 374.139186 260.445715 
L 375.894076 260.097699 
L 377.648965 260.125366 
L 379.403854 260.022934 
L 381.158744 259.696974 
L 382.913633 259.054051 
L 384.668523 258.000736 
L 384.668523 258.000736 
" style="fill:none;stroke:#ff7f0e;stroke-linecap:square;stroke-width:1.5;"/>
   </g>
   <g id="line2d_19">
    <path clip-path="url(#p9c4634f6d4)" d="M 60.013977 34.414125 
L 61.768867 52.558019 
L 63.523756 67.328287 
L 65.278646 79.261386 
L 67.033535 88.893776 
L 68.788424 96.761913 
L 70.543314 106.068825 
L 72.298203 109.525376 
L 74.053093 112.175116 
L 75.807982 126.141274 
L 77.562872 134.452425 
L 79.317761 135.328236 
L 81.07265 134.015611 
L 82.82754 131.79049 
L 84.582429 125.311835 
L 86.337319 116.291156 
L 88.092208 108.815136 
L 89.847098 99.551559 
L 91.601987 99.641056 
L 93.356877 102.601233 
L 95.111766 100.473424 
L 96.866655 101.267964 
L 98.621545 102.352601 
L 100.376434 105.727837 
L 102.131324 109.357776 
L 103.886213 110.415154 
L 107.395992 110.994701 
L 109.150881 107.5997 
L 110.905771 104.785943 
L 112.66066 106.891521 
L 114.41555 111.3529 
L 116.170439 118.076174 
L 119.680218 142.149672 
L 123.189997 165.192525 
L 124.944886 176.245177 
L 126.699776 179.477997 
L 128.454665 182.283286 
L 130.209555 183.290311 
L 131.964444 180.660104 
L 133.719334 179.0447 
L 135.474223 179.978153 
L 137.229112 177.654392 
L 138.984002 177.850352 
L 140.738891 181.82528 
L 142.493781 179.824312 
L 144.24867 174.538771 
L 146.00356 171.94921 
L 147.758449 168.669061 
L 149.513338 164.970511 
L 151.268228 166.863103 
L 153.023117 161.921088 
L 154.778007 159.054431 
L 156.532896 159.496006 
L 158.287786 169.073499 
L 160.042675 168.991786 
L 161.797564 174.865682 
L 165.307343 191.657072 
L 167.062233 197.228433 
L 168.817122 201.612927 
L 170.572012 198.199715 
L 172.326901 196.679313 
L 174.081791 195.9051 
L 175.83668 199.836729 
L 177.591569 194.51015 
L 179.346459 196.103034 
L 181.101348 199.124258 
L 182.856238 203.068326 
L 184.611127 209.775358 
L 186.366017 213.924708 
L 188.120906 221.225567 
L 189.875795 223.064056 
L 191.630685 223.15675 
L 193.385574 219.364124 
L 195.140464 210.894327 
L 200.405132 200.622368 
L 202.160021 200.193563 
L 203.914911 198.040175 
L 205.6698 199.540069 
L 207.42469 200.396724 
L 209.179579 199.950015 
L 210.934469 198.767186 
L 212.689358 200.034888 
L 214.444248 203.959701 
L 216.199137 203.189409 
L 217.954026 200.329296 
L 221.463805 189.180264 
L 223.218695 182.586594 
L 224.973584 174.832769 
L 226.728474 169.985741 
L 228.483363 169.022675 
L 230.238252 173.382367 
L 231.993142 181.287534 
L 233.748031 188.392814 
L 235.502921 193.459837 
L 237.25781 199.114571 
L 239.0127 204.348537 
L 240.767589 208.684949 
L 244.277368 207.006839 
L 249.542036 194.407118 
L 251.296926 188.75722 
L 253.051815 182.62411 
L 254.806705 181.369359 
L 256.561594 183.501848 
L 258.316483 187.373854 
L 260.071373 189.32996 
L 261.826262 190.244515 
L 263.581152 191.718349 
L 267.090931 197.250203 
L 268.84582 199.279235 
L 270.600709 200.690218 
L 272.355599 199.671176 
L 274.110488 200.784279 
L 275.865378 202.168578 
L 277.620267 205.521946 
L 279.375157 206.613591 
L 281.130046 208.214491 
L 282.884936 207.661534 
L 284.639825 207.514839 
L 286.394714 206.569891 
L 288.149604 203.759124 
L 289.904493 199.323161 
L 291.659383 199.087452 
L 293.414272 200.377295 
L 295.169162 203.99742 
L 296.924051 206.286576 
L 298.67894 206.80163 
L 300.43383 207.618926 
L 302.188719 210.254983 
L 303.943609 215.913671 
L 305.698498 219.358803 
L 307.453388 220.071733 
L 309.208277 217.570744 
L 310.963166 215.809728 
L 312.718056 215.828128 
L 316.227835 216.739846 
L 317.982724 219.536984 
L 319.737614 224.014478 
L 321.492503 229.083553 
L 323.247393 230.895704 
L 325.002282 230.152915 
L 326.757171 227.295473 
L 328.512061 227.190055 
L 330.26695 226.045238 
L 332.02184 227.219508 
L 333.776729 229.962187 
L 335.531619 234.322888 
L 337.286508 239.127635 
L 339.041397 243.11774 
L 340.796287 247.584198 
L 342.551176 250.335161 
L 344.306066 251.776572 
L 346.060955 249.772825 
L 347.815845 248.22691 
L 349.570734 249.109246 
L 351.325623 253.716144 
L 353.080513 257.882336 
L 354.835402 260.320859 
L 356.590292 261.462796 
L 358.345181 262.789304 
L 360.100071 263.323163 
L 361.85496 263.670666 
L 363.60985 261.174962 
L 365.364739 260.410336 
L 367.119628 259.304743 
L 368.874518 261.156422 
L 370.629407 260.960906 
L 372.384297 260.473468 
L 374.139186 259.658662 
L 375.894076 260.069737 
L 379.403854 264.091454 
L 381.158744 265.477791 
L 382.913633 265.764662 
L 384.668523 264.439729 
L 384.668523 264.439729 
" style="fill:none;stroke:#008000;stroke-linecap:square;stroke-width:1.5;"/>
   </g>
   <g id="patch_3">
    <path d="M 43.78125 288.430125 
L 43.78125 22.318125 
" style="fill:none;stroke:#000000;stroke-linecap:square;stroke-linejoin:miter;stroke-width:0.8;"/>
   </g>
   <g id="patch_4">
    <path d="M 400.90125 288.430125 
L 400.90125 22.318125 
" style="fill:none;stroke:#000000;stroke-linecap:square;stroke-linejoin:miter;stroke-width:0.8;"/>
   </g>
   <g id="patch_5">
    <path d="M 43.78125 288.430125 
L 400.90125 288.430125 
" style="fill:none;stroke:#000000;stroke-linecap:square;stroke-linejoin:miter;stroke-width:0.8;"/>
   </g>
   <g id="patch_6">
    <path d="M 43.78125 22.318125 
L 400.90125 22.318125 
" style="fill:none;stroke:#000000;stroke-linecap:square;stroke-linejoin:miter;stroke-width:0.8;"/>
   </g>
   <g id="text_17">
    <!-- Entropy and Loss. -->
    <defs>
     <path d="M 9.1875 72.90625 
L 59.90625 72.90625 
L 59.90625 58.6875 
L 27.984375 58.6875 
L 27.984375 45.125 
L 58.015625 45.125 
L 58.015625 30.90625 
L 27.984375 30.90625 
L 27.984375 14.203125 
L 60.984375 14.203125 
L 60.984375 0 
L 9.1875 0 
z
" id="DejaVuSans-Bold-69"/>
     <path d="M 63.375 33.296875 
L 63.375 0 
L 45.796875 0 
L 45.796875 5.421875 
L 45.796875 25.484375 
Q 45.796875 32.5625 45.484375 35.25 
Q 45.171875 37.9375 44.390625 39.203125 
Q 43.359375 40.921875 41.59375 41.875 
Q 39.84375 42.828125 37.59375 42.828125 
Q 32.125 42.828125 29 38.59375 
Q 25.875 34.375 25.875 26.90625 
L 25.875 0 
L 8.40625 0 
L 8.40625 54.6875 
L 25.875 54.6875 
L 25.875 46.6875 
Q 29.828125 51.46875 34.265625 53.734375 
Q 38.71875 56 44.09375 56 
Q 53.5625 56 58.46875 50.1875 
Q 63.375 44.390625 63.375 33.296875 
z
" id="DejaVuSans-Bold-110"/>
     <path d="M 27.484375 70.21875 
L 27.484375 54.6875 
L 45.515625 54.6875 
L 45.515625 42.1875 
L 27.484375 42.1875 
L 27.484375 19 
Q 27.484375 15.1875 29 13.84375 
Q 30.515625 12.5 35.015625 12.5 
L 44 12.5 
L 44 0 
L 29 0 
Q 18.65625 0 14.328125 4.3125 
Q 10.015625 8.640625 10.015625 19 
L 10.015625 42.1875 
L 1.3125 42.1875 
L 1.3125 54.6875 
L 10.015625 54.6875 
L 10.015625 70.21875 
z
" id="DejaVuSans-Bold-116"/>
     <path d="M 49.03125 39.796875 
Q 46.734375 40.875 44.453125 41.375 
Q 42.1875 41.890625 39.890625 41.890625 
Q 33.15625 41.890625 29.515625 37.5625 
Q 25.875 33.25 25.875 25.203125 
L 25.875 0 
L 8.40625 0 
L 8.40625 54.6875 
L 25.875 54.6875 
L 25.875 45.703125 
Q 29.25 51.078125 33.609375 53.53125 
Q 37.984375 56 44.09375 56 
Q 44.96875 56 45.984375 55.921875 
Q 47.015625 55.859375 48.96875 55.609375 
z
" id="DejaVuSans-Bold-114"/>
     <path d="M 34.421875 43.5 
Q 28.609375 43.5 25.5625 39.328125 
Q 22.515625 35.15625 22.515625 27.296875 
Q 22.515625 19.4375 25.5625 15.25 
Q 28.609375 11.078125 34.421875 11.078125 
Q 40.140625 11.078125 43.15625 15.25 
Q 46.1875 19.4375 46.1875 27.296875 
Q 46.1875 35.15625 43.15625 39.328125 
Q 40.140625 43.5 34.421875 43.5 
z
M 34.421875 56 
Q 48.53125 56 56.46875 48.375 
Q 64.40625 40.765625 64.40625 27.296875 
Q 64.40625 13.8125 56.46875 6.1875 
Q 48.53125 -1.421875 34.421875 -1.421875 
Q 20.265625 -1.421875 12.28125 6.1875 
Q 4.296875 13.8125 4.296875 27.296875 
Q 4.296875 40.765625 12.28125 48.375 
Q 20.265625 56 34.421875 56 
z
" id="DejaVuSans-Bold-111"/>
     <path d="M 25.875 7.90625 
L 25.875 -20.796875 
L 8.40625 -20.796875 
L 8.40625 54.6875 
L 25.875 54.6875 
L 25.875 46.6875 
Q 29.5 51.46875 33.890625 53.734375 
Q 38.28125 56 44 56 
Q 54.109375 56 60.59375 47.96875 
Q 67.09375 39.9375 67.09375 27.296875 
Q 67.09375 14.65625 60.59375 6.609375 
Q 54.109375 -1.421875 44 -1.421875 
Q 38.28125 -1.421875 33.890625 0.84375 
Q 29.5 3.125 25.875 7.90625 
z
M 37.5 43.3125 
Q 31.890625 43.3125 28.875 39.1875 
Q 25.875 35.0625 25.875 27.296875 
Q 25.875 19.53125 28.875 15.40625 
Q 31.890625 11.28125 37.5 11.28125 
Q 43.109375 11.28125 46.0625 15.375 
Q 49.03125 19.484375 49.03125 27.296875 
Q 49.03125 35.109375 46.0625 39.203125 
Q 43.109375 43.3125 37.5 43.3125 
z
" id="DejaVuSans-Bold-112"/>
     <path d="M 1.21875 54.6875 
L 18.703125 54.6875 
L 33.40625 17.578125 
L 45.90625 54.6875 
L 63.375 54.6875 
L 40.375 -5.171875 
Q 36.921875 -14.3125 32.296875 -17.9375 
Q 27.6875 -21.578125 20.125 -21.578125 
L 10.015625 -21.578125 
L 10.015625 -10.109375 
L 15.484375 -10.109375 
Q 19.921875 -10.109375 21.9375 -8.6875 
Q 23.96875 -7.28125 25.09375 -3.609375 
L 25.59375 -2.09375 
z
" id="DejaVuSans-Bold-121"/>
     <path id="DejaVuSans-Bold-32"/>
     <path d="M 32.90625 24.609375 
Q 27.4375 24.609375 24.671875 22.75 
Q 21.921875 20.90625 21.921875 17.28125 
Q 21.921875 13.96875 24.140625 12.078125 
Q 26.375 10.203125 30.328125 10.203125 
Q 35.25 10.203125 38.625 13.734375 
Q 42 17.28125 42 22.609375 
L 42 24.609375 
z
M 59.625 31.203125 
L 59.625 0 
L 42 0 
L 42 8.109375 
Q 38.484375 3.125 34.078125 0.84375 
Q 29.6875 -1.421875 23.390625 -1.421875 
Q 14.890625 -1.421875 9.59375 3.53125 
Q 4.296875 8.5 4.296875 16.40625 
Q 4.296875 26.03125 10.90625 30.515625 
Q 17.53125 35.015625 31.6875 35.015625 
L 42 35.015625 
L 42 36.375 
Q 42 40.53125 38.71875 42.453125 
Q 35.453125 44.390625 28.515625 44.390625 
Q 22.90625 44.390625 18.0625 43.265625 
Q 13.234375 42.140625 9.078125 39.890625 
L 9.078125 53.21875 
Q 14.703125 54.59375 20.359375 55.296875 
Q 26.03125 56 31.6875 56 
Q 46.484375 56 53.046875 50.171875 
Q 59.625 44.34375 59.625 31.203125 
z
" id="DejaVuSans-Bold-97"/>
     <path d="M 45.609375 46.6875 
L 45.609375 75.984375 
L 63.1875 75.984375 
L 63.1875 0 
L 45.609375 0 
L 45.609375 7.90625 
Q 42 3.078125 37.640625 0.828125 
Q 33.296875 -1.421875 27.59375 -1.421875 
Q 17.484375 -1.421875 10.984375 6.609375 
Q 4.5 14.65625 4.5 27.296875 
Q 4.5 39.9375 10.984375 47.96875 
Q 17.484375 56 27.59375 56 
Q 33.25 56 37.625 53.734375 
Q 42 51.46875 45.609375 46.6875 
z
M 34.078125 11.28125 
Q 39.703125 11.28125 42.65625 15.375 
Q 45.609375 19.484375 45.609375 27.296875 
Q 45.609375 35.109375 42.65625 39.203125 
Q 39.703125 43.3125 34.078125 43.3125 
Q 28.515625 43.3125 25.5625 39.203125 
Q 22.609375 35.109375 22.609375 27.296875 
Q 22.609375 19.484375 25.5625 15.375 
Q 28.515625 11.28125 34.078125 11.28125 
z
" id="DejaVuSans-Bold-100"/>
     <path d="M 9.1875 72.90625 
L 27.984375 72.90625 
L 27.984375 14.203125 
L 60.984375 14.203125 
L 60.984375 0 
L 9.1875 0 
z
" id="DejaVuSans-Bold-76"/>
     <path d="M 51.125 52.984375 
L 51.125 39.703125 
Q 45.515625 42.046875 40.28125 43.21875 
Q 35.0625 44.390625 30.421875 44.390625 
Q 25.4375 44.390625 23.015625 43.140625 
Q 20.609375 41.890625 20.609375 39.3125 
Q 20.609375 37.203125 22.4375 36.078125 
Q 24.265625 34.96875 29 34.421875 
L 32.078125 33.984375 
Q 45.515625 32.28125 50.140625 28.375 
Q 54.78125 24.46875 54.78125 16.109375 
Q 54.78125 7.375 48.328125 2.96875 
Q 41.890625 -1.421875 29.109375 -1.421875 
Q 23.6875 -1.421875 17.890625 -0.5625 
Q 12.109375 0.296875 6 2 
L 6 15.28125 
Q 11.234375 12.75 16.71875 11.46875 
Q 22.21875 10.203125 27.875 10.203125 
Q 33.015625 10.203125 35.59375 11.609375 
Q 38.1875 13.03125 38.1875 15.828125 
Q 38.1875 18.171875 36.40625 19.3125 
Q 34.625 20.453125 29.296875 21.09375 
L 26.21875 21.484375 
Q 14.546875 22.953125 9.859375 26.90625 
Q 5.171875 30.859375 5.171875 38.921875 
Q 5.171875 47.609375 11.125 51.796875 
Q 17.09375 56 29.390625 56 
Q 34.234375 56 39.546875 55.265625 
Q 44.875 54.546875 51.125 52.984375 
z
" id="DejaVuSans-Bold-115"/>
     <path d="M 10.203125 18.890625 
L 27.78125 18.890625 
L 27.78125 0 
L 10.203125 0 
z
" id="DejaVuSans-Bold-46"/>
    </defs>
    <g transform="translate(161.657813 16.318125)scale(0.12 -0.12)">
     <use xlink:href="#DejaVuSans-Bold-69"/>
     <use x="68.310547" xlink:href="#DejaVuSans-Bold-110"/>
     <use x="139.501953" xlink:href="#DejaVuSans-Bold-116"/>
     <use x="187.304688" xlink:href="#DejaVuSans-Bold-114"/>
     <use x="236.621094" xlink:href="#DejaVuSans-Bold-111"/>
     <use x="305.322266" xlink:href="#DejaVuSans-Bold-112"/>
     <use x="376.904297" xlink:href="#DejaVuSans-Bold-121"/>
     <use x="442.089844" xlink:href="#DejaVuSans-Bold-32"/>
     <use x="476.904297" xlink:href="#DejaVuSans-Bold-97"/>
     <use x="544.384766" xlink:href="#DejaVuSans-Bold-110"/>
     <use x="615.576172" xlink:href="#DejaVuSans-Bold-100"/>
     <use x="687.158203" xlink:href="#DejaVuSans-Bold-32"/>
     <use x="721.972656" xlink:href="#DejaVuSans-Bold-76"/>
     <use x="785.693359" xlink:href="#DejaVuSans-Bold-111"/>
     <use x="854.394531" xlink:href="#DejaVuSans-Bold-115"/>
     <use x="913.916016" xlink:href="#DejaVuSans-Bold-115"/>
     <use x="973.4375" xlink:href="#DejaVuSans-Bold-46"/>
    </g>
   </g>
   <g id="legend_1">
    <g id="patch_7">
     <path d="M 18.982656 353.02505 
L 429.699844 353.02505 
Q 431.699844 353.02505 431.699844 351.02505 
L 431.699844 337.346925 
Q 431.699844 335.346925 429.699844 335.346925 
L 18.982656 335.346925 
Q 16.982656 335.346925 16.982656 337.346925 
L 16.982656 351.02505 
Q 16.982656 353.02505 18.982656 353.02505 
z
" style="fill:#4c4c4c;opacity:0.5;stroke:#4c4c4c;stroke-linejoin:miter;"/>
    </g>
    <g id="patch_8">
     <path d="M 16.982656 351.02505 
L 427.699844 351.02505 
Q 429.699844 351.02505 429.699844 349.02505 
L 429.699844 335.346925 
Q 429.699844 333.346925 427.699844 333.346925 
L 16.982656 333.346925 
Q 14.982656 333.346925 14.982656 335.346925 
L 14.982656 349.02505 
Q 14.982656 351.02505 16.982656 351.02505 
z
" style="fill:#ffffff;stroke:#cccccc;stroke-linejoin:miter;"/>
    </g>
    <g id="line2d_20">
     <path d="M 18.982656 341.445362 
L 38.982656 341.445362 
" style="fill:none;stroke:#1f77b4;stroke-linecap:square;stroke-width:1.5;"/>
    </g>
    <g id="line2d_21"/>
    <g id="text_18">
     <!-- Policy Loss (Normalized) -->
     <defs>
      <path d="M 19.671875 64.796875 
L 19.671875 37.40625 
L 32.078125 37.40625 
Q 38.96875 37.40625 42.71875 40.96875 
Q 46.484375 44.53125 46.484375 51.125 
Q 46.484375 57.671875 42.71875 61.234375 
Q 38.96875 64.796875 32.078125 64.796875 
z
M 9.8125 72.90625 
L 32.078125 72.90625 
Q 44.34375 72.90625 50.609375 67.359375 
Q 56.890625 61.8125 56.890625 51.125 
Q 56.890625 40.328125 50.609375 34.8125 
Q 44.34375 29.296875 32.078125 29.296875 
L 19.671875 29.296875 
L 19.671875 0 
L 9.8125 0 
z
" id="DejaVuSans-80"/>
      <path d="M 9.421875 75.984375 
L 18.40625 75.984375 
L 18.40625 0 
L 9.421875 0 
z
" id="DejaVuSans-108"/>
      <path d="M 9.421875 54.6875 
L 18.40625 54.6875 
L 18.40625 0 
L 9.421875 0 
z
M 9.421875 75.984375 
L 18.40625 75.984375 
L 18.40625 64.59375 
L 9.421875 64.59375 
z
" id="DejaVuSans-105"/>
      <path d="M 32.171875 -5.078125 
Q 28.375 -14.84375 24.75 -17.8125 
Q 21.140625 -20.796875 15.09375 -20.796875 
L 7.90625 -20.796875 
L 7.90625 -13.28125 
L 13.1875 -13.28125 
Q 16.890625 -13.28125 18.9375 -11.515625 
Q 21 -9.765625 23.484375 -3.21875 
L 25.09375 0.875 
L 2.984375 54.6875 
L 12.5 54.6875 
L 29.59375 11.921875 
L 46.6875 54.6875 
L 56.203125 54.6875 
z
" id="DejaVuSans-121"/>
      <path id="DejaVuSans-32"/>
      <path d="M 31 75.875 
Q 24.46875 64.65625 21.28125 53.65625 
Q 18.109375 42.671875 18.109375 31.390625 
Q 18.109375 20.125 21.3125 9.0625 
Q 24.515625 -2 31 -13.1875 
L 23.1875 -13.1875 
Q 15.875 -1.703125 12.234375 9.375 
Q 8.59375 20.453125 8.59375 31.390625 
Q 8.59375 42.28125 12.203125 53.3125 
Q 15.828125 64.359375 23.1875 75.875 
z
" id="DejaVuSans-40"/>
      <path d="M 9.8125 72.90625 
L 23.09375 72.90625 
L 55.421875 11.921875 
L 55.421875 72.90625 
L 64.984375 72.90625 
L 64.984375 0 
L 51.703125 0 
L 19.390625 60.984375 
L 19.390625 0 
L 9.8125 0 
z
" id="DejaVuSans-78"/>
      <path d="M 41.109375 46.296875 
Q 39.59375 47.171875 37.8125 47.578125 
Q 36.03125 48 33.890625 48 
Q 26.265625 48 22.1875 43.046875 
Q 18.109375 38.09375 18.109375 28.8125 
L 18.109375 0 
L 9.078125 0 
L 9.078125 54.6875 
L 18.109375 54.6875 
L 18.109375 46.1875 
Q 20.953125 51.171875 25.484375 53.578125 
Q 30.03125 56 36.53125 56 
Q 37.453125 56 38.578125 55.875 
Q 39.703125 55.765625 41.0625 55.515625 
z
" id="DejaVuSans-114"/>
      <path d="M 52 44.1875 
Q 55.375 50.25 60.0625 53.125 
Q 64.75 56 71.09375 56 
Q 79.640625 56 84.28125 50.015625 
Q 88.921875 44.046875 88.921875 33.015625 
L 88.921875 0 
L 79.890625 0 
L 79.890625 32.71875 
Q 79.890625 40.578125 77.09375 44.375 
Q 74.3125 48.1875 68.609375 48.1875 
Q 61.625 48.1875 57.5625 43.546875 
Q 53.515625 38.921875 53.515625 30.90625 
L 53.515625 0 
L 44.484375 0 
L 44.484375 32.71875 
Q 44.484375 40.625 41.703125 44.40625 
Q 38.921875 48.1875 33.109375 48.1875 
Q 26.21875 48.1875 22.15625 43.53125 
Q 18.109375 38.875 18.109375 30.90625 
L 18.109375 0 
L 9.078125 0 
L 9.078125 54.6875 
L 18.109375 54.6875 
L 18.109375 46.1875 
Q 21.1875 51.21875 25.484375 53.609375 
Q 29.78125 56 35.6875 56 
Q 41.65625 56 45.828125 52.96875 
Q 50 49.953125 52 44.1875 
z
" id="DejaVuSans-109"/>
      <path d="M 34.28125 27.484375 
Q 23.390625 27.484375 19.1875 25 
Q 14.984375 22.515625 14.984375 16.5 
Q 14.984375 11.71875 18.140625 8.90625 
Q 21.296875 6.109375 26.703125 6.109375 
Q 34.1875 6.109375 38.703125 11.40625 
Q 43.21875 16.703125 43.21875 25.484375 
L 43.21875 27.484375 
z
M 52.203125 31.203125 
L 52.203125 0 
L 43.21875 0 
L 43.21875 8.296875 
Q 40.140625 3.328125 35.546875 0.953125 
Q 30.953125 -1.421875 24.3125 -1.421875 
Q 15.921875 -1.421875 10.953125 3.296875 
Q 6 8.015625 6 15.921875 
Q 6 25.140625 12.171875 29.828125 
Q 18.359375 34.515625 30.609375 34.515625 
L 43.21875 34.515625 
L 43.21875 35.40625 
Q 43.21875 41.609375 39.140625 45 
Q 35.0625 48.390625 27.6875 48.390625 
Q 23 48.390625 18.546875 47.265625 
Q 14.109375 46.140625 10.015625 43.890625 
L 10.015625 52.203125 
Q 14.9375 54.109375 19.578125 55.046875 
Q 24.21875 56 28.609375 56 
Q 40.484375 56 46.34375 49.84375 
Q 52.203125 43.703125 52.203125 31.203125 
z
" id="DejaVuSans-97"/>
      <path d="M 5.515625 54.6875 
L 48.1875 54.6875 
L 48.1875 46.484375 
L 14.40625 7.171875 
L 48.1875 7.171875 
L 48.1875 0 
L 4.296875 0 
L 4.296875 8.203125 
L 38.09375 47.515625 
L 5.515625 47.515625 
z
" id="DejaVuSans-122"/>
      <path d="M 56.203125 29.59375 
L 56.203125 25.203125 
L 14.890625 25.203125 
Q 15.484375 15.921875 20.484375 11.0625 
Q 25.484375 6.203125 34.421875 6.203125 
Q 39.59375 6.203125 44.453125 7.46875 
Q 49.3125 8.734375 54.109375 11.28125 
L 54.109375 2.78125 
Q 49.265625 0.734375 44.1875 -0.34375 
Q 39.109375 -1.421875 33.890625 -1.421875 
Q 20.796875 -1.421875 13.15625 6.1875 
Q 5.515625 13.8125 5.515625 26.8125 
Q 5.515625 40.234375 12.765625 48.109375 
Q 20.015625 56 32.328125 56 
Q 43.359375 56 49.78125 48.890625 
Q 56.203125 41.796875 56.203125 29.59375 
z
M 47.21875 32.234375 
Q 47.125 39.59375 43.09375 43.984375 
Q 39.0625 48.390625 32.421875 48.390625 
Q 24.90625 48.390625 20.390625 44.140625 
Q 15.875 39.890625 15.1875 32.171875 
z
" id="DejaVuSans-101"/>
      <path d="M 45.40625 46.390625 
L 45.40625 75.984375 
L 54.390625 75.984375 
L 54.390625 0 
L 45.40625 0 
L 45.40625 8.203125 
Q 42.578125 3.328125 38.25 0.953125 
Q 33.9375 -1.421875 27.875 -1.421875 
Q 17.96875 -1.421875 11.734375 6.484375 
Q 5.515625 14.40625 5.515625 27.296875 
Q 5.515625 40.1875 11.734375 48.09375 
Q 17.96875 56 27.875 56 
Q 33.9375 56 38.25 53.625 
Q 42.578125 51.265625 45.40625 46.390625 
z
M 14.796875 27.296875 
Q 14.796875 17.390625 18.875 11.75 
Q 22.953125 6.109375 30.078125 6.109375 
Q 37.203125 6.109375 41.296875 11.75 
Q 45.40625 17.390625 45.40625 27.296875 
Q 45.40625 37.203125 41.296875 42.84375 
Q 37.203125 48.484375 30.078125 48.484375 
Q 22.953125 48.484375 18.875 42.84375 
Q 14.796875 37.203125 14.796875 27.296875 
z
" id="DejaVuSans-100"/>
      <path d="M 8.015625 75.875 
L 15.828125 75.875 
Q 23.140625 64.359375 26.78125 53.3125 
Q 30.421875 42.28125 30.421875 31.390625 
Q 30.421875 20.453125 26.78125 9.375 
Q 23.140625 -1.703125 15.828125 -13.1875 
L 8.015625 -13.1875 
Q 14.5 -2 17.703125 9.0625 
Q 20.90625 20.125 20.90625 31.390625 
Q 20.90625 42.671875 17.703125 53.65625 
Q 14.5 64.65625 8.015625 75.875 
z
" id="DejaVuSans-41"/>
     </defs>
     <g transform="translate(46.982656 344.945362)scale(0.1 -0.1)">
      <use xlink:href="#DejaVuSans-80"/>
      <use x="60.255859" xlink:href="#DejaVuSans-111"/>
      <use x="121.4375" xlink:href="#DejaVuSans-108"/>
      <use x="149.220703" xlink:href="#DejaVuSans-105"/>
      <use x="177.003906" xlink:href="#DejaVuSans-99"/>
      <use x="231.984375" xlink:href="#DejaVuSans-121"/>
      <use x="291.164062" xlink:href="#DejaVuSans-32"/>
      <use x="322.951172" xlink:href="#DejaVuSans-76"/>
      <use x="378.648438" xlink:href="#DejaVuSans-111"/>
      <use x="439.830078" xlink:href="#DejaVuSans-115"/>
      <use x="491.929688" xlink:href="#DejaVuSans-115"/>
      <use x="544.029297" xlink:href="#DejaVuSans-32"/>
      <use x="575.816406" xlink:href="#DejaVuSans-40"/>
      <use x="614.830078" xlink:href="#DejaVuSans-78"/>
      <use x="689.634766" xlink:href="#DejaVuSans-111"/>
      <use x="750.816406" xlink:href="#DejaVuSans-114"/>
      <use x="791.914062" xlink:href="#DejaVuSans-109"/>
      <use x="889.326172" xlink:href="#DejaVuSans-97"/>
      <use x="950.605469" xlink:href="#DejaVuSans-108"/>
      <use x="978.388672" xlink:href="#DejaVuSans-105"/>
      <use x="1006.171875" xlink:href="#DejaVuSans-122"/>
      <use x="1058.662109" xlink:href="#DejaVuSans-101"/>
      <use x="1120.185547" xlink:href="#DejaVuSans-100"/>
      <use x="1183.662109" xlink:href="#DejaVuSans-41"/>
     </g>
    </g>
    <g id="line2d_22">
     <path d="M 189.251406 341.445362 
L 209.251406 341.445362 
" style="fill:none;stroke:#ff7f0e;stroke-linecap:square;stroke-width:1.5;"/>
    </g>
    <g id="line2d_23"/>
    <g id="text_19">
     <!-- Value Loss (Normalized) -->
     <defs>
      <path d="M 28.609375 0 
L 0.78125 72.90625 
L 11.078125 72.90625 
L 34.1875 11.53125 
L 57.328125 72.90625 
L 67.578125 72.90625 
L 39.796875 0 
z
" id="DejaVuSans-86"/>
      <path d="M 8.5 21.578125 
L 8.5 54.6875 
L 17.484375 54.6875 
L 17.484375 21.921875 
Q 17.484375 14.15625 20.5 10.265625 
Q 23.53125 6.390625 29.59375 6.390625 
Q 36.859375 6.390625 41.078125 11.03125 
Q 45.3125 15.671875 45.3125 23.6875 
L 45.3125 54.6875 
L 54.296875 54.6875 
L 54.296875 0 
L 45.3125 0 
L 45.3125 8.40625 
Q 42.046875 3.421875 37.71875 1 
Q 33.40625 -1.421875 27.6875 -1.421875 
Q 18.265625 -1.421875 13.375 4.4375 
Q 8.5 10.296875 8.5 21.578125 
z
M 31.109375 56 
z
" id="DejaVuSans-117"/>
     </defs>
     <g transform="translate(217.251406 344.945362)scale(0.1 -0.1)">
      <use xlink:href="#DejaVuSans-86"/>
      <use x="68.298828" xlink:href="#DejaVuSans-97"/>
      <use x="129.578125" xlink:href="#DejaVuSans-108"/>
      <use x="157.361328" xlink:href="#DejaVuSans-117"/>
      <use x="220.740234" xlink:href="#DejaVuSans-101"/>
      <use x="282.263672" xlink:href="#DejaVuSans-32"/>
      <use x="314.050781" xlink:href="#DejaVuSans-76"/>
      <use x="369.748047" xlink:href="#DejaVuSans-111"/>
      <use x="430.929688" xlink:href="#DejaVuSans-115"/>
      <use x="483.029297" xlink:href="#DejaVuSans-115"/>
      <use x="535.128906" xlink:href="#DejaVuSans-32"/>
      <use x="566.916016" xlink:href="#DejaVuSans-40"/>
      <use x="605.929688" xlink:href="#DejaVuSans-78"/>
      <use x="680.734375" xlink:href="#DejaVuSans-111"/>
      <use x="741.916016" xlink:href="#DejaVuSans-114"/>
      <use x="783.013672" xlink:href="#DejaVuSans-109"/>
      <use x="880.425781" xlink:href="#DejaVuSans-97"/>
      <use x="941.705078" xlink:href="#DejaVuSans-108"/>
      <use x="969.488281" xlink:href="#DejaVuSans-105"/>
      <use x="997.271484" xlink:href="#DejaVuSans-122"/>
      <use x="1049.761719" xlink:href="#DejaVuSans-101"/>
      <use x="1111.285156" xlink:href="#DejaVuSans-100"/>
      <use x="1174.761719" xlink:href="#DejaVuSans-41"/>
     </g>
    </g>
    <g id="line2d_24">
     <path d="M 358.629531 341.445362 
L 378.629531 341.445362 
" style="fill:none;stroke:#008000;stroke-linecap:square;stroke-width:1.5;"/>
    </g>
    <g id="line2d_25"/>
    <g id="text_20">
     <!-- Entropy -->
     <defs>
      <path d="M 54.890625 33.015625 
L 54.890625 0 
L 45.90625 0 
L 45.90625 32.71875 
Q 45.90625 40.484375 42.875 44.328125 
Q 39.84375 48.1875 33.796875 48.1875 
Q 26.515625 48.1875 22.3125 43.546875 
Q 18.109375 38.921875 18.109375 30.90625 
L 18.109375 0 
L 9.078125 0 
L 9.078125 54.6875 
L 18.109375 54.6875 
L 18.109375 46.1875 
Q 21.34375 51.125 25.703125 53.5625 
Q 30.078125 56 35.796875 56 
Q 45.21875 56 50.046875 50.171875 
Q 54.890625 44.34375 54.890625 33.015625 
z
" id="DejaVuSans-110"/>
      <path d="M 18.3125 70.21875 
L 18.3125 54.6875 
L 36.8125 54.6875 
L 36.8125 47.703125 
L 18.3125 47.703125 
L 18.3125 18.015625 
Q 18.3125 11.328125 20.140625 9.421875 
Q 21.96875 7.515625 27.59375 7.515625 
L 36.8125 7.515625 
L 36.8125 0 
L 27.59375 0 
Q 17.1875 0 13.234375 3.875 
Q 9.28125 7.765625 9.28125 18.015625 
L 9.28125 47.703125 
L 2.6875 47.703125 
L 2.6875 54.6875 
L 9.28125 54.6875 
L 9.28125 70.21875 
z
" id="DejaVuSans-116"/>
     </defs>
     <g transform="translate(386.629531 344.945362)scale(0.1 -0.1)">
      <use xlink:href="#DejaVuSans-69"/>
      <use x="63.183594" xlink:href="#DejaVuSans-110"/>
      <use x="126.5625" xlink:href="#DejaVuSans-116"/>
      <use x="165.771484" xlink:href="#DejaVuSans-114"/>
      <use x="206.853516" xlink:href="#DejaVuSans-111"/>
      <use x="268.035156" xlink:href="#DejaVuSans-112"/>
      <use x="331.511719" xlink:href="#DejaVuSans-121"/>
     </g>
    </g>
   </g>
  </g>
  <g id="axes_2">
   <g id="matplotlib.axis_3">
    <g id="ytick_7">
     <g id="line2d_26">
      <defs>
       <path d="M 0 0 
L 3.5 0 
" id="m03b5114ec6" style="stroke:#000000;stroke-width:0.8;"/>
      </defs>
      <g>
       <use style="stroke:#000000;stroke-width:0.8;" x="400.90125" xlink:href="#m03b5114ec6" y="282.498555"/>
      </g>
     </g>
     <g id="text_21">
      <!-- 0.2 -->
      <g transform="translate(407.90125 286.297774)scale(0.1 -0.1)">
       <use xlink:href="#DejaVuSans-48"/>
       <use x="63.623047" xlink:href="#DejaVuSans-46"/>
       <use x="95.410156" xlink:href="#DejaVuSans-50"/>
      </g>
     </g>
    </g>
    <g id="ytick_8">
     <g id="line2d_27">
      <g>
       <use style="stroke:#000000;stroke-width:0.8;" x="400.90125" xlink:href="#m03b5114ec6" y="249.491102"/>
      </g>
     </g>
     <g id="text_22">
      <!-- 0.4 -->
      <g transform="translate(407.90125 253.29032)scale(0.1 -0.1)">
       <use xlink:href="#DejaVuSans-48"/>
       <use x="63.623047" xlink:href="#DejaVuSans-46"/>
       <use x="95.410156" xlink:href="#DejaVuSans-52"/>
      </g>
     </g>
    </g>
    <g id="ytick_9">
     <g id="line2d_28">
      <g>
       <use style="stroke:#000000;stroke-width:0.8;" x="400.90125" xlink:href="#m03b5114ec6" y="216.483648"/>
      </g>
     </g>
     <g id="text_23">
      <!-- 0.6 -->
      <g transform="translate(407.90125 220.282867)scale(0.1 -0.1)">
       <use xlink:href="#DejaVuSans-48"/>
       <use x="63.623047" xlink:href="#DejaVuSans-46"/>
       <use x="95.410156" xlink:href="#DejaVuSans-54"/>
      </g>
     </g>
    </g>
    <g id="ytick_10">
     <g id="line2d_29">
      <g>
       <use style="stroke:#000000;stroke-width:0.8;" x="400.90125" xlink:href="#m03b5114ec6" y="183.476195"/>
      </g>
     </g>
     <g id="text_24">
      <!-- 0.8 -->
      <g transform="translate(407.90125 187.275414)scale(0.1 -0.1)">
       <use xlink:href="#DejaVuSans-48"/>
       <use x="63.623047" xlink:href="#DejaVuSans-46"/>
       <use x="95.410156" xlink:href="#DejaVuSans-56"/>
      </g>
     </g>
    </g>
    <g id="ytick_11">
     <g id="line2d_30">
      <g>
       <use style="stroke:#000000;stroke-width:0.8;" x="400.90125" xlink:href="#m03b5114ec6" y="150.468741"/>
      </g>
     </g>
     <g id="text_25">
      <!-- 1.0 -->
      <g transform="translate(407.90125 154.26796)scale(0.1 -0.1)">
       <use xlink:href="#DejaVuSans-49"/>
       <use x="63.623047" xlink:href="#DejaVuSans-46"/>
       <use x="95.410156" xlink:href="#DejaVuSans-48"/>
      </g>
     </g>
    </g>
    <g id="ytick_12">
     <g id="line2d_31">
      <g>
       <use style="stroke:#000000;stroke-width:0.8;" x="400.90125" xlink:href="#m03b5114ec6" y="117.461288"/>
      </g>
     </g>
     <g id="text_26">
      <!-- 1.2 -->
      <g transform="translate(407.90125 121.260507)scale(0.1 -0.1)">
       <use xlink:href="#DejaVuSans-49"/>
       <use x="63.623047" xlink:href="#DejaVuSans-46"/>
       <use x="95.410156" xlink:href="#DejaVuSans-50"/>
      </g>
     </g>
    </g>
    <g id="ytick_13">
     <g id="line2d_32">
      <g>
       <use style="stroke:#000000;stroke-width:0.8;" x="400.90125" xlink:href="#m03b5114ec6" y="84.453835"/>
      </g>
     </g>
     <g id="text_27">
      <!-- 1.4 -->
      <g transform="translate(407.90125 88.253053)scale(0.1 -0.1)">
       <use xlink:href="#DejaVuSans-49"/>
       <use x="63.623047" xlink:href="#DejaVuSans-46"/>
       <use x="95.410156" xlink:href="#DejaVuSans-52"/>
      </g>
     </g>
    </g>
    <g id="ytick_14">
     <g id="line2d_33">
      <g>
       <use style="stroke:#000000;stroke-width:0.8;" x="400.90125" xlink:href="#m03b5114ec6" y="51.446381"/>
      </g>
     </g>
     <g id="text_28">
      <!-- 1.6 -->
      <g transform="translate(407.90125 55.2456)scale(0.1 -0.1)">
       <use xlink:href="#DejaVuSans-49"/>
       <use x="63.623047" xlink:href="#DejaVuSans-46"/>
       <use x="95.410156" xlink:href="#DejaVuSans-54"/>
      </g>
     </g>
    </g>
    <g id="text_29">
     <!-- Entropy -->
     <g transform="translate(435.402812 174.909281)rotate(-90)scale(0.1 -0.1)">
      <use xlink:href="#DejaVuSans-69"/>
      <use x="63.183594" xlink:href="#DejaVuSans-110"/>
      <use x="126.5625" xlink:href="#DejaVuSans-116"/>
      <use x="165.771484" xlink:href="#DejaVuSans-114"/>
      <use x="206.853516" xlink:href="#DejaVuSans-111"/>
      <use x="268.035156" xlink:href="#DejaVuSans-112"/>
      <use x="331.511719" xlink:href="#DejaVuSans-121"/>
     </g>
    </g>
   </g>
   <g id="line2d_34">
    <path clip-path="url(#p9c4634f6d4)" d="M 60.013977 37.573549 
L 61.768867 44.845149 
L 63.523756 34.414125 
L 65.278646 98.589846 
L 67.033535 99.564494 
L 68.788424 81.895553 
L 70.543314 100.725849 
L 72.298203 110.867016 
L 74.053093 106.783328 
L 75.807982 115.115591 
L 77.562872 130.390505 
L 79.317761 122.217326 
L 81.07265 165.843353 
L 82.82754 147.221316 
L 84.582429 93.279249 
L 86.337319 104.13771 
L 88.092208 106.439093 
L 89.847098 106.571459 
L 91.601987 96.490259 
L 93.356877 95.375826 
L 95.111766 99.952859 
L 96.866655 96.06052 
L 98.621545 100.55384 
L 100.376434 100.203053 
L 103.886213 111.941628 
L 105.641103 105.029453 
L 107.395992 114.443371 
L 109.150881 109.59649 
L 110.905771 95.774559 
L 112.66066 102.857603 
L 114.41555 109.263607 
L 116.170439 99.195981 
L 117.925329 133.042813 
L 119.680218 152.09149 
L 121.435107 148.030152 
L 123.189997 166.359008 
L 124.944886 175.396524 
L 126.699776 168.626207 
L 128.454665 190.174031 
L 130.209555 186.584986 
L 131.964444 185.54799 
L 133.719334 170.440404 
L 135.474223 174.710797 
L 137.229112 169.794753 
L 138.984002 178.218264 
L 140.738891 185.417217 
L 142.493781 186.758117 
L 144.24867 170.245789 
L 146.00356 174.755703 
L 147.758449 175.077678 
L 149.513338 134.072529 
L 151.268228 165.212989 
L 153.023117 179.528944 
L 154.778007 165.991311 
L 156.532896 158.891623 
L 158.287786 166.855599 
L 160.042675 126.459724 
L 161.797564 188.800708 
L 163.552454 193.826838 
L 165.307343 212.823931 
L 167.062233 175.339558 
L 168.817122 206.281498 
L 170.572012 193.292621 
L 172.326901 199.725214 
L 174.081791 192.527864 
L 175.83668 197.213871 
L 177.591569 205.583927 
L 179.346459 186.715011 
L 181.101348 201.80977 
L 182.856238 200.731941 
L 184.611127 190.683124 
L 186.366017 228.371368 
L 188.120906 226.860073 
L 189.875795 220.668948 
L 191.630685 232.842555 
L 193.385574 207.297019 
L 195.140464 222.70006 
L 196.895353 201.241822 
L 198.650243 197.430894 
L 200.405132 196.416917 
L 202.160021 203.684887 
L 203.914911 206.592199 
L 205.6698 195.379902 
L 207.42469 196.647909 
L 209.179579 196.937333 
L 210.934469 200.561811 
L 212.689358 201.189017 
L 214.444248 203.216224 
L 216.199137 196.626229 
L 219.708916 205.847696 
L 221.463805 195.551144 
L 223.218695 169.339094 
L 224.973584 172.048643 
L 226.728474 167.95076 
L 228.483363 171.303826 
L 230.238252 166.667034 
L 231.993142 170.70615 
L 233.748031 196.962182 
L 235.502921 196.671518 
L 237.25781 201.990604 
L 239.0127 204.985002 
L 240.767589 203.787536 
L 242.522479 195.626201 
L 244.277368 215.8925 
L 246.032257 209.77594 
L 247.787147 207.597303 
L 249.542036 182.762765 
L 251.296926 183.361523 
L 253.051815 178.302626 
L 254.806705 186.287063 
L 256.561594 181.445337 
L 258.316483 180.491523 
L 260.071373 192.005284 
L 261.826262 194.868556 
L 263.581152 196.169989 
L 265.336041 187.437203 
L 267.090931 192.3181 
L 268.84582 192.98431 
L 270.600709 207.489539 
L 272.355599 204.499163 
L 274.110488 206.693884 
L 275.865378 199.904877 
L 277.620267 191.292968 
L 279.375157 194.382658 
L 281.130046 219.404816 
L 282.884936 220.500785 
L 284.639825 215.883804 
L 286.394714 196.628029 
L 288.149604 195.27441 
L 289.904493 193.345574 
L 291.659383 202.886901 
L 293.414272 204.697812 
L 295.169162 205.197344 
L 296.924051 203.059235 
L 298.67894 207.866896 
L 300.43383 205.227809 
L 302.188719 212.937056 
L 303.943609 211.922135 
L 305.698498 211.152754 
L 307.453388 226.424048 
L 309.208277 227.471707 
L 310.963166 228.150626 
L 312.718056 203.169911 
L 314.472945 203.904557 
L 316.227835 206.556117 
L 317.982724 232.466349 
L 319.737614 231.319701 
L 321.492503 230.594292 
L 323.247393 229.747012 
L 325.002282 227.783392 
L 326.757171 228.241422 
L 328.512061 224.587492 
L 330.26695 230.129356 
L 332.02184 226.805615 
L 333.776729 230.095546 
L 335.531619 231.722574 
L 337.286508 232.200977 
L 339.041397 251.019434 
L 340.796287 251.376959 
L 342.551176 254.267258 
L 344.306066 250.039365 
L 346.060955 250.641389 
L 347.815845 251.632082 
L 349.570734 248.506108 
L 351.325623 248.348013 
L 353.080513 248.642341 
L 354.835402 271.161679 
L 356.590292 269.004649 
L 358.345181 276.334125 
L 360.100071 254.069481 
L 361.85496 254.903819 
L 363.60985 258.989632 
L 365.364739 267.311846 
L 367.119628 267.51529 
L 368.874518 266.670057 
L 370.629407 254.803335 
L 372.384297 256.391649 
L 374.139186 258.970096 
L 375.894076 266.230063 
L 377.648965 265.720891 
L 379.403854 264.944113 
L 381.158744 262.87808 
L 384.668523 267.853446 
L 384.668523 267.853446 
" style="fill:none;stroke:#008000;stroke-linecap:square;stroke-opacity:0.3;stroke-width:1.5;"/>
   </g>
   <g id="patch_9">
    <path d="M 43.78125 288.430125 
L 43.78125 22.318125 
" style="fill:none;stroke:#000000;stroke-linecap:square;stroke-linejoin:miter;stroke-width:0.8;"/>
   </g>
   <g id="patch_10">
    <path d="M 400.90125 288.430125 
L 400.90125 22.318125 
" style="fill:none;stroke:#000000;stroke-linecap:square;stroke-linejoin:miter;stroke-width:0.8;"/>
   </g>
   <g id="patch_11">
    <path d="M 43.78125 288.430125 
L 400.90125 288.430125 
" style="fill:none;stroke:#000000;stroke-linecap:square;stroke-linejoin:miter;stroke-width:0.8;"/>
   </g>
   <g id="patch_12">
    <path d="M 43.78125 22.318125 
L 400.90125 22.318125 
" style="fill:none;stroke:#000000;stroke-linecap:square;stroke-linejoin:miter;stroke-width:0.8;"/>
   </g>
  </g>
 </g>
 <defs>
  <clipPath id="p9c4634f6d4">
   <rect height="266.112" width="357.12" x="43.78125" y="22.318125"/>
  </clipPath>
 </defs>
</svg>
