<?xml version="1.0" encoding="utf-8"?>
<!-- Generator: Adobe Illustrator 16.0.0, SVG Export Plug-In . SVG Version: 6.00 Build 0)  -->
<!DOCTYPE svg PUBLIC "-//W3C//DTD SVG 1.1//EN" "http://www.w3.org/Graphics/SVG/1.1/DTD/svg11.dtd">
<svg version="1.1" id="Ebene_1" xmlns="http://www.w3.org/2000/svg" xmlns:xlink="http://www.w3.org/1999/xlink" x="0px" y="0px"
	 width="507.844px" height="114.378px" viewBox="0 0 507.844 114.378" enable-background="new 0 0 507.844 114.378"
	 xml:space="preserve">
<g>
	<path fill="#1352E2" d="M85.953,67.017H56.168L49.479,85.62h-9.668l27.148-71.093h8.203l27.197,71.093H92.74L85.953,67.017z
		 M59,59.351h24.17L71.061,26.099L59,59.351z"/>
	<path fill="#1352E2" d="M119.059,32.788l0.293,6.641c4.036-5.078,9.31-7.617,15.82-7.617c11.165,0,16.797,6.299,16.895,18.896
		V85.62h-9.033v-34.96c-0.033-3.809-0.903-6.624-2.612-8.447c-1.709-1.823-4.37-2.734-7.983-2.734c-2.93,0-5.501,0.781-7.715,2.344
		c-2.214,1.563-3.939,3.613-5.176,6.152V85.62h-9.033V32.788H119.059z"/>
	<path fill="#1352E2" d="M163.541,58.765c0-8.235,1.904-14.787,5.713-19.653c3.809-4.866,8.854-7.3,15.137-7.3
		c6.445,0,11.475,2.279,15.088,6.836l0.439-5.859h8.252V84.35c0,6.836-2.026,12.224-6.079,16.162
		c-4.053,3.939-9.497,5.908-16.333,5.908c-3.809,0-7.536-0.813-11.182-2.441c-3.646-1.627-6.429-3.857-8.35-6.689l4.688-5.42
		c3.874,4.785,8.61,7.178,14.209,7.178c4.395,0,7.82-1.236,10.278-3.711c2.458-2.474,3.687-5.957,3.687-10.449v-4.541
		c-3.613,4.167-8.545,6.25-14.795,6.25c-6.185,0-11.19-2.49-15.015-7.47C165.453,74.146,163.541,67.358,163.541,58.765z
		 M172.623,59.79c0,5.957,1.221,10.637,3.662,14.038c2.441,3.402,5.859,5.103,10.254,5.103c5.696,0,9.879-2.588,12.549-7.764V47.046
		c-2.767-5.045-6.917-7.568-12.451-7.568c-4.395,0-7.829,1.709-10.303,5.127C173.86,48.022,172.623,53.084,172.623,59.79z"/>
	<path fill="#1352E2" d="M219.4,58.716c0-5.176,1.017-9.831,3.052-13.965c2.034-4.134,4.866-7.324,8.496-9.57
		c3.629-2.246,7.771-3.369,12.427-3.369c7.194,0,13.013,2.49,17.456,7.471s6.665,11.605,6.665,19.873v0.635
		c0,5.144-0.984,9.758-2.954,13.843c-1.97,4.085-4.785,7.268-8.447,9.545c-3.662,2.279-7.87,3.418-12.622,3.418
		c-7.162,0-12.964-2.49-17.407-7.47c-4.443-4.98-6.665-11.572-6.665-19.775V58.716z M228.482,59.79
		c0,5.859,1.359,10.563,4.077,14.111c2.718,3.548,6.355,5.322,10.913,5.322c4.59,0,8.235-1.798,10.938-5.396
		c2.701-3.597,4.053-8.634,4.053-15.112c0-5.794-1.375-10.49-4.126-14.087c-2.751-3.597-6.405-5.396-10.962-5.396
		c-4.46,0-8.057,1.774-10.791,5.322C229.85,48.104,228.482,53.182,228.482,59.79z"/>
	<path fill="#1352E2" d="M304.361,40.894c-1.367-0.228-2.849-0.342-4.443-0.342c-5.925,0-9.945,2.523-12.061,7.568v37.5h-9.033
		V32.788h8.789l0.146,6.104c2.962-4.72,7.161-7.08,12.598-7.08c1.758,0,3.092,0.228,4.004,0.684V40.894z"/>
	<path fill="#1352E2" d="M343.326,85.62c-0.521-1.041-0.944-2.896-1.27-5.566c-4.199,4.363-9.213,6.542-15.039,6.542
		c-5.209,0-9.48-1.473-12.817-4.418s-5.005-6.681-5.005-11.206c0-5.501,2.092-9.773,6.274-12.817
		c4.183-3.043,10.066-4.565,17.651-4.565h8.789v-4.15c0-3.157-0.944-5.672-2.832-7.544c-1.889-1.872-4.672-2.808-8.35-2.808
		c-3.223,0-5.925,0.814-8.105,2.441c-2.182,1.628-3.271,3.597-3.271,5.908h-9.082c0-2.637,0.936-5.184,2.808-7.642
		c1.872-2.458,4.411-4.402,7.617-5.835c3.206-1.432,6.729-2.148,10.571-2.148c6.087,0,10.855,1.522,14.307,4.565
		c3.45,3.044,5.24,7.235,5.371,12.573v24.316c0,4.851,0.618,8.708,1.855,11.572v0.781H343.326z M328.336,78.735
		c2.832,0,5.518-0.732,8.057-2.197s4.378-3.369,5.518-5.713v-10.84h-7.08c-11.068,0-16.602,3.239-16.602,9.717
		c0,2.832,0.943,5.046,2.832,6.641C322.948,77.938,325.373,78.735,328.336,78.735z"/>
	<path d="M375.895,57.788V85.62h-9.375V14.526h26.221c7.779,0,13.875,1.986,18.285,5.957c4.41,3.972,6.617,9.229,6.617,15.771
		c0,6.901-2.158,12.215-6.471,15.942c-4.313,3.728-10.49,5.591-18.529,5.591H375.895z M375.895,50.122h16.846
		c5.012,0,8.854-1.182,11.523-3.546c2.668-2.364,4.004-5.78,4.004-10.248c0-4.239-1.336-7.63-4.004-10.174
		c-2.67-2.543-6.332-3.864-10.986-3.962h-17.383V50.122z"/>
	<path d="M446.207,72.388l12.305-39.6h9.668l-21.24,60.986c-3.287,8.789-8.512,13.184-15.674,13.184l-1.709-0.146l-3.369-0.635
		v-7.324l2.441,0.195c3.061,0,5.445-0.618,7.154-1.855c1.709-1.236,3.115-3.499,4.223-6.787l2.002-5.371L423.16,32.788h9.863
		L446.207,72.388z"/>
</g>
</svg>
