<?xml version="1.0" encoding="utf-8" standalone="no"?>
<!DOCTYPE svg PUBLIC "-//W3C//DTD SVG 1.1//EN"
  "http://www.w3.org/Graphics/SVG/1.1/DTD/svg11.dtd">
<!-- Created with matplotlib (https://matplotlib.org/) -->
<svg height="358.22505pt" version="1.1" viewBox="0 0 451.05125 358.22505" width="451.05125pt" xmlns="http://www.w3.org/2000/svg" xmlns:xlink="http://www.w3.org/1999/xlink">
 <defs>
  <style type="text/css">
*{stroke-linecap:butt;stroke-linejoin:round;}
  </style>
 </defs>
 <g id="figure_1">
  <g id="patch_1">
   <path d="M 0 358.22505 
L 451.05125 358.22505 
L 451.05125 0 
L 0 0 
z
" style="fill:#ffffff;"/>
  </g>
  <g id="axes_1">
   <g id="patch_2">
    <path d="M 46.965625 288.430125 
L 404.085625 288.430125 
L 404.085625 22.318125 
L 46.965625 22.318125 
z
" style="fill:#ffffff;"/>
   </g>
   <g id="matplotlib.axis_1">
    <g id="xtick_1">
     <g id="line2d_1">
      <defs>
       <path d="M 0 0 
L 0 3.5 
" id="mda9f4c81b3" style="stroke:#000000;stroke-width:0.8;"/>
      </defs>
      <g>
       <use style="stroke:#000000;stroke-width:0.8;" x="63.198352" xlink:href="#mda9f4c81b3" y="288.430125"/>
      </g>
     </g>
     <g id="text_1">
      <!-- 0 -->
      <defs>
       <path d="M 31.78125 66.40625 
Q 24.171875 66.40625 20.328125 58.90625 
Q 16.5 51.421875 16.5 36.375 
Q 16.5 21.390625 20.328125 13.890625 
Q 24.171875 6.390625 31.78125 6.390625 
Q 39.453125 6.390625 43.28125 13.890625 
Q 47.125 21.390625 47.125 36.375 
Q 47.125 51.421875 43.28125 58.90625 
Q 39.453125 66.40625 31.78125 66.40625 
z
M 31.78125 74.21875 
Q 44.046875 74.21875 50.515625 64.515625 
Q 56.984375 54.828125 56.984375 36.375 
Q 56.984375 17.96875 50.515625 8.265625 
Q 44.046875 -1.421875 31.78125 -1.421875 
Q 19.53125 -1.421875 13.0625 8.265625 
Q 6.59375 17.96875 6.59375 36.375 
Q 6.59375 54.828125 13.0625 64.515625 
Q 19.53125 74.21875 31.78125 74.21875 
z
" id="DejaVuSans-48"/>
      </defs>
      <g transform="translate(60.017102 303.028562)scale(0.1 -0.1)">
       <use xlink:href="#DejaVuSans-48"/>
      </g>
     </g>
    </g>
    <g id="xtick_2">
     <g id="line2d_2">
      <g>
       <use style="stroke:#000000;stroke-width:0.8;" x="131.690872" xlink:href="#mda9f4c81b3" y="288.430125"/>
      </g>
     </g>
     <g id="text_2">
      <!-- 50 -->
      <defs>
       <path d="M 10.796875 72.90625 
L 49.515625 72.90625 
L 49.515625 64.59375 
L 19.828125 64.59375 
L 19.828125 46.734375 
Q 21.96875 47.46875 24.109375 47.828125 
Q 26.265625 48.1875 28.421875 48.1875 
Q 40.625 48.1875 47.75 41.5 
Q 54.890625 34.8125 54.890625 23.390625 
Q 54.890625 11.625 47.5625 5.09375 
Q 40.234375 -1.421875 26.90625 -1.421875 
Q 22.3125 -1.421875 17.546875 -0.640625 
Q 12.796875 0.140625 7.71875 1.703125 
L 7.71875 11.625 
Q 12.109375 9.234375 16.796875 8.0625 
Q 21.484375 6.890625 26.703125 6.890625 
Q 35.15625 6.890625 40.078125 11.328125 
Q 45.015625 15.765625 45.015625 23.390625 
Q 45.015625 31 40.078125 35.4375 
Q 35.15625 39.890625 26.703125 39.890625 
Q 22.75 39.890625 18.8125 39.015625 
Q 14.890625 38.140625 10.796875 36.28125 
z
" id="DejaVuSans-53"/>
      </defs>
      <g transform="translate(125.328372 303.028562)scale(0.1 -0.1)">
       <use xlink:href="#DejaVuSans-53"/>
       <use x="63.623047" xlink:href="#DejaVuSans-48"/>
      </g>
     </g>
    </g>
    <g id="xtick_3">
     <g id="line2d_3">
      <g>
       <use style="stroke:#000000;stroke-width:0.8;" x="200.183393" xlink:href="#mda9f4c81b3" y="288.430125"/>
      </g>
     </g>
     <g id="text_3">
      <!-- 100 -->
      <defs>
       <path d="M 12.40625 8.296875 
L 28.515625 8.296875 
L 28.515625 63.921875 
L 10.984375 60.40625 
L 10.984375 69.390625 
L 28.421875 72.90625 
L 38.28125 72.90625 
L 38.28125 8.296875 
L 54.390625 8.296875 
L 54.390625 0 
L 12.40625 0 
z
" id="DejaVuSans-49"/>
      </defs>
      <g transform="translate(190.639643 303.028562)scale(0.1 -0.1)">
       <use xlink:href="#DejaVuSans-49"/>
       <use x="63.623047" xlink:href="#DejaVuSans-48"/>
       <use x="127.246094" xlink:href="#DejaVuSans-48"/>
      </g>
     </g>
    </g>
    <g id="xtick_4">
     <g id="line2d_4">
      <g>
       <use style="stroke:#000000;stroke-width:0.8;" x="268.675913" xlink:href="#mda9f4c81b3" y="288.430125"/>
      </g>
     </g>
     <g id="text_4">
      <!-- 150 -->
      <g transform="translate(259.132163 303.028562)scale(0.1 -0.1)">
       <use xlink:href="#DejaVuSans-49"/>
       <use x="63.623047" xlink:href="#DejaVuSans-53"/>
       <use x="127.246094" xlink:href="#DejaVuSans-48"/>
      </g>
     </g>
    </g>
    <g id="xtick_5">
     <g id="line2d_5">
      <g>
       <use style="stroke:#000000;stroke-width:0.8;" x="337.168433" xlink:href="#mda9f4c81b3" y="288.430125"/>
      </g>
     </g>
     <g id="text_5">
      <!-- 200 -->
      <defs>
       <path d="M 19.1875 8.296875 
L 53.609375 8.296875 
L 53.609375 0 
L 7.328125 0 
L 7.328125 8.296875 
Q 12.9375 14.109375 22.625 23.890625 
Q 32.328125 33.6875 34.8125 36.53125 
Q 39.546875 41.84375 41.421875 45.53125 
Q 43.3125 49.21875 43.3125 52.78125 
Q 43.3125 58.59375 39.234375 62.25 
Q 35.15625 65.921875 28.609375 65.921875 
Q 23.96875 65.921875 18.8125 64.3125 
Q 13.671875 62.703125 7.8125 59.421875 
L 7.8125 69.390625 
Q 13.765625 71.78125 18.9375 73 
Q 24.125 74.21875 28.421875 74.21875 
Q 39.75 74.21875 46.484375 68.546875 
Q 53.21875 62.890625 53.21875 53.421875 
Q 53.21875 48.921875 51.53125 44.890625 
Q 49.859375 40.875 45.40625 35.40625 
Q 44.1875 33.984375 37.640625 27.21875 
Q 31.109375 20.453125 19.1875 8.296875 
z
" id="DejaVuSans-50"/>
      </defs>
      <g transform="translate(327.624683 303.028562)scale(0.1 -0.1)">
       <use xlink:href="#DejaVuSans-50"/>
       <use x="63.623047" xlink:href="#DejaVuSans-48"/>
       <use x="127.246094" xlink:href="#DejaVuSans-48"/>
      </g>
     </g>
    </g>
    <g id="text_6">
     <!-- Iteration (Cycle) -->
     <defs>
      <path d="M 9.8125 72.90625 
L 19.671875 72.90625 
L 19.671875 0 
L 9.8125 0 
z
" id="DejaVuSans-73"/>
      <path d="M 18.3125 70.21875 
L 18.3125 54.6875 
L 36.8125 54.6875 
L 36.8125 47.703125 
L 18.3125 47.703125 
L 18.3125 18.015625 
Q 18.3125 11.328125 20.140625 9.421875 
Q 21.96875 7.515625 27.59375 7.515625 
L 36.8125 7.515625 
L 36.8125 0 
L 27.59375 0 
Q 17.1875 0 13.234375 3.875 
Q 9.28125 7.765625 9.28125 18.015625 
L 9.28125 47.703125 
L 2.6875 47.703125 
L 2.6875 54.6875 
L 9.28125 54.6875 
L 9.28125 70.21875 
z
" id="DejaVuSans-116"/>
      <path d="M 56.203125 29.59375 
L 56.203125 25.203125 
L 14.890625 25.203125 
Q 15.484375 15.921875 20.484375 11.0625 
Q 25.484375 6.203125 34.421875 6.203125 
Q 39.59375 6.203125 44.453125 7.46875 
Q 49.3125 8.734375 54.109375 11.28125 
L 54.109375 2.78125 
Q 49.265625 0.734375 44.1875 -0.34375 
Q 39.109375 -1.421875 33.890625 -1.421875 
Q 20.796875 -1.421875 13.15625 6.1875 
Q 5.515625 13.8125 5.515625 26.8125 
Q 5.515625 40.234375 12.765625 48.109375 
Q 20.015625 56 32.328125 56 
Q 43.359375 56 49.78125 48.890625 
Q 56.203125 41.796875 56.203125 29.59375 
z
M 47.21875 32.234375 
Q 47.125 39.59375 43.09375 43.984375 
Q 39.0625 48.390625 32.421875 48.390625 
Q 24.90625 48.390625 20.390625 44.140625 
Q 15.875 39.890625 15.1875 32.171875 
z
" id="DejaVuSans-101"/>
      <path d="M 41.109375 46.296875 
Q 39.59375 47.171875 37.8125 47.578125 
Q 36.03125 48 33.890625 48 
Q 26.265625 48 22.1875 43.046875 
Q 18.109375 38.09375 18.109375 28.8125 
L 18.109375 0 
L 9.078125 0 
L 9.078125 54.6875 
L 18.109375 54.6875 
L 18.109375 46.1875 
Q 20.953125 51.171875 25.484375 53.578125 
Q 30.03125 56 36.53125 56 
Q 37.453125 56 38.578125 55.875 
Q 39.703125 55.765625 41.0625 55.515625 
z
" id="DejaVuSans-114"/>
      <path d="M 34.28125 27.484375 
Q 23.390625 27.484375 19.1875 25 
Q 14.984375 22.515625 14.984375 16.5 
Q 14.984375 11.71875 18.140625 8.90625 
Q 21.296875 6.109375 26.703125 6.109375 
Q 34.1875 6.109375 38.703125 11.40625 
Q 43.21875 16.703125 43.21875 25.484375 
L 43.21875 27.484375 
z
M 52.203125 31.203125 
L 52.203125 0 
L 43.21875 0 
L 43.21875 8.296875 
Q 40.140625 3.328125 35.546875 0.953125 
Q 30.953125 -1.421875 24.3125 -1.421875 
Q 15.921875 -1.421875 10.953125 3.296875 
Q 6 8.015625 6 15.921875 
Q 6 25.140625 12.171875 29.828125 
Q 18.359375 34.515625 30.609375 34.515625 
L 43.21875 34.515625 
L 43.21875 35.40625 
Q 43.21875 41.609375 39.140625 45 
Q 35.0625 48.390625 27.6875 48.390625 
Q 23 48.390625 18.546875 47.265625 
Q 14.109375 46.140625 10.015625 43.890625 
L 10.015625 52.203125 
Q 14.9375 54.109375 19.578125 55.046875 
Q 24.21875 56 28.609375 56 
Q 40.484375 56 46.34375 49.84375 
Q 52.203125 43.703125 52.203125 31.203125 
z
" id="DejaVuSans-97"/>
      <path d="M 9.421875 54.6875 
L 18.40625 54.6875 
L 18.40625 0 
L 9.421875 0 
z
M 9.421875 75.984375 
L 18.40625 75.984375 
L 18.40625 64.59375 
L 9.421875 64.59375 
z
" id="DejaVuSans-105"/>
      <path d="M 30.609375 48.390625 
Q 23.390625 48.390625 19.1875 42.75 
Q 14.984375 37.109375 14.984375 27.296875 
Q 14.984375 17.484375 19.15625 11.84375 
Q 23.34375 6.203125 30.609375 6.203125 
Q 37.796875 6.203125 41.984375 11.859375 
Q 46.1875 17.53125 46.1875 27.296875 
Q 46.1875 37.015625 41.984375 42.703125 
Q 37.796875 48.390625 30.609375 48.390625 
z
M 30.609375 56 
Q 42.328125 56 49.015625 48.375 
Q 55.71875 40.765625 55.71875 27.296875 
Q 55.71875 13.875 49.015625 6.21875 
Q 42.328125 -1.421875 30.609375 -1.421875 
Q 18.84375 -1.421875 12.171875 6.21875 
Q 5.515625 13.875 5.515625 27.296875 
Q 5.515625 40.765625 12.171875 48.375 
Q 18.84375 56 30.609375 56 
z
" id="DejaVuSans-111"/>
      <path d="M 54.890625 33.015625 
L 54.890625 0 
L 45.90625 0 
L 45.90625 32.71875 
Q 45.90625 40.484375 42.875 44.328125 
Q 39.84375 48.1875 33.796875 48.1875 
Q 26.515625 48.1875 22.3125 43.546875 
Q 18.109375 38.921875 18.109375 30.90625 
L 18.109375 0 
L 9.078125 0 
L 9.078125 54.6875 
L 18.109375 54.6875 
L 18.109375 46.1875 
Q 21.34375 51.125 25.703125 53.5625 
Q 30.078125 56 35.796875 56 
Q 45.21875 56 50.046875 50.171875 
Q 54.890625 44.34375 54.890625 33.015625 
z
" id="DejaVuSans-110"/>
      <path id="DejaVuSans-32"/>
      <path d="M 31 75.875 
Q 24.46875 64.65625 21.28125 53.65625 
Q 18.109375 42.671875 18.109375 31.390625 
Q 18.109375 20.125 21.3125 9.0625 
Q 24.515625 -2 31 -13.1875 
L 23.1875 -13.1875 
Q 15.875 -1.703125 12.234375 9.375 
Q 8.59375 20.453125 8.59375 31.390625 
Q 8.59375 42.28125 12.203125 53.3125 
Q 15.828125 64.359375 23.1875 75.875 
z
" id="DejaVuSans-40"/>
      <path d="M 64.40625 67.28125 
L 64.40625 56.890625 
Q 59.421875 61.53125 53.78125 63.8125 
Q 48.140625 66.109375 41.796875 66.109375 
Q 29.296875 66.109375 22.65625 58.46875 
Q 16.015625 50.828125 16.015625 36.375 
Q 16.015625 21.96875 22.65625 14.328125 
Q 29.296875 6.6875 41.796875 6.6875 
Q 48.140625 6.6875 53.78125 8.984375 
Q 59.421875 11.28125 64.40625 15.921875 
L 64.40625 5.609375 
Q 59.234375 2.09375 53.4375 0.328125 
Q 47.65625 -1.421875 41.21875 -1.421875 
Q 24.65625 -1.421875 15.125 8.703125 
Q 5.609375 18.84375 5.609375 36.375 
Q 5.609375 53.953125 15.125 64.078125 
Q 24.65625 74.21875 41.21875 74.21875 
Q 47.75 74.21875 53.53125 72.484375 
Q 59.328125 70.75 64.40625 67.28125 
z
" id="DejaVuSans-67"/>
      <path d="M 32.171875 -5.078125 
Q 28.375 -14.84375 24.75 -17.8125 
Q 21.140625 -20.796875 15.09375 -20.796875 
L 7.90625 -20.796875 
L 7.90625 -13.28125 
L 13.1875 -13.28125 
Q 16.890625 -13.28125 18.9375 -11.515625 
Q 21 -9.765625 23.484375 -3.21875 
L 25.09375 0.875 
L 2.984375 54.6875 
L 12.5 54.6875 
L 29.59375 11.921875 
L 46.6875 54.6875 
L 56.203125 54.6875 
z
" id="DejaVuSans-121"/>
      <path d="M 48.78125 52.59375 
L 48.78125 44.1875 
Q 44.96875 46.296875 41.140625 47.34375 
Q 37.3125 48.390625 33.40625 48.390625 
Q 24.65625 48.390625 19.8125 42.84375 
Q 14.984375 37.3125 14.984375 27.296875 
Q 14.984375 17.28125 19.8125 11.734375 
Q 24.65625 6.203125 33.40625 6.203125 
Q 37.3125 6.203125 41.140625 7.25 
Q 44.96875 8.296875 48.78125 10.40625 
L 48.78125 2.09375 
Q 45.015625 0.34375 40.984375 -0.53125 
Q 36.96875 -1.421875 32.421875 -1.421875 
Q 20.0625 -1.421875 12.78125 6.34375 
Q 5.515625 14.109375 5.515625 27.296875 
Q 5.515625 40.671875 12.859375 48.328125 
Q 20.21875 56 33.015625 56 
Q 37.15625 56 41.109375 55.140625 
Q 45.0625 54.296875 48.78125 52.59375 
z
" id="DejaVuSans-99"/>
      <path d="M 9.421875 75.984375 
L 18.40625 75.984375 
L 18.40625 0 
L 9.421875 0 
z
" id="DejaVuSans-108"/>
      <path d="M 8.015625 75.875 
L 15.828125 75.875 
Q 23.140625 64.359375 26.78125 53.3125 
Q 30.421875 42.28125 30.421875 31.390625 
Q 30.421875 20.453125 26.78125 9.375 
Q 23.140625 -1.703125 15.828125 -13.1875 
L 8.015625 -13.1875 
Q 14.5 -2 17.703125 9.0625 
Q 20.90625 20.125 20.90625 31.390625 
Q 20.90625 42.671875 17.703125 53.65625 
Q 14.5 64.65625 8.015625 75.875 
z
" id="DejaVuSans-41"/>
     </defs>
     <g transform="translate(185.160781 316.706687)scale(0.1 -0.1)">
      <use xlink:href="#DejaVuSans-73"/>
      <use x="29.492188" xlink:href="#DejaVuSans-116"/>
      <use x="68.701172" xlink:href="#DejaVuSans-101"/>
      <use x="130.224609" xlink:href="#DejaVuSans-114"/>
      <use x="171.337891" xlink:href="#DejaVuSans-97"/>
      <use x="232.617188" xlink:href="#DejaVuSans-116"/>
      <use x="271.826172" xlink:href="#DejaVuSans-105"/>
      <use x="299.609375" xlink:href="#DejaVuSans-111"/>
      <use x="360.791016" xlink:href="#DejaVuSans-110"/>
      <use x="424.169922" xlink:href="#DejaVuSans-32"/>
      <use x="455.957031" xlink:href="#DejaVuSans-40"/>
      <use x="494.970703" xlink:href="#DejaVuSans-67"/>
      <use x="564.794922" xlink:href="#DejaVuSans-121"/>
      <use x="623.974609" xlink:href="#DejaVuSans-99"/>
      <use x="678.955078" xlink:href="#DejaVuSans-108"/>
      <use x="706.738281" xlink:href="#DejaVuSans-101"/>
      <use x="768.261719" xlink:href="#DejaVuSans-41"/>
     </g>
    </g>
   </g>
   <g id="matplotlib.axis_2">
    <g id="ytick_1">
     <g id="line2d_6">
      <defs>
       <path d="M 0 0 
L -3.5 0 
" id="m4e04730f2c" style="stroke:#000000;stroke-width:0.8;"/>
      </defs>
      <g>
       <use style="stroke:#000000;stroke-width:0.8;" x="46.965625" xlink:href="#m4e04730f2c" y="287.057539"/>
      </g>
     </g>
     <g id="text_7">
      <!-- 0 -->
      <g transform="translate(33.603125 290.856758)scale(0.1 -0.1)">
       <use xlink:href="#DejaVuSans-48"/>
      </g>
     </g>
    </g>
    <g id="ytick_2">
     <g id="line2d_7">
      <g>
       <use style="stroke:#000000;stroke-width:0.8;" x="46.965625" xlink:href="#m4e04730f2c" y="237.363023"/>
      </g>
     </g>
     <g id="text_8">
      <!-- 100 -->
      <g transform="translate(20.878125 241.162242)scale(0.1 -0.1)">
       <use xlink:href="#DejaVuSans-49"/>
       <use x="63.623047" xlink:href="#DejaVuSans-48"/>
       <use x="127.246094" xlink:href="#DejaVuSans-48"/>
      </g>
     </g>
    </g>
    <g id="ytick_3">
     <g id="line2d_8">
      <g>
       <use style="stroke:#000000;stroke-width:0.8;" x="46.965625" xlink:href="#m4e04730f2c" y="187.668507"/>
      </g>
     </g>
     <g id="text_9">
      <!-- 200 -->
      <g transform="translate(20.878125 191.467726)scale(0.1 -0.1)">
       <use xlink:href="#DejaVuSans-50"/>
       <use x="63.623047" xlink:href="#DejaVuSans-48"/>
       <use x="127.246094" xlink:href="#DejaVuSans-48"/>
      </g>
     </g>
    </g>
    <g id="ytick_4">
     <g id="line2d_9">
      <g>
       <use style="stroke:#000000;stroke-width:0.8;" x="46.965625" xlink:href="#m4e04730f2c" y="137.973991"/>
      </g>
     </g>
     <g id="text_10">
      <!-- 300 -->
      <defs>
       <path d="M 40.578125 39.3125 
Q 47.65625 37.796875 51.625 33 
Q 55.609375 28.21875 55.609375 21.1875 
Q 55.609375 10.40625 48.1875 4.484375 
Q 40.765625 -1.421875 27.09375 -1.421875 
Q 22.515625 -1.421875 17.65625 -0.515625 
Q 12.796875 0.390625 7.625 2.203125 
L 7.625 11.71875 
Q 11.71875 9.328125 16.59375 8.109375 
Q 21.484375 6.890625 26.8125 6.890625 
Q 36.078125 6.890625 40.9375 10.546875 
Q 45.796875 14.203125 45.796875 21.1875 
Q 45.796875 27.640625 41.28125 31.265625 
Q 36.765625 34.90625 28.71875 34.90625 
L 20.21875 34.90625 
L 20.21875 43.015625 
L 29.109375 43.015625 
Q 36.375 43.015625 40.234375 45.921875 
Q 44.09375 48.828125 44.09375 54.296875 
Q 44.09375 59.90625 40.109375 62.90625 
Q 36.140625 65.921875 28.71875 65.921875 
Q 24.65625 65.921875 20.015625 65.03125 
Q 15.375 64.15625 9.8125 62.3125 
L 9.8125 71.09375 
Q 15.4375 72.65625 20.34375 73.4375 
Q 25.25 74.21875 29.59375 74.21875 
Q 40.828125 74.21875 47.359375 69.109375 
Q 53.90625 64.015625 53.90625 55.328125 
Q 53.90625 49.265625 50.4375 45.09375 
Q 46.96875 40.921875 40.578125 39.3125 
z
" id="DejaVuSans-51"/>
      </defs>
      <g transform="translate(20.878125 141.773209)scale(0.1 -0.1)">
       <use xlink:href="#DejaVuSans-51"/>
       <use x="63.623047" xlink:href="#DejaVuSans-48"/>
       <use x="127.246094" xlink:href="#DejaVuSans-48"/>
      </g>
     </g>
    </g>
    <g id="ytick_5">
     <g id="line2d_10">
      <g>
       <use style="stroke:#000000;stroke-width:0.8;" x="46.965625" xlink:href="#m4e04730f2c" y="88.279475"/>
      </g>
     </g>
     <g id="text_11">
      <!-- 400 -->
      <defs>
       <path d="M 37.796875 64.3125 
L 12.890625 25.390625 
L 37.796875 25.390625 
z
M 35.203125 72.90625 
L 47.609375 72.90625 
L 47.609375 25.390625 
L 58.015625 25.390625 
L 58.015625 17.1875 
L 47.609375 17.1875 
L 47.609375 0 
L 37.796875 0 
L 37.796875 17.1875 
L 4.890625 17.1875 
L 4.890625 26.703125 
z
" id="DejaVuSans-52"/>
      </defs>
      <g transform="translate(20.878125 92.078693)scale(0.1 -0.1)">
       <use xlink:href="#DejaVuSans-52"/>
       <use x="63.623047" xlink:href="#DejaVuSans-48"/>
       <use x="127.246094" xlink:href="#DejaVuSans-48"/>
      </g>
     </g>
    </g>
    <g id="ytick_6">
     <g id="line2d_11">
      <g>
       <use style="stroke:#000000;stroke-width:0.8;" x="46.965625" xlink:href="#m4e04730f2c" y="38.584959"/>
      </g>
     </g>
     <g id="text_12">
      <!-- 500 -->
      <g transform="translate(20.878125 42.384177)scale(0.1 -0.1)">
       <use xlink:href="#DejaVuSans-53"/>
       <use x="63.623047" xlink:href="#DejaVuSans-48"/>
       <use x="127.246094" xlink:href="#DejaVuSans-48"/>
      </g>
     </g>
    </g>
    <g id="text_13">
     <!-- Mean Episode Reward -->
     <defs>
      <path d="M 9.8125 72.90625 
L 24.515625 72.90625 
L 43.109375 23.296875 
L 61.8125 72.90625 
L 76.515625 72.90625 
L 76.515625 0 
L 66.890625 0 
L 66.890625 64.015625 
L 48.09375 14.015625 
L 38.1875 14.015625 
L 19.390625 64.015625 
L 19.390625 0 
L 9.8125 0 
z
" id="DejaVuSans-77"/>
      <path d="M 9.8125 72.90625 
L 55.90625 72.90625 
L 55.90625 64.59375 
L 19.671875 64.59375 
L 19.671875 43.015625 
L 54.390625 43.015625 
L 54.390625 34.71875 
L 19.671875 34.71875 
L 19.671875 8.296875 
L 56.78125 8.296875 
L 56.78125 0 
L 9.8125 0 
z
" id="DejaVuSans-69"/>
      <path d="M 18.109375 8.203125 
L 18.109375 -20.796875 
L 9.078125 -20.796875 
L 9.078125 54.6875 
L 18.109375 54.6875 
L 18.109375 46.390625 
Q 20.953125 51.265625 25.265625 53.625 
Q 29.59375 56 35.59375 56 
Q 45.5625 56 51.78125 48.09375 
Q 58.015625 40.1875 58.015625 27.296875 
Q 58.015625 14.40625 51.78125 6.484375 
Q 45.5625 -1.421875 35.59375 -1.421875 
Q 29.59375 -1.421875 25.265625 0.953125 
Q 20.953125 3.328125 18.109375 8.203125 
z
M 48.6875 27.296875 
Q 48.6875 37.203125 44.609375 42.84375 
Q 40.53125 48.484375 33.40625 48.484375 
Q 26.265625 48.484375 22.1875 42.84375 
Q 18.109375 37.203125 18.109375 27.296875 
Q 18.109375 17.390625 22.1875 11.75 
Q 26.265625 6.109375 33.40625 6.109375 
Q 40.53125 6.109375 44.609375 11.75 
Q 48.6875 17.390625 48.6875 27.296875 
z
" id="DejaVuSans-112"/>
      <path d="M 44.28125 53.078125 
L 44.28125 44.578125 
Q 40.484375 46.53125 36.375 47.5 
Q 32.28125 48.484375 27.875 48.484375 
Q 21.1875 48.484375 17.84375 46.4375 
Q 14.5 44.390625 14.5 40.28125 
Q 14.5 37.15625 16.890625 35.375 
Q 19.28125 33.59375 26.515625 31.984375 
L 29.59375 31.296875 
Q 39.15625 29.25 43.1875 25.515625 
Q 47.21875 21.78125 47.21875 15.09375 
Q 47.21875 7.46875 41.1875 3.015625 
Q 35.15625 -1.421875 24.609375 -1.421875 
Q 20.21875 -1.421875 15.453125 -0.5625 
Q 10.6875 0.296875 5.421875 2 
L 5.421875 11.28125 
Q 10.40625 8.6875 15.234375 7.390625 
Q 20.0625 6.109375 24.8125 6.109375 
Q 31.15625 6.109375 34.5625 8.28125 
Q 37.984375 10.453125 37.984375 14.40625 
Q 37.984375 18.0625 35.515625 20.015625 
Q 33.0625 21.96875 24.703125 23.78125 
L 21.578125 24.515625 
Q 13.234375 26.265625 9.515625 29.90625 
Q 5.8125 33.546875 5.8125 39.890625 
Q 5.8125 47.609375 11.28125 51.796875 
Q 16.75 56 26.8125 56 
Q 31.78125 56 36.171875 55.265625 
Q 40.578125 54.546875 44.28125 53.078125 
z
" id="DejaVuSans-115"/>
      <path d="M 45.40625 46.390625 
L 45.40625 75.984375 
L 54.390625 75.984375 
L 54.390625 0 
L 45.40625 0 
L 45.40625 8.203125 
Q 42.578125 3.328125 38.25 0.953125 
Q 33.9375 -1.421875 27.875 -1.421875 
Q 17.96875 -1.421875 11.734375 6.484375 
Q 5.515625 14.40625 5.515625 27.296875 
Q 5.515625 40.1875 11.734375 48.09375 
Q 17.96875 56 27.875 56 
Q 33.9375 56 38.25 53.625 
Q 42.578125 51.265625 45.40625 46.390625 
z
M 14.796875 27.296875 
Q 14.796875 17.390625 18.875 11.75 
Q 22.953125 6.109375 30.078125 6.109375 
Q 37.203125 6.109375 41.296875 11.75 
Q 45.40625 17.390625 45.40625 27.296875 
Q 45.40625 37.203125 41.296875 42.84375 
Q 37.203125 48.484375 30.078125 48.484375 
Q 22.953125 48.484375 18.875 42.84375 
Q 14.796875 37.203125 14.796875 27.296875 
z
" id="DejaVuSans-100"/>
      <path d="M 44.390625 34.1875 
Q 47.5625 33.109375 50.5625 29.59375 
Q 53.5625 26.078125 56.59375 19.921875 
L 66.609375 0 
L 56 0 
L 46.6875 18.703125 
Q 43.0625 26.03125 39.671875 28.421875 
Q 36.28125 30.8125 30.421875 30.8125 
L 19.671875 30.8125 
L 19.671875 0 
L 9.8125 0 
L 9.8125 72.90625 
L 32.078125 72.90625 
Q 44.578125 72.90625 50.734375 67.671875 
Q 56.890625 62.453125 56.890625 51.90625 
Q 56.890625 45.015625 53.6875 40.46875 
Q 50.484375 35.9375 44.390625 34.1875 
z
M 19.671875 64.796875 
L 19.671875 38.921875 
L 32.078125 38.921875 
Q 39.203125 38.921875 42.84375 42.21875 
Q 46.484375 45.515625 46.484375 51.90625 
Q 46.484375 58.296875 42.84375 61.546875 
Q 39.203125 64.796875 32.078125 64.796875 
z
" id="DejaVuSans-82"/>
      <path d="M 4.203125 54.6875 
L 13.1875 54.6875 
L 24.421875 12.015625 
L 35.59375 54.6875 
L 46.1875 54.6875 
L 57.421875 12.015625 
L 68.609375 54.6875 
L 77.59375 54.6875 
L 63.28125 0 
L 52.6875 0 
L 40.921875 44.828125 
L 29.109375 0 
L 18.5 0 
z
" id="DejaVuSans-119"/>
     </defs>
     <g transform="translate(14.798438 210.742875)rotate(-90)scale(0.1 -0.1)">
      <use xlink:href="#DejaVuSans-77"/>
      <use x="86.279297" xlink:href="#DejaVuSans-101"/>
      <use x="147.802734" xlink:href="#DejaVuSans-97"/>
      <use x="209.082031" xlink:href="#DejaVuSans-110"/>
      <use x="272.460938" xlink:href="#DejaVuSans-32"/>
      <use x="304.248047" xlink:href="#DejaVuSans-69"/>
      <use x="367.431641" xlink:href="#DejaVuSans-112"/>
      <use x="430.908203" xlink:href="#DejaVuSans-105"/>
      <use x="458.691406" xlink:href="#DejaVuSans-115"/>
      <use x="510.791016" xlink:href="#DejaVuSans-111"/>
      <use x="571.972656" xlink:href="#DejaVuSans-100"/>
      <use x="635.449219" xlink:href="#DejaVuSans-101"/>
      <use x="696.972656" xlink:href="#DejaVuSans-32"/>
      <use x="728.759766" xlink:href="#DejaVuSans-82"/>
      <use x="798.179688" xlink:href="#DejaVuSans-101"/>
      <use x="859.703125" xlink:href="#DejaVuSans-119"/>
      <use x="941.490234" xlink:href="#DejaVuSans-97"/>
      <use x="1002.769531" xlink:href="#DejaVuSans-114"/>
      <use x="1043.867188" xlink:href="#DejaVuSans-100"/>
     </g>
    </g>
   </g>
   <g id="line2d_12">
    <path clip-path="url(#p02331d618c)" d="M 63.198352 272.350381 
L 64.568203 276.325914 
L 65.938053 271.701067 
L 67.307903 260.251027 
L 68.677754 243.750979 
L 70.047604 223.976107 
L 71.417455 200.519542 
L 72.787305 185.585624 
L 75.527006 158.419607 
L 76.896856 143.98113 
L 78.266707 127.822846 
L 81.006408 97.711856 
L 82.376258 75.603424 
L 83.746108 58.433624 
L 85.115959 52.439289 
L 87.85566 82.593333 
L 91.965211 141.446519 
L 93.335061 157.898147 
L 94.704912 166.371602 
L 96.074762 166.41726 
L 97.444612 164.925565 
L 98.814463 160.098641 
L 100.184313 159.316632 
L 101.554164 154.220031 
L 102.924014 151.886513 
L 104.293864 144.100255 
L 105.663715 138.727195 
L 107.033565 136.565678 
L 108.403416 138.387112 
L 109.773266 139.421076 
L 111.143116 139.164016 
L 112.512967 138.46032 
L 113.882817 143.413555 
L 115.252668 149.49158 
L 116.622518 146.477125 
L 117.992368 131.756791 
L 120.732069 93.330764 
L 123.47177 62.896099 
L 124.84162 59.797196 
L 126.211471 60.808436 
L 127.581321 64.673247 
L 128.951172 70.467525 
L 130.321022 69.022513 
L 131.690872 62.318102 
L 133.060723 52.593584 
L 134.430573 43.951002 
L 135.800424 37.854838 
L 137.170274 34.414125 
L 138.540124 37.508823 
L 139.909975 38.594081 
L 142.649676 38.584959 
L 146.759227 38.584959 
L 148.129077 38.439003 
L 150.868778 38.763349 
L 152.238628 38.06195 
L 153.608479 38.750897 
L 154.978329 38.428288 
L 159.08788 43.778195 
L 160.457731 47.399581 
L 161.827581 53.371675 
L 163.197432 56.648277 
L 164.567282 62.436069 
L 167.306983 68.814133 
L 168.676833 79.524233 
L 170.046684 87.6888 
L 171.416534 94.16042 
L 172.786384 96.873164 
L 174.156235 100.917993 
L 175.526085 100.5491 
L 176.895936 96.394818 
L 178.265786 92.597976 
L 179.635637 84.843708 
L 181.005487 82.504836 
L 182.375337 89.500496 
L 183.745188 89.891813 
L 185.115038 93.190357 
L 186.484889 93.828523 
L 187.854739 98.580939 
L 189.224589 103.888186 
L 190.59444 112.416554 
L 191.96429 119.274775 
L 193.334141 120.623455 
L 194.703991 122.589716 
L 196.073841 119.224292 
L 197.443692 109.452218 
L 198.813542 104.393217 
L 201.553243 85.977682 
L 202.923093 81.483551 
L 204.292944 78.379327 
L 205.662794 81.405816 
L 207.032645 77.872691 
L 208.402495 81.521485 
L 209.772345 81.017435 
L 211.142196 79.050606 
L 212.512046 78.811748 
L 213.881897 75.649543 
L 216.621597 60.677202 
L 217.991448 55.528869 
L 219.361298 54.424651 
L 220.731149 50.049883 
L 222.100999 51.376011 
L 223.470849 51.109149 
L 224.8407 49.373317 
L 226.21055 46.13796 
L 228.950251 45.317031 
L 230.320101 43.906268 
L 231.689952 44.750003 
L 233.059802 43.713615 
L 235.799503 40.245497 
L 237.169353 42.378075 
L 238.539204 41.904008 
L 239.909054 41.204201 
L 241.278905 43.236507 
L 242.648755 46.221436 
L 244.018605 46.438922 
L 245.388456 46.877224 
L 246.758306 45.904619 
L 248.128157 45.633703 
L 249.498007 45.801885 
L 250.867857 45.848582 
L 253.607558 44.288606 
L 254.977409 44.943525 
L 257.717109 43.53298 
L 259.08696 42.578909 
L 260.45681 43.051383 
L 261.826661 43.765453 
L 263.196511 44.854837 
L 264.566361 45.127491 
L 265.936212 46.24359 
L 268.675913 44.874312 
L 272.785464 41.761961 
L 274.155314 42.361423 
L 275.525165 40.62559 
L 276.895015 42.183539 
L 278.264866 42.976885 
L 279.634716 43.467242 
L 281.004566 43.69233 
L 282.374417 42.864739 
L 283.744267 42.368446 
L 285.114118 41.601236 
L 286.483968 41.040218 
L 287.853818 41.519426 
L 289.223669 42.318056 
L 290.593519 44.685134 
L 291.96337 45.805867 
L 293.33322 46.687395 
L 294.70307 46.909442 
L 296.072921 46.85174 
L 297.442771 46.203264 
L 298.812622 43.645343 
L 300.182472 42.24001 
L 302.922173 43.31477 
L 304.292023 43.306951 
L 305.661874 44.083066 
L 308.401574 43.290806 
L 309.771425 43.566863 
L 311.141275 43.112126 
L 312.511126 42.139738 
L 313.880976 41.773835 
L 315.250826 43.018949 
L 316.620677 43.043854 
L 319.360378 43.841616 
L 320.730228 44.437096 
L 322.100078 43.875716 
L 323.469929 44.358037 
L 324.839779 46.007715 
L 326.20963 47.062131 
L 327.57948 47.114041 
L 328.94933 52.771353 
L 330.319181 54.117101 
L 331.689031 56.805195 
L 333.058882 56.729321 
L 334.428732 55.737965 
L 337.168433 49.556268 
L 339.908134 45.757505 
L 341.277984 45.20112 
L 342.647834 48.284584 
L 344.017685 47.032737 
L 345.387535 49.587979 
L 346.757386 50.126626 
L 348.127236 50.974995 
L 349.497086 51.07143 
L 350.866937 50.7995 
L 352.236787 50.948352 
L 353.606638 50.705092 
L 354.976488 49.899294 
L 356.346338 48.346485 
L 357.716189 46.571548 
L 359.086039 49.504541 
L 360.45589 50.721931 
L 361.82574 52.18109 
L 363.19559 52.453301 
L 364.565441 53.967542 
L 365.935291 53.850163 
L 367.305142 51.471799 
L 368.674992 50.153094 
L 370.044842 49.773213 
L 371.414693 50.863926 
L 372.784543 51.494166 
L 375.524244 53.233691 
L 376.894095 52.245159 
L 378.263945 51.961138 
L 379.633795 51.462383 
L 381.003646 48.899901 
L 382.373496 48.504748 
L 383.743347 47.937975 
L 385.113197 46.879541 
L 386.483047 45.009408 
L 387.852898 42.007538 
L 387.852898 42.007538 
" style="fill:none;stroke:#ff0000;stroke-linecap:square;stroke-width:1.5;"/>
   </g>
   <g id="line2d_13">
    <path clip-path="url(#p02331d618c)" d="M 46.965625 51.008588 
L 404.085625 51.008588 
" style="fill:none;stroke:#008000;stroke-dasharray:3.7,1.6;stroke-dashoffset:0;"/>
   </g>
   <g id="patch_3">
    <path d="M 46.965625 288.430125 
L 46.965625 22.318125 
" style="fill:none;stroke:#000000;stroke-linecap:square;stroke-linejoin:miter;stroke-width:0.8;"/>
   </g>
   <g id="patch_4">
    <path d="M 404.085625 288.430125 
L 404.085625 22.318125 
" style="fill:none;stroke:#000000;stroke-linecap:square;stroke-linejoin:miter;stroke-width:0.8;"/>
   </g>
   <g id="patch_5">
    <path d="M 46.965625 288.430125 
L 404.085625 288.430125 
" style="fill:none;stroke:#000000;stroke-linecap:square;stroke-linejoin:miter;stroke-width:0.8;"/>
   </g>
   <g id="patch_6">
    <path d="M 46.965625 22.318125 
L 404.085625 22.318125 
" style="fill:none;stroke:#000000;stroke-linecap:square;stroke-linejoin:miter;stroke-width:0.8;"/>
   </g>
   <g id="text_14">
    <!-- Mean Rewards and Episode Lengths. -->
    <defs>
     <path d="M 9.1875 72.90625 
L 33.109375 72.90625 
L 49.703125 33.890625 
L 66.40625 72.90625 
L 90.28125 72.90625 
L 90.28125 0 
L 72.515625 0 
L 72.515625 53.328125 
L 55.71875 14.015625 
L 43.796875 14.015625 
L 27 53.328125 
L 27 0 
L 9.1875 0 
z
" id="DejaVuSans-Bold-77"/>
     <path d="M 62.984375 27.484375 
L 62.984375 22.515625 
L 22.125 22.515625 
Q 22.75 16.359375 26.5625 13.28125 
Q 30.375 10.203125 37.203125 10.203125 
Q 42.71875 10.203125 48.5 11.84375 
Q 54.296875 13.484375 60.40625 16.796875 
L 60.40625 3.328125 
Q 54.203125 0.984375 48 -0.21875 
Q 41.796875 -1.421875 35.59375 -1.421875 
Q 20.75 -1.421875 12.515625 6.125 
Q 4.296875 13.671875 4.296875 27.296875 
Q 4.296875 40.671875 12.375 48.328125 
Q 20.453125 56 34.625 56 
Q 47.515625 56 55.25 48.234375 
Q 62.984375 40.484375 62.984375 27.484375 
z
M 45.015625 33.296875 
Q 45.015625 38.28125 42.109375 41.328125 
Q 39.203125 44.390625 34.515625 44.390625 
Q 29.4375 44.390625 26.265625 41.53125 
Q 23.09375 38.671875 22.3125 33.296875 
z
" id="DejaVuSans-Bold-101"/>
     <path d="M 32.90625 24.609375 
Q 27.4375 24.609375 24.671875 22.75 
Q 21.921875 20.90625 21.921875 17.28125 
Q 21.921875 13.96875 24.140625 12.078125 
Q 26.375 10.203125 30.328125 10.203125 
Q 35.25 10.203125 38.625 13.734375 
Q 42 17.28125 42 22.609375 
L 42 24.609375 
z
M 59.625 31.203125 
L 59.625 0 
L 42 0 
L 42 8.109375 
Q 38.484375 3.125 34.078125 0.84375 
Q 29.6875 -1.421875 23.390625 -1.421875 
Q 14.890625 -1.421875 9.59375 3.53125 
Q 4.296875 8.5 4.296875 16.40625 
Q 4.296875 26.03125 10.90625 30.515625 
Q 17.53125 35.015625 31.6875 35.015625 
L 42 35.015625 
L 42 36.375 
Q 42 40.53125 38.71875 42.453125 
Q 35.453125 44.390625 28.515625 44.390625 
Q 22.90625 44.390625 18.0625 43.265625 
Q 13.234375 42.140625 9.078125 39.890625 
L 9.078125 53.21875 
Q 14.703125 54.59375 20.359375 55.296875 
Q 26.03125 56 31.6875 56 
Q 46.484375 56 53.046875 50.171875 
Q 59.625 44.34375 59.625 31.203125 
z
" id="DejaVuSans-Bold-97"/>
     <path d="M 63.375 33.296875 
L 63.375 0 
L 45.796875 0 
L 45.796875 5.421875 
L 45.796875 25.484375 
Q 45.796875 32.5625 45.484375 35.25 
Q 45.171875 37.9375 44.390625 39.203125 
Q 43.359375 40.921875 41.59375 41.875 
Q 39.84375 42.828125 37.59375 42.828125 
Q 32.125 42.828125 29 38.59375 
Q 25.875 34.375 25.875 26.90625 
L 25.875 0 
L 8.40625 0 
L 8.40625 54.6875 
L 25.875 54.6875 
L 25.875 46.6875 
Q 29.828125 51.46875 34.265625 53.734375 
Q 38.71875 56 44.09375 56 
Q 53.5625 56 58.46875 50.1875 
Q 63.375 44.390625 63.375 33.296875 
z
" id="DejaVuSans-Bold-110"/>
     <path id="DejaVuSans-Bold-32"/>
     <path d="M 35.890625 40.578125 
Q 41.796875 40.578125 44.359375 42.765625 
Q 46.921875 44.96875 46.921875 50 
Q 46.921875 54.984375 44.359375 57.125 
Q 41.796875 59.28125 35.890625 59.28125 
L 27.984375 59.28125 
L 27.984375 40.578125 
z
M 27.984375 27.59375 
L 27.984375 0 
L 9.1875 0 
L 9.1875 72.90625 
L 37.890625 72.90625 
Q 52.296875 72.90625 59 68.0625 
Q 65.71875 63.234375 65.71875 52.78125 
Q 65.71875 45.5625 62.21875 40.921875 
Q 58.734375 36.28125 51.703125 34.078125 
Q 55.5625 33.203125 58.609375 30.09375 
Q 61.671875 27 64.796875 20.703125 
L 75 0 
L 54.984375 0 
L 46.09375 18.109375 
Q 43.40625 23.578125 40.640625 25.578125 
Q 37.890625 27.59375 33.296875 27.59375 
z
" id="DejaVuSans-Bold-82"/>
     <path d="M 3.515625 54.6875 
L 20.515625 54.6875 
L 29.6875 17 
L 38.921875 54.6875 
L 53.515625 54.6875 
L 62.703125 17.390625 
L 71.921875 54.6875 
L 88.921875 54.6875 
L 74.515625 0 
L 55.421875 0 
L 46.1875 37.59375 
L 37.015625 0 
L 17.921875 0 
z
" id="DejaVuSans-Bold-119"/>
     <path d="M 49.03125 39.796875 
Q 46.734375 40.875 44.453125 41.375 
Q 42.1875 41.890625 39.890625 41.890625 
Q 33.15625 41.890625 29.515625 37.5625 
Q 25.875 33.25 25.875 25.203125 
L 25.875 0 
L 8.40625 0 
L 8.40625 54.6875 
L 25.875 54.6875 
L 25.875 45.703125 
Q 29.25 51.078125 33.609375 53.53125 
Q 37.984375 56 44.09375 56 
Q 44.96875 56 45.984375 55.921875 
Q 47.015625 55.859375 48.96875 55.609375 
z
" id="DejaVuSans-Bold-114"/>
     <path d="M 45.609375 46.6875 
L 45.609375 75.984375 
L 63.1875 75.984375 
L 63.1875 0 
L 45.609375 0 
L 45.609375 7.90625 
Q 42 3.078125 37.640625 0.828125 
Q 33.296875 -1.421875 27.59375 -1.421875 
Q 17.484375 -1.421875 10.984375 6.609375 
Q 4.5 14.65625 4.5 27.296875 
Q 4.5 39.9375 10.984375 47.96875 
Q 17.484375 56 27.59375 56 
Q 33.25 56 37.625 53.734375 
Q 42 51.46875 45.609375 46.6875 
z
M 34.078125 11.28125 
Q 39.703125 11.28125 42.65625 15.375 
Q 45.609375 19.484375 45.609375 27.296875 
Q 45.609375 35.109375 42.65625 39.203125 
Q 39.703125 43.3125 34.078125 43.3125 
Q 28.515625 43.3125 25.5625 39.203125 
Q 22.609375 35.109375 22.609375 27.296875 
Q 22.609375 19.484375 25.5625 15.375 
Q 28.515625 11.28125 34.078125 11.28125 
z
" id="DejaVuSans-Bold-100"/>
     <path d="M 51.125 52.984375 
L 51.125 39.703125 
Q 45.515625 42.046875 40.28125 43.21875 
Q 35.0625 44.390625 30.421875 44.390625 
Q 25.4375 44.390625 23.015625 43.140625 
Q 20.609375 41.890625 20.609375 39.3125 
Q 20.609375 37.203125 22.4375 36.078125 
Q 24.265625 34.96875 29 34.421875 
L 32.078125 33.984375 
Q 45.515625 32.28125 50.140625 28.375 
Q 54.78125 24.46875 54.78125 16.109375 
Q 54.78125 7.375 48.328125 2.96875 
Q 41.890625 -1.421875 29.109375 -1.421875 
Q 23.6875 -1.421875 17.890625 -0.5625 
Q 12.109375 0.296875 6 2 
L 6 15.28125 
Q 11.234375 12.75 16.71875 11.46875 
Q 22.21875 10.203125 27.875 10.203125 
Q 33.015625 10.203125 35.59375 11.609375 
Q 38.1875 13.03125 38.1875 15.828125 
Q 38.1875 18.171875 36.40625 19.3125 
Q 34.625 20.453125 29.296875 21.09375 
L 26.21875 21.484375 
Q 14.546875 22.953125 9.859375 26.90625 
Q 5.171875 30.859375 5.171875 38.921875 
Q 5.171875 47.609375 11.125 51.796875 
Q 17.09375 56 29.390625 56 
Q 34.234375 56 39.546875 55.265625 
Q 44.875 54.546875 51.125 52.984375 
z
" id="DejaVuSans-Bold-115"/>
     <path d="M 9.1875 72.90625 
L 59.90625 72.90625 
L 59.90625 58.6875 
L 27.984375 58.6875 
L 27.984375 45.125 
L 58.015625 45.125 
L 58.015625 30.90625 
L 27.984375 30.90625 
L 27.984375 14.203125 
L 60.984375 14.203125 
L 60.984375 0 
L 9.1875 0 
z
" id="DejaVuSans-Bold-69"/>
     <path d="M 25.875 7.90625 
L 25.875 -20.796875 
L 8.40625 -20.796875 
L 8.40625 54.6875 
L 25.875 54.6875 
L 25.875 46.6875 
Q 29.5 51.46875 33.890625 53.734375 
Q 38.28125 56 44 56 
Q 54.109375 56 60.59375 47.96875 
Q 67.09375 39.9375 67.09375 27.296875 
Q 67.09375 14.65625 60.59375 6.609375 
Q 54.109375 -1.421875 44 -1.421875 
Q 38.28125 -1.421875 33.890625 0.84375 
Q 29.5 3.125 25.875 7.90625 
z
M 37.5 43.3125 
Q 31.890625 43.3125 28.875 39.1875 
Q 25.875 35.0625 25.875 27.296875 
Q 25.875 19.53125 28.875 15.40625 
Q 31.890625 11.28125 37.5 11.28125 
Q 43.109375 11.28125 46.0625 15.375 
Q 49.03125 19.484375 49.03125 27.296875 
Q 49.03125 35.109375 46.0625 39.203125 
Q 43.109375 43.3125 37.5 43.3125 
z
" id="DejaVuSans-Bold-112"/>
     <path d="M 8.40625 54.6875 
L 25.875 54.6875 
L 25.875 0 
L 8.40625 0 
z
M 8.40625 75.984375 
L 25.875 75.984375 
L 25.875 61.71875 
L 8.40625 61.71875 
z
" id="DejaVuSans-Bold-105"/>
     <path d="M 34.421875 43.5 
Q 28.609375 43.5 25.5625 39.328125 
Q 22.515625 35.15625 22.515625 27.296875 
Q 22.515625 19.4375 25.5625 15.25 
Q 28.609375 11.078125 34.421875 11.078125 
Q 40.140625 11.078125 43.15625 15.25 
Q 46.1875 19.4375 46.1875 27.296875 
Q 46.1875 35.15625 43.15625 39.328125 
Q 40.140625 43.5 34.421875 43.5 
z
M 34.421875 56 
Q 48.53125 56 56.46875 48.375 
Q 64.40625 40.765625 64.40625 27.296875 
Q 64.40625 13.8125 56.46875 6.1875 
Q 48.53125 -1.421875 34.421875 -1.421875 
Q 20.265625 -1.421875 12.28125 6.1875 
Q 4.296875 13.8125 4.296875 27.296875 
Q 4.296875 40.765625 12.28125 48.375 
Q 20.265625 56 34.421875 56 
z
" id="DejaVuSans-Bold-111"/>
     <path d="M 9.1875 72.90625 
L 27.984375 72.90625 
L 27.984375 14.203125 
L 60.984375 14.203125 
L 60.984375 0 
L 9.1875 0 
z
" id="DejaVuSans-Bold-76"/>
     <path d="M 45.609375 9.28125 
Q 42 4.5 37.640625 2.25 
Q 33.296875 0 27.59375 0 
Q 17.578125 0 11.03125 7.875 
Q 4.5 15.765625 4.5 27.984375 
Q 4.5 40.234375 11.03125 48.0625 
Q 17.578125 55.90625 27.59375 55.90625 
Q 33.296875 55.90625 37.640625 53.65625 
Q 42 51.421875 45.609375 46.578125 
L 45.609375 54.6875 
L 63.1875 54.6875 
L 63.1875 5.515625 
Q 63.1875 -7.671875 54.859375 -14.625 
Q 46.53125 -21.578125 30.71875 -21.578125 
Q 25.59375 -21.578125 20.796875 -20.796875 
Q 16.015625 -20.015625 11.1875 -18.40625 
L 11.1875 -4.78125 
Q 15.765625 -7.421875 20.15625 -8.71875 
Q 24.5625 -10.015625 29 -10.015625 
Q 37.59375 -10.015625 41.59375 -6.25 
Q 45.609375 -2.484375 45.609375 5.515625 
z
M 34.078125 43.3125 
Q 28.65625 43.3125 25.625 39.296875 
Q 22.609375 35.296875 22.609375 27.984375 
Q 22.609375 20.453125 25.53125 16.578125 
Q 28.46875 12.703125 34.078125 12.703125 
Q 39.546875 12.703125 42.578125 16.703125 
Q 45.609375 20.703125 45.609375 27.984375 
Q 45.609375 35.296875 42.578125 39.296875 
Q 39.546875 43.3125 34.078125 43.3125 
z
" id="DejaVuSans-Bold-103"/>
     <path d="M 27.484375 70.21875 
L 27.484375 54.6875 
L 45.515625 54.6875 
L 45.515625 42.1875 
L 27.484375 42.1875 
L 27.484375 19 
Q 27.484375 15.1875 29 13.84375 
Q 30.515625 12.5 35.015625 12.5 
L 44 12.5 
L 44 0 
L 29 0 
Q 18.65625 0 14.328125 4.3125 
Q 10.015625 8.640625 10.015625 19 
L 10.015625 42.1875 
L 1.3125 42.1875 
L 1.3125 54.6875 
L 10.015625 54.6875 
L 10.015625 70.21875 
z
" id="DejaVuSans-Bold-116"/>
     <path d="M 63.375 33.296875 
L 63.375 0 
L 45.796875 0 
L 45.796875 5.421875 
L 45.796875 25.390625 
Q 45.796875 32.5625 45.484375 35.25 
Q 45.171875 37.9375 44.390625 39.203125 
Q 43.359375 40.921875 41.59375 41.875 
Q 39.84375 42.828125 37.59375 42.828125 
Q 32.125 42.828125 29 38.59375 
Q 25.875 34.375 25.875 26.90625 
L 25.875 0 
L 8.40625 0 
L 8.40625 75.984375 
L 25.875 75.984375 
L 25.875 46.6875 
Q 29.828125 51.46875 34.265625 53.734375 
Q 38.71875 56 44.09375 56 
Q 53.5625 56 58.46875 50.1875 
Q 63.375 44.390625 63.375 33.296875 
z
" id="DejaVuSans-Bold-104"/>
     <path d="M 10.203125 18.890625 
L 27.78125 18.890625 
L 27.78125 0 
L 10.203125 0 
z
" id="DejaVuSans-Bold-46"/>
    </defs>
    <g transform="translate(101.1325 16.318125)scale(0.12 -0.12)">
     <use xlink:href="#DejaVuSans-Bold-77"/>
     <use x="99.511719" xlink:href="#DejaVuSans-Bold-101"/>
     <use x="167.333984" xlink:href="#DejaVuSans-Bold-97"/>
     <use x="234.814453" xlink:href="#DejaVuSans-Bold-110"/>
     <use x="306.005859" xlink:href="#DejaVuSans-Bold-32"/>
     <use x="340.820312" xlink:href="#DejaVuSans-Bold-82"/>
     <use x="417.822266" xlink:href="#DejaVuSans-Bold-101"/>
     <use x="485.644531" xlink:href="#DejaVuSans-Bold-119"/>
     <use x="578.027344" xlink:href="#DejaVuSans-Bold-97"/>
     <use x="645.507812" xlink:href="#DejaVuSans-Bold-114"/>
     <use x="694.824219" xlink:href="#DejaVuSans-Bold-100"/>
     <use x="766.40625" xlink:href="#DejaVuSans-Bold-115"/>
     <use x="825.927734" xlink:href="#DejaVuSans-Bold-32"/>
     <use x="860.742188" xlink:href="#DejaVuSans-Bold-97"/>
     <use x="928.222656" xlink:href="#DejaVuSans-Bold-110"/>
     <use x="999.414062" xlink:href="#DejaVuSans-Bold-100"/>
     <use x="1070.996094" xlink:href="#DejaVuSans-Bold-32"/>
     <use x="1105.810547" xlink:href="#DejaVuSans-Bold-69"/>
     <use x="1174.121094" xlink:href="#DejaVuSans-Bold-112"/>
     <use x="1245.703125" xlink:href="#DejaVuSans-Bold-105"/>
     <use x="1279.980469" xlink:href="#DejaVuSans-Bold-115"/>
     <use x="1339.501953" xlink:href="#DejaVuSans-Bold-111"/>
     <use x="1408.203125" xlink:href="#DejaVuSans-Bold-100"/>
     <use x="1479.785156" xlink:href="#DejaVuSans-Bold-101"/>
     <use x="1547.607422" xlink:href="#DejaVuSans-Bold-32"/>
     <use x="1582.421875" xlink:href="#DejaVuSans-Bold-76"/>
     <use x="1646.142578" xlink:href="#DejaVuSans-Bold-101"/>
     <use x="1713.964844" xlink:href="#DejaVuSans-Bold-110"/>
     <use x="1785.15625" xlink:href="#DejaVuSans-Bold-103"/>
     <use x="1856.738281" xlink:href="#DejaVuSans-Bold-116"/>
     <use x="1904.541016" xlink:href="#DejaVuSans-Bold-104"/>
     <use x="1975.732422" xlink:href="#DejaVuSans-Bold-115"/>
     <use x="2035.253906" xlink:href="#DejaVuSans-Bold-46"/>
    </g>
   </g>
   <g id="legend_1">
    <g id="patch_7">
     <path d="M 107.624063 353.02505 
L 347.427188 353.02505 
Q 349.427188 353.02505 349.427188 351.02505 
L 349.427188 337.346925 
Q 349.427188 335.346925 347.427188 335.346925 
L 107.624063 335.346925 
Q 105.624063 335.346925 105.624063 337.346925 
L 105.624063 351.02505 
Q 105.624063 353.02505 107.624063 353.02505 
z
" style="fill:#4c4c4c;opacity:0.5;stroke:#4c4c4c;stroke-linejoin:miter;"/>
    </g>
    <g id="patch_8">
     <path d="M 105.624063 351.02505 
L 345.427188 351.02505 
Q 347.427188 351.02505 347.427188 349.02505 
L 347.427188 335.346925 
Q 347.427188 333.346925 345.427188 333.346925 
L 105.624063 333.346925 
Q 103.624063 333.346925 103.624063 335.346925 
L 103.624063 349.02505 
Q 103.624063 351.02505 105.624063 351.02505 
z
" style="fill:#ffffff;stroke:#cccccc;stroke-linejoin:miter;"/>
    </g>
    <g id="line2d_14">
     <path d="M 107.624063 341.445362 
L 127.624063 341.445362 
" style="fill:none;stroke:#ffa500;stroke-linecap:square;stroke-width:1.5;"/>
    </g>
    <g id="line2d_15"/>
    <g id="text_15">
     <!-- Episode Length -->
     <defs>
      <path d="M 9.8125 72.90625 
L 19.671875 72.90625 
L 19.671875 8.296875 
L 55.171875 8.296875 
L 55.171875 0 
L 9.8125 0 
z
" id="DejaVuSans-76"/>
      <path d="M 45.40625 27.984375 
Q 45.40625 37.75 41.375 43.109375 
Q 37.359375 48.484375 30.078125 48.484375 
Q 22.859375 48.484375 18.828125 43.109375 
Q 14.796875 37.75 14.796875 27.984375 
Q 14.796875 18.265625 18.828125 12.890625 
Q 22.859375 7.515625 30.078125 7.515625 
Q 37.359375 7.515625 41.375 12.890625 
Q 45.40625 18.265625 45.40625 27.984375 
z
M 54.390625 6.78125 
Q 54.390625 -7.171875 48.1875 -13.984375 
Q 42 -20.796875 29.203125 -20.796875 
Q 24.46875 -20.796875 20.265625 -20.09375 
Q 16.0625 -19.390625 12.109375 -17.921875 
L 12.109375 -9.1875 
Q 16.0625 -11.328125 19.921875 -12.34375 
Q 23.78125 -13.375 27.78125 -13.375 
Q 36.625 -13.375 41.015625 -8.765625 
Q 45.40625 -4.15625 45.40625 5.171875 
L 45.40625 9.625 
Q 42.625 4.78125 38.28125 2.390625 
Q 33.9375 0 27.875 0 
Q 17.828125 0 11.671875 7.65625 
Q 5.515625 15.328125 5.515625 27.984375 
Q 5.515625 40.671875 11.671875 48.328125 
Q 17.828125 56 27.875 56 
Q 33.9375 56 38.28125 53.609375 
Q 42.625 51.21875 45.40625 46.390625 
L 45.40625 54.6875 
L 54.390625 54.6875 
z
" id="DejaVuSans-103"/>
      <path d="M 54.890625 33.015625 
L 54.890625 0 
L 45.90625 0 
L 45.90625 32.71875 
Q 45.90625 40.484375 42.875 44.328125 
Q 39.84375 48.1875 33.796875 48.1875 
Q 26.515625 48.1875 22.3125 43.546875 
Q 18.109375 38.921875 18.109375 30.90625 
L 18.109375 0 
L 9.078125 0 
L 9.078125 75.984375 
L 18.109375 75.984375 
L 18.109375 46.1875 
Q 21.34375 51.125 25.703125 53.5625 
Q 30.078125 56 35.796875 56 
Q 45.21875 56 50.046875 50.171875 
Q 54.890625 44.34375 54.890625 33.015625 
z
" id="DejaVuSans-104"/>
     </defs>
     <g transform="translate(135.624063 344.945362)scale(0.1 -0.1)">
      <use xlink:href="#DejaVuSans-69"/>
      <use x="63.183594" xlink:href="#DejaVuSans-112"/>
      <use x="126.660156" xlink:href="#DejaVuSans-105"/>
      <use x="154.443359" xlink:href="#DejaVuSans-115"/>
      <use x="206.542969" xlink:href="#DejaVuSans-111"/>
      <use x="267.724609" xlink:href="#DejaVuSans-100"/>
      <use x="331.201172" xlink:href="#DejaVuSans-101"/>
      <use x="392.724609" xlink:href="#DejaVuSans-32"/>
      <use x="424.511719" xlink:href="#DejaVuSans-76"/>
      <use x="480.208984" xlink:href="#DejaVuSans-101"/>
      <use x="541.732422" xlink:href="#DejaVuSans-110"/>
      <use x="605.111328" xlink:href="#DejaVuSans-103"/>
      <use x="668.587891" xlink:href="#DejaVuSans-116"/>
      <use x="707.796875" xlink:href="#DejaVuSans-104"/>
     </g>
    </g>
    <g id="line2d_16">
     <path d="M 232.744375 341.445362 
L 252.744375 341.445362 
" style="fill:none;stroke:#ff0000;stroke-linecap:square;stroke-width:1.5;"/>
    </g>
    <g id="line2d_17"/>
    <g id="text_16">
     <!-- Average Reward -->
     <defs>
      <path d="M 34.1875 63.1875 
L 20.796875 26.90625 
L 47.609375 26.90625 
z
M 28.609375 72.90625 
L 39.796875 72.90625 
L 67.578125 0 
L 57.328125 0 
L 50.6875 18.703125 
L 17.828125 18.703125 
L 11.1875 0 
L 0.78125 0 
z
" id="DejaVuSans-65"/>
      <path d="M 2.984375 54.6875 
L 12.5 54.6875 
L 29.59375 8.796875 
L 46.6875 54.6875 
L 56.203125 54.6875 
L 35.6875 0 
L 23.484375 0 
z
" id="DejaVuSans-118"/>
     </defs>
     <g transform="translate(260.744375 344.945362)scale(0.1 -0.1)">
      <use xlink:href="#DejaVuSans-65"/>
      <use x="68.330078" xlink:href="#DejaVuSans-118"/>
      <use x="127.509766" xlink:href="#DejaVuSans-101"/>
      <use x="189.033203" xlink:href="#DejaVuSans-114"/>
      <use x="230.146484" xlink:href="#DejaVuSans-97"/>
      <use x="291.425781" xlink:href="#DejaVuSans-103"/>
      <use x="354.902344" xlink:href="#DejaVuSans-101"/>
      <use x="416.425781" xlink:href="#DejaVuSans-32"/>
      <use x="448.212891" xlink:href="#DejaVuSans-82"/>
      <use x="517.632812" xlink:href="#DejaVuSans-101"/>
      <use x="579.15625" xlink:href="#DejaVuSans-119"/>
      <use x="660.943359" xlink:href="#DejaVuSans-97"/>
      <use x="722.222656" xlink:href="#DejaVuSans-114"/>
      <use x="763.320312" xlink:href="#DejaVuSans-100"/>
     </g>
    </g>
   </g>
   <g id="line2d_18">
    <path clip-path="url(#p02331d618c)" d="M 63.198352 276.334125 
L 64.568203 273.151702 
L 67.307903 260.462521 
L 68.677754 242.840844 
L 70.047604 229.723418 
L 72.787305 185.09859 
L 74.157155 154.239388 
L 75.527006 142.25204 
L 76.896856 143.750978 
L 78.266707 172.03878 
L 79.636557 114.957583 
L 81.006408 81.41542 
L 82.376258 71.69393 
L 83.746108 54.518263 
L 85.115959 63.835985 
L 86.485809 51.381296 
L 87.85566 54.518263 
L 89.22551 116.553039 
L 90.59536 144.744869 
L 91.965211 156.769167 
L 93.335061 136.375124 
L 94.704912 171.012829 
L 96.074762 159.644349 
L 97.444612 173.241067 
L 98.814463 163.185675 
L 100.184313 161.004829 
L 101.554164 154.649262 
L 102.924014 135.640509 
L 104.293864 136.618686 
L 105.663715 164.1701 
L 107.033565 142.674264 
L 108.403416 128.294363 
L 109.773266 117.798017 
L 111.143116 140.577983 
L 112.512967 155.459098 
L 113.882817 149.486554 
L 115.252668 133.544697 
L 116.622518 143.837944 
L 117.992368 137.166455 
L 119.362219 131.297641 
L 120.732069 113.87215 
L 122.10192 55.915921 
L 123.47177 40.417444 
L 124.84162 44.641478 
L 126.211471 64.98517 
L 127.581321 77.03609 
L 128.951172 78.092099 
L 130.321022 92.45966 
L 131.690872 51.94036 
L 133.060723 38.584959 
L 134.430573 39.019786 
L 135.800424 38.584959 
L 153.608479 38.584959 
L 154.978329 40.324267 
L 156.34818 38.584959 
L 157.71803 38.584959 
L 159.08788 48.151153 
L 160.457731 43.057465 
L 161.827581 57.562052 
L 163.197432 52.499423 
L 164.567282 61.817145 
L 165.937132 72.097698 
L 167.306983 75.079369 
L 168.676833 63.402985 
L 170.046684 91.524234 
L 171.416534 80.204116 
L 172.786384 103.546734 
L 174.156235 135.063312 
L 175.526085 81.176082 
L 176.895936 95.205648 
L 178.265786 82.75096 
L 179.635637 96.099822 
L 181.005487 76.321732 
L 182.375337 90.881129 
L 183.745188 83.310023 
L 185.115038 92.034171 
L 186.484889 108.628071 
L 187.854739 101.310481 
L 189.224589 93.05567 
L 190.59444 106.06488 
L 191.96429 108.040353 
L 193.334141 130.30375 
L 194.703991 138.838243 
L 196.073841 127.612684 
L 197.443692 109.7972 
L 198.813542 84.099289 
L 200.183393 94.298033 
L 201.553243 79.656014 
L 202.923093 86.496318 
L 204.292944 107.163391 
L 205.662794 64.115516 
L 207.032645 61.692909 
L 208.402495 81.84842 
L 209.772345 80.852905 
L 211.142196 99.988745 
L 212.512046 65.730588 
L 213.881897 95.457571 
L 215.251747 55.170503 
L 216.621597 52.064596 
L 217.991448 51.754005 
L 219.361298 67.9979 
L 220.731149 45.883841 
L 222.100999 45.852782 
L 223.470849 60.450546 
L 224.8407 44.330887 
L 226.21055 45.57325 
L 227.580401 45.262659 
L 228.950251 52.654718 
L 230.320101 38.584959 
L 231.689952 38.584959 
L 233.059802 45.014187 
L 234.429653 52.747896 
L 235.799503 38.740254 
L 237.169353 38.584959 
L 239.909054 38.584959 
L 242.648755 52.25095 
L 244.018605 40.821212 
L 245.388456 49.082925 
L 246.758306 52.747896 
L 248.128157 39.081904 
L 249.498007 40.510621 
L 250.867857 48.710216 
L 252.237708 44.672537 
L 253.607558 52.375187 
L 254.977409 42.840051 
L 256.347259 38.584959 
L 257.717109 46.039136 
L 259.08696 39.050845 
L 260.45681 45.790663 
L 261.826661 46.194431 
L 263.196511 44.517241 
L 264.566361 40.137912 
L 265.936212 51.132824 
L 267.306062 39.982617 
L 268.675913 50.729056 
L 270.045763 44.952068 
L 271.415613 42.746874 
L 272.785464 39.330376 
L 274.155314 38.802372 
L 275.525165 40.54168 
L 276.895015 44.952068 
L 278.264866 46.318668 
L 279.634716 41.100743 
L 281.004566 40.106853 
L 282.374417 48.710216 
L 283.744267 39.268258 
L 285.114118 41.597689 
L 286.483968 43.119583 
L 287.853818 39.982617 
L 289.223669 43.336997 
L 290.593519 38.988726 
L 291.96337 45.014187 
L 293.33322 53.586491 
L 294.70307 48.741275 
L 296.072921 45.666427 
L 298.812622 42.840051 
L 300.182472 41.721925 
L 301.552322 45.386895 
L 302.922173 40.044735 
L 304.292023 41.846161 
L 305.661874 48.182212 
L 307.031724 44.734655 
L 308.401574 42.187811 
L 309.771425 41.659807 
L 311.141275 45.449014 
L 312.511126 38.771313 
L 313.880976 44.23771 
L 315.250826 43.678646 
L 316.620677 42.653697 
L 317.990527 40.852271 
L 319.360378 43.430174 
L 320.730228 50.325288 
L 322.100078 40.137912 
L 323.469929 46.411845 
L 324.839779 43.181701 
L 326.20963 49.548811 
L 327.57948 41.100743 
L 328.94933 55.853803 
L 330.319181 56.816634 
L 331.689031 52.095655 
L 333.058882 55.015208 
L 334.428732 71.631812 
L 335.798582 41.908279 
L 337.168433 54.642499 
L 338.538283 41.473452 
L 339.908134 44.051355 
L 341.277984 47.623149 
L 342.647834 43.057465 
L 344.017685 53.244841 
L 345.387535 51.909301 
L 346.757386 50.946469 
L 348.127236 45.697486 
L 349.497086 46.473963 
L 350.866937 58.711238 
L 352.236787 49.859402 
L 353.606638 52.188832 
L 354.976488 47.064085 
L 356.346338 52.375187 
L 357.716189 44.796773 
L 360.45589 47.405735 
L 361.82574 52.965309 
L 363.19559 56.350748 
L 364.565441 62.906039 
L 365.935291 46.318668 
L 367.305142 49.766225 
L 368.674992 49.92152 
L 370.044842 52.685777 
L 371.414693 47.716326 
L 372.784543 46.22549 
L 374.154394 60.357368 
L 375.524244 54.642499 
L 376.894095 52.344128 
L 378.263945 43.368056 
L 379.633795 60.481605 
L 381.003646 47.25044 
L 382.373496 42.715815 
L 383.743347 51.288119 
L 385.113197 49.207161 
L 386.483047 40.54168 
L 387.852898 43.865001 
L 387.852898 43.865001 
" style="fill:none;stroke:#ff0000;stroke-linecap:square;stroke-opacity:0.3;stroke-width:1.5;"/>
   </g>
  </g>
  <g id="axes_2">
   <g id="matplotlib.axis_3">
    <g id="ytick_7">
     <g id="line2d_19">
      <defs>
       <path d="M 0 0 
L 3.5 0 
" id="m06643ba99b" style="stroke:#000000;stroke-width:0.8;"/>
      </defs>
      <g>
       <use style="stroke:#000000;stroke-width:0.8;" x="404.085625" xlink:href="#m06643ba99b" y="287.057539"/>
      </g>
     </g>
     <g id="text_17">
      <!-- 0 -->
      <g transform="translate(411.085625 290.856758)scale(0.1 -0.1)">
       <use xlink:href="#DejaVuSans-48"/>
      </g>
     </g>
    </g>
    <g id="ytick_8">
     <g id="line2d_20">
      <g>
       <use style="stroke:#000000;stroke-width:0.8;" x="404.085625" xlink:href="#m06643ba99b" y="237.363023"/>
      </g>
     </g>
     <g id="text_18">
      <!-- 100 -->
      <g transform="translate(411.085625 241.162242)scale(0.1 -0.1)">
       <use xlink:href="#DejaVuSans-49"/>
       <use x="63.623047" xlink:href="#DejaVuSans-48"/>
       <use x="127.246094" xlink:href="#DejaVuSans-48"/>
      </g>
     </g>
    </g>
    <g id="ytick_9">
     <g id="line2d_21">
      <g>
       <use style="stroke:#000000;stroke-width:0.8;" x="404.085625" xlink:href="#m06643ba99b" y="187.668507"/>
      </g>
     </g>
     <g id="text_19">
      <!-- 200 -->
      <g transform="translate(411.085625 191.467726)scale(0.1 -0.1)">
       <use xlink:href="#DejaVuSans-50"/>
       <use x="63.623047" xlink:href="#DejaVuSans-48"/>
       <use x="127.246094" xlink:href="#DejaVuSans-48"/>
      </g>
     </g>
    </g>
    <g id="ytick_10">
     <g id="line2d_22">
      <g>
       <use style="stroke:#000000;stroke-width:0.8;" x="404.085625" xlink:href="#m06643ba99b" y="137.973991"/>
      </g>
     </g>
     <g id="text_20">
      <!-- 300 -->
      <g transform="translate(411.085625 141.773209)scale(0.1 -0.1)">
       <use xlink:href="#DejaVuSans-51"/>
       <use x="63.623047" xlink:href="#DejaVuSans-48"/>
       <use x="127.246094" xlink:href="#DejaVuSans-48"/>
      </g>
     </g>
    </g>
    <g id="ytick_11">
     <g id="line2d_23">
      <g>
       <use style="stroke:#000000;stroke-width:0.8;" x="404.085625" xlink:href="#m06643ba99b" y="88.279475"/>
      </g>
     </g>
     <g id="text_21">
      <!-- 400 -->
      <g transform="translate(411.085625 92.078693)scale(0.1 -0.1)">
       <use xlink:href="#DejaVuSans-52"/>
       <use x="63.623047" xlink:href="#DejaVuSans-48"/>
       <use x="127.246094" xlink:href="#DejaVuSans-48"/>
      </g>
     </g>
    </g>
    <g id="ytick_12">
     <g id="line2d_24">
      <g>
       <use style="stroke:#000000;stroke-width:0.8;" x="404.085625" xlink:href="#m06643ba99b" y="38.584959"/>
      </g>
     </g>
     <g id="text_22">
      <!-- 500 -->
      <g transform="translate(411.085625 42.384177)scale(0.1 -0.1)">
       <use xlink:href="#DejaVuSans-53"/>
       <use x="63.623047" xlink:href="#DejaVuSans-48"/>
       <use x="127.246094" xlink:href="#DejaVuSans-48"/>
      </g>
     </g>
    </g>
    <g id="text_23">
     <!-- Episode Steps -->
     <defs>
      <path d="M 53.515625 70.515625 
L 53.515625 60.890625 
Q 47.90625 63.578125 42.921875 64.890625 
Q 37.9375 66.21875 33.296875 66.21875 
Q 25.25 66.21875 20.875 63.09375 
Q 16.5 59.96875 16.5 54.203125 
Q 16.5 49.359375 19.40625 46.890625 
Q 22.3125 44.4375 30.421875 42.921875 
L 36.375 41.703125 
Q 47.40625 39.59375 52.65625 34.296875 
Q 57.90625 29 57.90625 20.125 
Q 57.90625 9.515625 50.796875 4.046875 
Q 43.703125 -1.421875 29.984375 -1.421875 
Q 24.8125 -1.421875 18.96875 -0.25 
Q 13.140625 0.921875 6.890625 3.21875 
L 6.890625 13.375 
Q 12.890625 10.015625 18.65625 8.296875 
Q 24.421875 6.59375 29.984375 6.59375 
Q 38.421875 6.59375 43.015625 9.90625 
Q 47.609375 13.234375 47.609375 19.390625 
Q 47.609375 24.75 44.3125 27.78125 
Q 41.015625 30.8125 33.5 32.328125 
L 27.484375 33.5 
Q 16.453125 35.6875 11.515625 40.375 
Q 6.59375 45.0625 6.59375 53.421875 
Q 6.59375 63.09375 13.40625 68.65625 
Q 20.21875 74.21875 32.171875 74.21875 
Q 37.3125 74.21875 42.625 73.28125 
Q 47.953125 72.359375 53.515625 70.515625 
z
" id="DejaVuSans-83"/>
     </defs>
     <g transform="translate(441.771563 190.590531)rotate(-90)scale(0.1 -0.1)">
      <use xlink:href="#DejaVuSans-69"/>
      <use x="63.183594" xlink:href="#DejaVuSans-112"/>
      <use x="126.660156" xlink:href="#DejaVuSans-105"/>
      <use x="154.443359" xlink:href="#DejaVuSans-115"/>
      <use x="206.542969" xlink:href="#DejaVuSans-111"/>
      <use x="267.724609" xlink:href="#DejaVuSans-100"/>
      <use x="331.201172" xlink:href="#DejaVuSans-101"/>
      <use x="392.724609" xlink:href="#DejaVuSans-32"/>
      <use x="424.511719" xlink:href="#DejaVuSans-83"/>
      <use x="487.988281" xlink:href="#DejaVuSans-116"/>
      <use x="527.197266" xlink:href="#DejaVuSans-101"/>
      <use x="588.720703" xlink:href="#DejaVuSans-112"/>
      <use x="652.197266" xlink:href="#DejaVuSans-115"/>
     </g>
    </g>
   </g>
   <g id="line2d_25">
    <path clip-path="url(#p02331d618c)" d="M 63.198352 276.334125 
L 64.568203 273.151702 
L 67.307903 260.462521 
L 68.677754 242.840844 
L 70.047604 229.723418 
L 72.787305 185.09859 
L 74.157155 154.239388 
L 75.527006 142.25204 
L 76.896856 143.750978 
L 78.266707 172.03878 
L 79.636557 114.957583 
L 81.006408 81.41542 
L 82.376258 71.69393 
L 83.746108 54.518263 
L 85.115959 63.835985 
L 86.485809 51.381296 
L 87.85566 54.518263 
L 89.22551 116.553039 
L 90.59536 144.744869 
L 91.965211 156.769167 
L 93.335061 136.375124 
L 94.704912 171.012829 
L 96.074762 159.644349 
L 97.444612 173.241067 
L 98.814463 163.185675 
L 100.184313 161.004829 
L 101.554164 154.649262 
L 102.924014 135.640509 
L 104.293864 136.618686 
L 105.663715 164.1701 
L 107.033565 142.674264 
L 108.403416 128.294363 
L 109.773266 117.798017 
L 111.143116 140.577983 
L 112.512967 155.459098 
L 113.882817 149.486554 
L 115.252668 133.544697 
L 116.622518 143.837944 
L 117.992368 137.166455 
L 119.362219 131.297641 
L 120.732069 113.87215 
L 122.10192 55.915921 
L 123.47177 40.417444 
L 124.84162 44.641478 
L 126.211471 64.98517 
L 127.581321 77.03609 
L 128.951172 78.092099 
L 130.321022 92.45966 
L 131.690872 51.94036 
L 133.060723 38.584959 
L 134.430573 39.019786 
L 135.800424 38.584959 
L 153.608479 38.584959 
L 154.978329 40.324267 
L 156.34818 38.584959 
L 157.71803 38.584959 
L 159.08788 48.151153 
L 160.457731 43.057465 
L 161.827581 57.562052 
L 163.197432 52.499423 
L 164.567282 61.817145 
L 165.937132 72.097698 
L 167.306983 75.079369 
L 168.676833 63.402985 
L 170.046684 91.524234 
L 171.416534 80.204116 
L 172.786384 103.546734 
L 174.156235 135.063312 
L 175.526085 81.176082 
L 176.895936 95.205648 
L 178.265786 82.75096 
L 179.635637 96.099822 
L 181.005487 76.321732 
L 182.375337 90.881129 
L 183.745188 83.310023 
L 185.115038 92.034171 
L 186.484889 108.628071 
L 187.854739 101.310481 
L 189.224589 93.05567 
L 190.59444 106.06488 
L 191.96429 108.040353 
L 193.334141 130.30375 
L 194.703991 138.838243 
L 196.073841 127.612684 
L 197.443692 109.7972 
L 198.813542 84.099289 
L 200.183393 94.298033 
L 201.553243 79.656014 
L 202.923093 86.496318 
L 204.292944 107.163391 
L 205.662794 64.115516 
L 207.032645 61.692909 
L 208.402495 81.84842 
L 209.772345 80.852905 
L 211.142196 99.988745 
L 212.512046 65.730588 
L 213.881897 95.457571 
L 215.251747 55.170503 
L 216.621597 52.064596 
L 217.991448 51.754005 
L 219.361298 67.9979 
L 220.731149 45.883841 
L 222.100999 45.852782 
L 223.470849 60.450546 
L 224.8407 44.330887 
L 226.21055 45.57325 
L 227.580401 45.262659 
L 228.950251 52.654718 
L 230.320101 38.584959 
L 231.689952 38.584959 
L 233.059802 45.014187 
L 234.429653 52.747896 
L 235.799503 38.740254 
L 237.169353 38.584959 
L 239.909054 38.584959 
L 242.648755 52.25095 
L 244.018605 40.821212 
L 245.388456 49.082925 
L 246.758306 52.747896 
L 248.128157 39.081904 
L 249.498007 40.510621 
L 250.867857 48.710216 
L 252.237708 44.672537 
L 253.607558 52.375187 
L 254.977409 42.840051 
L 256.347259 38.584959 
L 257.717109 46.039136 
L 259.08696 39.050845 
L 260.45681 45.790663 
L 261.826661 46.194431 
L 263.196511 44.517241 
L 264.566361 40.137912 
L 265.936212 51.132824 
L 267.306062 39.982617 
L 268.675913 50.729056 
L 270.045763 44.952068 
L 271.415613 42.746874 
L 272.785464 39.330376 
L 274.155314 38.802372 
L 275.525165 40.54168 
L 276.895015 44.952068 
L 278.264866 46.318668 
L 279.634716 41.100743 
L 281.004566 40.106853 
L 282.374417 48.710216 
L 283.744267 39.268258 
L 285.114118 41.597689 
L 286.483968 43.119583 
L 287.853818 39.982617 
L 289.223669 43.336997 
L 290.593519 38.988726 
L 291.96337 45.014187 
L 293.33322 53.586491 
L 294.70307 48.741275 
L 296.072921 45.666427 
L 298.812622 42.840051 
L 300.182472 41.721925 
L 301.552322 45.386895 
L 302.922173 40.044735 
L 304.292023 41.846161 
L 305.661874 48.182212 
L 307.031724 44.734655 
L 308.401574 42.187811 
L 309.771425 41.659807 
L 311.141275 45.449014 
L 312.511126 38.771313 
L 313.880976 44.23771 
L 315.250826 43.678646 
L 316.620677 42.653697 
L 317.990527 40.852271 
L 319.360378 43.430174 
L 320.730228 50.325288 
L 322.100078 40.137912 
L 323.469929 46.411845 
L 324.839779 43.181701 
L 326.20963 49.548811 
L 327.57948 41.100743 
L 328.94933 55.853803 
L 330.319181 56.816634 
L 331.689031 52.095655 
L 333.058882 55.015208 
L 334.428732 71.631812 
L 335.798582 41.908279 
L 337.168433 54.642499 
L 338.538283 41.473452 
L 339.908134 44.051355 
L 341.277984 47.623149 
L 342.647834 43.057465 
L 344.017685 53.244841 
L 345.387535 51.909301 
L 346.757386 50.946469 
L 348.127236 45.697486 
L 349.497086 46.473963 
L 350.866937 58.711238 
L 352.236787 49.859402 
L 353.606638 52.188832 
L 354.976488 47.064085 
L 356.346338 52.375187 
L 357.716189 44.796773 
L 360.45589 47.405735 
L 361.82574 52.965309 
L 363.19559 56.350748 
L 364.565441 62.906039 
L 365.935291 46.318668 
L 367.305142 49.766225 
L 368.674992 49.92152 
L 370.044842 52.685777 
L 371.414693 47.716326 
L 372.784543 46.22549 
L 374.154394 60.357368 
L 375.524244 54.642499 
L 376.894095 52.344128 
L 378.263945 43.368056 
L 379.633795 60.481605 
L 381.003646 47.25044 
L 382.373496 42.715815 
L 383.743347 51.288119 
L 385.113197 49.207161 
L 386.483047 40.54168 
L 387.852898 43.865001 
L 387.852898 43.865001 
" style="fill:none;stroke:#ffa500;stroke-dasharray:5.55,2.4;stroke-dashoffset:0;stroke-opacity:0.3;stroke-width:1.5;"/>
   </g>
   <g id="line2d_26">
    <path clip-path="url(#p02331d618c)" d="M 63.198352 272.350381 
L 64.568203 276.325914 
L 65.938053 271.701067 
L 67.307903 260.251027 
L 68.677754 243.750979 
L 70.047604 223.976107 
L 71.417455 200.519542 
L 72.787305 185.585624 
L 75.527006 158.419607 
L 76.896856 143.98113 
L 78.266707 127.822846 
L 81.006408 97.711856 
L 82.376258 75.603424 
L 83.746108 58.433624 
L 85.115959 52.439289 
L 87.85566 82.593333 
L 91.965211 141.446519 
L 93.335061 157.898147 
L 94.704912 166.371602 
L 96.074762 166.41726 
L 97.444612 164.925565 
L 98.814463 160.098641 
L 100.184313 159.316632 
L 101.554164 154.220031 
L 102.924014 151.886513 
L 104.293864 144.100255 
L 105.663715 138.727195 
L 107.033565 136.565678 
L 108.403416 138.387112 
L 109.773266 139.421076 
L 111.143116 139.164016 
L 112.512967 138.46032 
L 113.882817 143.413555 
L 115.252668 149.49158 
L 116.622518 146.477125 
L 117.992368 131.756791 
L 120.732069 93.330764 
L 123.47177 62.896099 
L 124.84162 59.797196 
L 126.211471 60.808436 
L 127.581321 64.673247 
L 128.951172 70.467525 
L 130.321022 69.022513 
L 131.690872 62.318102 
L 133.060723 52.593584 
L 134.430573 43.951002 
L 135.800424 37.854838 
L 137.170274 34.414125 
L 138.540124 37.508823 
L 139.909975 38.594081 
L 142.649676 38.584959 
L 146.759227 38.584959 
L 148.129077 38.439003 
L 150.868778 38.763349 
L 152.238628 38.06195 
L 153.608479 38.750897 
L 154.978329 38.428288 
L 159.08788 43.778195 
L 160.457731 47.399581 
L 161.827581 53.371675 
L 163.197432 56.648277 
L 164.567282 62.436069 
L 167.306983 68.814133 
L 168.676833 79.524233 
L 170.046684 87.6888 
L 171.416534 94.16042 
L 172.786384 96.873164 
L 174.156235 100.917993 
L 175.526085 100.5491 
L 176.895936 96.394818 
L 178.265786 92.597976 
L 179.635637 84.843708 
L 181.005487 82.504836 
L 182.375337 89.500496 
L 183.745188 89.891813 
L 185.115038 93.190357 
L 186.484889 93.828523 
L 187.854739 98.580939 
L 189.224589 103.888186 
L 190.59444 112.416554 
L 191.96429 119.274775 
L 193.334141 120.623455 
L 194.703991 122.589716 
L 196.073841 119.224292 
L 197.443692 109.452218 
L 198.813542 104.393217 
L 201.553243 85.977682 
L 202.923093 81.483551 
L 204.292944 78.379327 
L 205.662794 81.405816 
L 207.032645 77.872691 
L 208.402495 81.521485 
L 209.772345 81.017435 
L 211.142196 79.050606 
L 212.512046 78.811748 
L 213.881897 75.649543 
L 216.621597 60.677202 
L 217.991448 55.528869 
L 219.361298 54.424651 
L 220.731149 50.049883 
L 222.100999 51.376011 
L 223.470849 51.109149 
L 224.8407 49.373317 
L 226.21055 46.13796 
L 228.950251 45.317031 
L 230.320101 43.906268 
L 231.689952 44.750003 
L 233.059802 43.713615 
L 235.799503 40.245497 
L 237.169353 42.378075 
L 238.539204 41.904008 
L 239.909054 41.204201 
L 241.278905 43.236507 
L 242.648755 46.221436 
L 244.018605 46.438922 
L 245.388456 46.877224 
L 246.758306 45.904619 
L 248.128157 45.633703 
L 249.498007 45.801885 
L 250.867857 45.848582 
L 253.607558 44.288606 
L 254.977409 44.943525 
L 257.717109 43.53298 
L 259.08696 42.578909 
L 260.45681 43.051383 
L 261.826661 43.765453 
L 263.196511 44.854837 
L 264.566361 45.127491 
L 265.936212 46.24359 
L 268.675913 44.874312 
L 272.785464 41.761961 
L 274.155314 42.361423 
L 275.525165 40.62559 
L 276.895015 42.183539 
L 278.264866 42.976885 
L 279.634716 43.467242 
L 281.004566 43.69233 
L 282.374417 42.864739 
L 283.744267 42.368446 
L 285.114118 41.601236 
L 286.483968 41.040218 
L 287.853818 41.519426 
L 289.223669 42.318056 
L 290.593519 44.685134 
L 291.96337 45.805867 
L 293.33322 46.687395 
L 294.70307 46.909442 
L 296.072921 46.85174 
L 297.442771 46.203264 
L 298.812622 43.645343 
L 300.182472 42.24001 
L 302.922173 43.31477 
L 304.292023 43.306951 
L 305.661874 44.083066 
L 308.401574 43.290806 
L 309.771425 43.566863 
L 311.141275 43.112126 
L 312.511126 42.139738 
L 313.880976 41.773835 
L 315.250826 43.018949 
L 316.620677 43.043854 
L 319.360378 43.841616 
L 320.730228 44.437096 
L 322.100078 43.875716 
L 323.469929 44.358037 
L 324.839779 46.007715 
L 326.20963 47.062131 
L 327.57948 47.114041 
L 328.94933 52.771353 
L 330.319181 54.117101 
L 331.689031 56.805195 
L 333.058882 56.729321 
L 334.428732 55.737965 
L 337.168433 49.556268 
L 339.908134 45.757505 
L 341.277984 45.20112 
L 342.647834 48.284584 
L 344.017685 47.032737 
L 345.387535 49.587979 
L 346.757386 50.126626 
L 348.127236 50.974995 
L 349.497086 51.07143 
L 350.866937 50.7995 
L 352.236787 50.948352 
L 353.606638 50.705092 
L 354.976488 49.899294 
L 356.346338 48.346485 
L 357.716189 46.571548 
L 359.086039 49.504541 
L 360.45589 50.721931 
L 361.82574 52.18109 
L 363.19559 52.453301 
L 364.565441 53.967542 
L 365.935291 53.850163 
L 367.305142 51.471799 
L 368.674992 50.153094 
L 370.044842 49.773213 
L 371.414693 50.863926 
L 372.784543 51.494166 
L 375.524244 53.233691 
L 376.894095 52.245159 
L 378.263945 51.961138 
L 379.633795 51.462383 
L 381.003646 48.899901 
L 382.373496 48.504748 
L 383.743347 47.937975 
L 385.113197 46.879541 
L 386.483047 45.009408 
L 387.852898 42.007538 
L 387.852898 42.007538 
" style="fill:none;stroke:#ffa500;stroke-linecap:square;stroke-width:1.5;"/>
   </g>
   <g id="patch_9">
    <path d="M 46.965625 288.430125 
L 46.965625 22.318125 
" style="fill:none;stroke:#000000;stroke-linecap:square;stroke-linejoin:miter;stroke-width:0.8;"/>
   </g>
   <g id="patch_10">
    <path d="M 404.085625 288.430125 
L 404.085625 22.318125 
" style="fill:none;stroke:#000000;stroke-linecap:square;stroke-linejoin:miter;stroke-width:0.8;"/>
   </g>
   <g id="patch_11">
    <path d="M 46.965625 288.430125 
L 404.085625 288.430125 
" style="fill:none;stroke:#000000;stroke-linecap:square;stroke-linejoin:miter;stroke-width:0.8;"/>
   </g>
   <g id="patch_12">
    <path d="M 46.965625 22.318125 
L 404.085625 22.318125 
" style="fill:none;stroke:#000000;stroke-linecap:square;stroke-linejoin:miter;stroke-width:0.8;"/>
   </g>
  </g>
 </g>
 <defs>
  <clipPath id="p02331d618c">
   <rect height="266.112" width="357.12" x="46.965625" y="22.318125"/>
  </clipPath>
 </defs>
</svg>
