<?xml version="1.0" encoding="utf-8" standalone="no"?>
<!DOCTYPE svg PUBLIC "-//W3C//DTD SVG 1.1//EN"
  "http://www.w3.org/Graphics/SVG/1.1/DTD/svg11.dtd">
<!-- Created with matplotlib (https://matplotlib.org/) -->
<svg height="358.22505pt" version="1.1" viewBox="0 0 451.045 358.22505" width="451.045pt" xmlns="http://www.w3.org/2000/svg" xmlns:xlink="http://www.w3.org/1999/xlink">
 <defs>
  <style type="text/css">
*{stroke-linecap:butt;stroke-linejoin:round;}
  </style>
 </defs>
 <g id="figure_1">
  <g id="patch_1">
   <path d="M 0 358.22505 
L 451.045 358.22505 
L 451.045 0 
L 0 0 
z
" style="fill:#ffffff;"/>
  </g>
  <g id="axes_1">
   <g id="patch_2">
    <path d="M 43.78125 288.430125 
L 400.90125 288.430125 
L 400.90125 22.318125 
L 43.78125 22.318125 
z
" style="fill:#ffffff;"/>
   </g>
   <g id="matplotlib.axis_1">
    <g id="xtick_1">
     <g id="line2d_1">
      <defs>
       <path d="M 0 0 
L 0 3.5 
" id="m57cb316b7e" style="stroke:#000000;stroke-width:0.8;"/>
      </defs>
      <g>
       <use style="stroke:#000000;stroke-width:0.8;" x="60.013977" xlink:href="#m57cb316b7e" y="288.430125"/>
      </g>
     </g>
     <g id="text_1">
      <!-- 0 -->
      <defs>
       <path d="M 31.78125 66.40625 
Q 24.171875 66.40625 20.328125 58.90625 
Q 16.5 51.421875 16.5 36.375 
Q 16.5 21.390625 20.328125 13.890625 
Q 24.171875 6.390625 31.78125 6.390625 
Q 39.453125 6.390625 43.28125 13.890625 
Q 47.125 21.390625 47.125 36.375 
Q 47.125 51.421875 43.28125 58.90625 
Q 39.453125 66.40625 31.78125 66.40625 
z
M 31.78125 74.21875 
Q 44.046875 74.21875 50.515625 64.515625 
Q 56.984375 54.828125 56.984375 36.375 
Q 56.984375 17.96875 50.515625 8.265625 
Q 44.046875 -1.421875 31.78125 -1.421875 
Q 19.53125 -1.421875 13.0625 8.265625 
Q 6.59375 17.96875 6.59375 36.375 
Q 6.59375 54.828125 13.0625 64.515625 
Q 19.53125 74.21875 31.78125 74.21875 
z
" id="DejaVuSans-48"/>
      </defs>
      <g transform="translate(56.832727 303.028562)scale(0.1 -0.1)">
       <use xlink:href="#DejaVuSans-48"/>
      </g>
     </g>
    </g>
    <g id="xtick_2">
     <g id="line2d_2">
      <g>
       <use style="stroke:#000000;stroke-width:0.8;" x="139.198013" xlink:href="#m57cb316b7e" y="288.430125"/>
      </g>
     </g>
     <g id="text_2">
      <!-- 100 -->
      <defs>
       <path d="M 12.40625 8.296875 
L 28.515625 8.296875 
L 28.515625 63.921875 
L 10.984375 60.40625 
L 10.984375 69.390625 
L 28.421875 72.90625 
L 38.28125 72.90625 
L 38.28125 8.296875 
L 54.390625 8.296875 
L 54.390625 0 
L 12.40625 0 
z
" id="DejaVuSans-49"/>
      </defs>
      <g transform="translate(129.654263 303.028562)scale(0.1 -0.1)">
       <use xlink:href="#DejaVuSans-49"/>
       <use x="63.623047" xlink:href="#DejaVuSans-48"/>
       <use x="127.246094" xlink:href="#DejaVuSans-48"/>
      </g>
     </g>
    </g>
    <g id="xtick_3">
     <g id="line2d_3">
      <g>
       <use style="stroke:#000000;stroke-width:0.8;" x="218.382048" xlink:href="#m57cb316b7e" y="288.430125"/>
      </g>
     </g>
     <g id="text_3">
      <!-- 200 -->
      <defs>
       <path d="M 19.1875 8.296875 
L 53.609375 8.296875 
L 53.609375 0 
L 7.328125 0 
L 7.328125 8.296875 
Q 12.9375 14.109375 22.625 23.890625 
Q 32.328125 33.6875 34.8125 36.53125 
Q 39.546875 41.84375 41.421875 45.53125 
Q 43.3125 49.21875 43.3125 52.78125 
Q 43.3125 58.59375 39.234375 62.25 
Q 35.15625 65.921875 28.609375 65.921875 
Q 23.96875 65.921875 18.8125 64.3125 
Q 13.671875 62.703125 7.8125 59.421875 
L 7.8125 69.390625 
Q 13.765625 71.78125 18.9375 73 
Q 24.125 74.21875 28.421875 74.21875 
Q 39.75 74.21875 46.484375 68.546875 
Q 53.21875 62.890625 53.21875 53.421875 
Q 53.21875 48.921875 51.53125 44.890625 
Q 49.859375 40.875 45.40625 35.40625 
Q 44.1875 33.984375 37.640625 27.21875 
Q 31.109375 20.453125 19.1875 8.296875 
z
" id="DejaVuSans-50"/>
      </defs>
      <g transform="translate(208.838298 303.028562)scale(0.1 -0.1)">
       <use xlink:href="#DejaVuSans-50"/>
       <use x="63.623047" xlink:href="#DejaVuSans-48"/>
       <use x="127.246094" xlink:href="#DejaVuSans-48"/>
      </g>
     </g>
    </g>
    <g id="xtick_4">
     <g id="line2d_4">
      <g>
       <use style="stroke:#000000;stroke-width:0.8;" x="297.566084" xlink:href="#m57cb316b7e" y="288.430125"/>
      </g>
     </g>
     <g id="text_4">
      <!-- 300 -->
      <defs>
       <path d="M 40.578125 39.3125 
Q 47.65625 37.796875 51.625 33 
Q 55.609375 28.21875 55.609375 21.1875 
Q 55.609375 10.40625 48.1875 4.484375 
Q 40.765625 -1.421875 27.09375 -1.421875 
Q 22.515625 -1.421875 17.65625 -0.515625 
Q 12.796875 0.390625 7.625 2.203125 
L 7.625 11.71875 
Q 11.71875 9.328125 16.59375 8.109375 
Q 21.484375 6.890625 26.8125 6.890625 
Q 36.078125 6.890625 40.9375 10.546875 
Q 45.796875 14.203125 45.796875 21.1875 
Q 45.796875 27.640625 41.28125 31.265625 
Q 36.765625 34.90625 28.71875 34.90625 
L 20.21875 34.90625 
L 20.21875 43.015625 
L 29.109375 43.015625 
Q 36.375 43.015625 40.234375 45.921875 
Q 44.09375 48.828125 44.09375 54.296875 
Q 44.09375 59.90625 40.109375 62.90625 
Q 36.140625 65.921875 28.71875 65.921875 
Q 24.65625 65.921875 20.015625 65.03125 
Q 15.375 64.15625 9.8125 62.3125 
L 9.8125 71.09375 
Q 15.4375 72.65625 20.34375 73.4375 
Q 25.25 74.21875 29.59375 74.21875 
Q 40.828125 74.21875 47.359375 69.109375 
Q 53.90625 64.015625 53.90625 55.328125 
Q 53.90625 49.265625 50.4375 45.09375 
Q 46.96875 40.921875 40.578125 39.3125 
z
" id="DejaVuSans-51"/>
      </defs>
      <g transform="translate(288.022334 303.028562)scale(0.1 -0.1)">
       <use xlink:href="#DejaVuSans-51"/>
       <use x="63.623047" xlink:href="#DejaVuSans-48"/>
       <use x="127.246094" xlink:href="#DejaVuSans-48"/>
      </g>
     </g>
    </g>
    <g id="xtick_5">
     <g id="line2d_5">
      <g>
       <use style="stroke:#000000;stroke-width:0.8;" x="376.750119" xlink:href="#m57cb316b7e" y="288.430125"/>
      </g>
     </g>
     <g id="text_5">
      <!-- 400 -->
      <defs>
       <path d="M 37.796875 64.3125 
L 12.890625 25.390625 
L 37.796875 25.390625 
z
M 35.203125 72.90625 
L 47.609375 72.90625 
L 47.609375 25.390625 
L 58.015625 25.390625 
L 58.015625 17.1875 
L 47.609375 17.1875 
L 47.609375 0 
L 37.796875 0 
L 37.796875 17.1875 
L 4.890625 17.1875 
L 4.890625 26.703125 
z
" id="DejaVuSans-52"/>
      </defs>
      <g transform="translate(367.206369 303.028562)scale(0.1 -0.1)">
       <use xlink:href="#DejaVuSans-52"/>
       <use x="63.623047" xlink:href="#DejaVuSans-48"/>
       <use x="127.246094" xlink:href="#DejaVuSans-48"/>
      </g>
     </g>
    </g>
    <g id="text_6">
     <!-- Epoch -->
     <defs>
      <path d="M 9.8125 72.90625 
L 55.90625 72.90625 
L 55.90625 64.59375 
L 19.671875 64.59375 
L 19.671875 43.015625 
L 54.390625 43.015625 
L 54.390625 34.71875 
L 19.671875 34.71875 
L 19.671875 8.296875 
L 56.78125 8.296875 
L 56.78125 0 
L 9.8125 0 
z
" id="DejaVuSans-69"/>
      <path d="M 18.109375 8.203125 
L 18.109375 -20.796875 
L 9.078125 -20.796875 
L 9.078125 54.6875 
L 18.109375 54.6875 
L 18.109375 46.390625 
Q 20.953125 51.265625 25.265625 53.625 
Q 29.59375 56 35.59375 56 
Q 45.5625 56 51.78125 48.09375 
Q 58.015625 40.1875 58.015625 27.296875 
Q 58.015625 14.40625 51.78125 6.484375 
Q 45.5625 -1.421875 35.59375 -1.421875 
Q 29.59375 -1.421875 25.265625 0.953125 
Q 20.953125 3.328125 18.109375 8.203125 
z
M 48.6875 27.296875 
Q 48.6875 37.203125 44.609375 42.84375 
Q 40.53125 48.484375 33.40625 48.484375 
Q 26.265625 48.484375 22.1875 42.84375 
Q 18.109375 37.203125 18.109375 27.296875 
Q 18.109375 17.390625 22.1875 11.75 
Q 26.265625 6.109375 33.40625 6.109375 
Q 40.53125 6.109375 44.609375 11.75 
Q 48.6875 17.390625 48.6875 27.296875 
z
" id="DejaVuSans-112"/>
      <path d="M 30.609375 48.390625 
Q 23.390625 48.390625 19.1875 42.75 
Q 14.984375 37.109375 14.984375 27.296875 
Q 14.984375 17.484375 19.15625 11.84375 
Q 23.34375 6.203125 30.609375 6.203125 
Q 37.796875 6.203125 41.984375 11.859375 
Q 46.1875 17.53125 46.1875 27.296875 
Q 46.1875 37.015625 41.984375 42.703125 
Q 37.796875 48.390625 30.609375 48.390625 
z
M 30.609375 56 
Q 42.328125 56 49.015625 48.375 
Q 55.71875 40.765625 55.71875 27.296875 
Q 55.71875 13.875 49.015625 6.21875 
Q 42.328125 -1.421875 30.609375 -1.421875 
Q 18.84375 -1.421875 12.171875 6.21875 
Q 5.515625 13.875 5.515625 27.296875 
Q 5.515625 40.765625 12.171875 48.375 
Q 18.84375 56 30.609375 56 
z
" id="DejaVuSans-111"/>
      <path d="M 48.78125 52.59375 
L 48.78125 44.1875 
Q 44.96875 46.296875 41.140625 47.34375 
Q 37.3125 48.390625 33.40625 48.390625 
Q 24.65625 48.390625 19.8125 42.84375 
Q 14.984375 37.3125 14.984375 27.296875 
Q 14.984375 17.28125 19.8125 11.734375 
Q 24.65625 6.203125 33.40625 6.203125 
Q 37.3125 6.203125 41.140625 7.25 
Q 44.96875 8.296875 48.78125 10.40625 
L 48.78125 2.09375 
Q 45.015625 0.34375 40.984375 -0.53125 
Q 36.96875 -1.421875 32.421875 -1.421875 
Q 20.0625 -1.421875 12.78125 6.34375 
Q 5.515625 14.109375 5.515625 27.296875 
Q 5.515625 40.671875 12.859375 48.328125 
Q 20.21875 56 33.015625 56 
Q 37.15625 56 41.109375 55.140625 
Q 45.0625 54.296875 48.78125 52.59375 
z
" id="DejaVuSans-99"/>
      <path d="M 54.890625 33.015625 
L 54.890625 0 
L 45.90625 0 
L 45.90625 32.71875 
Q 45.90625 40.484375 42.875 44.328125 
Q 39.84375 48.1875 33.796875 48.1875 
Q 26.515625 48.1875 22.3125 43.546875 
Q 18.109375 38.921875 18.109375 30.90625 
L 18.109375 0 
L 9.078125 0 
L 9.078125 75.984375 
L 18.109375 75.984375 
L 18.109375 46.1875 
Q 21.34375 51.125 25.703125 53.5625 
Q 30.078125 56 35.796875 56 
Q 45.21875 56 50.046875 50.171875 
Q 54.890625 44.34375 54.890625 33.015625 
z
" id="DejaVuSans-104"/>
     </defs>
     <g transform="translate(207.030313 316.706687)scale(0.1 -0.1)">
      <use xlink:href="#DejaVuSans-69"/>
      <use x="63.183594" xlink:href="#DejaVuSans-112"/>
      <use x="126.660156" xlink:href="#DejaVuSans-111"/>
      <use x="187.841797" xlink:href="#DejaVuSans-99"/>
      <use x="242.822266" xlink:href="#DejaVuSans-104"/>
     </g>
    </g>
   </g>
   <g id="matplotlib.axis_2">
    <g id="ytick_1">
     <g id="line2d_6">
      <defs>
       <path d="M 0 0 
L -3.5 0 
" id="ma8815f96e3" style="stroke:#000000;stroke-width:0.8;"/>
      </defs>
      <g>
       <use style="stroke:#000000;stroke-width:0.8;" x="43.78125" xlink:href="#ma8815f96e3" y="261.279733"/>
      </g>
     </g>
     <g id="text_7">
      <!-- 0.0 -->
      <defs>
       <path d="M 10.6875 12.40625 
L 21 12.40625 
L 21 0 
L 10.6875 0 
z
" id="DejaVuSans-46"/>
      </defs>
      <g transform="translate(20.878125 265.078951)scale(0.1 -0.1)">
       <use xlink:href="#DejaVuSans-48"/>
       <use x="63.623047" xlink:href="#DejaVuSans-46"/>
       <use x="95.410156" xlink:href="#DejaVuSans-48"/>
      </g>
     </g>
    </g>
    <g id="ytick_2">
     <g id="line2d_7">
      <g>
       <use style="stroke:#000000;stroke-width:0.8;" x="43.78125" xlink:href="#ma8815f96e3" y="215.906611"/>
      </g>
     </g>
     <g id="text_8">
      <!-- 0.2 -->
      <g transform="translate(20.878125 219.70583)scale(0.1 -0.1)">
       <use xlink:href="#DejaVuSans-48"/>
       <use x="63.623047" xlink:href="#DejaVuSans-46"/>
       <use x="95.410156" xlink:href="#DejaVuSans-50"/>
      </g>
     </g>
    </g>
    <g id="ytick_3">
     <g id="line2d_8">
      <g>
       <use style="stroke:#000000;stroke-width:0.8;" x="43.78125" xlink:href="#ma8815f96e3" y="170.53349"/>
      </g>
     </g>
     <g id="text_9">
      <!-- 0.4 -->
      <g transform="translate(20.878125 174.332708)scale(0.1 -0.1)">
       <use xlink:href="#DejaVuSans-48"/>
       <use x="63.623047" xlink:href="#DejaVuSans-46"/>
       <use x="95.410156" xlink:href="#DejaVuSans-52"/>
      </g>
     </g>
    </g>
    <g id="ytick_4">
     <g id="line2d_9">
      <g>
       <use style="stroke:#000000;stroke-width:0.8;" x="43.78125" xlink:href="#ma8815f96e3" y="125.160368"/>
      </g>
     </g>
     <g id="text_10">
      <!-- 0.6 -->
      <defs>
       <path d="M 33.015625 40.375 
Q 26.375 40.375 22.484375 35.828125 
Q 18.609375 31.296875 18.609375 23.390625 
Q 18.609375 15.53125 22.484375 10.953125 
Q 26.375 6.390625 33.015625 6.390625 
Q 39.65625 6.390625 43.53125 10.953125 
Q 47.40625 15.53125 47.40625 23.390625 
Q 47.40625 31.296875 43.53125 35.828125 
Q 39.65625 40.375 33.015625 40.375 
z
M 52.59375 71.296875 
L 52.59375 62.3125 
Q 48.875 64.0625 45.09375 64.984375 
Q 41.3125 65.921875 37.59375 65.921875 
Q 27.828125 65.921875 22.671875 59.328125 
Q 17.53125 52.734375 16.796875 39.40625 
Q 19.671875 43.65625 24.015625 45.921875 
Q 28.375 48.1875 33.59375 48.1875 
Q 44.578125 48.1875 50.953125 41.515625 
Q 57.328125 34.859375 57.328125 23.390625 
Q 57.328125 12.15625 50.6875 5.359375 
Q 44.046875 -1.421875 33.015625 -1.421875 
Q 20.359375 -1.421875 13.671875 8.265625 
Q 6.984375 17.96875 6.984375 36.375 
Q 6.984375 53.65625 15.1875 63.9375 
Q 23.390625 74.21875 37.203125 74.21875 
Q 40.921875 74.21875 44.703125 73.484375 
Q 48.484375 72.75 52.59375 71.296875 
z
" id="DejaVuSans-54"/>
      </defs>
      <g transform="translate(20.878125 128.959587)scale(0.1 -0.1)">
       <use xlink:href="#DejaVuSans-48"/>
       <use x="63.623047" xlink:href="#DejaVuSans-46"/>
       <use x="95.410156" xlink:href="#DejaVuSans-54"/>
      </g>
     </g>
    </g>
    <g id="ytick_5">
     <g id="line2d_10">
      <g>
       <use style="stroke:#000000;stroke-width:0.8;" x="43.78125" xlink:href="#ma8815f96e3" y="79.787247"/>
      </g>
     </g>
     <g id="text_11">
      <!-- 0.8 -->
      <defs>
       <path d="M 31.78125 34.625 
Q 24.75 34.625 20.71875 30.859375 
Q 16.703125 27.09375 16.703125 20.515625 
Q 16.703125 13.921875 20.71875 10.15625 
Q 24.75 6.390625 31.78125 6.390625 
Q 38.8125 6.390625 42.859375 10.171875 
Q 46.921875 13.96875 46.921875 20.515625 
Q 46.921875 27.09375 42.890625 30.859375 
Q 38.875 34.625 31.78125 34.625 
z
M 21.921875 38.8125 
Q 15.578125 40.375 12.03125 44.71875 
Q 8.5 49.078125 8.5 55.328125 
Q 8.5 64.0625 14.71875 69.140625 
Q 20.953125 74.21875 31.78125 74.21875 
Q 42.671875 74.21875 48.875 69.140625 
Q 55.078125 64.0625 55.078125 55.328125 
Q 55.078125 49.078125 51.53125 44.71875 
Q 48 40.375 41.703125 38.8125 
Q 48.828125 37.15625 52.796875 32.3125 
Q 56.78125 27.484375 56.78125 20.515625 
Q 56.78125 9.90625 50.3125 4.234375 
Q 43.84375 -1.421875 31.78125 -1.421875 
Q 19.734375 -1.421875 13.25 4.234375 
Q 6.78125 9.90625 6.78125 20.515625 
Q 6.78125 27.484375 10.78125 32.3125 
Q 14.796875 37.15625 21.921875 38.8125 
z
M 18.3125 54.390625 
Q 18.3125 48.734375 21.84375 45.5625 
Q 25.390625 42.390625 31.78125 42.390625 
Q 38.140625 42.390625 41.71875 45.5625 
Q 45.3125 48.734375 45.3125 54.390625 
Q 45.3125 60.0625 41.71875 63.234375 
Q 38.140625 66.40625 31.78125 66.40625 
Q 25.390625 66.40625 21.84375 63.234375 
Q 18.3125 60.0625 18.3125 54.390625 
z
" id="DejaVuSans-56"/>
      </defs>
      <g transform="translate(20.878125 83.586465)scale(0.1 -0.1)">
       <use xlink:href="#DejaVuSans-48"/>
       <use x="63.623047" xlink:href="#DejaVuSans-46"/>
       <use x="95.410156" xlink:href="#DejaVuSans-56"/>
      </g>
     </g>
    </g>
    <g id="ytick_6">
     <g id="line2d_11">
      <g>
       <use style="stroke:#000000;stroke-width:0.8;" x="43.78125" xlink:href="#ma8815f96e3" y="34.414125"/>
      </g>
     </g>
     <g id="text_12">
      <!-- 1.0 -->
      <g transform="translate(20.878125 38.213344)scale(0.1 -0.1)">
       <use xlink:href="#DejaVuSans-49"/>
       <use x="63.623047" xlink:href="#DejaVuSans-46"/>
       <use x="95.410156" xlink:href="#DejaVuSans-48"/>
      </g>
     </g>
    </g>
    <g id="text_13">
     <!-- Loss -->
     <defs>
      <path d="M 9.8125 72.90625 
L 19.671875 72.90625 
L 19.671875 8.296875 
L 55.171875 8.296875 
L 55.171875 0 
L 9.8125 0 
z
" id="DejaVuSans-76"/>
      <path d="M 44.28125 53.078125 
L 44.28125 44.578125 
Q 40.484375 46.53125 36.375 47.5 
Q 32.28125 48.484375 27.875 48.484375 
Q 21.1875 48.484375 17.84375 46.4375 
Q 14.5 44.390625 14.5 40.28125 
Q 14.5 37.15625 16.890625 35.375 
Q 19.28125 33.59375 26.515625 31.984375 
L 29.59375 31.296875 
Q 39.15625 29.25 43.1875 25.515625 
Q 47.21875 21.78125 47.21875 15.09375 
Q 47.21875 7.46875 41.1875 3.015625 
Q 35.15625 -1.421875 24.609375 -1.421875 
Q 20.21875 -1.421875 15.453125 -0.5625 
Q 10.6875 0.296875 5.421875 2 
L 5.421875 11.28125 
Q 10.40625 8.6875 15.234375 7.390625 
Q 20.0625 6.109375 24.8125 6.109375 
Q 31.15625 6.109375 34.5625 8.28125 
Q 37.984375 10.453125 37.984375 14.40625 
Q 37.984375 18.0625 35.515625 20.015625 
Q 33.0625 21.96875 24.703125 23.78125 
L 21.578125 24.515625 
Q 13.234375 26.265625 9.515625 29.90625 
Q 5.8125 33.546875 5.8125 39.890625 
Q 5.8125 47.609375 11.28125 51.796875 
Q 16.75 56 26.8125 56 
Q 31.78125 56 36.171875 55.265625 
Q 40.578125 54.546875 44.28125 53.078125 
z
" id="DejaVuSans-115"/>
     </defs>
     <g transform="translate(14.798438 166.428031)rotate(-90)scale(0.1 -0.1)">
      <use xlink:href="#DejaVuSans-76"/>
      <use x="55.697266" xlink:href="#DejaVuSans-111"/>
      <use x="116.878906" xlink:href="#DejaVuSans-115"/>
      <use x="168.978516" xlink:href="#DejaVuSans-115"/>
     </g>
    </g>
   </g>
   <g id="line2d_12">
    <path clip-path="url(#p09600e6371)" d="M 60.013977 89.026246 
L 60.805818 92.999625 
L 61.597658 93.289071 
L 62.389498 219.759686 
L 63.181339 220.916104 
L 63.973179 222.441502 
L 64.765019 112.546456 
L 66.3487 113.034993 
L 67.14054 191.918878 
L 68.724221 194.801628 
L 69.516062 186.765435 
L 71.099742 186.800296 
L 71.891583 86.471946 
L 73.475263 87.991146 
L 74.267104 147.203378 
L 75.058944 148.912013 
L 75.850784 150.890236 
L 76.642625 256.52857 
L 78.226305 257.040292 
L 79.018146 261.279733 
L 80.601826 261.072842 
L 81.393667 108.106807 
L 82.977348 111.112908 
L 83.769188 197.835921 
L 85.352869 199.468767 
L 86.144709 180.611733 
L 87.72839 181.828923 
L 88.52023 244.407052 
L 90.103911 244.359642 
L 90.895751 164.631077 
L 92.479432 164.986694 
L 93.271272 178.684969 
L 94.854953 178.76267 
L 95.646793 164.274058 
L 97.230474 164.370903 
L 98.022314 110.83438 
L 99.605995 111.045147 
L 100.397835 211.896807 
L 101.981516 212.369071 
L 102.773356 171.813513 
L 103.565197 172.247194 
L 104.357037 173.207976 
L 105.148877 137.866093 
L 106.732558 138.076113 
L 107.524399 47.478915 
L 108.316239 51.323682 
L 109.108079 52.317071 
L 109.89992 188.675745 
L 110.69176 188.765503 
L 111.4836 189.001279 
L 112.275441 137.696377 
L 113.859121 138.08805 
L 114.650962 209.41801 
L 116.234642 209.482084 
L 117.026483 138.638306 
L 117.818323 140.268805 
L 118.610164 140.445933 
L 119.402004 203.452697 
L 120.193844 203.856626 
L 120.985685 204.417352 
L 121.777525 191.315943 
L 123.361206 192.715739 
L 124.153046 184.497414 
L 125.736727 184.610148 
L 126.528567 92.47233 
L 127.320407 90.76854 
L 128.112248 91.979985 
L 128.904088 176.364643 
L 130.487769 176.547765 
L 131.279609 167.219302 
L 132.86329 167.396735 
L 133.65513 179.941438 
L 135.238811 179.298438 
L 136.030651 225.155614 
L 137.614332 225.197583 
L 138.406172 94.599832 
L 139.198013 97.888042 
L 139.989853 97.013236 
L 140.781693 164.34288 
L 142.365374 164.597356 
L 143.157215 225.068202 
L 144.740895 224.935449 
L 145.532736 200.074104 
L 147.116416 200.084099 
L 147.908257 216.614722 
L 149.491937 216.838781 
L 150.283778 213.814093 
L 151.867458 213.651338 
L 152.659299 235.097374 
L 154.242979 235.523105 
L 155.03482 170.983809 
L 156.618501 170.789858 
L 157.410341 213.208909 
L 158.994022 213.353027 
L 159.785862 235.559093 
L 161.369543 235.729583 
L 162.161383 163.210558 
L 162.953223 162.532552 
L 163.745064 162.396218 
L 164.536904 229.282734 
L 166.120585 229.306496 
L 166.912425 147.682558 
L 167.704266 148.07836 
L 168.496106 148.602986 
L 169.287946 202.124229 
L 170.871627 202.096871 
L 171.663467 226.286275 
L 173.247148 226.498727 
L 174.038988 139.186175 
L 174.830829 140.038826 
L 175.622669 139.133067 
L 176.414509 214.553296 
L 177.99819 215.137967 
L 178.79003 204.503325 
L 179.581871 204.814309 
L 180.373711 204.965531 
L 181.165552 213.894136 
L 182.749232 214.298645 
L 183.541073 217.375297 
L 185.124753 217.483845 
L 185.916594 216.179702 
L 187.500274 216.060648 
L 188.292115 217.442651 
L 189.875795 217.703001 
L 190.667636 216.586435 
L 192.251317 216.650928 
L 193.043157 194.857628 
L 194.626838 195.069003 
L 195.418678 225.442847 
L 197.002359 225.544721 
L 197.794199 220.398053 
L 199.37788 220.439459 
L 200.16972 221.157343 
L 201.753401 221.266167 
L 202.545241 223.908205 
L 204.128922 224.197989 
L 204.920762 149.55655 
L 205.712603 150.057961 
L 206.504443 150.694034 
L 207.296283 225.397317 
L 208.879964 225.412364 
L 209.671804 228.560039 
L 211.255485 228.820115 
L 212.047325 222.34304 
L 213.631006 222.270766 
L 214.422846 221.418335 
L 216.006527 221.916925 
L 216.798368 225.67643 
L 217.590208 225.671258 
L 218.382048 225.792009 
L 219.173889 213.287973 
L 220.757569 213.120086 
L 221.54941 224.519891 
L 222.34125 224.674112 
L 223.13309 224.962899 
L 223.924931 222.048497 
L 225.508611 222.12768 
L 226.300452 190.836781 
L 227.884132 191.008412 
L 228.675973 214.309276 
L 230.259654 214.326714 
L 231.051494 224.635963 
L 232.635175 224.353146 
L 233.427015 231.153016 
L 234.218855 231.635802 
L 235.010696 231.389208 
L 235.802536 221.395616 
L 237.386217 221.588263 
L 238.178057 212.586816 
L 239.761738 212.289308 
L 240.553578 128.376515 
L 241.345419 131.048021 
L 242.137259 130.303306 
L 242.929099 142.054181 
L 243.72094 145.085842 
L 244.51278 146.927075 
L 245.30462 224.278647 
L 246.888301 224.542099 
L 247.680141 221.73862 
L 248.471982 222.575815 
L 249.263822 222.649557 
L 250.055662 227.591061 
L 251.639343 227.790921 
L 252.431183 221.329862 
L 253.223024 221.484204 
L 254.014864 221.790451 
L 254.806705 183.076911 
L 255.598545 183.20688 
L 256.390385 183.45967 
L 257.182226 182.984235 
L 257.974066 183.701602 
L 258.765906 183.80706 
L 259.557747 217.937915 
L 261.141427 218.148991 
L 261.933268 215.852554 
L 263.516948 215.899815 
L 264.308789 192.769033 
L 265.100629 193.704833 
L 265.89247 193.259468 
L 266.68431 202.854727 
L 268.267991 202.991821 
L 269.059831 192.517588 
L 270.643512 192.386056 
L 271.435352 97.188754 
L 272.227192 97.182905 
L 273.019033 97.348704 
L 273.810873 198.150763 
L 275.394554 197.770642 
L 276.186394 217.931515 
L 277.770075 218.076815 
L 278.561915 212.369455 
L 280.145596 212.340549 
L 280.937436 224.705949 
L 281.729277 224.98286 
L 282.521117 224.886123 
L 283.312957 179.778458 
L 284.896638 179.950908 
L 285.688478 205.299371 
L 287.272159 205.32088 
L 288.063999 206.904934 
L 289.64768 207.380243 
L 290.439521 205.591587 
L 291.231361 206.388339 
L 292.023201 206.958434 
L 292.815042 214.83613 
L 294.398722 213.919493 
L 295.190563 207.035026 
L 295.982403 207.423846 
L 296.774243 207.528426 
L 297.566084 206.673616 
L 298.357924 206.331707 
L 299.149764 207.030089 
L 299.941605 198.38 
L 301.525285 198.661865 
L 302.317126 216.16567 
L 303.900807 215.977428 
L 304.692647 213.992151 
L 306.276328 213.693772 
L 307.068168 221.585161 
L 308.651849 222.012394 
L 309.443689 206.154257 
L 311.02737 206.22582 
L 311.81921 196.955788 
L 313.402891 196.954372 
L 314.194731 219.693306 
L 314.986572 219.991612 
L 315.778412 219.870402 
L 316.570252 161.612388 
L 317.362093 162.136254 
L 318.153933 162.456873 
L 318.945773 220.406597 
L 319.737614 220.782296 
L 320.529454 220.782354 
L 321.321294 224.387293 
L 322.113135 224.713633 
L 322.904975 224.664181 
L 323.696815 171.947974 
L 325.280496 171.395724 
L 326.072336 216.479418 
L 327.656017 216.694003 
L 328.447858 206.466593 
L 330.031538 206.434625 
L 330.823379 34.414125 
L 331.615219 38.373771 
L 332.407059 40.904371 
L 333.1989 174.532456 
L 333.99074 174.25166 
L 334.78258 174.65263 
L 335.574421 121.81331 
L 336.366261 123.250466 
L 337.158101 123.409216 
L 337.949942 72.190574 
L 338.741782 72.731201 
L 339.533623 73.685145 
L 340.325463 133.691106 
L 341.117303 133.925936 
L 341.909144 134.309371 
L 342.700984 146.588724 
L 343.492824 147.787418 
L 344.284665 149.299918 
L 345.076505 168.8419 
L 346.660186 168.761466 
L 347.452026 221.229777 
L 349.035707 221.218355 
L 349.827547 206.720745 
L 351.411228 206.827212 
L 352.203068 220.321971 
L 352.994909 219.645265 
L 353.786749 219.426958 
L 354.578589 181.467536 
L 356.16227 181.581652 
L 356.95411 153.114403 
L 357.745951 154.230501 
L 358.537791 153.793944 
L 359.329631 85.699852 
L 360.121472 82.782158 
L 360.913312 84.778932 
L 361.705152 144.40424 
L 362.496993 144.111758 
L 363.288833 144.195071 
L 364.080674 154.307127 
L 364.872514 155.200422 
L 365.664354 155.829585 
L 366.456195 226.094356 
L 367.248035 226.75859 
L 368.039875 226.97922 
L 368.831716 212.397484 
L 370.415396 212.445084 
L 371.207237 226.330721 
L 372.790917 226.316609 
L 373.582758 223.033829 
L 375.166438 223.107365 
L 375.958279 215.093825 
L 377.54196 215.128208 
L 378.3338 227.427303 
L 379.917481 227.260208 
L 380.709321 215.747767 
L 382.293002 215.775417 
L 383.084842 223.585701 
L 384.668523 223.759196 
L 384.668523 223.759196 
" style="fill:none;stroke:#1f77b4;stroke-linecap:square;stroke-opacity:0.3;stroke-width:1.5;"/>
   </g>
   <g id="line2d_13">
    <path clip-path="url(#p09600e6371)" d="M 60.013977 52.942444 
L 60.805818 125.442198 
L 61.597658 166.152472 
L 62.389498 182.156584 
L 63.181339 180.537848 
L 63.973179 168.379581 
L 64.765019 166.793827 
L 65.55686 161.904633 
L 66.3487 149.548663 
L 67.14054 154.350034 
L 68.724221 193.9161 
L 69.516062 190.500999 
L 70.307902 169.940266 
L 71.099742 143.869194 
L 71.891583 128.363647 
L 72.683423 109.612701 
L 73.475263 108.726157 
L 74.267104 122.462643 
L 75.058944 149.559764 
L 75.850784 189.189647 
L 76.642625 218.331764 
L 77.434465 254.297566 
L 78.226305 264.130834 
L 79.018146 260.015978 
L 79.809986 231.228183 
L 80.601826 195.23233 
L 81.393667 173.256103 
L 82.185507 159.578797 
L 82.977348 151.95597 
L 83.769188 153.118015 
L 84.561028 159.419209 
L 85.352869 184.500599 
L 86.144709 196.320954 
L 86.936549 211.539412 
L 87.72839 212.140111 
L 88.52023 215.156597 
L 89.31207 213.13999 
L 90.103911 209.56944 
L 90.895751 200.860542 
L 91.687591 189.999772 
L 92.479432 174.375241 
L 93.271272 167.627159 
L 94.063113 170.87368 
L 94.854953 175.853034 
L 95.646793 168.775908 
L 96.438634 149.177029 
L 97.230474 137.363611 
L 98.022314 135.150782 
L 98.814155 144.066926 
L 100.397835 166.960924 
L 101.189676 182.212454 
L 101.981516 194.512881 
L 102.773356 193.13144 
L 103.565197 189.568397 
L 105.148877 145.277611 
L 105.940718 112.127773 
L 106.732558 95.830746 
L 107.524399 88.312064 
L 108.316239 97.021657 
L 109.89992 126.617102 
L 110.69176 137.812978 
L 111.4836 159.096031 
L 113.067281 179.859665 
L 113.859121 172.622263 
L 114.650962 174.990258 
L 115.442802 171.414533 
L 116.234642 174.926385 
L 117.818323 173.592006 
L 118.610164 168.703303 
L 119.402004 173.577954 
L 120.193844 183.478747 
L 120.985685 197.240819 
L 121.777525 200.430741 
L 122.569365 206.004959 
L 123.361206 195.576948 
L 124.153046 183.191825 
L 124.944886 159.422168 
L 125.736727 142.886201 
L 126.528567 131.420489 
L 127.320407 127.405751 
L 128.112248 129.543405 
L 128.904088 136.624404 
L 129.695928 148.725537 
L 130.487769 168.641107 
L 131.279609 176.89968 
L 132.07145 174.93143 
L 132.86329 169.730518 
L 133.65513 175.98884 
L 134.446971 196.472551 
L 135.238811 205.123783 
L 136.030651 202.56031 
L 139.198013 134.688516 
L 139.989853 124.793648 
L 140.781693 131.978056 
L 141.573534 154.471301 
L 142.365374 187.589965 
L 143.157215 204.218868 
L 143.949055 212.166495 
L 144.740895 211.701228 
L 145.532736 214.401367 
L 146.324576 213.704204 
L 147.116416 207.834988 
L 147.908257 208.452743 
L 148.700097 208.922021 
L 149.491937 213.529097 
L 150.283778 216.791939 
L 151.075618 225.435722 
L 151.867458 226.451021 
L 152.659299 224.019945 
L 153.451139 214.261157 
L 154.242979 206.263176 
L 155.82666 192.273895 
L 156.618501 188.865375 
L 157.410341 193.294602 
L 158.994022 225.056915 
L 159.785862 226.632873 
L 161.369543 201.719551 
L 162.161383 195.681337 
L 162.953223 199.406248 
L 164.536904 194.977392 
L 165.328744 188.890026 
L 166.120585 190.966749 
L 166.912425 186.607175 
L 168.496106 171.23135 
L 169.287946 176.599798 
L 170.871627 215.090491 
L 171.663467 216.74652 
L 173.247148 186.235135 
L 174.038988 178.381181 
L 174.830829 174.886852 
L 175.622669 173.404309 
L 176.414509 179.058297 
L 177.20635 189.620492 
L 177.99819 207.273281 
L 178.79003 213.803428 
L 179.581871 214.75117 
L 180.373711 208.699422 
L 181.165552 209.900248 
L 181.957392 212.152463 
L 182.749232 215.178528 
L 183.541073 216.669654 
L 184.332913 217.187665 
L 185.124753 216.727841 
L 186.708434 217.00408 
L 187.500274 216.798096 
L 188.292115 216.857211 
L 189.083955 218.784672 
L 189.875795 218.486518 
L 190.667636 216.216929 
L 191.459476 210.038403 
L 192.251317 206.166067 
L 193.043157 204.685584 
L 193.834997 205.757669 
L 194.626838 208.24494 
L 195.418678 211.835709 
L 196.210518 216.48575 
L 197.002359 222.244237 
L 197.794199 224.378124 
L 198.586039 223.917617 
L 199.37788 220.753236 
L 200.16972 220.656517 
L 200.96156 227.417718 
L 201.753401 226.936916 
L 202.545241 219.931145 
L 203.337081 202.326182 
L 204.128922 189.857567 
L 204.920762 182.555339 
L 205.712603 180.006878 
L 206.504443 182.714053 
L 207.296283 191.069255 
L 208.088124 205.337921 
L 208.879964 224.212871 
L 209.671804 231.885654 
L 210.463645 233.096075 
L 211.255485 226.072437 
L 212.047325 224.983116 
L 212.839166 223.376937 
L 213.631006 222.051602 
L 214.422846 221.655315 
L 215.214687 223.087336 
L 216.006527 224.082793 
L 216.798368 223.608281 
L 217.590208 221.43959 
L 218.382048 219.9269 
L 219.173889 218.844514 
L 219.965729 218.538518 
L 220.757569 218.416111 
L 221.54941 219.242356 
L 222.34125 223.426914 
L 223.13309 225.16368 
L 223.924931 222.612265 
L 225.508611 208.391239 
L 226.300452 204.03363 
L 227.092292 200.756001 
L 227.884132 200.803476 
L 228.675973 203.535363 
L 229.467813 208.534011 
L 230.259654 217.007045 
L 231.051494 222.211464 
L 231.843334 226.631001 
L 232.635175 227.443302 
L 233.427015 228.874587 
L 234.218855 229.594628 
L 235.010696 227.73481 
L 235.802536 225.514953 
L 236.594376 229.34073 
L 237.386217 223.401701 
L 238.178057 211.959006 
L 240.553578 162.141929 
L 241.345419 141.627952 
L 242.137259 133.82489 
L 242.929099 136.762011 
L 243.72094 151.152604 
L 244.51278 176.090642 
L 246.096461 209.058916 
L 246.888301 220.510078 
L 247.680141 228.367249 
L 248.471982 230.857098 
L 249.263822 224.955055 
L 250.055662 225.183633 
L 250.847503 228.450492 
L 251.639343 227.514279 
L 252.431183 222.738792 
L 253.223024 215.522676 
L 255.598545 187.534052 
L 256.390385 182.702281 
L 257.182226 182.348442 
L 257.974066 187.336386 
L 258.765906 197.361013 
L 259.557747 204.323208 
L 260.349587 212.682006 
L 261.141427 217.27217 
L 261.933268 217.9687 
L 262.725108 213.824476 
L 263.516948 206.385403 
L 264.308789 202.44379 
L 265.89247 198.65121 
L 266.68431 197.285515 
L 267.47615 205.023486 
L 268.267991 204.444227 
L 269.059831 193.390644 
L 269.851671 167.802791 
L 270.643512 148.806565 
L 271.435352 138.326676 
L 272.227192 133.9683 
L 273.019033 139.663312 
L 273.810873 152.841089 
L 274.602713 174.265195 
L 275.394554 202.254937 
L 276.186394 216.155871 
L 276.978234 220.229413 
L 277.770075 214.138385 
L 278.561915 216.342829 
L 279.353756 221.47411 
L 280.145596 220.371487 
L 280.937436 217.747489 
L 281.729277 210.703913 
L 283.312957 199.489803 
L 284.104798 194.911575 
L 284.896638 191.630928 
L 285.688478 192.418575 
L 286.480319 196.904245 
L 287.272159 205.049922 
L 288.063999 207.847782 
L 288.85584 207.924498 
L 289.64768 206.190072 
L 290.439521 207.149869 
L 291.231361 208.960405 
L 292.023201 210.089389 
L 292.815042 210.896761 
L 293.606882 211.375111 
L 294.398722 211.418706 
L 295.190563 210.519811 
L 295.982403 209.83802 
L 296.774243 207.769772 
L 297.566084 206.145241 
L 298.357924 203.148809 
L 299.149764 202.401059 
L 299.941605 202.422686 
L 300.733445 203.807888 
L 301.525285 205.985243 
L 302.317126 208.595961 
L 303.108966 210.783592 
L 303.900807 214.027481 
L 304.692647 216.110573 
L 305.484487 218.613023 
L 306.276328 218.016224 
L 307.860008 217.638373 
L 308.651849 215.852825 
L 309.443689 212.521233 
L 310.235529 206.266114 
L 311.02737 201.732719 
L 311.81921 200.533414 
L 312.61105 206.949123 
L 313.402891 210.015167 
L 314.194731 207.827641 
L 314.986572 197.947688 
L 315.778412 192.31048 
L 316.570252 188.686673 
L 317.362093 186.995549 
L 318.153933 187.335608 
L 318.945773 193.956399 
L 320.529454 223.312248 
L 321.321294 224.687796 
L 322.113135 214.378475 
L 322.904975 200.695947 
L 323.696815 194.657177 
L 324.488656 192.446865 
L 325.280496 192.198472 
L 326.072336 195.010695 
L 326.864177 215.499068 
L 327.656017 221.240127 
L 328.447858 206.025797 
L 330.031538 131.207423 
L 330.823379 109.306939 
L 331.615219 102.619531 
L 332.407059 102.039667 
L 333.1989 107.858445 
L 333.99074 127.20008 
L 334.78258 152.280206 
L 335.574421 149.762838 
L 336.366261 129.174667 
L 337.158101 101.207188 
L 337.949942 91.842698 
L 338.741782 89.796589 
L 340.325463 106.943785 
L 341.117303 118.427829 
L 341.909144 135.780798 
L 342.700984 147.050952 
L 343.492824 149.996748 
L 344.284665 152.441905 
L 345.076505 163.601152 
L 346.660186 189.902677 
L 347.452026 201.216649 
L 348.243866 208.303664 
L 349.827547 216.396507 
L 350.619387 219.959004 
L 351.411228 214.954529 
L 352.203068 212.218971 
L 352.994909 210.680956 
L 353.786749 205.789112 
L 354.578589 196.305417 
L 355.37043 190.309042 
L 356.16227 176.434857 
L 356.95411 159.644357 
L 357.745951 137.241118 
L 358.537791 123.661825 
L 359.329631 112.559366 
L 360.121472 107.166324 
L 360.913312 110.198147 
L 362.496993 122.457451 
L 363.288833 141.471862 
L 364.872514 173.372232 
L 365.664354 183.880582 
L 366.456195 198.459037 
L 367.248035 209.29056 
L 368.039875 217.447322 
L 368.831716 223.150526 
L 369.623556 224.337671 
L 370.415396 218.787081 
L 371.207237 219.786447 
L 372.790917 224.983649 
L 373.582758 224.910135 
L 375.166438 219.275352 
L 375.958279 218.562337 
L 377.54196 221.015118 
L 378.3338 221.538804 
L 379.12564 221.241861 
L 379.917481 221.767284 
L 380.709321 221.41172 
L 381.501161 219.303962 
L 382.293002 217.944689 
L 383.084842 218.17232 
L 383.876682 220.825274 
L 384.668523 226.741969 
L 384.668523 226.741969 
" style="fill:none;stroke:#1f77b4;stroke-linecap:square;stroke-width:1.5;"/>
   </g>
   <g id="line2d_14">
    <path clip-path="url(#p09600e6371)" d="M 60.013977 258.927061 
L 61.597658 261.279733 
L 62.389498 190.926714 
L 63.181339 195.194012 
L 63.973179 200.787941 
L 64.765019 226.457103 
L 66.3487 238.53184 
L 67.14054 177.480737 
L 67.932381 185.359 
L 68.724221 191.785257 
L 69.516062 166.558443 
L 71.099742 178.053546 
L 71.891583 222.708361 
L 73.475263 228.886202 
L 74.267104 118.658424 
L 75.850784 126.601365 
L 76.642625 79.799298 
L 78.226305 88.705732 
L 79.018146 34.414125 
L 80.601826 42.711095 
L 81.393667 107.249443 
L 82.977348 112.636408 
L 83.769188 51.164603 
L 85.352869 56.842896 
L 86.144709 86.617351 
L 87.72839 92.126457 
L 88.52023 49.556042 
L 90.103911 54.798251 
L 90.895751 68.619216 
L 92.479432 73.116882 
L 93.271272 90.977392 
L 94.854953 95.373801 
L 95.646793 84.666867 
L 97.230474 88.796379 
L 98.022314 120.347258 
L 99.605995 123.99257 
L 100.397835 60.848773 
L 101.981516 65.141768 
L 102.773356 74.704968 
L 104.357037 78.525512 
L 105.148877 114.343545 
L 106.732558 117.869347 
L 107.524399 137.100589 
L 109.108079 139.81852 
L 109.89992 80.12757 
L 111.4836 84.013242 
L 112.275441 122.286028 
L 113.859121 125.684426 
L 114.650962 65.989674 
L 116.234642 69.947112 
L 117.026483 82.76713 
L 118.610164 86.264579 
L 119.402004 73.034471 
L 120.985685 76.842297 
L 121.777525 52.504791 
L 123.361206 56.323653 
L 124.153046 94.371988 
L 125.736727 97.948521 
L 126.528567 116.13075 
L 128.112248 119.064745 
L 128.904088 85.430782 
L 130.487769 88.94526 
L 131.279609 92.609112 
L 132.86329 96.061314 
L 133.65513 95.310048 
L 135.238811 98.785018 
L 136.030651 72.047564 
L 137.614332 75.736001 
L 138.406172 118.979107 
L 139.989853 121.762489 
L 140.781693 108.479205 
L 142.365374 111.777381 
L 143.157215 68.31653 
L 144.740895 72.011265 
L 145.532736 87.600522 
L 147.116416 91.090246 
L 147.908257 76.291984 
L 149.491937 79.900742 
L 150.283778 78.426614 
L 151.867458 82.009752 
L 152.659299 60.969946 
L 154.242979 64.68587 
L 155.03482 116.529261 
L 156.618501 119.689643 
L 157.410341 86.392442 
L 158.994022 89.860535 
L 159.785862 68.016628 
L 161.369543 71.655793 
L 162.161383 107.729585 
L 163.745064 110.890086 
L 164.536904 66.39355 
L 166.120585 70.031969 
L 166.912425 100.677794 
L 168.496106 103.639718 
L 169.287946 99.486419 
L 170.871627 102.815292 
L 171.663467 81.381 
L 173.247148 84.881148 
L 174.038988 135.105536 
L 175.622669 138.051331 
L 176.414509 83.552387 
L 177.99819 87.031754 
L 178.79003 107.48218 
L 180.373711 110.710135 
L 181.165552 83.922035 
L 182.749232 87.382625 
L 183.541073 78.113265 
L 185.124753 81.614059 
L 185.916594 81.633821 
L 187.500274 85.101694 
L 188.292115 84.701095 
L 189.875795 88.138781 
L 190.667636 80.728953 
L 192.251317 84.19557 
L 193.043157 100.059772 
L 194.626838 103.353788 
L 195.418678 84.759839 
L 197.002359 88.186048 
L 197.794199 91.52903 
L 199.37788 94.896053 
L 200.16972 86.897423 
L 201.753401 90.299098 
L 202.545241 89.109354 
L 204.128922 92.489042 
L 204.920762 114.595534 
L 206.504443 117.461617 
L 207.296283 95.451187 
L 208.879964 98.772811 
L 209.671804 92.503644 
L 213.631006 100.664601 
L 214.422846 95.26222 
L 216.006527 98.575134 
L 216.798368 97.805752 
L 218.382048 101.094539 
L 219.173889 111.592676 
L 220.757569 114.75462 
L 221.54941 101.494596 
L 223.13309 104.747135 
L 223.924931 105.834806 
L 225.508611 109.048126 
L 226.300452 130.5268 
L 227.884132 133.484717 
L 228.675973 120.254948 
L 230.259654 123.336449 
L 231.051494 114.704993 
L 232.635175 117.83444 
L 233.427015 104.230388 
L 235.010696 107.446661 
L 235.802536 104.598033 
L 237.386217 107.808483 
L 238.178057 108.161849 
L 239.761738 111.339786 
L 240.553578 123.260149 
L 242.137259 125.813833 
L 242.929099 112.743931 
L 244.51278 115.281469 
L 245.30462 109.836744 
L 246.888301 112.993374 
L 247.680141 111.485527 
L 249.263822 114.626044 
L 250.055662 115.324865 
L 251.639343 118.430407 
L 252.431183 119.473274 
L 254.014864 122.539342 
L 254.806705 145.714574 
L 256.390385 148.46782 
L 257.182226 142.420388 
L 258.765906 145.118573 
L 259.557747 119.455379 
L 261.141427 122.516795 
L 261.933268 125.750912 
L 263.516948 128.754688 
L 264.308789 149.380854 
L 265.89247 152.111162 
L 266.68431 150.765508 
L 268.267991 153.522268 
L 269.059831 148.596752 
L 270.643512 151.287314 
L 271.435352 194.77989 
L 273.019033 196.528835 
L 273.810873 161.606595 
L 275.394554 164.22567 
L 276.186394 136.419968 
L 277.770075 139.316441 
L 278.561915 142.527758 
L 280.145596 145.355588 
L 280.937436 133.393289 
L 282.521117 136.31506 
L 283.312957 163.720621 
L 284.896638 166.327141 
L 285.688478 149.857091 
L 287.272159 152.600269 
L 288.063999 147.097275 
L 289.64768 149.877856 
L 290.439521 156.256617 
L 292.023201 158.944972 
L 292.815042 148.841764 
L 294.398722 151.597369 
L 295.190563 155.238929 
L 296.774243 157.944347 
L 297.566084 166.831571 
L 299.149764 169.402081 
L 299.941605 153.780455 
L 301.525285 156.495262 
L 302.317126 145.351344 
L 303.900807 148.148444 
L 304.692647 151.472071 
L 306.276328 154.203618 
L 307.068168 143.368516 
L 308.651849 146.180506 
L 309.443689 152.652307 
L 311.02737 155.373039 
L 311.81921 159.807606 
L 313.402891 162.436886 
L 314.194731 150.769107 
L 315.778412 153.508651 
L 316.570252 198.258892 
L 318.153933 200.386127 
L 318.945773 154.110544 
L 320.529454 156.811921 
L 321.321294 147.431779 
L 322.904975 150.197758 
L 323.696815 176.738537 
L 325.280496 178.938736 
L 326.072336 155.807018 
L 327.656017 158.491774 
L 328.447858 172.132626 
L 330.031538 174.646395 
L 330.823379 136.282734 
L 332.407059 137.385889 
L 333.1989 190.978421 
L 334.78258 193.169528 
L 335.574421 205.593243 
L 337.158101 207.19576 
L 337.949942 224.91103 
L 339.533623 226.027318 
L 340.325463 224.176063 
L 341.909144 225.80448 
L 342.700984 178.181018 
L 344.284665 179.9429 
L 345.076505 209.589289 
L 346.660186 211.597635 
L 347.452026 169.06902 
L 349.035707 171.61031 
L 349.827547 176.059886 
L 351.411228 178.500937 
L 352.203068 168.631773 
L 353.786749 171.176137 
L 354.578589 206.311104 
L 356.16227 208.416659 
L 356.95411 222.85978 
L 358.537791 224.696155 
L 359.329631 250.908312 
L 360.913312 251.783749 
L 361.705152 230.487344 
L 363.288833 232.123953 
L 364.080674 226.778474 
L 365.664354 228.493149 
L 366.456195 172.495585 
L 368.039875 174.994693 
L 368.831716 181.543805 
L 370.415396 183.940365 
L 371.207237 172.813561 
L 372.790917 175.306344 
L 373.582758 170.586553 
L 375.166438 173.101527 
L 375.958279 179.48382 
L 377.54196 181.902816 
L 378.3338 170.056588 
L 379.917481 172.574296 
L 380.709321 184.311091 
L 382.293002 186.676004 
L 383.084842 172.725105 
L 384.668523 175.214085 
L 384.668523 175.214085 
" style="fill:none;stroke:#ff7f0e;stroke-linecap:square;stroke-opacity:0.3;stroke-width:1.5;"/>
   </g>
   <g id="line2d_15">
    <path clip-path="url(#p09600e6371)" d="M 60.013977 276.334125 
L 60.805818 243.84704 
L 61.597658 224.56173 
L 62.389498 215.437145 
L 63.181339 213.432237 
L 63.973179 215.505954 
L 64.765019 210.856202 
L 65.55686 211.314788 
L 66.3487 213.380461 
L 67.14054 204.909821 
L 67.932381 190.425291 
L 68.724221 179.315073 
L 69.516062 176.406632 
L 70.307902 190.682626 
L 71.099742 201.790976 
L 71.891583 199.552933 
L 72.683423 196.677996 
L 73.475263 186.013049 
L 75.058944 143.687943 
L 75.850784 114.701906 
L 77.434465 68.149796 
L 78.226305 63.731845 
L 79.018146 56.922849 
L 79.809986 63.70889 
L 80.601826 72.930837 
L 81.393667 76.413395 
L 82.185507 77.693305 
L 82.977348 83.322186 
L 83.769188 81.769112 
L 84.561028 81.303406 
L 85.352869 72.912684 
L 86.144709 70.072888 
L 86.936549 68.569447 
L 87.72839 72.430338 
L 88.52023 69.663941 
L 90.103911 60.041275 
L 90.895751 61.798395 
L 91.687591 69.022833 
L 92.479432 79.724268 
L 93.271272 85.03901 
L 94.063113 85.97333 
L 94.854953 87.805194 
L 95.646793 91.914912 
L 96.438634 102.016123 
L 97.230474 105.050239 
L 98.022314 105.13314 
L 98.814155 101.489212 
L 99.605995 96.692861 
L 100.397835 88.974212 
L 101.189676 77.214727 
L 101.981516 68.479575 
L 102.773356 68.881852 
L 103.565197 74.978507 
L 104.357037 90.616789 
L 105.148877 102.090097 
L 105.940718 118.609575 
L 106.732558 127.222309 
L 107.524399 129.634545 
L 108.316239 122.432051 
L 109.108079 112.768644 
L 109.89992 107.242266 
L 110.69176 108.327449 
L 112.275441 101.37031 
L 113.067281 98.263381 
L 113.859121 99.307493 
L 115.442802 86.828892 
L 116.234642 77.556474 
L 117.026483 73.839279 
L 117.818323 76.331305 
L 118.610164 81.591648 
L 119.402004 78.723452 
L 120.193844 70.593707 
L 120.985685 64.758814 
L 121.777525 63.392439 
L 122.569365 64.289676 
L 123.361206 70.669329 
L 124.153046 79.037808 
L 125.736727 105.182181 
L 126.528567 110.337118 
L 127.320407 110.098538 
L 128.112248 104.451244 
L 128.904088 100.642872 
L 129.695928 96.249803 
L 130.487769 91.214131 
L 131.279609 89.488173 
L 132.07145 92.873873 
L 132.86329 96.793035 
L 133.65513 95.279231 
L 134.446971 88.5161 
L 135.238811 85.042073 
L 136.030651 84.934427 
L 136.822492 88.982204 
L 138.406172 99.926659 
L 139.198013 110.448995 
L 139.989853 117.203034 
L 140.781693 115.27708 
L 141.573534 106.390604 
L 142.365374 93.619177 
L 143.157215 85.888909 
L 143.949055 82.128251 
L 145.532736 78.573661 
L 146.324576 79.733212 
L 147.116416 84.21541 
L 147.908257 83.629851 
L 148.700097 83.841921 
L 150.283778 77.756425 
L 151.075618 70.704202 
L 151.867458 69.978559 
L 152.659299 71.868228 
L 154.242979 87.548716 
L 155.03482 93.735325 
L 155.82666 101.113664 
L 156.618501 105.410021 
L 157.410341 102.529618 
L 158.994022 79.756303 
L 159.785862 76.577847 
L 161.369543 89.01363 
L 162.161383 90.682214 
L 162.953223 88.755153 
L 163.745064 89.537085 
L 165.328744 86.655948 
L 166.120585 83.564231 
L 166.912425 85.905037 
L 167.704266 93.25268 
L 168.496106 101.765837 
L 169.287946 102.746107 
L 170.079787 96.039025 
L 170.871627 90.847162 
L 171.663467 92.157499 
L 172.455308 101.727132 
L 173.247148 108.471854 
L 174.038988 112.038542 
L 174.830829 112.072 
L 175.622669 112.839138 
L 177.20635 106.77782 
L 177.99819 98.402901 
L 178.79003 95.30288 
L 179.581871 95.832814 
L 180.373711 99.429889 
L 181.165552 95.992268 
L 181.957392 90.877164 
L 182.749232 84.25015 
L 183.541073 80.612302 
L 184.332913 79.513007 
L 185.124753 81.497205 
L 185.916594 81.53508 
L 187.500274 84.899223 
L 188.292115 85.070308 
L 189.083955 83.686814 
L 189.875795 83.727928 
L 190.667636 84.795088 
L 191.459476 88.657873 
L 192.251317 91.41684 
L 193.043157 93.030522 
L 194.626838 94.689351 
L 196.210518 92.873722 
L 197.002359 90.23317 
L 197.794199 89.199938 
L 198.586039 89.480265 
L 199.37788 91.183453 
L 200.16972 90.737738 
L 200.96156 88.390043 
L 201.753401 88.272135 
L 202.545241 90.485371 
L 204.128922 102.128749 
L 204.920762 105.237614 
L 205.712603 107.613043 
L 206.504443 107.910675 
L 207.296283 105.860627 
L 208.088124 101.99108 
L 208.879964 96.548335 
L 209.671804 94.140472 
L 210.463645 94.344302 
L 211.255485 96.541377 
L 212.047325 96.635075 
L 212.839166 97.167847 
L 213.631006 98.033936 
L 214.422846 97.960486 
L 215.214687 97.09565 
L 216.006527 97.340565 
L 216.798368 98.677506 
L 218.382048 105.625835 
L 219.173889 107.308551 
L 219.965729 108.257011 
L 220.757569 108.570347 
L 221.54941 107.946947 
L 222.34125 105.076534 
L 223.13309 103.876217 
L 223.924931 105.905216 
L 225.508611 117.855944 
L 227.092292 125.86648 
L 227.884132 127.527303 
L 228.675973 126.977688 
L 229.467813 125.660974 
L 230.259654 120.836055 
L 231.051494 117.206453 
L 231.843334 114.401633 
L 232.635175 112.509864 
L 233.427015 109.443714 
L 234.218855 107.241177 
L 236.594376 104.705151 
L 238.178057 108.826175 
L 238.969897 112.936448 
L 239.761738 116.360716 
L 240.553578 118.370624 
L 241.345419 120.022742 
L 242.137259 120.149522 
L 242.929099 118.810749 
L 243.72094 116.662537 
L 244.51278 113.415285 
L 245.30462 111.626785 
L 246.096461 111.043267 
L 246.888301 112.059857 
L 247.680141 112.205624 
L 248.471982 112.955777 
L 249.263822 114.437028 
L 250.055662 115.4523 
L 250.847503 114.87761 
L 251.639343 116.914974 
L 252.431183 120.495003 
L 254.806705 136.743515 
L 255.598545 143.47981 
L 256.390385 146.368298 
L 257.182226 145.637808 
L 257.974066 141.508372 
L 258.765906 134.624689 
L 260.349587 124.538531 
L 261.141427 123.048928 
L 261.933268 124.113993 
L 262.725108 128.703963 
L 263.516948 136.426418 
L 265.100629 147.030415 
L 265.89247 150.695541 
L 266.68431 152.82596 
L 267.47615 149.509258 
L 268.267991 148.515037 
L 269.059831 152.646349 
L 269.851671 162.478963 
L 270.643512 170.415883 
L 272.227192 181.857047 
L 273.019033 182.58628 
L 273.810873 177.553358 
L 274.602713 167.711011 
L 275.394554 153.965876 
L 276.186394 145.784462 
L 276.978234 142.158329 
L 277.770075 141.989693 
L 278.561915 139.423541 
L 279.353756 136.267864 
L 280.145596 138.374522 
L 280.937436 139.88513 
L 281.729277 144.401654 
L 284.104798 155.689739 
L 284.896638 158.711359 
L 285.688478 158.315434 
L 286.480319 155.191055 
L 287.272159 150.265695 
L 288.063999 148.907426 
L 288.85584 150.337202 
L 289.64768 152.839385 
L 290.439521 153.36427 
L 291.231361 153.53102 
L 292.023201 154.079736 
L 292.815042 153.809596 
L 293.606882 152.765613 
L 294.398722 152.474555 
L 295.190563 153.913638 
L 296.774243 161.895742 
L 298.357924 164.445634 
L 299.149764 163.202096 
L 299.941605 160.499118 
L 301.525285 152.089994 
L 302.317126 149.332799 
L 303.108966 149.249659 
L 303.900807 150.164709 
L 305.484487 148.522456 
L 306.276328 148.985731 
L 307.860008 148.152232 
L 308.651849 148.474187 
L 309.443689 149.978259 
L 311.02737 157.204562 
L 311.81921 158.370959 
L 312.61105 154.683243 
L 313.402891 154.476986 
L 314.194731 157.905812 
L 314.986572 167.711404 
L 315.778412 174.13532 
L 316.570252 178.176368 
L 317.362093 180.884756 
L 318.153933 180.641197 
L 318.945773 175.356391 
L 320.529454 152.849116 
L 321.321294 149.717789 
L 322.113135 154.080742 
L 322.904975 162.068124 
L 323.696815 164.955783 
L 324.488656 165.951429 
L 325.280496 167.626472 
L 326.072336 167.653733 
L 326.864177 169.965279 
L 327.656017 166.845347 
L 328.447858 164.191109 
L 329.239698 156.545751 
L 330.031538 155.019058 
L 330.823379 154.447431 
L 331.615219 155.375661 
L 332.407059 159.41354 
L 333.1989 168.329194 
L 333.99074 179.110618 
L 334.78258 194.427758 
L 335.574421 204.925437 
L 336.366261 212.121767 
L 337.158101 213.589364 
L 337.949942 218.713538 
L 338.741782 226.586706 
L 339.533623 227.496126 
L 340.325463 224.428123 
L 341.909144 204.864497 
L 342.700984 198.341582 
L 343.492824 197.962326 
L 344.284665 195.983968 
L 345.076505 193.429114 
L 345.868345 191.747284 
L 346.660186 193.023698 
L 348.243866 183.069481 
L 349.035707 175.256423 
L 350.619387 167.894058 
L 351.411228 171.878772 
L 352.203068 174.634055 
L 352.994909 178.09238 
L 353.786749 184.177907 
L 355.37043 200.197636 
L 357.745951 230.888396 
L 359.329631 240.59613 
L 360.121472 243.486358 
L 360.913312 242.641367 
L 361.705152 240.699652 
L 362.496993 241.393533 
L 363.288833 234.051857 
L 364.080674 225.506752 
L 366.456195 195.042373 
L 367.248035 186.762193 
L 368.039875 180.073521 
L 368.831716 175.28821 
L 369.623556 174.897024 
L 370.415396 179.231774 
L 371.207237 177.825128 
L 372.790917 173.108839 
L 373.582758 172.384515 
L 374.374598 174.13219 
L 375.166438 176.181589 
L 375.958279 176.528726 
L 376.750119 175.659426 
L 378.3338 176.011287 
L 379.12564 177.751252 
L 380.709321 178.684773 
L 381.501161 180.836579 
L 382.293002 181.96868 
L 383.084842 181.253881 
L 383.876682 177.864987 
L 384.668523 170.974802 
L 384.668523 170.974802 
" style="fill:none;stroke:#ff7f0e;stroke-linecap:square;stroke-width:1.5;"/>
   </g>
   <g id="line2d_16">
    <path clip-path="url(#p09600e6371)" d="M 60.013977 36.685067 
L 60.805818 35.59915 
L 61.597658 36.876374 
L 62.389498 39.973194 
L 63.181339 44.346066 
L 63.973179 49.451445 
L 64.765019 53.582865 
L 65.55686 57.11659 
L 67.14054 66.854174 
L 68.724221 77.651018 
L 69.516062 83.803167 
L 71.099742 100.801707 
L 71.891583 106.397507 
L 72.683423 114.698162 
L 73.475263 117.045579 
L 74.267104 116.344381 
L 75.058944 112.835471 
L 76.642625 103.703528 
L 77.434465 97.156861 
L 78.226305 96.136387 
L 79.018146 97.649651 
L 79.809986 106.697376 
L 80.601826 118.43107 
L 82.185507 129.734032 
L 82.977348 132.433512 
L 83.769188 133.119346 
L 84.561028 132.045034 
L 85.352869 126.943206 
L 86.144709 124.546728 
L 86.936549 124.169663 
L 87.72839 125.363635 
L 89.31207 120.901037 
L 90.103911 119.582428 
L 90.895751 117.145486 
L 91.687591 115.580714 
L 92.479432 114.819799 
L 93.271272 113.324822 
L 94.063113 114.739919 
L 94.854953 114.659141 
L 95.646793 112.016987 
L 96.438634 104.689027 
L 97.230474 100.547638 
L 98.022314 99.04524 
L 98.814155 97.982579 
L 99.605995 102.434297 
L 100.397835 111.227188 
L 101.981516 143.769052 
L 102.773356 151.435794 
L 103.565197 150.141636 
L 104.357037 143.805108 
L 105.148877 143.630089 
L 105.940718 149.463887 
L 106.732558 148.998306 
L 109.108079 148.244335 
L 109.89992 139.389155 
L 111.4836 112.314339 
L 112.275441 104.913401 
L 113.067281 106.53613 
L 113.859121 114.967764 
L 114.650962 118.9125 
L 115.442802 125.287608 
L 116.234642 130.724308 
L 117.026483 133.307189 
L 117.818323 126.517735 
L 118.610164 124.677424 
L 119.402004 129.198683 
L 120.193844 145.236414 
L 120.985685 156.591255 
L 121.777525 163.335986 
L 122.569365 165.63457 
L 123.361206 167.208585 
L 124.153046 164.824817 
L 124.944886 156.217634 
L 125.736727 142.811692 
L 126.528567 140.06501 
L 127.320407 147.420307 
L 128.112248 157.979128 
L 128.904088 156.937787 
L 129.695928 149.70576 
L 131.279609 132.57104 
L 132.07145 120.764795 
L 132.86329 116.735489 
L 133.65513 122.863228 
L 134.446971 139.892347 
L 135.238811 159.428989 
L 136.030651 171.84778 
L 136.822492 186.427244 
L 137.614332 191.250034 
L 138.406172 190.017166 
L 139.989853 162.061914 
L 140.781693 158.873591 
L 141.573534 162.673293 
L 142.365374 170.600496 
L 143.157215 175.57723 
L 144.740895 196.030676 
L 145.532736 195.030328 
L 146.324576 187.598763 
L 147.116416 171.745824 
L 148.700097 148.571163 
L 149.491937 139.806881 
L 150.283778 132.586079 
L 151.075618 131.238357 
L 151.867458 134.521945 
L 152.659299 135.444265 
L 153.451139 135.364649 
L 155.03482 141.492659 
L 155.82666 143.322232 
L 156.618501 147.456936 
L 157.410341 154.46061 
L 158.994022 173.602593 
L 159.785862 178.56428 
L 160.577702 180.261915 
L 162.161383 174.540453 
L 163.745064 162.763874 
L 164.536904 162.130272 
L 165.328744 170.484127 
L 166.120585 174.779248 
L 166.912425 173.088356 
L 169.287946 148.657412 
L 170.079787 139.617792 
L 170.871627 132.74855 
L 171.663467 132.241278 
L 172.455308 137.009771 
L 173.247148 150.748253 
L 174.038988 159.141148 
L 174.830829 168.997599 
L 175.622669 173.618085 
L 176.414509 177.160377 
L 177.20635 176.599611 
L 177.99819 175.40871 
L 178.79003 175.084306 
L 179.581871 175.720977 
L 180.373711 174.53411 
L 181.165552 174.543585 
L 181.957392 177.284798 
L 182.749232 178.501802 
L 183.541073 173.6137 
L 185.124753 154.540366 
L 185.916594 150.681577 
L 186.708434 151.178551 
L 187.500274 153.44922 
L 188.292115 155.041446 
L 189.083955 157.187469 
L 189.875795 161.123464 
L 190.667636 161.562028 
L 191.459476 160.375314 
L 192.251317 157.978188 
L 193.834997 161.238893 
L 195.418678 169.788816 
L 196.210518 173.584682 
L 197.002359 178.652819 
L 199.37788 196.816713 
L 200.16972 199.694043 
L 200.96156 204.159616 
L 201.753401 199.10419 
L 202.545241 190.151987 
L 204.128922 165.102354 
L 204.920762 157.462144 
L 205.712603 151.442518 
L 206.504443 151.577848 
L 207.296283 155.234885 
L 208.088124 164.15128 
L 208.879964 175.887828 
L 209.671804 179.507691 
L 211.255485 175.230465 
L 212.047325 176.21515 
L 212.839166 176.073097 
L 213.631006 179.174692 
L 214.422846 188.49975 
L 216.006527 216.115278 
L 216.798368 223.696902 
L 217.590208 227.309479 
L 218.382048 223.522346 
L 219.173889 217.86845 
L 220.757569 195.503984 
L 221.54941 190.671325 
L 223.13309 198.308382 
L 223.924931 196.523131 
L 224.716771 190.927953 
L 225.508611 187.063369 
L 226.300452 181.951334 
L 227.884132 168.394234 
L 228.675973 167.916303 
L 230.259654 183.185475 
L 231.051494 181.196039 
L 232.635175 160.800336 
L 233.427015 155.668025 
L 234.218855 152.159092 
L 235.010696 151.313751 
L 235.802536 155.869847 
L 237.386217 176.673845 
L 238.178057 178.333992 
L 238.969897 169.27974 
L 239.761738 162.362525 
L 240.553578 164.50174 
L 241.345419 178.209896 
L 242.137259 186.064858 
L 242.929099 190.423961 
L 243.72094 188.187143 
L 244.51278 188.262193 
L 245.30462 183.575269 
L 246.096461 174.90795 
L 246.888301 164.576466 
L 247.680141 165.952434 
L 248.471982 176.318114 
L 249.263822 190.286343 
L 250.055662 191.518845 
L 251.639343 173.464275 
L 252.431183 170.904828 
L 253.223024 172.351086 
L 254.014864 173.035631 
L 254.806705 176.510273 
L 255.598545 178.207871 
L 256.390385 186.099521 
L 257.182226 192.321584 
L 257.974066 200.305288 
L 258.765906 201.702473 
L 259.557747 205.621944 
L 260.349587 211.445889 
L 261.141427 213.073338 
L 261.933268 207.246392 
L 262.725108 196.620917 
L 263.516948 183.376026 
L 264.308789 176.697241 
L 265.100629 174.478062 
L 265.89247 176.876467 
L 266.68431 177.987318 
L 268.267991 189.352546 
L 269.059831 188.971245 
L 269.851671 182.586557 
L 270.643512 177.784393 
L 271.435352 175.90565 
L 272.227192 177.202174 
L 273.019033 180.312185 
L 274.602713 189.104805 
L 275.394554 195.781557 
L 276.186394 198.720052 
L 276.978234 203.646165 
L 277.770075 198.662523 
L 278.561915 191.653424 
L 279.353756 175.080714 
L 280.145596 164.746527 
L 280.937436 158.776633 
L 281.729277 157.349278 
L 282.521117 159.509503 
L 283.312957 166.610348 
L 284.104798 177.277599 
L 284.896638 193.259561 
L 285.688478 201.384411 
L 286.480319 206.149936 
L 287.272159 200.529874 
L 288.063999 198.083819 
L 288.85584 184.096226 
L 289.64768 175.263773 
L 290.439521 172.024944 
L 291.231361 180.117662 
L 292.023201 189.514375 
L 292.815042 201.957744 
L 293.606882 220.838779 
L 294.398722 233.255071 
L 295.190563 235.031281 
L 295.982403 229.039546 
L 296.774243 207.558971 
L 297.566084 190.242918 
L 298.357924 167.817129 
L 299.149764 160.017999 
L 299.941605 157.025217 
L 300.733445 167.791997 
L 301.525285 182.543035 
L 302.317126 189.697577 
L 303.108966 191.54952 
L 303.900807 196.410156 
L 304.692647 196.930288 
L 305.484487 196.510313 
L 306.276328 187.863278 
L 307.068168 187.690631 
L 307.860008 186.065699 
L 308.651849 194.339012 
L 309.443689 200.578952 
L 310.235529 208.454978 
L 311.02737 211.861998 
L 311.81921 219.398874 
L 312.61105 232.062433 
L 313.402891 239.289603 
L 314.194731 235.930093 
L 314.986572 228.360879 
L 318.153933 161.342934 
L 318.945773 151.126028 
L 319.737614 145.213921 
L 320.529454 152.339817 
L 321.321294 161.385419 
L 322.904975 197.447184 
L 323.696815 208.123621 
L 324.488656 214.083168 
L 325.280496 208.821844 
L 326.072336 201.253557 
L 326.864177 187.967539 
L 327.656017 171.216086 
L 328.447858 161.449899 
L 329.239698 156.960015 
L 330.031538 159.664261 
L 330.823379 161.595091 
L 331.615219 165.524379 
L 332.407059 172.374723 
L 333.1989 176.398941 
L 333.99074 181.281956 
L 334.78258 182.354698 
L 335.574421 181.603578 
L 336.366261 176.108961 
L 337.158101 172.203372 
L 337.949942 169.537361 
L 338.741782 169.151191 
L 339.533623 167.86577 
L 340.325463 167.575044 
L 341.117303 171.530499 
L 341.909144 174.617126 
L 342.700984 173.245548 
L 343.492824 170.549306 
L 344.284665 162.256546 
L 345.076505 156.202301 
L 345.868345 147.296866 
L 346.660186 143.714821 
L 347.452026 142.331651 
L 348.243866 147.63363 
L 349.035707 154.072401 
L 349.827547 156.299281 
L 350.619387 154.900441 
L 351.411228 156.476202 
L 352.203068 156.667785 
L 352.994909 156.994822 
L 353.786749 153.926032 
L 354.578589 154.866297 
L 355.37043 161.708419 
L 356.16227 165.180914 
L 356.95411 169.3167 
L 357.745951 165.163421 
L 358.537791 159.21939 
L 359.329631 157.710371 
L 360.121472 160.573494 
L 360.913312 161.297298 
L 361.705152 157.784065 
L 362.496993 150.78829 
L 363.288833 149.080858 
L 364.080674 146.018877 
L 364.872514 151.928176 
L 365.664354 151.892157 
L 366.456195 156.112993 
L 368.039875 169.167683 
L 368.831716 169.248304 
L 369.623556 163.812353 
L 370.415396 155.912614 
L 371.207237 152.778061 
L 371.999077 151.097447 
L 372.790917 153.842312 
L 373.582758 157.410462 
L 374.374598 160.133151 
L 375.166438 166.378071 
L 375.958279 173.571142 
L 376.750119 187.532186 
L 377.54196 193.198635 
L 378.3338 193.797088 
L 379.12564 187.383692 
L 380.709321 170.261198 
L 381.501161 156.717386 
L 382.293002 146.950482 
L 383.084842 144.371909 
L 383.876682 152.393093 
L 384.668523 174.425458 
L 384.668523 174.425458 
" style="fill:none;stroke:#008000;stroke-linecap:square;stroke-width:1.5;"/>
   </g>
   <g id="patch_3">
    <path d="M 43.78125 288.430125 
L 43.78125 22.318125 
" style="fill:none;stroke:#000000;stroke-linecap:square;stroke-linejoin:miter;stroke-width:0.8;"/>
   </g>
   <g id="patch_4">
    <path d="M 400.90125 288.430125 
L 400.90125 22.318125 
" style="fill:none;stroke:#000000;stroke-linecap:square;stroke-linejoin:miter;stroke-width:0.8;"/>
   </g>
   <g id="patch_5">
    <path d="M 43.78125 288.430125 
L 400.90125 288.430125 
" style="fill:none;stroke:#000000;stroke-linecap:square;stroke-linejoin:miter;stroke-width:0.8;"/>
   </g>
   <g id="patch_6">
    <path d="M 43.78125 22.318125 
L 400.90125 22.318125 
" style="fill:none;stroke:#000000;stroke-linecap:square;stroke-linejoin:miter;stroke-width:0.8;"/>
   </g>
   <g id="text_14">
    <!-- Entropy and Loss. -->
    <defs>
     <path d="M 9.1875 72.90625 
L 59.90625 72.90625 
L 59.90625 58.6875 
L 27.984375 58.6875 
L 27.984375 45.125 
L 58.015625 45.125 
L 58.015625 30.90625 
L 27.984375 30.90625 
L 27.984375 14.203125 
L 60.984375 14.203125 
L 60.984375 0 
L 9.1875 0 
z
" id="DejaVuSans-Bold-69"/>
     <path d="M 63.375 33.296875 
L 63.375 0 
L 45.796875 0 
L 45.796875 5.421875 
L 45.796875 25.484375 
Q 45.796875 32.5625 45.484375 35.25 
Q 45.171875 37.9375 44.390625 39.203125 
Q 43.359375 40.921875 41.59375 41.875 
Q 39.84375 42.828125 37.59375 42.828125 
Q 32.125 42.828125 29 38.59375 
Q 25.875 34.375 25.875 26.90625 
L 25.875 0 
L 8.40625 0 
L 8.40625 54.6875 
L 25.875 54.6875 
L 25.875 46.6875 
Q 29.828125 51.46875 34.265625 53.734375 
Q 38.71875 56 44.09375 56 
Q 53.5625 56 58.46875 50.1875 
Q 63.375 44.390625 63.375 33.296875 
z
" id="DejaVuSans-Bold-110"/>
     <path d="M 27.484375 70.21875 
L 27.484375 54.6875 
L 45.515625 54.6875 
L 45.515625 42.1875 
L 27.484375 42.1875 
L 27.484375 19 
Q 27.484375 15.1875 29 13.84375 
Q 30.515625 12.5 35.015625 12.5 
L 44 12.5 
L 44 0 
L 29 0 
Q 18.65625 0 14.328125 4.3125 
Q 10.015625 8.640625 10.015625 19 
L 10.015625 42.1875 
L 1.3125 42.1875 
L 1.3125 54.6875 
L 10.015625 54.6875 
L 10.015625 70.21875 
z
" id="DejaVuSans-Bold-116"/>
     <path d="M 49.03125 39.796875 
Q 46.734375 40.875 44.453125 41.375 
Q 42.1875 41.890625 39.890625 41.890625 
Q 33.15625 41.890625 29.515625 37.5625 
Q 25.875 33.25 25.875 25.203125 
L 25.875 0 
L 8.40625 0 
L 8.40625 54.6875 
L 25.875 54.6875 
L 25.875 45.703125 
Q 29.25 51.078125 33.609375 53.53125 
Q 37.984375 56 44.09375 56 
Q 44.96875 56 45.984375 55.921875 
Q 47.015625 55.859375 48.96875 55.609375 
z
" id="DejaVuSans-Bold-114"/>
     <path d="M 34.421875 43.5 
Q 28.609375 43.5 25.5625 39.328125 
Q 22.515625 35.15625 22.515625 27.296875 
Q 22.515625 19.4375 25.5625 15.25 
Q 28.609375 11.078125 34.421875 11.078125 
Q 40.140625 11.078125 43.15625 15.25 
Q 46.1875 19.4375 46.1875 27.296875 
Q 46.1875 35.15625 43.15625 39.328125 
Q 40.140625 43.5 34.421875 43.5 
z
M 34.421875 56 
Q 48.53125 56 56.46875 48.375 
Q 64.40625 40.765625 64.40625 27.296875 
Q 64.40625 13.8125 56.46875 6.1875 
Q 48.53125 -1.421875 34.421875 -1.421875 
Q 20.265625 -1.421875 12.28125 6.1875 
Q 4.296875 13.8125 4.296875 27.296875 
Q 4.296875 40.765625 12.28125 48.375 
Q 20.265625 56 34.421875 56 
z
" id="DejaVuSans-Bold-111"/>
     <path d="M 25.875 7.90625 
L 25.875 -20.796875 
L 8.40625 -20.796875 
L 8.40625 54.6875 
L 25.875 54.6875 
L 25.875 46.6875 
Q 29.5 51.46875 33.890625 53.734375 
Q 38.28125 56 44 56 
Q 54.109375 56 60.59375 47.96875 
Q 67.09375 39.9375 67.09375 27.296875 
Q 67.09375 14.65625 60.59375 6.609375 
Q 54.109375 -1.421875 44 -1.421875 
Q 38.28125 -1.421875 33.890625 0.84375 
Q 29.5 3.125 25.875 7.90625 
z
M 37.5 43.3125 
Q 31.890625 43.3125 28.875 39.1875 
Q 25.875 35.0625 25.875 27.296875 
Q 25.875 19.53125 28.875 15.40625 
Q 31.890625 11.28125 37.5 11.28125 
Q 43.109375 11.28125 46.0625 15.375 
Q 49.03125 19.484375 49.03125 27.296875 
Q 49.03125 35.109375 46.0625 39.203125 
Q 43.109375 43.3125 37.5 43.3125 
z
" id="DejaVuSans-Bold-112"/>
     <path d="M 1.21875 54.6875 
L 18.703125 54.6875 
L 33.40625 17.578125 
L 45.90625 54.6875 
L 63.375 54.6875 
L 40.375 -5.171875 
Q 36.921875 -14.3125 32.296875 -17.9375 
Q 27.6875 -21.578125 20.125 -21.578125 
L 10.015625 -21.578125 
L 10.015625 -10.109375 
L 15.484375 -10.109375 
Q 19.921875 -10.109375 21.9375 -8.6875 
Q 23.96875 -7.28125 25.09375 -3.609375 
L 25.59375 -2.09375 
z
" id="DejaVuSans-Bold-121"/>
     <path id="DejaVuSans-Bold-32"/>
     <path d="M 32.90625 24.609375 
Q 27.4375 24.609375 24.671875 22.75 
Q 21.921875 20.90625 21.921875 17.28125 
Q 21.921875 13.96875 24.140625 12.078125 
Q 26.375 10.203125 30.328125 10.203125 
Q 35.25 10.203125 38.625 13.734375 
Q 42 17.28125 42 22.609375 
L 42 24.609375 
z
M 59.625 31.203125 
L 59.625 0 
L 42 0 
L 42 8.109375 
Q 38.484375 3.125 34.078125 0.84375 
Q 29.6875 -1.421875 23.390625 -1.421875 
Q 14.890625 -1.421875 9.59375 3.53125 
Q 4.296875 8.5 4.296875 16.40625 
Q 4.296875 26.03125 10.90625 30.515625 
Q 17.53125 35.015625 31.6875 35.015625 
L 42 35.015625 
L 42 36.375 
Q 42 40.53125 38.71875 42.453125 
Q 35.453125 44.390625 28.515625 44.390625 
Q 22.90625 44.390625 18.0625 43.265625 
Q 13.234375 42.140625 9.078125 39.890625 
L 9.078125 53.21875 
Q 14.703125 54.59375 20.359375 55.296875 
Q 26.03125 56 31.6875 56 
Q 46.484375 56 53.046875 50.171875 
Q 59.625 44.34375 59.625 31.203125 
z
" id="DejaVuSans-Bold-97"/>
     <path d="M 45.609375 46.6875 
L 45.609375 75.984375 
L 63.1875 75.984375 
L 63.1875 0 
L 45.609375 0 
L 45.609375 7.90625 
Q 42 3.078125 37.640625 0.828125 
Q 33.296875 -1.421875 27.59375 -1.421875 
Q 17.484375 -1.421875 10.984375 6.609375 
Q 4.5 14.65625 4.5 27.296875 
Q 4.5 39.9375 10.984375 47.96875 
Q 17.484375 56 27.59375 56 
Q 33.25 56 37.625 53.734375 
Q 42 51.46875 45.609375 46.6875 
z
M 34.078125 11.28125 
Q 39.703125 11.28125 42.65625 15.375 
Q 45.609375 19.484375 45.609375 27.296875 
Q 45.609375 35.109375 42.65625 39.203125 
Q 39.703125 43.3125 34.078125 43.3125 
Q 28.515625 43.3125 25.5625 39.203125 
Q 22.609375 35.109375 22.609375 27.296875 
Q 22.609375 19.484375 25.5625 15.375 
Q 28.515625 11.28125 34.078125 11.28125 
z
" id="DejaVuSans-Bold-100"/>
     <path d="M 9.1875 72.90625 
L 27.984375 72.90625 
L 27.984375 14.203125 
L 60.984375 14.203125 
L 60.984375 0 
L 9.1875 0 
z
" id="DejaVuSans-Bold-76"/>
     <path d="M 51.125 52.984375 
L 51.125 39.703125 
Q 45.515625 42.046875 40.28125 43.21875 
Q 35.0625 44.390625 30.421875 44.390625 
Q 25.4375 44.390625 23.015625 43.140625 
Q 20.609375 41.890625 20.609375 39.3125 
Q 20.609375 37.203125 22.4375 36.078125 
Q 24.265625 34.96875 29 34.421875 
L 32.078125 33.984375 
Q 45.515625 32.28125 50.140625 28.375 
Q 54.78125 24.46875 54.78125 16.109375 
Q 54.78125 7.375 48.328125 2.96875 
Q 41.890625 -1.421875 29.109375 -1.421875 
Q 23.6875 -1.421875 17.890625 -0.5625 
Q 12.109375 0.296875 6 2 
L 6 15.28125 
Q 11.234375 12.75 16.71875 11.46875 
Q 22.21875 10.203125 27.875 10.203125 
Q 33.015625 10.203125 35.59375 11.609375 
Q 38.1875 13.03125 38.1875 15.828125 
Q 38.1875 18.171875 36.40625 19.3125 
Q 34.625 20.453125 29.296875 21.09375 
L 26.21875 21.484375 
Q 14.546875 22.953125 9.859375 26.90625 
Q 5.171875 30.859375 5.171875 38.921875 
Q 5.171875 47.609375 11.125 51.796875 
Q 17.09375 56 29.390625 56 
Q 34.234375 56 39.546875 55.265625 
Q 44.875 54.546875 51.125 52.984375 
z
" id="DejaVuSans-Bold-115"/>
     <path d="M 10.203125 18.890625 
L 27.78125 18.890625 
L 27.78125 0 
L 10.203125 0 
z
" id="DejaVuSans-Bold-46"/>
    </defs>
    <g transform="translate(161.657813 16.318125)scale(0.12 -0.12)">
     <use xlink:href="#DejaVuSans-Bold-69"/>
     <use x="68.310547" xlink:href="#DejaVuSans-Bold-110"/>
     <use x="139.501953" xlink:href="#DejaVuSans-Bold-116"/>
     <use x="187.304688" xlink:href="#DejaVuSans-Bold-114"/>
     <use x="236.621094" xlink:href="#DejaVuSans-Bold-111"/>
     <use x="305.322266" xlink:href="#DejaVuSans-Bold-112"/>
     <use x="376.904297" xlink:href="#DejaVuSans-Bold-121"/>
     <use x="442.089844" xlink:href="#DejaVuSans-Bold-32"/>
     <use x="476.904297" xlink:href="#DejaVuSans-Bold-97"/>
     <use x="544.384766" xlink:href="#DejaVuSans-Bold-110"/>
     <use x="615.576172" xlink:href="#DejaVuSans-Bold-100"/>
     <use x="687.158203" xlink:href="#DejaVuSans-Bold-32"/>
     <use x="721.972656" xlink:href="#DejaVuSans-Bold-76"/>
     <use x="785.693359" xlink:href="#DejaVuSans-Bold-111"/>
     <use x="854.394531" xlink:href="#DejaVuSans-Bold-115"/>
     <use x="913.916016" xlink:href="#DejaVuSans-Bold-115"/>
     <use x="973.4375" xlink:href="#DejaVuSans-Bold-46"/>
    </g>
   </g>
   <g id="legend_1">
    <g id="patch_7">
     <path d="M 18.982656 353.02505 
L 429.699844 353.02505 
Q 431.699844 353.02505 431.699844 351.02505 
L 431.699844 337.346925 
Q 431.699844 335.346925 429.699844 335.346925 
L 18.982656 335.346925 
Q 16.982656 335.346925 16.982656 337.346925 
L 16.982656 351.02505 
Q 16.982656 353.02505 18.982656 353.02505 
z
" style="fill:#4c4c4c;opacity:0.5;stroke:#4c4c4c;stroke-linejoin:miter;"/>
    </g>
    <g id="patch_8">
     <path d="M 16.982656 351.02505 
L 427.699844 351.02505 
Q 429.699844 351.02505 429.699844 349.02505 
L 429.699844 335.346925 
Q 429.699844 333.346925 427.699844 333.346925 
L 16.982656 333.346925 
Q 14.982656 333.346925 14.982656 335.346925 
L 14.982656 349.02505 
Q 14.982656 351.02505 16.982656 351.02505 
z
" style="fill:#ffffff;stroke:#cccccc;stroke-linejoin:miter;"/>
    </g>
    <g id="line2d_17">
     <path d="M 18.982656 341.445362 
L 38.982656 341.445362 
" style="fill:none;stroke:#1f77b4;stroke-linecap:square;stroke-width:1.5;"/>
    </g>
    <g id="line2d_18"/>
    <g id="text_15">
     <!-- Policy Loss (Normalized) -->
     <defs>
      <path d="M 19.671875 64.796875 
L 19.671875 37.40625 
L 32.078125 37.40625 
Q 38.96875 37.40625 42.71875 40.96875 
Q 46.484375 44.53125 46.484375 51.125 
Q 46.484375 57.671875 42.71875 61.234375 
Q 38.96875 64.796875 32.078125 64.796875 
z
M 9.8125 72.90625 
L 32.078125 72.90625 
Q 44.34375 72.90625 50.609375 67.359375 
Q 56.890625 61.8125 56.890625 51.125 
Q 56.890625 40.328125 50.609375 34.8125 
Q 44.34375 29.296875 32.078125 29.296875 
L 19.671875 29.296875 
L 19.671875 0 
L 9.8125 0 
z
" id="DejaVuSans-80"/>
      <path d="M 9.421875 75.984375 
L 18.40625 75.984375 
L 18.40625 0 
L 9.421875 0 
z
" id="DejaVuSans-108"/>
      <path d="M 9.421875 54.6875 
L 18.40625 54.6875 
L 18.40625 0 
L 9.421875 0 
z
M 9.421875 75.984375 
L 18.40625 75.984375 
L 18.40625 64.59375 
L 9.421875 64.59375 
z
" id="DejaVuSans-105"/>
      <path d="M 32.171875 -5.078125 
Q 28.375 -14.84375 24.75 -17.8125 
Q 21.140625 -20.796875 15.09375 -20.796875 
L 7.90625 -20.796875 
L 7.90625 -13.28125 
L 13.1875 -13.28125 
Q 16.890625 -13.28125 18.9375 -11.515625 
Q 21 -9.765625 23.484375 -3.21875 
L 25.09375 0.875 
L 2.984375 54.6875 
L 12.5 54.6875 
L 29.59375 11.921875 
L 46.6875 54.6875 
L 56.203125 54.6875 
z
" id="DejaVuSans-121"/>
      <path id="DejaVuSans-32"/>
      <path d="M 31 75.875 
Q 24.46875 64.65625 21.28125 53.65625 
Q 18.109375 42.671875 18.109375 31.390625 
Q 18.109375 20.125 21.3125 9.0625 
Q 24.515625 -2 31 -13.1875 
L 23.1875 -13.1875 
Q 15.875 -1.703125 12.234375 9.375 
Q 8.59375 20.453125 8.59375 31.390625 
Q 8.59375 42.28125 12.203125 53.3125 
Q 15.828125 64.359375 23.1875 75.875 
z
" id="DejaVuSans-40"/>
      <path d="M 9.8125 72.90625 
L 23.09375 72.90625 
L 55.421875 11.921875 
L 55.421875 72.90625 
L 64.984375 72.90625 
L 64.984375 0 
L 51.703125 0 
L 19.390625 60.984375 
L 19.390625 0 
L 9.8125 0 
z
" id="DejaVuSans-78"/>
      <path d="M 41.109375 46.296875 
Q 39.59375 47.171875 37.8125 47.578125 
Q 36.03125 48 33.890625 48 
Q 26.265625 48 22.1875 43.046875 
Q 18.109375 38.09375 18.109375 28.8125 
L 18.109375 0 
L 9.078125 0 
L 9.078125 54.6875 
L 18.109375 54.6875 
L 18.109375 46.1875 
Q 20.953125 51.171875 25.484375 53.578125 
Q 30.03125 56 36.53125 56 
Q 37.453125 56 38.578125 55.875 
Q 39.703125 55.765625 41.0625 55.515625 
z
" id="DejaVuSans-114"/>
      <path d="M 52 44.1875 
Q 55.375 50.25 60.0625 53.125 
Q 64.75 56 71.09375 56 
Q 79.640625 56 84.28125 50.015625 
Q 88.921875 44.046875 88.921875 33.015625 
L 88.921875 0 
L 79.890625 0 
L 79.890625 32.71875 
Q 79.890625 40.578125 77.09375 44.375 
Q 74.3125 48.1875 68.609375 48.1875 
Q 61.625 48.1875 57.5625 43.546875 
Q 53.515625 38.921875 53.515625 30.90625 
L 53.515625 0 
L 44.484375 0 
L 44.484375 32.71875 
Q 44.484375 40.625 41.703125 44.40625 
Q 38.921875 48.1875 33.109375 48.1875 
Q 26.21875 48.1875 22.15625 43.53125 
Q 18.109375 38.875 18.109375 30.90625 
L 18.109375 0 
L 9.078125 0 
L 9.078125 54.6875 
L 18.109375 54.6875 
L 18.109375 46.1875 
Q 21.1875 51.21875 25.484375 53.609375 
Q 29.78125 56 35.6875 56 
Q 41.65625 56 45.828125 52.96875 
Q 50 49.953125 52 44.1875 
z
" id="DejaVuSans-109"/>
      <path d="M 34.28125 27.484375 
Q 23.390625 27.484375 19.1875 25 
Q 14.984375 22.515625 14.984375 16.5 
Q 14.984375 11.71875 18.140625 8.90625 
Q 21.296875 6.109375 26.703125 6.109375 
Q 34.1875 6.109375 38.703125 11.40625 
Q 43.21875 16.703125 43.21875 25.484375 
L 43.21875 27.484375 
z
M 52.203125 31.203125 
L 52.203125 0 
L 43.21875 0 
L 43.21875 8.296875 
Q 40.140625 3.328125 35.546875 0.953125 
Q 30.953125 -1.421875 24.3125 -1.421875 
Q 15.921875 -1.421875 10.953125 3.296875 
Q 6 8.015625 6 15.921875 
Q 6 25.140625 12.171875 29.828125 
Q 18.359375 34.515625 30.609375 34.515625 
L 43.21875 34.515625 
L 43.21875 35.40625 
Q 43.21875 41.609375 39.140625 45 
Q 35.0625 48.390625 27.6875 48.390625 
Q 23 48.390625 18.546875 47.265625 
Q 14.109375 46.140625 10.015625 43.890625 
L 10.015625 52.203125 
Q 14.9375 54.109375 19.578125 55.046875 
Q 24.21875 56 28.609375 56 
Q 40.484375 56 46.34375 49.84375 
Q 52.203125 43.703125 52.203125 31.203125 
z
" id="DejaVuSans-97"/>
      <path d="M 5.515625 54.6875 
L 48.1875 54.6875 
L 48.1875 46.484375 
L 14.40625 7.171875 
L 48.1875 7.171875 
L 48.1875 0 
L 4.296875 0 
L 4.296875 8.203125 
L 38.09375 47.515625 
L 5.515625 47.515625 
z
" id="DejaVuSans-122"/>
      <path d="M 56.203125 29.59375 
L 56.203125 25.203125 
L 14.890625 25.203125 
Q 15.484375 15.921875 20.484375 11.0625 
Q 25.484375 6.203125 34.421875 6.203125 
Q 39.59375 6.203125 44.453125 7.46875 
Q 49.3125 8.734375 54.109375 11.28125 
L 54.109375 2.78125 
Q 49.265625 0.734375 44.1875 -0.34375 
Q 39.109375 -1.421875 33.890625 -1.421875 
Q 20.796875 -1.421875 13.15625 6.1875 
Q 5.515625 13.8125 5.515625 26.8125 
Q 5.515625 40.234375 12.765625 48.109375 
Q 20.015625 56 32.328125 56 
Q 43.359375 56 49.78125 48.890625 
Q 56.203125 41.796875 56.203125 29.59375 
z
M 47.21875 32.234375 
Q 47.125 39.59375 43.09375 43.984375 
Q 39.0625 48.390625 32.421875 48.390625 
Q 24.90625 48.390625 20.390625 44.140625 
Q 15.875 39.890625 15.1875 32.171875 
z
" id="DejaVuSans-101"/>
      <path d="M 45.40625 46.390625 
L 45.40625 75.984375 
L 54.390625 75.984375 
L 54.390625 0 
L 45.40625 0 
L 45.40625 8.203125 
Q 42.578125 3.328125 38.25 0.953125 
Q 33.9375 -1.421875 27.875 -1.421875 
Q 17.96875 -1.421875 11.734375 6.484375 
Q 5.515625 14.40625 5.515625 27.296875 
Q 5.515625 40.1875 11.734375 48.09375 
Q 17.96875 56 27.875 56 
Q 33.9375 56 38.25 53.625 
Q 42.578125 51.265625 45.40625 46.390625 
z
M 14.796875 27.296875 
Q 14.796875 17.390625 18.875 11.75 
Q 22.953125 6.109375 30.078125 6.109375 
Q 37.203125 6.109375 41.296875 11.75 
Q 45.40625 17.390625 45.40625 27.296875 
Q 45.40625 37.203125 41.296875 42.84375 
Q 37.203125 48.484375 30.078125 48.484375 
Q 22.953125 48.484375 18.875 42.84375 
Q 14.796875 37.203125 14.796875 27.296875 
z
" id="DejaVuSans-100"/>
      <path d="M 8.015625 75.875 
L 15.828125 75.875 
Q 23.140625 64.359375 26.78125 53.3125 
Q 30.421875 42.28125 30.421875 31.390625 
Q 30.421875 20.453125 26.78125 9.375 
Q 23.140625 -1.703125 15.828125 -13.1875 
L 8.015625 -13.1875 
Q 14.5 -2 17.703125 9.0625 
Q 20.90625 20.125 20.90625 31.390625 
Q 20.90625 42.671875 17.703125 53.65625 
Q 14.5 64.65625 8.015625 75.875 
z
" id="DejaVuSans-41"/>
     </defs>
     <g transform="translate(46.982656 344.945362)scale(0.1 -0.1)">
      <use xlink:href="#DejaVuSans-80"/>
      <use x="60.255859" xlink:href="#DejaVuSans-111"/>
      <use x="121.4375" xlink:href="#DejaVuSans-108"/>
      <use x="149.220703" xlink:href="#DejaVuSans-105"/>
      <use x="177.003906" xlink:href="#DejaVuSans-99"/>
      <use x="231.984375" xlink:href="#DejaVuSans-121"/>
      <use x="291.164062" xlink:href="#DejaVuSans-32"/>
      <use x="322.951172" xlink:href="#DejaVuSans-76"/>
      <use x="378.648438" xlink:href="#DejaVuSans-111"/>
      <use x="439.830078" xlink:href="#DejaVuSans-115"/>
      <use x="491.929688" xlink:href="#DejaVuSans-115"/>
      <use x="544.029297" xlink:href="#DejaVuSans-32"/>
      <use x="575.816406" xlink:href="#DejaVuSans-40"/>
      <use x="614.830078" xlink:href="#DejaVuSans-78"/>
      <use x="689.634766" xlink:href="#DejaVuSans-111"/>
      <use x="750.816406" xlink:href="#DejaVuSans-114"/>
      <use x="791.914062" xlink:href="#DejaVuSans-109"/>
      <use x="889.326172" xlink:href="#DejaVuSans-97"/>
      <use x="950.605469" xlink:href="#DejaVuSans-108"/>
      <use x="978.388672" xlink:href="#DejaVuSans-105"/>
      <use x="1006.171875" xlink:href="#DejaVuSans-122"/>
      <use x="1058.662109" xlink:href="#DejaVuSans-101"/>
      <use x="1120.185547" xlink:href="#DejaVuSans-100"/>
      <use x="1183.662109" xlink:href="#DejaVuSans-41"/>
     </g>
    </g>
    <g id="line2d_19">
     <path d="M 189.251406 341.445362 
L 209.251406 341.445362 
" style="fill:none;stroke:#ff7f0e;stroke-linecap:square;stroke-width:1.5;"/>
    </g>
    <g id="line2d_20"/>
    <g id="text_16">
     <!-- Value Loss (Normalized) -->
     <defs>
      <path d="M 28.609375 0 
L 0.78125 72.90625 
L 11.078125 72.90625 
L 34.1875 11.53125 
L 57.328125 72.90625 
L 67.578125 72.90625 
L 39.796875 0 
z
" id="DejaVuSans-86"/>
      <path d="M 8.5 21.578125 
L 8.5 54.6875 
L 17.484375 54.6875 
L 17.484375 21.921875 
Q 17.484375 14.15625 20.5 10.265625 
Q 23.53125 6.390625 29.59375 6.390625 
Q 36.859375 6.390625 41.078125 11.03125 
Q 45.3125 15.671875 45.3125 23.6875 
L 45.3125 54.6875 
L 54.296875 54.6875 
L 54.296875 0 
L 45.3125 0 
L 45.3125 8.40625 
Q 42.046875 3.421875 37.71875 1 
Q 33.40625 -1.421875 27.6875 -1.421875 
Q 18.265625 -1.421875 13.375 4.4375 
Q 8.5 10.296875 8.5 21.578125 
z
M 31.109375 56 
z
" id="DejaVuSans-117"/>
     </defs>
     <g transform="translate(217.251406 344.945362)scale(0.1 -0.1)">
      <use xlink:href="#DejaVuSans-86"/>
      <use x="68.298828" xlink:href="#DejaVuSans-97"/>
      <use x="129.578125" xlink:href="#DejaVuSans-108"/>
      <use x="157.361328" xlink:href="#DejaVuSans-117"/>
      <use x="220.740234" xlink:href="#DejaVuSans-101"/>
      <use x="282.263672" xlink:href="#DejaVuSans-32"/>
      <use x="314.050781" xlink:href="#DejaVuSans-76"/>
      <use x="369.748047" xlink:href="#DejaVuSans-111"/>
      <use x="430.929688" xlink:href="#DejaVuSans-115"/>
      <use x="483.029297" xlink:href="#DejaVuSans-115"/>
      <use x="535.128906" xlink:href="#DejaVuSans-32"/>
      <use x="566.916016" xlink:href="#DejaVuSans-40"/>
      <use x="605.929688" xlink:href="#DejaVuSans-78"/>
      <use x="680.734375" xlink:href="#DejaVuSans-111"/>
      <use x="741.916016" xlink:href="#DejaVuSans-114"/>
      <use x="783.013672" xlink:href="#DejaVuSans-109"/>
      <use x="880.425781" xlink:href="#DejaVuSans-97"/>
      <use x="941.705078" xlink:href="#DejaVuSans-108"/>
      <use x="969.488281" xlink:href="#DejaVuSans-105"/>
      <use x="997.271484" xlink:href="#DejaVuSans-122"/>
      <use x="1049.761719" xlink:href="#DejaVuSans-101"/>
      <use x="1111.285156" xlink:href="#DejaVuSans-100"/>
      <use x="1174.761719" xlink:href="#DejaVuSans-41"/>
     </g>
    </g>
    <g id="line2d_21">
     <path d="M 358.629531 341.445362 
L 378.629531 341.445362 
" style="fill:none;stroke:#008000;stroke-linecap:square;stroke-width:1.5;"/>
    </g>
    <g id="line2d_22"/>
    <g id="text_17">
     <!-- Entropy -->
     <defs>
      <path d="M 54.890625 33.015625 
L 54.890625 0 
L 45.90625 0 
L 45.90625 32.71875 
Q 45.90625 40.484375 42.875 44.328125 
Q 39.84375 48.1875 33.796875 48.1875 
Q 26.515625 48.1875 22.3125 43.546875 
Q 18.109375 38.921875 18.109375 30.90625 
L 18.109375 0 
L 9.078125 0 
L 9.078125 54.6875 
L 18.109375 54.6875 
L 18.109375 46.1875 
Q 21.34375 51.125 25.703125 53.5625 
Q 30.078125 56 35.796875 56 
Q 45.21875 56 50.046875 50.171875 
Q 54.890625 44.34375 54.890625 33.015625 
z
" id="DejaVuSans-110"/>
      <path d="M 18.3125 70.21875 
L 18.3125 54.6875 
L 36.8125 54.6875 
L 36.8125 47.703125 
L 18.3125 47.703125 
L 18.3125 18.015625 
Q 18.3125 11.328125 20.140625 9.421875 
Q 21.96875 7.515625 27.59375 7.515625 
L 36.8125 7.515625 
L 36.8125 0 
L 27.59375 0 
Q 17.1875 0 13.234375 3.875 
Q 9.28125 7.765625 9.28125 18.015625 
L 9.28125 47.703125 
L 2.6875 47.703125 
L 2.6875 54.6875 
L 9.28125 54.6875 
L 9.28125 70.21875 
z
" id="DejaVuSans-116"/>
     </defs>
     <g transform="translate(386.629531 344.945362)scale(0.1 -0.1)">
      <use xlink:href="#DejaVuSans-69"/>
      <use x="63.183594" xlink:href="#DejaVuSans-110"/>
      <use x="126.5625" xlink:href="#DejaVuSans-116"/>
      <use x="165.771484" xlink:href="#DejaVuSans-114"/>
      <use x="206.853516" xlink:href="#DejaVuSans-111"/>
      <use x="268.035156" xlink:href="#DejaVuSans-112"/>
      <use x="331.511719" xlink:href="#DejaVuSans-121"/>
     </g>
    </g>
   </g>
  </g>
  <g id="axes_2">
   <g id="matplotlib.axis_3">
    <g id="ytick_7">
     <g id="line2d_23">
      <defs>
       <path d="M 0 0 
L 3.5 0 
" id="m52daf95715" style="stroke:#000000;stroke-width:0.8;"/>
      </defs>
      <g>
       <use style="stroke:#000000;stroke-width:0.8;" x="400.90125" xlink:href="#m52daf95715" y="269.932318"/>
      </g>
     </g>
     <g id="text_18">
      <!-- 0.45 -->
      <defs>
       <path d="M 10.796875 72.90625 
L 49.515625 72.90625 
L 49.515625 64.59375 
L 19.828125 64.59375 
L 19.828125 46.734375 
Q 21.96875 47.46875 24.109375 47.828125 
Q 26.265625 48.1875 28.421875 48.1875 
Q 40.625 48.1875 47.75 41.5 
Q 54.890625 34.8125 54.890625 23.390625 
Q 54.890625 11.625 47.5625 5.09375 
Q 40.234375 -1.421875 26.90625 -1.421875 
Q 22.3125 -1.421875 17.546875 -0.640625 
Q 12.796875 0.140625 7.71875 1.703125 
L 7.71875 11.625 
Q 12.109375 9.234375 16.796875 8.0625 
Q 21.484375 6.890625 26.703125 6.890625 
Q 35.15625 6.890625 40.078125 11.328125 
Q 45.015625 15.765625 45.015625 23.390625 
Q 45.015625 31 40.078125 35.4375 
Q 35.15625 39.890625 26.703125 39.890625 
Q 22.75 39.890625 18.8125 39.015625 
Q 14.890625 38.140625 10.796875 36.28125 
z
" id="DejaVuSans-53"/>
      </defs>
      <g transform="translate(407.90125 273.731537)scale(0.1 -0.1)">
       <use xlink:href="#DejaVuSans-48"/>
       <use x="63.623047" xlink:href="#DejaVuSans-46"/>
       <use x="95.410156" xlink:href="#DejaVuSans-52"/>
       <use x="159.033203" xlink:href="#DejaVuSans-53"/>
      </g>
     </g>
    </g>
    <g id="ytick_8">
     <g id="line2d_24">
      <g>
       <use style="stroke:#000000;stroke-width:0.8;" x="400.90125" xlink:href="#m52daf95715" y="221.293691"/>
      </g>
     </g>
     <g id="text_19">
      <!-- 0.50 -->
      <g transform="translate(407.90125 225.09291)scale(0.1 -0.1)">
       <use xlink:href="#DejaVuSans-48"/>
       <use x="63.623047" xlink:href="#DejaVuSans-46"/>
       <use x="95.410156" xlink:href="#DejaVuSans-53"/>
       <use x="159.033203" xlink:href="#DejaVuSans-48"/>
      </g>
     </g>
    </g>
    <g id="ytick_9">
     <g id="line2d_25">
      <g>
       <use style="stroke:#000000;stroke-width:0.8;" x="400.90125" xlink:href="#m52daf95715" y="172.655064"/>
      </g>
     </g>
     <g id="text_20">
      <!-- 0.55 -->
      <g transform="translate(407.90125 176.454283)scale(0.1 -0.1)">
       <use xlink:href="#DejaVuSans-48"/>
       <use x="63.623047" xlink:href="#DejaVuSans-46"/>
       <use x="95.410156" xlink:href="#DejaVuSans-53"/>
       <use x="159.033203" xlink:href="#DejaVuSans-53"/>
      </g>
     </g>
    </g>
    <g id="ytick_10">
     <g id="line2d_26">
      <g>
       <use style="stroke:#000000;stroke-width:0.8;" x="400.90125" xlink:href="#m52daf95715" y="124.016437"/>
      </g>
     </g>
     <g id="text_21">
      <!-- 0.60 -->
      <g transform="translate(407.90125 127.815656)scale(0.1 -0.1)">
       <use xlink:href="#DejaVuSans-48"/>
       <use x="63.623047" xlink:href="#DejaVuSans-46"/>
       <use x="95.410156" xlink:href="#DejaVuSans-54"/>
       <use x="159.033203" xlink:href="#DejaVuSans-48"/>
      </g>
     </g>
    </g>
    <g id="ytick_11">
     <g id="line2d_27">
      <g>
       <use style="stroke:#000000;stroke-width:0.8;" x="400.90125" xlink:href="#m52daf95715" y="75.37781"/>
      </g>
     </g>
     <g id="text_22">
      <!-- 0.65 -->
      <g transform="translate(407.90125 79.177029)scale(0.1 -0.1)">
       <use xlink:href="#DejaVuSans-48"/>
       <use x="63.623047" xlink:href="#DejaVuSans-46"/>
       <use x="95.410156" xlink:href="#DejaVuSans-54"/>
       <use x="159.033203" xlink:href="#DejaVuSans-53"/>
      </g>
     </g>
    </g>
    <g id="ytick_12">
     <g id="line2d_28">
      <g>
       <use style="stroke:#000000;stroke-width:0.8;" x="400.90125" xlink:href="#m52daf95715" y="26.739184"/>
      </g>
     </g>
     <g id="text_23">
      <!-- 0.70 -->
      <defs>
       <path d="M 8.203125 72.90625 
L 55.078125 72.90625 
L 55.078125 68.703125 
L 28.609375 0 
L 18.3125 0 
L 43.21875 64.59375 
L 8.203125 64.59375 
z
" id="DejaVuSans-55"/>
      </defs>
      <g transform="translate(407.90125 30.538402)scale(0.1 -0.1)">
       <use xlink:href="#DejaVuSans-48"/>
       <use x="63.623047" xlink:href="#DejaVuSans-46"/>
       <use x="95.410156" xlink:href="#DejaVuSans-55"/>
       <use x="159.033203" xlink:href="#DejaVuSans-48"/>
      </g>
     </g>
    </g>
    <g id="text_24">
     <!-- Entropy -->
     <g transform="translate(441.765312 174.909281)rotate(-90)scale(0.1 -0.1)">
      <use xlink:href="#DejaVuSans-69"/>
      <use x="63.183594" xlink:href="#DejaVuSans-110"/>
      <use x="126.5625" xlink:href="#DejaVuSans-116"/>
      <use x="165.771484" xlink:href="#DejaVuSans-114"/>
      <use x="206.853516" xlink:href="#DejaVuSans-111"/>
      <use x="268.035156" xlink:href="#DejaVuSans-112"/>
      <use x="331.511719" xlink:href="#DejaVuSans-121"/>
     </g>
    </g>
   </g>
   <g id="line2d_29">
    <path clip-path="url(#p09600e6371)" d="M 60.013977 34.414125 
L 60.805818 37.982844 
L 61.597658 40.921592 
L 62.389498 39.166194 
L 63.181339 42.312053 
L 63.973179 47.904799 
L 66.3487 70.578451 
L 67.14054 64.307434 
L 67.932381 69.541274 
L 68.724221 75.715751 
L 69.516062 91.884024 
L 71.099742 104.552633 
L 71.891583 110.350751 
L 73.475263 126.93684 
L 74.267104 115.640891 
L 75.850784 133.649736 
L 76.642625 90.2098 
L 78.226305 99.725535 
L 79.018146 106.756983 
L 80.601826 107.449459 
L 81.393667 143.114795 
L 82.185507 147.107245 
L 82.977348 152.250459 
L 83.769188 124.41788 
L 85.352869 137.854689 
L 86.144709 128.389283 
L 87.72839 134.779279 
L 88.52023 125.682984 
L 89.31207 126.78168 
L 90.103911 128.466398 
L 90.895751 119.937165 
L 91.687591 120.630569 
L 92.479432 120.182602 
L 93.271272 118.115146 
L 94.063113 118.666959 
L 94.854953 119.401994 
L 95.646793 116.083582 
L 96.438634 117.648045 
L 97.230474 119.747449 
L 98.022314 92.268965 
L 98.814155 91.54454 
L 99.605995 90.264477 
L 100.397835 132.549242 
L 101.189676 134.261502 
L 101.981516 136.859142 
L 102.773356 169.627941 
L 103.565197 175.124844 
L 104.357037 179.326434 
L 105.148877 126.795944 
L 106.732558 131.522269 
L 107.524399 169.603183 
L 108.316239 191.874557 
L 109.108079 185.740609 
L 109.89992 119.443741 
L 110.69176 117.235621 
L 111.4836 114.62621 
L 112.275441 108.011303 
L 113.859121 116.630118 
L 114.650962 133.161993 
L 115.442802 134.042968 
L 116.234642 135.248873 
L 117.026483 134.80195 
L 117.818323 139.893038 
L 118.610164 147.588494 
L 119.402004 132.037379 
L 120.193844 127.036684 
L 120.985685 121.177047 
L 121.777525 202.606053 
L 122.569365 208.526281 
L 123.361206 217.320259 
L 124.153046 136.361601 
L 125.736727 141.664787 
L 126.528567 157.495199 
L 127.320407 159.691085 
L 128.112248 155.960596 
L 128.904088 171.586275 
L 129.695928 170.794708 
L 130.487769 170.273452 
L 131.279609 118.554706 
L 132.86329 114.912176 
L 133.65513 135.257918 
L 134.446971 137.638533 
L 135.238811 141.815365 
L 136.030651 211.040428 
L 136.822492 212.342641 
L 137.614332 212.95632 
L 138.406172 175.930732 
L 139.198013 187.049953 
L 139.989853 202.598284 
L 140.781693 147.892144 
L 141.573534 149.444084 
L 142.365374 150.045761 
L 143.157215 213.808072 
L 143.949055 213.023405 
L 144.740895 211.992025 
L 145.532736 195.815809 
L 146.324576 196.115691 
L 147.116416 197.288372 
L 147.908257 155.371153 
L 148.700097 152.734433 
L 149.491937 149.130808 
L 150.283778 137.238227 
L 151.075618 135.825676 
L 151.867458 134.660242 
L 152.659299 144.862307 
L 153.451139 149.185021 
L 154.242979 154.860914 
L 155.03482 142.500826 
L 155.82666 144.594373 
L 156.618501 146.25126 
L 157.410341 170.951375 
L 158.202181 171.762134 
L 158.994022 173.254816 
L 159.785862 198.791259 
L 160.577702 196.752621 
L 161.369543 194.140542 
L 162.161383 175.746756 
L 162.953223 172.503778 
L 163.745064 173.076464 
L 164.536904 169.248914 
L 166.120585 172.156699 
L 166.912425 191.627613 
L 167.704266 194.412999 
L 168.496106 197.738137 
L 169.287946 126.353137 
L 170.079787 126.682648 
L 170.871627 126.861347 
L 171.663467 152.795604 
L 172.455308 153.536668 
L 173.247148 154.880512 
L 174.038988 168.649499 
L 175.622669 177.175195 
L 176.414509 194.033624 
L 177.20635 195.429071 
L 177.99819 197.741558 
L 178.79003 169.448081 
L 179.581871 171.305121 
L 180.373711 176.196521 
L 181.165552 196.437896 
L 182.749232 192.097961 
L 183.541073 175.353582 
L 185.124753 174.872101 
L 185.916594 146.671512 
L 186.708434 147.462615 
L 187.500274 147.80807 
L 188.292115 178.250351 
L 189.083955 177.47096 
L 189.875795 176.507303 
L 190.667636 161.457557 
L 191.459476 162.2119 
L 192.251317 163.367302 
L 193.043157 170.167345 
L 193.834997 172.560195 
L 194.626838 175.425015 
L 195.418678 181.089602 
L 196.210518 180.877852 
L 197.002359 179.695314 
L 197.794199 199.592046 
L 198.586039 201.712786 
L 199.37788 204.84299 
L 200.16972 217.01197 
L 200.96156 214.706615 
L 201.753401 211.827531 
L 202.545241 196.794426 
L 203.337081 195.548629 
L 204.128922 195.08982 
L 204.920762 138.618425 
L 206.504443 154.034616 
L 207.296283 177.745561 
L 208.088124 176.508057 
L 208.879964 175.034218 
L 209.671804 197.042124 
L 211.255485 192.812006 
L 212.047325 178.222172 
L 213.631006 176.397601 
L 214.422846 207.070881 
L 216.006527 218.268435 
L 216.798368 249.311174 
L 217.590208 249.532838 
L 218.382048 248.63818 
L 219.173889 214.701223 
L 219.965729 213.745741 
L 220.757569 213.143137 
L 221.54941 197.60014 
L 222.34125 195.111795 
L 223.13309 191.688784 
L 223.924931 220.525897 
L 225.508611 222.395084 
L 226.300452 167.383699 
L 227.884132 166.724446 
L 228.675973 190.784268 
L 229.467813 187.006756 
L 230.259654 183.874813 
L 231.051494 197.80557 
L 231.843334 194.559461 
L 232.635175 192.179019 
L 233.427015 141.529167 
L 234.218855 138.865891 
L 235.010696 138.995944 
L 235.802536 185.090807 
L 236.594376 185.316704 
L 237.386217 183.992053 
L 238.178057 190.495925 
L 238.969897 188.609256 
L 239.761738 186.07986 
L 240.553578 153.644109 
L 241.345419 159.079203 
L 242.137259 162.902926 
L 242.929099 237.129902 
L 243.72094 237.146891 
L 244.51278 238.385439 
L 245.30462 149.260745 
L 246.096461 151.805217 
L 246.888301 154.98714 
L 247.680141 201.014802 
L 249.263822 191.693886 
L 250.055662 205.940585 
L 250.847503 203.733103 
L 251.639343 200.69799 
L 252.431183 163.497355 
L 253.223024 161.491418 
L 254.014864 158.871918 
L 254.806705 208.148994 
L 255.598545 208.758672 
L 256.390385 209.763322 
L 257.182226 188.523095 
L 257.974066 190.924642 
L 258.765906 192.607389 
L 259.557747 238.774584 
L 260.349587 238.984449 
L 261.141427 237.806665 
L 261.933268 202.715987 
L 262.725108 204.031419 
L 263.516948 206.243655 
L 264.308789 172.479832 
L 265.100629 176.667391 
L 265.89247 183.150215 
L 266.68431 194.591409 
L 267.47615 196.654747 
L 268.267991 199.039421 
L 269.059831 197.236363 
L 269.851671 199.08082 
L 270.643512 202.015857 
L 271.435352 175.588176 
L 272.227192 173.058374 
L 273.019033 171.378236 
L 273.810873 209.017329 
L 274.602713 210.97659 
L 275.394554 213.598236 
L 276.186394 205.519637 
L 276.978234 203.905599 
L 277.770075 201.190951 
L 278.561915 207.160811 
L 280.145596 204.064295 
L 280.937436 139.838361 
L 281.729277 136.185162 
L 282.521117 133.360697 
L 283.312957 210.340936 
L 284.896638 207.562682 
L 285.688478 205.172674 
L 287.272159 206.282677 
L 288.063999 215.337631 
L 288.85584 211.362459 
L 289.64768 205.737301 
L 290.439521 171.049016 
L 292.023201 148.085455 
L 292.815042 243.126463 
L 294.398722 276.334125 
L 295.190563 229.782192 
L 295.982403 233.899013 
L 296.774243 236.762066 
L 297.566084 175.853675 
L 298.357924 185.466877 
L 299.149764 186.396324 
L 299.941605 153.428706 
L 300.733445 152.654766 
L 301.525285 151.322113 
L 302.317126 237.715866 
L 303.108966 237.45257 
L 303.900807 237.895667 
L 304.692647 179.947941 
L 305.484487 175.794765 
L 306.276328 172.567558 
L 307.068168 221.381592 
L 308.651849 222.529833 
L 309.443689 192.684272 
L 311.02737 199.86398 
L 311.81921 258.910983 
L 312.61105 259.355239 
L 313.402891 259.215416 
L 314.194731 237.663218 
L 314.986572 239.573978 
L 315.778412 243.139798 
L 316.570252 185.982566 
L 317.362093 186.725719 
L 318.153933 187.941364 
L 318.945773 149.841665 
L 319.737614 142.606179 
L 320.529454 138.109345 
L 321.321294 185.109361 
L 322.113135 191.189329 
L 322.904975 193.674543 
L 323.696815 235.041515 
L 324.488656 236.993268 
L 325.280496 236.872666 
L 326.072336 193.781345 
L 326.864177 193.108061 
L 327.656017 192.201574 
L 328.447858 162.33772 
L 330.031538 157.665724 
L 330.823379 171.390065 
L 331.615219 183.163145 
L 332.407059 185.122407 
L 333.1989 189.224559 
L 333.99074 186.235715 
L 334.78258 185.188796 
L 335.574421 191.095224 
L 336.366261 193.242521 
L 337.158101 196.83049 
L 337.949942 173.156711 
L 338.741782 165.802942 
L 339.533623 156.623038 
L 340.325463 190.656708 
L 341.117303 187.31406 
L 341.909144 191.106473 
L 342.700984 175.293745 
L 343.492824 179.102683 
L 344.284665 182.331281 
L 345.076505 151.130309 
L 345.868345 155.879943 
L 346.660186 161.442888 
L 347.452026 144.024413 
L 348.243866 144.477308 
L 349.035707 144.642208 
L 349.827547 180.034797 
L 350.619387 180.57252 
L 351.411228 180.798939 
L 352.203068 148.273896 
L 352.994909 149.478989 
L 353.786749 147.521177 
L 354.578589 179.333044 
L 356.16227 178.006943 
L 356.95411 166.142135 
L 358.537791 184.06308 
L 359.329631 147.843439 
L 360.121472 183.231042 
L 360.913312 138.31692 
L 361.705152 176.882561 
L 362.496993 178.024918 
L 363.288833 175.69695 
L 364.080674 138.135205 
L 364.872514 136.175769 
L 365.664354 140.171293 
L 366.456195 182.077147 
L 367.248035 188.733685 
L 368.039875 188.028337 
L 368.831716 169.539751 
L 369.623556 167.239034 
L 370.415396 166.14544 
L 371.207237 157.122261 
L 371.999077 157.444523 
L 372.790917 157.58913 
L 373.582758 171.686873 
L 375.166438 169.877378 
L 375.958279 188.121862 
L 376.750119 188.209646 
L 377.54196 188.126152 
L 378.3338 216.630566 
L 379.917481 221.295141 
L 380.709321 145.159464 
L 381.501161 147.567794 
L 382.293002 150.928765 
L 383.084842 173.362546 
L 383.876682 172.406369 
L 384.668523 170.784619 
L 384.668523 170.784619 
" style="fill:none;stroke:#008000;stroke-linecap:square;stroke-opacity:0.3;stroke-width:1.5;"/>
   </g>
   <g id="patch_9">
    <path d="M 43.78125 288.430125 
L 43.78125 22.318125 
" style="fill:none;stroke:#000000;stroke-linecap:square;stroke-linejoin:miter;stroke-width:0.8;"/>
   </g>
   <g id="patch_10">
    <path d="M 400.90125 288.430125 
L 400.90125 22.318125 
" style="fill:none;stroke:#000000;stroke-linecap:square;stroke-linejoin:miter;stroke-width:0.8;"/>
   </g>
   <g id="patch_11">
    <path d="M 43.78125 288.430125 
L 400.90125 288.430125 
" style="fill:none;stroke:#000000;stroke-linecap:square;stroke-linejoin:miter;stroke-width:0.8;"/>
   </g>
   <g id="patch_12">
    <path d="M 43.78125 22.318125 
L 400.90125 22.318125 
" style="fill:none;stroke:#000000;stroke-linecap:square;stroke-linejoin:miter;stroke-width:0.8;"/>
   </g>
  </g>
 </g>
 <defs>
  <clipPath id="p09600e6371">
   <rect height="266.112" width="357.12" x="43.78125" y="22.318125"/>
  </clipPath>
 </defs>
</svg>
