<?xml version="1.0" encoding="utf-8" standalone="no"?>
<!DOCTYPE svg PUBLIC "-//W3C//DTD SVG 1.1//EN"
  "http://www.w3.org/Graphics/SVG/1.1/DTD/svg11.dtd">
<!-- Created with matplotlib (https://matplotlib.org/) -->
<svg height="358.22505pt" version="1.1" viewBox="0 0 444.6825 358.22505" width="444.6825pt" xmlns="http://www.w3.org/2000/svg" xmlns:xlink="http://www.w3.org/1999/xlink">
 <defs>
  <style type="text/css">
*{stroke-linecap:butt;stroke-linejoin:round;}
  </style>
 </defs>
 <g id="figure_1">
  <g id="patch_1">
   <path d="M 0 358.22505 
L 444.6825 358.22505 
L 444.6825 0 
L 0 0 
z
" style="fill:#ffffff;"/>
  </g>
  <g id="axes_1">
   <g id="patch_2">
    <path d="M 43.78125 288.430125 
L 400.90125 288.430125 
L 400.90125 22.318125 
L 43.78125 22.318125 
z
" style="fill:#ffffff;"/>
   </g>
   <g id="matplotlib.axis_1">
    <g id="xtick_1">
     <g id="line2d_1">
      <defs>
       <path d="M 0 0 
L 0 3.5 
" id="m7036426f04" style="stroke:#000000;stroke-width:0.8;"/>
      </defs>
      <g>
       <use style="stroke:#000000;stroke-width:0.8;" x="60.013977" xlink:href="#m7036426f04" y="288.430125"/>
      </g>
     </g>
     <g id="text_1">
      <!-- 0 -->
      <defs>
       <path d="M 31.78125 66.40625 
Q 24.171875 66.40625 20.328125 58.90625 
Q 16.5 51.421875 16.5 36.375 
Q 16.5 21.390625 20.328125 13.890625 
Q 24.171875 6.390625 31.78125 6.390625 
Q 39.453125 6.390625 43.28125 13.890625 
Q 47.125 21.390625 47.125 36.375 
Q 47.125 51.421875 43.28125 58.90625 
Q 39.453125 66.40625 31.78125 66.40625 
z
M 31.78125 74.21875 
Q 44.046875 74.21875 50.515625 64.515625 
Q 56.984375 54.828125 56.984375 36.375 
Q 56.984375 17.96875 50.515625 8.265625 
Q 44.046875 -1.421875 31.78125 -1.421875 
Q 19.53125 -1.421875 13.0625 8.265625 
Q 6.59375 17.96875 6.59375 36.375 
Q 6.59375 54.828125 13.0625 64.515625 
Q 19.53125 74.21875 31.78125 74.21875 
z
" id="DejaVuSans-48"/>
      </defs>
      <g transform="translate(56.832727 303.028562)scale(0.1 -0.1)">
       <use xlink:href="#DejaVuSans-48"/>
      </g>
     </g>
    </g>
    <g id="xtick_2">
     <g id="line2d_2">
      <g>
       <use style="stroke:#000000;stroke-width:0.8;" x="134.305635" xlink:href="#m7036426f04" y="288.430125"/>
      </g>
     </g>
     <g id="text_2">
      <!-- 100 -->
      <defs>
       <path d="M 12.40625 8.296875 
L 28.515625 8.296875 
L 28.515625 63.921875 
L 10.984375 60.40625 
L 10.984375 69.390625 
L 28.421875 72.90625 
L 38.28125 72.90625 
L 38.28125 8.296875 
L 54.390625 8.296875 
L 54.390625 0 
L 12.40625 0 
z
" id="DejaVuSans-49"/>
      </defs>
      <g transform="translate(124.761885 303.028562)scale(0.1 -0.1)">
       <use xlink:href="#DejaVuSans-49"/>
       <use x="63.623047" xlink:href="#DejaVuSans-48"/>
       <use x="127.246094" xlink:href="#DejaVuSans-48"/>
      </g>
     </g>
    </g>
    <g id="xtick_3">
     <g id="line2d_3">
      <g>
       <use style="stroke:#000000;stroke-width:0.8;" x="208.597293" xlink:href="#m7036426f04" y="288.430125"/>
      </g>
     </g>
     <g id="text_3">
      <!-- 200 -->
      <defs>
       <path d="M 19.1875 8.296875 
L 53.609375 8.296875 
L 53.609375 0 
L 7.328125 0 
L 7.328125 8.296875 
Q 12.9375 14.109375 22.625 23.890625 
Q 32.328125 33.6875 34.8125 36.53125 
Q 39.546875 41.84375 41.421875 45.53125 
Q 43.3125 49.21875 43.3125 52.78125 
Q 43.3125 58.59375 39.234375 62.25 
Q 35.15625 65.921875 28.609375 65.921875 
Q 23.96875 65.921875 18.8125 64.3125 
Q 13.671875 62.703125 7.8125 59.421875 
L 7.8125 69.390625 
Q 13.765625 71.78125 18.9375 73 
Q 24.125 74.21875 28.421875 74.21875 
Q 39.75 74.21875 46.484375 68.546875 
Q 53.21875 62.890625 53.21875 53.421875 
Q 53.21875 48.921875 51.53125 44.890625 
Q 49.859375 40.875 45.40625 35.40625 
Q 44.1875 33.984375 37.640625 27.21875 
Q 31.109375 20.453125 19.1875 8.296875 
z
" id="DejaVuSans-50"/>
      </defs>
      <g transform="translate(199.053543 303.028562)scale(0.1 -0.1)">
       <use xlink:href="#DejaVuSans-50"/>
       <use x="63.623047" xlink:href="#DejaVuSans-48"/>
       <use x="127.246094" xlink:href="#DejaVuSans-48"/>
      </g>
     </g>
    </g>
    <g id="xtick_4">
     <g id="line2d_4">
      <g>
       <use style="stroke:#000000;stroke-width:0.8;" x="282.888951" xlink:href="#m7036426f04" y="288.430125"/>
      </g>
     </g>
     <g id="text_4">
      <!-- 300 -->
      <defs>
       <path d="M 40.578125 39.3125 
Q 47.65625 37.796875 51.625 33 
Q 55.609375 28.21875 55.609375 21.1875 
Q 55.609375 10.40625 48.1875 4.484375 
Q 40.765625 -1.421875 27.09375 -1.421875 
Q 22.515625 -1.421875 17.65625 -0.515625 
Q 12.796875 0.390625 7.625 2.203125 
L 7.625 11.71875 
Q 11.71875 9.328125 16.59375 8.109375 
Q 21.484375 6.890625 26.8125 6.890625 
Q 36.078125 6.890625 40.9375 10.546875 
Q 45.796875 14.203125 45.796875 21.1875 
Q 45.796875 27.640625 41.28125 31.265625 
Q 36.765625 34.90625 28.71875 34.90625 
L 20.21875 34.90625 
L 20.21875 43.015625 
L 29.109375 43.015625 
Q 36.375 43.015625 40.234375 45.921875 
Q 44.09375 48.828125 44.09375 54.296875 
Q 44.09375 59.90625 40.109375 62.90625 
Q 36.140625 65.921875 28.71875 65.921875 
Q 24.65625 65.921875 20.015625 65.03125 
Q 15.375 64.15625 9.8125 62.3125 
L 9.8125 71.09375 
Q 15.4375 72.65625 20.34375 73.4375 
Q 25.25 74.21875 29.59375 74.21875 
Q 40.828125 74.21875 47.359375 69.109375 
Q 53.90625 64.015625 53.90625 55.328125 
Q 53.90625 49.265625 50.4375 45.09375 
Q 46.96875 40.921875 40.578125 39.3125 
z
" id="DejaVuSans-51"/>
      </defs>
      <g transform="translate(273.345201 303.028562)scale(0.1 -0.1)">
       <use xlink:href="#DejaVuSans-51"/>
       <use x="63.623047" xlink:href="#DejaVuSans-48"/>
       <use x="127.246094" xlink:href="#DejaVuSans-48"/>
      </g>
     </g>
    </g>
    <g id="xtick_5">
     <g id="line2d_5">
      <g>
       <use style="stroke:#000000;stroke-width:0.8;" x="357.180609" xlink:href="#m7036426f04" y="288.430125"/>
      </g>
     </g>
     <g id="text_5">
      <!-- 400 -->
      <defs>
       <path d="M 37.796875 64.3125 
L 12.890625 25.390625 
L 37.796875 25.390625 
z
M 35.203125 72.90625 
L 47.609375 72.90625 
L 47.609375 25.390625 
L 58.015625 25.390625 
L 58.015625 17.1875 
L 47.609375 17.1875 
L 47.609375 0 
L 37.796875 0 
L 37.796875 17.1875 
L 4.890625 17.1875 
L 4.890625 26.703125 
z
" id="DejaVuSans-52"/>
      </defs>
      <g transform="translate(347.636859 303.028562)scale(0.1 -0.1)">
       <use xlink:href="#DejaVuSans-52"/>
       <use x="63.623047" xlink:href="#DejaVuSans-48"/>
       <use x="127.246094" xlink:href="#DejaVuSans-48"/>
      </g>
     </g>
    </g>
    <g id="text_6">
     <!-- Epoch -->
     <defs>
      <path d="M 9.8125 72.90625 
L 55.90625 72.90625 
L 55.90625 64.59375 
L 19.671875 64.59375 
L 19.671875 43.015625 
L 54.390625 43.015625 
L 54.390625 34.71875 
L 19.671875 34.71875 
L 19.671875 8.296875 
L 56.78125 8.296875 
L 56.78125 0 
L 9.8125 0 
z
" id="DejaVuSans-69"/>
      <path d="M 18.109375 8.203125 
L 18.109375 -20.796875 
L 9.078125 -20.796875 
L 9.078125 54.6875 
L 18.109375 54.6875 
L 18.109375 46.390625 
Q 20.953125 51.265625 25.265625 53.625 
Q 29.59375 56 35.59375 56 
Q 45.5625 56 51.78125 48.09375 
Q 58.015625 40.1875 58.015625 27.296875 
Q 58.015625 14.40625 51.78125 6.484375 
Q 45.5625 -1.421875 35.59375 -1.421875 
Q 29.59375 -1.421875 25.265625 0.953125 
Q 20.953125 3.328125 18.109375 8.203125 
z
M 48.6875 27.296875 
Q 48.6875 37.203125 44.609375 42.84375 
Q 40.53125 48.484375 33.40625 48.484375 
Q 26.265625 48.484375 22.1875 42.84375 
Q 18.109375 37.203125 18.109375 27.296875 
Q 18.109375 17.390625 22.1875 11.75 
Q 26.265625 6.109375 33.40625 6.109375 
Q 40.53125 6.109375 44.609375 11.75 
Q 48.6875 17.390625 48.6875 27.296875 
z
" id="DejaVuSans-112"/>
      <path d="M 30.609375 48.390625 
Q 23.390625 48.390625 19.1875 42.75 
Q 14.984375 37.109375 14.984375 27.296875 
Q 14.984375 17.484375 19.15625 11.84375 
Q 23.34375 6.203125 30.609375 6.203125 
Q 37.796875 6.203125 41.984375 11.859375 
Q 46.1875 17.53125 46.1875 27.296875 
Q 46.1875 37.015625 41.984375 42.703125 
Q 37.796875 48.390625 30.609375 48.390625 
z
M 30.609375 56 
Q 42.328125 56 49.015625 48.375 
Q 55.71875 40.765625 55.71875 27.296875 
Q 55.71875 13.875 49.015625 6.21875 
Q 42.328125 -1.421875 30.609375 -1.421875 
Q 18.84375 -1.421875 12.171875 6.21875 
Q 5.515625 13.875 5.515625 27.296875 
Q 5.515625 40.765625 12.171875 48.375 
Q 18.84375 56 30.609375 56 
z
" id="DejaVuSans-111"/>
      <path d="M 48.78125 52.59375 
L 48.78125 44.1875 
Q 44.96875 46.296875 41.140625 47.34375 
Q 37.3125 48.390625 33.40625 48.390625 
Q 24.65625 48.390625 19.8125 42.84375 
Q 14.984375 37.3125 14.984375 27.296875 
Q 14.984375 17.28125 19.8125 11.734375 
Q 24.65625 6.203125 33.40625 6.203125 
Q 37.3125 6.203125 41.140625 7.25 
Q 44.96875 8.296875 48.78125 10.40625 
L 48.78125 2.09375 
Q 45.015625 0.34375 40.984375 -0.53125 
Q 36.96875 -1.421875 32.421875 -1.421875 
Q 20.0625 -1.421875 12.78125 6.34375 
Q 5.515625 14.109375 5.515625 27.296875 
Q 5.515625 40.671875 12.859375 48.328125 
Q 20.21875 56 33.015625 56 
Q 37.15625 56 41.109375 55.140625 
Q 45.0625 54.296875 48.78125 52.59375 
z
" id="DejaVuSans-99"/>
      <path d="M 54.890625 33.015625 
L 54.890625 0 
L 45.90625 0 
L 45.90625 32.71875 
Q 45.90625 40.484375 42.875 44.328125 
Q 39.84375 48.1875 33.796875 48.1875 
Q 26.515625 48.1875 22.3125 43.546875 
Q 18.109375 38.921875 18.109375 30.90625 
L 18.109375 0 
L 9.078125 0 
L 9.078125 75.984375 
L 18.109375 75.984375 
L 18.109375 46.1875 
Q 21.34375 51.125 25.703125 53.5625 
Q 30.078125 56 35.796875 56 
Q 45.21875 56 50.046875 50.171875 
Q 54.890625 44.34375 54.890625 33.015625 
z
" id="DejaVuSans-104"/>
     </defs>
     <g transform="translate(207.030313 316.706687)scale(0.1 -0.1)">
      <use xlink:href="#DejaVuSans-69"/>
      <use x="63.183594" xlink:href="#DejaVuSans-112"/>
      <use x="126.660156" xlink:href="#DejaVuSans-111"/>
      <use x="187.841797" xlink:href="#DejaVuSans-99"/>
      <use x="242.822266" xlink:href="#DejaVuSans-104"/>
     </g>
    </g>
   </g>
   <g id="matplotlib.axis_2">
    <g id="ytick_1">
     <g id="line2d_6">
      <defs>
       <path d="M 0 0 
L -3.5 0 
" id="m5212ef3cd2" style="stroke:#000000;stroke-width:0.8;"/>
      </defs>
      <g>
       <use style="stroke:#000000;stroke-width:0.8;" x="43.78125" xlink:href="#m5212ef3cd2" y="257.613538"/>
      </g>
     </g>
     <g id="text_7">
      <!-- 0.0 -->
      <defs>
       <path d="M 10.6875 12.40625 
L 21 12.40625 
L 21 0 
L 10.6875 0 
z
" id="DejaVuSans-46"/>
      </defs>
      <g transform="translate(20.878125 261.412756)scale(0.1 -0.1)">
       <use xlink:href="#DejaVuSans-48"/>
       <use x="63.623047" xlink:href="#DejaVuSans-46"/>
       <use x="95.410156" xlink:href="#DejaVuSans-48"/>
      </g>
     </g>
    </g>
    <g id="ytick_2">
     <g id="line2d_7">
      <g>
       <use style="stroke:#000000;stroke-width:0.8;" x="43.78125" xlink:href="#m5212ef3cd2" y="212.973655"/>
      </g>
     </g>
     <g id="text_8">
      <!-- 0.2 -->
      <g transform="translate(20.878125 216.772874)scale(0.1 -0.1)">
       <use xlink:href="#DejaVuSans-48"/>
       <use x="63.623047" xlink:href="#DejaVuSans-46"/>
       <use x="95.410156" xlink:href="#DejaVuSans-50"/>
      </g>
     </g>
    </g>
    <g id="ytick_3">
     <g id="line2d_8">
      <g>
       <use style="stroke:#000000;stroke-width:0.8;" x="43.78125" xlink:href="#m5212ef3cd2" y="168.333773"/>
      </g>
     </g>
     <g id="text_9">
      <!-- 0.4 -->
      <g transform="translate(20.878125 172.132991)scale(0.1 -0.1)">
       <use xlink:href="#DejaVuSans-48"/>
       <use x="63.623047" xlink:href="#DejaVuSans-46"/>
       <use x="95.410156" xlink:href="#DejaVuSans-52"/>
      </g>
     </g>
    </g>
    <g id="ytick_4">
     <g id="line2d_9">
      <g>
       <use style="stroke:#000000;stroke-width:0.8;" x="43.78125" xlink:href="#m5212ef3cd2" y="123.69389"/>
      </g>
     </g>
     <g id="text_10">
      <!-- 0.6 -->
      <defs>
       <path d="M 33.015625 40.375 
Q 26.375 40.375 22.484375 35.828125 
Q 18.609375 31.296875 18.609375 23.390625 
Q 18.609375 15.53125 22.484375 10.953125 
Q 26.375 6.390625 33.015625 6.390625 
Q 39.65625 6.390625 43.53125 10.953125 
Q 47.40625 15.53125 47.40625 23.390625 
Q 47.40625 31.296875 43.53125 35.828125 
Q 39.65625 40.375 33.015625 40.375 
z
M 52.59375 71.296875 
L 52.59375 62.3125 
Q 48.875 64.0625 45.09375 64.984375 
Q 41.3125 65.921875 37.59375 65.921875 
Q 27.828125 65.921875 22.671875 59.328125 
Q 17.53125 52.734375 16.796875 39.40625 
Q 19.671875 43.65625 24.015625 45.921875 
Q 28.375 48.1875 33.59375 48.1875 
Q 44.578125 48.1875 50.953125 41.515625 
Q 57.328125 34.859375 57.328125 23.390625 
Q 57.328125 12.15625 50.6875 5.359375 
Q 44.046875 -1.421875 33.015625 -1.421875 
Q 20.359375 -1.421875 13.671875 8.265625 
Q 6.984375 17.96875 6.984375 36.375 
Q 6.984375 53.65625 15.1875 63.9375 
Q 23.390625 74.21875 37.203125 74.21875 
Q 40.921875 74.21875 44.703125 73.484375 
Q 48.484375 72.75 52.59375 71.296875 
z
" id="DejaVuSans-54"/>
      </defs>
      <g transform="translate(20.878125 127.493109)scale(0.1 -0.1)">
       <use xlink:href="#DejaVuSans-48"/>
       <use x="63.623047" xlink:href="#DejaVuSans-46"/>
       <use x="95.410156" xlink:href="#DejaVuSans-54"/>
      </g>
     </g>
    </g>
    <g id="ytick_5">
     <g id="line2d_10">
      <g>
       <use style="stroke:#000000;stroke-width:0.8;" x="43.78125" xlink:href="#m5212ef3cd2" y="79.054008"/>
      </g>
     </g>
     <g id="text_11">
      <!-- 0.8 -->
      <defs>
       <path d="M 31.78125 34.625 
Q 24.75 34.625 20.71875 30.859375 
Q 16.703125 27.09375 16.703125 20.515625 
Q 16.703125 13.921875 20.71875 10.15625 
Q 24.75 6.390625 31.78125 6.390625 
Q 38.8125 6.390625 42.859375 10.171875 
Q 46.921875 13.96875 46.921875 20.515625 
Q 46.921875 27.09375 42.890625 30.859375 
Q 38.875 34.625 31.78125 34.625 
z
M 21.921875 38.8125 
Q 15.578125 40.375 12.03125 44.71875 
Q 8.5 49.078125 8.5 55.328125 
Q 8.5 64.0625 14.71875 69.140625 
Q 20.953125 74.21875 31.78125 74.21875 
Q 42.671875 74.21875 48.875 69.140625 
Q 55.078125 64.0625 55.078125 55.328125 
Q 55.078125 49.078125 51.53125 44.71875 
Q 48 40.375 41.703125 38.8125 
Q 48.828125 37.15625 52.796875 32.3125 
Q 56.78125 27.484375 56.78125 20.515625 
Q 56.78125 9.90625 50.3125 4.234375 
Q 43.84375 -1.421875 31.78125 -1.421875 
Q 19.734375 -1.421875 13.25 4.234375 
Q 6.78125 9.90625 6.78125 20.515625 
Q 6.78125 27.484375 10.78125 32.3125 
Q 14.796875 37.15625 21.921875 38.8125 
z
M 18.3125 54.390625 
Q 18.3125 48.734375 21.84375 45.5625 
Q 25.390625 42.390625 31.78125 42.390625 
Q 38.140625 42.390625 41.71875 45.5625 
Q 45.3125 48.734375 45.3125 54.390625 
Q 45.3125 60.0625 41.71875 63.234375 
Q 38.140625 66.40625 31.78125 66.40625 
Q 25.390625 66.40625 21.84375 63.234375 
Q 18.3125 60.0625 18.3125 54.390625 
z
" id="DejaVuSans-56"/>
      </defs>
      <g transform="translate(20.878125 82.853226)scale(0.1 -0.1)">
       <use xlink:href="#DejaVuSans-48"/>
       <use x="63.623047" xlink:href="#DejaVuSans-46"/>
       <use x="95.410156" xlink:href="#DejaVuSans-56"/>
      </g>
     </g>
    </g>
    <g id="ytick_6">
     <g id="line2d_11">
      <g>
       <use style="stroke:#000000;stroke-width:0.8;" x="43.78125" xlink:href="#m5212ef3cd2" y="34.414125"/>
      </g>
     </g>
     <g id="text_12">
      <!-- 1.0 -->
      <g transform="translate(20.878125 38.213344)scale(0.1 -0.1)">
       <use xlink:href="#DejaVuSans-49"/>
       <use x="63.623047" xlink:href="#DejaVuSans-46"/>
       <use x="95.410156" xlink:href="#DejaVuSans-48"/>
      </g>
     </g>
    </g>
    <g id="text_13">
     <!-- Loss -->
     <defs>
      <path d="M 9.8125 72.90625 
L 19.671875 72.90625 
L 19.671875 8.296875 
L 55.171875 8.296875 
L 55.171875 0 
L 9.8125 0 
z
" id="DejaVuSans-76"/>
      <path d="M 44.28125 53.078125 
L 44.28125 44.578125 
Q 40.484375 46.53125 36.375 47.5 
Q 32.28125 48.484375 27.875 48.484375 
Q 21.1875 48.484375 17.84375 46.4375 
Q 14.5 44.390625 14.5 40.28125 
Q 14.5 37.15625 16.890625 35.375 
Q 19.28125 33.59375 26.515625 31.984375 
L 29.59375 31.296875 
Q 39.15625 29.25 43.1875 25.515625 
Q 47.21875 21.78125 47.21875 15.09375 
Q 47.21875 7.46875 41.1875 3.015625 
Q 35.15625 -1.421875 24.609375 -1.421875 
Q 20.21875 -1.421875 15.453125 -0.5625 
Q 10.6875 0.296875 5.421875 2 
L 5.421875 11.28125 
Q 10.40625 8.6875 15.234375 7.390625 
Q 20.0625 6.109375 24.8125 6.109375 
Q 31.15625 6.109375 34.5625 8.28125 
Q 37.984375 10.453125 37.984375 14.40625 
Q 37.984375 18.0625 35.515625 20.015625 
Q 33.0625 21.96875 24.703125 23.78125 
L 21.578125 24.515625 
Q 13.234375 26.265625 9.515625 29.90625 
Q 5.8125 33.546875 5.8125 39.890625 
Q 5.8125 47.609375 11.28125 51.796875 
Q 16.75 56 26.8125 56 
Q 31.78125 56 36.171875 55.265625 
Q 40.578125 54.546875 44.28125 53.078125 
z
" id="DejaVuSans-115"/>
     </defs>
     <g transform="translate(14.798438 166.428031)rotate(-90)scale(0.1 -0.1)">
      <use xlink:href="#DejaVuSans-76"/>
      <use x="55.697266" xlink:href="#DejaVuSans-111"/>
      <use x="116.878906" xlink:href="#DejaVuSans-115"/>
      <use x="168.978516" xlink:href="#DejaVuSans-115"/>
     </g>
    </g>
   </g>
   <g id="line2d_12">
    <path clip-path="url(#pfbc9b0a812)" d="M 60.013977 192.338087 
L 60.756894 207.844888 
L 61.49981 194.96519 
L 62.242727 202.041421 
L 62.985644 211.214183 
L 64.471477 198.235763 
L 65.214393 203.313637 
L 65.95731 205.759085 
L 66.700226 201.02914 
L 67.443143 191.981777 
L 68.18606 206.061806 
L 68.928976 203.007462 
L 69.671893 202.836807 
L 70.414809 197.718954 
L 71.157726 173.618865 
L 71.900643 202.182618 
L 72.643559 216.261135 
L 73.386476 198.706579 
L 74.129392 202.11844 
L 74.872309 198.07226 
L 75.615225 203.67053 
L 76.358142 200.509084 
L 77.101059 200.529585 
L 77.843975 203.825224 
L 78.586892 204.322383 
L 79.329808 201.168321 
L 80.072725 200.490364 
L 80.815642 200.198052 
L 81.558558 188.487149 
L 82.301475 202.330707 
L 83.044391 203.328754 
L 83.787308 193.157914 
L 84.530224 181.096856 
L 85.273141 185.969386 
L 86.016058 177.890297 
L 86.758974 197.260969 
L 87.501891 201.017786 
L 88.244807 192.428157 
L 88.987724 195.322818 
L 89.73064 199.62623 
L 90.473557 200.984413 
L 91.216474 201.069319 
L 91.95939 201.282768 
L 92.702307 202.001747 
L 93.445223 200.7137 
L 94.18814 201.44057 
L 94.931057 202.39663 
L 95.673973 202.100887 
L 96.41689 202.1311 
L 97.159806 195.742439 
L 97.902723 203.410946 
L 98.645639 205.838135 
L 99.388556 203.048747 
L 100.131473 202.356515 
L 100.874389 208.15205 
L 101.617306 196.303441 
L 102.360222 200.207994 
L 103.103139 194.079435 
L 103.846055 192.63919 
L 104.588972 203.23761 
L 105.331889 196.12818 
L 106.074805 202.386152 
L 106.817722 199.444347 
L 107.560638 201.738855 
L 108.303555 202.768345 
L 109.046472 196.260379 
L 109.789388 200.873006 
L 110.532305 199.389506 
L 111.275221 199.776743 
L 112.018138 201.985824 
L 112.761054 200.492674 
L 113.503971 201.433412 
L 114.989804 202.433664 
L 115.732721 209.221719 
L 116.475637 191.677271 
L 117.218554 201.671044 
L 117.961471 202.663571 
L 118.704387 178.596547 
L 119.447304 187.293303 
L 120.19022 204.268178 
L 120.933137 203.351301 
L 121.676053 199.105316 
L 122.41897 199.954132 
L 123.161887 196.846864 
L 123.904803 197.986949 
L 124.64772 197.39627 
L 125.390636 199.942615 
L 126.133553 197.965102 
L 126.876469 198.252 
L 127.619386 199.777907 
L 128.362303 196.302728 
L 129.105219 198.464816 
L 129.848136 196.276565 
L 130.591052 198.237128 
L 131.333969 198.716454 
L 132.076886 199.451975 
L 132.819802 199.667683 
L 133.562719 197.553115 
L 134.305635 197.483183 
L 135.048552 200.795436 
L 135.791468 199.574292 
L 136.534385 197.680089 
L 137.277302 198.323348 
L 138.020218 200.457558 
L 138.763135 200.825073 
L 139.506051 198.744491 
L 140.248968 199.300149 
L 140.991884 200.838595 
L 141.734801 200.376245 
L 142.477718 201.186632 
L 143.220634 201.471308 
L 143.963551 198.639929 
L 144.706467 202.218156 
L 145.449384 202.410229 
L 146.192301 204.901188 
L 146.935217 205.403 
L 147.678134 206.677744 
L 148.42105 205.148673 
L 149.163967 204.007755 
L 149.906883 205.380158 
L 150.6498 200.54931 
L 151.392717 201.144225 
L 152.135633 200.893668 
L 152.87855 203.666607 
L 153.621466 200.741523 
L 154.364383 203.934806 
L 155.1073 204.935083 
L 155.850216 203.00189 
L 156.593133 199.293249 
L 157.336049 194.789091 
L 158.821882 194.963251 
L 159.564799 205.58553 
L 160.307716 212.702777 
L 161.050632 198.378486 
L 161.793549 219.474106 
L 162.536465 228.939203 
L 163.279382 234.329747 
L 164.022298 233.32653 
L 164.765215 238.368818 
L 165.508132 237.445078 
L 166.251048 238.258802 
L 166.993965 238.896711 
L 167.736881 235.67829 
L 168.479798 236.725437 
L 169.222715 240.416735 
L 169.965631 236.572927 
L 170.708548 235.429536 
L 171.451464 232.398582 
L 172.194381 231.996645 
L 172.937297 230.111261 
L 173.680214 226.767753 
L 174.423131 227.775104 
L 175.166047 233.162179 
L 175.908964 233.956838 
L 176.65188 234.385001 
L 177.394797 233.620968 
L 178.88063 218.252172 
L 179.623547 225.871146 
L 180.366463 217.056299 
L 181.10938 209.923607 
L 181.852296 204.833962 
L 182.595213 201.822196 
L 183.33813 209.554096 
L 184.081046 208.559925 
L 184.823963 214.487186 
L 185.566879 213.805512 
L 186.309796 216.485211 
L 187.052712 215.552841 
L 187.795629 212.157918 
L 188.538546 214.449842 
L 189.281462 217.293893 
L 190.024379 213.554389 
L 190.767295 216.691982 
L 191.510212 213.635149 
L 192.253129 215.858029 
L 192.996045 209.091332 
L 193.738962 215.645344 
L 194.481878 215.628661 
L 195.224795 198.680276 
L 195.967711 217.456403 
L 196.710628 215.148682 
L 197.453545 214.53333 
L 198.196461 217.792315 
L 200.425211 218.890645 
L 201.911044 219.042786 
L 202.653961 221.138814 
L 203.396877 221.237987 
L 204.139794 222.326386 
L 204.88271 224.13416 
L 205.625627 222.301842 
L 207.11146 224.195369 
L 207.854377 222.336598 
L 208.597293 221.224278 
L 210.083126 226.618205 
L 210.826043 221.627693 
L 211.56896 224.291603 
L 212.311876 219.035602 
L 213.054793 221.231821 
L 213.797709 221.894761 
L 214.540626 224.47377 
L 215.283542 227.483377 
L 216.769376 225.640718 
L 218.255209 220.865553 
L 218.998125 218.650877 
L 219.741042 221.839003 
L 220.483959 220.050541 
L 221.226875 219.034279 
L 221.969792 217.543538 
L 222.712708 212.921718 
L 223.455625 221.855285 
L 224.198541 216.271434 
L 224.941458 218.909489 
L 225.684375 219.563724 
L 226.427291 218.276784 
L 227.170208 219.063551 
L 227.913124 222.314019 
L 228.656041 216.01328 
L 229.398958 216.366774 
L 230.141874 214.460118 
L 230.884791 215.945338 
L 231.627707 214.991563 
L 232.370624 213.780646 
L 233.11354 218.113684 
L 233.856457 218.262898 
L 234.599374 213.441759 
L 235.34229 219.835002 
L 236.085207 218.670167 
L 236.828123 212.677933 
L 237.57104 219.807128 
L 238.313956 218.989875 
L 239.056873 221.303842 
L 239.79979 228.97492 
L 240.542706 225.228016 
L 241.285623 219.896016 
L 242.028539 225.793325 
L 242.771456 226.047272 
L 243.514373 224.398486 
L 244.257289 215.081738 
L 245.000206 214.642035 
L 245.743122 215.373652 
L 246.486039 212.54433 
L 247.228955 214.190708 
L 247.971872 219.629491 
L 248.714789 219.324602 
L 249.457705 214.767525 
L 250.200622 212.816372 
L 250.943538 212.26789 
L 251.686455 204.145726 
L 252.429371 217.079664 
L 253.172288 220.748857 
L 253.915205 219.212393 
L 254.658121 218.731315 
L 255.401038 217.581119 
L 256.143954 219.513356 
L 256.886871 222.273738 
L 257.629788 218.762762 
L 258.372704 213.100897 
L 259.115621 220.411067 
L 259.858537 214.516392 
L 260.601454 214.533909 
L 261.34437 218.007254 
L 262.087287 217.832053 
L 262.830204 220.845798 
L 263.57312 228.202962 
L 264.316037 224.961704 
L 265.058953 223.356891 
L 265.80187 228.187723 
L 266.544787 225.952929 
L 267.287703 224.3952 
L 268.03062 227.657843 
L 268.773536 221.214808 
L 269.516453 220.350692 
L 270.259369 214.739873 
L 271.002286 216.799625 
L 271.745203 216.726561 
L 272.488119 218.377747 
L 273.231036 214.716513 
L 273.973952 220.646303 
L 274.716869 216.191751 
L 275.459785 209.101056 
L 276.202702 207.847491 
L 276.945619 207.515104 
L 277.688535 210.698255 
L 278.431452 212.945442 
L 279.174368 213.685832 
L 279.917285 224.728488 
L 280.660202 225.089075 
L 281.403118 229.155095 
L 282.146035 230.990282 
L 282.888951 229.509195 
L 284.374784 229.524725 
L 285.117701 230.00854 
L 285.860618 231.389087 
L 286.603534 232.174523 
L 287.346451 228.027389 
L 288.089367 215.219018 
L 288.832284 209.116518 
L 289.5752 206.622987 
L 290.318117 217.707741 
L 291.061034 219.564519 
L 292.546867 201.359174 
L 293.289783 207.415703 
L 294.0327 200.024152 
L 294.775617 204.88196 
L 295.518533 208.504864 
L 296.26145 213.574839 
L 297.004366 214.56841 
L 297.747283 215.275864 
L 298.490199 218.563567 
L 299.233116 229.732307 
L 299.976033 229.795956 
L 300.718949 228.287178 
L 301.461866 227.952303 
L 302.204782 222.987888 
L 302.947699 220.531854 
L 303.690616 215.555653 
L 304.433532 211.973768 
L 305.176449 215.781956 
L 305.919365 220.572856 
L 306.662282 227.803264 
L 307.405198 237.965771 
L 308.148115 239.144646 
L 308.891032 237.499756 
L 309.633948 243.933281 
L 310.376865 243.262406 
L 311.119781 244.721395 
L 311.862698 246.626426 
L 312.605614 247.239281 
L 313.348531 250.775854 
L 314.091448 252.607578 
L 314.834364 251.217688 
L 315.577281 251.999402 
L 316.320197 254.009909 
L 317.063114 253.211129 
L 317.806031 254.509347 
L 318.548947 254.461091 
L 319.291864 255.67756 
L 320.03478 255.762202 
L 320.777697 254.738112 
L 321.520613 254.969683 
L 322.26353 255.80859 
L 323.006447 254.626348 
L 323.749363 255.504282 
L 324.49228 255.177 
L 325.235196 256.050665 
L 325.978113 253.36751 
L 326.721029 251.816017 
L 327.463946 255.529505 
L 328.206863 257.449261 
L 328.949779 255.726742 
L 329.692696 254.290162 
L 330.435612 256.656565 
L 331.178529 257.613538 
L 331.921446 254.909959 
L 332.664362 254.411641 
L 333.407279 251.106198 
L 334.893112 241.976851 
L 335.636028 243.456772 
L 336.378945 248.895188 
L 337.121862 239.470515 
L 337.864778 244.4221 
L 338.607695 248.582827 
L 339.350611 248.528882 
L 340.093528 232.056827 
L 340.836445 229.690297 
L 341.579361 235.785394 
L 342.322278 236.874927 
L 343.065194 236.306427 
L 343.808111 239.078156 
L 344.551027 237.982013 
L 345.293944 240.809167 
L 346.036861 242.141368 
L 346.779777 232.311886 
L 347.522694 231.427577 
L 348.26561 225.887385 
L 349.008527 227.548074 
L 349.751443 224.105376 
L 350.49436 232.114758 
L 351.237277 217.022048 
L 351.980193 228.659118 
L 352.72311 221.349618 
L 353.466026 211.827054 
L 354.208943 234.578285 
L 354.95186 236.103034 
L 355.694776 231.709928 
L 356.437693 216.309033 
L 357.180609 195.589487 
L 357.923526 226.062514 
L 358.666442 224.177758 
L 359.409359 206.102006 
L 360.152276 215.176593 
L 360.895192 184.517053 
L 361.638109 213.735877 
L 362.381025 206.157033 
L 363.123942 181.148942 
L 363.866858 178.321436 
L 364.609775 146.823592 
L 365.352692 203.831954 
L 366.095608 193.973692 
L 366.838525 148.029681 
L 367.581441 130.317498 
L 368.324358 153.395039 
L 369.067275 187.895356 
L 369.810191 87.852346 
L 370.553108 182.895905 
L 371.296024 168.846668 
L 372.038941 216.000294 
L 372.781857 96.531007 
L 373.524774 191.702099 
L 374.267691 161.133455 
L 375.010607 106.807517 
L 375.753524 130.27966 
L 376.49644 34.414125 
L 377.982274 167.699491 
L 378.72519 99.508913 
L 379.468107 95.317262 
L 380.211023 119.954015 
L 380.95394 115.855861 
L 381.696856 144.206557 
L 382.439773 115.224062 
L 383.18269 91.405483 
L 383.925606 119.65709 
L 384.668523 76.339384 
L 384.668523 76.339384 
" style="fill:none;stroke:#1f77b4;stroke-linecap:square;stroke-opacity:0.3;stroke-width:1.5;"/>
   </g>
   <g id="line2d_13">
    <path clip-path="url(#pfbc9b0a812)" d="M 60.013977 195.875238 
L 60.756894 198.972819 
L 61.49981 201.521065 
L 62.242727 203.456078 
L 62.985644 204.713961 
L 63.72856 205.230817 
L 64.471477 202.776811 
L 65.214393 203.034112 
L 65.95731 201.448581 
L 66.700226 200.811834 
L 67.443143 203.513337 
L 68.18606 200.735925 
L 68.928976 196.633552 
L 69.671893 196.852082 
L 70.414809 197.581517 
L 71.157726 198.761454 
L 71.900643 197.610534 
L 73.386476 200.722499 
L 74.872309 204.306673 
L 75.615225 201.319909 
L 76.358142 200.485457 
L 77.101059 202.312877 
L 77.843975 203.192219 
L 78.586892 201.91271 
L 79.329808 200.17757 
L 80.815642 200.708897 
L 81.558558 198.68954 
L 82.301475 197.146739 
L 83.044391 193.174681 
L 83.787308 190.02088 
L 84.530224 189.327418 
L 85.273141 189.212163 
L 86.016058 187.582047 
L 86.758974 188.895535 
L 88.244807 196.251987 
L 89.73064 200.169493 
L 90.473557 199.368457 
L 91.216474 200.105942 
L 91.95939 201.661245 
L 92.702307 201.80655 
L 93.445223 202.193028 
L 94.18814 201.482152 
L 94.931057 200.935648 
L 95.673973 201.093344 
L 96.41689 201.413654 
L 97.159806 201.372972 
L 97.902723 202.718022 
L 98.645639 202.972884 
L 99.388556 203.650617 
L 100.131473 203.622996 
L 101.617306 200.08362 
L 102.360222 198.153679 
L 103.846055 197.039608 
L 104.588972 196.910679 
L 105.331889 199.282197 
L 106.074805 199.664125 
L 106.817722 200.875401 
L 107.560638 200.960274 
L 108.303555 199.891481 
L 109.046472 200.414054 
L 109.789388 199.798867 
L 110.532305 200.003589 
L 112.018138 199.851737 
L 112.761054 202.458342 
L 113.503971 202.005964 
L 114.246888 201.929641 
L 114.989804 203.716026 
L 115.732721 202.221511 
L 116.475637 198.593483 
L 117.218554 195.954306 
L 117.961471 194.724014 
L 118.704387 194.012858 
L 119.447304 194.370957 
L 120.19022 196.571961 
L 120.933137 196.877981 
L 121.676053 198.408884 
L 122.41897 201.282936 
L 123.161887 199.977697 
L 123.904803 197.832182 
L 126.133553 198.402111 
L 126.876469 198.459219 
L 128.362303 197.8557 
L 129.105219 197.576834 
L 129.848136 198.034119 
L 130.591052 198.207429 
L 131.333969 198.042014 
L 132.076886 198.58326 
L 133.562719 199.166486 
L 134.305635 198.78587 
L 135.048552 198.652702 
L 137.277302 199.372032 
L 138.020218 199.451581 
L 138.763135 199.313397 
L 139.506051 199.727631 
L 140.248968 200.439532 
L 141.734801 200.15361 
L 142.477718 200.223486 
L 143.963551 201.189346 
L 144.706467 202.012167 
L 145.449384 203.145104 
L 146.192301 203.92993 
L 146.935217 205.157203 
L 147.678134 205.759514 
L 148.42105 205.267222 
L 151.392717 201.67816 
L 152.135633 201.794027 
L 153.621466 202.987453 
L 154.364383 203.321899 
L 155.1073 202.466217 
L 156.593133 198.029269 
L 157.336049 198.943076 
L 158.078966 197.421659 
L 158.821882 197.631741 
L 159.564799 200.490074 
L 161.050632 212.329544 
L 162.536465 224.99112 
L 164.765215 238.661213 
L 165.508132 237.920748 
L 166.993965 238.169263 
L 167.736881 238.487445 
L 168.479798 237.775464 
L 169.222715 237.291039 
L 169.965631 236.488223 
L 170.708548 235.072267 
L 172.194381 231.09348 
L 172.937297 229.669083 
L 173.680214 229.747628 
L 174.423131 230.844115 
L 175.166047 232.304807 
L 175.908964 231.711035 
L 176.65188 231.739896 
L 177.394797 231.102178 
L 178.137713 228.63155 
L 178.88063 224.506657 
L 180.366463 214.410769 
L 181.10938 210.337971 
L 181.852296 208.464879 
L 182.595213 207.320731 
L 183.33813 206.783831 
L 184.823963 211.666091 
L 186.309796 215.086951 
L 187.052712 214.900659 
L 187.795629 215.427654 
L 188.538546 214.878139 
L 189.281462 215.462073 
L 190.024379 214.677897 
L 190.767295 214.499993 
L 191.510212 215.944387 
L 192.253129 213.591752 
L 192.996045 212.266104 
L 193.738962 211.92423 
L 194.481878 211.194577 
L 195.224795 211.618194 
L 195.967711 212.299933 
L 196.710628 213.889197 
L 197.453545 214.769274 
L 198.939378 218.852865 
L 199.682294 217.967344 
L 200.425211 218.843929 
L 201.911044 219.975867 
L 204.88271 223.040918 
L 205.625627 223.127705 
L 206.368544 222.810718 
L 207.11146 223.317936 
L 207.854377 223.20097 
L 208.597293 223.617325 
L 209.34021 223.636636 
L 210.083126 223.196414 
L 210.826043 222.584452 
L 211.56896 222.188708 
L 213.054793 222.246394 
L 213.797709 223.018533 
L 214.540626 224.455802 
L 215.283542 225.134358 
L 216.026459 225.370133 
L 216.769376 224.708192 
L 217.512292 223.737715 
L 218.255209 222.375779 
L 218.998125 221.286869 
L 219.741042 219.432188 
L 221.226875 218.310577 
L 221.969792 217.940861 
L 222.712708 217.83939 
L 223.455625 217.443753 
L 224.198541 217.50057 
L 224.941458 218.570089 
L 225.684375 219.314745 
L 226.427291 219.800762 
L 227.170208 218.71565 
L 227.913124 218.666857 
L 228.656041 217.779552 
L 229.398958 216.519485 
L 230.141874 215.729217 
L 230.884791 215.547403 
L 231.627707 214.802472 
L 232.370624 215.553802 
L 233.11354 216.532804 
L 234.599374 216.676746 
L 235.34229 216.91014 
L 236.085207 216.647049 
L 236.828123 217.326319 
L 237.57104 219.3545 
L 238.313956 220.732176 
L 239.056873 221.478259 
L 239.79979 223.251855 
L 240.542706 225.59509 
L 241.285623 225.478896 
L 242.028539 224.717925 
L 242.771456 223.036526 
L 243.514373 220.406051 
L 244.257289 218.318157 
L 245.743122 215.284605 
L 246.486039 214.992701 
L 247.228955 215.349342 
L 247.971872 216.869908 
L 249.457705 213.958227 
L 250.943538 213.150887 
L 251.686455 213.165973 
L 252.429371 214.136233 
L 253.172288 215.721528 
L 254.658121 219.954043 
L 255.401038 220.433349 
L 256.143954 219.408751 
L 258.372704 217.475977 
L 259.115621 216.687671 
L 259.858537 215.511094 
L 260.601454 216.037645 
L 262.087287 219.683242 
L 262.830204 221.141035 
L 263.57312 223.767073 
L 265.058953 226.265945 
L 265.80187 226.848953 
L 266.544787 226.653749 
L 267.287703 225.043373 
L 268.03062 223.8629 
L 270.259369 218.066268 
L 271.002286 217.168286 
L 271.745203 217.000607 
L 272.488119 217.343639 
L 273.231036 216.780655 
L 273.973952 215.650748 
L 274.716869 213.547894 
L 275.459785 211.836223 
L 276.202702 209.630368 
L 276.945619 209.41231 
L 277.688535 209.845704 
L 278.431452 212.867544 
L 279.917285 221.410031 
L 280.660202 225.031227 
L 281.403118 227.659705 
L 282.146035 229.461027 
L 282.888951 230.389379 
L 283.631868 230.479629 
L 284.374784 231.872857 
L 285.117701 231.735732 
L 285.860618 230.187583 
L 287.346451 222.237698 
L 288.089367 219.388326 
L 288.832284 217.076901 
L 289.5752 213.618246 
L 290.318117 211.696231 
L 291.061034 210.117179 
L 291.80395 209.298097 
L 294.0327 204.415607 
L 294.775617 205.033452 
L 295.518533 207.095609 
L 297.004366 214.204835 
L 297.747283 218.898455 
L 298.490199 222.519146 
L 299.233116 225.335383 
L 299.976033 227.239817 
L 300.718949 228.084545 
L 301.461866 226.61283 
L 302.204782 223.268838 
L 302.947699 218.976625 
L 303.690616 216.294973 
L 304.433532 216.164982 
L 305.176449 218.431445 
L 305.919365 222.046402 
L 308.148115 237.334438 
L 308.891032 240.671055 
L 309.633948 242.680015 
L 311.119781 245.037448 
L 312.605614 248.550016 
L 313.348531 249.630299 
L 314.091448 251.017738 
L 314.834364 252.063051 
L 316.320197 253.381773 
L 317.806031 254.281038 
L 318.548947 254.817216 
L 319.291864 255.156012 
L 320.03478 255.175971 
L 320.777697 255.369958 
L 321.520613 255.229879 
L 322.26353 255.442437 
L 323.006447 255.476112 
L 324.49228 254.601806 
L 325.235196 254.527868 
L 325.978113 254.659294 
L 327.463946 254.632097 
L 328.949779 255.709522 
L 329.692696 256.563374 
L 330.435612 256.923568 
L 331.178529 256.23579 
L 331.921446 254.573719 
L 332.664362 252.171923 
L 333.407279 250.647801 
L 334.893112 245.198487 
L 335.636028 243.906739 
L 336.378945 244.85897 
L 337.121862 245.413573 
L 337.864778 244.474 
L 338.607695 242.889085 
L 340.093528 238.081345 
L 340.836445 237.138425 
L 341.579361 235.102357 
L 342.322278 234.271061 
L 343.065194 236.272202 
L 343.808111 239.113627 
L 344.551027 239.981753 
L 346.036861 237.109313 
L 346.779777 234.140849 
L 347.522694 232.545147 
L 348.26561 229.229354 
L 349.008527 227.053083 
L 349.751443 226.344317 
L 350.49436 223.894841 
L 351.237277 222.382184 
L 351.980193 223.047329 
L 352.72311 225.143222 
L 353.466026 228.182159 
L 354.208943 225.087235 
L 355.694776 223.61739 
L 356.437693 222.064712 
L 357.180609 222.049772 
L 357.923526 214.069118 
L 358.666442 210.537289 
L 359.409359 211.021971 
L 360.152276 210.676847 
L 360.895192 209.891605 
L 361.638109 195.717998 
L 362.381025 189.086522 
L 363.123942 189.552491 
L 363.866858 186.955467 
L 364.609775 180.810039 
L 365.352692 167.2914 
L 366.095608 170.805028 
L 366.838525 161.028782 
L 367.581441 155.17583 
L 368.324358 148.094658 
L 369.067275 152.490561 
L 369.810191 150.943364 
L 371.296024 168.423379 
L 372.038941 164.938054 
L 372.781857 168.563838 
L 373.524774 161.770296 
L 374.267691 130.222852 
L 375.753524 111.236103 
L 376.49644 110.610462 
L 377.239357 97.719329 
L 377.982274 99.077061 
L 378.72519 109.766016 
L 380.211023 125.49907 
L 380.95394 120.587385 
L 381.696856 120.671058 
L 382.439773 118.094414 
L 383.18269 111.7084 
L 383.925606 100.363963 
L 384.668523 82.912051 
L 384.668523 82.912051 
" style="fill:none;stroke:#1f77b4;stroke-linecap:square;stroke-width:1.5;"/>
   </g>
   <g id="line2d_14">
    <path clip-path="url(#pfbc9b0a812)" d="M 60.013977 254.075365 
L 60.756894 253.567077 
L 61.49981 255.093075 
L 62.985644 254.872284 
L 63.72856 254.084931 
L 64.471477 250.688891 
L 65.214393 253.489876 
L 65.95731 254.92701 
L 66.700226 253.336875 
L 67.443143 252.056902 
L 68.18606 255.035377 
L 68.928976 255.036742 
L 69.671893 244.762303 
L 70.414809 251.091595 
L 71.157726 230.689924 
L 71.900643 255.054854 
L 72.643559 254.978602 
L 73.386476 255.338575 
L 74.872309 255.402284 
L 75.615225 255.275905 
L 80.072725 255.738326 
L 80.815642 255.724412 
L 81.558558 229.717958 
L 82.301475 255.603311 
L 83.044391 255.819303 
L 83.787308 241.258792 
L 84.530224 204.784572 
L 85.273141 224.344763 
L 86.016058 202.262654 
L 86.758974 223.079875 
L 87.501891 255.904817 
L 88.244807 250.34258 
L 88.987724 250.075065 
L 89.73064 256.20282 
L 96.41689 256.486429 
L 97.159806 210.260096 
L 97.902723 256.462745 
L 98.645639 256.397057 
L 100.131473 256.615394 
L 100.874389 256.619419 
L 101.617306 192.847601 
L 102.360222 256.411167 
L 103.103139 224.148499 
L 103.846055 179.372012 
L 104.588972 256.682582 
L 105.331889 144.013529 
L 106.074805 256.642173 
L 107.560638 256.870353 
L 109.046472 256.923794 
L 135.791468 257.426619 
L 156.593133 257.437727 
L 157.336049 147.171549 
L 158.078966 110.081574 
L 158.821882 109.691455 
L 159.564799 257.455559 
L 160.307716 257.458653 
L 161.050632 34.414125 
L 161.793549 257.593758 
L 169.965631 257.607344 
L 181.852296 257.544825 
L 182.595213 257.459777 
L 185.566879 257.608595 
L 325.978113 257.599951 
L 363.123942 257.579932 
L 366.838525 257.417238 
L 367.581441 219.535328 
L 368.324358 257.168632 
L 369.067275 151.779352 
L 369.810191 198.606645 
L 370.553108 257.282863 
L 371.296024 170.133302 
L 372.038941 257.383084 
L 372.781857 239.758234 
L 373.524774 232.364304 
L 374.267691 247.557228 
L 375.010607 239.39804 
L 375.753524 247.686405 
L 376.49644 243.583187 
L 377.239357 243.768931 
L 377.982274 253.955999 
L 378.72519 249.672503 
L 379.468107 248.889864 
L 380.95394 251.955045 
L 381.696856 253.685302 
L 382.439773 253.60179 
L 383.18269 253.638647 
L 383.925606 253.41462 
L 384.668523 254.753493 
L 384.668523 254.753493 
" style="fill:none;stroke:#ff7f0e;stroke-linecap:square;stroke-opacity:0.3;stroke-width:1.5;"/>
   </g>
   <g id="line2d_15">
    <path clip-path="url(#pfbc9b0a812)" d="M 60.013977 254.010883 
L 60.756894 254.345015 
L 61.49981 254.463225 
L 62.242727 254.408833 
L 63.72856 253.955528 
L 65.214393 253.087946 
L 65.95731 253.965967 
L 66.700226 253.493534 
L 67.443143 254.80433 
L 68.928976 249.372196 
L 69.671893 247.859829 
L 70.414809 247.494355 
L 71.157726 247.812321 
L 71.900643 248.64433 
L 72.643559 250.620522 
L 73.386476 253.49191 
L 74.129392 255.091277 
L 74.872309 257.37226 
L 75.615225 255.384829 
L 77.101059 255.452355 
L 77.843975 257.696574 
L 78.586892 255.048281 
L 79.329808 252.978142 
L 80.072725 252.714848 
L 80.815642 254.586186 
L 81.558558 250.41076 
L 82.301475 246.913016 
L 83.044391 238.918429 
L 83.787308 228.849435 
L 84.530224 224.145534 
L 85.273141 223.764206 
L 86.016058 221.750822 
L 86.758974 226.457837 
L 87.501891 235.748296 
L 88.244807 246.510524 
L 89.73064 257.88185 
L 90.473557 257.435074 
L 91.216474 255.557993 
L 91.95939 256.691024 
L 92.702307 256.875608 
L 93.445223 260.27364 
L 94.18814 255.452752 
L 94.931057 251.706833 
L 95.673973 249.012883 
L 96.41689 247.393973 
L 97.159806 246.863216 
L 97.902723 252.772463 
L 98.645639 247.746336 
L 99.388556 247.972675 
L 100.131473 251.112148 
L 100.874389 242.993246 
L 101.617306 239.653454 
L 102.360222 222.965824 
L 103.103139 212.913749 
L 103.846055 209.547687 
L 104.588972 212.8838 
L 105.331889 222.899613 
L 106.074805 226.075263 
L 107.560638 251.744498 
L 108.303555 254.498683 
L 109.046472 266.365103 
L 109.789388 256.953691 
L 119.447304 257.225261 
L 133.562719 257.42054 
L 152.87855 257.43966 
L 153.621466 266.692364 
L 154.364383 267.492219 
L 155.1073 255.436785 
L 155.850216 221.489215 
L 156.593133 196.991847 
L 157.336049 200.663378 
L 158.078966 171.660187 
L 158.821882 157.319802 
L 159.564799 157.640944 
L 160.307716 172.618072 
L 161.050632 202.24861 
L 161.793549 223.138373 
L 162.536465 234.099008 
L 163.279382 234.721217 
L 164.022298 252.933709 
L 164.765215 276.334125 
L 165.508132 257.606353 
L 259.115621 257.613513 
L 363.123942 257.576745 
L 363.866858 260.74256 
L 364.609775 256.769101 
L 365.352692 262.491098 
L 366.095608 254.093194 
L 366.838525 237.951665 
L 367.581441 233.837161 
L 368.324358 217.975596 
L 369.067275 210.340927 
L 369.810191 208.258655 
L 370.553108 209.457661 
L 371.296024 218.051824 
L 372.038941 224.010871 
L 372.781857 239.942787 
L 373.524774 239.764942 
L 374.267691 239.294516 
L 375.010607 248.278568 
L 375.753524 242.641403 
L 376.49644 246.076127 
L 377.239357 247.87222 
L 377.982274 247.842868 
L 378.72519 249.708319 
L 379.468107 250.301201 
L 380.211023 251.759007 
L 381.696856 252.567728 
L 383.18269 253.316025 
L 383.925606 253.931179 
L 384.668523 254.848439 
L 384.668523 254.848439 
" style="fill:none;stroke:#ff7f0e;stroke-linecap:square;stroke-width:1.5;"/>
   </g>
   <g id="line2d_16">
    <path clip-path="url(#pfbc9b0a812)" d="M 60.013977 35.858498 
L 60.756894 34.782388 
L 61.49981 34.819885 
L 62.242727 35.807764 
L 62.985644 37.582804 
L 63.72856 39.98178 
L 65.214393 46.644857 
L 65.95731 49.301189 
L 66.700226 50.791899 
L 67.443143 51.803969 
L 68.18606 54.821347 
L 68.928976 55.811542 
L 69.671893 59.193155 
L 71.900643 66.041333 
L 72.643559 69.644996 
L 73.386476 69.552297 
L 74.129392 72.829149 
L 74.872309 74.339146 
L 75.615225 76.328959 
L 77.101059 78.20746 
L 77.843975 76.374947 
L 78.586892 77.764715 
L 79.329808 74.896993 
L 80.072725 76.135921 
L 80.815642 71.548068 
L 81.558558 70.488531 
L 82.301475 70.941632 
L 83.044391 73.469483 
L 83.787308 76.882348 
L 84.530224 72.971721 
L 85.273141 71.85461 
L 86.016058 76.528539 
L 86.758974 76.965802 
L 87.501891 76.057281 
L 88.244807 70.623678 
L 88.987724 67.328689 
L 89.73064 70.375567 
L 90.473557 68.788295 
L 91.216474 68.324077 
L 91.95939 62.1224 
L 92.702307 62.213338 
L 93.445223 65.052433 
L 94.18814 66.743785 
L 94.931057 63.942456 
L 96.41689 65.307217 
L 97.159806 68.108463 
L 97.902723 66.409869 
L 98.645639 66.83513 
L 99.388556 63.630079 
L 100.131473 61.386184 
L 100.874389 62.666487 
L 101.617306 59.068269 
L 102.360222 57.847686 
L 103.103139 59.714711 
L 103.846055 60.970136 
L 104.588972 61.552651 
L 105.331889 61.503805 
L 106.074805 59.114818 
L 106.817722 61.186952 
L 107.560638 62.63132 
L 108.303555 65.325686 
L 109.046472 63.802948 
L 109.789388 65.207879 
L 110.532305 64.876489 
L 111.275221 62.756529 
L 112.018138 59.428035 
L 112.761054 55.517533 
L 113.503971 54.50118 
L 114.246888 57.953545 
L 114.989804 59.11018 
L 115.732721 63.840839 
L 116.475637 69.616035 
L 117.218554 72.179222 
L 117.961471 76.667151 
L 118.704387 77.871917 
L 119.447304 83.732319 
L 120.19022 87.214814 
L 120.933137 93.785569 
L 121.676053 95.575353 
L 123.161887 101.69589 
L 123.904803 105.80146 
L 124.64772 107.354695 
L 125.390636 107.416285 
L 126.133553 104.833873 
L 126.876469 108.151246 
L 129.105219 113.468132 
L 130.591052 117.48717 
L 131.333969 124.971513 
L 132.076886 127.645924 
L 132.819802 128.266612 
L 133.562719 129.952551 
L 135.048552 135.974941 
L 135.791468 137.717739 
L 136.534385 139.882974 
L 137.277302 139.908295 
L 138.020218 142.016874 
L 138.763135 145.254153 
L 139.506051 143.664931 
L 140.991884 143.416719 
L 141.734801 144.483115 
L 142.477718 144.52142 
L 143.220634 143.919319 
L 143.963551 146.150774 
L 144.706467 146.717149 
L 145.449384 146.863658 
L 146.935217 141.28543 
L 148.42105 132.086778 
L 149.163967 128.413816 
L 149.906883 123.933146 
L 150.6498 121.765601 
L 151.392717 122.327722 
L 152.135633 120.219427 
L 152.87855 120.594882 
L 153.621466 122.615329 
L 155.1073 128.247698 
L 155.850216 128.44905 
L 156.593133 130.367668 
L 157.336049 131.502736 
L 158.078966 134.933106 
L 158.821882 136.05434 
L 159.564799 138.849111 
L 160.307716 142.460121 
L 161.050632 147.573343 
L 162.536465 154.234456 
L 163.279382 151.799815 
L 164.022298 151.694139 
L 164.765215 148.368617 
L 166.251048 140.332066 
L 166.993965 138.381401 
L 167.736881 134.288863 
L 168.479798 132.844909 
L 169.222715 134.372551 
L 169.965631 136.259061 
L 170.708548 137.384352 
L 171.451464 139.350272 
L 172.194381 139.073093 
L 172.937297 138.470467 
L 173.680214 138.423099 
L 175.166047 134.084125 
L 175.908964 134.005899 
L 176.65188 136.74081 
L 177.394797 138.652727 
L 178.137713 141.190766 
L 178.88063 144.167089 
L 179.623547 147.671542 
L 181.10938 153.235979 
L 182.595213 154.40055 
L 183.33813 153.832723 
L 184.823963 156.341934 
L 185.566879 158.114459 
L 186.309796 159.125674 
L 187.795629 164.869684 
L 188.538546 168.73975 
L 189.281462 167.914746 
L 190.024379 165.948643 
L 191.510212 163.348613 
L 192.253129 164.292804 
L 192.996045 164.344119 
L 193.738962 165.403827 
L 194.481878 167.986773 
L 195.224795 168.101475 
L 195.967711 167.432967 
L 196.710628 164.084748 
L 197.453545 161.320788 
L 198.196461 159.629717 
L 198.939378 155.502842 
L 199.682294 154.728357 
L 200.425211 155.907375 
L 201.168127 156.216643 
L 201.911044 155.306527 
L 202.653961 151.910542 
L 204.139794 149.301847 
L 204.88271 149.589958 
L 205.625627 149.477504 
L 206.368544 147.568274 
L 207.11146 148.797114 
L 207.854377 150.809179 
L 208.597293 149.952139 
L 209.34021 148.831175 
L 210.826043 144.779462 
L 212.311876 137.766921 
L 213.797709 129.135698 
L 214.540626 126.040297 
L 216.026459 123.735744 
L 216.769376 123.188951 
L 218.255209 121.148025 
L 218.998125 120.687918 
L 219.741042 118.971532 
L 220.483959 118.533096 
L 221.226875 118.45736 
L 222.712708 113.224061 
L 223.455625 109.518114 
L 224.198541 104.990363 
L 224.941458 104.121217 
L 225.684375 106.019603 
L 226.427291 107.359061 
L 227.170208 108.991424 
L 227.913124 112.500854 
L 228.656041 115.021437 
L 229.398958 116.240377 
L 230.141874 112.206696 
L 230.884791 109.587914 
L 231.627707 107.951731 
L 232.370624 108.464243 
L 233.11354 107.494158 
L 233.856457 107.62614 
L 234.599374 106.279933 
L 235.34229 105.463824 
L 236.085207 105.134018 
L 236.828123 104.607905 
L 237.57104 102.90651 
L 238.313956 104.246386 
L 239.056873 106.504076 
L 239.79979 106.317523 
L 240.542706 106.342621 
L 241.285623 108.66573 
L 242.028539 107.500083 
L 242.771456 106.851651 
L 243.514373 103.896771 
L 244.257289 101.416432 
L 245.000206 97.785691 
L 246.486039 92.684034 
L 247.971872 84.238743 
L 248.714789 83.662861 
L 249.457705 83.906241 
L 250.200622 84.524154 
L 250.943538 85.313243 
L 251.686455 88.2531 
L 252.429371 86.181708 
L 253.915205 89.847866 
L 254.658121 86.803503 
L 255.401038 86.180011 
L 256.143954 87.818464 
L 256.886871 87.463273 
L 257.629788 86.806128 
L 258.372704 89.016835 
L 259.115621 90.191015 
L 259.858537 89.32405 
L 260.601454 90.321158 
L 261.34437 91.578671 
L 262.087287 89.628295 
L 262.830204 90.870745 
L 263.57312 91.555914 
L 264.316037 90.457734 
L 265.058953 91.732601 
L 265.80187 90.992646 
L 266.544787 91.114443 
L 267.287703 91.5327 
L 268.03062 89.431035 
L 268.773536 89.708647 
L 269.516453 87.37193 
L 270.259369 85.532636 
L 271.002286 84.988472 
L 271.745203 84.655991 
L 272.488119 83.224288 
L 273.231036 81.019426 
L 273.973952 83.928369 
L 274.716869 83.93627 
L 275.459785 81.495555 
L 276.202702 80.261402 
L 276.945619 75.221747 
L 277.688535 71.831432 
L 278.431452 69.20821 
L 279.174368 69.846369 
L 279.917285 69.192828 
L 280.660202 73.773697 
L 281.403118 77.276344 
L 282.146035 80.1886 
L 282.888951 80.113422 
L 283.631868 82.158919 
L 284.374784 84.551531 
L 285.117701 89.431253 
L 285.860618 93.152747 
L 286.603534 99.505813 
L 288.089367 107.091211 
L 289.5752 105.544218 
L 290.318117 99.757179 
L 291.061034 96.812364 
L 291.80395 91.70318 
L 292.546867 87.777861 
L 293.289783 82.492549 
L 294.0327 78.817163 
L 294.775617 76.82595 
L 295.518533 78.011177 
L 296.26145 80.03595 
L 297.004366 80.884893 
L 297.747283 79.457487 
L 298.490199 82.305038 
L 299.233116 82.401893 
L 299.976033 84.900697 
L 300.718949 84.83642 
L 301.461866 84.139946 
L 302.204782 82.555962 
L 302.947699 83.606947 
L 303.690616 82.77589 
L 304.433532 80.918567 
L 305.176449 78.152835 
L 305.919365 82.025764 
L 306.662282 82.855498 
L 307.405198 84.941166 
L 308.148115 86.691613 
L 308.891032 90.463296 
L 310.376865 94.361192 
L 311.119781 100.602972 
L 311.862698 108.679012 
L 312.605614 113.513068 
L 313.348531 119.118739 
L 314.091448 121.646984 
L 314.834364 123.639507 
L 317.063114 143.007645 
L 317.806031 150.936814 
L 319.291864 175.918106 
L 320.03478 184.889803 
L 320.777697 192.318394 
L 321.520613 197.090668 
L 322.26353 199.288028 
L 323.006447 202.007563 
L 323.749363 203.714694 
L 325.235196 211.80682 
L 325.978113 215.013365 
L 326.721029 217.354887 
L 327.463946 222.03332 
L 328.206863 225.611188 
L 329.692696 228.722795 
L 331.178529 231.9031 
L 331.921446 234.667621 
L 332.664362 235.082332 
L 333.407279 234.475106 
L 334.150195 234.895093 
L 334.893112 236.278068 
L 335.636028 236.281722 
L 336.378945 234.899943 
L 337.121862 235.841564 
L 337.864778 237.43025 
L 338.607695 236.641898 
L 340.093528 239.211864 
L 340.836445 240.663843 
L 341.579361 242.954985 
L 343.065194 244.769621 
L 343.808111 242.064449 
L 344.551027 243.436947 
L 345.293944 241.939438 
L 346.036861 241.210617 
L 346.779777 241.316593 
L 347.522694 242.480348 
L 348.26561 242.348039 
L 349.008527 244.227962 
L 349.751443 244.706583 
L 350.49436 246.355402 
L 351.237277 244.375782 
L 351.980193 245.075933 
L 352.72311 243.210674 
L 353.466026 245.07079 
L 354.208943 245.123 
L 354.95186 244.699739 
L 355.694776 245.031887 
L 356.437693 246.852771 
L 357.180609 247.335616 
L 357.923526 249.149575 
L 358.666442 247.957182 
L 359.409359 249.237533 
L 360.152276 247.918337 
L 360.895192 249.057472 
L 361.638109 246.133668 
L 362.381025 243.794331 
L 363.123942 244.421 
L 363.866858 242.805535 
L 365.352692 242.389633 
L 366.095608 243.153875 
L 366.838525 245.539975 
L 367.581441 246.391115 
L 368.324358 249.481326 
L 369.067275 247.797739 
L 369.810191 249.684391 
L 370.553108 249.931521 
L 371.296024 248.695252 
L 372.038941 248.354712 
L 372.781857 247.857855 
L 373.524774 249.813934 
L 374.267691 249.285234 
L 375.010607 250.163559 
L 375.753524 250.864008 
L 376.49644 250.602952 
L 377.239357 252.468621 
L 377.982274 252.94366 
L 378.72519 254.2746 
L 379.468107 255.221633 
L 380.211023 255.509007 
L 380.95394 255.546201 
L 382.439773 251.696641 
L 383.18269 250.950131 
L 383.925606 251.958174 
L 384.668523 255.447549 
L 384.668523 255.447549 
" style="fill:none;stroke:#008000;stroke-linecap:square;stroke-width:1.5;"/>
   </g>
   <g id="patch_3">
    <path d="M 43.78125 288.430125 
L 43.78125 22.318125 
" style="fill:none;stroke:#000000;stroke-linecap:square;stroke-linejoin:miter;stroke-width:0.8;"/>
   </g>
   <g id="patch_4">
    <path d="M 400.90125 288.430125 
L 400.90125 22.318125 
" style="fill:none;stroke:#000000;stroke-linecap:square;stroke-linejoin:miter;stroke-width:0.8;"/>
   </g>
   <g id="patch_5">
    <path d="M 43.78125 288.430125 
L 400.90125 288.430125 
" style="fill:none;stroke:#000000;stroke-linecap:square;stroke-linejoin:miter;stroke-width:0.8;"/>
   </g>
   <g id="patch_6">
    <path d="M 43.78125 22.318125 
L 400.90125 22.318125 
" style="fill:none;stroke:#000000;stroke-linecap:square;stroke-linejoin:miter;stroke-width:0.8;"/>
   </g>
   <g id="text_14">
    <!-- Entropy and Loss. -->
    <defs>
     <path d="M 9.1875 72.90625 
L 59.90625 72.90625 
L 59.90625 58.6875 
L 27.984375 58.6875 
L 27.984375 45.125 
L 58.015625 45.125 
L 58.015625 30.90625 
L 27.984375 30.90625 
L 27.984375 14.203125 
L 60.984375 14.203125 
L 60.984375 0 
L 9.1875 0 
z
" id="DejaVuSans-Bold-69"/>
     <path d="M 63.375 33.296875 
L 63.375 0 
L 45.796875 0 
L 45.796875 5.421875 
L 45.796875 25.484375 
Q 45.796875 32.5625 45.484375 35.25 
Q 45.171875 37.9375 44.390625 39.203125 
Q 43.359375 40.921875 41.59375 41.875 
Q 39.84375 42.828125 37.59375 42.828125 
Q 32.125 42.828125 29 38.59375 
Q 25.875 34.375 25.875 26.90625 
L 25.875 0 
L 8.40625 0 
L 8.40625 54.6875 
L 25.875 54.6875 
L 25.875 46.6875 
Q 29.828125 51.46875 34.265625 53.734375 
Q 38.71875 56 44.09375 56 
Q 53.5625 56 58.46875 50.1875 
Q 63.375 44.390625 63.375 33.296875 
z
" id="DejaVuSans-Bold-110"/>
     <path d="M 27.484375 70.21875 
L 27.484375 54.6875 
L 45.515625 54.6875 
L 45.515625 42.1875 
L 27.484375 42.1875 
L 27.484375 19 
Q 27.484375 15.1875 29 13.84375 
Q 30.515625 12.5 35.015625 12.5 
L 44 12.5 
L 44 0 
L 29 0 
Q 18.65625 0 14.328125 4.3125 
Q 10.015625 8.640625 10.015625 19 
L 10.015625 42.1875 
L 1.3125 42.1875 
L 1.3125 54.6875 
L 10.015625 54.6875 
L 10.015625 70.21875 
z
" id="DejaVuSans-Bold-116"/>
     <path d="M 49.03125 39.796875 
Q 46.734375 40.875 44.453125 41.375 
Q 42.1875 41.890625 39.890625 41.890625 
Q 33.15625 41.890625 29.515625 37.5625 
Q 25.875 33.25 25.875 25.203125 
L 25.875 0 
L 8.40625 0 
L 8.40625 54.6875 
L 25.875 54.6875 
L 25.875 45.703125 
Q 29.25 51.078125 33.609375 53.53125 
Q 37.984375 56 44.09375 56 
Q 44.96875 56 45.984375 55.921875 
Q 47.015625 55.859375 48.96875 55.609375 
z
" id="DejaVuSans-Bold-114"/>
     <path d="M 34.421875 43.5 
Q 28.609375 43.5 25.5625 39.328125 
Q 22.515625 35.15625 22.515625 27.296875 
Q 22.515625 19.4375 25.5625 15.25 
Q 28.609375 11.078125 34.421875 11.078125 
Q 40.140625 11.078125 43.15625 15.25 
Q 46.1875 19.4375 46.1875 27.296875 
Q 46.1875 35.15625 43.15625 39.328125 
Q 40.140625 43.5 34.421875 43.5 
z
M 34.421875 56 
Q 48.53125 56 56.46875 48.375 
Q 64.40625 40.765625 64.40625 27.296875 
Q 64.40625 13.8125 56.46875 6.1875 
Q 48.53125 -1.421875 34.421875 -1.421875 
Q 20.265625 -1.421875 12.28125 6.1875 
Q 4.296875 13.8125 4.296875 27.296875 
Q 4.296875 40.765625 12.28125 48.375 
Q 20.265625 56 34.421875 56 
z
" id="DejaVuSans-Bold-111"/>
     <path d="M 25.875 7.90625 
L 25.875 -20.796875 
L 8.40625 -20.796875 
L 8.40625 54.6875 
L 25.875 54.6875 
L 25.875 46.6875 
Q 29.5 51.46875 33.890625 53.734375 
Q 38.28125 56 44 56 
Q 54.109375 56 60.59375 47.96875 
Q 67.09375 39.9375 67.09375 27.296875 
Q 67.09375 14.65625 60.59375 6.609375 
Q 54.109375 -1.421875 44 -1.421875 
Q 38.28125 -1.421875 33.890625 0.84375 
Q 29.5 3.125 25.875 7.90625 
z
M 37.5 43.3125 
Q 31.890625 43.3125 28.875 39.1875 
Q 25.875 35.0625 25.875 27.296875 
Q 25.875 19.53125 28.875 15.40625 
Q 31.890625 11.28125 37.5 11.28125 
Q 43.109375 11.28125 46.0625 15.375 
Q 49.03125 19.484375 49.03125 27.296875 
Q 49.03125 35.109375 46.0625 39.203125 
Q 43.109375 43.3125 37.5 43.3125 
z
" id="DejaVuSans-Bold-112"/>
     <path d="M 1.21875 54.6875 
L 18.703125 54.6875 
L 33.40625 17.578125 
L 45.90625 54.6875 
L 63.375 54.6875 
L 40.375 -5.171875 
Q 36.921875 -14.3125 32.296875 -17.9375 
Q 27.6875 -21.578125 20.125 -21.578125 
L 10.015625 -21.578125 
L 10.015625 -10.109375 
L 15.484375 -10.109375 
Q 19.921875 -10.109375 21.9375 -8.6875 
Q 23.96875 -7.28125 25.09375 -3.609375 
L 25.59375 -2.09375 
z
" id="DejaVuSans-Bold-121"/>
     <path id="DejaVuSans-Bold-32"/>
     <path d="M 32.90625 24.609375 
Q 27.4375 24.609375 24.671875 22.75 
Q 21.921875 20.90625 21.921875 17.28125 
Q 21.921875 13.96875 24.140625 12.078125 
Q 26.375 10.203125 30.328125 10.203125 
Q 35.25 10.203125 38.625 13.734375 
Q 42 17.28125 42 22.609375 
L 42 24.609375 
z
M 59.625 31.203125 
L 59.625 0 
L 42 0 
L 42 8.109375 
Q 38.484375 3.125 34.078125 0.84375 
Q 29.6875 -1.421875 23.390625 -1.421875 
Q 14.890625 -1.421875 9.59375 3.53125 
Q 4.296875 8.5 4.296875 16.40625 
Q 4.296875 26.03125 10.90625 30.515625 
Q 17.53125 35.015625 31.6875 35.015625 
L 42 35.015625 
L 42 36.375 
Q 42 40.53125 38.71875 42.453125 
Q 35.453125 44.390625 28.515625 44.390625 
Q 22.90625 44.390625 18.0625 43.265625 
Q 13.234375 42.140625 9.078125 39.890625 
L 9.078125 53.21875 
Q 14.703125 54.59375 20.359375 55.296875 
Q 26.03125 56 31.6875 56 
Q 46.484375 56 53.046875 50.171875 
Q 59.625 44.34375 59.625 31.203125 
z
" id="DejaVuSans-Bold-97"/>
     <path d="M 45.609375 46.6875 
L 45.609375 75.984375 
L 63.1875 75.984375 
L 63.1875 0 
L 45.609375 0 
L 45.609375 7.90625 
Q 42 3.078125 37.640625 0.828125 
Q 33.296875 -1.421875 27.59375 -1.421875 
Q 17.484375 -1.421875 10.984375 6.609375 
Q 4.5 14.65625 4.5 27.296875 
Q 4.5 39.9375 10.984375 47.96875 
Q 17.484375 56 27.59375 56 
Q 33.25 56 37.625 53.734375 
Q 42 51.46875 45.609375 46.6875 
z
M 34.078125 11.28125 
Q 39.703125 11.28125 42.65625 15.375 
Q 45.609375 19.484375 45.609375 27.296875 
Q 45.609375 35.109375 42.65625 39.203125 
Q 39.703125 43.3125 34.078125 43.3125 
Q 28.515625 43.3125 25.5625 39.203125 
Q 22.609375 35.109375 22.609375 27.296875 
Q 22.609375 19.484375 25.5625 15.375 
Q 28.515625 11.28125 34.078125 11.28125 
z
" id="DejaVuSans-Bold-100"/>
     <path d="M 9.1875 72.90625 
L 27.984375 72.90625 
L 27.984375 14.203125 
L 60.984375 14.203125 
L 60.984375 0 
L 9.1875 0 
z
" id="DejaVuSans-Bold-76"/>
     <path d="M 51.125 52.984375 
L 51.125 39.703125 
Q 45.515625 42.046875 40.28125 43.21875 
Q 35.0625 44.390625 30.421875 44.390625 
Q 25.4375 44.390625 23.015625 43.140625 
Q 20.609375 41.890625 20.609375 39.3125 
Q 20.609375 37.203125 22.4375 36.078125 
Q 24.265625 34.96875 29 34.421875 
L 32.078125 33.984375 
Q 45.515625 32.28125 50.140625 28.375 
Q 54.78125 24.46875 54.78125 16.109375 
Q 54.78125 7.375 48.328125 2.96875 
Q 41.890625 -1.421875 29.109375 -1.421875 
Q 23.6875 -1.421875 17.890625 -0.5625 
Q 12.109375 0.296875 6 2 
L 6 15.28125 
Q 11.234375 12.75 16.71875 11.46875 
Q 22.21875 10.203125 27.875 10.203125 
Q 33.015625 10.203125 35.59375 11.609375 
Q 38.1875 13.03125 38.1875 15.828125 
Q 38.1875 18.171875 36.40625 19.3125 
Q 34.625 20.453125 29.296875 21.09375 
L 26.21875 21.484375 
Q 14.546875 22.953125 9.859375 26.90625 
Q 5.171875 30.859375 5.171875 38.921875 
Q 5.171875 47.609375 11.125 51.796875 
Q 17.09375 56 29.390625 56 
Q 34.234375 56 39.546875 55.265625 
Q 44.875 54.546875 51.125 52.984375 
z
" id="DejaVuSans-Bold-115"/>
     <path d="M 10.203125 18.890625 
L 27.78125 18.890625 
L 27.78125 0 
L 10.203125 0 
z
" id="DejaVuSans-Bold-46"/>
    </defs>
    <g transform="translate(161.657813 16.318125)scale(0.12 -0.12)">
     <use xlink:href="#DejaVuSans-Bold-69"/>
     <use x="68.310547" xlink:href="#DejaVuSans-Bold-110"/>
     <use x="139.501953" xlink:href="#DejaVuSans-Bold-116"/>
     <use x="187.304688" xlink:href="#DejaVuSans-Bold-114"/>
     <use x="236.621094" xlink:href="#DejaVuSans-Bold-111"/>
     <use x="305.322266" xlink:href="#DejaVuSans-Bold-112"/>
     <use x="376.904297" xlink:href="#DejaVuSans-Bold-121"/>
     <use x="442.089844" xlink:href="#DejaVuSans-Bold-32"/>
     <use x="476.904297" xlink:href="#DejaVuSans-Bold-97"/>
     <use x="544.384766" xlink:href="#DejaVuSans-Bold-110"/>
     <use x="615.576172" xlink:href="#DejaVuSans-Bold-100"/>
     <use x="687.158203" xlink:href="#DejaVuSans-Bold-32"/>
     <use x="721.972656" xlink:href="#DejaVuSans-Bold-76"/>
     <use x="785.693359" xlink:href="#DejaVuSans-Bold-111"/>
     <use x="854.394531" xlink:href="#DejaVuSans-Bold-115"/>
     <use x="913.916016" xlink:href="#DejaVuSans-Bold-115"/>
     <use x="973.4375" xlink:href="#DejaVuSans-Bold-46"/>
    </g>
   </g>
   <g id="legend_1">
    <g id="patch_7">
     <path d="M 18.982656 353.02505 
L 429.699844 353.02505 
Q 431.699844 353.02505 431.699844 351.02505 
L 431.699844 337.346925 
Q 431.699844 335.346925 429.699844 335.346925 
L 18.982656 335.346925 
Q 16.982656 335.346925 16.982656 337.346925 
L 16.982656 351.02505 
Q 16.982656 353.02505 18.982656 353.02505 
z
" style="fill:#4c4c4c;opacity:0.5;stroke:#4c4c4c;stroke-linejoin:miter;"/>
    </g>
    <g id="patch_8">
     <path d="M 16.982656 351.02505 
L 427.699844 351.02505 
Q 429.699844 351.02505 429.699844 349.02505 
L 429.699844 335.346925 
Q 429.699844 333.346925 427.699844 333.346925 
L 16.982656 333.346925 
Q 14.982656 333.346925 14.982656 335.346925 
L 14.982656 349.02505 
Q 14.982656 351.02505 16.982656 351.02505 
z
" style="fill:#ffffff;stroke:#cccccc;stroke-linejoin:miter;"/>
    </g>
    <g id="line2d_17">
     <path d="M 18.982656 341.445362 
L 38.982656 341.445362 
" style="fill:none;stroke:#1f77b4;stroke-linecap:square;stroke-width:1.5;"/>
    </g>
    <g id="line2d_18"/>
    <g id="text_15">
     <!-- Policy Loss (Normalized) -->
     <defs>
      <path d="M 19.671875 64.796875 
L 19.671875 37.40625 
L 32.078125 37.40625 
Q 38.96875 37.40625 42.71875 40.96875 
Q 46.484375 44.53125 46.484375 51.125 
Q 46.484375 57.671875 42.71875 61.234375 
Q 38.96875 64.796875 32.078125 64.796875 
z
M 9.8125 72.90625 
L 32.078125 72.90625 
Q 44.34375 72.90625 50.609375 67.359375 
Q 56.890625 61.8125 56.890625 51.125 
Q 56.890625 40.328125 50.609375 34.8125 
Q 44.34375 29.296875 32.078125 29.296875 
L 19.671875 29.296875 
L 19.671875 0 
L 9.8125 0 
z
" id="DejaVuSans-80"/>
      <path d="M 9.421875 75.984375 
L 18.40625 75.984375 
L 18.40625 0 
L 9.421875 0 
z
" id="DejaVuSans-108"/>
      <path d="M 9.421875 54.6875 
L 18.40625 54.6875 
L 18.40625 0 
L 9.421875 0 
z
M 9.421875 75.984375 
L 18.40625 75.984375 
L 18.40625 64.59375 
L 9.421875 64.59375 
z
" id="DejaVuSans-105"/>
      <path d="M 32.171875 -5.078125 
Q 28.375 -14.84375 24.75 -17.8125 
Q 21.140625 -20.796875 15.09375 -20.796875 
L 7.90625 -20.796875 
L 7.90625 -13.28125 
L 13.1875 -13.28125 
Q 16.890625 -13.28125 18.9375 -11.515625 
Q 21 -9.765625 23.484375 -3.21875 
L 25.09375 0.875 
L 2.984375 54.6875 
L 12.5 54.6875 
L 29.59375 11.921875 
L 46.6875 54.6875 
L 56.203125 54.6875 
z
" id="DejaVuSans-121"/>
      <path id="DejaVuSans-32"/>
      <path d="M 31 75.875 
Q 24.46875 64.65625 21.28125 53.65625 
Q 18.109375 42.671875 18.109375 31.390625 
Q 18.109375 20.125 21.3125 9.0625 
Q 24.515625 -2 31 -13.1875 
L 23.1875 -13.1875 
Q 15.875 -1.703125 12.234375 9.375 
Q 8.59375 20.453125 8.59375 31.390625 
Q 8.59375 42.28125 12.203125 53.3125 
Q 15.828125 64.359375 23.1875 75.875 
z
" id="DejaVuSans-40"/>
      <path d="M 9.8125 72.90625 
L 23.09375 72.90625 
L 55.421875 11.921875 
L 55.421875 72.90625 
L 64.984375 72.90625 
L 64.984375 0 
L 51.703125 0 
L 19.390625 60.984375 
L 19.390625 0 
L 9.8125 0 
z
" id="DejaVuSans-78"/>
      <path d="M 41.109375 46.296875 
Q 39.59375 47.171875 37.8125 47.578125 
Q 36.03125 48 33.890625 48 
Q 26.265625 48 22.1875 43.046875 
Q 18.109375 38.09375 18.109375 28.8125 
L 18.109375 0 
L 9.078125 0 
L 9.078125 54.6875 
L 18.109375 54.6875 
L 18.109375 46.1875 
Q 20.953125 51.171875 25.484375 53.578125 
Q 30.03125 56 36.53125 56 
Q 37.453125 56 38.578125 55.875 
Q 39.703125 55.765625 41.0625 55.515625 
z
" id="DejaVuSans-114"/>
      <path d="M 52 44.1875 
Q 55.375 50.25 60.0625 53.125 
Q 64.75 56 71.09375 56 
Q 79.640625 56 84.28125 50.015625 
Q 88.921875 44.046875 88.921875 33.015625 
L 88.921875 0 
L 79.890625 0 
L 79.890625 32.71875 
Q 79.890625 40.578125 77.09375 44.375 
Q 74.3125 48.1875 68.609375 48.1875 
Q 61.625 48.1875 57.5625 43.546875 
Q 53.515625 38.921875 53.515625 30.90625 
L 53.515625 0 
L 44.484375 0 
L 44.484375 32.71875 
Q 44.484375 40.625 41.703125 44.40625 
Q 38.921875 48.1875 33.109375 48.1875 
Q 26.21875 48.1875 22.15625 43.53125 
Q 18.109375 38.875 18.109375 30.90625 
L 18.109375 0 
L 9.078125 0 
L 9.078125 54.6875 
L 18.109375 54.6875 
L 18.109375 46.1875 
Q 21.1875 51.21875 25.484375 53.609375 
Q 29.78125 56 35.6875 56 
Q 41.65625 56 45.828125 52.96875 
Q 50 49.953125 52 44.1875 
z
" id="DejaVuSans-109"/>
      <path d="M 34.28125 27.484375 
Q 23.390625 27.484375 19.1875 25 
Q 14.984375 22.515625 14.984375 16.5 
Q 14.984375 11.71875 18.140625 8.90625 
Q 21.296875 6.109375 26.703125 6.109375 
Q 34.1875 6.109375 38.703125 11.40625 
Q 43.21875 16.703125 43.21875 25.484375 
L 43.21875 27.484375 
z
M 52.203125 31.203125 
L 52.203125 0 
L 43.21875 0 
L 43.21875 8.296875 
Q 40.140625 3.328125 35.546875 0.953125 
Q 30.953125 -1.421875 24.3125 -1.421875 
Q 15.921875 -1.421875 10.953125 3.296875 
Q 6 8.015625 6 15.921875 
Q 6 25.140625 12.171875 29.828125 
Q 18.359375 34.515625 30.609375 34.515625 
L 43.21875 34.515625 
L 43.21875 35.40625 
Q 43.21875 41.609375 39.140625 45 
Q 35.0625 48.390625 27.6875 48.390625 
Q 23 48.390625 18.546875 47.265625 
Q 14.109375 46.140625 10.015625 43.890625 
L 10.015625 52.203125 
Q 14.9375 54.109375 19.578125 55.046875 
Q 24.21875 56 28.609375 56 
Q 40.484375 56 46.34375 49.84375 
Q 52.203125 43.703125 52.203125 31.203125 
z
" id="DejaVuSans-97"/>
      <path d="M 5.515625 54.6875 
L 48.1875 54.6875 
L 48.1875 46.484375 
L 14.40625 7.171875 
L 48.1875 7.171875 
L 48.1875 0 
L 4.296875 0 
L 4.296875 8.203125 
L 38.09375 47.515625 
L 5.515625 47.515625 
z
" id="DejaVuSans-122"/>
      <path d="M 56.203125 29.59375 
L 56.203125 25.203125 
L 14.890625 25.203125 
Q 15.484375 15.921875 20.484375 11.0625 
Q 25.484375 6.203125 34.421875 6.203125 
Q 39.59375 6.203125 44.453125 7.46875 
Q 49.3125 8.734375 54.109375 11.28125 
L 54.109375 2.78125 
Q 49.265625 0.734375 44.1875 -0.34375 
Q 39.109375 -1.421875 33.890625 -1.421875 
Q 20.796875 -1.421875 13.15625 6.1875 
Q 5.515625 13.8125 5.515625 26.8125 
Q 5.515625 40.234375 12.765625 48.109375 
Q 20.015625 56 32.328125 56 
Q 43.359375 56 49.78125 48.890625 
Q 56.203125 41.796875 56.203125 29.59375 
z
M 47.21875 32.234375 
Q 47.125 39.59375 43.09375 43.984375 
Q 39.0625 48.390625 32.421875 48.390625 
Q 24.90625 48.390625 20.390625 44.140625 
Q 15.875 39.890625 15.1875 32.171875 
z
" id="DejaVuSans-101"/>
      <path d="M 45.40625 46.390625 
L 45.40625 75.984375 
L 54.390625 75.984375 
L 54.390625 0 
L 45.40625 0 
L 45.40625 8.203125 
Q 42.578125 3.328125 38.25 0.953125 
Q 33.9375 -1.421875 27.875 -1.421875 
Q 17.96875 -1.421875 11.734375 6.484375 
Q 5.515625 14.40625 5.515625 27.296875 
Q 5.515625 40.1875 11.734375 48.09375 
Q 17.96875 56 27.875 56 
Q 33.9375 56 38.25 53.625 
Q 42.578125 51.265625 45.40625 46.390625 
z
M 14.796875 27.296875 
Q 14.796875 17.390625 18.875 11.75 
Q 22.953125 6.109375 30.078125 6.109375 
Q 37.203125 6.109375 41.296875 11.75 
Q 45.40625 17.390625 45.40625 27.296875 
Q 45.40625 37.203125 41.296875 42.84375 
Q 37.203125 48.484375 30.078125 48.484375 
Q 22.953125 48.484375 18.875 42.84375 
Q 14.796875 37.203125 14.796875 27.296875 
z
" id="DejaVuSans-100"/>
      <path d="M 8.015625 75.875 
L 15.828125 75.875 
Q 23.140625 64.359375 26.78125 53.3125 
Q 30.421875 42.28125 30.421875 31.390625 
Q 30.421875 20.453125 26.78125 9.375 
Q 23.140625 -1.703125 15.828125 -13.1875 
L 8.015625 -13.1875 
Q 14.5 -2 17.703125 9.0625 
Q 20.90625 20.125 20.90625 31.390625 
Q 20.90625 42.671875 17.703125 53.65625 
Q 14.5 64.65625 8.015625 75.875 
z
" id="DejaVuSans-41"/>
     </defs>
     <g transform="translate(46.982656 344.945362)scale(0.1 -0.1)">
      <use xlink:href="#DejaVuSans-80"/>
      <use x="60.255859" xlink:href="#DejaVuSans-111"/>
      <use x="121.4375" xlink:href="#DejaVuSans-108"/>
      <use x="149.220703" xlink:href="#DejaVuSans-105"/>
      <use x="177.003906" xlink:href="#DejaVuSans-99"/>
      <use x="231.984375" xlink:href="#DejaVuSans-121"/>
      <use x="291.164062" xlink:href="#DejaVuSans-32"/>
      <use x="322.951172" xlink:href="#DejaVuSans-76"/>
      <use x="378.648438" xlink:href="#DejaVuSans-111"/>
      <use x="439.830078" xlink:href="#DejaVuSans-115"/>
      <use x="491.929688" xlink:href="#DejaVuSans-115"/>
      <use x="544.029297" xlink:href="#DejaVuSans-32"/>
      <use x="575.816406" xlink:href="#DejaVuSans-40"/>
      <use x="614.830078" xlink:href="#DejaVuSans-78"/>
      <use x="689.634766" xlink:href="#DejaVuSans-111"/>
      <use x="750.816406" xlink:href="#DejaVuSans-114"/>
      <use x="791.914062" xlink:href="#DejaVuSans-109"/>
      <use x="889.326172" xlink:href="#DejaVuSans-97"/>
      <use x="950.605469" xlink:href="#DejaVuSans-108"/>
      <use x="978.388672" xlink:href="#DejaVuSans-105"/>
      <use x="1006.171875" xlink:href="#DejaVuSans-122"/>
      <use x="1058.662109" xlink:href="#DejaVuSans-101"/>
      <use x="1120.185547" xlink:href="#DejaVuSans-100"/>
      <use x="1183.662109" xlink:href="#DejaVuSans-41"/>
     </g>
    </g>
    <g id="line2d_19">
     <path d="M 189.251406 341.445362 
L 209.251406 341.445362 
" style="fill:none;stroke:#ff7f0e;stroke-linecap:square;stroke-width:1.5;"/>
    </g>
    <g id="line2d_20"/>
    <g id="text_16">
     <!-- Value Loss (Normalized) -->
     <defs>
      <path d="M 28.609375 0 
L 0.78125 72.90625 
L 11.078125 72.90625 
L 34.1875 11.53125 
L 57.328125 72.90625 
L 67.578125 72.90625 
L 39.796875 0 
z
" id="DejaVuSans-86"/>
      <path d="M 8.5 21.578125 
L 8.5 54.6875 
L 17.484375 54.6875 
L 17.484375 21.921875 
Q 17.484375 14.15625 20.5 10.265625 
Q 23.53125 6.390625 29.59375 6.390625 
Q 36.859375 6.390625 41.078125 11.03125 
Q 45.3125 15.671875 45.3125 23.6875 
L 45.3125 54.6875 
L 54.296875 54.6875 
L 54.296875 0 
L 45.3125 0 
L 45.3125 8.40625 
Q 42.046875 3.421875 37.71875 1 
Q 33.40625 -1.421875 27.6875 -1.421875 
Q 18.265625 -1.421875 13.375 4.4375 
Q 8.5 10.296875 8.5 21.578125 
z
M 31.109375 56 
z
" id="DejaVuSans-117"/>
     </defs>
     <g transform="translate(217.251406 344.945362)scale(0.1 -0.1)">
      <use xlink:href="#DejaVuSans-86"/>
      <use x="68.298828" xlink:href="#DejaVuSans-97"/>
      <use x="129.578125" xlink:href="#DejaVuSans-108"/>
      <use x="157.361328" xlink:href="#DejaVuSans-117"/>
      <use x="220.740234" xlink:href="#DejaVuSans-101"/>
      <use x="282.263672" xlink:href="#DejaVuSans-32"/>
      <use x="314.050781" xlink:href="#DejaVuSans-76"/>
      <use x="369.748047" xlink:href="#DejaVuSans-111"/>
      <use x="430.929688" xlink:href="#DejaVuSans-115"/>
      <use x="483.029297" xlink:href="#DejaVuSans-115"/>
      <use x="535.128906" xlink:href="#DejaVuSans-32"/>
      <use x="566.916016" xlink:href="#DejaVuSans-40"/>
      <use x="605.929688" xlink:href="#DejaVuSans-78"/>
      <use x="680.734375" xlink:href="#DejaVuSans-111"/>
      <use x="741.916016" xlink:href="#DejaVuSans-114"/>
      <use x="783.013672" xlink:href="#DejaVuSans-109"/>
      <use x="880.425781" xlink:href="#DejaVuSans-97"/>
      <use x="941.705078" xlink:href="#DejaVuSans-108"/>
      <use x="969.488281" xlink:href="#DejaVuSans-105"/>
      <use x="997.271484" xlink:href="#DejaVuSans-122"/>
      <use x="1049.761719" xlink:href="#DejaVuSans-101"/>
      <use x="1111.285156" xlink:href="#DejaVuSans-100"/>
      <use x="1174.761719" xlink:href="#DejaVuSans-41"/>
     </g>
    </g>
    <g id="line2d_21">
     <path d="M 358.629531 341.445362 
L 378.629531 341.445362 
" style="fill:none;stroke:#008000;stroke-linecap:square;stroke-width:1.5;"/>
    </g>
    <g id="line2d_22"/>
    <g id="text_17">
     <!-- Entropy -->
     <defs>
      <path d="M 54.890625 33.015625 
L 54.890625 0 
L 45.90625 0 
L 45.90625 32.71875 
Q 45.90625 40.484375 42.875 44.328125 
Q 39.84375 48.1875 33.796875 48.1875 
Q 26.515625 48.1875 22.3125 43.546875 
Q 18.109375 38.921875 18.109375 30.90625 
L 18.109375 0 
L 9.078125 0 
L 9.078125 54.6875 
L 18.109375 54.6875 
L 18.109375 46.1875 
Q 21.34375 51.125 25.703125 53.5625 
Q 30.078125 56 35.796875 56 
Q 45.21875 56 50.046875 50.171875 
Q 54.890625 44.34375 54.890625 33.015625 
z
" id="DejaVuSans-110"/>
      <path d="M 18.3125 70.21875 
L 18.3125 54.6875 
L 36.8125 54.6875 
L 36.8125 47.703125 
L 18.3125 47.703125 
L 18.3125 18.015625 
Q 18.3125 11.328125 20.140625 9.421875 
Q 21.96875 7.515625 27.59375 7.515625 
L 36.8125 7.515625 
L 36.8125 0 
L 27.59375 0 
Q 17.1875 0 13.234375 3.875 
Q 9.28125 7.765625 9.28125 18.015625 
L 9.28125 47.703125 
L 2.6875 47.703125 
L 2.6875 54.6875 
L 9.28125 54.6875 
L 9.28125 70.21875 
z
" id="DejaVuSans-116"/>
     </defs>
     <g transform="translate(386.629531 344.945362)scale(0.1 -0.1)">
      <use xlink:href="#DejaVuSans-69"/>
      <use x="63.183594" xlink:href="#DejaVuSans-110"/>
      <use x="126.5625" xlink:href="#DejaVuSans-116"/>
      <use x="165.771484" xlink:href="#DejaVuSans-114"/>
      <use x="206.853516" xlink:href="#DejaVuSans-111"/>
      <use x="268.035156" xlink:href="#DejaVuSans-112"/>
      <use x="331.511719" xlink:href="#DejaVuSans-121"/>
     </g>
    </g>
   </g>
  </g>
  <g id="axes_2">
   <g id="matplotlib.axis_3">
    <g id="ytick_7">
     <g id="line2d_23">
      <defs>
       <path d="M 0 0 
L 3.5 0 
" id="m6712d85708" style="stroke:#000000;stroke-width:0.8;"/>
      </defs>
      <g>
       <use style="stroke:#000000;stroke-width:0.8;" x="400.90125" xlink:href="#m6712d85708" y="281.474062"/>
      </g>
     </g>
     <g id="text_18">
      <!-- 0.0 -->
      <g transform="translate(407.90125 285.273281)scale(0.1 -0.1)">
       <use xlink:href="#DejaVuSans-48"/>
       <use x="63.623047" xlink:href="#DejaVuSans-46"/>
       <use x="95.410156" xlink:href="#DejaVuSans-48"/>
      </g>
     </g>
    </g>
    <g id="ytick_8">
     <g id="line2d_24">
      <g>
       <use style="stroke:#000000;stroke-width:0.8;" x="400.90125" xlink:href="#m6712d85708" y="245.746066"/>
      </g>
     </g>
     <g id="text_19">
      <!-- 0.1 -->
      <g transform="translate(407.90125 249.545285)scale(0.1 -0.1)">
       <use xlink:href="#DejaVuSans-48"/>
       <use x="63.623047" xlink:href="#DejaVuSans-46"/>
       <use x="95.410156" xlink:href="#DejaVuSans-49"/>
      </g>
     </g>
    </g>
    <g id="ytick_9">
     <g id="line2d_25">
      <g>
       <use style="stroke:#000000;stroke-width:0.8;" x="400.90125" xlink:href="#m6712d85708" y="210.018071"/>
      </g>
     </g>
     <g id="text_20">
      <!-- 0.2 -->
      <g transform="translate(407.90125 213.817289)scale(0.1 -0.1)">
       <use xlink:href="#DejaVuSans-48"/>
       <use x="63.623047" xlink:href="#DejaVuSans-46"/>
       <use x="95.410156" xlink:href="#DejaVuSans-50"/>
      </g>
     </g>
    </g>
    <g id="ytick_10">
     <g id="line2d_26">
      <g>
       <use style="stroke:#000000;stroke-width:0.8;" x="400.90125" xlink:href="#m6712d85708" y="174.290075"/>
      </g>
     </g>
     <g id="text_21">
      <!-- 0.3 -->
      <g transform="translate(407.90125 178.089294)scale(0.1 -0.1)">
       <use xlink:href="#DejaVuSans-48"/>
       <use x="63.623047" xlink:href="#DejaVuSans-46"/>
       <use x="95.410156" xlink:href="#DejaVuSans-51"/>
      </g>
     </g>
    </g>
    <g id="ytick_11">
     <g id="line2d_27">
      <g>
       <use style="stroke:#000000;stroke-width:0.8;" x="400.90125" xlink:href="#m6712d85708" y="138.56208"/>
      </g>
     </g>
     <g id="text_22">
      <!-- 0.4 -->
      <g transform="translate(407.90125 142.361298)scale(0.1 -0.1)">
       <use xlink:href="#DejaVuSans-48"/>
       <use x="63.623047" xlink:href="#DejaVuSans-46"/>
       <use x="95.410156" xlink:href="#DejaVuSans-52"/>
      </g>
     </g>
    </g>
    <g id="ytick_12">
     <g id="line2d_28">
      <g>
       <use style="stroke:#000000;stroke-width:0.8;" x="400.90125" xlink:href="#m6712d85708" y="102.834084"/>
      </g>
     </g>
     <g id="text_23">
      <!-- 0.5 -->
      <defs>
       <path d="M 10.796875 72.90625 
L 49.515625 72.90625 
L 49.515625 64.59375 
L 19.828125 64.59375 
L 19.828125 46.734375 
Q 21.96875 47.46875 24.109375 47.828125 
Q 26.265625 48.1875 28.421875 48.1875 
Q 40.625 48.1875 47.75 41.5 
Q 54.890625 34.8125 54.890625 23.390625 
Q 54.890625 11.625 47.5625 5.09375 
Q 40.234375 -1.421875 26.90625 -1.421875 
Q 22.3125 -1.421875 17.546875 -0.640625 
Q 12.796875 0.140625 7.71875 1.703125 
L 7.71875 11.625 
Q 12.109375 9.234375 16.796875 8.0625 
Q 21.484375 6.890625 26.703125 6.890625 
Q 35.15625 6.890625 40.078125 11.328125 
Q 45.015625 15.765625 45.015625 23.390625 
Q 45.015625 31 40.078125 35.4375 
Q 35.15625 39.890625 26.703125 39.890625 
Q 22.75 39.890625 18.8125 39.015625 
Q 14.890625 38.140625 10.796875 36.28125 
z
" id="DejaVuSans-53"/>
      </defs>
      <g transform="translate(407.90125 106.633303)scale(0.1 -0.1)">
       <use xlink:href="#DejaVuSans-48"/>
       <use x="63.623047" xlink:href="#DejaVuSans-46"/>
       <use x="95.410156" xlink:href="#DejaVuSans-53"/>
      </g>
     </g>
    </g>
    <g id="ytick_13">
     <g id="line2d_29">
      <g>
       <use style="stroke:#000000;stroke-width:0.8;" x="400.90125" xlink:href="#m6712d85708" y="67.106089"/>
      </g>
     </g>
     <g id="text_24">
      <!-- 0.6 -->
      <g transform="translate(407.90125 70.905307)scale(0.1 -0.1)">
       <use xlink:href="#DejaVuSans-48"/>
       <use x="63.623047" xlink:href="#DejaVuSans-46"/>
       <use x="95.410156" xlink:href="#DejaVuSans-54"/>
      </g>
     </g>
    </g>
    <g id="ytick_14">
     <g id="line2d_30">
      <g>
       <use style="stroke:#000000;stroke-width:0.8;" x="400.90125" xlink:href="#m6712d85708" y="31.378093"/>
      </g>
     </g>
     <g id="text_25">
      <!-- 0.7 -->
      <defs>
       <path d="M 8.203125 72.90625 
L 55.078125 72.90625 
L 55.078125 68.703125 
L 28.609375 0 
L 18.3125 0 
L 43.21875 64.59375 
L 8.203125 64.59375 
z
" id="DejaVuSans-55"/>
      </defs>
      <g transform="translate(407.90125 35.177312)scale(0.1 -0.1)">
       <use xlink:href="#DejaVuSans-48"/>
       <use x="63.623047" xlink:href="#DejaVuSans-46"/>
       <use x="95.410156" xlink:href="#DejaVuSans-55"/>
      </g>
     </g>
    </g>
    <g id="text_26">
     <!-- Entropy -->
     <g transform="translate(435.402812 174.909281)rotate(-90)scale(0.1 -0.1)">
      <use xlink:href="#DejaVuSans-69"/>
      <use x="63.183594" xlink:href="#DejaVuSans-110"/>
      <use x="126.5625" xlink:href="#DejaVuSans-116"/>
      <use x="165.771484" xlink:href="#DejaVuSans-114"/>
      <use x="206.853516" xlink:href="#DejaVuSans-111"/>
      <use x="268.035156" xlink:href="#DejaVuSans-112"/>
      <use x="331.511719" xlink:href="#DejaVuSans-121"/>
     </g>
    </g>
   </g>
   <g id="line2d_31">
    <path clip-path="url(#pfbc9b0a812)" d="M 60.013977 36.38671 
L 60.756894 34.495297 
L 61.49981 35.672145 
L 62.242727 34.414125 
L 62.985644 36.26984 
L 63.72856 42.047825 
L 64.471477 41.777393 
L 65.214393 54.547941 
L 65.95731 48.060615 
L 66.700226 47.675067 
L 67.443143 61.053936 
L 68.18606 54.631796 
L 68.928976 53.91036 
L 69.671893 58.339755 
L 71.157726 73.223999 
L 71.900643 62.229457 
L 72.643559 74.454441 
L 73.386476 71.759668 
L 74.129392 76.24233 
L 74.872309 74.470548 
L 75.615225 85.556057 
L 76.358142 71.620913 
L 77.101059 97.184021 
L 77.843975 70.434893 
L 78.586892 80.392789 
L 79.329808 83.589393 
L 80.072725 73.637402 
L 80.815642 72.943799 
L 81.558558 89.069581 
L 82.301475 61.397689 
L 83.044391 83.221405 
L 83.787308 57.716995 
L 84.530224 82.971957 
L 85.273141 101.378857 
L 86.016058 79.598047 
L 86.758974 66.655814 
L 87.501891 51.245804 
L 88.244807 98.946412 
L 88.987724 90.018482 
L 89.73064 65.44715 
L 90.473557 53.343401 
L 91.216474 70.483411 
L 91.95939 72.118994 
L 92.702307 75.526793 
L 93.445223 53.192756 
L 94.18814 78.426366 
L 94.931057 57.241529 
L 95.673973 68.906704 
L 96.41689 74.092027 
L 97.159806 69.615724 
L 97.902723 61.105194 
L 98.645639 77.978095 
L 99.388556 65.274493 
L 100.131473 69.351326 
L 100.874389 57.285171 
L 101.617306 58.393803 
L 102.360222 60.31772 
L 103.103139 65.748709 
L 103.846055 68.481609 
L 104.588972 43.845347 
L 105.331889 82.002683 
L 106.074805 64.257006 
L 106.817722 60.515705 
L 107.560638 54.704002 
L 108.303555 66.750373 
L 109.046472 62.809349 
L 109.789388 88.252251 
L 110.532305 60.18062 
L 111.275221 66.793185 
L 112.018138 60.441795 
L 112.761054 52.226265 
L 113.503971 57.937695 
L 114.246888 56.285998 
L 114.989804 63.288428 
L 115.732721 61.777566 
L 116.475637 84.163513 
L 117.218554 69.006211 
L 117.961471 76.888196 
L 118.704387 90.937768 
L 119.447304 86.880321 
L 120.19022 81.048046 
L 120.933137 101.143992 
L 121.676053 94.659448 
L 122.41897 125.447096 
L 123.161887 100.873457 
L 123.904803 108.3413 
L 124.64772 101.779653 
L 125.390636 121.23993 
L 126.133553 113.249849 
L 126.876469 125.768953 
L 127.619386 111.15726 
L 128.362303 102.852533 
L 129.848136 132.387782 
L 130.591052 130.378533 
L 131.333969 127.663614 
L 132.076886 136.321971 
L 132.819802 125.101185 
L 133.562719 146.519577 
L 134.305635 152.141388 
L 135.048552 128.468337 
L 135.791468 149.931151 
L 136.534385 151.433389 
L 137.277302 149.899194 
L 138.020218 149.916961 
L 139.506051 153.466116 
L 140.248968 156.387797 
L 140.991884 154.273033 
L 142.477718 148.67908 
L 143.220634 153.616008 
L 143.963551 155.988211 
L 144.706467 160.913828 
L 145.449384 150.620634 
L 146.192301 154.420653 
L 146.935217 162.117406 
L 147.678134 136.670125 
L 148.42105 140.679696 
L 149.163967 130.827614 
L 149.906883 138.779047 
L 150.6498 124.507529 
L 151.392717 130.323616 
L 152.135633 127.24795 
L 152.87855 129.103285 
L 153.621466 132.904785 
L 154.364383 127.02484 
L 155.1073 130.047121 
L 155.850216 144.321727 
L 156.593133 147.289833 
L 157.336049 134.876493 
L 158.078966 144.238362 
L 158.821882 129.805584 
L 159.564799 157.4302 
L 160.307716 149.240608 
L 161.050632 162.49657 
L 161.793549 154.71582 
L 162.536465 169.796182 
L 163.279382 158.113812 
L 164.022298 164.920826 
L 164.765215 160.773423 
L 165.508132 151.521169 
L 166.251048 145.877427 
L 166.993965 150.460949 
L 167.736881 139.13048 
L 168.479798 138.916098 
L 169.222715 149.788496 
L 169.965631 140.462765 
L 170.708548 138.51061 
L 171.451464 152.536981 
L 172.194381 156.556316 
L 172.937297 147.576979 
L 173.680214 143.051054 
L 174.423131 143.416713 
L 175.166047 141.564671 
L 175.908964 145.95982 
L 176.65188 141.192578 
L 177.394797 144.83177 
L 178.137713 153.791221 
L 178.88063 154.974274 
L 179.623547 158.531762 
L 180.366463 154.420944 
L 181.10938 164.87065 
L 181.852296 165.303166 
L 182.595213 168.09169 
L 183.33813 162.078641 
L 184.081046 169.377324 
L 184.823963 158.293489 
L 185.566879 165.956784 
L 186.309796 168.581353 
L 187.052712 182.380763 
L 187.795629 177.922402 
L 188.538546 171.897765 
L 189.281462 174.608706 
L 190.024379 186.269755 
L 191.510212 175.002073 
L 192.253129 162.524385 
L 192.996045 173.37832 
L 193.738962 181.175669 
L 194.481878 173.528603 
L 195.224795 189.96095 
L 195.967711 179.060887 
L 196.710628 179.698862 
L 197.453545 167.46476 
L 198.196461 158.639869 
L 198.939378 169.056386 
L 200.425211 168.900996 
L 201.168127 164.614863 
L 201.911044 158.759596 
L 202.653961 168.376862 
L 203.396877 168.541342 
L 204.139794 148.989991 
L 204.88271 156.899849 
L 205.625627 156.180152 
L 206.368544 163.780375 
L 207.11146 159.106844 
L 207.854377 162.001509 
L 208.597293 155.00671 
L 209.34021 154.688935 
L 210.083126 164.161878 
L 210.826043 153.033064 
L 211.56896 150.378109 
L 213.054793 142.636905 
L 213.797709 134.841277 
L 214.540626 132.446842 
L 215.283542 132.442189 
L 216.769376 130.524887 
L 217.512292 127.08627 
L 218.255209 137.495203 
L 218.998125 123.117143 
L 219.741042 125.133906 
L 220.483959 121.235178 
L 221.226875 128.455389 
L 221.969792 124.950107 
L 222.712708 116.878056 
L 223.455625 125.466471 
L 224.198541 113.808828 
L 224.941458 99.805237 
L 225.684375 102.740327 
L 226.427291 113.58191 
L 227.170208 115.217358 
L 227.913124 137.476225 
L 228.656041 120.571697 
L 229.398958 111.684179 
L 230.141874 120.761476 
L 230.884791 116.968899 
L 231.627707 116.677246 
L 232.370624 117.341713 
L 233.11354 98.339787 
L 233.856457 123.168525 
L 234.599374 118.606828 
L 235.34229 104.556163 
L 236.828123 118.405567 
L 237.57104 97.343042 
L 238.313956 113.245192 
L 239.056873 110.926711 
L 239.79979 110.365502 
L 240.542706 121.488122 
L 241.285623 112.399344 
L 242.028539 112.821283 
L 242.771456 107.829302 
L 244.257289 113.639621 
L 245.000206 103.880845 
L 246.486039 92.185652 
L 247.228955 98.267361 
L 247.971872 82.137207 
L 248.714789 98.869734 
L 249.457705 83.951779 
L 250.200622 80.026634 
L 250.943538 88.762513 
L 251.686455 99.002611 
L 252.429371 93.999528 
L 253.172288 92.921704 
L 253.915205 93.657855 
L 254.658121 90.819095 
L 255.401038 79.554341 
L 256.143954 101.928211 
L 256.886871 97.031424 
L 257.629788 78.827553 
L 258.372704 104.555005 
L 259.858537 84.22422 
L 261.34437 106.783687 
L 262.087287 91.298735 
L 262.830204 95.329222 
L 263.57312 91.604354 
L 264.316037 96.221988 
L 265.058953 95.440775 
L 265.80187 97.586393 
L 266.544787 98.363723 
L 268.03062 96.61477 
L 268.773536 77.619669 
L 269.516453 105.722921 
L 270.259369 90.32797 
L 271.002286 84.657172 
L 271.745203 96.217814 
L 272.488119 76.277397 
L 273.231036 89.318483 
L 273.973952 89.997059 
L 274.716869 83.336487 
L 275.459785 81.51197 
L 276.202702 97.150573 
L 276.945619 85.113628 
L 277.688535 66.602107 
L 278.431452 67.178819 
L 279.174368 70.283759 
L 279.917285 69.807626 
L 280.660202 78.711272 
L 281.403118 82.991407 
L 282.146035 95.63761 
L 282.888951 76.305904 
L 283.631868 90.249546 
L 284.374784 80.13199 
L 285.117701 94.754093 
L 285.860618 87.980655 
L 286.603534 115.850329 
L 287.346451 114.073539 
L 288.089367 116.017471 
L 288.832284 103.437266 
L 289.5752 113.768349 
L 290.318117 110.07086 
L 291.061034 98.582606 
L 291.80395 95.903044 
L 292.546867 95.10843 
L 293.289783 83.330637 
L 294.0327 87.134405 
L 294.775617 73.609881 
L 295.518533 83.461286 
L 296.26145 80.311156 
L 297.004366 81.379731 
L 298.490199 99.520299 
L 299.233116 80.527292 
L 299.976033 72.43118 
L 300.718949 85.187857 
L 301.461866 105.427083 
L 302.204782 87.224556 
L 302.947699 93.941313 
L 303.690616 77.146433 
L 304.433532 82.761741 
L 305.176449 77.186922 
L 305.919365 89.651155 
L 306.662282 89.43854 
L 307.405198 93.056533 
L 308.148115 86.196145 
L 308.891032 103.850897 
L 309.633948 84.218427 
L 311.119781 113.670791 
L 311.862698 115.936988 
L 312.605614 111.443021 
L 313.348531 121.478064 
L 314.091448 149.821202 
L 314.834364 134.562881 
L 315.577281 125.152418 
L 316.320197 137.055414 
L 317.063114 152.663348 
L 317.806031 160.991305 
L 318.548947 185.603681 
L 319.291864 180.5362 
L 320.03478 199.192132 
L 320.777697 206.659033 
L 321.520613 212.790964 
L 322.26353 212.504058 
L 323.006447 219.959341 
L 323.749363 218.41704 
L 324.49228 213.786041 
L 325.235196 222.694649 
L 325.978113 230.152372 
L 326.721029 243.676574 
L 327.463946 244.130426 
L 328.206863 232.706599 
L 328.949779 236.484284 
L 329.692696 245.089858 
L 330.435612 255.188319 
L 331.178529 246.633728 
L 332.664362 254.124219 
L 333.407279 251.087796 
L 334.150195 245.322904 
L 334.893112 257.235552 
L 335.636028 251.95673 
L 336.378945 253.987061 
L 337.121862 257.030024 
L 337.864778 250.522924 
L 338.607695 250.315868 
L 339.350611 249.677027 
L 340.093528 265.990502 
L 341.579361 253.214053 
L 342.322278 263.38945 
L 343.065194 263.441092 
L 343.808111 260.511141 
L 344.551027 261.842685 
L 345.293944 259.052879 
L 346.036861 260.199971 
L 346.779777 249.901484 
L 347.522694 267.856058 
L 348.26561 251.19981 
L 349.008527 271.090701 
L 349.751443 260.637395 
L 350.49436 263.648468 
L 351.237277 258.262916 
L 351.980193 269.032524 
L 352.72311 257.453969 
L 353.466026 265.111241 
L 354.208943 255.259729 
L 354.95186 266.530199 
L 355.694776 264.606129 
L 356.437693 268.335023 
L 357.180609 258.684242 
L 357.923526 262.889696 
L 358.666442 273.749188 
L 359.409359 265.871023 
L 360.152276 266.980355 
L 360.895192 266.828012 
L 361.638109 260.298245 
L 362.381025 268.59311 
L 363.123942 253.428817 
L 363.866858 268.116576 
L 364.609775 250.290341 
L 365.352692 266.347879 
L 366.095608 265.063545 
L 366.838525 253.697764 
L 367.581441 267.032883 
L 368.324358 263.717361 
L 369.067275 273.6597 
L 369.810191 267.251972 
L 370.553108 268.473107 
L 371.296024 265.740334 
L 372.038941 258.958317 
L 372.781857 275.189694 
L 373.524774 259.945684 
L 374.267691 271.176683 
L 375.010607 268.405711 
L 375.753524 271.660561 
L 376.49644 270.475011 
L 377.239357 260.347105 
L 377.982274 276.080608 
L 378.72519 272.626323 
L 379.468107 275.08286 
L 380.211023 274.4081 
L 380.95394 276.334125 
L 381.696856 271.550647 
L 382.439773 270.852394 
L 383.18269 266.955634 
L 383.925606 272.068444 
L 384.668523 273.338629 
L 384.668523 273.338629 
" style="fill:none;stroke:#008000;stroke-linecap:square;stroke-opacity:0.3;stroke-width:1.5;"/>
   </g>
   <g id="patch_9">
    <path d="M 43.78125 288.430125 
L 43.78125 22.318125 
" style="fill:none;stroke:#000000;stroke-linecap:square;stroke-linejoin:miter;stroke-width:0.8;"/>
   </g>
   <g id="patch_10">
    <path d="M 400.90125 288.430125 
L 400.90125 22.318125 
" style="fill:none;stroke:#000000;stroke-linecap:square;stroke-linejoin:miter;stroke-width:0.8;"/>
   </g>
   <g id="patch_11">
    <path d="M 43.78125 288.430125 
L 400.90125 288.430125 
" style="fill:none;stroke:#000000;stroke-linecap:square;stroke-linejoin:miter;stroke-width:0.8;"/>
   </g>
   <g id="patch_12">
    <path d="M 43.78125 22.318125 
L 400.90125 22.318125 
" style="fill:none;stroke:#000000;stroke-linecap:square;stroke-linejoin:miter;stroke-width:0.8;"/>
   </g>
  </g>
 </g>
 <defs>
  <clipPath id="pfbc9b0a812">
   <rect height="266.112" width="357.12" x="43.78125" y="22.318125"/>
  </clipPath>
 </defs>
</svg>
