<?xml version="1.0" encoding="utf-8" standalone="no"?>
<!DOCTYPE svg PUBLIC "-//W3C//DTD SVG 1.1//EN"
  "http://www.w3.org/Graphics/SVG/1.1/DTD/svg11.dtd">
<!-- Created with matplotlib (https://matplotlib.org/) -->
<svg height="358.22505pt" version="1.1" viewBox="0 0 451.05125 358.22505" width="451.05125pt" xmlns="http://www.w3.org/2000/svg" xmlns:xlink="http://www.w3.org/1999/xlink">
 <defs>
  <style type="text/css">
*{stroke-linecap:butt;stroke-linejoin:round;}
  </style>
 </defs>
 <g id="figure_1">
  <g id="patch_1">
   <path d="M 0 358.22505 
L 451.05125 358.22505 
L 451.05125 0 
L 0 0 
z
" style="fill:#ffffff;"/>
  </g>
  <g id="axes_1">
   <g id="patch_2">
    <path d="M 46.965625 288.430125 
L 404.085625 288.430125 
L 404.085625 22.318125 
L 46.965625 22.318125 
z
" style="fill:#ffffff;"/>
   </g>
   <g id="matplotlib.axis_1">
    <g id="xtick_1">
     <g id="line2d_1">
      <defs>
       <path d="M 0 0 
L 0 3.5 
" id="m975c172c21" style="stroke:#000000;stroke-width:0.8;"/>
      </defs>
      <g>
       <use style="stroke:#000000;stroke-width:0.8;" x="63.198352" xlink:href="#m975c172c21" y="288.430125"/>
      </g>
     </g>
     <g id="text_1">
      <!-- 0 -->
      <defs>
       <path d="M 31.78125 66.40625 
Q 24.171875 66.40625 20.328125 58.90625 
Q 16.5 51.421875 16.5 36.375 
Q 16.5 21.390625 20.328125 13.890625 
Q 24.171875 6.390625 31.78125 6.390625 
Q 39.453125 6.390625 43.28125 13.890625 
Q 47.125 21.390625 47.125 36.375 
Q 47.125 51.421875 43.28125 58.90625 
Q 39.453125 66.40625 31.78125 66.40625 
z
M 31.78125 74.21875 
Q 44.046875 74.21875 50.515625 64.515625 
Q 56.984375 54.828125 56.984375 36.375 
Q 56.984375 17.96875 50.515625 8.265625 
Q 44.046875 -1.421875 31.78125 -1.421875 
Q 19.53125 -1.421875 13.0625 8.265625 
Q 6.59375 17.96875 6.59375 36.375 
Q 6.59375 54.828125 13.0625 64.515625 
Q 19.53125 74.21875 31.78125 74.21875 
z
" id="DejaVuSans-48"/>
      </defs>
      <g transform="translate(60.017102 303.028562)scale(0.1 -0.1)">
       <use xlink:href="#DejaVuSans-48"/>
      </g>
     </g>
    </g>
    <g id="xtick_2">
     <g id="line2d_2">
      <g>
       <use style="stroke:#000000;stroke-width:0.8;" x="137.49001" xlink:href="#m975c172c21" y="288.430125"/>
      </g>
     </g>
     <g id="text_2">
      <!-- 100 -->
      <defs>
       <path d="M 12.40625 8.296875 
L 28.515625 8.296875 
L 28.515625 63.921875 
L 10.984375 60.40625 
L 10.984375 69.390625 
L 28.421875 72.90625 
L 38.28125 72.90625 
L 38.28125 8.296875 
L 54.390625 8.296875 
L 54.390625 0 
L 12.40625 0 
z
" id="DejaVuSans-49"/>
      </defs>
      <g transform="translate(127.94626 303.028562)scale(0.1 -0.1)">
       <use xlink:href="#DejaVuSans-49"/>
       <use x="63.623047" xlink:href="#DejaVuSans-48"/>
       <use x="127.246094" xlink:href="#DejaVuSans-48"/>
      </g>
     </g>
    </g>
    <g id="xtick_3">
     <g id="line2d_3">
      <g>
       <use style="stroke:#000000;stroke-width:0.8;" x="211.781668" xlink:href="#m975c172c21" y="288.430125"/>
      </g>
     </g>
     <g id="text_3">
      <!-- 200 -->
      <defs>
       <path d="M 19.1875 8.296875 
L 53.609375 8.296875 
L 53.609375 0 
L 7.328125 0 
L 7.328125 8.296875 
Q 12.9375 14.109375 22.625 23.890625 
Q 32.328125 33.6875 34.8125 36.53125 
Q 39.546875 41.84375 41.421875 45.53125 
Q 43.3125 49.21875 43.3125 52.78125 
Q 43.3125 58.59375 39.234375 62.25 
Q 35.15625 65.921875 28.609375 65.921875 
Q 23.96875 65.921875 18.8125 64.3125 
Q 13.671875 62.703125 7.8125 59.421875 
L 7.8125 69.390625 
Q 13.765625 71.78125 18.9375 73 
Q 24.125 74.21875 28.421875 74.21875 
Q 39.75 74.21875 46.484375 68.546875 
Q 53.21875 62.890625 53.21875 53.421875 
Q 53.21875 48.921875 51.53125 44.890625 
Q 49.859375 40.875 45.40625 35.40625 
Q 44.1875 33.984375 37.640625 27.21875 
Q 31.109375 20.453125 19.1875 8.296875 
z
" id="DejaVuSans-50"/>
      </defs>
      <g transform="translate(202.237918 303.028562)scale(0.1 -0.1)">
       <use xlink:href="#DejaVuSans-50"/>
       <use x="63.623047" xlink:href="#DejaVuSans-48"/>
       <use x="127.246094" xlink:href="#DejaVuSans-48"/>
      </g>
     </g>
    </g>
    <g id="xtick_4">
     <g id="line2d_4">
      <g>
       <use style="stroke:#000000;stroke-width:0.8;" x="286.073326" xlink:href="#m975c172c21" y="288.430125"/>
      </g>
     </g>
     <g id="text_4">
      <!-- 300 -->
      <defs>
       <path d="M 40.578125 39.3125 
Q 47.65625 37.796875 51.625 33 
Q 55.609375 28.21875 55.609375 21.1875 
Q 55.609375 10.40625 48.1875 4.484375 
Q 40.765625 -1.421875 27.09375 -1.421875 
Q 22.515625 -1.421875 17.65625 -0.515625 
Q 12.796875 0.390625 7.625 2.203125 
L 7.625 11.71875 
Q 11.71875 9.328125 16.59375 8.109375 
Q 21.484375 6.890625 26.8125 6.890625 
Q 36.078125 6.890625 40.9375 10.546875 
Q 45.796875 14.203125 45.796875 21.1875 
Q 45.796875 27.640625 41.28125 31.265625 
Q 36.765625 34.90625 28.71875 34.90625 
L 20.21875 34.90625 
L 20.21875 43.015625 
L 29.109375 43.015625 
Q 36.375 43.015625 40.234375 45.921875 
Q 44.09375 48.828125 44.09375 54.296875 
Q 44.09375 59.90625 40.109375 62.90625 
Q 36.140625 65.921875 28.71875 65.921875 
Q 24.65625 65.921875 20.015625 65.03125 
Q 15.375 64.15625 9.8125 62.3125 
L 9.8125 71.09375 
Q 15.4375 72.65625 20.34375 73.4375 
Q 25.25 74.21875 29.59375 74.21875 
Q 40.828125 74.21875 47.359375 69.109375 
Q 53.90625 64.015625 53.90625 55.328125 
Q 53.90625 49.265625 50.4375 45.09375 
Q 46.96875 40.921875 40.578125 39.3125 
z
" id="DejaVuSans-51"/>
      </defs>
      <g transform="translate(276.529576 303.028562)scale(0.1 -0.1)">
       <use xlink:href="#DejaVuSans-51"/>
       <use x="63.623047" xlink:href="#DejaVuSans-48"/>
       <use x="127.246094" xlink:href="#DejaVuSans-48"/>
      </g>
     </g>
    </g>
    <g id="xtick_5">
     <g id="line2d_5">
      <g>
       <use style="stroke:#000000;stroke-width:0.8;" x="360.364984" xlink:href="#m975c172c21" y="288.430125"/>
      </g>
     </g>
     <g id="text_5">
      <!-- 400 -->
      <defs>
       <path d="M 37.796875 64.3125 
L 12.890625 25.390625 
L 37.796875 25.390625 
z
M 35.203125 72.90625 
L 47.609375 72.90625 
L 47.609375 25.390625 
L 58.015625 25.390625 
L 58.015625 17.1875 
L 47.609375 17.1875 
L 47.609375 0 
L 37.796875 0 
L 37.796875 17.1875 
L 4.890625 17.1875 
L 4.890625 26.703125 
z
" id="DejaVuSans-52"/>
      </defs>
      <g transform="translate(350.821234 303.028562)scale(0.1 -0.1)">
       <use xlink:href="#DejaVuSans-52"/>
       <use x="63.623047" xlink:href="#DejaVuSans-48"/>
       <use x="127.246094" xlink:href="#DejaVuSans-48"/>
      </g>
     </g>
    </g>
    <g id="text_6">
     <!-- Iteration (Cycle) -->
     <defs>
      <path d="M 9.8125 72.90625 
L 19.671875 72.90625 
L 19.671875 0 
L 9.8125 0 
z
" id="DejaVuSans-73"/>
      <path d="M 18.3125 70.21875 
L 18.3125 54.6875 
L 36.8125 54.6875 
L 36.8125 47.703125 
L 18.3125 47.703125 
L 18.3125 18.015625 
Q 18.3125 11.328125 20.140625 9.421875 
Q 21.96875 7.515625 27.59375 7.515625 
L 36.8125 7.515625 
L 36.8125 0 
L 27.59375 0 
Q 17.1875 0 13.234375 3.875 
Q 9.28125 7.765625 9.28125 18.015625 
L 9.28125 47.703125 
L 2.6875 47.703125 
L 2.6875 54.6875 
L 9.28125 54.6875 
L 9.28125 70.21875 
z
" id="DejaVuSans-116"/>
      <path d="M 56.203125 29.59375 
L 56.203125 25.203125 
L 14.890625 25.203125 
Q 15.484375 15.921875 20.484375 11.0625 
Q 25.484375 6.203125 34.421875 6.203125 
Q 39.59375 6.203125 44.453125 7.46875 
Q 49.3125 8.734375 54.109375 11.28125 
L 54.109375 2.78125 
Q 49.265625 0.734375 44.1875 -0.34375 
Q 39.109375 -1.421875 33.890625 -1.421875 
Q 20.796875 -1.421875 13.15625 6.1875 
Q 5.515625 13.8125 5.515625 26.8125 
Q 5.515625 40.234375 12.765625 48.109375 
Q 20.015625 56 32.328125 56 
Q 43.359375 56 49.78125 48.890625 
Q 56.203125 41.796875 56.203125 29.59375 
z
M 47.21875 32.234375 
Q 47.125 39.59375 43.09375 43.984375 
Q 39.0625 48.390625 32.421875 48.390625 
Q 24.90625 48.390625 20.390625 44.140625 
Q 15.875 39.890625 15.1875 32.171875 
z
" id="DejaVuSans-101"/>
      <path d="M 41.109375 46.296875 
Q 39.59375 47.171875 37.8125 47.578125 
Q 36.03125 48 33.890625 48 
Q 26.265625 48 22.1875 43.046875 
Q 18.109375 38.09375 18.109375 28.8125 
L 18.109375 0 
L 9.078125 0 
L 9.078125 54.6875 
L 18.109375 54.6875 
L 18.109375 46.1875 
Q 20.953125 51.171875 25.484375 53.578125 
Q 30.03125 56 36.53125 56 
Q 37.453125 56 38.578125 55.875 
Q 39.703125 55.765625 41.0625 55.515625 
z
" id="DejaVuSans-114"/>
      <path d="M 34.28125 27.484375 
Q 23.390625 27.484375 19.1875 25 
Q 14.984375 22.515625 14.984375 16.5 
Q 14.984375 11.71875 18.140625 8.90625 
Q 21.296875 6.109375 26.703125 6.109375 
Q 34.1875 6.109375 38.703125 11.40625 
Q 43.21875 16.703125 43.21875 25.484375 
L 43.21875 27.484375 
z
M 52.203125 31.203125 
L 52.203125 0 
L 43.21875 0 
L 43.21875 8.296875 
Q 40.140625 3.328125 35.546875 0.953125 
Q 30.953125 -1.421875 24.3125 -1.421875 
Q 15.921875 -1.421875 10.953125 3.296875 
Q 6 8.015625 6 15.921875 
Q 6 25.140625 12.171875 29.828125 
Q 18.359375 34.515625 30.609375 34.515625 
L 43.21875 34.515625 
L 43.21875 35.40625 
Q 43.21875 41.609375 39.140625 45 
Q 35.0625 48.390625 27.6875 48.390625 
Q 23 48.390625 18.546875 47.265625 
Q 14.109375 46.140625 10.015625 43.890625 
L 10.015625 52.203125 
Q 14.9375 54.109375 19.578125 55.046875 
Q 24.21875 56 28.609375 56 
Q 40.484375 56 46.34375 49.84375 
Q 52.203125 43.703125 52.203125 31.203125 
z
" id="DejaVuSans-97"/>
      <path d="M 9.421875 54.6875 
L 18.40625 54.6875 
L 18.40625 0 
L 9.421875 0 
z
M 9.421875 75.984375 
L 18.40625 75.984375 
L 18.40625 64.59375 
L 9.421875 64.59375 
z
" id="DejaVuSans-105"/>
      <path d="M 30.609375 48.390625 
Q 23.390625 48.390625 19.1875 42.75 
Q 14.984375 37.109375 14.984375 27.296875 
Q 14.984375 17.484375 19.15625 11.84375 
Q 23.34375 6.203125 30.609375 6.203125 
Q 37.796875 6.203125 41.984375 11.859375 
Q 46.1875 17.53125 46.1875 27.296875 
Q 46.1875 37.015625 41.984375 42.703125 
Q 37.796875 48.390625 30.609375 48.390625 
z
M 30.609375 56 
Q 42.328125 56 49.015625 48.375 
Q 55.71875 40.765625 55.71875 27.296875 
Q 55.71875 13.875 49.015625 6.21875 
Q 42.328125 -1.421875 30.609375 -1.421875 
Q 18.84375 -1.421875 12.171875 6.21875 
Q 5.515625 13.875 5.515625 27.296875 
Q 5.515625 40.765625 12.171875 48.375 
Q 18.84375 56 30.609375 56 
z
" id="DejaVuSans-111"/>
      <path d="M 54.890625 33.015625 
L 54.890625 0 
L 45.90625 0 
L 45.90625 32.71875 
Q 45.90625 40.484375 42.875 44.328125 
Q 39.84375 48.1875 33.796875 48.1875 
Q 26.515625 48.1875 22.3125 43.546875 
Q 18.109375 38.921875 18.109375 30.90625 
L 18.109375 0 
L 9.078125 0 
L 9.078125 54.6875 
L 18.109375 54.6875 
L 18.109375 46.1875 
Q 21.34375 51.125 25.703125 53.5625 
Q 30.078125 56 35.796875 56 
Q 45.21875 56 50.046875 50.171875 
Q 54.890625 44.34375 54.890625 33.015625 
z
" id="DejaVuSans-110"/>
      <path id="DejaVuSans-32"/>
      <path d="M 31 75.875 
Q 24.46875 64.65625 21.28125 53.65625 
Q 18.109375 42.671875 18.109375 31.390625 
Q 18.109375 20.125 21.3125 9.0625 
Q 24.515625 -2 31 -13.1875 
L 23.1875 -13.1875 
Q 15.875 -1.703125 12.234375 9.375 
Q 8.59375 20.453125 8.59375 31.390625 
Q 8.59375 42.28125 12.203125 53.3125 
Q 15.828125 64.359375 23.1875 75.875 
z
" id="DejaVuSans-40"/>
      <path d="M 64.40625 67.28125 
L 64.40625 56.890625 
Q 59.421875 61.53125 53.78125 63.8125 
Q 48.140625 66.109375 41.796875 66.109375 
Q 29.296875 66.109375 22.65625 58.46875 
Q 16.015625 50.828125 16.015625 36.375 
Q 16.015625 21.96875 22.65625 14.328125 
Q 29.296875 6.6875 41.796875 6.6875 
Q 48.140625 6.6875 53.78125 8.984375 
Q 59.421875 11.28125 64.40625 15.921875 
L 64.40625 5.609375 
Q 59.234375 2.09375 53.4375 0.328125 
Q 47.65625 -1.421875 41.21875 -1.421875 
Q 24.65625 -1.421875 15.125 8.703125 
Q 5.609375 18.84375 5.609375 36.375 
Q 5.609375 53.953125 15.125 64.078125 
Q 24.65625 74.21875 41.21875 74.21875 
Q 47.75 74.21875 53.53125 72.484375 
Q 59.328125 70.75 64.40625 67.28125 
z
" id="DejaVuSans-67"/>
      <path d="M 32.171875 -5.078125 
Q 28.375 -14.84375 24.75 -17.8125 
Q 21.140625 -20.796875 15.09375 -20.796875 
L 7.90625 -20.796875 
L 7.90625 -13.28125 
L 13.1875 -13.28125 
Q 16.890625 -13.28125 18.9375 -11.515625 
Q 21 -9.765625 23.484375 -3.21875 
L 25.09375 0.875 
L 2.984375 54.6875 
L 12.5 54.6875 
L 29.59375 11.921875 
L 46.6875 54.6875 
L 56.203125 54.6875 
z
" id="DejaVuSans-121"/>
      <path d="M 48.78125 52.59375 
L 48.78125 44.1875 
Q 44.96875 46.296875 41.140625 47.34375 
Q 37.3125 48.390625 33.40625 48.390625 
Q 24.65625 48.390625 19.8125 42.84375 
Q 14.984375 37.3125 14.984375 27.296875 
Q 14.984375 17.28125 19.8125 11.734375 
Q 24.65625 6.203125 33.40625 6.203125 
Q 37.3125 6.203125 41.140625 7.25 
Q 44.96875 8.296875 48.78125 10.40625 
L 48.78125 2.09375 
Q 45.015625 0.34375 40.984375 -0.53125 
Q 36.96875 -1.421875 32.421875 -1.421875 
Q 20.0625 -1.421875 12.78125 6.34375 
Q 5.515625 14.109375 5.515625 27.296875 
Q 5.515625 40.671875 12.859375 48.328125 
Q 20.21875 56 33.015625 56 
Q 37.15625 56 41.109375 55.140625 
Q 45.0625 54.296875 48.78125 52.59375 
z
" id="DejaVuSans-99"/>
      <path d="M 9.421875 75.984375 
L 18.40625 75.984375 
L 18.40625 0 
L 9.421875 0 
z
" id="DejaVuSans-108"/>
      <path d="M 8.015625 75.875 
L 15.828125 75.875 
Q 23.140625 64.359375 26.78125 53.3125 
Q 30.421875 42.28125 30.421875 31.390625 
Q 30.421875 20.453125 26.78125 9.375 
Q 23.140625 -1.703125 15.828125 -13.1875 
L 8.015625 -13.1875 
Q 14.5 -2 17.703125 9.0625 
Q 20.90625 20.125 20.90625 31.390625 
Q 20.90625 42.671875 17.703125 53.65625 
Q 14.5 64.65625 8.015625 75.875 
z
" id="DejaVuSans-41"/>
     </defs>
     <g transform="translate(185.160781 316.706687)scale(0.1 -0.1)">
      <use xlink:href="#DejaVuSans-73"/>
      <use x="29.492188" xlink:href="#DejaVuSans-116"/>
      <use x="68.701172" xlink:href="#DejaVuSans-101"/>
      <use x="130.224609" xlink:href="#DejaVuSans-114"/>
      <use x="171.337891" xlink:href="#DejaVuSans-97"/>
      <use x="232.617188" xlink:href="#DejaVuSans-116"/>
      <use x="271.826172" xlink:href="#DejaVuSans-105"/>
      <use x="299.609375" xlink:href="#DejaVuSans-111"/>
      <use x="360.791016" xlink:href="#DejaVuSans-110"/>
      <use x="424.169922" xlink:href="#DejaVuSans-32"/>
      <use x="455.957031" xlink:href="#DejaVuSans-40"/>
      <use x="494.970703" xlink:href="#DejaVuSans-67"/>
      <use x="564.794922" xlink:href="#DejaVuSans-121"/>
      <use x="623.974609" xlink:href="#DejaVuSans-99"/>
      <use x="678.955078" xlink:href="#DejaVuSans-108"/>
      <use x="706.738281" xlink:href="#DejaVuSans-101"/>
      <use x="768.261719" xlink:href="#DejaVuSans-41"/>
     </g>
    </g>
   </g>
   <g id="matplotlib.axis_2">
    <g id="ytick_1">
     <g id="line2d_6">
      <defs>
       <path d="M 0 0 
L -3.5 0 
" id="m4e8ba6cd6e" style="stroke:#000000;stroke-width:0.8;"/>
      </defs>
      <g>
       <use style="stroke:#000000;stroke-width:0.8;" x="46.965625" xlink:href="#m4e8ba6cd6e" y="284.402722"/>
      </g>
     </g>
     <g id="text_7">
      <!-- 0 -->
      <g transform="translate(33.603125 288.201941)scale(0.1 -0.1)">
       <use xlink:href="#DejaVuSans-48"/>
      </g>
     </g>
    </g>
    <g id="ytick_2">
     <g id="line2d_7">
      <g>
       <use style="stroke:#000000;stroke-width:0.8;" x="46.965625" xlink:href="#m4e8ba6cd6e" y="234.405003"/>
      </g>
     </g>
     <g id="text_8">
      <!-- 100 -->
      <g transform="translate(20.878125 238.204222)scale(0.1 -0.1)">
       <use xlink:href="#DejaVuSans-49"/>
       <use x="63.623047" xlink:href="#DejaVuSans-48"/>
       <use x="127.246094" xlink:href="#DejaVuSans-48"/>
      </g>
     </g>
    </g>
    <g id="ytick_3">
     <g id="line2d_8">
      <g>
       <use style="stroke:#000000;stroke-width:0.8;" x="46.965625" xlink:href="#m4e8ba6cd6e" y="184.407283"/>
      </g>
     </g>
     <g id="text_9">
      <!-- 200 -->
      <g transform="translate(20.878125 188.206502)scale(0.1 -0.1)">
       <use xlink:href="#DejaVuSans-50"/>
       <use x="63.623047" xlink:href="#DejaVuSans-48"/>
       <use x="127.246094" xlink:href="#DejaVuSans-48"/>
      </g>
     </g>
    </g>
    <g id="ytick_4">
     <g id="line2d_9">
      <g>
       <use style="stroke:#000000;stroke-width:0.8;" x="46.965625" xlink:href="#m4e8ba6cd6e" y="134.409564"/>
      </g>
     </g>
     <g id="text_10">
      <!-- 300 -->
      <g transform="translate(20.878125 138.208783)scale(0.1 -0.1)">
       <use xlink:href="#DejaVuSans-51"/>
       <use x="63.623047" xlink:href="#DejaVuSans-48"/>
       <use x="127.246094" xlink:href="#DejaVuSans-48"/>
      </g>
     </g>
    </g>
    <g id="ytick_5">
     <g id="line2d_10">
      <g>
       <use style="stroke:#000000;stroke-width:0.8;" x="46.965625" xlink:href="#m4e8ba6cd6e" y="84.411844"/>
      </g>
     </g>
     <g id="text_11">
      <!-- 400 -->
      <g transform="translate(20.878125 88.211063)scale(0.1 -0.1)">
       <use xlink:href="#DejaVuSans-52"/>
       <use x="63.623047" xlink:href="#DejaVuSans-48"/>
       <use x="127.246094" xlink:href="#DejaVuSans-48"/>
      </g>
     </g>
    </g>
    <g id="ytick_6">
     <g id="line2d_11">
      <g>
       <use style="stroke:#000000;stroke-width:0.8;" x="46.965625" xlink:href="#m4e8ba6cd6e" y="34.414125"/>
      </g>
     </g>
     <g id="text_12">
      <!-- 500 -->
      <defs>
       <path d="M 10.796875 72.90625 
L 49.515625 72.90625 
L 49.515625 64.59375 
L 19.828125 64.59375 
L 19.828125 46.734375 
Q 21.96875 47.46875 24.109375 47.828125 
Q 26.265625 48.1875 28.421875 48.1875 
Q 40.625 48.1875 47.75 41.5 
Q 54.890625 34.8125 54.890625 23.390625 
Q 54.890625 11.625 47.5625 5.09375 
Q 40.234375 -1.421875 26.90625 -1.421875 
Q 22.3125 -1.421875 17.546875 -0.640625 
Q 12.796875 0.140625 7.71875 1.703125 
L 7.71875 11.625 
Q 12.109375 9.234375 16.796875 8.0625 
Q 21.484375 6.890625 26.703125 6.890625 
Q 35.15625 6.890625 40.078125 11.328125 
Q 45.015625 15.765625 45.015625 23.390625 
Q 45.015625 31 40.078125 35.4375 
Q 35.15625 39.890625 26.703125 39.890625 
Q 22.75 39.890625 18.8125 39.015625 
Q 14.890625 38.140625 10.796875 36.28125 
z
" id="DejaVuSans-53"/>
      </defs>
      <g transform="translate(20.878125 38.213344)scale(0.1 -0.1)">
       <use xlink:href="#DejaVuSans-53"/>
       <use x="63.623047" xlink:href="#DejaVuSans-48"/>
       <use x="127.246094" xlink:href="#DejaVuSans-48"/>
      </g>
     </g>
    </g>
    <g id="text_13">
     <!-- Mean Episode Reward -->
     <defs>
      <path d="M 9.8125 72.90625 
L 24.515625 72.90625 
L 43.109375 23.296875 
L 61.8125 72.90625 
L 76.515625 72.90625 
L 76.515625 0 
L 66.890625 0 
L 66.890625 64.015625 
L 48.09375 14.015625 
L 38.1875 14.015625 
L 19.390625 64.015625 
L 19.390625 0 
L 9.8125 0 
z
" id="DejaVuSans-77"/>
      <path d="M 9.8125 72.90625 
L 55.90625 72.90625 
L 55.90625 64.59375 
L 19.671875 64.59375 
L 19.671875 43.015625 
L 54.390625 43.015625 
L 54.390625 34.71875 
L 19.671875 34.71875 
L 19.671875 8.296875 
L 56.78125 8.296875 
L 56.78125 0 
L 9.8125 0 
z
" id="DejaVuSans-69"/>
      <path d="M 18.109375 8.203125 
L 18.109375 -20.796875 
L 9.078125 -20.796875 
L 9.078125 54.6875 
L 18.109375 54.6875 
L 18.109375 46.390625 
Q 20.953125 51.265625 25.265625 53.625 
Q 29.59375 56 35.59375 56 
Q 45.5625 56 51.78125 48.09375 
Q 58.015625 40.1875 58.015625 27.296875 
Q 58.015625 14.40625 51.78125 6.484375 
Q 45.5625 -1.421875 35.59375 -1.421875 
Q 29.59375 -1.421875 25.265625 0.953125 
Q 20.953125 3.328125 18.109375 8.203125 
z
M 48.6875 27.296875 
Q 48.6875 37.203125 44.609375 42.84375 
Q 40.53125 48.484375 33.40625 48.484375 
Q 26.265625 48.484375 22.1875 42.84375 
Q 18.109375 37.203125 18.109375 27.296875 
Q 18.109375 17.390625 22.1875 11.75 
Q 26.265625 6.109375 33.40625 6.109375 
Q 40.53125 6.109375 44.609375 11.75 
Q 48.6875 17.390625 48.6875 27.296875 
z
" id="DejaVuSans-112"/>
      <path d="M 44.28125 53.078125 
L 44.28125 44.578125 
Q 40.484375 46.53125 36.375 47.5 
Q 32.28125 48.484375 27.875 48.484375 
Q 21.1875 48.484375 17.84375 46.4375 
Q 14.5 44.390625 14.5 40.28125 
Q 14.5 37.15625 16.890625 35.375 
Q 19.28125 33.59375 26.515625 31.984375 
L 29.59375 31.296875 
Q 39.15625 29.25 43.1875 25.515625 
Q 47.21875 21.78125 47.21875 15.09375 
Q 47.21875 7.46875 41.1875 3.015625 
Q 35.15625 -1.421875 24.609375 -1.421875 
Q 20.21875 -1.421875 15.453125 -0.5625 
Q 10.6875 0.296875 5.421875 2 
L 5.421875 11.28125 
Q 10.40625 8.6875 15.234375 7.390625 
Q 20.0625 6.109375 24.8125 6.109375 
Q 31.15625 6.109375 34.5625 8.28125 
Q 37.984375 10.453125 37.984375 14.40625 
Q 37.984375 18.0625 35.515625 20.015625 
Q 33.0625 21.96875 24.703125 23.78125 
L 21.578125 24.515625 
Q 13.234375 26.265625 9.515625 29.90625 
Q 5.8125 33.546875 5.8125 39.890625 
Q 5.8125 47.609375 11.28125 51.796875 
Q 16.75 56 26.8125 56 
Q 31.78125 56 36.171875 55.265625 
Q 40.578125 54.546875 44.28125 53.078125 
z
" id="DejaVuSans-115"/>
      <path d="M 45.40625 46.390625 
L 45.40625 75.984375 
L 54.390625 75.984375 
L 54.390625 0 
L 45.40625 0 
L 45.40625 8.203125 
Q 42.578125 3.328125 38.25 0.953125 
Q 33.9375 -1.421875 27.875 -1.421875 
Q 17.96875 -1.421875 11.734375 6.484375 
Q 5.515625 14.40625 5.515625 27.296875 
Q 5.515625 40.1875 11.734375 48.09375 
Q 17.96875 56 27.875 56 
Q 33.9375 56 38.25 53.625 
Q 42.578125 51.265625 45.40625 46.390625 
z
M 14.796875 27.296875 
Q 14.796875 17.390625 18.875 11.75 
Q 22.953125 6.109375 30.078125 6.109375 
Q 37.203125 6.109375 41.296875 11.75 
Q 45.40625 17.390625 45.40625 27.296875 
Q 45.40625 37.203125 41.296875 42.84375 
Q 37.203125 48.484375 30.078125 48.484375 
Q 22.953125 48.484375 18.875 42.84375 
Q 14.796875 37.203125 14.796875 27.296875 
z
" id="DejaVuSans-100"/>
      <path d="M 44.390625 34.1875 
Q 47.5625 33.109375 50.5625 29.59375 
Q 53.5625 26.078125 56.59375 19.921875 
L 66.609375 0 
L 56 0 
L 46.6875 18.703125 
Q 43.0625 26.03125 39.671875 28.421875 
Q 36.28125 30.8125 30.421875 30.8125 
L 19.671875 30.8125 
L 19.671875 0 
L 9.8125 0 
L 9.8125 72.90625 
L 32.078125 72.90625 
Q 44.578125 72.90625 50.734375 67.671875 
Q 56.890625 62.453125 56.890625 51.90625 
Q 56.890625 45.015625 53.6875 40.46875 
Q 50.484375 35.9375 44.390625 34.1875 
z
M 19.671875 64.796875 
L 19.671875 38.921875 
L 32.078125 38.921875 
Q 39.203125 38.921875 42.84375 42.21875 
Q 46.484375 45.515625 46.484375 51.90625 
Q 46.484375 58.296875 42.84375 61.546875 
Q 39.203125 64.796875 32.078125 64.796875 
z
" id="DejaVuSans-82"/>
      <path d="M 4.203125 54.6875 
L 13.1875 54.6875 
L 24.421875 12.015625 
L 35.59375 54.6875 
L 46.1875 54.6875 
L 57.421875 12.015625 
L 68.609375 54.6875 
L 77.59375 54.6875 
L 63.28125 0 
L 52.6875 0 
L 40.921875 44.828125 
L 29.109375 0 
L 18.5 0 
z
" id="DejaVuSans-119"/>
     </defs>
     <g transform="translate(14.798438 210.742875)rotate(-90)scale(0.1 -0.1)">
      <use xlink:href="#DejaVuSans-77"/>
      <use x="86.279297" xlink:href="#DejaVuSans-101"/>
      <use x="147.802734" xlink:href="#DejaVuSans-97"/>
      <use x="209.082031" xlink:href="#DejaVuSans-110"/>
      <use x="272.460938" xlink:href="#DejaVuSans-32"/>
      <use x="304.248047" xlink:href="#DejaVuSans-69"/>
      <use x="367.431641" xlink:href="#DejaVuSans-112"/>
      <use x="430.908203" xlink:href="#DejaVuSans-105"/>
      <use x="458.691406" xlink:href="#DejaVuSans-115"/>
      <use x="510.791016" xlink:href="#DejaVuSans-111"/>
      <use x="571.972656" xlink:href="#DejaVuSans-100"/>
      <use x="635.449219" xlink:href="#DejaVuSans-101"/>
      <use x="696.972656" xlink:href="#DejaVuSans-32"/>
      <use x="728.759766" xlink:href="#DejaVuSans-82"/>
      <use x="798.179688" xlink:href="#DejaVuSans-101"/>
      <use x="859.703125" xlink:href="#DejaVuSans-119"/>
      <use x="941.490234" xlink:href="#DejaVuSans-97"/>
      <use x="1002.769531" xlink:href="#DejaVuSans-114"/>
      <use x="1043.867188" xlink:href="#DejaVuSans-100"/>
     </g>
    </g>
   </g>
   <g id="line2d_12">
    <path clip-path="url(#paa6fcf5455)" d="M 63.198352 275.37965 
L 63.941269 275.755042 
L 64.684185 275.532112 
L 65.427102 274.726307 
L 66.170019 273.353072 
L 66.912935 271.427853 
L 67.655852 268.777166 
L 69.141685 260.853779 
L 69.884601 259.147089 
L 70.627518 259.123028 
L 71.370435 259.288298 
L 72.856268 259.758506 
L 73.599184 254.314971 
L 75.085018 238.11533 
L 75.827934 232.695827 
L 76.570851 230.052287 
L 77.313767 230.982454 
L 78.056684 235.484508 
L 78.7996 240.755319 
L 79.542517 244.737051 
L 80.285434 245.323663 
L 81.02835 239.196528 
L 81.771267 234.157585 
L 82.514183 231.639369 
L 83.2571 231.022753 
L 84.000017 230.056685 
L 84.742933 231.080372 
L 86.228766 242.578575 
L 86.971683 247.636948 
L 87.714599 248.44624 
L 88.457516 247.847474 
L 89.200433 246.092733 
L 89.943349 241.737742 
L 90.686266 234.084665 
L 92.172099 214.305705 
L 92.915015 208.350125 
L 93.657932 204.648034 
L 94.400849 204.120139 
L 95.143765 204.060076 
L 95.886682 209.051691 
L 97.372515 216.752607 
L 98.858348 229.940938 
L 100.344181 237.260012 
L 101.087098 237.30494 
L 101.830014 238.42511 
L 102.572931 240.072036 
L 103.315848 240.630792 
L 104.058764 239.891685 
L 104.801681 237.231812 
L 105.544597 238.635212 
L 106.287514 245.200325 
L 107.03043 243.383716 
L 108.516264 234.373091 
L 109.25918 233.232012 
L 110.002097 224.074837 
L 110.745013 212.806083 
L 111.48793 204.720143 
L 112.230847 198.294008 
L 112.973763 198.511597 
L 113.71668 205.349892 
L 114.459596 207.551234 
L 115.202513 213.437012 
L 116.688346 231.009052 
L 117.431263 228.479078 
L 118.174179 227.148191 
L 119.660012 228.220482 
L 120.402929 226.809974 
L 121.145846 226.230617 
L 121.888762 223.601579 
L 122.631679 223.086448 
L 123.374595 223.692202 
L 124.117512 225.322638 
L 124.860428 223.918597 
L 125.603345 223.934256 
L 126.346262 226.357004 
L 127.089178 223.777362 
L 127.832095 224.109905 
L 128.575011 209.243283 
L 129.317928 207.075149 
L 131.546678 152.353503 
L 132.289594 128.178674 
L 133.032511 99.867844 
L 134.518344 52.877865 
L 135.261261 52.659783 
L 136.004177 57.792899 
L 136.747094 89.154512 
L 137.49001 112.294041 
L 138.975843 177.28428 
L 139.71876 191.054321 
L 140.461677 186.542333 
L 141.204593 164.085932 
L 141.94751 136.884419 
L 142.690426 121.178119 
L 143.433343 114.124387 
L 144.176259 111.475358 
L 144.919176 103.591693 
L 145.662093 103.131672 
L 146.405009 114.743839 
L 147.890842 132.631075 
L 148.633759 139.463564 
L 150.119592 169.312223 
L 150.862509 189.727476 
L 151.605425 201.975746 
L 152.348342 202.26411 
L 153.091258 204.957872 
L 154.577092 212.545629 
L 155.320008 212.213291 
L 156.062925 213.30407 
L 156.805841 213.178689 
L 157.548758 214.942327 
L 160.520424 237.36121 
L 161.263341 242.040046 
L 162.006257 244.512202 
L 162.749174 243.518488 
L 163.492091 241.667699 
L 164.977924 235.988228 
L 167.206673 224.598567 
L 167.94959 221.74181 
L 168.692507 221.021041 
L 169.435423 220.037427 
L 170.17834 218.783823 
L 170.921256 218.298277 
L 171.664173 217.107924 
L 172.40709 215.022973 
L 173.150006 210.602866 
L 173.892923 204.694504 
L 174.635839 196.768638 
L 175.378756 190.251313 
L 176.121672 186.389255 
L 176.864589 185.063397 
L 177.607506 187.155176 
L 178.350422 192.078974 
L 179.836255 190.225163 
L 180.579172 185.442656 
L 181.322088 175.564611 
L 182.065005 162.573745 
L 182.807922 153.319838 
L 183.550838 145.594263 
L 184.293755 145.892549 
L 185.036671 152.618603 
L 185.779588 163.190009 
L 186.522505 171.592561 
L 188.008338 195.824899 
L 188.751254 203.448723 
L 190.237087 213.478776 
L 190.980004 213.823148 
L 191.722921 216.169586 
L 193.208754 219.52034 
L 193.95167 219.713852 
L 194.694587 221.026804 
L 195.437504 220.726486 
L 196.18042 219.509877 
L 196.923337 216.971878 
L 199.152086 204.432112 
L 199.895003 202.777443 
L 200.63792 202.467425 
L 201.380836 203.844242 
L 202.123753 207.862951 
L 203.609586 213.007115 
L 204.352502 213.172692 
L 205.838336 211.504621 
L 206.581252 209.921395 
L 207.324169 209.489308 
L 208.067085 207.939152 
L 210.295835 204.085534 
L 211.038752 204.457388 
L 212.524585 202.999453 
L 213.267501 203.695657 
L 214.010418 203.078997 
L 214.753335 203.947009 
L 215.496251 205.387729 
L 216.239168 204.922257 
L 216.982084 205.727896 
L 217.725001 205.75342 
L 218.467917 205.150283 
L 219.210834 203.623906 
L 219.953751 202.484314 
L 220.696667 202.135736 
L 221.439584 200.585352 
L 223.668334 193.146486 
L 225.154167 186.243347 
L 225.897083 185.591426 
L 226.64 186.479102 
L 227.382916 187.737394 
L 228.125833 189.543598 
L 228.86875 192.063404 
L 229.611666 192.20926 
L 230.354583 191.743073 
L 231.097499 193.851651 
L 231.840416 193.360463 
L 232.583333 193.834996 
L 233.326249 193.937985 
L 234.069166 192.248567 
L 234.812082 190.271364 
L 235.554999 191.171611 
L 236.297915 193.973078 
L 237.040832 194.364941 
L 237.783749 195.224259 
L 238.526665 195.800338 
L 239.269582 193.769623 
L 240.755415 188.686533 
L 241.498331 184.048164 
L 242.241248 180.126575 
L 242.984165 179.269285 
L 243.727081 179.277014 
L 244.469998 178.717904 
L 245.212914 176.816735 
L 245.955831 174.362619 
L 246.698748 170.462862 
L 247.441664 168.816156 
L 248.184581 168.076188 
L 249.670414 163.925564 
L 250.41333 163.634245 
L 251.156247 163.904919 
L 251.899164 163.782674 
L 252.64208 163.437505 
L 253.384997 163.293632 
L 254.127913 162.159029 
L 254.87083 160.566965 
L 255.613746 156.753941 
L 256.356663 154.567525 
L 257.842496 158.052459 
L 258.585413 154.519837 
L 259.328329 149.739793 
L 260.071246 146.499752 
L 260.814163 139.855858 
L 262.299996 130.039314 
L 263.042912 123.515633 
L 263.785829 125.193728 
L 264.528745 136.802896 
L 266.014579 154.436126 
L 266.757495 166.613533 
L 267.500412 175.874292 
L 268.986245 188.010671 
L 269.729162 191.718338 
L 270.472078 188.073499 
L 271.957911 173.98619 
L 273.443744 156.051459 
L 278.64416 128.995555 
L 279.387077 126.138949 
L 280.129994 128.722649 
L 280.87291 134.409352 
L 283.10166 177.498075 
L 283.844577 189.330934 
L 284.587493 195.789195 
L 285.33041 201.025636 
L 286.073326 202.650121 
L 286.816243 197.026099 
L 287.559159 194.666199 
L 288.302076 191.495992 
L 289.044993 181.281598 
L 290.530826 153.305924 
L 293.502492 120.571555 
L 294.245409 114.943974 
L 294.988325 108.283153 
L 295.731242 104.145691 
L 296.474158 99.085174 
L 297.217075 99.200339 
L 297.959992 105.693916 
L 300.188741 145.210097 
L 300.931658 160.153357 
L 301.674574 171.596961 
L 302.417491 176.112426 
L 303.903324 187.664187 
L 304.646241 186.49436 
L 305.389157 182.051653 
L 306.132074 180.056399 
L 306.874991 178.620598 
L 307.617907 179.703151 
L 309.10374 186.039795 
L 310.589573 195.153507 
L 311.33249 198.752907 
L 312.075407 198.710992 
L 312.818323 200.356079 
L 313.56124 204.324873 
L 314.304156 206.232508 
L 315.047073 208.581546 
L 315.789989 209.891546 
L 316.532906 210.728792 
L 317.275823 212.246265 
L 318.018739 213.317102 
L 318.761656 214.614096 
L 319.504572 215.524048 
L 320.247489 216.160586 
L 322.476239 217.006478 
L 323.219155 216.657918 
L 323.962072 216.051235 
L 325.447905 215.080747 
L 326.190822 214.439983 
L 326.933738 215.214218 
L 328.419571 216.492848 
L 329.905404 218.230707 
L 330.648321 217.951045 
L 332.134154 218.490199 
L 332.877071 218.196973 
L 333.619987 217.712029 
L 335.105821 219.476513 
L 335.848737 220.670526 
L 337.33457 223.707542 
L 338.077487 224.924554 
L 338.820403 226.374939 
L 339.56332 227.16944 
L 340.306237 227.581138 
L 341.049153 227.405186 
L 342.534986 228.058945 
L 343.277903 228.492737 
L 344.02082 229.49208 
L 346.249569 231.34071 
L 346.992486 230.865048 
L 348.478319 230.989094 
L 349.221236 231.138003 
L 349.964152 231.053629 
L 350.707069 231.217225 
L 352.192902 230.738766 
L 352.935818 231.108633 
L 354.421652 231.07686 
L 355.164568 232.370407 
L 355.907485 231.930901 
L 356.650401 232.127787 
L 358.136235 230.817987 
L 358.879151 231.131924 
L 359.622068 230.718187 
L 360.364984 230.44641 
L 361.107901 230.538692 
L 361.850817 230.135977 
L 362.593734 229.386604 
L 363.336651 227.003495 
L 364.079567 226.751379 
L 364.822484 226.258142 
L 365.5654 227.520522 
L 366.308317 230.776126 
L 367.051233 231.868996 
L 368.537067 235.879369 
L 369.279983 234.619972 
L 370.0229 234.340301 
L 370.765816 233.90286 
L 371.508733 234.636004 
L 372.25165 234.641943 
L 372.994566 235.645134 
L 373.737483 236.453653 
L 374.480399 235.653908 
L 375.223316 236.285655 
L 375.966232 235.680559 
L 376.709149 233.800291 
L 377.452066 234.020751 
L 378.194982 233.615806 
L 378.937899 234.000766 
L 379.680815 233.214685 
L 381.166649 233.264468 
L 381.909565 233.559608 
L 382.652482 234.488304 
L 383.395398 233.932122 
L 384.138315 233.705696 
L 386.367065 232.707511 
L 387.109981 232.565954 
L 387.852898 232.642025 
L 387.852898 232.642025 
" style="fill:none;stroke:#ff0000;stroke-linecap:square;stroke-width:1.5;"/>
   </g>
   <g id="line2d_13">
    <path clip-path="url(#paa6fcf5455)" d="M 46.965625 46.913555 
L 404.085625 46.913555 
" style="fill:none;stroke:#008000;stroke-dasharray:3.7,1.6;stroke-dashoffset:0;"/>
   </g>
   <g id="patch_3">
    <path d="M 46.965625 288.430125 
L 46.965625 22.318125 
" style="fill:none;stroke:#000000;stroke-linecap:square;stroke-linejoin:miter;stroke-width:0.8;"/>
   </g>
   <g id="patch_4">
    <path d="M 404.085625 288.430125 
L 404.085625 22.318125 
" style="fill:none;stroke:#000000;stroke-linecap:square;stroke-linejoin:miter;stroke-width:0.8;"/>
   </g>
   <g id="patch_5">
    <path d="M 46.965625 288.430125 
L 404.085625 288.430125 
" style="fill:none;stroke:#000000;stroke-linecap:square;stroke-linejoin:miter;stroke-width:0.8;"/>
   </g>
   <g id="patch_6">
    <path d="M 46.965625 22.318125 
L 404.085625 22.318125 
" style="fill:none;stroke:#000000;stroke-linecap:square;stroke-linejoin:miter;stroke-width:0.8;"/>
   </g>
   <g id="text_14">
    <!-- Mean Rewards and Episode Lengths. -->
    <defs>
     <path d="M 9.1875 72.90625 
L 33.109375 72.90625 
L 49.703125 33.890625 
L 66.40625 72.90625 
L 90.28125 72.90625 
L 90.28125 0 
L 72.515625 0 
L 72.515625 53.328125 
L 55.71875 14.015625 
L 43.796875 14.015625 
L 27 53.328125 
L 27 0 
L 9.1875 0 
z
" id="DejaVuSans-Bold-77"/>
     <path d="M 62.984375 27.484375 
L 62.984375 22.515625 
L 22.125 22.515625 
Q 22.75 16.359375 26.5625 13.28125 
Q 30.375 10.203125 37.203125 10.203125 
Q 42.71875 10.203125 48.5 11.84375 
Q 54.296875 13.484375 60.40625 16.796875 
L 60.40625 3.328125 
Q 54.203125 0.984375 48 -0.21875 
Q 41.796875 -1.421875 35.59375 -1.421875 
Q 20.75 -1.421875 12.515625 6.125 
Q 4.296875 13.671875 4.296875 27.296875 
Q 4.296875 40.671875 12.375 48.328125 
Q 20.453125 56 34.625 56 
Q 47.515625 56 55.25 48.234375 
Q 62.984375 40.484375 62.984375 27.484375 
z
M 45.015625 33.296875 
Q 45.015625 38.28125 42.109375 41.328125 
Q 39.203125 44.390625 34.515625 44.390625 
Q 29.4375 44.390625 26.265625 41.53125 
Q 23.09375 38.671875 22.3125 33.296875 
z
" id="DejaVuSans-Bold-101"/>
     <path d="M 32.90625 24.609375 
Q 27.4375 24.609375 24.671875 22.75 
Q 21.921875 20.90625 21.921875 17.28125 
Q 21.921875 13.96875 24.140625 12.078125 
Q 26.375 10.203125 30.328125 10.203125 
Q 35.25 10.203125 38.625 13.734375 
Q 42 17.28125 42 22.609375 
L 42 24.609375 
z
M 59.625 31.203125 
L 59.625 0 
L 42 0 
L 42 8.109375 
Q 38.484375 3.125 34.078125 0.84375 
Q 29.6875 -1.421875 23.390625 -1.421875 
Q 14.890625 -1.421875 9.59375 3.53125 
Q 4.296875 8.5 4.296875 16.40625 
Q 4.296875 26.03125 10.90625 30.515625 
Q 17.53125 35.015625 31.6875 35.015625 
L 42 35.015625 
L 42 36.375 
Q 42 40.53125 38.71875 42.453125 
Q 35.453125 44.390625 28.515625 44.390625 
Q 22.90625 44.390625 18.0625 43.265625 
Q 13.234375 42.140625 9.078125 39.890625 
L 9.078125 53.21875 
Q 14.703125 54.59375 20.359375 55.296875 
Q 26.03125 56 31.6875 56 
Q 46.484375 56 53.046875 50.171875 
Q 59.625 44.34375 59.625 31.203125 
z
" id="DejaVuSans-Bold-97"/>
     <path d="M 63.375 33.296875 
L 63.375 0 
L 45.796875 0 
L 45.796875 5.421875 
L 45.796875 25.484375 
Q 45.796875 32.5625 45.484375 35.25 
Q 45.171875 37.9375 44.390625 39.203125 
Q 43.359375 40.921875 41.59375 41.875 
Q 39.84375 42.828125 37.59375 42.828125 
Q 32.125 42.828125 29 38.59375 
Q 25.875 34.375 25.875 26.90625 
L 25.875 0 
L 8.40625 0 
L 8.40625 54.6875 
L 25.875 54.6875 
L 25.875 46.6875 
Q 29.828125 51.46875 34.265625 53.734375 
Q 38.71875 56 44.09375 56 
Q 53.5625 56 58.46875 50.1875 
Q 63.375 44.390625 63.375 33.296875 
z
" id="DejaVuSans-Bold-110"/>
     <path id="DejaVuSans-Bold-32"/>
     <path d="M 35.890625 40.578125 
Q 41.796875 40.578125 44.359375 42.765625 
Q 46.921875 44.96875 46.921875 50 
Q 46.921875 54.984375 44.359375 57.125 
Q 41.796875 59.28125 35.890625 59.28125 
L 27.984375 59.28125 
L 27.984375 40.578125 
z
M 27.984375 27.59375 
L 27.984375 0 
L 9.1875 0 
L 9.1875 72.90625 
L 37.890625 72.90625 
Q 52.296875 72.90625 59 68.0625 
Q 65.71875 63.234375 65.71875 52.78125 
Q 65.71875 45.5625 62.21875 40.921875 
Q 58.734375 36.28125 51.703125 34.078125 
Q 55.5625 33.203125 58.609375 30.09375 
Q 61.671875 27 64.796875 20.703125 
L 75 0 
L 54.984375 0 
L 46.09375 18.109375 
Q 43.40625 23.578125 40.640625 25.578125 
Q 37.890625 27.59375 33.296875 27.59375 
z
" id="DejaVuSans-Bold-82"/>
     <path d="M 3.515625 54.6875 
L 20.515625 54.6875 
L 29.6875 17 
L 38.921875 54.6875 
L 53.515625 54.6875 
L 62.703125 17.390625 
L 71.921875 54.6875 
L 88.921875 54.6875 
L 74.515625 0 
L 55.421875 0 
L 46.1875 37.59375 
L 37.015625 0 
L 17.921875 0 
z
" id="DejaVuSans-Bold-119"/>
     <path d="M 49.03125 39.796875 
Q 46.734375 40.875 44.453125 41.375 
Q 42.1875 41.890625 39.890625 41.890625 
Q 33.15625 41.890625 29.515625 37.5625 
Q 25.875 33.25 25.875 25.203125 
L 25.875 0 
L 8.40625 0 
L 8.40625 54.6875 
L 25.875 54.6875 
L 25.875 45.703125 
Q 29.25 51.078125 33.609375 53.53125 
Q 37.984375 56 44.09375 56 
Q 44.96875 56 45.984375 55.921875 
Q 47.015625 55.859375 48.96875 55.609375 
z
" id="DejaVuSans-Bold-114"/>
     <path d="M 45.609375 46.6875 
L 45.609375 75.984375 
L 63.1875 75.984375 
L 63.1875 0 
L 45.609375 0 
L 45.609375 7.90625 
Q 42 3.078125 37.640625 0.828125 
Q 33.296875 -1.421875 27.59375 -1.421875 
Q 17.484375 -1.421875 10.984375 6.609375 
Q 4.5 14.65625 4.5 27.296875 
Q 4.5 39.9375 10.984375 47.96875 
Q 17.484375 56 27.59375 56 
Q 33.25 56 37.625 53.734375 
Q 42 51.46875 45.609375 46.6875 
z
M 34.078125 11.28125 
Q 39.703125 11.28125 42.65625 15.375 
Q 45.609375 19.484375 45.609375 27.296875 
Q 45.609375 35.109375 42.65625 39.203125 
Q 39.703125 43.3125 34.078125 43.3125 
Q 28.515625 43.3125 25.5625 39.203125 
Q 22.609375 35.109375 22.609375 27.296875 
Q 22.609375 19.484375 25.5625 15.375 
Q 28.515625 11.28125 34.078125 11.28125 
z
" id="DejaVuSans-Bold-100"/>
     <path d="M 51.125 52.984375 
L 51.125 39.703125 
Q 45.515625 42.046875 40.28125 43.21875 
Q 35.0625 44.390625 30.421875 44.390625 
Q 25.4375 44.390625 23.015625 43.140625 
Q 20.609375 41.890625 20.609375 39.3125 
Q 20.609375 37.203125 22.4375 36.078125 
Q 24.265625 34.96875 29 34.421875 
L 32.078125 33.984375 
Q 45.515625 32.28125 50.140625 28.375 
Q 54.78125 24.46875 54.78125 16.109375 
Q 54.78125 7.375 48.328125 2.96875 
Q 41.890625 -1.421875 29.109375 -1.421875 
Q 23.6875 -1.421875 17.890625 -0.5625 
Q 12.109375 0.296875 6 2 
L 6 15.28125 
Q 11.234375 12.75 16.71875 11.46875 
Q 22.21875 10.203125 27.875 10.203125 
Q 33.015625 10.203125 35.59375 11.609375 
Q 38.1875 13.03125 38.1875 15.828125 
Q 38.1875 18.171875 36.40625 19.3125 
Q 34.625 20.453125 29.296875 21.09375 
L 26.21875 21.484375 
Q 14.546875 22.953125 9.859375 26.90625 
Q 5.171875 30.859375 5.171875 38.921875 
Q 5.171875 47.609375 11.125 51.796875 
Q 17.09375 56 29.390625 56 
Q 34.234375 56 39.546875 55.265625 
Q 44.875 54.546875 51.125 52.984375 
z
" id="DejaVuSans-Bold-115"/>
     <path d="M 9.1875 72.90625 
L 59.90625 72.90625 
L 59.90625 58.6875 
L 27.984375 58.6875 
L 27.984375 45.125 
L 58.015625 45.125 
L 58.015625 30.90625 
L 27.984375 30.90625 
L 27.984375 14.203125 
L 60.984375 14.203125 
L 60.984375 0 
L 9.1875 0 
z
" id="DejaVuSans-Bold-69"/>
     <path d="M 25.875 7.90625 
L 25.875 -20.796875 
L 8.40625 -20.796875 
L 8.40625 54.6875 
L 25.875 54.6875 
L 25.875 46.6875 
Q 29.5 51.46875 33.890625 53.734375 
Q 38.28125 56 44 56 
Q 54.109375 56 60.59375 47.96875 
Q 67.09375 39.9375 67.09375 27.296875 
Q 67.09375 14.65625 60.59375 6.609375 
Q 54.109375 -1.421875 44 -1.421875 
Q 38.28125 -1.421875 33.890625 0.84375 
Q 29.5 3.125 25.875 7.90625 
z
M 37.5 43.3125 
Q 31.890625 43.3125 28.875 39.1875 
Q 25.875 35.0625 25.875 27.296875 
Q 25.875 19.53125 28.875 15.40625 
Q 31.890625 11.28125 37.5 11.28125 
Q 43.109375 11.28125 46.0625 15.375 
Q 49.03125 19.484375 49.03125 27.296875 
Q 49.03125 35.109375 46.0625 39.203125 
Q 43.109375 43.3125 37.5 43.3125 
z
" id="DejaVuSans-Bold-112"/>
     <path d="M 8.40625 54.6875 
L 25.875 54.6875 
L 25.875 0 
L 8.40625 0 
z
M 8.40625 75.984375 
L 25.875 75.984375 
L 25.875 61.71875 
L 8.40625 61.71875 
z
" id="DejaVuSans-Bold-105"/>
     <path d="M 34.421875 43.5 
Q 28.609375 43.5 25.5625 39.328125 
Q 22.515625 35.15625 22.515625 27.296875 
Q 22.515625 19.4375 25.5625 15.25 
Q 28.609375 11.078125 34.421875 11.078125 
Q 40.140625 11.078125 43.15625 15.25 
Q 46.1875 19.4375 46.1875 27.296875 
Q 46.1875 35.15625 43.15625 39.328125 
Q 40.140625 43.5 34.421875 43.5 
z
M 34.421875 56 
Q 48.53125 56 56.46875 48.375 
Q 64.40625 40.765625 64.40625 27.296875 
Q 64.40625 13.8125 56.46875 6.1875 
Q 48.53125 -1.421875 34.421875 -1.421875 
Q 20.265625 -1.421875 12.28125 6.1875 
Q 4.296875 13.8125 4.296875 27.296875 
Q 4.296875 40.765625 12.28125 48.375 
Q 20.265625 56 34.421875 56 
z
" id="DejaVuSans-Bold-111"/>
     <path d="M 9.1875 72.90625 
L 27.984375 72.90625 
L 27.984375 14.203125 
L 60.984375 14.203125 
L 60.984375 0 
L 9.1875 0 
z
" id="DejaVuSans-Bold-76"/>
     <path d="M 45.609375 9.28125 
Q 42 4.5 37.640625 2.25 
Q 33.296875 0 27.59375 0 
Q 17.578125 0 11.03125 7.875 
Q 4.5 15.765625 4.5 27.984375 
Q 4.5 40.234375 11.03125 48.0625 
Q 17.578125 55.90625 27.59375 55.90625 
Q 33.296875 55.90625 37.640625 53.65625 
Q 42 51.421875 45.609375 46.578125 
L 45.609375 54.6875 
L 63.1875 54.6875 
L 63.1875 5.515625 
Q 63.1875 -7.671875 54.859375 -14.625 
Q 46.53125 -21.578125 30.71875 -21.578125 
Q 25.59375 -21.578125 20.796875 -20.796875 
Q 16.015625 -20.015625 11.1875 -18.40625 
L 11.1875 -4.78125 
Q 15.765625 -7.421875 20.15625 -8.71875 
Q 24.5625 -10.015625 29 -10.015625 
Q 37.59375 -10.015625 41.59375 -6.25 
Q 45.609375 -2.484375 45.609375 5.515625 
z
M 34.078125 43.3125 
Q 28.65625 43.3125 25.625 39.296875 
Q 22.609375 35.296875 22.609375 27.984375 
Q 22.609375 20.453125 25.53125 16.578125 
Q 28.46875 12.703125 34.078125 12.703125 
Q 39.546875 12.703125 42.578125 16.703125 
Q 45.609375 20.703125 45.609375 27.984375 
Q 45.609375 35.296875 42.578125 39.296875 
Q 39.546875 43.3125 34.078125 43.3125 
z
" id="DejaVuSans-Bold-103"/>
     <path d="M 27.484375 70.21875 
L 27.484375 54.6875 
L 45.515625 54.6875 
L 45.515625 42.1875 
L 27.484375 42.1875 
L 27.484375 19 
Q 27.484375 15.1875 29 13.84375 
Q 30.515625 12.5 35.015625 12.5 
L 44 12.5 
L 44 0 
L 29 0 
Q 18.65625 0 14.328125 4.3125 
Q 10.015625 8.640625 10.015625 19 
L 10.015625 42.1875 
L 1.3125 42.1875 
L 1.3125 54.6875 
L 10.015625 54.6875 
L 10.015625 70.21875 
z
" id="DejaVuSans-Bold-116"/>
     <path d="M 63.375 33.296875 
L 63.375 0 
L 45.796875 0 
L 45.796875 5.421875 
L 45.796875 25.390625 
Q 45.796875 32.5625 45.484375 35.25 
Q 45.171875 37.9375 44.390625 39.203125 
Q 43.359375 40.921875 41.59375 41.875 
Q 39.84375 42.828125 37.59375 42.828125 
Q 32.125 42.828125 29 38.59375 
Q 25.875 34.375 25.875 26.90625 
L 25.875 0 
L 8.40625 0 
L 8.40625 75.984375 
L 25.875 75.984375 
L 25.875 46.6875 
Q 29.828125 51.46875 34.265625 53.734375 
Q 38.71875 56 44.09375 56 
Q 53.5625 56 58.46875 50.1875 
Q 63.375 44.390625 63.375 33.296875 
z
" id="DejaVuSans-Bold-104"/>
     <path d="M 10.203125 18.890625 
L 27.78125 18.890625 
L 27.78125 0 
L 10.203125 0 
z
" id="DejaVuSans-Bold-46"/>
    </defs>
    <g transform="translate(101.1325 16.318125)scale(0.12 -0.12)">
     <use xlink:href="#DejaVuSans-Bold-77"/>
     <use x="99.511719" xlink:href="#DejaVuSans-Bold-101"/>
     <use x="167.333984" xlink:href="#DejaVuSans-Bold-97"/>
     <use x="234.814453" xlink:href="#DejaVuSans-Bold-110"/>
     <use x="306.005859" xlink:href="#DejaVuSans-Bold-32"/>
     <use x="340.820312" xlink:href="#DejaVuSans-Bold-82"/>
     <use x="417.822266" xlink:href="#DejaVuSans-Bold-101"/>
     <use x="485.644531" xlink:href="#DejaVuSans-Bold-119"/>
     <use x="578.027344" xlink:href="#DejaVuSans-Bold-97"/>
     <use x="645.507812" xlink:href="#DejaVuSans-Bold-114"/>
     <use x="694.824219" xlink:href="#DejaVuSans-Bold-100"/>
     <use x="766.40625" xlink:href="#DejaVuSans-Bold-115"/>
     <use x="825.927734" xlink:href="#DejaVuSans-Bold-32"/>
     <use x="860.742188" xlink:href="#DejaVuSans-Bold-97"/>
     <use x="928.222656" xlink:href="#DejaVuSans-Bold-110"/>
     <use x="999.414062" xlink:href="#DejaVuSans-Bold-100"/>
     <use x="1070.996094" xlink:href="#DejaVuSans-Bold-32"/>
     <use x="1105.810547" xlink:href="#DejaVuSans-Bold-69"/>
     <use x="1174.121094" xlink:href="#DejaVuSans-Bold-112"/>
     <use x="1245.703125" xlink:href="#DejaVuSans-Bold-105"/>
     <use x="1279.980469" xlink:href="#DejaVuSans-Bold-115"/>
     <use x="1339.501953" xlink:href="#DejaVuSans-Bold-111"/>
     <use x="1408.203125" xlink:href="#DejaVuSans-Bold-100"/>
     <use x="1479.785156" xlink:href="#DejaVuSans-Bold-101"/>
     <use x="1547.607422" xlink:href="#DejaVuSans-Bold-32"/>
     <use x="1582.421875" xlink:href="#DejaVuSans-Bold-76"/>
     <use x="1646.142578" xlink:href="#DejaVuSans-Bold-101"/>
     <use x="1713.964844" xlink:href="#DejaVuSans-Bold-110"/>
     <use x="1785.15625" xlink:href="#DejaVuSans-Bold-103"/>
     <use x="1856.738281" xlink:href="#DejaVuSans-Bold-116"/>
     <use x="1904.541016" xlink:href="#DejaVuSans-Bold-104"/>
     <use x="1975.732422" xlink:href="#DejaVuSans-Bold-115"/>
     <use x="2035.253906" xlink:href="#DejaVuSans-Bold-46"/>
    </g>
   </g>
   <g id="legend_1">
    <g id="patch_7">
     <path d="M 107.624063 353.02505 
L 347.427188 353.02505 
Q 349.427188 353.02505 349.427188 351.02505 
L 349.427188 337.346925 
Q 349.427188 335.346925 347.427188 335.346925 
L 107.624063 335.346925 
Q 105.624063 335.346925 105.624063 337.346925 
L 105.624063 351.02505 
Q 105.624063 353.02505 107.624063 353.02505 
z
" style="fill:#4c4c4c;opacity:0.5;stroke:#4c4c4c;stroke-linejoin:miter;"/>
    </g>
    <g id="patch_8">
     <path d="M 105.624063 351.02505 
L 345.427188 351.02505 
Q 347.427188 351.02505 347.427188 349.02505 
L 347.427188 335.346925 
Q 347.427188 333.346925 345.427188 333.346925 
L 105.624063 333.346925 
Q 103.624063 333.346925 103.624063 335.346925 
L 103.624063 349.02505 
Q 103.624063 351.02505 105.624063 351.02505 
z
" style="fill:#ffffff;stroke:#cccccc;stroke-linejoin:miter;"/>
    </g>
    <g id="line2d_14">
     <path d="M 107.624063 341.445362 
L 127.624063 341.445362 
" style="fill:none;stroke:#ffa500;stroke-linecap:square;stroke-width:1.5;"/>
    </g>
    <g id="line2d_15"/>
    <g id="text_15">
     <!-- Episode Length -->
     <defs>
      <path d="M 9.8125 72.90625 
L 19.671875 72.90625 
L 19.671875 8.296875 
L 55.171875 8.296875 
L 55.171875 0 
L 9.8125 0 
z
" id="DejaVuSans-76"/>
      <path d="M 45.40625 27.984375 
Q 45.40625 37.75 41.375 43.109375 
Q 37.359375 48.484375 30.078125 48.484375 
Q 22.859375 48.484375 18.828125 43.109375 
Q 14.796875 37.75 14.796875 27.984375 
Q 14.796875 18.265625 18.828125 12.890625 
Q 22.859375 7.515625 30.078125 7.515625 
Q 37.359375 7.515625 41.375 12.890625 
Q 45.40625 18.265625 45.40625 27.984375 
z
M 54.390625 6.78125 
Q 54.390625 -7.171875 48.1875 -13.984375 
Q 42 -20.796875 29.203125 -20.796875 
Q 24.46875 -20.796875 20.265625 -20.09375 
Q 16.0625 -19.390625 12.109375 -17.921875 
L 12.109375 -9.1875 
Q 16.0625 -11.328125 19.921875 -12.34375 
Q 23.78125 -13.375 27.78125 -13.375 
Q 36.625 -13.375 41.015625 -8.765625 
Q 45.40625 -4.15625 45.40625 5.171875 
L 45.40625 9.625 
Q 42.625 4.78125 38.28125 2.390625 
Q 33.9375 0 27.875 0 
Q 17.828125 0 11.671875 7.65625 
Q 5.515625 15.328125 5.515625 27.984375 
Q 5.515625 40.671875 11.671875 48.328125 
Q 17.828125 56 27.875 56 
Q 33.9375 56 38.28125 53.609375 
Q 42.625 51.21875 45.40625 46.390625 
L 45.40625 54.6875 
L 54.390625 54.6875 
z
" id="DejaVuSans-103"/>
      <path d="M 54.890625 33.015625 
L 54.890625 0 
L 45.90625 0 
L 45.90625 32.71875 
Q 45.90625 40.484375 42.875 44.328125 
Q 39.84375 48.1875 33.796875 48.1875 
Q 26.515625 48.1875 22.3125 43.546875 
Q 18.109375 38.921875 18.109375 30.90625 
L 18.109375 0 
L 9.078125 0 
L 9.078125 75.984375 
L 18.109375 75.984375 
L 18.109375 46.1875 
Q 21.34375 51.125 25.703125 53.5625 
Q 30.078125 56 35.796875 56 
Q 45.21875 56 50.046875 50.171875 
Q 54.890625 44.34375 54.890625 33.015625 
z
" id="DejaVuSans-104"/>
     </defs>
     <g transform="translate(135.624063 344.945362)scale(0.1 -0.1)">
      <use xlink:href="#DejaVuSans-69"/>
      <use x="63.183594" xlink:href="#DejaVuSans-112"/>
      <use x="126.660156" xlink:href="#DejaVuSans-105"/>
      <use x="154.443359" xlink:href="#DejaVuSans-115"/>
      <use x="206.542969" xlink:href="#DejaVuSans-111"/>
      <use x="267.724609" xlink:href="#DejaVuSans-100"/>
      <use x="331.201172" xlink:href="#DejaVuSans-101"/>
      <use x="392.724609" xlink:href="#DejaVuSans-32"/>
      <use x="424.511719" xlink:href="#DejaVuSans-76"/>
      <use x="480.208984" xlink:href="#DejaVuSans-101"/>
      <use x="541.732422" xlink:href="#DejaVuSans-110"/>
      <use x="605.111328" xlink:href="#DejaVuSans-103"/>
      <use x="668.587891" xlink:href="#DejaVuSans-116"/>
      <use x="707.796875" xlink:href="#DejaVuSans-104"/>
     </g>
    </g>
    <g id="line2d_16">
     <path d="M 232.744375 341.445362 
L 252.744375 341.445362 
" style="fill:none;stroke:#ff0000;stroke-linecap:square;stroke-width:1.5;"/>
    </g>
    <g id="line2d_17"/>
    <g id="text_16">
     <!-- Average Reward -->
     <defs>
      <path d="M 34.1875 63.1875 
L 20.796875 26.90625 
L 47.609375 26.90625 
z
M 28.609375 72.90625 
L 39.796875 72.90625 
L 67.578125 0 
L 57.328125 0 
L 50.6875 18.703125 
L 17.828125 18.703125 
L 11.1875 0 
L 0.78125 0 
z
" id="DejaVuSans-65"/>
      <path d="M 2.984375 54.6875 
L 12.5 54.6875 
L 29.59375 8.796875 
L 46.6875 54.6875 
L 56.203125 54.6875 
L 35.6875 0 
L 23.484375 0 
z
" id="DejaVuSans-118"/>
     </defs>
     <g transform="translate(260.744375 344.945362)scale(0.1 -0.1)">
      <use xlink:href="#DejaVuSans-65"/>
      <use x="68.330078" xlink:href="#DejaVuSans-118"/>
      <use x="127.509766" xlink:href="#DejaVuSans-101"/>
      <use x="189.033203" xlink:href="#DejaVuSans-114"/>
      <use x="230.146484" xlink:href="#DejaVuSans-97"/>
      <use x="291.425781" xlink:href="#DejaVuSans-103"/>
      <use x="354.902344" xlink:href="#DejaVuSans-101"/>
      <use x="416.425781" xlink:href="#DejaVuSans-32"/>
      <use x="448.212891" xlink:href="#DejaVuSans-82"/>
      <use x="517.632812" xlink:href="#DejaVuSans-101"/>
      <use x="579.15625" xlink:href="#DejaVuSans-119"/>
      <use x="660.943359" xlink:href="#DejaVuSans-97"/>
      <use x="722.222656" xlink:href="#DejaVuSans-114"/>
      <use x="763.320312" xlink:href="#DejaVuSans-100"/>
     </g>
    </g>
   </g>
   <g id="line2d_18">
    <path clip-path="url(#paa6fcf5455)" d="M 63.198352 276.334125 
L 63.941269 274.740734 
L 64.684185 274.747796 
L 65.427102 274.62507 
L 66.170019 274.090319 
L 66.912935 271.350398 
L 67.655852 269.461495 
L 68.398768 268.161241 
L 69.141685 260.3548 
L 69.884601 256.811388 
L 70.627518 255.519425 
L 71.370435 253.813954 
L 72.856268 267.224261 
L 73.599184 259.350532 
L 74.342101 249.080524 
L 75.085018 241.471347 
L 75.827934 229.243474 
L 76.570851 210.987704 
L 77.313767 227.912875 
L 78.7996 253.595794 
L 79.542517 244.017468 
L 80.285434 243.276821 
L 81.02835 246.509451 
L 81.771267 233.978356 
L 82.514183 224.667742 
L 83.2571 223.472168 
L 84.000017 227.246599 
L 84.742933 242.970546 
L 85.48585 241.898779 
L 86.228766 232.662027 
L 86.971683 239.981219 
L 87.714599 251.598184 
L 88.457516 258.688142 
L 89.200433 247.544404 
L 89.943349 243.780919 
L 90.686266 225.481681 
L 91.429182 228.788072 
L 92.172099 212.550231 
L 92.915015 208.555118 
L 93.657932 206.794017 
L 94.400849 198.132848 
L 95.143765 199.09266 
L 95.886682 213.745568 
L 96.629598 215.25203 
L 97.372515 217.716109 
L 98.115432 222.889135 
L 98.858348 231.526563 
L 99.601265 223.713824 
L 101.087098 249.698698 
L 101.830014 248.213197 
L 102.572931 229.805213 
L 103.315848 231.940327 
L 104.058764 232.20792 
L 104.801681 252.460701 
L 105.544597 244.66243 
L 106.287514 234.613327 
L 107.03043 241.859719 
L 107.773347 231.419224 
L 108.516264 250.740622 
L 109.25918 244.510925 
L 110.002097 200.278653 
L 110.745013 218.131235 
L 111.48793 219.702284 
L 112.230847 201.861033 
L 112.973763 167.741377 
L 113.71668 203.440506 
L 114.459596 217.164718 
L 115.202513 221.97815 
L 115.945429 224.179663 
L 116.688346 231.644566 
L 117.431263 221.024257 
L 118.174179 229.276665 
L 118.917096 232.278339 
L 119.660012 230.008145 
L 120.402929 213.473265 
L 121.145846 230.719457 
L 121.888762 233.432825 
L 122.631679 222.549612 
L 123.374595 215.566577 
L 124.117512 222.313888 
L 124.860428 223.897546 
L 125.603345 230.071867 
L 126.346262 225.030431 
L 127.089178 224.634957 
L 127.832095 218.164672 
L 129.317928 210.196107 
L 130.060844 184.268401 
L 130.803761 190.45829 
L 131.546678 113.935498 
L 132.289594 188.5994 
L 133.032511 51.507095 
L 133.775427 101.216634 
L 134.518344 63.91278 
L 135.261261 34.414125 
L 136.004177 34.414125 
L 136.747094 73.67704 
L 137.49001 97.300146 
L 138.232927 191.943525 
L 138.975843 185.268355 
L 139.71876 186.486136 
L 140.461677 185.880189 
L 141.204593 174.43715 
L 141.94751 169.278941 
L 142.690426 90.911548 
L 143.433343 85.099313 
L 144.176259 75.912232 
L 144.919176 136.386747 
L 145.662093 134.992871 
L 146.405009 143.083081 
L 147.147926 99.46379 
L 147.890842 73.412346 
L 148.633759 151.088803 
L 149.376676 177.937882 
L 150.119592 187.843024 
L 150.862509 182.39175 
L 151.605425 199.243816 
L 152.348342 193.714551 
L 153.091258 203.199905 
L 153.834175 218.063643 
L 154.577092 211.955047 
L 155.320008 214.12815 
L 156.062925 210.736083 
L 156.805841 215.229952 
L 157.548758 211.936028 
L 158.291675 213.213662 
L 159.034591 227.132607 
L 159.777508 234.39167 
L 160.520424 243.600236 
L 161.263341 245.523053 
L 162.006257 241.848484 
L 162.749174 238.982175 
L 164.235007 243.100259 
L 164.977924 237.246646 
L 165.72084 230.339012 
L 166.463757 229.294942 
L 167.206673 225.006994 
L 167.94959 219.274114 
L 168.692507 217.673623 
L 169.435423 222.744518 
L 170.17834 217.887575 
L 170.921256 221.405596 
L 171.664173 218.396805 
L 172.40709 210.35508 
L 173.150006 211.018315 
L 173.892923 208.45827 
L 174.635839 199.963392 
L 175.378756 194.394633 
L 176.121672 180.879667 
L 176.864589 176.235781 
L 177.607506 180.33394 
L 178.350422 191.432604 
L 179.093339 199.758856 
L 179.836255 200.838352 
L 180.579172 192.544412 
L 181.322088 175.741012 
L 182.065005 142.909176 
L 182.807922 162.015448 
L 183.550838 147.548965 
L 184.293755 139.346839 
L 185.036671 147.368973 
L 185.779588 167.041409 
L 186.522505 162.791603 
L 187.265421 196.272596 
L 188.008338 198.870909 
L 189.494171 206.99809 
L 190.237087 214.002087 
L 190.980004 213.492495 
L 191.722921 214.969526 
L 192.465837 218.757569 
L 193.208754 219.048561 
L 193.95167 218.756594 
L 194.694587 220.630631 
L 195.437504 221.422544 
L 196.18042 221.22457 
L 196.923337 214.724082 
L 197.666253 218.333009 
L 198.40917 207.130737 
L 199.152086 204.995233 
L 199.895003 197.89504 
L 200.63792 197.615983 
L 201.380836 204.949825 
L 202.123753 210.436096 
L 202.866669 212.367547 
L 203.609586 211.656041 
L 204.352502 217.521844 
L 205.095419 213.066354 
L 205.838336 206.506276 
L 206.581252 210.78608 
L 207.324169 206.810517 
L 208.067085 211.466049 
L 209.552919 204.091168 
L 210.295835 208.773519 
L 211.038752 198.557801 
L 211.781668 199.882187 
L 212.524585 205.538973 
L 213.267501 207.836215 
L 214.010418 207.140289 
L 214.753335 198.650536 
L 215.496251 200.31132 
L 216.239168 209.479057 
L 216.982084 201.195407 
L 217.725001 209.91612 
L 218.467917 212.32601 
L 219.210834 197.793037 
L 219.953751 204.373039 
L 220.696667 194.870221 
L 221.439584 198.406645 
L 222.1825 204.10406 
L 222.925417 202.095366 
L 223.668334 193.137655 
L 224.41125 189.183381 
L 225.154167 178.466378 
L 225.897083 183.66446 
L 226.64 191.420122 
L 227.382916 181.236 
L 228.125833 195.806764 
L 228.86875 198.943206 
L 229.611666 186.999271 
L 230.354583 187.130843 
L 231.097499 195.333614 
L 231.840416 195.199474 
L 232.583333 191.275391 
L 233.326249 194.432467 
L 234.069166 200.838352 
L 234.812082 188.690872 
L 236.297915 185.350098 
L 237.040832 193.611992 
L 238.526665 205.520904 
L 239.269582 198.311411 
L 240.012498 182.351822 
L 240.755415 187.163915 
L 241.498331 178.08939 
L 242.241248 181.672114 
L 242.984165 186.629404 
L 243.727081 184.758619 
L 244.469998 165.295252 
L 245.212914 176.18707 
L 245.955831 179.493222 
L 246.698748 174.501485 
L 247.441664 172.544188 
L 248.184581 158.684319 
L 248.927497 167.58547 
L 249.670414 158.37001 
L 250.41333 169.321765 
L 251.156247 165.308155 
L 251.899164 167.44254 
L 252.64208 156.908538 
L 253.384997 164.080624 
L 254.87083 158.389952 
L 255.613746 166.701195 
L 256.356663 154.230089 
L 257.09958 155.247899 
L 257.842496 143.256987 
L 258.585413 147.688958 
L 259.328329 164.818891 
L 260.071246 171.814108 
L 260.814163 131.583606 
L 261.557079 113.910499 
L 262.299996 130.561913 
L 263.042912 128.822862 
L 263.785829 123.433874 
L 264.528745 140.909268 
L 265.271662 143.669142 
L 266.014579 139.954766 
L 266.757495 177.188863 
L 267.500412 183.907306 
L 268.243328 175.532688 
L 268.986245 193.3459 
L 269.729162 192.253079 
L 270.472078 178.686956 
L 271.214995 187.70443 
L 272.700828 172.939057 
L 273.443744 147.117318 
L 274.186661 133.909587 
L 274.929578 153.889445 
L 276.415411 140.344076 
L 277.158327 156.612255 
L 277.901244 131.909678 
L 278.64416 117.460337 
L 279.387077 117.460337 
L 280.129994 125.234982 
L 280.87291 145.509058 
L 281.615827 151.742107 
L 282.358743 145.485982 
L 283.10166 186.366654 
L 283.844577 189.670201 
L 284.587493 203.406417 
L 285.33041 201.873878 
L 286.073326 204.281377 
L 286.816243 197.784722 
L 287.559159 183.685094 
L 288.302076 189.95703 
L 289.044993 181.819166 
L 289.787909 175.126457 
L 290.530826 173.001554 
L 291.273742 144.304946 
L 292.016659 99.473657 
L 292.759575 116.910362 
L 293.502492 139.284342 
L 294.245409 143.304992 
L 295.731242 84.661833 
L 296.474158 98.629946 
L 297.217075 92.734994 
L 297.959992 85.693036 
L 298.702908 132.763806 
L 299.445825 150.128847 
L 300.188741 148.848905 
L 300.931658 148.128938 
L 301.674574 162.424415 
L 302.417491 179.470009 
L 303.160408 188.341315 
L 303.903324 195.0068 
L 304.646241 185.650817 
L 306.132074 180.525108 
L 307.617907 163.779192 
L 308.360824 189.219564 
L 309.10374 201.792854 
L 309.846657 187.357149 
L 310.589573 195.23179 
L 311.33249 192.794401 
L 312.075407 196.019254 
L 312.818323 205.958384 
L 313.56124 203.491519 
L 314.304156 209.069424 
L 315.047073 206.072962 
L 315.789989 208.541599 
L 316.532906 211.6945 
L 317.275823 212.176017 
L 318.018739 213.6984 
L 318.761656 214.748492 
L 319.504572 215.587679 
L 320.247489 215.218378 
L 320.990406 217.111149 
L 321.733322 216.051295 
L 322.476239 218.432517 
L 323.219155 216.005842 
L 323.962072 214.995174 
L 324.704988 217.351235 
L 325.447905 215.933118 
L 326.190822 212.184863 
L 326.933738 214.733173 
L 327.676655 216.748401 
L 328.419571 214.68368 
L 329.905404 221.261535 
L 330.648321 217.378507 
L 331.391238 218.309246 
L 332.134154 216.789735 
L 332.877071 217.798618 
L 333.619987 217.655767 
L 334.362904 221.31238 
L 335.105821 218.851167 
L 335.848737 219.089912 
L 336.591654 220.002151 
L 337.33457 225.945071 
L 338.077487 225.175265 
L 338.820403 226.605359 
L 339.56332 228.765554 
L 340.306237 226.444429 
L 341.049153 227.105336 
L 341.79207 227.140183 
L 342.534986 228.030294 
L 343.277903 229.133185 
L 344.02082 228.875404 
L 345.506653 231.313595 
L 346.249569 230.948018 
L 346.992486 231.794011 
L 347.735402 230.96854 
L 348.478319 231.58823 
L 349.221236 230.005204 
L 349.964152 227.82197 
L 350.707069 234.225011 
L 352.192902 230.941926 
L 352.935818 229.456699 
L 353.678735 231.496685 
L 354.421652 228.643727 
L 355.164568 232.626513 
L 355.907485 233.845029 
L 356.650401 232.144543 
L 357.393318 234.398337 
L 358.136235 231.039485 
L 358.879151 223.722951 
L 359.622068 233.911692 
L 360.364984 228.772447 
L 361.850817 235.878962 
L 362.593734 224.082893 
L 363.336651 228.124986 
L 364.079567 228.327155 
L 364.822484 222.207283 
L 365.5654 227.132607 
L 366.308317 229.089069 
L 367.051233 234.778319 
L 367.79415 234.2969 
L 368.537067 238.061086 
L 369.279983 235.719046 
L 370.0229 230.943622 
L 370.765816 236.554256 
L 371.508733 232.187713 
L 372.25165 228.724103 
L 372.994566 241.72784 
L 373.737483 237.621962 
L 374.480399 237.904843 
L 375.223316 232.766189 
L 375.966232 236.044928 
L 376.709149 233.293943 
L 377.452066 232.183676 
L 378.194982 237.475376 
L 378.937899 231.77132 
L 379.680815 233.830705 
L 380.423732 234.648047 
L 381.166649 231.173266 
L 381.909565 234.42555 
L 382.652482 231.489643 
L 383.395398 235.946029 
L 384.138315 235.545977 
L 384.881231 235.872041 
L 385.624148 230.936907 
L 386.367065 229.554478 
L 387.109981 233.794641 
L 387.852898 233.236137 
L 387.852898 233.236137 
" style="fill:none;stroke:#ff0000;stroke-linecap:square;stroke-opacity:0.3;stroke-width:1.5;"/>
   </g>
  </g>
  <g id="axes_2">
   <g id="matplotlib.axis_3">
    <g id="ytick_7">
     <g id="line2d_19">
      <defs>
       <path d="M 0 0 
L 3.5 0 
" id="mc72474ef6c" style="stroke:#000000;stroke-width:0.8;"/>
      </defs>
      <g>
       <use style="stroke:#000000;stroke-width:0.8;" x="404.085625" xlink:href="#mc72474ef6c" y="284.402722"/>
      </g>
     </g>
     <g id="text_17">
      <!-- 0 -->
      <g transform="translate(411.085625 288.201941)scale(0.1 -0.1)">
       <use xlink:href="#DejaVuSans-48"/>
      </g>
     </g>
    </g>
    <g id="ytick_8">
     <g id="line2d_20">
      <g>
       <use style="stroke:#000000;stroke-width:0.8;" x="404.085625" xlink:href="#mc72474ef6c" y="234.405003"/>
      </g>
     </g>
     <g id="text_18">
      <!-- 100 -->
      <g transform="translate(411.085625 238.204222)scale(0.1 -0.1)">
       <use xlink:href="#DejaVuSans-49"/>
       <use x="63.623047" xlink:href="#DejaVuSans-48"/>
       <use x="127.246094" xlink:href="#DejaVuSans-48"/>
      </g>
     </g>
    </g>
    <g id="ytick_9">
     <g id="line2d_21">
      <g>
       <use style="stroke:#000000;stroke-width:0.8;" x="404.085625" xlink:href="#mc72474ef6c" y="184.407283"/>
      </g>
     </g>
     <g id="text_19">
      <!-- 200 -->
      <g transform="translate(411.085625 188.206502)scale(0.1 -0.1)">
       <use xlink:href="#DejaVuSans-50"/>
       <use x="63.623047" xlink:href="#DejaVuSans-48"/>
       <use x="127.246094" xlink:href="#DejaVuSans-48"/>
      </g>
     </g>
    </g>
    <g id="ytick_10">
     <g id="line2d_22">
      <g>
       <use style="stroke:#000000;stroke-width:0.8;" x="404.085625" xlink:href="#mc72474ef6c" y="134.409564"/>
      </g>
     </g>
     <g id="text_20">
      <!-- 300 -->
      <g transform="translate(411.085625 138.208783)scale(0.1 -0.1)">
       <use xlink:href="#DejaVuSans-51"/>
       <use x="63.623047" xlink:href="#DejaVuSans-48"/>
       <use x="127.246094" xlink:href="#DejaVuSans-48"/>
      </g>
     </g>
    </g>
    <g id="ytick_11">
     <g id="line2d_23">
      <g>
       <use style="stroke:#000000;stroke-width:0.8;" x="404.085625" xlink:href="#mc72474ef6c" y="84.411844"/>
      </g>
     </g>
     <g id="text_21">
      <!-- 400 -->
      <g transform="translate(411.085625 88.211063)scale(0.1 -0.1)">
       <use xlink:href="#DejaVuSans-52"/>
       <use x="63.623047" xlink:href="#DejaVuSans-48"/>
       <use x="127.246094" xlink:href="#DejaVuSans-48"/>
      </g>
     </g>
    </g>
    <g id="ytick_12">
     <g id="line2d_24">
      <g>
       <use style="stroke:#000000;stroke-width:0.8;" x="404.085625" xlink:href="#mc72474ef6c" y="34.414125"/>
      </g>
     </g>
     <g id="text_22">
      <!-- 500 -->
      <g transform="translate(411.085625 38.213344)scale(0.1 -0.1)">
       <use xlink:href="#DejaVuSans-53"/>
       <use x="63.623047" xlink:href="#DejaVuSans-48"/>
       <use x="127.246094" xlink:href="#DejaVuSans-48"/>
      </g>
     </g>
    </g>
    <g id="text_23">
     <!-- Episode Steps -->
     <defs>
      <path d="M 53.515625 70.515625 
L 53.515625 60.890625 
Q 47.90625 63.578125 42.921875 64.890625 
Q 37.9375 66.21875 33.296875 66.21875 
Q 25.25 66.21875 20.875 63.09375 
Q 16.5 59.96875 16.5 54.203125 
Q 16.5 49.359375 19.40625 46.890625 
Q 22.3125 44.4375 30.421875 42.921875 
L 36.375 41.703125 
Q 47.40625 39.59375 52.65625 34.296875 
Q 57.90625 29 57.90625 20.125 
Q 57.90625 9.515625 50.796875 4.046875 
Q 43.703125 -1.421875 29.984375 -1.421875 
Q 24.8125 -1.421875 18.96875 -0.25 
Q 13.140625 0.921875 6.890625 3.21875 
L 6.890625 13.375 
Q 12.890625 10.015625 18.65625 8.296875 
Q 24.421875 6.59375 29.984375 6.59375 
Q 38.421875 6.59375 43.015625 9.90625 
Q 47.609375 13.234375 47.609375 19.390625 
Q 47.609375 24.75 44.3125 27.78125 
Q 41.015625 30.8125 33.5 32.328125 
L 27.484375 33.5 
Q 16.453125 35.6875 11.515625 40.375 
Q 6.59375 45.0625 6.59375 53.421875 
Q 6.59375 63.09375 13.40625 68.65625 
Q 20.21875 74.21875 32.171875 74.21875 
Q 37.3125 74.21875 42.625 73.28125 
Q 47.953125 72.359375 53.515625 70.515625 
z
" id="DejaVuSans-83"/>
     </defs>
     <g transform="translate(441.771563 190.590531)rotate(-90)scale(0.1 -0.1)">
      <use xlink:href="#DejaVuSans-69"/>
      <use x="63.183594" xlink:href="#DejaVuSans-112"/>
      <use x="126.660156" xlink:href="#DejaVuSans-105"/>
      <use x="154.443359" xlink:href="#DejaVuSans-115"/>
      <use x="206.542969" xlink:href="#DejaVuSans-111"/>
      <use x="267.724609" xlink:href="#DejaVuSans-100"/>
      <use x="331.201172" xlink:href="#DejaVuSans-101"/>
      <use x="392.724609" xlink:href="#DejaVuSans-32"/>
      <use x="424.511719" xlink:href="#DejaVuSans-83"/>
      <use x="487.988281" xlink:href="#DejaVuSans-116"/>
      <use x="527.197266" xlink:href="#DejaVuSans-101"/>
      <use x="588.720703" xlink:href="#DejaVuSans-112"/>
      <use x="652.197266" xlink:href="#DejaVuSans-115"/>
     </g>
    </g>
   </g>
   <g id="line2d_25">
    <path clip-path="url(#paa6fcf5455)" d="M 63.198352 276.334125 
L 63.941269 274.740734 
L 64.684185 274.747796 
L 65.427102 274.62507 
L 66.170019 274.090319 
L 66.912935 271.350398 
L 67.655852 269.461495 
L 68.398768 268.161241 
L 69.141685 260.3548 
L 69.884601 256.811388 
L 70.627518 255.519425 
L 71.370435 253.813954 
L 72.856268 267.224261 
L 73.599184 259.350532 
L 74.342101 249.080524 
L 75.085018 241.471347 
L 75.827934 229.243474 
L 76.570851 210.987704 
L 77.313767 227.912875 
L 78.7996 253.595794 
L 79.542517 244.017468 
L 80.285434 243.276821 
L 81.02835 246.509451 
L 81.771267 233.978356 
L 82.514183 224.667742 
L 83.2571 223.472168 
L 84.000017 227.246599 
L 84.742933 242.970546 
L 85.48585 241.898779 
L 86.228766 232.662027 
L 86.971683 239.981219 
L 87.714599 251.598184 
L 88.457516 258.688142 
L 89.200433 247.544404 
L 89.943349 243.780919 
L 90.686266 225.481681 
L 91.429182 228.788072 
L 92.172099 212.550231 
L 92.915015 208.555118 
L 93.657932 206.794017 
L 94.400849 198.132848 
L 95.143765 199.09266 
L 95.886682 213.745568 
L 96.629598 215.25203 
L 97.372515 217.716109 
L 98.115432 222.889135 
L 98.858348 231.526563 
L 99.601265 223.713824 
L 101.087098 249.698698 
L 101.830014 248.213197 
L 102.572931 229.805213 
L 103.315848 231.940327 
L 104.058764 232.20792 
L 104.801681 252.460701 
L 105.544597 244.66243 
L 106.287514 234.613327 
L 107.03043 241.859719 
L 107.773347 231.419224 
L 108.516264 250.740622 
L 109.25918 244.510925 
L 110.002097 200.278653 
L 110.745013 218.131235 
L 111.48793 219.702284 
L 112.230847 201.861033 
L 112.973763 167.741377 
L 113.71668 203.440506 
L 114.459596 217.164718 
L 115.202513 221.97815 
L 115.945429 224.179663 
L 116.688346 231.644566 
L 117.431263 221.024257 
L 118.174179 229.276665 
L 118.917096 232.278339 
L 119.660012 230.008145 
L 120.402929 213.473265 
L 121.145846 230.719457 
L 121.888762 233.432825 
L 122.631679 222.549612 
L 123.374595 215.566577 
L 124.117512 222.313888 
L 124.860428 223.897546 
L 125.603345 230.071867 
L 126.346262 225.030431 
L 127.089178 224.634957 
L 127.832095 218.164672 
L 129.317928 210.196107 
L 130.060844 184.268401 
L 130.803761 190.45829 
L 131.546678 113.935498 
L 132.289594 188.5994 
L 133.032511 51.507095 
L 133.775427 101.216634 
L 134.518344 63.91278 
L 135.261261 34.414125 
L 136.004177 34.414125 
L 136.747094 73.67704 
L 137.49001 97.300146 
L 138.232927 191.943525 
L 138.975843 185.268355 
L 139.71876 186.486136 
L 140.461677 185.880189 
L 141.204593 174.43715 
L 141.94751 169.278941 
L 142.690426 90.911548 
L 143.433343 85.099313 
L 144.176259 75.912232 
L 144.919176 136.386747 
L 145.662093 134.992871 
L 146.405009 143.083081 
L 147.147926 99.46379 
L 147.890842 73.412346 
L 148.633759 151.088803 
L 149.376676 177.937882 
L 150.119592 187.843024 
L 150.862509 182.39175 
L 151.605425 199.243816 
L 152.348342 193.714551 
L 153.091258 203.199905 
L 153.834175 218.063643 
L 154.577092 211.955047 
L 155.320008 214.12815 
L 156.062925 210.736083 
L 156.805841 215.229952 
L 157.548758 211.936028 
L 158.291675 213.213662 
L 159.034591 227.132607 
L 159.777508 234.39167 
L 160.520424 243.600236 
L 161.263341 245.523053 
L 162.006257 241.848484 
L 162.749174 238.982175 
L 164.235007 243.100259 
L 164.977924 237.246646 
L 165.72084 230.339012 
L 166.463757 229.294942 
L 167.206673 225.006994 
L 167.94959 219.274114 
L 168.692507 217.673623 
L 169.435423 222.744518 
L 170.17834 217.887575 
L 170.921256 221.405596 
L 171.664173 218.396805 
L 172.40709 210.35508 
L 173.150006 211.018315 
L 173.892923 208.45827 
L 174.635839 199.963392 
L 175.378756 194.394633 
L 176.121672 180.879667 
L 176.864589 176.235781 
L 177.607506 180.33394 
L 178.350422 191.432604 
L 179.093339 199.758856 
L 179.836255 200.838352 
L 180.579172 192.544412 
L 181.322088 175.741012 
L 182.065005 142.909176 
L 182.807922 162.015448 
L 183.550838 147.548965 
L 184.293755 139.346839 
L 185.036671 147.368973 
L 185.779588 167.041409 
L 186.522505 162.791603 
L 187.265421 196.272596 
L 188.008338 198.870909 
L 189.494171 206.99809 
L 190.237087 214.002087 
L 190.980004 213.492495 
L 191.722921 214.969526 
L 192.465837 218.757569 
L 193.208754 219.048561 
L 193.95167 218.756594 
L 194.694587 220.630631 
L 195.437504 221.422544 
L 196.18042 221.22457 
L 196.923337 214.724082 
L 197.666253 218.333009 
L 198.40917 207.130737 
L 199.152086 204.995233 
L 199.895003 197.89504 
L 200.63792 197.615983 
L 201.380836 204.949825 
L 202.123753 210.436096 
L 202.866669 212.367547 
L 203.609586 211.656041 
L 204.352502 217.521844 
L 205.095419 213.066354 
L 205.838336 206.506276 
L 206.581252 210.78608 
L 207.324169 206.810517 
L 208.067085 211.466049 
L 209.552919 204.091168 
L 210.295835 208.773519 
L 211.038752 198.557801 
L 211.781668 199.882187 
L 212.524585 205.538973 
L 213.267501 207.836215 
L 214.010418 207.140289 
L 214.753335 198.650536 
L 215.496251 200.31132 
L 216.239168 209.479057 
L 216.982084 201.195407 
L 217.725001 209.91612 
L 218.467917 212.32601 
L 219.210834 197.793037 
L 219.953751 204.373039 
L 220.696667 194.870221 
L 221.439584 198.406645 
L 222.1825 204.10406 
L 222.925417 202.095366 
L 223.668334 193.137655 
L 224.41125 189.183381 
L 225.154167 178.466378 
L 225.897083 183.66446 
L 226.64 191.420122 
L 227.382916 181.236 
L 228.125833 195.806764 
L 228.86875 198.943206 
L 229.611666 186.999271 
L 230.354583 187.130843 
L 231.097499 195.333614 
L 231.840416 195.199474 
L 232.583333 191.275391 
L 233.326249 194.432467 
L 234.069166 200.838352 
L 234.812082 188.690872 
L 236.297915 185.350098 
L 237.040832 193.611992 
L 238.526665 205.520904 
L 239.269582 198.311411 
L 240.012498 182.351822 
L 240.755415 187.163915 
L 241.498331 178.08939 
L 242.241248 181.672114 
L 242.984165 186.629404 
L 243.727081 184.758619 
L 244.469998 165.295252 
L 245.212914 176.18707 
L 245.955831 179.493222 
L 246.698748 174.501485 
L 247.441664 172.544188 
L 248.184581 158.684319 
L 248.927497 167.58547 
L 249.670414 158.37001 
L 250.41333 169.321765 
L 251.156247 165.308155 
L 251.899164 167.44254 
L 252.64208 156.908538 
L 253.384997 164.080624 
L 254.87083 158.389952 
L 255.613746 166.701195 
L 256.356663 154.230089 
L 257.09958 155.247899 
L 257.842496 143.256987 
L 258.585413 147.688958 
L 259.328329 164.818891 
L 260.071246 171.814108 
L 260.814163 131.583606 
L 261.557079 113.910499 
L 262.299996 130.561913 
L 263.042912 128.822862 
L 263.785829 123.433874 
L 264.528745 140.909268 
L 265.271662 143.669142 
L 266.014579 139.954766 
L 266.757495 177.188863 
L 267.500412 183.907306 
L 268.243328 175.532688 
L 268.986245 193.3459 
L 269.729162 192.253079 
L 270.472078 178.686956 
L 271.214995 187.70443 
L 272.700828 172.939057 
L 273.443744 147.117318 
L 274.186661 133.909587 
L 274.929578 153.889445 
L 276.415411 140.344076 
L 277.158327 156.612255 
L 277.901244 131.909678 
L 278.64416 117.460337 
L 279.387077 117.460337 
L 280.129994 125.234982 
L 280.87291 145.509058 
L 281.615827 151.742107 
L 282.358743 145.485982 
L 283.10166 186.366654 
L 283.844577 189.670201 
L 284.587493 203.406417 
L 285.33041 201.873878 
L 286.073326 204.281377 
L 286.816243 197.784722 
L 287.559159 183.685094 
L 288.302076 189.95703 
L 289.044993 181.819166 
L 289.787909 175.126457 
L 290.530826 173.001554 
L 291.273742 144.304946 
L 292.016659 99.473657 
L 292.759575 116.910362 
L 293.502492 139.284342 
L 294.245409 143.304992 
L 295.731242 84.661833 
L 296.474158 98.629946 
L 297.217075 92.734994 
L 297.959992 85.693036 
L 298.702908 132.763806 
L 299.445825 150.128847 
L 300.188741 148.848905 
L 300.931658 148.128938 
L 301.674574 162.424415 
L 302.417491 179.470009 
L 303.160408 188.341315 
L 303.903324 195.0068 
L 304.646241 185.650817 
L 306.132074 180.525108 
L 307.617907 163.779192 
L 308.360824 189.219564 
L 309.10374 201.792854 
L 309.846657 187.357149 
L 310.589573 195.23179 
L 311.33249 192.794401 
L 312.075407 196.019254 
L 312.818323 205.958384 
L 313.56124 203.491519 
L 314.304156 209.069424 
L 315.047073 206.072962 
L 315.789989 208.541599 
L 316.532906 211.6945 
L 317.275823 212.176017 
L 318.018739 213.6984 
L 318.761656 214.748492 
L 319.504572 215.587679 
L 320.247489 215.218378 
L 320.990406 217.111149 
L 321.733322 216.051295 
L 322.476239 218.432517 
L 323.219155 216.005842 
L 323.962072 214.995174 
L 324.704988 217.351235 
L 325.447905 215.933118 
L 326.190822 212.184863 
L 326.933738 214.733173 
L 327.676655 216.748401 
L 328.419571 214.68368 
L 329.905404 221.261535 
L 330.648321 217.378507 
L 331.391238 218.309246 
L 332.134154 216.789735 
L 332.877071 217.798618 
L 333.619987 217.655767 
L 334.362904 221.31238 
L 335.105821 218.851167 
L 335.848737 219.089912 
L 336.591654 220.002151 
L 337.33457 225.945071 
L 338.077487 225.175265 
L 338.820403 226.605359 
L 339.56332 228.765554 
L 340.306237 226.444429 
L 341.049153 227.105336 
L 341.79207 227.140183 
L 342.534986 228.030294 
L 343.277903 229.133185 
L 344.02082 228.875404 
L 345.506653 231.313595 
L 346.249569 230.948018 
L 346.992486 231.794011 
L 347.735402 230.96854 
L 348.478319 231.58823 
L 349.221236 230.005204 
L 349.964152 227.82197 
L 350.707069 234.225011 
L 352.192902 230.941926 
L 352.935818 229.456699 
L 353.678735 231.496685 
L 354.421652 228.643727 
L 355.164568 232.626513 
L 355.907485 233.845029 
L 356.650401 232.144543 
L 357.393318 234.398337 
L 358.136235 231.039485 
L 358.879151 223.722951 
L 359.622068 233.911692 
L 360.364984 228.772447 
L 361.850817 235.878962 
L 362.593734 224.082893 
L 363.336651 228.124986 
L 364.079567 228.327155 
L 364.822484 222.207283 
L 365.5654 227.132607 
L 366.308317 229.089069 
L 367.051233 234.778319 
L 367.79415 234.2969 
L 368.537067 238.061086 
L 369.279983 235.719046 
L 370.0229 230.943622 
L 370.765816 236.554256 
L 371.508733 232.187713 
L 372.25165 228.724103 
L 372.994566 241.72784 
L 373.737483 237.621962 
L 374.480399 237.904843 
L 375.223316 232.766189 
L 375.966232 236.044928 
L 376.709149 233.293943 
L 377.452066 232.183676 
L 378.194982 237.475376 
L 378.937899 231.77132 
L 379.680815 233.830705 
L 380.423732 234.648047 
L 381.166649 231.173266 
L 381.909565 234.42555 
L 382.652482 231.489643 
L 383.395398 235.946029 
L 384.138315 235.545977 
L 384.881231 235.872041 
L 385.624148 230.936907 
L 386.367065 229.554478 
L 387.109981 233.794641 
L 387.852898 233.236137 
L 387.852898 233.236137 
" style="fill:none;stroke:#ffa500;stroke-dasharray:5.55,2.4;stroke-dashoffset:0;stroke-opacity:0.3;stroke-width:1.5;"/>
   </g>
   <g id="line2d_26">
    <path clip-path="url(#paa6fcf5455)" d="M 63.198352 275.37965 
L 63.941269 275.755042 
L 64.684185 275.532112 
L 65.427102 274.726307 
L 66.170019 273.353072 
L 66.912935 271.427853 
L 67.655852 268.777166 
L 69.141685 260.853779 
L 69.884601 259.147089 
L 70.627518 259.123028 
L 71.370435 259.288298 
L 72.856268 259.758506 
L 73.599184 254.314971 
L 75.085018 238.11533 
L 75.827934 232.695827 
L 76.570851 230.052287 
L 77.313767 230.982454 
L 78.056684 235.484508 
L 78.7996 240.755319 
L 79.542517 244.737051 
L 80.285434 245.323663 
L 81.02835 239.196528 
L 81.771267 234.157585 
L 82.514183 231.639369 
L 83.2571 231.022753 
L 84.000017 230.056685 
L 84.742933 231.080372 
L 86.228766 242.578575 
L 86.971683 247.636948 
L 87.714599 248.44624 
L 88.457516 247.847474 
L 89.200433 246.092733 
L 89.943349 241.737742 
L 90.686266 234.084665 
L 92.172099 214.305705 
L 92.915015 208.350125 
L 93.657932 204.648034 
L 94.400849 204.120139 
L 95.143765 204.060076 
L 95.886682 209.051691 
L 97.372515 216.752607 
L 98.858348 229.940938 
L 100.344181 237.260012 
L 101.087098 237.30494 
L 101.830014 238.42511 
L 102.572931 240.072036 
L 103.315848 240.630792 
L 104.058764 239.891685 
L 104.801681 237.231812 
L 105.544597 238.635212 
L 106.287514 245.200325 
L 107.03043 243.383716 
L 108.516264 234.373091 
L 109.25918 233.232012 
L 110.002097 224.074837 
L 110.745013 212.806083 
L 111.48793 204.720143 
L 112.230847 198.294008 
L 112.973763 198.511597 
L 113.71668 205.349892 
L 114.459596 207.551234 
L 115.202513 213.437012 
L 116.688346 231.009052 
L 117.431263 228.479078 
L 118.174179 227.148191 
L 119.660012 228.220482 
L 120.402929 226.809974 
L 121.145846 226.230617 
L 121.888762 223.601579 
L 122.631679 223.086448 
L 123.374595 223.692202 
L 124.117512 225.322638 
L 124.860428 223.918597 
L 125.603345 223.934256 
L 126.346262 226.357004 
L 127.089178 223.777362 
L 127.832095 224.109905 
L 128.575011 209.243283 
L 129.317928 207.075149 
L 131.546678 152.353503 
L 132.289594 128.178674 
L 133.032511 99.867844 
L 134.518344 52.877865 
L 135.261261 52.659783 
L 136.004177 57.792899 
L 136.747094 89.154512 
L 137.49001 112.294041 
L 138.975843 177.28428 
L 139.71876 191.054321 
L 140.461677 186.542333 
L 141.204593 164.085932 
L 141.94751 136.884419 
L 142.690426 121.178119 
L 143.433343 114.124387 
L 144.176259 111.475358 
L 144.919176 103.591693 
L 145.662093 103.131672 
L 146.405009 114.743839 
L 147.890842 132.631075 
L 148.633759 139.463564 
L 150.119592 169.312223 
L 150.862509 189.727476 
L 151.605425 201.975746 
L 152.348342 202.26411 
L 153.091258 204.957872 
L 154.577092 212.545629 
L 155.320008 212.213291 
L 156.062925 213.30407 
L 156.805841 213.178689 
L 157.548758 214.942327 
L 160.520424 237.36121 
L 161.263341 242.040046 
L 162.006257 244.512202 
L 162.749174 243.518488 
L 163.492091 241.667699 
L 164.977924 235.988228 
L 167.206673 224.598567 
L 167.94959 221.74181 
L 168.692507 221.021041 
L 169.435423 220.037427 
L 170.17834 218.783823 
L 170.921256 218.298277 
L 171.664173 217.107924 
L 172.40709 215.022973 
L 173.150006 210.602866 
L 173.892923 204.694504 
L 174.635839 196.768638 
L 175.378756 190.251313 
L 176.121672 186.389255 
L 176.864589 185.063397 
L 177.607506 187.155176 
L 178.350422 192.078974 
L 179.836255 190.225163 
L 180.579172 185.442656 
L 181.322088 175.564611 
L 182.065005 162.573745 
L 182.807922 153.319838 
L 183.550838 145.594263 
L 184.293755 145.892549 
L 185.036671 152.618603 
L 185.779588 163.190009 
L 186.522505 171.592561 
L 188.008338 195.824899 
L 188.751254 203.448723 
L 190.237087 213.478776 
L 190.980004 213.823148 
L 191.722921 216.169586 
L 193.208754 219.52034 
L 193.95167 219.713852 
L 194.694587 221.026804 
L 195.437504 220.726486 
L 196.18042 219.509877 
L 196.923337 216.971878 
L 199.152086 204.432112 
L 199.895003 202.777443 
L 200.63792 202.467425 
L 201.380836 203.844242 
L 202.123753 207.862951 
L 203.609586 213.007115 
L 204.352502 213.172692 
L 205.838336 211.504621 
L 206.581252 209.921395 
L 207.324169 209.489308 
L 208.067085 207.939152 
L 210.295835 204.085534 
L 211.038752 204.457388 
L 212.524585 202.999453 
L 213.267501 203.695657 
L 214.010418 203.078997 
L 214.753335 203.947009 
L 215.496251 205.387729 
L 216.239168 204.922257 
L 216.982084 205.727896 
L 217.725001 205.75342 
L 218.467917 205.150283 
L 219.210834 203.623906 
L 219.953751 202.484314 
L 220.696667 202.135736 
L 221.439584 200.585352 
L 223.668334 193.146486 
L 225.154167 186.243347 
L 225.897083 185.591426 
L 226.64 186.479102 
L 227.382916 187.737394 
L 228.125833 189.543598 
L 228.86875 192.063404 
L 229.611666 192.20926 
L 230.354583 191.743073 
L 231.097499 193.851651 
L 231.840416 193.360463 
L 232.583333 193.834996 
L 233.326249 193.937985 
L 234.069166 192.248567 
L 234.812082 190.271364 
L 235.554999 191.171611 
L 236.297915 193.973078 
L 237.040832 194.364941 
L 237.783749 195.224259 
L 238.526665 195.800338 
L 239.269582 193.769623 
L 240.755415 188.686533 
L 241.498331 184.048164 
L 242.241248 180.126575 
L 242.984165 179.269285 
L 243.727081 179.277014 
L 244.469998 178.717904 
L 245.212914 176.816735 
L 245.955831 174.362619 
L 246.698748 170.462862 
L 247.441664 168.816156 
L 248.184581 168.076188 
L 249.670414 163.925564 
L 250.41333 163.634245 
L 251.156247 163.904919 
L 251.899164 163.782674 
L 252.64208 163.437505 
L 253.384997 163.293632 
L 254.127913 162.159029 
L 254.87083 160.566965 
L 255.613746 156.753941 
L 256.356663 154.567525 
L 257.842496 158.052459 
L 258.585413 154.519837 
L 259.328329 149.739793 
L 260.071246 146.499752 
L 260.814163 139.855858 
L 262.299996 130.039314 
L 263.042912 123.515633 
L 263.785829 125.193728 
L 264.528745 136.802896 
L 266.014579 154.436126 
L 266.757495 166.613533 
L 267.500412 175.874292 
L 268.986245 188.010671 
L 269.729162 191.718338 
L 270.472078 188.073499 
L 271.957911 173.98619 
L 273.443744 156.051459 
L 278.64416 128.995555 
L 279.387077 126.138949 
L 280.129994 128.722649 
L 280.87291 134.409352 
L 283.10166 177.498075 
L 283.844577 189.330934 
L 284.587493 195.789195 
L 285.33041 201.025636 
L 286.073326 202.650121 
L 286.816243 197.026099 
L 287.559159 194.666199 
L 288.302076 191.495992 
L 289.044993 181.281598 
L 290.530826 153.305924 
L 293.502492 120.571555 
L 294.245409 114.943974 
L 294.988325 108.283153 
L 295.731242 104.145691 
L 296.474158 99.085174 
L 297.217075 99.200339 
L 297.959992 105.693916 
L 300.188741 145.210097 
L 300.931658 160.153357 
L 301.674574 171.596961 
L 302.417491 176.112426 
L 303.903324 187.664187 
L 304.646241 186.49436 
L 305.389157 182.051653 
L 306.132074 180.056399 
L 306.874991 178.620598 
L 307.617907 179.703151 
L 309.10374 186.039795 
L 310.589573 195.153507 
L 311.33249 198.752907 
L 312.075407 198.710992 
L 312.818323 200.356079 
L 313.56124 204.324873 
L 314.304156 206.232508 
L 315.047073 208.581546 
L 315.789989 209.891546 
L 316.532906 210.728792 
L 317.275823 212.246265 
L 318.018739 213.317102 
L 318.761656 214.614096 
L 319.504572 215.524048 
L 320.247489 216.160586 
L 322.476239 217.006478 
L 323.219155 216.657918 
L 323.962072 216.051235 
L 325.447905 215.080747 
L 326.190822 214.439983 
L 326.933738 215.214218 
L 328.419571 216.492848 
L 329.905404 218.230707 
L 330.648321 217.951045 
L 332.134154 218.490199 
L 332.877071 218.196973 
L 333.619987 217.712029 
L 335.105821 219.476513 
L 335.848737 220.670526 
L 337.33457 223.707542 
L 338.077487 224.924554 
L 338.820403 226.374939 
L 339.56332 227.16944 
L 340.306237 227.581138 
L 341.049153 227.405186 
L 342.534986 228.058945 
L 343.277903 228.492737 
L 344.02082 229.49208 
L 346.249569 231.34071 
L 346.992486 230.865048 
L 348.478319 230.989094 
L 349.221236 231.138003 
L 349.964152 231.053629 
L 350.707069 231.217225 
L 352.192902 230.738766 
L 352.935818 231.108633 
L 354.421652 231.07686 
L 355.164568 232.370407 
L 355.907485 231.930901 
L 356.650401 232.127787 
L 358.136235 230.817987 
L 358.879151 231.131924 
L 359.622068 230.718187 
L 360.364984 230.44641 
L 361.107901 230.538692 
L 361.850817 230.135977 
L 362.593734 229.386604 
L 363.336651 227.003495 
L 364.079567 226.751379 
L 364.822484 226.258142 
L 365.5654 227.520522 
L 366.308317 230.776126 
L 367.051233 231.868996 
L 368.537067 235.879369 
L 369.279983 234.619972 
L 370.0229 234.340301 
L 370.765816 233.90286 
L 371.508733 234.636004 
L 372.25165 234.641943 
L 372.994566 235.645134 
L 373.737483 236.453653 
L 374.480399 235.653908 
L 375.223316 236.285655 
L 375.966232 235.680559 
L 376.709149 233.800291 
L 377.452066 234.020751 
L 378.194982 233.615806 
L 378.937899 234.000766 
L 379.680815 233.214685 
L 381.166649 233.264468 
L 381.909565 233.559608 
L 382.652482 234.488304 
L 383.395398 233.932122 
L 384.138315 233.705696 
L 386.367065 232.707511 
L 387.109981 232.565954 
L 387.852898 232.642025 
L 387.852898 232.642025 
" style="fill:none;stroke:#ffa500;stroke-linecap:square;stroke-width:1.5;"/>
   </g>
   <g id="patch_9">
    <path d="M 46.965625 288.430125 
L 46.965625 22.318125 
" style="fill:none;stroke:#000000;stroke-linecap:square;stroke-linejoin:miter;stroke-width:0.8;"/>
   </g>
   <g id="patch_10">
    <path d="M 404.085625 288.430125 
L 404.085625 22.318125 
" style="fill:none;stroke:#000000;stroke-linecap:square;stroke-linejoin:miter;stroke-width:0.8;"/>
   </g>
   <g id="patch_11">
    <path d="M 46.965625 288.430125 
L 404.085625 288.430125 
" style="fill:none;stroke:#000000;stroke-linecap:square;stroke-linejoin:miter;stroke-width:0.8;"/>
   </g>
   <g id="patch_12">
    <path d="M 46.965625 22.318125 
L 404.085625 22.318125 
" style="fill:none;stroke:#000000;stroke-linecap:square;stroke-linejoin:miter;stroke-width:0.8;"/>
   </g>
  </g>
 </g>
 <defs>
  <clipPath id="paa6fcf5455">
   <rect height="266.112" width="357.12" x="46.965625" y="22.318125"/>
  </clipPath>
 </defs>
</svg>
