<?xml version="1.0" encoding="utf-8" standalone="no"?>
<!DOCTYPE svg PUBLIC "-//W3C//DTD SVG 1.1//EN"
  "http://www.w3.org/Graphics/SVG/1.1/DTD/svg11.dtd">
<!-- Created with matplotlib (https://matplotlib.org/) -->
<svg height="358.22505pt" version="1.1" viewBox="0 0 443.521563 358.22505" width="443.521563pt" xmlns="http://www.w3.org/2000/svg" xmlns:xlink="http://www.w3.org/1999/xlink">
 <defs>
  <style type="text/css">
*{stroke-linecap:butt;stroke-linejoin:round;}
  </style>
 </defs>
 <g id="figure_1">
  <g id="patch_1">
   <path d="M 0 358.22505 
L 443.521563 358.22505 
L 443.521563 0 
L 0 0 
z
" style="fill:#ffffff;"/>
  </g>
  <g id="axes_1">
   <g id="patch_2">
    <path d="M 43.78125 288.430125 
L 400.90125 288.430125 
L 400.90125 22.318125 
L 43.78125 22.318125 
z
" style="fill:#ffffff;"/>
   </g>
   <g id="matplotlib.axis_1">
    <g id="xtick_1">
     <g id="line2d_1">
      <defs>
       <path d="M 0 0 
L 0 3.5 
" id="me886d56908" style="stroke:#000000;stroke-width:0.8;"/>
      </defs>
      <g>
       <use style="stroke:#000000;stroke-width:0.8;" x="60.013977" xlink:href="#me886d56908" y="288.430125"/>
      </g>
     </g>
     <g id="text_1">
      <!-- 0 -->
      <defs>
       <path d="M 31.78125 66.40625 
Q 24.171875 66.40625 20.328125 58.90625 
Q 16.5 51.421875 16.5 36.375 
Q 16.5 21.390625 20.328125 13.890625 
Q 24.171875 6.390625 31.78125 6.390625 
Q 39.453125 6.390625 43.28125 13.890625 
Q 47.125 21.390625 47.125 36.375 
Q 47.125 51.421875 43.28125 58.90625 
Q 39.453125 66.40625 31.78125 66.40625 
z
M 31.78125 74.21875 
Q 44.046875 74.21875 50.515625 64.515625 
Q 56.984375 54.828125 56.984375 36.375 
Q 56.984375 17.96875 50.515625 8.265625 
Q 44.046875 -1.421875 31.78125 -1.421875 
Q 19.53125 -1.421875 13.0625 8.265625 
Q 6.59375 17.96875 6.59375 36.375 
Q 6.59375 54.828125 13.0625 64.515625 
Q 19.53125 74.21875 31.78125 74.21875 
z
" id="DejaVuSans-48"/>
      </defs>
      <g transform="translate(56.832727 303.028562)scale(0.1 -0.1)">
       <use xlink:href="#DejaVuSans-48"/>
      </g>
     </g>
    </g>
    <g id="xtick_2">
     <g id="line2d_2">
      <g>
       <use style="stroke:#000000;stroke-width:0.8;" x="125.733521" xlink:href="#me886d56908" y="288.430125"/>
      </g>
     </g>
     <g id="text_2">
      <!-- 50 -->
      <defs>
       <path d="M 10.796875 72.90625 
L 49.515625 72.90625 
L 49.515625 64.59375 
L 19.828125 64.59375 
L 19.828125 46.734375 
Q 21.96875 47.46875 24.109375 47.828125 
Q 26.265625 48.1875 28.421875 48.1875 
Q 40.625 48.1875 47.75 41.5 
Q 54.890625 34.8125 54.890625 23.390625 
Q 54.890625 11.625 47.5625 5.09375 
Q 40.234375 -1.421875 26.90625 -1.421875 
Q 22.3125 -1.421875 17.546875 -0.640625 
Q 12.796875 0.140625 7.71875 1.703125 
L 7.71875 11.625 
Q 12.109375 9.234375 16.796875 8.0625 
Q 21.484375 6.890625 26.703125 6.890625 
Q 35.15625 6.890625 40.078125 11.328125 
Q 45.015625 15.765625 45.015625 23.390625 
Q 45.015625 31 40.078125 35.4375 
Q 35.15625 39.890625 26.703125 39.890625 
Q 22.75 39.890625 18.8125 39.015625 
Q 14.890625 38.140625 10.796875 36.28125 
z
" id="DejaVuSans-53"/>
      </defs>
      <g transform="translate(119.371021 303.028562)scale(0.1 -0.1)">
       <use xlink:href="#DejaVuSans-53"/>
       <use x="63.623047" xlink:href="#DejaVuSans-48"/>
      </g>
     </g>
    </g>
    <g id="xtick_3">
     <g id="line2d_3">
      <g>
       <use style="stroke:#000000;stroke-width:0.8;" x="191.453065" xlink:href="#me886d56908" y="288.430125"/>
      </g>
     </g>
     <g id="text_3">
      <!-- 100 -->
      <defs>
       <path d="M 12.40625 8.296875 
L 28.515625 8.296875 
L 28.515625 63.921875 
L 10.984375 60.40625 
L 10.984375 69.390625 
L 28.421875 72.90625 
L 38.28125 72.90625 
L 38.28125 8.296875 
L 54.390625 8.296875 
L 54.390625 0 
L 12.40625 0 
z
" id="DejaVuSans-49"/>
      </defs>
      <g transform="translate(181.909315 303.028562)scale(0.1 -0.1)">
       <use xlink:href="#DejaVuSans-49"/>
       <use x="63.623047" xlink:href="#DejaVuSans-48"/>
       <use x="127.246094" xlink:href="#DejaVuSans-48"/>
      </g>
     </g>
    </g>
    <g id="xtick_4">
     <g id="line2d_4">
      <g>
       <use style="stroke:#000000;stroke-width:0.8;" x="257.172608" xlink:href="#me886d56908" y="288.430125"/>
      </g>
     </g>
     <g id="text_4">
      <!-- 150 -->
      <g transform="translate(247.628858 303.028562)scale(0.1 -0.1)">
       <use xlink:href="#DejaVuSans-49"/>
       <use x="63.623047" xlink:href="#DejaVuSans-53"/>
       <use x="127.246094" xlink:href="#DejaVuSans-48"/>
      </g>
     </g>
    </g>
    <g id="xtick_5">
     <g id="line2d_5">
      <g>
       <use style="stroke:#000000;stroke-width:0.8;" x="322.892152" xlink:href="#me886d56908" y="288.430125"/>
      </g>
     </g>
     <g id="text_5">
      <!-- 200 -->
      <defs>
       <path d="M 19.1875 8.296875 
L 53.609375 8.296875 
L 53.609375 0 
L 7.328125 0 
L 7.328125 8.296875 
Q 12.9375 14.109375 22.625 23.890625 
Q 32.328125 33.6875 34.8125 36.53125 
Q 39.546875 41.84375 41.421875 45.53125 
Q 43.3125 49.21875 43.3125 52.78125 
Q 43.3125 58.59375 39.234375 62.25 
Q 35.15625 65.921875 28.609375 65.921875 
Q 23.96875 65.921875 18.8125 64.3125 
Q 13.671875 62.703125 7.8125 59.421875 
L 7.8125 69.390625 
Q 13.765625 71.78125 18.9375 73 
Q 24.125 74.21875 28.421875 74.21875 
Q 39.75 74.21875 46.484375 68.546875 
Q 53.21875 62.890625 53.21875 53.421875 
Q 53.21875 48.921875 51.53125 44.890625 
Q 49.859375 40.875 45.40625 35.40625 
Q 44.1875 33.984375 37.640625 27.21875 
Q 31.109375 20.453125 19.1875 8.296875 
z
" id="DejaVuSans-50"/>
      </defs>
      <g transform="translate(313.348402 303.028562)scale(0.1 -0.1)">
       <use xlink:href="#DejaVuSans-50"/>
       <use x="63.623047" xlink:href="#DejaVuSans-48"/>
       <use x="127.246094" xlink:href="#DejaVuSans-48"/>
      </g>
     </g>
    </g>
    <g id="xtick_6">
     <g id="line2d_6">
      <g>
       <use style="stroke:#000000;stroke-width:0.8;" x="388.611695" xlink:href="#me886d56908" y="288.430125"/>
      </g>
     </g>
     <g id="text_6">
      <!-- 250 -->
      <g transform="translate(379.067945 303.028562)scale(0.1 -0.1)">
       <use xlink:href="#DejaVuSans-50"/>
       <use x="63.623047" xlink:href="#DejaVuSans-53"/>
       <use x="127.246094" xlink:href="#DejaVuSans-48"/>
      </g>
     </g>
    </g>
    <g id="text_7">
     <!-- Epoch -->
     <defs>
      <path d="M 9.8125 72.90625 
L 55.90625 72.90625 
L 55.90625 64.59375 
L 19.671875 64.59375 
L 19.671875 43.015625 
L 54.390625 43.015625 
L 54.390625 34.71875 
L 19.671875 34.71875 
L 19.671875 8.296875 
L 56.78125 8.296875 
L 56.78125 0 
L 9.8125 0 
z
" id="DejaVuSans-69"/>
      <path d="M 18.109375 8.203125 
L 18.109375 -20.796875 
L 9.078125 -20.796875 
L 9.078125 54.6875 
L 18.109375 54.6875 
L 18.109375 46.390625 
Q 20.953125 51.265625 25.265625 53.625 
Q 29.59375 56 35.59375 56 
Q 45.5625 56 51.78125 48.09375 
Q 58.015625 40.1875 58.015625 27.296875 
Q 58.015625 14.40625 51.78125 6.484375 
Q 45.5625 -1.421875 35.59375 -1.421875 
Q 29.59375 -1.421875 25.265625 0.953125 
Q 20.953125 3.328125 18.109375 8.203125 
z
M 48.6875 27.296875 
Q 48.6875 37.203125 44.609375 42.84375 
Q 40.53125 48.484375 33.40625 48.484375 
Q 26.265625 48.484375 22.1875 42.84375 
Q 18.109375 37.203125 18.109375 27.296875 
Q 18.109375 17.390625 22.1875 11.75 
Q 26.265625 6.109375 33.40625 6.109375 
Q 40.53125 6.109375 44.609375 11.75 
Q 48.6875 17.390625 48.6875 27.296875 
z
" id="DejaVuSans-112"/>
      <path d="M 30.609375 48.390625 
Q 23.390625 48.390625 19.1875 42.75 
Q 14.984375 37.109375 14.984375 27.296875 
Q 14.984375 17.484375 19.15625 11.84375 
Q 23.34375 6.203125 30.609375 6.203125 
Q 37.796875 6.203125 41.984375 11.859375 
Q 46.1875 17.53125 46.1875 27.296875 
Q 46.1875 37.015625 41.984375 42.703125 
Q 37.796875 48.390625 30.609375 48.390625 
z
M 30.609375 56 
Q 42.328125 56 49.015625 48.375 
Q 55.71875 40.765625 55.71875 27.296875 
Q 55.71875 13.875 49.015625 6.21875 
Q 42.328125 -1.421875 30.609375 -1.421875 
Q 18.84375 -1.421875 12.171875 6.21875 
Q 5.515625 13.875 5.515625 27.296875 
Q 5.515625 40.765625 12.171875 48.375 
Q 18.84375 56 30.609375 56 
z
" id="DejaVuSans-111"/>
      <path d="M 48.78125 52.59375 
L 48.78125 44.1875 
Q 44.96875 46.296875 41.140625 47.34375 
Q 37.3125 48.390625 33.40625 48.390625 
Q 24.65625 48.390625 19.8125 42.84375 
Q 14.984375 37.3125 14.984375 27.296875 
Q 14.984375 17.28125 19.8125 11.734375 
Q 24.65625 6.203125 33.40625 6.203125 
Q 37.3125 6.203125 41.140625 7.25 
Q 44.96875 8.296875 48.78125 10.40625 
L 48.78125 2.09375 
Q 45.015625 0.34375 40.984375 -0.53125 
Q 36.96875 -1.421875 32.421875 -1.421875 
Q 20.0625 -1.421875 12.78125 6.34375 
Q 5.515625 14.109375 5.515625 27.296875 
Q 5.515625 40.671875 12.859375 48.328125 
Q 20.21875 56 33.015625 56 
Q 37.15625 56 41.109375 55.140625 
Q 45.0625 54.296875 48.78125 52.59375 
z
" id="DejaVuSans-99"/>
      <path d="M 54.890625 33.015625 
L 54.890625 0 
L 45.90625 0 
L 45.90625 32.71875 
Q 45.90625 40.484375 42.875 44.328125 
Q 39.84375 48.1875 33.796875 48.1875 
Q 26.515625 48.1875 22.3125 43.546875 
Q 18.109375 38.921875 18.109375 30.90625 
L 18.109375 0 
L 9.078125 0 
L 9.078125 75.984375 
L 18.109375 75.984375 
L 18.109375 46.1875 
Q 21.34375 51.125 25.703125 53.5625 
Q 30.078125 56 35.796875 56 
Q 45.21875 56 50.046875 50.171875 
Q 54.890625 44.34375 54.890625 33.015625 
z
" id="DejaVuSans-104"/>
     </defs>
     <g transform="translate(207.030313 316.706687)scale(0.1 -0.1)">
      <use xlink:href="#DejaVuSans-69"/>
      <use x="63.183594" xlink:href="#DejaVuSans-112"/>
      <use x="126.660156" xlink:href="#DejaVuSans-111"/>
      <use x="187.841797" xlink:href="#DejaVuSans-99"/>
      <use x="242.822266" xlink:href="#DejaVuSans-104"/>
     </g>
    </g>
   </g>
   <g id="matplotlib.axis_2">
    <g id="ytick_1">
     <g id="line2d_7">
      <defs>
       <path d="M 0 0 
L -3.5 0 
" id="me42872efd9" style="stroke:#000000;stroke-width:0.8;"/>
      </defs>
      <g>
       <use style="stroke:#000000;stroke-width:0.8;" x="43.78125" xlink:href="#me42872efd9" y="276.334125"/>
      </g>
     </g>
     <g id="text_8">
      <!-- 0.0 -->
      <defs>
       <path d="M 10.6875 12.40625 
L 21 12.40625 
L 21 0 
L 10.6875 0 
z
" id="DejaVuSans-46"/>
      </defs>
      <g transform="translate(20.878125 280.133344)scale(0.1 -0.1)">
       <use xlink:href="#DejaVuSans-48"/>
       <use x="63.623047" xlink:href="#DejaVuSans-46"/>
       <use x="95.410156" xlink:href="#DejaVuSans-48"/>
      </g>
     </g>
    </g>
    <g id="ytick_2">
     <g id="line2d_8">
      <g>
       <use style="stroke:#000000;stroke-width:0.8;" x="43.78125" xlink:href="#me42872efd9" y="227.950125"/>
      </g>
     </g>
     <g id="text_9">
      <!-- 0.2 -->
      <g transform="translate(20.878125 231.749344)scale(0.1 -0.1)">
       <use xlink:href="#DejaVuSans-48"/>
       <use x="63.623047" xlink:href="#DejaVuSans-46"/>
       <use x="95.410156" xlink:href="#DejaVuSans-50"/>
      </g>
     </g>
    </g>
    <g id="ytick_3">
     <g id="line2d_9">
      <g>
       <use style="stroke:#000000;stroke-width:0.8;" x="43.78125" xlink:href="#me42872efd9" y="179.566125"/>
      </g>
     </g>
     <g id="text_10">
      <!-- 0.4 -->
      <defs>
       <path d="M 37.796875 64.3125 
L 12.890625 25.390625 
L 37.796875 25.390625 
z
M 35.203125 72.90625 
L 47.609375 72.90625 
L 47.609375 25.390625 
L 58.015625 25.390625 
L 58.015625 17.1875 
L 47.609375 17.1875 
L 47.609375 0 
L 37.796875 0 
L 37.796875 17.1875 
L 4.890625 17.1875 
L 4.890625 26.703125 
z
" id="DejaVuSans-52"/>
      </defs>
      <g transform="translate(20.878125 183.365344)scale(0.1 -0.1)">
       <use xlink:href="#DejaVuSans-48"/>
       <use x="63.623047" xlink:href="#DejaVuSans-46"/>
       <use x="95.410156" xlink:href="#DejaVuSans-52"/>
      </g>
     </g>
    </g>
    <g id="ytick_4">
     <g id="line2d_10">
      <g>
       <use style="stroke:#000000;stroke-width:0.8;" x="43.78125" xlink:href="#me42872efd9" y="131.182125"/>
      </g>
     </g>
     <g id="text_11">
      <!-- 0.6 -->
      <defs>
       <path d="M 33.015625 40.375 
Q 26.375 40.375 22.484375 35.828125 
Q 18.609375 31.296875 18.609375 23.390625 
Q 18.609375 15.53125 22.484375 10.953125 
Q 26.375 6.390625 33.015625 6.390625 
Q 39.65625 6.390625 43.53125 10.953125 
Q 47.40625 15.53125 47.40625 23.390625 
Q 47.40625 31.296875 43.53125 35.828125 
Q 39.65625 40.375 33.015625 40.375 
z
M 52.59375 71.296875 
L 52.59375 62.3125 
Q 48.875 64.0625 45.09375 64.984375 
Q 41.3125 65.921875 37.59375 65.921875 
Q 27.828125 65.921875 22.671875 59.328125 
Q 17.53125 52.734375 16.796875 39.40625 
Q 19.671875 43.65625 24.015625 45.921875 
Q 28.375 48.1875 33.59375 48.1875 
Q 44.578125 48.1875 50.953125 41.515625 
Q 57.328125 34.859375 57.328125 23.390625 
Q 57.328125 12.15625 50.6875 5.359375 
Q 44.046875 -1.421875 33.015625 -1.421875 
Q 20.359375 -1.421875 13.671875 8.265625 
Q 6.984375 17.96875 6.984375 36.375 
Q 6.984375 53.65625 15.1875 63.9375 
Q 23.390625 74.21875 37.203125 74.21875 
Q 40.921875 74.21875 44.703125 73.484375 
Q 48.484375 72.75 52.59375 71.296875 
z
" id="DejaVuSans-54"/>
      </defs>
      <g transform="translate(20.878125 134.981344)scale(0.1 -0.1)">
       <use xlink:href="#DejaVuSans-48"/>
       <use x="63.623047" xlink:href="#DejaVuSans-46"/>
       <use x="95.410156" xlink:href="#DejaVuSans-54"/>
      </g>
     </g>
    </g>
    <g id="ytick_5">
     <g id="line2d_11">
      <g>
       <use style="stroke:#000000;stroke-width:0.8;" x="43.78125" xlink:href="#me42872efd9" y="82.798125"/>
      </g>
     </g>
     <g id="text_12">
      <!-- 0.8 -->
      <defs>
       <path d="M 31.78125 34.625 
Q 24.75 34.625 20.71875 30.859375 
Q 16.703125 27.09375 16.703125 20.515625 
Q 16.703125 13.921875 20.71875 10.15625 
Q 24.75 6.390625 31.78125 6.390625 
Q 38.8125 6.390625 42.859375 10.171875 
Q 46.921875 13.96875 46.921875 20.515625 
Q 46.921875 27.09375 42.890625 30.859375 
Q 38.875 34.625 31.78125 34.625 
z
M 21.921875 38.8125 
Q 15.578125 40.375 12.03125 44.71875 
Q 8.5 49.078125 8.5 55.328125 
Q 8.5 64.0625 14.71875 69.140625 
Q 20.953125 74.21875 31.78125 74.21875 
Q 42.671875 74.21875 48.875 69.140625 
Q 55.078125 64.0625 55.078125 55.328125 
Q 55.078125 49.078125 51.53125 44.71875 
Q 48 40.375 41.703125 38.8125 
Q 48.828125 37.15625 52.796875 32.3125 
Q 56.78125 27.484375 56.78125 20.515625 
Q 56.78125 9.90625 50.3125 4.234375 
Q 43.84375 -1.421875 31.78125 -1.421875 
Q 19.734375 -1.421875 13.25 4.234375 
Q 6.78125 9.90625 6.78125 20.515625 
Q 6.78125 27.484375 10.78125 32.3125 
Q 14.796875 37.15625 21.921875 38.8125 
z
M 18.3125 54.390625 
Q 18.3125 48.734375 21.84375 45.5625 
Q 25.390625 42.390625 31.78125 42.390625 
Q 38.140625 42.390625 41.71875 45.5625 
Q 45.3125 48.734375 45.3125 54.390625 
Q 45.3125 60.0625 41.71875 63.234375 
Q 38.140625 66.40625 31.78125 66.40625 
Q 25.390625 66.40625 21.84375 63.234375 
Q 18.3125 60.0625 18.3125 54.390625 
z
" id="DejaVuSans-56"/>
      </defs>
      <g transform="translate(20.878125 86.597344)scale(0.1 -0.1)">
       <use xlink:href="#DejaVuSans-48"/>
       <use x="63.623047" xlink:href="#DejaVuSans-46"/>
       <use x="95.410156" xlink:href="#DejaVuSans-56"/>
      </g>
     </g>
    </g>
    <g id="ytick_6">
     <g id="line2d_12">
      <g>
       <use style="stroke:#000000;stroke-width:0.8;" x="43.78125" xlink:href="#me42872efd9" y="34.414125"/>
      </g>
     </g>
     <g id="text_13">
      <!-- 1.0 -->
      <g transform="translate(20.878125 38.213344)scale(0.1 -0.1)">
       <use xlink:href="#DejaVuSans-49"/>
       <use x="63.623047" xlink:href="#DejaVuSans-46"/>
       <use x="95.410156" xlink:href="#DejaVuSans-48"/>
      </g>
     </g>
    </g>
    <g id="text_14">
     <!-- Loss -->
     <defs>
      <path d="M 9.8125 72.90625 
L 19.671875 72.90625 
L 19.671875 8.296875 
L 55.171875 8.296875 
L 55.171875 0 
L 9.8125 0 
z
" id="DejaVuSans-76"/>
      <path d="M 44.28125 53.078125 
L 44.28125 44.578125 
Q 40.484375 46.53125 36.375 47.5 
Q 32.28125 48.484375 27.875 48.484375 
Q 21.1875 48.484375 17.84375 46.4375 
Q 14.5 44.390625 14.5 40.28125 
Q 14.5 37.15625 16.890625 35.375 
Q 19.28125 33.59375 26.515625 31.984375 
L 29.59375 31.296875 
Q 39.15625 29.25 43.1875 25.515625 
Q 47.21875 21.78125 47.21875 15.09375 
Q 47.21875 7.46875 41.1875 3.015625 
Q 35.15625 -1.421875 24.609375 -1.421875 
Q 20.21875 -1.421875 15.453125 -0.5625 
Q 10.6875 0.296875 5.421875 2 
L 5.421875 11.28125 
Q 10.40625 8.6875 15.234375 7.390625 
Q 20.0625 6.109375 24.8125 6.109375 
Q 31.15625 6.109375 34.5625 8.28125 
Q 37.984375 10.453125 37.984375 14.40625 
Q 37.984375 18.0625 35.515625 20.015625 
Q 33.0625 21.96875 24.703125 23.78125 
L 21.578125 24.515625 
Q 13.234375 26.265625 9.515625 29.90625 
Q 5.8125 33.546875 5.8125 39.890625 
Q 5.8125 47.609375 11.28125 51.796875 
Q 16.75 56 26.8125 56 
Q 31.78125 56 36.171875 55.265625 
Q 40.578125 54.546875 44.28125 53.078125 
z
" id="DejaVuSans-115"/>
     </defs>
     <g transform="translate(14.798438 166.428031)rotate(-90)scale(0.1 -0.1)">
      <use xlink:href="#DejaVuSans-76"/>
      <use x="55.697266" xlink:href="#DejaVuSans-111"/>
      <use x="116.878906" xlink:href="#DejaVuSans-115"/>
      <use x="168.978516" xlink:href="#DejaVuSans-115"/>
     </g>
    </g>
   </g>
   <g id="line2d_13">
    <path clip-path="url(#pc7d09522f7)" d="M 60.013977 276.068415 
L 61.328368 274.739931 
L 62.642759 263.502489 
L 63.95715 271.459695 
L 65.271541 272.897613 
L 66.585932 274.932536 
L 67.900323 272.877506 
L 69.214713 275.875853 
L 70.529104 275.186533 
L 71.843495 276.334125 
L 73.157886 269.881313 
L 74.472277 273.878612 
L 75.786668 271.520629 
L 77.101059 275.344168 
L 78.415449 274.340368 
L 79.72984 269.992706 
L 81.044231 275.579899 
L 82.358622 268.382483 
L 83.673013 273.685447 
L 84.987404 271.402038 
L 86.301795 270.33385 
L 87.616186 248.787314 
L 88.930576 268.646836 
L 90.244967 274.293249 
L 91.559358 267.137356 
L 92.873749 258.202353 
L 94.18814 265.172987 
L 95.502531 244.293179 
L 96.816922 273.524215 
L 98.131313 236.346885 
L 99.445703 240.55375 
L 100.760094 272.362455 
L 102.074485 240.660323 
L 103.388876 267.374995 
L 104.703267 272.277218 
L 106.017658 254.368785 
L 107.332049 272.341698 
L 108.64644 240.664803 
L 109.96083 273.740466 
L 111.275221 273.027992 
L 112.589612 265.261778 
L 113.904003 252.18334 
L 115.218394 249.777861 
L 116.532785 250.268744 
L 117.847176 253.775866 
L 119.161567 267.883836 
L 120.475957 261.132718 
L 121.790348 258.180616 
L 123.104739 251.710495 
L 124.41913 267.845731 
L 125.733521 243.646062 
L 127.047912 259.988426 
L 128.362303 259.904142 
L 129.676694 265.507878 
L 130.991084 235.54764 
L 132.305475 246.724699 
L 133.619866 229.365821 
L 134.934257 249.897921 
L 136.248648 215.166108 
L 137.563039 238.611406 
L 138.87743 257.079055 
L 140.19182 268.43928 
L 141.506211 251.720952 
L 142.820602 255.153041 
L 144.134993 253.216728 
L 145.449384 251.061801 
L 146.763775 258.231329 
L 148.078166 264.319018 
L 149.392557 242.970884 
L 150.706947 266.812485 
L 152.021338 245.746347 
L 153.335729 262.515272 
L 154.65012 257.593526 
L 155.964511 240.642373 
L 157.278902 240.846035 
L 158.593293 243.816986 
L 159.907684 233.826749 
L 161.222074 264.11457 
L 162.536465 263.405807 
L 163.850856 230.986356 
L 165.165247 254.080811 
L 166.479638 207.582888 
L 167.794029 248.165571 
L 169.10842 244.187785 
L 170.422811 248.060461 
L 171.737201 250.920327 
L 173.051592 249.272446 
L 174.365983 236.362101 
L 175.680374 237.25694 
L 178.309156 250.275257 
L 179.623547 239.175251 
L 180.937938 242.525161 
L 182.252328 244.94659 
L 183.566719 229.120711 
L 184.88111 237.989408 
L 186.195501 229.485103 
L 187.509892 240.076402 
L 188.824283 229.306443 
L 190.138674 257.093475 
L 191.453065 245.183692 
L 192.767455 242.554052 
L 194.081846 235.096604 
L 195.396237 34.414125 
L 196.710628 222.743065 
L 198.025019 248.672009 
L 199.33941 256.190336 
L 200.653801 232.224748 
L 201.968191 249.264453 
L 203.282582 238.082547 
L 204.596973 239.277509 
L 205.911364 253.24677 
L 207.225755 228.447921 
L 208.540146 229.426183 
L 209.854537 248.259093 
L 211.168928 260.13575 
L 212.483318 256.628838 
L 213.797709 236.780053 
L 215.1121 262.194273 
L 216.426491 253.028674 
L 217.740882 254.314214 
L 219.055273 247.639177 
L 220.369664 243.272982 
L 221.684055 251.482749 
L 222.998445 236.623952 
L 224.312836 254.944267 
L 225.627227 253.406791 
L 226.941618 257.819555 
L 228.256009 240.68879 
L 229.5704 258.82017 
L 230.884791 185.007844 
L 232.199182 241.9283 
L 233.513572 258.31235 
L 234.827963 253.702291 
L 236.142354 250.862849 
L 237.456745 236.309615 
L 238.771136 254.511463 
L 240.085527 258.247787 
L 241.399918 252.66405 
L 242.714309 247.633034 
L 244.028699 251.991453 
L 245.34309 247.231419 
L 246.657481 254.607024 
L 249.286263 229.36167 
L 250.600654 229.402554 
L 251.915045 230.691247 
L 253.229435 249.77342 
L 254.543826 230.879824 
L 255.858217 238.27831 
L 257.172608 236.473105 
L 258.486999 232.476501 
L 259.80139 244.045725 
L 261.115781 221.725351 
L 262.430172 211.130402 
L 263.744562 194.499719 
L 265.058953 239.373462 
L 266.373344 247.937008 
L 267.687735 245.93257 
L 269.002126 232.868083 
L 270.316517 222.998142 
L 271.630908 231.275736 
L 272.945299 214.322759 
L 274.259689 230.523743 
L 275.57408 197.476291 
L 276.888471 229.818139 
L 278.202862 229.128961 
L 279.517253 222.482247 
L 280.831644 203.780522 
L 282.146035 236.403128 
L 283.460426 235.444435 
L 284.774816 229.352839 
L 286.089207 213.261914 
L 287.403598 229.016371 
L 288.717989 236.844788 
L 290.03238 241.641472 
L 291.346771 228.316517 
L 292.661162 223.046987 
L 293.975553 212.140019 
L 295.289943 199.140135 
L 296.604334 227.764236 
L 297.918725 241.884855 
L 299.233116 246.569091 
L 300.547507 233.271918 
L 301.861898 224.450204 
L 303.176289 222.689949 
L 304.49068 233.864621 
L 305.80507 237.260525 
L 307.119461 254.86316 
L 308.433852 214.913742 
L 309.748243 232.539244 
L 311.062634 216.004658 
L 312.377025 209.515768 
L 313.691416 222.59979 
L 315.005806 244.613491 
L 316.320197 232.335358 
L 317.634588 246.982179 
L 318.948979 236.087379 
L 320.26337 232.928933 
L 321.577761 244.66967 
L 322.892152 231.864073 
L 324.206543 245.174997 
L 325.520933 235.050447 
L 326.835324 238.242603 
L 328.149715 237.342622 
L 329.464106 244.530464 
L 330.778497 239.956955 
L 332.092888 254.357911 
L 333.407279 225.784927 
L 334.72167 212.228921 
L 336.03606 202.391567 
L 337.350451 215.60277 
L 338.664842 212.24869 
L 339.979233 234.91408 
L 341.293624 238.175018 
L 342.608015 230.646189 
L 343.922406 209.402722 
L 345.236797 222.425096 
L 346.551187 212.666709 
L 347.865578 240.527614 
L 349.179969 202.092377 
L 350.49436 237.224861 
L 351.808751 255.884461 
L 353.123142 229.142264 
L 354.437533 229.563885 
L 355.751924 221.148882 
L 357.066314 251.331101 
L 358.380705 226.872821 
L 359.695096 237.163146 
L 361.009487 234.389912 
L 362.323878 229.136253 
L 363.638269 219.377052 
L 364.95266 226.947047 
L 366.267051 230.302622 
L 367.581441 238.190881 
L 368.895832 222.157681 
L 370.210223 227.460273 
L 371.524614 222.706975 
L 372.839005 223.504283 
L 374.153396 205.867747 
L 375.467787 212.607803 
L 376.782177 211.048231 
L 378.096568 219.132791 
L 379.410959 224.214164 
L 380.72535 194.162992 
L 382.039741 208.162297 
L 383.354132 220.208061 
L 384.668523 219.04338 
L 384.668523 219.04338 
" style="fill:none;stroke:#1f77b4;stroke-linecap:square;stroke-opacity:0.3;stroke-width:1.5;"/>
   </g>
   <g id="line2d_14">
    <path clip-path="url(#pc7d09522f7)" d="M 60.013977 276.266261 
L 61.328368 271.67428 
L 62.642759 269.690041 
L 63.95715 269.668418 
L 65.271541 270.964287 
L 66.585932 272.932522 
L 67.900323 273.950871 
L 69.214713 275.424744 
L 70.529104 274.33593 
L 71.843495 273.934581 
L 73.157886 273.942737 
L 74.472277 273.348009 
L 75.786668 273.317771 
L 77.101059 272.793536 
L 78.415449 272.74502 
L 79.72984 273.166992 
L 81.044231 274.315753 
L 82.358622 271.835403 
L 83.673013 268.751077 
L 84.987404 267.805292 
L 86.301795 267.887439 
L 87.616186 266.055446 
L 88.930576 267.202434 
L 90.244967 263.180112 
L 91.559358 264.917776 
L 92.873749 264.117301 
L 94.18814 259.685894 
L 95.502531 256.503048 
L 96.816922 251.812446 
L 98.131313 250.430298 
L 99.445703 252.954527 
L 100.760094 253.080985 
L 102.074485 259.17913 
L 103.388876 257.311329 
L 104.703267 261.819676 
L 106.017658 262.877265 
L 107.332049 263.272341 
L 108.64644 266.555741 
L 109.96083 263.30851 
L 112.589612 259.636024 
L 113.904003 257.337294 
L 115.218394 258.52062 
L 116.532785 255.205285 
L 117.847176 254.081607 
L 119.161567 257.813649 
L 120.475957 258.994064 
L 121.790348 259.096905 
L 123.104739 258.041315 
L 124.41913 259.469431 
L 125.733521 257.134005 
L 127.047912 257.725278 
L 128.362303 254.120005 
L 129.676694 253.790243 
L 130.991084 247.279151 
L 132.305475 242.281152 
L 133.619866 235.524025 
L 134.934257 235.739822 
L 136.248648 237.897675 
L 137.563039 244.194583 
L 138.87743 247.861706 
L 140.19182 252.363702 
L 141.506211 253.822184 
L 142.820602 260.317155 
L 144.134993 256.39067 
L 145.449384 255.551751 
L 146.763775 253.708269 
L 149.392557 257.249331 
L 150.706947 257.541949 
L 152.021338 255.870074 
L 153.335729 253.62674 
L 154.65012 248.254561 
L 155.964511 246.790254 
L 157.278902 246.786029 
L 158.593293 246.555157 
L 159.907684 248.725892 
L 161.222074 246.243923 
L 162.536465 245.934801 
L 165.165247 241.592492 
L 166.479638 240.556755 
L 167.794029 238.890579 
L 169.10842 240.984247 
L 170.422811 244.406638 
L 171.737201 243.661237 
L 173.051592 248.207749 
L 174.365983 243.956772 
L 175.680374 243.111563 
L 176.994765 243.339527 
L 178.309156 242.045923 
L 179.623547 242.342052 
L 180.937938 241.445308 
L 182.252328 240.120187 
L 183.566719 235.188041 
L 184.88111 234.40797 
L 187.509892 238.061829 
L 188.824283 256.847488 
L 190.138674 239.314972 
L 191.453065 220.194352 
L 192.767455 207.108341 
L 194.081846 200.6904 
L 195.396237 197.323442 
L 196.710628 198.172798 
L 198.025019 207.359695 
L 199.33941 219.522558 
L 200.653801 239.959253 
L 201.968191 262.294929 
L 203.282582 243.345677 
L 204.596973 237.914036 
L 205.911364 237.638208 
L 207.225755 242.673404 
L 208.540146 241.41455 
L 209.854537 244.948672 
L 211.168928 247.334106 
L 212.483318 250.217145 
L 213.797709 255.216253 
L 215.1121 254.516219 
L 216.426491 252.85699 
L 217.740882 249.294319 
L 219.055273 248.626428 
L 220.369664 248.573202 
L 221.684055 247.564412 
L 222.998445 247.410159 
L 224.312836 254.152306 
L 225.627227 249.984549 
L 226.941618 244.37096 
L 228.256009 240.558991 
L 229.5704 239.673778 
L 230.884791 238.507917 
L 232.199182 237.587278 
L 233.513572 238.605909 
L 234.827963 243.777146 
L 236.142354 248.454817 
L 237.456745 256.327721 
L 238.771136 251.700318 
L 240.085527 249.761618 
L 242.714309 253.444634 
L 244.028699 253.156982 
L 245.34309 248.213723 
L 246.657481 242.500127 
L 247.971872 241.024974 
L 250.600654 235.781761 
L 251.915045 235.030566 
L 253.229435 233.306916 
L 254.543826 236.976151 
L 255.858217 239.69819 
L 257.172608 239.676532 
L 259.80139 224.043367 
L 261.115781 222.791727 
L 262.430172 222.909116 
L 263.744562 225.561034 
L 265.058953 227.31164 
L 267.687735 234.175986 
L 269.002126 238.366253 
L 270.316517 233.801891 
L 271.630908 224.326879 
L 272.945299 220.459842 
L 274.259689 220.80486 
L 275.57408 218.542826 
L 276.888471 218.293217 
L 278.202862 219.3065 
L 279.517253 224.076776 
L 280.831644 223.997961 
L 282.146035 226.271669 
L 283.460426 223.639023 
L 284.774816 226.839793 
L 286.089207 230.664484 
L 287.403598 233.700282 
L 288.717989 231.556298 
L 290.03238 227.670448 
L 291.346771 224.190016 
L 292.661162 222.35537 
L 293.975553 220.972626 
L 295.289943 222.187166 
L 296.604334 224.720387 
L 299.233116 230.91867 
L 300.547507 232.656513 
L 301.861898 237.638449 
L 303.176289 234.00436 
L 304.49068 233.26465 
L 305.80507 233.323881 
L 307.119461 232.270865 
L 308.433852 228.378728 
L 309.748243 226.327576 
L 311.062634 222.466947 
L 312.377025 222.769836 
L 313.691416 224.921066 
L 315.005806 230.815319 
L 316.320197 234.303996 
L 317.634588 238.249786 
L 318.948979 241.044893 
L 320.26337 239.840941 
L 321.577761 238.040872 
L 322.892152 238.078566 
L 324.206543 237.412684 
L 325.520933 237.824193 
L 326.835324 241.053522 
L 328.149715 242.661728 
L 329.464106 243.83683 
L 330.778497 238.66741 
L 332.092888 234.514484 
L 333.407279 226.267468 
L 334.72167 219.990445 
L 336.03606 216.549713 
L 337.350451 217.887229 
L 338.664842 217.649531 
L 339.979233 223.265032 
L 341.293624 224.02821 
L 342.608015 228.252851 
L 345.236797 220.347041 
L 346.551187 220.362144 
L 347.865578 223.157808 
L 349.179969 228.444058 
L 350.49436 230.429331 
L 351.808751 233.211792 
L 353.123142 234.877559 
L 354.437533 234.335857 
L 355.751924 237.661695 
L 357.066314 234.334241 
L 358.380705 231.922891 
L 359.695096 233.001307 
L 361.009487 230.977211 
L 362.323878 230.991925 
L 363.638269 227.551753 
L 364.95266 229.141688 
L 366.267051 227.632885 
L 367.581441 228.988217 
L 368.895832 228.178714 
L 370.210223 226.391006 
L 371.524614 221.408214 
L 372.839005 216.94924 
L 374.153396 216.753977 
L 375.467787 215.507261 
L 376.782177 211.804844 
L 378.096568 210.815302 
L 379.410959 210.430779 
L 380.72535 210.919993 
L 382.039741 212.398677 
L 383.354132 214.98256 
L 384.668523 218.787373 
L 384.668523 218.787373 
" style="fill:none;stroke:#1f77b4;stroke-linecap:square;stroke-width:1.5;"/>
   </g>
   <g id="line2d_15">
    <path clip-path="url(#pc7d09522f7)" d="M 60.013977 34.414125 
L 62.642759 199.421576 
L 63.95715 213.868635 
L 66.585932 251.11803 
L 67.900323 259.230316 
L 69.214713 253.749525 
L 70.529104 258.72327 
L 71.843495 267.922908 
L 73.157886 266.934618 
L 74.472277 269.476029 
L 75.786668 270.207418 
L 77.101059 261.268941 
L 78.415449 268.149268 
L 79.72984 267.232159 
L 81.044231 266.130054 
L 82.358622 269.218846 
L 83.673013 267.622817 
L 84.987404 265.116245 
L 86.301795 269.784585 
L 87.616186 270.610498 
L 88.930576 253.345173 
L 90.244967 266.280938 
L 91.559358 260.700187 
L 92.873749 263.049706 
L 94.18814 261.154562 
L 95.502531 261.341071 
L 96.816922 265.716422 
L 98.131313 267.420578 
L 99.445703 268.40382 
L 100.760094 270.71117 
L 102.074485 270.624813 
L 103.388876 265.755684 
L 104.703267 269.934361 
L 106.017658 273.438592 
L 107.332049 273.428231 
L 108.64644 270.14698 
L 109.96083 270.05661 
L 111.275221 269.23219 
L 113.904003 268.349475 
L 115.218394 268.920313 
L 116.532785 268.648077 
L 117.847176 269.552746 
L 119.161567 271.032817 
L 120.475957 269.582457 
L 121.790348 272.207868 
L 123.104739 269.163709 
L 124.41913 272.760586 
L 125.733521 272.054971 
L 127.047912 270.603848 
L 128.362303 264.18694 
L 129.676694 269.18831 
L 133.619866 269.710692 
L 134.934257 268.909691 
L 136.248648 271.795304 
L 137.563039 271.678071 
L 138.87743 270.794493 
L 140.19182 266.371778 
L 141.506211 271.927916 
L 142.820602 271.535862 
L 144.134993 267.005509 
L 145.449384 267.136778 
L 146.763775 267.008089 
L 148.078166 267.348595 
L 149.392557 268.253446 
L 150.706947 267.816105 
L 152.021338 269.28012 
L 153.335729 268.894976 
L 154.65012 269.26019 
L 155.964511 271.831755 
L 157.278902 269.18177 
L 158.593293 272.30133 
L 159.907684 273.081589 
L 161.222074 274.048401 
L 162.536465 270.183025 
L 163.850856 274.603339 
L 165.165247 273.494825 
L 166.479638 274.159628 
L 167.794029 275.651341 
L 169.10842 272.322944 
L 170.422811 271.103659 
L 171.737201 274.063914 
L 173.051592 272.469928 
L 175.680374 273.545557 
L 176.994765 274.446023 
L 178.309156 273.849265 
L 179.623547 273.408753 
L 180.937938 275.400734 
L 182.252328 274.466026 
L 183.566719 275.112812 
L 184.88111 275.506091 
L 186.195501 274.179159 
L 187.509892 273.798473 
L 188.824283 275.264729 
L 190.138674 274.302886 
L 191.453065 274.503657 
L 192.767455 272.0475 
L 194.081846 273.151088 
L 195.396237 275.074854 
L 196.710628 271.957398 
L 198.025019 274.549761 
L 199.33941 274.881126 
L 200.653801 276.166171 
L 201.968191 275.474119 
L 203.282582 275.301652 
L 204.596973 275.271957 
L 205.911364 272.770304 
L 207.225755 276.068934 
L 208.540146 274.341175 
L 209.854537 275.034049 
L 211.168928 274.275421 
L 212.483318 273.682037 
L 213.797709 273.323411 
L 215.1121 271.936056 
L 216.426491 272.385778 
L 217.740882 275.385926 
L 219.055273 274.215218 
L 220.369664 272.55574 
L 221.684055 274.092874 
L 222.998445 273.19392 
L 224.312836 273.967002 
L 225.627227 274.230248 
L 226.941618 273.415377 
L 228.256009 274.361388 
L 229.5704 272.706015 
L 230.884791 274.800923 
L 232.199182 275.40179 
L 233.513572 275.32516 
L 234.827963 273.79336 
L 236.142354 275.859066 
L 237.456745 275.625172 
L 238.771136 273.197659 
L 240.085527 274.146289 
L 241.399918 273.945613 
L 242.714309 276.334125 
L 244.028699 273.454448 
L 245.34309 274.734895 
L 246.657481 275.655737 
L 247.971872 274.127558 
L 249.286263 273.584605 
L 250.600654 272.226165 
L 251.915045 273.728465 
L 253.229435 273.704468 
L 254.543826 275.108588 
L 255.858217 273.966181 
L 257.172608 273.871952 
L 258.486999 274.762475 
L 259.80139 274.903621 
L 261.115781 273.9732 
L 262.430172 275.536622 
L 263.744562 274.779869 
L 265.058953 272.138122 
L 266.373344 273.576397 
L 267.687735 272.751153 
L 269.002126 274.966995 
L 270.316517 275.058474 
L 271.630908 273.074629 
L 272.945299 273.865482 
L 274.259689 272.474305 
L 275.57408 272.809137 
L 276.888471 273.587819 
L 278.202862 272.400301 
L 279.517253 270.056888 
L 280.831644 273.72731 
L 282.146035 274.006336 
L 283.460426 271.837485 
L 284.774816 270.824759 
L 286.089207 273.950957 
L 287.403598 273.078382 
L 288.717989 273.426758 
L 290.03238 270.286584 
L 291.346771 268.195014 
L 292.661162 272.285444 
L 293.975553 272.051637 
L 295.289943 272.392635 
L 296.604334 273.893422 
L 297.918725 273.235493 
L 299.233116 272.397728 
L 300.547507 273.929131 
L 301.861898 270.929087 
L 303.176289 270.754822 
L 304.49068 271.906388 
L 305.80507 272.270242 
L 307.119461 272.018856 
L 308.433852 269.986768 
L 309.748243 270.947011 
L 311.062634 273.994506 
L 312.377025 274.576763 
L 313.691416 274.930905 
L 315.005806 265.179209 
L 316.320197 270.701582 
L 317.634588 273.412629 
L 318.948979 271.763568 
L 320.26337 271.856398 
L 321.577761 273.405289 
L 322.892152 271.294419 
L 324.206543 274.425705 
L 325.520933 273.101359 
L 328.149715 274.075651 
L 329.464106 273.671881 
L 330.778497 272.830856 
L 332.092888 274.771099 
L 333.407279 274.548419 
L 334.72167 272.928042 
L 336.03606 272.471428 
L 338.664842 274.77444 
L 339.979233 273.899009 
L 341.293624 272.167657 
L 342.608015 272.052229 
L 343.922406 273.304586 
L 345.236797 271.936639 
L 346.551187 271.96567 
L 347.865578 272.993333 
L 349.179969 272.570099 
L 350.49436 274.155075 
L 351.808751 273.315773 
L 353.123142 271.851797 
L 354.437533 275.43377 
L 355.751924 273.62505 
L 357.066314 274.189755 
L 358.380705 273.792011 
L 359.695096 271.406171 
L 361.009487 275.31663 
L 362.323878 271.771001 
L 363.638269 274.571309 
L 364.95266 274.099682 
L 366.267051 273.056549 
L 367.581441 270.504099 
L 368.895832 274.526698 
L 370.210223 272.384681 
L 371.524614 274.566903 
L 372.839005 273.021407 
L 374.153396 273.012773 
L 375.467787 271.477056 
L 376.782177 274.415141 
L 378.096568 270.547247 
L 379.410959 274.473764 
L 380.72535 274.940288 
L 382.039741 275.004209 
L 383.354132 275.331981 
L 384.668523 274.008263 
L 384.668523 274.008263 
" style="fill:none;stroke:#ff7f0e;stroke-linecap:square;stroke-opacity:0.3;stroke-width:1.5;"/>
   </g>
   <g id="line2d_16">
    <path clip-path="url(#pc7d09522f7)" d="M 60.013977 36.973495 
L 61.328368 120.370767 
L 62.642759 179.670869 
L 63.95715 218.923597 
L 65.271541 242.178749 
L 66.585932 253.486121 
L 67.900323 258.680415 
L 69.214713 259.578016 
L 70.529104 264.53356 
L 71.843495 265.636129 
L 73.157886 266.064175 
L 75.786668 268.054702 
L 77.101059 267.711945 
L 78.415449 267.111526 
L 81.044231 266.418402 
L 82.358622 268.38198 
L 83.673013 268.175803 
L 87.616186 265.146906 
L 90.244967 262.472246 
L 91.559358 261.586538 
L 92.873749 260.977503 
L 94.18814 261.784044 
L 95.502531 264.264693 
L 96.816922 265.077747 
L 98.131313 266.743202 
L 99.445703 267.498906 
L 102.074485 269.954998 
L 104.703267 270.81711 
L 106.017658 271.018547 
L 109.96083 270.872877 
L 111.275221 269.697008 
L 112.589612 268.670685 
L 113.904003 268.596629 
L 115.218394 268.740502 
L 116.532785 269.247957 
L 117.847176 269.450526 
L 119.161567 269.940074 
L 120.475957 270.594244 
L 121.790348 271.550277 
L 123.104739 271.2808 
L 128.362303 269.109416 
L 130.991084 268.313599 
L 132.305475 268.832814 
L 133.619866 270.07784 
L 134.934257 270.528149 
L 136.248648 270.124963 
L 137.563039 270.593362 
L 138.87743 270.630035 
L 140.19182 270.36669 
L 141.506211 269.803758 
L 142.820602 268.815824 
L 145.449384 267.94482 
L 146.763775 267.893042 
L 148.078166 267.238732 
L 149.392557 267.325949 
L 150.706947 268.375381 
L 152.021338 268.689917 
L 154.65012 269.66425 
L 155.964511 270.679904 
L 157.278902 271.103768 
L 159.907684 272.241919 
L 161.222074 272.577704 
L 162.536465 273.205172 
L 163.850856 273.964062 
L 165.165247 273.586381 
L 169.10842 273.585937 
L 170.422811 272.909873 
L 174.365983 272.872756 
L 175.680374 273.545905 
L 176.994765 273.867945 
L 178.309156 273.898708 
L 179.623547 274.460598 
L 180.937938 274.714872 
L 182.252328 274.676036 
L 186.195501 275.007285 
L 188.824283 274.222496 
L 190.138674 274.126119 
L 191.453065 273.726326 
L 195.396237 273.395196 
L 198.025019 274.309382 
L 199.33941 275.142811 
L 200.653801 275.02367 
L 203.282582 275.36425 
L 204.596973 275.075926 
L 209.854537 274.430978 
L 211.168928 273.861213 
L 212.483318 273.716879 
L 213.797709 273.385371 
L 216.426491 273.266005 
L 219.055273 273.486647 
L 220.369664 273.752384 
L 222.998445 273.892049 
L 224.312836 273.484105 
L 225.627227 273.58293 
L 228.256009 274.033812 
L 230.884791 274.287598 
L 232.199182 274.763327 
L 233.513572 274.998263 
L 234.827963 275.017484 
L 240.085527 274.395064 
L 241.399918 274.58003 
L 242.714309 274.511645 
L 244.028699 274.760322 
L 245.34309 274.773563 
L 249.286263 273.677951 
L 250.600654 273.825235 
L 251.915045 273.56598 
L 253.229435 273.560009 
L 254.543826 273.999288 
L 255.858217 274.193045 
L 258.486999 274.760785 
L 261.115781 274.518398 
L 263.744562 273.948459 
L 266.373344 273.765639 
L 267.687735 273.862866 
L 269.002126 273.696948 
L 270.316517 273.710415 
L 271.630908 273.921798 
L 272.945299 273.834453 
L 275.57408 272.530045 
L 276.888471 272.520088 
L 278.202862 272.720032 
L 279.517253 272.322914 
L 282.146035 272.330534 
L 284.774816 273.135005 
L 286.089207 272.714679 
L 287.403598 271.912356 
L 288.717989 271.578552 
L 291.346771 271.39527 
L 292.661162 271.303845 
L 293.975553 271.572909 
L 296.604334 273.156996 
L 297.918725 273.280842 
L 299.233116 272.699499 
L 301.861898 272.29121 
L 304.49068 271.327049 
L 305.80507 271.132217 
L 307.119461 271.178819 
L 308.433852 272.696397 
L 309.748243 272.592073 
L 311.062634 272.029847 
L 316.320197 271.573519 
L 317.634588 270.985452 
L 318.948979 271.248407 
L 320.26337 271.927589 
L 321.577761 273.139908 
L 322.892152 272.940245 
L 326.835324 273.513261 
L 329.464106 274.084534 
L 330.778497 273.739753 
L 333.407279 273.607401 
L 336.03606 273.807733 
L 339.979233 273.228026 
L 342.608015 272.842773 
L 343.922406 272.340095 
L 345.236797 272.221227 
L 346.551187 272.587083 
L 347.865578 272.611935 
L 351.808751 273.478611 
L 353.123142 273.901435 
L 354.437533 273.608023 
L 355.751924 273.862843 
L 357.066314 273.53128 
L 361.009487 273.562326 
L 362.323878 273.305893 
L 363.638269 273.263342 
L 364.95266 273.097662 
L 366.267051 273.26089 
L 367.581441 272.971173 
L 368.895832 273.3478 
L 370.210223 272.82771 
L 371.524614 273.188615 
L 374.153396 272.983169 
L 375.467787 272.615947 
L 378.096568 273.164083 
L 380.72535 274.565448 
L 382.039741 274.97824 
L 383.354132 274.958375 
L 384.668523 274.325306 
L 384.668523 274.325306 
" style="fill:none;stroke:#ff7f0e;stroke-linecap:square;stroke-width:1.5;"/>
   </g>
   <g id="line2d_17">
    <path clip-path="url(#pc7d09522f7)" d="M 60.013977 107.313257 
L 61.328368 108.395608 
L 62.642759 110.438674 
L 63.95715 113.356352 
L 65.271541 117.06254 
L 66.585932 121.471135 
L 67.900323 127.302172 
L 69.214713 132.094106 
L 71.843495 143.485387 
L 73.157886 148.241107 
L 74.472277 151.610958 
L 75.786668 153.890673 
L 77.101059 157.414658 
L 78.415449 161.836972 
L 79.72984 163.61617 
L 81.044231 167.041028 
L 82.358622 167.701086 
L 83.673013 171.988112 
L 84.987404 178.161891 
L 88.930576 199.785605 
L 90.244967 203.568949 
L 91.559358 205.141241 
L 92.873749 202.942727 
L 94.18814 200.382162 
L 95.502531 198.506369 
L 96.816922 193.913272 
L 98.131313 187.181247 
L 99.445703 185.200511 
L 100.760094 186.118989 
L 102.074485 186.350305 
L 103.388876 183.865581 
L 104.703267 182.082641 
L 106.017658 179.920115 
L 107.332049 177.976636 
L 108.64644 176.716859 
L 109.96083 172.703379 
L 111.275221 163.499713 
L 112.589612 161.846397 
L 113.904003 162.481308 
L 115.218394 159.972117 
L 116.532785 154.677623 
L 117.847176 151.158332 
L 119.161567 152.240769 
L 121.790348 158.398808 
L 123.104739 163.657894 
L 124.41913 160.068135 
L 125.733521 165.428709 
L 127.047912 166.082391 
L 129.676694 154.886261 
L 130.991084 157.124421 
L 133.619866 172.267871 
L 134.934257 171.540814 
L 136.248648 177.079413 
L 137.563039 175.786597 
L 138.87743 179.287516 
L 141.506211 167.747101 
L 142.820602 159.405061 
L 144.134993 153.216368 
L 145.449384 145.423758 
L 146.763775 143.930856 
L 148.078166 146.319587 
L 149.392557 151.708018 
L 150.706947 155.474803 
L 152.021338 164.084985 
L 153.335729 169.633844 
L 154.65012 178.148614 
L 155.964511 181.77314 
L 157.278902 178.119544 
L 158.593293 171.035226 
L 159.907684 170.569289 
L 161.222074 172.885895 
L 162.536465 172.655907 
L 163.850856 178.007236 
L 165.165247 181.800151 
L 166.479638 186.469196 
L 167.794029 186.33257 
L 169.10842 187.468987 
L 170.422811 183.883396 
L 171.737201 177.034625 
L 173.051592 172.25512 
L 174.365983 171.577385 
L 175.680374 184.173402 
L 176.994765 186.19866 
L 178.309156 189.906386 
L 179.623547 195.388336 
L 180.937938 191.059782 
L 182.252328 183.012121 
L 183.566719 180.085244 
L 186.195501 169.131736 
L 187.509892 170.807558 
L 188.824283 179.562848 
L 190.138674 186.624622 
L 191.453065 198.446786 
L 192.767455 212.593434 
L 194.081846 220.600337 
L 195.396237 219.184436 
L 196.710628 223.820263 
L 198.025019 222.569056 
L 199.33941 222.224821 
L 201.968191 215.39228 
L 204.596973 234.284854 
L 205.911364 237.531734 
L 207.225755 228.912956 
L 208.540146 223.628267 
L 209.854537 217.292479 
L 211.168928 206.638147 
L 213.797709 193.874503 
L 215.1121 192.479754 
L 216.426491 200.740815 
L 217.740882 217.184174 
L 219.055273 203.127118 
L 220.369664 196.542546 
L 221.684055 203.039374 
L 222.998445 196.806362 
L 224.312836 192.620712 
L 225.627227 198.650678 
L 226.941618 210.090803 
L 228.256009 224.847045 
L 230.884791 241.249817 
L 232.199182 244.214457 
L 233.513572 245.027035 
L 234.827963 240.597695 
L 236.142354 221.744903 
L 237.456745 216.119176 
L 238.771136 213.872648 
L 240.085527 208.471429 
L 241.399918 210.194457 
L 242.714309 203.564695 
L 244.028699 204.470343 
L 245.34309 213.555105 
L 246.657481 197.590846 
L 247.971872 183.743703 
L 249.286263 173.553813 
L 250.600654 174.571684 
L 251.915045 176.329253 
L 253.229435 179.592934 
L 254.543826 190.739721 
L 255.858217 193.750361 
L 257.172608 199.470437 
L 258.486999 210.138513 
L 259.80139 208.092177 
L 261.115781 209.533833 
L 262.430172 202.120308 
L 263.744562 200.962635 
L 265.058953 201.778557 
L 267.687735 193.543628 
L 269.002126 187.320087 
L 270.316517 185.034182 
L 271.630908 192.771339 
L 272.945299 194.919752 
L 274.259689 190.860743 
L 275.57408 182.798948 
L 276.888471 184.693095 
L 278.202862 178.928957 
L 279.517253 166.206685 
L 280.831644 162.480857 
L 282.146035 155.273314 
L 283.460426 151.150137 
L 284.774816 143.713648 
L 286.089207 135.462175 
L 287.403598 132.070921 
L 290.03238 139.994147 
L 291.346771 144.860313 
L 292.661162 149.214487 
L 293.975553 149.122873 
L 295.289943 145.399583 
L 296.604334 148.717165 
L 299.233116 122.708339 
L 300.547507 117.140164 
L 301.861898 103.912131 
L 303.176289 96.596194 
L 304.49068 95.711327 
L 305.80507 98.618709 
L 307.119461 97.176455 
L 308.433852 118.893998 
L 309.748243 131.362201 
L 311.062634 131.00465 
L 312.377025 129.434681 
L 313.691416 133.79395 
L 315.005806 125.568659 
L 316.320197 118.60666 
L 317.634588 113.759622 
L 318.948979 106.17752 
L 320.26337 106.827731 
L 321.577761 117.944932 
L 322.892152 110.262119 
L 324.206543 111.232984 
L 325.520933 112.042947 
L 326.835324 121.206563 
L 328.149715 116.284759 
L 329.464106 116.770534 
L 332.092888 123.572206 
L 333.407279 136.43847 
L 336.03606 125.414773 
L 337.350451 126.161147 
L 338.664842 125.09141 
L 339.979233 120.628121 
L 341.293624 112.80355 
L 342.608015 110.532028 
L 343.922406 114.216283 
L 345.236797 119.584255 
L 346.551187 109.862998 
L 347.865578 95.397133 
L 349.179969 85.058913 
L 350.49436 82.385987 
L 351.808751 75.739984 
L 353.123142 76.626506 
L 354.437533 76.772762 
L 355.751924 79.194785 
L 357.066314 82.541068 
L 358.380705 88.267547 
L 359.695096 90.874124 
L 361.009487 108.778715 
L 362.323878 103.066676 
L 363.638269 106.889837 
L 364.95266 99.462013 
L 366.267051 116.810181 
L 367.581441 115.652653 
L 368.895832 121.38165 
L 370.210223 125.332043 
L 371.524614 139.906505 
L 372.839005 150.788376 
L 374.153396 156.078798 
L 375.467787 151.440003 
L 376.782177 160.308958 
L 378.096568 165.02734 
L 379.410959 179.996036 
L 380.72535 190.58116 
L 382.039741 192.22785 
L 383.354132 180.381243 
L 384.668523 150.486474 
L 384.668523 150.486474 
" style="fill:none;stroke:#008000;stroke-linecap:square;stroke-width:1.5;"/>
   </g>
   <g id="patch_3">
    <path d="M 43.78125 288.430125 
L 43.78125 22.318125 
" style="fill:none;stroke:#000000;stroke-linecap:square;stroke-linejoin:miter;stroke-width:0.8;"/>
   </g>
   <g id="patch_4">
    <path d="M 400.90125 288.430125 
L 400.90125 22.318125 
" style="fill:none;stroke:#000000;stroke-linecap:square;stroke-linejoin:miter;stroke-width:0.8;"/>
   </g>
   <g id="patch_5">
    <path d="M 43.78125 288.430125 
L 400.90125 288.430125 
" style="fill:none;stroke:#000000;stroke-linecap:square;stroke-linejoin:miter;stroke-width:0.8;"/>
   </g>
   <g id="patch_6">
    <path d="M 43.78125 22.318125 
L 400.90125 22.318125 
" style="fill:none;stroke:#000000;stroke-linecap:square;stroke-linejoin:miter;stroke-width:0.8;"/>
   </g>
   <g id="text_15">
    <!-- Entropy and Loss. -->
    <defs>
     <path d="M 9.1875 72.90625 
L 59.90625 72.90625 
L 59.90625 58.6875 
L 27.984375 58.6875 
L 27.984375 45.125 
L 58.015625 45.125 
L 58.015625 30.90625 
L 27.984375 30.90625 
L 27.984375 14.203125 
L 60.984375 14.203125 
L 60.984375 0 
L 9.1875 0 
z
" id="DejaVuSans-Bold-69"/>
     <path d="M 63.375 33.296875 
L 63.375 0 
L 45.796875 0 
L 45.796875 5.421875 
L 45.796875 25.484375 
Q 45.796875 32.5625 45.484375 35.25 
Q 45.171875 37.9375 44.390625 39.203125 
Q 43.359375 40.921875 41.59375 41.875 
Q 39.84375 42.828125 37.59375 42.828125 
Q 32.125 42.828125 29 38.59375 
Q 25.875 34.375 25.875 26.90625 
L 25.875 0 
L 8.40625 0 
L 8.40625 54.6875 
L 25.875 54.6875 
L 25.875 46.6875 
Q 29.828125 51.46875 34.265625 53.734375 
Q 38.71875 56 44.09375 56 
Q 53.5625 56 58.46875 50.1875 
Q 63.375 44.390625 63.375 33.296875 
z
" id="DejaVuSans-Bold-110"/>
     <path d="M 27.484375 70.21875 
L 27.484375 54.6875 
L 45.515625 54.6875 
L 45.515625 42.1875 
L 27.484375 42.1875 
L 27.484375 19 
Q 27.484375 15.1875 29 13.84375 
Q 30.515625 12.5 35.015625 12.5 
L 44 12.5 
L 44 0 
L 29 0 
Q 18.65625 0 14.328125 4.3125 
Q 10.015625 8.640625 10.015625 19 
L 10.015625 42.1875 
L 1.3125 42.1875 
L 1.3125 54.6875 
L 10.015625 54.6875 
L 10.015625 70.21875 
z
" id="DejaVuSans-Bold-116"/>
     <path d="M 49.03125 39.796875 
Q 46.734375 40.875 44.453125 41.375 
Q 42.1875 41.890625 39.890625 41.890625 
Q 33.15625 41.890625 29.515625 37.5625 
Q 25.875 33.25 25.875 25.203125 
L 25.875 0 
L 8.40625 0 
L 8.40625 54.6875 
L 25.875 54.6875 
L 25.875 45.703125 
Q 29.25 51.078125 33.609375 53.53125 
Q 37.984375 56 44.09375 56 
Q 44.96875 56 45.984375 55.921875 
Q 47.015625 55.859375 48.96875 55.609375 
z
" id="DejaVuSans-Bold-114"/>
     <path d="M 34.421875 43.5 
Q 28.609375 43.5 25.5625 39.328125 
Q 22.515625 35.15625 22.515625 27.296875 
Q 22.515625 19.4375 25.5625 15.25 
Q 28.609375 11.078125 34.421875 11.078125 
Q 40.140625 11.078125 43.15625 15.25 
Q 46.1875 19.4375 46.1875 27.296875 
Q 46.1875 35.15625 43.15625 39.328125 
Q 40.140625 43.5 34.421875 43.5 
z
M 34.421875 56 
Q 48.53125 56 56.46875 48.375 
Q 64.40625 40.765625 64.40625 27.296875 
Q 64.40625 13.8125 56.46875 6.1875 
Q 48.53125 -1.421875 34.421875 -1.421875 
Q 20.265625 -1.421875 12.28125 6.1875 
Q 4.296875 13.8125 4.296875 27.296875 
Q 4.296875 40.765625 12.28125 48.375 
Q 20.265625 56 34.421875 56 
z
" id="DejaVuSans-Bold-111"/>
     <path d="M 25.875 7.90625 
L 25.875 -20.796875 
L 8.40625 -20.796875 
L 8.40625 54.6875 
L 25.875 54.6875 
L 25.875 46.6875 
Q 29.5 51.46875 33.890625 53.734375 
Q 38.28125 56 44 56 
Q 54.109375 56 60.59375 47.96875 
Q 67.09375 39.9375 67.09375 27.296875 
Q 67.09375 14.65625 60.59375 6.609375 
Q 54.109375 -1.421875 44 -1.421875 
Q 38.28125 -1.421875 33.890625 0.84375 
Q 29.5 3.125 25.875 7.90625 
z
M 37.5 43.3125 
Q 31.890625 43.3125 28.875 39.1875 
Q 25.875 35.0625 25.875 27.296875 
Q 25.875 19.53125 28.875 15.40625 
Q 31.890625 11.28125 37.5 11.28125 
Q 43.109375 11.28125 46.0625 15.375 
Q 49.03125 19.484375 49.03125 27.296875 
Q 49.03125 35.109375 46.0625 39.203125 
Q 43.109375 43.3125 37.5 43.3125 
z
" id="DejaVuSans-Bold-112"/>
     <path d="M 1.21875 54.6875 
L 18.703125 54.6875 
L 33.40625 17.578125 
L 45.90625 54.6875 
L 63.375 54.6875 
L 40.375 -5.171875 
Q 36.921875 -14.3125 32.296875 -17.9375 
Q 27.6875 -21.578125 20.125 -21.578125 
L 10.015625 -21.578125 
L 10.015625 -10.109375 
L 15.484375 -10.109375 
Q 19.921875 -10.109375 21.9375 -8.6875 
Q 23.96875 -7.28125 25.09375 -3.609375 
L 25.59375 -2.09375 
z
" id="DejaVuSans-Bold-121"/>
     <path id="DejaVuSans-Bold-32"/>
     <path d="M 32.90625 24.609375 
Q 27.4375 24.609375 24.671875 22.75 
Q 21.921875 20.90625 21.921875 17.28125 
Q 21.921875 13.96875 24.140625 12.078125 
Q 26.375 10.203125 30.328125 10.203125 
Q 35.25 10.203125 38.625 13.734375 
Q 42 17.28125 42 22.609375 
L 42 24.609375 
z
M 59.625 31.203125 
L 59.625 0 
L 42 0 
L 42 8.109375 
Q 38.484375 3.125 34.078125 0.84375 
Q 29.6875 -1.421875 23.390625 -1.421875 
Q 14.890625 -1.421875 9.59375 3.53125 
Q 4.296875 8.5 4.296875 16.40625 
Q 4.296875 26.03125 10.90625 30.515625 
Q 17.53125 35.015625 31.6875 35.015625 
L 42 35.015625 
L 42 36.375 
Q 42 40.53125 38.71875 42.453125 
Q 35.453125 44.390625 28.515625 44.390625 
Q 22.90625 44.390625 18.0625 43.265625 
Q 13.234375 42.140625 9.078125 39.890625 
L 9.078125 53.21875 
Q 14.703125 54.59375 20.359375 55.296875 
Q 26.03125 56 31.6875 56 
Q 46.484375 56 53.046875 50.171875 
Q 59.625 44.34375 59.625 31.203125 
z
" id="DejaVuSans-Bold-97"/>
     <path d="M 45.609375 46.6875 
L 45.609375 75.984375 
L 63.1875 75.984375 
L 63.1875 0 
L 45.609375 0 
L 45.609375 7.90625 
Q 42 3.078125 37.640625 0.828125 
Q 33.296875 -1.421875 27.59375 -1.421875 
Q 17.484375 -1.421875 10.984375 6.609375 
Q 4.5 14.65625 4.5 27.296875 
Q 4.5 39.9375 10.984375 47.96875 
Q 17.484375 56 27.59375 56 
Q 33.25 56 37.625 53.734375 
Q 42 51.46875 45.609375 46.6875 
z
M 34.078125 11.28125 
Q 39.703125 11.28125 42.65625 15.375 
Q 45.609375 19.484375 45.609375 27.296875 
Q 45.609375 35.109375 42.65625 39.203125 
Q 39.703125 43.3125 34.078125 43.3125 
Q 28.515625 43.3125 25.5625 39.203125 
Q 22.609375 35.109375 22.609375 27.296875 
Q 22.609375 19.484375 25.5625 15.375 
Q 28.515625 11.28125 34.078125 11.28125 
z
" id="DejaVuSans-Bold-100"/>
     <path d="M 9.1875 72.90625 
L 27.984375 72.90625 
L 27.984375 14.203125 
L 60.984375 14.203125 
L 60.984375 0 
L 9.1875 0 
z
" id="DejaVuSans-Bold-76"/>
     <path d="M 51.125 52.984375 
L 51.125 39.703125 
Q 45.515625 42.046875 40.28125 43.21875 
Q 35.0625 44.390625 30.421875 44.390625 
Q 25.4375 44.390625 23.015625 43.140625 
Q 20.609375 41.890625 20.609375 39.3125 
Q 20.609375 37.203125 22.4375 36.078125 
Q 24.265625 34.96875 29 34.421875 
L 32.078125 33.984375 
Q 45.515625 32.28125 50.140625 28.375 
Q 54.78125 24.46875 54.78125 16.109375 
Q 54.78125 7.375 48.328125 2.96875 
Q 41.890625 -1.421875 29.109375 -1.421875 
Q 23.6875 -1.421875 17.890625 -0.5625 
Q 12.109375 0.296875 6 2 
L 6 15.28125 
Q 11.234375 12.75 16.71875 11.46875 
Q 22.21875 10.203125 27.875 10.203125 
Q 33.015625 10.203125 35.59375 11.609375 
Q 38.1875 13.03125 38.1875 15.828125 
Q 38.1875 18.171875 36.40625 19.3125 
Q 34.625 20.453125 29.296875 21.09375 
L 26.21875 21.484375 
Q 14.546875 22.953125 9.859375 26.90625 
Q 5.171875 30.859375 5.171875 38.921875 
Q 5.171875 47.609375 11.125 51.796875 
Q 17.09375 56 29.390625 56 
Q 34.234375 56 39.546875 55.265625 
Q 44.875 54.546875 51.125 52.984375 
z
" id="DejaVuSans-Bold-115"/>
     <path d="M 10.203125 18.890625 
L 27.78125 18.890625 
L 27.78125 0 
L 10.203125 0 
z
" id="DejaVuSans-Bold-46"/>
    </defs>
    <g transform="translate(161.657813 16.318125)scale(0.12 -0.12)">
     <use xlink:href="#DejaVuSans-Bold-69"/>
     <use x="68.310547" xlink:href="#DejaVuSans-Bold-110"/>
     <use x="139.501953" xlink:href="#DejaVuSans-Bold-116"/>
     <use x="187.304688" xlink:href="#DejaVuSans-Bold-114"/>
     <use x="236.621094" xlink:href="#DejaVuSans-Bold-111"/>
     <use x="305.322266" xlink:href="#DejaVuSans-Bold-112"/>
     <use x="376.904297" xlink:href="#DejaVuSans-Bold-121"/>
     <use x="442.089844" xlink:href="#DejaVuSans-Bold-32"/>
     <use x="476.904297" xlink:href="#DejaVuSans-Bold-97"/>
     <use x="544.384766" xlink:href="#DejaVuSans-Bold-110"/>
     <use x="615.576172" xlink:href="#DejaVuSans-Bold-100"/>
     <use x="687.158203" xlink:href="#DejaVuSans-Bold-32"/>
     <use x="721.972656" xlink:href="#DejaVuSans-Bold-76"/>
     <use x="785.693359" xlink:href="#DejaVuSans-Bold-111"/>
     <use x="854.394531" xlink:href="#DejaVuSans-Bold-115"/>
     <use x="913.916016" xlink:href="#DejaVuSans-Bold-115"/>
     <use x="973.4375" xlink:href="#DejaVuSans-Bold-46"/>
    </g>
   </g>
   <g id="legend_1">
    <g id="patch_7">
     <path d="M 18.982656 353.02505 
L 429.699844 353.02505 
Q 431.699844 353.02505 431.699844 351.02505 
L 431.699844 337.346925 
Q 431.699844 335.346925 429.699844 335.346925 
L 18.982656 335.346925 
Q 16.982656 335.346925 16.982656 337.346925 
L 16.982656 351.02505 
Q 16.982656 353.02505 18.982656 353.02505 
z
" style="fill:#4c4c4c;opacity:0.5;stroke:#4c4c4c;stroke-linejoin:miter;"/>
    </g>
    <g id="patch_8">
     <path d="M 16.982656 351.02505 
L 427.699844 351.02505 
Q 429.699844 351.02505 429.699844 349.02505 
L 429.699844 335.346925 
Q 429.699844 333.346925 427.699844 333.346925 
L 16.982656 333.346925 
Q 14.982656 333.346925 14.982656 335.346925 
L 14.982656 349.02505 
Q 14.982656 351.02505 16.982656 351.02505 
z
" style="fill:#ffffff;stroke:#cccccc;stroke-linejoin:miter;"/>
    </g>
    <g id="line2d_18">
     <path d="M 18.982656 341.445362 
L 38.982656 341.445362 
" style="fill:none;stroke:#1f77b4;stroke-linecap:square;stroke-width:1.5;"/>
    </g>
    <g id="line2d_19"/>
    <g id="text_16">
     <!-- Policy Loss (Normalized) -->
     <defs>
      <path d="M 19.671875 64.796875 
L 19.671875 37.40625 
L 32.078125 37.40625 
Q 38.96875 37.40625 42.71875 40.96875 
Q 46.484375 44.53125 46.484375 51.125 
Q 46.484375 57.671875 42.71875 61.234375 
Q 38.96875 64.796875 32.078125 64.796875 
z
M 9.8125 72.90625 
L 32.078125 72.90625 
Q 44.34375 72.90625 50.609375 67.359375 
Q 56.890625 61.8125 56.890625 51.125 
Q 56.890625 40.328125 50.609375 34.8125 
Q 44.34375 29.296875 32.078125 29.296875 
L 19.671875 29.296875 
L 19.671875 0 
L 9.8125 0 
z
" id="DejaVuSans-80"/>
      <path d="M 9.421875 75.984375 
L 18.40625 75.984375 
L 18.40625 0 
L 9.421875 0 
z
" id="DejaVuSans-108"/>
      <path d="M 9.421875 54.6875 
L 18.40625 54.6875 
L 18.40625 0 
L 9.421875 0 
z
M 9.421875 75.984375 
L 18.40625 75.984375 
L 18.40625 64.59375 
L 9.421875 64.59375 
z
" id="DejaVuSans-105"/>
      <path d="M 32.171875 -5.078125 
Q 28.375 -14.84375 24.75 -17.8125 
Q 21.140625 -20.796875 15.09375 -20.796875 
L 7.90625 -20.796875 
L 7.90625 -13.28125 
L 13.1875 -13.28125 
Q 16.890625 -13.28125 18.9375 -11.515625 
Q 21 -9.765625 23.484375 -3.21875 
L 25.09375 0.875 
L 2.984375 54.6875 
L 12.5 54.6875 
L 29.59375 11.921875 
L 46.6875 54.6875 
L 56.203125 54.6875 
z
" id="DejaVuSans-121"/>
      <path id="DejaVuSans-32"/>
      <path d="M 31 75.875 
Q 24.46875 64.65625 21.28125 53.65625 
Q 18.109375 42.671875 18.109375 31.390625 
Q 18.109375 20.125 21.3125 9.0625 
Q 24.515625 -2 31 -13.1875 
L 23.1875 -13.1875 
Q 15.875 -1.703125 12.234375 9.375 
Q 8.59375 20.453125 8.59375 31.390625 
Q 8.59375 42.28125 12.203125 53.3125 
Q 15.828125 64.359375 23.1875 75.875 
z
" id="DejaVuSans-40"/>
      <path d="M 9.8125 72.90625 
L 23.09375 72.90625 
L 55.421875 11.921875 
L 55.421875 72.90625 
L 64.984375 72.90625 
L 64.984375 0 
L 51.703125 0 
L 19.390625 60.984375 
L 19.390625 0 
L 9.8125 0 
z
" id="DejaVuSans-78"/>
      <path d="M 41.109375 46.296875 
Q 39.59375 47.171875 37.8125 47.578125 
Q 36.03125 48 33.890625 48 
Q 26.265625 48 22.1875 43.046875 
Q 18.109375 38.09375 18.109375 28.8125 
L 18.109375 0 
L 9.078125 0 
L 9.078125 54.6875 
L 18.109375 54.6875 
L 18.109375 46.1875 
Q 20.953125 51.171875 25.484375 53.578125 
Q 30.03125 56 36.53125 56 
Q 37.453125 56 38.578125 55.875 
Q 39.703125 55.765625 41.0625 55.515625 
z
" id="DejaVuSans-114"/>
      <path d="M 52 44.1875 
Q 55.375 50.25 60.0625 53.125 
Q 64.75 56 71.09375 56 
Q 79.640625 56 84.28125 50.015625 
Q 88.921875 44.046875 88.921875 33.015625 
L 88.921875 0 
L 79.890625 0 
L 79.890625 32.71875 
Q 79.890625 40.578125 77.09375 44.375 
Q 74.3125 48.1875 68.609375 48.1875 
Q 61.625 48.1875 57.5625 43.546875 
Q 53.515625 38.921875 53.515625 30.90625 
L 53.515625 0 
L 44.484375 0 
L 44.484375 32.71875 
Q 44.484375 40.625 41.703125 44.40625 
Q 38.921875 48.1875 33.109375 48.1875 
Q 26.21875 48.1875 22.15625 43.53125 
Q 18.109375 38.875 18.109375 30.90625 
L 18.109375 0 
L 9.078125 0 
L 9.078125 54.6875 
L 18.109375 54.6875 
L 18.109375 46.1875 
Q 21.1875 51.21875 25.484375 53.609375 
Q 29.78125 56 35.6875 56 
Q 41.65625 56 45.828125 52.96875 
Q 50 49.953125 52 44.1875 
z
" id="DejaVuSans-109"/>
      <path d="M 34.28125 27.484375 
Q 23.390625 27.484375 19.1875 25 
Q 14.984375 22.515625 14.984375 16.5 
Q 14.984375 11.71875 18.140625 8.90625 
Q 21.296875 6.109375 26.703125 6.109375 
Q 34.1875 6.109375 38.703125 11.40625 
Q 43.21875 16.703125 43.21875 25.484375 
L 43.21875 27.484375 
z
M 52.203125 31.203125 
L 52.203125 0 
L 43.21875 0 
L 43.21875 8.296875 
Q 40.140625 3.328125 35.546875 0.953125 
Q 30.953125 -1.421875 24.3125 -1.421875 
Q 15.921875 -1.421875 10.953125 3.296875 
Q 6 8.015625 6 15.921875 
Q 6 25.140625 12.171875 29.828125 
Q 18.359375 34.515625 30.609375 34.515625 
L 43.21875 34.515625 
L 43.21875 35.40625 
Q 43.21875 41.609375 39.140625 45 
Q 35.0625 48.390625 27.6875 48.390625 
Q 23 48.390625 18.546875 47.265625 
Q 14.109375 46.140625 10.015625 43.890625 
L 10.015625 52.203125 
Q 14.9375 54.109375 19.578125 55.046875 
Q 24.21875 56 28.609375 56 
Q 40.484375 56 46.34375 49.84375 
Q 52.203125 43.703125 52.203125 31.203125 
z
" id="DejaVuSans-97"/>
      <path d="M 5.515625 54.6875 
L 48.1875 54.6875 
L 48.1875 46.484375 
L 14.40625 7.171875 
L 48.1875 7.171875 
L 48.1875 0 
L 4.296875 0 
L 4.296875 8.203125 
L 38.09375 47.515625 
L 5.515625 47.515625 
z
" id="DejaVuSans-122"/>
      <path d="M 56.203125 29.59375 
L 56.203125 25.203125 
L 14.890625 25.203125 
Q 15.484375 15.921875 20.484375 11.0625 
Q 25.484375 6.203125 34.421875 6.203125 
Q 39.59375 6.203125 44.453125 7.46875 
Q 49.3125 8.734375 54.109375 11.28125 
L 54.109375 2.78125 
Q 49.265625 0.734375 44.1875 -0.34375 
Q 39.109375 -1.421875 33.890625 -1.421875 
Q 20.796875 -1.421875 13.15625 6.1875 
Q 5.515625 13.8125 5.515625 26.8125 
Q 5.515625 40.234375 12.765625 48.109375 
Q 20.015625 56 32.328125 56 
Q 43.359375 56 49.78125 48.890625 
Q 56.203125 41.796875 56.203125 29.59375 
z
M 47.21875 32.234375 
Q 47.125 39.59375 43.09375 43.984375 
Q 39.0625 48.390625 32.421875 48.390625 
Q 24.90625 48.390625 20.390625 44.140625 
Q 15.875 39.890625 15.1875 32.171875 
z
" id="DejaVuSans-101"/>
      <path d="M 45.40625 46.390625 
L 45.40625 75.984375 
L 54.390625 75.984375 
L 54.390625 0 
L 45.40625 0 
L 45.40625 8.203125 
Q 42.578125 3.328125 38.25 0.953125 
Q 33.9375 -1.421875 27.875 -1.421875 
Q 17.96875 -1.421875 11.734375 6.484375 
Q 5.515625 14.40625 5.515625 27.296875 
Q 5.515625 40.1875 11.734375 48.09375 
Q 17.96875 56 27.875 56 
Q 33.9375 56 38.25 53.625 
Q 42.578125 51.265625 45.40625 46.390625 
z
M 14.796875 27.296875 
Q 14.796875 17.390625 18.875 11.75 
Q 22.953125 6.109375 30.078125 6.109375 
Q 37.203125 6.109375 41.296875 11.75 
Q 45.40625 17.390625 45.40625 27.296875 
Q 45.40625 37.203125 41.296875 42.84375 
Q 37.203125 48.484375 30.078125 48.484375 
Q 22.953125 48.484375 18.875 42.84375 
Q 14.796875 37.203125 14.796875 27.296875 
z
" id="DejaVuSans-100"/>
      <path d="M 8.015625 75.875 
L 15.828125 75.875 
Q 23.140625 64.359375 26.78125 53.3125 
Q 30.421875 42.28125 30.421875 31.390625 
Q 30.421875 20.453125 26.78125 9.375 
Q 23.140625 -1.703125 15.828125 -13.1875 
L 8.015625 -13.1875 
Q 14.5 -2 17.703125 9.0625 
Q 20.90625 20.125 20.90625 31.390625 
Q 20.90625 42.671875 17.703125 53.65625 
Q 14.5 64.65625 8.015625 75.875 
z
" id="DejaVuSans-41"/>
     </defs>
     <g transform="translate(46.982656 344.945362)scale(0.1 -0.1)">
      <use xlink:href="#DejaVuSans-80"/>
      <use x="60.255859" xlink:href="#DejaVuSans-111"/>
      <use x="121.4375" xlink:href="#DejaVuSans-108"/>
      <use x="149.220703" xlink:href="#DejaVuSans-105"/>
      <use x="177.003906" xlink:href="#DejaVuSans-99"/>
      <use x="231.984375" xlink:href="#DejaVuSans-121"/>
      <use x="291.164062" xlink:href="#DejaVuSans-32"/>
      <use x="322.951172" xlink:href="#DejaVuSans-76"/>
      <use x="378.648438" xlink:href="#DejaVuSans-111"/>
      <use x="439.830078" xlink:href="#DejaVuSans-115"/>
      <use x="491.929688" xlink:href="#DejaVuSans-115"/>
      <use x="544.029297" xlink:href="#DejaVuSans-32"/>
      <use x="575.816406" xlink:href="#DejaVuSans-40"/>
      <use x="614.830078" xlink:href="#DejaVuSans-78"/>
      <use x="689.634766" xlink:href="#DejaVuSans-111"/>
      <use x="750.816406" xlink:href="#DejaVuSans-114"/>
      <use x="791.914062" xlink:href="#DejaVuSans-109"/>
      <use x="889.326172" xlink:href="#DejaVuSans-97"/>
      <use x="950.605469" xlink:href="#DejaVuSans-108"/>
      <use x="978.388672" xlink:href="#DejaVuSans-105"/>
      <use x="1006.171875" xlink:href="#DejaVuSans-122"/>
      <use x="1058.662109" xlink:href="#DejaVuSans-101"/>
      <use x="1120.185547" xlink:href="#DejaVuSans-100"/>
      <use x="1183.662109" xlink:href="#DejaVuSans-41"/>
     </g>
    </g>
    <g id="line2d_20">
     <path d="M 189.251406 341.445362 
L 209.251406 341.445362 
" style="fill:none;stroke:#ff7f0e;stroke-linecap:square;stroke-width:1.5;"/>
    </g>
    <g id="line2d_21"/>
    <g id="text_17">
     <!-- Value Loss (Normalized) -->
     <defs>
      <path d="M 28.609375 0 
L 0.78125 72.90625 
L 11.078125 72.90625 
L 34.1875 11.53125 
L 57.328125 72.90625 
L 67.578125 72.90625 
L 39.796875 0 
z
" id="DejaVuSans-86"/>
      <path d="M 8.5 21.578125 
L 8.5 54.6875 
L 17.484375 54.6875 
L 17.484375 21.921875 
Q 17.484375 14.15625 20.5 10.265625 
Q 23.53125 6.390625 29.59375 6.390625 
Q 36.859375 6.390625 41.078125 11.03125 
Q 45.3125 15.671875 45.3125 23.6875 
L 45.3125 54.6875 
L 54.296875 54.6875 
L 54.296875 0 
L 45.3125 0 
L 45.3125 8.40625 
Q 42.046875 3.421875 37.71875 1 
Q 33.40625 -1.421875 27.6875 -1.421875 
Q 18.265625 -1.421875 13.375 4.4375 
Q 8.5 10.296875 8.5 21.578125 
z
M 31.109375 56 
z
" id="DejaVuSans-117"/>
     </defs>
     <g transform="translate(217.251406 344.945362)scale(0.1 -0.1)">
      <use xlink:href="#DejaVuSans-86"/>
      <use x="68.298828" xlink:href="#DejaVuSans-97"/>
      <use x="129.578125" xlink:href="#DejaVuSans-108"/>
      <use x="157.361328" xlink:href="#DejaVuSans-117"/>
      <use x="220.740234" xlink:href="#DejaVuSans-101"/>
      <use x="282.263672" xlink:href="#DejaVuSans-32"/>
      <use x="314.050781" xlink:href="#DejaVuSans-76"/>
      <use x="369.748047" xlink:href="#DejaVuSans-111"/>
      <use x="430.929688" xlink:href="#DejaVuSans-115"/>
      <use x="483.029297" xlink:href="#DejaVuSans-115"/>
      <use x="535.128906" xlink:href="#DejaVuSans-32"/>
      <use x="566.916016" xlink:href="#DejaVuSans-40"/>
      <use x="605.929688" xlink:href="#DejaVuSans-78"/>
      <use x="680.734375" xlink:href="#DejaVuSans-111"/>
      <use x="741.916016" xlink:href="#DejaVuSans-114"/>
      <use x="783.013672" xlink:href="#DejaVuSans-109"/>
      <use x="880.425781" xlink:href="#DejaVuSans-97"/>
      <use x="941.705078" xlink:href="#DejaVuSans-108"/>
      <use x="969.488281" xlink:href="#DejaVuSans-105"/>
      <use x="997.271484" xlink:href="#DejaVuSans-122"/>
      <use x="1049.761719" xlink:href="#DejaVuSans-101"/>
      <use x="1111.285156" xlink:href="#DejaVuSans-100"/>
      <use x="1174.761719" xlink:href="#DejaVuSans-41"/>
     </g>
    </g>
    <g id="line2d_22">
     <path d="M 358.629531 341.445362 
L 378.629531 341.445362 
" style="fill:none;stroke:#008000;stroke-linecap:square;stroke-width:1.5;"/>
    </g>
    <g id="line2d_23"/>
    <g id="text_18">
     <!-- Entropy -->
     <defs>
      <path d="M 54.890625 33.015625 
L 54.890625 0 
L 45.90625 0 
L 45.90625 32.71875 
Q 45.90625 40.484375 42.875 44.328125 
Q 39.84375 48.1875 33.796875 48.1875 
Q 26.515625 48.1875 22.3125 43.546875 
Q 18.109375 38.921875 18.109375 30.90625 
L 18.109375 0 
L 9.078125 0 
L 9.078125 54.6875 
L 18.109375 54.6875 
L 18.109375 46.1875 
Q 21.34375 51.125 25.703125 53.5625 
Q 30.078125 56 35.796875 56 
Q 45.21875 56 50.046875 50.171875 
Q 54.890625 44.34375 54.890625 33.015625 
z
" id="DejaVuSans-110"/>
      <path d="M 18.3125 70.21875 
L 18.3125 54.6875 
L 36.8125 54.6875 
L 36.8125 47.703125 
L 18.3125 47.703125 
L 18.3125 18.015625 
Q 18.3125 11.328125 20.140625 9.421875 
Q 21.96875 7.515625 27.59375 7.515625 
L 36.8125 7.515625 
L 36.8125 0 
L 27.59375 0 
Q 17.1875 0 13.234375 3.875 
Q 9.28125 7.765625 9.28125 18.015625 
L 9.28125 47.703125 
L 2.6875 47.703125 
L 2.6875 54.6875 
L 9.28125 54.6875 
L 9.28125 70.21875 
z
" id="DejaVuSans-116"/>
     </defs>
     <g transform="translate(386.629531 344.945362)scale(0.1 -0.1)">
      <use xlink:href="#DejaVuSans-69"/>
      <use x="63.183594" xlink:href="#DejaVuSans-110"/>
      <use x="126.5625" xlink:href="#DejaVuSans-116"/>
      <use x="165.771484" xlink:href="#DejaVuSans-114"/>
      <use x="206.853516" xlink:href="#DejaVuSans-111"/>
      <use x="268.035156" xlink:href="#DejaVuSans-112"/>
      <use x="331.511719" xlink:href="#DejaVuSans-121"/>
     </g>
    </g>
   </g>
  </g>
  <g id="axes_2">
   <g id="matplotlib.axis_3">
    <g id="ytick_7">
     <g id="line2d_24">
      <defs>
       <path d="M 0 0 
L 3.5 0 
" id="mfa87e77175" style="stroke:#000000;stroke-width:0.8;"/>
      </defs>
      <g>
       <use style="stroke:#000000;stroke-width:0.8;" x="400.90125" xlink:href="#mfa87e77175" y="287.508777"/>
      </g>
     </g>
     <g id="text_19">
      <!-- 1 -->
      <defs>
       <path d="M 10.59375 35.5 
L 73.1875 35.5 
L 73.1875 27.203125 
L 10.59375 27.203125 
z
" id="DejaVuSans-8722"/>
      </defs>
      <g transform="translate(407.90125 291.307995)scale(0.1 -0.1)">
       <use xlink:href="#DejaVuSans-8722"/>
       <use x="83.789062" xlink:href="#DejaVuSans-49"/>
      </g>
     </g>
    </g>
    <g id="ytick_8">
     <g id="line2d_25">
      <g>
       <use style="stroke:#000000;stroke-width:0.8;" x="400.90125" xlink:href="#mfa87e77175" y="232.252112"/>
      </g>
     </g>
     <g id="text_20">
      <!-- 0 -->
      <g transform="translate(407.90125 236.051331)scale(0.1 -0.1)">
       <use xlink:href="#DejaVuSans-48"/>
      </g>
     </g>
    </g>
    <g id="ytick_9">
     <g id="line2d_26">
      <g>
       <use style="stroke:#000000;stroke-width:0.8;" x="400.90125" xlink:href="#mfa87e77175" y="176.995448"/>
      </g>
     </g>
     <g id="text_21">
      <!-- 1 -->
      <g transform="translate(407.90125 180.794667)scale(0.1 -0.1)">
       <use xlink:href="#DejaVuSans-49"/>
      </g>
     </g>
    </g>
    <g id="ytick_10">
     <g id="line2d_27">
      <g>
       <use style="stroke:#000000;stroke-width:0.8;" x="400.90125" xlink:href="#mfa87e77175" y="121.738784"/>
      </g>
     </g>
     <g id="text_22">
      <!-- 2 -->
      <g transform="translate(407.90125 125.538002)scale(0.1 -0.1)">
       <use xlink:href="#DejaVuSans-50"/>
      </g>
     </g>
    </g>
    <g id="ytick_11">
     <g id="line2d_28">
      <g>
       <use style="stroke:#000000;stroke-width:0.8;" x="400.90125" xlink:href="#mfa87e77175" y="66.482119"/>
      </g>
     </g>
     <g id="text_23">
      <!-- 3 -->
      <defs>
       <path d="M 40.578125 39.3125 
Q 47.65625 37.796875 51.625 33 
Q 55.609375 28.21875 55.609375 21.1875 
Q 55.609375 10.40625 48.1875 4.484375 
Q 40.765625 -1.421875 27.09375 -1.421875 
Q 22.515625 -1.421875 17.65625 -0.515625 
Q 12.796875 0.390625 7.625 2.203125 
L 7.625 11.71875 
Q 11.71875 9.328125 16.59375 8.109375 
Q 21.484375 6.890625 26.8125 6.890625 
Q 36.078125 6.890625 40.9375 10.546875 
Q 45.796875 14.203125 45.796875 21.1875 
Q 45.796875 27.640625 41.28125 31.265625 
Q 36.765625 34.90625 28.71875 34.90625 
L 20.21875 34.90625 
L 20.21875 43.015625 
L 29.109375 43.015625 
Q 36.375 43.015625 40.234375 45.921875 
Q 44.09375 48.828125 44.09375 54.296875 
Q 44.09375 59.90625 40.109375 62.90625 
Q 36.140625 65.921875 28.71875 65.921875 
Q 24.65625 65.921875 20.015625 65.03125 
Q 15.375 64.15625 9.8125 62.3125 
L 9.8125 71.09375 
Q 15.4375 72.65625 20.34375 73.4375 
Q 25.25 74.21875 29.59375 74.21875 
Q 40.828125 74.21875 47.359375 69.109375 
Q 53.90625 64.015625 53.90625 55.328125 
Q 53.90625 49.265625 50.4375 45.09375 
Q 46.96875 40.921875 40.578125 39.3125 
z
" id="DejaVuSans-51"/>
      </defs>
      <g transform="translate(407.90125 70.281338)scale(0.1 -0.1)">
       <use xlink:href="#DejaVuSans-51"/>
      </g>
     </g>
    </g>
    <g id="text_24">
     <!-- Entropy -->
     <g transform="translate(434.241875 174.909281)rotate(-90)scale(0.1 -0.1)">
      <use xlink:href="#DejaVuSans-69"/>
      <use x="63.183594" xlink:href="#DejaVuSans-110"/>
      <use x="126.5625" xlink:href="#DejaVuSans-116"/>
      <use x="165.771484" xlink:href="#DejaVuSans-114"/>
      <use x="206.853516" xlink:href="#DejaVuSans-111"/>
      <use x="268.035156" xlink:href="#DejaVuSans-112"/>
      <use x="331.511719" xlink:href="#DejaVuSans-121"/>
     </g>
    </g>
   </g>
   <g id="line2d_29">
    <path clip-path="url(#pc7d09522f7)" d="M 60.013977 105.777506 
L 62.642759 114.09445 
L 63.95715 109.441659 
L 65.271541 116.877147 
L 66.585932 119.533253 
L 67.900323 126.778874 
L 69.214713 136.484626 
L 70.529104 136.69555 
L 71.843495 142.633032 
L 73.157886 151.771044 
L 74.472277 144.362982 
L 75.786668 158.262434 
L 77.101059 163.127766 
L 78.415449 156.304915 
L 79.72984 161.09601 
L 81.044231 165.381062 
L 82.358622 175.612298 
L 83.673013 177.379768 
L 84.987404 165.437652 
L 86.301795 184.266647 
L 87.616186 186.350755 
L 88.930576 206.707466 
L 90.244967 207.221017 
L 91.559358 214.056139 
L 92.873749 205.546514 
L 94.18814 195.378189 
L 95.502531 183.036756 
L 96.816922 193.10046 
L 98.131313 198.760717 
L 99.445703 193.762017 
L 100.760094 192.175168 
L 102.074485 159.931677 
L 103.388876 175.680475 
L 104.703267 198.157655 
L 106.017658 192.14829 
L 107.332049 176.768441 
L 108.64644 171.429526 
L 109.96083 167.735725 
L 111.275221 159.700086 
L 112.589612 165.796133 
L 113.904003 164.93286 
L 115.218394 166.209149 
L 116.532785 137.692996 
L 117.847176 172.87559 
L 119.161567 151.832332 
L 120.475957 136.54723 
L 121.790348 145.222416 
L 123.104739 173.522701 
L 124.41913 186.133869 
L 125.733521 162.600246 
L 127.047912 155.239169 
L 128.362303 159.751252 
L 129.676694 146.034092 
L 130.991084 176.590861 
L 132.305475 148.369687 
L 133.619866 158.213358 
L 134.934257 184.098131 
L 136.248648 193.156843 
L 137.563039 178.097815 
L 138.87743 172.256158 
L 140.19182 146.645033 
L 141.506211 196.317077 
L 142.820602 153.620525 
L 144.134993 164.2835 
L 145.449384 138.592698 
L 146.763775 151.149333 
L 148.078166 121.051726 
L 149.392557 145.218013 
L 150.706947 156.580737 
L 152.021338 193.112652 
L 153.335729 187.394199 
L 154.65012 138.652035 
L 155.964511 179.343662 
L 157.278902 184.389478 
L 158.593293 181.205678 
L 159.907684 187.051444 
L 161.222074 173.974113 
L 162.536465 139.559795 
L 163.850856 167.067078 
L 165.165247 189.238166 
L 166.479638 197.440255 
L 167.794029 211.694716 
L 169.10842 186.991324 
L 170.422811 165.863019 
L 171.737201 173.344836 
L 173.051592 153.219777 
L 174.365983 195.790664 
L 175.680374 189.632498 
L 176.994765 167.243081 
L 178.309156 189.520044 
L 179.623547 204.585655 
L 180.937938 212.746275 
L 182.252328 147.653414 
L 183.566719 208.350286 
L 184.88111 181.123599 
L 186.195501 147.008745 
L 187.509892 147.78744 
L 188.824283 206.41042 
L 190.138674 188.166961 
L 191.453065 186.043069 
L 192.767455 215.92768 
L 194.081846 222.543607 
L 195.396237 238.099691 
L 196.710628 202.223213 
L 198.025019 237.989206 
L 199.33941 219.67264 
L 200.653801 204.521676 
L 201.968191 225.453923 
L 203.282582 219.794319 
L 204.596973 239.302203 
L 205.911364 206.322375 
L 208.540146 276.334125 
L 209.854537 226.241099 
L 211.168928 150.711121 
L 212.483318 174.123236 
L 213.797709 236.546031 
L 215.1121 188.537925 
L 216.426491 191.943888 
L 217.740882 213.560323 
L 219.055273 221.825529 
L 220.369664 197.720723 
L 221.684055 200.239451 
L 222.998445 215.113798 
L 224.312836 126.095275 
L 225.627227 249.033544 
L 226.941618 214.682614 
L 228.256009 184.123843 
L 229.5704 245.247107 
L 230.884791 264.523227 
L 232.199182 246.985267 
L 233.513572 249.909681 
L 234.827963 205.258011 
L 237.456745 268.13111 
L 238.771136 150.328542 
L 240.085527 210.430239 
L 241.399918 200.128131 
L 242.714309 244.648024 
L 244.028699 195.934957 
L 245.34309 191.453182 
L 246.657481 214.67549 
L 247.971872 184.790812 
L 249.286263 195.978351 
L 250.600654 161.893158 
L 251.915045 136.514408 
L 254.543826 213.978101 
L 255.858217 205.039433 
L 257.172608 213.941823 
L 258.486999 202.063295 
L 259.80139 198.585752 
L 261.115781 175.004115 
L 262.430172 218.546758 
L 263.744562 248.157345 
L 265.058953 184.488604 
L 266.373344 197.682086 
L 267.687735 145.609096 
L 269.002126 226.72439 
L 270.316517 187.364118 
L 271.630908 175.252098 
L 272.945299 197.976595 
L 274.259689 203.209795 
L 275.57408 181.762549 
L 276.888471 188.083848 
L 278.202862 171.312965 
L 279.517253 145.755229 
L 280.831644 196.301718 
L 282.146035 153.361125 
L 283.460426 133.43642 
L 284.774816 138.278063 
L 286.089207 164.552004 
L 287.403598 113.368023 
L 288.717989 146.690631 
L 290.03238 108.92967 
L 291.346771 147.374788 
L 292.661162 177.377455 
L 293.975553 136.070069 
L 295.289943 159.232495 
L 296.604334 152.817781 
L 297.918725 122.341923 
L 299.233116 96.16732 
L 300.547507 150.15193 
L 301.861898 125.255886 
L 303.176289 67.256957 
L 304.49068 93.312498 
L 305.80507 101.054756 
L 307.119461 85.16829 
L 308.433852 115.135621 
L 309.748243 134.825889 
L 311.062634 145.816309 
L 312.377025 136.366938 
L 313.691416 169.92163 
L 315.005806 69.068069 
L 316.320197 105.948573 
L 318.948979 144.030366 
L 320.26337 85.33469 
L 321.577761 114.054778 
L 322.892152 105.245755 
L 324.206543 95.381904 
L 325.520933 147.292177 
L 326.835324 112.528914 
L 328.149715 98.915057 
L 329.464106 144.501375 
L 330.778497 105.702518 
L 332.092888 125.136016 
L 333.407279 100.366785 
L 334.72167 150.327398 
L 336.03606 157.565296 
L 337.350451 141.068592 
L 338.664842 112.295291 
L 339.979233 58.885476 
L 341.293624 141.312289 
L 342.608015 124.704155 
L 343.922406 128.141672 
L 345.236797 94.495244 
L 346.551187 119.277933 
L 347.865578 101.121163 
L 349.179969 99.844753 
L 350.49436 74.177258 
L 351.808751 34.429688 
L 353.123142 107.220394 
L 354.437533 63.120556 
L 355.751924 106.508363 
L 357.066314 59.285384 
L 358.380705 122.076063 
L 359.695096 56.885217 
L 361.009487 97.420113 
L 362.323878 99.334915 
L 363.638269 135.707044 
L 364.95266 136.730729 
L 366.267051 112.679723 
L 367.581441 34.414125 
L 368.895832 136.267616 
L 370.210223 132.127223 
L 371.524614 199.489926 
L 372.839005 107.444545 
L 374.153396 167.033385 
L 375.467787 152.127439 
L 376.782177 166.816803 
L 378.096568 127.430605 
L 379.410959 166.992442 
L 380.72535 219.398727 
L 382.039741 200.130712 
L 383.354132 161.831107 
L 384.668523 156.026135 
L 384.668523 156.026135 
" style="fill:none;stroke:#008000;stroke-linecap:square;stroke-opacity:0.3;stroke-width:1.5;"/>
   </g>
   <g id="patch_9">
    <path d="M 43.78125 288.430125 
L 43.78125 22.318125 
" style="fill:none;stroke:#000000;stroke-linecap:square;stroke-linejoin:miter;stroke-width:0.8;"/>
   </g>
   <g id="patch_10">
    <path d="M 400.90125 288.430125 
L 400.90125 22.318125 
" style="fill:none;stroke:#000000;stroke-linecap:square;stroke-linejoin:miter;stroke-width:0.8;"/>
   </g>
   <g id="patch_11">
    <path d="M 43.78125 288.430125 
L 400.90125 288.430125 
" style="fill:none;stroke:#000000;stroke-linecap:square;stroke-linejoin:miter;stroke-width:0.8;"/>
   </g>
   <g id="patch_12">
    <path d="M 43.78125 22.318125 
L 400.90125 22.318125 
" style="fill:none;stroke:#000000;stroke-linecap:square;stroke-linejoin:miter;stroke-width:0.8;"/>
   </g>
  </g>
 </g>
 <defs>
  <clipPath id="pc7d09522f7">
   <rect height="266.112" width="357.12" x="43.78125" y="22.318125"/>
  </clipPath>
 </defs>
</svg>
