<?xml version="1.0" encoding="utf-8" standalone="no"?>
<!DOCTYPE svg PUBLIC "-//W3C//DTD SVG 1.1//EN"
  "http://www.w3.org/Graphics/SVG/1.1/DTD/svg11.dtd">
<!-- Created with matplotlib (https://matplotlib.org/) -->
<svg height="358.22505pt" version="1.1" viewBox="0 0 459.430937 358.22505" width="459.430937pt" xmlns="http://www.w3.org/2000/svg" xmlns:xlink="http://www.w3.org/1999/xlink">
 <defs>
  <style type="text/css">
*{stroke-linecap:butt;stroke-linejoin:round;}
  </style>
 </defs>
 <g id="figure_1">
  <g id="patch_1">
   <path d="M 0 358.22505 
L 459.430938 358.22505 
L 459.430938 0 
L 0 0 
z
" style="fill:#ffffff;"/>
  </g>
  <g id="axes_1">
   <g id="patch_2">
    <path d="M 55.345313 288.430125 
L 412.465312 288.430125 
L 412.465312 22.318125 
L 55.345313 22.318125 
z
" style="fill:#ffffff;"/>
   </g>
   <g id="matplotlib.axis_1">
    <g id="xtick_1">
     <g id="line2d_1">
      <defs>
       <path d="M 0 0 
L 0 3.5 
" id="mb2069d8081" style="stroke:#000000;stroke-width:0.8;"/>
      </defs>
      <g>
       <use style="stroke:#000000;stroke-width:0.8;" x="71.57804" xlink:href="#mb2069d8081" y="288.430125"/>
      </g>
     </g>
     <g id="text_1">
      <!-- 0 -->
      <defs>
       <path d="M 31.78125 66.40625 
Q 24.171875 66.40625 20.328125 58.90625 
Q 16.5 51.421875 16.5 36.375 
Q 16.5 21.390625 20.328125 13.890625 
Q 24.171875 6.390625 31.78125 6.390625 
Q 39.453125 6.390625 43.28125 13.890625 
Q 47.125 21.390625 47.125 36.375 
Q 47.125 51.421875 43.28125 58.90625 
Q 39.453125 66.40625 31.78125 66.40625 
z
M 31.78125 74.21875 
Q 44.046875 74.21875 50.515625 64.515625 
Q 56.984375 54.828125 56.984375 36.375 
Q 56.984375 17.96875 50.515625 8.265625 
Q 44.046875 -1.421875 31.78125 -1.421875 
Q 19.53125 -1.421875 13.0625 8.265625 
Q 6.59375 17.96875 6.59375 36.375 
Q 6.59375 54.828125 13.0625 64.515625 
Q 19.53125 74.21875 31.78125 74.21875 
z
" id="DejaVuSans-48"/>
      </defs>
      <g transform="translate(68.39679 303.028562)scale(0.1 -0.1)">
       <use xlink:href="#DejaVuSans-48"/>
      </g>
     </g>
    </g>
    <g id="xtick_2">
     <g id="line2d_2">
      <g>
       <use style="stroke:#000000;stroke-width:0.8;" x="137.297583" xlink:href="#mb2069d8081" y="288.430125"/>
      </g>
     </g>
     <g id="text_2">
      <!-- 50 -->
      <defs>
       <path d="M 10.796875 72.90625 
L 49.515625 72.90625 
L 49.515625 64.59375 
L 19.828125 64.59375 
L 19.828125 46.734375 
Q 21.96875 47.46875 24.109375 47.828125 
Q 26.265625 48.1875 28.421875 48.1875 
Q 40.625 48.1875 47.75 41.5 
Q 54.890625 34.8125 54.890625 23.390625 
Q 54.890625 11.625 47.5625 5.09375 
Q 40.234375 -1.421875 26.90625 -1.421875 
Q 22.3125 -1.421875 17.546875 -0.640625 
Q 12.796875 0.140625 7.71875 1.703125 
L 7.71875 11.625 
Q 12.109375 9.234375 16.796875 8.0625 
Q 21.484375 6.890625 26.703125 6.890625 
Q 35.15625 6.890625 40.078125 11.328125 
Q 45.015625 15.765625 45.015625 23.390625 
Q 45.015625 31 40.078125 35.4375 
Q 35.15625 39.890625 26.703125 39.890625 
Q 22.75 39.890625 18.8125 39.015625 
Q 14.890625 38.140625 10.796875 36.28125 
z
" id="DejaVuSans-53"/>
      </defs>
      <g transform="translate(130.935083 303.028562)scale(0.1 -0.1)">
       <use xlink:href="#DejaVuSans-53"/>
       <use x="63.623047" xlink:href="#DejaVuSans-48"/>
      </g>
     </g>
    </g>
    <g id="xtick_3">
     <g id="line2d_3">
      <g>
       <use style="stroke:#000000;stroke-width:0.8;" x="203.017127" xlink:href="#mb2069d8081" y="288.430125"/>
      </g>
     </g>
     <g id="text_3">
      <!-- 100 -->
      <defs>
       <path d="M 12.40625 8.296875 
L 28.515625 8.296875 
L 28.515625 63.921875 
L 10.984375 60.40625 
L 10.984375 69.390625 
L 28.421875 72.90625 
L 38.28125 72.90625 
L 38.28125 8.296875 
L 54.390625 8.296875 
L 54.390625 0 
L 12.40625 0 
z
" id="DejaVuSans-49"/>
      </defs>
      <g transform="translate(193.473377 303.028562)scale(0.1 -0.1)">
       <use xlink:href="#DejaVuSans-49"/>
       <use x="63.623047" xlink:href="#DejaVuSans-48"/>
       <use x="127.246094" xlink:href="#DejaVuSans-48"/>
      </g>
     </g>
    </g>
    <g id="xtick_4">
     <g id="line2d_4">
      <g>
       <use style="stroke:#000000;stroke-width:0.8;" x="268.736671" xlink:href="#mb2069d8081" y="288.430125"/>
      </g>
     </g>
     <g id="text_4">
      <!-- 150 -->
      <g transform="translate(259.192921 303.028562)scale(0.1 -0.1)">
       <use xlink:href="#DejaVuSans-49"/>
       <use x="63.623047" xlink:href="#DejaVuSans-53"/>
       <use x="127.246094" xlink:href="#DejaVuSans-48"/>
      </g>
     </g>
    </g>
    <g id="xtick_5">
     <g id="line2d_5">
      <g>
       <use style="stroke:#000000;stroke-width:0.8;" x="334.456214" xlink:href="#mb2069d8081" y="288.430125"/>
      </g>
     </g>
     <g id="text_5">
      <!-- 200 -->
      <defs>
       <path d="M 19.1875 8.296875 
L 53.609375 8.296875 
L 53.609375 0 
L 7.328125 0 
L 7.328125 8.296875 
Q 12.9375 14.109375 22.625 23.890625 
Q 32.328125 33.6875 34.8125 36.53125 
Q 39.546875 41.84375 41.421875 45.53125 
Q 43.3125 49.21875 43.3125 52.78125 
Q 43.3125 58.59375 39.234375 62.25 
Q 35.15625 65.921875 28.609375 65.921875 
Q 23.96875 65.921875 18.8125 64.3125 
Q 13.671875 62.703125 7.8125 59.421875 
L 7.8125 69.390625 
Q 13.765625 71.78125 18.9375 73 
Q 24.125 74.21875 28.421875 74.21875 
Q 39.75 74.21875 46.484375 68.546875 
Q 53.21875 62.890625 53.21875 53.421875 
Q 53.21875 48.921875 51.53125 44.890625 
Q 49.859375 40.875 45.40625 35.40625 
Q 44.1875 33.984375 37.640625 27.21875 
Q 31.109375 20.453125 19.1875 8.296875 
z
" id="DejaVuSans-50"/>
      </defs>
      <g transform="translate(324.912464 303.028562)scale(0.1 -0.1)">
       <use xlink:href="#DejaVuSans-50"/>
       <use x="63.623047" xlink:href="#DejaVuSans-48"/>
       <use x="127.246094" xlink:href="#DejaVuSans-48"/>
      </g>
     </g>
    </g>
    <g id="xtick_6">
     <g id="line2d_6">
      <g>
       <use style="stroke:#000000;stroke-width:0.8;" x="400.175758" xlink:href="#mb2069d8081" y="288.430125"/>
      </g>
     </g>
     <g id="text_6">
      <!-- 250 -->
      <g transform="translate(390.632008 303.028562)scale(0.1 -0.1)">
       <use xlink:href="#DejaVuSans-50"/>
       <use x="63.623047" xlink:href="#DejaVuSans-53"/>
       <use x="127.246094" xlink:href="#DejaVuSans-48"/>
      </g>
     </g>
    </g>
    <g id="text_7">
     <!-- Iteration (Cycle) -->
     <defs>
      <path d="M 9.8125 72.90625 
L 19.671875 72.90625 
L 19.671875 0 
L 9.8125 0 
z
" id="DejaVuSans-73"/>
      <path d="M 18.3125 70.21875 
L 18.3125 54.6875 
L 36.8125 54.6875 
L 36.8125 47.703125 
L 18.3125 47.703125 
L 18.3125 18.015625 
Q 18.3125 11.328125 20.140625 9.421875 
Q 21.96875 7.515625 27.59375 7.515625 
L 36.8125 7.515625 
L 36.8125 0 
L 27.59375 0 
Q 17.1875 0 13.234375 3.875 
Q 9.28125 7.765625 9.28125 18.015625 
L 9.28125 47.703125 
L 2.6875 47.703125 
L 2.6875 54.6875 
L 9.28125 54.6875 
L 9.28125 70.21875 
z
" id="DejaVuSans-116"/>
      <path d="M 56.203125 29.59375 
L 56.203125 25.203125 
L 14.890625 25.203125 
Q 15.484375 15.921875 20.484375 11.0625 
Q 25.484375 6.203125 34.421875 6.203125 
Q 39.59375 6.203125 44.453125 7.46875 
Q 49.3125 8.734375 54.109375 11.28125 
L 54.109375 2.78125 
Q 49.265625 0.734375 44.1875 -0.34375 
Q 39.109375 -1.421875 33.890625 -1.421875 
Q 20.796875 -1.421875 13.15625 6.1875 
Q 5.515625 13.8125 5.515625 26.8125 
Q 5.515625 40.234375 12.765625 48.109375 
Q 20.015625 56 32.328125 56 
Q 43.359375 56 49.78125 48.890625 
Q 56.203125 41.796875 56.203125 29.59375 
z
M 47.21875 32.234375 
Q 47.125 39.59375 43.09375 43.984375 
Q 39.0625 48.390625 32.421875 48.390625 
Q 24.90625 48.390625 20.390625 44.140625 
Q 15.875 39.890625 15.1875 32.171875 
z
" id="DejaVuSans-101"/>
      <path d="M 41.109375 46.296875 
Q 39.59375 47.171875 37.8125 47.578125 
Q 36.03125 48 33.890625 48 
Q 26.265625 48 22.1875 43.046875 
Q 18.109375 38.09375 18.109375 28.8125 
L 18.109375 0 
L 9.078125 0 
L 9.078125 54.6875 
L 18.109375 54.6875 
L 18.109375 46.1875 
Q 20.953125 51.171875 25.484375 53.578125 
Q 30.03125 56 36.53125 56 
Q 37.453125 56 38.578125 55.875 
Q 39.703125 55.765625 41.0625 55.515625 
z
" id="DejaVuSans-114"/>
      <path d="M 34.28125 27.484375 
Q 23.390625 27.484375 19.1875 25 
Q 14.984375 22.515625 14.984375 16.5 
Q 14.984375 11.71875 18.140625 8.90625 
Q 21.296875 6.109375 26.703125 6.109375 
Q 34.1875 6.109375 38.703125 11.40625 
Q 43.21875 16.703125 43.21875 25.484375 
L 43.21875 27.484375 
z
M 52.203125 31.203125 
L 52.203125 0 
L 43.21875 0 
L 43.21875 8.296875 
Q 40.140625 3.328125 35.546875 0.953125 
Q 30.953125 -1.421875 24.3125 -1.421875 
Q 15.921875 -1.421875 10.953125 3.296875 
Q 6 8.015625 6 15.921875 
Q 6 25.140625 12.171875 29.828125 
Q 18.359375 34.515625 30.609375 34.515625 
L 43.21875 34.515625 
L 43.21875 35.40625 
Q 43.21875 41.609375 39.140625 45 
Q 35.0625 48.390625 27.6875 48.390625 
Q 23 48.390625 18.546875 47.265625 
Q 14.109375 46.140625 10.015625 43.890625 
L 10.015625 52.203125 
Q 14.9375 54.109375 19.578125 55.046875 
Q 24.21875 56 28.609375 56 
Q 40.484375 56 46.34375 49.84375 
Q 52.203125 43.703125 52.203125 31.203125 
z
" id="DejaVuSans-97"/>
      <path d="M 9.421875 54.6875 
L 18.40625 54.6875 
L 18.40625 0 
L 9.421875 0 
z
M 9.421875 75.984375 
L 18.40625 75.984375 
L 18.40625 64.59375 
L 9.421875 64.59375 
z
" id="DejaVuSans-105"/>
      <path d="M 30.609375 48.390625 
Q 23.390625 48.390625 19.1875 42.75 
Q 14.984375 37.109375 14.984375 27.296875 
Q 14.984375 17.484375 19.15625 11.84375 
Q 23.34375 6.203125 30.609375 6.203125 
Q 37.796875 6.203125 41.984375 11.859375 
Q 46.1875 17.53125 46.1875 27.296875 
Q 46.1875 37.015625 41.984375 42.703125 
Q 37.796875 48.390625 30.609375 48.390625 
z
M 30.609375 56 
Q 42.328125 56 49.015625 48.375 
Q 55.71875 40.765625 55.71875 27.296875 
Q 55.71875 13.875 49.015625 6.21875 
Q 42.328125 -1.421875 30.609375 -1.421875 
Q 18.84375 -1.421875 12.171875 6.21875 
Q 5.515625 13.875 5.515625 27.296875 
Q 5.515625 40.765625 12.171875 48.375 
Q 18.84375 56 30.609375 56 
z
" id="DejaVuSans-111"/>
      <path d="M 54.890625 33.015625 
L 54.890625 0 
L 45.90625 0 
L 45.90625 32.71875 
Q 45.90625 40.484375 42.875 44.328125 
Q 39.84375 48.1875 33.796875 48.1875 
Q 26.515625 48.1875 22.3125 43.546875 
Q 18.109375 38.921875 18.109375 30.90625 
L 18.109375 0 
L 9.078125 0 
L 9.078125 54.6875 
L 18.109375 54.6875 
L 18.109375 46.1875 
Q 21.34375 51.125 25.703125 53.5625 
Q 30.078125 56 35.796875 56 
Q 45.21875 56 50.046875 50.171875 
Q 54.890625 44.34375 54.890625 33.015625 
z
" id="DejaVuSans-110"/>
      <path id="DejaVuSans-32"/>
      <path d="M 31 75.875 
Q 24.46875 64.65625 21.28125 53.65625 
Q 18.109375 42.671875 18.109375 31.390625 
Q 18.109375 20.125 21.3125 9.0625 
Q 24.515625 -2 31 -13.1875 
L 23.1875 -13.1875 
Q 15.875 -1.703125 12.234375 9.375 
Q 8.59375 20.453125 8.59375 31.390625 
Q 8.59375 42.28125 12.203125 53.3125 
Q 15.828125 64.359375 23.1875 75.875 
z
" id="DejaVuSans-40"/>
      <path d="M 64.40625 67.28125 
L 64.40625 56.890625 
Q 59.421875 61.53125 53.78125 63.8125 
Q 48.140625 66.109375 41.796875 66.109375 
Q 29.296875 66.109375 22.65625 58.46875 
Q 16.015625 50.828125 16.015625 36.375 
Q 16.015625 21.96875 22.65625 14.328125 
Q 29.296875 6.6875 41.796875 6.6875 
Q 48.140625 6.6875 53.78125 8.984375 
Q 59.421875 11.28125 64.40625 15.921875 
L 64.40625 5.609375 
Q 59.234375 2.09375 53.4375 0.328125 
Q 47.65625 -1.421875 41.21875 -1.421875 
Q 24.65625 -1.421875 15.125 8.703125 
Q 5.609375 18.84375 5.609375 36.375 
Q 5.609375 53.953125 15.125 64.078125 
Q 24.65625 74.21875 41.21875 74.21875 
Q 47.75 74.21875 53.53125 72.484375 
Q 59.328125 70.75 64.40625 67.28125 
z
" id="DejaVuSans-67"/>
      <path d="M 32.171875 -5.078125 
Q 28.375 -14.84375 24.75 -17.8125 
Q 21.140625 -20.796875 15.09375 -20.796875 
L 7.90625 -20.796875 
L 7.90625 -13.28125 
L 13.1875 -13.28125 
Q 16.890625 -13.28125 18.9375 -11.515625 
Q 21 -9.765625 23.484375 -3.21875 
L 25.09375 0.875 
L 2.984375 54.6875 
L 12.5 54.6875 
L 29.59375 11.921875 
L 46.6875 54.6875 
L 56.203125 54.6875 
z
" id="DejaVuSans-121"/>
      <path d="M 48.78125 52.59375 
L 48.78125 44.1875 
Q 44.96875 46.296875 41.140625 47.34375 
Q 37.3125 48.390625 33.40625 48.390625 
Q 24.65625 48.390625 19.8125 42.84375 
Q 14.984375 37.3125 14.984375 27.296875 
Q 14.984375 17.28125 19.8125 11.734375 
Q 24.65625 6.203125 33.40625 6.203125 
Q 37.3125 6.203125 41.140625 7.25 
Q 44.96875 8.296875 48.78125 10.40625 
L 48.78125 2.09375 
Q 45.015625 0.34375 40.984375 -0.53125 
Q 36.96875 -1.421875 32.421875 -1.421875 
Q 20.0625 -1.421875 12.78125 6.34375 
Q 5.515625 14.109375 5.515625 27.296875 
Q 5.515625 40.671875 12.859375 48.328125 
Q 20.21875 56 33.015625 56 
Q 37.15625 56 41.109375 55.140625 
Q 45.0625 54.296875 48.78125 52.59375 
z
" id="DejaVuSans-99"/>
      <path d="M 9.421875 75.984375 
L 18.40625 75.984375 
L 18.40625 0 
L 9.421875 0 
z
" id="DejaVuSans-108"/>
      <path d="M 8.015625 75.875 
L 15.828125 75.875 
Q 23.140625 64.359375 26.78125 53.3125 
Q 30.421875 42.28125 30.421875 31.390625 
Q 30.421875 20.453125 26.78125 9.375 
Q 23.140625 -1.703125 15.828125 -13.1875 
L 8.015625 -13.1875 
Q 14.5 -2 17.703125 9.0625 
Q 20.90625 20.125 20.90625 31.390625 
Q 20.90625 42.671875 17.703125 53.65625 
Q 14.5 64.65625 8.015625 75.875 
z
" id="DejaVuSans-41"/>
     </defs>
     <g transform="translate(193.540469 316.706687)scale(0.1 -0.1)">
      <use xlink:href="#DejaVuSans-73"/>
      <use x="29.492188" xlink:href="#DejaVuSans-116"/>
      <use x="68.701172" xlink:href="#DejaVuSans-101"/>
      <use x="130.224609" xlink:href="#DejaVuSans-114"/>
      <use x="171.337891" xlink:href="#DejaVuSans-97"/>
      <use x="232.617188" xlink:href="#DejaVuSans-116"/>
      <use x="271.826172" xlink:href="#DejaVuSans-105"/>
      <use x="299.609375" xlink:href="#DejaVuSans-111"/>
      <use x="360.791016" xlink:href="#DejaVuSans-110"/>
      <use x="424.169922" xlink:href="#DejaVuSans-32"/>
      <use x="455.957031" xlink:href="#DejaVuSans-40"/>
      <use x="494.970703" xlink:href="#DejaVuSans-67"/>
      <use x="564.794922" xlink:href="#DejaVuSans-121"/>
      <use x="623.974609" xlink:href="#DejaVuSans-99"/>
      <use x="678.955078" xlink:href="#DejaVuSans-108"/>
      <use x="706.738281" xlink:href="#DejaVuSans-101"/>
      <use x="768.261719" xlink:href="#DejaVuSans-41"/>
     </g>
    </g>
   </g>
   <g id="matplotlib.axis_2">
    <g id="ytick_1">
     <g id="line2d_7">
      <defs>
       <path d="M 0 0 
L -3.5 0 
" id="m35dce86097" style="stroke:#000000;stroke-width:0.8;"/>
      </defs>
      <g>
       <use style="stroke:#000000;stroke-width:0.8;" x="55.345313" xlink:href="#m35dce86097" y="265.62733"/>
      </g>
     </g>
     <g id="text_8">
      <!-- −500 -->
      <defs>
       <path d="M 10.59375 35.5 
L 73.1875 35.5 
L 73.1875 27.203125 
L 10.59375 27.203125 
z
" id="DejaVuSans-8722"/>
      </defs>
      <g transform="translate(20.878125 269.426549)scale(0.1 -0.1)">
       <use xlink:href="#DejaVuSans-8722"/>
       <use x="83.789062" xlink:href="#DejaVuSans-53"/>
       <use x="147.412109" xlink:href="#DejaVuSans-48"/>
       <use x="211.035156" xlink:href="#DejaVuSans-48"/>
      </g>
     </g>
    </g>
    <g id="ytick_2">
     <g id="line2d_8">
      <g>
       <use style="stroke:#000000;stroke-width:0.8;" x="55.345313" xlink:href="#m35dce86097" y="232.596872"/>
      </g>
     </g>
     <g id="text_9">
      <!-- −400 -->
      <defs>
       <path d="M 37.796875 64.3125 
L 12.890625 25.390625 
L 37.796875 25.390625 
z
M 35.203125 72.90625 
L 47.609375 72.90625 
L 47.609375 25.390625 
L 58.015625 25.390625 
L 58.015625 17.1875 
L 47.609375 17.1875 
L 47.609375 0 
L 37.796875 0 
L 37.796875 17.1875 
L 4.890625 17.1875 
L 4.890625 26.703125 
z
" id="DejaVuSans-52"/>
      </defs>
      <g transform="translate(20.878125 236.396091)scale(0.1 -0.1)">
       <use xlink:href="#DejaVuSans-8722"/>
       <use x="83.789062" xlink:href="#DejaVuSans-52"/>
       <use x="147.412109" xlink:href="#DejaVuSans-48"/>
       <use x="211.035156" xlink:href="#DejaVuSans-48"/>
      </g>
     </g>
    </g>
    <g id="ytick_3">
     <g id="line2d_9">
      <g>
       <use style="stroke:#000000;stroke-width:0.8;" x="55.345313" xlink:href="#m35dce86097" y="199.566414"/>
      </g>
     </g>
     <g id="text_10">
      <!-- −300 -->
      <defs>
       <path d="M 40.578125 39.3125 
Q 47.65625 37.796875 51.625 33 
Q 55.609375 28.21875 55.609375 21.1875 
Q 55.609375 10.40625 48.1875 4.484375 
Q 40.765625 -1.421875 27.09375 -1.421875 
Q 22.515625 -1.421875 17.65625 -0.515625 
Q 12.796875 0.390625 7.625 2.203125 
L 7.625 11.71875 
Q 11.71875 9.328125 16.59375 8.109375 
Q 21.484375 6.890625 26.8125 6.890625 
Q 36.078125 6.890625 40.9375 10.546875 
Q 45.796875 14.203125 45.796875 21.1875 
Q 45.796875 27.640625 41.28125 31.265625 
Q 36.765625 34.90625 28.71875 34.90625 
L 20.21875 34.90625 
L 20.21875 43.015625 
L 29.109375 43.015625 
Q 36.375 43.015625 40.234375 45.921875 
Q 44.09375 48.828125 44.09375 54.296875 
Q 44.09375 59.90625 40.109375 62.90625 
Q 36.140625 65.921875 28.71875 65.921875 
Q 24.65625 65.921875 20.015625 65.03125 
Q 15.375 64.15625 9.8125 62.3125 
L 9.8125 71.09375 
Q 15.4375 72.65625 20.34375 73.4375 
Q 25.25 74.21875 29.59375 74.21875 
Q 40.828125 74.21875 47.359375 69.109375 
Q 53.90625 64.015625 53.90625 55.328125 
Q 53.90625 49.265625 50.4375 45.09375 
Q 46.96875 40.921875 40.578125 39.3125 
z
" id="DejaVuSans-51"/>
      </defs>
      <g transform="translate(20.878125 203.365633)scale(0.1 -0.1)">
       <use xlink:href="#DejaVuSans-8722"/>
       <use x="83.789062" xlink:href="#DejaVuSans-51"/>
       <use x="147.412109" xlink:href="#DejaVuSans-48"/>
       <use x="211.035156" xlink:href="#DejaVuSans-48"/>
      </g>
     </g>
    </g>
    <g id="ytick_4">
     <g id="line2d_10">
      <g>
       <use style="stroke:#000000;stroke-width:0.8;" x="55.345313" xlink:href="#m35dce86097" y="166.535956"/>
      </g>
     </g>
     <g id="text_11">
      <!-- −200 -->
      <g transform="translate(20.878125 170.335175)scale(0.1 -0.1)">
       <use xlink:href="#DejaVuSans-8722"/>
       <use x="83.789062" xlink:href="#DejaVuSans-50"/>
       <use x="147.412109" xlink:href="#DejaVuSans-48"/>
       <use x="211.035156" xlink:href="#DejaVuSans-48"/>
      </g>
     </g>
    </g>
    <g id="ytick_5">
     <g id="line2d_11">
      <g>
       <use style="stroke:#000000;stroke-width:0.8;" x="55.345313" xlink:href="#m35dce86097" y="133.505498"/>
      </g>
     </g>
     <g id="text_12">
      <!-- −100 -->
      <g transform="translate(20.878125 137.304717)scale(0.1 -0.1)">
       <use xlink:href="#DejaVuSans-8722"/>
       <use x="83.789062" xlink:href="#DejaVuSans-49"/>
       <use x="147.412109" xlink:href="#DejaVuSans-48"/>
       <use x="211.035156" xlink:href="#DejaVuSans-48"/>
      </g>
     </g>
    </g>
    <g id="ytick_6">
     <g id="line2d_12">
      <g>
       <use style="stroke:#000000;stroke-width:0.8;" x="55.345313" xlink:href="#m35dce86097" y="100.475041"/>
      </g>
     </g>
     <g id="text_13">
      <!-- 0 -->
      <g transform="translate(41.982813 104.274259)scale(0.1 -0.1)">
       <use xlink:href="#DejaVuSans-48"/>
      </g>
     </g>
    </g>
    <g id="ytick_7">
     <g id="line2d_13">
      <g>
       <use style="stroke:#000000;stroke-width:0.8;" x="55.345313" xlink:href="#m35dce86097" y="67.444583"/>
      </g>
     </g>
     <g id="text_14">
      <!-- 100 -->
      <g transform="translate(29.257813 71.243802)scale(0.1 -0.1)">
       <use xlink:href="#DejaVuSans-49"/>
       <use x="63.623047" xlink:href="#DejaVuSans-48"/>
       <use x="127.246094" xlink:href="#DejaVuSans-48"/>
      </g>
     </g>
    </g>
    <g id="ytick_8">
     <g id="line2d_14">
      <g>
       <use style="stroke:#000000;stroke-width:0.8;" x="55.345313" xlink:href="#m35dce86097" y="34.414125"/>
      </g>
     </g>
     <g id="text_15">
      <!-- 200 -->
      <g transform="translate(29.257813 38.213344)scale(0.1 -0.1)">
       <use xlink:href="#DejaVuSans-50"/>
       <use x="63.623047" xlink:href="#DejaVuSans-48"/>
       <use x="127.246094" xlink:href="#DejaVuSans-48"/>
      </g>
     </g>
    </g>
    <g id="text_16">
     <!-- Mean Episode Reward -->
     <defs>
      <path d="M 9.8125 72.90625 
L 24.515625 72.90625 
L 43.109375 23.296875 
L 61.8125 72.90625 
L 76.515625 72.90625 
L 76.515625 0 
L 66.890625 0 
L 66.890625 64.015625 
L 48.09375 14.015625 
L 38.1875 14.015625 
L 19.390625 64.015625 
L 19.390625 0 
L 9.8125 0 
z
" id="DejaVuSans-77"/>
      <path d="M 9.8125 72.90625 
L 55.90625 72.90625 
L 55.90625 64.59375 
L 19.671875 64.59375 
L 19.671875 43.015625 
L 54.390625 43.015625 
L 54.390625 34.71875 
L 19.671875 34.71875 
L 19.671875 8.296875 
L 56.78125 8.296875 
L 56.78125 0 
L 9.8125 0 
z
" id="DejaVuSans-69"/>
      <path d="M 18.109375 8.203125 
L 18.109375 -20.796875 
L 9.078125 -20.796875 
L 9.078125 54.6875 
L 18.109375 54.6875 
L 18.109375 46.390625 
Q 20.953125 51.265625 25.265625 53.625 
Q 29.59375 56 35.59375 56 
Q 45.5625 56 51.78125 48.09375 
Q 58.015625 40.1875 58.015625 27.296875 
Q 58.015625 14.40625 51.78125 6.484375 
Q 45.5625 -1.421875 35.59375 -1.421875 
Q 29.59375 -1.421875 25.265625 0.953125 
Q 20.953125 3.328125 18.109375 8.203125 
z
M 48.6875 27.296875 
Q 48.6875 37.203125 44.609375 42.84375 
Q 40.53125 48.484375 33.40625 48.484375 
Q 26.265625 48.484375 22.1875 42.84375 
Q 18.109375 37.203125 18.109375 27.296875 
Q 18.109375 17.390625 22.1875 11.75 
Q 26.265625 6.109375 33.40625 6.109375 
Q 40.53125 6.109375 44.609375 11.75 
Q 48.6875 17.390625 48.6875 27.296875 
z
" id="DejaVuSans-112"/>
      <path d="M 44.28125 53.078125 
L 44.28125 44.578125 
Q 40.484375 46.53125 36.375 47.5 
Q 32.28125 48.484375 27.875 48.484375 
Q 21.1875 48.484375 17.84375 46.4375 
Q 14.5 44.390625 14.5 40.28125 
Q 14.5 37.15625 16.890625 35.375 
Q 19.28125 33.59375 26.515625 31.984375 
L 29.59375 31.296875 
Q 39.15625 29.25 43.1875 25.515625 
Q 47.21875 21.78125 47.21875 15.09375 
Q 47.21875 7.46875 41.1875 3.015625 
Q 35.15625 -1.421875 24.609375 -1.421875 
Q 20.21875 -1.421875 15.453125 -0.5625 
Q 10.6875 0.296875 5.421875 2 
L 5.421875 11.28125 
Q 10.40625 8.6875 15.234375 7.390625 
Q 20.0625 6.109375 24.8125 6.109375 
Q 31.15625 6.109375 34.5625 8.28125 
Q 37.984375 10.453125 37.984375 14.40625 
Q 37.984375 18.0625 35.515625 20.015625 
Q 33.0625 21.96875 24.703125 23.78125 
L 21.578125 24.515625 
Q 13.234375 26.265625 9.515625 29.90625 
Q 5.8125 33.546875 5.8125 39.890625 
Q 5.8125 47.609375 11.28125 51.796875 
Q 16.75 56 26.8125 56 
Q 31.78125 56 36.171875 55.265625 
Q 40.578125 54.546875 44.28125 53.078125 
z
" id="DejaVuSans-115"/>
      <path d="M 45.40625 46.390625 
L 45.40625 75.984375 
L 54.390625 75.984375 
L 54.390625 0 
L 45.40625 0 
L 45.40625 8.203125 
Q 42.578125 3.328125 38.25 0.953125 
Q 33.9375 -1.421875 27.875 -1.421875 
Q 17.96875 -1.421875 11.734375 6.484375 
Q 5.515625 14.40625 5.515625 27.296875 
Q 5.515625 40.1875 11.734375 48.09375 
Q 17.96875 56 27.875 56 
Q 33.9375 56 38.25 53.625 
Q 42.578125 51.265625 45.40625 46.390625 
z
M 14.796875 27.296875 
Q 14.796875 17.390625 18.875 11.75 
Q 22.953125 6.109375 30.078125 6.109375 
Q 37.203125 6.109375 41.296875 11.75 
Q 45.40625 17.390625 45.40625 27.296875 
Q 45.40625 37.203125 41.296875 42.84375 
Q 37.203125 48.484375 30.078125 48.484375 
Q 22.953125 48.484375 18.875 42.84375 
Q 14.796875 37.203125 14.796875 27.296875 
z
" id="DejaVuSans-100"/>
      <path d="M 44.390625 34.1875 
Q 47.5625 33.109375 50.5625 29.59375 
Q 53.5625 26.078125 56.59375 19.921875 
L 66.609375 0 
L 56 0 
L 46.6875 18.703125 
Q 43.0625 26.03125 39.671875 28.421875 
Q 36.28125 30.8125 30.421875 30.8125 
L 19.671875 30.8125 
L 19.671875 0 
L 9.8125 0 
L 9.8125 72.90625 
L 32.078125 72.90625 
Q 44.578125 72.90625 50.734375 67.671875 
Q 56.890625 62.453125 56.890625 51.90625 
Q 56.890625 45.015625 53.6875 40.46875 
Q 50.484375 35.9375 44.390625 34.1875 
z
M 19.671875 64.796875 
L 19.671875 38.921875 
L 32.078125 38.921875 
Q 39.203125 38.921875 42.84375 42.21875 
Q 46.484375 45.515625 46.484375 51.90625 
Q 46.484375 58.296875 42.84375 61.546875 
Q 39.203125 64.796875 32.078125 64.796875 
z
" id="DejaVuSans-82"/>
      <path d="M 4.203125 54.6875 
L 13.1875 54.6875 
L 24.421875 12.015625 
L 35.59375 54.6875 
L 46.1875 54.6875 
L 57.421875 12.015625 
L 68.609375 54.6875 
L 77.59375 54.6875 
L 63.28125 0 
L 52.6875 0 
L 40.921875 44.828125 
L 29.109375 0 
L 18.5 0 
z
" id="DejaVuSans-119"/>
     </defs>
     <g transform="translate(14.798438 210.742875)rotate(-90)scale(0.1 -0.1)">
      <use xlink:href="#DejaVuSans-77"/>
      <use x="86.279297" xlink:href="#DejaVuSans-101"/>
      <use x="147.802734" xlink:href="#DejaVuSans-97"/>
      <use x="209.082031" xlink:href="#DejaVuSans-110"/>
      <use x="272.460938" xlink:href="#DejaVuSans-32"/>
      <use x="304.248047" xlink:href="#DejaVuSans-69"/>
      <use x="367.431641" xlink:href="#DejaVuSans-112"/>
      <use x="430.908203" xlink:href="#DejaVuSans-105"/>
      <use x="458.691406" xlink:href="#DejaVuSans-115"/>
      <use x="510.791016" xlink:href="#DejaVuSans-111"/>
      <use x="571.972656" xlink:href="#DejaVuSans-100"/>
      <use x="635.449219" xlink:href="#DejaVuSans-101"/>
      <use x="696.972656" xlink:href="#DejaVuSans-32"/>
      <use x="728.759766" xlink:href="#DejaVuSans-82"/>
      <use x="798.179688" xlink:href="#DejaVuSans-101"/>
      <use x="859.703125" xlink:href="#DejaVuSans-119"/>
      <use x="941.490234" xlink:href="#DejaVuSans-97"/>
      <use x="1002.769531" xlink:href="#DejaVuSans-114"/>
      <use x="1043.867188" xlink:href="#DejaVuSans-100"/>
     </g>
    </g>
   </g>
   <g id="line2d_15">
    <path clip-path="url(#p0618ac652d)" d="M 71.57804 274.295004 
L 76.835603 243.944388 
L 78.149994 235.38477 
L 79.464385 223.320925 
L 80.778776 213.795146 
L 82.093167 200.177377 
L 83.407558 190.83338 
L 84.721948 185.505085 
L 86.036339 182.235467 
L 87.35073 179.797961 
L 88.665121 175.651201 
L 91.293903 172.938931 
L 92.608294 166.886542 
L 93.922685 158.631952 
L 95.237075 154.305411 
L 96.551466 153.76625 
L 97.865857 157.62129 
L 99.180248 165.150104 
L 101.80903 186.531755 
L 103.123421 197.971523 
L 104.437812 206.322122 
L 105.752202 209.238285 
L 107.066593 204.718429 
L 108.380984 199.661568 
L 109.695375 192.877301 
L 111.009766 188.481026 
L 112.324157 183.523552 
L 113.638548 180.173263 
L 114.952939 178.384537 
L 116.267329 179.892309 
L 117.58172 179.499869 
L 118.896111 180.220623 
L 120.210502 180.193419 
L 121.524893 177.083499 
L 122.839284 175.87727 
L 124.153675 178.144153 
L 125.468066 176.32555 
L 126.782456 173.895172 
L 128.096847 171.214385 
L 130.725629 164.092801 
L 132.04002 162.555983 
L 133.354411 161.324957 
L 134.668802 162.503682 
L 135.983193 166.779949 
L 137.297583 172.267902 
L 138.611974 176.337008 
L 139.926365 178.57481 
L 141.240756 181.585722 
L 142.555147 183.546884 
L 143.869538 187.497847 
L 145.183929 188.045031 
L 146.498319 189.283615 
L 147.81271 189.776099 
L 149.127101 188.852277 
L 150.441492 180.74304 
L 151.755883 177.444219 
L 153.070274 171.692867 
L 154.384665 168.621158 
L 155.699056 162.833663 
L 157.013446 159.519714 
L 158.327837 156.797985 
L 159.642228 156.724322 
L 162.27101 158.432735 
L 163.585401 157.885666 
L 164.899792 166.025886 
L 166.214183 169.098203 
L 167.528573 174.701998 
L 168.842964 176.62763 
L 170.157355 177.720952 
L 171.471746 179.101182 
L 172.786137 181.183201 
L 174.100528 181.197883 
L 175.414919 178.084614 
L 176.72931 177.161754 
L 178.0437 175.100597 
L 179.358091 171.345895 
L 180.672482 170.643632 
L 183.301264 171.043368 
L 184.615655 172.330184 
L 185.930046 174.78291 
L 187.244437 174.330726 
L 188.558827 170.78281 
L 189.873218 172.020928 
L 192.502 167.866563 
L 193.816391 166.116242 
L 195.130782 165.742538 
L 196.445173 164.8991 
L 197.759564 162.972052 
L 199.073954 161.986446 
L 200.388345 160.140307 
L 201.702736 156.503221 
L 203.017127 158.147431 
L 204.331518 158.072795 
L 205.645909 157.480067 
L 206.9603 157.391329 
L 208.27469 156.720412 
L 209.589081 155.454335 
L 210.903472 155.447047 
L 212.217863 155.583614 
L 213.532254 153.668919 
L 216.161036 150.427368 
L 217.475427 147.636926 
L 218.789817 145.876257 
L 220.104208 143.929371 
L 221.418599 140.605367 
L 222.73299 139.142305 
L 224.047381 139.293413 
L 225.361772 137.128083 
L 226.676163 134.123953 
L 227.990554 133.336337 
L 229.304944 131.662795 
L 230.619335 130.54649 
L 231.933726 131.300475 
L 233.248117 130.992885 
L 234.562508 131.141878 
L 235.876899 132.225836 
L 237.19129 131.286937 
L 238.505681 128.843106 
L 239.820071 127.498694 
L 241.134462 128.03949 
L 242.448853 127.947181 
L 243.763244 127.96901 
L 246.392026 130.529778 
L 247.706417 131.225941 
L 251.649589 128.889669 
L 252.96398 127.155242 
L 254.278371 127.440911 
L 255.592762 127.126532 
L 256.907153 128.601354 
L 259.535935 136.106662 
L 260.850325 136.862129 
L 262.164716 137.954451 
L 263.479107 139.710885 
L 264.793498 140.198364 
L 266.107889 138.638696 
L 268.736671 138.595729 
L 270.051061 139.61273 
L 271.365452 142.370598 
L 272.679843 144.575361 
L 273.994234 146.200078 
L 275.308625 147.565152 
L 276.623016 148.233922 
L 277.937407 147.603154 
L 279.251798 146.063647 
L 280.566188 145.944264 
L 281.880579 144.725559 
L 283.19497 144.724374 
L 284.509361 146.150859 
L 285.823752 149.87019 
L 287.138143 153.97054 
L 288.452534 156.411162 
L 291.081315 161.821316 
L 292.395706 164.343913 
L 293.710097 167.387624 
L 295.024488 167.695404 
L 297.65327 166.754618 
L 298.967661 166.922854 
L 301.596442 164.413015 
L 302.910833 164.259727 
L 304.225224 164.489386 
L 305.539615 164.942539 
L 306.854006 163.895114 
L 308.168397 162.222035 
L 309.482788 161.982751 
L 310.797179 161.509686 
L 312.111569 162.61503 
L 313.42596 162.91222 
L 314.740351 165.181149 
L 316.054742 167.195997 
L 317.369133 167.956968 
L 318.683524 169.086977 
L 319.997915 167.687709 
L 321.312306 168.285189 
L 322.626696 167.948456 
L 323.941087 165.931254 
L 325.255478 167.215274 
L 326.569869 165.273134 
L 327.88426 165.880016 
L 329.198651 165.954488 
L 330.513042 163.813675 
L 331.827432 163.504184 
L 333.141823 160.169501 
L 334.456214 157.884861 
L 335.770605 154.524012 
L 337.084996 153.302001 
L 338.399387 152.574795 
L 339.713778 150.843801 
L 341.028169 152.84634 
L 342.342559 153.925209 
L 343.65695 153.734522 
L 344.971341 153.777628 
L 346.285732 151.941928 
L 347.600123 150.714902 
L 348.914514 151.9661 
L 350.228905 153.94615 
L 351.543296 156.528653 
L 352.857686 162.169992 
L 354.172077 166.936843 
L 355.486468 170.209812 
L 356.800859 170.813181 
L 358.11525 169.581756 
L 360.744032 162.887439 
L 362.058423 161.810897 
L 363.372813 161.065239 
L 364.687204 161.865714 
L 366.001595 164.858426 
L 367.315986 165.410274 
L 368.630377 166.895613 
L 369.944768 166.461143 
L 371.259159 167.43052 
L 372.57355 166.723326 
L 373.88794 167.164851 
L 375.202331 168.000962 
L 376.516722 168.45814 
L 377.831113 166.790323 
L 379.145504 166.823701 
L 380.459895 167.280574 
L 383.088677 167.14204 
L 384.403067 168.203228 
L 385.717458 168.230025 
L 387.031849 167.463153 
L 388.34624 168.277927 
L 389.660631 168.591354 
L 390.975022 169.103918 
L 392.289413 170.464698 
L 393.603803 173.004607 
L 394.918194 177.054554 
L 396.232585 182.945451 
L 396.232585 182.945451 
" style="fill:none;stroke:#ff0000;stroke-linecap:square;stroke-width:1.5;"/>
   </g>
   <g id="line2d_16">
    <path clip-path="url(#p0618ac652d)" d="M 55.345313 34.414125 
L 412.465312 34.414125 
" style="fill:none;stroke:#008000;stroke-dasharray:3.7,1.6;stroke-dashoffset:0;"/>
   </g>
   <g id="patch_3">
    <path d="M 55.345313 288.430125 
L 55.345313 22.318125 
" style="fill:none;stroke:#000000;stroke-linecap:square;stroke-linejoin:miter;stroke-width:0.8;"/>
   </g>
   <g id="patch_4">
    <path d="M 412.465312 288.430125 
L 412.465312 22.318125 
" style="fill:none;stroke:#000000;stroke-linecap:square;stroke-linejoin:miter;stroke-width:0.8;"/>
   </g>
   <g id="patch_5">
    <path d="M 55.345313 288.430125 
L 412.465312 288.430125 
" style="fill:none;stroke:#000000;stroke-linecap:square;stroke-linejoin:miter;stroke-width:0.8;"/>
   </g>
   <g id="patch_6">
    <path d="M 55.345313 22.318125 
L 412.465312 22.318125 
" style="fill:none;stroke:#000000;stroke-linecap:square;stroke-linejoin:miter;stroke-width:0.8;"/>
   </g>
   <g id="text_17">
    <!-- Mean Rewards and Episode Lengths. -->
    <defs>
     <path d="M 9.1875 72.90625 
L 33.109375 72.90625 
L 49.703125 33.890625 
L 66.40625 72.90625 
L 90.28125 72.90625 
L 90.28125 0 
L 72.515625 0 
L 72.515625 53.328125 
L 55.71875 14.015625 
L 43.796875 14.015625 
L 27 53.328125 
L 27 0 
L 9.1875 0 
z
" id="DejaVuSans-Bold-77"/>
     <path d="M 62.984375 27.484375 
L 62.984375 22.515625 
L 22.125 22.515625 
Q 22.75 16.359375 26.5625 13.28125 
Q 30.375 10.203125 37.203125 10.203125 
Q 42.71875 10.203125 48.5 11.84375 
Q 54.296875 13.484375 60.40625 16.796875 
L 60.40625 3.328125 
Q 54.203125 0.984375 48 -0.21875 
Q 41.796875 -1.421875 35.59375 -1.421875 
Q 20.75 -1.421875 12.515625 6.125 
Q 4.296875 13.671875 4.296875 27.296875 
Q 4.296875 40.671875 12.375 48.328125 
Q 20.453125 56 34.625 56 
Q 47.515625 56 55.25 48.234375 
Q 62.984375 40.484375 62.984375 27.484375 
z
M 45.015625 33.296875 
Q 45.015625 38.28125 42.109375 41.328125 
Q 39.203125 44.390625 34.515625 44.390625 
Q 29.4375 44.390625 26.265625 41.53125 
Q 23.09375 38.671875 22.3125 33.296875 
z
" id="DejaVuSans-Bold-101"/>
     <path d="M 32.90625 24.609375 
Q 27.4375 24.609375 24.671875 22.75 
Q 21.921875 20.90625 21.921875 17.28125 
Q 21.921875 13.96875 24.140625 12.078125 
Q 26.375 10.203125 30.328125 10.203125 
Q 35.25 10.203125 38.625 13.734375 
Q 42 17.28125 42 22.609375 
L 42 24.609375 
z
M 59.625 31.203125 
L 59.625 0 
L 42 0 
L 42 8.109375 
Q 38.484375 3.125 34.078125 0.84375 
Q 29.6875 -1.421875 23.390625 -1.421875 
Q 14.890625 -1.421875 9.59375 3.53125 
Q 4.296875 8.5 4.296875 16.40625 
Q 4.296875 26.03125 10.90625 30.515625 
Q 17.53125 35.015625 31.6875 35.015625 
L 42 35.015625 
L 42 36.375 
Q 42 40.53125 38.71875 42.453125 
Q 35.453125 44.390625 28.515625 44.390625 
Q 22.90625 44.390625 18.0625 43.265625 
Q 13.234375 42.140625 9.078125 39.890625 
L 9.078125 53.21875 
Q 14.703125 54.59375 20.359375 55.296875 
Q 26.03125 56 31.6875 56 
Q 46.484375 56 53.046875 50.171875 
Q 59.625 44.34375 59.625 31.203125 
z
" id="DejaVuSans-Bold-97"/>
     <path d="M 63.375 33.296875 
L 63.375 0 
L 45.796875 0 
L 45.796875 5.421875 
L 45.796875 25.484375 
Q 45.796875 32.5625 45.484375 35.25 
Q 45.171875 37.9375 44.390625 39.203125 
Q 43.359375 40.921875 41.59375 41.875 
Q 39.84375 42.828125 37.59375 42.828125 
Q 32.125 42.828125 29 38.59375 
Q 25.875 34.375 25.875 26.90625 
L 25.875 0 
L 8.40625 0 
L 8.40625 54.6875 
L 25.875 54.6875 
L 25.875 46.6875 
Q 29.828125 51.46875 34.265625 53.734375 
Q 38.71875 56 44.09375 56 
Q 53.5625 56 58.46875 50.1875 
Q 63.375 44.390625 63.375 33.296875 
z
" id="DejaVuSans-Bold-110"/>
     <path id="DejaVuSans-Bold-32"/>
     <path d="M 35.890625 40.578125 
Q 41.796875 40.578125 44.359375 42.765625 
Q 46.921875 44.96875 46.921875 50 
Q 46.921875 54.984375 44.359375 57.125 
Q 41.796875 59.28125 35.890625 59.28125 
L 27.984375 59.28125 
L 27.984375 40.578125 
z
M 27.984375 27.59375 
L 27.984375 0 
L 9.1875 0 
L 9.1875 72.90625 
L 37.890625 72.90625 
Q 52.296875 72.90625 59 68.0625 
Q 65.71875 63.234375 65.71875 52.78125 
Q 65.71875 45.5625 62.21875 40.921875 
Q 58.734375 36.28125 51.703125 34.078125 
Q 55.5625 33.203125 58.609375 30.09375 
Q 61.671875 27 64.796875 20.703125 
L 75 0 
L 54.984375 0 
L 46.09375 18.109375 
Q 43.40625 23.578125 40.640625 25.578125 
Q 37.890625 27.59375 33.296875 27.59375 
z
" id="DejaVuSans-Bold-82"/>
     <path d="M 3.515625 54.6875 
L 20.515625 54.6875 
L 29.6875 17 
L 38.921875 54.6875 
L 53.515625 54.6875 
L 62.703125 17.390625 
L 71.921875 54.6875 
L 88.921875 54.6875 
L 74.515625 0 
L 55.421875 0 
L 46.1875 37.59375 
L 37.015625 0 
L 17.921875 0 
z
" id="DejaVuSans-Bold-119"/>
     <path d="M 49.03125 39.796875 
Q 46.734375 40.875 44.453125 41.375 
Q 42.1875 41.890625 39.890625 41.890625 
Q 33.15625 41.890625 29.515625 37.5625 
Q 25.875 33.25 25.875 25.203125 
L 25.875 0 
L 8.40625 0 
L 8.40625 54.6875 
L 25.875 54.6875 
L 25.875 45.703125 
Q 29.25 51.078125 33.609375 53.53125 
Q 37.984375 56 44.09375 56 
Q 44.96875 56 45.984375 55.921875 
Q 47.015625 55.859375 48.96875 55.609375 
z
" id="DejaVuSans-Bold-114"/>
     <path d="M 45.609375 46.6875 
L 45.609375 75.984375 
L 63.1875 75.984375 
L 63.1875 0 
L 45.609375 0 
L 45.609375 7.90625 
Q 42 3.078125 37.640625 0.828125 
Q 33.296875 -1.421875 27.59375 -1.421875 
Q 17.484375 -1.421875 10.984375 6.609375 
Q 4.5 14.65625 4.5 27.296875 
Q 4.5 39.9375 10.984375 47.96875 
Q 17.484375 56 27.59375 56 
Q 33.25 56 37.625 53.734375 
Q 42 51.46875 45.609375 46.6875 
z
M 34.078125 11.28125 
Q 39.703125 11.28125 42.65625 15.375 
Q 45.609375 19.484375 45.609375 27.296875 
Q 45.609375 35.109375 42.65625 39.203125 
Q 39.703125 43.3125 34.078125 43.3125 
Q 28.515625 43.3125 25.5625 39.203125 
Q 22.609375 35.109375 22.609375 27.296875 
Q 22.609375 19.484375 25.5625 15.375 
Q 28.515625 11.28125 34.078125 11.28125 
z
" id="DejaVuSans-Bold-100"/>
     <path d="M 51.125 52.984375 
L 51.125 39.703125 
Q 45.515625 42.046875 40.28125 43.21875 
Q 35.0625 44.390625 30.421875 44.390625 
Q 25.4375 44.390625 23.015625 43.140625 
Q 20.609375 41.890625 20.609375 39.3125 
Q 20.609375 37.203125 22.4375 36.078125 
Q 24.265625 34.96875 29 34.421875 
L 32.078125 33.984375 
Q 45.515625 32.28125 50.140625 28.375 
Q 54.78125 24.46875 54.78125 16.109375 
Q 54.78125 7.375 48.328125 2.96875 
Q 41.890625 -1.421875 29.109375 -1.421875 
Q 23.6875 -1.421875 17.890625 -0.5625 
Q 12.109375 0.296875 6 2 
L 6 15.28125 
Q 11.234375 12.75 16.71875 11.46875 
Q 22.21875 10.203125 27.875 10.203125 
Q 33.015625 10.203125 35.59375 11.609375 
Q 38.1875 13.03125 38.1875 15.828125 
Q 38.1875 18.171875 36.40625 19.3125 
Q 34.625 20.453125 29.296875 21.09375 
L 26.21875 21.484375 
Q 14.546875 22.953125 9.859375 26.90625 
Q 5.171875 30.859375 5.171875 38.921875 
Q 5.171875 47.609375 11.125 51.796875 
Q 17.09375 56 29.390625 56 
Q 34.234375 56 39.546875 55.265625 
Q 44.875 54.546875 51.125 52.984375 
z
" id="DejaVuSans-Bold-115"/>
     <path d="M 9.1875 72.90625 
L 59.90625 72.90625 
L 59.90625 58.6875 
L 27.984375 58.6875 
L 27.984375 45.125 
L 58.015625 45.125 
L 58.015625 30.90625 
L 27.984375 30.90625 
L 27.984375 14.203125 
L 60.984375 14.203125 
L 60.984375 0 
L 9.1875 0 
z
" id="DejaVuSans-Bold-69"/>
     <path d="M 25.875 7.90625 
L 25.875 -20.796875 
L 8.40625 -20.796875 
L 8.40625 54.6875 
L 25.875 54.6875 
L 25.875 46.6875 
Q 29.5 51.46875 33.890625 53.734375 
Q 38.28125 56 44 56 
Q 54.109375 56 60.59375 47.96875 
Q 67.09375 39.9375 67.09375 27.296875 
Q 67.09375 14.65625 60.59375 6.609375 
Q 54.109375 -1.421875 44 -1.421875 
Q 38.28125 -1.421875 33.890625 0.84375 
Q 29.5 3.125 25.875 7.90625 
z
M 37.5 43.3125 
Q 31.890625 43.3125 28.875 39.1875 
Q 25.875 35.0625 25.875 27.296875 
Q 25.875 19.53125 28.875 15.40625 
Q 31.890625 11.28125 37.5 11.28125 
Q 43.109375 11.28125 46.0625 15.375 
Q 49.03125 19.484375 49.03125 27.296875 
Q 49.03125 35.109375 46.0625 39.203125 
Q 43.109375 43.3125 37.5 43.3125 
z
" id="DejaVuSans-Bold-112"/>
     <path d="M 8.40625 54.6875 
L 25.875 54.6875 
L 25.875 0 
L 8.40625 0 
z
M 8.40625 75.984375 
L 25.875 75.984375 
L 25.875 61.71875 
L 8.40625 61.71875 
z
" id="DejaVuSans-Bold-105"/>
     <path d="M 34.421875 43.5 
Q 28.609375 43.5 25.5625 39.328125 
Q 22.515625 35.15625 22.515625 27.296875 
Q 22.515625 19.4375 25.5625 15.25 
Q 28.609375 11.078125 34.421875 11.078125 
Q 40.140625 11.078125 43.15625 15.25 
Q 46.1875 19.4375 46.1875 27.296875 
Q 46.1875 35.15625 43.15625 39.328125 
Q 40.140625 43.5 34.421875 43.5 
z
M 34.421875 56 
Q 48.53125 56 56.46875 48.375 
Q 64.40625 40.765625 64.40625 27.296875 
Q 64.40625 13.8125 56.46875 6.1875 
Q 48.53125 -1.421875 34.421875 -1.421875 
Q 20.265625 -1.421875 12.28125 6.1875 
Q 4.296875 13.8125 4.296875 27.296875 
Q 4.296875 40.765625 12.28125 48.375 
Q 20.265625 56 34.421875 56 
z
" id="DejaVuSans-Bold-111"/>
     <path d="M 9.1875 72.90625 
L 27.984375 72.90625 
L 27.984375 14.203125 
L 60.984375 14.203125 
L 60.984375 0 
L 9.1875 0 
z
" id="DejaVuSans-Bold-76"/>
     <path d="M 45.609375 9.28125 
Q 42 4.5 37.640625 2.25 
Q 33.296875 0 27.59375 0 
Q 17.578125 0 11.03125 7.875 
Q 4.5 15.765625 4.5 27.984375 
Q 4.5 40.234375 11.03125 48.0625 
Q 17.578125 55.90625 27.59375 55.90625 
Q 33.296875 55.90625 37.640625 53.65625 
Q 42 51.421875 45.609375 46.578125 
L 45.609375 54.6875 
L 63.1875 54.6875 
L 63.1875 5.515625 
Q 63.1875 -7.671875 54.859375 -14.625 
Q 46.53125 -21.578125 30.71875 -21.578125 
Q 25.59375 -21.578125 20.796875 -20.796875 
Q 16.015625 -20.015625 11.1875 -18.40625 
L 11.1875 -4.78125 
Q 15.765625 -7.421875 20.15625 -8.71875 
Q 24.5625 -10.015625 29 -10.015625 
Q 37.59375 -10.015625 41.59375 -6.25 
Q 45.609375 -2.484375 45.609375 5.515625 
z
M 34.078125 43.3125 
Q 28.65625 43.3125 25.625 39.296875 
Q 22.609375 35.296875 22.609375 27.984375 
Q 22.609375 20.453125 25.53125 16.578125 
Q 28.46875 12.703125 34.078125 12.703125 
Q 39.546875 12.703125 42.578125 16.703125 
Q 45.609375 20.703125 45.609375 27.984375 
Q 45.609375 35.296875 42.578125 39.296875 
Q 39.546875 43.3125 34.078125 43.3125 
z
" id="DejaVuSans-Bold-103"/>
     <path d="M 27.484375 70.21875 
L 27.484375 54.6875 
L 45.515625 54.6875 
L 45.515625 42.1875 
L 27.484375 42.1875 
L 27.484375 19 
Q 27.484375 15.1875 29 13.84375 
Q 30.515625 12.5 35.015625 12.5 
L 44 12.5 
L 44 0 
L 29 0 
Q 18.65625 0 14.328125 4.3125 
Q 10.015625 8.640625 10.015625 19 
L 10.015625 42.1875 
L 1.3125 42.1875 
L 1.3125 54.6875 
L 10.015625 54.6875 
L 10.015625 70.21875 
z
" id="DejaVuSans-Bold-116"/>
     <path d="M 63.375 33.296875 
L 63.375 0 
L 45.796875 0 
L 45.796875 5.421875 
L 45.796875 25.390625 
Q 45.796875 32.5625 45.484375 35.25 
Q 45.171875 37.9375 44.390625 39.203125 
Q 43.359375 40.921875 41.59375 41.875 
Q 39.84375 42.828125 37.59375 42.828125 
Q 32.125 42.828125 29 38.59375 
Q 25.875 34.375 25.875 26.90625 
L 25.875 0 
L 8.40625 0 
L 8.40625 75.984375 
L 25.875 75.984375 
L 25.875 46.6875 
Q 29.828125 51.46875 34.265625 53.734375 
Q 38.71875 56 44.09375 56 
Q 53.5625 56 58.46875 50.1875 
Q 63.375 44.390625 63.375 33.296875 
z
" id="DejaVuSans-Bold-104"/>
     <path d="M 10.203125 18.890625 
L 27.78125 18.890625 
L 27.78125 0 
L 10.203125 0 
z
" id="DejaVuSans-Bold-46"/>
    </defs>
    <g transform="translate(109.512188 16.318125)scale(0.12 -0.12)">
     <use xlink:href="#DejaVuSans-Bold-77"/>
     <use x="99.511719" xlink:href="#DejaVuSans-Bold-101"/>
     <use x="167.333984" xlink:href="#DejaVuSans-Bold-97"/>
     <use x="234.814453" xlink:href="#DejaVuSans-Bold-110"/>
     <use x="306.005859" xlink:href="#DejaVuSans-Bold-32"/>
     <use x="340.820312" xlink:href="#DejaVuSans-Bold-82"/>
     <use x="417.822266" xlink:href="#DejaVuSans-Bold-101"/>
     <use x="485.644531" xlink:href="#DejaVuSans-Bold-119"/>
     <use x="578.027344" xlink:href="#DejaVuSans-Bold-97"/>
     <use x="645.507812" xlink:href="#DejaVuSans-Bold-114"/>
     <use x="694.824219" xlink:href="#DejaVuSans-Bold-100"/>
     <use x="766.40625" xlink:href="#DejaVuSans-Bold-115"/>
     <use x="825.927734" xlink:href="#DejaVuSans-Bold-32"/>
     <use x="860.742188" xlink:href="#DejaVuSans-Bold-97"/>
     <use x="928.222656" xlink:href="#DejaVuSans-Bold-110"/>
     <use x="999.414062" xlink:href="#DejaVuSans-Bold-100"/>
     <use x="1070.996094" xlink:href="#DejaVuSans-Bold-32"/>
     <use x="1105.810547" xlink:href="#DejaVuSans-Bold-69"/>
     <use x="1174.121094" xlink:href="#DejaVuSans-Bold-112"/>
     <use x="1245.703125" xlink:href="#DejaVuSans-Bold-105"/>
     <use x="1279.980469" xlink:href="#DejaVuSans-Bold-115"/>
     <use x="1339.501953" xlink:href="#DejaVuSans-Bold-111"/>
     <use x="1408.203125" xlink:href="#DejaVuSans-Bold-100"/>
     <use x="1479.785156" xlink:href="#DejaVuSans-Bold-101"/>
     <use x="1547.607422" xlink:href="#DejaVuSans-Bold-32"/>
     <use x="1582.421875" xlink:href="#DejaVuSans-Bold-76"/>
     <use x="1646.142578" xlink:href="#DejaVuSans-Bold-101"/>
     <use x="1713.964844" xlink:href="#DejaVuSans-Bold-110"/>
     <use x="1785.15625" xlink:href="#DejaVuSans-Bold-103"/>
     <use x="1856.738281" xlink:href="#DejaVuSans-Bold-116"/>
     <use x="1904.541016" xlink:href="#DejaVuSans-Bold-104"/>
     <use x="1975.732422" xlink:href="#DejaVuSans-Bold-115"/>
     <use x="2035.253906" xlink:href="#DejaVuSans-Bold-46"/>
    </g>
   </g>
   <g id="legend_1">
    <g id="patch_7">
     <path d="M 116.00375 353.02505 
L 355.806875 353.02505 
Q 357.806875 353.02505 357.806875 351.02505 
L 357.806875 337.346925 
Q 357.806875 335.346925 355.806875 335.346925 
L 116.00375 335.346925 
Q 114.00375 335.346925 114.00375 337.346925 
L 114.00375 351.02505 
Q 114.00375 353.02505 116.00375 353.02505 
z
" style="fill:#4c4c4c;opacity:0.5;stroke:#4c4c4c;stroke-linejoin:miter;"/>
    </g>
    <g id="patch_8">
     <path d="M 114.00375 351.02505 
L 353.806875 351.02505 
Q 355.806875 351.02505 355.806875 349.02505 
L 355.806875 335.346925 
Q 355.806875 333.346925 353.806875 333.346925 
L 114.00375 333.346925 
Q 112.00375 333.346925 112.00375 335.346925 
L 112.00375 349.02505 
Q 112.00375 351.02505 114.00375 351.02505 
z
" style="fill:#ffffff;stroke:#cccccc;stroke-linejoin:miter;"/>
    </g>
    <g id="line2d_17">
     <path d="M 116.00375 341.445362 
L 136.00375 341.445362 
" style="fill:none;stroke:#ffa500;stroke-linecap:square;stroke-width:1.5;"/>
    </g>
    <g id="line2d_18"/>
    <g id="text_18">
     <!-- Episode Length -->
     <defs>
      <path d="M 9.8125 72.90625 
L 19.671875 72.90625 
L 19.671875 8.296875 
L 55.171875 8.296875 
L 55.171875 0 
L 9.8125 0 
z
" id="DejaVuSans-76"/>
      <path d="M 45.40625 27.984375 
Q 45.40625 37.75 41.375 43.109375 
Q 37.359375 48.484375 30.078125 48.484375 
Q 22.859375 48.484375 18.828125 43.109375 
Q 14.796875 37.75 14.796875 27.984375 
Q 14.796875 18.265625 18.828125 12.890625 
Q 22.859375 7.515625 30.078125 7.515625 
Q 37.359375 7.515625 41.375 12.890625 
Q 45.40625 18.265625 45.40625 27.984375 
z
M 54.390625 6.78125 
Q 54.390625 -7.171875 48.1875 -13.984375 
Q 42 -20.796875 29.203125 -20.796875 
Q 24.46875 -20.796875 20.265625 -20.09375 
Q 16.0625 -19.390625 12.109375 -17.921875 
L 12.109375 -9.1875 
Q 16.0625 -11.328125 19.921875 -12.34375 
Q 23.78125 -13.375 27.78125 -13.375 
Q 36.625 -13.375 41.015625 -8.765625 
Q 45.40625 -4.15625 45.40625 5.171875 
L 45.40625 9.625 
Q 42.625 4.78125 38.28125 2.390625 
Q 33.9375 0 27.875 0 
Q 17.828125 0 11.671875 7.65625 
Q 5.515625 15.328125 5.515625 27.984375 
Q 5.515625 40.671875 11.671875 48.328125 
Q 17.828125 56 27.875 56 
Q 33.9375 56 38.28125 53.609375 
Q 42.625 51.21875 45.40625 46.390625 
L 45.40625 54.6875 
L 54.390625 54.6875 
z
" id="DejaVuSans-103"/>
      <path d="M 54.890625 33.015625 
L 54.890625 0 
L 45.90625 0 
L 45.90625 32.71875 
Q 45.90625 40.484375 42.875 44.328125 
Q 39.84375 48.1875 33.796875 48.1875 
Q 26.515625 48.1875 22.3125 43.546875 
Q 18.109375 38.921875 18.109375 30.90625 
L 18.109375 0 
L 9.078125 0 
L 9.078125 75.984375 
L 18.109375 75.984375 
L 18.109375 46.1875 
Q 21.34375 51.125 25.703125 53.5625 
Q 30.078125 56 35.796875 56 
Q 45.21875 56 50.046875 50.171875 
Q 54.890625 44.34375 54.890625 33.015625 
z
" id="DejaVuSans-104"/>
     </defs>
     <g transform="translate(144.00375 344.945362)scale(0.1 -0.1)">
      <use xlink:href="#DejaVuSans-69"/>
      <use x="63.183594" xlink:href="#DejaVuSans-112"/>
      <use x="126.660156" xlink:href="#DejaVuSans-105"/>
      <use x="154.443359" xlink:href="#DejaVuSans-115"/>
      <use x="206.542969" xlink:href="#DejaVuSans-111"/>
      <use x="267.724609" xlink:href="#DejaVuSans-100"/>
      <use x="331.201172" xlink:href="#DejaVuSans-101"/>
      <use x="392.724609" xlink:href="#DejaVuSans-32"/>
      <use x="424.511719" xlink:href="#DejaVuSans-76"/>
      <use x="480.208984" xlink:href="#DejaVuSans-101"/>
      <use x="541.732422" xlink:href="#DejaVuSans-110"/>
      <use x="605.111328" xlink:href="#DejaVuSans-103"/>
      <use x="668.587891" xlink:href="#DejaVuSans-116"/>
      <use x="707.796875" xlink:href="#DejaVuSans-104"/>
     </g>
    </g>
    <g id="line2d_19">
     <path d="M 241.124063 341.445362 
L 261.124063 341.445362 
" style="fill:none;stroke:#ff0000;stroke-linecap:square;stroke-width:1.5;"/>
    </g>
    <g id="line2d_20"/>
    <g id="text_19">
     <!-- Average Reward -->
     <defs>
      <path d="M 34.1875 63.1875 
L 20.796875 26.90625 
L 47.609375 26.90625 
z
M 28.609375 72.90625 
L 39.796875 72.90625 
L 67.578125 0 
L 57.328125 0 
L 50.6875 18.703125 
L 17.828125 18.703125 
L 11.1875 0 
L 0.78125 0 
z
" id="DejaVuSans-65"/>
      <path d="M 2.984375 54.6875 
L 12.5 54.6875 
L 29.59375 8.796875 
L 46.6875 54.6875 
L 56.203125 54.6875 
L 35.6875 0 
L 23.484375 0 
z
" id="DejaVuSans-118"/>
     </defs>
     <g transform="translate(269.124063 344.945362)scale(0.1 -0.1)">
      <use xlink:href="#DejaVuSans-65"/>
      <use x="68.330078" xlink:href="#DejaVuSans-118"/>
      <use x="127.509766" xlink:href="#DejaVuSans-101"/>
      <use x="189.033203" xlink:href="#DejaVuSans-114"/>
      <use x="230.146484" xlink:href="#DejaVuSans-97"/>
      <use x="291.425781" xlink:href="#DejaVuSans-103"/>
      <use x="354.902344" xlink:href="#DejaVuSans-101"/>
      <use x="416.425781" xlink:href="#DejaVuSans-32"/>
      <use x="448.212891" xlink:href="#DejaVuSans-82"/>
      <use x="517.632812" xlink:href="#DejaVuSans-101"/>
      <use x="579.15625" xlink:href="#DejaVuSans-119"/>
      <use x="660.943359" xlink:href="#DejaVuSans-97"/>
      <use x="722.222656" xlink:href="#DejaVuSans-114"/>
      <use x="763.320312" xlink:href="#DejaVuSans-100"/>
     </g>
    </g>
   </g>
   <g id="line2d_21">
    <path clip-path="url(#p0618ac652d)" d="M 71.57804 276.334125 
L 72.892431 268.67261 
L 74.206822 242.732478 
L 75.521212 261.911185 
L 76.835603 254.188613 
L 78.149994 234.906319 
L 79.464385 222.382095 
L 80.778776 201.118124 
L 82.093167 210.339632 
L 83.407558 196.458016 
L 84.721948 168.913275 
L 86.036339 190.740961 
L 87.35073 173.503969 
L 88.665121 177.467215 
L 89.979512 180.342313 
L 91.293903 174.643602 
L 92.608294 164.636809 
L 93.922685 161.101587 
L 95.237075 158.245913 
L 96.551466 153.143221 
L 97.865857 147.306872 
L 99.180248 144.194866 
L 100.494639 196.937584 
L 101.80903 190.087074 
L 103.123421 197.09558 
L 104.437812 205.432263 
L 105.752202 210.841061 
L 107.066593 204.568504 
L 108.380984 205.548496 
L 109.695375 193.894578 
L 111.009766 186.620525 
L 112.324157 177.231566 
L 113.638548 167.008033 
L 114.952939 189.048838 
L 116.267329 191.080747 
L 117.58172 171.465581 
L 118.896111 178.211536 
L 120.210502 182.320776 
L 121.524893 179.909551 
L 122.839284 168.739348 
L 124.153675 182.217258 
L 126.782456 171.836951 
L 128.096847 171.938474 
L 129.411238 177.341991 
L 130.725629 158.645897 
L 132.04002 158.854634 
L 133.354411 158.157682 
L 134.668802 161.301491 
L 135.983193 173.703615 
L 137.297583 166.511419 
L 138.611974 174.024956 
L 139.926365 187.498568 
L 141.240756 186.101586 
L 142.555147 175.718522 
L 143.869538 184.452895 
L 145.183929 183.240311 
L 146.498319 197.482236 
L 147.81271 189.746358 
L 149.127101 191.783346 
L 150.441492 180.449924 
L 151.755883 183.618664 
L 153.070274 164.260396 
L 154.384665 161.714345 
L 155.699056 153.422507 
L 157.013446 185.439576 
L 158.327837 153.182607 
L 159.642228 155.080958 
L 160.956619 143.756209 
L 162.27101 160.552681 
L 163.585401 162.165168 
L 164.899792 166.202227 
L 166.214183 175.209168 
L 167.528573 168.22373 
L 168.842964 174.902179 
L 170.157355 184.947703 
L 171.471746 171.071192 
L 172.786137 190.346197 
L 174.100528 175.242203 
L 175.414919 174.93573 
L 176.72931 185.369479 
L 178.0437 178.792304 
L 179.358091 161.196324 
L 181.986873 179.146558 
L 183.301264 160.133976 
L 184.615655 174.558157 
L 185.930046 175.3997 
L 187.244437 182.367711 
L 188.558827 170.510639 
L 189.873218 166.503196 
L 191.187609 172.872917 
L 192.502 164.301955 
L 193.816391 157.270599 
L 195.130782 182.29995 
L 196.445173 163.072916 
L 197.759564 157.824252 
L 199.073954 162.016829 
L 200.388345 159.054313 
L 201.702736 160.652605 
L 203.017127 155.786986 
L 205.645909 157.448464 
L 206.9603 157.265036 
L 208.27469 160.640751 
L 209.589081 154.260094 
L 210.903472 155.707385 
L 212.217863 153.062404 
L 213.532254 151.365956 
L 214.846645 151.298668 
L 216.161036 160.440226 
L 217.475427 147.616684 
L 218.789817 137.729239 
L 220.104208 145.402388 
L 221.418599 139.128691 
L 222.73299 139.858596 
L 224.047381 142.578863 
L 225.361772 136.306165 
L 226.676163 132.196714 
L 227.990554 140.153297 
L 229.304944 126.319844 
L 230.619335 124.406353 
L 231.933726 134.861995 
L 233.248117 135.056264 
L 234.562508 129.164114 
L 235.876899 132.219802 
L 237.19129 132.784067 
L 238.505681 126.674667 
L 239.820071 132.011103 
L 241.134462 124.487024 
L 242.448853 126.13063 
L 243.763244 126.50336 
L 245.077635 130.219218 
L 246.392026 135.305224 
L 247.706417 128.709864 
L 249.020808 128.722711 
L 250.335198 133.589402 
L 251.649589 130.384151 
L 252.96398 121.518173 
L 254.278371 127.520754 
L 255.592762 130.329241 
L 256.907153 129.587559 
L 258.221544 125.395014 
L 259.535935 136.709021 
L 260.850325 136.696443 
L 262.164716 145.743972 
L 263.479107 142.038374 
L 264.793498 136.029782 
L 266.107889 132.566069 
L 267.42228 141.487744 
L 268.736671 142.210245 
L 270.051061 137.152979 
L 271.365452 140.82627 
L 272.679843 146.406998 
L 273.994234 144.355177 
L 275.308625 145.194819 
L 276.623016 154.298147 
L 277.937407 148.53728 
L 279.251798 148.02357 
L 280.566188 140.967541 
L 281.880579 142.995324 
L 283.19497 145.810536 
L 284.509361 145.609057 
L 285.823752 152.436375 
L 287.138143 149.150551 
L 288.452534 159.33874 
L 289.766925 157.49533 
L 291.081315 169.086048 
L 292.395706 160.30154 
L 293.710097 162.073329 
L 295.024488 169.645827 
L 296.338879 169.386915 
L 297.65327 171.700217 
L 298.967661 167.14728 
L 300.282052 159.416872 
L 301.596442 161.617051 
L 302.910833 169.047536 
L 304.225224 162.144648 
L 305.539615 165.803523 
L 306.854006 166.271665 
L 308.168397 164.631372 
L 309.482788 161.485739 
L 310.797179 156.981931 
L 312.111569 157.049695 
L 313.42596 168.013666 
L 314.740351 170.073481 
L 316.054742 161.070285 
L 317.369133 174.918449 
L 318.683524 161.818014 
L 319.997915 173.385349 
L 321.312306 164.91635 
L 322.626696 165.795015 
L 323.941087 173.295908 
L 325.255478 161.39717 
L 326.569869 169.306687 
L 327.88426 159.607079 
L 329.198651 166.593846 
L 330.513042 169.296402 
L 331.827432 158.48594 
L 333.141823 166.545585 
L 334.456214 159.124515 
L 335.770605 148.072362 
L 337.084996 155.558197 
L 338.399387 147.184132 
L 339.713778 153.564838 
L 341.028169 155.19851 
L 342.342559 156.156867 
L 343.65695 148.585745 
L 346.285732 159.393652 
L 347.600123 147.794083 
L 348.914514 152.361601 
L 350.228905 149.391329 
L 351.543296 153.576543 
L 352.857686 161.227813 
L 354.172077 171.528103 
L 355.486468 168.045206 
L 356.800859 177.308219 
L 358.11525 176.25746 
L 359.429641 157.61179 
L 360.744032 164.938834 
L 362.058423 154.471926 
L 363.372813 163.314835 
L 364.687204 160.601384 
L 367.315986 170.677863 
L 368.630377 166.554785 
L 369.944768 163.204129 
L 371.259159 168.495179 
L 372.57355 164.699342 
L 373.88794 167.444659 
L 375.202331 168.608613 
L 376.516722 170.7482 
L 377.831113 164.84833 
L 379.145504 170.515208 
L 380.459895 164.390281 
L 381.774286 165.26605 
L 383.088677 162.947435 
L 384.403067 174.549119 
L 385.717458 171.854053 
L 387.031849 164.448351 
L 389.660631 170.132234 
L 390.975022 166.004438 
L 392.289413 166.155377 
L 393.603803 183.529738 
L 394.918194 174.377929 
L 396.232585 181.630875 
L 396.232585 181.630875 
" style="fill:none;stroke:#ff0000;stroke-linecap:square;stroke-opacity:0.3;stroke-width:1.5;"/>
   </g>
  </g>
  <g id="axes_2">
   <g id="matplotlib.axis_3">
    <g id="ytick_9">
     <g id="line2d_22">
      <defs>
       <path d="M 0 0 
L 3.5 0 
" id="ma079c8b0d0" style="stroke:#000000;stroke-width:0.8;"/>
      </defs>
      <g>
       <use style="stroke:#000000;stroke-width:0.8;" x="412.465312" xlink:href="#ma079c8b0d0" y="258.22547"/>
      </g>
     </g>
     <g id="text_20">
      <!-- 100 -->
      <g transform="translate(419.465312 262.024689)scale(0.1 -0.1)">
       <use xlink:href="#DejaVuSans-49"/>
       <use x="63.623047" xlink:href="#DejaVuSans-48"/>
       <use x="127.246094" xlink:href="#DejaVuSans-48"/>
      </g>
     </g>
    </g>
    <g id="ytick_10">
     <g id="line2d_23">
      <g>
       <use style="stroke:#000000;stroke-width:0.8;" x="412.465312" xlink:href="#ma079c8b0d0" y="222.358267"/>
      </g>
     </g>
     <g id="text_21">
      <!-- 125 -->
      <g transform="translate(419.465312 226.157486)scale(0.1 -0.1)">
       <use xlink:href="#DejaVuSans-49"/>
       <use x="63.623047" xlink:href="#DejaVuSans-50"/>
       <use x="127.246094" xlink:href="#DejaVuSans-53"/>
      </g>
     </g>
    </g>
    <g id="ytick_11">
     <g id="line2d_24">
      <g>
       <use style="stroke:#000000;stroke-width:0.8;" x="412.465312" xlink:href="#ma079c8b0d0" y="186.491065"/>
      </g>
     </g>
     <g id="text_22">
      <!-- 150 -->
      <g transform="translate(419.465312 190.290283)scale(0.1 -0.1)">
       <use xlink:href="#DejaVuSans-49"/>
       <use x="63.623047" xlink:href="#DejaVuSans-53"/>
       <use x="127.246094" xlink:href="#DejaVuSans-48"/>
      </g>
     </g>
    </g>
    <g id="ytick_12">
     <g id="line2d_25">
      <g>
       <use style="stroke:#000000;stroke-width:0.8;" x="412.465312" xlink:href="#ma079c8b0d0" y="150.623862"/>
      </g>
     </g>
     <g id="text_23">
      <!-- 175 -->
      <defs>
       <path d="M 8.203125 72.90625 
L 55.078125 72.90625 
L 55.078125 68.703125 
L 28.609375 0 
L 18.3125 0 
L 43.21875 64.59375 
L 8.203125 64.59375 
z
" id="DejaVuSans-55"/>
      </defs>
      <g transform="translate(419.465312 154.423081)scale(0.1 -0.1)">
       <use xlink:href="#DejaVuSans-49"/>
       <use x="63.623047" xlink:href="#DejaVuSans-55"/>
       <use x="127.246094" xlink:href="#DejaVuSans-53"/>
      </g>
     </g>
    </g>
    <g id="ytick_13">
     <g id="line2d_26">
      <g>
       <use style="stroke:#000000;stroke-width:0.8;" x="412.465312" xlink:href="#ma079c8b0d0" y="114.756659"/>
      </g>
     </g>
     <g id="text_24">
      <!-- 200 -->
      <g transform="translate(419.465312 118.555878)scale(0.1 -0.1)">
       <use xlink:href="#DejaVuSans-50"/>
       <use x="63.623047" xlink:href="#DejaVuSans-48"/>
       <use x="127.246094" xlink:href="#DejaVuSans-48"/>
      </g>
     </g>
    </g>
    <g id="ytick_14">
     <g id="line2d_27">
      <g>
       <use style="stroke:#000000;stroke-width:0.8;" x="412.465312" xlink:href="#ma079c8b0d0" y="78.889456"/>
      </g>
     </g>
     <g id="text_25">
      <!-- 225 -->
      <g transform="translate(419.465312 82.688675)scale(0.1 -0.1)">
       <use xlink:href="#DejaVuSans-50"/>
       <use x="63.623047" xlink:href="#DejaVuSans-50"/>
       <use x="127.246094" xlink:href="#DejaVuSans-53"/>
      </g>
     </g>
    </g>
    <g id="ytick_15">
     <g id="line2d_28">
      <g>
       <use style="stroke:#000000;stroke-width:0.8;" x="412.465312" xlink:href="#ma079c8b0d0" y="43.022254"/>
      </g>
     </g>
     <g id="text_26">
      <!-- 250 -->
      <g transform="translate(419.465312 46.821472)scale(0.1 -0.1)">
       <use xlink:href="#DejaVuSans-50"/>
       <use x="63.623047" xlink:href="#DejaVuSans-53"/>
       <use x="127.246094" xlink:href="#DejaVuSans-48"/>
      </g>
     </g>
    </g>
    <g id="text_27">
     <!-- Episode Steps -->
     <defs>
      <path d="M 53.515625 70.515625 
L 53.515625 60.890625 
Q 47.90625 63.578125 42.921875 64.890625 
Q 37.9375 66.21875 33.296875 66.21875 
Q 25.25 66.21875 20.875 63.09375 
Q 16.5 59.96875 16.5 54.203125 
Q 16.5 49.359375 19.40625 46.890625 
Q 22.3125 44.4375 30.421875 42.921875 
L 36.375 41.703125 
Q 47.40625 39.59375 52.65625 34.296875 
Q 57.90625 29 57.90625 20.125 
Q 57.90625 9.515625 50.796875 4.046875 
Q 43.703125 -1.421875 29.984375 -1.421875 
Q 24.8125 -1.421875 18.96875 -0.25 
Q 13.140625 0.921875 6.890625 3.21875 
L 6.890625 13.375 
Q 12.890625 10.015625 18.65625 8.296875 
Q 24.421875 6.59375 29.984375 6.59375 
Q 38.421875 6.59375 43.015625 9.90625 
Q 47.609375 13.234375 47.609375 19.390625 
Q 47.609375 24.75 44.3125 27.78125 
Q 41.015625 30.8125 33.5 32.328125 
L 27.484375 33.5 
Q 16.453125 35.6875 11.515625 40.375 
Q 6.59375 45.0625 6.59375 53.421875 
Q 6.59375 63.09375 13.40625 68.65625 
Q 20.21875 74.21875 32.171875 74.21875 
Q 37.3125 74.21875 42.625 73.28125 
Q 47.953125 72.359375 53.515625 70.515625 
z
" id="DejaVuSans-83"/>
     </defs>
     <g transform="translate(450.15125 190.590531)rotate(-90)scale(0.1 -0.1)">
      <use xlink:href="#DejaVuSans-69"/>
      <use x="63.183594" xlink:href="#DejaVuSans-112"/>
      <use x="126.660156" xlink:href="#DejaVuSans-105"/>
      <use x="154.443359" xlink:href="#DejaVuSans-115"/>
      <use x="206.542969" xlink:href="#DejaVuSans-111"/>
      <use x="267.724609" xlink:href="#DejaVuSans-100"/>
      <use x="331.201172" xlink:href="#DejaVuSans-101"/>
      <use x="392.724609" xlink:href="#DejaVuSans-32"/>
      <use x="424.511719" xlink:href="#DejaVuSans-83"/>
      <use x="487.988281" xlink:href="#DejaVuSans-116"/>
      <use x="527.197266" xlink:href="#DejaVuSans-101"/>
      <use x="588.720703" xlink:href="#DejaVuSans-112"/>
      <use x="652.197266" xlink:href="#DejaVuSans-115"/>
     </g>
    </g>
   </g>
   <g id="line2d_29">
    <path clip-path="url(#p0618ac652d)" d="M 71.57804 272.737258 
L 72.892431 273.491196 
L 74.206822 270.687238 
L 75.521212 241.67604 
L 76.835603 247.051068 
L 78.149994 243.345705 
L 79.464385 231.194124 
L 80.778776 228.612611 
L 82.093167 209.672604 
L 83.407558 213.082267 
L 84.721948 197.782591 
L 86.036339 203.604844 
L 87.35073 215.063243 
L 88.665121 201.177054 
L 89.979512 202.697726 
L 91.293903 205.997789 
L 93.922685 194.850882 
L 95.237075 207.140325 
L 96.551466 199.559202 
L 97.865857 194.243898 
L 99.180248 199.24084 
L 100.494639 171.964847 
L 101.80903 163.723188 
L 103.123421 165.500954 
L 104.437812 169.107983 
L 105.752202 163.638532 
L 107.066593 139.823849 
L 108.380984 148.762645 
L 109.695375 177.789369 
L 111.009766 151.21078 
L 112.324157 173.770163 
L 113.638548 109.848516 
L 114.952939 153.027934 
L 116.267329 169.181241 
L 117.58172 160.966962 
L 118.896111 172.94494 
L 120.210502 151.743618 
L 121.524893 132.340785 
L 122.839284 131.053245 
L 124.153675 123.21764 
L 125.468066 160.041302 
L 126.782456 132.63508 
L 128.096847 63.61697 
L 129.411238 149.609082 
L 130.725629 64.311174 
L 132.04002 144.093557 
L 133.354411 115.220823 
L 134.668802 107.583219 
L 135.983193 170.390676 
L 137.297583 124.727741 
L 138.611974 148.97397 
L 139.926365 157.275598 
L 141.240756 190.130273 
L 142.555147 190.298506 
L 143.869538 154.41291 
L 145.183929 166.772444 
L 146.498319 187.503786 
L 147.81271 166.086611 
L 149.127101 176.122182 
L 151.755883 44.112617 
L 153.070274 101.127122 
L 154.384665 151.261501 
L 155.699056 101.235811 
L 157.013446 104.105187 
L 158.327837 120.256297 
L 159.642228 48.83274 
L 160.956619 102.45145 
L 162.27101 114.065883 
L 163.585401 113.195381 
L 164.899792 107.960768 
L 166.214183 39.249555 
L 167.528573 101.844466 
L 168.842964 92.980143 
L 170.157355 92.392403 
L 172.786137 82.619645 
L 174.100528 56.48625 
L 175.414919 142.015733 
L 176.72931 112.206102 
L 178.0437 126.309674 
L 179.358091 120.223984 
L 180.672482 117.550525 
L 181.986873 72.754928 
L 183.301264 92.811245 
L 184.615655 76.423586 
L 185.930046 79.15846 
L 187.244437 106.641704 
L 188.558827 123.871148 
L 189.873218 107.409317 
L 191.187609 124.225601 
L 192.502 85.410766 
L 193.816391 94.626192 
L 195.130782 68.981142 
L 196.445173 47.804547 
L 197.759564 83.235717 
L 199.073954 66.643369 
L 200.388345 122.043364 
L 201.702736 128.85247 
L 203.017127 93.326005 
L 204.331518 102.828252 
L 205.645909 144.201925 
L 206.9603 112.215212 
L 208.27469 132.212031 
L 209.589081 172.644656 
L 210.903472 166.985411 
L 212.217863 150.812637 
L 213.532254 108.021595 
L 214.846645 131.685979 
L 216.161036 123.855602 
L 217.475427 34.414125 
L 218.789817 175.76351 
L 220.104208 99.366368 
L 221.418599 165.781654 
L 222.73299 103.447941 
L 224.047381 131.677539 
L 225.361772 121.465936 
L 226.676163 152.596558 
L 227.990554 138.360694 
L 229.304944 162.662766 
L 230.619335 145.978205 
L 231.933726 117.426773 
L 233.248117 171.899981 
L 234.562508 148.811624 
L 237.19129 135.210161 
L 238.505681 149.630616 
L 239.820071 155.583784 
L 241.134462 129.361048 
L 242.448853 124.082132 
L 243.763244 142.898618 
L 245.077635 153.326414 
L 246.392026 148.988985 
L 247.706417 130.8969 
L 249.020808 125.13927 
L 250.335198 157.686942 
L 251.649589 144.543517 
L 252.96398 133.483114 
L 254.278371 165.41709 
L 255.592762 146.456434 
L 256.907153 154.827832 
L 258.221544 158.046813 
L 259.535935 154.7975 
L 260.850325 163.754377 
L 262.164716 156.19579 
L 263.479107 150.973786 
L 264.793498 178.673478 
L 266.107889 164.188186 
L 267.42228 147.686167 
L 268.736671 163.95052 
L 270.051061 169.493129 
L 271.365452 191.526008 
L 272.679843 147.754486 
L 273.994234 153.716412 
L 275.308625 176.978459 
L 276.623016 167.776355 
L 277.937407 187.841359 
L 279.251798 189.629445 
L 280.566188 179.834112 
L 281.880579 189.669883 
L 283.19497 193.033242 
L 284.509361 172.024626 
L 285.823752 158.664788 
L 287.138143 167.931695 
L 288.452534 145.759919 
L 289.766925 164.612071 
L 291.081315 150.828817 
L 292.395706 170.774708 
L 293.710097 153.86899 
L 295.024488 167.63993 
L 296.338879 164.556277 
L 297.65327 158.710286 
L 298.967661 167.072728 
L 300.282052 166.873264 
L 301.596442 140.444408 
L 302.910833 170.67897 
L 304.225224 148.034425 
L 305.539615 158.296324 
L 306.854006 187.498399 
L 308.168397 165.157876 
L 309.482788 167.872001 
L 310.797179 184.151899 
L 312.111569 159.742102 
L 313.42596 166.374906 
L 314.740351 175.404838 
L 316.054742 190.227231 
L 317.369133 176.69245 
L 318.683524 184.470789 
L 319.997915 163.202406 
L 321.312306 165.385208 
L 322.626696 166.660487 
L 323.941087 185.168901 
L 325.255478 157.829909 
L 326.569869 86.556071 
L 327.88426 143.235218 
L 329.198651 163.567937 
L 330.513042 158.742097 
L 331.827432 178.660059 
L 333.141823 154.045041 
L 334.456214 148.804257 
L 335.770605 173.004996 
L 337.084996 170.888831 
L 338.399387 156.635888 
L 339.713778 167.872726 
L 341.028169 151.341206 
L 342.342559 155.2012 
L 343.65695 160.40917 
L 344.971341 166.710684 
L 347.600123 113.360746 
L 348.914514 130.354294 
L 350.228905 158.753761 
L 351.543296 162.070178 
L 352.857686 139.624586 
L 354.172077 108.009747 
L 355.486468 121.70357 
L 356.800859 124.189733 
L 358.11525 143.415429 
L 359.429641 119.293376 
L 360.744032 110.56586 
L 362.058423 146.714337 
L 363.372813 116.594853 
L 364.687204 128.99318 
L 366.001595 157.922058 
L 367.315986 120.999491 
L 368.630377 125.51682 
L 369.944768 132.501486 
L 371.259159 114.597249 
L 372.57355 150.824051 
L 373.88794 128.220655 
L 375.202331 73.150704 
L 376.516722 141.585327 
L 377.831113 155.994745 
L 379.145504 125.445085 
L 380.459895 121.840432 
L 381.774286 116.519276 
L 383.088677 108.061448 
L 384.403067 91.590666 
L 385.717458 90.957715 
L 387.031849 122.647444 
L 388.34624 143.520406 
L 389.660631 114.446456 
L 390.975022 109.134233 
L 392.289413 124.837231 
L 393.603803 136.67152 
L 394.918194 143.450421 
L 396.232585 122.472955 
L 396.232585 122.472955 
" style="fill:none;stroke:#ffa500;stroke-dasharray:5.55,2.4;stroke-dashoffset:0;stroke-opacity:0.3;stroke-width:1.5;"/>
   </g>
   <g id="line2d_30">
    <path clip-path="url(#p0618ac652d)" d="M 71.57804 276.334125 
L 76.835603 247.265579 
L 78.149994 239.758882 
L 80.778776 221.366082 
L 82.093167 217.353768 
L 83.407558 210.859289 
L 84.721948 206.411533 
L 86.036339 204.885717 
L 89.979512 203.363402 
L 91.293903 204.258484 
L 92.608294 201.899208 
L 93.922685 202.119346 
L 95.237075 202.504208 
L 96.551466 198.446018 
L 97.865857 192.338642 
L 99.180248 186.761566 
L 100.494639 182.112634 
L 103.123421 163.788795 
L 104.437812 160.167799 
L 105.752202 155.489577 
L 107.066593 161.886746 
L 108.380984 158.055318 
L 109.695375 152.781125 
L 111.009766 151.121419 
L 112.324157 151.050262 
L 113.638548 155.335257 
L 114.952939 156.79201 
L 116.267329 155.481787 
L 117.58172 157.608887 
L 118.896111 151.619493 
L 120.210502 154.434363 
L 121.524893 151.538411 
L 122.839284 136.676295 
L 124.153675 135.129337 
L 125.468066 121.455596 
L 126.782456 118.624905 
L 128.096847 116.99682 
L 129.411238 108.373446 
L 130.725629 110.377583 
L 132.04002 109.8819 
L 134.668802 128.500116 
L 135.983193 131.05332 
L 137.297583 150.987337 
L 138.611974 154.231312 
L 139.926365 163.3603 
L 141.240756 170.737665 
L 142.555147 170.595331 
L 143.869538 182.877033 
L 145.183929 185.861301 
L 146.498319 171.389444 
L 147.81271 148.189981 
L 149.127101 137.508158 
L 150.441492 127.842462 
L 151.755883 112.829164 
L 153.070274 108.317132 
L 154.384665 100.766014 
L 155.699056 96.274679 
L 157.013446 102.518451 
L 158.327837 106.60299 
L 159.642228 104.479676 
L 160.956619 94.156841 
L 162.27101 95.489463 
L 163.585401 93.186501 
L 164.899792 92.558831 
L 166.214183 96.510699 
L 167.528573 90.602358 
L 168.842964 79.301906 
L 170.157355 80.295422 
L 171.471746 84.960194 
L 172.786137 95.45556 
L 174.100528 96.293268 
L 175.414919 107.883779 
L 176.72931 112.586995 
L 178.0437 116.655601 
L 179.358091 115.736751 
L 180.672482 107.713838 
L 181.986873 91.264709 
L 183.301264 90.190393 
L 184.615655 86.893952 
L 185.930046 93.412665 
L 187.244437 99.218694 
L 188.558827 108.959133 
L 189.873218 110.825583 
L 191.187609 105.94783 
L 192.502 98.29793 
L 193.816391 81.890632 
L 195.130782 72.506689 
L 196.445173 75.402409 
L 197.759564 78.01876 
L 199.073954 83.954742 
L 201.702736 105.960183 
L 203.017127 111.913184 
L 204.331518 116.714684 
L 205.645909 127.036045 
L 206.9603 134.969479 
L 208.27469 141.63163 
L 209.589081 149.269944 
L 210.903472 155.738179 
L 212.217863 136.57252 
L 213.532254 134.445839 
L 214.846645 118.367511 
L 216.161036 113.333743 
L 217.475427 111.322369 
L 218.789817 115.539955 
L 220.104208 119.313415 
L 221.418599 122.679519 
L 222.73299 128.482571 
L 224.047381 138.90878 
L 225.361772 133.983902 
L 226.676163 138.634148 
L 227.990554 138.375044 
L 229.304944 148.229576 
L 230.619335 149.073432 
L 231.933726 148.740928 
L 233.248117 144.837879 
L 234.562508 147.492684 
L 235.876899 146.495461 
L 237.19129 145.829871 
L 238.505681 143.494449 
L 239.820071 137.237583 
L 241.134462 140.872561 
L 242.448853 142.5319 
L 243.763244 139.301237 
L 245.077635 137.961176 
L 246.392026 140.060523 
L 247.706417 141.002441 
L 249.020808 142.860729 
L 250.335198 141.593179 
L 251.649589 142.423097 
L 254.278371 150.81104 
L 255.592762 153.815095 
L 256.907153 154.140032 
L 258.221544 155.138711 
L 259.535935 157.893905 
L 260.850325 159.016641 
L 262.164716 161.012597 
L 263.479107 160.199126 
L 264.793498 158.73289 
L 266.107889 164.085548 
L 267.42228 165.752473 
L 268.736671 165.244069 
L 270.051061 165.603698 
L 271.365452 162.452268 
L 272.679843 165.350461 
L 273.994234 169.847082 
L 275.308625 170.389368 
L 276.623016 172.637614 
L 277.937407 178.201164 
L 279.251798 187.894268 
L 280.566188 187.737593 
L 281.880579 186.024871 
L 283.19497 181.090536 
L 284.509361 174.474405 
L 285.823752 167.002443 
L 287.138143 163.417596 
L 288.452534 157.583929 
L 289.766925 155.873927 
L 291.081315 158.597513 
L 292.395706 159.874342 
L 293.710097 160.539488 
L 295.024488 165.663918 
L 296.338879 162.26433 
L 297.65327 163.933003 
L 300.282052 158.063426 
L 301.596442 157.884372 
L 302.910833 159.45892 
L 304.225224 160.18153 
L 306.854006 167.767731 
L 308.168397 171.058674 
L 309.482788 168.872 
L 310.797179 172.958398 
L 312.111569 172.313396 
L 313.42596 173.599381 
L 314.740351 177.340585 
L 316.054742 177.219048 
L 317.369133 174.367555 
L 318.683524 177.828678 
L 319.997915 181.853841 
L 321.312306 171.729363 
L 322.626696 159.670077 
L 323.941087 153.056256 
L 325.255478 145.811868 
L 326.569869 146.967403 
L 327.88426 147.2863 
L 329.198651 146.209447 
L 330.513042 148.957637 
L 331.827432 159.998487 
L 333.141823 168.678466 
L 334.456214 165.709794 
L 335.770605 163.755598 
L 337.084996 162.475414 
L 338.399387 159.788891 
L 339.713778 163.675522 
L 341.028169 164.852609 
L 342.342559 158.037229 
L 343.65695 150.454247 
L 344.971341 145.701973 
L 346.285732 143.727229 
L 347.600123 146.397977 
L 348.914514 142.804677 
L 351.543296 134.022711 
L 352.857686 136.649932 
L 354.172077 137.056602 
L 355.486468 127.495425 
L 356.800859 123.267338 
L 358.11525 121.861769 
L 359.429641 122.495099 
L 360.744032 129.459359 
L 362.058423 130.154934 
L 363.372813 130.103571 
L 364.687204 131.415857 
L 366.001595 131.347062 
L 367.315986 132.575608 
L 368.630377 134.892931 
L 369.944768 130.147148 
L 371.259159 122.342647 
L 372.57355 121.338627 
L 373.88794 126.13606 
L 375.202331 126.998258 
L 376.516722 127.667292 
L 377.831113 129.240645 
L 379.145504 124.847268 
L 380.459895 121.431585 
L 381.774286 116.786209 
L 383.088677 107.637155 
L 384.403067 106.438089 
L 385.717458 108.814654 
L 387.031849 110.141572 
L 388.34624 113.897583 
L 389.660631 121.951013 
L 390.975022 126.639621 
L 392.289413 130.187509 
L 393.603803 132.06615 
L 394.918194 131.747019 
L 396.232585 128.701588 
L 396.232585 128.701588 
" style="fill:none;stroke:#ffa500;stroke-linecap:square;stroke-width:1.5;"/>
   </g>
   <g id="patch_9">
    <path d="M 55.345313 288.430125 
L 55.345313 22.318125 
" style="fill:none;stroke:#000000;stroke-linecap:square;stroke-linejoin:miter;stroke-width:0.8;"/>
   </g>
   <g id="patch_10">
    <path d="M 412.465312 288.430125 
L 412.465312 22.318125 
" style="fill:none;stroke:#000000;stroke-linecap:square;stroke-linejoin:miter;stroke-width:0.8;"/>
   </g>
   <g id="patch_11">
    <path d="M 55.345313 288.430125 
L 412.465312 288.430125 
" style="fill:none;stroke:#000000;stroke-linecap:square;stroke-linejoin:miter;stroke-width:0.8;"/>
   </g>
   <g id="patch_12">
    <path d="M 55.345313 22.318125 
L 412.465312 22.318125 
" style="fill:none;stroke:#000000;stroke-linecap:square;stroke-linejoin:miter;stroke-width:0.8;"/>
   </g>
  </g>
 </g>
 <defs>
  <clipPath id="p0618ac652d">
   <rect height="266.112" width="357.12" x="55.345313" y="22.318125"/>
  </clipPath>
 </defs>
</svg>
