<?xml version="1.0" encoding="utf-8" standalone="no"?>
<!DOCTYPE svg PUBLIC "-//W3C//DTD SVG 1.1//EN"
  "http://www.w3.org/Graphics/SVG/1.1/DTD/svg11.dtd">
<!-- Created with matplotlib (https://matplotlib.org/) -->
<svg height="358.22505pt" version="1.1" viewBox="0 0 441.504375 358.22505" width="441.504375pt" xmlns="http://www.w3.org/2000/svg" xmlns:xlink="http://www.w3.org/1999/xlink">
 <defs>
  <style type="text/css">
*{stroke-linecap:butt;stroke-linejoin:round;}
  </style>
 </defs>
 <g id="figure_1">
  <g id="patch_1">
   <path d="M 0 358.22505 
L 441.504375 358.22505 
L 441.504375 0 
L 0 0 
z
" style="fill:#ffffff;"/>
  </g>
  <g id="axes_1">
   <g id="patch_2">
    <path d="M 43.78125 288.430125 
L 400.90125 288.430125 
L 400.90125 22.318125 
L 43.78125 22.318125 
z
" style="fill:#ffffff;"/>
   </g>
   <g id="matplotlib.axis_1">
    <g id="xtick_1">
     <g id="line2d_1">
      <defs>
       <path d="M 0 0 
L 0 3.5 
" id="mbbbeb5f14f" style="stroke:#000000;stroke-width:0.8;"/>
      </defs>
      <g>
       <use style="stroke:#000000;stroke-width:0.8;" x="60.013977" xlink:href="#mbbbeb5f14f" y="288.430125"/>
      </g>
     </g>
     <g id="text_1">
      <!-- 0 -->
      <defs>
       <path d="M 31.78125 66.40625 
Q 24.171875 66.40625 20.328125 58.90625 
Q 16.5 51.421875 16.5 36.375 
Q 16.5 21.390625 20.328125 13.890625 
Q 24.171875 6.390625 31.78125 6.390625 
Q 39.453125 6.390625 43.28125 13.890625 
Q 47.125 21.390625 47.125 36.375 
Q 47.125 51.421875 43.28125 58.90625 
Q 39.453125 66.40625 31.78125 66.40625 
z
M 31.78125 74.21875 
Q 44.046875 74.21875 50.515625 64.515625 
Q 56.984375 54.828125 56.984375 36.375 
Q 56.984375 17.96875 50.515625 8.265625 
Q 44.046875 -1.421875 31.78125 -1.421875 
Q 19.53125 -1.421875 13.0625 8.265625 
Q 6.59375 17.96875 6.59375 36.375 
Q 6.59375 54.828125 13.0625 64.515625 
Q 19.53125 74.21875 31.78125 74.21875 
z
" id="DejaVuSans-48"/>
      </defs>
      <g transform="translate(56.832727 303.028562)scale(0.1 -0.1)">
       <use xlink:href="#DejaVuSans-48"/>
      </g>
     </g>
    </g>
    <g id="xtick_2">
     <g id="line2d_2">
      <g>
       <use style="stroke:#000000;stroke-width:0.8;" x="105.420207" xlink:href="#mbbbeb5f14f" y="288.430125"/>
      </g>
     </g>
     <g id="text_2">
      <!-- 20 -->
      <defs>
       <path d="M 19.1875 8.296875 
L 53.609375 8.296875 
L 53.609375 0 
L 7.328125 0 
L 7.328125 8.296875 
Q 12.9375 14.109375 22.625 23.890625 
Q 32.328125 33.6875 34.8125 36.53125 
Q 39.546875 41.84375 41.421875 45.53125 
Q 43.3125 49.21875 43.3125 52.78125 
Q 43.3125 58.59375 39.234375 62.25 
Q 35.15625 65.921875 28.609375 65.921875 
Q 23.96875 65.921875 18.8125 64.3125 
Q 13.671875 62.703125 7.8125 59.421875 
L 7.8125 69.390625 
Q 13.765625 71.78125 18.9375 73 
Q 24.125 74.21875 28.421875 74.21875 
Q 39.75 74.21875 46.484375 68.546875 
Q 53.21875 62.890625 53.21875 53.421875 
Q 53.21875 48.921875 51.53125 44.890625 
Q 49.859375 40.875 45.40625 35.40625 
Q 44.1875 33.984375 37.640625 27.21875 
Q 31.109375 20.453125 19.1875 8.296875 
z
" id="DejaVuSans-50"/>
      </defs>
      <g transform="translate(99.057707 303.028562)scale(0.1 -0.1)">
       <use xlink:href="#DejaVuSans-50"/>
       <use x="63.623047" xlink:href="#DejaVuSans-48"/>
      </g>
     </g>
    </g>
    <g id="xtick_3">
     <g id="line2d_3">
      <g>
       <use style="stroke:#000000;stroke-width:0.8;" x="150.826438" xlink:href="#mbbbeb5f14f" y="288.430125"/>
      </g>
     </g>
     <g id="text_3">
      <!-- 40 -->
      <defs>
       <path d="M 37.796875 64.3125 
L 12.890625 25.390625 
L 37.796875 25.390625 
z
M 35.203125 72.90625 
L 47.609375 72.90625 
L 47.609375 25.390625 
L 58.015625 25.390625 
L 58.015625 17.1875 
L 47.609375 17.1875 
L 47.609375 0 
L 37.796875 0 
L 37.796875 17.1875 
L 4.890625 17.1875 
L 4.890625 26.703125 
z
" id="DejaVuSans-52"/>
      </defs>
      <g transform="translate(144.463938 303.028562)scale(0.1 -0.1)">
       <use xlink:href="#DejaVuSans-52"/>
       <use x="63.623047" xlink:href="#DejaVuSans-48"/>
      </g>
     </g>
    </g>
    <g id="xtick_4">
     <g id="line2d_4">
      <g>
       <use style="stroke:#000000;stroke-width:0.8;" x="196.232668" xlink:href="#mbbbeb5f14f" y="288.430125"/>
      </g>
     </g>
     <g id="text_4">
      <!-- 60 -->
      <defs>
       <path d="M 33.015625 40.375 
Q 26.375 40.375 22.484375 35.828125 
Q 18.609375 31.296875 18.609375 23.390625 
Q 18.609375 15.53125 22.484375 10.953125 
Q 26.375 6.390625 33.015625 6.390625 
Q 39.65625 6.390625 43.53125 10.953125 
Q 47.40625 15.53125 47.40625 23.390625 
Q 47.40625 31.296875 43.53125 35.828125 
Q 39.65625 40.375 33.015625 40.375 
z
M 52.59375 71.296875 
L 52.59375 62.3125 
Q 48.875 64.0625 45.09375 64.984375 
Q 41.3125 65.921875 37.59375 65.921875 
Q 27.828125 65.921875 22.671875 59.328125 
Q 17.53125 52.734375 16.796875 39.40625 
Q 19.671875 43.65625 24.015625 45.921875 
Q 28.375 48.1875 33.59375 48.1875 
Q 44.578125 48.1875 50.953125 41.515625 
Q 57.328125 34.859375 57.328125 23.390625 
Q 57.328125 12.15625 50.6875 5.359375 
Q 44.046875 -1.421875 33.015625 -1.421875 
Q 20.359375 -1.421875 13.671875 8.265625 
Q 6.984375 17.96875 6.984375 36.375 
Q 6.984375 53.65625 15.1875 63.9375 
Q 23.390625 74.21875 37.203125 74.21875 
Q 40.921875 74.21875 44.703125 73.484375 
Q 48.484375 72.75 52.59375 71.296875 
z
" id="DejaVuSans-54"/>
      </defs>
      <g transform="translate(189.870168 303.028562)scale(0.1 -0.1)">
       <use xlink:href="#DejaVuSans-54"/>
       <use x="63.623047" xlink:href="#DejaVuSans-48"/>
      </g>
     </g>
    </g>
    <g id="xtick_5">
     <g id="line2d_5">
      <g>
       <use style="stroke:#000000;stroke-width:0.8;" x="241.638898" xlink:href="#mbbbeb5f14f" y="288.430125"/>
      </g>
     </g>
     <g id="text_5">
      <!-- 80 -->
      <defs>
       <path d="M 31.78125 34.625 
Q 24.75 34.625 20.71875 30.859375 
Q 16.703125 27.09375 16.703125 20.515625 
Q 16.703125 13.921875 20.71875 10.15625 
Q 24.75 6.390625 31.78125 6.390625 
Q 38.8125 6.390625 42.859375 10.171875 
Q 46.921875 13.96875 46.921875 20.515625 
Q 46.921875 27.09375 42.890625 30.859375 
Q 38.875 34.625 31.78125 34.625 
z
M 21.921875 38.8125 
Q 15.578125 40.375 12.03125 44.71875 
Q 8.5 49.078125 8.5 55.328125 
Q 8.5 64.0625 14.71875 69.140625 
Q 20.953125 74.21875 31.78125 74.21875 
Q 42.671875 74.21875 48.875 69.140625 
Q 55.078125 64.0625 55.078125 55.328125 
Q 55.078125 49.078125 51.53125 44.71875 
Q 48 40.375 41.703125 38.8125 
Q 48.828125 37.15625 52.796875 32.3125 
Q 56.78125 27.484375 56.78125 20.515625 
Q 56.78125 9.90625 50.3125 4.234375 
Q 43.84375 -1.421875 31.78125 -1.421875 
Q 19.734375 -1.421875 13.25 4.234375 
Q 6.78125 9.90625 6.78125 20.515625 
Q 6.78125 27.484375 10.78125 32.3125 
Q 14.796875 37.15625 21.921875 38.8125 
z
M 18.3125 54.390625 
Q 18.3125 48.734375 21.84375 45.5625 
Q 25.390625 42.390625 31.78125 42.390625 
Q 38.140625 42.390625 41.71875 45.5625 
Q 45.3125 48.734375 45.3125 54.390625 
Q 45.3125 60.0625 41.71875 63.234375 
Q 38.140625 66.40625 31.78125 66.40625 
Q 25.390625 66.40625 21.84375 63.234375 
Q 18.3125 60.0625 18.3125 54.390625 
z
" id="DejaVuSans-56"/>
      </defs>
      <g transform="translate(235.276398 303.028562)scale(0.1 -0.1)">
       <use xlink:href="#DejaVuSans-56"/>
       <use x="63.623047" xlink:href="#DejaVuSans-48"/>
      </g>
     </g>
    </g>
    <g id="xtick_6">
     <g id="line2d_6">
      <g>
       <use style="stroke:#000000;stroke-width:0.8;" x="287.045128" xlink:href="#mbbbeb5f14f" y="288.430125"/>
      </g>
     </g>
     <g id="text_6">
      <!-- 100 -->
      <defs>
       <path d="M 12.40625 8.296875 
L 28.515625 8.296875 
L 28.515625 63.921875 
L 10.984375 60.40625 
L 10.984375 69.390625 
L 28.421875 72.90625 
L 38.28125 72.90625 
L 38.28125 8.296875 
L 54.390625 8.296875 
L 54.390625 0 
L 12.40625 0 
z
" id="DejaVuSans-49"/>
      </defs>
      <g transform="translate(277.501378 303.028562)scale(0.1 -0.1)">
       <use xlink:href="#DejaVuSans-49"/>
       <use x="63.623047" xlink:href="#DejaVuSans-48"/>
       <use x="127.246094" xlink:href="#DejaVuSans-48"/>
      </g>
     </g>
    </g>
    <g id="xtick_7">
     <g id="line2d_7">
      <g>
       <use style="stroke:#000000;stroke-width:0.8;" x="332.451358" xlink:href="#mbbbeb5f14f" y="288.430125"/>
      </g>
     </g>
     <g id="text_7">
      <!-- 120 -->
      <g transform="translate(322.907608 303.028562)scale(0.1 -0.1)">
       <use xlink:href="#DejaVuSans-49"/>
       <use x="63.623047" xlink:href="#DejaVuSans-50"/>
       <use x="127.246094" xlink:href="#DejaVuSans-48"/>
      </g>
     </g>
    </g>
    <g id="xtick_8">
     <g id="line2d_8">
      <g>
       <use style="stroke:#000000;stroke-width:0.8;" x="377.857588" xlink:href="#mbbbeb5f14f" y="288.430125"/>
      </g>
     </g>
     <g id="text_8">
      <!-- 140 -->
      <g transform="translate(368.313838 303.028562)scale(0.1 -0.1)">
       <use xlink:href="#DejaVuSans-49"/>
       <use x="63.623047" xlink:href="#DejaVuSans-52"/>
       <use x="127.246094" xlink:href="#DejaVuSans-48"/>
      </g>
     </g>
    </g>
    <g id="text_9">
     <!-- Epoch -->
     <defs>
      <path d="M 9.8125 72.90625 
L 55.90625 72.90625 
L 55.90625 64.59375 
L 19.671875 64.59375 
L 19.671875 43.015625 
L 54.390625 43.015625 
L 54.390625 34.71875 
L 19.671875 34.71875 
L 19.671875 8.296875 
L 56.78125 8.296875 
L 56.78125 0 
L 9.8125 0 
z
" id="DejaVuSans-69"/>
      <path d="M 18.109375 8.203125 
L 18.109375 -20.796875 
L 9.078125 -20.796875 
L 9.078125 54.6875 
L 18.109375 54.6875 
L 18.109375 46.390625 
Q 20.953125 51.265625 25.265625 53.625 
Q 29.59375 56 35.59375 56 
Q 45.5625 56 51.78125 48.09375 
Q 58.015625 40.1875 58.015625 27.296875 
Q 58.015625 14.40625 51.78125 6.484375 
Q 45.5625 -1.421875 35.59375 -1.421875 
Q 29.59375 -1.421875 25.265625 0.953125 
Q 20.953125 3.328125 18.109375 8.203125 
z
M 48.6875 27.296875 
Q 48.6875 37.203125 44.609375 42.84375 
Q 40.53125 48.484375 33.40625 48.484375 
Q 26.265625 48.484375 22.1875 42.84375 
Q 18.109375 37.203125 18.109375 27.296875 
Q 18.109375 17.390625 22.1875 11.75 
Q 26.265625 6.109375 33.40625 6.109375 
Q 40.53125 6.109375 44.609375 11.75 
Q 48.6875 17.390625 48.6875 27.296875 
z
" id="DejaVuSans-112"/>
      <path d="M 30.609375 48.390625 
Q 23.390625 48.390625 19.1875 42.75 
Q 14.984375 37.109375 14.984375 27.296875 
Q 14.984375 17.484375 19.15625 11.84375 
Q 23.34375 6.203125 30.609375 6.203125 
Q 37.796875 6.203125 41.984375 11.859375 
Q 46.1875 17.53125 46.1875 27.296875 
Q 46.1875 37.015625 41.984375 42.703125 
Q 37.796875 48.390625 30.609375 48.390625 
z
M 30.609375 56 
Q 42.328125 56 49.015625 48.375 
Q 55.71875 40.765625 55.71875 27.296875 
Q 55.71875 13.875 49.015625 6.21875 
Q 42.328125 -1.421875 30.609375 -1.421875 
Q 18.84375 -1.421875 12.171875 6.21875 
Q 5.515625 13.875 5.515625 27.296875 
Q 5.515625 40.765625 12.171875 48.375 
Q 18.84375 56 30.609375 56 
z
" id="DejaVuSans-111"/>
      <path d="M 48.78125 52.59375 
L 48.78125 44.1875 
Q 44.96875 46.296875 41.140625 47.34375 
Q 37.3125 48.390625 33.40625 48.390625 
Q 24.65625 48.390625 19.8125 42.84375 
Q 14.984375 37.3125 14.984375 27.296875 
Q 14.984375 17.28125 19.8125 11.734375 
Q 24.65625 6.203125 33.40625 6.203125 
Q 37.3125 6.203125 41.140625 7.25 
Q 44.96875 8.296875 48.78125 10.40625 
L 48.78125 2.09375 
Q 45.015625 0.34375 40.984375 -0.53125 
Q 36.96875 -1.421875 32.421875 -1.421875 
Q 20.0625 -1.421875 12.78125 6.34375 
Q 5.515625 14.109375 5.515625 27.296875 
Q 5.515625 40.671875 12.859375 48.328125 
Q 20.21875 56 33.015625 56 
Q 37.15625 56 41.109375 55.140625 
Q 45.0625 54.296875 48.78125 52.59375 
z
" id="DejaVuSans-99"/>
      <path d="M 54.890625 33.015625 
L 54.890625 0 
L 45.90625 0 
L 45.90625 32.71875 
Q 45.90625 40.484375 42.875 44.328125 
Q 39.84375 48.1875 33.796875 48.1875 
Q 26.515625 48.1875 22.3125 43.546875 
Q 18.109375 38.921875 18.109375 30.90625 
L 18.109375 0 
L 9.078125 0 
L 9.078125 75.984375 
L 18.109375 75.984375 
L 18.109375 46.1875 
Q 21.34375 51.125 25.703125 53.5625 
Q 30.078125 56 35.796875 56 
Q 45.21875 56 50.046875 50.171875 
Q 54.890625 44.34375 54.890625 33.015625 
z
" id="DejaVuSans-104"/>
     </defs>
     <g transform="translate(207.030313 316.706687)scale(0.1 -0.1)">
      <use xlink:href="#DejaVuSans-69"/>
      <use x="63.183594" xlink:href="#DejaVuSans-112"/>
      <use x="126.660156" xlink:href="#DejaVuSans-111"/>
      <use x="187.841797" xlink:href="#DejaVuSans-99"/>
      <use x="242.822266" xlink:href="#DejaVuSans-104"/>
     </g>
    </g>
   </g>
   <g id="matplotlib.axis_2">
    <g id="ytick_1">
     <g id="line2d_9">
      <defs>
       <path d="M 0 0 
L -3.5 0 
" id="m3262ab83c5" style="stroke:#000000;stroke-width:0.8;"/>
      </defs>
      <g>
       <use style="stroke:#000000;stroke-width:0.8;" x="43.78125" xlink:href="#m3262ab83c5" y="276.334125"/>
      </g>
     </g>
     <g id="text_10">
      <!-- 0.0 -->
      <defs>
       <path d="M 10.6875 12.40625 
L 21 12.40625 
L 21 0 
L 10.6875 0 
z
" id="DejaVuSans-46"/>
      </defs>
      <g transform="translate(20.878125 280.133344)scale(0.1 -0.1)">
       <use xlink:href="#DejaVuSans-48"/>
       <use x="63.623047" xlink:href="#DejaVuSans-46"/>
       <use x="95.410156" xlink:href="#DejaVuSans-48"/>
      </g>
     </g>
    </g>
    <g id="ytick_2">
     <g id="line2d_10">
      <g>
       <use style="stroke:#000000;stroke-width:0.8;" x="43.78125" xlink:href="#m3262ab83c5" y="227.950125"/>
      </g>
     </g>
     <g id="text_11">
      <!-- 0.2 -->
      <g transform="translate(20.878125 231.749344)scale(0.1 -0.1)">
       <use xlink:href="#DejaVuSans-48"/>
       <use x="63.623047" xlink:href="#DejaVuSans-46"/>
       <use x="95.410156" xlink:href="#DejaVuSans-50"/>
      </g>
     </g>
    </g>
    <g id="ytick_3">
     <g id="line2d_11">
      <g>
       <use style="stroke:#000000;stroke-width:0.8;" x="43.78125" xlink:href="#m3262ab83c5" y="179.566125"/>
      </g>
     </g>
     <g id="text_12">
      <!-- 0.4 -->
      <g transform="translate(20.878125 183.365344)scale(0.1 -0.1)">
       <use xlink:href="#DejaVuSans-48"/>
       <use x="63.623047" xlink:href="#DejaVuSans-46"/>
       <use x="95.410156" xlink:href="#DejaVuSans-52"/>
      </g>
     </g>
    </g>
    <g id="ytick_4">
     <g id="line2d_12">
      <g>
       <use style="stroke:#000000;stroke-width:0.8;" x="43.78125" xlink:href="#m3262ab83c5" y="131.182125"/>
      </g>
     </g>
     <g id="text_13">
      <!-- 0.6 -->
      <g transform="translate(20.878125 134.981344)scale(0.1 -0.1)">
       <use xlink:href="#DejaVuSans-48"/>
       <use x="63.623047" xlink:href="#DejaVuSans-46"/>
       <use x="95.410156" xlink:href="#DejaVuSans-54"/>
      </g>
     </g>
    </g>
    <g id="ytick_5">
     <g id="line2d_13">
      <g>
       <use style="stroke:#000000;stroke-width:0.8;" x="43.78125" xlink:href="#m3262ab83c5" y="82.798125"/>
      </g>
     </g>
     <g id="text_14">
      <!-- 0.8 -->
      <g transform="translate(20.878125 86.597344)scale(0.1 -0.1)">
       <use xlink:href="#DejaVuSans-48"/>
       <use x="63.623047" xlink:href="#DejaVuSans-46"/>
       <use x="95.410156" xlink:href="#DejaVuSans-56"/>
      </g>
     </g>
    </g>
    <g id="ytick_6">
     <g id="line2d_14">
      <g>
       <use style="stroke:#000000;stroke-width:0.8;" x="43.78125" xlink:href="#m3262ab83c5" y="34.414125"/>
      </g>
     </g>
     <g id="text_15">
      <!-- 1.0 -->
      <g transform="translate(20.878125 38.213344)scale(0.1 -0.1)">
       <use xlink:href="#DejaVuSans-49"/>
       <use x="63.623047" xlink:href="#DejaVuSans-46"/>
       <use x="95.410156" xlink:href="#DejaVuSans-48"/>
      </g>
     </g>
    </g>
    <g id="text_16">
     <!-- Loss -->
     <defs>
      <path d="M 9.8125 72.90625 
L 19.671875 72.90625 
L 19.671875 8.296875 
L 55.171875 8.296875 
L 55.171875 0 
L 9.8125 0 
z
" id="DejaVuSans-76"/>
      <path d="M 44.28125 53.078125 
L 44.28125 44.578125 
Q 40.484375 46.53125 36.375 47.5 
Q 32.28125 48.484375 27.875 48.484375 
Q 21.1875 48.484375 17.84375 46.4375 
Q 14.5 44.390625 14.5 40.28125 
Q 14.5 37.15625 16.890625 35.375 
Q 19.28125 33.59375 26.515625 31.984375 
L 29.59375 31.296875 
Q 39.15625 29.25 43.1875 25.515625 
Q 47.21875 21.78125 47.21875 15.09375 
Q 47.21875 7.46875 41.1875 3.015625 
Q 35.15625 -1.421875 24.609375 -1.421875 
Q 20.21875 -1.421875 15.453125 -0.5625 
Q 10.6875 0.296875 5.421875 2 
L 5.421875 11.28125 
Q 10.40625 8.6875 15.234375 7.390625 
Q 20.0625 6.109375 24.8125 6.109375 
Q 31.15625 6.109375 34.5625 8.28125 
Q 37.984375 10.453125 37.984375 14.40625 
Q 37.984375 18.0625 35.515625 20.015625 
Q 33.0625 21.96875 24.703125 23.78125 
L 21.578125 24.515625 
Q 13.234375 26.265625 9.515625 29.90625 
Q 5.8125 33.546875 5.8125 39.890625 
Q 5.8125 47.609375 11.28125 51.796875 
Q 16.75 56 26.8125 56 
Q 31.78125 56 36.171875 55.265625 
Q 40.578125 54.546875 44.28125 53.078125 
z
" id="DejaVuSans-115"/>
     </defs>
     <g transform="translate(14.798438 166.428031)rotate(-90)scale(0.1 -0.1)">
      <use xlink:href="#DejaVuSans-76"/>
      <use x="55.697266" xlink:href="#DejaVuSans-111"/>
      <use x="116.878906" xlink:href="#DejaVuSans-115"/>
      <use x="168.978516" xlink:href="#DejaVuSans-115"/>
     </g>
    </g>
   </g>
   <g id="line2d_15">
    <path clip-path="url(#pbb40fb901b)" d="M 60.013977 73.952316 
L 64.5546 73.952316 
L 66.824912 80.473398 
L 71.365535 80.473398 
L 73.635846 83.605869 
L 78.176469 83.605869 
L 80.446781 151.65856 
L 84.987404 151.65856 
L 87.257715 88.773026 
L 91.798338 88.773026 
L 94.06865 166.063009 
L 98.609273 166.063009 
L 100.879584 187.408094 
L 105.420207 187.408094 
L 107.690519 205.762333 
L 112.231142 205.762333 
L 114.501453 185.157042 
L 119.042076 185.157042 
L 121.312388 66.43834 
L 125.853011 66.43834 
L 128.123322 136.117311 
L 132.663945 136.117311 
L 134.934257 134.39349 
L 139.47488 134.39349 
L 141.745192 128.42624 
L 146.285815 128.42624 
L 148.556126 141.601668 
L 153.096749 141.601668 
L 155.367061 156.240976 
L 159.907684 156.240976 
L 162.177995 162.912044 
L 166.718618 162.912044 
L 168.98893 125.372563 
L 173.529553 125.372563 
L 175.799864 174.029223 
L 180.340487 174.029223 
L 182.610799 184.413195 
L 187.151422 184.413195 
L 189.421733 161.520369 
L 193.962356 161.520369 
L 196.232668 121.601133 
L 200.773291 121.601133 
L 203.043602 160.499099 
L 207.584225 160.499099 
L 209.854537 117.310328 
L 214.39516 117.310328 
L 216.665471 125.156705 
L 221.206094 125.156705 
L 223.476406 131.262286 
L 228.017029 131.262286 
L 230.28734 34.414125 
L 234.827963 34.414125 
L 237.098275 223.457346 
L 241.638898 223.457346 
L 243.909209 55.701952 
L 248.449832 55.701952 
L 250.720144 65.841437 
L 255.260767 65.841437 
L 257.531078 92.019252 
L 262.071701 92.019252 
L 264.342013 143.224655 
L 268.882636 143.224655 
L 271.152947 276.334125 
L 275.69357 276.334125 
L 277.963882 62.612692 
L 282.504505 62.612692 
L 284.774816 162.574069 
L 289.315439 162.574069 
L 291.585751 128.62715 
L 296.126374 128.62715 
L 298.396685 143.271525 
L 302.937308 143.271525 
L 305.20762 112.86675 
L 309.748243 112.86675 
L 312.018555 68.738795 
L 316.559178 68.738795 
L 318.829489 156.408443 
L 323.370112 156.408443 
L 325.640424 95.785361 
L 330.181047 95.785361 
L 332.451358 57.112881 
L 336.991981 57.112881 
L 339.262293 75.09697 
L 343.802916 75.09697 
L 346.073227 55.297852 
L 350.61385 55.297852 
L 352.884162 121.122294 
L 357.424785 121.122294 
L 359.695096 103.542558 
L 364.235719 103.542558 
L 366.506031 159.747651 
L 371.046654 159.747651 
L 373.316965 123.729815 
L 377.857588 123.729815 
L 380.1279 142.785339 
L 384.668523 142.785339 
L 384.668523 142.785339 
" style="fill:none;stroke:#1f77b4;stroke-linecap:square;stroke-opacity:0.3;stroke-width:1.5;"/>
   </g>
   <g id="line2d_16">
    <path clip-path="url(#pbb40fb901b)" d="M 60.013977 71.191674 
L 62.284289 77.006444 
L 64.5546 78.720996 
L 66.824912 78.126321 
L 69.095223 77.013411 
L 71.365535 77.173256 
L 73.635846 85.471708 
L 75.906158 102.44451 
L 78.176469 114.406836 
L 80.446781 122.396474 
L 82.717092 119.186863 
L 84.987404 119.177753 
L 87.257715 121.038511 
L 91.798338 120.549329 
L 94.06865 132.323288 
L 96.338961 148.030624 
L 98.609273 170.303499 
L 100.879584 184.541397 
L 103.149896 195.023518 
L 105.420207 195.13233 
L 107.690519 199.015962 
L 109.96083 209.705869 
L 112.231142 204.341549 
L 114.501453 189.773001 
L 116.771765 161.181649 
L 119.042076 134.543472 
L 121.312388 114.947382 
L 123.582699 102.621247 
L 125.853011 98.863016 
L 128.123322 100.965481 
L 130.393634 112.341804 
L 132.663945 133.048602 
L 134.934257 139.225515 
L 137.204568 138.284382 
L 139.47488 131.267933 
L 141.745192 131.204496 
L 144.015503 130.89057 
L 146.285815 132.962382 
L 148.556126 136.585187 
L 150.826438 140.834568 
L 153.096749 146.460832 
L 155.367061 151.533429 
L 157.637372 158.89941 
L 159.907684 160.667035 
L 162.177995 159.702274 
L 164.448307 151.19472 
L 166.718618 144.709597 
L 168.98893 142.596325 
L 171.259241 142.340403 
L 173.529553 145.487799 
L 175.799864 152.79689 
L 180.340487 177.656771 
L 182.610799 182.453466 
L 184.88111 185.175264 
L 189.421733 169.663774 
L 191.692045 155.714367 
L 193.962356 144.160609 
L 196.232668 137.520549 
L 198.502979 139.104475 
L 200.773291 141.315301 
L 203.043602 140.861144 
L 205.313914 140.03518 
L 207.584225 141.349428 
L 209.854537 137.183812 
L 212.124848 130.292959 
L 214.39516 121.746791 
L 216.665471 119.57119 
L 218.935783 129.31062 
L 221.206094 133.360576 
L 223.476406 125.498847 
L 225.746717 95.418211 
L 228.017029 80.744456 
L 230.28734 80.667675 
L 232.557652 106.315416 
L 234.827963 123.722195 
L 237.098275 135.802125 
L 239.368586 142.953299 
L 241.638898 148.851477 
L 243.909209 134.478071 
L 246.179521 105.03089 
L 248.449832 64.720025 
L 250.720144 52.302777 
L 252.990455 50.682248 
L 255.260767 72.590415 
L 257.531078 84.313027 
L 259.80139 86.717278 
L 262.071701 102.895569 
L 264.342013 129.855759 
L 266.612324 179.775057 
L 268.882636 207.393878 
L 271.152947 218.340352 
L 273.423259 202.714841 
L 275.69357 180.076639 
L 280.234193 139.514211 
L 282.504505 112.830094 
L 284.774816 108.16612 
L 287.045128 116.566418 
L 289.315439 144.239063 
L 291.585751 148.950898 
L 293.856062 149.307879 
L 296.126374 137.689085 
L 298.396685 134.127022 
L 300.666997 135.095046 
L 302.937308 133.419983 
L 305.20762 124.088276 
L 307.477932 103.987721 
L 309.748243 91.067329 
L 312.018555 87.785899 
L 314.288866 97.695562 
L 316.559178 109.04378 
L 318.829489 116.48796 
L 321.099801 126.222961 
L 323.370112 131.345154 
L 325.640424 123.793688 
L 327.910735 106.033454 
L 330.181047 81.73105 
L 332.451358 69.334858 
L 334.72167 65.044821 
L 336.991981 67.018018 
L 339.262293 64.751895 
L 341.532604 58.753742 
L 343.802916 62.395713 
L 346.073227 66.88395 
L 348.343539 75.446859 
L 350.61385 83.273127 
L 352.884162 93.095285 
L 355.154473 98.0246 
L 357.424785 108.010154 
L 359.695096 116.878926 
L 361.965408 126.880127 
L 364.235719 128.778462 
L 366.506031 134.941539 
L 368.776342 138.185783 
L 371.046654 142.048308 
L 373.316965 142.295114 
L 375.587277 134.69903 
L 377.857588 128.745652 
L 380.1279 127.52083 
L 382.398211 134.110412 
L 384.668523 151.600244 
L 384.668523 151.600244 
" style="fill:none;stroke:#1f77b4;stroke-linecap:square;stroke-width:1.5;"/>
   </g>
   <g id="line2d_17">
    <path clip-path="url(#pbb40fb901b)" d="M 60.013977 34.414125 
L 62.284289 70.445568 
L 64.5546 95.729225 
L 66.824912 35.331644 
L 69.095223 51.182999 
L 71.365535 65.401095 
L 73.635846 109.144741 
L 75.906158 117.426653 
L 78.176469 125.003392 
L 80.446781 167.435156 
L 82.717092 176.503317 
L 84.987404 184.027427 
L 87.257715 206.456933 
L 89.528027 212.186774 
L 91.798338 215.144134 
L 94.06865 242.611638 
L 98.609273 243.162661 
L 100.879584 240.46869 
L 103.149896 241.212147 
L 105.420207 241.657542 
L 107.690519 244.189328 
L 112.231142 244.592521 
L 114.501453 239.966796 
L 119.042076 241.466373 
L 121.312388 237.994031 
L 125.853011 238.06385 
L 128.123322 249.864189 
L 132.663945 250.188964 
L 134.934257 245.48343 
L 139.47488 245.516321 
L 141.745192 234.02687 
L 146.285815 234.581883 
L 148.556126 245.279368 
L 153.096749 245.304657 
L 155.367061 240.879383 
L 159.907684 240.868798 
L 162.177995 257.813175 
L 166.718618 258.207076 
L 168.98893 243.073261 
L 173.529553 243.09383 
L 175.799864 256.133818 
L 180.340487 256.182822 
L 182.610799 238.659717 
L 187.151422 238.789009 
L 189.421733 254.344033 
L 193.962356 254.394501 
L 196.232668 255.89346 
L 200.773291 255.909167 
L 203.043602 253.366111 
L 207.584225 253.669808 
L 209.854537 248.141665 
L 214.39516 248.151257 
L 216.665471 259.363322 
L 221.206094 259.386645 
L 223.476406 243.24325 
L 228.017029 244.08176 
L 230.28734 248.248232 
L 234.827963 248.737019 
L 237.098275 253.903261 
L 239.368586 254.451879 
L 241.638898 255.194879 
L 243.909209 240.428419 
L 248.449832 240.768212 
L 250.720144 240.324434 
L 255.260767 240.523481 
L 257.531078 245.744473 
L 262.071701 245.997988 
L 264.342013 252.095493 
L 268.882636 252.248136 
L 271.152947 253.035508 
L 275.69357 253.25096 
L 277.963882 256.677244 
L 282.504505 257.213161 
L 284.774816 249.627877 
L 287.045128 251.669921 
L 289.315439 253.022845 
L 291.585751 246.132296 
L 296.126374 246.963186 
L 298.396685 245.602757 
L 302.937308 246.109694 
L 305.20762 263.152325 
L 309.748243 264.03535 
L 312.018555 259.621917 
L 316.559178 260.660772 
L 318.829489 250.090225 
L 323.370112 251.11396 
L 325.640424 260.078973 
L 330.181047 261.284935 
L 332.451358 259.434203 
L 334.72167 260.152412 
L 336.991981 260.733866 
L 339.262293 265.647651 
L 343.802916 266.568841 
L 346.073227 261.302341 
L 348.343539 262.572119 
L 350.61385 263.286028 
L 352.884162 267.853744 
L 355.154473 268.660494 
L 357.424785 269.003248 
L 359.695096 263.353704 
L 361.965408 265.742246 
L 364.235719 267.225642 
L 366.506031 275.0097 
L 368.776342 275.990863 
L 371.046654 276.334125 
L 373.316965 268.348147 
L 377.857588 268.884544 
L 380.1279 260.223146 
L 382.398211 263.470408 
L 384.668523 265.059312 
L 384.668523 265.059312 
" style="fill:none;stroke:#ff7f0e;stroke-linecap:square;stroke-opacity:0.3;stroke-width:1.5;"/>
   </g>
   <g id="line2d_18">
    <path clip-path="url(#pbb40fb901b)" d="M 60.013977 52.620438 
L 62.284289 54.020131 
L 64.5546 57.011173 
L 66.824912 61.986406 
L 69.095223 69.338668 
L 71.365535 79.460802 
L 73.635846 91.932583 
L 75.906158 110.253717 
L 78.176469 137.870306 
L 80.446781 158.101659 
L 82.717092 173.509434 
L 84.987404 187.119015 
L 87.257715 202.91924 
L 89.528027 216.152828 
L 91.798338 224.230029 
L 94.06865 232.927211 
L 96.338961 238.759109 
L 98.609273 241.503778 
L 100.879584 243.904322 
L 103.149896 244.837553 
L 105.420207 242.754667 
L 107.690519 242.745694 
L 109.96083 243.035921 
L 112.231142 243.029615 
L 114.501453 242.260248 
L 116.771765 240.182953 
L 119.042076 239.116456 
L 121.312388 239.389934 
L 123.582699 241.118634 
L 125.853011 243.30543 
L 128.123322 244.932601 
L 130.393634 247.394702 
L 132.663945 248.470961 
L 134.934257 247.570196 
L 137.204568 244.232087 
L 139.47488 240.557331 
L 141.745192 238.881535 
L 144.015503 238.73094 
L 148.556126 240.087253 
L 150.826438 239.882983 
L 153.096749 242.076483 
L 155.367061 243.966451 
L 157.637372 247.323206 
L 159.907684 248.764389 
L 162.177995 250.340688 
L 164.448307 250.116393 
L 166.718618 250.602689 
L 168.98893 250.610931 
L 171.259241 251.629984 
L 173.529553 249.987866 
L 175.799864 249.338831 
L 178.070176 247.456114 
L 180.340487 247.744459 
L 184.88111 246.325251 
L 187.151422 245.524533 
L 189.421733 247.138153 
L 191.692045 250.297057 
L 193.962356 254.516988 
L 196.232668 256.160018 
L 198.502979 256.857978 
L 200.773291 255.225197 
L 203.043602 254.33919 
L 205.313914 252.104609 
L 207.584225 250.784981 
L 209.854537 250.581655 
L 212.124848 252.646995 
L 214.39516 253.815694 
L 216.665471 253.890308 
L 221.206094 252.357787 
L 223.476406 250.725341 
L 228.017029 245.815562 
L 230.28734 245.739198 
L 232.557652 248.565701 
L 234.827963 251.589742 
L 237.098275 251.852296 
L 239.368586 250.925285 
L 241.638898 248.835948 
L 243.909209 246.527576 
L 246.179521 243.471098 
L 248.449832 240.855957 
L 250.720144 239.840906 
L 252.990455 239.808716 
L 255.260767 242.212502 
L 257.531078 243.939143 
L 259.80139 245.942579 
L 262.071701 248.105022 
L 264.342013 250.04882 
L 266.612324 251.260364 
L 268.882636 252.082449 
L 271.152947 253.263535 
L 273.423259 254.818674 
L 277.963882 254.967816 
L 280.234193 255.380914 
L 282.504505 254.787944 
L 284.774816 253.539067 
L 287.045128 251.935156 
L 289.315439 249.852821 
L 291.585751 248.21494 
L 293.856062 245.660675 
L 296.126374 245.657189 
L 298.396685 246.485331 
L 300.666997 249.339274 
L 302.937308 253.166279 
L 305.20762 256.302343 
L 307.477932 260.066565 
L 309.748243 262.140457 
L 312.018555 262.185434 
L 314.288866 259.594198 
L 316.559178 255.919326 
L 318.829489 254.49278 
L 321.099801 254.307915 
L 323.370112 255.060706 
L 325.640424 255.973446 
L 327.910735 257.219913 
L 330.181047 259.730084 
L 334.72167 262.653878 
L 336.991981 262.806843 
L 339.262293 263.419008 
L 341.532604 263.559919 
L 343.802916 264.040175 
L 346.073227 264.387268 
L 348.343539 265.232589 
L 350.61385 265.165761 
L 352.884162 265.445741 
L 355.154473 265.386175 
L 359.695096 267.30094 
L 361.965408 269.184472 
L 366.506031 271.308126 
L 368.776342 272.915107 
L 371.046654 273.159705 
L 373.316965 271.499221 
L 377.857588 265.600003 
L 380.1279 263.533763 
L 382.398211 262.986962 
L 384.668523 264.657497 
L 384.668523 264.657497 
" style="fill:none;stroke:#ff7f0e;stroke-linecap:square;stroke-width:1.5;"/>
   </g>
   <g id="line2d_19">
    <path clip-path="url(#pbb40fb901b)" d="M 60.013977 276.334125 
L 225.746717 276.334125 
L 225.746717 276.334125 
" style="fill:none;stroke:#008000;stroke-linecap:square;stroke-width:1.5;"/>
   </g>
   <g id="patch_3">
    <path d="M 43.78125 288.430125 
L 43.78125 22.318125 
" style="fill:none;stroke:#000000;stroke-linecap:square;stroke-linejoin:miter;stroke-width:0.8;"/>
   </g>
   <g id="patch_4">
    <path d="M 400.90125 288.430125 
L 400.90125 22.318125 
" style="fill:none;stroke:#000000;stroke-linecap:square;stroke-linejoin:miter;stroke-width:0.8;"/>
   </g>
   <g id="patch_5">
    <path d="M 43.78125 288.430125 
L 400.90125 288.430125 
" style="fill:none;stroke:#000000;stroke-linecap:square;stroke-linejoin:miter;stroke-width:0.8;"/>
   </g>
   <g id="patch_6">
    <path d="M 43.78125 22.318125 
L 400.90125 22.318125 
" style="fill:none;stroke:#000000;stroke-linecap:square;stroke-linejoin:miter;stroke-width:0.8;"/>
   </g>
   <g id="text_17">
    <!-- Entropy and Loss. -->
    <defs>
     <path d="M 9.1875 72.90625 
L 59.90625 72.90625 
L 59.90625 58.6875 
L 27.984375 58.6875 
L 27.984375 45.125 
L 58.015625 45.125 
L 58.015625 30.90625 
L 27.984375 30.90625 
L 27.984375 14.203125 
L 60.984375 14.203125 
L 60.984375 0 
L 9.1875 0 
z
" id="DejaVuSans-Bold-69"/>
     <path d="M 63.375 33.296875 
L 63.375 0 
L 45.796875 0 
L 45.796875 5.421875 
L 45.796875 25.484375 
Q 45.796875 32.5625 45.484375 35.25 
Q 45.171875 37.9375 44.390625 39.203125 
Q 43.359375 40.921875 41.59375 41.875 
Q 39.84375 42.828125 37.59375 42.828125 
Q 32.125 42.828125 29 38.59375 
Q 25.875 34.375 25.875 26.90625 
L 25.875 0 
L 8.40625 0 
L 8.40625 54.6875 
L 25.875 54.6875 
L 25.875 46.6875 
Q 29.828125 51.46875 34.265625 53.734375 
Q 38.71875 56 44.09375 56 
Q 53.5625 56 58.46875 50.1875 
Q 63.375 44.390625 63.375 33.296875 
z
" id="DejaVuSans-Bold-110"/>
     <path d="M 27.484375 70.21875 
L 27.484375 54.6875 
L 45.515625 54.6875 
L 45.515625 42.1875 
L 27.484375 42.1875 
L 27.484375 19 
Q 27.484375 15.1875 29 13.84375 
Q 30.515625 12.5 35.015625 12.5 
L 44 12.5 
L 44 0 
L 29 0 
Q 18.65625 0 14.328125 4.3125 
Q 10.015625 8.640625 10.015625 19 
L 10.015625 42.1875 
L 1.3125 42.1875 
L 1.3125 54.6875 
L 10.015625 54.6875 
L 10.015625 70.21875 
z
" id="DejaVuSans-Bold-116"/>
     <path d="M 49.03125 39.796875 
Q 46.734375 40.875 44.453125 41.375 
Q 42.1875 41.890625 39.890625 41.890625 
Q 33.15625 41.890625 29.515625 37.5625 
Q 25.875 33.25 25.875 25.203125 
L 25.875 0 
L 8.40625 0 
L 8.40625 54.6875 
L 25.875 54.6875 
L 25.875 45.703125 
Q 29.25 51.078125 33.609375 53.53125 
Q 37.984375 56 44.09375 56 
Q 44.96875 56 45.984375 55.921875 
Q 47.015625 55.859375 48.96875 55.609375 
z
" id="DejaVuSans-Bold-114"/>
     <path d="M 34.421875 43.5 
Q 28.609375 43.5 25.5625 39.328125 
Q 22.515625 35.15625 22.515625 27.296875 
Q 22.515625 19.4375 25.5625 15.25 
Q 28.609375 11.078125 34.421875 11.078125 
Q 40.140625 11.078125 43.15625 15.25 
Q 46.1875 19.4375 46.1875 27.296875 
Q 46.1875 35.15625 43.15625 39.328125 
Q 40.140625 43.5 34.421875 43.5 
z
M 34.421875 56 
Q 48.53125 56 56.46875 48.375 
Q 64.40625 40.765625 64.40625 27.296875 
Q 64.40625 13.8125 56.46875 6.1875 
Q 48.53125 -1.421875 34.421875 -1.421875 
Q 20.265625 -1.421875 12.28125 6.1875 
Q 4.296875 13.8125 4.296875 27.296875 
Q 4.296875 40.765625 12.28125 48.375 
Q 20.265625 56 34.421875 56 
z
" id="DejaVuSans-Bold-111"/>
     <path d="M 25.875 7.90625 
L 25.875 -20.796875 
L 8.40625 -20.796875 
L 8.40625 54.6875 
L 25.875 54.6875 
L 25.875 46.6875 
Q 29.5 51.46875 33.890625 53.734375 
Q 38.28125 56 44 56 
Q 54.109375 56 60.59375 47.96875 
Q 67.09375 39.9375 67.09375 27.296875 
Q 67.09375 14.65625 60.59375 6.609375 
Q 54.109375 -1.421875 44 -1.421875 
Q 38.28125 -1.421875 33.890625 0.84375 
Q 29.5 3.125 25.875 7.90625 
z
M 37.5 43.3125 
Q 31.890625 43.3125 28.875 39.1875 
Q 25.875 35.0625 25.875 27.296875 
Q 25.875 19.53125 28.875 15.40625 
Q 31.890625 11.28125 37.5 11.28125 
Q 43.109375 11.28125 46.0625 15.375 
Q 49.03125 19.484375 49.03125 27.296875 
Q 49.03125 35.109375 46.0625 39.203125 
Q 43.109375 43.3125 37.5 43.3125 
z
" id="DejaVuSans-Bold-112"/>
     <path d="M 1.21875 54.6875 
L 18.703125 54.6875 
L 33.40625 17.578125 
L 45.90625 54.6875 
L 63.375 54.6875 
L 40.375 -5.171875 
Q 36.921875 -14.3125 32.296875 -17.9375 
Q 27.6875 -21.578125 20.125 -21.578125 
L 10.015625 -21.578125 
L 10.015625 -10.109375 
L 15.484375 -10.109375 
Q 19.921875 -10.109375 21.9375 -8.6875 
Q 23.96875 -7.28125 25.09375 -3.609375 
L 25.59375 -2.09375 
z
" id="DejaVuSans-Bold-121"/>
     <path id="DejaVuSans-Bold-32"/>
     <path d="M 32.90625 24.609375 
Q 27.4375 24.609375 24.671875 22.75 
Q 21.921875 20.90625 21.921875 17.28125 
Q 21.921875 13.96875 24.140625 12.078125 
Q 26.375 10.203125 30.328125 10.203125 
Q 35.25 10.203125 38.625 13.734375 
Q 42 17.28125 42 22.609375 
L 42 24.609375 
z
M 59.625 31.203125 
L 59.625 0 
L 42 0 
L 42 8.109375 
Q 38.484375 3.125 34.078125 0.84375 
Q 29.6875 -1.421875 23.390625 -1.421875 
Q 14.890625 -1.421875 9.59375 3.53125 
Q 4.296875 8.5 4.296875 16.40625 
Q 4.296875 26.03125 10.90625 30.515625 
Q 17.53125 35.015625 31.6875 35.015625 
L 42 35.015625 
L 42 36.375 
Q 42 40.53125 38.71875 42.453125 
Q 35.453125 44.390625 28.515625 44.390625 
Q 22.90625 44.390625 18.0625 43.265625 
Q 13.234375 42.140625 9.078125 39.890625 
L 9.078125 53.21875 
Q 14.703125 54.59375 20.359375 55.296875 
Q 26.03125 56 31.6875 56 
Q 46.484375 56 53.046875 50.171875 
Q 59.625 44.34375 59.625 31.203125 
z
" id="DejaVuSans-Bold-97"/>
     <path d="M 45.609375 46.6875 
L 45.609375 75.984375 
L 63.1875 75.984375 
L 63.1875 0 
L 45.609375 0 
L 45.609375 7.90625 
Q 42 3.078125 37.640625 0.828125 
Q 33.296875 -1.421875 27.59375 -1.421875 
Q 17.484375 -1.421875 10.984375 6.609375 
Q 4.5 14.65625 4.5 27.296875 
Q 4.5 39.9375 10.984375 47.96875 
Q 17.484375 56 27.59375 56 
Q 33.25 56 37.625 53.734375 
Q 42 51.46875 45.609375 46.6875 
z
M 34.078125 11.28125 
Q 39.703125 11.28125 42.65625 15.375 
Q 45.609375 19.484375 45.609375 27.296875 
Q 45.609375 35.109375 42.65625 39.203125 
Q 39.703125 43.3125 34.078125 43.3125 
Q 28.515625 43.3125 25.5625 39.203125 
Q 22.609375 35.109375 22.609375 27.296875 
Q 22.609375 19.484375 25.5625 15.375 
Q 28.515625 11.28125 34.078125 11.28125 
z
" id="DejaVuSans-Bold-100"/>
     <path d="M 9.1875 72.90625 
L 27.984375 72.90625 
L 27.984375 14.203125 
L 60.984375 14.203125 
L 60.984375 0 
L 9.1875 0 
z
" id="DejaVuSans-Bold-76"/>
     <path d="M 51.125 52.984375 
L 51.125 39.703125 
Q 45.515625 42.046875 40.28125 43.21875 
Q 35.0625 44.390625 30.421875 44.390625 
Q 25.4375 44.390625 23.015625 43.140625 
Q 20.609375 41.890625 20.609375 39.3125 
Q 20.609375 37.203125 22.4375 36.078125 
Q 24.265625 34.96875 29 34.421875 
L 32.078125 33.984375 
Q 45.515625 32.28125 50.140625 28.375 
Q 54.78125 24.46875 54.78125 16.109375 
Q 54.78125 7.375 48.328125 2.96875 
Q 41.890625 -1.421875 29.109375 -1.421875 
Q 23.6875 -1.421875 17.890625 -0.5625 
Q 12.109375 0.296875 6 2 
L 6 15.28125 
Q 11.234375 12.75 16.71875 11.46875 
Q 22.21875 10.203125 27.875 10.203125 
Q 33.015625 10.203125 35.59375 11.609375 
Q 38.1875 13.03125 38.1875 15.828125 
Q 38.1875 18.171875 36.40625 19.3125 
Q 34.625 20.453125 29.296875 21.09375 
L 26.21875 21.484375 
Q 14.546875 22.953125 9.859375 26.90625 
Q 5.171875 30.859375 5.171875 38.921875 
Q 5.171875 47.609375 11.125 51.796875 
Q 17.09375 56 29.390625 56 
Q 34.234375 56 39.546875 55.265625 
Q 44.875 54.546875 51.125 52.984375 
z
" id="DejaVuSans-Bold-115"/>
     <path d="M 10.203125 18.890625 
L 27.78125 18.890625 
L 27.78125 0 
L 10.203125 0 
z
" id="DejaVuSans-Bold-46"/>
    </defs>
    <g transform="translate(161.657813 16.318125)scale(0.12 -0.12)">
     <use xlink:href="#DejaVuSans-Bold-69"/>
     <use x="68.310547" xlink:href="#DejaVuSans-Bold-110"/>
     <use x="139.501953" xlink:href="#DejaVuSans-Bold-116"/>
     <use x="187.304688" xlink:href="#DejaVuSans-Bold-114"/>
     <use x="236.621094" xlink:href="#DejaVuSans-Bold-111"/>
     <use x="305.322266" xlink:href="#DejaVuSans-Bold-112"/>
     <use x="376.904297" xlink:href="#DejaVuSans-Bold-121"/>
     <use x="442.089844" xlink:href="#DejaVuSans-Bold-32"/>
     <use x="476.904297" xlink:href="#DejaVuSans-Bold-97"/>
     <use x="544.384766" xlink:href="#DejaVuSans-Bold-110"/>
     <use x="615.576172" xlink:href="#DejaVuSans-Bold-100"/>
     <use x="687.158203" xlink:href="#DejaVuSans-Bold-32"/>
     <use x="721.972656" xlink:href="#DejaVuSans-Bold-76"/>
     <use x="785.693359" xlink:href="#DejaVuSans-Bold-111"/>
     <use x="854.394531" xlink:href="#DejaVuSans-Bold-115"/>
     <use x="913.916016" xlink:href="#DejaVuSans-Bold-115"/>
     <use x="973.4375" xlink:href="#DejaVuSans-Bold-46"/>
    </g>
   </g>
   <g id="legend_1">
    <g id="patch_7">
     <path d="M 18.982656 353.02505 
L 429.699844 353.02505 
Q 431.699844 353.02505 431.699844 351.02505 
L 431.699844 337.346925 
Q 431.699844 335.346925 429.699844 335.346925 
L 18.982656 335.346925 
Q 16.982656 335.346925 16.982656 337.346925 
L 16.982656 351.02505 
Q 16.982656 353.02505 18.982656 353.02505 
z
" style="fill:#4c4c4c;opacity:0.5;stroke:#4c4c4c;stroke-linejoin:miter;"/>
    </g>
    <g id="patch_8">
     <path d="M 16.982656 351.02505 
L 427.699844 351.02505 
Q 429.699844 351.02505 429.699844 349.02505 
L 429.699844 335.346925 
Q 429.699844 333.346925 427.699844 333.346925 
L 16.982656 333.346925 
Q 14.982656 333.346925 14.982656 335.346925 
L 14.982656 349.02505 
Q 14.982656 351.02505 16.982656 351.02505 
z
" style="fill:#ffffff;stroke:#cccccc;stroke-linejoin:miter;"/>
    </g>
    <g id="line2d_20">
     <path d="M 18.982656 341.445362 
L 38.982656 341.445362 
" style="fill:none;stroke:#1f77b4;stroke-linecap:square;stroke-width:1.5;"/>
    </g>
    <g id="line2d_21"/>
    <g id="text_18">
     <!-- Policy Loss (Normalized) -->
     <defs>
      <path d="M 19.671875 64.796875 
L 19.671875 37.40625 
L 32.078125 37.40625 
Q 38.96875 37.40625 42.71875 40.96875 
Q 46.484375 44.53125 46.484375 51.125 
Q 46.484375 57.671875 42.71875 61.234375 
Q 38.96875 64.796875 32.078125 64.796875 
z
M 9.8125 72.90625 
L 32.078125 72.90625 
Q 44.34375 72.90625 50.609375 67.359375 
Q 56.890625 61.8125 56.890625 51.125 
Q 56.890625 40.328125 50.609375 34.8125 
Q 44.34375 29.296875 32.078125 29.296875 
L 19.671875 29.296875 
L 19.671875 0 
L 9.8125 0 
z
" id="DejaVuSans-80"/>
      <path d="M 9.421875 75.984375 
L 18.40625 75.984375 
L 18.40625 0 
L 9.421875 0 
z
" id="DejaVuSans-108"/>
      <path d="M 9.421875 54.6875 
L 18.40625 54.6875 
L 18.40625 0 
L 9.421875 0 
z
M 9.421875 75.984375 
L 18.40625 75.984375 
L 18.40625 64.59375 
L 9.421875 64.59375 
z
" id="DejaVuSans-105"/>
      <path d="M 32.171875 -5.078125 
Q 28.375 -14.84375 24.75 -17.8125 
Q 21.140625 -20.796875 15.09375 -20.796875 
L 7.90625 -20.796875 
L 7.90625 -13.28125 
L 13.1875 -13.28125 
Q 16.890625 -13.28125 18.9375 -11.515625 
Q 21 -9.765625 23.484375 -3.21875 
L 25.09375 0.875 
L 2.984375 54.6875 
L 12.5 54.6875 
L 29.59375 11.921875 
L 46.6875 54.6875 
L 56.203125 54.6875 
z
" id="DejaVuSans-121"/>
      <path id="DejaVuSans-32"/>
      <path d="M 31 75.875 
Q 24.46875 64.65625 21.28125 53.65625 
Q 18.109375 42.671875 18.109375 31.390625 
Q 18.109375 20.125 21.3125 9.0625 
Q 24.515625 -2 31 -13.1875 
L 23.1875 -13.1875 
Q 15.875 -1.703125 12.234375 9.375 
Q 8.59375 20.453125 8.59375 31.390625 
Q 8.59375 42.28125 12.203125 53.3125 
Q 15.828125 64.359375 23.1875 75.875 
z
" id="DejaVuSans-40"/>
      <path d="M 9.8125 72.90625 
L 23.09375 72.90625 
L 55.421875 11.921875 
L 55.421875 72.90625 
L 64.984375 72.90625 
L 64.984375 0 
L 51.703125 0 
L 19.390625 60.984375 
L 19.390625 0 
L 9.8125 0 
z
" id="DejaVuSans-78"/>
      <path d="M 41.109375 46.296875 
Q 39.59375 47.171875 37.8125 47.578125 
Q 36.03125 48 33.890625 48 
Q 26.265625 48 22.1875 43.046875 
Q 18.109375 38.09375 18.109375 28.8125 
L 18.109375 0 
L 9.078125 0 
L 9.078125 54.6875 
L 18.109375 54.6875 
L 18.109375 46.1875 
Q 20.953125 51.171875 25.484375 53.578125 
Q 30.03125 56 36.53125 56 
Q 37.453125 56 38.578125 55.875 
Q 39.703125 55.765625 41.0625 55.515625 
z
" id="DejaVuSans-114"/>
      <path d="M 52 44.1875 
Q 55.375 50.25 60.0625 53.125 
Q 64.75 56 71.09375 56 
Q 79.640625 56 84.28125 50.015625 
Q 88.921875 44.046875 88.921875 33.015625 
L 88.921875 0 
L 79.890625 0 
L 79.890625 32.71875 
Q 79.890625 40.578125 77.09375 44.375 
Q 74.3125 48.1875 68.609375 48.1875 
Q 61.625 48.1875 57.5625 43.546875 
Q 53.515625 38.921875 53.515625 30.90625 
L 53.515625 0 
L 44.484375 0 
L 44.484375 32.71875 
Q 44.484375 40.625 41.703125 44.40625 
Q 38.921875 48.1875 33.109375 48.1875 
Q 26.21875 48.1875 22.15625 43.53125 
Q 18.109375 38.875 18.109375 30.90625 
L 18.109375 0 
L 9.078125 0 
L 9.078125 54.6875 
L 18.109375 54.6875 
L 18.109375 46.1875 
Q 21.1875 51.21875 25.484375 53.609375 
Q 29.78125 56 35.6875 56 
Q 41.65625 56 45.828125 52.96875 
Q 50 49.953125 52 44.1875 
z
" id="DejaVuSans-109"/>
      <path d="M 34.28125 27.484375 
Q 23.390625 27.484375 19.1875 25 
Q 14.984375 22.515625 14.984375 16.5 
Q 14.984375 11.71875 18.140625 8.90625 
Q 21.296875 6.109375 26.703125 6.109375 
Q 34.1875 6.109375 38.703125 11.40625 
Q 43.21875 16.703125 43.21875 25.484375 
L 43.21875 27.484375 
z
M 52.203125 31.203125 
L 52.203125 0 
L 43.21875 0 
L 43.21875 8.296875 
Q 40.140625 3.328125 35.546875 0.953125 
Q 30.953125 -1.421875 24.3125 -1.421875 
Q 15.921875 -1.421875 10.953125 3.296875 
Q 6 8.015625 6 15.921875 
Q 6 25.140625 12.171875 29.828125 
Q 18.359375 34.515625 30.609375 34.515625 
L 43.21875 34.515625 
L 43.21875 35.40625 
Q 43.21875 41.609375 39.140625 45 
Q 35.0625 48.390625 27.6875 48.390625 
Q 23 48.390625 18.546875 47.265625 
Q 14.109375 46.140625 10.015625 43.890625 
L 10.015625 52.203125 
Q 14.9375 54.109375 19.578125 55.046875 
Q 24.21875 56 28.609375 56 
Q 40.484375 56 46.34375 49.84375 
Q 52.203125 43.703125 52.203125 31.203125 
z
" id="DejaVuSans-97"/>
      <path d="M 5.515625 54.6875 
L 48.1875 54.6875 
L 48.1875 46.484375 
L 14.40625 7.171875 
L 48.1875 7.171875 
L 48.1875 0 
L 4.296875 0 
L 4.296875 8.203125 
L 38.09375 47.515625 
L 5.515625 47.515625 
z
" id="DejaVuSans-122"/>
      <path d="M 56.203125 29.59375 
L 56.203125 25.203125 
L 14.890625 25.203125 
Q 15.484375 15.921875 20.484375 11.0625 
Q 25.484375 6.203125 34.421875 6.203125 
Q 39.59375 6.203125 44.453125 7.46875 
Q 49.3125 8.734375 54.109375 11.28125 
L 54.109375 2.78125 
Q 49.265625 0.734375 44.1875 -0.34375 
Q 39.109375 -1.421875 33.890625 -1.421875 
Q 20.796875 -1.421875 13.15625 6.1875 
Q 5.515625 13.8125 5.515625 26.8125 
Q 5.515625 40.234375 12.765625 48.109375 
Q 20.015625 56 32.328125 56 
Q 43.359375 56 49.78125 48.890625 
Q 56.203125 41.796875 56.203125 29.59375 
z
M 47.21875 32.234375 
Q 47.125 39.59375 43.09375 43.984375 
Q 39.0625 48.390625 32.421875 48.390625 
Q 24.90625 48.390625 20.390625 44.140625 
Q 15.875 39.890625 15.1875 32.171875 
z
" id="DejaVuSans-101"/>
      <path d="M 45.40625 46.390625 
L 45.40625 75.984375 
L 54.390625 75.984375 
L 54.390625 0 
L 45.40625 0 
L 45.40625 8.203125 
Q 42.578125 3.328125 38.25 0.953125 
Q 33.9375 -1.421875 27.875 -1.421875 
Q 17.96875 -1.421875 11.734375 6.484375 
Q 5.515625 14.40625 5.515625 27.296875 
Q 5.515625 40.1875 11.734375 48.09375 
Q 17.96875 56 27.875 56 
Q 33.9375 56 38.25 53.625 
Q 42.578125 51.265625 45.40625 46.390625 
z
M 14.796875 27.296875 
Q 14.796875 17.390625 18.875 11.75 
Q 22.953125 6.109375 30.078125 6.109375 
Q 37.203125 6.109375 41.296875 11.75 
Q 45.40625 17.390625 45.40625 27.296875 
Q 45.40625 37.203125 41.296875 42.84375 
Q 37.203125 48.484375 30.078125 48.484375 
Q 22.953125 48.484375 18.875 42.84375 
Q 14.796875 37.203125 14.796875 27.296875 
z
" id="DejaVuSans-100"/>
      <path d="M 8.015625 75.875 
L 15.828125 75.875 
Q 23.140625 64.359375 26.78125 53.3125 
Q 30.421875 42.28125 30.421875 31.390625 
Q 30.421875 20.453125 26.78125 9.375 
Q 23.140625 -1.703125 15.828125 -13.1875 
L 8.015625 -13.1875 
Q 14.5 -2 17.703125 9.0625 
Q 20.90625 20.125 20.90625 31.390625 
Q 20.90625 42.671875 17.703125 53.65625 
Q 14.5 64.65625 8.015625 75.875 
z
" id="DejaVuSans-41"/>
     </defs>
     <g transform="translate(46.982656 344.945362)scale(0.1 -0.1)">
      <use xlink:href="#DejaVuSans-80"/>
      <use x="60.255859" xlink:href="#DejaVuSans-111"/>
      <use x="121.4375" xlink:href="#DejaVuSans-108"/>
      <use x="149.220703" xlink:href="#DejaVuSans-105"/>
      <use x="177.003906" xlink:href="#DejaVuSans-99"/>
      <use x="231.984375" xlink:href="#DejaVuSans-121"/>
      <use x="291.164062" xlink:href="#DejaVuSans-32"/>
      <use x="322.951172" xlink:href="#DejaVuSans-76"/>
      <use x="378.648438" xlink:href="#DejaVuSans-111"/>
      <use x="439.830078" xlink:href="#DejaVuSans-115"/>
      <use x="491.929688" xlink:href="#DejaVuSans-115"/>
      <use x="544.029297" xlink:href="#DejaVuSans-32"/>
      <use x="575.816406" xlink:href="#DejaVuSans-40"/>
      <use x="614.830078" xlink:href="#DejaVuSans-78"/>
      <use x="689.634766" xlink:href="#DejaVuSans-111"/>
      <use x="750.816406" xlink:href="#DejaVuSans-114"/>
      <use x="791.914062" xlink:href="#DejaVuSans-109"/>
      <use x="889.326172" xlink:href="#DejaVuSans-97"/>
      <use x="950.605469" xlink:href="#DejaVuSans-108"/>
      <use x="978.388672" xlink:href="#DejaVuSans-105"/>
      <use x="1006.171875" xlink:href="#DejaVuSans-122"/>
      <use x="1058.662109" xlink:href="#DejaVuSans-101"/>
      <use x="1120.185547" xlink:href="#DejaVuSans-100"/>
      <use x="1183.662109" xlink:href="#DejaVuSans-41"/>
     </g>
    </g>
    <g id="line2d_22">
     <path d="M 189.251406 341.445362 
L 209.251406 341.445362 
" style="fill:none;stroke:#ff7f0e;stroke-linecap:square;stroke-width:1.5;"/>
    </g>
    <g id="line2d_23"/>
    <g id="text_19">
     <!-- Value Loss (Normalized) -->
     <defs>
      <path d="M 28.609375 0 
L 0.78125 72.90625 
L 11.078125 72.90625 
L 34.1875 11.53125 
L 57.328125 72.90625 
L 67.578125 72.90625 
L 39.796875 0 
z
" id="DejaVuSans-86"/>
      <path d="M 8.5 21.578125 
L 8.5 54.6875 
L 17.484375 54.6875 
L 17.484375 21.921875 
Q 17.484375 14.15625 20.5 10.265625 
Q 23.53125 6.390625 29.59375 6.390625 
Q 36.859375 6.390625 41.078125 11.03125 
Q 45.3125 15.671875 45.3125 23.6875 
L 45.3125 54.6875 
L 54.296875 54.6875 
L 54.296875 0 
L 45.3125 0 
L 45.3125 8.40625 
Q 42.046875 3.421875 37.71875 1 
Q 33.40625 -1.421875 27.6875 -1.421875 
Q 18.265625 -1.421875 13.375 4.4375 
Q 8.5 10.296875 8.5 21.578125 
z
M 31.109375 56 
z
" id="DejaVuSans-117"/>
     </defs>
     <g transform="translate(217.251406 344.945362)scale(0.1 -0.1)">
      <use xlink:href="#DejaVuSans-86"/>
      <use x="68.298828" xlink:href="#DejaVuSans-97"/>
      <use x="129.578125" xlink:href="#DejaVuSans-108"/>
      <use x="157.361328" xlink:href="#DejaVuSans-117"/>
      <use x="220.740234" xlink:href="#DejaVuSans-101"/>
      <use x="282.263672" xlink:href="#DejaVuSans-32"/>
      <use x="314.050781" xlink:href="#DejaVuSans-76"/>
      <use x="369.748047" xlink:href="#DejaVuSans-111"/>
      <use x="430.929688" xlink:href="#DejaVuSans-115"/>
      <use x="483.029297" xlink:href="#DejaVuSans-115"/>
      <use x="535.128906" xlink:href="#DejaVuSans-32"/>
      <use x="566.916016" xlink:href="#DejaVuSans-40"/>
      <use x="605.929688" xlink:href="#DejaVuSans-78"/>
      <use x="680.734375" xlink:href="#DejaVuSans-111"/>
      <use x="741.916016" xlink:href="#DejaVuSans-114"/>
      <use x="783.013672" xlink:href="#DejaVuSans-109"/>
      <use x="880.425781" xlink:href="#DejaVuSans-97"/>
      <use x="941.705078" xlink:href="#DejaVuSans-108"/>
      <use x="969.488281" xlink:href="#DejaVuSans-105"/>
      <use x="997.271484" xlink:href="#DejaVuSans-122"/>
      <use x="1049.761719" xlink:href="#DejaVuSans-101"/>
      <use x="1111.285156" xlink:href="#DejaVuSans-100"/>
      <use x="1174.761719" xlink:href="#DejaVuSans-41"/>
     </g>
    </g>
    <g id="line2d_24">
     <path d="M 358.629531 341.445362 
L 378.629531 341.445362 
" style="fill:none;stroke:#008000;stroke-linecap:square;stroke-width:1.5;"/>
    </g>
    <g id="line2d_25"/>
    <g id="text_20">
     <!-- Entropy -->
     <defs>
      <path d="M 54.890625 33.015625 
L 54.890625 0 
L 45.90625 0 
L 45.90625 32.71875 
Q 45.90625 40.484375 42.875 44.328125 
Q 39.84375 48.1875 33.796875 48.1875 
Q 26.515625 48.1875 22.3125 43.546875 
Q 18.109375 38.921875 18.109375 30.90625 
L 18.109375 0 
L 9.078125 0 
L 9.078125 54.6875 
L 18.109375 54.6875 
L 18.109375 46.1875 
Q 21.34375 51.125 25.703125 53.5625 
Q 30.078125 56 35.796875 56 
Q 45.21875 56 50.046875 50.171875 
Q 54.890625 44.34375 54.890625 33.015625 
z
" id="DejaVuSans-110"/>
      <path d="M 18.3125 70.21875 
L 18.3125 54.6875 
L 36.8125 54.6875 
L 36.8125 47.703125 
L 18.3125 47.703125 
L 18.3125 18.015625 
Q 18.3125 11.328125 20.140625 9.421875 
Q 21.96875 7.515625 27.59375 7.515625 
L 36.8125 7.515625 
L 36.8125 0 
L 27.59375 0 
Q 17.1875 0 13.234375 3.875 
Q 9.28125 7.765625 9.28125 18.015625 
L 9.28125 47.703125 
L 2.6875 47.703125 
L 2.6875 54.6875 
L 9.28125 54.6875 
L 9.28125 70.21875 
z
" id="DejaVuSans-116"/>
     </defs>
     <g transform="translate(386.629531 344.945362)scale(0.1 -0.1)">
      <use xlink:href="#DejaVuSans-69"/>
      <use x="63.183594" xlink:href="#DejaVuSans-110"/>
      <use x="126.5625" xlink:href="#DejaVuSans-116"/>
      <use x="165.771484" xlink:href="#DejaVuSans-114"/>
      <use x="206.853516" xlink:href="#DejaVuSans-111"/>
      <use x="268.035156" xlink:href="#DejaVuSans-112"/>
      <use x="331.511719" xlink:href="#DejaVuSans-121"/>
     </g>
    </g>
   </g>
  </g>
  <g id="axes_2">
   <g id="matplotlib.axis_3">
    <g id="ytick_7">
     <g id="line2d_26">
      <defs>
       <path d="M 0 0 
L 3.5 0 
" id="mb0a88c3413" style="stroke:#000000;stroke-width:0.8;"/>
      </defs>
      <g>
       <use style="stroke:#000000;stroke-width:0.8;" x="400.90125" xlink:href="#mb0a88c3413" y="281.789187"/>
      </g>
     </g>
     <g id="text_21">
      <!-- 0 -->
      <g transform="translate(407.90125 285.588406)scale(0.1 -0.1)">
       <use xlink:href="#DejaVuSans-48"/>
      </g>
     </g>
    </g>
    <g id="ytick_8">
     <g id="line2d_27">
      <g>
       <use style="stroke:#000000;stroke-width:0.8;" x="400.90125" xlink:href="#mb0a88c3413" y="225.850266"/>
      </g>
     </g>
     <g id="text_22">
      <!-- 20 -->
      <g transform="translate(407.90125 229.649484)scale(0.1 -0.1)">
       <use xlink:href="#DejaVuSans-50"/>
       <use x="63.623047" xlink:href="#DejaVuSans-48"/>
      </g>
     </g>
    </g>
    <g id="ytick_9">
     <g id="line2d_28">
      <g>
       <use style="stroke:#000000;stroke-width:0.8;" x="400.90125" xlink:href="#mb0a88c3413" y="169.911344"/>
      </g>
     </g>
     <g id="text_23">
      <!-- 40 -->
      <g transform="translate(407.90125 173.710563)scale(0.1 -0.1)">
       <use xlink:href="#DejaVuSans-52"/>
       <use x="63.623047" xlink:href="#DejaVuSans-48"/>
      </g>
     </g>
    </g>
    <g id="ytick_10">
     <g id="line2d_29">
      <g>
       <use style="stroke:#000000;stroke-width:0.8;" x="400.90125" xlink:href="#mb0a88c3413" y="113.972423"/>
      </g>
     </g>
     <g id="text_24">
      <!-- 60 -->
      <g transform="translate(407.90125 117.771642)scale(0.1 -0.1)">
       <use xlink:href="#DejaVuSans-54"/>
       <use x="63.623047" xlink:href="#DejaVuSans-48"/>
      </g>
     </g>
    </g>
    <g id="ytick_11">
     <g id="line2d_30">
      <g>
       <use style="stroke:#000000;stroke-width:0.8;" x="400.90125" xlink:href="#mb0a88c3413" y="58.033501"/>
      </g>
     </g>
     <g id="text_25">
      <!-- 80 -->
      <g transform="translate(407.90125 61.83272)scale(0.1 -0.1)">
       <use xlink:href="#DejaVuSans-56"/>
       <use x="63.623047" xlink:href="#DejaVuSans-48"/>
      </g>
     </g>
    </g>
    <g id="text_26">
     <!-- Entropy -->
     <g transform="translate(432.224688 174.909281)rotate(-90)scale(0.1 -0.1)">
      <use xlink:href="#DejaVuSans-69"/>
      <use x="63.183594" xlink:href="#DejaVuSans-110"/>
      <use x="126.5625" xlink:href="#DejaVuSans-116"/>
      <use x="165.771484" xlink:href="#DejaVuSans-114"/>
      <use x="206.853516" xlink:href="#DejaVuSans-111"/>
      <use x="268.035156" xlink:href="#DejaVuSans-112"/>
      <use x="331.511719" xlink:href="#DejaVuSans-121"/>
     </g>
    </g>
   </g>
   <g id="line2d_31">
    <path clip-path="url(#pbb40fb901b)" d="M 60.013977 276.334125 
L 62.284289 274.938318 
L 64.5546 273.100696 
L 66.824912 270.860938 
L 69.095223 268.030814 
L 71.365535 264.840514 
L 73.635846 261.998833 
L 75.906158 256.427209 
L 78.176469 252.958815 
L 80.446781 248.920992 
L 82.717092 243.224051 
L 91.798338 216.981631 
L 94.06865 210.699753 
L 98.609273 196.767506 
L 100.879584 191.601696 
L 103.149896 185.239258 
L 105.420207 178.531555 
L 107.690519 170.690175 
L 109.96083 164.454246 
L 112.231142 158.800316 
L 114.501453 152.512117 
L 116.771765 146.75926 
L 119.042076 140.19105 
L 121.312388 134.546489 
L 123.582699 129.373114 
L 125.853011 123.835556 
L 130.393634 112.390306 
L 132.663945 107.650849 
L 134.934257 101.912535 
L 137.204568 96.534529 
L 139.47488 92.522583 
L 141.745192 89.229633 
L 146.285815 84.698039 
L 148.556126 81.818959 
L 150.826438 77.889232 
L 153.096749 74.995194 
L 155.367061 72.383171 
L 159.907684 67.772495 
L 164.448307 61.852885 
L 166.718618 59.345872 
L 168.98893 56.597301 
L 171.259241 53.373404 
L 173.529553 49.737003 
L 175.799864 45.663024 
L 178.070176 42.073889 
L 180.340487 40.196078 
L 182.610799 38.511598 
L 184.88111 37.390212 
L 187.151422 37.126675 
L 189.421733 36.543416 
L 200.773291 36.148645 
L 203.043602 36.374667 
L 207.584225 36.128287 
L 214.39516 35.203284 
L 216.665471 34.706747 
L 232.557652 34.528118 
L 234.827963 34.414125 
L 237.098275 35.00784 
L 237.098275 35.00784 
" style="fill:none;stroke:#008000;stroke-linecap:square;stroke-opacity:0.3;stroke-width:1.5;"/>
   </g>
   <g id="patch_9">
    <path d="M 43.78125 288.430125 
L 43.78125 22.318125 
" style="fill:none;stroke:#000000;stroke-linecap:square;stroke-linejoin:miter;stroke-width:0.8;"/>
   </g>
   <g id="patch_10">
    <path d="M 400.90125 288.430125 
L 400.90125 22.318125 
" style="fill:none;stroke:#000000;stroke-linecap:square;stroke-linejoin:miter;stroke-width:0.8;"/>
   </g>
   <g id="patch_11">
    <path d="M 43.78125 288.430125 
L 400.90125 288.430125 
" style="fill:none;stroke:#000000;stroke-linecap:square;stroke-linejoin:miter;stroke-width:0.8;"/>
   </g>
   <g id="patch_12">
    <path d="M 43.78125 22.318125 
L 400.90125 22.318125 
" style="fill:none;stroke:#000000;stroke-linecap:square;stroke-linejoin:miter;stroke-width:0.8;"/>
   </g>
  </g>
 </g>
 <defs>
  <clipPath id="pbb40fb901b">
   <rect height="266.112" width="357.12" x="43.78125" y="22.318125"/>
  </clipPath>
 </defs>
</svg>
