<?xml version="1.0" encoding="utf-8" standalone="no"?>
<!DOCTYPE svg PUBLIC "-//W3C//DTD SVG 1.1//EN"
  "http://www.w3.org/Graphics/SVG/1.1/DTD/svg11.dtd">
<!-- Created with matplotlib (https://matplotlib.org/) -->
<svg height="358.22505pt" version="1.1" viewBox="0 0 465.793437 358.22505" width="465.793437pt" xmlns="http://www.w3.org/2000/svg" xmlns:xlink="http://www.w3.org/1999/xlink">
 <defs>
  <style type="text/css">
*{stroke-linecap:butt;stroke-linejoin:round;}
  </style>
 </defs>
 <g id="figure_1">
  <g id="patch_1">
   <path d="M 0 358.22505 
L 465.793437 358.22505 
L 465.793437 0 
L 0 0 
z
" style="fill:#ffffff;"/>
  </g>
  <g id="axes_1">
   <g id="patch_2">
    <path d="M 55.345313 288.430125 
L 412.465312 288.430125 
L 412.465312 22.318125 
L 55.345313 22.318125 
z
" style="fill:#ffffff;"/>
   </g>
   <g id="matplotlib.axis_1">
    <g id="xtick_1">
     <g id="line2d_1">
      <defs>
       <path d="M 0 0 
L 0 3.5 
" id="mfc8fa4bf56" style="stroke:#000000;stroke-width:0.8;"/>
      </defs>
      <g>
       <use style="stroke:#000000;stroke-width:0.8;" x="71.57804" xlink:href="#mfc8fa4bf56" y="288.430125"/>
      </g>
     </g>
     <g id="text_1">
      <!-- 0 -->
      <defs>
       <path d="M 31.78125 66.40625 
Q 24.171875 66.40625 20.328125 58.90625 
Q 16.5 51.421875 16.5 36.375 
Q 16.5 21.390625 20.328125 13.890625 
Q 24.171875 6.390625 31.78125 6.390625 
Q 39.453125 6.390625 43.28125 13.890625 
Q 47.125 21.390625 47.125 36.375 
Q 47.125 51.421875 43.28125 58.90625 
Q 39.453125 66.40625 31.78125 66.40625 
z
M 31.78125 74.21875 
Q 44.046875 74.21875 50.515625 64.515625 
Q 56.984375 54.828125 56.984375 36.375 
Q 56.984375 17.96875 50.515625 8.265625 
Q 44.046875 -1.421875 31.78125 -1.421875 
Q 19.53125 -1.421875 13.0625 8.265625 
Q 6.59375 17.96875 6.59375 36.375 
Q 6.59375 54.828125 13.0625 64.515625 
Q 19.53125 74.21875 31.78125 74.21875 
z
" id="DejaVuSans-48"/>
      </defs>
      <g transform="translate(68.39679 303.028562)scale(0.1 -0.1)">
       <use xlink:href="#DejaVuSans-48"/>
      </g>
     </g>
    </g>
    <g id="xtick_2">
     <g id="line2d_2">
      <g>
       <use style="stroke:#000000;stroke-width:0.8;" x="142.155115" xlink:href="#mfc8fa4bf56" y="288.430125"/>
      </g>
     </g>
     <g id="text_2">
      <!-- 50 -->
      <defs>
       <path d="M 10.796875 72.90625 
L 49.515625 72.90625 
L 49.515625 64.59375 
L 19.828125 64.59375 
L 19.828125 46.734375 
Q 21.96875 47.46875 24.109375 47.828125 
Q 26.265625 48.1875 28.421875 48.1875 
Q 40.625 48.1875 47.75 41.5 
Q 54.890625 34.8125 54.890625 23.390625 
Q 54.890625 11.625 47.5625 5.09375 
Q 40.234375 -1.421875 26.90625 -1.421875 
Q 22.3125 -1.421875 17.546875 -0.640625 
Q 12.796875 0.140625 7.71875 1.703125 
L 7.71875 11.625 
Q 12.109375 9.234375 16.796875 8.0625 
Q 21.484375 6.890625 26.703125 6.890625 
Q 35.15625 6.890625 40.078125 11.328125 
Q 45.015625 15.765625 45.015625 23.390625 
Q 45.015625 31 40.078125 35.4375 
Q 35.15625 39.890625 26.703125 39.890625 
Q 22.75 39.890625 18.8125 39.015625 
Q 14.890625 38.140625 10.796875 36.28125 
z
" id="DejaVuSans-53"/>
      </defs>
      <g transform="translate(135.792615 303.028562)scale(0.1 -0.1)">
       <use xlink:href="#DejaVuSans-53"/>
       <use x="63.623047" xlink:href="#DejaVuSans-48"/>
      </g>
     </g>
    </g>
    <g id="xtick_3">
     <g id="line2d_3">
      <g>
       <use style="stroke:#000000;stroke-width:0.8;" x="212.73219" xlink:href="#mfc8fa4bf56" y="288.430125"/>
      </g>
     </g>
     <g id="text_3">
      <!-- 100 -->
      <defs>
       <path d="M 12.40625 8.296875 
L 28.515625 8.296875 
L 28.515625 63.921875 
L 10.984375 60.40625 
L 10.984375 69.390625 
L 28.421875 72.90625 
L 38.28125 72.90625 
L 38.28125 8.296875 
L 54.390625 8.296875 
L 54.390625 0 
L 12.40625 0 
z
" id="DejaVuSans-49"/>
      </defs>
      <g transform="translate(203.18844 303.028562)scale(0.1 -0.1)">
       <use xlink:href="#DejaVuSans-49"/>
       <use x="63.623047" xlink:href="#DejaVuSans-48"/>
       <use x="127.246094" xlink:href="#DejaVuSans-48"/>
      </g>
     </g>
    </g>
    <g id="xtick_4">
     <g id="line2d_4">
      <g>
       <use style="stroke:#000000;stroke-width:0.8;" x="283.309265" xlink:href="#mfc8fa4bf56" y="288.430125"/>
      </g>
     </g>
     <g id="text_4">
      <!-- 150 -->
      <g transform="translate(273.765515 303.028562)scale(0.1 -0.1)">
       <use xlink:href="#DejaVuSans-49"/>
       <use x="63.623047" xlink:href="#DejaVuSans-53"/>
       <use x="127.246094" xlink:href="#DejaVuSans-48"/>
      </g>
     </g>
    </g>
    <g id="xtick_5">
     <g id="line2d_5">
      <g>
       <use style="stroke:#000000;stroke-width:0.8;" x="353.88634" xlink:href="#mfc8fa4bf56" y="288.430125"/>
      </g>
     </g>
     <g id="text_5">
      <!-- 200 -->
      <defs>
       <path d="M 19.1875 8.296875 
L 53.609375 8.296875 
L 53.609375 0 
L 7.328125 0 
L 7.328125 8.296875 
Q 12.9375 14.109375 22.625 23.890625 
Q 32.328125 33.6875 34.8125 36.53125 
Q 39.546875 41.84375 41.421875 45.53125 
Q 43.3125 49.21875 43.3125 52.78125 
Q 43.3125 58.59375 39.234375 62.25 
Q 35.15625 65.921875 28.609375 65.921875 
Q 23.96875 65.921875 18.8125 64.3125 
Q 13.671875 62.703125 7.8125 59.421875 
L 7.8125 69.390625 
Q 13.765625 71.78125 18.9375 73 
Q 24.125 74.21875 28.421875 74.21875 
Q 39.75 74.21875 46.484375 68.546875 
Q 53.21875 62.890625 53.21875 53.421875 
Q 53.21875 48.921875 51.53125 44.890625 
Q 49.859375 40.875 45.40625 35.40625 
Q 44.1875 33.984375 37.640625 27.21875 
Q 31.109375 20.453125 19.1875 8.296875 
z
" id="DejaVuSans-50"/>
      </defs>
      <g transform="translate(344.34259 303.028562)scale(0.1 -0.1)">
       <use xlink:href="#DejaVuSans-50"/>
       <use x="63.623047" xlink:href="#DejaVuSans-48"/>
       <use x="127.246094" xlink:href="#DejaVuSans-48"/>
      </g>
     </g>
    </g>
    <g id="text_6">
     <!-- Iteration (Cycle) -->
     <defs>
      <path d="M 9.8125 72.90625 
L 19.671875 72.90625 
L 19.671875 0 
L 9.8125 0 
z
" id="DejaVuSans-73"/>
      <path d="M 18.3125 70.21875 
L 18.3125 54.6875 
L 36.8125 54.6875 
L 36.8125 47.703125 
L 18.3125 47.703125 
L 18.3125 18.015625 
Q 18.3125 11.328125 20.140625 9.421875 
Q 21.96875 7.515625 27.59375 7.515625 
L 36.8125 7.515625 
L 36.8125 0 
L 27.59375 0 
Q 17.1875 0 13.234375 3.875 
Q 9.28125 7.765625 9.28125 18.015625 
L 9.28125 47.703125 
L 2.6875 47.703125 
L 2.6875 54.6875 
L 9.28125 54.6875 
L 9.28125 70.21875 
z
" id="DejaVuSans-116"/>
      <path d="M 56.203125 29.59375 
L 56.203125 25.203125 
L 14.890625 25.203125 
Q 15.484375 15.921875 20.484375 11.0625 
Q 25.484375 6.203125 34.421875 6.203125 
Q 39.59375 6.203125 44.453125 7.46875 
Q 49.3125 8.734375 54.109375 11.28125 
L 54.109375 2.78125 
Q 49.265625 0.734375 44.1875 -0.34375 
Q 39.109375 -1.421875 33.890625 -1.421875 
Q 20.796875 -1.421875 13.15625 6.1875 
Q 5.515625 13.8125 5.515625 26.8125 
Q 5.515625 40.234375 12.765625 48.109375 
Q 20.015625 56 32.328125 56 
Q 43.359375 56 49.78125 48.890625 
Q 56.203125 41.796875 56.203125 29.59375 
z
M 47.21875 32.234375 
Q 47.125 39.59375 43.09375 43.984375 
Q 39.0625 48.390625 32.421875 48.390625 
Q 24.90625 48.390625 20.390625 44.140625 
Q 15.875 39.890625 15.1875 32.171875 
z
" id="DejaVuSans-101"/>
      <path d="M 41.109375 46.296875 
Q 39.59375 47.171875 37.8125 47.578125 
Q 36.03125 48 33.890625 48 
Q 26.265625 48 22.1875 43.046875 
Q 18.109375 38.09375 18.109375 28.8125 
L 18.109375 0 
L 9.078125 0 
L 9.078125 54.6875 
L 18.109375 54.6875 
L 18.109375 46.1875 
Q 20.953125 51.171875 25.484375 53.578125 
Q 30.03125 56 36.53125 56 
Q 37.453125 56 38.578125 55.875 
Q 39.703125 55.765625 41.0625 55.515625 
z
" id="DejaVuSans-114"/>
      <path d="M 34.28125 27.484375 
Q 23.390625 27.484375 19.1875 25 
Q 14.984375 22.515625 14.984375 16.5 
Q 14.984375 11.71875 18.140625 8.90625 
Q 21.296875 6.109375 26.703125 6.109375 
Q 34.1875 6.109375 38.703125 11.40625 
Q 43.21875 16.703125 43.21875 25.484375 
L 43.21875 27.484375 
z
M 52.203125 31.203125 
L 52.203125 0 
L 43.21875 0 
L 43.21875 8.296875 
Q 40.140625 3.328125 35.546875 0.953125 
Q 30.953125 -1.421875 24.3125 -1.421875 
Q 15.921875 -1.421875 10.953125 3.296875 
Q 6 8.015625 6 15.921875 
Q 6 25.140625 12.171875 29.828125 
Q 18.359375 34.515625 30.609375 34.515625 
L 43.21875 34.515625 
L 43.21875 35.40625 
Q 43.21875 41.609375 39.140625 45 
Q 35.0625 48.390625 27.6875 48.390625 
Q 23 48.390625 18.546875 47.265625 
Q 14.109375 46.140625 10.015625 43.890625 
L 10.015625 52.203125 
Q 14.9375 54.109375 19.578125 55.046875 
Q 24.21875 56 28.609375 56 
Q 40.484375 56 46.34375 49.84375 
Q 52.203125 43.703125 52.203125 31.203125 
z
" id="DejaVuSans-97"/>
      <path d="M 9.421875 54.6875 
L 18.40625 54.6875 
L 18.40625 0 
L 9.421875 0 
z
M 9.421875 75.984375 
L 18.40625 75.984375 
L 18.40625 64.59375 
L 9.421875 64.59375 
z
" id="DejaVuSans-105"/>
      <path d="M 30.609375 48.390625 
Q 23.390625 48.390625 19.1875 42.75 
Q 14.984375 37.109375 14.984375 27.296875 
Q 14.984375 17.484375 19.15625 11.84375 
Q 23.34375 6.203125 30.609375 6.203125 
Q 37.796875 6.203125 41.984375 11.859375 
Q 46.1875 17.53125 46.1875 27.296875 
Q 46.1875 37.015625 41.984375 42.703125 
Q 37.796875 48.390625 30.609375 48.390625 
z
M 30.609375 56 
Q 42.328125 56 49.015625 48.375 
Q 55.71875 40.765625 55.71875 27.296875 
Q 55.71875 13.875 49.015625 6.21875 
Q 42.328125 -1.421875 30.609375 -1.421875 
Q 18.84375 -1.421875 12.171875 6.21875 
Q 5.515625 13.875 5.515625 27.296875 
Q 5.515625 40.765625 12.171875 48.375 
Q 18.84375 56 30.609375 56 
z
" id="DejaVuSans-111"/>
      <path d="M 54.890625 33.015625 
L 54.890625 0 
L 45.90625 0 
L 45.90625 32.71875 
Q 45.90625 40.484375 42.875 44.328125 
Q 39.84375 48.1875 33.796875 48.1875 
Q 26.515625 48.1875 22.3125 43.546875 
Q 18.109375 38.921875 18.109375 30.90625 
L 18.109375 0 
L 9.078125 0 
L 9.078125 54.6875 
L 18.109375 54.6875 
L 18.109375 46.1875 
Q 21.34375 51.125 25.703125 53.5625 
Q 30.078125 56 35.796875 56 
Q 45.21875 56 50.046875 50.171875 
Q 54.890625 44.34375 54.890625 33.015625 
z
" id="DejaVuSans-110"/>
      <path id="DejaVuSans-32"/>
      <path d="M 31 75.875 
Q 24.46875 64.65625 21.28125 53.65625 
Q 18.109375 42.671875 18.109375 31.390625 
Q 18.109375 20.125 21.3125 9.0625 
Q 24.515625 -2 31 -13.1875 
L 23.1875 -13.1875 
Q 15.875 -1.703125 12.234375 9.375 
Q 8.59375 20.453125 8.59375 31.390625 
Q 8.59375 42.28125 12.203125 53.3125 
Q 15.828125 64.359375 23.1875 75.875 
z
" id="DejaVuSans-40"/>
      <path d="M 64.40625 67.28125 
L 64.40625 56.890625 
Q 59.421875 61.53125 53.78125 63.8125 
Q 48.140625 66.109375 41.796875 66.109375 
Q 29.296875 66.109375 22.65625 58.46875 
Q 16.015625 50.828125 16.015625 36.375 
Q 16.015625 21.96875 22.65625 14.328125 
Q 29.296875 6.6875 41.796875 6.6875 
Q 48.140625 6.6875 53.78125 8.984375 
Q 59.421875 11.28125 64.40625 15.921875 
L 64.40625 5.609375 
Q 59.234375 2.09375 53.4375 0.328125 
Q 47.65625 -1.421875 41.21875 -1.421875 
Q 24.65625 -1.421875 15.125 8.703125 
Q 5.609375 18.84375 5.609375 36.375 
Q 5.609375 53.953125 15.125 64.078125 
Q 24.65625 74.21875 41.21875 74.21875 
Q 47.75 74.21875 53.53125 72.484375 
Q 59.328125 70.75 64.40625 67.28125 
z
" id="DejaVuSans-67"/>
      <path d="M 32.171875 -5.078125 
Q 28.375 -14.84375 24.75 -17.8125 
Q 21.140625 -20.796875 15.09375 -20.796875 
L 7.90625 -20.796875 
L 7.90625 -13.28125 
L 13.1875 -13.28125 
Q 16.890625 -13.28125 18.9375 -11.515625 
Q 21 -9.765625 23.484375 -3.21875 
L 25.09375 0.875 
L 2.984375 54.6875 
L 12.5 54.6875 
L 29.59375 11.921875 
L 46.6875 54.6875 
L 56.203125 54.6875 
z
" id="DejaVuSans-121"/>
      <path d="M 48.78125 52.59375 
L 48.78125 44.1875 
Q 44.96875 46.296875 41.140625 47.34375 
Q 37.3125 48.390625 33.40625 48.390625 
Q 24.65625 48.390625 19.8125 42.84375 
Q 14.984375 37.3125 14.984375 27.296875 
Q 14.984375 17.28125 19.8125 11.734375 
Q 24.65625 6.203125 33.40625 6.203125 
Q 37.3125 6.203125 41.140625 7.25 
Q 44.96875 8.296875 48.78125 10.40625 
L 48.78125 2.09375 
Q 45.015625 0.34375 40.984375 -0.53125 
Q 36.96875 -1.421875 32.421875 -1.421875 
Q 20.0625 -1.421875 12.78125 6.34375 
Q 5.515625 14.109375 5.515625 27.296875 
Q 5.515625 40.671875 12.859375 48.328125 
Q 20.21875 56 33.015625 56 
Q 37.15625 56 41.109375 55.140625 
Q 45.0625 54.296875 48.78125 52.59375 
z
" id="DejaVuSans-99"/>
      <path d="M 9.421875 75.984375 
L 18.40625 75.984375 
L 18.40625 0 
L 9.421875 0 
z
" id="DejaVuSans-108"/>
      <path d="M 8.015625 75.875 
L 15.828125 75.875 
Q 23.140625 64.359375 26.78125 53.3125 
Q 30.421875 42.28125 30.421875 31.390625 
Q 30.421875 20.453125 26.78125 9.375 
Q 23.140625 -1.703125 15.828125 -13.1875 
L 8.015625 -13.1875 
Q 14.5 -2 17.703125 9.0625 
Q 20.90625 20.125 20.90625 31.390625 
Q 20.90625 42.671875 17.703125 53.65625 
Q 14.5 64.65625 8.015625 75.875 
z
" id="DejaVuSans-41"/>
     </defs>
     <g transform="translate(193.540469 316.706687)scale(0.1 -0.1)">
      <use xlink:href="#DejaVuSans-73"/>
      <use x="29.492188" xlink:href="#DejaVuSans-116"/>
      <use x="68.701172" xlink:href="#DejaVuSans-101"/>
      <use x="130.224609" xlink:href="#DejaVuSans-114"/>
      <use x="171.337891" xlink:href="#DejaVuSans-97"/>
      <use x="232.617188" xlink:href="#DejaVuSans-116"/>
      <use x="271.826172" xlink:href="#DejaVuSans-105"/>
      <use x="299.609375" xlink:href="#DejaVuSans-111"/>
      <use x="360.791016" xlink:href="#DejaVuSans-110"/>
      <use x="424.169922" xlink:href="#DejaVuSans-32"/>
      <use x="455.957031" xlink:href="#DejaVuSans-40"/>
      <use x="494.970703" xlink:href="#DejaVuSans-67"/>
      <use x="564.794922" xlink:href="#DejaVuSans-121"/>
      <use x="623.974609" xlink:href="#DejaVuSans-99"/>
      <use x="678.955078" xlink:href="#DejaVuSans-108"/>
      <use x="706.738281" xlink:href="#DejaVuSans-101"/>
      <use x="768.261719" xlink:href="#DejaVuSans-41"/>
     </g>
    </g>
   </g>
   <g id="matplotlib.axis_2">
    <g id="ytick_1">
     <g id="line2d_6">
      <defs>
       <path d="M 0 0 
L -3.5 0 
" id="m3aaf6de0db" style="stroke:#000000;stroke-width:0.8;"/>
      </defs>
      <g>
       <use style="stroke:#000000;stroke-width:0.8;" x="55.345313" xlink:href="#m3aaf6de0db" y="239.749379"/>
      </g>
     </g>
     <g id="text_7">
      <!-- −100 -->
      <defs>
       <path d="M 10.59375 35.5 
L 73.1875 35.5 
L 73.1875 27.203125 
L 10.59375 27.203125 
z
" id="DejaVuSans-8722"/>
      </defs>
      <g transform="translate(20.878125 243.548598)scale(0.1 -0.1)">
       <use xlink:href="#DejaVuSans-8722"/>
       <use x="83.789062" xlink:href="#DejaVuSans-49"/>
       <use x="147.412109" xlink:href="#DejaVuSans-48"/>
       <use x="211.035156" xlink:href="#DejaVuSans-48"/>
      </g>
     </g>
    </g>
    <g id="ytick_2">
     <g id="line2d_7">
      <g>
       <use style="stroke:#000000;stroke-width:0.8;" x="55.345313" xlink:href="#m3aaf6de0db" y="188.415566"/>
      </g>
     </g>
     <g id="text_8">
      <!-- 0 -->
      <g transform="translate(41.982813 192.214785)scale(0.1 -0.1)">
       <use xlink:href="#DejaVuSans-48"/>
      </g>
     </g>
    </g>
    <g id="ytick_3">
     <g id="line2d_8">
      <g>
       <use style="stroke:#000000;stroke-width:0.8;" x="55.345313" xlink:href="#m3aaf6de0db" y="137.081752"/>
      </g>
     </g>
     <g id="text_9">
      <!-- 100 -->
      <g transform="translate(29.257813 140.880971)scale(0.1 -0.1)">
       <use xlink:href="#DejaVuSans-49"/>
       <use x="63.623047" xlink:href="#DejaVuSans-48"/>
       <use x="127.246094" xlink:href="#DejaVuSans-48"/>
      </g>
     </g>
    </g>
    <g id="ytick_4">
     <g id="line2d_9">
      <g>
       <use style="stroke:#000000;stroke-width:0.8;" x="55.345313" xlink:href="#m3aaf6de0db" y="85.747939"/>
      </g>
     </g>
     <g id="text_10">
      <!-- 200 -->
      <g transform="translate(29.257813 89.547157)scale(0.1 -0.1)">
       <use xlink:href="#DejaVuSans-50"/>
       <use x="63.623047" xlink:href="#DejaVuSans-48"/>
       <use x="127.246094" xlink:href="#DejaVuSans-48"/>
      </g>
     </g>
    </g>
    <g id="ytick_5">
     <g id="line2d_10">
      <g>
       <use style="stroke:#000000;stroke-width:0.8;" x="55.345313" xlink:href="#m3aaf6de0db" y="34.414125"/>
      </g>
     </g>
     <g id="text_11">
      <!-- 300 -->
      <defs>
       <path d="M 40.578125 39.3125 
Q 47.65625 37.796875 51.625 33 
Q 55.609375 28.21875 55.609375 21.1875 
Q 55.609375 10.40625 48.1875 4.484375 
Q 40.765625 -1.421875 27.09375 -1.421875 
Q 22.515625 -1.421875 17.65625 -0.515625 
Q 12.796875 0.390625 7.625 2.203125 
L 7.625 11.71875 
Q 11.71875 9.328125 16.59375 8.109375 
Q 21.484375 6.890625 26.8125 6.890625 
Q 36.078125 6.890625 40.9375 10.546875 
Q 45.796875 14.203125 45.796875 21.1875 
Q 45.796875 27.640625 41.28125 31.265625 
Q 36.765625 34.90625 28.71875 34.90625 
L 20.21875 34.90625 
L 20.21875 43.015625 
L 29.109375 43.015625 
Q 36.375 43.015625 40.234375 45.921875 
Q 44.09375 48.828125 44.09375 54.296875 
Q 44.09375 59.90625 40.109375 62.90625 
Q 36.140625 65.921875 28.71875 65.921875 
Q 24.65625 65.921875 20.015625 65.03125 
Q 15.375 64.15625 9.8125 62.3125 
L 9.8125 71.09375 
Q 15.4375 72.65625 20.34375 73.4375 
Q 25.25 74.21875 29.59375 74.21875 
Q 40.828125 74.21875 47.359375 69.109375 
Q 53.90625 64.015625 53.90625 55.328125 
Q 53.90625 49.265625 50.4375 45.09375 
Q 46.96875 40.921875 40.578125 39.3125 
z
" id="DejaVuSans-51"/>
      </defs>
      <g transform="translate(29.257813 38.213344)scale(0.1 -0.1)">
       <use xlink:href="#DejaVuSans-51"/>
       <use x="63.623047" xlink:href="#DejaVuSans-48"/>
       <use x="127.246094" xlink:href="#DejaVuSans-48"/>
      </g>
     </g>
    </g>
    <g id="text_12">
     <!-- Mean Episode Reward -->
     <defs>
      <path d="M 9.8125 72.90625 
L 24.515625 72.90625 
L 43.109375 23.296875 
L 61.8125 72.90625 
L 76.515625 72.90625 
L 76.515625 0 
L 66.890625 0 
L 66.890625 64.015625 
L 48.09375 14.015625 
L 38.1875 14.015625 
L 19.390625 64.015625 
L 19.390625 0 
L 9.8125 0 
z
" id="DejaVuSans-77"/>
      <path d="M 9.8125 72.90625 
L 55.90625 72.90625 
L 55.90625 64.59375 
L 19.671875 64.59375 
L 19.671875 43.015625 
L 54.390625 43.015625 
L 54.390625 34.71875 
L 19.671875 34.71875 
L 19.671875 8.296875 
L 56.78125 8.296875 
L 56.78125 0 
L 9.8125 0 
z
" id="DejaVuSans-69"/>
      <path d="M 18.109375 8.203125 
L 18.109375 -20.796875 
L 9.078125 -20.796875 
L 9.078125 54.6875 
L 18.109375 54.6875 
L 18.109375 46.390625 
Q 20.953125 51.265625 25.265625 53.625 
Q 29.59375 56 35.59375 56 
Q 45.5625 56 51.78125 48.09375 
Q 58.015625 40.1875 58.015625 27.296875 
Q 58.015625 14.40625 51.78125 6.484375 
Q 45.5625 -1.421875 35.59375 -1.421875 
Q 29.59375 -1.421875 25.265625 0.953125 
Q 20.953125 3.328125 18.109375 8.203125 
z
M 48.6875 27.296875 
Q 48.6875 37.203125 44.609375 42.84375 
Q 40.53125 48.484375 33.40625 48.484375 
Q 26.265625 48.484375 22.1875 42.84375 
Q 18.109375 37.203125 18.109375 27.296875 
Q 18.109375 17.390625 22.1875 11.75 
Q 26.265625 6.109375 33.40625 6.109375 
Q 40.53125 6.109375 44.609375 11.75 
Q 48.6875 17.390625 48.6875 27.296875 
z
" id="DejaVuSans-112"/>
      <path d="M 44.28125 53.078125 
L 44.28125 44.578125 
Q 40.484375 46.53125 36.375 47.5 
Q 32.28125 48.484375 27.875 48.484375 
Q 21.1875 48.484375 17.84375 46.4375 
Q 14.5 44.390625 14.5 40.28125 
Q 14.5 37.15625 16.890625 35.375 
Q 19.28125 33.59375 26.515625 31.984375 
L 29.59375 31.296875 
Q 39.15625 29.25 43.1875 25.515625 
Q 47.21875 21.78125 47.21875 15.09375 
Q 47.21875 7.46875 41.1875 3.015625 
Q 35.15625 -1.421875 24.609375 -1.421875 
Q 20.21875 -1.421875 15.453125 -0.5625 
Q 10.6875 0.296875 5.421875 2 
L 5.421875 11.28125 
Q 10.40625 8.6875 15.234375 7.390625 
Q 20.0625 6.109375 24.8125 6.109375 
Q 31.15625 6.109375 34.5625 8.28125 
Q 37.984375 10.453125 37.984375 14.40625 
Q 37.984375 18.0625 35.515625 20.015625 
Q 33.0625 21.96875 24.703125 23.78125 
L 21.578125 24.515625 
Q 13.234375 26.265625 9.515625 29.90625 
Q 5.8125 33.546875 5.8125 39.890625 
Q 5.8125 47.609375 11.28125 51.796875 
Q 16.75 56 26.8125 56 
Q 31.78125 56 36.171875 55.265625 
Q 40.578125 54.546875 44.28125 53.078125 
z
" id="DejaVuSans-115"/>
      <path d="M 45.40625 46.390625 
L 45.40625 75.984375 
L 54.390625 75.984375 
L 54.390625 0 
L 45.40625 0 
L 45.40625 8.203125 
Q 42.578125 3.328125 38.25 0.953125 
Q 33.9375 -1.421875 27.875 -1.421875 
Q 17.96875 -1.421875 11.734375 6.484375 
Q 5.515625 14.40625 5.515625 27.296875 
Q 5.515625 40.1875 11.734375 48.09375 
Q 17.96875 56 27.875 56 
Q 33.9375 56 38.25 53.625 
Q 42.578125 51.265625 45.40625 46.390625 
z
M 14.796875 27.296875 
Q 14.796875 17.390625 18.875 11.75 
Q 22.953125 6.109375 30.078125 6.109375 
Q 37.203125 6.109375 41.296875 11.75 
Q 45.40625 17.390625 45.40625 27.296875 
Q 45.40625 37.203125 41.296875 42.84375 
Q 37.203125 48.484375 30.078125 48.484375 
Q 22.953125 48.484375 18.875 42.84375 
Q 14.796875 37.203125 14.796875 27.296875 
z
" id="DejaVuSans-100"/>
      <path d="M 44.390625 34.1875 
Q 47.5625 33.109375 50.5625 29.59375 
Q 53.5625 26.078125 56.59375 19.921875 
L 66.609375 0 
L 56 0 
L 46.6875 18.703125 
Q 43.0625 26.03125 39.671875 28.421875 
Q 36.28125 30.8125 30.421875 30.8125 
L 19.671875 30.8125 
L 19.671875 0 
L 9.8125 0 
L 9.8125 72.90625 
L 32.078125 72.90625 
Q 44.578125 72.90625 50.734375 67.671875 
Q 56.890625 62.453125 56.890625 51.90625 
Q 56.890625 45.015625 53.6875 40.46875 
Q 50.484375 35.9375 44.390625 34.1875 
z
M 19.671875 64.796875 
L 19.671875 38.921875 
L 32.078125 38.921875 
Q 39.203125 38.921875 42.84375 42.21875 
Q 46.484375 45.515625 46.484375 51.90625 
Q 46.484375 58.296875 42.84375 61.546875 
Q 39.203125 64.796875 32.078125 64.796875 
z
" id="DejaVuSans-82"/>
      <path d="M 4.203125 54.6875 
L 13.1875 54.6875 
L 24.421875 12.015625 
L 35.59375 54.6875 
L 46.1875 54.6875 
L 57.421875 12.015625 
L 68.609375 54.6875 
L 77.59375 54.6875 
L 63.28125 0 
L 52.6875 0 
L 40.921875 44.828125 
L 29.109375 0 
L 18.5 0 
z
" id="DejaVuSans-119"/>
     </defs>
     <g transform="translate(14.798438 210.742875)rotate(-90)scale(0.1 -0.1)">
      <use xlink:href="#DejaVuSans-77"/>
      <use x="86.279297" xlink:href="#DejaVuSans-101"/>
      <use x="147.802734" xlink:href="#DejaVuSans-97"/>
      <use x="209.082031" xlink:href="#DejaVuSans-110"/>
      <use x="272.460938" xlink:href="#DejaVuSans-32"/>
      <use x="304.248047" xlink:href="#DejaVuSans-69"/>
      <use x="367.431641" xlink:href="#DejaVuSans-112"/>
      <use x="430.908203" xlink:href="#DejaVuSans-105"/>
      <use x="458.691406" xlink:href="#DejaVuSans-115"/>
      <use x="510.791016" xlink:href="#DejaVuSans-111"/>
      <use x="571.972656" xlink:href="#DejaVuSans-100"/>
      <use x="635.449219" xlink:href="#DejaVuSans-101"/>
      <use x="696.972656" xlink:href="#DejaVuSans-32"/>
      <use x="728.759766" xlink:href="#DejaVuSans-82"/>
      <use x="798.179688" xlink:href="#DejaVuSans-101"/>
      <use x="859.703125" xlink:href="#DejaVuSans-119"/>
      <use x="941.490234" xlink:href="#DejaVuSans-97"/>
      <use x="1002.769531" xlink:href="#DejaVuSans-114"/>
      <use x="1043.867188" xlink:href="#DejaVuSans-100"/>
     </g>
    </g>
   </g>
   <g id="line2d_11">
    <path clip-path="url(#pe6f6a1e89f)" d="M 71.57804 243.917527 
L 72.989581 243.40253 
L 74.401123 245.085833 
L 75.812664 244.753714 
L 77.224206 246.032544 
L 78.635747 246.653069 
L 80.047289 246.718666 
L 81.45883 247.349303 
L 82.870372 248.389945 
L 84.281913 248.113954 
L 85.693455 246.704247 
L 87.104996 247.447713 
L 88.516538 249.259411 
L 89.928079 248.024365 
L 91.339621 249.956085 
L 92.751162 247.603395 
L 94.162704 249.812003 
L 95.574245 249.651533 
L 96.985787 250.480199 
L 98.397328 250.2895 
L 99.80887 250.631087 
L 101.220411 249.588594 
L 102.631953 249.194574 
L 104.043494 249.640177 
L 105.455036 251.35255 
L 106.866577 252.471962 
L 108.278119 251.558308 
L 109.68966 251.934042 
L 111.101202 251.205497 
L 112.512743 249.793532 
L 113.924285 251.121937 
L 115.335826 252.744232 
L 116.747368 253.577665 
L 118.158909 252.926241 
L 119.570451 253.364441 
L 120.981992 254.259085 
L 122.393534 254.706955 
L 123.805075 251.838512 
L 125.216617 255.228476 
L 126.628158 251.17666 
L 128.0397 254.606677 
L 129.451241 255.630039 
L 130.862783 255.05971 
L 132.274324 254.906715 
L 133.685866 254.22322 
L 135.097407 255.422015 
L 136.508949 254.224405 
L 137.92049 257.547914 
L 139.332032 256.029869 
L 140.743573 256.8269 
L 142.155115 256.482951 
L 143.566656 257.620249 
L 144.978198 256.862727 
L 146.389739 255.760219 
L 147.801281 259.178893 
L 150.624364 260.593485 
L 152.035905 258.590772 
L 154.858988 259.318622 
L 156.27053 258.6675 
L 157.682071 262.309419 
L 159.093613 261.788669 
L 160.505154 259.694223 
L 161.916696 259.253313 
L 163.328237 263.174199 
L 164.739779 260.838703 
L 166.15132 262.488303 
L 167.562862 261.938714 
L 168.974403 259.813276 
L 170.385945 259.7181 
L 171.797486 261.251527 
L 173.209028 264.202804 
L 174.620569 261.393943 
L 176.032111 263.185342 
L 177.443652 264.333092 
L 178.855194 263.578055 
L 180.266735 263.596851 
L 181.678277 263.164015 
L 183.089818 257.439876 
L 184.50136 262.742289 
L 185.912901 266.548093 
L 187.324443 261.138604 
L 188.735984 266.499713 
L 190.147526 265.203171 
L 191.559067 266.918456 
L 192.970609 264.271839 
L 194.38215 263.393637 
L 195.793692 265.396967 
L 197.205233 263.95941 
L 198.616775 263.871933 
L 200.028316 261.329923 
L 201.439858 263.901796 
L 202.851399 263.85173 
L 204.262941 264.745038 
L 205.674482 266.87844 
L 207.086024 261.84232 
L 208.497565 263.021614 
L 209.909107 264.762785 
L 211.320648 263.434298 
L 212.73219 262.565429 
L 214.143731 262.024326 
L 215.555273 263.775884 
L 216.966814 263.672984 
L 218.378356 263.170685 
L 219.789897 260.657826 
L 221.201439 265.476817 
L 222.61298 266.411146 
L 224.024522 267.192125 
L 225.436063 265.117069 
L 226.847605 268.877981 
L 228.259146 262.517793 
L 229.670688 265.683284 
L 231.082229 265.392682 
L 232.493771 263.153228 
L 233.905312 267.601007 
L 235.316854 265.165112 
L 236.728396 264.169624 
L 238.139937 265.338698 
L 239.551479 262.46152 
L 240.96302 261.773141 
L 242.374562 263.421049 
L 243.786103 264.7763 
L 245.197645 263.835785 
L 246.609186 267.492178 
L 248.020728 264.069739 
L 249.432269 262.316746 
L 250.843811 263.80177 
L 252.255352 264.530154 
L 253.666894 266.677757 
L 255.078435 261.415537 
L 256.489977 266.083361 
L 257.901518 267.73651 
L 259.31306 262.492412 
L 260.724601 266.756286 
L 262.136143 264.324615 
L 263.547684 262.718042 
L 264.959226 264.800625 
L 266.370767 263.340037 
L 267.782309 265.129058 
L 269.19385 261.889621 
L 270.605392 266.160761 
L 272.016933 264.181221 
L 273.428475 264.931856 
L 274.840016 267.667158 
L 276.251558 263.058185 
L 277.663099 269.045308 
L 279.074641 266.984543 
L 280.486182 263.599693 
L 281.897724 270.206733 
L 283.309265 264.250153 
L 284.720807 267.41776 
L 286.132348 265.776304 
L 287.54389 263.955674 
L 288.955431 271.084311 
L 290.366973 271.080024 
L 291.778514 265.533883 
L 293.190056 268.249623 
L 294.601597 268.122893 
L 296.013139 269.457444 
L 297.42468 267.416749 
L 298.836222 264.236965 
L 300.247763 269.857308 
L 301.659305 269.088754 
L 303.070846 269.516847 
L 304.482388 269.33125 
L 305.893929 267.527499 
L 307.305471 264.261868 
L 308.717012 269.405463 
L 310.128554 268.219754 
L 311.540095 268.686729 
L 312.951637 268.840662 
L 314.363178 268.338046 
L 315.77472 268.373098 
L 317.186261 266.366564 
L 318.597803 268.034071 
L 320.009344 265.301704 
L 321.420886 266.461955 
L 322.832427 267.851941 
L 324.243969 267.792474 
L 325.65551 273.126338 
L 327.067052 269.682779 
L 328.478593 265.517905 
L 329.890135 267.753004 
L 331.301676 267.154854 
L 332.713218 266.972829 
L 334.124759 269.741005 
L 335.536301 270.431228 
L 336.947842 270.166458 
L 338.359384 272.58715 
L 339.770925 266.500997 
L 341.182467 270.609422 
L 342.594008 268.630255 
L 344.00555 270.424373 
L 345.417091 271.284022 
L 346.828633 266.51374 
L 348.240174 270.189037 
L 349.651716 265.522727 
L 351.063257 266.902319 
L 352.474799 266.178825 
L 353.88634 267.630289 
L 355.297882 267.150663 
L 358.120965 273.646789 
L 359.532506 267.907191 
L 360.944048 268.119574 
L 362.355589 270.041745 
L 363.767131 267.309472 
L 365.178672 267.270401 
L 366.590214 267.795843 
L 368.001755 276.334125 
L 369.413297 266.871464 
L 370.824838 268.573208 
L 372.23638 269.491342 
L 373.647921 271.297444 
L 375.059463 266.88909 
L 376.471004 269.644981 
L 377.882546 265.190048 
L 379.294087 264.526157 
L 380.705629 271.419057 
L 382.11717 263.529081 
L 383.528712 269.15866 
L 384.940253 268.263668 
L 386.351795 267.201151 
L 387.763336 269.198984 
L 389.174878 268.203605 
L 390.586419 268.670508 
L 391.997961 271.958682 
L 393.409502 268.279426 
L 394.821044 266.909563 
L 396.232585 271.653011 
L 396.232585 271.653011 
" style="fill:none;stroke:#ff0000;stroke-linecap:square;stroke-opacity:0.3;stroke-width:1.5;"/>
   </g>
   <g id="line2d_12">
    <path clip-path="url(#pe6f6a1e89f)" d="M 71.57804 243.819169 
L 72.989581 243.942144 
L 74.401123 244.378321 
L 77.224206 245.786262 
L 78.635747 246.556018 
L 80.047289 247.111869 
L 81.45883 247.216641 
L 82.870372 247.62203 
L 84.281913 247.623753 
L 85.693455 248.006865 
L 88.516538 248.197333 
L 89.928079 248.331179 
L 94.162704 249.567141 
L 96.985787 250.049505 
L 98.397328 249.885904 
L 99.80887 250.000208 
L 101.220411 249.986735 
L 104.043494 250.493643 
L 105.455036 251.002988 
L 108.278119 251.350231 
L 113.924285 251.535903 
L 115.335826 251.999845 
L 116.747368 252.79722 
L 118.158909 253.184937 
L 119.570451 253.959229 
L 122.393534 253.442288 
L 123.805075 253.473334 
L 126.628158 253.92838 
L 128.0397 254.009985 
L 129.451241 254.411406 
L 132.274324 254.757212 
L 133.685866 255.294906 
L 135.097407 255.250249 
L 136.508949 255.398746 
L 139.332032 256.462876 
L 142.155115 256.610597 
L 144.978198 257.269279 
L 146.389739 257.969261 
L 149.212822 258.928793 
L 150.624364 258.921851 
L 152.035905 259.33213 
L 153.447447 259.871637 
L 154.858988 259.896794 
L 156.27053 259.721319 
L 161.916696 261.406966 
L 163.328237 261.589871 
L 164.739779 261.15674 
L 166.15132 260.952118 
L 167.562862 261.377531 
L 168.974403 261.295455 
L 170.385945 260.990424 
L 171.797486 261.519552 
L 173.209028 261.887254 
L 174.620569 262.615449 
L 176.032111 263.821911 
L 177.443652 263.547608 
L 178.855194 262.687821 
L 180.266735 262.677836 
L 183.089818 262.264152 
L 184.50136 262.317385 
L 190.147526 265.649986 
L 191.559067 265.217495 
L 194.38215 265.018888 
L 195.793692 264.037594 
L 198.616775 263.109045 
L 200.028316 263.796998 
L 201.439858 263.935104 
L 202.851399 263.692355 
L 205.674482 264.270756 
L 207.086024 264.451394 
L 208.497565 263.807646 
L 211.320648 263.092285 
L 214.143731 263.081437 
L 215.555273 262.664453 
L 216.966814 262.581741 
L 218.378356 263.346258 
L 219.789897 263.766069 
L 221.201439 264.972949 
L 222.61298 265.311373 
L 225.436063 266.385182 
L 226.847605 266.106277 
L 228.259146 265.52587 
L 231.082229 265.060092 
L 232.493771 265.291407 
L 233.905312 265.084778 
L 235.316854 265.205747 
L 236.728396 264.35261 
L 238.139937 264.044315 
L 239.551479 263.490314 
L 240.96302 263.253816 
L 242.374562 263.865982 
L 243.786103 264.06358 
L 245.197645 264.125518 
L 246.609186 264.349202 
L 248.020728 264.892141 
L 250.843811 263.929662 
L 252.255352 264.421844 
L 253.666894 264.112565 
L 255.078435 264.896786 
L 256.489977 265.434548 
L 257.901518 265.157161 
L 259.31306 265.033161 
L 260.724601 264.643249 
L 262.136143 265.019226 
L 263.547684 263.930685 
L 264.959226 263.770858 
L 266.370767 264.060154 
L 267.782309 263.542529 
L 269.19385 264.408865 
L 270.605392 264.391671 
L 272.016933 264.687102 
L 273.428475 265.619196 
L 274.840016 265.458927 
L 276.251558 266.449634 
L 277.663099 266.245193 
L 279.074641 266.704245 
L 280.486182 266.862024 
L 281.897724 266.064727 
L 284.720807 266.441575 
L 287.54389 267.504162 
L 288.955431 267.279061 
L 290.366973 268.316198 
L 291.778514 268.696614 
L 294.601597 268.150926 
L 296.013139 267.28603 
L 297.42468 267.493226 
L 298.836222 268.326259 
L 300.247763 268.583266 
L 301.659305 268.211037 
L 303.070846 268.118417 
L 304.482388 268.306169 
L 305.893929 268.333531 
L 307.305471 267.73889 
L 308.717012 267.776121 
L 310.128554 268.020972 
L 311.540095 268.126642 
L 312.951637 268.635404 
L 314.363178 268.59719 
L 315.77472 267.624964 
L 317.186261 267.299982 
L 318.597803 266.516487 
L 320.009344 266.779057 
L 321.420886 267.676989 
L 324.243969 268.627197 
L 325.65551 268.755253 
L 327.067052 268.718406 
L 328.478593 268.286613 
L 331.301676 267.663408 
L 332.713218 268.108399 
L 334.124759 268.850066 
L 335.536301 269.806597 
L 338.359384 269.960928 
L 339.770925 270.362306 
L 341.182467 269.748026 
L 342.594008 269.816769 
L 346.828633 268.880212 
L 348.240174 267.949342 
L 349.651716 267.251636 
L 351.063257 266.424092 
L 352.474799 267.082414 
L 353.88634 268.081759 
L 355.297882 268.295624 
L 356.709423 269.458699 
L 358.120965 269.763571 
L 359.532506 269.801341 
L 360.944048 268.6769 
L 362.355589 269.127348 
L 363.767131 268.796797 
L 365.178672 268.649892 
L 368.001755 269.720225 
L 369.413297 269.633198 
L 370.824838 270.23884 
L 372.23638 270.020093 
L 373.647921 268.543582 
L 375.059463 267.951562 
L 376.471004 267.964506 
L 377.882546 267.295202 
L 380.705629 266.666476 
L 382.11717 267.218149 
L 383.528712 267.355705 
L 386.351795 268.372825 
L 387.763336 268.523955 
L 389.174878 269.042288 
L 391.997961 268.717218 
L 393.409502 268.830248 
L 394.821044 269.367611 
L 396.232585 270.509775 
L 396.232585 270.509775 
" style="fill:none;stroke:#ff0000;stroke-linecap:square;stroke-width:1.5;"/>
   </g>
   <g id="line2d_13">
    <path clip-path="url(#pe6f6a1e89f)" d="M 55.345313 34.414125 
L 412.465312 34.414125 
" style="fill:none;stroke:#008000;stroke-dasharray:3.7,1.6;stroke-dashoffset:0;"/>
   </g>
   <g id="patch_3">
    <path d="M 55.345313 288.430125 
L 55.345313 22.318125 
" style="fill:none;stroke:#000000;stroke-linecap:square;stroke-linejoin:miter;stroke-width:0.8;"/>
   </g>
   <g id="patch_4">
    <path d="M 412.465312 288.430125 
L 412.465312 22.318125 
" style="fill:none;stroke:#000000;stroke-linecap:square;stroke-linejoin:miter;stroke-width:0.8;"/>
   </g>
   <g id="patch_5">
    <path d="M 55.345313 288.430125 
L 412.465312 288.430125 
" style="fill:none;stroke:#000000;stroke-linecap:square;stroke-linejoin:miter;stroke-width:0.8;"/>
   </g>
   <g id="patch_6">
    <path d="M 55.345313 22.318125 
L 412.465312 22.318125 
" style="fill:none;stroke:#000000;stroke-linecap:square;stroke-linejoin:miter;stroke-width:0.8;"/>
   </g>
   <g id="text_13">
    <!-- Mean Rewards and Episode Lengths. -->
    <defs>
     <path d="M 9.1875 72.90625 
L 33.109375 72.90625 
L 49.703125 33.890625 
L 66.40625 72.90625 
L 90.28125 72.90625 
L 90.28125 0 
L 72.515625 0 
L 72.515625 53.328125 
L 55.71875 14.015625 
L 43.796875 14.015625 
L 27 53.328125 
L 27 0 
L 9.1875 0 
z
" id="DejaVuSans-Bold-77"/>
     <path d="M 62.984375 27.484375 
L 62.984375 22.515625 
L 22.125 22.515625 
Q 22.75 16.359375 26.5625 13.28125 
Q 30.375 10.203125 37.203125 10.203125 
Q 42.71875 10.203125 48.5 11.84375 
Q 54.296875 13.484375 60.40625 16.796875 
L 60.40625 3.328125 
Q 54.203125 0.984375 48 -0.21875 
Q 41.796875 -1.421875 35.59375 -1.421875 
Q 20.75 -1.421875 12.515625 6.125 
Q 4.296875 13.671875 4.296875 27.296875 
Q 4.296875 40.671875 12.375 48.328125 
Q 20.453125 56 34.625 56 
Q 47.515625 56 55.25 48.234375 
Q 62.984375 40.484375 62.984375 27.484375 
z
M 45.015625 33.296875 
Q 45.015625 38.28125 42.109375 41.328125 
Q 39.203125 44.390625 34.515625 44.390625 
Q 29.4375 44.390625 26.265625 41.53125 
Q 23.09375 38.671875 22.3125 33.296875 
z
" id="DejaVuSans-Bold-101"/>
     <path d="M 32.90625 24.609375 
Q 27.4375 24.609375 24.671875 22.75 
Q 21.921875 20.90625 21.921875 17.28125 
Q 21.921875 13.96875 24.140625 12.078125 
Q 26.375 10.203125 30.328125 10.203125 
Q 35.25 10.203125 38.625 13.734375 
Q 42 17.28125 42 22.609375 
L 42 24.609375 
z
M 59.625 31.203125 
L 59.625 0 
L 42 0 
L 42 8.109375 
Q 38.484375 3.125 34.078125 0.84375 
Q 29.6875 -1.421875 23.390625 -1.421875 
Q 14.890625 -1.421875 9.59375 3.53125 
Q 4.296875 8.5 4.296875 16.40625 
Q 4.296875 26.03125 10.90625 30.515625 
Q 17.53125 35.015625 31.6875 35.015625 
L 42 35.015625 
L 42 36.375 
Q 42 40.53125 38.71875 42.453125 
Q 35.453125 44.390625 28.515625 44.390625 
Q 22.90625 44.390625 18.0625 43.265625 
Q 13.234375 42.140625 9.078125 39.890625 
L 9.078125 53.21875 
Q 14.703125 54.59375 20.359375 55.296875 
Q 26.03125 56 31.6875 56 
Q 46.484375 56 53.046875 50.171875 
Q 59.625 44.34375 59.625 31.203125 
z
" id="DejaVuSans-Bold-97"/>
     <path d="M 63.375 33.296875 
L 63.375 0 
L 45.796875 0 
L 45.796875 5.421875 
L 45.796875 25.484375 
Q 45.796875 32.5625 45.484375 35.25 
Q 45.171875 37.9375 44.390625 39.203125 
Q 43.359375 40.921875 41.59375 41.875 
Q 39.84375 42.828125 37.59375 42.828125 
Q 32.125 42.828125 29 38.59375 
Q 25.875 34.375 25.875 26.90625 
L 25.875 0 
L 8.40625 0 
L 8.40625 54.6875 
L 25.875 54.6875 
L 25.875 46.6875 
Q 29.828125 51.46875 34.265625 53.734375 
Q 38.71875 56 44.09375 56 
Q 53.5625 56 58.46875 50.1875 
Q 63.375 44.390625 63.375 33.296875 
z
" id="DejaVuSans-Bold-110"/>
     <path id="DejaVuSans-Bold-32"/>
     <path d="M 35.890625 40.578125 
Q 41.796875 40.578125 44.359375 42.765625 
Q 46.921875 44.96875 46.921875 50 
Q 46.921875 54.984375 44.359375 57.125 
Q 41.796875 59.28125 35.890625 59.28125 
L 27.984375 59.28125 
L 27.984375 40.578125 
z
M 27.984375 27.59375 
L 27.984375 0 
L 9.1875 0 
L 9.1875 72.90625 
L 37.890625 72.90625 
Q 52.296875 72.90625 59 68.0625 
Q 65.71875 63.234375 65.71875 52.78125 
Q 65.71875 45.5625 62.21875 40.921875 
Q 58.734375 36.28125 51.703125 34.078125 
Q 55.5625 33.203125 58.609375 30.09375 
Q 61.671875 27 64.796875 20.703125 
L 75 0 
L 54.984375 0 
L 46.09375 18.109375 
Q 43.40625 23.578125 40.640625 25.578125 
Q 37.890625 27.59375 33.296875 27.59375 
z
" id="DejaVuSans-Bold-82"/>
     <path d="M 3.515625 54.6875 
L 20.515625 54.6875 
L 29.6875 17 
L 38.921875 54.6875 
L 53.515625 54.6875 
L 62.703125 17.390625 
L 71.921875 54.6875 
L 88.921875 54.6875 
L 74.515625 0 
L 55.421875 0 
L 46.1875 37.59375 
L 37.015625 0 
L 17.921875 0 
z
" id="DejaVuSans-Bold-119"/>
     <path d="M 49.03125 39.796875 
Q 46.734375 40.875 44.453125 41.375 
Q 42.1875 41.890625 39.890625 41.890625 
Q 33.15625 41.890625 29.515625 37.5625 
Q 25.875 33.25 25.875 25.203125 
L 25.875 0 
L 8.40625 0 
L 8.40625 54.6875 
L 25.875 54.6875 
L 25.875 45.703125 
Q 29.25 51.078125 33.609375 53.53125 
Q 37.984375 56 44.09375 56 
Q 44.96875 56 45.984375 55.921875 
Q 47.015625 55.859375 48.96875 55.609375 
z
" id="DejaVuSans-Bold-114"/>
     <path d="M 45.609375 46.6875 
L 45.609375 75.984375 
L 63.1875 75.984375 
L 63.1875 0 
L 45.609375 0 
L 45.609375 7.90625 
Q 42 3.078125 37.640625 0.828125 
Q 33.296875 -1.421875 27.59375 -1.421875 
Q 17.484375 -1.421875 10.984375 6.609375 
Q 4.5 14.65625 4.5 27.296875 
Q 4.5 39.9375 10.984375 47.96875 
Q 17.484375 56 27.59375 56 
Q 33.25 56 37.625 53.734375 
Q 42 51.46875 45.609375 46.6875 
z
M 34.078125 11.28125 
Q 39.703125 11.28125 42.65625 15.375 
Q 45.609375 19.484375 45.609375 27.296875 
Q 45.609375 35.109375 42.65625 39.203125 
Q 39.703125 43.3125 34.078125 43.3125 
Q 28.515625 43.3125 25.5625 39.203125 
Q 22.609375 35.109375 22.609375 27.296875 
Q 22.609375 19.484375 25.5625 15.375 
Q 28.515625 11.28125 34.078125 11.28125 
z
" id="DejaVuSans-Bold-100"/>
     <path d="M 51.125 52.984375 
L 51.125 39.703125 
Q 45.515625 42.046875 40.28125 43.21875 
Q 35.0625 44.390625 30.421875 44.390625 
Q 25.4375 44.390625 23.015625 43.140625 
Q 20.609375 41.890625 20.609375 39.3125 
Q 20.609375 37.203125 22.4375 36.078125 
Q 24.265625 34.96875 29 34.421875 
L 32.078125 33.984375 
Q 45.515625 32.28125 50.140625 28.375 
Q 54.78125 24.46875 54.78125 16.109375 
Q 54.78125 7.375 48.328125 2.96875 
Q 41.890625 -1.421875 29.109375 -1.421875 
Q 23.6875 -1.421875 17.890625 -0.5625 
Q 12.109375 0.296875 6 2 
L 6 15.28125 
Q 11.234375 12.75 16.71875 11.46875 
Q 22.21875 10.203125 27.875 10.203125 
Q 33.015625 10.203125 35.59375 11.609375 
Q 38.1875 13.03125 38.1875 15.828125 
Q 38.1875 18.171875 36.40625 19.3125 
Q 34.625 20.453125 29.296875 21.09375 
L 26.21875 21.484375 
Q 14.546875 22.953125 9.859375 26.90625 
Q 5.171875 30.859375 5.171875 38.921875 
Q 5.171875 47.609375 11.125 51.796875 
Q 17.09375 56 29.390625 56 
Q 34.234375 56 39.546875 55.265625 
Q 44.875 54.546875 51.125 52.984375 
z
" id="DejaVuSans-Bold-115"/>
     <path d="M 9.1875 72.90625 
L 59.90625 72.90625 
L 59.90625 58.6875 
L 27.984375 58.6875 
L 27.984375 45.125 
L 58.015625 45.125 
L 58.015625 30.90625 
L 27.984375 30.90625 
L 27.984375 14.203125 
L 60.984375 14.203125 
L 60.984375 0 
L 9.1875 0 
z
" id="DejaVuSans-Bold-69"/>
     <path d="M 25.875 7.90625 
L 25.875 -20.796875 
L 8.40625 -20.796875 
L 8.40625 54.6875 
L 25.875 54.6875 
L 25.875 46.6875 
Q 29.5 51.46875 33.890625 53.734375 
Q 38.28125 56 44 56 
Q 54.109375 56 60.59375 47.96875 
Q 67.09375 39.9375 67.09375 27.296875 
Q 67.09375 14.65625 60.59375 6.609375 
Q 54.109375 -1.421875 44 -1.421875 
Q 38.28125 -1.421875 33.890625 0.84375 
Q 29.5 3.125 25.875 7.90625 
z
M 37.5 43.3125 
Q 31.890625 43.3125 28.875 39.1875 
Q 25.875 35.0625 25.875 27.296875 
Q 25.875 19.53125 28.875 15.40625 
Q 31.890625 11.28125 37.5 11.28125 
Q 43.109375 11.28125 46.0625 15.375 
Q 49.03125 19.484375 49.03125 27.296875 
Q 49.03125 35.109375 46.0625 39.203125 
Q 43.109375 43.3125 37.5 43.3125 
z
" id="DejaVuSans-Bold-112"/>
     <path d="M 8.40625 54.6875 
L 25.875 54.6875 
L 25.875 0 
L 8.40625 0 
z
M 8.40625 75.984375 
L 25.875 75.984375 
L 25.875 61.71875 
L 8.40625 61.71875 
z
" id="DejaVuSans-Bold-105"/>
     <path d="M 34.421875 43.5 
Q 28.609375 43.5 25.5625 39.328125 
Q 22.515625 35.15625 22.515625 27.296875 
Q 22.515625 19.4375 25.5625 15.25 
Q 28.609375 11.078125 34.421875 11.078125 
Q 40.140625 11.078125 43.15625 15.25 
Q 46.1875 19.4375 46.1875 27.296875 
Q 46.1875 35.15625 43.15625 39.328125 
Q 40.140625 43.5 34.421875 43.5 
z
M 34.421875 56 
Q 48.53125 56 56.46875 48.375 
Q 64.40625 40.765625 64.40625 27.296875 
Q 64.40625 13.8125 56.46875 6.1875 
Q 48.53125 -1.421875 34.421875 -1.421875 
Q 20.265625 -1.421875 12.28125 6.1875 
Q 4.296875 13.8125 4.296875 27.296875 
Q 4.296875 40.765625 12.28125 48.375 
Q 20.265625 56 34.421875 56 
z
" id="DejaVuSans-Bold-111"/>
     <path d="M 9.1875 72.90625 
L 27.984375 72.90625 
L 27.984375 14.203125 
L 60.984375 14.203125 
L 60.984375 0 
L 9.1875 0 
z
" id="DejaVuSans-Bold-76"/>
     <path d="M 45.609375 9.28125 
Q 42 4.5 37.640625 2.25 
Q 33.296875 0 27.59375 0 
Q 17.578125 0 11.03125 7.875 
Q 4.5 15.765625 4.5 27.984375 
Q 4.5 40.234375 11.03125 48.0625 
Q 17.578125 55.90625 27.59375 55.90625 
Q 33.296875 55.90625 37.640625 53.65625 
Q 42 51.421875 45.609375 46.578125 
L 45.609375 54.6875 
L 63.1875 54.6875 
L 63.1875 5.515625 
Q 63.1875 -7.671875 54.859375 -14.625 
Q 46.53125 -21.578125 30.71875 -21.578125 
Q 25.59375 -21.578125 20.796875 -20.796875 
Q 16.015625 -20.015625 11.1875 -18.40625 
L 11.1875 -4.78125 
Q 15.765625 -7.421875 20.15625 -8.71875 
Q 24.5625 -10.015625 29 -10.015625 
Q 37.59375 -10.015625 41.59375 -6.25 
Q 45.609375 -2.484375 45.609375 5.515625 
z
M 34.078125 43.3125 
Q 28.65625 43.3125 25.625 39.296875 
Q 22.609375 35.296875 22.609375 27.984375 
Q 22.609375 20.453125 25.53125 16.578125 
Q 28.46875 12.703125 34.078125 12.703125 
Q 39.546875 12.703125 42.578125 16.703125 
Q 45.609375 20.703125 45.609375 27.984375 
Q 45.609375 35.296875 42.578125 39.296875 
Q 39.546875 43.3125 34.078125 43.3125 
z
" id="DejaVuSans-Bold-103"/>
     <path d="M 27.484375 70.21875 
L 27.484375 54.6875 
L 45.515625 54.6875 
L 45.515625 42.1875 
L 27.484375 42.1875 
L 27.484375 19 
Q 27.484375 15.1875 29 13.84375 
Q 30.515625 12.5 35.015625 12.5 
L 44 12.5 
L 44 0 
L 29 0 
Q 18.65625 0 14.328125 4.3125 
Q 10.015625 8.640625 10.015625 19 
L 10.015625 42.1875 
L 1.3125 42.1875 
L 1.3125 54.6875 
L 10.015625 54.6875 
L 10.015625 70.21875 
z
" id="DejaVuSans-Bold-116"/>
     <path d="M 63.375 33.296875 
L 63.375 0 
L 45.796875 0 
L 45.796875 5.421875 
L 45.796875 25.390625 
Q 45.796875 32.5625 45.484375 35.25 
Q 45.171875 37.9375 44.390625 39.203125 
Q 43.359375 40.921875 41.59375 41.875 
Q 39.84375 42.828125 37.59375 42.828125 
Q 32.125 42.828125 29 38.59375 
Q 25.875 34.375 25.875 26.90625 
L 25.875 0 
L 8.40625 0 
L 8.40625 75.984375 
L 25.875 75.984375 
L 25.875 46.6875 
Q 29.828125 51.46875 34.265625 53.734375 
Q 38.71875 56 44.09375 56 
Q 53.5625 56 58.46875 50.1875 
Q 63.375 44.390625 63.375 33.296875 
z
" id="DejaVuSans-Bold-104"/>
     <path d="M 10.203125 18.890625 
L 27.78125 18.890625 
L 27.78125 0 
L 10.203125 0 
z
" id="DejaVuSans-Bold-46"/>
    </defs>
    <g transform="translate(109.512188 16.318125)scale(0.12 -0.12)">
     <use xlink:href="#DejaVuSans-Bold-77"/>
     <use x="99.511719" xlink:href="#DejaVuSans-Bold-101"/>
     <use x="167.333984" xlink:href="#DejaVuSans-Bold-97"/>
     <use x="234.814453" xlink:href="#DejaVuSans-Bold-110"/>
     <use x="306.005859" xlink:href="#DejaVuSans-Bold-32"/>
     <use x="340.820312" xlink:href="#DejaVuSans-Bold-82"/>
     <use x="417.822266" xlink:href="#DejaVuSans-Bold-101"/>
     <use x="485.644531" xlink:href="#DejaVuSans-Bold-119"/>
     <use x="578.027344" xlink:href="#DejaVuSans-Bold-97"/>
     <use x="645.507812" xlink:href="#DejaVuSans-Bold-114"/>
     <use x="694.824219" xlink:href="#DejaVuSans-Bold-100"/>
     <use x="766.40625" xlink:href="#DejaVuSans-Bold-115"/>
     <use x="825.927734" xlink:href="#DejaVuSans-Bold-32"/>
     <use x="860.742188" xlink:href="#DejaVuSans-Bold-97"/>
     <use x="928.222656" xlink:href="#DejaVuSans-Bold-110"/>
     <use x="999.414062" xlink:href="#DejaVuSans-Bold-100"/>
     <use x="1070.996094" xlink:href="#DejaVuSans-Bold-32"/>
     <use x="1105.810547" xlink:href="#DejaVuSans-Bold-69"/>
     <use x="1174.121094" xlink:href="#DejaVuSans-Bold-112"/>
     <use x="1245.703125" xlink:href="#DejaVuSans-Bold-105"/>
     <use x="1279.980469" xlink:href="#DejaVuSans-Bold-115"/>
     <use x="1339.501953" xlink:href="#DejaVuSans-Bold-111"/>
     <use x="1408.203125" xlink:href="#DejaVuSans-Bold-100"/>
     <use x="1479.785156" xlink:href="#DejaVuSans-Bold-101"/>
     <use x="1547.607422" xlink:href="#DejaVuSans-Bold-32"/>
     <use x="1582.421875" xlink:href="#DejaVuSans-Bold-76"/>
     <use x="1646.142578" xlink:href="#DejaVuSans-Bold-101"/>
     <use x="1713.964844" xlink:href="#DejaVuSans-Bold-110"/>
     <use x="1785.15625" xlink:href="#DejaVuSans-Bold-103"/>
     <use x="1856.738281" xlink:href="#DejaVuSans-Bold-116"/>
     <use x="1904.541016" xlink:href="#DejaVuSans-Bold-104"/>
     <use x="1975.732422" xlink:href="#DejaVuSans-Bold-115"/>
     <use x="2035.253906" xlink:href="#DejaVuSans-Bold-46"/>
    </g>
   </g>
   <g id="legend_1">
    <g id="patch_7">
     <path d="M 116.00375 353.02505 
L 355.806875 353.02505 
Q 357.806875 353.02505 357.806875 351.02505 
L 357.806875 337.346925 
Q 357.806875 335.346925 355.806875 335.346925 
L 116.00375 335.346925 
Q 114.00375 335.346925 114.00375 337.346925 
L 114.00375 351.02505 
Q 114.00375 353.02505 116.00375 353.02505 
z
" style="fill:#4c4c4c;opacity:0.5;stroke:#4c4c4c;stroke-linejoin:miter;"/>
    </g>
    <g id="patch_8">
     <path d="M 114.00375 351.02505 
L 353.806875 351.02505 
Q 355.806875 351.02505 355.806875 349.02505 
L 355.806875 335.346925 
Q 355.806875 333.346925 353.806875 333.346925 
L 114.00375 333.346925 
Q 112.00375 333.346925 112.00375 335.346925 
L 112.00375 349.02505 
Q 112.00375 351.02505 114.00375 351.02505 
z
" style="fill:#ffffff;stroke:#cccccc;stroke-linejoin:miter;"/>
    </g>
    <g id="line2d_14">
     <path d="M 116.00375 341.445362 
L 136.00375 341.445362 
" style="fill:none;stroke:#ff0000;stroke-linecap:square;stroke-width:1.5;"/>
    </g>
    <g id="line2d_15"/>
    <g id="text_14">
     <!-- Average Reward -->
     <defs>
      <path d="M 34.1875 63.1875 
L 20.796875 26.90625 
L 47.609375 26.90625 
z
M 28.609375 72.90625 
L 39.796875 72.90625 
L 67.578125 0 
L 57.328125 0 
L 50.6875 18.703125 
L 17.828125 18.703125 
L 11.1875 0 
L 0.78125 0 
z
" id="DejaVuSans-65"/>
      <path d="M 2.984375 54.6875 
L 12.5 54.6875 
L 29.59375 8.796875 
L 46.6875 54.6875 
L 56.203125 54.6875 
L 35.6875 0 
L 23.484375 0 
z
" id="DejaVuSans-118"/>
      <path d="M 45.40625 27.984375 
Q 45.40625 37.75 41.375 43.109375 
Q 37.359375 48.484375 30.078125 48.484375 
Q 22.859375 48.484375 18.828125 43.109375 
Q 14.796875 37.75 14.796875 27.984375 
Q 14.796875 18.265625 18.828125 12.890625 
Q 22.859375 7.515625 30.078125 7.515625 
Q 37.359375 7.515625 41.375 12.890625 
Q 45.40625 18.265625 45.40625 27.984375 
z
M 54.390625 6.78125 
Q 54.390625 -7.171875 48.1875 -13.984375 
Q 42 -20.796875 29.203125 -20.796875 
Q 24.46875 -20.796875 20.265625 -20.09375 
Q 16.0625 -19.390625 12.109375 -17.921875 
L 12.109375 -9.1875 
Q 16.0625 -11.328125 19.921875 -12.34375 
Q 23.78125 -13.375 27.78125 -13.375 
Q 36.625 -13.375 41.015625 -8.765625 
Q 45.40625 -4.15625 45.40625 5.171875 
L 45.40625 9.625 
Q 42.625 4.78125 38.28125 2.390625 
Q 33.9375 0 27.875 0 
Q 17.828125 0 11.671875 7.65625 
Q 5.515625 15.328125 5.515625 27.984375 
Q 5.515625 40.671875 11.671875 48.328125 
Q 17.828125 56 27.875 56 
Q 33.9375 56 38.28125 53.609375 
Q 42.625 51.21875 45.40625 46.390625 
L 45.40625 54.6875 
L 54.390625 54.6875 
z
" id="DejaVuSans-103"/>
     </defs>
     <g transform="translate(144.00375 344.945362)scale(0.1 -0.1)">
      <use xlink:href="#DejaVuSans-65"/>
      <use x="68.330078" xlink:href="#DejaVuSans-118"/>
      <use x="127.509766" xlink:href="#DejaVuSans-101"/>
      <use x="189.033203" xlink:href="#DejaVuSans-114"/>
      <use x="230.146484" xlink:href="#DejaVuSans-97"/>
      <use x="291.425781" xlink:href="#DejaVuSans-103"/>
      <use x="354.902344" xlink:href="#DejaVuSans-101"/>
      <use x="416.425781" xlink:href="#DejaVuSans-32"/>
      <use x="448.212891" xlink:href="#DejaVuSans-82"/>
      <use x="517.632812" xlink:href="#DejaVuSans-101"/>
      <use x="579.15625" xlink:href="#DejaVuSans-119"/>
      <use x="660.943359" xlink:href="#DejaVuSans-97"/>
      <use x="722.222656" xlink:href="#DejaVuSans-114"/>
      <use x="763.320312" xlink:href="#DejaVuSans-100"/>
     </g>
    </g>
    <g id="line2d_16">
     <path d="M 246.686563 341.445362 
L 266.686563 341.445362 
" style="fill:none;stroke:#ffa500;stroke-linecap:square;stroke-width:1.5;"/>
    </g>
    <g id="line2d_17"/>
    <g id="text_15">
     <!-- Episode Length -->
     <defs>
      <path d="M 9.8125 72.90625 
L 19.671875 72.90625 
L 19.671875 8.296875 
L 55.171875 8.296875 
L 55.171875 0 
L 9.8125 0 
z
" id="DejaVuSans-76"/>
      <path d="M 54.890625 33.015625 
L 54.890625 0 
L 45.90625 0 
L 45.90625 32.71875 
Q 45.90625 40.484375 42.875 44.328125 
Q 39.84375 48.1875 33.796875 48.1875 
Q 26.515625 48.1875 22.3125 43.546875 
Q 18.109375 38.921875 18.109375 30.90625 
L 18.109375 0 
L 9.078125 0 
L 9.078125 75.984375 
L 18.109375 75.984375 
L 18.109375 46.1875 
Q 21.34375 51.125 25.703125 53.5625 
Q 30.078125 56 35.796875 56 
Q 45.21875 56 50.046875 50.171875 
Q 54.890625 44.34375 54.890625 33.015625 
z
" id="DejaVuSans-104"/>
     </defs>
     <g transform="translate(274.686563 344.945362)scale(0.1 -0.1)">
      <use xlink:href="#DejaVuSans-69"/>
      <use x="63.183594" xlink:href="#DejaVuSans-112"/>
      <use x="126.660156" xlink:href="#DejaVuSans-105"/>
      <use x="154.443359" xlink:href="#DejaVuSans-115"/>
      <use x="206.542969" xlink:href="#DejaVuSans-111"/>
      <use x="267.724609" xlink:href="#DejaVuSans-100"/>
      <use x="331.201172" xlink:href="#DejaVuSans-101"/>
      <use x="392.724609" xlink:href="#DejaVuSans-32"/>
      <use x="424.511719" xlink:href="#DejaVuSans-76"/>
      <use x="480.208984" xlink:href="#DejaVuSans-101"/>
      <use x="541.732422" xlink:href="#DejaVuSans-110"/>
      <use x="605.111328" xlink:href="#DejaVuSans-103"/>
      <use x="668.587891" xlink:href="#DejaVuSans-116"/>
      <use x="707.796875" xlink:href="#DejaVuSans-104"/>
     </g>
    </g>
   </g>
  </g>
  <g id="axes_2">
   <g id="matplotlib.axis_3">
    <g id="ytick_6">
     <g id="line2d_18">
      <defs>
       <path d="M 0 0 
L 3.5 0 
" id="m60b001187b" style="stroke:#000000;stroke-width:0.8;"/>
      </defs>
      <g>
       <use style="stroke:#000000;stroke-width:0.8;" x="412.465312" xlink:href="#m60b001187b" y="254.07784"/>
      </g>
     </g>
     <g id="text_16">
      <!-- 800 -->
      <defs>
       <path d="M 31.78125 34.625 
Q 24.75 34.625 20.71875 30.859375 
Q 16.703125 27.09375 16.703125 20.515625 
Q 16.703125 13.921875 20.71875 10.15625 
Q 24.75 6.390625 31.78125 6.390625 
Q 38.8125 6.390625 42.859375 10.171875 
Q 46.921875 13.96875 46.921875 20.515625 
Q 46.921875 27.09375 42.890625 30.859375 
Q 38.875 34.625 31.78125 34.625 
z
M 21.921875 38.8125 
Q 15.578125 40.375 12.03125 44.71875 
Q 8.5 49.078125 8.5 55.328125 
Q 8.5 64.0625 14.71875 69.140625 
Q 20.953125 74.21875 31.78125 74.21875 
Q 42.671875 74.21875 48.875 69.140625 
Q 55.078125 64.0625 55.078125 55.328125 
Q 55.078125 49.078125 51.53125 44.71875 
Q 48 40.375 41.703125 38.8125 
Q 48.828125 37.15625 52.796875 32.3125 
Q 56.78125 27.484375 56.78125 20.515625 
Q 56.78125 9.90625 50.3125 4.234375 
Q 43.84375 -1.421875 31.78125 -1.421875 
Q 19.734375 -1.421875 13.25 4.234375 
Q 6.78125 9.90625 6.78125 20.515625 
Q 6.78125 27.484375 10.78125 32.3125 
Q 14.796875 37.15625 21.921875 38.8125 
z
M 18.3125 54.390625 
Q 18.3125 48.734375 21.84375 45.5625 
Q 25.390625 42.390625 31.78125 42.390625 
Q 38.140625 42.390625 41.71875 45.5625 
Q 45.3125 48.734375 45.3125 54.390625 
Q 45.3125 60.0625 41.71875 63.234375 
Q 38.140625 66.40625 31.78125 66.40625 
Q 25.390625 66.40625 21.84375 63.234375 
Q 18.3125 60.0625 18.3125 54.390625 
z
" id="DejaVuSans-56"/>
      </defs>
      <g transform="translate(419.465312 257.877059)scale(0.1 -0.1)">
       <use xlink:href="#DejaVuSans-56"/>
       <use x="63.623047" xlink:href="#DejaVuSans-48"/>
       <use x="127.246094" xlink:href="#DejaVuSans-48"/>
      </g>
     </g>
    </g>
    <g id="ytick_7">
     <g id="line2d_19">
      <g>
       <use style="stroke:#000000;stroke-width:0.8;" x="412.465312" xlink:href="#m60b001187b" y="199.161912"/>
      </g>
     </g>
     <g id="text_17">
      <!-- 1000 -->
      <g transform="translate(419.465312 202.96113)scale(0.1 -0.1)">
       <use xlink:href="#DejaVuSans-49"/>
       <use x="63.623047" xlink:href="#DejaVuSans-48"/>
       <use x="127.246094" xlink:href="#DejaVuSans-48"/>
       <use x="190.869141" xlink:href="#DejaVuSans-48"/>
      </g>
     </g>
    </g>
    <g id="ytick_8">
     <g id="line2d_20">
      <g>
       <use style="stroke:#000000;stroke-width:0.8;" x="412.465312" xlink:href="#m60b001187b" y="144.245983"/>
      </g>
     </g>
     <g id="text_18">
      <!-- 1200 -->
      <g transform="translate(419.465312 148.045201)scale(0.1 -0.1)">
       <use xlink:href="#DejaVuSans-49"/>
       <use x="63.623047" xlink:href="#DejaVuSans-50"/>
       <use x="127.246094" xlink:href="#DejaVuSans-48"/>
       <use x="190.869141" xlink:href="#DejaVuSans-48"/>
      </g>
     </g>
    </g>
    <g id="ytick_9">
     <g id="line2d_21">
      <g>
       <use style="stroke:#000000;stroke-width:0.8;" x="412.465312" xlink:href="#m60b001187b" y="89.330054"/>
      </g>
     </g>
     <g id="text_19">
      <!-- 1400 -->
      <defs>
       <path d="M 37.796875 64.3125 
L 12.890625 25.390625 
L 37.796875 25.390625 
z
M 35.203125 72.90625 
L 47.609375 72.90625 
L 47.609375 25.390625 
L 58.015625 25.390625 
L 58.015625 17.1875 
L 47.609375 17.1875 
L 47.609375 0 
L 37.796875 0 
L 37.796875 17.1875 
L 4.890625 17.1875 
L 4.890625 26.703125 
z
" id="DejaVuSans-52"/>
      </defs>
      <g transform="translate(419.465312 93.129273)scale(0.1 -0.1)">
       <use xlink:href="#DejaVuSans-49"/>
       <use x="63.623047" xlink:href="#DejaVuSans-52"/>
       <use x="127.246094" xlink:href="#DejaVuSans-48"/>
       <use x="190.869141" xlink:href="#DejaVuSans-48"/>
      </g>
     </g>
    </g>
    <g id="ytick_10">
     <g id="line2d_22">
      <g>
       <use style="stroke:#000000;stroke-width:0.8;" x="412.465312" xlink:href="#m60b001187b" y="34.414125"/>
      </g>
     </g>
     <g id="text_20">
      <!-- 1600 -->
      <defs>
       <path d="M 33.015625 40.375 
Q 26.375 40.375 22.484375 35.828125 
Q 18.609375 31.296875 18.609375 23.390625 
Q 18.609375 15.53125 22.484375 10.953125 
Q 26.375 6.390625 33.015625 6.390625 
Q 39.65625 6.390625 43.53125 10.953125 
Q 47.40625 15.53125 47.40625 23.390625 
Q 47.40625 31.296875 43.53125 35.828125 
Q 39.65625 40.375 33.015625 40.375 
z
M 52.59375 71.296875 
L 52.59375 62.3125 
Q 48.875 64.0625 45.09375 64.984375 
Q 41.3125 65.921875 37.59375 65.921875 
Q 27.828125 65.921875 22.671875 59.328125 
Q 17.53125 52.734375 16.796875 39.40625 
Q 19.671875 43.65625 24.015625 45.921875 
Q 28.375 48.1875 33.59375 48.1875 
Q 44.578125 48.1875 50.953125 41.515625 
Q 57.328125 34.859375 57.328125 23.390625 
Q 57.328125 12.15625 50.6875 5.359375 
Q 44.046875 -1.421875 33.015625 -1.421875 
Q 20.359375 -1.421875 13.671875 8.265625 
Q 6.984375 17.96875 6.984375 36.375 
Q 6.984375 53.65625 15.1875 63.9375 
Q 23.390625 74.21875 37.203125 74.21875 
Q 40.921875 74.21875 44.703125 73.484375 
Q 48.484375 72.75 52.59375 71.296875 
z
" id="DejaVuSans-54"/>
      </defs>
      <g transform="translate(419.465312 38.213344)scale(0.1 -0.1)">
       <use xlink:href="#DejaVuSans-49"/>
       <use x="63.623047" xlink:href="#DejaVuSans-54"/>
       <use x="127.246094" xlink:href="#DejaVuSans-48"/>
       <use x="190.869141" xlink:href="#DejaVuSans-48"/>
      </g>
     </g>
    </g>
    <g id="text_21">
     <!-- Episode Steps -->
     <defs>
      <path d="M 53.515625 70.515625 
L 53.515625 60.890625 
Q 47.90625 63.578125 42.921875 64.890625 
Q 37.9375 66.21875 33.296875 66.21875 
Q 25.25 66.21875 20.875 63.09375 
Q 16.5 59.96875 16.5 54.203125 
Q 16.5 49.359375 19.40625 46.890625 
Q 22.3125 44.4375 30.421875 42.921875 
L 36.375 41.703125 
Q 47.40625 39.59375 52.65625 34.296875 
Q 57.90625 29 57.90625 20.125 
Q 57.90625 9.515625 50.796875 4.046875 
Q 43.703125 -1.421875 29.984375 -1.421875 
Q 24.8125 -1.421875 18.96875 -0.25 
Q 13.140625 0.921875 6.890625 3.21875 
L 6.890625 13.375 
Q 12.890625 10.015625 18.65625 8.296875 
Q 24.421875 6.59375 29.984375 6.59375 
Q 38.421875 6.59375 43.015625 9.90625 
Q 47.609375 13.234375 47.609375 19.390625 
Q 47.609375 24.75 44.3125 27.78125 
Q 41.015625 30.8125 33.5 32.328125 
L 27.484375 33.5 
Q 16.453125 35.6875 11.515625 40.375 
Q 6.59375 45.0625 6.59375 53.421875 
Q 6.59375 63.09375 13.40625 68.65625 
Q 20.21875 74.21875 32.171875 74.21875 
Q 37.3125 74.21875 42.625 73.28125 
Q 47.953125 72.359375 53.515625 70.515625 
z
" id="DejaVuSans-83"/>
     </defs>
     <g transform="translate(456.51375 190.590531)rotate(-90)scale(0.1 -0.1)">
      <use xlink:href="#DejaVuSans-69"/>
      <use x="63.183594" xlink:href="#DejaVuSans-112"/>
      <use x="126.660156" xlink:href="#DejaVuSans-105"/>
      <use x="154.443359" xlink:href="#DejaVuSans-115"/>
      <use x="206.542969" xlink:href="#DejaVuSans-111"/>
      <use x="267.724609" xlink:href="#DejaVuSans-100"/>
      <use x="331.201172" xlink:href="#DejaVuSans-101"/>
      <use x="392.724609" xlink:href="#DejaVuSans-32"/>
      <use x="424.511719" xlink:href="#DejaVuSans-83"/>
      <use x="487.988281" xlink:href="#DejaVuSans-116"/>
      <use x="527.197266" xlink:href="#DejaVuSans-101"/>
      <use x="588.720703" xlink:href="#DejaVuSans-112"/>
      <use x="652.197266" xlink:href="#DejaVuSans-115"/>
     </g>
    </g>
   </g>
   <g id="line2d_23">
    <path clip-path="url(#pe6f6a1e89f)" d="M 71.57804 274.396734 
L 72.989581 266.571214 
L 74.401123 244.295941 
L 75.812664 146.417658 
L 77.224206 213.440053 
L 80.047289 81.672333 
L 81.45883 173.488715 
L 82.870372 81.641824 
L 85.693455 213.106635 
L 87.104996 149.537881 
L 88.516538 149.51292 
L 89.928079 229.823305 
L 91.339621 149.413072 
L 92.751162 118.408038 
L 94.162704 34.414125 
L 95.574245 81.092665 
L 96.985787 119.286693 
L 98.397328 80.207908 
L 99.80887 149.737576 
L 101.220411 34.414125 
L 102.631953 149.363149 
L 104.043494 149.413072 
L 105.455036 81.062156 
L 106.866577 34.414125 
L 108.278119 81.580806 
L 109.68966 149.23834 
L 111.101202 118.874824 
L 112.512743 211.400319 
L 113.924285 173.168372 
L 115.335826 148.015212 
L 116.747368 81.48928 
L 118.158909 81.458771 
L 119.570451 34.414125 
L 120.981992 81.245209 
L 122.393534 80.94012 
L 123.805075 174.495507 
L 125.216617 34.414125 
L 126.628158 147.116588 
L 128.0397 81.48928 
L 129.451241 80.543505 
L 130.862783 81.641824 
L 132.274324 34.414125 
L 133.685866 119.369067 
L 135.097407 81.397753 
L 136.508949 81.123173 
L 137.92049 81.062156 
L 139.332032 34.414125 
L 140.743573 119.478899 
L 142.155115 34.414125 
L 144.978198 34.414125 
L 146.389739 118.847366 
L 147.801281 34.414125 
L 150.624364 34.414125 
L 152.035905 81.672333 
L 153.447447 81.672333 
L 154.858988 79.445187 
L 156.27053 118.572786 
L 157.682071 34.414125 
L 159.093613 34.414125 
L 160.505154 118.298206 
L 161.916696 174.632797 
L 163.328237 81.428262 
L 164.739779 118.874824 
L 166.15132 81.702842 
L 167.562862 81.672333 
L 168.974403 148.214907 
L 170.385945 148.863913 
L 171.797486 81.641824 
L 173.209028 34.414125 
L 174.620569 118.984655 
L 176.032111 81.672333 
L 177.443652 34.414125 
L 178.855194 81.031647 
L 180.266735 118.24329 
L 181.678277 81.763859 
L 183.089818 213.322376 
L 184.50136 80.665541 
L 185.912901 34.414125 
L 187.324443 119.231777 
L 188.735984 34.414125 
L 191.559067 34.414125 
L 192.970609 80.848594 
L 194.38215 81.641824 
L 195.793692 34.414125 
L 197.205233 119.451441 
L 198.616775 81.48928 
L 200.028316 147.765595 
L 201.439858 117.117514 
L 202.851399 82.038439 
L 204.262941 80.818085 
L 205.674482 34.414125 
L 207.086024 175.159074 
L 208.497565 149.413072 
L 209.909107 81.184191 
L 211.320648 116.403607 
L 214.143731 173.854821 
L 215.555273 118.92974 
L 216.966814 116.376149 
L 218.378356 117.831421 
L 219.789897 193.987141 
L 221.201439 79.35366 
L 222.61298 81.763859 
L 224.024522 34.414125 
L 225.436063 80.879103 
L 226.847605 34.414125 
L 228.259146 175.616707 
L 229.670688 119.259235 
L 231.082229 118.764992 
L 232.493771 197.662284 
L 233.905312 81.73335 
L 235.316854 149.413072 
L 236.728396 197.641163 
L 238.139937 149.837423 
L 239.551479 196.648452 
L 240.96302 216.362365 
L 243.786103 173.992111 
L 245.197645 173.168372 
L 246.609186 119.149403 
L 249.432269 231.068066 
L 250.843811 195.465647 
L 252.255352 174.792968 
L 253.666894 148.040174 
L 255.078435 231.727057 
L 257.901518 118.133459 
L 259.31306 216.166237 
L 260.724601 118.078543 
L 262.136143 174.518388 
L 263.547684 197.451069 
L 264.959226 175.433654 
L 266.370767 195.697984 
L 267.782309 173.877703 
L 269.19385 231.836889 
L 270.605392 146.517505 
L 272.016933 175.273483 
L 273.428475 173.099727 
L 274.840016 116.815476 
L 276.251558 196.965274 
L 277.663099 118.353122 
L 279.074641 146.742161 
L 280.486182 196.226022 
L 281.897724 81.580806 
L 283.309265 213.891148 
L 284.720807 167.722542 
L 286.132348 174.976021 
L 287.54389 210.458903 
L 288.955431 81.641824 
L 290.366973 81.702842 
L 291.778514 174.95314 
L 293.190056 149.787499 
L 294.601597 149.438034 
L 296.013139 119.286693 
L 297.42468 149.138493 
L 298.836222 215.185595 
L 300.247763 116.403607 
L 301.659305 117.996169 
L 303.070846 118.65516 
L 304.482388 118.682618 
L 305.893929 148.913837 
L 307.305471 213.851923 
L 308.717012 119.533815 
L 310.128554 149.537881 
L 311.540095 147.990251 
L 312.951637 119.314151 
L 314.363178 149.013684 
L 315.77472 148.514448 
L 317.186261 194.81088 
L 318.597803 147.191473 
L 320.009344 195.951442 
L 321.420886 195.022095 
L 322.832427 149.063607 
L 324.243969 150.037117 
L 325.65551 81.519788 
L 327.067052 117.419551 
L 328.478593 197.852378 
L 329.890135 172.664976 
L 331.301676 195.909199 
L 332.713218 173.992111 
L 334.124759 118.160917 
L 335.536301 119.341609 
L 336.947842 119.176861 
L 338.359384 80.238417 
L 339.770925 196.521723 
L 341.182467 116.183943 
L 342.594008 149.66269 
L 344.00555 145.568957 
L 345.417091 114.591381 
L 346.828633 196.500601 
L 348.240174 150.611238 
L 349.651716 216.127011 
L 351.063257 194.66303 
L 352.474799 196.859667 
L 353.88634 175.342127 
L 355.297882 174.198046 
L 356.709423 149.537881 
L 358.120965 81.48928 
L 359.532506 175.548062 
L 360.944048 175.776879 
L 362.355589 150.436506 
L 363.767131 194.515179 
L 365.178672 197.218733 
L 366.590214 175.959932 
L 368.001755 34.414125 
L 369.413297 192.952187 
L 370.824838 148.913837 
L 372.23638 148.838951 
L 373.647921 116.019195 
L 375.059463 194.451815 
L 376.471004 149.388111 
L 377.882546 229.53042 
L 379.294087 214.401082 
L 380.705629 118.627702 
L 382.11717 243.781104 
L 383.528712 148.639257 
L 384.940253 174.220927 
L 386.351795 193.860412 
L 387.763336 149.562843 
L 389.174878 176.234511 
L 390.586419 176.326038 
L 391.997961 118.600244 
L 393.409502 171.109025 
L 394.821044 194.472936 
L 396.232585 117.968711 
L 396.232585 117.968711 
" style="fill:none;stroke:#ffa500;stroke-dasharray:5.55,2.4;stroke-dashoffset:0;stroke-opacity:0.3;stroke-width:1.5;"/>
   </g>
   <g id="line2d_24">
    <path clip-path="url(#pe6f6a1e89f)" d="M 71.57804 276.334125 
L 72.989581 258.976417 
L 74.401123 232.528294 
L 77.224206 169.432619 
L 78.635747 141.320975 
L 80.047289 132.536501 
L 81.45883 132.886505 
L 82.870372 134.286619 
L 84.281913 141.964643 
L 85.693455 163.826292 
L 87.104996 183.177908 
L 88.516538 172.194452 
L 89.928079 162.677466 
L 91.339621 140.083956 
L 92.751162 112.507006 
L 94.162704 112.05957 
L 95.574245 90.008958 
L 96.985787 76.067326 
L 99.80887 109.957285 
L 101.220411 115.874729 
L 102.631953 100.744166 
L 104.043494 95.738575 
L 105.455036 89.956814 
L 106.866577 92.592075 
L 108.278119 113.50645 
L 109.68966 122.689958 
L 111.101202 138.996893 
L 112.512743 158.315957 
L 113.924285 154.91586 
L 115.335826 134.592508 
L 116.747368 102.265436 
L 118.158909 97.762516 
L 119.570451 72.470223 
L 120.981992 77.318615 
L 122.393534 85.620161 
L 123.805075 97.113919 
L 125.216617 105.542388 
L 126.628158 100.431932 
L 128.0397 92.129403 
L 129.451241 85.389802 
L 130.862783 76.168252 
L 132.274324 88.234169 
L 133.685866 70.25448 
L 135.097407 81.090332 
L 136.508949 81.946286 
L 137.92049 79.226234 
L 139.332032 67.232487 
L 140.743573 59.983008 
L 142.155115 61.551626 
L 143.566656 58.735033 
L 144.978198 51.790856 
L 146.389739 50.740861 
L 147.801281 45.867801 
L 149.212822 54.324705 
L 150.624364 66.312407 
L 152.035905 71.117373 
L 153.447447 61.700379 
L 154.858988 67.082382 
L 156.27053 80.738755 
L 157.682071 85.745876 
L 159.093613 91.197501 
L 160.505154 98.133393 
L 161.916696 96.997363 
L 163.328237 99.826508 
L 164.739779 119.268044 
L 166.15132 124.751495 
L 167.562862 106.224299 
L 168.974403 100.579018 
L 170.385945 109.630927 
L 171.797486 98.214061 
L 173.209028 88.868146 
L 174.620569 81.535158 
L 176.032111 60.548593 
L 177.443652 75.995731 
L 178.855194 99.746734 
L 180.266735 103.227266 
L 181.678277 106.293308 
L 183.089818 112.855606 
L 184.50136 109.873938 
L 185.912901 87.65993 
L 187.324443 68.768653 
L 188.735984 61.298728 
L 190.147526 39.189504 
L 191.559067 53.753898 
L 192.970609 55.271511 
L 194.38215 60.129854 
L 195.793692 84.716561 
L 197.205233 97.450812 
L 198.616775 108.00367 
L 200.028316 94.721107 
L 201.439858 96.187583 
L 202.851399 107.340748 
L 204.262941 100.678439 
L 205.674482 101.297448 
L 207.086024 97.267808 
L 208.497565 114.247496 
L 209.909107 129.409431 
L 211.320648 137.237955 
L 212.73219 133.50157 
L 214.143731 131.595285 
L 216.966814 147.211794 
L 218.378356 130.54955 
L 219.789897 116.674169 
L 221.201439 89.064926 
L 222.61298 85.200897 
L 224.024522 80.43391 
L 225.436063 72.10964 
L 226.847605 85.320378 
L 228.259146 106.669292 
L 229.670688 116.797713 
L 231.082229 137.320907 
L 232.493771 142.337556 
L 233.905312 150.170882 
L 235.316854 149.858664 
L 236.728396 168.815502 
L 238.139937 178.829939 
L 240.96302 195.929166 
L 242.374562 179.879311 
L 243.786103 175.205939 
L 245.197645 179.569091 
L 246.609186 177.173934 
L 248.020728 169.305967 
L 249.432269 177.949697 
L 250.843811 190.562146 
L 252.255352 185.999677 
L 253.666894 193.916467 
L 255.078435 178.664526 
L 256.489977 165.13811 
L 257.901518 167.04479 
L 259.31306 166.957404 
L 260.724601 169.602603 
L 262.136143 161.569404 
L 263.547684 180.3553 
L 264.959226 188.287246 
L 266.370767 184.457614 
L 267.782309 197.377467 
L 269.19385 181.664726 
L 270.605392 179.28206 
L 272.016933 172.609376 
L 273.428475 158.103345 
L 274.840016 161.54256 
L 276.251558 143.8364 
L 277.663099 150.117714 
L 279.074641 148.517226 
L 280.486182 150.19202 
L 281.897724 169.784232 
L 283.309265 170.339123 
L 284.720807 166.587537 
L 286.132348 157.533584 
L 287.54389 149.754429 
L 288.955431 153.757565 
L 290.366973 133.96449 
L 291.778514 127.276625 
L 294.601597 142.85701 
L 296.013139 159.17572 
L 297.42468 155.998021 
L 298.836222 140.752196 
L 300.247763 132.610136 
L 301.659305 139.191295 
L 303.070846 140.713864 
L 304.482388 137.303473 
L 305.893929 139.231525 
L 307.305471 150.123093 
L 308.717012 151.366271 
L 310.128554 146.848856 
L 311.540095 148.602927 
L 312.951637 141.720997 
L 314.363178 141.233316 
L 315.77472 160.962481 
L 317.186261 167.132026 
L 318.597803 179.26643 
L 320.009344 178.558542 
L 321.420886 160.633521 
L 322.832427 151.542063 
L 324.243969 140.841342 
L 325.65551 144.058723 
L 327.067052 147.729447 
L 328.478593 154.927215 
L 329.890135 163.4132 
L 331.301676 168.517186 
L 334.124759 147.237022 
L 335.536301 129.267462 
L 336.947842 124.722696 
L 338.359384 124.460211 
L 339.770925 123.433423 
L 341.182467 136.254442 
L 342.594008 138.232556 
L 344.00555 147.718219 
L 345.417091 158.08436 
L 346.828633 161.545969 
L 348.240174 179.351574 
L 349.651716 187.048853 
L 351.063257 198.182937 
L 352.474799 188.337582 
L 353.88634 170.519164 
L 355.297882 165.450649 
L 356.709423 148.524044 
L 358.120965 145.587238 
L 359.532506 149.387626 
L 360.944048 169.996833 
L 362.355589 163.124046 
L 363.767131 167.24657 
L 365.178672 168.483659 
L 366.590214 157.224658 
L 368.001755 144.783386 
L 369.413297 143.293478 
L 370.824838 131.691429 
L 372.23638 137.879524 
L 373.647921 163.096466 
L 375.059463 173.619951 
L 376.471004 174.159776 
L 377.882546 185.232288 
L 379.294087 188.407099 
L 380.705629 194.199373 
L 382.11717 184.002119 
L 383.528712 181.452989 
L 384.940253 175.697307 
L 386.351795 171.582996 
L 387.763336 169.714996 
L 389.174878 162.887779 
L 390.586419 166.854679 
L 391.997961 169.090053 
L 393.409502 166.534911 
L 394.821044 156.130263 
L 396.232585 134.81712 
L 396.232585 134.81712 
" style="fill:none;stroke:#ffa500;stroke-linecap:square;stroke-width:1.5;"/>
   </g>
   <g id="patch_9">
    <path d="M 55.345313 288.430125 
L 55.345313 22.318125 
" style="fill:none;stroke:#000000;stroke-linecap:square;stroke-linejoin:miter;stroke-width:0.8;"/>
   </g>
   <g id="patch_10">
    <path d="M 412.465312 288.430125 
L 412.465312 22.318125 
" style="fill:none;stroke:#000000;stroke-linecap:square;stroke-linejoin:miter;stroke-width:0.8;"/>
   </g>
   <g id="patch_11">
    <path d="M 55.345313 288.430125 
L 412.465312 288.430125 
" style="fill:none;stroke:#000000;stroke-linecap:square;stroke-linejoin:miter;stroke-width:0.8;"/>
   </g>
   <g id="patch_12">
    <path d="M 55.345313 22.318125 
L 412.465312 22.318125 
" style="fill:none;stroke:#000000;stroke-linecap:square;stroke-linejoin:miter;stroke-width:0.8;"/>
   </g>
  </g>
 </g>
 <defs>
  <clipPath id="pe6f6a1e89f">
   <rect height="266.112" width="357.12" x="55.345313" y="22.318125"/>
  </clipPath>
 </defs>
</svg>
